<?xml version="1.0" encoding="UTF-8" standalone="no"?>
<!DOCTYPE svg PUBLIC "-//W3C//DTD SVG 1.1//EN"
 "http://www.w3.org/Graphics/SVG/1.1/DTD/svg11.dtd">
<!-- Generated by graphviz version 2.40.1 (20161225.0304)
 -->
<!-- Title: src/Core/Geometry/Adjacency.hpp Pages: 1 -->
<svg width="489pt" height="196pt"
 viewBox="0.00 0.00 489.00 196.00" xmlns="http://www.w3.org/2000/svg" xmlns:xlink="http://www.w3.org/1999/xlink">
<g id="graph0" class="graph" transform="scale(1 1) rotate(0) translate(4 192)">
<title>src/Core/Geometry/Adjacency.hpp</title>
<polygon fill="#ffffff" stroke="transparent" points="-4,4 -4,-192 485,-192 485,4 -4,4"/>
<!-- Node16 -->
<g id="node1" class="node">
<title>Node16</title>
<polygon fill="#bfbfbf" stroke="#000000" points="98.5,-168.5 98.5,-187.5 279.5,-187.5 279.5,-168.5 98.5,-168.5"/>
<text text-anchor="middle" x="189" y="-175.5" font-family="Helvetica,sans-Serif" font-size="10.00" fill="#000000">src/Core/Geometry/Adjacency.hpp</text>
</g>
<!-- Node17 -->
<g id="node2" class="node">
<title>Node17</title>
<g id="a_node2"><a xlink:href="Adjacency_8cpp.html" target="_top" xlink:title="src/Core/Geometry/Adjacency.cpp">
<polygon fill="#ffffff" stroke="#000000" points="0,-112.5 0,-131.5 180,-131.5 180,-112.5 0,-112.5"/>
<text text-anchor="middle" x="90" y="-119.5" font-family="Helvetica,sans-Serif" font-size="10.00" fill="#000000">src/Core/Geometry/Adjacency.cpp</text>
</a>
</g>
</g>
<!-- Node16&#45;&gt;Node17 -->
<g id="edge1" class="edge">
<title>Node16&#45;&gt;Node17</title>
<path fill="none" stroke="#191970" d="M162.5643,-163.0465C144.9492,-153.0824 122.3153,-140.2794 107.0469,-131.6427"/>
<polygon fill="#191970" stroke="#191970" points="161.3283,-166.3684 171.7555,-168.2455 164.7747,-160.2756 161.3283,-166.3684"/>
</g>
<!-- Node18 -->
<g id="node3" class="node">
<title>Node18</title>
<g id="a_node3"><a xlink:href="Laplacian_8hpp.html" target="_top" xlink:title="src/Core/Geometry/Laplacian.hpp">
<polygon fill="#ffffff" stroke="#000000" points="198.5,-112.5 198.5,-131.5 377.5,-131.5 377.5,-112.5 198.5,-112.5"/>
<text text-anchor="middle" x="288" y="-119.5" font-family="Helvetica,sans-Serif" font-size="10.00" fill="#000000">src/Core/Geometry/Laplacian.hpp</text>
</a>
</g>
</g>
<!-- Node16&#45;&gt;Node18 -->
<g id="edge2" class="edge">
<title>Node16&#45;&gt;Node18</title>
<path fill="none" stroke="#191970" d="M215.4357,-163.0465C233.0508,-153.0824 255.6847,-140.2794 270.9531,-131.6427"/>
<polygon fill="#191970" stroke="#191970" points="213.2253,-160.2756 206.2445,-168.2455 216.6717,-166.3684 213.2253,-160.2756"/>
</g>
<!-- Node19 -->
<g id="node4" class="node">
<title>Node19</title>
<g id="a_node4"><a xlink:href="HeatDiffusion_8hpp.html" target="_top" xlink:title="src/Core/Geometry/HeatDiffusion.hpp">
<polygon fill="#ffffff" stroke="#000000" points="85.5,-56.5 85.5,-75.5 284.5,-75.5 284.5,-56.5 85.5,-56.5"/>
<text text-anchor="middle" x="185" y="-63.5" font-family="Helvetica,sans-Serif" font-size="10.00" fill="#000000">src/Core/Geometry/HeatDiffusion.hpp</text>
</a>
</g>
</g>
<!-- Node18&#45;&gt;Node19 -->
<g id="edge3" class="edge">
<title>Node18&#45;&gt;Node19</title>
<path fill="none" stroke="#191970" d="M261.2568,-107.46C242.825,-97.4388 218.8416,-84.3993 202.7356,-75.6427"/>
<polygon fill="#191970" stroke="#191970" points="259.6015,-110.5438 270.0588,-112.2455 262.9451,-104.394 259.6015,-110.5438"/>
</g>
<!-- Node21 -->
<g id="node6" class="node">
<title>Node21</title>
<g id="a_node6"><a xlink:href="Laplacian_8cpp.html" target="_top" xlink:title="src/Core/Geometry/Laplacian.cpp">
<polygon fill="#ffffff" stroke="#000000" points="303,-56.5 303,-75.5 481,-75.5 481,-56.5 303,-56.5"/>
<text text-anchor="middle" x="392" y="-63.5" font-family="Helvetica,sans-Serif" font-size="10.00" fill="#000000">src/Core/Geometry/Laplacian.cpp</text>
</a>
</g>
</g>
<!-- Node18&#45;&gt;Node21 -->
<g id="edge5" class="edge">
<title>Node18&#45;&gt;Node21</title>
<path fill="none" stroke="#191970" d="M315.0029,-107.46C333.6136,-97.4388 357.8299,-84.3993 374.0922,-75.6427"/>
<polygon fill="#191970" stroke="#191970" points="313.2608,-104.4228 306.1154,-112.2455 316.5795,-110.5861 313.2608,-104.4228"/>
</g>
<!-- Node20 -->
<g id="node5" class="node">
<title>Node20</title>
<g id="a_node5"><a xlink:href="HeatDiffusion_8cpp.html" target="_top" xlink:title="src/Core/Geometry/HeatDiffusion.cpp">
<polygon fill="#ffffff" stroke="#000000" points="86,-.5 86,-19.5 284,-19.5 284,-.5 86,-.5"/>
<text text-anchor="middle" x="185" y="-7.5" font-family="Helvetica,sans-Serif" font-size="10.00" fill="#000000">src/Core/Geometry/HeatDiffusion.cpp</text>
</a>
</g>
</g>
<!-- Node19&#45;&gt;Node20 -->
<g id="edge4" class="edge">
<title>Node19&#45;&gt;Node20</title>
<path fill="none" stroke="#191970" d="M185,-46.1575C185,-37.155 185,-26.9199 185,-19.6427"/>
<polygon fill="#191970" stroke="#191970" points="181.5001,-46.2455 185,-56.2455 188.5001,-46.2456 181.5001,-46.2455"/>
</g>
</g>
</svg>
