<?xml version="1.0" encoding="UTF-8" standalone="no"?>
<!DOCTYPE svg PUBLIC "-//W3C//DTD SVG 1.1//EN"
 "http://www.w3.org/Graphics/SVG/1.1/DTD/svg11.dtd">
<!-- Generated by graphviz version 2.43.0 (0)
 -->
<!-- Title: /home/runner/work/Radium&#45;Engine/Radium&#45;Engine/src/Radium&#45;Engine/src/IO/AssimpLoader/AssimpFileLoader.hpp Pages: 1 -->
<svg width="531pt" height="285pt"
 viewBox="0.00 0.00 530.50 285.00" xmlns="http://www.w3.org/2000/svg" xmlns:xlink="http://www.w3.org/1999/xlink">
<g id="graph0" class="graph" transform="scale(1 1) rotate(0) translate(4 281)">
<title>/home/runner/work/Radium&#45;Engine/Radium&#45;Engine/src/Radium&#45;Engine/src/IO/AssimpLoader/AssimpFileLoader.hpp</title>
<polygon fill="white" stroke="transparent" points="-4,4 -4,-281 526.5,-281 526.5,4 -4,4"/>
<!-- Node1 -->
<g id="node1" class="node">
<title>Node1</title>
<g id="a_node1"><a xlink:title=" ">
<polygon fill="#bfbfbf" stroke="black" points="130,-224.5 130,-276.5 327,-276.5 327,-224.5 130,-224.5"/>
<text text-anchor="start" x="138" y="-264.5" font-family="Helvetica,sans-Serif" font-size="10.00">/home/runner/work/Radium</text>
<text text-anchor="start" x="138" y="-253.5" font-family="Helvetica,sans-Serif" font-size="10.00">&#45;Engine/Radium&#45;Engine/src</text>
<text text-anchor="start" x="138" y="-242.5" font-family="Helvetica,sans-Serif" font-size="10.00">/Radium&#45;Engine/src/IO/AssimpLoader</text>
<text text-anchor="middle" x="228.5" y="-231.5" font-family="Helvetica,sans-Serif" font-size="10.00">/AssimpFileLoader.hpp</text>
</a>
</g>
</g>
<!-- Node2 -->
<g id="node2" class="node">
<title>Node2</title>
<g id="a_node2"><a xlink:title=" ">
<polygon fill="white" stroke="#bfbfbf" points="0,-168.5 0,-187.5 117,-187.5 117,-168.5 0,-168.5"/>
<text text-anchor="middle" x="58.5" y="-175.5" font-family="Helvetica,sans-Serif" font-size="10.00">assimp/Importer.hpp</text>
</a>
</g>
</g>
<!-- Node1&#45;&gt;Node2 -->
<g id="edge1" class="edge">
<title>Node1&#45;&gt;Node2</title>
<path fill="none" stroke="midnightblue" d="M168.09,-224.45C141.11,-213.26 110.51,-200.57 88.52,-191.45"/>
<polygon fill="midnightblue" stroke="midnightblue" points="89.64,-188.12 79.06,-187.53 86.96,-194.59 89.64,-188.12"/>
</g>
<!-- Node3 -->
<g id="node3" class="node">
<title>Node3</title>
<g id="a_node3"><a xlink:href="FileLoaderInterface_8hpp.html" target="_top" xlink:title=" ">
<polygon fill="white" stroke="black" points="135,-168.5 135,-187.5 322,-187.5 322,-168.5 135,-168.5"/>
<text text-anchor="middle" x="228.5" y="-175.5" font-family="Helvetica,sans-Serif" font-size="10.00">Core/Asset/FileLoaderInterface.hpp</text>
</a>
</g>
</g>
<!-- Node1&#45;&gt;Node3 -->
<g id="edge2" class="edge">
<title>Node1&#45;&gt;Node3</title>
<path fill="none" stroke="midnightblue" d="M228.5,-224.45C228.5,-215.73 228.5,-206.1 228.5,-197.96"/>
<polygon fill="midnightblue" stroke="midnightblue" points="232,-197.7 228.5,-187.7 225,-197.7 232,-197.7"/>
</g>
<!-- Node13 -->
<g id="node13" class="node">
<title>Node13</title>
<g id="a_node13"><a xlink:href="RaIO_8hpp.html" target="_top" xlink:title=" ">
<polygon fill="white" stroke="black" points="349.5,-168.5 349.5,-187.5 423.5,-187.5 423.5,-168.5 349.5,-168.5"/>
<text text-anchor="middle" x="386.5" y="-175.5" font-family="Helvetica,sans-Serif" font-size="10.00">IO/RaIO.hpp</text>
</a>
</g>
</g>
<!-- Node1&#45;&gt;Node13 -->
<g id="edge12" class="edge">
<title>Node1&#45;&gt;Node13</title>
<path fill="none" stroke="midnightblue" d="M284.65,-224.45C309.5,-213.36 337.65,-200.8 358.05,-191.7"/>
<polygon fill="midnightblue" stroke="midnightblue" points="359.68,-194.8 367.39,-187.53 356.83,-188.41 359.68,-194.8"/>
</g>
<!-- Node4 -->
<g id="node4" class="node">
<title>Node4</title>
<g id="a_node4"><a xlink:title=" ">
<polygon fill="white" stroke="#bfbfbf" points="137.5,-112.5 137.5,-131.5 181.5,-131.5 181.5,-112.5 137.5,-112.5"/>
<text text-anchor="middle" x="159.5" y="-119.5" font-family="Helvetica,sans-Serif" font-size="10.00">string</text>
</a>
</g>
</g>
<!-- Node3&#45;&gt;Node4 -->
<g id="edge3" class="edge">
<title>Node3&#45;&gt;Node4</title>
<path fill="none" stroke="midnightblue" d="M217.41,-168.32C207.01,-160.18 191.24,-147.84 178.78,-138.09"/>
<polygon fill="midnightblue" stroke="midnightblue" points="180.82,-135.24 170.79,-131.83 176.51,-140.75 180.82,-135.24"/>
</g>
<!-- Node5 -->
<g id="node5" class="node">
<title>Node5</title>
<g id="a_node5"><a xlink:title=" ">
<polygon fill="white" stroke="#bfbfbf" points="200,-112.5 200,-131.5 247,-131.5 247,-112.5 200,-112.5"/>
<text text-anchor="middle" x="223.5" y="-119.5" font-family="Helvetica,sans-Serif" font-size="10.00">vector</text>
</a>
</g>
</g>
<!-- Node3&#45;&gt;Node5 -->
<g id="edge4" class="edge">
<title>Node3&#45;&gt;Node5</title>
<path fill="none" stroke="midnightblue" d="M227.67,-168.08C227.02,-161.01 226.08,-150.86 225.26,-141.99"/>
<polygon fill="midnightblue" stroke="midnightblue" points="228.72,-141.39 224.31,-131.75 221.75,-142.03 228.72,-141.39"/>
</g>
<!-- Node6 -->
<g id="node6" class="node">
<title>Node6</title>
<g id="a_node6"><a xlink:href="RaCore_8hpp.html" target="_top" xlink:title=" ">
<polygon fill="white" stroke="black" points="265.5,-112.5 265.5,-131.5 363.5,-131.5 363.5,-112.5 265.5,-112.5"/>
<text text-anchor="middle" x="314.5" y="-119.5" font-family="Helvetica,sans-Serif" font-size="10.00">Core/RaCore.hpp</text>
</a>
</g>
</g>
<!-- Node3&#45;&gt;Node6 -->
<g id="edge5" class="edge">
<title>Node3&#45;&gt;Node6</title>
<path fill="none" stroke="midnightblue" d="M242.32,-168.32C255.73,-159.9 276.32,-146.97 292.09,-137.07"/>
<polygon fill="midnightblue" stroke="midnightblue" points="294.11,-139.94 300.72,-131.65 290.39,-134.01 294.11,-139.94"/>
</g>
<!-- Node7 -->
<g id="node7" class="node">
<title>Node7</title>
<g id="a_node7"><a xlink:href="CoreMacros_8hpp.html" target="_top" xlink:title=" ">
<polygon fill="white" stroke="black" points="292,-56.5 292,-75.5 413,-75.5 413,-56.5 292,-56.5"/>
<text text-anchor="middle" x="352.5" y="-63.5" font-family="Helvetica,sans-Serif" font-size="10.00">Core/CoreMacros.hpp</text>
</a>
</g>
</g>
<!-- Node6&#45;&gt;Node7 -->
<g id="edge6" class="edge">
<title>Node6&#45;&gt;Node7</title>
<path fill="none" stroke="midnightblue" d="M320.77,-112.08C326.14,-104.46 334.02,-93.26 340.58,-83.94"/>
<polygon fill="midnightblue" stroke="midnightblue" points="343.45,-85.94 346.34,-75.75 337.72,-81.91 343.45,-85.94"/>
</g>
<!-- Node8 -->
<g id="node8" class="node">
<title>Node8</title>
<g id="a_node8"><a xlink:title=" ">
<polygon fill="white" stroke="#bfbfbf" points="188.5,-0.5 188.5,-19.5 240.5,-19.5 240.5,-0.5 188.5,-0.5"/>
<text text-anchor="middle" x="214.5" y="-7.5" font-family="Helvetica,sans-Serif" font-size="10.00">cassert</text>
</a>
</g>
</g>
<!-- Node7&#45;&gt;Node8 -->
<g id="edge7" class="edge">
<title>Node7&#45;&gt;Node8</title>
<path fill="none" stroke="midnightblue" d="M330.63,-56.44C307.72,-47.48 271.52,-33.31 245.63,-23.18"/>
<polygon fill="midnightblue" stroke="midnightblue" points="246.85,-19.9 236.26,-19.52 244.3,-26.42 246.85,-19.9"/>
</g>
<!-- Node9 -->
<g id="node9" class="node">
<title>Node9</title>
<g id="a_node9"><a xlink:title=" ">
<polygon fill="white" stroke="#bfbfbf" points="258.5,-0.5 258.5,-19.5 304.5,-19.5 304.5,-0.5 258.5,-0.5"/>
<text text-anchor="middle" x="281.5" y="-7.5" font-family="Helvetica,sans-Serif" font-size="10.00">cstdio</text>
</a>
</g>
</g>
<!-- Node7&#45;&gt;Node9 -->
<g id="edge8" class="edge">
<title>Node7&#45;&gt;Node9</title>
<path fill="none" stroke="midnightblue" d="M341.09,-56.32C330.39,-48.18 314.16,-35.84 301.34,-26.09"/>
<polygon fill="midnightblue" stroke="midnightblue" points="303.19,-23.1 293.11,-19.83 298.96,-28.67 303.19,-23.1"/>
</g>
<!-- Node10 -->
<g id="node10" class="node">
<title>Node10</title>
<g id="a_node10"><a xlink:title=" ">
<polygon fill="white" stroke="#bfbfbf" points="322.5,-0.5 322.5,-19.5 382.5,-19.5 382.5,-0.5 322.5,-0.5"/>
<text text-anchor="middle" x="352.5" y="-7.5" font-family="Helvetica,sans-Serif" font-size="10.00">iostream</text>
</a>
</g>
</g>
<!-- Node7&#45;&gt;Node10 -->
<g id="edge9" class="edge">
<title>Node7&#45;&gt;Node10</title>
<path fill="none" stroke="midnightblue" d="M352.5,-56.08C352.5,-49.01 352.5,-38.86 352.5,-29.99"/>
<polygon fill="midnightblue" stroke="midnightblue" points="356,-29.75 352.5,-19.75 349,-29.75 356,-29.75"/>
</g>
<!-- Node11 -->
<g id="node11" class="node">
<title>Node11</title>
<g id="a_node11"><a xlink:title=" ">
<polygon fill="white" stroke="#bfbfbf" points="400.5,-0.5 400.5,-19.5 456.5,-19.5 456.5,-0.5 400.5,-0.5"/>
<text text-anchor="middle" x="428.5" y="-7.5" font-family="Helvetica,sans-Serif" font-size="10.00">sstream</text>
</a>
</g>
</g>
<!-- Node7&#45;&gt;Node11 -->
<g id="edge10" class="edge">
<title>Node7&#45;&gt;Node11</title>
<path fill="none" stroke="midnightblue" d="M364.71,-56.32C376.28,-48.11 393.88,-35.6 407.66,-25.81"/>
<polygon fill="midnightblue" stroke="midnightblue" points="409.94,-28.48 416.07,-19.83 405.89,-22.77 409.94,-28.48"/>
</g>
<!-- Node12 -->
<g id="node12" class="node">
<title>Node12</title>
<g id="a_node12"><a xlink:title=" ">
<polygon fill="white" stroke="#bfbfbf" points="474.5,-0.5 474.5,-19.5 522.5,-19.5 522.5,-0.5 474.5,-0.5"/>
<text text-anchor="middle" x="498.5" y="-7.5" font-family="Helvetica,sans-Serif" font-size="10.00">thread</text>
</a>
</g>
</g>
<!-- Node7&#45;&gt;Node12 -->
<g id="edge11" class="edge">
<title>Node7&#45;&gt;Node12</title>
<path fill="none" stroke="midnightblue" d="M375.63,-56.44C399.98,-47.44 438.51,-33.19 465.92,-23.05"/>
<polygon fill="midnightblue" stroke="midnightblue" points="467.31,-26.27 475.47,-19.52 464.88,-19.7 467.31,-26.27"/>
</g>
<!-- Node13&#45;&gt;Node7 -->
<g id="edge13" class="edge">
<title>Node13&#45;&gt;Node7</title>
<path fill="none" stroke="midnightblue" d="M385.23,-168.44C383.25,-155.86 378.94,-131.75 372.5,-112 369.52,-102.86 365.3,-93.06 361.5,-84.95"/>
<polygon fill="midnightblue" stroke="midnightblue" points="364.55,-83.22 357.04,-75.75 358.25,-86.28 364.55,-83.22"/>
</g>
</g>
</svg>
