<?xml version="1.0" encoding="UTF-8" standalone="no"?>
<!DOCTYPE svg PUBLIC "-//W3C//DTD SVG 1.1//EN"
 "http://www.w3.org/Graphics/SVG/1.1/DTD/svg11.dtd">
<!-- Generated by graphviz version 2.43.0 (0)
 -->
<!-- Title: /home/runner/work/Radium&#45;Engine/Radium&#45;Engine/src/Radium&#45;Engine/src/IO/AssimpLoader/AssimpGeometryDataLoader.hpp Pages: 1 -->
<svg width="420pt" height="150pt"
 viewBox="0.00 0.00 420.00 150.00" xmlns="http://www.w3.org/2000/svg" xmlns:xlink="http://www.w3.org/1999/xlink">
<g id="graph0" class="graph" transform="scale(1 1) rotate(0) translate(4 146)">
<title>/home/runner/work/Radium&#45;Engine/Radium&#45;Engine/src/Radium&#45;Engine/src/IO/AssimpLoader/AssimpGeometryDataLoader.hpp</title>
<polygon fill="white" stroke="transparent" points="-4,4 -4,-146 416,-146 416,4 -4,4"/>
<!-- Node1 -->
<g id="node1" class="node">
<title>Node1</title>
<g id="a_node1"><a xlink:title=" ">
<polygon fill="#bfbfbf" stroke="black" points="107,-89.5 107,-141.5 304,-141.5 304,-89.5 107,-89.5"/>
<text text-anchor="start" x="115" y="-129.5" font-family="Helvetica,sans-Serif" font-size="10.00">/home/runner/work/Radium</text>
<text text-anchor="start" x="115" y="-118.5" font-family="Helvetica,sans-Serif" font-size="10.00">&#45;Engine/Radium&#45;Engine/src</text>
<text text-anchor="start" x="115" y="-107.5" font-family="Helvetica,sans-Serif" font-size="10.00">/Radium&#45;Engine/src/IO/AssimpLoader</text>
<text text-anchor="middle" x="205.5" y="-96.5" font-family="Helvetica,sans-Serif" font-size="10.00">/AssimpGeometryDataLoader.hpp</text>
</a>
</g>
</g>
<!-- Node2 -->
<g id="node2" class="node">
<title>Node2</title>
<g id="a_node2"><a xlink:href="AssimpFileLoader_8cpp.html" target="_top" xlink:title=" ">
<polygon fill="white" stroke="black" points="0,-0.5 0,-52.5 197,-52.5 197,-0.5 0,-0.5"/>
<text text-anchor="start" x="8" y="-40.5" font-family="Helvetica,sans-Serif" font-size="10.00">/home/runner/work/Radium</text>
<text text-anchor="start" x="8" y="-29.5" font-family="Helvetica,sans-Serif" font-size="10.00">&#45;Engine/Radium&#45;Engine/src</text>
<text text-anchor="start" x="8" y="-18.5" font-family="Helvetica,sans-Serif" font-size="10.00">/Radium&#45;Engine/src/IO/AssimpLoader</text>
<text text-anchor="middle" x="98.5" y="-7.5" font-family="Helvetica,sans-Serif" font-size="10.00">/AssimpFileLoader.cpp</text>
</a>
</g>
</g>
<!-- Node1&#45;&gt;Node2 -->
<g id="edge1" class="edge">
<title>Node1&#45;&gt;Node2</title>
<path fill="none" stroke="midnightblue" d="M166.68,-82.93C154.41,-72.96 141.02,-62.07 129.38,-52.61"/>
<polygon fill="midnightblue" stroke="midnightblue" points="164.58,-85.74 174.55,-89.34 169,-80.31 164.58,-85.74"/>
</g>
<!-- Node3 -->
<g id="node3" class="node">
<title>Node3</title>
<g id="a_node3"><a xlink:href="AssimpGeometryDataLoader_8cpp.html" target="_top" xlink:title=" ">
<polygon fill="white" stroke="black" points="215,-0.5 215,-52.5 412,-52.5 412,-0.5 215,-0.5"/>
<text text-anchor="start" x="223" y="-40.5" font-family="Helvetica,sans-Serif" font-size="10.00">/home/runner/work/Radium</text>
<text text-anchor="start" x="223" y="-29.5" font-family="Helvetica,sans-Serif" font-size="10.00">&#45;Engine/Radium&#45;Engine/src</text>
<text text-anchor="start" x="223" y="-18.5" font-family="Helvetica,sans-Serif" font-size="10.00">/Radium&#45;Engine/src/IO/AssimpLoader</text>
<text text-anchor="middle" x="313.5" y="-7.5" font-family="Helvetica,sans-Serif" font-size="10.00">/AssimpGeometryDataLoader.cpp</text>
</a>
</g>
</g>
<!-- Node1&#45;&gt;Node3 -->
<g id="edge2" class="edge">
<title>Node1&#45;&gt;Node3</title>
<path fill="none" stroke="midnightblue" d="M244.69,-82.93C257.07,-72.96 270.59,-62.07 282.33,-52.61"/>
<polygon fill="midnightblue" stroke="midnightblue" points="242.33,-80.34 236.74,-89.34 246.72,-85.79 242.33,-80.34"/>
</g>
</g>
</svg>
