<?xml version="1.0" encoding="UTF-8" standalone="no"?>
<!DOCTYPE svg PUBLIC "-//W3C//DTD SVG 1.1//EN"
 "http://www.w3.org/Graphics/SVG/1.1/DTD/svg11.dtd">
<!-- Generated by graphviz version 2.40.1 (20161225.0304)
 -->
<!-- Title: src/Core/Asset/BlinnPhongMaterialData.inl Pages: 1 -->
<svg width="546pt" height="173pt"
 viewBox="0.00 0.00 546.00 173.00" xmlns="http://www.w3.org/2000/svg" xmlns:xlink="http://www.w3.org/1999/xlink">
<g id="graph0" class="graph" transform="scale(1 1) rotate(0) translate(4 169)">
<title>src/Core/Asset/BlinnPhongMaterialData.inl</title>
<polygon fill="#ffffff" stroke="transparent" points="-4,4 -4,-169 542,-169 542,4 -4,4"/>
<!-- Node25 -->
<g id="node1" class="node">
<title>Node25</title>
<polygon fill="#bfbfbf" stroke="#000000" points="179,-134.5 179,-164.5 323,-164.5 323,-134.5 179,-134.5"/>
<text text-anchor="start" x="187" y="-152.5" font-family="Helvetica,sans-Serif" font-size="10.00" fill="#000000">src/Core/Asset/BlinnPhong</text>
<text text-anchor="middle" x="251" y="-141.5" font-family="Helvetica,sans-Serif" font-size="10.00" fill="#000000">MaterialData.inl</text>
</g>
<!-- Node26 -->
<g id="node2" class="node">
<title>Node26</title>
<g id="a_node2"><a xlink:href="BlinnPhongMaterialData_8hpp.html" target="_top" xlink:title="src/Core/Asset/BlinnPhong\lMaterialData.hpp">
<polygon fill="#ffffff" stroke="#000000" points="179,-67.5 179,-97.5 323,-97.5 323,-67.5 179,-67.5"/>
<text text-anchor="start" x="187" y="-85.5" font-family="Helvetica,sans-Serif" font-size="10.00" fill="#000000">src/Core/Asset/BlinnPhong</text>
<text text-anchor="middle" x="251" y="-74.5" font-family="Helvetica,sans-Serif" font-size="10.00" fill="#000000">MaterialData.hpp</text>
</a>
</g>
</g>
<!-- Node25&#45;&gt;Node26 -->
<g id="edge1" class="edge">
<title>Node25&#45;&gt;Node26</title>
<path fill="none" stroke="#191970" d="M244.4384,-124.3179C244.0239,-115.3414 244.2933,-105.5143 245.2464,-97.6432"/>
<polygon fill="#191970" stroke="#191970" points="240.9504,-124.6087 245.2392,-134.2967 247.928,-124.0487 240.9504,-124.6087"/>
</g>
<!-- Node26&#45;&gt;Node25 -->
<g id="edge3" class="edge">
<title>Node26&#45;&gt;Node25</title>
<path fill="none" stroke="#191970" d="M257.5584,-107.6135C257.9764,-116.5857 257.7105,-126.4156 256.7608,-134.2967"/>
<polygon fill="#191970" stroke="#191970" points="261.0469,-107.3291 256.7536,-97.6432 254.0696,-107.8924 261.0469,-107.3291"/>
</g>
<!-- Node27 -->
<g id="node3" class="node">
<title>Node27</title>
<g id="a_node3"><a xlink:href="BlinnPhongMaterialData_8cpp.html" target="_top" xlink:title="src/Core/Asset/BlinnPhong\lMaterialData.cpp">
<polygon fill="#ffffff" stroke="#000000" points="0,-.5 0,-30.5 144,-30.5 144,-.5 0,-.5"/>
<text text-anchor="start" x="8" y="-18.5" font-family="Helvetica,sans-Serif" font-size="10.00" fill="#000000">src/Core/Asset/BlinnPhong</text>
<text text-anchor="middle" x="72" y="-7.5" font-family="Helvetica,sans-Serif" font-size="10.00" fill="#000000">MaterialData.cpp</text>
</a>
</g>
</g>
<!-- Node26&#45;&gt;Node27 -->
<g id="edge2" class="edge">
<title>Node26&#45;&gt;Node27</title>
<path fill="none" stroke="#191970" d="M201.214,-63.865C173.1946,-53.3773 138.6613,-40.4515 112.3463,-30.6017"/>
<polygon fill="#191970" stroke="#191970" points="200.2365,-67.2362 210.8289,-67.4639 202.6904,-60.6804 200.2365,-67.2362"/>
</g>
<!-- Node28 -->
<g id="node4" class="node">
<title>Node28</title>
<g id="a_node4"><a xlink:href="BlinnPhongMaterial_8cpp.html" target="_top" xlink:title="src/Engine/Renderer\l/Material/BlinnPhongMaterial.cpp">
<polygon fill="#ffffff" stroke="#000000" points="162.5,-.5 162.5,-30.5 339.5,-30.5 339.5,-.5 162.5,-.5"/>
<text text-anchor="start" x="170.5" y="-18.5" font-family="Helvetica,sans-Serif" font-size="10.00" fill="#000000">src/Engine/Renderer</text>
<text text-anchor="middle" x="251" y="-7.5" font-family="Helvetica,sans-Serif" font-size="10.00" fill="#000000">/Material/BlinnPhongMaterial.cpp</text>
</a>
</g>
</g>
<!-- Node26&#45;&gt;Node28 -->
<g id="edge4" class="edge">
<title>Node26&#45;&gt;Node28</title>
<path fill="none" stroke="#191970" d="M251,-57.0249C251,-48.128 251,-38.4287 251,-30.6432"/>
<polygon fill="#191970" stroke="#191970" points="247.5001,-57.2966 251,-67.2967 254.5001,-57.2967 247.5001,-57.2966"/>
</g>
<!-- Node29 -->
<g id="node5" class="node">
<title>Node29</title>
<g id="a_node5"><a xlink:href="AssimpGeometryDataLoader_8cpp.html" target="_top" xlink:title="src/IO/AssimpLoader\l/AssimpGeometryDataLoader.cpp">
<polygon fill="#ffffff" stroke="#000000" points="358,-.5 358,-30.5 538,-30.5 538,-.5 358,-.5"/>
<text text-anchor="start" x="366" y="-18.5" font-family="Helvetica,sans-Serif" font-size="10.00" fill="#000000">src/IO/AssimpLoader</text>
<text text-anchor="middle" x="448" y="-7.5" font-family="Helvetica,sans-Serif" font-size="10.00" fill="#000000">/AssimpGeometryDataLoader.cpp</text>
</a>
</g>
</g>
<!-- Node26&#45;&gt;Node29 -->
<g id="edge5" class="edge">
<title>Node26&#45;&gt;Node29</title>
<path fill="none" stroke="#191970" d="M304.9862,-64.1392C335.9648,-53.6033 374.3824,-40.5375 403.5965,-30.6017"/>
<polygon fill="#191970" stroke="#191970" points="303.5511,-60.9303 295.2106,-67.4639 305.8051,-67.5575 303.5511,-60.9303"/>
</g>
</g>
</svg>
