<?xml version="1.0" encoding="UTF-8" standalone="no"?>
<!DOCTYPE svg PUBLIC "-//W3C//DTD SVG 1.1//EN"
 "http://www.w3.org/Graphics/SVG/1.1/DTD/svg11.dtd">
<!-- Generated by graphviz version 2.40.1 (20161225.0304)
 -->
<!-- Title: src/Core/Containers/BVH.inl Pages: 1 -->
<!--zoomable 319 -->
<svg id="main" version="1.1" xmlns="http://www.w3.org/2000/svg" xmlns:xlink="http://www.w3.org/1999/xlink" xml:space="preserve" onload="init(evt)">
<style type="text/css"><![CDATA[
.edge:hover path { stroke: red; }
.edge:hover polygon { stroke: red; fill: red; }
]]></style>
<script type="text/javascript"><![CDATA[
var edges = document.getElementsByTagName('g');
if (edges && edges.length) {
  for (var i=0;i<edges.length;i++) {
    if (edges[i].id.substr(0,4)=='edge') {
      edges[i].setAttribute('class','edge');
    }
  }
}
]]></script>
        <defs>
                <circle id="rim" cx="0" cy="0" r="7"/>
                <circle id="rim2" cx="0" cy="0" r="3.5"/>
                <g id="zoomPlus">
                        <use xlink:href="#rim" fill="#404040">
                                <set attributeName="fill" to="#808080" begin="zoomplus.mouseover" end="zoomplus.mouseout"/>
                        </use>
                        <path d="M-4,0h8M0,-4v8" fill="none" stroke="white" stroke-width="1.5" pointer-events="none"/>
                </g>
                <g id="zoomMin">
                        <use xlink:href="#rim" fill="#404040">
                                <set attributeName="fill" to="#808080" begin="zoomminus.mouseover" end="zoomminus.mouseout"/>
                        </use>
                        <path d="M-4,0h8" fill="none" stroke="white" stroke-width="1.5" pointer-events="none"/>
                </g>
                <g id="dirArrow">
                        <path fill="none" stroke="white" stroke-width="1.5" d="M0,-3.0v7 M-2.5,-0.5L0,-3.0L2.5,-0.5"/>
                </g>
               <g id="resetDef">
                       <use xlink:href="#rim2" fill="#404040">
                               <set attributeName="fill" to="#808080" begin="reset.mouseover" end="reset.mouseout"/>
                       </use>
               </g>
        </defs>

<script type="text/javascript">
var viewWidth = 772;
var viewHeight = 319;
var sectionId = 'dynsection-0';
</script>
<script xlink:href="svgpan.js"/>
<svg id="graph" class="graph">
<g id="viewport">
<title>src/Core/Containers/BVH.inl</title>
<polygon fill="#ffffff" stroke="transparent" points="-4,4 -4,-315 767.7373,-315 767.7373,4 -4,4"/>
<!-- Node0 -->
<g id="node1" class="node">
<title>Node0</title>
<polygon fill="#bfbfbf" stroke="#000000" points="330,-280.5 330,-310.5 442,-310.5 442,-280.5 330,-280.5"/>
<text text-anchor="start" x="338" y="-298.5" font-family="Helvetica,sans-Serif" font-size="10.00" fill="#000000">src/Core/Containers</text>
<text text-anchor="middle" x="386" y="-287.5" font-family="Helvetica,sans-Serif" font-size="10.00" fill="#000000">/BVH.inl</text>
</g>
<!-- Node1 -->
<g id="node2" class="node">
<title>Node1</title>
<g id="a_node2"><a xlink:href="BVH_8hpp.html" target="_top" xlink:title="Core/Containers/BVH.hpp">
<polygon fill="#ffffff" stroke="#000000" points="411,-224.5 411,-243.5 551,-243.5 551,-224.5 411,-224.5"/>
<text text-anchor="middle" x="481" y="-231.5" font-family="Helvetica,sans-Serif" font-size="10.00" fill="#000000">Core/Containers/BVH.hpp</text>
</a>
</g>
</g>
<!-- Node0&#45;&gt;Node1 -->
<g id="edge1" class="edge">
<title>Node0&#45;&gt;Node1</title>
<path fill="none" stroke="#191970" d="M403.5674,-280.2977C417.2332,-270.7233 436.2505,-258.4198 452.0991,-248.9029"/>
<polygon fill="#191970" stroke="#191970" points="454.1578,-251.7525 461,-243.6633 450.6067,-245.7201 454.1578,-251.7525"/>
</g>
<!-- Node6 -->
<g id="node7" class="node">
<title>Node6</title>
<polygon fill="#ffffff" stroke="#bfbfbf" points="0,-.5 0,-19.5 60,-19.5 60,-.5 0,-.5"/>
<text text-anchor="middle" x="30" y="-7.5" font-family="Helvetica,sans-Serif" font-size="10.00" fill="#000000">iostream</text>
</g>
<!-- Node0&#45;&gt;Node6 -->
<g id="edge16" class="edge">
<title>Node0&#45;&gt;Node6</title>
<path fill="none" stroke="#191970" d="M329.9834,-288.803C229.7289,-275.2437 30,-240.4003 30,-178 30,-178 30,-178 30,-122 30,-89.7116 30,-52.1872 30,-29.8048"/>
<polygon fill="#191970" stroke="#191970" points="33.5001,-29.5883 30,-19.5884 26.5001,-29.5884 33.5001,-29.5883"/>
</g>
<!-- Node14 -->
<g id="node15" class="node">
<title>Node14</title>
<g id="a_node15"><a xlink:href="Color_8hpp.html" target="_top" xlink:title="Core/Utils/Color.hpp">
<polygon fill="#ffffff" stroke="#000000" points="208.5,-224.5 208.5,-243.5 321.5,-243.5 321.5,-224.5 208.5,-224.5"/>
<text text-anchor="middle" x="265" y="-231.5" font-family="Helvetica,sans-Serif" font-size="10.00" fill="#000000">Core/Utils/Color.hpp</text>
</a>
</g>
</g>
<!-- Node0&#45;&gt;Node14 -->
<g id="edge17" class="edge">
<title>Node0&#45;&gt;Node14</title>
<path fill="none" stroke="#191970" d="M356.4001,-280.4554C337.0078,-270.599 311.8258,-257.7999 292.8057,-248.1327"/>
<polygon fill="#191970" stroke="#191970" points="294.2512,-244.9412 283.7507,-243.5303 291.0795,-251.1815 294.2512,-244.9412"/>
</g>
<!-- Node1&#45;&gt;Node0 -->
<g id="edge15" class="edge">
<title>Node1&#45;&gt;Node0</title>
<path fill="none" stroke="#191970" d="M471.3254,-243.5303C460.0053,-251.9274 441.1201,-264.4447 423.9253,-275.0906"/>
<polygon fill="#191970" stroke="#191970" points="421.8486,-272.2577 415.1367,-280.4554 425.4957,-278.2325 421.8486,-272.2577"/>
</g>
<!-- Node2 -->
<g id="node3" class="node">
<title>Node2</title>
<g id="a_node3"><a xlink:href="RaCore_8hpp.html" target="_top" xlink:title="Core/RaCore.hpp">
<polygon fill="#ffffff" stroke="#000000" points="581,-112.5 581,-131.5 679,-131.5 679,-112.5 581,-112.5"/>
<text text-anchor="middle" x="630" y="-119.5" font-family="Helvetica,sans-Serif" font-size="10.00" fill="#000000">Core/RaCore.hpp</text>
</a>
</g>
</g>
<!-- Node1&#45;&gt;Node2 -->
<g id="edge2" class="edge">
<title>Node1&#45;&gt;Node2</title>
<path fill="none" stroke="#191970" d="M551.0538,-227.024C628.3863,-218.6022 743.773,-203.6139 757,-188 781.1898,-159.4449 732.96,-141.645 689.1496,-131.8287"/>
<polygon fill="#191970" stroke="#191970" points="689.828,-128.3948 679.3185,-129.7373 688.3714,-135.2416 689.828,-128.3948"/>
</g>
<!-- Node9 -->
<g id="node10" class="node">
<title>Node9</title>
<polygon fill="#ffffff" stroke="#bfbfbf" points="338.5,-168.5 338.5,-187.5 433.5,-187.5 433.5,-168.5 338.5,-168.5"/>
<text text-anchor="middle" x="386" y="-175.5" font-family="Helvetica,sans-Serif" font-size="10.00" fill="#000000">Eigen/Geometry</text>
</g>
<!-- Node1&#45;&gt;Node9 -->
<g id="edge9" class="edge">
<title>Node1&#45;&gt;Node9</title>
<path fill="none" stroke="#191970" d="M464.4523,-224.2455C449.7401,-215.5731 428.0112,-202.7645 411.1495,-192.825"/>
<polygon fill="#191970" stroke="#191970" points="412.7502,-189.7057 402.3581,-187.6427 409.1954,-195.736 412.7502,-189.7057"/>
</g>
<!-- Node10 -->
<g id="node11" class="node">
<title>Node10</title>
<g id="a_node11"><a xlink:href="Frustum_8hpp.html" target="_top" xlink:title="Core/Geometry/Frustum.hpp">
<polygon fill="#ffffff" stroke="#000000" points="594,-168.5 594,-187.5 748,-187.5 748,-168.5 594,-168.5"/>
<text text-anchor="middle" x="671" y="-175.5" font-family="Helvetica,sans-Serif" font-size="10.00" fill="#000000">Core/Geometry/Frustum.hpp</text>
</a>
</g>
</g>
<!-- Node1&#45;&gt;Node10 -->
<g id="edge10" class="edge">
<title>Node1&#45;&gt;Node10</title>
<path fill="none" stroke="#191970" d="M513.6622,-224.3733C545.5298,-214.9807 594.1531,-200.6496 628.907,-190.4064"/>
<polygon fill="#191970" stroke="#191970" points="630.1615,-193.6855 638.764,-187.5011 628.1825,-186.9711 630.1615,-193.6855"/>
</g>
<!-- Node12 -->
<g id="node13" class="node">
<title>Node12</title>
<polygon fill="#ffffff" stroke="#bfbfbf" points="452,-168.5 452,-187.5 510,-187.5 510,-168.5 452,-168.5"/>
<text text-anchor="middle" x="481" y="-175.5" font-family="Helvetica,sans-Serif" font-size="10.00" fill="#000000">memory</text>
</g>
<!-- Node1&#45;&gt;Node12 -->
<g id="edge13" class="edge">
<title>Node1&#45;&gt;Node12</title>
<path fill="none" stroke="#191970" d="M481,-224.2455C481,-216.9382 481,-206.6944 481,-197.7046"/>
<polygon fill="#191970" stroke="#191970" points="484.5001,-197.6426 481,-187.6427 477.5001,-197.6427 484.5001,-197.6426"/>
</g>
<!-- Node13 -->
<g id="node14" class="node">
<title>Node13</title>
<polygon fill="#ffffff" stroke="#bfbfbf" points="528.5,-168.5 528.5,-187.5 575.5,-187.5 575.5,-168.5 528.5,-168.5"/>
<text text-anchor="middle" x="552" y="-175.5" font-family="Helvetica,sans-Serif" font-size="10.00" fill="#000000">vector</text>
</g>
<!-- Node1&#45;&gt;Node13 -->
<g id="edge14" class="edge">
<title>Node1&#45;&gt;Node13</title>
<path fill="none" stroke="#191970" d="M493.3673,-224.2455C503.9554,-215.8943 519.4064,-203.7076 531.7893,-193.9408"/>
<polygon fill="#191970" stroke="#191970" points="534.0903,-196.5837 539.7745,-187.6427 529.7553,-191.0875 534.0903,-196.5837"/>
</g>
<!-- Node3 -->
<g id="node4" class="node">
<title>Node3</title>
<g id="a_node4"><a xlink:href="CoreMacros_8hpp.html" target="_top" xlink:title="Core/CoreMacros.hpp">
<polygon fill="#ffffff" stroke="#000000" points="110,-56.5 110,-75.5 230,-75.5 230,-56.5 110,-56.5"/>
<text text-anchor="middle" x="170" y="-63.5" font-family="Helvetica,sans-Serif" font-size="10.00" fill="#000000">Core/CoreMacros.hpp</text>
</a>
</g>
</g>
<!-- Node2&#45;&gt;Node3 -->
<g id="edge3" class="edge">
<title>Node2&#45;&gt;Node3</title>
<path fill="none" stroke="#191970" d="M580.7719,-116.007C498.8137,-106.0295 334.1253,-85.9805 240.0771,-74.5311"/>
<polygon fill="#191970" stroke="#191970" points="240.435,-71.0489 230.0853,-73.3147 239.589,-77.9976 240.435,-71.0489"/>
</g>
<!-- Node4 -->
<g id="node5" class="node">
<title>Node4</title>
<polygon fill="#ffffff" stroke="#bfbfbf" points="282,-.5 282,-19.5 334,-19.5 334,-.5 282,-.5"/>
<text text-anchor="middle" x="308" y="-7.5" font-family="Helvetica,sans-Serif" font-size="10.00" fill="#000000">cassert</text>
</g>
<!-- Node3&#45;&gt;Node4 -->
<g id="edge4" class="edge">
<title>Node3&#45;&gt;Node4</title>
<path fill="none" stroke="#191970" d="M193.723,-56.3733C216.1737,-47.2629 250.0739,-33.5062 275.1255,-23.3404"/>
<polygon fill="#191970" stroke="#191970" points="276.6365,-26.5045 284.5865,-19.5011 274.0043,-20.0182 276.6365,-26.5045"/>
</g>
<!-- Node5 -->
<g id="node6" class="node">
<title>Node5</title>
<polygon fill="#ffffff" stroke="#bfbfbf" points="78,-.5 78,-19.5 124,-19.5 124,-.5 78,-.5"/>
<text text-anchor="middle" x="101" y="-7.5" font-family="Helvetica,sans-Serif" font-size="10.00" fill="#000000">cstdio</text>
</g>
<!-- Node3&#45;&gt;Node5 -->
<g id="edge5" class="edge">
<title>Node3&#45;&gt;Node5</title>
<path fill="none" stroke="#191970" d="M157.9811,-56.2455C147.7902,-47.9746 132.9638,-35.9416 120.9893,-26.2232"/>
<polygon fill="#191970" stroke="#191970" points="122.8514,-23.2268 112.8812,-19.6427 118.4402,-28.662 122.8514,-23.2268"/>
</g>
<!-- Node3&#45;&gt;Node6 -->
<g id="edge6" class="edge">
<title>Node3&#45;&gt;Node6</title>
<path fill="none" stroke="#191970" d="M145.9331,-56.3733C123.1572,-47.2629 88.7656,-33.5062 63.351,-23.3404"/>
<polygon fill="#191970" stroke="#191970" points="64.3375,-19.9654 53.7528,-19.5011 61.7377,-26.4648 64.3375,-19.9654"/>
</g>
<!-- Node7 -->
<g id="node8" class="node">
<title>Node7</title>
<polygon fill="#ffffff" stroke="#bfbfbf" points="142,-.5 142,-19.5 198,-19.5 198,-.5 142,-.5"/>
<text text-anchor="middle" x="170" y="-7.5" font-family="Helvetica,sans-Serif" font-size="10.00" fill="#000000">sstream</text>
</g>
<!-- Node3&#45;&gt;Node7 -->
<g id="edge7" class="edge">
<title>Node3&#45;&gt;Node7</title>
<path fill="none" stroke="#191970" d="M170,-56.2455C170,-48.9382 170,-38.6944 170,-29.7046"/>
<polygon fill="#191970" stroke="#191970" points="173.5001,-29.6426 170,-19.6427 166.5001,-29.6427 173.5001,-29.6426"/>
</g>
<!-- Node8 -->
<g id="node9" class="node">
<title>Node8</title>
<polygon fill="#ffffff" stroke="#bfbfbf" points="216,-.5 216,-19.5 264,-19.5 264,-.5 216,-.5"/>
<text text-anchor="middle" x="240" y="-7.5" font-family="Helvetica,sans-Serif" font-size="10.00" fill="#000000">thread</text>
</g>
<!-- Node3&#45;&gt;Node8 -->
<g id="edge8" class="edge">
<title>Node3&#45;&gt;Node8</title>
<path fill="none" stroke="#191970" d="M182.1931,-56.2455C192.6321,-47.8943 207.8655,-35.7076 220.074,-25.9408"/>
<polygon fill="#191970" stroke="#191970" points="222.3244,-28.6227 227.9467,-19.6427 217.9515,-23.1566 222.3244,-28.6227"/>
</g>
<!-- Node10&#45;&gt;Node2 -->
<g id="edge11" class="edge">
<title>Node10&#45;&gt;Node2</title>
<path fill="none" stroke="#191970" d="M663.8583,-168.2455C658.1556,-160.4564 650.01,-149.3308 643.1375,-139.9439"/>
<polygon fill="#191970" stroke="#191970" points="645.7913,-137.6437 637.0598,-131.6427 640.1432,-141.7789 645.7913,-137.6437"/>
</g>
<!-- Node11 -->
<g id="node12" class="node">
<title>Node11</title>
<polygon fill="#ffffff" stroke="#bfbfbf" points="452.5,-112.5 452.5,-131.5 521.5,-131.5 521.5,-112.5 452.5,-112.5"/>
<text text-anchor="middle" x="487" y="-119.5" font-family="Helvetica,sans-Serif" font-size="10.00" fill="#000000">Eigen/Core</text>
</g>
<!-- Node10&#45;&gt;Node11 -->
<g id="edge12" class="edge">
<title>Node10&#45;&gt;Node11</title>
<path fill="none" stroke="#191970" d="M639.3693,-168.3733C608.6404,-159.021 561.824,-144.7725 528.1978,-134.5385"/>
<polygon fill="#191970" stroke="#191970" points="528.8038,-131.0644 518.218,-131.5011 526.7656,-137.7612 528.8038,-131.0644"/>
</g>
<!-- Node14&#45;&gt;Node3 -->
<g id="edge18" class="edge">
<title>Node14&#45;&gt;Node3</title>
<path fill="none" stroke="#191970" d="M208.0917,-226.8888C161.8198,-219.7997 101.8527,-207.179 87,-188 79.3712,-178.1491 68.128,-145.2486 88,-112 96.8767,-97.148 112.4611,-86.7087 127.6765,-79.5742"/>
<polygon fill="#191970" stroke="#191970" points="129.2346,-82.7142 137.0393,-75.5491 126.4699,-76.2833 129.2346,-82.7142"/>
</g>
<!-- Node14&#45;&gt;Node9 -->
<g id="edge26" class="edge">
<title>Node14&#45;&gt;Node9</title>
<path fill="none" stroke="#191970" d="M285.8006,-224.3733C305.2243,-215.3838 334.4224,-201.8706 356.2964,-191.7471"/>
<polygon fill="#191970" stroke="#191970" points="357.8656,-194.8776 365.4708,-187.5011 354.9255,-188.5249 357.8656,-194.8776"/>
</g>
<!-- Node14&#45;&gt;Node11 -->
<g id="edge25" class="edge">
<title>Node14&#45;&gt;Node11</title>
<path fill="none" stroke="#191970" d="M259.8207,-224.2513C253.1344,-210.1691 243.8283,-184.0669 257,-168 279.9407,-140.0168 381.8745,-128.7174 442.0693,-124.4235"/>
<polygon fill="#191970" stroke="#191970" points="442.3329,-127.9137 452.0738,-123.7467 441.8604,-120.9297 442.3329,-127.9137"/>
</g>
<!-- Node15 -->
<g id="node16" class="node">
<title>Node15</title>
<g id="a_node16"><a xlink:href="Math_8hpp.html" target="_top" xlink:title="Core/Math/Math.hpp">
<polygon fill="#ffffff" stroke="#000000" points="96,-168.5 96,-187.5 210,-187.5 210,-168.5 96,-168.5"/>
<text text-anchor="middle" x="153" y="-175.5" font-family="Helvetica,sans-Serif" font-size="10.00" fill="#000000">Core/Math/Math.hpp</text>
</a>
</g>
</g>
<!-- Node14&#45;&gt;Node15 -->
<g id="edge19" class="edge">
<title>Node14&#45;&gt;Node15</title>
<path fill="none" stroke="#191970" d="M245.7465,-224.3733C227.9288,-215.4644 201.2253,-202.1127 181.0406,-192.0203"/>
<polygon fill="#191970" stroke="#191970" points="182.5118,-188.8428 172.0022,-187.5011 179.3813,-195.1038 182.5118,-188.8428"/>
</g>
<!-- Node19 -->
<g id="node20" class="node">
<title>Node19</title>
<polygon fill="#ffffff" stroke="#bfbfbf" points="266,-168.5 266,-187.5 320,-187.5 320,-168.5 266,-168.5"/>
<text text-anchor="middle" x="293" y="-175.5" font-family="Helvetica,sans-Serif" font-size="10.00" fill="#000000">random</text>
</g>
<!-- Node14&#45;&gt;Node19 -->
<g id="edge27" class="edge">
<title>Node14&#45;&gt;Node19</title>
<path fill="none" stroke="#191970" d="M269.8772,-224.2455C273.6513,-216.6973 278.9921,-206.0158 283.5901,-196.8197"/>
<polygon fill="#191970" stroke="#191970" points="286.837,-198.1522 288.1787,-187.6427 280.576,-195.0217 286.837,-198.1522"/>
</g>
<!-- Node15&#45;&gt;Node2 -->
<g id="edge20" class="edge">
<title>Node15&#45;&gt;Node2</title>
<path fill="none" stroke="#191970" d="M210.0636,-171.3007C301.1141,-160.6113 478.3818,-139.8 570.7757,-128.953"/>
<polygon fill="#191970" stroke="#191970" points="571.2761,-132.4183 580.7997,-127.7761 570.4598,-125.4661 571.2761,-132.4183"/>
</g>
<!-- Node16 -->
<g id="node17" class="node">
<title>Node16</title>
<polygon fill="#ffffff" stroke="#bfbfbf" points="223,-112.5 223,-131.5 287,-131.5 287,-112.5 223,-112.5"/>
<text text-anchor="middle" x="255" y="-119.5" font-family="Helvetica,sans-Serif" font-size="10.00" fill="#000000">algorithm</text>
</g>
<!-- Node15&#45;&gt;Node16 -->
<g id="edge21" class="edge">
<title>Node15&#45;&gt;Node16</title>
<path fill="none" stroke="#191970" d="M170.767,-168.2455C186.7095,-159.4928 210.3259,-146.527 228.4989,-136.5496"/>
<polygon fill="#191970" stroke="#191970" points="230.3552,-139.5233 237.4366,-131.6427 226.9863,-133.3873 230.3552,-139.5233"/>
</g>
<!-- Node17 -->
<g id="node18" class="node">
<title>Node17</title>
<polygon fill="#ffffff" stroke="#bfbfbf" points="305.5,-112.5 305.5,-131.5 352.5,-131.5 352.5,-112.5 305.5,-112.5"/>
<text text-anchor="middle" x="329" y="-119.5" font-family="Helvetica,sans-Serif" font-size="10.00" fill="#000000">cmath</text>
</g>
<!-- Node15&#45;&gt;Node17 -->
<g id="edge22" class="edge">
<title>Node15&#45;&gt;Node17</title>
<path fill="none" stroke="#191970" d="M183.2555,-168.3733C214.4727,-158.4405 263.0475,-142.9849 295.4301,-132.6813"/>
<polygon fill="#191970" stroke="#191970" points="296.8644,-135.8979 305.3324,-129.5306 294.7419,-129.2275 296.8644,-135.8979"/>
</g>
<!-- Node18 -->
<g id="node19" class="node">
<title>Node18</title>
<g id="a_node19"><a xlink:href="Math_8inl.html" target="_top" xlink:title="Core/Math/Math.inl">
<polygon fill="#ffffff" stroke="#000000" points="97,-112.5 97,-131.5 205,-131.5 205,-112.5 97,-112.5"/>
<text text-anchor="middle" x="151" y="-119.5" font-family="Helvetica,sans-Serif" font-size="10.00" fill="#000000">Core/Math/Math.inl</text>
</a>
</g>
</g>
<!-- Node15&#45;&gt;Node18 -->
<g id="edge23" class="edge">
<title>Node15&#45;&gt;Node18</title>
<path fill="none" stroke="#191970" d="M147.3848,-168.2455C145.7128,-160.9382 144.9427,-150.6944 145.2242,-141.7046"/>
<polygon fill="#191970" stroke="#191970" points="148.7196,-141.9083 146.0992,-131.6427 141.746,-141.3018 148.7196,-141.9083"/>
</g>
<!-- Node18&#45;&gt;Node15 -->
<g id="edge24" class="edge">
<title>Node18&#45;&gt;Node15</title>
<path fill="none" stroke="#191970" d="M156.5895,-131.6427C158.2707,-138.9199 159.0508,-149.155 158.78,-158.1575"/>
<polygon fill="#191970" stroke="#191970" points="155.2822,-157.984 157.9185,-168.2455 162.2568,-158.5797 155.2822,-157.984"/>
</g>
</g>
</svg>
        <g id="navigator" transform="translate(0 0)" fill="#404254">
                <rect fill="#f2f5e9" fill-opacity="0.5" stroke="#606060" stroke-width=".5" x="0" y="0" width="60" height="60"/>
                <use id="zoomplus" xlink:href="#zoomPlus" x="17" y="9" onmousedown="handleZoom(evt,'in')"/>
                <use id="zoomminus" xlink:href="#zoomMin" x="42" y="9" onmousedown="handleZoom(evt,'out')"/>
                <use id="reset" xlink:href="#resetDef" x="30" y="36" onmousedown="handleReset()"/>
                <g id="arrowUp" xlink:href="#dirArrow" transform="translate(30 24)" onmousedown="handlePan(0,-1)">
                  <use xlink:href="#rim" fill="#404040">
                        <set attributeName="fill" to="#808080" begin="arrowUp.mouseover" end="arrowUp.mouseout"/>
                  </use>
                  <path fill="none" stroke="white" stroke-width="1.5" d="M0,-3.0v7 M-2.5,-0.5L0,-3.0L2.5,-0.5"/>
                </g>
                <g id="arrowRight" xlink:href="#dirArrow" transform="rotate(90) translate(36 -43)" onmousedown="handlePan(1,0)">
                  <use xlink:href="#rim" fill="#404040">
                        <set attributeName="fill" to="#808080" begin="arrowRight.mouseover" end="arrowRight.mouseout"/>
                  </use>
                  <path fill="none" stroke="white" stroke-width="1.5" d="M0,-3.0v7 M-2.5,-0.5L0,-3.0L2.5,-0.5"/>
                </g>
                <g id="arrowDown" xlink:href="#dirArrow" transform="rotate(180) translate(-30 -48)" onmousedown="handlePan(0,1)">
                  <use xlink:href="#rim" fill="#404040">
                        <set attributeName="fill" to="#808080" begin="arrowDown.mouseover" end="arrowDown.mouseout"/>
                  </use>
                  <path fill="none" stroke="white" stroke-width="1.5" d="M0,-3.0v7 M-2.5,-0.5L0,-3.0L2.5,-0.5"/>
                </g>
                <g id="arrowLeft" xlink:href="#dirArrow" transform="rotate(270) translate(-36 17)" onmousedown="handlePan(-1,0)">
                  <use xlink:href="#rim" fill="#404040">
                        <set attributeName="fill" to="#808080" begin="arrowLeft.mouseover" end="arrowLeft.mouseout"/>
                  </use>
                  <path fill="none" stroke="white" stroke-width="1.5" d="M0,-3.0v7 M-2.5,-0.5L0,-3.0L2.5,-0.5"/>
                </g>
        </g>
        <svg viewBox="0 0 15 15" width="100%" height="30px" preserveAspectRatio="xMaxYMin meet">
         <g id="arrow_out" transform="scale(0.3 0.3)">
          <a xlink:href="BVH_8inl__incl_org.svg" target="_base">
           <rect id="button" ry="5" rx="5" y="6" x="6" height="38" width="38"
                fill="#f2f5e9" fill-opacity="0.5" stroke="#606060" stroke-width="1.0"/>
           <path id="arrow"
             d="M 11.500037,31.436501 C 11.940474,20.09759 22.043105,11.32322 32.158766,21.979434 L 37.068811,17.246167 C 37.068811,17.246167 37.088388,32 37.088388,32 L 22.160133,31.978069 C 22.160133,31.978069 26.997745,27.140456 26.997745,27.140456 C 18.528582,18.264221 13.291696,25.230495 11.500037,31.436501 z"
             style="fill:#404040;"/>
          </a>
         </g>
        </svg>
</svg>
