<?xml version="1.0" encoding="UTF-8" standalone="no"?>
<!DOCTYPE svg PUBLIC "-//W3C//DTD SVG 1.1//EN"
 "http://www.w3.org/Graphics/SVG/1.1/DTD/svg11.dtd">
<!-- Generated by graphviz version 2.43.0 (0)
 -->
<!-- Title: /home/runner/work/Radium&#45;Engine/Radium&#45;Engine/src/Radium&#45;Engine/src/Engine/Scene/CameraComponent.hpp Pages: 1 -->
<svg width="1793pt" height="464pt"
 viewBox="0.00 0.00 1792.50 464.00" xmlns="http://www.w3.org/2000/svg" xmlns:xlink="http://www.w3.org/1999/xlink">
<g id="graph0" class="graph" transform="scale(1 1) rotate(0) translate(4 460)">
<title>/home/runner/work/Radium&#45;Engine/Radium&#45;Engine/src/Radium&#45;Engine/src/Engine/Scene/CameraComponent.hpp</title>
<polygon fill="white" stroke="transparent" points="-4,4 -4,-460 1788.5,-460 1788.5,4 -4,4"/>
<!-- Node1 -->
<g id="node1" class="node">
<title>Node1</title>
<g id="a_node1"><a xlink:title=" ">
<polygon fill="#bfbfbf" stroke="black" points="795,-403.5 795,-455.5 962,-455.5 962,-403.5 795,-403.5"/>
<text text-anchor="start" x="803" y="-443.5" font-family="Helvetica,sans-Serif" font-size="10.00">/home/runner/work/Radium</text>
<text text-anchor="start" x="803" y="-432.5" font-family="Helvetica,sans-Serif" font-size="10.00">&#45;Engine/Radium&#45;Engine/src</text>
<text text-anchor="start" x="803" y="-421.5" font-family="Helvetica,sans-Serif" font-size="10.00">/Radium&#45;Engine/src/Engine</text>
<text text-anchor="middle" x="878.5" y="-410.5" font-family="Helvetica,sans-Serif" font-size="10.00">/Scene/CameraComponent.hpp</text>
</a>
</g>
</g>
<!-- Node2 -->
<g id="node2" class="node">
<title>Node2</title>
<g id="a_node2"><a xlink:href="Camera_8hpp.html" target="_top" xlink:title=" ">
<polygon fill="white" stroke="black" points="431,-291.5 431,-310.5 562,-310.5 562,-291.5 431,-291.5"/>
<text text-anchor="middle" x="496.5" y="-298.5" font-family="Helvetica,sans-Serif" font-size="10.00">Core/Asset/Camera.hpp</text>
</a>
</g>
</g>
<!-- Node1&#45;&gt;Node2 -->
<g id="edge1" class="edge">
<title>Node1&#45;&gt;Node2</title>
<path fill="none" stroke="midnightblue" d="M802.57,-403.36C720.54,-376.19 593.36,-334.08 532,-313.76"/>
<polygon fill="midnightblue" stroke="midnightblue" points="532.98,-310.39 522.38,-310.57 530.78,-317.04 532.98,-310.39"/>
</g>
<!-- Node3 -->
<g id="node3" class="node">
<title>Node3</title>
<g id="a_node3"><a xlink:href="Math_8hpp.html" target="_top" xlink:title=" ">
<polygon fill="white" stroke="black" points="137.5,-235.5 137.5,-254.5 253.5,-254.5 253.5,-235.5 137.5,-235.5"/>
<text text-anchor="middle" x="195.5" y="-242.5" font-family="Helvetica,sans-Serif" font-size="10.00">Core/Math/Math.hpp</text>
</a>
</g>
</g>
<!-- Node1&#45;&gt;Node3 -->
<g id="edge30" class="edge">
<title>Node1&#45;&gt;Node3</title>
<path fill="none" stroke="midnightblue" d="M794.91,-407.82C703.12,-384.92 551.49,-346.54 421.5,-311 355.41,-292.93 278.86,-270.62 233.96,-257.39"/>
<polygon fill="midnightblue" stroke="midnightblue" points="234.91,-254.03 224.33,-254.56 232.93,-260.74 234.91,-254.03"/>
</g>
<!-- Node14 -->
<g id="node14" class="node">
<title>Node14</title>
<g id="a_node14"><a xlink:href="Types_8hpp.html" target="_top" xlink:title=" ">
<polygon fill="white" stroke="black" points="1042,-235.5 1042,-254.5 1133,-254.5 1133,-235.5 1042,-235.5"/>
<text text-anchor="middle" x="1087.5" y="-242.5" font-family="Helvetica,sans-Serif" font-size="10.00">Core/Types.hpp</text>
</a>
</g>
</g>
<!-- Node1&#45;&gt;Node14 -->
<g id="edge31" class="edge">
<title>Node1&#45;&gt;Node14</title>
<path fill="none" stroke="midnightblue" d="M929.61,-403.46C947.83,-393.37 967.92,-380.84 984.5,-367 1022.62,-335.17 1058.06,-288.28 1075.74,-263.24"/>
<polygon fill="midnightblue" stroke="midnightblue" points="1078.78,-265 1081.61,-254.8 1073.03,-261.01 1078.78,-265"/>
</g>
<!-- Node26 -->
<g id="node26" class="node">
<title>Node26</title>
<g id="a_node26"><a xlink:href="RaEngine_8hpp.html" target="_top" xlink:title=" ">
<polygon fill="white" stroke="black" points="1505,-235.5 1505,-254.5 1624,-254.5 1624,-235.5 1505,-235.5"/>
<text text-anchor="middle" x="1564.5" y="-242.5" font-family="Helvetica,sans-Serif" font-size="10.00">Engine/RaEngine.hpp</text>
</a>
</g>
</g>
<!-- Node1&#45;&gt;Node26 -->
<g id="edge32" class="edge">
<title>Node1&#45;&gt;Node26</title>
<path fill="none" stroke="midnightblue" d="M962.01,-416.24C1070.1,-399.06 1263.42,-363.89 1422.5,-311 1465.08,-296.84 1511.95,-273.83 1539.77,-259.32"/>
<polygon fill="midnightblue" stroke="midnightblue" points="1541.56,-262.33 1548.77,-254.57 1538.3,-256.14 1541.56,-262.33"/>
</g>
<!-- Node31 -->
<g id="node31" class="node">
<title>Node31</title>
<g id="a_node31"><a xlink:href="Component_8hpp.html" target="_top" xlink:title=" ">
<polygon fill="white" stroke="black" points="1251.5,-291.5 1251.5,-310.5 1413.5,-310.5 1413.5,-291.5 1251.5,-291.5"/>
<text text-anchor="middle" x="1332.5" y="-298.5" font-family="Helvetica,sans-Serif" font-size="10.00">Engine/Scene/Component.hpp</text>
</a>
</g>
</g>
<!-- Node1&#45;&gt;Node31 -->
<g id="edge38" class="edge">
<title>Node1&#45;&gt;Node31</title>
<path fill="none" stroke="midnightblue" d="M962.03,-405.22C1059.87,-377.96 1217.96,-333.91 1291.92,-313.31"/>
<polygon fill="midnightblue" stroke="midnightblue" points="1293.09,-316.62 1301.78,-310.56 1291.21,-309.87 1293.09,-316.62"/>
</g>
<!-- Node37 -->
<g id="node37" class="node">
<title>Node37</title>
<g id="a_node37"><a xlink:href="CameraComponent_8inl.html" target="_top" xlink:title=" ">
<polygon fill="white" stroke="black" points="781.5,-347.5 781.5,-366.5 975.5,-366.5 975.5,-347.5 781.5,-347.5"/>
<text text-anchor="middle" x="878.5" y="-354.5" font-family="Helvetica,sans-Serif" font-size="10.00">Engine/Scene/CameraComponent.inl</text>
</a>
</g>
</g>
<!-- Node1&#45;&gt;Node37 -->
<g id="edge51" class="edge">
<title>Node1&#45;&gt;Node37</title>
<path fill="none" stroke="midnightblue" d="M872.01,-403.45C871.55,-394.63 871.7,-384.88 872.46,-376.68"/>
<polygon fill="midnightblue" stroke="midnightblue" points="875.94,-377.09 873.88,-366.7 869.01,-376.11 875.94,-377.09"/>
</g>
<!-- Node2&#45;&gt;Node3 -->
<g id="edge2" class="edge">
<title>Node2&#45;&gt;Node3</title>
<path fill="none" stroke="midnightblue" d="M448.81,-291.44C395.64,-281.9 309.68,-266.48 252.87,-256.29"/>
<polygon fill="midnightblue" stroke="midnightblue" points="253.43,-252.84 242.97,-254.52 252.2,-259.73 253.43,-252.84"/>
</g>
<!-- Node2&#45;&gt;Node14 -->
<g id="edge14" class="edge">
<title>Node2&#45;&gt;Node14</title>
<path fill="none" stroke="midnightblue" d="M562.27,-296.15C661.65,-289.95 856.2,-276.39 1031.97,-254.96"/>
<polygon fill="midnightblue" stroke="midnightblue" points="1032.42,-258.44 1041.92,-253.74 1031.57,-251.49 1032.42,-258.44"/>
</g>
<!-- Node18 -->
<g id="node18" class="node">
<title>Node18</title>
<g id="a_node18"><a xlink:href="Observable_8hpp.html" target="_top" xlink:title=" ">
<polygon fill="white" stroke="black" points="271.5,-235.5 271.5,-254.5 415.5,-254.5 415.5,-235.5 271.5,-235.5"/>
<text text-anchor="middle" x="343.5" y="-242.5" font-family="Helvetica,sans-Serif" font-size="10.00">Core/Utils/Observable.hpp</text>
</a>
</g>
</g>
<!-- Node2&#45;&gt;Node18 -->
<g id="edge19" class="edge">
<title>Node2&#45;&gt;Node18</title>
<path fill="none" stroke="midnightblue" d="M472.26,-291.44C446.63,-282.4 406.01,-268.06 377.26,-257.92"/>
<polygon fill="midnightblue" stroke="midnightblue" points="378.22,-254.54 367.63,-254.52 375.89,-261.15 378.22,-254.54"/>
</g>
<!-- Node25 -->
<g id="node25" class="node">
<title>Node25</title>
<g id="a_node25"><a xlink:href="Camera_8inl.html" target="_top" xlink:title=" ">
<polygon fill="white" stroke="black" points="434,-235.5 434,-254.5 559,-254.5 559,-235.5 434,-235.5"/>
<text text-anchor="middle" x="496.5" y="-242.5" font-family="Helvetica,sans-Serif" font-size="10.00">Core/Asset/Camera.inl</text>
</a>
</g>
</g>
<!-- Node2&#45;&gt;Node25 -->
<g id="edge28" class="edge">
<title>Node2&#45;&gt;Node25</title>
<path fill="none" stroke="midnightblue" d="M491.33,-291.08C489.82,-283.93 489.39,-273.64 490.04,-264.69"/>
<polygon fill="midnightblue" stroke="midnightblue" points="493.52,-265.13 491.37,-254.75 486.58,-264.2 493.52,-265.13"/>
</g>
<!-- Node4 -->
<g id="node4" class="node">
<title>Node4</title>
<g id="a_node4"><a xlink:href="RaCore_8hpp.html" target="_top" xlink:title=" ">
<polygon fill="white" stroke="black" points="800.5,-118 800.5,-137 898.5,-137 898.5,-118 800.5,-118"/>
<text text-anchor="middle" x="849.5" y="-125" font-family="Helvetica,sans-Serif" font-size="10.00">Core/RaCore.hpp</text>
</a>
</g>
</g>
<!-- Node3&#45;&gt;Node4 -->
<g id="edge3" class="edge">
<title>Node3&#45;&gt;Node4</title>
<path fill="none" stroke="midnightblue" d="M249.13,-235.47C288.93,-228.23 344.09,-216.24 390.5,-199 408.39,-192.35 410.28,-184.68 428.5,-179 553.19,-140.16 707.25,-130.9 790.09,-128.88"/>
<polygon fill="midnightblue" stroke="midnightblue" points="790.4,-132.37 800.32,-128.65 790.24,-125.37 790.4,-132.37"/>
</g>
<!-- Node11 -->
<g id="node11" class="node">
<title>Node11</title>
<g id="a_node11"><a xlink:title=" ">
<polygon fill="white" stroke="#bfbfbf" points="193.5,-179.5 193.5,-198.5 257.5,-198.5 257.5,-179.5 193.5,-179.5"/>
<text text-anchor="middle" x="225.5" y="-186.5" font-family="Helvetica,sans-Serif" font-size="10.00">algorithm</text>
</a>
</g>
</g>
<!-- Node3&#45;&gt;Node11 -->
<g id="edge10" class="edge">
<title>Node3&#45;&gt;Node11</title>
<path fill="none" stroke="midnightblue" d="M200.45,-235.08C204.6,-227.61 210.65,-216.72 215.77,-207.52"/>
<polygon fill="midnightblue" stroke="midnightblue" points="218.84,-209.19 220.64,-198.75 212.72,-205.79 218.84,-209.19"/>
</g>
<!-- Node12 -->
<g id="node12" class="node">
<title>Node12</title>
<g id="a_node12"><a xlink:title=" ">
<polygon fill="white" stroke="#bfbfbf" points="0,-179.5 0,-198.5 47,-198.5 47,-179.5 0,-179.5"/>
<text text-anchor="middle" x="23.5" y="-186.5" font-family="Helvetica,sans-Serif" font-size="10.00">cmath</text>
</a>
</g>
</g>
<!-- Node3&#45;&gt;Node12 -->
<g id="edge11" class="edge">
<title>Node3&#45;&gt;Node12</title>
<path fill="none" stroke="midnightblue" d="M168.25,-235.44C138.07,-225.97 89.42,-210.7 56.96,-200.5"/>
<polygon fill="midnightblue" stroke="midnightblue" points="57.62,-197.04 47.03,-197.39 55.53,-203.72 57.62,-197.04"/>
</g>
<!-- Node13 -->
<g id="node13" class="node">
<title>Node13</title>
<g id="a_node13"><a xlink:href="Math_8inl.html" target="_top" xlink:title=" ">
<polygon fill="white" stroke="black" points="65.5,-179.5 65.5,-198.5 175.5,-198.5 175.5,-179.5 65.5,-179.5"/>
<text text-anchor="middle" x="120.5" y="-186.5" font-family="Helvetica,sans-Serif" font-size="10.00">Core/Math/Math.inl</text>
</a>
</g>
</g>
<!-- Node3&#45;&gt;Node13 -->
<g id="edge12" class="edge">
<title>Node3&#45;&gt;Node13</title>
<path fill="none" stroke="midnightblue" d="M178.34,-235.32C165.39,-227.26 148.12,-215.08 135.69,-205.37"/>
<polygon fill="midnightblue" stroke="midnightblue" points="137.59,-202.41 127.62,-198.83 133.19,-207.85 137.59,-202.41"/>
</g>
<!-- Node5 -->
<g id="node5" class="node">
<title>Node5</title>
<g id="a_node5"><a xlink:href="CoreMacros_8hpp.html" target="_top" xlink:title=" ">
<polygon fill="white" stroke="black" points="800,-56.5 800,-75.5 921,-75.5 921,-56.5 800,-56.5"/>
<text text-anchor="middle" x="860.5" y="-63.5" font-family="Helvetica,sans-Serif" font-size="10.00">Core/CoreMacros.hpp</text>
</a>
</g>
</g>
<!-- Node4&#45;&gt;Node5 -->
<g id="edge4" class="edge">
<title>Node4&#45;&gt;Node5</title>
<path fill="none" stroke="midnightblue" d="M851.08,-117.98C852.63,-109.58 855.05,-96.48 857.05,-85.66"/>
<polygon fill="midnightblue" stroke="midnightblue" points="860.55,-85.98 858.93,-75.51 853.67,-84.71 860.55,-85.98"/>
</g>
<!-- Node6 -->
<g id="node6" class="node">
<title>Node6</title>
<g id="a_node6"><a xlink:title=" ">
<polygon fill="white" stroke="#bfbfbf" points="891.5,-0.5 891.5,-19.5 943.5,-19.5 943.5,-0.5 891.5,-0.5"/>
<text text-anchor="middle" x="917.5" y="-7.5" font-family="Helvetica,sans-Serif" font-size="10.00">cassert</text>
</a>
</g>
</g>
<!-- Node5&#45;&gt;Node6 -->
<g id="edge5" class="edge">
<title>Node5&#45;&gt;Node6</title>
<path fill="none" stroke="midnightblue" d="M869.66,-56.32C878,-48.42 890.53,-36.55 900.68,-26.94"/>
<polygon fill="midnightblue" stroke="midnightblue" points="903.32,-29.25 908.18,-19.83 898.51,-24.17 903.32,-29.25"/>
</g>
<!-- Node7 -->
<g id="node7" class="node">
<title>Node7</title>
<g id="a_node7"><a xlink:title=" ">
<polygon fill="white" stroke="#bfbfbf" points="961.5,-0.5 961.5,-19.5 1007.5,-19.5 1007.5,-0.5 961.5,-0.5"/>
<text text-anchor="middle" x="984.5" y="-7.5" font-family="Helvetica,sans-Serif" font-size="10.00">cstdio</text>
</a>
</g>
</g>
<!-- Node5&#45;&gt;Node7 -->
<g id="edge6" class="edge">
<title>Node5&#45;&gt;Node7</title>
<path fill="none" stroke="midnightblue" d="M880.15,-56.44C900.46,-47.6 932.4,-33.69 955.6,-23.59"/>
<polygon fill="midnightblue" stroke="midnightblue" points="957.17,-26.72 964.94,-19.52 954.38,-20.3 957.17,-26.72"/>
</g>
<!-- Node8 -->
<g id="node8" class="node">
<title>Node8</title>
<g id="a_node8"><a xlink:title=" ">
<polygon fill="white" stroke="#bfbfbf" points="813.5,-0.5 813.5,-19.5 873.5,-19.5 873.5,-0.5 813.5,-0.5"/>
<text text-anchor="middle" x="843.5" y="-7.5" font-family="Helvetica,sans-Serif" font-size="10.00">iostream</text>
</a>
</g>
</g>
<!-- Node5&#45;&gt;Node8 -->
<g id="edge7" class="edge">
<title>Node5&#45;&gt;Node8</title>
<path fill="none" stroke="midnightblue" d="M857.69,-56.08C855.42,-48.85 852.13,-38.41 849.29,-29.4"/>
<polygon fill="midnightblue" stroke="midnightblue" points="852.6,-28.24 846.25,-19.75 845.92,-30.34 852.6,-28.24"/>
</g>
<!-- Node9 -->
<g id="node9" class="node">
<title>Node9</title>
<g id="a_node9"><a xlink:title=" ">
<polygon fill="white" stroke="#bfbfbf" points="533.5,-0.5 533.5,-19.5 589.5,-19.5 589.5,-0.5 533.5,-0.5"/>
<text text-anchor="middle" x="561.5" y="-7.5" font-family="Helvetica,sans-Serif" font-size="10.00">sstream</text>
</a>
</g>
</g>
<!-- Node5&#45;&gt;Node9 -->
<g id="edge8" class="edge">
<title>Node5&#45;&gt;Node9</title>
<path fill="none" stroke="midnightblue" d="M813.12,-56.44C754.03,-45.77 654.16,-27.73 599.7,-17.9"/>
<polygon fill="midnightblue" stroke="midnightblue" points="600.22,-14.44 589.76,-16.1 598.98,-21.33 600.22,-14.44"/>
</g>
<!-- Node10 -->
<g id="node10" class="node">
<title>Node10</title>
<g id="a_node10"><a xlink:title=" ">
<polygon fill="white" stroke="#bfbfbf" points="747.5,-0.5 747.5,-19.5 795.5,-19.5 795.5,-0.5 747.5,-0.5"/>
<text text-anchor="middle" x="771.5" y="-7.5" font-family="Helvetica,sans-Serif" font-size="10.00">thread</text>
</a>
</g>
</g>
<!-- Node5&#45;&gt;Node10 -->
<g id="edge9" class="edge">
<title>Node5&#45;&gt;Node10</title>
<path fill="none" stroke="midnightblue" d="M846.2,-56.32C832.32,-47.9 811.01,-34.97 794.7,-25.07"/>
<polygon fill="midnightblue" stroke="midnightblue" points="796.13,-21.85 785.76,-19.65 792.5,-27.83 796.13,-21.85"/>
</g>
<!-- Node13&#45;&gt;Node3 -->
<g id="edge13" class="edge">
<title>Node13&#45;&gt;Node3</title>
<path fill="none" stroke="midnightblue" d="M137.63,-198.65C150.64,-206.76 168.04,-219.04 180.5,-228.78"/>
<polygon fill="midnightblue" stroke="midnightblue" points="178.6,-231.74 188.56,-235.32 183.01,-226.3 178.6,-231.74"/>
</g>
<!-- Node14&#45;&gt;Node4 -->
<g id="edge15" class="edge">
<title>Node14&#45;&gt;Node4</title>
<path fill="none" stroke="midnightblue" d="M1041.88,-236.31C995.37,-227.86 926.95,-213.54 904.5,-199 884.21,-185.86 868.26,-162.63 858.87,-146.44"/>
<polygon fill="midnightblue" stroke="midnightblue" points="861.79,-144.49 853.9,-137.42 855.66,-147.87 861.79,-144.49"/>
</g>
<!-- Node15 -->
<g id="node15" class="node">
<title>Node15</title>
<g id="a_node15"><a xlink:title=" ">
<polygon fill="white" stroke="#bfbfbf" points="1146,-179.5 1146,-198.5 1215,-198.5 1215,-179.5 1146,-179.5"/>
<text text-anchor="middle" x="1180.5" y="-186.5" font-family="Helvetica,sans-Serif" font-size="10.00">Eigen/Core</text>
</a>
</g>
</g>
<!-- Node14&#45;&gt;Node15 -->
<g id="edge16" class="edge">
<title>Node14&#45;&gt;Node15</title>
<path fill="none" stroke="midnightblue" d="M1102.44,-235.32C1117.09,-226.82 1139.63,-213.73 1156.74,-203.8"/>
<polygon fill="midnightblue" stroke="midnightblue" points="1158.7,-206.7 1165.6,-198.65 1155.19,-200.65 1158.7,-206.7"/>
</g>
<!-- Node16 -->
<g id="node16" class="node">
<title>Node16</title>
<g id="a_node16"><a xlink:title=" ">
<polygon fill="white" stroke="#bfbfbf" points="1233,-179.5 1233,-198.5 1328,-198.5 1328,-179.5 1233,-179.5"/>
<text text-anchor="middle" x="1280.5" y="-186.5" font-family="Helvetica,sans-Serif" font-size="10.00">Eigen/Geometry</text>
</a>
</g>
</g>
<!-- Node14&#45;&gt;Node16 -->
<g id="edge17" class="edge">
<title>Node14&#45;&gt;Node16</title>
<path fill="none" stroke="midnightblue" d="M1118.08,-235.44C1151.11,-226.2 1203.89,-211.44 1240.27,-201.26"/>
<polygon fill="midnightblue" stroke="midnightblue" points="1241.37,-204.58 1250.06,-198.52 1239.49,-197.84 1241.37,-204.58"/>
</g>
<!-- Node17 -->
<g id="node17" class="node">
<title>Node17</title>
<g id="a_node17"><a xlink:title=" ">
<polygon fill="white" stroke="#bfbfbf" points="1047.5,-179.5 1047.5,-198.5 1127.5,-198.5 1127.5,-179.5 1047.5,-179.5"/>
<text text-anchor="middle" x="1087.5" y="-186.5" font-family="Helvetica,sans-Serif" font-size="10.00">Eigen/Sparse</text>
</a>
</g>
</g>
<!-- Node14&#45;&gt;Node17 -->
<g id="edge18" class="edge">
<title>Node14&#45;&gt;Node17</title>
<path fill="none" stroke="midnightblue" d="M1087.5,-235.08C1087.5,-228.01 1087.5,-217.86 1087.5,-208.99"/>
<polygon fill="midnightblue" stroke="midnightblue" points="1091,-208.75 1087.5,-198.75 1084,-208.75 1091,-208.75"/>
</g>
<!-- Node19 -->
<g id="node19" class="node">
<title>Node19</title>
<g id="a_node19"><a xlink:href="Log_8hpp.html" target="_top" xlink:title=" ">
<polygon fill="white" stroke="black" points="275.5,-179.5 275.5,-198.5 381.5,-198.5 381.5,-179.5 275.5,-179.5"/>
<text text-anchor="middle" x="328.5" y="-186.5" font-family="Helvetica,sans-Serif" font-size="10.00">Core/Utils/Log.hpp</text>
</a>
</g>
</g>
<!-- Node18&#45;&gt;Node19 -->
<g id="edge20" class="edge">
<title>Node18&#45;&gt;Node19</title>
<path fill="none" stroke="midnightblue" d="M341.02,-235.08C339.01,-227.85 336.11,-217.41 333.61,-208.4"/>
<polygon fill="midnightblue" stroke="midnightblue" points="336.98,-207.45 330.93,-198.75 330.24,-209.32 336.98,-207.45"/>
</g>
<!-- Node23 -->
<g id="node23" class="node">
<title>Node23</title>
<g id="a_node23"><a xlink:title=" ">
<polygon fill="white" stroke="#bfbfbf" points="438,-179.5 438,-198.5 503,-198.5 503,-179.5 438,-179.5"/>
<text text-anchor="middle" x="470.5" y="-186.5" font-family="Helvetica,sans-Serif" font-size="10.00">functional</text>
</a>
</g>
</g>
<!-- Node18&#45;&gt;Node23 -->
<g id="edge26" class="edge">
<title>Node18&#45;&gt;Node23</title>
<path fill="none" stroke="midnightblue" d="M363.62,-235.44C384.52,-226.56 417.43,-212.56 441.22,-202.45"/>
<polygon fill="midnightblue" stroke="midnightblue" points="442.64,-205.65 450.47,-198.52 439.9,-199.21 442.64,-205.65"/>
</g>
<!-- Node24 -->
<g id="node24" class="node">
<title>Node24</title>
<g id="a_node24"><a xlink:title=" ">
<polygon fill="white" stroke="#bfbfbf" points="521.5,-179.5 521.5,-198.5 559.5,-198.5 559.5,-179.5 521.5,-179.5"/>
<text text-anchor="middle" x="540.5" y="-186.5" font-family="Helvetica,sans-Serif" font-size="10.00">map</text>
</a>
</g>
</g>
<!-- Node18&#45;&gt;Node24 -->
<g id="edge27" class="edge">
<title>Node18&#45;&gt;Node24</title>
<path fill="none" stroke="midnightblue" d="M377.63,-235.45C409.86,-227.26 459.75,-214.28 511.57,-199.17"/>
<polygon fill="midnightblue" stroke="midnightblue" points="512.65,-202.5 521.26,-196.33 510.68,-195.78 512.65,-202.5"/>
</g>
<!-- Node19&#45;&gt;Node4 -->
<g id="edge21" class="edge">
<title>Node19&#45;&gt;Node4</title>
<path fill="none" stroke="midnightblue" d="M381.52,-180.77C386.24,-180.15 390.96,-179.56 395.5,-179 536.95,-161.64 703.51,-143.77 790.24,-134.66"/>
<polygon fill="midnightblue" stroke="midnightblue" points="790.83,-138.11 800.41,-133.59 790.1,-131.15 790.83,-138.11"/>
</g>
<!-- Node19&#45;&gt;Node9 -->
<g id="edge23" class="edge">
<title>Node19&#45;&gt;Node9</title>
<path fill="none" stroke="midnightblue" d="M339.74,-179.46C376.72,-151.37 494.92,-61.58 541.94,-25.86"/>
<polygon fill="midnightblue" stroke="midnightblue" points="544.26,-28.49 550.1,-19.66 540.02,-22.92 544.26,-28.49"/>
</g>
<!-- Node20 -->
<g id="node20" class="node">
<title>Node20</title>
<g id="a_node20"><a xlink:title=" ">
<polygon fill="white" stroke="#bfbfbf" points="260.5,-118 260.5,-137 304.5,-137 304.5,-118 260.5,-118"/>
<text text-anchor="middle" x="282.5" y="-125" font-family="Helvetica,sans-Serif" font-size="10.00">ctime</text>
</a>
</g>
</g>
<!-- Node19&#45;&gt;Node20 -->
<g id="edge22" class="edge">
<title>Node19&#45;&gt;Node20</title>
<path fill="none" stroke="midnightblue" d="M321.91,-179.48C315.01,-170.55 304,-156.31 295.37,-145.14"/>
<polygon fill="midnightblue" stroke="midnightblue" points="297.96,-142.78 289.08,-137.01 292.43,-147.06 297.96,-142.78"/>
</g>
<!-- Node21 -->
<g id="node21" class="node">
<title>Node21</title>
<g id="a_node21"><a xlink:title=" ">
<polygon fill="white" stroke="#bfbfbf" points="322.5,-118 322.5,-137 372.5,-137 372.5,-118 322.5,-118"/>
<text text-anchor="middle" x="347.5" y="-125" font-family="Helvetica,sans-Serif" font-size="10.00">stdio.h</text>
</a>
</g>
</g>
<!-- Node19&#45;&gt;Node21 -->
<g id="edge24" class="edge">
<title>Node19&#45;&gt;Node21</title>
<path fill="none" stroke="midnightblue" d="M331.22,-179.48C333.93,-170.99 338.17,-157.7 341.65,-146.82"/>
<polygon fill="midnightblue" stroke="midnightblue" points="345.07,-147.6 344.78,-137.01 338.41,-145.47 345.07,-147.6"/>
</g>
<!-- Node22 -->
<g id="node22" class="node">
<title>Node22</title>
<g id="a_node22"><a xlink:title=" ">
<polygon fill="white" stroke="#bfbfbf" points="487.5,-118 487.5,-137 531.5,-137 531.5,-118 487.5,-118"/>
<text text-anchor="middle" x="509.5" y="-125" font-family="Helvetica,sans-Serif" font-size="10.00">string</text>
</a>
</g>
</g>
<!-- Node19&#45;&gt;Node22 -->
<g id="edge25" class="edge">
<title>Node19&#45;&gt;Node22</title>
<path fill="none" stroke="midnightblue" d="M354.43,-179.48C386.91,-168.8 442.52,-150.52 477.58,-138.99"/>
<polygon fill="midnightblue" stroke="midnightblue" points="478.91,-142.24 487.32,-135.79 476.72,-135.59 478.91,-142.24"/>
</g>
<!-- Node25&#45;&gt;Node2 -->
<g id="edge29" class="edge">
<title>Node25&#45;&gt;Node2</title>
<path fill="none" stroke="midnightblue" d="M501.63,-254.75C503.16,-261.86 503.6,-272.14 502.97,-281.1"/>
<polygon fill="midnightblue" stroke="midnightblue" points="499.49,-280.71 501.67,-291.08 506.43,-281.62 499.49,-280.71"/>
</g>
<!-- Node26&#45;&gt;Node5 -->
<g id="edge33" class="edge">
<title>Node26&#45;&gt;Node5</title>
<path fill="none" stroke="midnightblue" d="M1534.77,-235.42C1491.42,-222.92 1408.31,-199.02 1337.5,-179 1230.93,-148.87 1205.33,-137.24 1097.5,-112 1038.49,-98.19 970.47,-85.61 922.47,-77.29"/>
<polygon fill="midnightblue" stroke="midnightblue" points="923,-73.83 912.55,-75.58 921.81,-80.72 923,-73.83"/>
</g>
<!-- Node27 -->
<g id="node27" class="node">
<title>Node27</title>
<g id="a_node27"><a xlink:href="OpenGL_8hpp.html" target="_top" xlink:title=" ">
<polygon fill="white" stroke="black" points="1517.5,-179.5 1517.5,-198.5 1629.5,-198.5 1629.5,-179.5 1517.5,-179.5"/>
<text text-anchor="middle" x="1573.5" y="-186.5" font-family="Helvetica,sans-Serif" font-size="10.00">Engine/OpenGL.hpp</text>
</a>
</g>
</g>
<!-- Node26&#45;&gt;Node27 -->
<g id="edge34" class="edge">
<title>Node26&#45;&gt;Node27</title>
<path fill="none" stroke="midnightblue" d="M1565.99,-235.08C1567.18,-227.93 1568.89,-217.64 1570.38,-208.69"/>
<polygon fill="midnightblue" stroke="midnightblue" points="1573.85,-209.19 1572.04,-198.75 1566.95,-208.04 1573.85,-209.19"/>
</g>
<!-- Node28 -->
<g id="node28" class="node">
<title>Node28</title>
<g id="a_node28"><a xlink:title=" ">
<polygon fill="white" stroke="#bfbfbf" points="1656.5,-118 1656.5,-137 1784.5,-137 1784.5,-118 1656.5,-118"/>
<text text-anchor="middle" x="1720.5" y="-125" font-family="Helvetica,sans-Serif" font-size="10.00">glbinding/gl45core/gl.h</text>
</a>
</g>
</g>
<!-- Node27&#45;&gt;Node28 -->
<g id="edge35" class="edge">
<title>Node27&#45;&gt;Node28</title>
<path fill="none" stroke="midnightblue" d="M1594.56,-179.48C1619.56,-169.36 1661.44,-152.4 1689.99,-140.85"/>
<polygon fill="midnightblue" stroke="midnightblue" points="1691.52,-144.01 1699.48,-137.01 1688.89,-137.52 1691.52,-144.01"/>
</g>
<!-- Node29 -->
<g id="node29" class="node">
<title>Node29</title>
<g id="a_node29"><a xlink:title=" ">
<polygon fill="white" stroke="#bfbfbf" points="1384.5,-118 1384.5,-137 1506.5,-137 1506.5,-118 1384.5,-118"/>
<text text-anchor="middle" x="1445.5" y="-125" font-family="Helvetica,sans-Serif" font-size="10.00">glbinding/gl45ext/gl.h</text>
</a>
</g>
</g>
<!-- Node27&#45;&gt;Node29 -->
<g id="edge36" class="edge">
<title>Node27&#45;&gt;Node29</title>
<path fill="none" stroke="midnightblue" d="M1555.16,-179.48C1533.68,-169.49 1497.88,-152.85 1473.05,-141.31"/>
<polygon fill="midnightblue" stroke="midnightblue" points="1474.35,-138.05 1463.81,-137.01 1471.4,-144.4 1474.35,-138.05"/>
</g>
<!-- Node30 -->
<g id="node30" class="node">
<title>Node30</title>
<g id="a_node30"><a xlink:title=" ">
<polygon fill="white" stroke="#bfbfbf" points="1525,-112.5 1525,-142.5 1638,-142.5 1638,-112.5 1525,-112.5"/>
<text text-anchor="start" x="1533" y="-130.5" font-family="Helvetica,sans-Serif" font-size="10.00">glbinding&#45;aux/types</text>
<text text-anchor="middle" x="1581.5" y="-119.5" font-family="Helvetica,sans-Serif" font-size="10.00">_to_string.h</text>
</a>
</g>
</g>
<!-- Node27&#45;&gt;Node30 -->
<g id="edge37" class="edge">
<title>Node27&#45;&gt;Node30</title>
<path fill="none" stroke="midnightblue" d="M1574.65,-179.48C1575.59,-172.47 1576.97,-162.19 1578.25,-152.7"/>
<polygon fill="midnightblue" stroke="midnightblue" points="1581.75,-152.9 1579.61,-142.52 1574.81,-151.97 1581.75,-152.9"/>
</g>
<!-- Node31&#45;&gt;Node14 -->
<g id="edge48" class="edge">
<title>Node31&#45;&gt;Node14</title>
<path fill="none" stroke="midnightblue" d="M1293.68,-291.44C1250.94,-282.02 1182.17,-266.87 1135.93,-256.68"/>
<polygon fill="midnightblue" stroke="midnightblue" points="1136.66,-253.25 1126.14,-254.52 1135.15,-260.09 1136.66,-253.25"/>
</g>
<!-- Node31&#45;&gt;Node15 -->
<g id="edge44" class="edge">
<title>Node31&#45;&gt;Node15</title>
<path fill="none" stroke="midnightblue" d="M1361.73,-291.46C1394.38,-280.46 1440.12,-259.78 1419.5,-235 1392.96,-203.11 1281.91,-206.82 1225.03,-198.78"/>
<polygon fill="midnightblue" stroke="midnightblue" points="1225.51,-195.32 1215.07,-197.14 1224.37,-202.22 1225.51,-195.32"/>
</g>
<!-- Node31&#45;&gt;Node16 -->
<g id="edge45" class="edge">
<title>Node31&#45;&gt;Node16</title>
<path fill="none" stroke="midnightblue" d="M1383.06,-291.48C1425.27,-282.11 1475.16,-264.35 1452.5,-235 1445.08,-225.39 1381.83,-210.6 1334.17,-200.62"/>
<polygon fill="midnightblue" stroke="midnightblue" points="1334.76,-197.17 1324.26,-198.57 1333.34,-204.03 1334.76,-197.17"/>
</g>
<!-- Node31&#45;&gt;Node26 -->
<g id="edge46" class="edge">
<title>Node31&#45;&gt;Node26</title>
<path fill="none" stroke="midnightblue" d="M1369.26,-291.44C1409.56,-282.06 1474.31,-266.99 1518.08,-256.8"/>
<polygon fill="midnightblue" stroke="midnightblue" points="1518.96,-260.19 1527.91,-254.52 1517.38,-253.37 1518.96,-260.19"/>
</g>
<!-- Node32 -->
<g id="node32" class="node">
<title>Node32</title>
<g id="a_node32"><a xlink:href="Index_8hpp.html" target="_top" xlink:title=" ">
<polygon fill="white" stroke="black" points="913.5,-179.5 913.5,-198.5 1029.5,-198.5 1029.5,-179.5 913.5,-179.5"/>
<text text-anchor="middle" x="971.5" y="-186.5" font-family="Helvetica,sans-Serif" font-size="10.00">Core/Utils/Index.hpp</text>
</a>
</g>
</g>
<!-- Node31&#45;&gt;Node32 -->
<g id="edge39" class="edge">
<title>Node31&#45;&gt;Node32</title>
<path fill="none" stroke="midnightblue" d="M1315.8,-291.41C1298.28,-282.38 1269.92,-267.74 1245.5,-255 1228.58,-246.17 1225.52,-241.3 1207.5,-235 1176.61,-224.2 1094.91,-209.73 1036.31,-200.15"/>
<polygon fill="midnightblue" stroke="midnightblue" points="1036.81,-196.69 1026.38,-198.54 1035.69,-203.59 1036.81,-196.69"/>
</g>
<!-- Node35 -->
<g id="node35" class="node">
<title>Node35</title>
<g id="a_node35"><a xlink:title=" ">
<polygon fill="white" stroke="#bfbfbf" points="1151,-235.5 1151,-254.5 1198,-254.5 1198,-235.5 1151,-235.5"/>
<text text-anchor="middle" x="1174.5" y="-242.5" font-family="Helvetica,sans-Serif" font-size="10.00">vector</text>
</a>
</g>
</g>
<!-- Node31&#45;&gt;Node35 -->
<g id="edge47" class="edge">
<title>Node31&#45;&gt;Node35</title>
<path fill="none" stroke="midnightblue" d="M1307.46,-291.44C1280.49,-282.23 1237.45,-267.51 1207.67,-257.34"/>
<polygon fill="midnightblue" stroke="midnightblue" points="1208.72,-254 1198.13,-254.08 1206.46,-260.62 1208.72,-254"/>
</g>
<!-- Node36 -->
<g id="node36" class="node">
<title>Node36</title>
<g id="a_node36"><a xlink:href="Component_8inl.html" target="_top" xlink:title=" ">
<polygon fill="white" stroke="black" points="1254.5,-235.5 1254.5,-254.5 1410.5,-254.5 1410.5,-235.5 1254.5,-235.5"/>
<text text-anchor="middle" x="1332.5" y="-242.5" font-family="Helvetica,sans-Serif" font-size="10.00">Engine/Scene/Component.inl</text>
</a>
</g>
</g>
<!-- Node31&#45;&gt;Node36 -->
<g id="edge49" class="edge">
<title>Node31&#45;&gt;Node36</title>
<path fill="none" stroke="midnightblue" d="M1327.33,-291.08C1325.82,-283.93 1325.39,-273.64 1326.04,-264.69"/>
<polygon fill="midnightblue" stroke="midnightblue" points="1329.52,-265.13 1327.37,-254.75 1322.58,-264.2 1329.52,-265.13"/>
</g>
<!-- Node32&#45;&gt;Node4 -->
<g id="edge40" class="edge">
<title>Node32&#45;&gt;Node4</title>
<path fill="none" stroke="midnightblue" d="M954.02,-179.48C933.64,-169.53 899.72,-152.99 876.08,-141.46"/>
<polygon fill="midnightblue" stroke="midnightblue" points="877.47,-138.25 866.95,-137.01 874.4,-144.54 877.47,-138.25"/>
</g>
<!-- Node33 -->
<g id="node33" class="node">
<title>Node33</title>
<g id="a_node33"><a xlink:title=" ">
<polygon fill="white" stroke="#bfbfbf" points="1044.5,-118 1044.5,-137 1088.5,-137 1088.5,-118 1044.5,-118"/>
<text text-anchor="middle" x="1066.5" y="-125" font-family="Helvetica,sans-Serif" font-size="10.00">limits</text>
</a>
</g>
</g>
<!-- Node32&#45;&gt;Node33 -->
<g id="edge41" class="edge">
<title>Node32&#45;&gt;Node33</title>
<path fill="none" stroke="midnightblue" d="M985.11,-179.48C1000.56,-169.8 1025.99,-153.87 1044.32,-142.39"/>
<polygon fill="midnightblue" stroke="midnightblue" points="1046.3,-145.28 1052.91,-137.01 1042.58,-139.35 1046.3,-145.28"/>
</g>
<!-- Node34 -->
<g id="node34" class="node">
<title>Node34</title>
<g id="a_node34"><a xlink:href="Index_8inl.html" target="_top" xlink:title=" ">
<polygon fill="white" stroke="black" points="916.5,-118 916.5,-137 1026.5,-137 1026.5,-118 916.5,-118"/>
<text text-anchor="middle" x="971.5" y="-125" font-family="Helvetica,sans-Serif" font-size="10.00">Core/Utils/Index.inl</text>
</a>
</g>
</g>
<!-- Node32&#45;&gt;Node34 -->
<g id="edge42" class="edge">
<title>Node32&#45;&gt;Node34</title>
<path fill="none" stroke="midnightblue" d="M966.6,-179.48C964.77,-171.08 964.3,-157.98 965.19,-147.16"/>
<polygon fill="midnightblue" stroke="midnightblue" points="968.69,-147.4 966.6,-137.01 961.75,-146.43 968.69,-147.4"/>
</g>
<!-- Node34&#45;&gt;Node32 -->
<g id="edge43" class="edge">
<title>Node34&#45;&gt;Node32</title>
<path fill="none" stroke="midnightblue" d="M976.4,-137.01C978.23,-145.4 978.7,-158.5 977.82,-169.32"/>
<polygon fill="midnightblue" stroke="midnightblue" points="974.31,-169.09 976.4,-179.48 981.25,-170.05 974.31,-169.09"/>
</g>
<!-- Node36&#45;&gt;Node31 -->
<g id="edge50" class="edge">
<title>Node36&#45;&gt;Node31</title>
<path fill="none" stroke="midnightblue" d="M1337.63,-254.75C1339.16,-261.86 1339.6,-272.14 1338.97,-281.1"/>
<polygon fill="midnightblue" stroke="midnightblue" points="1335.49,-280.71 1337.67,-291.08 1342.43,-281.62 1335.49,-280.71"/>
</g>
<!-- Node37&#45;&gt;Node1 -->
<g id="edge53" class="edge">
<title>Node37&#45;&gt;Node1</title>
<path fill="none" stroke="midnightblue" d="M883.12,-366.7C884.54,-373.47 885.25,-383.37 885.25,-393.27"/>
<polygon fill="midnightblue" stroke="midnightblue" points="881.75,-393.36 884.99,-403.45 888.74,-393.54 881.75,-393.36"/>
</g>
<!-- Node37&#45;&gt;Node2 -->
<g id="edge52" class="edge">
<title>Node37&#45;&gt;Node2</title>
<path fill="none" stroke="midnightblue" d="M817.97,-347.44C749.8,-337.81 639.14,-322.16 567.09,-311.98"/>
<polygon fill="midnightblue" stroke="midnightblue" points="567.14,-308.45 556.75,-310.52 566.16,-315.38 567.14,-308.45"/>
</g>
<!-- Node38 -->
<g id="node38" class="node">
<title>Node38</title>
<g id="a_node38"><a xlink:href="Entity_8hpp.html" target="_top" xlink:title=" ">
<polygon fill="white" stroke="black" points="812,-291.5 812,-310.5 945,-310.5 945,-291.5 812,-291.5"/>
<text text-anchor="middle" x="878.5" y="-298.5" font-family="Helvetica,sans-Serif" font-size="10.00">Engine/Scene/Entity.hpp</text>
</a>
</g>
</g>
<!-- Node37&#45;&gt;Node38 -->
<g id="edge54" class="edge">
<title>Node37&#45;&gt;Node38</title>
<path fill="none" stroke="midnightblue" d="M878.5,-347.08C878.5,-340.01 878.5,-329.86 878.5,-320.99"/>
<polygon fill="midnightblue" stroke="midnightblue" points="882,-320.75 878.5,-310.75 875,-320.75 882,-320.75"/>
</g>
<!-- Node38&#45;&gt;Node10 -->
<g id="edge58" class="edge">
<title>Node38&#45;&gt;Node10</title>
<path fill="none" stroke="midnightblue" d="M848.43,-291.46C829.28,-284.56 805.38,-272.98 790.5,-255 771.31,-231.81 771.5,-220.1 771.5,-190 771.5,-190 771.5,-190 771.5,-126.5 771.5,-92.36 771.5,-52.55 771.5,-29.71"/>
<polygon fill="midnightblue" stroke="midnightblue" points="775,-29.69 771.5,-19.69 768,-29.69 775,-29.69"/>
</g>
<!-- Node38&#45;&gt;Node14 -->
<g id="edge60" class="edge">
<title>Node38&#45;&gt;Node14</title>
<path fill="none" stroke="midnightblue" d="M911.62,-291.44C947.62,-282.14 1005.27,-267.25 1044.69,-257.06"/>
<polygon fill="midnightblue" stroke="midnightblue" points="1045.73,-260.41 1054.54,-254.52 1043.98,-253.63 1045.73,-260.41"/>
</g>
<!-- Node38&#45;&gt;Node22 -->
<g id="edge57" class="edge">
<title>Node38&#45;&gt;Node22</title>
<path fill="none" stroke="midnightblue" d="M811.85,-295.75C742.36,-290.15 639.23,-278.17 607.5,-255 576.84,-232.61 592.03,-208.79 568.5,-179 557.74,-165.38 542.88,-152.68 530.77,-143.43"/>
<polygon fill="midnightblue" stroke="midnightblue" points="532.65,-140.47 522.53,-137.34 528.49,-146.1 532.65,-140.47"/>
</g>
<!-- Node38&#45;&gt;Node26 -->
<g id="edge55" class="edge">
<title>Node38&#45;&gt;Node26</title>
<path fill="none" stroke="midnightblue" d="M945.21,-294.75C1075.32,-284.51 1361.81,-261.96 1494.5,-251.51"/>
<polygon fill="midnightblue" stroke="midnightblue" points="1494.86,-254.99 1504.55,-250.72 1494.31,-248.01 1494.86,-254.99"/>
</g>
<!-- Node38&#45;&gt;Node35 -->
<g id="edge59" class="edge">
<title>Node38&#45;&gt;Node35</title>
<path fill="none" stroke="midnightblue" d="M939.41,-291.48C990.84,-283.86 1066.59,-271.66 1140.82,-255.21"/>
<polygon fill="midnightblue" stroke="midnightblue" points="1141.81,-258.57 1150.81,-252.96 1140.28,-251.74 1141.81,-258.57"/>
</g>
<!-- Node39 -->
<g id="node39" class="node">
<title>Node39</title>
<g id="a_node39"><a xlink:title=" ">
<polygon fill="white" stroke="#bfbfbf" points="975.5,-235.5 975.5,-254.5 1023.5,-254.5 1023.5,-235.5 975.5,-235.5"/>
<text text-anchor="middle" x="999.5" y="-242.5" font-family="Helvetica,sans-Serif" font-size="10.00">mutex</text>
</a>
</g>
</g>
<!-- Node38&#45;&gt;Node39 -->
<g id="edge56" class="edge">
<title>Node38&#45;&gt;Node39</title>
<path fill="none" stroke="midnightblue" d="M897.67,-291.44C917.41,-282.64 948.39,-268.81 970.99,-258.72"/>
<polygon fill="midnightblue" stroke="midnightblue" points="972.71,-261.79 980.42,-254.52 969.86,-255.4 972.71,-261.79"/>
</g>
<!-- Node40 -->
<g id="node40" class="node">
<title>Node40</title>
<g id="a_node40"><a xlink:href="IndexedObject_8hpp.html" target="_top" xlink:title=" ">
<polygon fill="white" stroke="black" points="799.5,-235.5 799.5,-254.5 957.5,-254.5 957.5,-235.5 799.5,-235.5"/>
<text text-anchor="middle" x="878.5" y="-242.5" font-family="Helvetica,sans-Serif" font-size="10.00">Core/Utils/IndexedObject.hpp</text>
</a>
</g>
</g>
<!-- Node38&#45;&gt;Node40 -->
<g id="edge61" class="edge">
<title>Node38&#45;&gt;Node40</title>
<path fill="none" stroke="midnightblue" d="M878.5,-291.08C878.5,-284.01 878.5,-273.86 878.5,-264.99"/>
<polygon fill="midnightblue" stroke="midnightblue" points="882,-264.75 878.5,-254.75 875,-264.75 882,-264.75"/>
</g>
<!-- Node41 -->
<g id="node41" class="node">
<title>Node41</title>
<g id="a_node41"><a xlink:href="Entity_8inl.html" target="_top" xlink:title=" ">
<polygon fill="white" stroke="black" points="616,-235.5 616,-254.5 743,-254.5 743,-235.5 616,-235.5"/>
<text text-anchor="middle" x="679.5" y="-242.5" font-family="Helvetica,sans-Serif" font-size="10.00">Engine/Scene/Entity.inl</text>
</a>
</g>
</g>
<!-- Node38&#45;&gt;Node41 -->
<g id="edge64" class="edge">
<title>Node38&#45;&gt;Node41</title>
<path fill="none" stroke="midnightblue" d="M841.88,-291.44C805.95,-282.24 751.67,-267.56 715.84,-257.39"/>
<polygon fill="midnightblue" stroke="midnightblue" points="716.38,-253.9 705.8,-254.52 714.46,-260.63 716.38,-253.9"/>
</g>
<!-- Node40&#45;&gt;Node4 -->
<g id="edge62" class="edge">
<title>Node40&#45;&gt;Node4</title>
<path fill="none" stroke="midnightblue" d="M876.32,-235.32C871.64,-216.67 860.53,-172.44 854.18,-147.13"/>
<polygon fill="midnightblue" stroke="midnightblue" points="857.53,-146.13 851.71,-137.28 850.75,-147.83 857.53,-146.13"/>
</g>
<!-- Node40&#45;&gt;Node32 -->
<g id="edge63" class="edge">
<title>Node40&#45;&gt;Node32</title>
<path fill="none" stroke="midnightblue" d="M893.44,-235.32C908.09,-226.82 930.63,-213.73 947.74,-203.8"/>
<polygon fill="midnightblue" stroke="midnightblue" points="949.7,-206.7 956.6,-198.65 946.19,-200.65 949.7,-206.7"/>
</g>
<!-- Node41&#45;&gt;Node38 -->
<g id="edge65" class="edge">
<title>Node41&#45;&gt;Node38</title>
<path fill="none" stroke="midnightblue" d="M715.96,-254.52C751.84,-263.7 806.12,-278.38 842,-288.57"/>
<polygon fill="midnightblue" stroke="midnightblue" points="841.48,-292.06 852.06,-291.44 843.4,-285.33 841.48,-292.06"/>
</g>
</g>
</svg>
