<?xml version="1.0" encoding="UTF-8" standalone="no"?>
<!DOCTYPE svg PUBLIC "-//W3C//DTD SVG 1.1//EN"
 "http://www.w3.org/Graphics/SVG/1.1/DTD/svg11.dtd">
<!-- Generated by graphviz version 2.43.0 (0)
 -->
<!-- Title: /home/runner/work/Radium&#45;Engine/Radium&#45;Engine/src/Radium&#45;Engine/src/Engine/Renderer/Camera/Camera.hpp Pages: 1 -->
<svg width="2434pt" height="261pt"
 viewBox="0.00 0.00 2434.00 261.00" xmlns="http://www.w3.org/2000/svg" xmlns:xlink="http://www.w3.org/1999/xlink">
<g id="graph0" class="graph" transform="scale(1 1) rotate(0) translate(4 257)">
<title>/home/runner/work/Radium&#45;Engine/Radium&#45;Engine/src/Radium&#45;Engine/src/Engine/Renderer/Camera/Camera.hpp</title>
<polygon fill="white" stroke="transparent" points="-4,4 -4,-257 2430,-257 2430,4 -4,4"/>
<!-- Node1 -->
<g id="node1" class="node">
<title>Node1</title>
<g id="a_node1"><a xlink:title=" ">
<polygon fill="#bfbfbf" stroke="black" points="1060,-200.5 1060,-252.5 1227,-252.5 1227,-200.5 1060,-200.5"/>
<text text-anchor="start" x="1068" y="-240.5" font-family="Helvetica,sans-Serif" font-size="10.00">/home/runner/work/Radium</text>
<text text-anchor="start" x="1068" y="-229.5" font-family="Helvetica,sans-Serif" font-size="10.00">&#45;Engine/Radium&#45;Engine/src</text>
<text text-anchor="start" x="1068" y="-218.5" font-family="Helvetica,sans-Serif" font-size="10.00">/Radium&#45;Engine/src/Engine</text>
<text text-anchor="middle" x="1143.5" y="-207.5" font-family="Helvetica,sans-Serif" font-size="10.00">/Renderer/Camera/Camera.hpp</text>
</a>
</g>
</g>
<!-- Node2 -->
<g id="node2" class="node">
<title>Node2</title>
<g id="a_node2"><a xlink:href="CameraManager_8cpp.html" target="_top" xlink:title=" ">
<polygon fill="white" stroke="black" points="0,-106 0,-158 255,-158 255,-106 0,-106"/>
<text text-anchor="start" x="8" y="-146" font-family="Helvetica,sans-Serif" font-size="10.00">/home/runner/work/Radium</text>
<text text-anchor="start" x="8" y="-135" font-family="Helvetica,sans-Serif" font-size="10.00">&#45;Engine/Radium&#45;Engine/src</text>
<text text-anchor="start" x="8" y="-124" font-family="Helvetica,sans-Serif" font-size="10.00">/Radium&#45;Engine/src/Engine</text>
<text text-anchor="middle" x="127.5" y="-113" font-family="Helvetica,sans-Serif" font-size="10.00">/Managers/CameraManager/CameraManager.cpp</text>
</a>
</g>
</g>
<!-- Node1&#45;&gt;Node2 -->
<g id="edge1" class="edge">
<title>Node1&#45;&gt;Node2</title>
<path fill="none" stroke="midnightblue" d="M1049.55,-223.69C888.06,-219.51 547.76,-206.07 263.5,-164 252.48,-162.37 241.03,-160.32 229.66,-158.06"/>
<polygon fill="midnightblue" stroke="midnightblue" points="1049.84,-227.19 1059.93,-223.95 1050.02,-220.2 1049.84,-227.19"/>
</g>
<!-- Node3 -->
<g id="node3" class="node">
<title>Node3</title>
<g id="a_node3"><a xlink:href="Camera_8inl.html" target="_top" xlink:title=" ">
<polygon fill="white" stroke="black" points="273,-106 273,-158 434,-158 434,-106 273,-106"/>
<text text-anchor="start" x="281" y="-146" font-family="Helvetica,sans-Serif" font-size="10.00">/home/runner/work/Radium</text>
<text text-anchor="start" x="281" y="-135" font-family="Helvetica,sans-Serif" font-size="10.00">&#45;Engine/Radium&#45;Engine/src</text>
<text text-anchor="start" x="281" y="-124" font-family="Helvetica,sans-Serif" font-size="10.00">/Radium&#45;Engine/src/Engine</text>
<text text-anchor="middle" x="353.5" y="-113" font-family="Helvetica,sans-Serif" font-size="10.00">/Renderer/Camera/Camera.inl</text>
</a>
</g>
</g>
<!-- Node1&#45;&gt;Node3 -->
<g id="edge2" class="edge">
<title>Node1&#45;&gt;Node3</title>
<path fill="none" stroke="midnightblue" d="M1049.85,-224.63C913,-221.76 651.32,-210.14 434.5,-164 426.9,-162.38 419.06,-160.32 411.38,-158.02"/>
<polygon fill="midnightblue" stroke="midnightblue" points="1049.82,-228.13 1059.88,-224.82 1049.95,-221.13 1049.82,-228.13"/>
</g>
<!-- Node4 -->
<g id="node4" class="node">
<title>Node4</title>
<g id="a_node4"><a xlink:href="DefaultCameraManager_8hpp.html" target="_top" xlink:title=" ">
<polygon fill="white" stroke="black" points="452,-100.5 452,-163.5 681,-163.5 681,-100.5 452,-100.5"/>
<text text-anchor="start" x="460" y="-151.5" font-family="Helvetica,sans-Serif" font-size="10.00">/home/runner/work/Radium</text>
<text text-anchor="start" x="460" y="-140.5" font-family="Helvetica,sans-Serif" font-size="10.00">&#45;Engine/Radium&#45;Engine/src</text>
<text text-anchor="start" x="460" y="-129.5" font-family="Helvetica,sans-Serif" font-size="10.00">/Radium&#45;Engine/src/Engine</text>
<text text-anchor="start" x="460" y="-118.5" font-family="Helvetica,sans-Serif" font-size="10.00">/Managers/CameraManager/DefaultCamera</text>
<text text-anchor="middle" x="566.5" y="-107.5" font-family="Helvetica,sans-Serif" font-size="10.00">Manager.hpp</text>
</a>
</g>
</g>
<!-- Node1&#45;&gt;Node4 -->
<g id="edge4" class="edge">
<title>Node1&#45;&gt;Node4</title>
<path fill="none" stroke="midnightblue" d="M1049.86,-215.83C957.91,-205.63 813.89,-187.72 690.5,-164 687.45,-163.41 684.36,-162.8 681.25,-162.16"/>
<polygon fill="midnightblue" stroke="midnightblue" points="1049.65,-219.33 1059.98,-216.95 1050.42,-212.37 1049.65,-219.33"/>
</g>
<!-- Node7 -->
<g id="node7" class="node">
<title>Node7</title>
<g id="a_node7"><a xlink:href="Camera_8cpp.html" target="_top" xlink:title=" ">
<polygon fill="white" stroke="black" points="699,-106 699,-158 866,-158 866,-106 699,-106"/>
<text text-anchor="start" x="707" y="-146" font-family="Helvetica,sans-Serif" font-size="10.00">/home/runner/work/Radium</text>
<text text-anchor="start" x="707" y="-135" font-family="Helvetica,sans-Serif" font-size="10.00">&#45;Engine/Radium&#45;Engine/src</text>
<text text-anchor="start" x="707" y="-124" font-family="Helvetica,sans-Serif" font-size="10.00">/Radium&#45;Engine/src/Engine</text>
<text text-anchor="middle" x="782.5" y="-113" font-family="Helvetica,sans-Serif" font-size="10.00">/Renderer/Camera/Camera.cpp</text>
</a>
</g>
</g>
<!-- Node1&#45;&gt;Node7 -->
<g id="edge7" class="edge">
<title>Node1&#45;&gt;Node7</title>
<path fill="none" stroke="midnightblue" d="M1050.15,-206.39C998.38,-195.21 933.03,-180.15 875.5,-164 868.95,-162.16 862.17,-160.14 855.4,-158.04"/>
<polygon fill="midnightblue" stroke="midnightblue" points="1049.47,-209.82 1059.98,-208.5 1050.94,-202.98 1049.47,-209.82"/>
</g>
<!-- Node8 -->
<g id="node8" class="node">
<title>Node8</title>
<g id="a_node8"><a xlink:href="BaseApplication_8cpp.html" target="_top" xlink:title=" ">
<polygon fill="white" stroke="black" points="884,-106 884,-158 1039,-158 1039,-106 884,-106"/>
<text text-anchor="start" x="892" y="-146" font-family="Helvetica,sans-Serif" font-size="10.00">/home/runner/work/Radium</text>
<text text-anchor="start" x="892" y="-135" font-family="Helvetica,sans-Serif" font-size="10.00">&#45;Engine/Radium&#45;Engine/src</text>
<text text-anchor="start" x="892" y="-124" font-family="Helvetica,sans-Serif" font-size="10.00">/Radium&#45;Engine/src/GuiBase</text>
<text text-anchor="middle" x="961.5" y="-113" font-family="Helvetica,sans-Serif" font-size="10.00">/BaseApplication.cpp</text>
</a>
</g>
</g>
<!-- Node1&#45;&gt;Node8 -->
<g id="edge8" class="edge">
<title>Node1&#45;&gt;Node8</title>
<path fill="none" stroke="midnightblue" d="M1085.24,-195.89C1061.25,-183.7 1033.76,-169.73 1010.79,-158.05"/>
<polygon fill="midnightblue" stroke="midnightblue" points="1083.75,-199.06 1094.25,-200.47 1086.92,-192.82 1083.75,-199.06"/>
</g>
<!-- Node9 -->
<g id="node9" class="node">
<title>Node9</title>
<g id="a_node9"><a xlink:href="CameraManipulator_8cpp.html" target="_top" xlink:title=" ">
<polygon fill="white" stroke="black" points="1057,-106 1057,-158 1230,-158 1230,-106 1057,-106"/>
<text text-anchor="start" x="1065" y="-146" font-family="Helvetica,sans-Serif" font-size="10.00">/home/runner/work/Radium</text>
<text text-anchor="start" x="1065" y="-135" font-family="Helvetica,sans-Serif" font-size="10.00">&#45;Engine/Radium&#45;Engine/src</text>
<text text-anchor="start" x="1065" y="-124" font-family="Helvetica,sans-Serif" font-size="10.00">/Radium&#45;Engine/src/GuiBase</text>
<text text-anchor="middle" x="1143.5" y="-113" font-family="Helvetica,sans-Serif" font-size="10.00">/Viewer/CameraManipulator.cpp</text>
</a>
</g>
</g>
<!-- Node1&#45;&gt;Node9 -->
<g id="edge9" class="edge">
<title>Node1&#45;&gt;Node9</title>
<path fill="none" stroke="midnightblue" d="M1143.5,-189.99C1143.5,-179.41 1143.5,-168.03 1143.5,-158.25"/>
<polygon fill="midnightblue" stroke="midnightblue" points="1140,-190.22 1143.5,-200.22 1147,-190.22 1140,-190.22"/>
</g>
<!-- Node10 -->
<g id="node10" class="node">
<title>Node10</title>
<g id="a_node10"><a xlink:href="FlightCameraManipulator_8cpp.html" target="_top" xlink:title=" ">
<polygon fill="white" stroke="black" points="1248.5,-106 1248.5,-158 1448.5,-158 1448.5,-106 1248.5,-106"/>
<text text-anchor="start" x="1256.5" y="-146" font-family="Helvetica,sans-Serif" font-size="10.00">/home/runner/work/Radium</text>
<text text-anchor="start" x="1256.5" y="-135" font-family="Helvetica,sans-Serif" font-size="10.00">&#45;Engine/Radium&#45;Engine/src</text>
<text text-anchor="start" x="1256.5" y="-124" font-family="Helvetica,sans-Serif" font-size="10.00">/Radium&#45;Engine/src/GuiBase</text>
<text text-anchor="middle" x="1348.5" y="-113" font-family="Helvetica,sans-Serif" font-size="10.00">/Viewer/FlightCameraManipulator.cpp</text>
</a>
</g>
</g>
<!-- Node1&#45;&gt;Node10 -->
<g id="edge10" class="edge">
<title>Node1&#45;&gt;Node10</title>
<path fill="none" stroke="midnightblue" d="M1208.41,-196.21C1235.6,-183.94 1266.88,-169.83 1292.98,-158.05"/>
<polygon fill="midnightblue" stroke="midnightblue" points="1206.65,-193.16 1198.98,-200.47 1209.53,-199.55 1206.65,-193.16"/>
</g>
<!-- Node11 -->
<g id="node11" class="node">
<title>Node11</title>
<g id="a_node11"><a xlink:href="Gizmo_8cpp.html" target="_top" xlink:title=" ">
<polygon fill="white" stroke="black" points="1467,-106 1467,-158 1622,-158 1622,-106 1467,-106"/>
<text text-anchor="start" x="1475" y="-146" font-family="Helvetica,sans-Serif" font-size="10.00">/home/runner/work/Radium</text>
<text text-anchor="start" x="1475" y="-135" font-family="Helvetica,sans-Serif" font-size="10.00">&#45;Engine/Radium&#45;Engine/src</text>
<text text-anchor="start" x="1475" y="-124" font-family="Helvetica,sans-Serif" font-size="10.00">/Radium&#45;Engine/src/GuiBase</text>
<text text-anchor="middle" x="1544.5" y="-113" font-family="Helvetica,sans-Serif" font-size="10.00">/Viewer/Gizmo/Gizmo.cpp</text>
</a>
</g>
</g>
<!-- Node1&#45;&gt;Node11 -->
<g id="edge11" class="edge">
<title>Node1&#45;&gt;Node11</title>
<path fill="none" stroke="midnightblue" d="M1237.15,-210.92C1300.02,-200.21 1384.41,-184.06 1457.5,-164 1463.99,-162.22 1470.7,-160.19 1477.37,-158.03"/>
<polygon fill="midnightblue" stroke="midnightblue" points="1236.53,-207.47 1227.25,-212.59 1237.7,-214.37 1236.53,-207.47"/>
</g>
<!-- Node12 -->
<g id="node12" class="node">
<title>Node12</title>
<g id="a_node12"><a xlink:href="GizmoManager_8cpp.html" target="_top" xlink:title=" ">
<polygon fill="white" stroke="black" points="1640,-106 1640,-158 1825,-158 1825,-106 1640,-106"/>
<text text-anchor="start" x="1648" y="-146" font-family="Helvetica,sans-Serif" font-size="10.00">/home/runner/work/Radium</text>
<text text-anchor="start" x="1648" y="-135" font-family="Helvetica,sans-Serif" font-size="10.00">&#45;Engine/Radium&#45;Engine/src</text>
<text text-anchor="start" x="1648" y="-124" font-family="Helvetica,sans-Serif" font-size="10.00">/Radium&#45;Engine/src/GuiBase</text>
<text text-anchor="middle" x="1732.5" y="-113" font-family="Helvetica,sans-Serif" font-size="10.00">/Viewer/Gizmo/GizmoManager.cpp</text>
</a>
</g>
</g>
<!-- Node1&#45;&gt;Node12 -->
<g id="edge12" class="edge">
<title>Node1&#45;&gt;Node12</title>
<path fill="none" stroke="midnightblue" d="M1237.39,-218.51C1336.25,-210.02 1496.03,-193.1 1631.5,-164 1639.48,-162.29 1647.74,-160.23 1655.94,-158.01"/>
<polygon fill="midnightblue" stroke="midnightblue" points="1236.8,-215.04 1227.13,-219.37 1237.39,-222.02 1236.8,-215.04"/>
</g>
<!-- Node13 -->
<g id="node13" class="node">
<title>Node13</title>
<g id="a_node13"><a xlink:href="RotateGizmo_8cpp.html" target="_top" xlink:title=" ">
<polygon fill="white" stroke="black" points="1843,-106 1843,-158 2018,-158 2018,-106 1843,-106"/>
<text text-anchor="start" x="1851" y="-146" font-family="Helvetica,sans-Serif" font-size="10.00">/home/runner/work/Radium</text>
<text text-anchor="start" x="1851" y="-135" font-family="Helvetica,sans-Serif" font-size="10.00">&#45;Engine/Radium&#45;Engine/src</text>
<text text-anchor="start" x="1851" y="-124" font-family="Helvetica,sans-Serif" font-size="10.00">/Radium&#45;Engine/src/GuiBase</text>
<text text-anchor="middle" x="1930.5" y="-113" font-family="Helvetica,sans-Serif" font-size="10.00">/Viewer/Gizmo/RotateGizmo.cpp</text>
</a>
</g>
</g>
<!-- Node1&#45;&gt;Node13 -->
<g id="edge13" class="edge">
<title>Node1&#45;&gt;Node13</title>
<path fill="none" stroke="midnightblue" d="M1237.27,-223.78C1371.06,-219.83 1623.85,-206.82 1834.5,-164 1842.48,-162.38 1850.73,-160.32 1858.89,-158.04"/>
<polygon fill="midnightblue" stroke="midnightblue" points="1236.96,-220.28 1227.06,-224.07 1237.16,-227.28 1236.96,-220.28"/>
</g>
<!-- Node14 -->
<g id="node14" class="node">
<title>Node14</title>
<g id="a_node14"><a xlink:href="TrackballCameraManipulator_8cpp.html" target="_top" xlink:title=" ">
<polygon fill="white" stroke="black" points="2036.5,-106 2036.5,-158 2252.5,-158 2252.5,-106 2036.5,-106"/>
<text text-anchor="start" x="2044.5" y="-146" font-family="Helvetica,sans-Serif" font-size="10.00">/home/runner/work/Radium</text>
<text text-anchor="start" x="2044.5" y="-135" font-family="Helvetica,sans-Serif" font-size="10.00">&#45;Engine/Radium&#45;Engine/src</text>
<text text-anchor="start" x="2044.5" y="-124" font-family="Helvetica,sans-Serif" font-size="10.00">/Radium&#45;Engine/src/GuiBase</text>
<text text-anchor="middle" x="2144.5" y="-113" font-family="Helvetica,sans-Serif" font-size="10.00">/Viewer/TrackballCameraManipulator.cpp</text>
</a>
</g>
</g>
<!-- Node1&#45;&gt;Node14 -->
<g id="edge14" class="edge">
<title>Node1&#45;&gt;Node14</title>
<path fill="none" stroke="midnightblue" d="M1237.73,-224.79C1400.07,-222.26 1742.54,-211.22 2027.5,-164 2037.24,-162.39 2047.35,-160.32 2057.37,-158.02"/>
<polygon fill="midnightblue" stroke="midnightblue" points="1237.24,-221.29 1227.29,-224.94 1237.35,-228.29 1237.24,-221.29"/>
</g>
<!-- Node15 -->
<g id="node15" class="node">
<title>Node15</title>
<g id="a_node15"><a xlink:href="Viewer_8cpp.html" target="_top" xlink:title=" ">
<polygon fill="white" stroke="black" points="2271,-106 2271,-158 2426,-158 2426,-106 2271,-106"/>
<text text-anchor="start" x="2279" y="-146" font-family="Helvetica,sans-Serif" font-size="10.00">/home/runner/work/Radium</text>
<text text-anchor="start" x="2279" y="-135" font-family="Helvetica,sans-Serif" font-size="10.00">&#45;Engine/Radium&#45;Engine/src</text>
<text text-anchor="start" x="2279" y="-124" font-family="Helvetica,sans-Serif" font-size="10.00">/Radium&#45;Engine/src/GuiBase</text>
<text text-anchor="middle" x="2348.5" y="-113" font-family="Helvetica,sans-Serif" font-size="10.00">/Viewer/Viewer.cpp</text>
</a>
</g>
</g>
<!-- Node1&#45;&gt;Node15 -->
<g id="edge15" class="edge">
<title>Node1&#45;&gt;Node15</title>
<path fill="none" stroke="midnightblue" d="M1237.51,-223.79C1469.91,-219.02 2066.68,-203.21 2261.5,-164 2269.05,-162.48 2276.82,-160.44 2284.47,-158.13"/>
<polygon fill="midnightblue" stroke="midnightblue" points="1237.32,-220.3 1227.39,-224 1237.46,-227.3 1237.32,-220.3"/>
</g>
<!-- Node3&#45;&gt;Node1 -->
<g id="edge3" class="edge">
<title>Node3&#45;&gt;Node1</title>
<path fill="none" stroke="midnightblue" d="M439.14,-160.79C443.63,-161.98 448.11,-163.07 452.5,-164 668.48,-209.96 928.97,-221.67 1059.89,-224.59"/>
<polygon fill="midnightblue" stroke="midnightblue" points="439.84,-157.35 429.27,-158.02 437.95,-164.09 439.84,-157.35"/>
</g>
<!-- Node5 -->
<g id="node5" class="node">
<title>Node5</title>
<g id="a_node5"><a xlink:href="DefaultCameraManager_8cpp.html" target="_top" xlink:title=" ">
<polygon fill="white" stroke="black" points="330,-0.5 330,-63.5 559,-63.5 559,-0.5 330,-0.5"/>
<text text-anchor="start" x="338" y="-51.5" font-family="Helvetica,sans-Serif" font-size="10.00">/home/runner/work/Radium</text>
<text text-anchor="start" x="338" y="-40.5" font-family="Helvetica,sans-Serif" font-size="10.00">&#45;Engine/Radium&#45;Engine/src</text>
<text text-anchor="start" x="338" y="-29.5" font-family="Helvetica,sans-Serif" font-size="10.00">/Radium&#45;Engine/src/Engine</text>
<text text-anchor="start" x="338" y="-18.5" font-family="Helvetica,sans-Serif" font-size="10.00">/Managers/CameraManager/DefaultCamera</text>
<text text-anchor="middle" x="444.5" y="-7.5" font-family="Helvetica,sans-Serif" font-size="10.00">Manager.cpp</text>
</a>
</g>
</g>
<!-- Node4&#45;&gt;Node5 -->
<g id="edge5" class="edge">
<title>Node4&#45;&gt;Node5</title>
<path fill="none" stroke="midnightblue" d="M520.23,-93.83C507.82,-83.86 494.54,-73.2 482.63,-63.63"/>
<polygon fill="midnightblue" stroke="midnightblue" points="518.25,-96.73 528.23,-100.26 522.63,-91.27 518.25,-96.73"/>
</g>
<!-- Node6 -->
<g id="node6" class="node">
<title>Node6</title>
<g id="a_node6"><a xlink:href="ForwardRenderer_8cpp.html" target="_top" xlink:title=" ">
<polygon fill="white" stroke="black" points="577.5,-6 577.5,-58 799.5,-58 799.5,-6 577.5,-6"/>
<text text-anchor="start" x="585.5" y="-46" font-family="Helvetica,sans-Serif" font-size="10.00">/home/runner/work/Radium</text>
<text text-anchor="start" x="585.5" y="-35" font-family="Helvetica,sans-Serif" font-size="10.00">&#45;Engine/Radium&#45;Engine/src</text>
<text text-anchor="start" x="585.5" y="-24" font-family="Helvetica,sans-Serif" font-size="10.00">/Radium&#45;Engine/src/Engine</text>
<text text-anchor="middle" x="688.5" y="-13" font-family="Helvetica,sans-Serif" font-size="10.00">/Renderer/Renderers/ForwardRenderer.cpp</text>
</a>
</g>
</g>
<!-- Node4&#45;&gt;Node6 -->
<g id="edge6" class="edge">
<title>Node4&#45;&gt;Node6</title>
<path fill="none" stroke="midnightblue" d="M612.87,-93.75C627.72,-81.82 643.81,-68.9 657.31,-58.05"/>
<polygon fill="midnightblue" stroke="midnightblue" points="610.37,-91.27 604.77,-100.26 614.75,-96.73 610.37,-91.27"/>
</g>
</g>
</svg>
