<?xml version="1.0" encoding="UTF-8" standalone="no"?>
<!DOCTYPE svg PUBLIC "-//W3C//DTD SVG 1.1//EN"
 "http://www.w3.org/Graphics/SVG/1.1/DTD/svg11.dtd">
<!-- Generated by graphviz version 2.43.0 (0)
 -->
<!-- Title: /home/runner/work/Radium&#45;Engine/Radium&#45;Engine/src/Radium&#45;Engine/src/Core/Asset/CameraData.inl Pages: 1 -->
<svg width="2030pt" height="417pt"
 viewBox="0.00 0.00 2030.00 417.00" xmlns="http://www.w3.org/2000/svg" xmlns:xlink="http://www.w3.org/1999/xlink">
<g id="graph0" class="graph" transform="scale(1 1) rotate(0) translate(4 413)">
<title>/home/runner/work/Radium&#45;Engine/Radium&#45;Engine/src/Radium&#45;Engine/src/Core/Asset/CameraData.inl</title>
<polygon fill="white" stroke="transparent" points="-4,4 -4,-413 2026,-413 2026,4 -4,4"/>
<!-- Node1 -->
<g id="node1" class="node">
<title>Node1</title>
<g id="a_node1"><a xlink:title=" ">
<polygon fill="#bfbfbf" stroke="black" points="452,-356.5 452,-408.5 619,-408.5 619,-356.5 452,-356.5"/>
<text text-anchor="start" x="460" y="-396.5" font-family="Helvetica,sans-Serif" font-size="10.00">/home/runner/work/Radium</text>
<text text-anchor="start" x="460" y="-385.5" font-family="Helvetica,sans-Serif" font-size="10.00">&#45;Engine/Radium&#45;Engine/src</text>
<text text-anchor="start" x="460" y="-374.5" font-family="Helvetica,sans-Serif" font-size="10.00">/Radium&#45;Engine/src/Core/Asset</text>
<text text-anchor="middle" x="535.5" y="-363.5" font-family="Helvetica,sans-Serif" font-size="10.00">/CameraData.inl</text>
</a>
</g>
</g>
<!-- Node2 -->
<g id="node2" class="node">
<title>Node2</title>
<g id="a_node2"><a xlink:href="CameraData_8hpp.html" target="_top" xlink:title=" ">
<polygon fill="white" stroke="black" points="452,-267.5 452,-319.5 619,-319.5 619,-267.5 452,-267.5"/>
<text text-anchor="start" x="460" y="-307.5" font-family="Helvetica,sans-Serif" font-size="10.00">/home/runner/work/Radium</text>
<text text-anchor="start" x="460" y="-296.5" font-family="Helvetica,sans-Serif" font-size="10.00">&#45;Engine/Radium&#45;Engine/src</text>
<text text-anchor="start" x="460" y="-285.5" font-family="Helvetica,sans-Serif" font-size="10.00">/Radium&#45;Engine/src/Core/Asset</text>
<text text-anchor="middle" x="535.5" y="-274.5" font-family="Helvetica,sans-Serif" font-size="10.00">/CameraData.hpp</text>
</a>
</g>
</g>
<!-- Node1&#45;&gt;Node2 -->
<g id="edge1" class="edge">
<title>Node1&#45;&gt;Node2</title>
<path fill="none" stroke="midnightblue" d="M528.86,-346.19C528.62,-337.28 528.77,-327.9 529.32,-319.61"/>
<polygon fill="midnightblue" stroke="midnightblue" points="525.37,-346.5 529.31,-356.34 532.36,-346.19 525.37,-346.5"/>
</g>
<!-- Node2&#45;&gt;Node1 -->
<g id="edge3" class="edge">
<title>Node2&#45;&gt;Node1</title>
<path fill="none" stroke="midnightblue" d="M542.14,-329.75C542.38,-338.65 542.23,-348.04 541.69,-356.34"/>
<polygon fill="midnightblue" stroke="midnightblue" points="545.63,-329.44 541.68,-319.61 538.64,-329.76 545.63,-329.44"/>
</g>
<!-- Node3 -->
<g id="node3" class="node">
<title>Node3</title>
<g id="a_node3"><a xlink:href="CameraData_8cpp.html" target="_top" xlink:title=" ">
<polygon fill="white" stroke="black" points="286,-178.5 286,-230.5 453,-230.5 453,-178.5 286,-178.5"/>
<text text-anchor="start" x="294" y="-218.5" font-family="Helvetica,sans-Serif" font-size="10.00">/home/runner/work/Radium</text>
<text text-anchor="start" x="294" y="-207.5" font-family="Helvetica,sans-Serif" font-size="10.00">&#45;Engine/Radium&#45;Engine/src</text>
<text text-anchor="start" x="294" y="-196.5" font-family="Helvetica,sans-Serif" font-size="10.00">/Radium&#45;Engine/src/Core/Asset</text>
<text text-anchor="middle" x="369.5" y="-185.5" font-family="Helvetica,sans-Serif" font-size="10.00">/CameraData.cpp</text>
</a>
</g>
</g>
<!-- Node2&#45;&gt;Node3 -->
<g id="edge2" class="edge">
<title>Node2&#45;&gt;Node3</title>
<path fill="none" stroke="midnightblue" d="M478.52,-262.64C458.62,-252.2 436.49,-240.61 417.41,-230.61"/>
<polygon fill="midnightblue" stroke="midnightblue" points="477,-265.79 487.49,-267.34 480.25,-259.59 477,-265.79"/>
</g>
<!-- Node4 -->
<g id="node4" class="node">
<title>Node4</title>
<g id="a_node4"><a xlink:href="FileData_8inl.html" target="_top" xlink:title=" ">
<polygon fill="white" stroke="black" points="508,-178.5 508,-230.5 675,-230.5 675,-178.5 508,-178.5"/>
<text text-anchor="start" x="516" y="-218.5" font-family="Helvetica,sans-Serif" font-size="10.00">/home/runner/work/Radium</text>
<text text-anchor="start" x="516" y="-207.5" font-family="Helvetica,sans-Serif" font-size="10.00">&#45;Engine/Radium&#45;Engine/src</text>
<text text-anchor="start" x="516" y="-196.5" font-family="Helvetica,sans-Serif" font-size="10.00">/Radium&#45;Engine/src/Core/Asset</text>
<text text-anchor="middle" x="591.5" y="-185.5" font-family="Helvetica,sans-Serif" font-size="10.00">/FileData.inl</text>
</a>
</g>
</g>
<!-- Node2&#45;&gt;Node4 -->
<g id="edge4" class="edge">
<title>Node2&#45;&gt;Node4</title>
<path fill="none" stroke="midnightblue" d="M557.11,-258.93C563.17,-249.51 569.65,-239.44 575.34,-230.61"/>
<polygon fill="midnightblue" stroke="midnightblue" points="554.17,-257.03 551.7,-267.34 560.05,-260.82 554.17,-257.03"/>
</g>
<!-- Node7 -->
<g id="node7" class="node">
<title>Node7</title>
<g id="a_node7"><a xlink:href="CameraManager_8cpp.html" target="_top" xlink:title=" ">
<polygon fill="white" stroke="black" points="0,-0.5 0,-52.5 255,-52.5 255,-0.5 0,-0.5"/>
<text text-anchor="start" x="8" y="-40.5" font-family="Helvetica,sans-Serif" font-size="10.00">/home/runner/work/Radium</text>
<text text-anchor="start" x="8" y="-29.5" font-family="Helvetica,sans-Serif" font-size="10.00">&#45;Engine/Radium&#45;Engine/src</text>
<text text-anchor="start" x="8" y="-18.5" font-family="Helvetica,sans-Serif" font-size="10.00">/Radium&#45;Engine/src/Engine</text>
<text text-anchor="middle" x="127.5" y="-7.5" font-family="Helvetica,sans-Serif" font-size="10.00">/Managers/CameraManager/CameraManager.cpp</text>
</a>
</g>
</g>
<!-- Node2&#45;&gt;Node7 -->
<g id="edge16" class="edge">
<title>Node2&#45;&gt;Node7</title>
<path fill="none" stroke="midnightblue" d="M515.1,-258.85C495.78,-227.33 468.68,-184.17 461.5,-178 390.25,-116.73 289.99,-76.05 217.94,-52.61"/>
<polygon fill="midnightblue" stroke="midnightblue" points="512.12,-260.69 520.32,-267.39 518.09,-257.04 512.12,-260.69"/>
</g>
<!-- Node16 -->
<g id="node16" class="node">
<title>Node16</title>
<g id="a_node16"><a xlink:href="AssimpCameraDataLoader_8cpp.html" target="_top" xlink:title=" ">
<polygon fill="white" stroke="black" points="693,-178.5 693,-230.5 890,-230.5 890,-178.5 693,-178.5"/>
<text text-anchor="start" x="701" y="-218.5" font-family="Helvetica,sans-Serif" font-size="10.00">/home/runner/work/Radium</text>
<text text-anchor="start" x="701" y="-207.5" font-family="Helvetica,sans-Serif" font-size="10.00">&#45;Engine/Radium&#45;Engine/src</text>
<text text-anchor="start" x="701" y="-196.5" font-family="Helvetica,sans-Serif" font-size="10.00">/Radium&#45;Engine/src/IO/AssimpLoader</text>
<text text-anchor="middle" x="791.5" y="-185.5" font-family="Helvetica,sans-Serif" font-size="10.00">/AssimpCameraDataLoader.cpp</text>
</a>
</g>
</g>
<!-- Node2&#45;&gt;Node16 -->
<g id="edge17" class="edge">
<title>Node2&#45;&gt;Node16</title>
<path fill="none" stroke="midnightblue" d="M618.96,-264.14C650.85,-253.3 686.96,-241.03 717.87,-230.52"/>
<polygon fill="midnightblue" stroke="midnightblue" points="617.54,-260.92 609.2,-267.45 619.8,-267.55 617.54,-260.92"/>
</g>
<!-- Node5 -->
<g id="node5" class="node">
<title>Node5</title>
<g id="a_node5"><a xlink:href="FileData_8hpp.html" target="_top" xlink:title=" ">
<polygon fill="white" stroke="black" points="861,-89.5 861,-141.5 1028,-141.5 1028,-89.5 861,-89.5"/>
<text text-anchor="start" x="869" y="-129.5" font-family="Helvetica,sans-Serif" font-size="10.00">/home/runner/work/Radium</text>
<text text-anchor="start" x="869" y="-118.5" font-family="Helvetica,sans-Serif" font-size="10.00">&#45;Engine/Radium&#45;Engine/src</text>
<text text-anchor="start" x="869" y="-107.5" font-family="Helvetica,sans-Serif" font-size="10.00">/Radium&#45;Engine/src/Core/Asset</text>
<text text-anchor="middle" x="944.5" y="-96.5" font-family="Helvetica,sans-Serif" font-size="10.00">/FileData.hpp</text>
</a>
</g>
</g>
<!-- Node4&#45;&gt;Node5 -->
<g id="edge5" class="edge">
<title>Node4&#45;&gt;Node5</title>
<path fill="none" stroke="midnightblue" d="M685.08,-177.88C749.73,-161.47 812.32,-146.7 860.89,-135.49"/>
<polygon fill="midnightblue" stroke="midnightblue" points="683.94,-174.56 675.11,-180.42 685.67,-181.35 683.94,-174.56"/>
</g>
<!-- Node6 -->
<g id="node6" class="node">
<title>Node6</title>
<g id="a_node6"><a xlink:href="FileData_8cpp.html" target="_top" xlink:title=" ">
<polygon fill="white" stroke="black" points="273,-0.5 273,-52.5 440,-52.5 440,-0.5 273,-0.5"/>
<text text-anchor="start" x="281" y="-40.5" font-family="Helvetica,sans-Serif" font-size="10.00">/home/runner/work/Radium</text>
<text text-anchor="start" x="281" y="-29.5" font-family="Helvetica,sans-Serif" font-size="10.00">&#45;Engine/Radium&#45;Engine/src</text>
<text text-anchor="start" x="281" y="-18.5" font-family="Helvetica,sans-Serif" font-size="10.00">/Radium&#45;Engine/src/Core/Asset</text>
<text text-anchor="middle" x="356.5" y="-7.5" font-family="Helvetica,sans-Serif" font-size="10.00">/FileData.cpp</text>
</a>
</g>
</g>
<!-- Node5&#45;&gt;Node6 -->
<g id="edge6" class="edge">
<title>Node5&#45;&gt;Node6</title>
<path fill="none" stroke="midnightblue" d="M850.63,-106.89C750.59,-97.85 587.88,-80.42 449.5,-53 446.38,-52.38 443.21,-51.71 440.02,-51.01"/>
<polygon fill="midnightblue" stroke="midnightblue" points="850.44,-110.39 860.71,-107.8 851.06,-103.42 850.44,-110.39"/>
</g>
<!-- Node5&#45;&gt;Node7 -->
<g id="edge7" class="edge">
<title>Node5&#45;&gt;Node7</title>
<path fill="none" stroke="midnightblue" d="M850.96,-108.83C719.57,-100.23 473.07,-81.78 264.5,-53 261.38,-52.57 258.23,-52.12 255.05,-51.65"/>
<polygon fill="midnightblue" stroke="midnightblue" points="850.79,-112.32 860.99,-109.48 851.24,-105.34 850.79,-112.32"/>
</g>
<!-- Node8 -->
<g id="node8" class="node">
<title>Node8</title>
<g id="a_node8"><a xlink:href="LightManager_8cpp.html" target="_top" xlink:title=" ">
<polygon fill="white" stroke="black" points="458,-0.5 458,-52.5 685,-52.5 685,-0.5 458,-0.5"/>
<text text-anchor="start" x="466" y="-40.5" font-family="Helvetica,sans-Serif" font-size="10.00">/home/runner/work/Radium</text>
<text text-anchor="start" x="466" y="-29.5" font-family="Helvetica,sans-Serif" font-size="10.00">&#45;Engine/Radium&#45;Engine/src</text>
<text text-anchor="start" x="466" y="-18.5" font-family="Helvetica,sans-Serif" font-size="10.00">/Radium&#45;Engine/src/Engine</text>
<text text-anchor="middle" x="571.5" y="-7.5" font-family="Helvetica,sans-Serif" font-size="10.00">/Managers/LightManager/LightManager.cpp</text>
</a>
</g>
</g>
<!-- Node5&#45;&gt;Node8 -->
<g id="edge8" class="edge">
<title>Node5&#45;&gt;Node8</title>
<path fill="none" stroke="midnightblue" d="M850.84,-92.65C798.51,-80.45 733.08,-65.19 678.7,-52.5"/>
<polygon fill="midnightblue" stroke="midnightblue" points="850.26,-96.11 860.79,-94.98 851.85,-89.3 850.26,-96.11"/>
</g>
<!-- Node9 -->
<g id="node9" class="node">
<title>Node9</title>
<g id="a_node9"><a xlink:href="RadiumEngine_8cpp.html" target="_top" xlink:title=" ">
<polygon fill="white" stroke="black" points="703,-0.5 703,-52.5 852,-52.5 852,-0.5 703,-0.5"/>
<text text-anchor="start" x="711" y="-40.5" font-family="Helvetica,sans-Serif" font-size="10.00">/home/runner/work/Radium</text>
<text text-anchor="start" x="711" y="-29.5" font-family="Helvetica,sans-Serif" font-size="10.00">&#45;Engine/Radium&#45;Engine/src</text>
<text text-anchor="start" x="711" y="-18.5" font-family="Helvetica,sans-Serif" font-size="10.00">/Radium&#45;Engine/src/Engine</text>
<text text-anchor="middle" x="777.5" y="-7.5" font-family="Helvetica,sans-Serif" font-size="10.00">/RadiumEngine.cpp</text>
</a>
</g>
</g>
<!-- Node5&#45;&gt;Node9 -->
<g id="edge9" class="edge">
<title>Node5&#45;&gt;Node9</title>
<path fill="none" stroke="midnightblue" d="M887.17,-84.64C867.15,-74.2 844.9,-62.61 825.69,-52.61"/>
<polygon fill="midnightblue" stroke="midnightblue" points="885.71,-87.82 896.2,-89.34 888.95,-81.61 885.71,-87.82"/>
</g>
<!-- Node10 -->
<g id="node10" class="node">
<title>Node10</title>
<g id="a_node10"><a xlink:href="Renderer_8cpp.html" target="_top" xlink:title=" ">
<polygon fill="white" stroke="black" points="870,-0.5 870,-52.5 1019,-52.5 1019,-0.5 870,-0.5"/>
<text text-anchor="start" x="878" y="-40.5" font-family="Helvetica,sans-Serif" font-size="10.00">/home/runner/work/Radium</text>
<text text-anchor="start" x="878" y="-29.5" font-family="Helvetica,sans-Serif" font-size="10.00">&#45;Engine/Radium&#45;Engine/src</text>
<text text-anchor="start" x="878" y="-18.5" font-family="Helvetica,sans-Serif" font-size="10.00">/Radium&#45;Engine/src/Engine</text>
<text text-anchor="middle" x="944.5" y="-7.5" font-family="Helvetica,sans-Serif" font-size="10.00">/Renderer/Renderer.cpp</text>
</a>
</g>
</g>
<!-- Node5&#45;&gt;Node10 -->
<g id="edge10" class="edge">
<title>Node5&#45;&gt;Node10</title>
<path fill="none" stroke="midnightblue" d="M944.5,-79.19C944.5,-70.28 944.5,-60.9 944.5,-52.61"/>
<polygon fill="midnightblue" stroke="midnightblue" points="941,-79.34 944.5,-89.34 948,-79.34 941,-79.34"/>
</g>
<!-- Node11 -->
<g id="node11" class="node">
<title>Node11</title>
<g id="a_node11"><a xlink:href="GeometrySystem_8cpp.html" target="_top" xlink:title=" ">
<polygon fill="white" stroke="black" points="1037,-0.5 1037,-52.5 1202,-52.5 1202,-0.5 1037,-0.5"/>
<text text-anchor="start" x="1045" y="-40.5" font-family="Helvetica,sans-Serif" font-size="10.00">/home/runner/work/Radium</text>
<text text-anchor="start" x="1045" y="-29.5" font-family="Helvetica,sans-Serif" font-size="10.00">&#45;Engine/Radium&#45;Engine/src</text>
<text text-anchor="start" x="1045" y="-18.5" font-family="Helvetica,sans-Serif" font-size="10.00">/Radium&#45;Engine/src/Engine</text>
<text text-anchor="middle" x="1119.5" y="-7.5" font-family="Helvetica,sans-Serif" font-size="10.00">/System/GeometrySystem.cpp</text>
</a>
</g>
</g>
<!-- Node5&#45;&gt;Node11 -->
<g id="edge11" class="edge">
<title>Node5&#45;&gt;Node11</title>
<path fill="none" stroke="midnightblue" d="M1004.29,-84.78C1025.34,-74.31 1048.78,-62.66 1069,-52.61"/>
<polygon fill="midnightblue" stroke="midnightblue" points="1002.51,-81.75 995.12,-89.34 1005.63,-88.02 1002.51,-81.75"/>
</g>
<!-- Node12 -->
<g id="node12" class="node">
<title>Node12</title>
<g id="a_node12"><a xlink:href="Viewer_8cpp.html" target="_top" xlink:title=" ">
<polygon fill="white" stroke="black" points="1220,-0.5 1220,-52.5 1375,-52.5 1375,-0.5 1220,-0.5"/>
<text text-anchor="start" x="1228" y="-40.5" font-family="Helvetica,sans-Serif" font-size="10.00">/home/runner/work/Radium</text>
<text text-anchor="start" x="1228" y="-29.5" font-family="Helvetica,sans-Serif" font-size="10.00">&#45;Engine/Radium&#45;Engine/src</text>
<text text-anchor="start" x="1228" y="-18.5" font-family="Helvetica,sans-Serif" font-size="10.00">/Radium&#45;Engine/src/GuiBase</text>
<text text-anchor="middle" x="1297.5" y="-7.5" font-family="Helvetica,sans-Serif" font-size="10.00">/Viewer/Viewer.cpp</text>
</a>
</g>
</g>
<!-- Node5&#45;&gt;Node12 -->
<g id="edge12" class="edge">
<title>Node5&#45;&gt;Node12</title>
<path fill="none" stroke="midnightblue" d="M1037.88,-94.48C1089.29,-83.08 1154.13,-68.1 1211.5,-53 1214.21,-52.29 1216.97,-51.55 1219.74,-50.79"/>
<polygon fill="midnightblue" stroke="midnightblue" points="1037.12,-91.06 1028.11,-96.64 1038.63,-97.9 1037.12,-91.06"/>
</g>
<!-- Node13 -->
<g id="node13" class="node">
<title>Node13</title>
<g id="a_node13"><a xlink:href="AssimpFileLoader_8cpp.html" target="_top" xlink:title=" ">
<polygon fill="white" stroke="black" points="1393,-0.5 1393,-52.5 1590,-52.5 1590,-0.5 1393,-0.5"/>
<text text-anchor="start" x="1401" y="-40.5" font-family="Helvetica,sans-Serif" font-size="10.00">/home/runner/work/Radium</text>
<text text-anchor="start" x="1401" y="-29.5" font-family="Helvetica,sans-Serif" font-size="10.00">&#45;Engine/Radium&#45;Engine/src</text>
<text text-anchor="start" x="1401" y="-18.5" font-family="Helvetica,sans-Serif" font-size="10.00">/Radium&#45;Engine/src/IO/AssimpLoader</text>
<text text-anchor="middle" x="1491.5" y="-7.5" font-family="Helvetica,sans-Serif" font-size="10.00">/AssimpFileLoader.cpp</text>
</a>
</g>
</g>
<!-- Node5&#45;&gt;Node13 -->
<g id="edge13" class="edge">
<title>Node5&#45;&gt;Node13</title>
<path fill="none" stroke="midnightblue" d="M1038.12,-104.03C1127.48,-93.42 1265.72,-75.4 1384.5,-53 1387.22,-52.49 1389.98,-51.95 1392.76,-51.39"/>
<polygon fill="midnightblue" stroke="midnightblue" points="1037.53,-100.58 1028.01,-105.23 1038.35,-107.53 1037.53,-100.58"/>
</g>
<!-- Node14 -->
<g id="node14" class="node">
<title>Node14</title>
<g id="a_node14"><a xlink:href="CameraLoader_8cpp.html" target="_top" xlink:title=" ">
<polygon fill="white" stroke="black" points="1608,-0.5 1608,-52.5 1807,-52.5 1807,-0.5 1608,-0.5"/>
<text text-anchor="start" x="1616" y="-40.5" font-family="Helvetica,sans-Serif" font-size="10.00">/home/runner/work/Radium</text>
<text text-anchor="start" x="1616" y="-29.5" font-family="Helvetica,sans-Serif" font-size="10.00">&#45;Engine/Radium&#45;Engine/src</text>
<text text-anchor="start" x="1616" y="-18.5" font-family="Helvetica,sans-Serif" font-size="10.00">/Radium&#45;Engine/src/IO/CameraLoader</text>
<text text-anchor="middle" x="1707.5" y="-7.5" font-family="Helvetica,sans-Serif" font-size="10.00">/CameraLoader.cpp</text>
</a>
</g>
</g>
<!-- Node5&#45;&gt;Node14 -->
<g id="edge14" class="edge">
<title>Node5&#45;&gt;Node14</title>
<path fill="none" stroke="midnightblue" d="M1038.34,-109.78C1165.98,-102.42 1401.15,-85.57 1599.5,-53 1602.26,-52.55 1605.05,-52.06 1607.86,-51.56"/>
<polygon fill="midnightblue" stroke="midnightblue" points="1037.99,-106.29 1028.21,-110.35 1038.39,-113.28 1037.99,-106.29"/>
</g>
<!-- Node15 -->
<g id="node15" class="node">
<title>Node15</title>
<g id="a_node15"><a xlink:href="TinyPlyFileLoader_8cpp.html" target="_top" xlink:title=" ">
<polygon fill="white" stroke="black" points="1825,-0.5 1825,-52.5 2022,-52.5 2022,-0.5 1825,-0.5"/>
<text text-anchor="start" x="1833" y="-40.5" font-family="Helvetica,sans-Serif" font-size="10.00">/home/runner/work/Radium</text>
<text text-anchor="start" x="1833" y="-29.5" font-family="Helvetica,sans-Serif" font-size="10.00">&#45;Engine/Radium&#45;Engine/src</text>
<text text-anchor="start" x="1833" y="-18.5" font-family="Helvetica,sans-Serif" font-size="10.00">/Radium&#45;Engine/src/IO/TinyPlyLoader</text>
<text text-anchor="middle" x="1923.5" y="-7.5" font-family="Helvetica,sans-Serif" font-size="10.00">/TinyPlyFileLoader.cpp</text>
</a>
</g>
</g>
<!-- Node5&#45;&gt;Node15 -->
<g id="edge15" class="edge">
<title>Node5&#45;&gt;Node15</title>
<path fill="none" stroke="midnightblue" d="M1038.58,-112.9C1199.05,-109.04 1535.58,-96.08 1816.5,-53 1819.24,-52.58 1822.01,-52.13 1824.8,-51.64"/>
<polygon fill="midnightblue" stroke="midnightblue" points="1038.18,-109.41 1028.27,-113.14 1038.35,-116.4 1038.18,-109.41"/>
</g>
</g>
</svg>
