<?xml version="1.0" encoding="UTF-8" standalone="no"?>
<!DOCTYPE svg PUBLIC "-//W3C//DTD SVG 1.1//EN"
 "http://www.w3.org/Graphics/SVG/1.1/DTD/svg11.dtd">
<!-- Generated by graphviz version 2.40.1 (20161225.0304)
 -->
<!-- Title: src/Core/Asset/CameraData.hpp Pages: 1 -->
<!--zoomable 319 -->
<svg id="main" version="1.1" xmlns="http://www.w3.org/2000/svg" xmlns:xlink="http://www.w3.org/1999/xlink" xml:space="preserve" onload="init(evt)">
<style type="text/css"><![CDATA[
.edge:hover path { stroke: red; }
.edge:hover polygon { stroke: red; fill: red; }
]]></style>
<script type="text/javascript"><![CDATA[
var edges = document.getElementsByTagName('g');
if (edges && edges.length) {
  for (var i=0;i<edges.length;i++) {
    if (edges[i].id.substr(0,4)=='edge') {
      edges[i].setAttribute('class','edge');
    }
  }
}
]]></script>
        <defs>
                <circle id="rim" cx="0" cy="0" r="7"/>
                <circle id="rim2" cx="0" cy="0" r="3.5"/>
                <g id="zoomPlus">
                        <use xlink:href="#rim" fill="#404040">
                                <set attributeName="fill" to="#808080" begin="zoomplus.mouseover" end="zoomplus.mouseout"/>
                        </use>
                        <path d="M-4,0h8M0,-4v8" fill="none" stroke="white" stroke-width="1.5" pointer-events="none"/>
                </g>
                <g id="zoomMin">
                        <use xlink:href="#rim" fill="#404040">
                                <set attributeName="fill" to="#808080" begin="zoomminus.mouseover" end="zoomminus.mouseout"/>
                        </use>
                        <path d="M-4,0h8" fill="none" stroke="white" stroke-width="1.5" pointer-events="none"/>
                </g>
                <g id="dirArrow">
                        <path fill="none" stroke="white" stroke-width="1.5" d="M0,-3.0v7 M-2.5,-0.5L0,-3.0L2.5,-0.5"/>
                </g>
               <g id="resetDef">
                       <use xlink:href="#rim2" fill="#404040">
                               <set attributeName="fill" to="#808080" begin="reset.mouseover" end="reset.mouseout"/>
                       </use>
               </g>
        </defs>

<script type="text/javascript">
var viewWidth = 1030;
var viewHeight = 319;
var sectionId = 'dynsection-0';
</script>
<script xlink:href="svgpan.js"/>
<svg id="graph" class="graph">
<g id="viewport">
<title>src/Core/Asset/CameraData.hpp</title>
<polygon fill="#ffffff" stroke="transparent" points="-4,4 -4,-315 1026,-315 1026,4 -4,4"/>
<!-- Node0 -->
<g id="node1" class="node">
<title>Node0</title>
<polygon fill="#bfbfbf" stroke="#000000" points="245,-291.5 245,-310.5 417,-310.5 417,-291.5 245,-291.5"/>
<text text-anchor="middle" x="331" y="-298.5" font-family="Helvetica,sans-Serif" font-size="10.00" fill="#000000">src/Core/Asset/CameraData.hpp</text>
</g>
<!-- Node1 -->
<g id="node2" class="node">
<title>Node1</title>
<polygon fill="#ffffff" stroke="#bfbfbf" points="0,-235.5 0,-254.5 58,-254.5 58,-235.5 0,-235.5"/>
<text text-anchor="middle" x="29" y="-242.5" font-family="Helvetica,sans-Serif" font-size="10.00" fill="#000000">memory</text>
</g>
<!-- Node0&#45;&gt;Node1 -->
<g id="edge1" class="edge">
<title>Node0&#45;&gt;Node1</title>
<path fill="none" stroke="#191970" d="M266.4165,-291.4928C214.871,-283.5153 140.6412,-271.1603 67.8201,-255.2757"/>
<polygon fill="#191970" stroke="#191970" points="68.5413,-251.8507 58.0222,-253.1149 67.0337,-258.6865 68.5413,-251.8507"/>
</g>
<!-- Node2 -->
<g id="node3" class="node">
<title>Node2</title>
<polygon fill="#ffffff" stroke="#bfbfbf" points="240,-112.5 240,-131.5 284,-131.5 284,-112.5 240,-112.5"/>
<text text-anchor="middle" x="262" y="-119.5" font-family="Helvetica,sans-Serif" font-size="10.00" fill="#000000">string</text>
</g>
<!-- Node0&#45;&gt;Node2 -->
<g id="edge2" class="edge">
<title>Node0&#45;&gt;Node2</title>
<path fill="none" stroke="#191970" d="M319.5537,-291.4663C300.7269,-274.949 263.9252,-238.9273 250,-199 243.4116,-180.1093 248.4386,-157.3504 253.8603,-141.4952"/>
<polygon fill="#191970" stroke="#191970" points="257.2804,-142.3456 257.539,-131.754 250.7318,-139.8726 257.2804,-142.3456"/>
</g>
<!-- Node3 -->
<g id="node4" class="node">
<title>Node3</title>
<polygon fill="#ffffff" stroke="#bfbfbf" points="681.5,-112.5 681.5,-131.5 728.5,-131.5 728.5,-112.5 681.5,-112.5"/>
<text text-anchor="middle" x="705" y="-119.5" font-family="Helvetica,sans-Serif" font-size="10.00" fill="#000000">vector</text>
</g>
<!-- Node0&#45;&gt;Node3 -->
<g id="edge3" class="edge">
<title>Node0&#45;&gt;Node3</title>
<path fill="none" stroke="#191970" d="M417.1761,-294.6712C495.3608,-287.7805 604.0278,-274.9928 642,-255 672.0533,-239.1766 679.3755,-229.6546 694,-199 702.6091,-180.9544 704.9393,-158.0255 705.3739,-141.8984"/>
<polygon fill="#191970" stroke="#191970" points="708.8753,-141.5395 705.4179,-131.5247 701.8754,-141.5097 708.8753,-141.5395"/>
</g>
<!-- Node4 -->
<g id="node5" class="node">
<title>Node4</title>
<g id="a_node5"><a xlink:href="AssetData_8hpp.html" target="_top" xlink:title="Core/Asset/AssetData.hpp">
<polygon fill="#ffffff" stroke="#000000" points="259.5,-174 259.5,-193 402.5,-193 402.5,-174 259.5,-174"/>
<text text-anchor="middle" x="331" y="-181" font-family="Helvetica,sans-Serif" font-size="10.00" fill="#000000">Core/Asset/AssetData.hpp</text>
</a>
</g>
</g>
<!-- Node0&#45;&gt;Node4 -->
<g id="edge4" class="edge">
<title>Node0&#45;&gt;Node4</title>
<path fill="none" stroke="#191970" d="M331,-291.3845C331,-272.1913 331,-228.786 331,-203.2663"/>
<polygon fill="#191970" stroke="#191970" points="334.5001,-203.2483 331,-193.2484 327.5001,-203.2484 334.5001,-203.2483"/>
</g>
<!-- Node5 -->
<g id="node6" class="node">
<title>Node5</title>
<g id="a_node6"><a xlink:href="RaCore_8hpp.html" target="_top" xlink:title="Core/RaCore.hpp">
<polygon fill="#ffffff" stroke="#000000" points="382,-112.5 382,-131.5 480,-131.5 480,-112.5 382,-112.5"/>
<text text-anchor="middle" x="431" y="-119.5" font-family="Helvetica,sans-Serif" font-size="10.00" fill="#000000">Core/RaCore.hpp</text>
</a>
</g>
</g>
<!-- Node0&#45;&gt;Node5 -->
<g id="edge19" class="edge">
<title>Node0&#45;&gt;Node5</title>
<path fill="none" stroke="#191970" d="M340.9622,-291.2593C357.8846,-274.1538 392.2313,-236.9191 411,-199 420.0223,-180.772 425.2826,-158.0363 428.1235,-142.0101"/>
<polygon fill="#191970" stroke="#191970" points="431.6514,-142.1158 429.7838,-131.6869 424.7402,-141.0042 431.6514,-142.1158"/>
</g>
<!-- Node12 -->
<g id="node13" class="node">
<title>Node12</title>
<g id="a_node13"><a xlink:href="VectorArray_8hpp.html" target="_top" xlink:title="Core/Containers/VectorArray.hpp">
<polygon fill="#ffffff" stroke="#000000" points="459,-235.5 459,-254.5 633,-254.5 633,-235.5 459,-235.5"/>
<text text-anchor="middle" x="546" y="-242.5" font-family="Helvetica,sans-Serif" font-size="10.00" fill="#000000">Core/Containers/VectorArray.hpp</text>
</a>
</g>
</g>
<!-- Node0&#45;&gt;Node12 -->
<g id="edge13" class="edge">
<title>Node0&#45;&gt;Node12</title>
<path fill="none" stroke="#191970" d="M367.9598,-291.3733C404.4075,-281.8799 460.2246,-267.3415 499.6289,-257.0781"/>
<polygon fill="#191970" stroke="#191970" points="500.7276,-260.4087 509.5225,-254.5011 498.9631,-253.6348 500.7276,-260.4087"/>
</g>
<!-- Node15 -->
<g id="node16" class="node">
<title>Node15</title>
<g id="a_node16"><a xlink:href="Types_8hpp.html" target="_top" xlink:title="Core/Types.hpp">
<polygon fill="#ffffff" stroke="#000000" points="741.5,-235.5 741.5,-254.5 832.5,-254.5 832.5,-235.5 741.5,-235.5"/>
<text text-anchor="middle" x="787" y="-242.5" font-family="Helvetica,sans-Serif" font-size="10.00" fill="#000000">Core/Types.hpp</text>
</a>
</g>
</g>
<!-- Node0&#45;&gt;Node15 -->
<g id="edge20" class="edge">
<title>Node0&#45;&gt;Node15</title>
<path fill="none" stroke="#191970" d="M417.2897,-292.2205C497.6164,-283.7529 620.6052,-270.0363 727,-255 728.4704,-254.7922 729.9604,-254.577 731.4632,-254.356"/>
<polygon fill="#191970" stroke="#191970" points="732.1412,-257.7931 741.4997,-252.8264 731.0865,-250.8731 732.1412,-257.7931"/>
</g>
<!-- Node19 -->
<g id="node20" class="node">
<title>Node19</title>
<g id="a_node20"><a xlink:href="CameraData_8inl.html" target="_top" xlink:title="Core/Asset/CameraData.inl">
<polygon fill="#ffffff" stroke="#000000" points="75.5,-235.5 75.5,-254.5 224.5,-254.5 224.5,-235.5 75.5,-235.5"/>
<text text-anchor="middle" x="150" y="-242.5" font-family="Helvetica,sans-Serif" font-size="10.00" fill="#000000">Core/Asset/CameraData.inl</text>
</a>
</g>
</g>
<!-- Node0&#45;&gt;Node19 -->
<g id="edge25" class="edge">
<title>Node0&#45;&gt;Node19</title>
<path fill="none" stroke="#191970" d="M294.643,-291.3733C262.7237,-282.0613 216.7659,-267.8953 185.199,-257.671"/>
<polygon fill="#191970" stroke="#191970" points="186.0842,-254.2783 175.4917,-254.5011 183.9112,-260.9325 186.0842,-254.2783"/>
</g>
<!-- Node4&#45;&gt;Node2 -->
<g id="edge12" class="edge">
<title>Node4&#45;&gt;Node2</title>
<path fill="none" stroke="#191970" d="M320.2188,-173.8906C309.6474,-164.4683 293.3175,-149.9134 280.6397,-138.6137"/>
<polygon fill="#191970" stroke="#191970" points="282.7272,-135.7858 272.9333,-131.7449 278.0696,-141.0114 282.7272,-135.7858"/>
</g>
<!-- Node4&#45;&gt;Node5 -->
<g id="edge5" class="edge">
<title>Node4&#45;&gt;Node5</title>
<path fill="none" stroke="#191970" d="M346.625,-173.8906C362.7698,-163.9616 388.1822,-148.333 406.9023,-136.8201"/>
<polygon fill="#191970" stroke="#191970" points="408.8002,-139.7619 415.4847,-131.5419 405.1331,-133.7992 408.8002,-139.7619"/>
</g>
<!-- Node6 -->
<g id="node7" class="node">
<title>Node6</title>
<g id="a_node7"><a xlink:href="CoreMacros_8hpp.html" target="_top" xlink:title="Core/CoreMacros.hpp">
<polygon fill="#ffffff" stroke="#000000" points="353,-56.5 353,-75.5 473,-75.5 473,-56.5 353,-56.5"/>
<text text-anchor="middle" x="413" y="-63.5" font-family="Helvetica,sans-Serif" font-size="10.00" fill="#000000">Core/CoreMacros.hpp</text>
</a>
</g>
</g>
<!-- Node5&#45;&gt;Node6 -->
<g id="edge6" class="edge">
<title>Node5&#45;&gt;Node6</title>
<path fill="none" stroke="#191970" d="M427.8646,-112.2455C425.49,-104.8579 422.1507,-94.4689 419.2385,-85.4087"/>
<polygon fill="#191970" stroke="#191970" points="422.4917,-84.0919 416.0994,-75.6427 415.8275,-86.234 422.4917,-84.0919"/>
</g>
<!-- Node7 -->
<g id="node8" class="node">
<title>Node7</title>
<polygon fill="#ffffff" stroke="#bfbfbf" points="369,-.5 369,-19.5 421,-19.5 421,-.5 369,-.5"/>
<text text-anchor="middle" x="395" y="-7.5" font-family="Helvetica,sans-Serif" font-size="10.00" fill="#000000">cassert</text>
</g>
<!-- Node6&#45;&gt;Node7 -->
<g id="edge7" class="edge">
<title>Node6&#45;&gt;Node7</title>
<path fill="none" stroke="#191970" d="M409.8646,-56.2455C407.49,-48.8579 404.1507,-38.4689 401.2385,-29.4087"/>
<polygon fill="#191970" stroke="#191970" points="404.4917,-28.0919 398.0994,-19.6427 397.8275,-30.234 404.4917,-28.0919"/>
</g>
<!-- Node8 -->
<g id="node9" class="node">
<title>Node8</title>
<polygon fill="#ffffff" stroke="#bfbfbf" points="439,-.5 439,-19.5 485,-19.5 485,-.5 439,-.5"/>
<text text-anchor="middle" x="462" y="-7.5" font-family="Helvetica,sans-Serif" font-size="10.00" fill="#000000">cstdio</text>
</g>
<!-- Node6&#45;&gt;Node8 -->
<g id="edge8" class="edge">
<title>Node6&#45;&gt;Node8</title>
<path fill="none" stroke="#191970" d="M421.5351,-56.2455C428.4912,-48.2958 438.4883,-36.8706 446.8051,-27.3656"/>
<polygon fill="#191970" stroke="#191970" points="449.6116,-29.4732 453.5627,-19.6427 444.3436,-24.8637 449.6116,-29.4732"/>
</g>
<!-- Node9 -->
<g id="node10" class="node">
<title>Node9</title>
<polygon fill="#ffffff" stroke="#bfbfbf" points="503,-.5 503,-19.5 563,-19.5 563,-.5 503,-.5"/>
<text text-anchor="middle" x="533" y="-7.5" font-family="Helvetica,sans-Serif" font-size="10.00" fill="#000000">iostream</text>
</g>
<!-- Node6&#45;&gt;Node9 -->
<g id="edge9" class="edge">
<title>Node6&#45;&gt;Node9</title>
<path fill="none" stroke="#191970" d="M433.6287,-56.3733C452.8919,-47.3838 481.8486,-33.8706 503.5419,-23.7471"/>
<polygon fill="#191970" stroke="#191970" points="505.0587,-26.9017 512.6405,-19.5011 502.0985,-20.5584 505.0587,-26.9017"/>
</g>
<!-- Node10 -->
<g id="node11" class="node">
<title>Node10</title>
<polygon fill="#ffffff" stroke="#bfbfbf" points="193,-.5 193,-19.5 249,-19.5 249,-.5 193,-.5"/>
<text text-anchor="middle" x="221" y="-7.5" font-family="Helvetica,sans-Serif" font-size="10.00" fill="#000000">sstream</text>
</g>
<!-- Node6&#45;&gt;Node10 -->
<g id="edge10" class="edge">
<title>Node6&#45;&gt;Node10</title>
<path fill="none" stroke="#191970" d="M379.994,-56.3733C346.4247,-46.5822 294.4563,-31.4247 259.1443,-21.1254"/>
<polygon fill="#191970" stroke="#191970" points="259.7878,-17.6673 249.2078,-18.2273 257.8277,-24.3873 259.7878,-17.6673"/>
</g>
<!-- Node11 -->
<g id="node12" class="node">
<title>Node11</title>
<polygon fill="#ffffff" stroke="#bfbfbf" points="303,-.5 303,-19.5 351,-19.5 351,-.5 303,-.5"/>
<text text-anchor="middle" x="327" y="-7.5" font-family="Helvetica,sans-Serif" font-size="10.00" fill="#000000">thread</text>
</g>
<!-- Node6&#45;&gt;Node11 -->
<g id="edge11" class="edge">
<title>Node6&#45;&gt;Node11</title>
<path fill="none" stroke="#191970" d="M398.0199,-56.2455C384.8249,-47.6534 365.3949,-35.0014 350.1921,-25.1018"/>
<polygon fill="#191970" stroke="#191970" points="352.0983,-22.1665 341.8084,-19.6427 348.2785,-28.0325 352.0983,-22.1665"/>
</g>
<!-- Node12&#45;&gt;Node5 -->
<g id="edge18" class="edge">
<title>Node12&#45;&gt;Node5</title>
<path fill="none" stroke="#191970" d="M533.6642,-235.3457C522.5551,-226.4121 506.0203,-212.51 493,-199 474.7805,-180.0953 456.1965,-156.2887 444.1895,-140.1892"/>
<polygon fill="#191970" stroke="#191970" points="446.6816,-137.6711 437.9324,-131.696 441.0459,-141.823 446.6816,-137.6711"/>
</g>
<!-- Node13 -->
<g id="node14" class="node">
<title>Node13</title>
<g id="a_node14"><a xlink:href="AlignedStdVector_8hpp.html" target="_top" xlink:title="Core/Containers/AlignedStd\lVector.hpp">
<polygon fill="#ffffff" stroke="#000000" points="535,-168.5 535,-198.5 685,-198.5 685,-168.5 535,-168.5"/>
<text text-anchor="start" x="543" y="-186.5" font-family="Helvetica,sans-Serif" font-size="10.00" fill="#000000">Core/Containers/AlignedStd</text>
<text text-anchor="middle" x="610" y="-175.5" font-family="Helvetica,sans-Serif" font-size="10.00" fill="#000000">Vector.hpp</text>
</a>
</g>
</g>
<!-- Node12&#45;&gt;Node13 -->
<g id="edge14" class="edge">
<title>Node12&#45;&gt;Node13</title>
<path fill="none" stroke="#191970" d="M556,-235.3906C564.2606,-227.4527 576.3122,-215.8718 586.9355,-205.6635"/>
<polygon fill="#191970" stroke="#191970" points="589.5584,-207.9971 594.3438,-198.5446 584.7082,-202.9498 589.5584,-207.9971"/>
</g>
<!-- Node13&#45;&gt;Node3 -->
<g id="edge17" class="edge">
<title>Node13&#45;&gt;Node3</title>
<path fill="none" stroke="#191970" d="M633.4832,-168.2977C648.1348,-158.8127 666.9236,-146.6495 681.5659,-137.1705"/>
<polygon fill="#191970" stroke="#191970" points="683.5805,-140.0357 690.073,-131.6633 679.7764,-134.1596 683.5805,-140.0357"/>
</g>
<!-- Node13&#45;&gt;Node5 -->
<g id="edge15" class="edge">
<title>Node13&#45;&gt;Node5</title>
<path fill="none" stroke="#191970" d="M566.2117,-168.4554C536.2141,-158.149 496.8513,-144.6249 468.3384,-134.8286"/>
<polygon fill="#191970" stroke="#191970" points="469.3333,-131.4696 458.7386,-131.5303 467.0587,-138.0898 469.3333,-131.4696"/>
</g>
<!-- Node14 -->
<g id="node15" class="node">
<title>Node14</title>
<polygon fill="#ffffff" stroke="#bfbfbf" points="563.5,-112.5 563.5,-131.5 656.5,-131.5 656.5,-112.5 563.5,-112.5"/>
<text text-anchor="middle" x="610" y="-119.5" font-family="Helvetica,sans-Serif" font-size="10.00" fill="#000000">Eigen/StdVector</text>
</g>
<!-- Node13&#45;&gt;Node14 -->
<g id="edge16" class="edge">
<title>Node13&#45;&gt;Node14</title>
<path fill="none" stroke="#191970" d="M610,-168.2977C610,-160.3834 610,-150.6043 610,-142.0759"/>
<polygon fill="#191970" stroke="#191970" points="613.5001,-141.8469 610,-131.8469 606.5001,-141.847 613.5001,-141.8469"/>
</g>
<!-- Node15&#45;&gt;Node5 -->
<g id="edge21" class="edge">
<title>Node15&#45;&gt;Node5</title>
<path fill="none" stroke="#191970" d="M741.4384,-240.1475C677.0185,-232.7518 563.0258,-217.5434 526,-199 508.0073,-189.9888 508.4396,-180.9057 493,-168 480.2564,-157.3479 465.3224,-146.2296 453.3046,-137.5926"/>
<polygon fill="#191970" stroke="#191970" points="455.3192,-134.7305 445.1423,-131.7841 451.2606,-140.4338 455.3192,-134.7305"/>
</g>
<!-- Node16 -->
<g id="node17" class="node">
<title>Node16</title>
<polygon fill="#ffffff" stroke="#bfbfbf" points="741.5,-174 741.5,-193 810.5,-193 810.5,-174 741.5,-174"/>
<text text-anchor="middle" x="776" y="-181" font-family="Helvetica,sans-Serif" font-size="10.00" fill="#000000">Eigen/Core</text>
</g>
<!-- Node15&#45;&gt;Node16 -->
<g id="edge22" class="edge">
<title>Node15&#45;&gt;Node16</title>
<path fill="none" stroke="#191970" d="M785.2813,-235.3906C783.7565,-226.8657 781.4802,-214.1392 779.5636,-203.4235"/>
<polygon fill="#191970" stroke="#191970" points="782.9491,-202.4724 777.743,-193.2449 776.0584,-203.7049 782.9491,-202.4724"/>
</g>
<!-- Node17 -->
<g id="node18" class="node">
<title>Node17</title>
<polygon fill="#ffffff" stroke="#bfbfbf" points="828.5,-174 828.5,-193 923.5,-193 923.5,-174 828.5,-174"/>
<text text-anchor="middle" x="876" y="-181" font-family="Helvetica,sans-Serif" font-size="10.00" fill="#000000">Eigen/Geometry</text>
</g>
<!-- Node15&#45;&gt;Node17 -->
<g id="edge23" class="edge">
<title>Node15&#45;&gt;Node17</title>
<path fill="none" stroke="#191970" d="M800.9063,-235.3906C815.0138,-225.6421 837.0724,-210.3994 853.6385,-198.9521"/>
<polygon fill="#191970" stroke="#191970" points="855.9542,-201.6063 862.1914,-193.0419 851.9747,-195.8474 855.9542,-201.6063"/>
</g>
<!-- Node18 -->
<g id="node19" class="node">
<title>Node18</title>
<polygon fill="#ffffff" stroke="#bfbfbf" points="942,-174 942,-193 1022,-193 1022,-174 942,-174"/>
<text text-anchor="middle" x="982" y="-181" font-family="Helvetica,sans-Serif" font-size="10.00" fill="#000000">Eigen/Sparse</text>
</g>
<!-- Node15&#45;&gt;Node18 -->
<g id="edge24" class="edge">
<title>Node15&#45;&gt;Node18</title>
<path fill="none" stroke="#191970" d="M817.2022,-235.4953C846.7289,-226.2006 892.9586,-211.641 933,-199 935.9673,-198.0632 939.0356,-197.094 942.1221,-196.1186"/>
<polygon fill="#191970" stroke="#191970" points="943.4622,-199.3658 951.942,-193.0141 941.352,-192.6914 943.4622,-199.3658"/>
</g>
<!-- Node19&#45;&gt;Node0 -->
<g id="edge26" class="edge">
<title>Node19&#45;&gt;Node0</title>
<path fill="none" stroke="#191970" d="M185.9263,-254.5011C217.7184,-263.7691 263.6773,-277.9309 295.3733,-288.1905"/>
<polygon fill="#191970" stroke="#191970" points="294.5346,-291.5984 305.127,-291.3733 296.7061,-284.9437 294.5346,-291.5984"/>
</g>
<!-- Node20 -->
<g id="node21" class="node">
<title>Node20</title>
<g id="a_node21"><a xlink:href="Log_8hpp.html" target="_top" xlink:title="Core/Utils/Log.hpp">
<polygon fill="#ffffff" stroke="#000000" points="97,-174 97,-193 203,-193 203,-174 97,-174"/>
<text text-anchor="middle" x="150" y="-181" font-family="Helvetica,sans-Serif" font-size="10.00" fill="#000000">Core/Utils/Log.hpp</text>
</a>
</g>
</g>
<!-- Node19&#45;&gt;Node20 -->
<g id="edge27" class="edge">
<title>Node19&#45;&gt;Node20</title>
<path fill="none" stroke="#191970" d="M150,-235.3906C150,-226.8657 150,-214.1392 150,-203.4235"/>
<polygon fill="#191970" stroke="#191970" points="153.5001,-203.2448 150,-193.2449 146.5001,-203.2449 153.5001,-203.2448"/>
</g>
<!-- Node20&#45;&gt;Node2 -->
<g id="edge32" class="edge">
<title>Node20&#45;&gt;Node2</title>
<path fill="none" stroke="#191970" d="M167.5,-173.8906C185.7465,-163.8713 214.5624,-148.0483 235.5806,-136.5071"/>
<polygon fill="#191970" stroke="#191970" points="237.542,-139.423 244.6229,-131.5419 234.1728,-133.2872 237.542,-139.423"/>
</g>
<!-- Node20&#45;&gt;Node5 -->
<g id="edge28" class="edge">
<title>Node20&#45;&gt;Node5</title>
<path fill="none" stroke="#191970" d="M193.5979,-173.9581C243.1271,-163.1181 323.9807,-145.4224 377.3411,-133.7439"/>
<polygon fill="#191970" stroke="#191970" points="378.2793,-137.1214 387.2998,-131.5643 376.7827,-130.2833 378.2793,-137.1214"/>
</g>
<!-- Node20&#45;&gt;Node10 -->
<g id="edge30" class="edge">
<title>Node20&#45;&gt;Node10</title>
<path fill="none" stroke="#191970" d="M151.9404,-173.5783C154.8336,-159.5783 160.8266,-133.3514 169,-112 180.6639,-81.5304 198.7481,-48.2008 210.2244,-28.2049"/>
<polygon fill="#191970" stroke="#191970" points="213.2673,-29.9346 215.2703,-19.5308 207.2166,-26.4147 213.2673,-29.9346"/>
</g>
<!-- Node21 -->
<g id="node22" class="node">
<title>Node21</title>
<polygon fill="#ffffff" stroke="#bfbfbf" points="178,-112.5 178,-131.5 222,-131.5 222,-112.5 178,-112.5"/>
<text text-anchor="middle" x="200" y="-119.5" font-family="Helvetica,sans-Serif" font-size="10.00" fill="#000000">ctime</text>
</g>
<!-- Node20&#45;&gt;Node21 -->
<g id="edge29" class="edge">
<title>Node20&#45;&gt;Node21</title>
<path fill="none" stroke="#191970" d="M157.8125,-173.8906C165.254,-164.7376 176.6334,-150.7409 185.6992,-139.59"/>
<polygon fill="#191970" stroke="#191970" points="188.4847,-141.712 192.0774,-131.7449 183.0533,-137.2962 188.4847,-141.712"/>
</g>
<!-- Node22 -->
<g id="node23" class="node">
<title>Node22</title>
<polygon fill="#ffffff" stroke="#bfbfbf" points="72,-112.5 72,-131.5 122,-131.5 122,-112.5 72,-112.5"/>
<text text-anchor="middle" x="97" y="-119.5" font-family="Helvetica,sans-Serif" font-size="10.00" fill="#000000">stdio.h</text>
</g>
<!-- Node20&#45;&gt;Node22 -->
<g id="edge31" class="edge">
<title>Node20&#45;&gt;Node22</title>
<path fill="none" stroke="#191970" d="M141.7188,-173.8906C133.8307,-164.7376 121.7686,-150.7409 112.1588,-139.59"/>
<polygon fill="#191970" stroke="#191970" points="114.5775,-137.0352 105.398,-131.7449 109.2749,-141.6049 114.5775,-137.0352"/>
</g>
</g>
</svg>
        <g id="navigator" transform="translate(0 0)" fill="#404254">
                <rect fill="#f2f5e9" fill-opacity="0.5" stroke="#606060" stroke-width=".5" x="0" y="0" width="60" height="60"/>
                <use id="zoomplus" xlink:href="#zoomPlus" x="17" y="9" onmousedown="handleZoom(evt,'in')"/>
                <use id="zoomminus" xlink:href="#zoomMin" x="42" y="9" onmousedown="handleZoom(evt,'out')"/>
                <use id="reset" xlink:href="#resetDef" x="30" y="36" onmousedown="handleReset()"/>
                <g id="arrowUp" xlink:href="#dirArrow" transform="translate(30 24)" onmousedown="handlePan(0,-1)">
                  <use xlink:href="#rim" fill="#404040">
                        <set attributeName="fill" to="#808080" begin="arrowUp.mouseover" end="arrowUp.mouseout"/>
                  </use>
                  <path fill="none" stroke="white" stroke-width="1.5" d="M0,-3.0v7 M-2.5,-0.5L0,-3.0L2.5,-0.5"/>
                </g>
                <g id="arrowRight" xlink:href="#dirArrow" transform="rotate(90) translate(36 -43)" onmousedown="handlePan(1,0)">
                  <use xlink:href="#rim" fill="#404040">
                        <set attributeName="fill" to="#808080" begin="arrowRight.mouseover" end="arrowRight.mouseout"/>
                  </use>
                  <path fill="none" stroke="white" stroke-width="1.5" d="M0,-3.0v7 M-2.5,-0.5L0,-3.0L2.5,-0.5"/>
                </g>
                <g id="arrowDown" xlink:href="#dirArrow" transform="rotate(180) translate(-30 -48)" onmousedown="handlePan(0,1)">
                  <use xlink:href="#rim" fill="#404040">
                        <set attributeName="fill" to="#808080" begin="arrowDown.mouseover" end="arrowDown.mouseout"/>
                  </use>
                  <path fill="none" stroke="white" stroke-width="1.5" d="M0,-3.0v7 M-2.5,-0.5L0,-3.0L2.5,-0.5"/>
                </g>
                <g id="arrowLeft" xlink:href="#dirArrow" transform="rotate(270) translate(-36 17)" onmousedown="handlePan(-1,0)">
                  <use xlink:href="#rim" fill="#404040">
                        <set attributeName="fill" to="#808080" begin="arrowLeft.mouseover" end="arrowLeft.mouseout"/>
                  </use>
                  <path fill="none" stroke="white" stroke-width="1.5" d="M0,-3.0v7 M-2.5,-0.5L0,-3.0L2.5,-0.5"/>
                </g>
        </g>
        <svg viewBox="0 0 15 15" width="100%" height="30px" preserveAspectRatio="xMaxYMin meet">
         <g id="arrow_out" transform="scale(0.3 0.3)">
          <a xlink:href="CameraData_8hpp__incl_org.svg" target="_base">
           <rect id="button" ry="5" rx="5" y="6" x="6" height="38" width="38"
                fill="#f2f5e9" fill-opacity="0.5" stroke="#606060" stroke-width="1.0"/>
           <path id="arrow"
             d="M 11.500037,31.436501 C 11.940474,20.09759 22.043105,11.32322 32.158766,21.979434 L 37.068811,17.246167 C 37.068811,17.246167 37.088388,32 37.088388,32 L 22.160133,31.978069 C 22.160133,31.978069 26.997745,27.140456 26.997745,27.140456 C 18.528582,18.264221 13.291696,25.230495 11.500037,31.436501 z"
             style="fill:#404040;"/>
          </a>
         </g>
        </svg>
</svg>
