<?xml version="1.0" encoding="UTF-8" standalone="no"?>
<!DOCTYPE svg PUBLIC "-//W3C//DTD SVG 1.1//EN"
 "http://www.w3.org/Graphics/SVG/1.1/DTD/svg11.dtd">
<!-- Generated by graphviz version 2.43.0 (0)
 -->
<!-- Title: Ra::Engine::Scene::SkinningComponent::showWeights Pages: 1 -->
<!--zoomable 249 -->
<svg id="main" version="1.1" xmlns="http://www.w3.org/2000/svg" xmlns:xlink="http://www.w3.org/1999/xlink" xml:space="preserve" onload="init(evt)">
<style type="text/css"><![CDATA[
.edge:hover path { stroke: red; }
.edge:hover polygon { stroke: red; fill: red; }
]]></style>
<script type="text/javascript"><![CDATA[
var edges = document.getElementsByTagName('g');
if (edges && edges.length) {
  for (var i=0;i<edges.length;i++) {
    if (edges[i].id.substr(0,4)=='edge') {
      edges[i].setAttribute('class','edge');
    }
  }
}
]]></script>
        <defs>
                <circle id="rim" cx="0" cy="0" r="7"/>
                <circle id="rim2" cx="0" cy="0" r="3.5"/>
                <g id="zoomPlus">
                        <use xlink:href="#rim" fill="#404040">
                                <set attributeName="fill" to="#808080" begin="zoomplus.mouseover" end="zoomplus.mouseout"/>
                        </use>
                        <path d="M-4,0h8M0,-4v8" fill="none" stroke="white" stroke-width="1.5" pointer-events="none"/>
                </g>
                <g id="zoomMin">
                        <use xlink:href="#rim" fill="#404040">
                                <set attributeName="fill" to="#808080" begin="zoomminus.mouseover" end="zoomminus.mouseout"/>
                        </use>
                        <path d="M-4,0h8" fill="none" stroke="white" stroke-width="1.5" pointer-events="none"/>
                </g>
                <g id="dirArrow">
                        <path fill="none" stroke="white" stroke-width="1.5" d="M0,-3.0v7 M-2.5,-0.5L0,-3.0L2.5,-0.5"/>
                </g>
               <g id="resetDef">
                       <use xlink:href="#rim2" fill="#404040">
                               <set attributeName="fill" to="#808080" begin="reset.mouseover" end="reset.mouseout"/>
                       </use>
               </g>
        </defs>

<script type="text/javascript">
var viewWidth = 1095;
var viewHeight = 249;
var sectionId = 'dynsection-6';
</script>
<script xlink:href="svgpan.js"/>
<svg id="graph" class="graph">
<g id="viewport">
<title>Ra::Engine::Scene::SkinningComponent::showWeights</title>
<polygon fill="white" stroke="transparent" points="-4,4 -4,-244.5 1091,-244.5 1091,4 -4,4"/>
<!-- Node1 -->
<g id="node1" class="node">
<title>Node1</title>
<g id="a_node1"><a xlink:title="Toggles display of skinning weights.">
<polygon fill="#bfbfbf" stroke="black" points="0,-111.5 0,-141.5 185,-141.5 185,-111.5 0,-111.5"/>
<text text-anchor="start" x="8" y="-129.5" font-family="Helvetica,sans-Serif" font-size="10.00">Ra::Engine::Scene::</text>
<text text-anchor="middle" x="92.5" y="-118.5" font-family="Helvetica,sans-Serif" font-size="10.00">SkinningComponent::showWeights</text>
</a>
</g>
</g>
<!-- Node2 -->
<g id="node2" class="node">
<title>Node2</title>
<g id="a_node2"><a xlink:href="classRa_1_1Core_1_1Geometry_1_1AttribArrayGeometry.html#ae1956b0396dadd84f55a12f2160e5671" target="_top" xlink:title=" ">
<polygon fill="white" stroke="black" points="221,-136 221,-177 346,-177 346,-136 221,-136"/>
<text text-anchor="start" x="229" y="-165" font-family="Helvetica,sans-Serif" font-size="10.00">Ra::Core::Geometry</text>
<text text-anchor="start" x="229" y="-154" font-family="Helvetica,sans-Serif" font-size="10.00">::AttribArrayGeometry</text>
<text text-anchor="middle" x="283.5" y="-143" font-family="Helvetica,sans-Serif" font-size="10.00">::addAttrib</text>
</a>
</g>
</g>
<!-- Node1&#45;&gt;Node2 -->
<g id="edge1" class="edge">
<title>Node1&#45;&gt;Node2</title>
<path fill="none" stroke="midnightblue" d="M185.23,-141.06C193.79,-142.42 202.38,-143.78 210.72,-145.11"/>
<polygon fill="midnightblue" stroke="midnightblue" points="210.32,-148.59 220.75,-146.7 211.42,-141.67 210.32,-148.59"/>
</g>
<!-- Node10 -->
<g id="node10" class="node">
<title>Node10</title>
<g id="a_node10"><a xlink:href="classRa_1_1Core_1_1Geometry_1_1AttribArrayGeometry.html#aeb68d9cd8cf8c1e05886a23f0ad33c59" target="_top" xlink:title=" ">
<polygon fill="white" stroke="black" points="221,-199 221,-240 346,-240 346,-199 221,-199"/>
<text text-anchor="start" x="229" y="-228" font-family="Helvetica,sans-Serif" font-size="10.00">Ra::Core::Geometry</text>
<text text-anchor="start" x="229" y="-217" font-family="Helvetica,sans-Serif" font-size="10.00">::AttribArrayGeometry</text>
<text text-anchor="middle" x="283.5" y="-206" font-family="Helvetica,sans-Serif" font-size="10.00">::getAttrib</text>
</a>
</g>
</g>
<!-- Node1&#45;&gt;Node10 -->
<g id="edge9" class="edge">
<title>Node1&#45;&gt;Node10</title>
<path fill="none" stroke="midnightblue" d="M124.29,-141.65C153.26,-155.9 197.18,-177.52 231.4,-194.36"/>
<polygon fill="midnightblue" stroke="midnightblue" points="230.26,-197.7 240.78,-198.97 233.35,-191.41 230.26,-197.7"/>
</g>
<!-- Node12 -->
<g id="node12" class="node">
<title>Node12</title>
<g id="a_node12"><a xlink:href="classRa_1_1Core_1_1Geometry_1_1AttribArrayGeometry.html#a25adccb0a28277580c023e2cd4adb0b0" target="_top" xlink:title=" ">
<polygon fill="white" stroke="black" points="221,-9 221,-50 346,-50 346,-9 221,-9"/>
<text text-anchor="start" x="229" y="-38" font-family="Helvetica,sans-Serif" font-size="10.00">Ra::Core::Geometry</text>
<text text-anchor="start" x="229" y="-27" font-family="Helvetica,sans-Serif" font-size="10.00">::AttribArrayGeometry</text>
<text text-anchor="middle" x="283.5" y="-16" font-family="Helvetica,sans-Serif" font-size="10.00">::getAttribHandle</text>
</a>
</g>
</g>
<!-- Node1&#45;&gt;Node12 -->
<g id="edge11" class="edge">
<title>Node1&#45;&gt;Node12</title>
<path fill="none" stroke="midnightblue" d="M123.03,-111.34C152.48,-96.23 198.24,-72.74 233.21,-54.8"/>
<polygon fill="midnightblue" stroke="midnightblue" points="235,-57.81 242.3,-50.13 231.81,-51.58 235,-57.81"/>
</g>
<!-- Node14 -->
<g id="node14" class="node">
<title>Node14</title>
<g id="a_node14"><a xlink:href="classRa_1_1Core_1_1Geometry_1_1AttribArrayGeometry.html#ac46efab2f82a6946ea1d11d440fb10b5" target="_top" xlink:title=" ">
<polygon fill="white" stroke="black" points="221,-76 221,-117 346,-117 346,-76 221,-76"/>
<text text-anchor="start" x="229" y="-105" font-family="Helvetica,sans-Serif" font-size="10.00">Ra::Core::Geometry</text>
<text text-anchor="start" x="229" y="-94" font-family="Helvetica,sans-Serif" font-size="10.00">::AttribArrayGeometry</text>
<text text-anchor="middle" x="283.5" y="-83" font-family="Helvetica,sans-Serif" font-size="10.00">::removeAttrib</text>
</a>
</g>
</g>
<!-- Node1&#45;&gt;Node14 -->
<g id="edge13" class="edge">
<title>Node1&#45;&gt;Node14</title>
<path fill="none" stroke="midnightblue" d="M185.23,-111.94C193.79,-110.58 202.38,-109.22 210.72,-107.89"/>
<polygon fill="midnightblue" stroke="midnightblue" points="211.42,-111.33 220.75,-106.3 210.32,-104.41 211.42,-111.33"/>
</g>
<!-- Node3 -->
<g id="node3" class="node">
<title>Node3</title>
<g id="a_node3"><a xlink:href="classRa_1_1Core_1_1Utils_1_1AttribManager.html#ac2d3cdc360ffe1904a15ff8504de95b8" target="_top" xlink:title=" ">
<polygon fill="white" stroke="black" points="382,-159.5 382,-189.5 544,-189.5 544,-159.5 382,-159.5"/>
<text text-anchor="start" x="390" y="-177.5" font-family="Helvetica,sans-Serif" font-size="10.00">Ra::Core::Utils::AttribManager</text>
<text text-anchor="middle" x="463" y="-166.5" font-family="Helvetica,sans-Serif" font-size="10.00">::addAttrib</text>
</a>
</g>
</g>
<!-- Node2&#45;&gt;Node3 -->
<g id="edge2" class="edge">
<title>Node2&#45;&gt;Node3</title>
<path fill="none" stroke="midnightblue" d="M346.08,-162.75C354.36,-163.58 362.98,-164.46 371.63,-165.34"/>
<polygon fill="midnightblue" stroke="midnightblue" points="371.47,-168.84 381.77,-166.36 372.17,-161.87 371.47,-168.84"/>
</g>
<!-- Node9 -->
<g id="node9" class="node">
<title>Node9</title>
<g id="a_node9"><a xlink:href="structRa_1_1Core_1_1Geometry_1_1AbstractGeometry.html#a573def11b92bfa63c15dfddec792b450" target="_top" xlink:title=" ">
<polygon fill="white" stroke="black" points="404.5,-99 404.5,-140 521.5,-140 521.5,-99 404.5,-99"/>
<text text-anchor="start" x="412.5" y="-128" font-family="Helvetica,sans-Serif" font-size="10.00">Ra::Core::Geometry</text>
<text text-anchor="start" x="412.5" y="-117" font-family="Helvetica,sans-Serif" font-size="10.00">::AbstractGeometry::</text>
<text text-anchor="middle" x="463" y="-106" font-family="Helvetica,sans-Serif" font-size="10.00">invalidateAabb</text>
</a>
</g>
</g>
<!-- Node2&#45;&gt;Node9 -->
<g id="edge8" class="edge">
<title>Node2&#45;&gt;Node9</title>
<path fill="none" stroke="midnightblue" d="M346.08,-143.66C361.61,-140.43 378.36,-136.94 394.17,-133.64"/>
<polygon fill="midnightblue" stroke="midnightblue" points="395.33,-136.97 404.4,-131.51 393.9,-130.12 395.33,-136.97"/>
</g>
<!-- Node4 -->
<g id="node4" class="node">
<title>Node4</title>
<g id="a_node4"><a xlink:href="classRa_1_1Core_1_1Utils_1_1AttribManager.html#ae61e2c70f407d49d854ee4b98a39121f" target="_top" xlink:title="Return true if h correspond to an existing attribute in *this.">
<polygon fill="white" stroke="black" points="580,-158.5 580,-188.5 742,-188.5 742,-158.5 580,-158.5"/>
<text text-anchor="start" x="588" y="-176.5" font-family="Helvetica,sans-Serif" font-size="10.00">Ra::Core::Utils::AttribManager</text>
<text text-anchor="middle" x="661" y="-165.5" font-family="Helvetica,sans-Serif" font-size="10.00">::isValid</text>
</a>
</g>
</g>
<!-- Node3&#45;&gt;Node4 -->
<g id="edge3" class="edge">
<title>Node3&#45;&gt;Node4</title>
<path fill="none" stroke="midnightblue" d="M544,-174.09C552.52,-174.05 561.23,-174 569.86,-173.96"/>
<polygon fill="midnightblue" stroke="midnightblue" points="569.95,-177.46 579.93,-173.91 569.92,-170.46 569.95,-177.46"/>
</g>
<!-- Node8 -->
<g id="node8" class="node">
<title>Node8</title>
<g id="a_node8"><a xlink:href="classRa_1_1Core_1_1Utils_1_1Observable.html#a7e5fe761726d56a51f95192eb6555f8f" target="_top" xlink:title="Notify (i.e. call) each attached observer with argument p.">
<polygon fill="white" stroke="black" points="587,-97 587,-138 735,-138 735,-97 587,-97"/>
<text text-anchor="start" x="595" y="-126" font-family="Helvetica,sans-Serif" font-size="10.00">Ra::Core::Utils::Observable</text>
<text text-anchor="start" x="595" y="-115" font-family="Helvetica,sans-Serif" font-size="10.00">&lt; const std::string &amp; &gt;</text>
<text text-anchor="middle" x="661" y="-104" font-family="Helvetica,sans-Serif" font-size="10.00">::notify</text>
</a>
</g>
</g>
<!-- Node3&#45;&gt;Node8 -->
<g id="edge7" class="edge">
<title>Node3&#45;&gt;Node8</title>
<path fill="none" stroke="midnightblue" d="M515.75,-159.45C535.33,-153.76 558.09,-147.14 579.67,-140.86"/>
<polygon fill="midnightblue" stroke="midnightblue" points="580.87,-144.16 589.49,-138.01 578.91,-137.44 580.87,-144.16"/>
</g>
<!-- Node5 -->
<g id="node5" class="node">
<title>Node5</title>
<g id="a_node5"><a xlink:href="classRa_1_1Core_1_1Utils_1_1AttribHandle.html#a17afbd6718234d480c05258369bdfde9" target="_top" xlink:title=" ">
<polygon fill="white" stroke="black" points="778,-158.5 778,-188.5 932,-188.5 932,-158.5 778,-158.5"/>
<text text-anchor="start" x="786" y="-176.5" font-family="Helvetica,sans-Serif" font-size="10.00">Ra::Core::Utils::AttribHandle</text>
<text text-anchor="middle" x="855" y="-165.5" font-family="Helvetica,sans-Serif" font-size="10.00">::attribName</text>
</a>
</g>
</g>
<!-- Node4&#45;&gt;Node5 -->
<g id="edge4" class="edge">
<title>Node4&#45;&gt;Node5</title>
<path fill="none" stroke="midnightblue" d="M742.03,-173.5C750.45,-173.5 759.03,-173.5 767.51,-173.5"/>
<polygon fill="midnightblue" stroke="midnightblue" points="767.79,-177 777.79,-173.5 767.79,-170 767.79,-177"/>
</g>
<!-- Node6 -->
<g id="node6" class="node">
<title>Node6</title>
<g id="a_node6"><a xlink:href="classRa_1_1Core_1_1Utils_1_1Index.html#a771f93efd49538950e3cb9e57e46fbaf" target="_top" xlink:title=" ">
<polygon fill="white" stroke="black" points="795.5,-82.5 795.5,-112.5 914.5,-112.5 914.5,-82.5 795.5,-82.5"/>
<text text-anchor="start" x="803.5" y="-100.5" font-family="Helvetica,sans-Serif" font-size="10.00">Ra::Core::Utils::Index</text>
<text text-anchor="middle" x="855" y="-89.5" font-family="Helvetica,sans-Serif" font-size="10.00">::Invalid</text>
</a>
</g>
</g>
<!-- Node4&#45;&gt;Node6 -->
<g id="edge5" class="edge">
<title>Node4&#45;&gt;Node6</title>
<path fill="none" stroke="midnightblue" d="M711.36,-158.36C721.56,-154.98 732.19,-151.27 742,-147.5 765.96,-138.29 792.19,-126.67 813.23,-116.95"/>
<polygon fill="midnightblue" stroke="midnightblue" points="814.92,-120.02 822.51,-112.63 811.97,-113.67 814.92,-120.02"/>
</g>
<!-- Node7 -->
<g id="node7" class="node">
<title>Node7</title>
<g id="a_node7"><a xlink:href="classRa_1_1Core_1_1Utils_1_1Index.html#ab3376097b792b1ac2068c6da1cb6c8e4" target="_top" xlink:title="CONSTRUCTOR.">
<polygon fill="white" stroke="black" points="968,-82.5 968,-112.5 1087,-112.5 1087,-82.5 968,-82.5"/>
<text text-anchor="start" x="976" y="-100.5" font-family="Helvetica,sans-Serif" font-size="10.00">Ra::Core::Utils::Index</text>
<text text-anchor="middle" x="1027.5" y="-89.5" font-family="Helvetica,sans-Serif" font-size="10.00">::Index</text>
</a>
</g>
</g>
<!-- Node6&#45;&gt;Node7 -->
<g id="edge6" class="edge">
<title>Node6&#45;&gt;Node7</title>
<path fill="none" stroke="midnightblue" d="M914.68,-97.5C928.47,-97.5 943.3,-97.5 957.51,-97.5"/>
<polygon fill="midnightblue" stroke="midnightblue" points="957.72,-101 967.72,-97.5 957.72,-94 957.72,-101"/>
</g>
<!-- Node11 -->
<g id="node11" class="node">
<title>Node11</title>
<g id="a_node11"><a xlink:href="classRa_1_1Core_1_1Utils_1_1AttribManager.html#ae0cb7281ec72606a5392602b4ea50d2c" target="_top" xlink:title=" ">
<polygon fill="white" stroke="black" points="382,-208.5 382,-238.5 544,-238.5 544,-208.5 382,-208.5"/>
<text text-anchor="start" x="390" y="-226.5" font-family="Helvetica,sans-Serif" font-size="10.00">Ra::Core::Utils::AttribManager</text>
<text text-anchor="middle" x="463" y="-215.5" font-family="Helvetica,sans-Serif" font-size="10.00">::getAttrib</text>
</a>
</g>
</g>
<!-- Node10&#45;&gt;Node11 -->
<g id="edge10" class="edge">
<title>Node10&#45;&gt;Node11</title>
<path fill="none" stroke="midnightblue" d="M346.08,-220.89C354.36,-221.07 362.98,-221.27 371.63,-221.46"/>
<polygon fill="midnightblue" stroke="midnightblue" points="371.69,-224.97 381.77,-221.69 371.85,-217.97 371.69,-224.97"/>
</g>
<!-- Node13 -->
<g id="node13" class="node">
<title>Node13</title>
<g id="a_node13"><a xlink:href="classRa_1_1Core_1_1Utils_1_1AttribManager.html#af89047a2747bc4e08144bbb3477e1d8e" target="_top" xlink:title="findAttrib Grab an attribute handler by name.">
<polygon fill="white" stroke="black" points="382,-0.5 382,-30.5 544,-30.5 544,-0.5 382,-0.5"/>
<text text-anchor="start" x="390" y="-18.5" font-family="Helvetica,sans-Serif" font-size="10.00">Ra::Core::Utils::AttribManager</text>
<text text-anchor="middle" x="463" y="-7.5" font-family="Helvetica,sans-Serif" font-size="10.00">::findAttrib</text>
</a>
</g>
</g>
<!-- Node12&#45;&gt;Node13 -->
<g id="edge12" class="edge">
<title>Node12&#45;&gt;Node13</title>
<path fill="none" stroke="midnightblue" d="M346.08,-24.64C354.36,-23.99 362.98,-23.31 371.63,-22.63"/>
<polygon fill="midnightblue" stroke="midnightblue" points="372.08,-26.1 381.77,-21.83 371.52,-19.13 372.08,-26.1"/>
</g>
<!-- Node14&#45;&gt;Node9 -->
<g id="edge14" class="edge">
<title>Node14&#45;&gt;Node9</title>
<path fill="none" stroke="midnightblue" d="M346.08,-104.48C361.61,-106.49 378.36,-108.66 394.17,-110.71"/>
<polygon fill="midnightblue" stroke="midnightblue" points="394.04,-114.22 404.4,-112.04 394.94,-107.28 394.04,-114.22"/>
</g>
<!-- Node15 -->
<g id="node15" class="node">
<title>Node15</title>
<g id="a_node15"><a xlink:href="classRa_1_1Core_1_1Utils_1_1AttribManager.html#aeb28dcc5c1980e1fc7da191eb69bcbcb" target="_top" xlink:title=" ">
<polygon fill="white" stroke="black" points="382,-49.5 382,-79.5 544,-79.5 544,-49.5 382,-49.5"/>
<text text-anchor="start" x="390" y="-67.5" font-family="Helvetica,sans-Serif" font-size="10.00">Ra::Core::Utils::AttribManager</text>
<text text-anchor="middle" x="463" y="-56.5" font-family="Helvetica,sans-Serif" font-size="10.00">::removeAttrib</text>
</a>
</g>
</g>
<!-- Node14&#45;&gt;Node15 -->
<g id="edge15" class="edge">
<title>Node14&#45;&gt;Node15</title>
<path fill="none" stroke="midnightblue" d="M346.08,-85.4C354.45,-83.89 363.17,-82.32 371.91,-80.74"/>
<polygon fill="midnightblue" stroke="midnightblue" points="372.55,-84.18 381.77,-78.96 371.31,-77.29 372.55,-84.18"/>
</g>
<!-- Node15&#45;&gt;Node6 -->
<g id="edge16" class="edge">
<title>Node15&#45;&gt;Node6</title>
<path fill="none" stroke="midnightblue" d="M544,-70.98C599.56,-75.51 675.29,-81.76 742,-87.5 755.93,-88.7 770.83,-90.01 785.07,-91.27"/>
<polygon fill="midnightblue" stroke="midnightblue" points="785.03,-94.78 795.3,-92.19 785.65,-87.81 785.03,-94.78"/>
</g>
<!-- Node15&#45;&gt;Node8 -->
<g id="edge17" class="edge">
<title>Node15&#45;&gt;Node8</title>
<path fill="none" stroke="midnightblue" d="M519.64,-79.55C537.55,-84.39 557.8,-89.86 577.23,-95.12"/>
<polygon fill="midnightblue" stroke="midnightblue" points="576.43,-98.53 587,-97.76 578.26,-91.77 576.43,-98.53"/>
</g>
</g>
</svg>
        <g id="navigator" transform="translate(0 0)" fill="#404254">
                <rect fill="#f2f5e9" fill-opacity="0.5" stroke="#606060" stroke-width=".5" x="0" y="0" width="60" height="60"/>
                <use id="zoomplus" xlink:href="#zoomPlus" x="17" y="9" onmousedown="handleZoom(evt,'in')"/>
                <use id="zoomminus" xlink:href="#zoomMin" x="42" y="9" onmousedown="handleZoom(evt,'out')"/>
                <use id="reset" xlink:href="#resetDef" x="30" y="36" onmousedown="handleReset()"/>
                <g id="arrowUp" xlink:href="#dirArrow" transform="translate(30 24)" onmousedown="handlePan(0,-1)">
                  <use xlink:href="#rim" fill="#404040">
                        <set attributeName="fill" to="#808080" begin="arrowUp.mouseover" end="arrowUp.mouseout"/>
                  </use>
                  <path fill="none" stroke="white" stroke-width="1.5" d="M0,-3.0v7 M-2.5,-0.5L0,-3.0L2.5,-0.5"/>
                </g>
                <g id="arrowRight" xlink:href="#dirArrow" transform="rotate(90) translate(36 -43)" onmousedown="handlePan(1,0)">
                  <use xlink:href="#rim" fill="#404040">
                        <set attributeName="fill" to="#808080" begin="arrowRight.mouseover" end="arrowRight.mouseout"/>
                  </use>
                  <path fill="none" stroke="white" stroke-width="1.5" d="M0,-3.0v7 M-2.5,-0.5L0,-3.0L2.5,-0.5"/>
                </g>
                <g id="arrowDown" xlink:href="#dirArrow" transform="rotate(180) translate(-30 -48)" onmousedown="handlePan(0,1)">
                  <use xlink:href="#rim" fill="#404040">
                        <set attributeName="fill" to="#808080" begin="arrowDown.mouseover" end="arrowDown.mouseout"/>
                  </use>
                  <path fill="none" stroke="white" stroke-width="1.5" d="M0,-3.0v7 M-2.5,-0.5L0,-3.0L2.5,-0.5"/>
                </g>
                <g id="arrowLeft" xlink:href="#dirArrow" transform="rotate(270) translate(-36 17)" onmousedown="handlePan(-1,0)">
                  <use xlink:href="#rim" fill="#404040">
                        <set attributeName="fill" to="#808080" begin="arrowLeft.mouseover" end="arrowLeft.mouseout"/>
                  </use>
                  <path fill="none" stroke="white" stroke-width="1.5" d="M0,-3.0v7 M-2.5,-0.5L0,-3.0L2.5,-0.5"/>
                </g>
        </g>
        <svg viewBox="0 0 15 15" width="100%" height="30px" preserveAspectRatio="xMaxYMin meet">
         <g id="arrow_out" transform="scale(0.3 0.3)">
          <a xlink:href="classRa_1_1Engine_1_1Scene_1_1SkinningComponent_acb0c9f8ee61577b0f8ff4266a2d0033a_cgraph_org.svg" target="_base">
           <rect id="button" ry="5" rx="5" y="6" x="6" height="38" width="38"
                fill="#f2f5e9" fill-opacity="0.5" stroke="#606060" stroke-width="1.0"/>
           <path id="arrow"
             d="M 11.500037,31.436501 C 11.940474,20.09759 22.043105,11.32322 32.158766,21.979434 L 37.068811,17.246167 C 37.068811,17.246167 37.088388,32 37.088388,32 L 22.160133,31.978069 C 22.160133,31.978069 26.997745,27.140456 26.997745,27.140456 C 18.528582,18.264221 13.291696,25.230495 11.500037,31.436501 z"
             style="fill:#404040;"/>
          </a>
         </g>
        </svg>
</svg>
