<?xml version="1.0" encoding="UTF-8" standalone="no"?>
<!DOCTYPE svg PUBLIC "-//W3C//DTD SVG 1.1//EN"
 "http://www.w3.org/Graphics/SVG/1.1/DTD/svg11.dtd">
<!-- Generated by graphviz version 2.40.1 (20161225.0304)
 -->
<!-- Title: Ra::GuiBase::SelectionManager::selectedEntries Pages: 1 -->
<svg width="382pt" height="39pt"
 viewBox="0.00 0.00 382.00 39.00" xmlns="http://www.w3.org/2000/svg" xmlns:xlink="http://www.w3.org/1999/xlink">
<g id="graph0" class="graph" transform="scale(1 1) rotate(0) translate(4 35)">
<title>Ra::GuiBase::SelectionManager::selectedEntries</title>
<polygon fill="#ffffff" stroke="transparent" points="-4,4 -4,-35 378,-35 378,4 -4,4"/>
<!-- Node81 -->
<g id="node1" class="node">
<title>Node81</title>
<polygon fill="#bfbfbf" stroke="#000000" points="0,-.5 0,-30.5 169,-30.5 169,-.5 0,-.5"/>
<text text-anchor="start" x="8" y="-18.5" font-family="Helvetica,sans-Serif" font-size="10.00" fill="#000000">Ra::GuiBase::SelectionManager</text>
<text text-anchor="middle" x="84.5" y="-7.5" font-family="Helvetica,sans-Serif" font-size="10.00" fill="#000000">::selectedEntries</text>
</g>
<!-- Node82 -->
<g id="node2" class="node">
<title>Node82</title>
<g id="a_node2"><a xlink:href="classRa_1_1GuiBase_1_1SelectionManager.html#aa35d23c6f1bb1c3d0dde9de0783be5e5" target="_top" xlink:title="Ra::GuiBase::SelectionManager\l::itemModel">
<polygon fill="#ffffff" stroke="#000000" points="205,-.5 205,-30.5 374,-30.5 374,-.5 205,-.5"/>
<text text-anchor="start" x="213" y="-18.5" font-family="Helvetica,sans-Serif" font-size="10.00" fill="#000000">Ra::GuiBase::SelectionManager</text>
<text text-anchor="middle" x="289.5" y="-7.5" font-family="Helvetica,sans-Serif" font-size="10.00" fill="#000000">::itemModel</text>
</a>
</g>
</g>
<!-- Node81&#45;&gt;Node82 -->
<g id="edge1" class="edge">
<title>Node81&#45;&gt;Node82</title>
<path fill="none" stroke="#191970" d="M169.0649,-15.5C177.5471,-15.5 186.1983,-15.5 194.7766,-15.5"/>
<polygon fill="#191970" stroke="#191970" points="194.7986,-19.0001 204.7986,-15.5 194.7985,-12.0001 194.7986,-19.0001"/>
</g>
</g>
</svg>
