<?xml version="1.0" encoding="UTF-8" standalone="no"?>
<!DOCTYPE svg PUBLIC "-//W3C//DTD SVG 1.1//EN"
 "http://www.w3.org/Graphics/SVG/1.1/DTD/svg11.dtd">
<!-- Generated by graphviz version 2.43.0 (0)
 -->
<!-- Title: Ra::Engine::Scene::PointCloudComponent Pages: 1 -->
<!--zoomable 1655 -->
<svg id="main" version="1.1" xmlns="http://www.w3.org/2000/svg" xmlns:xlink="http://www.w3.org/1999/xlink" xml:space="preserve" onload="init(evt)">
<style type="text/css"><![CDATA[
.edge:hover path { stroke: red; }
.edge:hover polygon { stroke: red; fill: red; }
]]></style>
<script type="text/javascript"><![CDATA[
var edges = document.getElementsByTagName('g');
if (edges && edges.length) {
  for (var i=0;i<edges.length;i++) {
    if (edges[i].id.substr(0,4)=='edge') {
      edges[i].setAttribute('class','edge');
    }
  }
}
]]></script>
        <defs>
                <circle id="rim" cx="0" cy="0" r="7"/>
                <circle id="rim2" cx="0" cy="0" r="3.5"/>
                <g id="zoomPlus">
                        <use xlink:href="#rim" fill="#404040">
                                <set attributeName="fill" to="#808080" begin="zoomplus.mouseover" end="zoomplus.mouseout"/>
                        </use>
                        <path d="M-4,0h8M0,-4v8" fill="none" stroke="white" stroke-width="1.5" pointer-events="none"/>
                </g>
                <g id="zoomMin">
                        <use xlink:href="#rim" fill="#404040">
                                <set attributeName="fill" to="#808080" begin="zoomminus.mouseover" end="zoomminus.mouseout"/>
                        </use>
                        <path d="M-4,0h8" fill="none" stroke="white" stroke-width="1.5" pointer-events="none"/>
                </g>
                <g id="dirArrow">
                        <path fill="none" stroke="white" stroke-width="1.5" d="M0,-3.0v7 M-2.5,-0.5L0,-3.0L2.5,-0.5"/>
                </g>
               <g id="resetDef">
                       <use xlink:href="#rim2" fill="#404040">
                               <set attributeName="fill" to="#808080" begin="reset.mouseover" end="reset.mouseout"/>
                       </use>
               </g>
        </defs>

<script type="text/javascript">
var viewWidth = 751;
var viewHeight = 1655;
var sectionId = 'dynsection-1';
</script>
<script xlink:href="svgpan.js"/>
<svg id="graph" class="graph">
<g id="viewport">
<title>Ra::Engine::Scene::PointCloudComponent</title>
<polygon fill="white" stroke="transparent" points="-4,4 -4,-1651 747,-1651 747,4 -4,4"/>
<!-- Node1 -->
<g id="node1" class="node">
<title>Node1</title>
<g id="a_node1"><a xlink:title=" ">
<polygon fill="#bfbfbf" stroke="black" points="0,-0.5 0,-167.5 152,-167.5 152,-0.5 0,-0.5"/>
<text text-anchor="start" x="8" y="-155.5" font-family="Helvetica,sans-Serif" font-size="10.00">Ra::Engine::Scene::</text>
<text text-anchor="middle" x="76" y="-144.5" font-family="Helvetica,sans-Serif" font-size="10.00">PointCloudComponent</text>
<polyline fill="none" stroke="black" points="0,-137.5 152,-137.5 "/>
<text text-anchor="middle" x="76" y="-125.5" font-family="Helvetica,sans-Serif" font-size="10.00"> </text>
<polyline fill="none" stroke="black" points="0,-118.5 152,-118.5 "/>
<text text-anchor="start" x="8" y="-106.5" font-family="Helvetica,sans-Serif" font-size="10.00">+ PointCloudComponent()</text>
<text text-anchor="start" x="8" y="-95.5" font-family="Helvetica,sans-Serif" font-size="10.00">+ PointCloudComponent()</text>
<text text-anchor="start" x="8" y="-84.5" font-family="Helvetica,sans-Serif" font-size="10.00">+ ~PointCloudComponent()</text>
<text text-anchor="start" x="8" y="-73.5" font-family="Helvetica,sans-Serif" font-size="10.00">+ initialize()</text>
<text text-anchor="start" x="8" y="-62.5" font-family="Helvetica,sans-Serif" font-size="10.00">+ getCoreGeometry()</text>
<text text-anchor="start" x="8" y="-51.5" font-family="Helvetica,sans-Serif" font-size="10.00">+ getGeometry()</text>
<text text-anchor="start" x="8" y="-40.5" font-family="Helvetica,sans-Serif" font-size="10.00">+ setSplatSize()</text>
<text text-anchor="start" x="8" y="-29.5" font-family="Helvetica,sans-Serif" font-size="10.00">+ getSplatSize()</text>
<text text-anchor="start" x="8" y="-18.5" font-family="Helvetica,sans-Serif" font-size="10.00">+ setupIO()</text>
<text text-anchor="start" x="8" y="-7.5" font-family="Helvetica,sans-Serif" font-size="10.00">+ setDeformable()</text>
</a>
</g>
</g>
<!-- Node2 -->
<g id="node2" class="node">
<title>Node2</title>
<g id="a_node2"><a xlink:href="classRa_1_1Engine_1_1Scene_1_1GeometryComponent.html" target="_top" xlink:title="Abstract interface of a geometric compoennet in the Engine.">
<polygon fill="white" stroke="black" points="1.5,-205.5 1.5,-317.5 150.5,-317.5 150.5,-205.5 1.5,-205.5"/>
<text text-anchor="start" x="9.5" y="-305.5" font-family="Helvetica,sans-Serif" font-size="10.00">Ra::Engine::Scene::</text>
<text text-anchor="middle" x="76" y="-294.5" font-family="Helvetica,sans-Serif" font-size="10.00">GeometryComponent</text>
<polyline fill="none" stroke="black" points="1.5,-287.5 150.5,-287.5 "/>
<text text-anchor="middle" x="76" y="-275.5" font-family="Helvetica,sans-Serif" font-size="10.00"> </text>
<polyline fill="none" stroke="black" points="1.5,-268.5 150.5,-268.5 "/>
<text text-anchor="start" x="9.5" y="-256.5" font-family="Helvetica,sans-Serif" font-size="10.00">+ GeometryComponent()</text>
<text text-anchor="start" x="9.5" y="-245.5" font-family="Helvetica,sans-Serif" font-size="10.00">+ ~GeometryComponent()</text>
<text text-anchor="start" x="9.5" y="-234.5" font-family="Helvetica,sans-Serif" font-size="10.00">+ initialize()</text>
<text text-anchor="start" x="9.5" y="-223.5" font-family="Helvetica,sans-Serif" font-size="10.00">+ setupIO()</text>
<text text-anchor="start" x="9.5" y="-212.5" font-family="Helvetica,sans-Serif" font-size="10.00">+ setContentName()</text>
</a>
</g>
</g>
<!-- Node2&#45;&gt;Node1 -->
<g id="edge1" class="edge">
<title>Node2&#45;&gt;Node1</title>
<path fill="none" stroke="midnightblue" d="M76,-195.45C76,-186.44 76,-177.09 76,-167.81"/>
<polygon fill="none" stroke="midnightblue" points="72.5,-195.45 76,-205.45 79.5,-195.45 72.5,-195.45"/>
</g>
<!-- Node3 -->
<g id="node3" class="node">
<title>Node3</title>
<g id="a_node3"><a xlink:href="classRa_1_1Engine_1_1Scene_1_1Component.html" target="_top" xlink:title="A component is an element that can be updated by a system. It is also linked to some other components...">
<polygon fill="white" stroke="black" points="187,-355.5 187,-610.5 353,-610.5 353,-355.5 187,-355.5"/>
<text text-anchor="start" x="195" y="-598.5" font-family="Helvetica,sans-Serif" font-size="10.00">Ra::Engine::Scene::</text>
<text text-anchor="middle" x="270" y="-587.5" font-family="Helvetica,sans-Serif" font-size="10.00">Component</text>
<polyline fill="none" stroke="black" points="187,-580.5 353,-580.5 "/>
<text text-anchor="middle" x="270" y="-568.5" font-family="Helvetica,sans-Serif" font-size="10.00"> </text>
<polyline fill="none" stroke="black" points="187,-561.5 353,-561.5 "/>
<text text-anchor="start" x="195" y="-549.5" font-family="Helvetica,sans-Serif" font-size="10.00">+ Component()</text>
<text text-anchor="start" x="195" y="-538.5" font-family="Helvetica,sans-Serif" font-size="10.00">+ ~Component()</text>
<text text-anchor="start" x="195" y="-527.5" font-family="Helvetica,sans-Serif" font-size="10.00">+ initialize()</text>
<text text-anchor="start" x="195" y="-516.5" font-family="Helvetica,sans-Serif" font-size="10.00">+ setEntity()</text>
<text text-anchor="start" x="195" y="-505.5" font-family="Helvetica,sans-Serif" font-size="10.00">+ getEntity()</text>
<text text-anchor="start" x="195" y="-494.5" font-family="Helvetica,sans-Serif" font-size="10.00">+ getName()</text>
<text text-anchor="start" x="195" y="-483.5" font-family="Helvetica,sans-Serif" font-size="10.00">+ setSystem()</text>
<text text-anchor="start" x="195" y="-472.5" font-family="Helvetica,sans-Serif" font-size="10.00">+ getSystem()</text>
<text text-anchor="start" x="195" y="-461.5" font-family="Helvetica,sans-Serif" font-size="10.00">+ addRenderObject()</text>
<text text-anchor="start" x="195" y="-450.5" font-family="Helvetica,sans-Serif" font-size="10.00">+ removeRenderObject()</text>
<text text-anchor="start" x="195" y="-439.5" font-family="Helvetica,sans-Serif" font-size="10.00">+ canEdit()</text>
<text text-anchor="start" x="195" y="-428.5" font-family="Helvetica,sans-Serif" font-size="10.00">+ getTransform()</text>
<text text-anchor="start" x="195" y="-417.5" font-family="Helvetica,sans-Serif" font-size="10.00">+ setTransform()</text>
<text text-anchor="start" x="195" y="-406.5" font-family="Helvetica,sans-Serif" font-size="10.00">+ notifyRenderObjectExpired()</text>
<text text-anchor="start" x="195" y="-395.5" font-family="Helvetica,sans-Serif" font-size="10.00">+ computeAabb()</text>
<text text-anchor="start" x="195" y="-384.5" font-family="Helvetica,sans-Serif" font-size="10.00">+ invalidateAabb()</text>
<text text-anchor="start" x="195" y="-373.5" font-family="Helvetica,sans-Serif" font-size="10.00">+ getRenderObjects()</text>
<text text-anchor="start" x="195" y="-362.5" font-family="Helvetica,sans-Serif" font-size="10.00"># getRoMgr()</text>
</a>
</g>
</g>
<!-- Node3&#45;&gt;Node2 -->
<g id="edge2" class="edge">
<title>Node3&#45;&gt;Node2</title>
<path fill="none" stroke="midnightblue" d="M180.39,-363.39C177.92,-360.55 175.46,-357.74 173,-355 161.74,-342.44 149.08,-329.57 136.71,-317.58"/>
<polygon fill="none" stroke="midnightblue" points="177.74,-365.68 186.9,-371.01 183.07,-361.14 177.74,-365.68"/>
</g>
<!-- Node4 -->
<g id="node4" class="node">
<title>Node4</title>
<g id="a_node4"><a xlink:href="classRa_1_1Engine_1_1Scene_1_1System.html" target="_top" xlink:title=" ">
<polygon fill="white" stroke="black" points="486.5,-713.5 486.5,-869.5 645.5,-869.5 645.5,-713.5 486.5,-713.5"/>
<text text-anchor="start" x="494.5" y="-857.5" font-family="Helvetica,sans-Serif" font-size="10.00">Ra::Engine::Scene::</text>
<text text-anchor="middle" x="566" y="-846.5" font-family="Helvetica,sans-Serif" font-size="10.00">System</text>
<polyline fill="none" stroke="black" points="486.5,-839.5 645.5,-839.5 "/>
<text text-anchor="middle" x="566" y="-827.5" font-family="Helvetica,sans-Serif" font-size="10.00"> </text>
<polyline fill="none" stroke="black" points="486.5,-820.5 645.5,-820.5 "/>
<text text-anchor="start" x="494.5" y="-808.5" font-family="Helvetica,sans-Serif" font-size="10.00">+ System()</text>
<text text-anchor="start" x="494.5" y="-797.5" font-family="Helvetica,sans-Serif" font-size="10.00">+ ~System()</text>
<text text-anchor="start" x="494.5" y="-786.5" font-family="Helvetica,sans-Serif" font-size="10.00">+ handleAssetLoading()</text>
<text text-anchor="start" x="494.5" y="-775.5" font-family="Helvetica,sans-Serif" font-size="10.00">+ generateTasks()</text>
<text text-anchor="start" x="494.5" y="-764.5" font-family="Helvetica,sans-Serif" font-size="10.00">+ getEntityComponents()</text>
<text text-anchor="start" x="494.5" y="-753.5" font-family="Helvetica,sans-Serif" font-size="10.00">+ addComponent()</text>
<text text-anchor="start" x="494.5" y="-742.5" font-family="Helvetica,sans-Serif" font-size="10.00"># registerComponent()</text>
<text text-anchor="start" x="494.5" y="-731.5" font-family="Helvetica,sans-Serif" font-size="10.00"># unregisterComponent()</text>
<text text-anchor="start" x="494.5" y="-720.5" font-family="Helvetica,sans-Serif" font-size="10.00"># unregisterAllComponents()</text>
</a>
</g>
</g>
<!-- Node4&#45;&gt;Node3 -->
<g id="edge3" class="edge">
<title>Node4&#45;&gt;Node3</title>
<path fill="none" stroke="#404040" d="M519.35,-713.16C506.59,-694.34 492.09,-674.8 477,-658 442.81,-619.92 400.2,-582.72 362.55,-552.55"/>
<polygon fill="none" stroke="#404040" points="362.48,-552.5 355.3,-551.9 353.09,-545.04 360.27,-545.64 362.48,-552.5"/>
<text text-anchor="middle" x="487.5" y="-632" font-family="Helvetica,sans-Serif" font-size="10.00"> #m_system</text>
</g>
<!-- Node5 -->
<g id="node5" class="node">
<title>Node5</title>
<g id="a_node5"><a xlink:title=" ">
<polygon fill="white" stroke="#bfbfbf" points="490,-983.5 490,-1073.5 642,-1073.5 642,-983.5 490,-983.5"/>
<text text-anchor="start" x="498" y="-1061.5" font-family="Helvetica,sans-Serif" font-size="10.00">std::vector&lt; std::pair</text>
<text text-anchor="start" x="498" y="-1050.5" font-family="Helvetica,sans-Serif" font-size="10.00">&lt; const Ra::Engine::Scene</text>
<text text-anchor="start" x="498" y="-1039.5" font-family="Helvetica,sans-Serif" font-size="10.00">::Entity *, Ra::Engine::Scene</text>
<text text-anchor="middle" x="566" y="-1028.5" font-family="Helvetica,sans-Serif" font-size="10.00">::Component * &gt; &gt;</text>
<polyline fill="none" stroke="#bfbfbf" points="490,-1021.5 642,-1021.5 "/>
<text text-anchor="middle" x="566" y="-1009.5" font-family="Helvetica,sans-Serif" font-size="10.00"> </text>
<polyline fill="none" stroke="#bfbfbf" points="490,-1002.5 642,-1002.5 "/>
<text text-anchor="middle" x="566" y="-990.5" font-family="Helvetica,sans-Serif" font-size="10.00"> </text>
</a>
</g>
</g>
<!-- Node5&#45;&gt;Node4 -->
<g id="edge4" class="edge">
<title>Node5&#45;&gt;Node4</title>
<path fill="none" stroke="#404040" d="M566,-983.3C566,-954.75 566,-916.6 566,-881.92"/>
<polygon fill="none" stroke="#404040" points="566,-881.81 562,-875.81 566,-869.81 570,-875.81 566,-881.81"/>
<text text-anchor="middle" x="609.5" y="-946" font-family="Helvetica,sans-Serif" font-size="10.00"> #m_components</text>
</g>
<!-- Node6 -->
<g id="node6" class="node">
<title>Node6</title>
<g id="a_node6"><a xlink:title=" ">
<polygon fill="white" stroke="#bfbfbf" points="420.5,-1314 420.5,-1393 593.5,-1393 593.5,-1314 420.5,-1314"/>
<text text-anchor="start" x="428.5" y="-1381" font-family="Helvetica,sans-Serif" font-size="10.00">pair&lt; const Ra::Engine</text>
<text text-anchor="start" x="428.5" y="-1370" font-family="Helvetica,sans-Serif" font-size="10.00">::Scene::Entity *, Ra</text>
<text text-anchor="middle" x="507" y="-1359" font-family="Helvetica,sans-Serif" font-size="10.00">::Engine::Scene::Component * &gt;</text>
<polyline fill="none" stroke="#bfbfbf" points="420.5,-1352 593.5,-1352 "/>
<text text-anchor="middle" x="507" y="-1340" font-family="Helvetica,sans-Serif" font-size="10.00"> </text>
<polyline fill="none" stroke="#bfbfbf" points="420.5,-1333 593.5,-1333 "/>
<text text-anchor="middle" x="507" y="-1321" font-family="Helvetica,sans-Serif" font-size="10.00"> </text>
</a>
</g>
</g>
<!-- Node6&#45;&gt;Node5 -->
<g id="edge5" class="edge">
<title>Node6&#45;&gt;Node5</title>
<path fill="none" stroke="#404040" d="M511,-1313.72C516.49,-1264.38 527.59,-1176.73 544,-1103 545.27,-1097.29 546.75,-1091.37 548.34,-1085.49"/>
<polygon fill="none" stroke="#404040" points="548.45,-1085.09 546.22,-1078.23 551.7,-1073.54 553.93,-1080.4 548.45,-1085.09"/>
<text text-anchor="middle" x="573" y="-1122.5" font-family="Helvetica,sans-Serif" font-size="10.00"> +elements</text>
</g>
<!-- Node7 -->
<g id="node7" class="node">
<title>Node7</title>
<g id="a_node7"><a xlink:title="STL class.">
<polygon fill="white" stroke="#bfbfbf" points="611.5,-1325 611.5,-1382 708.5,-1382 708.5,-1325 611.5,-1325"/>
<text text-anchor="middle" x="660" y="-1370" font-family="Helvetica,sans-Serif" font-size="10.00">std::vector&lt; T &gt;</text>
<polyline fill="none" stroke="#bfbfbf" points="611.5,-1363 708.5,-1363 "/>
<text text-anchor="middle" x="660" y="-1351" font-family="Helvetica,sans-Serif" font-size="10.00"> </text>
<polyline fill="none" stroke="#bfbfbf" points="611.5,-1344 708.5,-1344 "/>
<text text-anchor="middle" x="660" y="-1332" font-family="Helvetica,sans-Serif" font-size="10.00"> </text>
</a>
</g>
</g>
<!-- Node7&#45;&gt;Node5 -->
<g id="edge6" class="edge">
<title>Node7&#45;&gt;Node5</title>
<path fill="none" stroke="orange" d="M654.03,-1315.04C645.53,-1265.56 628.03,-1176.14 602,-1103 598.57,-1093.36 594.22,-1083.33 589.74,-1073.89"/>
<polygon fill="orange" stroke="orange" points="650.59,-1315.69 655.71,-1324.97 657.49,-1314.53 650.59,-1315.69"/>
<text text-anchor="start" x="614" y="-1139" font-family="Helvetica,sans-Serif" font-size="10.00"> &lt; std::pair&lt; const</text>
<text text-anchor="start" x="614" y="-1128" font-family="Helvetica,sans-Serif" font-size="10.00"> Ra::Engine::Scene::</text>
<text text-anchor="start" x="614" y="-1117" font-family="Helvetica,sans-Serif" font-size="10.00">Entity *, Ra::Engine</text>
<text text-anchor="middle" x="678.5" y="-1106" font-family="Helvetica,sans-Serif" font-size="10.00">::Scene::Component * &gt; &gt;</text>
</g>
<!-- Node8 -->
<g id="node8" class="node">
<title>Node8</title>
<g id="a_node8"><a xlink:title=" ">
<polygon fill="white" stroke="#bfbfbf" points="645.5,-1589.5 645.5,-1646.5 674.5,-1646.5 674.5,-1589.5 645.5,-1589.5"/>
<text text-anchor="middle" x="660" y="-1634.5" font-family="Helvetica,sans-Serif" font-size="10.00">T</text>
<polyline fill="none" stroke="#bfbfbf" points="645.5,-1627.5 674.5,-1627.5 "/>
<text text-anchor="middle" x="660" y="-1615.5" font-family="Helvetica,sans-Serif" font-size="10.00"> </text>
<polyline fill="none" stroke="#bfbfbf" points="645.5,-1608.5 674.5,-1608.5 "/>
<text text-anchor="middle" x="660" y="-1596.5" font-family="Helvetica,sans-Serif" font-size="10.00"> </text>
</a>
</g>
</g>
<!-- Node8&#45;&gt;Node7 -->
<g id="edge7" class="edge">
<title>Node8&#45;&gt;Node7</title>
<path fill="none" stroke="#404040" d="M660,-1589.4C660,-1542.73 660,-1448.04 660,-1394.23"/>
<polygon fill="none" stroke="#404040" points="660,-1394.12 656,-1388.12 660,-1382.12 664,-1388.12 660,-1394.12"/>
<text text-anchor="middle" x="689" y="-1563" font-family="Helvetica,sans-Serif" font-size="10.00"> +elements</text>
</g>
<!-- Node9 -->
<g id="node9" class="node">
<title>Node9</title>
<g id="a_node9"><a xlink:title="STL class.">
<polygon fill="white" stroke="#bfbfbf" points="94.5,-763 94.5,-820 159.5,-820 159.5,-763 94.5,-763"/>
<text text-anchor="middle" x="127" y="-808" font-family="Helvetica,sans-Serif" font-size="10.00">std::string</text>
<polyline fill="none" stroke="#bfbfbf" points="94.5,-801 159.5,-801 "/>
<text text-anchor="middle" x="127" y="-789" font-family="Helvetica,sans-Serif" font-size="10.00"> </text>
<polyline fill="none" stroke="#bfbfbf" points="94.5,-782 159.5,-782 "/>
<text text-anchor="middle" x="127" y="-770" font-family="Helvetica,sans-Serif" font-size="10.00"> </text>
</a>
</g>
</g>
<!-- Node9&#45;&gt;Node2 -->
<g id="edge16" class="edge">
<title>Node9&#45;&gt;Node2</title>
<path fill="none" stroke="#404040" d="M118.67,-762.84C108.56,-727.86 92.02,-665.6 85,-611 72.52,-513.88 72.22,-400.33 73.69,-329.9"/>
<polygon fill="none" stroke="#404040" points="73.69,-329.69 69.83,-323.6 73.97,-317.69 77.83,-323.78 73.69,-329.69"/>
<text text-anchor="middle" x="131.5" y="-480.5" font-family="Helvetica,sans-Serif" font-size="10.00"> #m_contentName</text>
</g>
<!-- Node9&#45;&gt;Node3 -->
<g id="edge8" class="edge">
<title>Node9&#45;&gt;Node3</title>
<path fill="none" stroke="#404040" d="M133.84,-762.96C141.04,-735.7 153.48,-693.09 169,-658 174.35,-645.89 180.34,-633.56 186.65,-621.33"/>
<polygon fill="none" stroke="#404040" points="186.69,-621.24 185.93,-614.07 192.26,-610.61 193.02,-617.79 186.69,-621.24"/>
<text text-anchor="middle" x="208.5" y="-632" font-family="Helvetica,sans-Serif" font-size="10.00"> #m_name</text>
</g>
<!-- Node10 -->
<g id="node10" class="node">
<title>Node10</title>
<g id="a_node10"><a xlink:title="STL class.">
<polygon fill="white" stroke="#bfbfbf" points="75,-994.5 75,-1062.5 179,-1062.5 179,-994.5 75,-994.5"/>
<text text-anchor="start" x="83" y="-1050.5" font-family="Helvetica,sans-Serif" font-size="10.00">std::basic_string&lt;</text>
<text text-anchor="middle" x="127" y="-1039.5" font-family="Helvetica,sans-Serif" font-size="10.00"> char &gt;</text>
<polyline fill="none" stroke="#bfbfbf" points="75,-1032.5 179,-1032.5 "/>
<text text-anchor="middle" x="127" y="-1020.5" font-family="Helvetica,sans-Serif" font-size="10.00"> </text>
<polyline fill="none" stroke="#bfbfbf" points="75,-1013.5 179,-1013.5 "/>
<text text-anchor="middle" x="127" y="-1001.5" font-family="Helvetica,sans-Serif" font-size="10.00"> </text>
</a>
</g>
</g>
<!-- Node10&#45;&gt;Node9 -->
<g id="edge9" class="edge">
<title>Node10&#45;&gt;Node9</title>
<path fill="none" stroke="midnightblue" d="M127,-984.25C127,-936.32 127,-860.45 127,-820.01"/>
<polygon fill="none" stroke="midnightblue" points="123.5,-984.33 127,-994.33 130.5,-984.33 123.5,-984.33"/>
</g>
<!-- Node11 -->
<g id="node11" class="node">
<title>Node11</title>
<g id="a_node11"><a xlink:href="classRa_1_1Engine_1_1Scene_1_1Entity.html" target="_top" xlink:title="An entity is an scene element. It ties together components with a transform.">
<polygon fill="white" stroke="black" points="324,-658.5 324,-924.5 468,-924.5 468,-658.5 324,-658.5"/>
<text text-anchor="start" x="332" y="-912.5" font-family="Helvetica,sans-Serif" font-size="10.00">Ra::Engine::Scene::</text>
<text text-anchor="middle" x="396" y="-901.5" font-family="Helvetica,sans-Serif" font-size="10.00">Entity</text>
<polyline fill="none" stroke="black" points="324,-894.5 468,-894.5 "/>
<text text-anchor="middle" x="396" y="-882.5" font-family="Helvetica,sans-Serif" font-size="10.00"> </text>
<polyline fill="none" stroke="black" points="324,-875.5 468,-875.5 "/>
<text text-anchor="start" x="332" y="-863.5" font-family="Helvetica,sans-Serif" font-size="10.00">+ Entity()</text>
<text text-anchor="start" x="332" y="-852.5" font-family="Helvetica,sans-Serif" font-size="10.00">+ Entity()</text>
<text text-anchor="start" x="332" y="-841.5" font-family="Helvetica,sans-Serif" font-size="10.00">+ operator=()</text>
<text text-anchor="start" x="332" y="-830.5" font-family="Helvetica,sans-Serif" font-size="10.00">+ ~Entity()</text>
<text text-anchor="start" x="332" y="-819.5" font-family="Helvetica,sans-Serif" font-size="10.00">+ getName()</text>
<text text-anchor="start" x="332" y="-808.5" font-family="Helvetica,sans-Serif" font-size="10.00">+ rename()</text>
<text text-anchor="start" x="332" y="-797.5" font-family="Helvetica,sans-Serif" font-size="10.00">+ setTransform()</text>
<text text-anchor="start" x="332" y="-786.5" font-family="Helvetica,sans-Serif" font-size="10.00">+ setTransform()</text>
<text text-anchor="start" x="332" y="-775.5" font-family="Helvetica,sans-Serif" font-size="10.00">+ getTransform()</text>
<text text-anchor="start" x="332" y="-764.5" font-family="Helvetica,sans-Serif" font-size="10.00">+ getTransformAsMatrix()</text>
<text text-anchor="start" x="332" y="-753.5" font-family="Helvetica,sans-Serif" font-size="10.00">+ swapTransformBuffers()</text>
<text text-anchor="start" x="332" y="-742.5" font-family="Helvetica,sans-Serif" font-size="10.00">+ addComponent()</text>
<text text-anchor="start" x="332" y="-731.5" font-family="Helvetica,sans-Serif" font-size="10.00">+ removeComponent()</text>
<text text-anchor="start" x="332" y="-720.5" font-family="Helvetica,sans-Serif" font-size="10.00">+ getComponent()</text>
<text text-anchor="start" x="332" y="-709.5" font-family="Helvetica,sans-Serif" font-size="10.00">+ getComponent()</text>
<text text-anchor="start" x="332" y="-698.5" font-family="Helvetica,sans-Serif" font-size="10.00">+ getComponents()</text>
<text text-anchor="start" x="332" y="-687.5" font-family="Helvetica,sans-Serif" font-size="10.00">+ getNumComponents()</text>
<text text-anchor="start" x="332" y="-676.5" font-family="Helvetica,sans-Serif" font-size="10.00">+ computeAabb()</text>
<text text-anchor="start" x="332" y="-665.5" font-family="Helvetica,sans-Serif" font-size="10.00">+ invalidateAabb()</text>
</a>
</g>
</g>
<!-- Node11&#45;&gt;Node3 -->
<g id="edge10" class="edge">
<title>Node11&#45;&gt;Node3</title>
<path fill="none" stroke="#404040" d="M365.68,-658.17C362.4,-648.19 358.84,-638.37 355,-629 354.03,-626.63 353.02,-624.25 351.98,-621.86"/>
<polygon fill="none" stroke="#404040" points="351.87,-621.61 345.75,-617.79 346.92,-610.68 353.04,-614.5 351.87,-621.61"/>
<text text-anchor="middle" x="385.5" y="-632" font-family="Helvetica,sans-Serif" font-size="10.00"> #m_entity</text>
</g>
<!-- Node12 -->
<g id="node12" class="node">
<title>Node12</title>
<g id="a_node12"><a xlink:href="classRa_1_1Core_1_1Utils_1_1IndexedObject.html" target="_top" xlink:title=" ">
<polygon fill="white" stroke="black" points="253.5,-972.5 253.5,-1084.5 384.5,-1084.5 384.5,-972.5 253.5,-972.5"/>
<text text-anchor="start" x="261.5" y="-1072.5" font-family="Helvetica,sans-Serif" font-size="10.00">Ra::Core::Utils::Indexed</text>
<text text-anchor="middle" x="319" y="-1061.5" font-family="Helvetica,sans-Serif" font-size="10.00">Object</text>
<polyline fill="none" stroke="black" points="253.5,-1054.5 384.5,-1054.5 "/>
<text text-anchor="middle" x="319" y="-1042.5" font-family="Helvetica,sans-Serif" font-size="10.00"> </text>
<polyline fill="none" stroke="black" points="253.5,-1035.5 384.5,-1035.5 "/>
<text text-anchor="start" x="261.5" y="-1023.5" font-family="Helvetica,sans-Serif" font-size="10.00">+ IndexedObject()</text>
<text text-anchor="start" x="261.5" y="-1012.5" font-family="Helvetica,sans-Serif" font-size="10.00">+ IndexedObject()</text>
<text text-anchor="start" x="261.5" y="-1001.5" font-family="Helvetica,sans-Serif" font-size="10.00">+ ~IndexedObject()</text>
<text text-anchor="start" x="261.5" y="-990.5" font-family="Helvetica,sans-Serif" font-size="10.00">+ setIndex()</text>
<text text-anchor="start" x="261.5" y="-979.5" font-family="Helvetica,sans-Serif" font-size="10.00">+ getIndex()</text>
</a>
</g>
</g>
<!-- Node12&#45;&gt;Node11 -->
<g id="edge11" class="edge">
<title>Node12&#45;&gt;Node11</title>
<path fill="none" stroke="midnightblue" d="M340.25,-962.63C344.15,-950.73 348.35,-937.93 352.63,-924.87"/>
<polygon fill="none" stroke="midnightblue" points="336.84,-961.81 337.05,-972.4 343.49,-963.99 336.84,-961.81"/>
</g>
<!-- Node13 -->
<g id="node13" class="node">
<title>Node13</title>
<g id="a_node13"><a xlink:href="classRa_1_1Core_1_1Utils_1_1Index.html" target="_top" xlink:title=" ">
<polygon fill="white" stroke="black" points="133.5,-1165.5 133.5,-1541.5 270.5,-1541.5 270.5,-1165.5 133.5,-1165.5"/>
<text text-anchor="middle" x="202" y="-1529.5" font-family="Helvetica,sans-Serif" font-size="10.00">Ra::Core::Utils::Index</text>
<polyline fill="none" stroke="black" points="133.5,-1522.5 270.5,-1522.5 "/>
<text text-anchor="middle" x="202" y="-1510.5" font-family="Helvetica,sans-Serif" font-size="10.00"> </text>
<polyline fill="none" stroke="black" points="133.5,-1503.5 270.5,-1503.5 "/>
<text text-anchor="start" x="141.5" y="-1491.5" font-family="Helvetica,sans-Serif" font-size="10.00">+ Index()</text>
<text text-anchor="start" x="141.5" y="-1480.5" font-family="Helvetica,sans-Serif" font-size="10.00">+ Index()</text>
<text text-anchor="start" x="141.5" y="-1469.5" font-family="Helvetica,sans-Serif" font-size="10.00">+ Index()</text>
<text text-anchor="start" x="141.5" y="-1458.5" font-family="Helvetica,sans-Serif" font-size="10.00">+ isValid()</text>
<text text-anchor="start" x="141.5" y="-1447.5" font-family="Helvetica,sans-Serif" font-size="10.00">+ isInvalid()</text>
<text text-anchor="start" x="141.5" y="-1436.5" font-family="Helvetica,sans-Serif" font-size="10.00">+ setInvalid()</text>
<text text-anchor="start" x="141.5" y="-1425.5" font-family="Helvetica,sans-Serif" font-size="10.00">+ getValue()</text>
<text text-anchor="start" x="141.5" y="-1414.5" font-family="Helvetica,sans-Serif" font-size="10.00">+ setValue()</text>
<text text-anchor="start" x="141.5" y="-1403.5" font-family="Helvetica,sans-Serif" font-size="10.00">+ operator IntegerType()</text>
<text text-anchor="start" x="141.5" y="-1392.5" font-family="Helvetica,sans-Serif" font-size="10.00">+ operator=()</text>
<text text-anchor="start" x="141.5" y="-1381.5" font-family="Helvetica,sans-Serif" font-size="10.00">+ operator++()</text>
<text text-anchor="start" x="141.5" y="-1370.5" font-family="Helvetica,sans-Serif" font-size="10.00">+ operator&#45;&#45;()</text>
<text text-anchor="start" x="141.5" y="-1359.5" font-family="Helvetica,sans-Serif" font-size="10.00">+ operator+()</text>
<text text-anchor="start" x="141.5" y="-1348.5" font-family="Helvetica,sans-Serif" font-size="10.00">+ operator+()</text>
<text text-anchor="start" x="141.5" y="-1337.5" font-family="Helvetica,sans-Serif" font-size="10.00">+ operator&#45;()</text>
<text text-anchor="start" x="141.5" y="-1326.5" font-family="Helvetica,sans-Serif" font-size="10.00">+ operator&#45;()</text>
<text text-anchor="start" x="141.5" y="-1315.5" font-family="Helvetica,sans-Serif" font-size="10.00">+ operator==()</text>
<text text-anchor="start" x="141.5" y="-1304.5" font-family="Helvetica,sans-Serif" font-size="10.00">+ operator==()</text>
<text text-anchor="start" x="141.5" y="-1293.5" font-family="Helvetica,sans-Serif" font-size="10.00">+ operator!=()</text>
<text text-anchor="start" x="141.5" y="-1282.5" font-family="Helvetica,sans-Serif" font-size="10.00">+ operator!=()</text>
<text text-anchor="start" x="141.5" y="-1271.5" font-family="Helvetica,sans-Serif" font-size="10.00">+ operator&lt;()</text>
<text text-anchor="start" x="141.5" y="-1260.5" font-family="Helvetica,sans-Serif" font-size="10.00">+ operator&lt;()</text>
<text text-anchor="start" x="141.5" y="-1249.5" font-family="Helvetica,sans-Serif" font-size="10.00">+ operator&lt;=()</text>
<text text-anchor="start" x="141.5" y="-1238.5" font-family="Helvetica,sans-Serif" font-size="10.00">+ operator&lt;=()</text>
<text text-anchor="start" x="141.5" y="-1227.5" font-family="Helvetica,sans-Serif" font-size="10.00">+ operator&gt;()</text>
<text text-anchor="start" x="141.5" y="-1216.5" font-family="Helvetica,sans-Serif" font-size="10.00">+ operator&gt;()</text>
<text text-anchor="start" x="141.5" y="-1205.5" font-family="Helvetica,sans-Serif" font-size="10.00">+ operator&gt;=()</text>
<text text-anchor="start" x="141.5" y="-1194.5" font-family="Helvetica,sans-Serif" font-size="10.00">+ operator&gt;=()</text>
<text text-anchor="start" x="141.5" y="-1183.5" font-family="Helvetica,sans-Serif" font-size="10.00">+ Invalid()</text>
<text text-anchor="start" x="141.5" y="-1172.5" font-family="Helvetica,sans-Serif" font-size="10.00">+ Max()</text>
</a>
</g>
</g>
<!-- Node13&#45;&gt;Node2 -->
<g id="edge15" class="edge">
<title>Node13&#45;&gt;Node2</title>
<path fill="none" stroke="#404040" d="M133.41,-1284.85C78.98,-1223.72 12,-1128.39 12,-1029.5 12,-1029.5 12,-1029.5 12,-482 12,-429.1 29.35,-371.78 45.98,-328.99"/>
<polygon fill="none" stroke="#404040" points="46.08,-328.75 44.58,-321.69 50.52,-317.6 52.01,-324.66 46.08,-328.75"/>
<text text-anchor="middle" x="44" y="-789" font-family="Helvetica,sans-Serif" font-size="10.00"> #m_roIndex</text>
</g>
<!-- Node13&#45;&gt;Node12 -->
<g id="edge12" class="edge">
<title>Node13&#45;&gt;Node12</title>
<path fill="none" stroke="#404040" d="M269.89,-1165.08C278.82,-1140.42 287.45,-1116.59 294.92,-1095.97"/>
<polygon fill="none" stroke="#404040" points="294.98,-1095.82 293.26,-1088.82 299.06,-1084.54 300.78,-1091.54 294.98,-1095.82"/>
<text text-anchor="middle" x="311" y="-1122.5" font-family="Helvetica,sans-Serif" font-size="10.00"> #m_idx</text>
</g>
<!-- Node14 -->
<g id="node14" class="node">
<title>Node14</title>
<g id="a_node14"><a xlink:href="classint.html" target="_top" xlink:title=" ">
<polygon fill="white" stroke="black" points="187.5,-1589.5 187.5,-1646.5 216.5,-1646.5 216.5,-1589.5 187.5,-1589.5"/>
<text text-anchor="middle" x="202" y="-1634.5" font-family="Helvetica,sans-Serif" font-size="10.00">int</text>
<polyline fill="none" stroke="black" points="187.5,-1627.5 216.5,-1627.5 "/>
<text text-anchor="middle" x="202" y="-1615.5" font-family="Helvetica,sans-Serif" font-size="10.00"> </text>
<polyline fill="none" stroke="black" points="187.5,-1608.5 216.5,-1608.5 "/>
<text text-anchor="middle" x="202" y="-1596.5" font-family="Helvetica,sans-Serif" font-size="10.00"> </text>
</a>
</g>
</g>
<!-- Node14&#45;&gt;Node13 -->
<g id="edge13" class="edge">
<title>Node14&#45;&gt;Node13</title>
<path fill="none" stroke="#404040" d="M202,-1589.4C202,-1579.43 202,-1567.26 202,-1553.76"/>
<polygon fill="none" stroke="#404040" points="202,-1553.58 198,-1547.58 202,-1541.58 206,-1547.58 202,-1553.58"/>
<text text-anchor="middle" x="223" y="-1563" font-family="Helvetica,sans-Serif" font-size="10.00"> #m_idx</text>
</g>
<!-- Node15 -->
<g id="node15" class="node">
<title>Node15</title>
<g id="a_node15"><a xlink:title=" ">
<polygon fill="white" stroke="#bfbfbf" points="178,-757.5 178,-825.5 306,-825.5 306,-757.5 178,-757.5"/>
<text text-anchor="start" x="186" y="-813.5" font-family="Helvetica,sans-Serif" font-size="10.00">vector&lt; Ra::Core::Utils</text>
<text text-anchor="middle" x="242" y="-802.5" font-family="Helvetica,sans-Serif" font-size="10.00">::Index &gt;</text>
<polyline fill="none" stroke="#bfbfbf" points="178,-795.5 306,-795.5 "/>
<text text-anchor="middle" x="242" y="-783.5" font-family="Helvetica,sans-Serif" font-size="10.00"> </text>
<polyline fill="none" stroke="#bfbfbf" points="178,-776.5 306,-776.5 "/>
<text text-anchor="middle" x="242" y="-764.5" font-family="Helvetica,sans-Serif" font-size="10.00"> </text>
</a>
</g>
</g>
<!-- Node15&#45;&gt;Node3 -->
<g id="edge14" class="edge">
<title>Node15&#45;&gt;Node3</title>
<path fill="none" stroke="#404040" d="M245.02,-757.41C248,-724.81 252.76,-672.76 257.32,-622.79"/>
<polygon fill="none" stroke="#404040" points="257.32,-622.77 253.89,-616.43 258.41,-610.82 261.85,-617.16 257.32,-622.77"/>
<text text-anchor="middle" x="303.5" y="-632" font-family="Helvetica,sans-Serif" font-size="10.00"> +m_renderObjects</text>
</g>
</g>
</svg>
        <g id="navigator" transform="translate(0 0)" fill="#404254">
                <rect fill="#f2f5e9" fill-opacity="0.5" stroke="#606060" stroke-width=".5" x="0" y="0" width="60" height="60"/>
                <use id="zoomplus" xlink:href="#zoomPlus" x="17" y="9" onmousedown="handleZoom(evt,'in')"/>
                <use id="zoomminus" xlink:href="#zoomMin" x="42" y="9" onmousedown="handleZoom(evt,'out')"/>
                <use id="reset" xlink:href="#resetDef" x="30" y="36" onmousedown="handleReset()"/>
                <g id="arrowUp" xlink:href="#dirArrow" transform="translate(30 24)" onmousedown="handlePan(0,-1)">
                  <use xlink:href="#rim" fill="#404040">
                        <set attributeName="fill" to="#808080" begin="arrowUp.mouseover" end="arrowUp.mouseout"/>
                  </use>
                  <path fill="none" stroke="white" stroke-width="1.5" d="M0,-3.0v7 M-2.5,-0.5L0,-3.0L2.5,-0.5"/>
                </g>
                <g id="arrowRight" xlink:href="#dirArrow" transform="rotate(90) translate(36 -43)" onmousedown="handlePan(1,0)">
                  <use xlink:href="#rim" fill="#404040">
                        <set attributeName="fill" to="#808080" begin="arrowRight.mouseover" end="arrowRight.mouseout"/>
                  </use>
                  <path fill="none" stroke="white" stroke-width="1.5" d="M0,-3.0v7 M-2.5,-0.5L0,-3.0L2.5,-0.5"/>
                </g>
                <g id="arrowDown" xlink:href="#dirArrow" transform="rotate(180) translate(-30 -48)" onmousedown="handlePan(0,1)">
                  <use xlink:href="#rim" fill="#404040">
                        <set attributeName="fill" to="#808080" begin="arrowDown.mouseover" end="arrowDown.mouseout"/>
                  </use>
                  <path fill="none" stroke="white" stroke-width="1.5" d="M0,-3.0v7 M-2.5,-0.5L0,-3.0L2.5,-0.5"/>
                </g>
                <g id="arrowLeft" xlink:href="#dirArrow" transform="rotate(270) translate(-36 17)" onmousedown="handlePan(-1,0)">
                  <use xlink:href="#rim" fill="#404040">
                        <set attributeName="fill" to="#808080" begin="arrowLeft.mouseover" end="arrowLeft.mouseout"/>
                  </use>
                  <path fill="none" stroke="white" stroke-width="1.5" d="M0,-3.0v7 M-2.5,-0.5L0,-3.0L2.5,-0.5"/>
                </g>
        </g>
        <svg viewBox="0 0 15 15" width="100%" height="30px" preserveAspectRatio="xMaxYMin meet">
         <g id="arrow_out" transform="scale(0.3 0.3)">
          <a xlink:href="classRa_1_1Engine_1_1Scene_1_1PointCloudComponent__coll__graph_org.svg" target="_base">
           <rect id="button" ry="5" rx="5" y="6" x="6" height="38" width="38"
                fill="#f2f5e9" fill-opacity="0.5" stroke="#606060" stroke-width="1.0"/>
           <path id="arrow"
             d="M 11.500037,31.436501 C 11.940474,20.09759 22.043105,11.32322 32.158766,21.979434 L 37.068811,17.246167 C 37.068811,17.246167 37.088388,32 37.088388,32 L 22.160133,31.978069 C 22.160133,31.978069 26.997745,27.140456 26.997745,27.140456 C 18.528582,18.264221 13.291696,25.230495 11.500037,31.436501 z"
             style="fill:#404040;"/>
          </a>
         </g>
        </svg>
</svg>
