<?xml version="1.0" encoding="UTF-8" standalone="no"?>
<!DOCTYPE svg PUBLIC "-//W3C//DTD SVG 1.1//EN"
 "http://www.w3.org/Graphics/SVG/1.1/DTD/svg11.dtd">
<!-- Generated by graphviz version 2.40.1 (20161225.0304)
 -->
<!-- Title: Ra::Gui::Gizmo::UiSelectionControler::updateGL Pages: 1 -->
<svg width="359pt" height="39pt"
 viewBox="0.00 0.00 359.00 39.00" xmlns="http://www.w3.org/2000/svg" xmlns:xlink="http://www.w3.org/1999/xlink">
<g id="graph0" class="graph" transform="scale(1 1) rotate(0) translate(4 35)">
<title>Ra::Gui::Gizmo::UiSelectionControler::updateGL</title>
<polygon fill="#ffffff" stroke="transparent" points="-4,4 -4,-35 355,-35 355,4 -4,4"/>
<!-- Node7 -->
<g id="node1" class="node">
<title>Node7</title>
<polygon fill="#bfbfbf" stroke="#000000" points="0,-.5 0,-30.5 151,-30.5 151,-.5 0,-.5"/>
<text text-anchor="start" x="8" y="-18.5" font-family="Helvetica,sans-Serif" font-size="10.00" fill="#000000">Ra::Gui::Gizmo::UiSelection</text>
<text text-anchor="middle" x="75.5" y="-7.5" font-family="Helvetica,sans-Serif" font-size="10.00" fill="#000000">Controler::updateGL</text>
</g>
<!-- Node8 -->
<g id="node2" class="node">
<title>Node8</title>
<g id="a_node2"><a xlink:href="classRa_1_1Engine_1_1RenderParameters.html#a4c0efbfc2f10757462c095ca080d1b07" target="_top" xlink:title="Ra::Engine::RenderParameters\l::addParameter">
<polygon fill="#ffffff" stroke="#000000" points="187,-.5 187,-30.5 351,-30.5 351,-.5 187,-.5"/>
<text text-anchor="start" x="195" y="-18.5" font-family="Helvetica,sans-Serif" font-size="10.00" fill="#000000">Ra::Engine::RenderParameters</text>
<text text-anchor="middle" x="269" y="-7.5" font-family="Helvetica,sans-Serif" font-size="10.00" fill="#000000">::addParameter</text>
</a>
</g>
</g>
<!-- Node7&#45;&gt;Node8 -->
<g id="edge1" class="edge">
<title>Node7&#45;&gt;Node8</title>
<path fill="none" stroke="#191970" d="M151.1435,-15.5C159.524,-15.5 168.1266,-15.5 176.6828,-15.5"/>
<polygon fill="#191970" stroke="#191970" points="176.6898,-19.0001 186.6898,-15.5 176.6898,-12.0001 176.6898,-19.0001"/>
</g>
</g>
</svg>
