<?xml version="1.0" encoding="UTF-8" standalone="no"?>
<!DOCTYPE svg PUBLIC "-//W3C//DTD SVG 1.1//EN"
 "http://www.w3.org/Graphics/SVG/1.1/DTD/svg11.dtd">
<!-- Generated by graphviz version 2.43.0 (0)
 -->
<!-- Title: Ra::Engine::Scene::Camera::setUpVector Pages: 1 -->
<svg width="521pt" height="112pt"
 viewBox="0.00 0.00 521.00 112.00" xmlns="http://www.w3.org/2000/svg" xmlns:xlink="http://www.w3.org/1999/xlink">
<g id="graph0" class="graph" transform="scale(1 1) rotate(0) translate(4 108)">
<title>Ra::Engine::Scene::Camera::setUpVector</title>
<polygon fill="white" stroke="transparent" points="-4,4 -4,-108 517,-108 517,4 -4,4"/>
<!-- Node1 -->
<g id="node1" class="node">
<title>Node1</title>
<g id="a_node1"><a xlink:title=" ">
<polygon fill="#bfbfbf" stroke="black" points="0,-24.5 0,-54.5 120,-54.5 120,-24.5 0,-24.5"/>
<text text-anchor="start" x="8" y="-42.5" font-family="Helvetica,sans-Serif" font-size="10.00">Ra::Engine::Scene::</text>
<text text-anchor="middle" x="60" y="-31.5" font-family="Helvetica,sans-Serif" font-size="10.00">Camera::setUpVector</text>
</a>
</g>
</g>
<!-- Node2 -->
<g id="node2" class="node">
<title>Node2</title>
<g id="a_node2"><a xlink:href="classRa_1_1Engine_1_1Scene_1_1Camera.html#ac735b2ab4cbe37a65f86adfeadb3c5eb" target="_top" xlink:title="Apply the local transformation &#39;T&#39; to the camera.">
<polygon fill="white" stroke="black" points="156,-49.5 156,-79.5 293,-79.5 293,-49.5 156,-49.5"/>
<text text-anchor="start" x="164" y="-67.5" font-family="Helvetica,sans-Serif" font-size="10.00">Ra::Engine::Scene::</text>
<text text-anchor="middle" x="224.5" y="-56.5" font-family="Helvetica,sans-Serif" font-size="10.00">Camera::applyTransform</text>
</a>
</g>
</g>
<!-- Node1&#45;&gt;Node2 -->
<g id="edge1" class="edge">
<title>Node1&#45;&gt;Node2</title>
<path fill="none" stroke="midnightblue" d="M120.13,-48.6C128.47,-49.88 137.16,-51.22 145.79,-52.55"/>
<polygon fill="midnightblue" stroke="midnightblue" points="145.46,-56.04 155.88,-54.1 146.53,-49.12 145.46,-56.04"/>
</g>
<!-- Node5 -->
<g id="node5" class="node">
<title>Node5</title>
<g id="a_node5"><a xlink:href="classRa_1_1Engine_1_1Scene_1_1Camera.html#a33ddf1fbfdb03b05caa9fcc4ee528b8d" target="_top" xlink:title="Return the up vector.">
<polygon fill="white" stroke="black" points="164,-0.5 164,-30.5 285,-30.5 285,-0.5 164,-0.5"/>
<text text-anchor="start" x="172" y="-18.5" font-family="Helvetica,sans-Serif" font-size="10.00">Ra::Engine::Scene::</text>
<text text-anchor="middle" x="224.5" y="-7.5" font-family="Helvetica,sans-Serif" font-size="10.00">Camera::getUpVector</text>
</a>
</g>
</g>
<!-- Node1&#45;&gt;Node5 -->
<g id="edge4" class="edge">
<title>Node1&#45;&gt;Node5</title>
<path fill="none" stroke="midnightblue" d="M120.13,-30.77C131.03,-29.16 142.52,-27.46 153.71,-25.81"/>
<polygon fill="midnightblue" stroke="midnightblue" points="154.49,-29.23 163.87,-24.31 153.47,-22.31 154.49,-29.23"/>
</g>
<!-- Node3 -->
<g id="node3" class="node">
<title>Node3</title>
<g id="a_node3"><a xlink:href="classRa_1_1Engine_1_1Scene_1_1Camera.html#a4f4d78382a79c6e9c92114f6377d9b6d" target="_top" xlink:title="Return the position.">
<polygon fill="white" stroke="black" points="363,-73.5 363,-103.5 479,-103.5 479,-73.5 363,-73.5"/>
<text text-anchor="start" x="371" y="-91.5" font-family="Helvetica,sans-Serif" font-size="10.00">Ra::Engine::Scene::</text>
<text text-anchor="middle" x="421" y="-80.5" font-family="Helvetica,sans-Serif" font-size="10.00">Camera::getPosition</text>
</a>
</g>
</g>
<!-- Node2&#45;&gt;Node3 -->
<g id="edge2" class="edge">
<title>Node2&#45;&gt;Node3</title>
<path fill="none" stroke="midnightblue" d="M293.25,-72.86C312.49,-75.23 333.43,-77.82 352.64,-80.19"/>
<polygon fill="midnightblue" stroke="midnightblue" points="352.46,-83.69 362.81,-81.44 353.32,-76.75 352.46,-83.69"/>
</g>
<!-- Node4 -->
<g id="node4" class="node">
<title>Node4</title>
<g id="a_node4"><a xlink:href="classRa_1_1Engine_1_1Rendering_1_1RenderObject.html#a854a52959e785430e0e81ed9c7ae2c0d" target="_top" xlink:title=" ">
<polygon fill="white" stroke="black" points="329,-24.5 329,-54.5 513,-54.5 513,-24.5 329,-24.5"/>
<text text-anchor="start" x="337" y="-42.5" font-family="Helvetica,sans-Serif" font-size="10.00">Ra::Engine::Rendering</text>
<text text-anchor="middle" x="421" y="-31.5" font-family="Helvetica,sans-Serif" font-size="10.00">::RenderObject::setLocalTransform</text>
</a>
</g>
</g>
<!-- Node2&#45;&gt;Node4 -->
<g id="edge3" class="edge">
<title>Node2&#45;&gt;Node4</title>
<path fill="none" stroke="midnightblue" d="M293.25,-55.79C301.53,-54.73 310.12,-53.62 318.75,-52.51"/>
<polygon fill="midnightblue" stroke="midnightblue" points="319.41,-55.96 328.88,-51.21 318.52,-49.02 319.41,-55.96"/>
</g>
</g>
</svg>
