<?xml version="1.0" encoding="UTF-8" standalone="no"?>
<!DOCTYPE svg PUBLIC "-//W3C//DTD SVG 1.1//EN"
 "http://www.w3.org/Graphics/SVG/1.1/DTD/svg11.dtd">
<!-- Generated by graphviz version 2.40.1 (20161225.0304)
 -->
<!-- Title: Ra::Core::Asset::LightData Pages: 1 -->
<svg width="1845pt" height="1262pt"
 viewBox="0.00 0.00 1844.50 1262.00" xmlns="http://www.w3.org/2000/svg" xmlns:xlink="http://www.w3.org/1999/xlink">
<g id="graph0" class="graph" transform="scale(1 1) rotate(0) translate(4 1258)">
<title>Ra::Core::Asset::LightData</title>
<polygon fill="#ffffff" stroke="transparent" points="-4,4 -4,-1258 1840.5,-1258 1840.5,4 -4,4"/>
<!-- Node2 -->
<g id="node1" class="node">
<title>Node2</title>
<polygon fill="#bfbfbf" stroke="#000000" points="766.5,-.5 766.5,-222.5 910.5,-222.5 910.5,-.5 766.5,-.5"/>
<text text-anchor="middle" x="838.5" y="-210.5" font-family="Helvetica,sans-Serif" font-size="10.00" fill="#000000">Ra::Core::Asset::LightData</text>
<polyline fill="none" stroke="#000000" points="766.5,-203.5 910.5,-203.5 "/>
<text text-anchor="middle" x="838.5" y="-191.5" font-family="Helvetica,sans-Serif" font-size="10.00" fill="#000000"> </text>
<polyline fill="none" stroke="#000000" points="766.5,-184.5 910.5,-184.5 "/>
<text text-anchor="start" x="774.5" y="-172.5" font-family="Helvetica,sans-Serif" font-size="10.00" fill="#000000">+ LightData()</text>
<text text-anchor="start" x="774.5" y="-161.5" font-family="Helvetica,sans-Serif" font-size="10.00" fill="#000000">+ LightData()</text>
<text text-anchor="start" x="774.5" y="-150.5" font-family="Helvetica,sans-Serif" font-size="10.00" fill="#000000">+ ~LightData()</text>
<text text-anchor="start" x="774.5" y="-139.5" font-family="Helvetica,sans-Serif" font-size="10.00" fill="#000000">+ setName()</text>
<text text-anchor="start" x="774.5" y="-128.5" font-family="Helvetica,sans-Serif" font-size="10.00" fill="#000000">+ getFrame()</text>
<text text-anchor="start" x="774.5" y="-117.5" font-family="Helvetica,sans-Serif" font-size="10.00" fill="#000000">+ setFrame()</text>
<text text-anchor="start" x="774.5" y="-106.5" font-family="Helvetica,sans-Serif" font-size="10.00" fill="#000000">+ setLight()</text>
<text text-anchor="start" x="774.5" y="-95.5" font-family="Helvetica,sans-Serif" font-size="10.00" fill="#000000">+ setLight()</text>
<text text-anchor="start" x="774.5" y="-84.5" font-family="Helvetica,sans-Serif" font-size="10.00" fill="#000000">+ setLight()</text>
<text text-anchor="start" x="774.5" y="-73.5" font-family="Helvetica,sans-Serif" font-size="10.00" fill="#000000">+ setLight()</text>
<text text-anchor="start" x="774.5" y="-62.5" font-family="Helvetica,sans-Serif" font-size="10.00" fill="#000000">+ getType()</text>
<text text-anchor="start" x="774.5" y="-51.5" font-family="Helvetica,sans-Serif" font-size="10.00" fill="#000000">+ isPointLight()</text>
<text text-anchor="start" x="774.5" y="-40.5" font-family="Helvetica,sans-Serif" font-size="10.00" fill="#000000">+ isSpotLight()</text>
<text text-anchor="start" x="774.5" y="-29.5" font-family="Helvetica,sans-Serif" font-size="10.00" fill="#000000">+ isDirectionalLight()</text>
<text text-anchor="start" x="774.5" y="-18.5" font-family="Helvetica,sans-Serif" font-size="10.00" fill="#000000">+ isAreaLight()</text>
<text text-anchor="start" x="774.5" y="-7.5" font-family="Helvetica,sans-Serif" font-size="10.00" fill="#000000">+ displayInfo()</text>
</g>
<!-- Node3 -->
<g id="node2" class="node">
<title>Node3</title>
<g id="a_node2"><a xlink:href="classRa_1_1Core_1_1Asset_1_1AssetData.html" target="_top" xlink:title="{Ra::Core::Asset::AssetData\n||+ AssetData()\l+ AssetData()\l+ ~AssetData()\l+ getName()\l}">
<polygon fill="#ffffff" stroke="#000000" points="0,-435.5 0,-525.5 147,-525.5 147,-435.5 0,-435.5"/>
<text text-anchor="middle" x="73.5" y="-513.5" font-family="Helvetica,sans-Serif" font-size="10.00" fill="#000000">Ra::Core::Asset::AssetData</text>
<polyline fill="none" stroke="#000000" points="0,-506.5 147,-506.5 "/>
<text text-anchor="middle" x="73.5" y="-494.5" font-family="Helvetica,sans-Serif" font-size="10.00" fill="#000000"> </text>
<polyline fill="none" stroke="#000000" points="0,-487.5 147,-487.5 "/>
<text text-anchor="start" x="8" y="-475.5" font-family="Helvetica,sans-Serif" font-size="10.00" fill="#000000">+ AssetData()</text>
<text text-anchor="start" x="8" y="-464.5" font-family="Helvetica,sans-Serif" font-size="10.00" fill="#000000">+ AssetData()</text>
<text text-anchor="start" x="8" y="-453.5" font-family="Helvetica,sans-Serif" font-size="10.00" fill="#000000">+ ~AssetData()</text>
<text text-anchor="start" x="8" y="-442.5" font-family="Helvetica,sans-Serif" font-size="10.00" fill="#000000">+ getName()</text>
</a>
</g>
</g>
<!-- Node3&#45;&gt;Node2 -->
<g id="edge1" class="edge">
<title>Node3&#45;&gt;Node2</title>
<path fill="none" stroke="#191970" d="M82.6223,-425.4333C92.9379,-380.3478 114.1644,-318.15 156.5,-281 247.8598,-200.8306 610.1489,-142.776 766.2836,-120.9766"/>
<polygon fill="none" stroke="#191970" points="79.1705,-424.8353 80.4646,-435.3509 86.0105,-426.3235 79.1705,-424.8353"/>
</g>
<!-- Node4 -->
<g id="node3" class="node">
<title>Node4</title>
<g id="a_node3"><a xlink:title="STL class. ">
<polygon fill="#ffffff" stroke="#bfbfbf" points="41,-920 41,-977 106,-977 106,-920 41,-920"/>
<text text-anchor="middle" x="73.5" y="-965" font-family="Helvetica,sans-Serif" font-size="10.00" fill="#000000">std::string</text>
<polyline fill="none" stroke="#bfbfbf" points="41,-958 106,-958 "/>
<text text-anchor="middle" x="73.5" y="-946" font-family="Helvetica,sans-Serif" font-size="10.00" fill="#000000"> </text>
<polyline fill="none" stroke="#bfbfbf" points="41,-939 106,-939 "/>
<text text-anchor="middle" x="73.5" y="-927" font-family="Helvetica,sans-Serif" font-size="10.00" fill="#000000"> </text>
</a>
</g>
</g>
<!-- Node4&#45;&gt;Node3 -->
<g id="edge2" class="edge">
<title>Node4&#45;&gt;Node3</title>
<path fill="none" stroke="#404040" d="M73.5,-919.929C73.5,-844.4869 73.5,-638.8315 73.5,-537.91"/>
<polygon fill="none" stroke="#404040" points="73.5001,-537.8457 69.5,-531.8457 73.5,-525.8457 77.5,-531.8456 73.5001,-537.8457"/>
<text text-anchor="middle" x="101" y="-712" font-family="Helvetica,sans-Serif" font-size="10.00" fill="#000000"> #m_name</text>
</g>
<!-- Node5 -->
<g id="node4" class="node">
<title>Node5</title>
<g id="a_node4"><a xlink:title="STL class. ">
<polygon fill="#ffffff" stroke="#bfbfbf" points="21.5,-1185.5 21.5,-1253.5 125.5,-1253.5 125.5,-1185.5 21.5,-1185.5"/>
<text text-anchor="start" x="29.5" y="-1241.5" font-family="Helvetica,sans-Serif" font-size="10.00" fill="#000000">std::basic_string&lt;</text>
<text text-anchor="middle" x="73.5" y="-1230.5" font-family="Helvetica,sans-Serif" font-size="10.00" fill="#000000"> char &gt;</text>
<polyline fill="none" stroke="#bfbfbf" points="21.5,-1223.5 125.5,-1223.5 "/>
<text text-anchor="middle" x="73.5" y="-1211.5" font-family="Helvetica,sans-Serif" font-size="10.00" fill="#000000"> </text>
<polyline fill="none" stroke="#bfbfbf" points="21.5,-1204.5 125.5,-1204.5 "/>
<text text-anchor="middle" x="73.5" y="-1192.5" font-family="Helvetica,sans-Serif" font-size="10.00" fill="#000000"> </text>
</a>
</g>
</g>
<!-- Node5&#45;&gt;Node4 -->
<g id="edge3" class="edge">
<title>Node5&#45;&gt;Node4</title>
<path fill="none" stroke="#191970" d="M73.5,-1175.138C73.5,-1119.1828 73.5,-1024.5739 73.5,-977.2537"/>
<polygon fill="none" stroke="#191970" points="70.0001,-1175.452 73.5,-1185.4521 77.0001,-1175.4521 70.0001,-1175.452"/>
</g>
<!-- Node6 -->
<g id="node5" class="node">
<title>Node6</title>
<polygon fill="#ffffff" stroke="#bfbfbf" points="165.5,-452 165.5,-509 289.5,-509 289.5,-452 165.5,-452"/>
<text text-anchor="middle" x="227.5" y="-497" font-family="Helvetica,sans-Serif" font-size="10.00" fill="#000000">Matrix&lt; Scalar, 3, 1 &gt;</text>
<polyline fill="none" stroke="#bfbfbf" points="165.5,-490 289.5,-490 "/>
<text text-anchor="middle" x="227.5" y="-478" font-family="Helvetica,sans-Serif" font-size="10.00" fill="#000000"> </text>
<polyline fill="none" stroke="#bfbfbf" points="165.5,-471 289.5,-471 "/>
<text text-anchor="middle" x="227.5" y="-459" font-family="Helvetica,sans-Serif" font-size="10.00" fill="#000000"> </text>
</g>
<!-- Node6&#45;&gt;Node2 -->
<g id="edge4" class="edge">
<title>Node6&#45;&gt;Node2</title>
<path fill="none" stroke="#404040" d="M229.8312,-451.9986C235.8417,-399.5066 256.9333,-288.5756 329.5,-241 461.4833,-154.4701 647.6651,-125.7501 754.4293,-116.2231"/>
<polygon fill="none" stroke="#404040" points="754.4548,-116.2211 760.0946,-111.7274 766.4117,-115.205 760.772,-119.6987 754.4548,-116.2211"/>
<text text-anchor="middle" x="357" y="-255" font-family="Helvetica,sans-Serif" font-size="10.00" fill="#000000"> +direction</text>
<text text-anchor="middle" x="357" y="-244" font-family="Helvetica,sans-Serif" font-size="10.00" fill="#000000">+position</text>
</g>
<!-- Node7 -->
<g id="node6" class="node">
<title>Node7</title>
<polygon fill="#ffffff" stroke="#bfbfbf" points="308,-452 308,-509 409,-509 409,-452 308,-452"/>
<text text-anchor="middle" x="358.5" y="-497" font-family="Helvetica,sans-Serif" font-size="10.00" fill="#000000">anonymous:+@1</text>
<polyline fill="none" stroke="#bfbfbf" points="308,-490 409,-490 "/>
<text text-anchor="middle" x="358.5" y="-478" font-family="Helvetica,sans-Serif" font-size="10.00" fill="#000000"> </text>
<polyline fill="none" stroke="#bfbfbf" points="308,-471 409,-471 "/>
<text text-anchor="middle" x="358.5" y="-459" font-family="Helvetica,sans-Serif" font-size="10.00" fill="#000000"> </text>
</g>
<!-- Node7&#45;&gt;Node2 -->
<g id="edge5" class="edge">
<title>Node7&#45;&gt;Node2</title>
<path fill="none" stroke="#404040" d="M355.0992,-451.6833C350.9442,-402.0897 350.1046,-300.2361 403.5,-241 450.3303,-189.0472 641.4074,-146.8723 754.1449,-125.8987"/>
<polygon fill="none" stroke="#404040" points="754.3436,-125.8622 759.5209,-120.8426 766.1456,-123.691 760.9683,-128.7106 754.3436,-125.8622"/>
<text text-anchor="middle" x="417.5" y="-249.5" font-family="Helvetica,sans-Serif" font-size="10.00" fill="#000000"> +@1</text>
</g>
<!-- Node8 -->
<g id="node7" class="node">
<title>Node8</title>
<polygon fill="#ffffff" stroke="#bfbfbf" points="473.5,-920 473.5,-977 511.5,-977 511.5,-920 473.5,-920"/>
<text text-anchor="middle" x="492.5" y="-965" font-family="Helvetica,sans-Serif" font-size="10.00" fill="#000000">float</text>
<polyline fill="none" stroke="#bfbfbf" points="473.5,-958 511.5,-958 "/>
<text text-anchor="middle" x="492.5" y="-946" font-family="Helvetica,sans-Serif" font-size="10.00" fill="#000000"> </text>
<polyline fill="none" stroke="#bfbfbf" points="473.5,-939 511.5,-939 "/>
<text text-anchor="middle" x="492.5" y="-927" font-family="Helvetica,sans-Serif" font-size="10.00" fill="#000000"> </text>
</g>
<!-- Node8&#45;&gt;Node2 -->
<g id="edge6" class="edge">
<title>Node8&#45;&gt;Node2</title>
<path fill="none" stroke="#404040" d="M486.4797,-919.7372C463.3139,-805.944 384.6309,-388.2137 454.5,-281 520.6591,-179.4793 662.8855,-138.3296 754.4472,-121.956"/>
<polygon fill="none" stroke="#404040" points="754.6345,-121.9239 759.8727,-116.968 766.4621,-119.8971 761.2239,-124.8531 754.6345,-121.9239"/>
<text text-anchor="middle" x="486.5" y="-483.5" font-family="Helvetica,sans-Serif" font-size="10.00" fill="#000000"> +innerAngle</text>
<text text-anchor="middle" x="486.5" y="-472.5" font-family="Helvetica,sans-Serif" font-size="10.00" fill="#000000">+outerAngle</text>
</g>
<!-- Node20 -->
<g id="node19" class="node">
<title>Node20</title>
<g id="a_node19"><a xlink:href="structRa_1_1Core_1_1Asset_1_1LightData_1_1LightAttenuation.html" target="_top" xlink:title="{Ra::Core::Asset::LightData\l::LightAttenuation\n||+ LightAttenuation()\l}">
<polygon fill="#ffffff" stroke="#000000" points="527.5,-446.5 527.5,-514.5 671.5,-514.5 671.5,-446.5 527.5,-446.5"/>
<text text-anchor="start" x="535.5" y="-502.5" font-family="Helvetica,sans-Serif" font-size="10.00" fill="#000000">Ra::Core::Asset::LightData</text>
<text text-anchor="middle" x="599.5" y="-491.5" font-family="Helvetica,sans-Serif" font-size="10.00" fill="#000000">::LightAttenuation</text>
<polyline fill="none" stroke="#000000" points="527.5,-484.5 671.5,-484.5 "/>
<text text-anchor="middle" x="599.5" y="-472.5" font-family="Helvetica,sans-Serif" font-size="10.00" fill="#000000"> </text>
<polyline fill="none" stroke="#000000" points="527.5,-465.5 671.5,-465.5 "/>
<text text-anchor="start" x="535.5" y="-453.5" font-family="Helvetica,sans-Serif" font-size="10.00" fill="#000000">+ LightAttenuation()</text>
</a>
</g>
</g>
<!-- Node8&#45;&gt;Node20 -->
<g id="edge19" class="edge">
<title>Node8&#45;&gt;Node20</title>
<path fill="none" stroke="#404040" d="M499.0323,-919.929C516.9629,-841.5033 567.0658,-622.3616 588.9961,-526.4424"/>
<polygon fill="none" stroke="#404040" points="589.0377,-526.2598 586.4757,-519.5192 591.7124,-514.5617 594.2744,-521.3023 589.0377,-526.2598"/>
<text text-anchor="middle" x="577" y="-723" font-family="Helvetica,sans-Serif" font-size="10.00" fill="#000000"> +linear</text>
<text text-anchor="middle" x="577" y="-712" font-family="Helvetica,sans-Serif" font-size="10.00" fill="#000000">+quadratic</text>
<text text-anchor="middle" x="577" y="-701" font-family="Helvetica,sans-Serif" font-size="10.00" fill="#000000">+constant</text>
</g>
<!-- Node9 -->
<g id="node8" class="node">
<title>Node9</title>
<polygon fill="#ffffff" stroke="#bfbfbf" points="690,-452 690,-509 753,-509 753,-452 690,-452"/>
<text text-anchor="middle" x="721.5" y="-497" font-family="Helvetica,sans-Serif" font-size="10.00" fill="#000000">LightType</text>
<polyline fill="none" stroke="#bfbfbf" points="690,-490 753,-490 "/>
<text text-anchor="middle" x="721.5" y="-478" font-family="Helvetica,sans-Serif" font-size="10.00" fill="#000000"> </text>
<polyline fill="none" stroke="#bfbfbf" points="690,-471 753,-471 "/>
<text text-anchor="middle" x="721.5" y="-459" font-family="Helvetica,sans-Serif" font-size="10.00" fill="#000000"> </text>
</g>
<!-- Node9&#45;&gt;Node2 -->
<g id="edge7" class="edge">
<title>Node9&#45;&gt;Node2</title>
<path fill="none" stroke="#404040" d="M725.362,-451.9145C731.1088,-412.7208 743.3369,-340.3942 762.5,-281 767.4802,-265.5642 773.4369,-249.6514 779.7942,-234.0448"/>
<polygon fill="none" stroke="#404040" points="779.8839,-233.8287 778.4907,-226.7534 784.4858,-222.7461 785.879,-229.8214 779.8839,-233.8287"/>
<text text-anchor="middle" x="801" y="-249.5" font-family="Helvetica,sans-Serif" font-size="10.00" fill="#000000"> #m_type</text>
</g>
<!-- Node10 -->
<g id="node9" class="node">
<title>Node10</title>
<polygon fill="#ffffff" stroke="#bfbfbf" points="771.5,-452 771.5,-509 905.5,-509 905.5,-452 771.5,-452"/>
<text text-anchor="middle" x="838.5" y="-497" font-family="Helvetica,sans-Serif" font-size="10.00" fill="#000000">anonymous:+m_dirlight</text>
<polyline fill="none" stroke="#bfbfbf" points="771.5,-490 905.5,-490 "/>
<text text-anchor="middle" x="838.5" y="-478" font-family="Helvetica,sans-Serif" font-size="10.00" fill="#000000"> </text>
<polyline fill="none" stroke="#bfbfbf" points="771.5,-471 905.5,-471 "/>
<text text-anchor="middle" x="838.5" y="-459" font-family="Helvetica,sans-Serif" font-size="10.00" fill="#000000"> </text>
</g>
<!-- Node10&#45;&gt;Node2 -->
<g id="edge8" class="edge">
<title>Node10&#45;&gt;Node2</title>
<path fill="none" stroke="#404040" d="M838.5,-451.8522C838.5,-405.7217 838.5,-312.3242 838.5,-235.0195"/>
<polygon fill="none" stroke="#404040" points="838.5001,-234.7605 834.5,-228.7605 838.5,-222.7605 842.5,-228.7605 838.5001,-234.7605"/>
<text text-anchor="middle" x="869" y="-249.5" font-family="Helvetica,sans-Serif" font-size="10.00" fill="#000000"> +m_dirlight</text>
</g>
<!-- Node11 -->
<g id="node10" class="node">
<title>Node11</title>
<polygon fill="#ffffff" stroke="#bfbfbf" points="923.5,-452 923.5,-509 1069.5,-509 1069.5,-452 923.5,-452"/>
<text text-anchor="middle" x="996.5" y="-497" font-family="Helvetica,sans-Serif" font-size="10.00" fill="#000000">anonymous:+m_pointlight</text>
<polyline fill="none" stroke="#bfbfbf" points="923.5,-490 1069.5,-490 "/>
<text text-anchor="middle" x="996.5" y="-478" font-family="Helvetica,sans-Serif" font-size="10.00" fill="#000000"> </text>
<polyline fill="none" stroke="#bfbfbf" points="923.5,-471 1069.5,-471 "/>
<text text-anchor="middle" x="996.5" y="-459" font-family="Helvetica,sans-Serif" font-size="10.00" fill="#000000"> </text>
</g>
<!-- Node11&#45;&gt;Node2 -->
<g id="edge9" class="edge">
<title>Node11&#45;&gt;Node2</title>
<path fill="none" stroke="#404040" d="M986.3385,-451.7535C970.0934,-406.4271 936.7097,-315.8095 903.5,-241 902.4634,-238.6649 901.4067,-236.3112 900.3332,-233.9441"/>
<polygon fill="none" stroke="#404040" points="900.2157,-233.6888 894.0735,-229.9108 895.1985,-222.788 901.3408,-226.566 900.2157,-233.6888"/>
<text text-anchor="middle" x="948" y="-249.5" font-family="Helvetica,sans-Serif" font-size="10.00" fill="#000000"> +m_pointlight</text>
</g>
<!-- Node12 -->
<g id="node11" class="node">
<title>Node12</title>
<g id="a_node11"><a xlink:href="classRa_1_1Core_1_1Utils_1_1ColorBase.html" target="_top" xlink:title="{Ra::Core::Utils::ColorBase\l\&lt; Scalar \&gt;\n||+ ColorBase()\l+ ColorBase()\l+ ColorBase()\l+ ColorBase()\l+ operator VectorType()\l+ rgb()\l+ rgb()\l+ alpha()\l+ alpha()\l+ hasValidAlpha()\l+ toRGBA32()\l+ toARGB32()\l+ sRGBToLinearRGB()\l+ linearRGBTosRGB()\l+ fromRGB()\l+ Alpha()\l+ Black()\l+ Red()\l+ Green()\l+ Blue()\l+ Yellow()\l+ Magenta()\l+ Cyan()\l+ White()\l+ Grey()\l+ Skin()\l+ fromChars()\l+ fromRGBA32()\l+ fromARGB32()\l+ fromHSV()\l+ scatter()\l}">
<polygon fill="#ffffff" stroke="#000000" points="1087.5,-281.5 1087.5,-679.5 1229.5,-679.5 1229.5,-281.5 1087.5,-281.5"/>
<text text-anchor="start" x="1095.5" y="-667.5" font-family="Helvetica,sans-Serif" font-size="10.00" fill="#000000">Ra::Core::Utils::ColorBase</text>
<text text-anchor="middle" x="1158.5" y="-656.5" font-family="Helvetica,sans-Serif" font-size="10.00" fill="#000000">&lt; Scalar &gt;</text>
<polyline fill="none" stroke="#000000" points="1087.5,-649.5 1229.5,-649.5 "/>
<text text-anchor="middle" x="1158.5" y="-637.5" font-family="Helvetica,sans-Serif" font-size="10.00" fill="#000000"> </text>
<polyline fill="none" stroke="#000000" points="1087.5,-630.5 1229.5,-630.5 "/>
<text text-anchor="start" x="1095.5" y="-618.5" font-family="Helvetica,sans-Serif" font-size="10.00" fill="#000000">+ ColorBase()</text>
<text text-anchor="start" x="1095.5" y="-607.5" font-family="Helvetica,sans-Serif" font-size="10.00" fill="#000000">+ ColorBase()</text>
<text text-anchor="start" x="1095.5" y="-596.5" font-family="Helvetica,sans-Serif" font-size="10.00" fill="#000000">+ ColorBase()</text>
<text text-anchor="start" x="1095.5" y="-585.5" font-family="Helvetica,sans-Serif" font-size="10.00" fill="#000000">+ ColorBase()</text>
<text text-anchor="start" x="1095.5" y="-574.5" font-family="Helvetica,sans-Serif" font-size="10.00" fill="#000000">+ operator VectorType()</text>
<text text-anchor="start" x="1095.5" y="-563.5" font-family="Helvetica,sans-Serif" font-size="10.00" fill="#000000">+ rgb()</text>
<text text-anchor="start" x="1095.5" y="-552.5" font-family="Helvetica,sans-Serif" font-size="10.00" fill="#000000">+ rgb()</text>
<text text-anchor="start" x="1095.5" y="-541.5" font-family="Helvetica,sans-Serif" font-size="10.00" fill="#000000">+ alpha()</text>
<text text-anchor="start" x="1095.5" y="-530.5" font-family="Helvetica,sans-Serif" font-size="10.00" fill="#000000">+ alpha()</text>
<text text-anchor="start" x="1095.5" y="-519.5" font-family="Helvetica,sans-Serif" font-size="10.00" fill="#000000">+ hasValidAlpha()</text>
<text text-anchor="start" x="1095.5" y="-508.5" font-family="Helvetica,sans-Serif" font-size="10.00" fill="#000000">+ toRGBA32()</text>
<text text-anchor="start" x="1095.5" y="-497.5" font-family="Helvetica,sans-Serif" font-size="10.00" fill="#000000">+ toARGB32()</text>
<text text-anchor="start" x="1095.5" y="-486.5" font-family="Helvetica,sans-Serif" font-size="10.00" fill="#000000">+ sRGBToLinearRGB()</text>
<text text-anchor="start" x="1095.5" y="-475.5" font-family="Helvetica,sans-Serif" font-size="10.00" fill="#000000">+ linearRGBTosRGB()</text>
<text text-anchor="start" x="1095.5" y="-464.5" font-family="Helvetica,sans-Serif" font-size="10.00" fill="#000000">+ fromRGB()</text>
<text text-anchor="start" x="1095.5" y="-453.5" font-family="Helvetica,sans-Serif" font-size="10.00" fill="#000000">+ Alpha()</text>
<text text-anchor="start" x="1095.5" y="-442.5" font-family="Helvetica,sans-Serif" font-size="10.00" fill="#000000">+ Black()</text>
<text text-anchor="start" x="1095.5" y="-431.5" font-family="Helvetica,sans-Serif" font-size="10.00" fill="#000000">+ Red()</text>
<text text-anchor="start" x="1095.5" y="-420.5" font-family="Helvetica,sans-Serif" font-size="10.00" fill="#000000">+ Green()</text>
<text text-anchor="start" x="1095.5" y="-409.5" font-family="Helvetica,sans-Serif" font-size="10.00" fill="#000000">+ Blue()</text>
<text text-anchor="start" x="1095.5" y="-398.5" font-family="Helvetica,sans-Serif" font-size="10.00" fill="#000000">+ Yellow()</text>
<text text-anchor="start" x="1095.5" y="-387.5" font-family="Helvetica,sans-Serif" font-size="10.00" fill="#000000">+ Magenta()</text>
<text text-anchor="start" x="1095.5" y="-376.5" font-family="Helvetica,sans-Serif" font-size="10.00" fill="#000000">+ Cyan()</text>
<text text-anchor="start" x="1095.5" y="-365.5" font-family="Helvetica,sans-Serif" font-size="10.00" fill="#000000">+ White()</text>
<text text-anchor="start" x="1095.5" y="-354.5" font-family="Helvetica,sans-Serif" font-size="10.00" fill="#000000">+ Grey()</text>
<text text-anchor="start" x="1095.5" y="-343.5" font-family="Helvetica,sans-Serif" font-size="10.00" fill="#000000">+ Skin()</text>
<text text-anchor="start" x="1095.5" y="-332.5" font-family="Helvetica,sans-Serif" font-size="10.00" fill="#000000">+ fromChars()</text>
<text text-anchor="start" x="1095.5" y="-321.5" font-family="Helvetica,sans-Serif" font-size="10.00" fill="#000000">+ fromRGBA32()</text>
<text text-anchor="start" x="1095.5" y="-310.5" font-family="Helvetica,sans-Serif" font-size="10.00" fill="#000000">+ fromARGB32()</text>
<text text-anchor="start" x="1095.5" y="-299.5" font-family="Helvetica,sans-Serif" font-size="10.00" fill="#000000">+ fromHSV()</text>
<text text-anchor="start" x="1095.5" y="-288.5" font-family="Helvetica,sans-Serif" font-size="10.00" fill="#000000">+ scatter()</text>
</a>
</g>
</g>
<!-- Node12&#45;&gt;Node2 -->
<g id="edge10" class="edge">
<title>Node12&#45;&gt;Node2</title>
<path fill="none" stroke="#404040" d="M1087.2267,-292.7804C1084.4154,-288.741 1081.5073,-284.8065 1078.5,-281 1036.1359,-227.3763 972.3839,-183.4571 921.2318,-153.7711"/>
<polygon fill="none" stroke="#404040" points="920.9405,-153.6048 913.7466,-154.103 910.5199,-147.6541 917.7138,-147.1559 920.9405,-153.6048"/>
<text text-anchor="middle" x="1088" y="-249.5" font-family="Helvetica,sans-Serif" font-size="10.00" fill="#000000"> +m_color</text>
</g>
<!-- Node13 -->
<g id="node12" class="node">
<title>Node13</title>
<polygon fill="#ffffff" stroke="#bfbfbf" points="1051.5,-914.5 1051.5,-982.5 1173.5,-982.5 1173.5,-914.5 1051.5,-914.5"/>
<text text-anchor="start" x="1059.5" y="-970.5" font-family="Helvetica,sans-Serif" font-size="10.00" fill="#000000">Eigen::Matrix&lt; Scalar</text>
<text text-anchor="middle" x="1112.5" y="-959.5" font-family="Helvetica,sans-Serif" font-size="10.00" fill="#000000"> , 4, 1 &gt;</text>
<polyline fill="none" stroke="#bfbfbf" points="1051.5,-952.5 1173.5,-952.5 "/>
<text text-anchor="middle" x="1112.5" y="-940.5" font-family="Helvetica,sans-Serif" font-size="10.00" fill="#000000"> </text>
<polyline fill="none" stroke="#bfbfbf" points="1051.5,-933.5 1173.5,-933.5 "/>
<text text-anchor="middle" x="1112.5" y="-921.5" font-family="Helvetica,sans-Serif" font-size="10.00" fill="#000000"> </text>
</g>
<!-- Node13&#45;&gt;Node12 -->
<g id="edge11" class="edge">
<title>Node13&#45;&gt;Node12</title>
<path fill="none" stroke="#191970" d="M1116.8442,-904.3027C1121.939,-852.4685 1130.7331,-762.9983 1138.9319,-679.5838"/>
<polygon fill="none" stroke="#191970" points="1113.3403,-904.1712 1115.8453,-914.4656 1120.3068,-904.856 1113.3403,-904.1712"/>
</g>
<!-- Node14 -->
<g id="node13" class="node">
<title>Node14</title>
<g id="a_node13"><a xlink:href="classRa_1_1Core_1_1Utils_1_1ColorBase.html" target="_top" xlink:title="{Ra::Core::Utils::ColorBase\l\&lt; _Scalar \&gt;\n||+ ColorBase()\l+ ColorBase()\l+ ColorBase()\l+ ColorBase()\l+ operator VectorType()\l+ rgb()\l+ rgb()\l+ alpha()\l+ alpha()\l+ hasValidAlpha()\l+ toRGBA32()\l+ toARGB32()\l+ sRGBToLinearRGB()\l+ linearRGBTosRGB()\l+ fromRGB()\l+ Alpha()\l+ Black()\l+ Red()\l+ Green()\l+ Blue()\l+ Yellow()\l+ Magenta()\l+ Cyan()\l+ White()\l+ Grey()\l+ Skin()\l+ fromChars()\l+ fromRGBA32()\l+ fromARGB32()\l+ fromHSV()\l+ scatter()\l}">
<polygon fill="#ffffff" stroke="#000000" points="1191.5,-749.5 1191.5,-1147.5 1333.5,-1147.5 1333.5,-749.5 1191.5,-749.5"/>
<text text-anchor="start" x="1199.5" y="-1135.5" font-family="Helvetica,sans-Serif" font-size="10.00" fill="#000000">Ra::Core::Utils::ColorBase</text>
<text text-anchor="middle" x="1262.5" y="-1124.5" font-family="Helvetica,sans-Serif" font-size="10.00" fill="#000000">&lt; _Scalar &gt;</text>
<polyline fill="none" stroke="#000000" points="1191.5,-1117.5 1333.5,-1117.5 "/>
<text text-anchor="middle" x="1262.5" y="-1105.5" font-family="Helvetica,sans-Serif" font-size="10.00" fill="#000000"> </text>
<polyline fill="none" stroke="#000000" points="1191.5,-1098.5 1333.5,-1098.5 "/>
<text text-anchor="start" x="1199.5" y="-1086.5" font-family="Helvetica,sans-Serif" font-size="10.00" fill="#000000">+ ColorBase()</text>
<text text-anchor="start" x="1199.5" y="-1075.5" font-family="Helvetica,sans-Serif" font-size="10.00" fill="#000000">+ ColorBase()</text>
<text text-anchor="start" x="1199.5" y="-1064.5" font-family="Helvetica,sans-Serif" font-size="10.00" fill="#000000">+ ColorBase()</text>
<text text-anchor="start" x="1199.5" y="-1053.5" font-family="Helvetica,sans-Serif" font-size="10.00" fill="#000000">+ ColorBase()</text>
<text text-anchor="start" x="1199.5" y="-1042.5" font-family="Helvetica,sans-Serif" font-size="10.00" fill="#000000">+ operator VectorType()</text>
<text text-anchor="start" x="1199.5" y="-1031.5" font-family="Helvetica,sans-Serif" font-size="10.00" fill="#000000">+ rgb()</text>
<text text-anchor="start" x="1199.5" y="-1020.5" font-family="Helvetica,sans-Serif" font-size="10.00" fill="#000000">+ rgb()</text>
<text text-anchor="start" x="1199.5" y="-1009.5" font-family="Helvetica,sans-Serif" font-size="10.00" fill="#000000">+ alpha()</text>
<text text-anchor="start" x="1199.5" y="-998.5" font-family="Helvetica,sans-Serif" font-size="10.00" fill="#000000">+ alpha()</text>
<text text-anchor="start" x="1199.5" y="-987.5" font-family="Helvetica,sans-Serif" font-size="10.00" fill="#000000">+ hasValidAlpha()</text>
<text text-anchor="start" x="1199.5" y="-976.5" font-family="Helvetica,sans-Serif" font-size="10.00" fill="#000000">+ toRGBA32()</text>
<text text-anchor="start" x="1199.5" y="-965.5" font-family="Helvetica,sans-Serif" font-size="10.00" fill="#000000">+ toARGB32()</text>
<text text-anchor="start" x="1199.5" y="-954.5" font-family="Helvetica,sans-Serif" font-size="10.00" fill="#000000">+ sRGBToLinearRGB()</text>
<text text-anchor="start" x="1199.5" y="-943.5" font-family="Helvetica,sans-Serif" font-size="10.00" fill="#000000">+ linearRGBTosRGB()</text>
<text text-anchor="start" x="1199.5" y="-932.5" font-family="Helvetica,sans-Serif" font-size="10.00" fill="#000000">+ fromRGB()</text>
<text text-anchor="start" x="1199.5" y="-921.5" font-family="Helvetica,sans-Serif" font-size="10.00" fill="#000000">+ Alpha()</text>
<text text-anchor="start" x="1199.5" y="-910.5" font-family="Helvetica,sans-Serif" font-size="10.00" fill="#000000">+ Black()</text>
<text text-anchor="start" x="1199.5" y="-899.5" font-family="Helvetica,sans-Serif" font-size="10.00" fill="#000000">+ Red()</text>
<text text-anchor="start" x="1199.5" y="-888.5" font-family="Helvetica,sans-Serif" font-size="10.00" fill="#000000">+ Green()</text>
<text text-anchor="start" x="1199.5" y="-877.5" font-family="Helvetica,sans-Serif" font-size="10.00" fill="#000000">+ Blue()</text>
<text text-anchor="start" x="1199.5" y="-866.5" font-family="Helvetica,sans-Serif" font-size="10.00" fill="#000000">+ Yellow()</text>
<text text-anchor="start" x="1199.5" y="-855.5" font-family="Helvetica,sans-Serif" font-size="10.00" fill="#000000">+ Magenta()</text>
<text text-anchor="start" x="1199.5" y="-844.5" font-family="Helvetica,sans-Serif" font-size="10.00" fill="#000000">+ Cyan()</text>
<text text-anchor="start" x="1199.5" y="-833.5" font-family="Helvetica,sans-Serif" font-size="10.00" fill="#000000">+ White()</text>
<text text-anchor="start" x="1199.5" y="-822.5" font-family="Helvetica,sans-Serif" font-size="10.00" fill="#000000">+ Grey()</text>
<text text-anchor="start" x="1199.5" y="-811.5" font-family="Helvetica,sans-Serif" font-size="10.00" fill="#000000">+ Skin()</text>
<text text-anchor="start" x="1199.5" y="-800.5" font-family="Helvetica,sans-Serif" font-size="10.00" fill="#000000">+ fromChars()</text>
<text text-anchor="start" x="1199.5" y="-789.5" font-family="Helvetica,sans-Serif" font-size="10.00" fill="#000000">+ fromRGBA32()</text>
<text text-anchor="start" x="1199.5" y="-778.5" font-family="Helvetica,sans-Serif" font-size="10.00" fill="#000000">+ fromARGB32()</text>
<text text-anchor="start" x="1199.5" y="-767.5" font-family="Helvetica,sans-Serif" font-size="10.00" fill="#000000">+ fromHSV()</text>
<text text-anchor="start" x="1199.5" y="-756.5" font-family="Helvetica,sans-Serif" font-size="10.00" fill="#000000">+ scatter()</text>
</a>
</g>
</g>
<!-- Node14&#45;&gt;Node12 -->
<g id="edge12" class="edge">
<title>Node14&#45;&gt;Node12</title>
<path fill="none" stroke="#ffa500" d="M1216.0207,-739.3431C1211.6243,-719.5592 1207.1746,-699.5357 1202.7993,-679.847"/>
<polygon fill="#ffa500" stroke="#ffa500" points="1212.6578,-740.3447 1218.2438,-749.3473 1219.4911,-738.8261 1212.6578,-740.3447"/>
<text text-anchor="middle" x="1241.5" y="-712" font-family="Helvetica,sans-Serif" font-size="10.00" fill="#000000"> &lt; Scalar &gt;</text>
</g>
<!-- Node15 -->
<g id="node14" class="node">
<title>Node15</title>
<polygon fill="#ffffff" stroke="#bfbfbf" points="1197.5,-1185.5 1197.5,-1253.5 1327.5,-1253.5 1327.5,-1185.5 1197.5,-1185.5"/>
<text text-anchor="start" x="1205.5" y="-1241.5" font-family="Helvetica,sans-Serif" font-size="10.00" fill="#000000">Eigen::Matrix&lt; _Scalar,</text>
<text text-anchor="middle" x="1262.5" y="-1230.5" font-family="Helvetica,sans-Serif" font-size="10.00" fill="#000000"> 4, 1 &gt;</text>
<polyline fill="none" stroke="#bfbfbf" points="1197.5,-1223.5 1327.5,-1223.5 "/>
<text text-anchor="middle" x="1262.5" y="-1211.5" font-family="Helvetica,sans-Serif" font-size="10.00" fill="#000000"> </text>
<polyline fill="none" stroke="#bfbfbf" points="1197.5,-1204.5 1327.5,-1204.5 "/>
<text text-anchor="middle" x="1262.5" y="-1192.5" font-family="Helvetica,sans-Serif" font-size="10.00" fill="#000000"> </text>
</g>
<!-- Node15&#45;&gt;Node14 -->
<g id="edge13" class="edge">
<title>Node15&#45;&gt;Node14</title>
<path fill="none" stroke="#191970" d="M1262.5,-1175.2493C1262.5,-1166.8039 1262.5,-1157.475 1262.5,-1147.559"/>
<polygon fill="none" stroke="#191970" points="1259.0001,-1175.452 1262.5,-1185.4521 1266.0001,-1175.4521 1259.0001,-1175.452"/>
</g>
<!-- Node16 -->
<g id="node15" class="node">
<title>Node16</title>
<polygon fill="#ffffff" stroke="#bfbfbf" points="1248,-452 1248,-509 1391,-509 1391,-452 1248,-452"/>
<text text-anchor="middle" x="1319.5" y="-497" font-family="Helvetica,sans-Serif" font-size="10.00" fill="#000000">anonymous:+m_spotlight</text>
<polyline fill="none" stroke="#bfbfbf" points="1248,-490 1391,-490 "/>
<text text-anchor="middle" x="1319.5" y="-478" font-family="Helvetica,sans-Serif" font-size="10.00" fill="#000000"> </text>
<polyline fill="none" stroke="#bfbfbf" points="1248,-471 1391,-471 "/>
<text text-anchor="middle" x="1319.5" y="-459" font-family="Helvetica,sans-Serif" font-size="10.00" fill="#000000"> </text>
</g>
<!-- Node16&#45;&gt;Node2 -->
<g id="edge14" class="edge">
<title>Node16&#45;&gt;Node2</title>
<path fill="none" stroke="#404040" d="M1315.0095,-451.9277C1306.9264,-409.4139 1286.1109,-329.3368 1238.5,-281 1151.72,-192.897 1012.0152,-148.1189 922.779,-127.3095"/>
<polygon fill="none" stroke="#404040" points="922.5057,-127.2475 915.7688,-129.8195 910.8036,-124.59 917.5405,-122.0181 922.5057,-127.2475"/>
<text text-anchor="middle" x="1247.5" y="-249.5" font-family="Helvetica,sans-Serif" font-size="10.00" fill="#000000"> +m_spotlight</text>
</g>
<!-- Node17 -->
<g id="node16" class="node">
<title>Node17</title>
<polygon fill="#ffffff" stroke="#bfbfbf" points="1409,-452 1409,-509 1552,-509 1552,-452 1409,-452"/>
<text text-anchor="middle" x="1480.5" y="-497" font-family="Helvetica,sans-Serif" font-size="10.00" fill="#000000">anonymous:+m_arealight</text>
<polyline fill="none" stroke="#bfbfbf" points="1409,-490 1552,-490 "/>
<text text-anchor="middle" x="1480.5" y="-478" font-family="Helvetica,sans-Serif" font-size="10.00" fill="#000000"> </text>
<polyline fill="none" stroke="#bfbfbf" points="1409,-471 1552,-471 "/>
<text text-anchor="middle" x="1480.5" y="-459" font-family="Helvetica,sans-Serif" font-size="10.00" fill="#000000"> </text>
</g>
<!-- Node17&#45;&gt;Node2 -->
<g id="edge15" class="edge">
<title>Node17&#45;&gt;Node2</title>
<path fill="none" stroke="#404040" d="M1476.6104,-451.8992C1469.3012,-408.9812 1449.5666,-327.9578 1400.5,-281 1331.418,-214.887 1061.6333,-154.6217 922.5081,-127.1557"/>
<polygon fill="none" stroke="#404040" points="922.4605,-127.1465 915.8032,-129.9177 910.6846,-124.8384 917.3419,-122.0671 922.4605,-127.1465"/>
<text text-anchor="middle" x="1405.5" y="-249.5" font-family="Helvetica,sans-Serif" font-size="10.00" fill="#000000"> +m_arealight</text>
</g>
<!-- Node18 -->
<g id="node17" class="node">
<title>Node18</title>
<polygon fill="#ffffff" stroke="#bfbfbf" points="1570.5,-452 1570.5,-509 1694.5,-509 1694.5,-452 1570.5,-452"/>
<text text-anchor="middle" x="1632.5" y="-497" font-family="Helvetica,sans-Serif" font-size="10.00" fill="#000000">Matrix&lt; Scalar, 3, 3 &gt;</text>
<polyline fill="none" stroke="#bfbfbf" points="1570.5,-490 1694.5,-490 "/>
<text text-anchor="middle" x="1632.5" y="-478" font-family="Helvetica,sans-Serif" font-size="10.00" fill="#000000"> </text>
<polyline fill="none" stroke="#bfbfbf" points="1570.5,-471 1694.5,-471 "/>
<text text-anchor="middle" x="1632.5" y="-459" font-family="Helvetica,sans-Serif" font-size="10.00" fill="#000000"> </text>
</g>
<!-- Node18&#45;&gt;Node2 -->
<g id="edge16" class="edge">
<title>Node18&#45;&gt;Node2</title>
<path fill="none" stroke="#404040" d="M1630.0657,-451.9137C1624.9083,-409.0147 1609.1067,-328.0158 1561.5,-281 1471.3485,-191.9675 1093.4125,-139.7301 922.76,-120.2715"/>
<polygon fill="none" stroke="#404040" points="922.5162,-120.2441 916.1058,-123.5467 910.5917,-118.8996 917.0021,-115.597 922.5162,-120.2441"/>
<text text-anchor="middle" x="1584.5" y="-255" font-family="Helvetica,sans-Serif" font-size="10.00" fill="#000000"> +spatialCovariance</text>
<text text-anchor="middle" x="1584.5" y="-244" font-family="Helvetica,sans-Serif" font-size="10.00" fill="#000000">+normalCovariance</text>
</g>
<!-- Node19 -->
<g id="node18" class="node">
<title>Node19</title>
<polygon fill="#ffffff" stroke="#bfbfbf" points="1712.5,-452 1712.5,-509 1836.5,-509 1836.5,-452 1712.5,-452"/>
<text text-anchor="middle" x="1774.5" y="-497" font-family="Helvetica,sans-Serif" font-size="10.00" fill="#000000">Matrix&lt; Scalar, 4, 4 &gt;</text>
<polyline fill="none" stroke="#bfbfbf" points="1712.5,-490 1836.5,-490 "/>
<text text-anchor="middle" x="1774.5" y="-478" font-family="Helvetica,sans-Serif" font-size="10.00" fill="#000000"> </text>
<polyline fill="none" stroke="#bfbfbf" points="1712.5,-471 1836.5,-471 "/>
<text text-anchor="middle" x="1774.5" y="-459" font-family="Helvetica,sans-Serif" font-size="10.00" fill="#000000"> </text>
</g>
<!-- Node19&#45;&gt;Node2 -->
<g id="edge17" class="edge">
<title>Node19&#45;&gt;Node2</title>
<path fill="none" stroke="#404040" d="M1770.4517,-451.7904C1763.3233,-410.1683 1745.137,-332.4333 1703.5,-281 1682.157,-254.6354 1670.2931,-252.8245 1638.5,-241 1389.1836,-148.2739 1071.7909,-121.8772 922.8513,-114.4125"/>
<polygon fill="none" stroke="#404040" points="922.6809,-114.4044 916.4953,-118.111 910.6948,-113.8268 916.8804,-110.1203 922.6809,-114.4044"/>
<text text-anchor="middle" x="1713.5" y="-249.5" font-family="Helvetica,sans-Serif" font-size="10.00" fill="#000000"> #m_frame</text>
</g>
<!-- Node20&#45;&gt;Node2 -->
<g id="edge18" class="edge">
<title>Node20&#45;&gt;Node2</title>
<path fill="none" stroke="#404040" d="M608.174,-446.3605C621.6808,-397.6091 651.1103,-306.6887 697.5,-241 714.1926,-217.363 735.8393,-194.8254 757.1398,-175.3732"/>
<polygon fill="none" stroke="#404040" points="757.2924,-175.2366 759.0937,-168.2541 766.2319,-167.2313 764.4306,-174.2138 757.2924,-175.2366"/>
<text text-anchor="middle" x="731.5" y="-249.5" font-family="Helvetica,sans-Serif" font-size="10.00" fill="#000000"> +attenuation</text>
</g>
</g>
</svg>
