<?xml version="1.0" encoding="UTF-8" standalone="no"?>
<!DOCTYPE svg PUBLIC "-//W3C//DTD SVG 1.1//EN"
 "http://www.w3.org/Graphics/SVG/1.1/DTD/svg11.dtd">
<!-- Generated by graphviz version 2.43.0 (0)
 -->
<!-- Title: Ra::GuiBase::TimelineScrollArea::wheelEvent Pages: 1 -->
<svg width="496pt" height="39pt"
 viewBox="0.00 0.00 496.00 39.00" xmlns="http://www.w3.org/2000/svg" xmlns:xlink="http://www.w3.org/1999/xlink">
<g id="graph0" class="graph" transform="scale(1 1) rotate(0) translate(4 35)">
<title>Ra::GuiBase::TimelineScrollArea::wheelEvent</title>
<polygon fill="white" stroke="transparent" points="-4,4 -4,-35 492,-35 492,4 -4,4"/>
<!-- Node1 -->
<g id="node1" class="node">
<title>Node1</title>
<g id="a_node1"><a xlink:title=" ">
<polygon fill="#bfbfbf" stroke="black" points="0,-0.5 0,-30.5 152,-30.5 152,-0.5 0,-0.5"/>
<text text-anchor="start" x="8" y="-18.5" font-family="Helvetica,sans-Serif" font-size="10.00">Ra::GuiBase::TimelineScroll</text>
<text text-anchor="middle" x="76" y="-7.5" font-family="Helvetica,sans-Serif" font-size="10.00">Area::wheelEvent</text>
</a>
</g>
</g>
<!-- Node2 -->
<g id="node2" class="node">
<title>Node2</title>
<g id="a_node2"><a xlink:href="classRa_1_1GuiBase_1_1TimelineScrollArea.html#abf53e0086449e5ad5c26d1e5535cdf93" target="_top" xlink:title="Force redraw with the given width.">
<polygon fill="white" stroke="black" points="188,-0.5 188,-30.5 340,-30.5 340,-0.5 188,-0.5"/>
<text text-anchor="start" x="196" y="-18.5" font-family="Helvetica,sans-Serif" font-size="10.00">Ra::GuiBase::TimelineScroll</text>
<text text-anchor="middle" x="264" y="-7.5" font-family="Helvetica,sans-Serif" font-size="10.00">Area::onDrawRuler</text>
</a>
</g>
</g>
<!-- Node1&#45;&gt;Node2 -->
<g id="edge1" class="edge">
<title>Node1&#45;&gt;Node2</title>
<path fill="none" stroke="midnightblue" d="M152.12,-15.5C160.6,-15.5 169.28,-15.5 177.87,-15.5"/>
<polygon fill="midnightblue" stroke="midnightblue" points="177.9,-19 187.9,-15.5 177.9,-12 177.9,-19"/>
</g>
<!-- Node3 -->
<g id="node3" class="node">
<title>Node3</title>
<g id="a_node3"><a xlink:href="namespaceRa_1_1Core_1_1Math.html#ace580f6f34d6a778e2a6a0c7c81646b5" target="_top" xlink:title="Component&#45;wise ceil() function on a floating&#45;point vector.">
<polygon fill="white" stroke="black" points="376,-6 376,-25 488,-25 488,-6 376,-6"/>
<text text-anchor="middle" x="432" y="-13" font-family="Helvetica,sans-Serif" font-size="10.00">Ra::Core::Math::ceil</text>
</a>
</g>
</g>
<!-- Node2&#45;&gt;Node3 -->
<g id="edge2" class="edge">
<title>Node2&#45;&gt;Node3</title>
<path fill="none" stroke="midnightblue" d="M340.23,-15.5C348.77,-15.5 357.42,-15.5 365.81,-15.5"/>
<polygon fill="midnightblue" stroke="midnightblue" points="365.9,-19 375.9,-15.5 365.9,-12 365.9,-19"/>
</g>
</g>
</svg>
