<?xml version="1.0" encoding="UTF-8" standalone="no"?>
<!DOCTYPE svg PUBLIC "-//W3C//DTD SVG 1.1//EN"
 "http://www.w3.org/Graphics/SVG/1.1/DTD/svg11.dtd">
<!-- Generated by graphviz version 2.43.0 (0)
 -->
<!-- Title: Ra::Engine::Scene::SkeletonBasedAnimationSystem Pages: 1 -->
<svg width="343pt" height="828pt"
 viewBox="0.00 0.00 342.50 828.00" xmlns="http://www.w3.org/2000/svg" xmlns:xlink="http://www.w3.org/1999/xlink">
<g id="graph0" class="graph" transform="scale(1 1) rotate(0) translate(4 824)">
<title>Ra::Engine::Scene::SkeletonBasedAnimationSystem</title>
<polygon fill="white" stroke="transparent" points="-4,4 -4,-824 338.5,-824 338.5,4 -4,4"/>
<!-- Node1 -->
<g id="node1" class="node">
<title>Node1</title>
<g id="a_node1"><a xlink:title=" ">
<polygon fill="#bfbfbf" stroke="black" points="43,-0.5 43,-222.5 246,-222.5 246,-0.5 43,-0.5"/>
<text text-anchor="start" x="51" y="-210.5" font-family="Helvetica,sans-Serif" font-size="10.00">Ra::Engine::Scene::</text>
<text text-anchor="middle" x="144.5" y="-199.5" font-family="Helvetica,sans-Serif" font-size="10.00">SkeletonBasedAnimationSystem</text>
<polyline fill="none" stroke="black" points="43,-192.5 246,-192.5 "/>
<text text-anchor="middle" x="144.5" y="-180.5" font-family="Helvetica,sans-Serif" font-size="10.00"> </text>
<polyline fill="none" stroke="black" points="43,-173.5 246,-173.5 "/>
<text text-anchor="start" x="51" y="-161.5" font-family="Helvetica,sans-Serif" font-size="10.00">+ SkeletonBasedAnimationSystem()</text>
<text text-anchor="start" x="51" y="-150.5" font-family="Helvetica,sans-Serif" font-size="10.00">+ ~SkeletonBasedAnimationSystem()</text>
<text text-anchor="start" x="51" y="-139.5" font-family="Helvetica,sans-Serif" font-size="10.00">+ SkeletonBasedAnimationSystem()</text>
<text text-anchor="start" x="51" y="-128.5" font-family="Helvetica,sans-Serif" font-size="10.00">+ operator=()</text>
<text text-anchor="start" x="51" y="-117.5" font-family="Helvetica,sans-Serif" font-size="10.00">+ enforceUpdate()</text>
<text text-anchor="start" x="51" y="-106.5" font-family="Helvetica,sans-Serif" font-size="10.00">+ generateTasks()</text>
<text text-anchor="start" x="51" y="-95.5" font-family="Helvetica,sans-Serif" font-size="10.00">+ handleAssetLoading()</text>
<text text-anchor="start" x="51" y="-84.5" font-family="Helvetica,sans-Serif" font-size="10.00">+ setXray()</text>
<text text-anchor="start" x="51" y="-73.5" font-family="Helvetica,sans-Serif" font-size="10.00">+ isXrayOn()</text>
<text text-anchor="start" x="51" y="-62.5" font-family="Helvetica,sans-Serif" font-size="10.00">+ toggleSkeleton()</text>
<text text-anchor="start" x="51" y="-51.5" font-family="Helvetica,sans-Serif" font-size="10.00">* generateTasks()</text>
<text text-anchor="start" x="51" y="-40.5" font-family="Helvetica,sans-Serif" font-size="10.00">* handleAssetLoading()</text>
<text text-anchor="start" x="51" y="-29.5" font-family="Helvetica,sans-Serif" font-size="10.00">* setXray()</text>
<text text-anchor="start" x="51" y="-18.5" font-family="Helvetica,sans-Serif" font-size="10.00">* isXrayOn()</text>
<text text-anchor="start" x="51" y="-7.5" font-family="Helvetica,sans-Serif" font-size="10.00">* toggleSkeleton()</text>
</a>
</g>
</g>
<!-- Node2 -->
<g id="node2" class="node">
<title>Node2</title>
<g id="a_node2"><a xlink:href="classRa_1_1Engine_1_1Scene_1_1System.html" target="_top" xlink:title=" ">
<polygon fill="white" stroke="black" points="65,-260.5 65,-416.5 224,-416.5 224,-260.5 65,-260.5"/>
<text text-anchor="start" x="73" y="-404.5" font-family="Helvetica,sans-Serif" font-size="10.00">Ra::Engine::Scene::</text>
<text text-anchor="middle" x="144.5" y="-393.5" font-family="Helvetica,sans-Serif" font-size="10.00">System</text>
<polyline fill="none" stroke="black" points="65,-386.5 224,-386.5 "/>
<text text-anchor="middle" x="144.5" y="-374.5" font-family="Helvetica,sans-Serif" font-size="10.00"> </text>
<polyline fill="none" stroke="black" points="65,-367.5 224,-367.5 "/>
<text text-anchor="start" x="73" y="-355.5" font-family="Helvetica,sans-Serif" font-size="10.00">+ System()</text>
<text text-anchor="start" x="73" y="-344.5" font-family="Helvetica,sans-Serif" font-size="10.00">+ ~System()</text>
<text text-anchor="start" x="73" y="-333.5" font-family="Helvetica,sans-Serif" font-size="10.00">+ handleAssetLoading()</text>
<text text-anchor="start" x="73" y="-322.5" font-family="Helvetica,sans-Serif" font-size="10.00">+ generateTasks()</text>
<text text-anchor="start" x="73" y="-311.5" font-family="Helvetica,sans-Serif" font-size="10.00">+ getEntityComponents()</text>
<text text-anchor="start" x="73" y="-300.5" font-family="Helvetica,sans-Serif" font-size="10.00">+ addComponent()</text>
<text text-anchor="start" x="73" y="-289.5" font-family="Helvetica,sans-Serif" font-size="10.00"># registerComponent()</text>
<text text-anchor="start" x="73" y="-278.5" font-family="Helvetica,sans-Serif" font-size="10.00"># unregisterComponent()</text>
<text text-anchor="start" x="73" y="-267.5" font-family="Helvetica,sans-Serif" font-size="10.00"># unregisterAllComponents()</text>
</a>
</g>
</g>
<!-- Node2&#45;&gt;Node1 -->
<g id="edge1" class="edge">
<title>Node2&#45;&gt;Node1</title>
<path fill="none" stroke="midnightblue" d="M144.5,-250.24C144.5,-241.16 144.5,-231.84 144.5,-222.55"/>
<polygon fill="none" stroke="midnightblue" points="141,-250.38 144.5,-260.38 148,-250.38 141,-250.38"/>
</g>
<!-- Node3 -->
<g id="node3" class="node">
<title>Node3</title>
<g id="a_node3"><a xlink:title=" ">
<polygon fill="white" stroke="#bfbfbf" points="68.5,-464.5 68.5,-554.5 220.5,-554.5 220.5,-464.5 68.5,-464.5"/>
<text text-anchor="start" x="76.5" y="-542.5" font-family="Helvetica,sans-Serif" font-size="10.00">std::vector&lt; std::pair</text>
<text text-anchor="start" x="76.5" y="-531.5" font-family="Helvetica,sans-Serif" font-size="10.00">&lt; const Ra::Engine::Scene</text>
<text text-anchor="start" x="76.5" y="-520.5" font-family="Helvetica,sans-Serif" font-size="10.00">::Entity *, Ra::Engine::Scene</text>
<text text-anchor="middle" x="144.5" y="-509.5" font-family="Helvetica,sans-Serif" font-size="10.00">::Component * &gt; &gt;</text>
<polyline fill="none" stroke="#bfbfbf" points="68.5,-502.5 220.5,-502.5 "/>
<text text-anchor="middle" x="144.5" y="-490.5" font-family="Helvetica,sans-Serif" font-size="10.00"> </text>
<polyline fill="none" stroke="#bfbfbf" points="68.5,-483.5 220.5,-483.5 "/>
<text text-anchor="middle" x="144.5" y="-471.5" font-family="Helvetica,sans-Serif" font-size="10.00"> </text>
</a>
</g>
</g>
<!-- Node3&#45;&gt;Node2 -->
<g id="edge2" class="edge">
<title>Node3&#45;&gt;Node2</title>
<path fill="none" stroke="#404040" d="M144.5,-464.1C144.5,-453.17 144.5,-441.07 144.5,-428.85"/>
<polygon fill="none" stroke="#404040" points="144.5,-428.61 140.5,-422.61 144.5,-416.61 148.5,-422.61 144.5,-428.61"/>
<text text-anchor="middle" x="188" y="-438" font-family="Helvetica,sans-Serif" font-size="10.00"> #m_components</text>
</g>
<!-- Node4 -->
<g id="node4" class="node">
<title>Node4</title>
<g id="a_node4"><a xlink:title=" ">
<polygon fill="white" stroke="#bfbfbf" points="0,-635.5 0,-714.5 173,-714.5 173,-635.5 0,-635.5"/>
<text text-anchor="start" x="8" y="-702.5" font-family="Helvetica,sans-Serif" font-size="10.00">pair&lt; const Ra::Engine</text>
<text text-anchor="start" x="8" y="-691.5" font-family="Helvetica,sans-Serif" font-size="10.00">::Scene::Entity *, Ra</text>
<text text-anchor="middle" x="86.5" y="-680.5" font-family="Helvetica,sans-Serif" font-size="10.00">::Engine::Scene::Component * &gt;</text>
<polyline fill="none" stroke="#bfbfbf" points="0,-673.5 173,-673.5 "/>
<text text-anchor="middle" x="86.5" y="-661.5" font-family="Helvetica,sans-Serif" font-size="10.00"> </text>
<polyline fill="none" stroke="#bfbfbf" points="0,-654.5 173,-654.5 "/>
<text text-anchor="middle" x="86.5" y="-642.5" font-family="Helvetica,sans-Serif" font-size="10.00"> </text>
</a>
</g>
</g>
<!-- Node4&#45;&gt;Node3 -->
<g id="edge3" class="edge">
<title>Node4&#45;&gt;Node3</title>
<path fill="none" stroke="#404040" d="M100.25,-635.25C107.55,-614.67 116.65,-588.99 124.71,-566.3"/>
<polygon fill="none" stroke="#404040" points="124.79,-566.05 123.03,-559.06 128.8,-554.75 130.57,-561.74 124.79,-566.05"/>
<text text-anchor="middle" x="149.5" y="-592.5" font-family="Helvetica,sans-Serif" font-size="10.00"> +elements</text>
</g>
<!-- Node5 -->
<g id="node5" class="node">
<title>Node5</title>
<g id="a_node5"><a xlink:title="STL class.">
<polygon fill="white" stroke="#bfbfbf" points="191,-646.5 191,-703.5 288,-703.5 288,-646.5 191,-646.5"/>
<text text-anchor="middle" x="239.5" y="-691.5" font-family="Helvetica,sans-Serif" font-size="10.00">std::vector&lt; T &gt;</text>
<polyline fill="none" stroke="#bfbfbf" points="191,-684.5 288,-684.5 "/>
<text text-anchor="middle" x="239.5" y="-672.5" font-family="Helvetica,sans-Serif" font-size="10.00"> </text>
<polyline fill="none" stroke="#bfbfbf" points="191,-665.5 288,-665.5 "/>
<text text-anchor="middle" x="239.5" y="-653.5" font-family="Helvetica,sans-Serif" font-size="10.00"> </text>
</a>
</g>
</g>
<!-- Node5&#45;&gt;Node3 -->
<g id="edge4" class="edge">
<title>Node5&#45;&gt;Node3</title>
<path fill="none" stroke="orange" d="M218.6,-637.34C207.62,-618.14 193.9,-594.26 181.5,-573 178.01,-567.01 174.31,-560.71 170.65,-554.5"/>
<polygon fill="orange" stroke="orange" points="215.6,-639.13 223.6,-646.08 221.67,-635.66 215.6,-639.13"/>
<text text-anchor="start" x="205.5" y="-609" font-family="Helvetica,sans-Serif" font-size="10.00"> &lt; std::pair&lt; const</text>
<text text-anchor="start" x="205.5" y="-598" font-family="Helvetica,sans-Serif" font-size="10.00"> Ra::Engine::Scene::</text>
<text text-anchor="start" x="205.5" y="-587" font-family="Helvetica,sans-Serif" font-size="10.00">Entity *, Ra::Engine</text>
<text text-anchor="middle" x="270" y="-576" font-family="Helvetica,sans-Serif" font-size="10.00">::Scene::Component * &gt; &gt;</text>
</g>
<!-- Node6 -->
<g id="node6" class="node">
<title>Node6</title>
<g id="a_node6"><a xlink:title=" ">
<polygon fill="white" stroke="#bfbfbf" points="225,-762.5 225,-819.5 254,-819.5 254,-762.5 225,-762.5"/>
<text text-anchor="middle" x="239.5" y="-807.5" font-family="Helvetica,sans-Serif" font-size="10.00">T</text>
<polyline fill="none" stroke="#bfbfbf" points="225,-800.5 254,-800.5 "/>
<text text-anchor="middle" x="239.5" y="-788.5" font-family="Helvetica,sans-Serif" font-size="10.00"> </text>
<polyline fill="none" stroke="#bfbfbf" points="225,-781.5 254,-781.5 "/>
<text text-anchor="middle" x="239.5" y="-769.5" font-family="Helvetica,sans-Serif" font-size="10.00"> </text>
</a>
</g>
</g>
<!-- Node6&#45;&gt;Node5 -->
<g id="edge5" class="edge">
<title>Node6&#45;&gt;Node5</title>
<path fill="none" stroke="#404040" d="M239.5,-762.4C239.5,-748.5 239.5,-731.39 239.5,-716.07"/>
<polygon fill="none" stroke="#404040" points="239.5,-715.74 235.5,-709.74 239.5,-703.74 243.5,-709.74 239.5,-715.74"/>
<text text-anchor="middle" x="268.5" y="-736" font-family="Helvetica,sans-Serif" font-size="10.00"> +elements</text>
</g>
</g>
</svg>
