<?xml version="1.0" encoding="UTF-8" standalone="no"?>
<!DOCTYPE svg PUBLIC "-//W3C//DTD SVG 1.1//EN"
 "http://www.w3.org/Graphics/SVG/1.1/DTD/svg11.dtd">
<!-- Generated by graphviz version 2.40.1 (20161225.0304)
 -->
<!-- Title: Ra::Core::Asset::GeometryData::setVertices Pages: 1 -->
<svg width="324pt" height="39pt"
 viewBox="0.00 0.00 324.00 39.00" xmlns="http://www.w3.org/2000/svg" xmlns:xlink="http://www.w3.org/1999/xlink">
<g id="graph0" class="graph" transform="scale(1 1) rotate(0) translate(4 35)">
<title>Ra::Core::Asset::GeometryData::setVertices</title>
<polygon fill="#ffffff" stroke="transparent" points="-4,4 -4,-35 320,-35 320,4 -4,4"/>
<!-- Node64 -->
<g id="node1" class="node">
<title>Node64</title>
<polygon fill="#bfbfbf" stroke="#000000" points="0,-.5 0,-30.5 146,-30.5 146,-.5 0,-.5"/>
<text text-anchor="start" x="8" y="-18.5" font-family="Helvetica,sans-Serif" font-size="10.00" fill="#000000">Ra::Core::Asset::Geometry</text>
<text text-anchor="middle" x="73" y="-7.5" font-family="Helvetica,sans-Serif" font-size="10.00" fill="#000000">Data::setVertices</text>
</g>
<!-- Node65 -->
<g id="node2" class="node">
<title>Node65</title>
<g id="a_node2"><a xlink:href="namespaceRa_1_1Core_1_1Asset_1_1internal.html#a64f7f19d34ef397accfef2166e8ab620" target="_top" xlink:title="Ra::Core::Asset::internal\l::copyData">
<polygon fill="#ffffff" stroke="#000000" points="182,-.5 182,-30.5 316,-30.5 316,-.5 182,-.5"/>
<text text-anchor="start" x="190" y="-18.5" font-family="Helvetica,sans-Serif" font-size="10.00" fill="#000000">Ra::Core::Asset::internal</text>
<text text-anchor="middle" x="249" y="-7.5" font-family="Helvetica,sans-Serif" font-size="10.00" fill="#000000">::copyData</text>
</a>
</g>
</g>
<!-- Node64&#45;&gt;Node65 -->
<g id="edge1" class="edge">
<title>Node64&#45;&gt;Node65</title>
<path fill="none" stroke="#191970" d="M146.1108,-15.5C154.5039,-15.5 163.083,-15.5 171.5309,-15.5"/>
<polygon fill="#191970" stroke="#191970" points="171.7489,-19.0001 181.7488,-15.5 171.7488,-12.0001 171.7489,-19.0001"/>
</g>
</g>
</svg>
