<?xml version="1.0" encoding="UTF-8" standalone="no"?>
<!DOCTYPE svg PUBLIC "-//W3C//DTD SVG 1.1//EN"
 "http://www.w3.org/Graphics/SVG/1.1/DTD/svg11.dtd">
<!-- Generated by graphviz version 2.43.0 (0)
 -->
<!-- Title: Ra::GuiBase::BaseApplication::createConnections Pages: 1 -->
<svg width="516pt" height="186pt"
 viewBox="0.00 0.00 516.00 186.00" xmlns="http://www.w3.org/2000/svg" xmlns:xlink="http://www.w3.org/1999/xlink">
<g id="graph0" class="graph" transform="scale(1 1) rotate(0) translate(4 182)">
<title>Ra::GuiBase::BaseApplication::createConnections</title>
<polygon fill="white" stroke="transparent" points="-4,4 -4,-182 512,-182 512,4 -4,4"/>
<!-- Node1 -->
<g id="node1" class="node">
<title>Node1</title>
<g id="a_node1"><a xlink:title="Create signal / slots connections.">
<polygon fill="#bfbfbf" stroke="black" points="0,-73.5 0,-103.5 161,-103.5 161,-73.5 0,-73.5"/>
<text text-anchor="start" x="8" y="-91.5" font-family="Helvetica,sans-Serif" font-size="10.00">Ra::GuiBase::BaseApplication</text>
<text text-anchor="middle" x="80.5" y="-80.5" font-family="Helvetica,sans-Serif" font-size="10.00">::createConnections</text>
</a>
</g>
</g>
<!-- Node2 -->
<g id="node2" class="node">
<title>Node2</title>
<g id="a_node2"><a xlink:href="classRa_1_1GuiBase_1_1BaseApplication.html#aa19a984e0783e70237b8050feb1a3d2a" target="_top" xlink:title=" ">
<polygon fill="white" stroke="black" points="197,-147.5 197,-177.5 358,-177.5 358,-147.5 197,-147.5"/>
<text text-anchor="start" x="205" y="-165.5" font-family="Helvetica,sans-Serif" font-size="10.00">Ra::GuiBase::BaseApplication</text>
<text text-anchor="middle" x="277.5" y="-154.5" font-family="Helvetica,sans-Serif" font-size="10.00">::appNeedsToQuit</text>
</a>
</g>
</g>
<!-- Node1&#45;&gt;Node2 -->
<g id="edge1" class="edge">
<title>Node1&#45;&gt;Node2</title>
<path fill="none" stroke="midnightblue" d="M113.46,-103.52C136.42,-114.02 168.27,-127.99 197,-138.5 202.46,-140.5 208.18,-142.47 213.94,-144.36"/>
<polygon fill="midnightblue" stroke="midnightblue" points="213.03,-147.74 223.62,-147.47 215.17,-141.08 213.03,-147.74"/>
</g>
<!-- Node3 -->
<g id="node3" class="node">
<title>Node3</title>
<g id="a_node3"><a xlink:href="classRa_1_1GuiBase_1_1BaseApplication.html#a084cf89dbf7dc52fd77286b573069458" target="_top" xlink:title=" ">
<polygon fill="white" stroke="black" points="197,-98.5 197,-128.5 358,-128.5 358,-98.5 197,-98.5"/>
<text text-anchor="start" x="205" y="-116.5" font-family="Helvetica,sans-Serif" font-size="10.00">Ra::GuiBase::BaseApplication</text>
<text text-anchor="middle" x="277.5" y="-105.5" font-family="Helvetica,sans-Serif" font-size="10.00">::askForUpdate</text>
</a>
</g>
</g>
<!-- Node1&#45;&gt;Node3 -->
<g id="edge2" class="edge">
<title>Node1&#45;&gt;Node3</title>
<path fill="none" stroke="midnightblue" d="M161.1,-98.7C169.57,-99.79 178.24,-100.9 186.82,-102"/>
<polygon fill="midnightblue" stroke="midnightblue" points="186.48,-105.49 196.84,-103.29 187.37,-98.54 186.48,-105.49"/>
</g>
<!-- Node4 -->
<g id="node4" class="node">
<title>Node4</title>
<g id="a_node4"><a xlink:href="classRa_1_1Gui_1_1WindowQt.html#a190a81dd418c60026d3579333c2cc94d" target="_top" xlink:title="call deinitializeGL if needed, with context activated">
<polygon fill="white" stroke="black" points="220.5,-49.5 220.5,-79.5 334.5,-79.5 334.5,-49.5 220.5,-49.5"/>
<text text-anchor="start" x="228.5" y="-67.5" font-family="Helvetica,sans-Serif" font-size="10.00">Ra::Gui::WindowQt::</text>
<text text-anchor="middle" x="277.5" y="-56.5" font-family="Helvetica,sans-Serif" font-size="10.00">cleanupGL</text>
</a>
</g>
</g>
<!-- Node1&#45;&gt;Node4 -->
<g id="edge3" class="edge">
<title>Node1&#45;&gt;Node4</title>
<path fill="none" stroke="midnightblue" d="M161.1,-78.7C177.42,-76.69 194.44,-74.6 210.24,-72.65"/>
<polygon fill="midnightblue" stroke="midnightblue" points="210.93,-76.1 220.43,-71.4 210.07,-69.15 210.93,-76.1"/>
</g>
<!-- Node8 -->
<g id="node8" class="node">
<title>Node8</title>
<g id="a_node8"><a xlink:href="classRa_1_1GuiBase_1_1BaseApplication.html#a525be12318745eae6c4730dd7570c7bf" target="_top" xlink:title=" ">
<polygon fill="white" stroke="black" points="197,-0.5 197,-30.5 358,-30.5 358,-0.5 197,-0.5"/>
<text text-anchor="start" x="205" y="-18.5" font-family="Helvetica,sans-Serif" font-size="10.00">Ra::GuiBase::BaseApplication</text>
<text text-anchor="middle" x="277.5" y="-7.5" font-family="Helvetica,sans-Serif" font-size="10.00">::initializeOpenGlPlugins</text>
</a>
</g>
</g>
<!-- Node1&#45;&gt;Node8 -->
<g id="edge7" class="edge">
<title>Node1&#45;&gt;Node8</title>
<path fill="none" stroke="midnightblue" d="M115.55,-73.41C138.39,-63.52 169.25,-50.61 197,-40.5 203.3,-38.2 209.93,-35.92 216.56,-33.72"/>
<polygon fill="midnightblue" stroke="midnightblue" points="217.81,-36.99 226.23,-30.56 215.64,-30.34 217.81,-36.99"/>
</g>
<!-- Node5 -->
<g id="node5" class="node">
<title>Node5</title>
<g id="a_node5"><a xlink:href="classRa_1_1Gui_1_1WindowQt.html#a38fb78373f325c1cca3b8fab9a44d30c" target="_top" xlink:title=" ">
<polygon fill="white" stroke="black" points="394,-98.5 394,-128.5 508,-128.5 508,-98.5 394,-98.5"/>
<text text-anchor="start" x="402" y="-116.5" font-family="Helvetica,sans-Serif" font-size="10.00">Ra::Gui::WindowQt::</text>
<text text-anchor="middle" x="451" y="-105.5" font-family="Helvetica,sans-Serif" font-size="10.00">deinitializeGL</text>
</a>
</g>
</g>
<!-- Node4&#45;&gt;Node5 -->
<g id="edge4" class="edge">
<title>Node4&#45;&gt;Node5</title>
<path fill="none" stroke="midnightblue" d="M331.36,-79.6C349.12,-84.68 369.12,-90.39 387.55,-95.66"/>
<polygon fill="midnightblue" stroke="midnightblue" points="386.74,-99.07 397.32,-98.45 388.67,-92.34 386.74,-99.07"/>
</g>
<!-- Node6 -->
<g id="node6" class="node">
<title>Node6</title>
<g id="a_node6"><a xlink:href="classRa_1_1Gui_1_1WindowQt.html#acd31b9e580f049491d13c16ef954d964" target="_top" xlink:title=" ">
<polygon fill="white" stroke="black" points="394,-0.5 394,-30.5 508,-30.5 508,-0.5 394,-0.5"/>
<text text-anchor="start" x="402" y="-18.5" font-family="Helvetica,sans-Serif" font-size="10.00">Ra::Gui::WindowQt::</text>
<text text-anchor="middle" x="451" y="-7.5" font-family="Helvetica,sans-Serif" font-size="10.00">doneCurrent</text>
</a>
</g>
</g>
<!-- Node4&#45;&gt;Node6 -->
<g id="edge5" class="edge">
<title>Node4&#45;&gt;Node6</title>
<path fill="none" stroke="midnightblue" d="M331.36,-49.4C349.12,-44.32 369.12,-38.61 387.55,-33.34"/>
<polygon fill="midnightblue" stroke="midnightblue" points="388.67,-36.66 397.32,-30.55 386.74,-29.93 388.67,-36.66"/>
</g>
<!-- Node7 -->
<g id="node7" class="node">
<title>Node7</title>
<g id="a_node7"><a xlink:href="classRa_1_1Gui_1_1WindowQt.html#a78476baacd2df24a260f604d02c8ddc4" target="_top" xlink:title=" ">
<polygon fill="white" stroke="black" points="394,-49.5 394,-79.5 508,-79.5 508,-49.5 394,-49.5"/>
<text text-anchor="start" x="402" y="-67.5" font-family="Helvetica,sans-Serif" font-size="10.00">Ra::Gui::WindowQt::</text>
<text text-anchor="middle" x="451" y="-56.5" font-family="Helvetica,sans-Serif" font-size="10.00">makeCurrent</text>
</a>
</g>
</g>
<!-- Node4&#45;&gt;Node7 -->
<g id="edge6" class="edge">
<title>Node4&#45;&gt;Node7</title>
<path fill="none" stroke="midnightblue" d="M334.66,-64.5C350.2,-64.5 367.23,-64.5 383.31,-64.5"/>
<polygon fill="midnightblue" stroke="midnightblue" points="383.72,-68 393.72,-64.5 383.72,-61 383.72,-68"/>
</g>
<!-- Node8&#45;&gt;Node6 -->
<g id="edge8" class="edge">
<title>Node8&#45;&gt;Node6</title>
<path fill="none" stroke="midnightblue" d="M358.23,-15.5C366.81,-15.5 375.47,-15.5 383.87,-15.5"/>
<polygon fill="midnightblue" stroke="midnightblue" points="383.96,-19 393.96,-15.5 383.96,-12 383.96,-19"/>
</g>
<!-- Node8&#45;&gt;Node7 -->
<g id="edge9" class="edge">
<title>Node8&#45;&gt;Node7</title>
<path fill="none" stroke="midnightblue" d="M331.36,-30.6C349.12,-35.68 369.12,-41.39 387.55,-46.66"/>
<polygon fill="midnightblue" stroke="midnightblue" points="386.74,-50.07 397.32,-49.45 388.67,-43.34 386.74,-50.07"/>
</g>
</g>
</svg>
