<?xml version="1.0" encoding="UTF-8" standalone="no"?>
<!DOCTYPE svg PUBLIC "-//W3C//DTD SVG 1.1//EN"
 "http://www.w3.org/Graphics/SVG/1.1/DTD/svg11.dtd">
<!-- Generated by graphviz version 2.40.1 (20161225.0304)
 -->
<!-- Title: Ra::Gui::Gizmo::findPointOnPlane Pages: 1 -->
<svg width="594pt" height="134pt"
 viewBox="0.00 0.00 594.00 134.00" xmlns="http://www.w3.org/2000/svg" xmlns:xlink="http://www.w3.org/1999/xlink">
<g id="graph0" class="graph" transform="scale(1 1) rotate(0) translate(4 130)">
<title>Ra::Gui::Gizmo::findPointOnPlane</title>
<polygon fill="#ffffff" stroke="transparent" points="-4,4 -4,-130 590,-130 590,4 -4,4"/>
<!-- Node22 -->
<g id="node1" class="node">
<title>Node22</title>
<polygon fill="#bfbfbf" stroke="#000000" points="0,-24.5 0,-54.5 138,-54.5 138,-24.5 0,-24.5"/>
<text text-anchor="start" x="8" y="-42.5" font-family="Helvetica,sans-Serif" font-size="10.00" fill="#000000">Ra::Gui::Gizmo::findPoint</text>
<text text-anchor="middle" x="69" y="-31.5" font-family="Helvetica,sans-Serif" font-size="10.00" fill="#000000">OnPlane</text>
</g>
<!-- Node23 -->
<g id="node2" class="node">
<title>Node23</title>
<g id="a_node2"><a xlink:href="classRa_1_1Engine_1_1Camera.html#a0c4e6b238f7fad5f3eb4cbd57b5a967c" target="_top" xlink:title="Ra::Engine::Camera\l::getRayFromScreen">
<polygon fill="#ffffff" stroke="#000000" points="174,-49.5 174,-79.5 288,-79.5 288,-49.5 174,-49.5"/>
<text text-anchor="start" x="182" y="-67.5" font-family="Helvetica,sans-Serif" font-size="10.00" fill="#000000">Ra::Engine::Camera</text>
<text text-anchor="middle" x="231" y="-56.5" font-family="Helvetica,sans-Serif" font-size="10.00" fill="#000000">::getRayFromScreen</text>
</a>
</g>
</g>
<!-- Node22&#45;&gt;Node23 -->
<g id="edge1" class="edge">
<title>Node22&#45;&gt;Node23</title>
<path fill="none" stroke="#191970" d="M138.1725,-50.1748C146.6097,-51.4768 155.2219,-52.8059 163.6323,-54.1037"/>
<polygon fill="#191970" stroke="#191970" points="163.3487,-57.6013 173.7656,-55.6675 164.4164,-50.6832 163.3487,-57.6013"/>
</g>
<!-- Node27 -->
<g id="node6" class="node">
<title>Node27</title>
<g id="a_node6"><a xlink:href="namespaceRa_1_1Core_1_1Geometry.html#a8b8fe68d162f9a144a127573ca436286" target="_top" xlink:title="Intersect a ray with an infinite plane defined by point A and normal. ">
<polygon fill="#ffffff" stroke="#000000" points="174.5,-.5 174.5,-30.5 287.5,-30.5 287.5,-.5 174.5,-.5"/>
<text text-anchor="start" x="182.5" y="-18.5" font-family="Helvetica,sans-Serif" font-size="10.00" fill="#000000">Ra::Core::Geometry</text>
<text text-anchor="middle" x="231" y="-7.5" font-family="Helvetica,sans-Serif" font-size="10.00" fill="#000000">::RayCastPlane</text>
</a>
</g>
</g>
<!-- Node22&#45;&gt;Node27 -->
<g id="edge5" class="edge">
<title>Node22&#45;&gt;Node27</title>
<path fill="none" stroke="#191970" d="M138.1725,-29.2522C146.8261,-27.9702 155.6637,-26.6609 164.2788,-25.3846"/>
<polygon fill="#191970" stroke="#191970" points="164.8865,-28.8329 174.2656,-23.9051 163.8606,-21.9085 164.8865,-28.8329"/>
</g>
<!-- Node24 -->
<g id="node3" class="node">
<title>Node24</title>
<g id="a_node3"><a xlink:href="classRa_1_1Engine_1_1Camera.html#a21b3924c926f5ca72551ddbe313cb785" target="_top" xlink:title="Return the position. ">
<polygon fill="#ffffff" stroke="#000000" points="324,-95.5 324,-125.5 437,-125.5 437,-95.5 324,-95.5"/>
<text text-anchor="start" x="332" y="-113.5" font-family="Helvetica,sans-Serif" font-size="10.00" fill="#000000">Ra::Engine::Camera</text>
<text text-anchor="middle" x="380.5" y="-102.5" font-family="Helvetica,sans-Serif" font-size="10.00" fill="#000000">::getPosition</text>
</a>
</g>
</g>
<!-- Node23&#45;&gt;Node24 -->
<g id="edge2" class="edge">
<title>Node23&#45;&gt;Node24</title>
<path fill="none" stroke="#191970" d="M279.9519,-79.5621C293.3143,-83.6736 307.9303,-88.1708 321.7764,-92.4312"/>
<polygon fill="#191970" stroke="#191970" points="321.1065,-95.8869 331.6936,-95.4826 323.1651,-89.1965 321.1065,-95.8869"/>
</g>
<!-- Node25 -->
<g id="node4" class="node">
<title>Node25</title>
<g id="a_node4"><a xlink:href="classRa_1_1Engine_1_1Camera.html#af768328fd395865c4fa7b677e3f5326c" target="_top" xlink:title="Return the point on the screen plane (near plane) represented by screen coordinates pix...">
<polygon fill="#ffffff" stroke="#000000" points="324,-46.5 324,-76.5 437,-76.5 437,-46.5 324,-46.5"/>
<text text-anchor="start" x="332" y="-64.5" font-family="Helvetica,sans-Serif" font-size="10.00" fill="#000000">Ra::Engine::Camera</text>
<text text-anchor="middle" x="380.5" y="-53.5" font-family="Helvetica,sans-Serif" font-size="10.00" fill="#000000">::unProject</text>
</a>
</g>
</g>
<!-- Node23&#45;&gt;Node25 -->
<g id="edge3" class="edge">
<title>Node23&#45;&gt;Node25</title>
<path fill="none" stroke="#191970" d="M288.373,-63.3487C296.5688,-63.1842 305.0596,-63.0139 313.4209,-62.8461"/>
<polygon fill="#191970" stroke="#191970" points="313.5996,-66.3433 323.5273,-62.6433 313.4591,-59.3447 313.5996,-66.3433"/>
</g>
<!-- Node26 -->
<g id="node5" class="node">
<title>Node26</title>
<g id="a_node5"><a xlink:href="classRa_1_1Engine_1_1Camera.html#a26f646767029cf0cd95478bbae9be188" target="_top" xlink:title="Return the projection matrix. ">
<polygon fill="#ffffff" stroke="#000000" points="473,-46.5 473,-76.5 586,-76.5 586,-46.5 473,-46.5"/>
<text text-anchor="start" x="481" y="-64.5" font-family="Helvetica,sans-Serif" font-size="10.00" fill="#000000">Ra::Engine::Camera</text>
<text text-anchor="middle" x="529.5" y="-53.5" font-family="Helvetica,sans-Serif" font-size="10.00" fill="#000000">::getProjMatrix</text>
</a>
</g>
</g>
<!-- Node25&#45;&gt;Node26 -->
<g id="edge4" class="edge">
<title>Node25&#45;&gt;Node26</title>
<path fill="none" stroke="#191970" d="M437.2556,-61.5C445.558,-61.5 454.1727,-61.5 462.6536,-61.5"/>
<polygon fill="#191970" stroke="#191970" points="462.9023,-65.0001 472.9022,-61.5 462.9022,-58.0001 462.9023,-65.0001"/>
</g>
<!-- Node28 -->
<g id="node7" class="node">
<title>Node28</title>
<g id="a_node7"><a xlink:href="namespaceOpenMesh.html#a575b338f0fc9ecb5393d23e977e6ac38" target="_top" xlink:title="OpenMesh::dot">
<polygon fill="#ffffff" stroke="#000000" points="336,-6 336,-25 425,-25 425,-6 336,-6"/>
<text text-anchor="middle" x="380.5" y="-13" font-family="Helvetica,sans-Serif" font-size="10.00" fill="#000000">OpenMesh::dot</text>
</a>
</g>
</g>
<!-- Node27&#45;&gt;Node28 -->
<g id="edge6" class="edge">
<title>Node27&#45;&gt;Node28</title>
<path fill="none" stroke="#191970" d="M287.5195,-15.5C299.9226,-15.5 313.0388,-15.5 325.3858,-15.5"/>
<polygon fill="#191970" stroke="#191970" points="325.5438,-19.0001 335.5437,-15.5 325.5437,-12.0001 325.5438,-19.0001"/>
</g>
</g>
</svg>
