<?xml version="1.0" encoding="UTF-8" standalone="no"?>
<!DOCTYPE svg PUBLIC "-//W3C//DTD SVG 1.1//EN"
 "http://www.w3.org/Graphics/SVG/1.1/DTD/svg11.dtd">
<!-- Generated by graphviz version 2.40.1 (20161225.0304)
 -->
<!-- Title: Ra::Core::Animation::Sequence::insertLast Pages: 1 -->
<svg width="302pt" height="88pt"
 viewBox="0.00 0.00 302.00 88.00" xmlns="http://www.w3.org/2000/svg" xmlns:xlink="http://www.w3.org/1999/xlink">
<g id="graph0" class="graph" transform="scale(1 1) rotate(0) translate(4 84)">
<title>Ra::Core::Animation::Sequence::insertLast</title>
<polygon fill="#ffffff" stroke="transparent" points="-4,4 -4,-84 298,-84 298,4 -4,4"/>
<!-- Node16 -->
<g id="node1" class="node">
<title>Node16</title>
<polygon fill="#bfbfbf" stroke="#000000" points="0,-24.5 0,-54.5 124,-54.5 124,-24.5 0,-24.5"/>
<text text-anchor="start" x="8" y="-42.5" font-family="Helvetica,sans-Serif" font-size="10.00" fill="#000000">Ra::Core::Animation</text>
<text text-anchor="middle" x="62" y="-31.5" font-family="Helvetica,sans-Serif" font-size="10.00" fill="#000000">::Sequence::insertLast</text>
</g>
<!-- Node17 -->
<g id="node2" class="node">
<title>Node17</title>
<g id="a_node2"><a xlink:href="classRa_1_1Core_1_1Animation_1_1Sequence.html#aa16e3c62fde856853caf4e5078787fc3" target="_top" xlink:title="INSERT POSE. ">
<polygon fill="#ffffff" stroke="#000000" points="160,-49.5 160,-79.5 294,-79.5 294,-49.5 160,-49.5"/>
<text text-anchor="start" x="168" y="-67.5" font-family="Helvetica,sans-Serif" font-size="10.00" fill="#000000">Ra::Core::Animation</text>
<text text-anchor="middle" x="227" y="-56.5" font-family="Helvetica,sans-Serif" font-size="10.00" fill="#000000">::Sequence::insertFrame</text>
</a>
</g>
</g>
<!-- Node16&#45;&gt;Node17 -->
<g id="edge1" class="edge">
<title>Node16&#45;&gt;Node17</title>
<path fill="none" stroke="#191970" d="M124.3794,-48.9514C132.7098,-50.2136 141.3316,-51.5199 149.8761,-52.8146"/>
<polygon fill="#191970" stroke="#191970" points="149.4376,-56.288 159.8491,-54.3256 150.4863,-49.367 149.4376,-56.288"/>
</g>
<!-- Node18 -->
<g id="node3" class="node">
<title>Node18</title>
<g id="a_node3"><a xlink:href="classRa_1_1Core_1_1Animation_1_1Sequence.html#a1d4522bf10d00c9460c90d942be875e1" target="_top" xlink:title="SIZE INTERFACE. ">
<polygon fill="#ffffff" stroke="#000000" points="170,-.5 170,-30.5 284,-30.5 284,-.5 170,-.5"/>
<text text-anchor="start" x="178" y="-18.5" font-family="Helvetica,sans-Serif" font-size="10.00" fill="#000000">Ra::Core::Animation</text>
<text text-anchor="middle" x="227" y="-7.5" font-family="Helvetica,sans-Serif" font-size="10.00" fill="#000000">::Sequence::size</text>
</a>
</g>
</g>
<!-- Node16&#45;&gt;Node18 -->
<g id="edge2" class="edge">
<title>Node16&#45;&gt;Node18</title>
<path fill="none" stroke="#191970" d="M124.3794,-30.4266C135.9552,-28.7429 148.0938,-26.9773 159.8059,-25.2737"/>
<polygon fill="#191970" stroke="#191970" points="160.5716,-28.6992 169.9636,-23.7962 159.564,-21.7721 160.5716,-28.6992"/>
</g>
</g>
</svg>
