<?xml version="1.0" encoding="UTF-8" standalone="no"?>
<!DOCTYPE svg PUBLIC "-//W3C//DTD SVG 1.1//EN"
 "http://www.w3.org/Graphics/SVG/1.1/DTD/svg11.dtd">
<!-- Generated by graphviz version 2.40.1 (20161225.0304)
 -->
<!-- Title: Ra::Core::Geometry::Line::Line Pages: 1 -->
<svg width="279pt" height="225pt"
 viewBox="0.00 0.00 279.00 224.50" xmlns="http://www.w3.org/2000/svg" xmlns:xlink="http://www.w3.org/1999/xlink">
<g id="graph0" class="graph" transform="scale(1 1) rotate(0) translate(4 220.5)">
<title>Ra::Core::Geometry::Line::Line</title>
<polygon fill="#ffffff" stroke="transparent" points="-4,4 -4,-220.5 275,-220.5 275,4 -4,4"/>
<!-- Node1 -->
<g id="node1" class="node">
<title>Node1</title>
<polygon fill="#bfbfbf" stroke="#000000" points="0,-88 0,-118 113,-118 113,-88 0,-88"/>
<text text-anchor="start" x="8" y="-106" font-family="Helvetica,sans-Serif" font-size="10.00" fill="#000000">Ra::Core::Geometry</text>
<text text-anchor="middle" x="56.5" y="-95" font-family="Helvetica,sans-Serif" font-size="10.00" fill="#000000">::Line::Line</text>
</g>
<!-- Node2 -->
<g id="node2" class="node">
<title>Node2</title>
<g id="a_node2"><a xlink:href="classRa_1_1Core_1_1Geometry_1_1Curve2D.html#a75cbb311f9a8257733e95c1420b1f836" target="_top" xlink:title="Ra::Core::Geometry\l::Curve2D::addPoint">
<polygon fill="#ffffff" stroke="#000000" points="153.5,-186 153.5,-216 266.5,-216 266.5,-186 153.5,-186"/>
<text text-anchor="start" x="161.5" y="-204" font-family="Helvetica,sans-Serif" font-size="10.00" fill="#000000">Ra::Core::Geometry</text>
<text text-anchor="middle" x="210" y="-193" font-family="Helvetica,sans-Serif" font-size="10.00" fill="#000000">::Curve2D::addPoint</text>
</a>
</g>
</g>
<!-- Node1&#45;&gt;Node2 -->
<g id="edge1" class="edge">
<title>Node1&#45;&gt;Node2</title>
<path fill="none" stroke="#191970" d="M72.4435,-118.2548C90.0585,-134.4845 119.8112,-160.1014 149,-177 151.807,-178.6251 154.745,-180.1858 157.75,-181.6763"/>
<polygon fill="#191970" stroke="#191970" points="156.3591,-184.8893 166.9026,-185.9314 159.3102,-178.5418 156.3591,-184.8893"/>
</g>
<!-- Node3 -->
<g id="node3" class="node">
<title>Node3</title>
<g id="a_node3"><a xlink:href="classRa_1_1Core_1_1Geometry_1_1Curve2D.html#aeed58c1d1a26b075000a395f16f85dbf" target="_top" xlink:title="Ra::Core::Geometry\l::Curve2D::f">
<polygon fill="#ffffff" stroke="#000000" points="153.5,-137 153.5,-167 266.5,-167 266.5,-137 153.5,-137"/>
<text text-anchor="start" x="161.5" y="-155" font-family="Helvetica,sans-Serif" font-size="10.00" fill="#000000">Ra::Core::Geometry</text>
<text text-anchor="middle" x="210" y="-144" font-family="Helvetica,sans-Serif" font-size="10.00" fill="#000000">::Curve2D::f</text>
</a>
</g>
</g>
<!-- Node1&#45;&gt;Node3 -->
<g id="edge2" class="edge">
<title>Node1&#45;&gt;Node3</title>
<path fill="none" stroke="#191970" d="M103.8076,-118.1014C119.3458,-123.0615 136.7816,-128.6274 152.9634,-133.7929"/>
<polygon fill="#191970" stroke="#191970" points="152.2579,-137.2416 162.8486,-136.9484 154.3866,-130.5731 152.2579,-137.2416"/>
</g>
<!-- Node4 -->
<g id="node4" class="node">
<title>Node4</title>
<g id="a_node4"><a xlink:href="classRa_1_1Core_1_1Geometry_1_1Curve2D.html#a2c2d332865946a9d26b80cb93a833cad" target="_top" xlink:title="Ra::Core::Geometry\l::Curve2D::df">
<polygon fill="#ffffff" stroke="#000000" points="153.5,-88 153.5,-118 266.5,-118 266.5,-88 153.5,-88"/>
<text text-anchor="start" x="161.5" y="-106" font-family="Helvetica,sans-Serif" font-size="10.00" fill="#000000">Ra::Core::Geometry</text>
<text text-anchor="middle" x="210" y="-95" font-family="Helvetica,sans-Serif" font-size="10.00" fill="#000000">::Curve2D::df</text>
</a>
</g>
</g>
<!-- Node1&#45;&gt;Node4 -->
<g id="edge3" class="edge">
<title>Node1&#45;&gt;Node4</title>
<path fill="none" stroke="#191970" d="M113.2216,-103C122.9195,-103 133.0762,-103 143.011,-103"/>
<polygon fill="#191970" stroke="#191970" points="143.2554,-106.5001 153.2554,-103 143.2554,-99.5001 143.2554,-106.5001"/>
</g>
<!-- Node5 -->
<g id="node5" class="node">
<title>Node5</title>
<g id="a_node5"><a xlink:href="classRa_1_1Core_1_1Geometry_1_1Curve2D.html#a4e16070b11d27b245adeae7d7c976932" target="_top" xlink:title="Ra::Core::Geometry\l::Curve2D::fdf">
<polygon fill="#ffffff" stroke="#000000" points="153.5,-39 153.5,-69 266.5,-69 266.5,-39 153.5,-39"/>
<text text-anchor="start" x="161.5" y="-57" font-family="Helvetica,sans-Serif" font-size="10.00" fill="#000000">Ra::Core::Geometry</text>
<text text-anchor="middle" x="210" y="-46" font-family="Helvetica,sans-Serif" font-size="10.00" fill="#000000">::Curve2D::fdf</text>
</a>
</g>
</g>
<!-- Node1&#45;&gt;Node5 -->
<g id="edge4" class="edge">
<title>Node1&#45;&gt;Node5</title>
<path fill="none" stroke="#191970" d="M103.8076,-87.8986C119.3458,-82.9385 136.7816,-77.3726 152.9634,-72.2071"/>
<polygon fill="#191970" stroke="#191970" points="154.3866,-75.4269 162.8486,-69.0516 152.2579,-68.7584 154.3866,-75.4269"/>
</g>
<!-- Node6 -->
<g id="node6" class="node">
<title>Node6</title>
<g id="a_node6"><a xlink:href="namespaceRa_1_1Core_1_1Geometry.html#aa04e6052d8911b1df1bd881474debb45" target="_top" xlink:title="Ra::Core::Geometry::t">
<polygon fill="#ffffff" stroke="#000000" points="149,-.5 149,-19.5 271,-19.5 271,-.5 149,-.5"/>
<text text-anchor="middle" x="210" y="-7.5" font-family="Helvetica,sans-Serif" font-size="10.00" fill="#000000">Ra::Core::Geometry::t</text>
</a>
</g>
</g>
<!-- Node1&#45;&gt;Node6 -->
<g id="edge5" class="edge">
<title>Node1&#45;&gt;Node6</title>
<path fill="none" stroke="#191970" d="M71.9797,-87.9352C89.4276,-71.6719 119.2562,-45.9595 149,-30 153.7875,-27.4312 158.9638,-25.1154 164.207,-23.0496"/>
<polygon fill="#191970" stroke="#191970" points="165.4563,-26.3195 173.6479,-19.6001 163.054,-19.7446 165.4563,-26.3195"/>
</g>
</g>
</svg>
