<?xml version="1.0" encoding="UTF-8" standalone="no"?>
<!DOCTYPE svg PUBLIC "-//W3C//DTD SVG 1.1//EN"
 "http://www.w3.org/Graphics/SVG/1.1/DTD/svg11.dtd">
<!-- Generated by graphviz version 2.43.0 (0)
 -->
<!-- Title: Ra::Engine::Scene::DebugComponent::getRenderObject Pages: 1 -->
<svg width="689pt" height="100pt"
 viewBox="0.00 0.00 689.00 99.50" xmlns="http://www.w3.org/2000/svg" xmlns:xlink="http://www.w3.org/1999/xlink">
<g id="graph0" class="graph" transform="scale(1 1) rotate(0) translate(4 95.5)">
<title>Ra::Engine::Scene::DebugComponent::getRenderObject</title>
<polygon fill="white" stroke="transparent" points="-4,4 -4,-95.5 685,-95.5 685,4 -4,4"/>
<!-- Node1 -->
<g id="node1" class="node">
<title>Node1</title>
<g id="a_node1"><a xlink:title="Access render object through RO manager.">
<polygon fill="#bfbfbf" stroke="black" points="0,-27.5 0,-57.5 192,-57.5 192,-27.5 0,-27.5"/>
<text text-anchor="start" x="8" y="-45.5" font-family="Helvetica,sans-Serif" font-size="10.00">Ra::Engine::Scene::</text>
<text text-anchor="middle" x="96" y="-34.5" font-family="Helvetica,sans-Serif" font-size="10.00">DebugComponent::getRenderObject</text>
</a>
</g>
</g>
<!-- Node2 -->
<g id="node2" class="node">
<title>Node2</title>
<g id="a_node2"><a xlink:href="classRa_1_1Engine_1_1Rendering_1_1RenderObjectManager.html#abe7be820a363366c0a5f2f5f45212f59" target="_top" xlink:title=" ">
<polygon fill="white" stroke="black" points="228,-50 228,-91 359,-91 359,-50 228,-50"/>
<text text-anchor="start" x="236" y="-79" font-family="Helvetica,sans-Serif" font-size="10.00">Ra::Engine::Rendering</text>
<text text-anchor="start" x="236" y="-68" font-family="Helvetica,sans-Serif" font-size="10.00">::RenderObjectManager</text>
<text text-anchor="middle" x="293.5" y="-57" font-family="Helvetica,sans-Serif" font-size="10.00">::getRenderObject</text>
</a>
</g>
</g>
<!-- Node1&#45;&gt;Node2 -->
<g id="edge1" class="edge">
<title>Node1&#45;&gt;Node2</title>
<path fill="none" stroke="midnightblue" d="M192.17,-56.13C200.8,-57.37 209.46,-58.61 217.87,-59.81"/>
<polygon fill="midnightblue" stroke="midnightblue" points="217.6,-63.31 228,-61.26 218.59,-56.38 217.6,-63.31"/>
</g>
<!-- Node5 -->
<g id="node5" class="node">
<title>Node5</title>
<g id="a_node5"><a xlink:href="classRa_1_1Engine_1_1Scene_1_1Component.html#a32a4bfb4e9b24644d680db3852099ff3" target="_top" xlink:title="Shortcut to access the render object manager.">
<polygon fill="white" stroke="black" points="230.5,-0.5 230.5,-30.5 356.5,-30.5 356.5,-0.5 230.5,-0.5"/>
<text text-anchor="start" x="238.5" y="-18.5" font-family="Helvetica,sans-Serif" font-size="10.00">Ra::Engine::Scene::</text>
<text text-anchor="middle" x="293.5" y="-7.5" font-family="Helvetica,sans-Serif" font-size="10.00">Component::getRoMgr</text>
</a>
</g>
</g>
<!-- Node1&#45;&gt;Node5 -->
<g id="edge4" class="edge">
<title>Node1&#45;&gt;Node5</title>
<path fill="none" stroke="midnightblue" d="M192.17,-29.36C201.63,-28.05 211.11,-26.74 220.28,-25.47"/>
<polygon fill="midnightblue" stroke="midnightblue" points="221.04,-28.9 230.47,-24.07 220.08,-21.97 221.04,-28.9"/>
</g>
<!-- Node3 -->
<g id="node3" class="node">
<title>Node3</title>
<g id="a_node3"><a xlink:href="classRa_1_1Engine_1_1Rendering_1_1RenderObjectManager.html#ae3edd3941dd9eee4cb1988318e47a4ca" target="_top" xlink:title=" ">
<polygon fill="white" stroke="black" points="395,-50 395,-91 526,-91 526,-50 395,-50"/>
<text text-anchor="start" x="403" y="-79" font-family="Helvetica,sans-Serif" font-size="10.00">Ra::Engine::Rendering</text>
<text text-anchor="start" x="403" y="-68" font-family="Helvetica,sans-Serif" font-size="10.00">::RenderObjectManager</text>
<text text-anchor="middle" x="460.5" y="-57" font-family="Helvetica,sans-Serif" font-size="10.00">::exists</text>
</a>
</g>
</g>
<!-- Node2&#45;&gt;Node3 -->
<g id="edge2" class="edge">
<title>Node2&#45;&gt;Node3</title>
<path fill="none" stroke="midnightblue" d="M359.24,-70.5C367.58,-70.5 376.18,-70.5 384.67,-70.5"/>
<polygon fill="midnightblue" stroke="midnightblue" points="384.95,-74 394.95,-70.5 384.95,-67 384.95,-74"/>
</g>
<!-- Node4 -->
<g id="node4" class="node">
<title>Node4</title>
<g id="a_node4"><a xlink:href="classRa_1_1Core_1_1Utils_1_1Index.html#ac1a3e02d77abd15c2a307673f5b67fa1" target="_top" xlink:title="VALID.">
<polygon fill="white" stroke="black" points="562,-55.5 562,-85.5 681,-85.5 681,-55.5 562,-55.5"/>
<text text-anchor="start" x="570" y="-73.5" font-family="Helvetica,sans-Serif" font-size="10.00">Ra::Core::Utils::Index</text>
<text text-anchor="middle" x="621.5" y="-62.5" font-family="Helvetica,sans-Serif" font-size="10.00">::isValid</text>
</a>
</g>
</g>
<!-- Node3&#45;&gt;Node4 -->
<g id="edge3" class="edge">
<title>Node3&#45;&gt;Node4</title>
<path fill="none" stroke="midnightblue" d="M526.17,-70.5C534.55,-70.5 543.15,-70.5 551.59,-70.5"/>
<polygon fill="midnightblue" stroke="midnightblue" points="551.77,-74 561.77,-70.5 551.77,-67 551.77,-74"/>
</g>
</g>
</svg>
