<?xml version="1.0" encoding="UTF-8" standalone="no"?>
<!DOCTYPE svg PUBLIC "-//W3C//DTD SVG 1.1//EN"
 "http://www.w3.org/Graphics/SVG/1.1/DTD/svg11.dtd">
<!-- Generated by graphviz version 2.43.0 (0)
 -->
<!-- Title: Ra::Engine::Material Pages: 1 -->
<svg width="719pt" height="700pt"
 viewBox="0.00 0.00 718.50 700.00" xmlns="http://www.w3.org/2000/svg" xmlns:xlink="http://www.w3.org/1999/xlink">
<g id="graph0" class="graph" transform="scale(1 1) rotate(0) translate(4 696)">
<title>Ra::Engine::Material</title>
<polygon fill="white" stroke="transparent" points="-4,4 -4,-696 714.5,-696 714.5,4 -4,4"/>
<!-- Node1 -->
<g id="node1" class="node">
<title>Node1</title>
<g id="a_node1"><a xlink:title=" ">
<polygon fill="#bfbfbf" stroke="black" points="299.5,-364.5 299.5,-542.5 424.5,-542.5 424.5,-364.5 299.5,-364.5"/>
<text text-anchor="middle" x="362" y="-530.5" font-family="Helvetica,sans-Serif" font-size="10.00">Ra::Engine::Material</text>
<polyline fill="none" stroke="black" points="299.5,-523.5 424.5,-523.5 "/>
<text text-anchor="start" x="307.5" y="-511.5" font-family="Helvetica,sans-Serif" font-size="10.00"># m_instanceName</text>
<text text-anchor="start" x="307.5" y="-500.5" font-family="Helvetica,sans-Serif" font-size="10.00"># m_aspect</text>
<text text-anchor="start" x="307.5" y="-489.5" font-family="Helvetica,sans-Serif" font-size="10.00"># m_isDirty</text>
<polyline fill="none" stroke="black" points="299.5,-482.5 424.5,-482.5 "/>
<text text-anchor="start" x="307.5" y="-470.5" font-family="Helvetica,sans-Serif" font-size="10.00">+ ~Material()</text>
<text text-anchor="start" x="307.5" y="-459.5" font-family="Helvetica,sans-Serif" font-size="10.00">+ getInstanceName()</text>
<text text-anchor="start" x="307.5" y="-448.5" font-family="Helvetica,sans-Serif" font-size="10.00">+ getMaterialName()</text>
<text text-anchor="start" x="307.5" y="-437.5" font-family="Helvetica,sans-Serif" font-size="10.00">+ setMaterialAspect()</text>
<text text-anchor="start" x="307.5" y="-426.5" font-family="Helvetica,sans-Serif" font-size="10.00">+ getMaterialAspect()</text>
<text text-anchor="start" x="307.5" y="-415.5" font-family="Helvetica,sans-Serif" font-size="10.00">+ isTransparent()</text>
<text text-anchor="start" x="307.5" y="-404.5" font-family="Helvetica,sans-Serif" font-size="10.00">+ getPropertyList()</text>
<text text-anchor="start" x="307.5" y="-393.5" font-family="Helvetica,sans-Serif" font-size="10.00">+ needUpdate()</text>
<text text-anchor="start" x="307.5" y="-382.5" font-family="Helvetica,sans-Serif" font-size="10.00"># Material()</text>
<text text-anchor="start" x="307.5" y="-371.5" font-family="Helvetica,sans-Serif" font-size="10.00"># setMaterialName()</text>
</a>
</g>
</g>
<!-- Node3 -->
<g id="node3" class="node">
<title>Node3</title>
<g id="a_node3"><a xlink:href="classRa_1_1Engine_1_1BlinnPhongMaterial.html" target="_top" xlink:title=" ">
<polygon fill="white" stroke="black" points="0,-127.5 0,-327.5 170,-327.5 170,-127.5 0,-127.5"/>
<text text-anchor="middle" x="85" y="-315.5" font-family="Helvetica,sans-Serif" font-size="10.00">Ra::Engine::BlinnPhongMaterial</text>
<polyline fill="none" stroke="black" points="0,-308.5 170,-308.5 "/>
<text text-anchor="start" x="8" y="-296.5" font-family="Helvetica,sans-Serif" font-size="10.00">+ m_kd</text>
<text text-anchor="start" x="8" y="-285.5" font-family="Helvetica,sans-Serif" font-size="10.00">+ m_ks</text>
<text text-anchor="start" x="8" y="-274.5" font-family="Helvetica,sans-Serif" font-size="10.00">+ m_ns</text>
<text text-anchor="start" x="8" y="-263.5" font-family="Helvetica,sans-Serif" font-size="10.00">+ m_alpha</text>
<text text-anchor="start" x="8" y="-252.5" font-family="Helvetica,sans-Serif" font-size="10.00">+ m_perVertexColor</text>
<text text-anchor="start" x="8" y="-241.5" font-family="Helvetica,sans-Serif" font-size="10.00">+ m_renderAsSplat</text>
<polyline fill="none" stroke="black" points="0,-234.5 170,-234.5 "/>
<text text-anchor="start" x="8" y="-222.5" font-family="Helvetica,sans-Serif" font-size="10.00">+ BlinnPhongMaterial()</text>
<text text-anchor="start" x="8" y="-211.5" font-family="Helvetica,sans-Serif" font-size="10.00">+ ~BlinnPhongMaterial()</text>
<text text-anchor="start" x="8" y="-200.5" font-family="Helvetica,sans-Serif" font-size="10.00">+ updateGL()</text>
<text text-anchor="start" x="8" y="-189.5" font-family="Helvetica,sans-Serif" font-size="10.00">+ isTransparent()</text>
<text text-anchor="start" x="8" y="-178.5" font-family="Helvetica,sans-Serif" font-size="10.00">+ addTexture()</text>
<text text-anchor="start" x="8" y="-167.5" font-family="Helvetica,sans-Serif" font-size="10.00">+ getTexture()</text>
<text text-anchor="start" x="8" y="-156.5" font-family="Helvetica,sans-Serif" font-size="10.00">+ addTexture()</text>
<text text-anchor="start" x="8" y="-145.5" font-family="Helvetica,sans-Serif" font-size="10.00">+ registerMaterial()</text>
<text text-anchor="start" x="8" y="-134.5" font-family="Helvetica,sans-Serif" font-size="10.00">+ unregisterMaterial()</text>
</a>
</g>
</g>
<!-- Node1&#45;&gt;Node3 -->
<g id="edge2" class="edge">
<title>Node1&#45;&gt;Node3</title>
<path fill="none" stroke="midnightblue" d="M290.7,-409.13C255.74,-386.6 213.79,-357.63 179,-328 176.02,-325.46 173.02,-322.83 170.04,-320.14"/>
<polygon fill="none" stroke="midnightblue" points="289.12,-412.27 299.43,-414.71 292.89,-406.38 289.12,-412.27"/>
</g>
<!-- Node4 -->
<g id="node4" class="node">
<title>Node4</title>
<g id="a_node4"><a xlink:href="classRa_1_1Engine_1_1RawShaderMaterial.html" target="_top" xlink:title=" ">
<polygon fill="white" stroke="black" points="188,-149.5 188,-305.5 358,-305.5 358,-149.5 188,-149.5"/>
<text text-anchor="middle" x="273" y="-293.5" font-family="Helvetica,sans-Serif" font-size="10.00">Ra::Engine::RawShaderMaterial</text>
<polyline fill="none" stroke="black" points="188,-286.5 358,-286.5 "/>
<text text-anchor="middle" x="273" y="-274.5" font-family="Helvetica,sans-Serif" font-size="10.00"> </text>
<polyline fill="none" stroke="black" points="188,-267.5 358,-267.5 "/>
<text text-anchor="start" x="196" y="-255.5" font-family="Helvetica,sans-Serif" font-size="10.00">+ RawShaderMaterial()</text>
<text text-anchor="start" x="196" y="-244.5" font-family="Helvetica,sans-Serif" font-size="10.00">+ ~RawShaderMaterial()</text>
<text text-anchor="start" x="196" y="-233.5" font-family="Helvetica,sans-Serif" font-size="10.00">+ RawShaderMaterial()</text>
<text text-anchor="start" x="196" y="-222.5" font-family="Helvetica,sans-Serif" font-size="10.00">+ getParameters()</text>
<text text-anchor="start" x="196" y="-211.5" font-family="Helvetica,sans-Serif" font-size="10.00">+ getParameters()</text>
<text text-anchor="start" x="196" y="-200.5" font-family="Helvetica,sans-Serif" font-size="10.00">+ registerDefaultTechnique()</text>
<text text-anchor="start" x="196" y="-189.5" font-family="Helvetica,sans-Serif" font-size="10.00">+ updateShaders()</text>
<text text-anchor="start" x="196" y="-178.5" font-family="Helvetica,sans-Serif" font-size="10.00">+ updateGL()</text>
<text text-anchor="start" x="196" y="-167.5" font-family="Helvetica,sans-Serif" font-size="10.00">+ registerMaterial()</text>
<text text-anchor="start" x="196" y="-156.5" font-family="Helvetica,sans-Serif" font-size="10.00">+ unregisterMaterial()</text>
</a>
</g>
</g>
<!-- Node1&#45;&gt;Node4 -->
<g id="edge3" class="edge">
<title>Node1&#45;&gt;Node4</title>
<path fill="none" stroke="midnightblue" d="M323.14,-354.7C316.63,-338.31 309.96,-321.51 303.69,-305.74"/>
<polygon fill="none" stroke="midnightblue" points="320.01,-356.29 326.95,-364.29 326.51,-353.71 320.01,-356.29"/>
</g>
<!-- Node5 -->
<g id="node5" class="node">
<title>Node5</title>
<g id="a_node5"><a xlink:href="classRa_1_1Engine_1_1SimpleMaterial.html" target="_top" xlink:title=" ">
<polygon fill="white" stroke="black" points="376.5,-166 376.5,-289 525.5,-289 525.5,-166 376.5,-166"/>
<text text-anchor="middle" x="451" y="-277" font-family="Helvetica,sans-Serif" font-size="10.00">Ra::Engine::SimpleMaterial</text>
<polyline fill="none" stroke="black" points="376.5,-270 525.5,-270 "/>
<text text-anchor="start" x="384.5" y="-258" font-family="Helvetica,sans-Serif" font-size="10.00">+ m_color</text>
<text text-anchor="start" x="384.5" y="-247" font-family="Helvetica,sans-Serif" font-size="10.00">+ m_perVertexColor</text>
<polyline fill="none" stroke="black" points="376.5,-240 525.5,-240 "/>
<text text-anchor="start" x="384.5" y="-228" font-family="Helvetica,sans-Serif" font-size="10.00">+ SimpleMaterial()</text>
<text text-anchor="start" x="384.5" y="-217" font-family="Helvetica,sans-Serif" font-size="10.00">+ ~SimpleMaterial()</text>
<text text-anchor="start" x="384.5" y="-206" font-family="Helvetica,sans-Serif" font-size="10.00">+ updateGL()</text>
<text text-anchor="start" x="384.5" y="-195" font-family="Helvetica,sans-Serif" font-size="10.00">+ addTexture()</text>
<text text-anchor="start" x="384.5" y="-184" font-family="Helvetica,sans-Serif" font-size="10.00">+ addTexture()</text>
<text text-anchor="start" x="384.5" y="-173" font-family="Helvetica,sans-Serif" font-size="10.00">+ getTexture()</text>
</a>
</g>
</g>
<!-- Node1&#45;&gt;Node5 -->
<g id="edge4" class="edge">
<title>Node1&#45;&gt;Node5</title>
<path fill="none" stroke="midnightblue" d="M400.83,-354.76C409.72,-332.4 418.91,-309.27 426.96,-289.01"/>
<polygon fill="none" stroke="midnightblue" points="397.49,-353.71 397.05,-364.29 403.99,-356.29 397.49,-353.71"/>
</g>
<!-- Node8 -->
<g id="node8" class="node">
<title>Node8</title>
<g id="a_node8"><a xlink:href="classRa_1_1Engine_1_1VolumetricMaterial.html" target="_top" xlink:title=" ">
<polygon fill="white" stroke="black" points="543.5,-133 543.5,-322 710.5,-322 710.5,-133 543.5,-133"/>
<text text-anchor="middle" x="627" y="-310" font-family="Helvetica,sans-Serif" font-size="10.00">Ra::Engine::VolumetricMaterial</text>
<polyline fill="none" stroke="black" points="543.5,-303 710.5,-303 "/>
<text text-anchor="start" x="551.5" y="-291" font-family="Helvetica,sans-Serif" font-size="10.00">+ m_sigma_a</text>
<text text-anchor="start" x="551.5" y="-280" font-family="Helvetica,sans-Serif" font-size="10.00">+ m_sigma_s</text>
<text text-anchor="start" x="551.5" y="-269" font-family="Helvetica,sans-Serif" font-size="10.00">+ m_g</text>
<text text-anchor="start" x="551.5" y="-258" font-family="Helvetica,sans-Serif" font-size="10.00">+ m_scale</text>
<text text-anchor="start" x="551.5" y="-247" font-family="Helvetica,sans-Serif" font-size="10.00">+ m_stepsize</text>
<text text-anchor="start" x="551.5" y="-236" font-family="Helvetica,sans-Serif" font-size="10.00">+ m_modelToMedium</text>
<polyline fill="none" stroke="black" points="543.5,-229 710.5,-229 "/>
<text text-anchor="start" x="551.5" y="-217" font-family="Helvetica,sans-Serif" font-size="10.00">+ VolumetricMaterial()</text>
<text text-anchor="start" x="551.5" y="-206" font-family="Helvetica,sans-Serif" font-size="10.00">+ ~VolumetricMaterial()</text>
<text text-anchor="start" x="551.5" y="-195" font-family="Helvetica,sans-Serif" font-size="10.00">+ updateGL()</text>
<text text-anchor="start" x="551.5" y="-184" font-family="Helvetica,sans-Serif" font-size="10.00">+ isTransparent()</text>
<text text-anchor="start" x="551.5" y="-173" font-family="Helvetica,sans-Serif" font-size="10.00">+ setTexture()</text>
<text text-anchor="start" x="551.5" y="-162" font-family="Helvetica,sans-Serif" font-size="10.00">+ getTexture()</text>
<text text-anchor="start" x="551.5" y="-151" font-family="Helvetica,sans-Serif" font-size="10.00">+ registerMaterial()</text>
<text text-anchor="start" x="551.5" y="-140" font-family="Helvetica,sans-Serif" font-size="10.00">+ unregisterMaterial()</text>
</a>
</g>
</g>
<!-- Node1&#45;&gt;Node8 -->
<g id="edge7" class="edge">
<title>Node1&#45;&gt;Node8</title>
<path fill="none" stroke="midnightblue" d="M433.11,-405.64C465.04,-383.45 502.53,-355.76 534,-328 537.1,-325.26 540.22,-322.43 543.32,-319.54"/>
<polygon fill="none" stroke="midnightblue" points="430.93,-402.89 424.69,-411.45 434.91,-408.65 430.93,-402.89"/>
</g>
<!-- Node2 -->
<g id="node2" class="node">
<title>Node2</title>
<g id="a_node2"><a xlink:href="classRa_1_1Engine_1_1ShaderParameterProvider.html" target="_top" xlink:title=" ">
<polygon fill="white" stroke="black" points="278,-579.5 278,-691.5 446,-691.5 446,-579.5 278,-579.5"/>
<text text-anchor="start" x="286" y="-679.5" font-family="Helvetica,sans-Serif" font-size="10.00">Ra::Engine::ShaderParameter</text>
<text text-anchor="middle" x="362" y="-668.5" font-family="Helvetica,sans-Serif" font-size="10.00">Provider</text>
<polyline fill="none" stroke="black" points="278,-661.5 446,-661.5 "/>
<text text-anchor="start" x="286" y="-649.5" font-family="Helvetica,sans-Serif" font-size="10.00"># m_renderParameters</text>
<polyline fill="none" stroke="black" points="278,-642.5 446,-642.5 "/>
<text text-anchor="start" x="286" y="-630.5" font-family="Helvetica,sans-Serif" font-size="10.00">+ ~ShaderParameterProvider()</text>
<text text-anchor="start" x="286" y="-619.5" font-family="Helvetica,sans-Serif" font-size="10.00">+ getParameters()</text>
<text text-anchor="start" x="286" y="-608.5" font-family="Helvetica,sans-Serif" font-size="10.00">+ getParameters()</text>
<text text-anchor="start" x="286" y="-597.5" font-family="Helvetica,sans-Serif" font-size="10.00">+ updateGL()</text>
<text text-anchor="start" x="286" y="-586.5" font-family="Helvetica,sans-Serif" font-size="10.00">+ getPropertyList()</text>
</a>
</g>
</g>
<!-- Node2&#45;&gt;Node1 -->
<g id="edge1" class="edge">
<title>Node2&#45;&gt;Node1</title>
<path fill="none" stroke="midnightblue" d="M362,-568.79C362,-560.25 362,-551.4 362,-542.57"/>
<polygon fill="none" stroke="midnightblue" points="358.5,-569.03 362,-579.03 365.5,-569.03 358.5,-569.03"/>
</g>
<!-- Node6 -->
<g id="node6" class="node">
<title>Node6</title>
<g id="a_node6"><a xlink:href="classRa_1_1Engine_1_1LambertianMaterial.html" target="_top" xlink:title=" ">
<polygon fill="white" stroke="black" points="280,-0.5 280,-90.5 450,-90.5 450,-0.5 280,-0.5"/>
<text text-anchor="middle" x="365" y="-78.5" font-family="Helvetica,sans-Serif" font-size="10.00">Ra::Engine::LambertianMaterial</text>
<polyline fill="none" stroke="black" points="280,-71.5 450,-71.5 "/>
<text text-anchor="middle" x="365" y="-59.5" font-family="Helvetica,sans-Serif" font-size="10.00"> </text>
<polyline fill="none" stroke="black" points="280,-52.5 450,-52.5 "/>
<text text-anchor="start" x="288" y="-40.5" font-family="Helvetica,sans-Serif" font-size="10.00">+ LambertianMaterial()</text>
<text text-anchor="start" x="288" y="-29.5" font-family="Helvetica,sans-Serif" font-size="10.00">+ ~LambertianMaterial()</text>
<text text-anchor="start" x="288" y="-18.5" font-family="Helvetica,sans-Serif" font-size="10.00">+ registerMaterial()</text>
<text text-anchor="start" x="288" y="-7.5" font-family="Helvetica,sans-Serif" font-size="10.00">+ unregisterMaterial()</text>
</a>
</g>
</g>
<!-- Node5&#45;&gt;Node6 -->
<g id="edge5" class="edge">
<title>Node5&#45;&gt;Node6</title>
<path fill="none" stroke="midnightblue" d="M417.67,-156.75C407.06,-134.54 395.63,-110.6 386.13,-90.72"/>
<polygon fill="none" stroke="midnightblue" points="414.54,-158.3 422,-165.81 420.85,-155.28 414.54,-158.3"/>
</g>
<!-- Node7 -->
<g id="node7" class="node">
<title>Node7</title>
<g id="a_node7"><a xlink:href="classRa_1_1Engine_1_1PlainMaterial.html" target="_top" xlink:title=" ">
<polygon fill="white" stroke="black" points="468.5,-0.5 468.5,-90.5 607.5,-90.5 607.5,-0.5 468.5,-0.5"/>
<text text-anchor="middle" x="538" y="-78.5" font-family="Helvetica,sans-Serif" font-size="10.00">Ra::Engine::PlainMaterial</text>
<polyline fill="none" stroke="black" points="468.5,-71.5 607.5,-71.5 "/>
<text text-anchor="middle" x="538" y="-59.5" font-family="Helvetica,sans-Serif" font-size="10.00"> </text>
<polyline fill="none" stroke="black" points="468.5,-52.5 607.5,-52.5 "/>
<text text-anchor="start" x="476.5" y="-40.5" font-family="Helvetica,sans-Serif" font-size="10.00">+ PlainMaterial()</text>
<text text-anchor="start" x="476.5" y="-29.5" font-family="Helvetica,sans-Serif" font-size="10.00">+ ~PlainMaterial()</text>
<text text-anchor="start" x="476.5" y="-18.5" font-family="Helvetica,sans-Serif" font-size="10.00">+ registerMaterial()</text>
<text text-anchor="start" x="476.5" y="-7.5" font-family="Helvetica,sans-Serif" font-size="10.00">+ unregisterMaterial()</text>
</a>
</g>
</g>
<!-- Node5&#45;&gt;Node7 -->
<g id="edge6" class="edge">
<title>Node5&#45;&gt;Node7</title>
<path fill="none" stroke="midnightblue" d="M484.71,-156.75C495.45,-134.54 507.02,-110.6 516.63,-90.72"/>
<polygon fill="none" stroke="midnightblue" points="481.53,-155.28 480.33,-165.81 487.84,-158.33 481.53,-155.28"/>
</g>
</g>
</svg>
