<?xml version="1.0" encoding="UTF-8" standalone="no"?>
<!DOCTYPE svg PUBLIC "-//W3C//DTD SVG 1.1//EN"
 "http://www.w3.org/Graphics/SVG/1.1/DTD/svg11.dtd">
<!-- Generated by graphviz version 2.43.0 (0)
 -->
<!-- Title: Ra::Gui::TransformEditor Pages: 1 -->
<!--zoomable 1686 -->
<svg id="main" version="1.1" xmlns="http://www.w3.org/2000/svg" xmlns:xlink="http://www.w3.org/1999/xlink" xml:space="preserve" onload="init(evt)">
<style type="text/css"><![CDATA[
.edge:hover path { stroke: red; }
.edge:hover polygon { stroke: red; fill: red; }
]]></style>
<script type="text/javascript"><![CDATA[
var edges = document.getElementsByTagName('g');
if (edges && edges.length) {
  for (var i=0;i<edges.length;i++) {
    if (edges[i].id.substr(0,4)=='edge') {
      edges[i].setAttribute('class','edge');
    }
  }
}
]]></script>
        <defs>
                <circle id="rim" cx="0" cy="0" r="7"/>
                <circle id="rim2" cx="0" cy="0" r="3.5"/>
                <g id="zoomPlus">
                        <use xlink:href="#rim" fill="#404040">
                                <set attributeName="fill" to="#808080" begin="zoomplus.mouseover" end="zoomplus.mouseout"/>
                        </use>
                        <path d="M-4,0h8M0,-4v8" fill="none" stroke="white" stroke-width="1.5" pointer-events="none"/>
                </g>
                <g id="zoomMin">
                        <use xlink:href="#rim" fill="#404040">
                                <set attributeName="fill" to="#808080" begin="zoomminus.mouseover" end="zoomminus.mouseout"/>
                        </use>
                        <path d="M-4,0h8" fill="none" stroke="white" stroke-width="1.5" pointer-events="none"/>
                </g>
                <g id="dirArrow">
                        <path fill="none" stroke="white" stroke-width="1.5" d="M0,-3.0v7 M-2.5,-0.5L0,-3.0L2.5,-0.5"/>
                </g>
               <g id="resetDef">
                       <use xlink:href="#rim2" fill="#404040">
                               <set attributeName="fill" to="#808080" begin="reset.mouseover" end="reset.mouseout"/>
                       </use>
               </g>
        </defs>

<script type="text/javascript">
var viewWidth = 804;
var viewHeight = 1686;
var sectionId = 'dynsection-1';
</script>
<script xlink:href="svgpan.js"/>
<svg id="graph" class="graph">
<g id="viewport">
<title>Ra::Gui::TransformEditor</title>
<polygon fill="white" stroke="transparent" points="-4,4 -4,-1682 799.5,-1682 799.5,4 -4,4"/>
<!-- Node1 -->
<g id="node1" class="node">
<title>Node1</title>
<g id="a_node1"><a xlink:title=" ">
<polygon fill="#bfbfbf" stroke="black" points="605,-0.5 605,-134.5 740,-134.5 740,-0.5 605,-0.5"/>
<text text-anchor="middle" x="672.5" y="-122.5" font-family="Helvetica,sans-Serif" font-size="10.00">Ra::Gui::TransformEditor</text>
<polyline fill="none" stroke="black" points="605,-115.5 740,-115.5 "/>
<text text-anchor="middle" x="672.5" y="-103.5" font-family="Helvetica,sans-Serif" font-size="10.00"> </text>
<polyline fill="none" stroke="black" points="605,-96.5 740,-96.5 "/>
<text text-anchor="start" x="613" y="-84.5" font-family="Helvetica,sans-Serif" font-size="10.00">+ TransformEditor()</text>
<text text-anchor="start" x="613" y="-73.5" font-family="Helvetica,sans-Serif" font-size="10.00">+ ~TransformEditor()</text>
<text text-anchor="start" x="613" y="-62.5" font-family="Helvetica,sans-Serif" font-size="10.00">+ setEditable()</text>
<text text-anchor="start" x="613" y="-51.5" font-family="Helvetica,sans-Serif" font-size="10.00">+ updateValues()</text>
<text text-anchor="start" x="613" y="-40.5" font-family="Helvetica,sans-Serif" font-size="10.00"># getTransform()</text>
<text text-anchor="start" x="613" y="-29.5" font-family="Helvetica,sans-Serif" font-size="10.00"># setTransform()</text>
<text text-anchor="start" x="613" y="-18.5" font-family="Helvetica,sans-Serif" font-size="10.00"># canEdit()</text>
<text text-anchor="start" x="613" y="-7.5" font-family="Helvetica,sans-Serif" font-size="10.00"># getWorldTransform()</text>
</a>
</g>
</g>
<!-- Node2 -->
<g id="node2" class="node">
<title>Node2</title>
<g id="a_node2"><a xlink:href="structRa_1_1Engine_1_1Scene_1_1ItemEntry.html" target="_top" xlink:title=" ">
<polygon fill="white" stroke="black" points="542,-182.5 542,-338.5 667,-338.5 667,-182.5 542,-182.5"/>
<text text-anchor="start" x="550" y="-326.5" font-family="Helvetica,sans-Serif" font-size="10.00">Ra::Engine::Scene::</text>
<text text-anchor="middle" x="604.5" y="-315.5" font-family="Helvetica,sans-Serif" font-size="10.00">ItemEntry</text>
<polyline fill="none" stroke="black" points="542,-308.5 667,-308.5 "/>
<text text-anchor="middle" x="604.5" y="-296.5" font-family="Helvetica,sans-Serif" font-size="10.00"> </text>
<polyline fill="none" stroke="black" points="542,-289.5 667,-289.5 "/>
<text text-anchor="start" x="550" y="-277.5" font-family="Helvetica,sans-Serif" font-size="10.00">+ ItemEntry()</text>
<text text-anchor="start" x="550" y="-266.5" font-family="Helvetica,sans-Serif" font-size="10.00">+ ItemEntry()</text>
<text text-anchor="start" x="550" y="-255.5" font-family="Helvetica,sans-Serif" font-size="10.00">+ operator==()</text>
<text text-anchor="start" x="550" y="-244.5" font-family="Helvetica,sans-Serif" font-size="10.00">+ isValid()</text>
<text text-anchor="start" x="550" y="-233.5" font-family="Helvetica,sans-Serif" font-size="10.00">+ isSelectable()</text>
<text text-anchor="start" x="550" y="-222.5" font-family="Helvetica,sans-Serif" font-size="10.00">+ isEntityNode()</text>
<text text-anchor="start" x="550" y="-211.5" font-family="Helvetica,sans-Serif" font-size="10.00">+ isComponentNode()</text>
<text text-anchor="start" x="550" y="-200.5" font-family="Helvetica,sans-Serif" font-size="10.00">+ isRoNode()</text>
<text text-anchor="start" x="550" y="-189.5" font-family="Helvetica,sans-Serif" font-size="10.00">+ checkConsistency()</text>
</a>
</g>
</g>
<!-- Node2&#45;&gt;Node1 -->
<g id="edge1" class="edge">
<title>Node2&#45;&gt;Node1</title>
<path fill="none" stroke="#404040" d="M628.34,-182.49C631.65,-172.53 635.08,-162.5 638.5,-153 639.3,-150.77 640.13,-148.51 640.97,-146.23"/>
<polygon fill="none" stroke="#404040" points="641.07,-145.97 639.45,-138.95 645.31,-134.75 646.93,-141.77 641.07,-145.97"/>
<text text-anchor="middle" x="678.5" y="-156" font-family="Helvetica,sans-Serif" font-size="10.00"> #m_currentEdit</text>
</g>
<!-- Node3 -->
<g id="node3" class="node">
<title>Node3</title>
<g id="a_node3"><a xlink:href="classRa_1_1Engine_1_1Scene_1_1Component.html" target="_top" xlink:title="A component is an element that can be updated by a system. It is also linked to some other components...">
<polygon fill="white" stroke="black" points="333.5,-386.5 333.5,-641.5 499.5,-641.5 499.5,-386.5 333.5,-386.5"/>
<text text-anchor="start" x="341.5" y="-629.5" font-family="Helvetica,sans-Serif" font-size="10.00">Ra::Engine::Scene::</text>
<text text-anchor="middle" x="416.5" y="-618.5" font-family="Helvetica,sans-Serif" font-size="10.00">Component</text>
<polyline fill="none" stroke="black" points="333.5,-611.5 499.5,-611.5 "/>
<text text-anchor="middle" x="416.5" y="-599.5" font-family="Helvetica,sans-Serif" font-size="10.00"> </text>
<polyline fill="none" stroke="black" points="333.5,-592.5 499.5,-592.5 "/>
<text text-anchor="start" x="341.5" y="-580.5" font-family="Helvetica,sans-Serif" font-size="10.00">+ Component()</text>
<text text-anchor="start" x="341.5" y="-569.5" font-family="Helvetica,sans-Serif" font-size="10.00">+ ~Component()</text>
<text text-anchor="start" x="341.5" y="-558.5" font-family="Helvetica,sans-Serif" font-size="10.00">+ initialize()</text>
<text text-anchor="start" x="341.5" y="-547.5" font-family="Helvetica,sans-Serif" font-size="10.00">+ setEntity()</text>
<text text-anchor="start" x="341.5" y="-536.5" font-family="Helvetica,sans-Serif" font-size="10.00">+ getEntity()</text>
<text text-anchor="start" x="341.5" y="-525.5" font-family="Helvetica,sans-Serif" font-size="10.00">+ getName()</text>
<text text-anchor="start" x="341.5" y="-514.5" font-family="Helvetica,sans-Serif" font-size="10.00">+ setSystem()</text>
<text text-anchor="start" x="341.5" y="-503.5" font-family="Helvetica,sans-Serif" font-size="10.00">+ getSystem()</text>
<text text-anchor="start" x="341.5" y="-492.5" font-family="Helvetica,sans-Serif" font-size="10.00">+ addRenderObject()</text>
<text text-anchor="start" x="341.5" y="-481.5" font-family="Helvetica,sans-Serif" font-size="10.00">+ removeRenderObject()</text>
<text text-anchor="start" x="341.5" y="-470.5" font-family="Helvetica,sans-Serif" font-size="10.00">+ canEdit()</text>
<text text-anchor="start" x="341.5" y="-459.5" font-family="Helvetica,sans-Serif" font-size="10.00">+ getTransform()</text>
<text text-anchor="start" x="341.5" y="-448.5" font-family="Helvetica,sans-Serif" font-size="10.00">+ setTransform()</text>
<text text-anchor="start" x="341.5" y="-437.5" font-family="Helvetica,sans-Serif" font-size="10.00">+ notifyRenderObjectExpired()</text>
<text text-anchor="start" x="341.5" y="-426.5" font-family="Helvetica,sans-Serif" font-size="10.00">+ computeAabb()</text>
<text text-anchor="start" x="341.5" y="-415.5" font-family="Helvetica,sans-Serif" font-size="10.00">+ invalidateAabb()</text>
<text text-anchor="start" x="341.5" y="-404.5" font-family="Helvetica,sans-Serif" font-size="10.00">+ getRenderObjects()</text>
<text text-anchor="start" x="341.5" y="-393.5" font-family="Helvetica,sans-Serif" font-size="10.00"># getRoMgr()</text>
</a>
</g>
</g>
<!-- Node3&#45;&gt;Node2 -->
<g id="edge2" class="edge">
<title>Node3&#45;&gt;Node2</title>
<path fill="none" stroke="#404040" d="M487.35,-386.41C494.18,-376.24 501.27,-366.31 508.5,-357 516.1,-347.22 524.63,-337.42 533.39,-328.03"/>
<polygon fill="none" stroke="#404040" points="533.57,-327.85 534.81,-320.75 541.84,-319.16 540.6,-326.26 533.57,-327.85"/>
<text text-anchor="middle" x="549.5" y="-360" font-family="Helvetica,sans-Serif" font-size="10.00"> +m_component</text>
</g>
<!-- Node4 -->
<g id="node4" class="node">
<title>Node4</title>
<g id="a_node4"><a xlink:href="classRa_1_1Engine_1_1Scene_1_1System.html" target="_top" xlink:title=" ">
<polygon fill="white" stroke="black" points="95,-744.5 95,-900.5 254,-900.5 254,-744.5 95,-744.5"/>
<text text-anchor="start" x="103" y="-888.5" font-family="Helvetica,sans-Serif" font-size="10.00">Ra::Engine::Scene::</text>
<text text-anchor="middle" x="174.5" y="-877.5" font-family="Helvetica,sans-Serif" font-size="10.00">System</text>
<polyline fill="none" stroke="black" points="95,-870.5 254,-870.5 "/>
<text text-anchor="middle" x="174.5" y="-858.5" font-family="Helvetica,sans-Serif" font-size="10.00"> </text>
<polyline fill="none" stroke="black" points="95,-851.5 254,-851.5 "/>
<text text-anchor="start" x="103" y="-839.5" font-family="Helvetica,sans-Serif" font-size="10.00">+ System()</text>
<text text-anchor="start" x="103" y="-828.5" font-family="Helvetica,sans-Serif" font-size="10.00">+ ~System()</text>
<text text-anchor="start" x="103" y="-817.5" font-family="Helvetica,sans-Serif" font-size="10.00">+ handleAssetLoading()</text>
<text text-anchor="start" x="103" y="-806.5" font-family="Helvetica,sans-Serif" font-size="10.00">+ generateTasks()</text>
<text text-anchor="start" x="103" y="-795.5" font-family="Helvetica,sans-Serif" font-size="10.00">+ getEntityComponents()</text>
<text text-anchor="start" x="103" y="-784.5" font-family="Helvetica,sans-Serif" font-size="10.00">+ addComponent()</text>
<text text-anchor="start" x="103" y="-773.5" font-family="Helvetica,sans-Serif" font-size="10.00"># registerComponent()</text>
<text text-anchor="start" x="103" y="-762.5" font-family="Helvetica,sans-Serif" font-size="10.00"># unregisterComponent()</text>
<text text-anchor="start" x="103" y="-751.5" font-family="Helvetica,sans-Serif" font-size="10.00"># unregisterAllComponents()</text>
</a>
</g>
</g>
<!-- Node4&#45;&gt;Node3 -->
<g id="edge3" class="edge">
<title>Node4&#45;&gt;Node3</title>
<path fill="none" stroke="#404040" d="M225.16,-744.26C237.69,-725.91 251.31,-706.57 264.5,-689 283.29,-663.97 304.75,-638.03 325.5,-614.07"/>
<polygon fill="none" stroke="#404040" points="325.53,-614.03 326.46,-606.88 333.42,-604.98 332.49,-612.14 325.53,-614.03"/>
<text text-anchor="middle" x="316" y="-663" font-family="Helvetica,sans-Serif" font-size="10.00"> #m_system</text>
</g>
<!-- Node5 -->
<g id="node5" class="node">
<title>Node5</title>
<g id="a_node5"><a xlink:title=" ">
<polygon fill="white" stroke="#bfbfbf" points="86.5,-1014.5 86.5,-1104.5 238.5,-1104.5 238.5,-1014.5 86.5,-1014.5"/>
<text text-anchor="start" x="94.5" y="-1092.5" font-family="Helvetica,sans-Serif" font-size="10.00">std::vector&lt; std::pair</text>
<text text-anchor="start" x="94.5" y="-1081.5" font-family="Helvetica,sans-Serif" font-size="10.00">&lt; const Ra::Engine::Scene</text>
<text text-anchor="start" x="94.5" y="-1070.5" font-family="Helvetica,sans-Serif" font-size="10.00">::Entity *, Ra::Engine::Scene</text>
<text text-anchor="middle" x="162.5" y="-1059.5" font-family="Helvetica,sans-Serif" font-size="10.00">::Component * &gt; &gt;</text>
<polyline fill="none" stroke="#bfbfbf" points="86.5,-1052.5 238.5,-1052.5 "/>
<text text-anchor="middle" x="162.5" y="-1040.5" font-family="Helvetica,sans-Serif" font-size="10.00"> </text>
<polyline fill="none" stroke="#bfbfbf" points="86.5,-1033.5 238.5,-1033.5 "/>
<text text-anchor="middle" x="162.5" y="-1021.5" font-family="Helvetica,sans-Serif" font-size="10.00"> </text>
</a>
</g>
</g>
<!-- Node5&#45;&gt;Node4 -->
<g id="edge4" class="edge">
<title>Node5&#45;&gt;Node4</title>
<path fill="none" stroke="#404040" d="M164.76,-1014.3C166.21,-985.75 168.16,-947.6 169.93,-912.92"/>
<polygon fill="none" stroke="#404040" points="169.94,-912.8 166.25,-906.6 170.55,-900.81 174.24,-907.01 169.94,-912.8"/>
<text text-anchor="middle" x="211" y="-977" font-family="Helvetica,sans-Serif" font-size="10.00"> #m_components</text>
</g>
<!-- Node6 -->
<g id="node6" class="node">
<title>Node6</title>
<g id="a_node6"><a xlink:title=" ">
<polygon fill="white" stroke="#bfbfbf" points="0,-1345 0,-1424 173,-1424 173,-1345 0,-1345"/>
<text text-anchor="start" x="8" y="-1412" font-family="Helvetica,sans-Serif" font-size="10.00">pair&lt; const Ra::Engine</text>
<text text-anchor="start" x="8" y="-1401" font-family="Helvetica,sans-Serif" font-size="10.00">::Scene::Entity *, Ra</text>
<text text-anchor="middle" x="86.5" y="-1390" font-family="Helvetica,sans-Serif" font-size="10.00">::Engine::Scene::Component * &gt;</text>
<polyline fill="none" stroke="#bfbfbf" points="0,-1383 173,-1383 "/>
<text text-anchor="middle" x="86.5" y="-1371" font-family="Helvetica,sans-Serif" font-size="10.00"> </text>
<polyline fill="none" stroke="#bfbfbf" points="0,-1364 173,-1364 "/>
<text text-anchor="middle" x="86.5" y="-1352" font-family="Helvetica,sans-Serif" font-size="10.00"> </text>
</a>
</g>
</g>
<!-- Node6&#45;&gt;Node5 -->
<g id="edge5" class="edge">
<title>Node6&#45;&gt;Node5</title>
<path fill="none" stroke="#404040" d="M88.16,-1344.95C91.22,-1295.12 99.78,-1206.18 123.5,-1134 125.53,-1127.82 128.05,-1121.55 130.83,-1115.4"/>
<polygon fill="none" stroke="#404040" points="130.86,-1115.33 129.85,-1108.19 136.05,-1104.52 137.06,-1111.66 130.86,-1115.33"/>
<text text-anchor="middle" x="152.5" y="-1153.5" font-family="Helvetica,sans-Serif" font-size="10.00"> +elements</text>
</g>
<!-- Node7 -->
<g id="node7" class="node">
<title>Node7</title>
<g id="a_node7"><a xlink:title="STL class.">
<polygon fill="white" stroke="#bfbfbf" points="191,-1356 191,-1413 288,-1413 288,-1356 191,-1356"/>
<text text-anchor="middle" x="239.5" y="-1401" font-family="Helvetica,sans-Serif" font-size="10.00">std::vector&lt; T &gt;</text>
<polyline fill="none" stroke="#bfbfbf" points="191,-1394 288,-1394 "/>
<text text-anchor="middle" x="239.5" y="-1382" font-family="Helvetica,sans-Serif" font-size="10.00"> </text>
<polyline fill="none" stroke="#bfbfbf" points="191,-1375 288,-1375 "/>
<text text-anchor="middle" x="239.5" y="-1363" font-family="Helvetica,sans-Serif" font-size="10.00"> </text>
</a>
</g>
</g>
<!-- Node7&#45;&gt;Node5 -->
<g id="edge6" class="edge">
<title>Node7&#45;&gt;Node5</title>
<path fill="none" stroke="orange" d="M231.07,-1345.94C220.03,-1297.05 199.91,-1209 181.5,-1134 179.18,-1124.53 176.61,-1114.39 174.13,-1104.76"/>
<polygon fill="orange" stroke="orange" points="227.67,-1346.77 233.28,-1355.76 234.5,-1345.23 227.67,-1346.77"/>
<text text-anchor="start" x="191.5" y="-1170" font-family="Helvetica,sans-Serif" font-size="10.00"> &lt; std::pair&lt; const</text>
<text text-anchor="start" x="191.5" y="-1159" font-family="Helvetica,sans-Serif" font-size="10.00"> Ra::Engine::Scene::</text>
<text text-anchor="start" x="191.5" y="-1148" font-family="Helvetica,sans-Serif" font-size="10.00">Entity *, Ra::Engine</text>
<text text-anchor="middle" x="256" y="-1137" font-family="Helvetica,sans-Serif" font-size="10.00">::Scene::Component * &gt; &gt;</text>
</g>
<!-- Node8 -->
<g id="node8" class="node">
<title>Node8</title>
<g id="a_node8"><a xlink:title=" ">
<polygon fill="white" stroke="#bfbfbf" points="225,-1620.5 225,-1677.5 254,-1677.5 254,-1620.5 225,-1620.5"/>
<text text-anchor="middle" x="239.5" y="-1665.5" font-family="Helvetica,sans-Serif" font-size="10.00">T</text>
<polyline fill="none" stroke="#bfbfbf" points="225,-1658.5 254,-1658.5 "/>
<text text-anchor="middle" x="239.5" y="-1646.5" font-family="Helvetica,sans-Serif" font-size="10.00"> </text>
<polyline fill="none" stroke="#bfbfbf" points="225,-1639.5 254,-1639.5 "/>
<text text-anchor="middle" x="239.5" y="-1627.5" font-family="Helvetica,sans-Serif" font-size="10.00"> </text>
</a>
</g>
</g>
<!-- Node8&#45;&gt;Node7 -->
<g id="edge7" class="edge">
<title>Node8&#45;&gt;Node7</title>
<path fill="none" stroke="#404040" d="M239.5,-1620.4C239.5,-1573.73 239.5,-1479.04 239.5,-1425.23"/>
<polygon fill="none" stroke="#404040" points="239.5,-1425.12 235.5,-1419.12 239.5,-1413.12 243.5,-1419.12 239.5,-1425.12"/>
<text text-anchor="middle" x="268.5" y="-1594" font-family="Helvetica,sans-Serif" font-size="10.00"> +elements</text>
</g>
<!-- Node9 -->
<g id="node9" class="node">
<title>Node9</title>
<g id="a_node9"><a xlink:title="STL class.">
<polygon fill="white" stroke="#bfbfbf" points="274,-794 274,-851 339,-851 339,-794 274,-794"/>
<text text-anchor="middle" x="306.5" y="-839" font-family="Helvetica,sans-Serif" font-size="10.00">std::string</text>
<polyline fill="none" stroke="#bfbfbf" points="274,-832 339,-832 "/>
<text text-anchor="middle" x="306.5" y="-820" font-family="Helvetica,sans-Serif" font-size="10.00"> </text>
<polyline fill="none" stroke="#bfbfbf" points="274,-813 339,-813 "/>
<text text-anchor="middle" x="306.5" y="-801" font-family="Helvetica,sans-Serif" font-size="10.00"> </text>
</a>
</g>
</g>
<!-- Node9&#45;&gt;Node3 -->
<g id="edge8" class="edge">
<title>Node9&#45;&gt;Node3</title>
<path fill="none" stroke="#404040" d="M315.07,-793.77C323.42,-766.92 336.56,-725.08 348.5,-689 352.78,-676.06 353.74,-672.78 358.5,-660 359.33,-657.76 360.18,-655.5 361.03,-653.23"/>
<polygon fill="none" stroke="#404040" points="361.12,-653 359.51,-645.97 365.38,-641.78 366.99,-648.81 361.12,-653"/>
<text text-anchor="middle" x="386" y="-663" font-family="Helvetica,sans-Serif" font-size="10.00"> #m_name</text>
</g>
<!-- Node10 -->
<g id="node10" class="node">
<title>Node10</title>
<g id="a_node10"><a xlink:title="STL class.">
<polygon fill="white" stroke="#bfbfbf" points="256.5,-1025.5 256.5,-1093.5 360.5,-1093.5 360.5,-1025.5 256.5,-1025.5"/>
<text text-anchor="start" x="264.5" y="-1081.5" font-family="Helvetica,sans-Serif" font-size="10.00">std::basic_string&lt;</text>
<text text-anchor="middle" x="308.5" y="-1070.5" font-family="Helvetica,sans-Serif" font-size="10.00"> char &gt;</text>
<polyline fill="none" stroke="#bfbfbf" points="256.5,-1063.5 360.5,-1063.5 "/>
<text text-anchor="middle" x="308.5" y="-1051.5" font-family="Helvetica,sans-Serif" font-size="10.00"> </text>
<polyline fill="none" stroke="#bfbfbf" points="256.5,-1044.5 360.5,-1044.5 "/>
<text text-anchor="middle" x="308.5" y="-1032.5" font-family="Helvetica,sans-Serif" font-size="10.00"> </text>
</a>
</g>
</g>
<!-- Node10&#45;&gt;Node9 -->
<g id="edge9" class="edge">
<title>Node10&#45;&gt;Node9</title>
<path fill="none" stroke="midnightblue" d="M308.13,-1015.25C307.72,-967.32 307.08,-891.45 306.73,-851.01"/>
<polygon fill="none" stroke="midnightblue" points="304.63,-1015.36 308.22,-1025.33 311.63,-1015.3 304.63,-1015.36"/>
</g>
<!-- Node11 -->
<g id="node11" class="node">
<title>Node11</title>
<g id="a_node11"><a xlink:href="classRa_1_1Engine_1_1Scene_1_1Entity.html" target="_top" xlink:title="An entity is an scene element. It ties together components with a transform.">
<polygon fill="white" stroke="black" points="507.5,-689.5 507.5,-955.5 651.5,-955.5 651.5,-689.5 507.5,-689.5"/>
<text text-anchor="start" x="515.5" y="-943.5" font-family="Helvetica,sans-Serif" font-size="10.00">Ra::Engine::Scene::</text>
<text text-anchor="middle" x="579.5" y="-932.5" font-family="Helvetica,sans-Serif" font-size="10.00">Entity</text>
<polyline fill="none" stroke="black" points="507.5,-925.5 651.5,-925.5 "/>
<text text-anchor="middle" x="579.5" y="-913.5" font-family="Helvetica,sans-Serif" font-size="10.00"> </text>
<polyline fill="none" stroke="black" points="507.5,-906.5 651.5,-906.5 "/>
<text text-anchor="start" x="515.5" y="-894.5" font-family="Helvetica,sans-Serif" font-size="10.00">+ Entity()</text>
<text text-anchor="start" x="515.5" y="-883.5" font-family="Helvetica,sans-Serif" font-size="10.00">+ Entity()</text>
<text text-anchor="start" x="515.5" y="-872.5" font-family="Helvetica,sans-Serif" font-size="10.00">+ operator=()</text>
<text text-anchor="start" x="515.5" y="-861.5" font-family="Helvetica,sans-Serif" font-size="10.00">+ ~Entity()</text>
<text text-anchor="start" x="515.5" y="-850.5" font-family="Helvetica,sans-Serif" font-size="10.00">+ getName()</text>
<text text-anchor="start" x="515.5" y="-839.5" font-family="Helvetica,sans-Serif" font-size="10.00">+ rename()</text>
<text text-anchor="start" x="515.5" y="-828.5" font-family="Helvetica,sans-Serif" font-size="10.00">+ setTransform()</text>
<text text-anchor="start" x="515.5" y="-817.5" font-family="Helvetica,sans-Serif" font-size="10.00">+ setTransform()</text>
<text text-anchor="start" x="515.5" y="-806.5" font-family="Helvetica,sans-Serif" font-size="10.00">+ getTransform()</text>
<text text-anchor="start" x="515.5" y="-795.5" font-family="Helvetica,sans-Serif" font-size="10.00">+ getTransformAsMatrix()</text>
<text text-anchor="start" x="515.5" y="-784.5" font-family="Helvetica,sans-Serif" font-size="10.00">+ swapTransformBuffers()</text>
<text text-anchor="start" x="515.5" y="-773.5" font-family="Helvetica,sans-Serif" font-size="10.00">+ addComponent()</text>
<text text-anchor="start" x="515.5" y="-762.5" font-family="Helvetica,sans-Serif" font-size="10.00">+ removeComponent()</text>
<text text-anchor="start" x="515.5" y="-751.5" font-family="Helvetica,sans-Serif" font-size="10.00">+ getComponent()</text>
<text text-anchor="start" x="515.5" y="-740.5" font-family="Helvetica,sans-Serif" font-size="10.00">+ getComponent()</text>
<text text-anchor="start" x="515.5" y="-729.5" font-family="Helvetica,sans-Serif" font-size="10.00">+ getComponents()</text>
<text text-anchor="start" x="515.5" y="-718.5" font-family="Helvetica,sans-Serif" font-size="10.00">+ getNumComponents()</text>
<text text-anchor="start" x="515.5" y="-707.5" font-family="Helvetica,sans-Serif" font-size="10.00">+ computeAabb()</text>
<text text-anchor="start" x="515.5" y="-696.5" font-family="Helvetica,sans-Serif" font-size="10.00">+ invalidateAabb()</text>
</a>
</g>
</g>
<!-- Node11&#45;&gt;Node2 -->
<g id="edge16" class="edge">
<title>Node11&#45;&gt;Node2</title>
<path fill="none" stroke="#404040" d="M585.39,-689.5C590.05,-585.16 596.43,-442.34 600.5,-350.99"/>
<polygon fill="none" stroke="#404040" points="600.52,-350.72 596.79,-344.54 601.05,-338.73 604.78,-344.9 600.52,-350.72"/>
<text text-anchor="middle" x="627" y="-511.5" font-family="Helvetica,sans-Serif" font-size="10.00"> +m_entity</text>
</g>
<!-- Node11&#45;&gt;Node3 -->
<g id="edge10" class="edge">
<title>Node11&#45;&gt;Node3</title>
<path fill="none" stroke="#404040" d="M527.07,-689.2C522.37,-679.21 517.49,-669.38 512.5,-660 510.29,-655.85 507.99,-651.66 505.63,-647.46"/>
<polygon fill="none" stroke="#404040" points="505.6,-647.42 499.14,-644.21 499.62,-637.01 506.08,-640.22 505.6,-647.42"/>
<text text-anchor="middle" x="545" y="-663" font-family="Helvetica,sans-Serif" font-size="10.00"> #m_entity</text>
</g>
<!-- Node12 -->
<g id="node12" class="node">
<title>Node12</title>
<g id="a_node12"><a xlink:href="classRa_1_1Core_1_1Utils_1_1IndexedObject.html" target="_top" xlink:title=" ">
<polygon fill="white" stroke="black" points="524,-1003.5 524,-1115.5 655,-1115.5 655,-1003.5 524,-1003.5"/>
<text text-anchor="start" x="532" y="-1103.5" font-family="Helvetica,sans-Serif" font-size="10.00">Ra::Core::Utils::Indexed</text>
<text text-anchor="middle" x="589.5" y="-1092.5" font-family="Helvetica,sans-Serif" font-size="10.00">Object</text>
<polyline fill="none" stroke="black" points="524,-1085.5 655,-1085.5 "/>
<text text-anchor="middle" x="589.5" y="-1073.5" font-family="Helvetica,sans-Serif" font-size="10.00"> </text>
<polyline fill="none" stroke="black" points="524,-1066.5 655,-1066.5 "/>
<text text-anchor="start" x="532" y="-1054.5" font-family="Helvetica,sans-Serif" font-size="10.00">+ IndexedObject()</text>
<text text-anchor="start" x="532" y="-1043.5" font-family="Helvetica,sans-Serif" font-size="10.00">+ IndexedObject()</text>
<text text-anchor="start" x="532" y="-1032.5" font-family="Helvetica,sans-Serif" font-size="10.00">+ ~IndexedObject()</text>
<text text-anchor="start" x="532" y="-1021.5" font-family="Helvetica,sans-Serif" font-size="10.00">+ setIndex()</text>
<text text-anchor="start" x="532" y="-1010.5" font-family="Helvetica,sans-Serif" font-size="10.00">+ getIndex()</text>
</a>
</g>
</g>
<!-- Node12&#45;&gt;Node11 -->
<g id="edge11" class="edge">
<title>Node12&#45;&gt;Node11</title>
<path fill="none" stroke="midnightblue" d="M586.72,-993.28C586.22,-981.48 585.68,-968.79 585.13,-955.87"/>
<polygon fill="none" stroke="midnightblue" points="583.23,-993.56 587.16,-1003.4 590.23,-993.26 583.23,-993.56"/>
</g>
<!-- Node13 -->
<g id="node13" class="node">
<title>Node13</title>
<g id="a_node13"><a xlink:href="classRa_1_1Core_1_1Utils_1_1Index.html" target="_top" xlink:title=" ">
<polygon fill="white" stroke="black" points="595,-1196.5 595,-1572.5 732,-1572.5 732,-1196.5 595,-1196.5"/>
<text text-anchor="middle" x="663.5" y="-1560.5" font-family="Helvetica,sans-Serif" font-size="10.00">Ra::Core::Utils::Index</text>
<polyline fill="none" stroke="black" points="595,-1553.5 732,-1553.5 "/>
<text text-anchor="middle" x="663.5" y="-1541.5" font-family="Helvetica,sans-Serif" font-size="10.00"> </text>
<polyline fill="none" stroke="black" points="595,-1534.5 732,-1534.5 "/>
<text text-anchor="start" x="603" y="-1522.5" font-family="Helvetica,sans-Serif" font-size="10.00">+ Index()</text>
<text text-anchor="start" x="603" y="-1511.5" font-family="Helvetica,sans-Serif" font-size="10.00">+ Index()</text>
<text text-anchor="start" x="603" y="-1500.5" font-family="Helvetica,sans-Serif" font-size="10.00">+ Index()</text>
<text text-anchor="start" x="603" y="-1489.5" font-family="Helvetica,sans-Serif" font-size="10.00">+ isValid()</text>
<text text-anchor="start" x="603" y="-1478.5" font-family="Helvetica,sans-Serif" font-size="10.00">+ isInvalid()</text>
<text text-anchor="start" x="603" y="-1467.5" font-family="Helvetica,sans-Serif" font-size="10.00">+ setInvalid()</text>
<text text-anchor="start" x="603" y="-1456.5" font-family="Helvetica,sans-Serif" font-size="10.00">+ getValue()</text>
<text text-anchor="start" x="603" y="-1445.5" font-family="Helvetica,sans-Serif" font-size="10.00">+ setValue()</text>
<text text-anchor="start" x="603" y="-1434.5" font-family="Helvetica,sans-Serif" font-size="10.00">+ operator IntegerType()</text>
<text text-anchor="start" x="603" y="-1423.5" font-family="Helvetica,sans-Serif" font-size="10.00">+ operator=()</text>
<text text-anchor="start" x="603" y="-1412.5" font-family="Helvetica,sans-Serif" font-size="10.00">+ operator++()</text>
<text text-anchor="start" x="603" y="-1401.5" font-family="Helvetica,sans-Serif" font-size="10.00">+ operator&#45;&#45;()</text>
<text text-anchor="start" x="603" y="-1390.5" font-family="Helvetica,sans-Serif" font-size="10.00">+ operator+()</text>
<text text-anchor="start" x="603" y="-1379.5" font-family="Helvetica,sans-Serif" font-size="10.00">+ operator+()</text>
<text text-anchor="start" x="603" y="-1368.5" font-family="Helvetica,sans-Serif" font-size="10.00">+ operator&#45;()</text>
<text text-anchor="start" x="603" y="-1357.5" font-family="Helvetica,sans-Serif" font-size="10.00">+ operator&#45;()</text>
<text text-anchor="start" x="603" y="-1346.5" font-family="Helvetica,sans-Serif" font-size="10.00">+ operator==()</text>
<text text-anchor="start" x="603" y="-1335.5" font-family="Helvetica,sans-Serif" font-size="10.00">+ operator==()</text>
<text text-anchor="start" x="603" y="-1324.5" font-family="Helvetica,sans-Serif" font-size="10.00">+ operator!=()</text>
<text text-anchor="start" x="603" y="-1313.5" font-family="Helvetica,sans-Serif" font-size="10.00">+ operator!=()</text>
<text text-anchor="start" x="603" y="-1302.5" font-family="Helvetica,sans-Serif" font-size="10.00">+ operator&lt;()</text>
<text text-anchor="start" x="603" y="-1291.5" font-family="Helvetica,sans-Serif" font-size="10.00">+ operator&lt;()</text>
<text text-anchor="start" x="603" y="-1280.5" font-family="Helvetica,sans-Serif" font-size="10.00">+ operator&lt;=()</text>
<text text-anchor="start" x="603" y="-1269.5" font-family="Helvetica,sans-Serif" font-size="10.00">+ operator&lt;=()</text>
<text text-anchor="start" x="603" y="-1258.5" font-family="Helvetica,sans-Serif" font-size="10.00">+ operator&gt;()</text>
<text text-anchor="start" x="603" y="-1247.5" font-family="Helvetica,sans-Serif" font-size="10.00">+ operator&gt;()</text>
<text text-anchor="start" x="603" y="-1236.5" font-family="Helvetica,sans-Serif" font-size="10.00">+ operator&gt;=()</text>
<text text-anchor="start" x="603" y="-1225.5" font-family="Helvetica,sans-Serif" font-size="10.00">+ operator&gt;=()</text>
<text text-anchor="start" x="603" y="-1214.5" font-family="Helvetica,sans-Serif" font-size="10.00">+ Invalid()</text>
<text text-anchor="start" x="603" y="-1203.5" font-family="Helvetica,sans-Serif" font-size="10.00">+ Max()</text>
</a>
</g>
</g>
<!-- Node13&#45;&gt;Node2 -->
<g id="edge15" class="edge">
<title>Node13&#45;&gt;Node2</title>
<path fill="none" stroke="#404040" d="M682.14,-1196.22C685.26,-1151.78 687.5,-1104.5 687.5,-1060.5 687.5,-1060.5 687.5,-1060.5 687.5,-513 687.5,-456.81 668.59,-396.96 648.82,-349.74"/>
<polygon fill="none" stroke="#404040" points="648.79,-349.67 642.74,-345.73 644.06,-338.64 650.1,-342.58 648.79,-349.67"/>
<text text-anchor="middle" x="719.5" y="-820" font-family="Helvetica,sans-Serif" font-size="10.00"> +m_roIndex</text>
</g>
<!-- Node13&#45;&gt;Node12 -->
<g id="edge12" class="edge">
<title>Node13&#45;&gt;Node12</title>
<path fill="none" stroke="#404040" d="M620.56,-1196.08C614.94,-1171.53 609.5,-1147.81 604.79,-1127.26"/>
<polygon fill="none" stroke="#404040" points="604.79,-1127.23 599.55,-1122.28 602.11,-1115.54 607.35,-1120.49 604.79,-1127.23"/>
<text text-anchor="middle" x="637.5" y="-1153.5" font-family="Helvetica,sans-Serif" font-size="10.00"> #m_idx</text>
</g>
<!-- Node14 -->
<g id="node14" class="node">
<title>Node14</title>
<g id="a_node14"><a xlink:href="classint.html" target="_top" xlink:title=" ">
<polygon fill="white" stroke="black" points="649,-1620.5 649,-1677.5 678,-1677.5 678,-1620.5 649,-1620.5"/>
<text text-anchor="middle" x="663.5" y="-1665.5" font-family="Helvetica,sans-Serif" font-size="10.00">int</text>
<polyline fill="none" stroke="black" points="649,-1658.5 678,-1658.5 "/>
<text text-anchor="middle" x="663.5" y="-1646.5" font-family="Helvetica,sans-Serif" font-size="10.00"> </text>
<polyline fill="none" stroke="black" points="649,-1639.5 678,-1639.5 "/>
<text text-anchor="middle" x="663.5" y="-1627.5" font-family="Helvetica,sans-Serif" font-size="10.00"> </text>
</a>
</g>
</g>
<!-- Node14&#45;&gt;Node13 -->
<g id="edge13" class="edge">
<title>Node14&#45;&gt;Node13</title>
<path fill="none" stroke="#404040" d="M663.5,-1620.4C663.5,-1610.43 663.5,-1598.26 663.5,-1584.76"/>
<polygon fill="none" stroke="#404040" points="663.5,-1584.58 659.5,-1578.58 663.5,-1572.58 667.5,-1578.58 663.5,-1584.58"/>
<text text-anchor="middle" x="684.5" y="-1594" font-family="Helvetica,sans-Serif" font-size="10.00"> #m_idx</text>
</g>
<!-- Node15 -->
<g id="node15" class="node">
<title>Node15</title>
<g id="a_node15"><a xlink:title=" ">
<polygon fill="white" stroke="#bfbfbf" points="357.5,-788.5 357.5,-856.5 485.5,-856.5 485.5,-788.5 357.5,-788.5"/>
<text text-anchor="start" x="365.5" y="-844.5" font-family="Helvetica,sans-Serif" font-size="10.00">vector&lt; Ra::Core::Utils</text>
<text text-anchor="middle" x="421.5" y="-833.5" font-family="Helvetica,sans-Serif" font-size="10.00">::Index &gt;</text>
<polyline fill="none" stroke="#bfbfbf" points="357.5,-826.5 485.5,-826.5 "/>
<text text-anchor="middle" x="421.5" y="-814.5" font-family="Helvetica,sans-Serif" font-size="10.00"> </text>
<polyline fill="none" stroke="#bfbfbf" points="357.5,-807.5 485.5,-807.5 "/>
<text text-anchor="middle" x="421.5" y="-795.5" font-family="Helvetica,sans-Serif" font-size="10.00"> </text>
</a>
</g>
</g>
<!-- Node15&#45;&gt;Node3 -->
<g id="edge14" class="edge">
<title>Node15&#45;&gt;Node3</title>
<path fill="none" stroke="#404040" d="M420.43,-788.33C419.48,-757.83 418.17,-711.38 417.5,-671 417.41,-665.52 417.33,-659.93 417.25,-654.29"/>
<polygon fill="none" stroke="#404040" points="417.25,-653.86 413.17,-647.91 417.1,-641.86 421.17,-647.81 417.25,-653.86"/>
<text text-anchor="middle" x="465" y="-663" font-family="Helvetica,sans-Serif" font-size="10.00"> +m_renderObjects</text>
</g>
<!-- Node16 -->
<g id="node16" class="node">
<title>Node16</title>
<g id="a_node16"><a xlink:title=" ">
<polygon fill="white" stroke="#bfbfbf" points="685.5,-226.5 685.5,-294.5 795.5,-294.5 795.5,-226.5 685.5,-226.5"/>
<text text-anchor="start" x="693.5" y="-282.5" font-family="Helvetica,sans-Serif" font-size="10.00">Transform&lt; Scalar,</text>
<text text-anchor="middle" x="740.5" y="-271.5" font-family="Helvetica,sans-Serif" font-size="10.00"> 3, Eigen::Affine &gt;</text>
<polyline fill="none" stroke="#bfbfbf" points="685.5,-264.5 795.5,-264.5 "/>
<text text-anchor="middle" x="740.5" y="-252.5" font-family="Helvetica,sans-Serif" font-size="10.00"> </text>
<polyline fill="none" stroke="#bfbfbf" points="685.5,-245.5 795.5,-245.5 "/>
<text text-anchor="middle" x="740.5" y="-233.5" font-family="Helvetica,sans-Serif" font-size="10.00"> </text>
</a>
</g>
</g>
<!-- Node16&#45;&gt;Node1 -->
<g id="edge17" class="edge">
<title>Node16&#45;&gt;Node1</title>
<path fill="none" stroke="#404040" d="M736.2,-226.18C732.82,-204.82 727.2,-176.76 718.5,-153 717.62,-150.61 716.69,-148.21 715.71,-145.8"/>
<polygon fill="none" stroke="#404040" points="715.59,-145.53 709.53,-141.63 710.79,-134.53 716.86,-138.43 715.59,-145.53"/>
<text text-anchor="middle" x="758" y="-156" font-family="Helvetica,sans-Serif" font-size="10.00"> #m_transform</text>
</g>
</g>
</svg>
        <g id="navigator" transform="translate(0 0)" fill="#404254">
                <rect fill="#f2f5e9" fill-opacity="0.5" stroke="#606060" stroke-width=".5" x="0" y="0" width="60" height="60"/>
                <use id="zoomplus" xlink:href="#zoomPlus" x="17" y="9" onmousedown="handleZoom(evt,'in')"/>
                <use id="zoomminus" xlink:href="#zoomMin" x="42" y="9" onmousedown="handleZoom(evt,'out')"/>
                <use id="reset" xlink:href="#resetDef" x="30" y="36" onmousedown="handleReset()"/>
                <g id="arrowUp" xlink:href="#dirArrow" transform="translate(30 24)" onmousedown="handlePan(0,-1)">
                  <use xlink:href="#rim" fill="#404040">
                        <set attributeName="fill" to="#808080" begin="arrowUp.mouseover" end="arrowUp.mouseout"/>
                  </use>
                  <path fill="none" stroke="white" stroke-width="1.5" d="M0,-3.0v7 M-2.5,-0.5L0,-3.0L2.5,-0.5"/>
                </g>
                <g id="arrowRight" xlink:href="#dirArrow" transform="rotate(90) translate(36 -43)" onmousedown="handlePan(1,0)">
                  <use xlink:href="#rim" fill="#404040">
                        <set attributeName="fill" to="#808080" begin="arrowRight.mouseover" end="arrowRight.mouseout"/>
                  </use>
                  <path fill="none" stroke="white" stroke-width="1.5" d="M0,-3.0v7 M-2.5,-0.5L0,-3.0L2.5,-0.5"/>
                </g>
                <g id="arrowDown" xlink:href="#dirArrow" transform="rotate(180) translate(-30 -48)" onmousedown="handlePan(0,1)">
                  <use xlink:href="#rim" fill="#404040">
                        <set attributeName="fill" to="#808080" begin="arrowDown.mouseover" end="arrowDown.mouseout"/>
                  </use>
                  <path fill="none" stroke="white" stroke-width="1.5" d="M0,-3.0v7 M-2.5,-0.5L0,-3.0L2.5,-0.5"/>
                </g>
                <g id="arrowLeft" xlink:href="#dirArrow" transform="rotate(270) translate(-36 17)" onmousedown="handlePan(-1,0)">
                  <use xlink:href="#rim" fill="#404040">
                        <set attributeName="fill" to="#808080" begin="arrowLeft.mouseover" end="arrowLeft.mouseout"/>
                  </use>
                  <path fill="none" stroke="white" stroke-width="1.5" d="M0,-3.0v7 M-2.5,-0.5L0,-3.0L2.5,-0.5"/>
                </g>
        </g>
        <svg viewBox="0 0 15 15" width="100%" height="30px" preserveAspectRatio="xMaxYMin meet">
         <g id="arrow_out" transform="scale(0.3 0.3)">
          <a xlink:href="classRa_1_1Gui_1_1TransformEditor__coll__graph_org.svg" target="_base">
           <rect id="button" ry="5" rx="5" y="6" x="6" height="38" width="38"
                fill="#f2f5e9" fill-opacity="0.5" stroke="#606060" stroke-width="1.0"/>
           <path id="arrow"
             d="M 11.500037,31.436501 C 11.940474,20.09759 22.043105,11.32322 32.158766,21.979434 L 37.068811,17.246167 C 37.068811,17.246167 37.088388,32 37.088388,32 L 22.160133,31.978069 C 22.160133,31.978069 26.997745,27.140456 26.997745,27.140456 C 18.528582,18.264221 13.291696,25.230495 11.500037,31.436501 z"
             style="fill:#404040;"/>
          </a>
         </g>
        </svg>
</svg>
