<?xml version="1.0" encoding="UTF-8" standalone="no"?>
<!DOCTYPE svg PUBLIC "-//W3C//DTD SVG 1.1//EN"
 "http://www.w3.org/Graphics/SVG/1.1/DTD/svg11.dtd">
<!-- Generated by graphviz version 2.43.0 (0)
 -->
<!-- Title: Ra::Engine::System Pages: 1 -->
<svg width="334pt" height="535pt"
 viewBox="0.00 0.00 334.00 535.00" xmlns="http://www.w3.org/2000/svg" xmlns:xlink="http://www.w3.org/1999/xlink">
<g id="graph0" class="graph" transform="scale(1 1) rotate(0) translate(4 531)">
<title>Ra::Engine::System</title>
<polygon fill="white" stroke="transparent" points="-4,4 -4,-531 330,-531 330,4 -4,4"/>
<!-- Node1 -->
<g id="node1" class="node">
<title>Node1</title>
<g id="a_node1"><a xlink:title=" ">
<polygon fill="#bfbfbf" stroke="black" points="24.5,-0.5 24.5,-145.5 183.5,-145.5 183.5,-0.5 24.5,-0.5"/>
<text text-anchor="middle" x="104" y="-133.5" font-family="Helvetica,sans-Serif" font-size="10.00">Ra::Engine::System</text>
<polyline fill="none" stroke="black" points="24.5,-126.5 183.5,-126.5 "/>
<text text-anchor="middle" x="104" y="-114.5" font-family="Helvetica,sans-Serif" font-size="10.00"> </text>
<polyline fill="none" stroke="black" points="24.5,-107.5 183.5,-107.5 "/>
<text text-anchor="start" x="32.5" y="-95.5" font-family="Helvetica,sans-Serif" font-size="10.00">+ System()</text>
<text text-anchor="start" x="32.5" y="-84.5" font-family="Helvetica,sans-Serif" font-size="10.00">+ ~System()</text>
<text text-anchor="start" x="32.5" y="-73.5" font-family="Helvetica,sans-Serif" font-size="10.00">+ handleAssetLoading()</text>
<text text-anchor="start" x="32.5" y="-62.5" font-family="Helvetica,sans-Serif" font-size="10.00">+ generateTasks()</text>
<text text-anchor="start" x="32.5" y="-51.5" font-family="Helvetica,sans-Serif" font-size="10.00">+ getEntityComponents()</text>
<text text-anchor="start" x="32.5" y="-40.5" font-family="Helvetica,sans-Serif" font-size="10.00">+ addComponent()</text>
<text text-anchor="start" x="32.5" y="-29.5" font-family="Helvetica,sans-Serif" font-size="10.00"># registerComponent()</text>
<text text-anchor="start" x="32.5" y="-18.5" font-family="Helvetica,sans-Serif" font-size="10.00"># unregisterComponent()</text>
<text text-anchor="start" x="32.5" y="-7.5" font-family="Helvetica,sans-Serif" font-size="10.00"># unregisterAllComponents()</text>
</a>
</g>
</g>
<!-- Node2 -->
<g id="node2" class="node">
<title>Node2</title>
<g id="a_node2"><a xlink:title=" ">
<polygon fill="white" stroke="#bfbfbf" points="16,-193.5 16,-272.5 192,-272.5 192,-193.5 16,-193.5"/>
<text text-anchor="start" x="24" y="-260.5" font-family="Helvetica,sans-Serif" font-size="10.00">std::vector&lt; std::pair</text>
<text text-anchor="start" x="24" y="-249.5" font-family="Helvetica,sans-Serif" font-size="10.00">&lt; const Ra::Engine::Entity</text>
<text text-anchor="middle" x="104" y="-238.5" font-family="Helvetica,sans-Serif" font-size="10.00"> *, Ra::Engine::Component * &gt; &gt;</text>
<polyline fill="none" stroke="#bfbfbf" points="16,-231.5 192,-231.5 "/>
<text text-anchor="middle" x="104" y="-219.5" font-family="Helvetica,sans-Serif" font-size="10.00"> </text>
<polyline fill="none" stroke="#bfbfbf" points="16,-212.5 192,-212.5 "/>
<text text-anchor="middle" x="104" y="-200.5" font-family="Helvetica,sans-Serif" font-size="10.00"> </text>
</a>
</g>
</g>
<!-- Node2&#45;&gt;Node1 -->
<g id="edge1" class="edge">
<title>Node2&#45;&gt;Node1</title>
<path fill="none" stroke="#404040" d="M104,-193.35C104,-182.52 104,-170.31 104,-157.94"/>
<polygon fill="none" stroke="#404040" points="104,-157.57 100,-151.57 104,-145.57 108,-151.57 104,-157.57"/>
<text text-anchor="middle" x="147.5" y="-167" font-family="Helvetica,sans-Serif" font-size="10.00"> #m_components</text>
</g>
<!-- Node3 -->
<g id="node3" class="node">
<title>Node3</title>
<g id="a_node3"><a xlink:title=" ">
<polygon fill="white" stroke="#bfbfbf" points="0,-342.5 0,-421.5 128,-421.5 128,-342.5 0,-342.5"/>
<text text-anchor="start" x="8" y="-409.5" font-family="Helvetica,sans-Serif" font-size="10.00">pair&lt; const Ra::Engine</text>
<text text-anchor="start" x="8" y="-398.5" font-family="Helvetica,sans-Serif" font-size="10.00">::Entity *, Ra::Engine</text>
<text text-anchor="middle" x="64" y="-387.5" font-family="Helvetica,sans-Serif" font-size="10.00">::Component * &gt;</text>
<polyline fill="none" stroke="#bfbfbf" points="0,-380.5 128,-380.5 "/>
<text text-anchor="middle" x="64" y="-368.5" font-family="Helvetica,sans-Serif" font-size="10.00"> </text>
<polyline fill="none" stroke="#bfbfbf" points="0,-361.5 128,-361.5 "/>
<text text-anchor="middle" x="64" y="-349.5" font-family="Helvetica,sans-Serif" font-size="10.00"> </text>
</a>
</g>
</g>
<!-- Node3&#45;&gt;Node2 -->
<g id="edge2" class="edge">
<title>Node3&#45;&gt;Node2</title>
<path fill="none" stroke="#404040" d="M74.51,-342.38C79.34,-324.64 85.12,-303.37 90.29,-284.39"/>
<polygon fill="none" stroke="#404040" points="90.34,-284.2 88.06,-277.36 93.49,-272.62 95.78,-279.46 90.34,-284.2"/>
<text text-anchor="middle" x="117" y="-305" font-family="Helvetica,sans-Serif" font-size="10.00"> +elements</text>
</g>
<!-- Node4 -->
<g id="node4" class="node">
<title>Node4</title>
<g id="a_node4"><a xlink:title="STL class.">
<polygon fill="white" stroke="#bfbfbf" points="146.5,-353.5 146.5,-410.5 243.5,-410.5 243.5,-353.5 146.5,-353.5"/>
<text text-anchor="middle" x="195" y="-398.5" font-family="Helvetica,sans-Serif" font-size="10.00">std::vector&lt; T &gt;</text>
<polyline fill="none" stroke="#bfbfbf" points="146.5,-391.5 243.5,-391.5 "/>
<text text-anchor="middle" x="195" y="-379.5" font-family="Helvetica,sans-Serif" font-size="10.00"> </text>
<polyline fill="none" stroke="#bfbfbf" points="146.5,-372.5 243.5,-372.5 "/>
<text text-anchor="middle" x="195" y="-360.5" font-family="Helvetica,sans-Serif" font-size="10.00"> </text>
</a>
</g>
</g>
<!-- Node4&#45;&gt;Node2 -->
<g id="edge3" class="edge">
<title>Node4&#45;&gt;Node2</title>
<path fill="none" stroke="orange" d="M177.41,-343.77C169.13,-327.23 158.72,-307.75 148,-291 144.09,-284.89 139.7,-278.63 135.23,-272.59"/>
<polygon fill="orange" stroke="orange" points="174.46,-345.7 182.02,-353.12 180.74,-342.6 174.46,-345.7"/>
<text text-anchor="start" x="166" y="-316" font-family="Helvetica,sans-Serif" font-size="10.00"> &lt; std::pair&lt; const</text>
<text text-anchor="start" x="166" y="-305" font-family="Helvetica,sans-Serif" font-size="10.00"> Ra::Engine::Entity</text>
<text text-anchor="middle" x="246" y="-294" font-family="Helvetica,sans-Serif" font-size="10.00"> *, Ra::Engine::Component * &gt; &gt;</text>
</g>
<!-- Node5 -->
<g id="node5" class="node">
<title>Node5</title>
<g id="a_node5"><a xlink:title=" ">
<polygon fill="white" stroke="#bfbfbf" points="180.5,-469.5 180.5,-526.5 209.5,-526.5 209.5,-469.5 180.5,-469.5"/>
<text text-anchor="middle" x="195" y="-514.5" font-family="Helvetica,sans-Serif" font-size="10.00">T</text>
<polyline fill="none" stroke="#bfbfbf" points="180.5,-507.5 209.5,-507.5 "/>
<text text-anchor="middle" x="195" y="-495.5" font-family="Helvetica,sans-Serif" font-size="10.00"> </text>
<polyline fill="none" stroke="#bfbfbf" points="180.5,-488.5 209.5,-488.5 "/>
<text text-anchor="middle" x="195" y="-476.5" font-family="Helvetica,sans-Serif" font-size="10.00"> </text>
</a>
</g>
</g>
<!-- Node5&#45;&gt;Node4 -->
<g id="edge4" class="edge">
<title>Node5&#45;&gt;Node4</title>
<path fill="none" stroke="#404040" d="M195,-469.4C195,-455.5 195,-438.39 195,-423.07"/>
<polygon fill="none" stroke="#404040" points="195,-422.74 191,-416.74 195,-410.74 199,-416.74 195,-422.74"/>
<text text-anchor="middle" x="224" y="-443" font-family="Helvetica,sans-Serif" font-size="10.00"> +elements</text>
</g>
</g>
</svg>
