<?xml version="1.0" encoding="UTF-8" standalone="no"?>
<!DOCTYPE svg PUBLIC "-//W3C//DTD SVG 1.1//EN"
 "http://www.w3.org/Graphics/SVG/1.1/DTD/svg11.dtd">
<!-- Generated by graphviz version 2.40.1 (20161225.0304)
 -->
<!-- Title: Ra::Core::Geometry::TopologicalMesh::TopologicalMesh Pages: 1 -->
<!--zoomable 335 -->
<svg id="main" version="1.1" xmlns="http://www.w3.org/2000/svg" xmlns:xlink="http://www.w3.org/1999/xlink" xml:space="preserve" onload="init(evt)">
<style type="text/css"><![CDATA[
.edge:hover path { stroke: red; }
.edge:hover polygon { stroke: red; fill: red; }
]]></style>
<script type="text/javascript"><![CDATA[
var edges = document.getElementsByTagName('g');
if (edges && edges.length) {
  for (var i=0;i<edges.length;i++) {
    if (edges[i].id.substr(0,4)=='edge') {
      edges[i].setAttribute('class','edge');
    }
  }
}
]]></script>
        <defs>
                <circle id="rim" cx="0" cy="0" r="7"/>
                <circle id="rim2" cx="0" cy="0" r="3.5"/>
                <g id="zoomPlus">
                        <use xlink:href="#rim" fill="#404040">
                                <set attributeName="fill" to="#808080" begin="zoomplus.mouseover" end="zoomplus.mouseout"/>
                        </use>
                        <path d="M-4,0h8M0,-4v8" fill="none" stroke="white" stroke-width="1.5" pointer-events="none"/>
                </g>
                <g id="zoomMin">
                        <use xlink:href="#rim" fill="#404040">
                                <set attributeName="fill" to="#808080" begin="zoomminus.mouseover" end="zoomminus.mouseout"/>
                        </use>
                        <path d="M-4,0h8" fill="none" stroke="white" stroke-width="1.5" pointer-events="none"/>
                </g>
                <g id="dirArrow">
                        <path fill="none" stroke="white" stroke-width="1.5" d="M0,-3.0v7 M-2.5,-0.5L0,-3.0L2.5,-0.5"/>
                </g>
               <g id="resetDef">
                       <use xlink:href="#rim2" fill="#404040">
                               <set attributeName="fill" to="#808080" begin="reset.mouseover" end="reset.mouseout"/>
                       </use>
               </g>
        </defs>

<script type="text/javascript">
var viewWidth = 1342;
var viewHeight = 335;
var sectionId = 'dynsection-3';
</script>
<script xlink:href="svgpan.js"/>
<svg id="graph" class="graph">
<g id="viewport">
<title>Ra::Core::Geometry::TopologicalMesh::TopologicalMesh</title>
<polygon fill="#ffffff" stroke="transparent" points="-4,4 -4,-331 1338,-331 1338,4 -4,4"/>
<!-- Node16 -->
<g id="node1" class="node">
<title>Node16</title>
<polygon fill="#bfbfbf" stroke="#000000" points="0,-154.5 0,-184.5 189,-184.5 189,-154.5 0,-154.5"/>
<text text-anchor="start" x="8" y="-172.5" font-family="Helvetica,sans-Serif" font-size="10.00" fill="#000000">Ra::Core::Geometry</text>
<text text-anchor="middle" x="94.5" y="-161.5" font-family="Helvetica,sans-Serif" font-size="10.00" fill="#000000">::TopologicalMesh::TopologicalMesh</text>
</g>
<!-- Node17 -->
<g id="node2" class="node">
<title>Node17</title>
<g id="a_node2"><a xlink:href="namespaceRa_1_1Engine_1_1DrawPrimitives.html#a149cfbf089266ed652ddcd8a7bc6c7c5" target="_top" xlink:title="Ra::Engine::DrawPrimitives\l::Normal">
<polygon fill="#ffffff" stroke="#000000" points="225,-154.5 225,-184.5 374,-184.5 374,-154.5 225,-154.5"/>
<text text-anchor="start" x="233" y="-172.5" font-family="Helvetica,sans-Serif" font-size="10.00" fill="#000000">Ra::Engine::DrawPrimitives</text>
<text text-anchor="middle" x="299.5" y="-161.5" font-family="Helvetica,sans-Serif" font-size="10.00" fill="#000000">::Normal</text>
</a>
</g>
</g>
<!-- Node16&#45;&gt;Node17 -->
<g id="edge1" class="edge">
<title>Node16&#45;&gt;Node17</title>
<path fill="none" stroke="#191970" d="M189.1991,-169.5C197.7017,-169.5 206.2763,-169.5 214.687,-169.5"/>
<polygon fill="#191970" stroke="#191970" points="214.8492,-173.0001 224.8492,-169.5 214.8491,-166.0001 214.8492,-173.0001"/>
</g>
<!-- Node18 -->
<g id="node3" class="node">
<title>Node18</title>
<g id="a_node3"><a xlink:href="namespaceRa_1_1Core_1_1Math.html#a5f25a31a29b0688e349dc35a353b9766" target="_top" xlink:title="Ra::Core::Math::getOrthogonal\lVectors">
<polygon fill="#ffffff" stroke="#000000" points="420.5,-296.5 420.5,-326.5 584.5,-326.5 584.5,-296.5 420.5,-296.5"/>
<text text-anchor="start" x="428.5" y="-314.5" font-family="Helvetica,sans-Serif" font-size="10.00" fill="#000000">Ra::Core::Math::getOrthogonal</text>
<text text-anchor="middle" x="502.5" y="-303.5" font-family="Helvetica,sans-Serif" font-size="10.00" fill="#000000">Vectors</text>
</a>
</g>
</g>
<!-- Node17&#45;&gt;Node18 -->
<g id="edge2" class="edge">
<title>Node17&#45;&gt;Node18</title>
<path fill="none" stroke="#191970" d="M309.4825,-184.573C326.867,-209.6153 365.1593,-259.6843 410,-286.5 413.6139,-288.6612 417.4174,-290.6394 421.3378,-292.4497"/>
<polygon fill="#191970" stroke="#191970" points="420.0886,-295.7212 430.6632,-296.3761 422.805,-289.2698 420.0886,-295.7212"/>
</g>
<!-- Node21 -->
<g id="node6" class="node">
<title>Node21</title>
<g id="a_node6"><a xlink:href="namespaceRa_1_1Core_1_1Math.html#a941baf20065c77d494ca251e6e104f31" target="_top" xlink:title="Returns the quaternion q multipled by a scalar factor of k. ">
<polygon fill="#ffffff" stroke="#000000" points="443,-258 443,-277 562,-277 562,-258 443,-258"/>
<text text-anchor="middle" x="502.5" y="-265" font-family="Helvetica,sans-Serif" font-size="10.00" fill="#000000">Ra::Core::Math::scale</text>
</a>
</g>
</g>
<!-- Node17&#45;&gt;Node21 -->
<g id="edge5" class="edge">
<title>Node17&#45;&gt;Node21</title>
<path fill="none" stroke="#191970" d="M315.7333,-184.5082C336.1547,-202.5371 373.0424,-232.3653 410,-248.5 417.1838,-251.6362 424.9107,-254.2637 432.7274,-256.4631"/>
<polygon fill="#191970" stroke="#191970" points="432.0847,-259.912 442.6424,-259.0262 433.8366,-253.1348 432.0847,-259.912"/>
</g>
<!-- Node22 -->
<g id="node7" class="node">
<title>Node22</title>
<g id="a_node7"><a xlink:href="classRa_1_1Core_1_1Geometry_1_1AttribArrayGeometry.html#a887411177386edbcdc35d0c6bf78a83a" target="_top" xlink:title="Set vertices. ">
<polygon fill="#ffffff" stroke="#000000" points="440,-198 440,-239 565,-239 565,-198 440,-198"/>
<text text-anchor="start" x="448" y="-227" font-family="Helvetica,sans-Serif" font-size="10.00" fill="#000000">Ra::Core::Geometry</text>
<text text-anchor="start" x="448" y="-216" font-family="Helvetica,sans-Serif" font-size="10.00" fill="#000000">::AttribArrayGeometry</text>
<text text-anchor="middle" x="502.5" y="-205" font-family="Helvetica,sans-Serif" font-size="10.00" fill="#000000">::setVertices</text>
</a>
</g>
</g>
<!-- Node17&#45;&gt;Node22 -->
<g id="edge6" class="edge">
<title>Node17&#45;&gt;Node22</title>
<path fill="none" stroke="#191970" d="M361.7863,-184.5346C383.411,-189.7544 407.8419,-195.6515 430.2053,-201.0496"/>
<polygon fill="#191970" stroke="#191970" points="429.4397,-204.4652 439.9818,-203.4094 431.0822,-197.6606 429.4397,-204.4652"/>
</g>
<!-- Node24 -->
<g id="node9" class="node">
<title>Node24</title>
<g id="a_node9"><a xlink:href="classRa_1_1Core_1_1Geometry_1_1AttribArrayGeometry.html#acabe05880d71a8dc4406964c258fff5a" target="_top" xlink:title="Access the vertices positions. ">
<polygon fill="#ffffff" stroke="#000000" points="649,-149 649,-190 774,-190 774,-149 649,-149"/>
<text text-anchor="start" x="657" y="-178" font-family="Helvetica,sans-Serif" font-size="10.00" fill="#000000">Ra::Core::Geometry</text>
<text text-anchor="start" x="657" y="-167" font-family="Helvetica,sans-Serif" font-size="10.00" fill="#000000">::AttribArrayGeometry</text>
<text text-anchor="middle" x="711.5" y="-156" font-family="Helvetica,sans-Serif" font-size="10.00" fill="#000000">::vertices</text>
</a>
</g>
</g>
<!-- Node17&#45;&gt;Node24 -->
<g id="edge19" class="edge">
<title>Node17&#45;&gt;Node24</title>
<path fill="none" stroke="#191970" d="M374.1101,-169.5C449.1891,-169.5 564.2311,-169.5 638.6705,-169.5"/>
<polygon fill="#191970" stroke="#191970" points="638.8964,-173.0001 648.8963,-169.5 638.8963,-166.0001 638.8964,-173.0001"/>
</g>
<!-- Node26 -->
<g id="node11" class="node">
<title>Node26</title>
<g id="a_node11"><a xlink:href="classRa_1_1Core_1_1Geometry_1_1IndexedGeometry.html#ad1fc6b57b469ef12d14f677852b8f2a8" target="_top" xlink:title="Ra::Core::Geometry\l::IndexedGeometry::setIndices">
<polygon fill="#ffffff" stroke="#000000" points="420,-110.5 420,-140.5 585,-140.5 585,-110.5 420,-110.5"/>
<text text-anchor="start" x="428" y="-128.5" font-family="Helvetica,sans-Serif" font-size="10.00" fill="#000000">Ra::Core::Geometry</text>
<text text-anchor="middle" x="502.5" y="-117.5" font-family="Helvetica,sans-Serif" font-size="10.00" fill="#000000">::IndexedGeometry::setIndices</text>
</a>
</g>
</g>
<!-- Node17&#45;&gt;Node26 -->
<g id="edge10" class="edge">
<title>Node17&#45;&gt;Node26</title>
<path fill="none" stroke="#191970" d="M368.7933,-154.4808C386.3344,-150.6788 405.3071,-146.5664 423.2968,-142.6672"/>
<polygon fill="#191970" stroke="#191970" points="424.1429,-146.0652 433.1746,-140.5262 422.6601,-139.224 424.1429,-146.0652"/>
</g>
<!-- Node27 -->
<g id="node12" class="node">
<title>Node27</title>
<g id="a_node12"><a xlink:href="classRa_1_1Core_1_1Geometry_1_1AttribArrayGeometry.html#ae1956b0396dadd84f55a12f2160e5671" target="_top" xlink:title="Ra::Core::Geometry\l::AttribArrayGeometry\l::addAttrib">
<polygon fill="#ffffff" stroke="#000000" points="440,-50 440,-91 565,-91 565,-50 440,-50"/>
<text text-anchor="start" x="448" y="-79" font-family="Helvetica,sans-Serif" font-size="10.00" fill="#000000">Ra::Core::Geometry</text>
<text text-anchor="start" x="448" y="-68" font-family="Helvetica,sans-Serif" font-size="10.00" fill="#000000">::AttribArrayGeometry</text>
<text text-anchor="middle" x="502.5" y="-57" font-family="Helvetica,sans-Serif" font-size="10.00" fill="#000000">::addAttrib</text>
</a>
</g>
</g>
<!-- Node17&#45;&gt;Node27 -->
<g id="edge11" class="edge">
<title>Node17&#45;&gt;Node27</title>
<path fill="none" stroke="#191970" d="M320.2204,-154.3981C341.7964,-139.2021 376.9918,-115.8749 410,-100.5 416.5232,-97.4615 423.4386,-94.6032 430.4347,-91.9493"/>
<polygon fill="#191970" stroke="#191970" points="431.8021,-95.1761 439.9956,-88.4592 429.4017,-88.6005 431.8021,-95.1761"/>
</g>
<!-- Node34 -->
<g id="node19" class="node">
<title>Node34</title>
<g id="a_node19"><a xlink:href="classRa_1_1Engine_1_1AttribArrayDisplayable.html#acd5ce549b1358c2f319a884725633ed2" target="_top" xlink:title="Ra::Engine::AttribArrayDisplayable\l::getAttribName">
<polygon fill="#ffffff" stroke="#000000" points="410,-.5 410,-30.5 595,-30.5 595,-.5 410,-.5"/>
<text text-anchor="start" x="418" y="-18.5" font-family="Helvetica,sans-Serif" font-size="10.00" fill="#000000">Ra::Engine::AttribArrayDisplayable</text>
<text text-anchor="middle" x="502.5" y="-7.5" font-family="Helvetica,sans-Serif" font-size="10.00" fill="#000000">::getAttribName</text>
</a>
</g>
</g>
<!-- Node17&#45;&gt;Node34 -->
<g id="edge18" class="edge">
<title>Node17&#45;&gt;Node34</title>
<path fill="none" stroke="#191970" d="M308.3002,-154.1634C324.7044,-126.9835 362.6254,-70.4149 410,-40.5 413.2131,-38.4711 416.5894,-36.6051 420.074,-34.8893"/>
<polygon fill="#191970" stroke="#191970" points="421.8001,-37.9522 429.5137,-30.6891 418.9544,-31.5567 421.8001,-37.9522"/>
</g>
<!-- Node19 -->
<g id="node4" class="node">
<title>Node19</title>
<g id="a_node4"><a xlink:href="namespaceRa_1_1Core_1_1Math.html#a90f0fe9079f5bb86c721ea4b61738470" target="_top" xlink:title="Returns the sign of any numeric type as { &#45;1, 0, 1}. ">
<polygon fill="#ffffff" stroke="#000000" points="654.5,-302 654.5,-321 768.5,-321 768.5,-302 654.5,-302"/>
<text text-anchor="middle" x="711.5" y="-309" font-family="Helvetica,sans-Serif" font-size="10.00" fill="#000000">Ra::Core::Math::sign</text>
</a>
</g>
</g>
<!-- Node18&#45;&gt;Node19 -->
<g id="edge3" class="edge">
<title>Node18&#45;&gt;Node19</title>
<path fill="none" stroke="#191970" d="M584.5025,-311.5C604.2779,-311.5 625.1817,-311.5 644.196,-311.5"/>
<polygon fill="#191970" stroke="#191970" points="644.2474,-315.0001 654.2473,-311.5 644.2473,-308.0001 644.2474,-315.0001"/>
</g>
<!-- Node20 -->
<g id="node5" class="node">
<title>Node20</title>
<g id="a_node5"><a xlink:href="namespaceRa_1_1Core_1_1Math.html#a1e6a5327cb1c73b29e0c6539576d02b0" target="_top" xlink:title="Ra::Core::Math::signum">
<polygon fill="#ffffff" stroke="#000000" points="843.5,-302 843.5,-321 973.5,-321 973.5,-302 843.5,-302"/>
<text text-anchor="middle" x="908.5" y="-309" font-family="Helvetica,sans-Serif" font-size="10.00" fill="#000000">Ra::Core::Math::signum</text>
</a>
</g>
</g>
<!-- Node19&#45;&gt;Node20 -->
<g id="edge4" class="edge">
<title>Node19&#45;&gt;Node20</title>
<path fill="none" stroke="#191970" d="M768.7452,-311.5C788.9479,-311.5 811.9767,-311.5 833.431,-311.5"/>
<polygon fill="#191970" stroke="#191970" points="833.4884,-315.0001 843.4884,-311.5 833.4883,-308.0001 833.4884,-315.0001"/>
</g>
<!-- Node23 -->
<g id="node8" class="node">
<title>Node23</title>
<g id="a_node8"><a xlink:href="classRa_1_1Core_1_1Utils_1_1AttribManager.html#a056b7697cfbedd6b20dde6ce7955094e" target="_top" xlink:title="Ra::Core::Utils::AttribManager\l::setAttrib">
<polygon fill="#ffffff" stroke="#000000" points="631,-209.5 631,-239.5 792,-239.5 792,-209.5 631,-209.5"/>
<text text-anchor="start" x="639" y="-227.5" font-family="Helvetica,sans-Serif" font-size="10.00" fill="#000000">Ra::Core::Utils::AttribManager</text>
<text text-anchor="middle" x="711.5" y="-216.5" font-family="Helvetica,sans-Serif" font-size="10.00" fill="#000000">::setAttrib</text>
</a>
</g>
</g>
<!-- Node22&#45;&gt;Node23 -->
<g id="edge7" class="edge">
<title>Node22&#45;&gt;Node23</title>
<path fill="none" stroke="#191970" d="M565.2069,-220.3002C582.6354,-220.8005 601.9208,-221.3542 620.6149,-221.8909"/>
<polygon fill="#191970" stroke="#191970" points="620.5264,-225.3897 630.6227,-222.1782 620.7273,-218.3925 620.5264,-225.3897"/>
</g>
<!-- Node22&#45;&gt;Node24 -->
<g id="edge8" class="edge">
<title>Node22&#45;&gt;Node24</title>
<path fill="none" stroke="#191970" d="M565.2069,-203.7984C588.4562,-198.3476 615.0099,-192.1221 639.0562,-186.4844"/>
<polygon fill="#191970" stroke="#191970" points="639.9003,-189.8815 648.8374,-184.1912 638.3024,-183.0663 639.9003,-189.8815"/>
</g>
<!-- Node25 -->
<g id="node10" class="node">
<title>Node25</title>
<g id="a_node10"><a xlink:href="classRa_1_1Core_1_1Utils_1_1AttribManager.html#ae0cb7281ec72606a5392602b4ea50d2c" target="_top" xlink:title="Ra::Core::Utils::AttribManager\l::getAttrib">
<polygon fill="#ffffff" stroke="#000000" points="828,-154.5 828,-184.5 989,-184.5 989,-154.5 828,-154.5"/>
<text text-anchor="start" x="836" y="-172.5" font-family="Helvetica,sans-Serif" font-size="10.00" fill="#000000">Ra::Core::Utils::AttribManager</text>
<text text-anchor="middle" x="908.5" y="-161.5" font-family="Helvetica,sans-Serif" font-size="10.00" fill="#000000">::getAttrib</text>
</a>
</g>
</g>
<!-- Node24&#45;&gt;Node25 -->
<g id="edge9" class="edge">
<title>Node24&#45;&gt;Node25</title>
<path fill="none" stroke="#191970" d="M774.1027,-169.5C787.9253,-169.5 802.8405,-169.5 817.5309,-169.5"/>
<polygon fill="#191970" stroke="#191970" points="817.6492,-173.0001 827.6492,-169.5 817.6491,-166.0001 817.6492,-173.0001"/>
</g>
<!-- Node28 -->
<g id="node13" class="node">
<title>Node28</title>
<g id="a_node13"><a xlink:href="classRa_1_1Core_1_1Utils_1_1AttribManager.html#ac2d3cdc360ffe1904a15ff8504de95b8" target="_top" xlink:title="Ra::Core::Utils::AttribManager\l::addAttrib">
<polygon fill="#ffffff" stroke="#000000" points="631,-55.5 631,-85.5 792,-85.5 792,-55.5 631,-55.5"/>
<text text-anchor="start" x="639" y="-73.5" font-family="Helvetica,sans-Serif" font-size="10.00" fill="#000000">Ra::Core::Utils::AttribManager</text>
<text text-anchor="middle" x="711.5" y="-62.5" font-family="Helvetica,sans-Serif" font-size="10.00" fill="#000000">::addAttrib</text>
</a>
</g>
</g>
<!-- Node27&#45;&gt;Node28 -->
<g id="edge12" class="edge">
<title>Node27&#45;&gt;Node28</title>
<path fill="none" stroke="#191970" d="M565.2069,-70.5C582.6354,-70.5 601.9208,-70.5 620.6149,-70.5"/>
<polygon fill="#191970" stroke="#191970" points="620.6227,-74.0001 630.6227,-70.5 620.6227,-67.0001 620.6227,-74.0001"/>
</g>
<!-- Node29 -->
<g id="node14" class="node">
<title>Node29</title>
<g id="a_node14"><a xlink:href="classRa_1_1Core_1_1Utils_1_1AttribManager.html#ae61e2c70f407d49d854ee4b98a39121f" target="_top" xlink:title="Return true if h correspond to an existing attribute in *this. ">
<polygon fill="#ffffff" stroke="#000000" points="828,-80.5 828,-110.5 989,-110.5 989,-80.5 828,-80.5"/>
<text text-anchor="start" x="836" y="-98.5" font-family="Helvetica,sans-Serif" font-size="10.00" fill="#000000">Ra::Core::Utils::AttribManager</text>
<text text-anchor="middle" x="908.5" y="-87.5" font-family="Helvetica,sans-Serif" font-size="10.00" fill="#000000">::isValid</text>
</a>
</g>
</g>
<!-- Node28&#45;&gt;Node29 -->
<g id="edge13" class="edge">
<title>Node28&#45;&gt;Node29</title>
<path fill="none" stroke="#191970" d="M792.1959,-80.7406C800.6733,-81.8164 809.3327,-82.9153 817.9115,-84.004"/>
<polygon fill="#191970" stroke="#191970" points="817.5685,-87.4885 827.9296,-85.2753 818.4499,-80.5442 817.5685,-87.4885"/>
</g>
<!-- Node33 -->
<g id="node18" class="node">
<title>Node33</title>
<g id="a_node18"><a xlink:href="classRa_1_1Core_1_1Utils_1_1Observable.html#a7e5fe761726d56a51f95192eb6555f8f" target="_top" xlink:title="Notify (i.e. call) each attached observer with argument p. ">
<polygon fill="#ffffff" stroke="#000000" points="829,-31.5 829,-61.5 988,-61.5 988,-31.5 829,-31.5"/>
<text text-anchor="start" x="837" y="-49.5" font-family="Helvetica,sans-Serif" font-size="10.00" fill="#000000">Ra::Core::Utils::Observable</text>
<text text-anchor="middle" x="908.5" y="-38.5" font-family="Helvetica,sans-Serif" font-size="10.00" fill="#000000">&lt; const std::string &amp;&gt;::notify</text>
</a>
</g>
</g>
<!-- Node28&#45;&gt;Node33 -->
<g id="edge17" class="edge">
<title>Node28&#45;&gt;Node33</title>
<path fill="none" stroke="#191970" d="M792.1959,-60.669C800.997,-59.5968 809.9944,-58.5007 818.8941,-57.4165"/>
<polygon fill="#191970" stroke="#191970" points="819.3817,-60.883 828.885,-56.1993 818.5351,-53.9344 819.3817,-60.883"/>
</g>
<!-- Node30 -->
<g id="node15" class="node">
<title>Node30</title>
<g id="a_node15"><a xlink:href="classRa_1_1Core_1_1Utils_1_1AttribHandle.html#a17afbd6718234d480c05258369bdfde9" target="_top" xlink:title="Ra::Core::Utils::AttribHandle\l::attribName">
<polygon fill="#ffffff" stroke="#000000" points="1025,-104.5 1025,-134.5 1179,-134.5 1179,-104.5 1025,-104.5"/>
<text text-anchor="start" x="1033" y="-122.5" font-family="Helvetica,sans-Serif" font-size="10.00" fill="#000000">Ra::Core::Utils::AttribHandle</text>
<text text-anchor="middle" x="1102" y="-111.5" font-family="Helvetica,sans-Serif" font-size="10.00" fill="#000000">::attribName</text>
</a>
</g>
</g>
<!-- Node29&#45;&gt;Node30 -->
<g id="edge14" class="edge">
<title>Node29&#45;&gt;Node30</title>
<path fill="none" stroke="#191970" d="M989.1603,-105.5044C997.6571,-106.5582 1006.3244,-107.6333 1014.8898,-108.6956"/>
<polygon fill="#191970" stroke="#191970" points="1014.527,-112.1774 1024.8818,-109.935 1015.3887,-105.2306 1014.527,-112.1774"/>
</g>
<!-- Node31 -->
<g id="node16" class="node">
<title>Node31</title>
<g id="a_node16"><a xlink:href="classRa_1_1Core_1_1Utils_1_1Index.html#a771f93efd49538950e3cb9e57e46fbaf" target="_top" xlink:title="Ra::Core::Utils::Index\l::Invalid">
<polygon fill="#ffffff" stroke="#000000" points="1042.5,-55.5 1042.5,-85.5 1161.5,-85.5 1161.5,-55.5 1042.5,-55.5"/>
<text text-anchor="start" x="1050.5" y="-73.5" font-family="Helvetica,sans-Serif" font-size="10.00" fill="#000000">Ra::Core::Utils::Index</text>
<text text-anchor="middle" x="1102" y="-62.5" font-family="Helvetica,sans-Serif" font-size="10.00" fill="#000000">::Invalid</text>
</a>
</g>
</g>
<!-- Node29&#45;&gt;Node31 -->
<g id="edge15" class="edge">
<title>Node29&#45;&gt;Node31</title>
<path fill="none" stroke="#191970" d="M989.1603,-85.0788C1003.5129,-83.2244 1018.3516,-81.3073 1032.3648,-79.4968"/>
<polygon fill="#191970" stroke="#191970" points="1032.9348,-82.9523 1042.4039,-78.1998 1032.0378,-76.01 1032.9348,-82.9523"/>
</g>
<!-- Node32 -->
<g id="node17" class="node">
<title>Node32</title>
<g id="a_node17"><a xlink:href="classRa_1_1Core_1_1Utils_1_1Index.html#ab3376097b792b1ac2068c6da1cb6c8e4" target="_top" xlink:title="CONSTRUCTOR. ">
<polygon fill="#ffffff" stroke="#000000" points="1215,-55.5 1215,-85.5 1334,-85.5 1334,-55.5 1215,-55.5"/>
<text text-anchor="start" x="1223" y="-73.5" font-family="Helvetica,sans-Serif" font-size="10.00" fill="#000000">Ra::Core::Utils::Index</text>
<text text-anchor="middle" x="1274.5" y="-62.5" font-family="Helvetica,sans-Serif" font-size="10.00" fill="#000000">::Index</text>
</a>
</g>
</g>
<!-- Node31&#45;&gt;Node32 -->
<g id="edge16" class="edge">
<title>Node31&#45;&gt;Node32</title>
<path fill="none" stroke="#191970" d="M1161.848,-70.5C1175.6294,-70.5 1190.406,-70.5 1204.5728,-70.5"/>
<polygon fill="#191970" stroke="#191970" points="1204.7578,-74.0001 1214.7578,-70.5 1204.7577,-67.0001 1204.7578,-74.0001"/>
</g>
</g>
</svg>
        <g id="navigator" transform="translate(0 0)" fill="#404254">
                <rect fill="#f2f5e9" fill-opacity="0.5" stroke="#606060" stroke-width=".5" x="0" y="0" width="60" height="60"/>
                <use id="zoomplus" xlink:href="#zoomPlus" x="17" y="9" onmousedown="handleZoom(evt,'in')"/>
                <use id="zoomminus" xlink:href="#zoomMin" x="42" y="9" onmousedown="handleZoom(evt,'out')"/>
                <use id="reset" xlink:href="#resetDef" x="30" y="36" onmousedown="handleReset()"/>
                <g id="arrowUp" xlink:href="#dirArrow" transform="translate(30 24)" onmousedown="handlePan(0,-1)">
                  <use xlink:href="#rim" fill="#404040">
                        <set attributeName="fill" to="#808080" begin="arrowUp.mouseover" end="arrowUp.mouseout"/>
                  </use>
                  <path fill="none" stroke="white" stroke-width="1.5" d="M0,-3.0v7 M-2.5,-0.5L0,-3.0L2.5,-0.5"/>
                </g>
                <g id="arrowRight" xlink:href="#dirArrow" transform="rotate(90) translate(36 -43)" onmousedown="handlePan(1,0)">
                  <use xlink:href="#rim" fill="#404040">
                        <set attributeName="fill" to="#808080" begin="arrowRight.mouseover" end="arrowRight.mouseout"/>
                  </use>
                  <path fill="none" stroke="white" stroke-width="1.5" d="M0,-3.0v7 M-2.5,-0.5L0,-3.0L2.5,-0.5"/>
                </g>
                <g id="arrowDown" xlink:href="#dirArrow" transform="rotate(180) translate(-30 -48)" onmousedown="handlePan(0,1)">
                  <use xlink:href="#rim" fill="#404040">
                        <set attributeName="fill" to="#808080" begin="arrowDown.mouseover" end="arrowDown.mouseout"/>
                  </use>
                  <path fill="none" stroke="white" stroke-width="1.5" d="M0,-3.0v7 M-2.5,-0.5L0,-3.0L2.5,-0.5"/>
                </g>
                <g id="arrowLeft" xlink:href="#dirArrow" transform="rotate(270) translate(-36 17)" onmousedown="handlePan(-1,0)">
                  <use xlink:href="#rim" fill="#404040">
                        <set attributeName="fill" to="#808080" begin="arrowLeft.mouseover" end="arrowLeft.mouseout"/>
                  </use>
                  <path fill="none" stroke="white" stroke-width="1.5" d="M0,-3.0v7 M-2.5,-0.5L0,-3.0L2.5,-0.5"/>
                </g>
        </g>
        <svg viewBox="0 0 15 15" width="100%" height="30px" preserveAspectRatio="xMaxYMin meet">
         <g id="arrow_out" transform="scale(0.3 0.3)">
          <a xlink:href="classRa_1_1Core_1_1Geometry_1_1TopologicalMesh_ab71f7b807bf20ff4b85d03a4db6961e6_cgraph_org.svg" target="_base">
           <rect id="button" ry="5" rx="5" y="6" x="6" height="38" width="38"
                fill="#f2f5e9" fill-opacity="0.5" stroke="#606060" stroke-width="1.0"/>
           <path id="arrow"
             d="M 11.500037,31.436501 C 11.940474,20.09759 22.043105,11.32322 32.158766,21.979434 L 37.068811,17.246167 C 37.068811,17.246167 37.088388,32 37.088388,32 L 22.160133,31.978069 C 22.160133,31.978069 26.997745,27.140456 26.997745,27.140456 C 18.528582,18.264221 13.291696,25.230495 11.500037,31.436501 z"
             style="fill:#404040;"/>
          </a>
         </g>
        </svg>
</svg>
