<?xml version="1.0" encoding="UTF-8" standalone="no"?>
<!DOCTYPE svg PUBLIC "-//W3C//DTD SVG 1.1//EN"
 "http://www.w3.org/Graphics/SVG/1.1/DTD/svg11.dtd">
<!-- Generated by graphviz version 2.40.1 (20161225.0304)
 -->
<!-- Title: Ra::GuiBase::TimelineFrameSelector::onAddingKeyFrame Pages: 1 -->
<svg width="344pt" height="78pt"
 viewBox="0.00 0.00 344.00 77.50" xmlns="http://www.w3.org/2000/svg" xmlns:xlink="http://www.w3.org/1999/xlink">
<g id="graph0" class="graph" transform="scale(1 1) rotate(0) translate(4 73.5)">
<title>Ra::GuiBase::TimelineFrameSelector::onAddingKeyFrame</title>
<polygon fill="#ffffff" stroke="transparent" points="-4,4 -4,-73.5 340,-73.5 340,4 -4,4"/>
<!-- Node21 -->
<g id="node1" class="node">
<title>Node21</title>
<polygon fill="#bfbfbf" stroke="#000000" points="0,-22.5 0,-52.5 156,-52.5 156,-22.5 0,-22.5"/>
<text text-anchor="start" x="8" y="-40.5" font-family="Helvetica,sans-Serif" font-size="10.00" fill="#000000">Ra::GuiBase::TimelineFrame</text>
<text text-anchor="middle" x="78" y="-29.5" font-family="Helvetica,sans-Serif" font-size="10.00" fill="#000000">Selector::onAddingKeyFrame</text>
</g>
<!-- Node22 -->
<g id="node2" class="node">
<title>Node22</title>
<g id="a_node2"><a xlink:href="namespaceRa_1_1Core_1_1Geometry.html#aa04e6052d8911b1df1bd881474debb45" target="_top" xlink:title="Ra::Core::Geometry::t">
<polygon fill="#ffffff" stroke="#000000" points="203,-50 203,-69 325,-69 325,-50 203,-50"/>
<text text-anchor="middle" x="264" y="-57" font-family="Helvetica,sans-Serif" font-size="10.00" fill="#000000">Ra::Core::Geometry::t</text>
</a>
</g>
</g>
<!-- Node21&#45;&gt;Node22 -->
<g id="edge1" class="edge">
<title>Node21&#45;&gt;Node22</title>
<path fill="none" stroke="#191970" d="M156.0723,-46.7344C168.2663,-48.1767 180.8118,-49.6605 192.8406,-51.0833"/>
<polygon fill="#191970" stroke="#191970" points="192.4624,-54.5629 202.8043,-52.2618 193.2847,-47.6113 192.4624,-54.5629"/>
</g>
<!-- Node23 -->
<g id="node3" class="node">
<title>Node23</title>
<g id="a_node3"><a xlink:href="namespaceRa_1_1Core_1_1Math.html#a46540d56930b4c1ff3b115872cde4893" target="_top" xlink:title="Compare two numbers such that |x&#45;y| &lt; espilon*epsilonBoostFactor. ">
<polygon fill="#ffffff" stroke="#000000" points="192,-.5 192,-30.5 336,-30.5 336,-.5 192,-.5"/>
<text text-anchor="start" x="200" y="-18.5" font-family="Helvetica,sans-Serif" font-size="10.00" fill="#000000">Ra::Core::Math::areApprox</text>
<text text-anchor="middle" x="264" y="-7.5" font-family="Helvetica,sans-Serif" font-size="10.00" fill="#000000">Equal</text>
</a>
</g>
</g>
<!-- Node21&#45;&gt;Node23 -->
<g id="edge2" class="edge">
<title>Node21&#45;&gt;Node23</title>
<path fill="none" stroke="#191970" d="M156.0723,-28.2656C164.5754,-27.2599 173.2496,-26.2339 181.8002,-25.2226"/>
<polygon fill="#191970" stroke="#191970" points="182.244,-28.6946 191.7636,-24.0441 181.4217,-21.743 182.244,-28.6946"/>
</g>
</g>
</svg>
