<?xml version="1.0" encoding="UTF-8" standalone="no"?>
<!DOCTYPE svg PUBLIC "-//W3C//DTD SVG 1.1//EN"
 "http://www.w3.org/Graphics/SVG/1.1/DTD/svg11.dtd">
<!-- Generated by graphviz version 2.40.1 (20161225.0304)
 -->
<!-- Title: Ra::Core::Utils::Chrono::elapsedSeconds Pages: 1 -->
<svg width="317pt" height="39pt"
 viewBox="0.00 0.00 317.00 39.00" xmlns="http://www.w3.org/2000/svg" xmlns:xlink="http://www.w3.org/1999/xlink">
<g id="graph0" class="graph" transform="scale(1 1) rotate(0) translate(4 35)">
<title>Ra::Core::Utils::Chrono::elapsedSeconds</title>
<polygon fill="#ffffff" stroke="transparent" points="-4,4 -4,-35 313,-35 313,4 -4,4"/>
<!-- Node6 -->
<g id="node1" class="node">
<title>Node6</title>
<polygon fill="#bfbfbf" stroke="#000000" points="0,-.5 0,-30.5 127,-30.5 127,-.5 0,-.5"/>
<text text-anchor="start" x="8" y="-18.5" font-family="Helvetica,sans-Serif" font-size="10.00" fill="#000000">Ra::Core::Utils::Chrono</text>
<text text-anchor="middle" x="63.5" y="-7.5" font-family="Helvetica,sans-Serif" font-size="10.00" fill="#000000">::elapsedSeconds</text>
</g>
<!-- Node7 -->
<g id="node2" class="node">
<title>Node7</title>
<g id="a_node2"><a xlink:href="namespaceRa_1_1Core_1_1Utils.html#aa49c969fc840be78b425b79b6c611c56" target="_top" xlink:title="Ra::Core::Utils::getInterval\lSeconds">
<polygon fill="#ffffff" stroke="#000000" points="163,-.5 163,-30.5 309,-30.5 309,-.5 163,-.5"/>
<text text-anchor="start" x="171" y="-18.5" font-family="Helvetica,sans-Serif" font-size="10.00" fill="#000000">Ra::Core::Utils::getInterval</text>
<text text-anchor="middle" x="236" y="-7.5" font-family="Helvetica,sans-Serif" font-size="10.00" fill="#000000">Seconds</text>
</a>
</g>
</g>
<!-- Node6&#45;&gt;Node7 -->
<g id="edge1" class="edge">
<title>Node6&#45;&gt;Node7</title>
<path fill="none" stroke="#191970" d="M127.2425,-15.5C135.5893,-15.5 144.2384,-15.5 152.8464,-15.5"/>
<polygon fill="#191970" stroke="#191970" points="152.9119,-19.0001 162.9119,-15.5 152.9118,-12.0001 152.9119,-19.0001"/>
</g>
</g>
</svg>
