<?xml version="1.0" encoding="UTF-8" standalone="no"?>
<!DOCTYPE svg PUBLIC "-//W3C//DTD SVG 1.1//EN"
 "http://www.w3.org/Graphics/SVG/1.1/DTD/svg11.dtd">
<!-- Generated by graphviz version 2.43.0 (0)
 -->
<!-- Title: Ra::Engine::Texture::initializeGL Pages: 1 -->
<svg width="412pt" height="137pt"
 viewBox="0.00 0.00 412.00 137.00" xmlns="http://www.w3.org/2000/svg" xmlns:xlink="http://www.w3.org/1999/xlink">
<g id="graph0" class="graph" transform="scale(1 1) rotate(0) translate(4 133)">
<title>Ra::Engine::Texture::initializeGL</title>
<polygon fill="white" stroke="transparent" points="-4,4 -4,-133 408,-133 408,4 -4,4"/>
<!-- Node1 -->
<g id="node1" class="node">
<title>Node1</title>
<g id="a_node1"><a xlink:title="Generate the OpenGL representation of the texture according to the stored TextureData.">
<polygon fill="#bfbfbf" stroke="black" points="0,-49.5 0,-79.5 110,-79.5 110,-49.5 0,-49.5"/>
<text text-anchor="start" x="8" y="-67.5" font-family="Helvetica,sans-Serif" font-size="10.00">Ra::Engine::Texture</text>
<text text-anchor="middle" x="55" y="-56.5" font-family="Helvetica,sans-Serif" font-size="10.00">::initializeGL</text>
</a>
</g>
</g>
<!-- Node2 -->
<g id="node2" class="node">
<title>Node2</title>
<g id="a_node2"><a xlink:href="classRa_1_1Engine_1_1Texture.html#a5a3ea98f0f52103897bdf92b6d7fe45a" target="_top" xlink:title=" ">
<polygon fill="white" stroke="black" points="147,-98.5 147,-128.5 257,-128.5 257,-98.5 147,-98.5"/>
<text text-anchor="start" x="155" y="-116.5" font-family="Helvetica,sans-Serif" font-size="10.00">Ra::Engine::Texture</text>
<text text-anchor="middle" x="202" y="-105.5" font-family="Helvetica,sans-Serif" font-size="10.00">::linearize</text>
</a>
</g>
</g>
<!-- Node1&#45;&gt;Node2 -->
<g id="edge1" class="edge">
<title>Node1&#45;&gt;Node2</title>
<path fill="none" stroke="midnightblue" d="M100.69,-79.6C115.16,-84.49 131.37,-89.97 146.48,-95.07"/>
<polygon fill="midnightblue" stroke="midnightblue" points="145.62,-98.48 156.21,-98.36 147.86,-91.85 145.62,-98.48"/>
</g>
<!-- Node3 -->
<g id="node3" class="node">
<title>Node3</title>
<g id="a_node3"><a xlink:href="classRa_1_1Engine_1_1Texture.html#a08909a335da4997ca59702db73360533" target="_top" xlink:title=" ">
<polygon fill="white" stroke="black" points="147,-49.5 147,-79.5 257,-79.5 257,-49.5 147,-49.5"/>
<text text-anchor="start" x="155" y="-67.5" font-family="Helvetica,sans-Serif" font-size="10.00">Ra::Engine::Texture</text>
<text text-anchor="middle" x="202" y="-56.5" font-family="Helvetica,sans-Serif" font-size="10.00">::updateData</text>
</a>
</g>
</g>
<!-- Node1&#45;&gt;Node3 -->
<g id="edge2" class="edge">
<title>Node1&#45;&gt;Node3</title>
<path fill="none" stroke="midnightblue" d="M110.41,-64.5C118.95,-64.5 127.86,-64.5 136.61,-64.5"/>
<polygon fill="midnightblue" stroke="midnightblue" points="136.77,-68 146.77,-64.5 136.77,-61 136.77,-68"/>
</g>
<!-- Node5 -->
<g id="node5" class="node">
<title>Node5</title>
<g id="a_node5"><a xlink:href="classRa_1_1Engine_1_1Texture.html#aa803962552a3ec81d6e74ec62c319f16" target="_top" xlink:title=" ">
<polygon fill="white" stroke="black" points="146,-0.5 146,-30.5 258,-30.5 258,-0.5 146,-0.5"/>
<text text-anchor="start" x="154" y="-18.5" font-family="Helvetica,sans-Serif" font-size="10.00">Ra::Engine::Texture</text>
<text text-anchor="middle" x="202" y="-7.5" font-family="Helvetica,sans-Serif" font-size="10.00">::updateParameters</text>
</a>
</g>
</g>
<!-- Node1&#45;&gt;Node5 -->
<g id="edge4" class="edge">
<title>Node1&#45;&gt;Node5</title>
<path fill="none" stroke="midnightblue" d="M100.69,-49.4C115.16,-44.51 131.37,-39.03 146.48,-33.93"/>
<polygon fill="midnightblue" stroke="midnightblue" points="147.86,-37.15 156.21,-30.64 145.62,-30.52 147.86,-37.15"/>
</g>
<!-- Node4 -->
<g id="node4" class="node">
<title>Node4</title>
<g id="a_node4"><a xlink:href="classRa_1_1Engine_1_1Texture.html#aed13fcb33fe91d0dc9bcaf53b2e5c377" target="_top" xlink:title=" ">
<polygon fill="white" stroke="black" points="294,-49.5 294,-79.5 404,-79.5 404,-49.5 294,-49.5"/>
<text text-anchor="start" x="302" y="-67.5" font-family="Helvetica,sans-Serif" font-size="10.00">Ra::Engine::Texture</text>
<text text-anchor="middle" x="349" y="-56.5" font-family="Helvetica,sans-Serif" font-size="10.00">::texels</text>
</a>
</g>
</g>
<!-- Node3&#45;&gt;Node4 -->
<g id="edge3" class="edge">
<title>Node3&#45;&gt;Node4</title>
<path fill="none" stroke="midnightblue" d="M257.41,-64.5C265.95,-64.5 274.86,-64.5 283.61,-64.5"/>
<polygon fill="midnightblue" stroke="midnightblue" points="283.77,-68 293.77,-64.5 283.77,-61 283.77,-68"/>
</g>
</g>
</svg>
