<?xml version="1.0" encoding="UTF-8" standalone="no"?>
<!DOCTYPE svg PUBLIC "-//W3C//DTD SVG 1.1//EN"
 "http://www.w3.org/Graphics/SVG/1.1/DTD/svg11.dtd">
<!-- Generated by graphviz version 2.40.1 (20161225.0304)
 -->
<!-- Title: Ra::GuiBase::BaseApplication::addBasicShaders Pages: 1 -->
<svg width="587pt" height="137pt"
 viewBox="0.00 0.00 587.00 137.00" xmlns="http://www.w3.org/2000/svg" xmlns:xlink="http://www.w3.org/1999/xlink">
<g id="graph0" class="graph" transform="scale(1 1) rotate(0) translate(4 133)">
<title>Ra::GuiBase::BaseApplication::addBasicShaders</title>
<polygon fill="#ffffff" stroke="transparent" points="-4,4 -4,-133 583,-133 583,4 -4,4"/>
<!-- Node52 -->
<g id="node1" class="node">
<title>Node52</title>
<polygon fill="#bfbfbf" stroke="#000000" points="0,-49.5 0,-79.5 161,-79.5 161,-49.5 0,-49.5"/>
<text text-anchor="start" x="8" y="-67.5" font-family="Helvetica,sans-Serif" font-size="10.00" fill="#000000">Ra::GuiBase::BaseApplication</text>
<text text-anchor="middle" x="80.5" y="-56.5" font-family="Helvetica,sans-Serif" font-size="10.00" fill="#000000">::addBasicShaders</text>
</g>
<!-- Node53 -->
<g id="node2" class="node">
<title>Node53</title>
<g id="a_node2"><a xlink:href="namespaceRa_1_1Core_1_1Resources.html#aefb858008bce4916fa3cfcef244aeda0" target="_top" xlink:title="Ra::Core::Resources\l::getRadiumResourcesDir">
<polygon fill="#ffffff" stroke="#000000" points="213.5,-98.5 213.5,-128.5 353.5,-128.5 353.5,-98.5 213.5,-98.5"/>
<text text-anchor="start" x="221.5" y="-116.5" font-family="Helvetica,sans-Serif" font-size="10.00" fill="#000000">Ra::Core::Resources</text>
<text text-anchor="middle" x="283.5" y="-105.5" font-family="Helvetica,sans-Serif" font-size="10.00" fill="#000000">::getRadiumResourcesDir</text>
</a>
</g>
</g>
<!-- Node52&#45;&gt;Node53 -->
<g id="edge1" class="edge">
<title>Node52&#45;&gt;Node53</title>
<path fill="none" stroke="#191970" d="M142.7863,-79.5346C164.5125,-84.7789 189.0714,-90.7069 211.5201,-96.1255"/>
<polygon fill="#191970" stroke="#191970" points="210.7894,-99.5496 221.3315,-98.4938 212.432,-92.745 210.7894,-99.5496"/>
</g>
<!-- Node55 -->
<g id="node4" class="node">
<title>Node55</title>
<g id="a_node4"><a xlink:href="classRa_1_1Engine_1_1ShaderConfiguration.html#a8ffa1714a9e63a320acaa7873fb99797" target="_top" xlink:title="Ra::Engine::ShaderConfiguration\l::addShader">
<polygon fill="#ffffff" stroke="#000000" points="197,-49.5 197,-79.5 370,-79.5 370,-49.5 197,-49.5"/>
<text text-anchor="start" x="205" y="-67.5" font-family="Helvetica,sans-Serif" font-size="10.00" fill="#000000">Ra::Engine::ShaderConfiguration</text>
<text text-anchor="middle" x="283.5" y="-56.5" font-family="Helvetica,sans-Serif" font-size="10.00" fill="#000000">::addShader</text>
</a>
</g>
</g>
<!-- Node52&#45;&gt;Node55 -->
<g id="edge3" class="edge">
<title>Node52&#45;&gt;Node55</title>
<path fill="none" stroke="#191970" d="M161.0225,-64.5C169.4562,-64.5 178.0919,-64.5 186.6828,-64.5"/>
<polygon fill="#191970" stroke="#191970" points="186.7323,-68.0001 196.7323,-64.5 186.7323,-61.0001 186.7323,-68.0001"/>
</g>
<!-- Node56 -->
<g id="node5" class="node">
<title>Node56</title>
<g id="a_node5"><a xlink:href="namespaceRa_1_1Engine_1_1ShaderConfigurationFactory.html#a36842535508a390108fb1205210a5c49" target="_top" xlink:title="Ra::Engine::ShaderConfiguration\lFactory::addConfiguration">
<polygon fill="#ffffff" stroke="#000000" points="197,-.5 197,-30.5 370,-30.5 370,-.5 197,-.5"/>
<text text-anchor="start" x="205" y="-18.5" font-family="Helvetica,sans-Serif" font-size="10.00" fill="#000000">Ra::Engine::ShaderConfiguration</text>
<text text-anchor="middle" x="283.5" y="-7.5" font-family="Helvetica,sans-Serif" font-size="10.00" fill="#000000">Factory::addConfiguration</text>
</a>
</g>
</g>
<!-- Node52&#45;&gt;Node56 -->
<g id="edge4" class="edge">
<title>Node52&#45;&gt;Node56</title>
<path fill="none" stroke="#191970" d="M142.7863,-49.4654C164.5125,-44.2211 189.0714,-38.2931 211.5201,-32.8745"/>
<polygon fill="#191970" stroke="#191970" points="212.432,-36.255 221.3315,-30.5062 210.7894,-29.4504 212.432,-36.255"/>
</g>
<!-- Node54 -->
<g id="node3" class="node">
<title>Node54</title>
<g id="a_node3"><a xlink:href="namespaceRa_1_1Core_1_1Resources.html#a96e7523ac5a9f47629ee73938db23790" target="_top" xlink:title="Ra::Core::Resources\l::searchPath">
<polygon fill="#ffffff" stroke="#000000" points="436,-98.5 436,-128.5 549,-128.5 549,-98.5 436,-98.5"/>
<text text-anchor="start" x="444" y="-116.5" font-family="Helvetica,sans-Serif" font-size="10.00" fill="#000000">Ra::Core::Resources</text>
<text text-anchor="middle" x="492.5" y="-105.5" font-family="Helvetica,sans-Serif" font-size="10.00" fill="#000000">::searchPath</text>
</a>
</g>
</g>
<!-- Node53&#45;&gt;Node54 -->
<g id="edge2" class="edge">
<title>Node53&#45;&gt;Node54</title>
<path fill="none" stroke="#191970" d="M353.6754,-113.5C376.918,-113.5 402.7092,-113.5 425.6917,-113.5"/>
<polygon fill="#191970" stroke="#191970" points="425.6929,-117.0001 435.6928,-113.5 425.6928,-110.0001 425.6929,-117.0001"/>
</g>
<!-- Node57 -->
<g id="node6" class="node">
<title>Node57</title>
<g id="a_node6"><a xlink:href="classRa_1_1Engine_1_1ShaderConfiguration.html#a6aefbda787e65960237bb9c0cdc0f627" target="_top" xlink:title="Ra::Engine::ShaderConfiguration\l::getName">
<polygon fill="#ffffff" stroke="#000000" points="406,-.5 406,-30.5 579,-30.5 579,-.5 406,-.5"/>
<text text-anchor="start" x="414" y="-18.5" font-family="Helvetica,sans-Serif" font-size="10.00" fill="#000000">Ra::Engine::ShaderConfiguration</text>
<text text-anchor="middle" x="492.5" y="-7.5" font-family="Helvetica,sans-Serif" font-size="10.00" fill="#000000">::getName</text>
</a>
</g>
</g>
<!-- Node56&#45;&gt;Node57 -->
<g id="edge5" class="edge">
<title>Node56&#45;&gt;Node57</title>
<path fill="none" stroke="#191970" d="M370.017,-15.5C378.492,-15.5 387.1298,-15.5 395.6982,-15.5"/>
<polygon fill="#191970" stroke="#191970" points="395.711,-19.0001 405.711,-15.5 395.7109,-12.0001 395.711,-19.0001"/>
</g>
</g>
</svg>
