<?xml version="1.0" encoding="UTF-8" standalone="no"?>
<!DOCTYPE svg PUBLIC "-//W3C//DTD SVG 1.1//EN"
 "http://www.w3.org/Graphics/SVG/1.1/DTD/svg11.dtd">
<!-- Generated by graphviz version 2.40.1 (20161225.0304)
 -->
<!-- Title: Ra::Core::Utils::Attrib::setData Pages: 1 -->
<svg width="311pt" height="137pt"
 viewBox="0.00 0.00 311.00 137.00" xmlns="http://www.w3.org/2000/svg" xmlns:xlink="http://www.w3.org/1999/xlink">
<g id="graph0" class="graph" transform="scale(1 1) rotate(0) translate(4 133)">
<title>Ra::Core::Utils::Attrib::setData</title>
<polygon fill="#ffffff" stroke="transparent" points="-4,4 -4,-133 307,-133 307,4 -4,4"/>
<!-- Node21 -->
<g id="node1" class="node">
<title>Node21</title>
<polygon fill="#bfbfbf" stroke="#000000" points="0,-49.5 0,-79.5 119,-79.5 119,-49.5 0,-49.5"/>
<text text-anchor="start" x="8" y="-67.5" font-family="Helvetica,sans-Serif" font-size="10.00" fill="#000000">Ra::Core::Utils::Attrib</text>
<text text-anchor="middle" x="59.5" y="-56.5" font-family="Helvetica,sans-Serif" font-size="10.00" fill="#000000">::setData</text>
</g>
<!-- Node22 -->
<g id="node2" class="node">
<title>Node22</title>
<g id="a_node2"><a xlink:href="classRa_1_1Core_1_1Utils_1_1AttribBase.html#a030ebd538261b64958f73b9fb949c17c" target="_top" xlink:title="Ra::Core::Utils::AttribBase\l::isLocked">
<polygon fill="#ffffff" stroke="#000000" points="157.5,-98.5 157.5,-128.5 300.5,-128.5 300.5,-98.5 157.5,-98.5"/>
<text text-anchor="start" x="165.5" y="-116.5" font-family="Helvetica,sans-Serif" font-size="10.00" fill="#000000">Ra::Core::Utils::AttribBase</text>
<text text-anchor="middle" x="229" y="-105.5" font-family="Helvetica,sans-Serif" font-size="10.00" fill="#000000">::isLocked</text>
</a>
</g>
</g>
<!-- Node21&#45;&gt;Node22 -->
<g id="edge1" class="edge">
<title>Node21&#45;&gt;Node22</title>
<path fill="none" stroke="#191970" d="M111.7387,-79.6014C129.3011,-84.6785 149.0591,-90.3902 167.2802,-95.6577"/>
<polygon fill="#191970" stroke="#191970" points="166.3552,-99.0335 176.9338,-98.4484 168.2992,-92.3089 166.3552,-99.0335"/>
</g>
<!-- Node23 -->
<g id="node3" class="node">
<title>Node23</title>
<g id="a_node3"><a xlink:href="classRa_1_1Core_1_1Utils_1_1Attrib.html#a4179dd4435a6d89f2ab3cadace7fca51" target="_top" xlink:title="Read&#45;only acccess to the attribute content. ">
<polygon fill="#ffffff" stroke="#000000" points="169.5,-49.5 169.5,-79.5 288.5,-79.5 288.5,-49.5 169.5,-49.5"/>
<text text-anchor="start" x="177.5" y="-67.5" font-family="Helvetica,sans-Serif" font-size="10.00" fill="#000000">Ra::Core::Utils::Attrib</text>
<text text-anchor="middle" x="229" y="-56.5" font-family="Helvetica,sans-Serif" font-size="10.00" fill="#000000">::data</text>
</a>
</g>
</g>
<!-- Node21&#45;&gt;Node23 -->
<g id="edge2" class="edge">
<title>Node21&#45;&gt;Node23</title>
<path fill="none" stroke="#191970" d="M119.2594,-64.5C132.2472,-64.5 146.095,-64.5 159.425,-64.5"/>
<polygon fill="#191970" stroke="#191970" points="159.4948,-68.0001 169.4948,-64.5 159.4948,-61.0001 159.4948,-68.0001"/>
</g>
<!-- Node24 -->
<g id="node4" class="node">
<title>Node24</title>
<g id="a_node4"><a xlink:href="classRa_1_1Core_1_1Utils_1_1Observable.html#a7e5fe761726d56a51f95192eb6555f8f" target="_top" xlink:title="Notify (i.e. call) each attached observer with argument p. ">
<polygon fill="#ffffff" stroke="#000000" points="155,-.5 155,-30.5 303,-30.5 303,-.5 155,-.5"/>
<text text-anchor="start" x="163" y="-18.5" font-family="Helvetica,sans-Serif" font-size="10.00" fill="#000000">Ra::Core::Utils::Observable</text>
<text text-anchor="middle" x="229" y="-7.5" font-family="Helvetica,sans-Serif" font-size="10.00" fill="#000000">&lt;&gt;::notify</text>
</a>
</g>
</g>
<!-- Node21&#45;&gt;Node24 -->
<g id="edge3" class="edge">
<title>Node21&#45;&gt;Node24</title>
<path fill="none" stroke="#191970" d="M111.7387,-49.3986C129.3011,-44.3215 149.0591,-38.6098 167.2802,-33.3423"/>
<polygon fill="#191970" stroke="#191970" points="168.2992,-36.6911 176.9338,-30.5516 166.3552,-29.9665 168.2992,-36.6911"/>
</g>
</g>
</svg>
