<?xml version="1.0" encoding="UTF-8" standalone="no"?>
<!DOCTYPE svg PUBLIC "-//W3C//DTD SVG 1.1//EN"
 "http://www.w3.org/Graphics/SVG/1.1/DTD/svg11.dtd">
<!-- Generated by graphviz version 2.40.1 (20161225.0304)
 -->
<!-- Title: Ra::GuiBase::TreeItem Pages: 1 -->
<svg width="166pt" height="292pt"
 viewBox="0.00 0.00 166.00 292.00" xmlns="http://www.w3.org/2000/svg" xmlns:xlink="http://www.w3.org/1999/xlink">
<g id="graph0" class="graph" transform="scale(1 1) rotate(0) translate(4 288)">
<title>Ra::GuiBase::TreeItem</title>
<polygon fill="#ffffff" stroke="transparent" points="-4,4 -4,-288 162,-288 162,4 -4,4"/>
<!-- Node0 -->
<g id="node1" class="node">
<title>Node0</title>
<polygon fill="#bfbfbf" stroke="#000000" points="16.5,-116.5 16.5,-283.5 141.5,-283.5 141.5,-116.5 16.5,-116.5"/>
<text text-anchor="middle" x="79" y="-271.5" font-family="Helvetica,sans-Serif" font-size="10.00" fill="#000000">Ra::GuiBase::TreeItem</text>
<polyline fill="none" stroke="#000000" points="16.5,-264.5 141.5,-264.5 "/>
<text text-anchor="start" x="24.5" y="-252.5" font-family="Helvetica,sans-Serif" font-size="10.00" fill="#000000">+ m_parent</text>
<text text-anchor="start" x="24.5" y="-241.5" font-family="Helvetica,sans-Serif" font-size="10.00" fill="#000000">+ m_children</text>
<polyline fill="none" stroke="#000000" points="16.5,-234.5 141.5,-234.5 "/>
<text text-anchor="start" x="24.5" y="-222.5" font-family="Helvetica,sans-Serif" font-size="10.00" fill="#000000">+ TreeItem()</text>
<text text-anchor="start" x="24.5" y="-211.5" font-family="Helvetica,sans-Serif" font-size="10.00" fill="#000000">+ ~TreeItem()</text>
<text text-anchor="start" x="24.5" y="-200.5" font-family="Helvetica,sans-Serif" font-size="10.00" fill="#000000">+ TreeItem()</text>
<text text-anchor="start" x="24.5" y="-189.5" font-family="Helvetica,sans-Serif" font-size="10.00" fill="#000000">+ operator=()</text>
<text text-anchor="start" x="24.5" y="-178.5" font-family="Helvetica,sans-Serif" font-size="10.00" fill="#000000">+ getName()</text>
<text text-anchor="start" x="24.5" y="-167.5" font-family="Helvetica,sans-Serif" font-size="10.00" fill="#000000">+ isValid()</text>
<text text-anchor="start" x="24.5" y="-156.5" font-family="Helvetica,sans-Serif" font-size="10.00" fill="#000000">+ isSelectable()</text>
<text text-anchor="start" x="24.5" y="-145.5" font-family="Helvetica,sans-Serif" font-size="10.00" fill="#000000">+ getIndexInParent()</text>
<text text-anchor="start" x="24.5" y="-134.5" font-family="Helvetica,sans-Serif" font-size="10.00" fill="#000000">+ isChecked()</text>
<text text-anchor="start" x="24.5" y="-123.5" font-family="Helvetica,sans-Serif" font-size="10.00" fill="#000000">+ setChecked()</text>
</g>
<!-- Node1 -->
<g id="node2" class="node">
<title>Node1</title>
<g id="a_node2"><a xlink:href="classRa_1_1GuiBase_1_1EngineTreeItem.html" target="_top" xlink:title="{Ra::GuiBase::EngineTreeItem\n|+ m_entry\l|+ getName()\l+ isValid()\l+ isSelectable()\l}">
<polygon fill="#ffffff" stroke="#000000" points="0,-.5 0,-79.5 158,-79.5 158,-.5 0,-.5"/>
<text text-anchor="middle" x="79" y="-67.5" font-family="Helvetica,sans-Serif" font-size="10.00" fill="#000000">Ra::GuiBase::EngineTreeItem</text>
<polyline fill="none" stroke="#000000" points="0,-60.5 158,-60.5 "/>
<text text-anchor="start" x="8" y="-48.5" font-family="Helvetica,sans-Serif" font-size="10.00" fill="#000000">+ m_entry</text>
<polyline fill="none" stroke="#000000" points="0,-41.5 158,-41.5 "/>
<text text-anchor="start" x="8" y="-29.5" font-family="Helvetica,sans-Serif" font-size="10.00" fill="#000000">+ getName()</text>
<text text-anchor="start" x="8" y="-18.5" font-family="Helvetica,sans-Serif" font-size="10.00" fill="#000000">+ isValid()</text>
<text text-anchor="start" x="8" y="-7.5" font-family="Helvetica,sans-Serif" font-size="10.00" fill="#000000">+ isSelectable()</text>
</a>
</g>
</g>
<!-- Node0&#45;&gt;Node1 -->
<g id="edge1" class="edge">
<title>Node0&#45;&gt;Node1</title>
<path fill="none" stroke="#191970" d="M79,-106.1798C79,-96.9673 79,-88.0069 79,-79.8076"/>
<polygon fill="none" stroke="#191970" points="75.5001,-106.2512 79,-116.2512 82.5001,-106.2513 75.5001,-106.2512"/>
</g>
</g>
</svg>
