<?xml version="1.0" encoding="UTF-8" standalone="no"?>
<!DOCTYPE svg PUBLIC "-//W3C//DTD SVG 1.1//EN"
 "http://www.w3.org/Graphics/SVG/1.1/DTD/svg11.dtd">
<!-- Generated by graphviz version 2.43.0 (0)
 -->
<!-- Title: Ra::Core::Geometry::CatmullClarkSubdivider::prepare Pages: 1 -->
<svg width="547pt" height="350pt"
 viewBox="0.00 0.00 547.00 350.00" xmlns="http://www.w3.org/2000/svg" xmlns:xlink="http://www.w3.org/1999/xlink">
<g id="graph0" class="graph" transform="scale(1 1) rotate(0) translate(4 346)">
<title>Ra::Core::Geometry::CatmullClarkSubdivider::prepare</title>
<polygon fill="white" stroke="transparent" points="-4,4 -4,-346 543,-346 543,4 -4,4"/>
<!-- Node1 -->
<g id="node1" class="node">
<title>Node1</title>
<g id="a_node1"><a xlink:title=" ">
<polygon fill="#bfbfbf" stroke="black" points="0,-120.5 0,-161.5 138,-161.5 138,-120.5 0,-120.5"/>
<text text-anchor="start" x="8" y="-149.5" font-family="Helvetica,sans-Serif" font-size="10.00">Ra::Core::Geometry</text>
<text text-anchor="start" x="8" y="-138.5" font-family="Helvetica,sans-Serif" font-size="10.00">::CatmullClarkSubdivider</text>
<text text-anchor="middle" x="69" y="-127.5" font-family="Helvetica,sans-Serif" font-size="10.00">::prepare</text>
</a>
</g>
</g>
<!-- Node2 -->
<g id="node2" class="node">
<title>Node2</title>
<g id="a_node2"><a xlink:href="classRa_1_1Core_1_1Geometry_1_1TopologicalMesh.html#ad68779f7a72138a89f45c29f75dd692a" target="_top" xlink:title=" ">
<polygon fill="white" stroke="black" points="174,-150.5 174,-191.5 327,-191.5 327,-150.5 174,-150.5"/>
<text text-anchor="start" x="182" y="-179.5" font-family="Helvetica,sans-Serif" font-size="10.00">Ra::Core::Geometry</text>
<text text-anchor="start" x="182" y="-168.5" font-family="Helvetica,sans-Serif" font-size="10.00">::TopologicalMesh::createAll</text>
<text text-anchor="middle" x="250.5" y="-157.5" font-family="Helvetica,sans-Serif" font-size="10.00">PropsOnFaces</text>
</a>
</g>
</g>
<!-- Node1&#45;&gt;Node2 -->
<g id="edge1" class="edge">
<title>Node1&#45;&gt;Node2</title>
<path fill="none" stroke="midnightblue" d="M138.12,-152.38C146.53,-153.79 155.21,-155.24 163.84,-156.68"/>
<polygon fill="midnightblue" stroke="midnightblue" points="163.49,-160.17 173.93,-158.37 164.64,-153.27 163.49,-160.17"/>
</g>
<!-- Node9 -->
<g id="node9" class="node">
<title>Node9</title>
<g id="a_node9"><a xlink:href="classRa_1_1Core_1_1Geometry_1_1TopologicalMesh.html#afaacfdb6d79a9ccac45b78eba989d41d" target="_top" xlink:title=" ">
<polygon fill="white" stroke="black" points="174.5,-90.5 174.5,-131.5 326.5,-131.5 326.5,-90.5 174.5,-90.5"/>
<text text-anchor="start" x="182.5" y="-119.5" font-family="Helvetica,sans-Serif" font-size="10.00">Ra::Core::Geometry</text>
<text text-anchor="start" x="182.5" y="-108.5" font-family="Helvetica,sans-Serif" font-size="10.00">::TopologicalMesh::halfedge</text>
<text text-anchor="middle" x="250.5" y="-97.5" font-family="Helvetica,sans-Serif" font-size="10.00">_handle</text>
</a>
</g>
</g>
<!-- Node1&#45;&gt;Node9 -->
<g id="edge8" class="edge">
<title>Node1&#45;&gt;Node9</title>
<path fill="none" stroke="midnightblue" d="M138.12,-129.62C146.69,-128.18 155.55,-126.7 164.34,-125.23"/>
<polygon fill="midnightblue" stroke="midnightblue" points="164.95,-128.68 174.23,-123.58 163.79,-121.78 164.95,-128.68"/>
</g>
<!-- Node3 -->
<g id="node3" class="node">
<title>Node3</title>
<g id="a_node3"><a xlink:href="classRa_1_1Core_1_1Geometry_1_1TopologicalMesh.html#a6ee8c2aff09a058a2e19ab9642ee42da" target="_top" xlink:title=" ">
<polygon fill="white" stroke="black" points="363,-300.5 363,-341.5 539,-341.5 539,-300.5 363,-300.5"/>
<text text-anchor="start" x="371" y="-329.5" font-family="Helvetica,sans-Serif" font-size="10.00">Ra::Core::Geometry</text>
<text text-anchor="start" x="371" y="-318.5" font-family="Helvetica,sans-Serif" font-size="10.00">::TopologicalMesh::createNormal</text>
<text text-anchor="middle" x="451" y="-307.5" font-family="Helvetica,sans-Serif" font-size="10.00">PropOnFaces</text>
</a>
</g>
</g>
<!-- Node2&#45;&gt;Node3 -->
<g id="edge2" class="edge">
<title>Node2&#45;&gt;Node3</title>
<path fill="none" stroke="midnightblue" d="M265.73,-191.74C284.92,-218.27 321.53,-264 363,-291 365.59,-292.69 368.29,-294.29 371.07,-295.82"/>
<polygon fill="midnightblue" stroke="midnightblue" points="369.64,-299.02 380.15,-300.42 372.81,-292.77 369.64,-299.02"/>
</g>
<!-- Node4 -->
<g id="node4" class="node">
<title>Node4</title>
<g id="a_node4"><a xlink:href="classRa_1_1Core_1_1Geometry_1_1TopologicalMesh.html#aa0f39c9b822cf5e300a7e67c76be06d6" target="_top" xlink:title=" ">
<polygon fill="white" stroke="black" points="367.5,-240.5 367.5,-281.5 534.5,-281.5 534.5,-240.5 367.5,-240.5"/>
<text text-anchor="start" x="375.5" y="-269.5" font-family="Helvetica,sans-Serif" font-size="10.00">Ra::Core::Geometry</text>
<text text-anchor="start" x="375.5" y="-258.5" font-family="Helvetica,sans-Serif" font-size="10.00">::TopologicalMesh::createProps</text>
<text text-anchor="middle" x="451" y="-247.5" font-family="Helvetica,sans-Serif" font-size="10.00">OnFaces</text>
</a>
</g>
</g>
<!-- Node2&#45;&gt;Node4 -->
<g id="edge3" class="edge">
<title>Node2&#45;&gt;Node4</title>
<path fill="none" stroke="midnightblue" d="M286.42,-191.68C308.04,-204.01 336.62,-219.45 363,-231 367.43,-232.94 372.03,-234.84 376.7,-236.69"/>
<polygon fill="midnightblue" stroke="midnightblue" points="375.75,-240.07 386.34,-240.39 378.26,-233.54 375.75,-240.07"/>
</g>
<!-- Node5 -->
<g id="node5" class="node">
<title>Node5</title>
<g id="a_node5"><a xlink:href="classRa_1_1Core_1_1Geometry_1_1TopologicalMesh.html#ac0bc26a22df41861c7bfa23d79105ba7" target="_top" xlink:title=" ">
<polygon fill="white" stroke="black" points="376,-180.5 376,-221.5 526,-221.5 526,-180.5 376,-180.5"/>
<text text-anchor="start" x="384" y="-209.5" font-family="Helvetica,sans-Serif" font-size="10.00">Ra::Core::Geometry</text>
<text text-anchor="start" x="384" y="-198.5" font-family="Helvetica,sans-Serif" font-size="10.00">::TopologicalMesh::getFloat</text>
<text text-anchor="middle" x="451" y="-187.5" font-family="Helvetica,sans-Serif" font-size="10.00">PropsHandles</text>
</a>
</g>
</g>
<!-- Node2&#45;&gt;Node5 -->
<g id="edge4" class="edge">
<title>Node2&#45;&gt;Node5</title>
<path fill="none" stroke="midnightblue" d="M327.11,-182.43C339.73,-184.33 352.9,-186.32 365.72,-188.26"/>
<polygon fill="midnightblue" stroke="midnightblue" points="365.5,-191.77 375.91,-189.8 366.55,-184.85 365.5,-191.77"/>
</g>
<!-- Node6 -->
<g id="node6" class="node">
<title>Node6</title>
<g id="a_node6"><a xlink:href="classRa_1_1Core_1_1Geometry_1_1TopologicalMesh.html#a122e0ecbdc766232c88dc7f6ad035475" target="_top" xlink:title=" ">
<polygon fill="white" stroke="black" points="370,-120.5 370,-161.5 532,-161.5 532,-120.5 370,-120.5"/>
<text text-anchor="start" x="378" y="-149.5" font-family="Helvetica,sans-Serif" font-size="10.00">Ra::Core::Geometry</text>
<text text-anchor="start" x="378" y="-138.5" font-family="Helvetica,sans-Serif" font-size="10.00">::TopologicalMesh::getVector2</text>
<text text-anchor="middle" x="451" y="-127.5" font-family="Helvetica,sans-Serif" font-size="10.00">PropsHandles</text>
</a>
</g>
</g>
<!-- Node2&#45;&gt;Node6 -->
<g id="edge5" class="edge">
<title>Node2&#45;&gt;Node6</title>
<path fill="none" stroke="midnightblue" d="M327.11,-159.57C337.85,-157.95 348.98,-156.27 359.95,-154.61"/>
<polygon fill="midnightblue" stroke="midnightblue" points="360.61,-158.05 369.98,-153.09 359.57,-151.13 360.61,-158.05"/>
</g>
<!-- Node7 -->
<g id="node7" class="node">
<title>Node7</title>
<g id="a_node7"><a xlink:href="classRa_1_1Core_1_1Geometry_1_1TopologicalMesh.html#a6e52c5ca0ef3fbca09207722f5115bb7" target="_top" xlink:title=" ">
<polygon fill="white" stroke="black" points="370,-60.5 370,-101.5 532,-101.5 532,-60.5 370,-60.5"/>
<text text-anchor="start" x="378" y="-89.5" font-family="Helvetica,sans-Serif" font-size="10.00">Ra::Core::Geometry</text>
<text text-anchor="start" x="378" y="-78.5" font-family="Helvetica,sans-Serif" font-size="10.00">::TopologicalMesh::getVector3</text>
<text text-anchor="middle" x="451" y="-67.5" font-family="Helvetica,sans-Serif" font-size="10.00">PropsHandles</text>
</a>
</g>
</g>
<!-- Node2&#45;&gt;Node7 -->
<g id="edge6" class="edge">
<title>Node2&#45;&gt;Node7</title>
<path fill="none" stroke="midnightblue" d="M308.91,-150.44C315.15,-147.54 321.3,-144.39 327,-141 344.9,-130.35 344.86,-121.23 363,-111 366.25,-109.17 369.64,-107.42 373.1,-105.75"/>
<polygon fill="midnightblue" stroke="midnightblue" points="374.75,-108.85 382.43,-101.54 371.87,-102.47 374.75,-108.85"/>
</g>
<!-- Node8 -->
<g id="node8" class="node">
<title>Node8</title>
<g id="a_node8"><a xlink:href="classRa_1_1Core_1_1Geometry_1_1TopologicalMesh.html#a52b4baf67feb85e44253d9a966a9a886" target="_top" xlink:title=" ">
<polygon fill="white" stroke="black" points="370,-0.5 370,-41.5 532,-41.5 532,-0.5 370,-0.5"/>
<text text-anchor="start" x="378" y="-29.5" font-family="Helvetica,sans-Serif" font-size="10.00">Ra::Core::Geometry</text>
<text text-anchor="start" x="378" y="-18.5" font-family="Helvetica,sans-Serif" font-size="10.00">::TopologicalMesh::getVector4</text>
<text text-anchor="middle" x="451" y="-7.5" font-family="Helvetica,sans-Serif" font-size="10.00">PropsHandles</text>
</a>
</g>
</g>
<!-- Node2&#45;&gt;Node8 -->
<g id="edge7" class="edge">
<title>Node2&#45;&gt;Node8</title>
<path fill="none" stroke="midnightblue" d="M315.34,-150.32C319.55,-147.58 323.51,-144.49 327,-141 357.5,-110.57 331.81,-80.72 363,-51 364.27,-49.79 365.6,-48.62 366.96,-47.51"/>
<polygon fill="midnightblue" stroke="midnightblue" points="369.13,-50.26 375.24,-41.61 365.07,-44.56 369.13,-50.26"/>
</g>
</g>
</svg>
