<?xml version="1.0" encoding="UTF-8" standalone="no"?>
<!DOCTYPE svg PUBLIC "-//W3C//DTD SVG 1.1//EN"
 "http://www.w3.org/Graphics/SVG/1.1/DTD/svg11.dtd">
<!-- Generated by graphviz version 2.40.1 (20161225.0304)
 -->
<!-- Title: Ra::Engine::Component::removeRenderObject Pages: 1 -->
<!--zoomable 88 -->
<svg id="main" version="1.1" xmlns="http://www.w3.org/2000/svg" xmlns:xlink="http://www.w3.org/1999/xlink" xml:space="preserve" onload="init(evt)">
<style type="text/css"><![CDATA[
.edge:hover path { stroke: red; }
.edge:hover polygon { stroke: red; fill: red; }
]]></style>
<script type="text/javascript"><![CDATA[
var edges = document.getElementsByTagName('g');
if (edges && edges.length) {
  for (var i=0;i<edges.length;i++) {
    if (edges[i].id.substr(0,4)=='edge') {
      edges[i].setAttribute('class','edge');
    }
  }
}
]]></script>
        <defs>
                <circle id="rim" cx="0" cy="0" r="7"/>
                <circle id="rim2" cx="0" cy="0" r="3.5"/>
                <g id="zoomPlus">
                        <use xlink:href="#rim" fill="#404040">
                                <set attributeName="fill" to="#808080" begin="zoomplus.mouseover" end="zoomplus.mouseout"/>
                        </use>
                        <path d="M-4,0h8M0,-4v8" fill="none" stroke="white" stroke-width="1.5" pointer-events="none"/>
                </g>
                <g id="zoomMin">
                        <use xlink:href="#rim" fill="#404040">
                                <set attributeName="fill" to="#808080" begin="zoomminus.mouseover" end="zoomminus.mouseout"/>
                        </use>
                        <path d="M-4,0h8" fill="none" stroke="white" stroke-width="1.5" pointer-events="none"/>
                </g>
                <g id="dirArrow">
                        <path fill="none" stroke="white" stroke-width="1.5" d="M0,-3.0v7 M-2.5,-0.5L0,-3.0L2.5,-0.5"/>
                </g>
               <g id="resetDef">
                       <use xlink:href="#rim2" fill="#404040">
                               <set attributeName="fill" to="#808080" begin="reset.mouseover" end="reset.mouseout"/>
                       </use>
               </g>
        </defs>

<script type="text/javascript">
var viewWidth = 673;
var viewHeight = 88;
var sectionId = 'dynsection-5';
</script>
<script xlink:href="svgpan.js"/>
<svg id="graph" class="graph">
<g id="viewport">
<title>Ra::Engine::Component::removeRenderObject</title>
<polygon fill="#ffffff" stroke="transparent" points="-4,4 -4,-84 669,-84 669,4 -4,4"/>
<!-- Node24 -->
<g id="node1" class="node">
<title>Node24</title>
<polygon fill="#bfbfbf" stroke="#000000" points="0,-24.5 0,-54.5 131,-54.5 131,-24.5 0,-24.5"/>
<text text-anchor="start" x="8" y="-42.5" font-family="Helvetica,sans-Serif" font-size="10.00" fill="#000000">Ra::Engine::Component</text>
<text text-anchor="middle" x="65.5" y="-31.5" font-family="Helvetica,sans-Serif" font-size="10.00" fill="#000000">::removeRenderObject</text>
</g>
<!-- Node25 -->
<g id="node2" class="node">
<title>Node25</title>
<g id="a_node2"><a xlink:href="classRa_1_1Engine_1_1Component.html#a10b0bc182b76165744ebea603ae32dfe" target="_top" xlink:title="Shortcut to access the render object manager. ">
<polygon fill="#ffffff" stroke="#000000" points="185,-49.5 185,-79.5 316,-79.5 316,-49.5 185,-49.5"/>
<text text-anchor="start" x="193" y="-67.5" font-family="Helvetica,sans-Serif" font-size="10.00" fill="#000000">Ra::Engine::Component</text>
<text text-anchor="middle" x="250.5" y="-56.5" font-family="Helvetica,sans-Serif" font-size="10.00" fill="#000000">::getRoMgr</text>
</a>
</g>
</g>
<!-- Node24&#45;&gt;Node25 -->
<g id="edge1" class="edge">
<title>Node24&#45;&gt;Node25</title>
<path fill="none" stroke="#191970" d="M131.245,-48.3845C145.4213,-50.3002 160.515,-52.3399 175.0293,-54.3013"/>
<polygon fill="#191970" stroke="#191970" points="174.5881,-57.7734 184.9667,-55.6442 175.5256,-50.8364 174.5881,-57.7734"/>
</g>
<!-- Node26 -->
<g id="node3" class="node">
<title>Node26</title>
<g id="a_node3"><a xlink:href="classRa_1_1Engine_1_1RenderObjectManager.html#a799b29b7dae9b6b86aaf96d4e5567d0b" target="_top" xlink:title="Ra::Engine::RenderObject\lManager::removeRenderObject">
<polygon fill="#ffffff" stroke="#000000" points="167,-.5 167,-30.5 334,-30.5 334,-.5 167,-.5"/>
<text text-anchor="start" x="175" y="-18.5" font-family="Helvetica,sans-Serif" font-size="10.00" fill="#000000">Ra::Engine::RenderObject</text>
<text text-anchor="middle" x="250.5" y="-7.5" font-family="Helvetica,sans-Serif" font-size="10.00" fill="#000000">Manager::removeRenderObject</text>
</a>
</g>
</g>
<!-- Node24&#45;&gt;Node26 -->
<g id="edge2" class="edge">
<title>Node24&#45;&gt;Node26</title>
<path fill="none" stroke="#191970" d="M131.245,-30.9709C139.5307,-29.896 148.1299,-28.7804 156.7436,-27.663"/>
<polygon fill="#191970" stroke="#191970" points="157.3775,-31.1102 166.844,-26.3527 156.4768,-24.1684 157.3775,-31.1102"/>
</g>
<!-- Node27 -->
<g id="node4" class="node">
<title>Node27</title>
<g id="a_node4"><a xlink:href="classRa_1_1Engine_1_1RenderObjectManager.html#a242218228300c8e03481863b9a808dec" target="_top" xlink:title="Ra::Engine::RenderObject\lManager::exists">
<polygon fill="#ffffff" stroke="#000000" points="370,-.5 370,-30.5 510,-30.5 510,-.5 370,-.5"/>
<text text-anchor="start" x="378" y="-18.5" font-family="Helvetica,sans-Serif" font-size="10.00" fill="#000000">Ra::Engine::RenderObject</text>
<text text-anchor="middle" x="440" y="-7.5" font-family="Helvetica,sans-Serif" font-size="10.00" fill="#000000">Manager::exists</text>
</a>
</g>
</g>
<!-- Node26&#45;&gt;Node27 -->
<g id="edge3" class="edge">
<title>Node26&#45;&gt;Node27</title>
<path fill="none" stroke="#191970" d="M334.1691,-15.5C342.6277,-15.5 351.2059,-15.5 359.6288,-15.5"/>
<polygon fill="#191970" stroke="#191970" points="359.8075,-19.0001 369.8074,-15.5 359.8074,-12.0001 359.8075,-19.0001"/>
</g>
<!-- Node28 -->
<g id="node5" class="node">
<title>Node28</title>
<g id="a_node5"><a xlink:href="classRa_1_1Core_1_1Utils_1_1Index.html#ac1a3e02d77abd15c2a307673f5b67fa1" target="_top" xlink:title="VALID. ">
<polygon fill="#ffffff" stroke="#000000" points="546,-.5 546,-30.5 665,-30.5 665,-.5 546,-.5"/>
<text text-anchor="start" x="554" y="-18.5" font-family="Helvetica,sans-Serif" font-size="10.00" fill="#000000">Ra::Core::Utils::Index</text>
<text text-anchor="middle" x="605.5" y="-7.5" font-family="Helvetica,sans-Serif" font-size="10.00" fill="#000000">::isValid</text>
</a>
</g>
</g>
<!-- Node27&#45;&gt;Node28 -->
<g id="edge4" class="edge">
<title>Node27&#45;&gt;Node28</title>
<path fill="none" stroke="#191970" d="M510.1869,-15.5C518.6424,-15.5 527.2771,-15.5 535.7266,-15.5"/>
<polygon fill="#191970" stroke="#191970" points="535.917,-19.0001 545.917,-15.5 535.9169,-12.0001 535.917,-19.0001"/>
</g>
</g>
</svg>
        <g id="navigator" transform="translate(0 0)" fill="#404254">
                <rect fill="#f2f5e9" fill-opacity="0.5" stroke="#606060" stroke-width=".5" x="0" y="0" width="60" height="60"/>
                <use id="zoomplus" xlink:href="#zoomPlus" x="17" y="9" onmousedown="handleZoom(evt,'in')"/>
                <use id="zoomminus" xlink:href="#zoomMin" x="42" y="9" onmousedown="handleZoom(evt,'out')"/>
                <use id="reset" xlink:href="#resetDef" x="30" y="36" onmousedown="handleReset()"/>
                <g id="arrowUp" xlink:href="#dirArrow" transform="translate(30 24)" onmousedown="handlePan(0,-1)">
                  <use xlink:href="#rim" fill="#404040">
                        <set attributeName="fill" to="#808080" begin="arrowUp.mouseover" end="arrowUp.mouseout"/>
                  </use>
                  <path fill="none" stroke="white" stroke-width="1.5" d="M0,-3.0v7 M-2.5,-0.5L0,-3.0L2.5,-0.5"/>
                </g>
                <g id="arrowRight" xlink:href="#dirArrow" transform="rotate(90) translate(36 -43)" onmousedown="handlePan(1,0)">
                  <use xlink:href="#rim" fill="#404040">
                        <set attributeName="fill" to="#808080" begin="arrowRight.mouseover" end="arrowRight.mouseout"/>
                  </use>
                  <path fill="none" stroke="white" stroke-width="1.5" d="M0,-3.0v7 M-2.5,-0.5L0,-3.0L2.5,-0.5"/>
                </g>
                <g id="arrowDown" xlink:href="#dirArrow" transform="rotate(180) translate(-30 -48)" onmousedown="handlePan(0,1)">
                  <use xlink:href="#rim" fill="#404040">
                        <set attributeName="fill" to="#808080" begin="arrowDown.mouseover" end="arrowDown.mouseout"/>
                  </use>
                  <path fill="none" stroke="white" stroke-width="1.5" d="M0,-3.0v7 M-2.5,-0.5L0,-3.0L2.5,-0.5"/>
                </g>
                <g id="arrowLeft" xlink:href="#dirArrow" transform="rotate(270) translate(-36 17)" onmousedown="handlePan(-1,0)">
                  <use xlink:href="#rim" fill="#404040">
                        <set attributeName="fill" to="#808080" begin="arrowLeft.mouseover" end="arrowLeft.mouseout"/>
                  </use>
                  <path fill="none" stroke="white" stroke-width="1.5" d="M0,-3.0v7 M-2.5,-0.5L0,-3.0L2.5,-0.5"/>
                </g>
        </g>
        <svg viewBox="0 0 15 15" width="100%" height="30px" preserveAspectRatio="xMaxYMin meet">
         <g id="arrow_out" transform="scale(0.3 0.3)">
          <a xlink:href="classRa_1_1Engine_1_1Component_a61d99a79b8f17110b90297ba655caa93_cgraph_org.svg" target="_base">
           <rect id="button" ry="5" rx="5" y="6" x="6" height="38" width="38"
                fill="#f2f5e9" fill-opacity="0.5" stroke="#606060" stroke-width="1.0"/>
           <path id="arrow"
             d="M 11.500037,31.436501 C 11.940474,20.09759 22.043105,11.32322 32.158766,21.979434 L 37.068811,17.246167 C 37.068811,17.246167 37.088388,32 37.088388,32 L 22.160133,31.978069 C 22.160133,31.978069 26.997745,27.140456 26.997745,27.140456 C 18.528582,18.264221 13.291696,25.230495 11.500037,31.436501 z"
             style="fill:#404040;"/>
          </a>
         </g>
        </svg>
</svg>
