<?xml version="1.0" encoding="UTF-8" standalone="no"?>
<!DOCTYPE svg PUBLIC "-//W3C//DTD SVG 1.1//EN"
 "http://www.w3.org/Graphics/SVG/1.1/DTD/svg11.dtd">
<!-- Generated by graphviz version 2.40.1 (20161225.0304)
 -->
<!-- Title: Ra::Engine::DefaultCameraManager Pages: 1 -->
<svg width="591pt" height="923pt"
 viewBox="0.00 0.00 591.00 923.00" xmlns="http://www.w3.org/2000/svg" xmlns:xlink="http://www.w3.org/1999/xlink">
<g id="graph0" class="graph" transform="scale(1 1) rotate(0) translate(4 919)">
<title>Ra::Engine::DefaultCameraManager</title>
<polygon fill="#ffffff" stroke="transparent" points="-4,4 -4,-919 587,-919 587,4 -4,4"/>
<!-- Node3 -->
<g id="node1" class="node">
<title>Node3</title>
<polygon fill="#bfbfbf" stroke="#000000" points="178,-.5 178,-90.5 330,-90.5 330,-.5 178,-.5"/>
<text text-anchor="start" x="186" y="-78.5" font-family="Helvetica,sans-Serif" font-size="10.00" fill="#000000">Ra::Engine::DefaultCamera</text>
<text text-anchor="middle" x="254" y="-67.5" font-family="Helvetica,sans-Serif" font-size="10.00" fill="#000000">Manager</text>
<polyline fill="none" stroke="#000000" points="178,-60.5 330,-60.5 "/>
<text text-anchor="middle" x="254" y="-48.5" font-family="Helvetica,sans-Serif" font-size="10.00" fill="#000000"> </text>
<polyline fill="none" stroke="#000000" points="178,-41.5 330,-41.5 "/>
<text text-anchor="start" x="186" y="-29.5" font-family="Helvetica,sans-Serif" font-size="10.00" fill="#000000">+ DefaultCameraManager()</text>
<text text-anchor="start" x="186" y="-18.5" font-family="Helvetica,sans-Serif" font-size="10.00" fill="#000000">+ getCamera()</text>
<text text-anchor="start" x="186" y="-7.5" font-family="Helvetica,sans-Serif" font-size="10.00" fill="#000000">+ addCamera()</text>
</g>
<!-- Node4 -->
<g id="node2" class="node">
<title>Node4</title>
<g id="a_node2"><a xlink:href="classRa_1_1Engine_1_1CameraManager.html" target="_top" xlink:title="{Ra::Engine::CameraManager\n||+ CameraManager()\l+ CameraManager()\l+ operator=()\l+ ~CameraManager()\l+ getCamera()\l+ addCamera()\l+ count()\l+ generateTasks()\l+ handleAssetLoading()\l# registerComponent()\l# unregisterComponent()\l# unregisterAllComponents()\l}">
<polygon fill="#ffffff" stroke="#000000" points="174.5,-128.5 174.5,-306.5 333.5,-306.5 333.5,-128.5 174.5,-128.5"/>
<text text-anchor="middle" x="254" y="-294.5" font-family="Helvetica,sans-Serif" font-size="10.00" fill="#000000">Ra::Engine::CameraManager</text>
<polyline fill="none" stroke="#000000" points="174.5,-287.5 333.5,-287.5 "/>
<text text-anchor="middle" x="254" y="-275.5" font-family="Helvetica,sans-Serif" font-size="10.00" fill="#000000"> </text>
<polyline fill="none" stroke="#000000" points="174.5,-268.5 333.5,-268.5 "/>
<text text-anchor="start" x="182.5" y="-256.5" font-family="Helvetica,sans-Serif" font-size="10.00" fill="#000000">+ CameraManager()</text>
<text text-anchor="start" x="182.5" y="-245.5" font-family="Helvetica,sans-Serif" font-size="10.00" fill="#000000">+ CameraManager()</text>
<text text-anchor="start" x="182.5" y="-234.5" font-family="Helvetica,sans-Serif" font-size="10.00" fill="#000000">+ operator=()</text>
<text text-anchor="start" x="182.5" y="-223.5" font-family="Helvetica,sans-Serif" font-size="10.00" fill="#000000">+ ~CameraManager()</text>
<text text-anchor="start" x="182.5" y="-212.5" font-family="Helvetica,sans-Serif" font-size="10.00" fill="#000000">+ getCamera()</text>
<text text-anchor="start" x="182.5" y="-201.5" font-family="Helvetica,sans-Serif" font-size="10.00" fill="#000000">+ addCamera()</text>
<text text-anchor="start" x="182.5" y="-190.5" font-family="Helvetica,sans-Serif" font-size="10.00" fill="#000000">+ count()</text>
<text text-anchor="start" x="182.5" y="-179.5" font-family="Helvetica,sans-Serif" font-size="10.00" fill="#000000">+ generateTasks()</text>
<text text-anchor="start" x="182.5" y="-168.5" font-family="Helvetica,sans-Serif" font-size="10.00" fill="#000000">+ handleAssetLoading()</text>
<text text-anchor="start" x="182.5" y="-157.5" font-family="Helvetica,sans-Serif" font-size="10.00" fill="#000000"># registerComponent()</text>
<text text-anchor="start" x="182.5" y="-146.5" font-family="Helvetica,sans-Serif" font-size="10.00" fill="#000000"># unregisterComponent()</text>
<text text-anchor="start" x="182.5" y="-135.5" font-family="Helvetica,sans-Serif" font-size="10.00" fill="#000000"># unregisterAllComponents()</text>
</a>
</g>
</g>
<!-- Node4&#45;&gt;Node3 -->
<g id="edge1" class="edge">
<title>Node4&#45;&gt;Node3</title>
<path fill="none" stroke="#191970" d="M254,-118.3729C254,-108.735 254,-99.3225 254,-90.6348"/>
<polygon fill="none" stroke="#191970" points="250.5001,-118.4771 254,-128.4771 257.5001,-118.4772 250.5001,-118.4771"/>
</g>
<!-- Node5 -->
<g id="node3" class="node">
<title>Node5</title>
<g id="a_node3"><a xlink:href="classRa_1_1Engine_1_1System.html" target="_top" xlink:title="{Ra::Engine::System\n||+ System()\l+ ~System()\l+ handleAssetLoading()\l+ generateTasks()\l+ getEntityComponents()\l+ addComponent()\l# registerComponent()\l# unregisterComponent()\l# unregisterAllComponents()\l}">
<polygon fill="#ffffff" stroke="#000000" points="113.5,-344.5 113.5,-489.5 272.5,-489.5 272.5,-344.5 113.5,-344.5"/>
<text text-anchor="middle" x="193" y="-477.5" font-family="Helvetica,sans-Serif" font-size="10.00" fill="#000000">Ra::Engine::System</text>
<polyline fill="none" stroke="#000000" points="113.5,-470.5 272.5,-470.5 "/>
<text text-anchor="middle" x="193" y="-458.5" font-family="Helvetica,sans-Serif" font-size="10.00" fill="#000000"> </text>
<polyline fill="none" stroke="#000000" points="113.5,-451.5 272.5,-451.5 "/>
<text text-anchor="start" x="121.5" y="-439.5" font-family="Helvetica,sans-Serif" font-size="10.00" fill="#000000">+ System()</text>
<text text-anchor="start" x="121.5" y="-428.5" font-family="Helvetica,sans-Serif" font-size="10.00" fill="#000000">+ ~System()</text>
<text text-anchor="start" x="121.5" y="-417.5" font-family="Helvetica,sans-Serif" font-size="10.00" fill="#000000">+ handleAssetLoading()</text>
<text text-anchor="start" x="121.5" y="-406.5" font-family="Helvetica,sans-Serif" font-size="10.00" fill="#000000">+ generateTasks()</text>
<text text-anchor="start" x="121.5" y="-395.5" font-family="Helvetica,sans-Serif" font-size="10.00" fill="#000000">+ getEntityComponents()</text>
<text text-anchor="start" x="121.5" y="-384.5" font-family="Helvetica,sans-Serif" font-size="10.00" fill="#000000">+ addComponent()</text>
<text text-anchor="start" x="121.5" y="-373.5" font-family="Helvetica,sans-Serif" font-size="10.00" fill="#000000"># registerComponent()</text>
<text text-anchor="start" x="121.5" y="-362.5" font-family="Helvetica,sans-Serif" font-size="10.00" fill="#000000"># unregisterComponent()</text>
<text text-anchor="start" x="121.5" y="-351.5" font-family="Helvetica,sans-Serif" font-size="10.00" fill="#000000"># unregisterAllComponents()</text>
</a>
</g>
</g>
<!-- Node5&#45;&gt;Node4 -->
<g id="edge2" class="edge">
<title>Node5&#45;&gt;Node4</title>
<path fill="none" stroke="#191970" d="M218.125,-334.829C220.963,-325.5473 223.8651,-316.0559 226.7289,-306.69"/>
<polygon fill="none" stroke="#191970" points="214.772,-333.8252 215.195,-344.4116 221.4661,-335.872 214.772,-333.8252"/>
</g>
<!-- Node6 -->
<g id="node4" class="node">
<title>Node6</title>
<polygon fill="#ffffff" stroke="#bfbfbf" points="58.5,-537.5 58.5,-616.5 231.5,-616.5 231.5,-537.5 58.5,-537.5"/>
<text text-anchor="start" x="66.5" y="-604.5" font-family="Helvetica,sans-Serif" font-size="10.00" fill="#000000">std::vector&lt; std::pair</text>
<text text-anchor="start" x="66.5" y="-593.5" font-family="Helvetica,sans-Serif" font-size="10.00" fill="#000000">&lt; const Ra::Engine::Entity</text>
<text text-anchor="middle" x="145" y="-582.5" font-family="Helvetica,sans-Serif" font-size="10.00" fill="#000000"> *, Ra::Engine::Component *&gt; &gt;</text>
<polyline fill="none" stroke="#bfbfbf" points="58.5,-575.5 231.5,-575.5 "/>
<text text-anchor="middle" x="145" y="-563.5" font-family="Helvetica,sans-Serif" font-size="10.00" fill="#000000"> </text>
<polyline fill="none" stroke="#bfbfbf" points="58.5,-556.5 231.5,-556.5 "/>
<text text-anchor="middle" x="145" y="-544.5" font-family="Helvetica,sans-Serif" font-size="10.00" fill="#000000"> </text>
</g>
<!-- Node6&#45;&gt;Node5 -->
<g id="edge3" class="edge">
<title>Node6&#45;&gt;Node5</title>
<path fill="none" stroke="#404040" d="M156.8652,-537.4494C160.181,-526.3967 163.9162,-513.946 167.6947,-501.3511"/>
<polygon fill="none" stroke="#404040" points="167.7178,-501.2737 165.6106,-494.3773 171.1661,-489.7797 173.2733,-496.6761 167.7178,-501.2737"/>
<text text-anchor="middle" x="208.5" y="-511" font-family="Helvetica,sans-Serif" font-size="10.00" fill="#000000"> #m_components</text>
</g>
<!-- Node7 -->
<g id="node5" class="node">
<title>Node7</title>
<polygon fill="#ffffff" stroke="#bfbfbf" points="0,-708.5 0,-787.5 128,-787.5 128,-708.5 0,-708.5"/>
<text text-anchor="start" x="8" y="-775.5" font-family="Helvetica,sans-Serif" font-size="10.00" fill="#000000">pair&lt; const Ra::Engine</text>
<text text-anchor="start" x="8" y="-764.5" font-family="Helvetica,sans-Serif" font-size="10.00" fill="#000000">::Entity *, Ra::Engine</text>
<text text-anchor="middle" x="64" y="-753.5" font-family="Helvetica,sans-Serif" font-size="10.00" fill="#000000">::Component * &gt;</text>
<polyline fill="none" stroke="#bfbfbf" points="0,-746.5 128,-746.5 "/>
<text text-anchor="middle" x="64" y="-734.5" font-family="Helvetica,sans-Serif" font-size="10.00" fill="#000000"> </text>
<polyline fill="none" stroke="#bfbfbf" points="0,-727.5 128,-727.5 "/>
<text text-anchor="middle" x="64" y="-715.5" font-family="Helvetica,sans-Serif" font-size="10.00" fill="#000000"> </text>
</g>
<!-- Node7&#45;&gt;Node6 -->
<g id="edge4" class="edge">
<title>Node7&#45;&gt;Node6</title>
<path fill="none" stroke="#404040" d="M69.3804,-708.3817C73.5815,-685.8908 80.8226,-657.7721 93,-635 94.5316,-632.136 96.2334,-629.2988 98.0601,-626.5088"/>
<polygon fill="none" stroke="#404040" points="98.141,-626.396 98.391,-619.1892 105.1396,-616.6481 104.8896,-623.8549 98.141,-626.396"/>
<text text-anchor="middle" x="122" y="-649" font-family="Helvetica,sans-Serif" font-size="10.00" fill="#000000"> +elements</text>
</g>
<!-- Node8 -->
<g id="node6" class="node">
<title>Node8</title>
<g id="a_node6"><a xlink:title="STL class. ">
<polygon fill="#ffffff" stroke="#bfbfbf" points="147.5,-719.5 147.5,-776.5 244.5,-776.5 244.5,-719.5 147.5,-719.5"/>
<text text-anchor="middle" x="196" y="-764.5" font-family="Helvetica,sans-Serif" font-size="10.00" fill="#000000">std::vector&lt; T &gt;</text>
<polyline fill="none" stroke="#bfbfbf" points="147.5,-757.5 244.5,-757.5 "/>
<text text-anchor="middle" x="196" y="-745.5" font-family="Helvetica,sans-Serif" font-size="10.00" fill="#000000"> </text>
<polyline fill="none" stroke="#bfbfbf" points="147.5,-738.5 244.5,-738.5 "/>
<text text-anchor="middle" x="196" y="-726.5" font-family="Helvetica,sans-Serif" font-size="10.00" fill="#000000"> </text>
</a>
</g>
</g>
<!-- Node8&#45;&gt;Node6 -->
<g id="edge5" class="edge">
<title>Node8&#45;&gt;Node6</title>
<path fill="none" stroke="#ffa500" d="M177.9071,-710.1186C172.1829,-697.0055 166.2479,-682.0665 162,-668 157.0285,-651.5373 153.243,-632.9389 150.5206,-616.8661"/>
<polygon fill="#ffa500" stroke="#ffa500" points="174.7367,-711.6027 182.0109,-719.3057 181.128,-708.7477 174.7367,-711.6027"/>
<text text-anchor="start" x="162" y="-660" font-family="Helvetica,sans-Serif" font-size="10.00" fill="#000000"> &lt; std::pair&lt; const</text>
<text text-anchor="start" x="162" y="-649" font-family="Helvetica,sans-Serif" font-size="10.00" fill="#000000"> Ra::Engine::Entity</text>
<text text-anchor="middle" x="240.5" y="-638" font-family="Helvetica,sans-Serif" font-size="10.00" fill="#000000"> *, Ra::Engine::Component *&gt; &gt;</text>
</g>
<!-- Node9 -->
<g id="node7" class="node">
<title>Node9</title>
<polygon fill="#ffffff" stroke="#bfbfbf" points="244.5,-857.5 244.5,-914.5 273.5,-914.5 273.5,-857.5 244.5,-857.5"/>
<text text-anchor="middle" x="259" y="-902.5" font-family="Helvetica,sans-Serif" font-size="10.00" fill="#000000">T</text>
<polyline fill="none" stroke="#bfbfbf" points="244.5,-895.5 273.5,-895.5 "/>
<text text-anchor="middle" x="259" y="-883.5" font-family="Helvetica,sans-Serif" font-size="10.00" fill="#000000"> </text>
<polyline fill="none" stroke="#bfbfbf" points="244.5,-876.5 273.5,-876.5 "/>
<text text-anchor="middle" x="259" y="-864.5" font-family="Helvetica,sans-Serif" font-size="10.00" fill="#000000"> </text>
</g>
<!-- Node9&#45;&gt;Node8 -->
<g id="edge6" class="edge">
<title>Node9&#45;&gt;Node8</title>
<path fill="none" stroke="#404040" d="M244.2399,-863.0045C239.7128,-855.5006 234.9013,-847.0306 231,-839 223.1608,-822.8636 215.8136,-804.491 209.8946,-788.4996"/>
<polygon fill="none" stroke="#404040" points="209.748,-788.0945 203.9441,-783.8149 205.6622,-776.8114 211.4661,-781.091 209.748,-788.0945"/>
<text text-anchor="middle" x="260" y="-831" font-family="Helvetica,sans-Serif" font-size="10.00" fill="#000000"> +elements</text>
</g>
<!-- Node12 -->
<g id="node10" class="node">
<title>Node12</title>
<g id="a_node10"><a xlink:title="STL class. ">
<polygon fill="#ffffff" stroke="#bfbfbf" points="264,-719.5 264,-776.5 382,-776.5 382,-719.5 264,-719.5"/>
<text text-anchor="middle" x="323" y="-764.5" font-family="Helvetica,sans-Serif" font-size="10.00" fill="#000000">std::unique_ptr&lt; T &gt;</text>
<polyline fill="none" stroke="#bfbfbf" points="264,-757.5 382,-757.5 "/>
<text text-anchor="middle" x="323" y="-745.5" font-family="Helvetica,sans-Serif" font-size="10.00" fill="#000000"> </text>
<polyline fill="none" stroke="#bfbfbf" points="264,-738.5 382,-738.5 "/>
<text text-anchor="start" x="272" y="-726.5" font-family="Helvetica,sans-Serif" font-size="10.00" fill="#000000">+ operator&#45;&gt;()</text>
</a>
</g>
</g>
<!-- Node9&#45;&gt;Node12 -->
<g id="edge10" class="edge">
<title>Node9&#45;&gt;Node12</title>
<path fill="none" stroke="#404040" d="M273.7214,-865.0299C278.9334,-857.091 284.5914,-847.8351 289,-839 297.0408,-822.8857 304.2892,-804.3819 310.0073,-788.2855"/>
<polygon fill="none" stroke="#404040" points="310.1515,-787.8677 308.3296,-780.8905 314.0694,-776.5253 315.8913,-783.5025 310.1515,-787.8677"/>
<text text-anchor="middle" x="305.5" y="-831" font-family="Helvetica,sans-Serif" font-size="10.00" fill="#000000"> +ptr</text>
</g>
<!-- Node10 -->
<g id="node8" class="node">
<title>Node10</title>
<polygon fill="#ffffff" stroke="#bfbfbf" points="250.5,-543 250.5,-611 399.5,-611 399.5,-543 250.5,-543"/>
<text text-anchor="start" x="258.5" y="-599" font-family="Helvetica,sans-Serif" font-size="10.00" fill="#000000">std::unique_ptr&lt; Ra</text>
<text text-anchor="middle" x="325" y="-588" font-family="Helvetica,sans-Serif" font-size="10.00" fill="#000000">::Engine::CameraStorage &gt;</text>
<polyline fill="none" stroke="#bfbfbf" points="250.5,-581 399.5,-581 "/>
<text text-anchor="middle" x="325" y="-569" font-family="Helvetica,sans-Serif" font-size="10.00" fill="#000000"> </text>
<polyline fill="none" stroke="#bfbfbf" points="250.5,-562 399.5,-562 "/>
<text text-anchor="start" x="258.5" y="-550" font-family="Helvetica,sans-Serif" font-size="10.00" fill="#000000">+ operator&#45;&gt;()</text>
</g>
<!-- Node10&#45;&gt;Node4 -->
<g id="edge7" class="edge">
<title>Node10&#45;&gt;Node4</title>
<path fill="none" stroke="#404040" d="M318.8386,-542.9943C310.5496,-497.5746 295.2038,-414.627 281,-344 279.3258,-335.6753 277.5572,-327.05 275.7584,-318.3945"/>
<polygon fill="none" stroke="#404040" points="275.7481,-318.3444 270.6052,-313.2896 273.2931,-306.5982 278.436,-311.653 275.7481,-318.3444"/>
<text text-anchor="middle" x="332.5" y="-414.5" font-family="Helvetica,sans-Serif" font-size="10.00" fill="#000000"> #m_data</text>
</g>
<!-- Node11 -->
<g id="node9" class="node">
<title>Node11</title>
<g id="a_node9"><a xlink:href="classRa_1_1Engine_1_1CameraStorage.html" target="_top" xlink:title="{Ra::Engine::CameraStorage\n||+ CameraStorage()\l+ ~CameraStorage()\l+ size()\l+ add()\l+ remove()\l+ clear()\l+ operator[]()\l}">
<polygon fill="#ffffff" stroke="#000000" points="433,-686.5 433,-809.5 583,-809.5 583,-686.5 433,-686.5"/>
<text text-anchor="middle" x="508" y="-797.5" font-family="Helvetica,sans-Serif" font-size="10.00" fill="#000000">Ra::Engine::CameraStorage</text>
<polyline fill="none" stroke="#000000" points="433,-790.5 583,-790.5 "/>
<text text-anchor="middle" x="508" y="-778.5" font-family="Helvetica,sans-Serif" font-size="10.00" fill="#000000"> </text>
<polyline fill="none" stroke="#000000" points="433,-771.5 583,-771.5 "/>
<text text-anchor="start" x="441" y="-759.5" font-family="Helvetica,sans-Serif" font-size="10.00" fill="#000000">+ CameraStorage()</text>
<text text-anchor="start" x="441" y="-748.5" font-family="Helvetica,sans-Serif" font-size="10.00" fill="#000000">+ ~CameraStorage()</text>
<text text-anchor="start" x="441" y="-737.5" font-family="Helvetica,sans-Serif" font-size="10.00" fill="#000000">+ size()</text>
<text text-anchor="start" x="441" y="-726.5" font-family="Helvetica,sans-Serif" font-size="10.00" fill="#000000">+ add()</text>
<text text-anchor="start" x="441" y="-715.5" font-family="Helvetica,sans-Serif" font-size="10.00" fill="#000000">+ remove()</text>
<text text-anchor="start" x="441" y="-704.5" font-family="Helvetica,sans-Serif" font-size="10.00" fill="#000000">+ clear()</text>
<text text-anchor="start" x="441" y="-693.5" font-family="Helvetica,sans-Serif" font-size="10.00" fill="#000000">+ operator[]()</text>
</a>
</g>
</g>
<!-- Node11&#45;&gt;Node10 -->
<g id="edge8" class="edge">
<title>Node11&#45;&gt;Node10</title>
<path fill="none" stroke="#404040" d="M507.3615,-686.3607C504.3746,-668.086 498.1619,-649.1881 486,-635 466.9666,-612.7956 438.7658,-599.0916 411.2619,-590.634"/>
<polygon fill="none" stroke="#404040" points="411.0931,-590.5863 404.2311,-592.8027 399.5459,-587.321 406.408,-585.1046 411.0931,-590.5863"/>
<text text-anchor="middle" x="515.5" y="-649" font-family="Helvetica,sans-Serif" font-size="10.00" fill="#000000"> +ptr</text>
</g>
<!-- Node12&#45;&gt;Node10 -->
<g id="edge9" class="edge">
<title>Node12&#45;&gt;Node10</title>
<path fill="none" stroke="#ffa500" d="M323.4559,-709.0167C323.8015,-679.4698 324.2717,-639.268 324.6022,-611.0157"/>
<polygon fill="#ffa500" stroke="#ffa500" points="319.952,-709.3382 323.3348,-719.3784 326.9516,-709.4201 319.952,-709.3382"/>
<text text-anchor="middle" x="404" y="-649" font-family="Helvetica,sans-Serif" font-size="10.00" fill="#000000"> &lt; Ra::Engine::CameraStorage &gt;</text>
</g>
</g>
</svg>
