<?xml version="1.0" encoding="UTF-8" standalone="no"?>
<!DOCTYPE svg PUBLIC "-//W3C//DTD SVG 1.1//EN"
 "http://www.w3.org/Graphics/SVG/1.1/DTD/svg11.dtd">
<!-- Generated by graphviz version 2.43.0 (0)
 -->
<!-- Title: Ra::Engine::Scene::VolumeComponent Pages: 1 -->
<!--zoomable 1439 -->
<svg id="main" version="1.1" xmlns="http://www.w3.org/2000/svg" xmlns:xlink="http://www.w3.org/1999/xlink" xml:space="preserve" onload="init(evt)">
<style type="text/css"><![CDATA[
.edge:hover path { stroke: red; }
.edge:hover polygon { stroke: red; fill: red; }
]]></style>
<script type="text/javascript"><![CDATA[
var edges = document.getElementsByTagName('g');
if (edges && edges.length) {
  for (var i=0;i<edges.length;i++) {
    if (edges[i].id.substr(0,4)=='edge') {
      edges[i].setAttribute('class','edge');
    }
  }
}
]]></script>
        <defs>
                <circle id="rim" cx="0" cy="0" r="7"/>
                <circle id="rim2" cx="0" cy="0" r="3.5"/>
                <g id="zoomPlus">
                        <use xlink:href="#rim" fill="#404040">
                                <set attributeName="fill" to="#808080" begin="zoomplus.mouseover" end="zoomplus.mouseout"/>
                        </use>
                        <path d="M-4,0h8M0,-4v8" fill="none" stroke="white" stroke-width="1.5" pointer-events="none"/>
                </g>
                <g id="zoomMin">
                        <use xlink:href="#rim" fill="#404040">
                                <set attributeName="fill" to="#808080" begin="zoomminus.mouseover" end="zoomminus.mouseout"/>
                        </use>
                        <path d="M-4,0h8" fill="none" stroke="white" stroke-width="1.5" pointer-events="none"/>
                </g>
                <g id="dirArrow">
                        <path fill="none" stroke="white" stroke-width="1.5" d="M0,-3.0v7 M-2.5,-0.5L0,-3.0L2.5,-0.5"/>
                </g>
               <g id="resetDef">
                       <use xlink:href="#rim2" fill="#404040">
                               <set attributeName="fill" to="#808080" begin="reset.mouseover" end="reset.mouseout"/>
                       </use>
               </g>
        </defs>

<script type="text/javascript">
var viewWidth = 596;
var viewHeight = 1439;
var sectionId = 'dynsection-1';
</script>
<script xlink:href="svgpan.js"/>
<svg id="graph" class="graph">
<g id="viewport">
<title>Ra::Engine::Scene::VolumeComponent</title>
<polygon fill="white" stroke="transparent" points="-4,4 -4,-1435 591.5,-1435 591.5,4 -4,4"/>
<!-- Node1 -->
<g id="node1" class="node">
<title>Node1</title>
<g id="a_node1"><a xlink:title="Main class to convert Ra::Core::Asset::VolumeData to Ra::Engine::VolumeObject.">
<polygon fill="#bfbfbf" stroke="black" points="235.5,-0.5 235.5,-134.5 379.5,-134.5 379.5,-0.5 235.5,-0.5"/>
<text text-anchor="start" x="243.5" y="-122.5" font-family="Helvetica,sans-Serif" font-size="10.00">Ra::Engine::Scene::</text>
<text text-anchor="middle" x="307.5" y="-111.5" font-family="Helvetica,sans-Serif" font-size="10.00">VolumeComponent</text>
<polyline fill="none" stroke="black" points="235.5,-104.5 379.5,-104.5 "/>
<text text-anchor="middle" x="307.5" y="-92.5" font-family="Helvetica,sans-Serif" font-size="10.00"> </text>
<polyline fill="none" stroke="black" points="235.5,-85.5 379.5,-85.5 "/>
<text text-anchor="start" x="243.5" y="-73.5" font-family="Helvetica,sans-Serif" font-size="10.00">+ VolumeComponent()</text>
<text text-anchor="start" x="243.5" y="-62.5" font-family="Helvetica,sans-Serif" font-size="10.00">+ ~VolumeComponent()</text>
<text text-anchor="start" x="243.5" y="-51.5" font-family="Helvetica,sans-Serif" font-size="10.00">+ initialize()</text>
<text text-anchor="start" x="243.5" y="-40.5" font-family="Helvetica,sans-Serif" font-size="10.00">+ setupIO()</text>
<text text-anchor="start" x="243.5" y="-29.5" font-family="Helvetica,sans-Serif" font-size="10.00">+ setContentName()</text>
<text text-anchor="start" x="243.5" y="-18.5" font-family="Helvetica,sans-Serif" font-size="10.00">+ getRenderObjectIndex()</text>
<text text-anchor="start" x="243.5" y="-7.5" font-family="Helvetica,sans-Serif" font-size="10.00">+ getDisplayVolume()</text>
</a>
</g>
</g>
<!-- Node2 -->
<g id="node2" class="node">
<title>Node2</title>
<g id="a_node2"><a xlink:href="classRa_1_1Engine_1_1Scene_1_1Component.html" target="_top" xlink:title="A component is an element that can be updated by a system. It is also linked to some other components...">
<polygon fill="white" stroke="black" points="224.5,-172.5 224.5,-405.5 390.5,-405.5 390.5,-172.5 224.5,-172.5"/>
<text text-anchor="start" x="232.5" y="-393.5" font-family="Helvetica,sans-Serif" font-size="10.00">Ra::Engine::Scene::</text>
<text text-anchor="middle" x="307.5" y="-382.5" font-family="Helvetica,sans-Serif" font-size="10.00">Component</text>
<polyline fill="none" stroke="black" points="224.5,-375.5 390.5,-375.5 "/>
<text text-anchor="middle" x="307.5" y="-363.5" font-family="Helvetica,sans-Serif" font-size="10.00"> </text>
<polyline fill="none" stroke="black" points="224.5,-356.5 390.5,-356.5 "/>
<text text-anchor="start" x="232.5" y="-344.5" font-family="Helvetica,sans-Serif" font-size="10.00">+ Component()</text>
<text text-anchor="start" x="232.5" y="-333.5" font-family="Helvetica,sans-Serif" font-size="10.00">+ ~Component()</text>
<text text-anchor="start" x="232.5" y="-322.5" font-family="Helvetica,sans-Serif" font-size="10.00">+ initialize()</text>
<text text-anchor="start" x="232.5" y="-311.5" font-family="Helvetica,sans-Serif" font-size="10.00">+ setEntity()</text>
<text text-anchor="start" x="232.5" y="-300.5" font-family="Helvetica,sans-Serif" font-size="10.00">+ getEntity()</text>
<text text-anchor="start" x="232.5" y="-289.5" font-family="Helvetica,sans-Serif" font-size="10.00">+ getName()</text>
<text text-anchor="start" x="232.5" y="-278.5" font-family="Helvetica,sans-Serif" font-size="10.00">+ setSystem()</text>
<text text-anchor="start" x="232.5" y="-267.5" font-family="Helvetica,sans-Serif" font-size="10.00">+ getSystem()</text>
<text text-anchor="start" x="232.5" y="-256.5" font-family="Helvetica,sans-Serif" font-size="10.00">+ addRenderObject()</text>
<text text-anchor="start" x="232.5" y="-245.5" font-family="Helvetica,sans-Serif" font-size="10.00">+ removeRenderObject()</text>
<text text-anchor="start" x="232.5" y="-234.5" font-family="Helvetica,sans-Serif" font-size="10.00">+ canEdit()</text>
<text text-anchor="start" x="232.5" y="-223.5" font-family="Helvetica,sans-Serif" font-size="10.00">+ getTransform()</text>
<text text-anchor="start" x="232.5" y="-212.5" font-family="Helvetica,sans-Serif" font-size="10.00">+ setTransform()</text>
<text text-anchor="start" x="232.5" y="-201.5" font-family="Helvetica,sans-Serif" font-size="10.00">+ notifyRenderObjectExpired()</text>
<text text-anchor="start" x="232.5" y="-190.5" font-family="Helvetica,sans-Serif" font-size="10.00">+ computeAabb()</text>
<text text-anchor="start" x="232.5" y="-179.5" font-family="Helvetica,sans-Serif" font-size="10.00"># getRoMgr()</text>
</a>
</g>
</g>
<!-- Node2&#45;&gt;Node1 -->
<g id="edge1" class="edge">
<title>Node2&#45;&gt;Node1</title>
<path fill="none" stroke="midnightblue" d="M307.5,-162.21C307.5,-152.81 307.5,-143.57 307.5,-134.77"/>
<polygon fill="none" stroke="midnightblue" points="304,-162.46 307.5,-172.46 311,-162.46 304,-162.46"/>
</g>
<!-- Node3 -->
<g id="node3" class="node">
<title>Node3</title>
<g id="a_node3"><a xlink:href="classRa_1_1Engine_1_1Scene_1_1System.html" target="_top" xlink:title=" ">
<polygon fill="white" stroke="black" points="33,-503 33,-659 192,-659 192,-503 33,-503"/>
<text text-anchor="start" x="41" y="-647" font-family="Helvetica,sans-Serif" font-size="10.00">Ra::Engine::Scene::</text>
<text text-anchor="middle" x="112.5" y="-636" font-family="Helvetica,sans-Serif" font-size="10.00">System</text>
<polyline fill="none" stroke="black" points="33,-629 192,-629 "/>
<text text-anchor="middle" x="112.5" y="-617" font-family="Helvetica,sans-Serif" font-size="10.00"> </text>
<polyline fill="none" stroke="black" points="33,-610 192,-610 "/>
<text text-anchor="start" x="41" y="-598" font-family="Helvetica,sans-Serif" font-size="10.00">+ System()</text>
<text text-anchor="start" x="41" y="-587" font-family="Helvetica,sans-Serif" font-size="10.00">+ ~System()</text>
<text text-anchor="start" x="41" y="-576" font-family="Helvetica,sans-Serif" font-size="10.00">+ handleAssetLoading()</text>
<text text-anchor="start" x="41" y="-565" font-family="Helvetica,sans-Serif" font-size="10.00">+ generateTasks()</text>
<text text-anchor="start" x="41" y="-554" font-family="Helvetica,sans-Serif" font-size="10.00">+ getEntityComponents()</text>
<text text-anchor="start" x="41" y="-543" font-family="Helvetica,sans-Serif" font-size="10.00">+ addComponent()</text>
<text text-anchor="start" x="41" y="-532" font-family="Helvetica,sans-Serif" font-size="10.00"># registerComponent()</text>
<text text-anchor="start" x="41" y="-521" font-family="Helvetica,sans-Serif" font-size="10.00"># unregisterComponent()</text>
<text text-anchor="start" x="41" y="-510" font-family="Helvetica,sans-Serif" font-size="10.00"># unregisterAllComponents()</text>
</a>
</g>
</g>
<!-- Node3&#45;&gt;Node2 -->
<g id="edge2" class="edge">
<title>Node3&#45;&gt;Node2</title>
<path fill="none" stroke="#404040" d="M154.11,-502.91C168.67,-477.33 185.61,-449.01 202.5,-424 207.11,-417.17 211.96,-410.24 216.95,-403.31"/>
<polygon fill="none" stroke="#404040" points="217.27,-402.87 217.57,-395.66 224.34,-393.17 224.04,-400.37 217.27,-402.87"/>
<text text-anchor="middle" x="234" y="-427" font-family="Helvetica,sans-Serif" font-size="10.00"> #m_system</text>
</g>
<!-- Node4 -->
<g id="node4" class="node">
<title>Node4</title>
<g id="a_node4"><a xlink:title=" ">
<polygon fill="white" stroke="#bfbfbf" points="24.5,-767.5 24.5,-857.5 176.5,-857.5 176.5,-767.5 24.5,-767.5"/>
<text text-anchor="start" x="32.5" y="-845.5" font-family="Helvetica,sans-Serif" font-size="10.00">std::vector&lt; std::pair</text>
<text text-anchor="start" x="32.5" y="-834.5" font-family="Helvetica,sans-Serif" font-size="10.00">&lt; const Ra::Engine::Scene</text>
<text text-anchor="start" x="32.5" y="-823.5" font-family="Helvetica,sans-Serif" font-size="10.00">::Entity *, Ra::Engine::Scene</text>
<text text-anchor="middle" x="100.5" y="-812.5" font-family="Helvetica,sans-Serif" font-size="10.00">::Component * &gt; &gt;</text>
<polyline fill="none" stroke="#bfbfbf" points="24.5,-805.5 176.5,-805.5 "/>
<text text-anchor="middle" x="100.5" y="-793.5" font-family="Helvetica,sans-Serif" font-size="10.00"> </text>
<polyline fill="none" stroke="#bfbfbf" points="24.5,-786.5 176.5,-786.5 "/>
<text text-anchor="middle" x="100.5" y="-774.5" font-family="Helvetica,sans-Serif" font-size="10.00"> </text>
</a>
</g>
</g>
<!-- Node4&#45;&gt;Node3 -->
<g id="edge3" class="edge">
<title>Node4&#45;&gt;Node3</title>
<path fill="none" stroke="#404040" d="M102.81,-767.25C104.24,-739.99 106.12,-704.06 107.84,-671.1"/>
<polygon fill="none" stroke="#404040" points="107.84,-671.1 104.16,-664.9 108.47,-659.12 112.15,-665.32 107.84,-671.1"/>
<text text-anchor="middle" x="149" y="-730" font-family="Helvetica,sans-Serif" font-size="10.00"> #m_components</text>
</g>
<!-- Node5 -->
<g id="node5" class="node">
<title>Node5</title>
<g id="a_node5"><a xlink:title=" ">
<polygon fill="white" stroke="#bfbfbf" points="0,-1098 0,-1177 173,-1177 173,-1098 0,-1098"/>
<text text-anchor="start" x="8" y="-1165" font-family="Helvetica,sans-Serif" font-size="10.00">pair&lt; const Ra::Engine</text>
<text text-anchor="start" x="8" y="-1154" font-family="Helvetica,sans-Serif" font-size="10.00">::Scene::Entity *, Ra</text>
<text text-anchor="middle" x="86.5" y="-1143" font-family="Helvetica,sans-Serif" font-size="10.00">::Engine::Scene::Component * &gt;</text>
<polyline fill="none" stroke="#bfbfbf" points="0,-1136 173,-1136 "/>
<text text-anchor="middle" x="86.5" y="-1124" font-family="Helvetica,sans-Serif" font-size="10.00"> </text>
<polyline fill="none" stroke="#bfbfbf" points="0,-1117 173,-1117 "/>
<text text-anchor="middle" x="86.5" y="-1105" font-family="Helvetica,sans-Serif" font-size="10.00"> </text>
</a>
</g>
</g>
<!-- Node5&#45;&gt;Node4 -->
<g id="edge4" class="edge">
<title>Node5&#45;&gt;Node4</title>
<path fill="none" stroke="#404040" d="M88.17,-1097.86C90.63,-1041.15 95.23,-935.04 98.06,-869.7"/>
<polygon fill="none" stroke="#404040" points="98.07,-869.59 94.33,-863.42 98.59,-857.6 102.32,-863.77 98.07,-869.59"/>
<text text-anchor="middle" x="126.5" y="-906.5" font-family="Helvetica,sans-Serif" font-size="10.00"> +elements</text>
</g>
<!-- Node6 -->
<g id="node6" class="node">
<title>Node6</title>
<g id="a_node6"><a xlink:title="STL class.">
<polygon fill="white" stroke="#bfbfbf" points="191,-1109 191,-1166 288,-1166 288,-1109 191,-1109"/>
<text text-anchor="middle" x="239.5" y="-1154" font-family="Helvetica,sans-Serif" font-size="10.00">std::vector&lt; T &gt;</text>
<polyline fill="none" stroke="#bfbfbf" points="191,-1147 288,-1147 "/>
<text text-anchor="middle" x="239.5" y="-1135" font-family="Helvetica,sans-Serif" font-size="10.00"> </text>
<polyline fill="none" stroke="#bfbfbf" points="191,-1128 288,-1128 "/>
<text text-anchor="middle" x="239.5" y="-1116" font-family="Helvetica,sans-Serif" font-size="10.00"> </text>
</a>
</g>
</g>
<!-- Node6&#45;&gt;Node4 -->
<g id="edge5" class="edge">
<title>Node6&#45;&gt;Node4</title>
<path fill="none" stroke="orange" d="M232.35,-1099.02C221.65,-1048.51 198.47,-956.88 159.5,-887 153.92,-877 146.98,-866.97 139.84,-857.68"/>
<polygon fill="orange" stroke="orange" points="228.93,-1099.77 234.38,-1108.85 235.78,-1098.35 228.93,-1099.77"/>
<text text-anchor="start" x="178.5" y="-923" font-family="Helvetica,sans-Serif" font-size="10.00"> &lt; std::pair&lt; const</text>
<text text-anchor="start" x="178.5" y="-912" font-family="Helvetica,sans-Serif" font-size="10.00"> Ra::Engine::Scene::</text>
<text text-anchor="start" x="178.5" y="-901" font-family="Helvetica,sans-Serif" font-size="10.00">Entity *, Ra::Engine</text>
<text text-anchor="middle" x="243" y="-890" font-family="Helvetica,sans-Serif" font-size="10.00">::Scene::Component * &gt; &gt;</text>
</g>
<!-- Node7 -->
<g id="node7" class="node">
<title>Node7</title>
<g id="a_node7"><a xlink:title=" ">
<polygon fill="white" stroke="#bfbfbf" points="225,-1373.5 225,-1430.5 254,-1430.5 254,-1373.5 225,-1373.5"/>
<text text-anchor="middle" x="239.5" y="-1418.5" font-family="Helvetica,sans-Serif" font-size="10.00">T</text>
<polyline fill="none" stroke="#bfbfbf" points="225,-1411.5 254,-1411.5 "/>
<text text-anchor="middle" x="239.5" y="-1399.5" font-family="Helvetica,sans-Serif" font-size="10.00"> </text>
<polyline fill="none" stroke="#bfbfbf" points="225,-1392.5 254,-1392.5 "/>
<text text-anchor="middle" x="239.5" y="-1380.5" font-family="Helvetica,sans-Serif" font-size="10.00"> </text>
</a>
</g>
</g>
<!-- Node7&#45;&gt;Node6 -->
<g id="edge6" class="edge">
<title>Node7&#45;&gt;Node6</title>
<path fill="none" stroke="#404040" d="M239.5,-1373.4C239.5,-1326.73 239.5,-1232.04 239.5,-1178.23"/>
<polygon fill="none" stroke="#404040" points="239.5,-1178.12 235.5,-1172.12 239.5,-1166.12 243.5,-1172.12 239.5,-1178.12"/>
<text text-anchor="middle" x="268.5" y="-1347" font-family="Helvetica,sans-Serif" font-size="10.00"> +elements</text>
</g>
<!-- Node8 -->
<g id="node8" class="node">
<title>Node8</title>
<g id="a_node8"><a xlink:title="STL class.">
<polygon fill="white" stroke="#bfbfbf" points="214,-552.5 214,-609.5 279,-609.5 279,-552.5 214,-552.5"/>
<text text-anchor="middle" x="246.5" y="-597.5" font-family="Helvetica,sans-Serif" font-size="10.00">std::string</text>
<polyline fill="none" stroke="#bfbfbf" points="214,-590.5 279,-590.5 "/>
<text text-anchor="middle" x="246.5" y="-578.5" font-family="Helvetica,sans-Serif" font-size="10.00"> </text>
<polyline fill="none" stroke="#bfbfbf" points="214,-571.5 279,-571.5 "/>
<text text-anchor="middle" x="246.5" y="-559.5" font-family="Helvetica,sans-Serif" font-size="10.00"> </text>
</a>
</g>
</g>
<!-- Node8&#45;&gt;Node2 -->
<g id="edge7" class="edge">
<title>Node8&#45;&gt;Node2</title>
<path fill="none" stroke="#404040" d="M249.74,-552.49C253.67,-521.18 260.94,-468.61 270.5,-424 270.96,-421.84 271.44,-419.66 271.93,-417.47"/>
<polygon fill="none" stroke="#404040" points="271.96,-417.33 269.42,-410.59 274.66,-405.64 277.21,-412.39 271.96,-417.33"/>
<text text-anchor="middle" x="298" y="-427" font-family="Helvetica,sans-Serif" font-size="10.00"> #m_name</text>
</g>
<!-- Node9 -->
<g id="node9" class="node">
<title>Node9</title>
<g id="a_node9"><a xlink:title="STL class.">
<polygon fill="white" stroke="#bfbfbf" points="194.5,-778.5 194.5,-846.5 298.5,-846.5 298.5,-778.5 194.5,-778.5"/>
<text text-anchor="start" x="202.5" y="-834.5" font-family="Helvetica,sans-Serif" font-size="10.00">std::basic_string&lt;</text>
<text text-anchor="middle" x="246.5" y="-823.5" font-family="Helvetica,sans-Serif" font-size="10.00"> char &gt;</text>
<polyline fill="none" stroke="#bfbfbf" points="194.5,-816.5 298.5,-816.5 "/>
<text text-anchor="middle" x="246.5" y="-804.5" font-family="Helvetica,sans-Serif" font-size="10.00"> </text>
<polyline fill="none" stroke="#bfbfbf" points="194.5,-797.5 298.5,-797.5 "/>
<text text-anchor="middle" x="246.5" y="-785.5" font-family="Helvetica,sans-Serif" font-size="10.00"> </text>
</a>
</g>
</g>
<!-- Node9&#45;&gt;Node8 -->
<g id="edge8" class="edge">
<title>Node9&#45;&gt;Node8</title>
<path fill="none" stroke="midnightblue" d="M246.5,-768.03C246.5,-721.47 246.5,-648.98 246.5,-609.65"/>
<polygon fill="none" stroke="midnightblue" points="243,-768.13 246.5,-778.13 250,-768.13 243,-768.13"/>
</g>
<!-- Node10 -->
<g id="node10" class="node">
<title>Node10</title>
<g id="a_node10"><a xlink:href="classRa_1_1Engine_1_1Scene_1_1Entity.html" target="_top" xlink:title="An entity is an scene element. It ties together components with a transform.">
<polygon fill="white" stroke="black" points="297.5,-453.5 297.5,-708.5 441.5,-708.5 441.5,-453.5 297.5,-453.5"/>
<text text-anchor="start" x="305.5" y="-696.5" font-family="Helvetica,sans-Serif" font-size="10.00">Ra::Engine::Scene::</text>
<text text-anchor="middle" x="369.5" y="-685.5" font-family="Helvetica,sans-Serif" font-size="10.00">Entity</text>
<polyline fill="none" stroke="black" points="297.5,-678.5 441.5,-678.5 "/>
<text text-anchor="middle" x="369.5" y="-666.5" font-family="Helvetica,sans-Serif" font-size="10.00"> </text>
<polyline fill="none" stroke="black" points="297.5,-659.5 441.5,-659.5 "/>
<text text-anchor="start" x="305.5" y="-647.5" font-family="Helvetica,sans-Serif" font-size="10.00">+ Entity()</text>
<text text-anchor="start" x="305.5" y="-636.5" font-family="Helvetica,sans-Serif" font-size="10.00">+ Entity()</text>
<text text-anchor="start" x="305.5" y="-625.5" font-family="Helvetica,sans-Serif" font-size="10.00">+ operator=()</text>
<text text-anchor="start" x="305.5" y="-614.5" font-family="Helvetica,sans-Serif" font-size="10.00">+ ~Entity()</text>
<text text-anchor="start" x="305.5" y="-603.5" font-family="Helvetica,sans-Serif" font-size="10.00">+ getName()</text>
<text text-anchor="start" x="305.5" y="-592.5" font-family="Helvetica,sans-Serif" font-size="10.00">+ rename()</text>
<text text-anchor="start" x="305.5" y="-581.5" font-family="Helvetica,sans-Serif" font-size="10.00">+ setTransform()</text>
<text text-anchor="start" x="305.5" y="-570.5" font-family="Helvetica,sans-Serif" font-size="10.00">+ setTransform()</text>
<text text-anchor="start" x="305.5" y="-559.5" font-family="Helvetica,sans-Serif" font-size="10.00">+ getTransform()</text>
<text text-anchor="start" x="305.5" y="-548.5" font-family="Helvetica,sans-Serif" font-size="10.00">+ getTransformAsMatrix()</text>
<text text-anchor="start" x="305.5" y="-537.5" font-family="Helvetica,sans-Serif" font-size="10.00">+ swapTransformBuffers()</text>
<text text-anchor="start" x="305.5" y="-526.5" font-family="Helvetica,sans-Serif" font-size="10.00">+ addComponent()</text>
<text text-anchor="start" x="305.5" y="-515.5" font-family="Helvetica,sans-Serif" font-size="10.00">+ removeComponent()</text>
<text text-anchor="start" x="305.5" y="-504.5" font-family="Helvetica,sans-Serif" font-size="10.00">+ getComponent()</text>
<text text-anchor="start" x="305.5" y="-493.5" font-family="Helvetica,sans-Serif" font-size="10.00">+ getComponent()</text>
<text text-anchor="start" x="305.5" y="-482.5" font-family="Helvetica,sans-Serif" font-size="10.00">+ getComponents()</text>
<text text-anchor="start" x="305.5" y="-471.5" font-family="Helvetica,sans-Serif" font-size="10.00">+ getNumComponents()</text>
<text text-anchor="start" x="305.5" y="-460.5" font-family="Helvetica,sans-Serif" font-size="10.00">+ computeAabb()</text>
</a>
</g>
</g>
<!-- Node10&#45;&gt;Node2 -->
<g id="edge9" class="edge">
<title>Node10&#45;&gt;Node2</title>
<path fill="none" stroke="#404040" d="M342.4,-453.22C339.85,-441.34 337.28,-429.28 334.73,-417.39"/>
<polygon fill="none" stroke="#404040" points="334.71,-417.29 329.55,-412.26 332.21,-405.56 337.37,-410.59 334.71,-417.29"/>
<text text-anchor="middle" x="366" y="-427" font-family="Helvetica,sans-Serif" font-size="10.00"> #m_entity</text>
</g>
<!-- Node11 -->
<g id="node11" class="node">
<title>Node11</title>
<g id="a_node11"><a xlink:href="classRa_1_1Core_1_1Utils_1_1IndexedObject.html" target="_top" xlink:title=" ">
<polygon fill="white" stroke="black" points="317,-756.5 317,-868.5 448,-868.5 448,-756.5 317,-756.5"/>
<text text-anchor="start" x="325" y="-856.5" font-family="Helvetica,sans-Serif" font-size="10.00">Ra::Core::Utils::Indexed</text>
<text text-anchor="middle" x="382.5" y="-845.5" font-family="Helvetica,sans-Serif" font-size="10.00">Object</text>
<polyline fill="none" stroke="black" points="317,-838.5 448,-838.5 "/>
<text text-anchor="middle" x="382.5" y="-826.5" font-family="Helvetica,sans-Serif" font-size="10.00"> </text>
<polyline fill="none" stroke="black" points="317,-819.5 448,-819.5 "/>
<text text-anchor="start" x="325" y="-807.5" font-family="Helvetica,sans-Serif" font-size="10.00">+ IndexedObject()</text>
<text text-anchor="start" x="325" y="-796.5" font-family="Helvetica,sans-Serif" font-size="10.00">+ IndexedObject()</text>
<text text-anchor="start" x="325" y="-785.5" font-family="Helvetica,sans-Serif" font-size="10.00">+ ~IndexedObject()</text>
<text text-anchor="start" x="325" y="-774.5" font-family="Helvetica,sans-Serif" font-size="10.00">+ setIndex()</text>
<text text-anchor="start" x="325" y="-763.5" font-family="Helvetica,sans-Serif" font-size="10.00">+ getIndex()</text>
</a>
</g>
</g>
<!-- Node11&#45;&gt;Node10 -->
<g id="edge10" class="edge">
<title>Node11&#45;&gt;Node10</title>
<path fill="none" stroke="midnightblue" d="M378.79,-746.06C378.12,-734.22 377.4,-721.5 376.67,-708.58"/>
<polygon fill="none" stroke="midnightblue" points="375.31,-746.45 379.37,-756.24 382.3,-746.06 375.31,-746.45"/>
</g>
<!-- Node12 -->
<g id="node12" class="node">
<title>Node12</title>
<g id="a_node12"><a xlink:href="classRa_1_1Core_1_1Utils_1_1Index.html" target="_top" xlink:title=" ">
<polygon fill="white" stroke="black" points="314,-949.5 314,-1325.5 451,-1325.5 451,-949.5 314,-949.5"/>
<text text-anchor="middle" x="382.5" y="-1313.5" font-family="Helvetica,sans-Serif" font-size="10.00">Ra::Core::Utils::Index</text>
<polyline fill="none" stroke="black" points="314,-1306.5 451,-1306.5 "/>
<text text-anchor="middle" x="382.5" y="-1294.5" font-family="Helvetica,sans-Serif" font-size="10.00"> </text>
<polyline fill="none" stroke="black" points="314,-1287.5 451,-1287.5 "/>
<text text-anchor="start" x="322" y="-1275.5" font-family="Helvetica,sans-Serif" font-size="10.00">+ Index()</text>
<text text-anchor="start" x="322" y="-1264.5" font-family="Helvetica,sans-Serif" font-size="10.00">+ Index()</text>
<text text-anchor="start" x="322" y="-1253.5" font-family="Helvetica,sans-Serif" font-size="10.00">+ operator=()</text>
<text text-anchor="start" x="322" y="-1242.5" font-family="Helvetica,sans-Serif" font-size="10.00">+ isValid()</text>
<text text-anchor="start" x="322" y="-1231.5" font-family="Helvetica,sans-Serif" font-size="10.00">+ isInvalid()</text>
<text text-anchor="start" x="322" y="-1220.5" font-family="Helvetica,sans-Serif" font-size="10.00">+ setInvalid()</text>
<text text-anchor="start" x="322" y="-1209.5" font-family="Helvetica,sans-Serif" font-size="10.00">+ getValue()</text>
<text text-anchor="start" x="322" y="-1198.5" font-family="Helvetica,sans-Serif" font-size="10.00">+ setValue()</text>
<text text-anchor="start" x="322" y="-1187.5" font-family="Helvetica,sans-Serif" font-size="10.00">+ operator IntegerType()</text>
<text text-anchor="start" x="322" y="-1176.5" font-family="Helvetica,sans-Serif" font-size="10.00">+ operator=()</text>
<text text-anchor="start" x="322" y="-1165.5" font-family="Helvetica,sans-Serif" font-size="10.00">+ operator++()</text>
<text text-anchor="start" x="322" y="-1154.5" font-family="Helvetica,sans-Serif" font-size="10.00">+ operator&#45;&#45;()</text>
<text text-anchor="start" x="322" y="-1143.5" font-family="Helvetica,sans-Serif" font-size="10.00">+ operator+()</text>
<text text-anchor="start" x="322" y="-1132.5" font-family="Helvetica,sans-Serif" font-size="10.00">+ operator+()</text>
<text text-anchor="start" x="322" y="-1121.5" font-family="Helvetica,sans-Serif" font-size="10.00">+ operator&#45;()</text>
<text text-anchor="start" x="322" y="-1110.5" font-family="Helvetica,sans-Serif" font-size="10.00">+ operator&#45;()</text>
<text text-anchor="start" x="322" y="-1099.5" font-family="Helvetica,sans-Serif" font-size="10.00">+ operator==()</text>
<text text-anchor="start" x="322" y="-1088.5" font-family="Helvetica,sans-Serif" font-size="10.00">+ operator==()</text>
<text text-anchor="start" x="322" y="-1077.5" font-family="Helvetica,sans-Serif" font-size="10.00">+ operator!=()</text>
<text text-anchor="start" x="322" y="-1066.5" font-family="Helvetica,sans-Serif" font-size="10.00">+ operator!=()</text>
<text text-anchor="start" x="322" y="-1055.5" font-family="Helvetica,sans-Serif" font-size="10.00">+ operator&lt;()</text>
<text text-anchor="start" x="322" y="-1044.5" font-family="Helvetica,sans-Serif" font-size="10.00">+ operator&lt;()</text>
<text text-anchor="start" x="322" y="-1033.5" font-family="Helvetica,sans-Serif" font-size="10.00">+ operator&lt;=()</text>
<text text-anchor="start" x="322" y="-1022.5" font-family="Helvetica,sans-Serif" font-size="10.00">+ operator&lt;=()</text>
<text text-anchor="start" x="322" y="-1011.5" font-family="Helvetica,sans-Serif" font-size="10.00">+ operator&gt;()</text>
<text text-anchor="start" x="322" y="-1000.5" font-family="Helvetica,sans-Serif" font-size="10.00">+ operator&gt;()</text>
<text text-anchor="start" x="322" y="-989.5" font-family="Helvetica,sans-Serif" font-size="10.00">+ operator&gt;=()</text>
<text text-anchor="start" x="322" y="-978.5" font-family="Helvetica,sans-Serif" font-size="10.00">+ operator&gt;=()</text>
<text text-anchor="start" x="322" y="-967.5" font-family="Helvetica,sans-Serif" font-size="10.00">+ Invalid()</text>
<text text-anchor="start" x="322" y="-956.5" font-family="Helvetica,sans-Serif" font-size="10.00">+ Max()</text>
</a>
</g>
</g>
<!-- Node12&#45;&gt;Node11 -->
<g id="edge11" class="edge">
<title>Node12&#45;&gt;Node11</title>
<path fill="none" stroke="#404040" d="M382.5,-949.08C382.5,-924.65 382.5,-901.03 382.5,-880.54"/>
<polygon fill="none" stroke="#404040" points="382.5,-880.54 378.5,-874.54 382.5,-868.54 386.5,-874.54 382.5,-880.54"/>
<text text-anchor="middle" x="403.5" y="-906.5" font-family="Helvetica,sans-Serif" font-size="10.00"> #m_idx</text>
</g>
<!-- Node13 -->
<g id="node13" class="node">
<title>Node13</title>
<g id="a_node13"><a xlink:href="classint.html" target="_top" xlink:title=" ">
<polygon fill="white" stroke="black" points="368,-1373.5 368,-1430.5 397,-1430.5 397,-1373.5 368,-1373.5"/>
<text text-anchor="middle" x="382.5" y="-1418.5" font-family="Helvetica,sans-Serif" font-size="10.00">int</text>
<polyline fill="none" stroke="black" points="368,-1411.5 397,-1411.5 "/>
<text text-anchor="middle" x="382.5" y="-1399.5" font-family="Helvetica,sans-Serif" font-size="10.00"> </text>
<polyline fill="none" stroke="black" points="368,-1392.5 397,-1392.5 "/>
<text text-anchor="middle" x="382.5" y="-1380.5" font-family="Helvetica,sans-Serif" font-size="10.00"> </text>
</a>
</g>
</g>
<!-- Node13&#45;&gt;Node12 -->
<g id="edge12" class="edge">
<title>Node13&#45;&gt;Node12</title>
<path fill="none" stroke="#404040" d="M382.5,-1373.4C382.5,-1363.43 382.5,-1351.26 382.5,-1337.76"/>
<polygon fill="none" stroke="#404040" points="382.5,-1337.58 378.5,-1331.58 382.5,-1325.58 386.5,-1331.58 382.5,-1337.58"/>
<text text-anchor="middle" x="403.5" y="-1347" font-family="Helvetica,sans-Serif" font-size="10.00"> #m_idx</text>
</g>
<!-- Node14 -->
<g id="node14" class="node">
<title>Node14</title>
<g id="a_node14"><a xlink:title=" ">
<polygon fill="white" stroke="#bfbfbf" points="459.5,-547 459.5,-615 587.5,-615 587.5,-547 459.5,-547"/>
<text text-anchor="start" x="467.5" y="-603" font-family="Helvetica,sans-Serif" font-size="10.00">vector&lt; Ra::Core::Utils</text>
<text text-anchor="middle" x="523.5" y="-592" font-family="Helvetica,sans-Serif" font-size="10.00">::Index &gt;</text>
<polyline fill="none" stroke="#bfbfbf" points="459.5,-585 587.5,-585 "/>
<text text-anchor="middle" x="523.5" y="-573" font-family="Helvetica,sans-Serif" font-size="10.00"> </text>
<polyline fill="none" stroke="#bfbfbf" points="459.5,-566 587.5,-566 "/>
<text text-anchor="middle" x="523.5" y="-554" font-family="Helvetica,sans-Serif" font-size="10.00"> </text>
</a>
</g>
</g>
<!-- Node14&#45;&gt;Node2 -->
<g id="edge13" class="edge">
<title>Node14&#45;&gt;Node2</title>
<path fill="none" stroke="#404040" d="M506.75,-546.8C492.95,-520.51 472.18,-483.3 450.5,-453 434.76,-431 416.59,-408.5 398.59,-387.52"/>
<polygon fill="none" stroke="#404040" points="398.48,-387.39 391.52,-385.47 390.62,-378.32 397.57,-380.24 398.48,-387.39"/>
<text text-anchor="middle" x="484" y="-427" font-family="Helvetica,sans-Serif" font-size="10.00"> +m_renderObjects</text>
</g>
</g>
</svg>
        <g id="navigator" transform="translate(0 0)" fill="#404254">
                <rect fill="#f2f5e9" fill-opacity="0.5" stroke="#606060" stroke-width=".5" x="0" y="0" width="60" height="60"/>
                <use id="zoomplus" xlink:href="#zoomPlus" x="17" y="9" onmousedown="handleZoom(evt,'in')"/>
                <use id="zoomminus" xlink:href="#zoomMin" x="42" y="9" onmousedown="handleZoom(evt,'out')"/>
                <use id="reset" xlink:href="#resetDef" x="30" y="36" onmousedown="handleReset()"/>
                <g id="arrowUp" xlink:href="#dirArrow" transform="translate(30 24)" onmousedown="handlePan(0,-1)">
                  <use xlink:href="#rim" fill="#404040">
                        <set attributeName="fill" to="#808080" begin="arrowUp.mouseover" end="arrowUp.mouseout"/>
                  </use>
                  <path fill="none" stroke="white" stroke-width="1.5" d="M0,-3.0v7 M-2.5,-0.5L0,-3.0L2.5,-0.5"/>
                </g>
                <g id="arrowRight" xlink:href="#dirArrow" transform="rotate(90) translate(36 -43)" onmousedown="handlePan(1,0)">
                  <use xlink:href="#rim" fill="#404040">
                        <set attributeName="fill" to="#808080" begin="arrowRight.mouseover" end="arrowRight.mouseout"/>
                  </use>
                  <path fill="none" stroke="white" stroke-width="1.5" d="M0,-3.0v7 M-2.5,-0.5L0,-3.0L2.5,-0.5"/>
                </g>
                <g id="arrowDown" xlink:href="#dirArrow" transform="rotate(180) translate(-30 -48)" onmousedown="handlePan(0,1)">
                  <use xlink:href="#rim" fill="#404040">
                        <set attributeName="fill" to="#808080" begin="arrowDown.mouseover" end="arrowDown.mouseout"/>
                  </use>
                  <path fill="none" stroke="white" stroke-width="1.5" d="M0,-3.0v7 M-2.5,-0.5L0,-3.0L2.5,-0.5"/>
                </g>
                <g id="arrowLeft" xlink:href="#dirArrow" transform="rotate(270) translate(-36 17)" onmousedown="handlePan(-1,0)">
                  <use xlink:href="#rim" fill="#404040">
                        <set attributeName="fill" to="#808080" begin="arrowLeft.mouseover" end="arrowLeft.mouseout"/>
                  </use>
                  <path fill="none" stroke="white" stroke-width="1.5" d="M0,-3.0v7 M-2.5,-0.5L0,-3.0L2.5,-0.5"/>
                </g>
        </g>
        <svg viewBox="0 0 15 15" width="100%" height="30px" preserveAspectRatio="xMaxYMin meet">
         <g id="arrow_out" transform="scale(0.3 0.3)">
          <a xlink:href="classRa_1_1Engine_1_1Scene_1_1VolumeComponent__coll__graph_org.svg" target="_base">
           <rect id="button" ry="5" rx="5" y="6" x="6" height="38" width="38"
                fill="#f2f5e9" fill-opacity="0.5" stroke="#606060" stroke-width="1.0"/>
           <path id="arrow"
             d="M 11.500037,31.436501 C 11.940474,20.09759 22.043105,11.32322 32.158766,21.979434 L 37.068811,17.246167 C 37.068811,17.246167 37.088388,32 37.088388,32 L 22.160133,31.978069 C 22.160133,31.978069 26.997745,27.140456 26.997745,27.140456 C 18.528582,18.264221 13.291696,25.230495 11.500037,31.436501 z"
             style="fill:#404040;"/>
          </a>
         </g>
        </svg>
</svg>
