<?xml version="1.0" encoding="UTF-8" standalone="no"?>
<!DOCTYPE svg PUBLIC "-//W3C//DTD SVG 1.1//EN"
 "http://www.w3.org/Graphics/SVG/1.1/DTD/svg11.dtd">
<!-- Generated by graphviz version 2.43.0 (0)
 -->
<!-- Title: Ra::Engine::LambertianMaterial::registerMaterial Pages: 1 -->
<svg width="622pt" height="235pt"
 viewBox="0.00 0.00 622.00 235.00" xmlns="http://www.w3.org/2000/svg" xmlns:xlink="http://www.w3.org/1999/xlink">
<g id="graph0" class="graph" transform="scale(1 1) rotate(0) translate(4 231)">
<title>Ra::Engine::LambertianMaterial::registerMaterial</title>
<polygon fill="white" stroke="transparent" points="-4,4 -4,-231 618,-231 618,4 -4,4"/>
<!-- Node1 -->
<g id="node1" class="node">
<title>Node1</title>
<g id="a_node1"><a xlink:title=" ">
<polygon fill="#bfbfbf" stroke="black" points="0,-98.5 0,-128.5 170,-128.5 170,-98.5 0,-98.5"/>
<text text-anchor="start" x="8" y="-116.5" font-family="Helvetica,sans-Serif" font-size="10.00">Ra::Engine::LambertianMaterial</text>
<text text-anchor="middle" x="85" y="-105.5" font-family="Helvetica,sans-Serif" font-size="10.00">::registerMaterial</text>
</a>
</g>
</g>
<!-- Node2 -->
<g id="node2" class="node">
<title>Node2</title>
<g id="a_node2"><a xlink:href="namespaceRa_1_1Engine_1_1ShaderConfigurationFactory.html#a36842535508a390108fb1205210a5c49" target="_top" xlink:title=" ">
<polygon fill="white" stroke="black" points="219,-196.5 219,-226.5 392,-226.5 392,-196.5 219,-196.5"/>
<text text-anchor="start" x="227" y="-214.5" font-family="Helvetica,sans-Serif" font-size="10.00">Ra::Engine::ShaderConfiguration</text>
<text text-anchor="middle" x="305.5" y="-203.5" font-family="Helvetica,sans-Serif" font-size="10.00">Factory::addConfiguration</text>
</a>
</g>
</g>
<!-- Node1&#45;&gt;Node2 -->
<g id="edge1" class="edge">
<title>Node1&#45;&gt;Node2</title>
<path fill="none" stroke="midnightblue" d="M106.17,-128.7C129.18,-145.37 168.51,-171.84 206,-187.5 211.08,-189.62 216.38,-191.58 221.78,-193.39"/>
<polygon fill="midnightblue" stroke="midnightblue" points="220.99,-196.81 231.58,-196.48 223.09,-190.13 220.99,-196.81"/>
</g>
<!-- Node4 -->
<g id="node4" class="node">
<title>Node4</title>
<g id="a_node4"><a xlink:href="namespaceRa_1_1Engine_1_1ShaderConfigurationFactory.html#ad6fe3c60f8f2b9f9f5d8220ffe4d5ba6" target="_top" xlink:title=" ">
<polygon fill="white" stroke="black" points="219,-147.5 219,-177.5 392,-177.5 392,-147.5 219,-147.5"/>
<text text-anchor="start" x="227" y="-165.5" font-family="Helvetica,sans-Serif" font-size="10.00">Ra::Engine::ShaderConfiguration</text>
<text text-anchor="middle" x="305.5" y="-154.5" font-family="Helvetica,sans-Serif" font-size="10.00">Factory::getConfiguration</text>
</a>
</g>
</g>
<!-- Node1&#45;&gt;Node4 -->
<g id="edge3" class="edge">
<title>Node1&#45;&gt;Node4</title>
<path fill="none" stroke="midnightblue" d="M153.04,-128.53C176.64,-133.83 203.34,-139.81 227.67,-145.27"/>
<polygon fill="midnightblue" stroke="midnightblue" points="227.06,-148.72 237.58,-147.49 228.59,-141.89 227.06,-148.72"/>
</g>
<!-- Node5 -->
<g id="node5" class="node">
<title>Node5</title>
<g id="a_node5"><a xlink:href="namespaceRa_1_1Core_1_1Resources.html#aefb858008bce4916fa3cfcef244aeda0" target="_top" xlink:title=" ">
<polygon fill="white" stroke="black" points="235.5,-98.5 235.5,-128.5 375.5,-128.5 375.5,-98.5 235.5,-98.5"/>
<text text-anchor="start" x="243.5" y="-116.5" font-family="Helvetica,sans-Serif" font-size="10.00">Ra::Core::Resources</text>
<text text-anchor="middle" x="305.5" y="-105.5" font-family="Helvetica,sans-Serif" font-size="10.00">::getRadiumResourcesDir</text>
</a>
</g>
</g>
<!-- Node1&#45;&gt;Node5 -->
<g id="edge4" class="edge">
<title>Node1&#45;&gt;Node5</title>
<path fill="none" stroke="midnightblue" d="M170.17,-113.5C188.15,-113.5 207.1,-113.5 224.91,-113.5"/>
<polygon fill="midnightblue" stroke="midnightblue" points="225.25,-117 235.25,-113.5 225.25,-110 225.25,-117"/>
</g>
<!-- Node7 -->
<g id="node7" class="node">
<title>Node7</title>
<g id="a_node7"><a xlink:href="namespaceRa_1_1Engine_1_1EngineRenderTechniques.html#affc37bf84d5ff81342b5c09587eedc34" target="_top" xlink:title=" ">
<polygon fill="white" stroke="black" points="206,-49.5 206,-79.5 405,-79.5 405,-49.5 206,-49.5"/>
<text text-anchor="start" x="214" y="-67.5" font-family="Helvetica,sans-Serif" font-size="10.00">Ra::Engine::EngineRender</text>
<text text-anchor="middle" x="305.5" y="-56.5" font-family="Helvetica,sans-Serif" font-size="10.00">Techniques::registerDefaultTechnique</text>
</a>
</g>
</g>
<!-- Node1&#45;&gt;Node7 -->
<g id="edge6" class="edge">
<title>Node1&#45;&gt;Node7</title>
<path fill="none" stroke="midnightblue" d="M153.04,-98.47C176.64,-93.17 203.34,-87.19 227.67,-81.73"/>
<polygon fill="midnightblue" stroke="midnightblue" points="228.59,-85.11 237.58,-79.51 227.06,-78.28 228.59,-85.11"/>
</g>
<!-- Node8 -->
<g id="node8" class="node">
<title>Node8</title>
<g id="a_node8"><a xlink:href="classRa_1_1Engine_1_1RenderTechnique.html#a22298207c6e70a98b829d6c5ead1a8e4" target="_top" xlink:title=" ">
<polygon fill="white" stroke="black" points="226.5,-0.5 226.5,-30.5 384.5,-30.5 384.5,-0.5 226.5,-0.5"/>
<text text-anchor="start" x="234.5" y="-18.5" font-family="Helvetica,sans-Serif" font-size="10.00">Ra::Engine::RenderTechnique</text>
<text text-anchor="middle" x="305.5" y="-7.5" font-family="Helvetica,sans-Serif" font-size="10.00">::setConfiguration</text>
</a>
</g>
</g>
<!-- Node1&#45;&gt;Node8 -->
<g id="edge7" class="edge">
<title>Node1&#45;&gt;Node8</title>
<path fill="none" stroke="midnightblue" d="M106.65,-98.29C129.78,-81.9 168.9,-56.08 206,-40.5 212.07,-37.95 218.45,-35.62 224.94,-33.49"/>
<polygon fill="midnightblue" stroke="midnightblue" points="225.99,-36.83 234.5,-30.51 223.91,-30.14 225.99,-36.83"/>
</g>
<!-- Node3 -->
<g id="node3" class="node">
<title>Node3</title>
<g id="a_node3"><a xlink:href="classRa_1_1Engine_1_1ShaderConfiguration.html#a6aefbda787e65960237bb9c0cdc0f627" target="_top" xlink:title=" ">
<polygon fill="white" stroke="black" points="441,-196.5 441,-226.5 614,-226.5 614,-196.5 441,-196.5"/>
<text text-anchor="start" x="449" y="-214.5" font-family="Helvetica,sans-Serif" font-size="10.00">Ra::Engine::ShaderConfiguration</text>
<text text-anchor="middle" x="527.5" y="-203.5" font-family="Helvetica,sans-Serif" font-size="10.00">::getName</text>
</a>
</g>
</g>
<!-- Node2&#45;&gt;Node3 -->
<g id="edge2" class="edge">
<title>Node2&#45;&gt;Node3</title>
<path fill="none" stroke="midnightblue" d="M392.19,-211.5C404.75,-211.5 417.77,-211.5 430.52,-211.5"/>
<polygon fill="midnightblue" stroke="midnightblue" points="430.68,-215 440.68,-211.5 430.68,-208 430.68,-215"/>
</g>
<!-- Node6 -->
<g id="node6" class="node">
<title>Node6</title>
<g id="a_node6"><a xlink:href="namespaceRa_1_1Core_1_1Resources.html#a96e7523ac5a9f47629ee73938db23790" target="_top" xlink:title=" ">
<polygon fill="white" stroke="black" points="470.5,-98.5 470.5,-128.5 584.5,-128.5 584.5,-98.5 470.5,-98.5"/>
<text text-anchor="start" x="478.5" y="-116.5" font-family="Helvetica,sans-Serif" font-size="10.00">Ra::Core::Resources</text>
<text text-anchor="middle" x="527.5" y="-105.5" font-family="Helvetica,sans-Serif" font-size="10.00">::searchPath</text>
</a>
</g>
</g>
<!-- Node5&#45;&gt;Node6 -->
<g id="edge5" class="edge">
<title>Node5&#45;&gt;Node6</title>
<path fill="none" stroke="midnightblue" d="M375.51,-113.5C402.55,-113.5 433.44,-113.5 460.22,-113.5"/>
<polygon fill="midnightblue" stroke="midnightblue" points="460.26,-117 470.26,-113.5 460.26,-110 460.26,-117"/>
</g>
<!-- Node9 -->
<g id="node9" class="node">
<title>Node9</title>
<g id="a_node9"><a xlink:href="classRa_1_1Engine_1_1RenderTechnique.html#a49da5c66a13007251db4e1511daf3852" target="_top" xlink:title=" ">
<polygon fill="white" stroke="black" points="448.5,-0.5 448.5,-30.5 606.5,-30.5 606.5,-0.5 448.5,-0.5"/>
<text text-anchor="start" x="456.5" y="-18.5" font-family="Helvetica,sans-Serif" font-size="10.00">Ra::Engine::RenderTechnique</text>
<text text-anchor="middle" x="527.5" y="-7.5" font-family="Helvetica,sans-Serif" font-size="10.00">::setDirty</text>
</a>
</g>
</g>
<!-- Node8&#45;&gt;Node9 -->
<g id="edge8" class="edge">
<title>Node8&#45;&gt;Node9</title>
<path fill="none" stroke="midnightblue" d="M384.68,-15.5C401.92,-15.5 420.31,-15.5 437.93,-15.5"/>
<polygon fill="midnightblue" stroke="midnightblue" points="438.2,-19 448.2,-15.5 438.2,-12 438.2,-19"/>
</g>
</g>
</svg>
