<?xml version="1.0" encoding="UTF-8" standalone="no"?>
<!DOCTYPE svg PUBLIC "-//W3C//DTD SVG 1.1//EN"
 "http://www.w3.org/Graphics/SVG/1.1/DTD/svg11.dtd">
<!-- Generated by graphviz version 2.43.0 (0)
 -->
<!-- Title: Ra::Engine::Data::PolyMesh::getNumFaces Pages: 1 -->
<svg width="370pt" height="100pt"
 viewBox="0.00 0.00 370.00 99.50" xmlns="http://www.w3.org/2000/svg" xmlns:xlink="http://www.w3.org/1999/xlink">
<g id="graph0" class="graph" transform="scale(1 1) rotate(0) translate(4 95.5)">
<title>Ra::Engine::Data::PolyMesh::getNumFaces</title>
<polygon fill="white" stroke="transparent" points="-4,4 -4,-95.5 366,-95.5 366,4 -4,4"/>
<!-- Node1 -->
<g id="node1" class="node">
<title>Node1</title>
<g id="a_node1"><a xlink:title=" ">
<polygon fill="#bfbfbf" stroke="black" points="0,-27.5 0,-57.5 151,-57.5 151,-27.5 0,-27.5"/>
<text text-anchor="start" x="8" y="-45.5" font-family="Helvetica,sans-Serif" font-size="10.00">Ra::Engine::Data::PolyMesh</text>
<text text-anchor="middle" x="75.5" y="-34.5" font-family="Helvetica,sans-Serif" font-size="10.00">::getNumFaces</text>
</a>
</g>
</g>
<!-- Node2 -->
<g id="node2" class="node">
<title>Node2</title>
<g id="a_node2"><a xlink:href="classRa_1_1Engine_1_1Data_1_1CoreGeometryDisplayable.html#a166c11d14412bdfc7fe13fa9242dd63f" target="_top" xlink:title=" ">
<polygon fill="white" stroke="black" points="187,-50 187,-91 362,-91 362,-50 187,-50"/>
<text text-anchor="start" x="195" y="-79" font-family="Helvetica,sans-Serif" font-size="10.00">Ra::Engine::Data::CoreGeometry</text>
<text text-anchor="start" x="195" y="-68" font-family="Helvetica,sans-Serif" font-size="10.00">Displayable&lt; Core::Geometry</text>
<text text-anchor="middle" x="274.5" y="-57" font-family="Helvetica,sans-Serif" font-size="10.00">::PolyMesh &gt;::getCoreGeometry</text>
</a>
</g>
</g>
<!-- Node1&#45;&gt;Node2 -->
<g id="edge1" class="edge">
<title>Node1&#45;&gt;Node2</title>
<path fill="none" stroke="midnightblue" d="M151.26,-53.13C159.63,-54.32 168.24,-55.54 176.84,-56.76"/>
<polygon fill="midnightblue" stroke="midnightblue" points="176.51,-60.25 186.91,-58.19 177.5,-53.32 176.51,-60.25"/>
</g>
<!-- Node3 -->
<g id="node3" class="node">
<title>Node3</title>
<g id="a_node3"><a xlink:href="classRa_1_1Core_1_1Geometry_1_1IndexedGeometry.html#a3878b66aabc0e24f2c9b4ca1946ad6fc" target="_top" xlink:title=" ">
<polygon fill="white" stroke="black" points="192,-0.5 192,-30.5 357,-30.5 357,-0.5 192,-0.5"/>
<text text-anchor="start" x="200" y="-18.5" font-family="Helvetica,sans-Serif" font-size="10.00">Ra::Core::Geometry</text>
<text text-anchor="middle" x="274.5" y="-7.5" font-family="Helvetica,sans-Serif" font-size="10.00">::IndexedGeometry::getIndices</text>
</a>
</g>
</g>
<!-- Node1&#45;&gt;Node3 -->
<g id="edge2" class="edge">
<title>Node1&#45;&gt;Node3</title>
<path fill="none" stroke="midnightblue" d="M151.26,-32.25C161.22,-30.89 171.52,-29.48 181.73,-28.08"/>
<polygon fill="midnightblue" stroke="midnightblue" points="182.46,-31.51 191.89,-26.69 181.5,-24.58 182.46,-31.51"/>
</g>
</g>
</svg>
