<?xml version="1.0" encoding="UTF-8" standalone="no"?>
<!DOCTYPE svg PUBLIC "-//W3C//DTD SVG 1.1//EN"
 "http://www.w3.org/Graphics/SVG/1.1/DTD/svg11.dtd">
<!-- Generated by graphviz version 2.43.0 (0)
 -->
<!-- Title: Ra::IO::OBJFileManager::importData Pages: 1 -->
<!--zoomable 329 -->
<svg id="main" version="1.1" xmlns="http://www.w3.org/2000/svg" xmlns:xlink="http://www.w3.org/1999/xlink" xml:space="preserve" onload="init(evt)">
<style type="text/css"><![CDATA[
.edge:hover path { stroke: red; }
.edge:hover polygon { stroke: red; fill: red; }
]]></style>
<script type="text/javascript"><![CDATA[
var edges = document.getElementsByTagName('g');
if (edges && edges.length) {
  for (var i=0;i<edges.length;i++) {
    if (edges[i].id.substr(0,4)=='edge') {
      edges[i].setAttribute('class','edge');
    }
  }
}
]]></script>
        <defs>
                <circle id="rim" cx="0" cy="0" r="7"/>
                <circle id="rim2" cx="0" cy="0" r="3.5"/>
                <g id="zoomPlus">
                        <use xlink:href="#rim" fill="#404040">
                                <set attributeName="fill" to="#808080" begin="zoomplus.mouseover" end="zoomplus.mouseout"/>
                        </use>
                        <path d="M-4,0h8M0,-4v8" fill="none" stroke="white" stroke-width="1.5" pointer-events="none"/>
                </g>
                <g id="zoomMin">
                        <use xlink:href="#rim" fill="#404040">
                                <set attributeName="fill" to="#808080" begin="zoomminus.mouseover" end="zoomminus.mouseout"/>
                        </use>
                        <path d="M-4,0h8" fill="none" stroke="white" stroke-width="1.5" pointer-events="none"/>
                </g>
                <g id="dirArrow">
                        <path fill="none" stroke="white" stroke-width="1.5" d="M0,-3.0v7 M-2.5,-0.5L0,-3.0L2.5,-0.5"/>
                </g>
               <g id="resetDef">
                       <use xlink:href="#rim2" fill="#404040">
                               <set attributeName="fill" to="#808080" begin="reset.mouseover" end="reset.mouseout"/>
                       </use>
               </g>
        </defs>

<script type="text/javascript">
var viewWidth = 733;
var viewHeight = 329;
var sectionId = 'dynsection-3';
</script>
<script xlink:href="svgpan.js"/>
<svg id="graph" class="graph">
<g id="viewport">
<title>Ra::IO::OBJFileManager::importData</title>
<polygon fill="white" stroke="transparent" points="-4,4 -4,-325 729,-325 729,4 -4,4"/>
<!-- Node1 -->
<g id="node1" class="node">
<title>Node1</title>
<g id="a_node1"><a xlink:title=" ">
<polygon fill="#bfbfbf" stroke="black" points="0,-181 0,-211 129,-211 129,-181 0,-181"/>
<text text-anchor="start" x="8" y="-199" font-family="Helvetica,sans-Serif" font-size="10.00">Ra::IO::OBJFileManager</text>
<text text-anchor="middle" x="64.5" y="-188" font-family="Helvetica,sans-Serif" font-size="10.00">::importData</text>
</a>
</g>
</g>
<!-- Node2 -->
<g id="node2" class="node">
<title>Node2</title>
<g id="a_node2"><a xlink:href="classRa_1_1IO_1_1FileManager.html#a2b788483f09e07553e4cb4ca768063b4" target="_top" xlink:title=" ">
<polygon fill="white" stroke="black" points="172.5,-279.5 172.5,-320.5 321.5,-320.5 321.5,-279.5 172.5,-279.5"/>
<text text-anchor="start" x="180.5" y="-308.5" font-family="Helvetica,sans-Serif" font-size="10.00">Ra::IO::FileManager</text>
<text text-anchor="start" x="180.5" y="-297.5" font-family="Helvetica,sans-Serif" font-size="10.00">&lt; Core::Geometry::Triangle</text>
<text text-anchor="middle" x="247" y="-286.5" font-family="Helvetica,sans-Serif" font-size="10.00">Mesh &gt;::addLogErrorEntry</text>
</a>
</g>
</g>
<!-- Node1&#45;&gt;Node2 -->
<g id="edge1" class="edge">
<title>Node1&#45;&gt;Node2</title>
<path fill="none" stroke="midnightblue" d="M82.79,-211.28C101.86,-227.53 133.97,-253.16 165,-270 168.29,-271.79 171.71,-273.51 175.2,-275.16"/>
<polygon fill="midnightblue" stroke="midnightblue" points="174.02,-278.47 184.58,-279.38 176.89,-272.09 174.02,-278.47"/>
</g>
<!-- Node3 -->
<g id="node3" class="node">
<title>Node3</title>
<g id="a_node3"><a xlink:href="classRa_1_1Core_1_1Geometry_1_1IndexedGeometry.html#ab39bf689191e11e975554952d2532cb9" target="_top" xlink:title="Erases all data, making the AttribArrayGeometry empty.">
<polygon fill="white" stroke="black" points="177.5,-230 177.5,-260 316.5,-260 316.5,-230 177.5,-230"/>
<text text-anchor="start" x="185.5" y="-248" font-family="Helvetica,sans-Serif" font-size="10.00">Ra::Core::Geometry</text>
<text text-anchor="middle" x="247" y="-237" font-family="Helvetica,sans-Serif" font-size="10.00">::IndexedGeometry::clear</text>
</a>
</g>
</g>
<!-- Node1&#45;&gt;Node3 -->
<g id="edge2" class="edge">
<title>Node1&#45;&gt;Node3</title>
<path fill="none" stroke="midnightblue" d="M121.13,-211.1C140,-216.23 161.26,-222 180.81,-227.3"/>
<polygon fill="midnightblue" stroke="midnightblue" points="179.99,-230.71 190.55,-229.95 181.82,-223.95 179.99,-230.71"/>
</g>
<!-- Node4 -->
<g id="node4" class="node">
<title>Node4</title>
<g id="a_node4"><a xlink:href="classRa_1_1Core_1_1Geometry_1_1IndexedGeometry.html#ad1fc6b57b469ef12d14f677852b8f2a8" target="_top" xlink:title=" ">
<polygon fill="white" stroke="black" points="165,-181 165,-211 329,-211 329,-181 165,-181"/>
<text text-anchor="start" x="173" y="-199" font-family="Helvetica,sans-Serif" font-size="10.00">Ra::Core::Geometry</text>
<text text-anchor="middle" x="247" y="-188" font-family="Helvetica,sans-Serif" font-size="10.00">::IndexedGeometry::setIndices</text>
</a>
</g>
</g>
<!-- Node1&#45;&gt;Node4 -->
<g id="edge3" class="edge">
<title>Node1&#45;&gt;Node4</title>
<path fill="none" stroke="midnightblue" d="M129.14,-196C137.45,-196 146.1,-196 154.76,-196"/>
<polygon fill="midnightblue" stroke="midnightblue" points="154.91,-199.5 164.91,-196 154.91,-192.5 154.91,-199.5"/>
</g>
<!-- Node5 -->
<g id="node5" class="node">
<title>Node5</title>
<g id="a_node5"><a xlink:href="classRa_1_1Core_1_1Geometry_1_1AttribArrayGeometry.html#a646faabae9b936589fe03d8a9d2002e9" target="_top" xlink:title="Set normals.">
<polygon fill="white" stroke="black" points="184.5,-120.5 184.5,-161.5 309.5,-161.5 309.5,-120.5 184.5,-120.5"/>
<text text-anchor="start" x="192.5" y="-149.5" font-family="Helvetica,sans-Serif" font-size="10.00">Ra::Core::Geometry</text>
<text text-anchor="start" x="192.5" y="-138.5" font-family="Helvetica,sans-Serif" font-size="10.00">::AttribArrayGeometry</text>
<text text-anchor="middle" x="247" y="-127.5" font-family="Helvetica,sans-Serif" font-size="10.00">::setNormals</text>
</a>
</g>
</g>
<!-- Node1&#45;&gt;Node5 -->
<g id="edge4" class="edge">
<title>Node1&#45;&gt;Node5</title>
<path fill="none" stroke="midnightblue" d="M114.82,-180.97C133.3,-175.34 154.68,-168.82 174.75,-162.71"/>
<polygon fill="midnightblue" stroke="midnightblue" points="175.94,-166.01 184.48,-159.75 173.9,-159.31 175.94,-166.01"/>
</g>
<!-- Node9 -->
<g id="node9" class="node">
<title>Node9</title>
<g id="a_node9"><a xlink:href="classRa_1_1Core_1_1Geometry_1_1AttribArrayGeometry.html#a887411177386edbcdc35d0c6bf78a83a" target="_top" xlink:title="Set vertices.">
<polygon fill="white" stroke="black" points="184.5,-60.5 184.5,-101.5 309.5,-101.5 309.5,-60.5 184.5,-60.5"/>
<text text-anchor="start" x="192.5" y="-89.5" font-family="Helvetica,sans-Serif" font-size="10.00">Ra::Core::Geometry</text>
<text text-anchor="start" x="192.5" y="-78.5" font-family="Helvetica,sans-Serif" font-size="10.00">::AttribArrayGeometry</text>
<text text-anchor="middle" x="247" y="-67.5" font-family="Helvetica,sans-Serif" font-size="10.00">::setVertices</text>
</a>
</g>
</g>
<!-- Node1&#45;&gt;Node9 -->
<g id="edge8" class="edge">
<title>Node1&#45;&gt;Node9</title>
<path fill="none" stroke="midnightblue" d="M79.72,-180.94C97.97,-162.35 131.3,-130.78 165,-111 168.23,-109.1 171.6,-107.29 175.05,-105.57"/>
<polygon fill="midnightblue" stroke="midnightblue" points="176.78,-108.62 184.34,-101.2 173.8,-102.29 176.78,-108.62"/>
</g>
<!-- Node6 -->
<g id="node6" class="node">
<title>Node6</title>
<g id="a_node6"><a xlink:href="classRa_1_1Core_1_1Geometry_1_1AttribArrayGeometry.html#abfd2320cb73c0cb14805c234af594b5e" target="_top" xlink:title="Access the vertices normals.">
<polygon fill="white" stroke="black" points="383.5,-170.5 383.5,-211.5 508.5,-211.5 508.5,-170.5 383.5,-170.5"/>
<text text-anchor="start" x="391.5" y="-199.5" font-family="Helvetica,sans-Serif" font-size="10.00">Ra::Core::Geometry</text>
<text text-anchor="start" x="391.5" y="-188.5" font-family="Helvetica,sans-Serif" font-size="10.00">::AttribArrayGeometry</text>
<text text-anchor="middle" x="446" y="-177.5" font-family="Helvetica,sans-Serif" font-size="10.00">::normals</text>
</a>
</g>
</g>
<!-- Node5&#45;&gt;Node6 -->
<g id="edge5" class="edge">
<title>Node5&#45;&gt;Node6</title>
<path fill="none" stroke="midnightblue" d="M309.52,-156.61C329.79,-161.76 352.51,-167.53 373.46,-172.84"/>
<polygon fill="midnightblue" stroke="midnightblue" points="372.71,-176.26 383.27,-175.33 374.44,-169.48 372.71,-176.26"/>
</g>
<!-- Node8 -->
<g id="node8" class="node">
<title>Node8</title>
<g id="a_node8"><a xlink:href="classRa_1_1Core_1_1Utils_1_1AttribManager.html#a056b7697cfbedd6b20dde6ce7955094e" target="_top" xlink:title=" ">
<polygon fill="white" stroke="black" points="365,-121 365,-151 527,-151 527,-121 365,-121"/>
<text text-anchor="start" x="373" y="-139" font-family="Helvetica,sans-Serif" font-size="10.00">Ra::Core::Utils::AttribManager</text>
<text text-anchor="middle" x="446" y="-128" font-family="Helvetica,sans-Serif" font-size="10.00">::setAttrib</text>
</a>
</g>
</g>
<!-- Node5&#45;&gt;Node8 -->
<g id="edge7" class="edge">
<title>Node5&#45;&gt;Node8</title>
<path fill="none" stroke="midnightblue" d="M309.52,-139.44C323.88,-139.07 339.46,-138.68 354.77,-138.29"/>
<polygon fill="midnightblue" stroke="midnightblue" points="354.87,-141.79 364.78,-138.04 354.69,-134.79 354.87,-141.79"/>
</g>
<!-- Node7 -->
<g id="node7" class="node">
<title>Node7</title>
<g id="a_node7"><a xlink:href="classRa_1_1Core_1_1Utils_1_1AttribManager.html#ae0cb7281ec72606a5392602b4ea50d2c" target="_top" xlink:title=" ">
<polygon fill="white" stroke="black" points="563,-91 563,-121 725,-121 725,-91 563,-91"/>
<text text-anchor="start" x="571" y="-109" font-family="Helvetica,sans-Serif" font-size="10.00">Ra::Core::Utils::AttribManager</text>
<text text-anchor="middle" x="644" y="-98" font-family="Helvetica,sans-Serif" font-size="10.00">::getAttrib</text>
</a>
</g>
</g>
<!-- Node6&#45;&gt;Node7 -->
<g id="edge6" class="edge">
<title>Node6&#45;&gt;Node7</title>
<path fill="none" stroke="midnightblue" d="M503.62,-170.45C511.51,-167.38 519.49,-164.18 527,-161 552.86,-150.04 581.36,-136.55 603.64,-125.67"/>
<polygon fill="midnightblue" stroke="midnightblue" points="605.35,-128.73 612.79,-121.18 602.27,-122.45 605.35,-128.73"/>
</g>
<!-- Node9&#45;&gt;Node8 -->
<g id="edge10" class="edge">
<title>Node9&#45;&gt;Node8</title>
<path fill="none" stroke="midnightblue" d="M309.52,-98.18C332.44,-104.57 358.48,-111.84 381.57,-118.29"/>
<polygon fill="midnightblue" stroke="midnightblue" points="380.69,-121.68 391.26,-121 382.57,-114.94 380.69,-121.68"/>
</g>
<!-- Node10 -->
<g id="node10" class="node">
<title>Node10</title>
<g id="a_node10"><a xlink:href="structRa_1_1Core_1_1Geometry_1_1AbstractGeometry.html#a573def11b92bfa63c15dfddec792b450" target="_top" xlink:title=" ">
<polygon fill="white" stroke="black" points="387.5,-60.5 387.5,-101.5 504.5,-101.5 504.5,-60.5 387.5,-60.5"/>
<text text-anchor="start" x="395.5" y="-89.5" font-family="Helvetica,sans-Serif" font-size="10.00">Ra::Core::Geometry</text>
<text text-anchor="start" x="395.5" y="-78.5" font-family="Helvetica,sans-Serif" font-size="10.00">::AbstractGeometry::</text>
<text text-anchor="middle" x="446" y="-67.5" font-family="Helvetica,sans-Serif" font-size="10.00">invalidateAabb</text>
</a>
</g>
</g>
<!-- Node9&#45;&gt;Node10 -->
<g id="edge9" class="edge">
<title>Node9&#45;&gt;Node10</title>
<path fill="none" stroke="midnightblue" d="M309.52,-81C330.96,-81 355.14,-81 377.07,-81"/>
<polygon fill="midnightblue" stroke="midnightblue" points="377.3,-84.5 387.3,-81 377.3,-77.5 377.3,-84.5"/>
</g>
<!-- Node11 -->
<g id="node11" class="node">
<title>Node11</title>
<g id="a_node11"><a xlink:href="classRa_1_1Core_1_1Geometry_1_1AttribArrayGeometry.html#acabe05880d71a8dc4406964c258fff5a" target="_top" xlink:title="Access the vertices positions.">
<polygon fill="white" stroke="black" points="383.5,-0.5 383.5,-41.5 508.5,-41.5 508.5,-0.5 383.5,-0.5"/>
<text text-anchor="start" x="391.5" y="-29.5" font-family="Helvetica,sans-Serif" font-size="10.00">Ra::Core::Geometry</text>
<text text-anchor="start" x="391.5" y="-18.5" font-family="Helvetica,sans-Serif" font-size="10.00">::AttribArrayGeometry</text>
<text text-anchor="middle" x="446" y="-7.5" font-family="Helvetica,sans-Serif" font-size="10.00">::vertices</text>
</a>
</g>
</g>
<!-- Node9&#45;&gt;Node11 -->
<g id="edge11" class="edge">
<title>Node9&#45;&gt;Node11</title>
<path fill="none" stroke="midnightblue" d="M309.52,-62.26C329.79,-56.09 352.51,-49.17 373.46,-42.79"/>
<polygon fill="midnightblue" stroke="midnightblue" points="374.72,-46.06 383.27,-39.8 372.68,-39.37 374.72,-46.06"/>
</g>
<!-- Node11&#45;&gt;Node7 -->
<g id="edge12" class="edge">
<title>Node11&#45;&gt;Node7</title>
<path fill="none" stroke="midnightblue" d="M503.62,-41.55C511.51,-44.62 519.49,-47.82 527,-51 552.86,-61.96 581.36,-75.45 603.64,-86.33"/>
<polygon fill="midnightblue" stroke="midnightblue" points="602.27,-89.55 612.79,-90.82 605.35,-83.27 602.27,-89.55"/>
</g>
</g>
</svg>
        <g id="navigator" transform="translate(0 0)" fill="#404254">
                <rect fill="#f2f5e9" fill-opacity="0.5" stroke="#606060" stroke-width=".5" x="0" y="0" width="60" height="60"/>
                <use id="zoomplus" xlink:href="#zoomPlus" x="17" y="9" onmousedown="handleZoom(evt,'in')"/>
                <use id="zoomminus" xlink:href="#zoomMin" x="42" y="9" onmousedown="handleZoom(evt,'out')"/>
                <use id="reset" xlink:href="#resetDef" x="30" y="36" onmousedown="handleReset()"/>
                <g id="arrowUp" xlink:href="#dirArrow" transform="translate(30 24)" onmousedown="handlePan(0,-1)">
                  <use xlink:href="#rim" fill="#404040">
                        <set attributeName="fill" to="#808080" begin="arrowUp.mouseover" end="arrowUp.mouseout"/>
                  </use>
                  <path fill="none" stroke="white" stroke-width="1.5" d="M0,-3.0v7 M-2.5,-0.5L0,-3.0L2.5,-0.5"/>
                </g>
                <g id="arrowRight" xlink:href="#dirArrow" transform="rotate(90) translate(36 -43)" onmousedown="handlePan(1,0)">
                  <use xlink:href="#rim" fill="#404040">
                        <set attributeName="fill" to="#808080" begin="arrowRight.mouseover" end="arrowRight.mouseout"/>
                  </use>
                  <path fill="none" stroke="white" stroke-width="1.5" d="M0,-3.0v7 M-2.5,-0.5L0,-3.0L2.5,-0.5"/>
                </g>
                <g id="arrowDown" xlink:href="#dirArrow" transform="rotate(180) translate(-30 -48)" onmousedown="handlePan(0,1)">
                  <use xlink:href="#rim" fill="#404040">
                        <set attributeName="fill" to="#808080" begin="arrowDown.mouseover" end="arrowDown.mouseout"/>
                  </use>
                  <path fill="none" stroke="white" stroke-width="1.5" d="M0,-3.0v7 M-2.5,-0.5L0,-3.0L2.5,-0.5"/>
                </g>
                <g id="arrowLeft" xlink:href="#dirArrow" transform="rotate(270) translate(-36 17)" onmousedown="handlePan(-1,0)">
                  <use xlink:href="#rim" fill="#404040">
                        <set attributeName="fill" to="#808080" begin="arrowLeft.mouseover" end="arrowLeft.mouseout"/>
                  </use>
                  <path fill="none" stroke="white" stroke-width="1.5" d="M0,-3.0v7 M-2.5,-0.5L0,-3.0L2.5,-0.5"/>
                </g>
        </g>
        <svg viewBox="0 0 15 15" width="100%" height="30px" preserveAspectRatio="xMaxYMin meet">
         <g id="arrow_out" transform="scale(0.3 0.3)">
          <a xlink:href="classRa_1_1IO_1_1OBJFileManager_aa30d544cac974be1b1232871fac57cde_cgraph_org.svg" target="_base">
           <rect id="button" ry="5" rx="5" y="6" x="6" height="38" width="38"
                fill="#f2f5e9" fill-opacity="0.5" stroke="#606060" stroke-width="1.0"/>
           <path id="arrow"
             d="M 11.500037,31.436501 C 11.940474,20.09759 22.043105,11.32322 32.158766,21.979434 L 37.068811,17.246167 C 37.068811,17.246167 37.088388,32 37.088388,32 L 22.160133,31.978069 C 22.160133,31.978069 26.997745,27.140456 26.997745,27.140456 C 18.528582,18.264221 13.291696,25.230495 11.500037,31.436501 z"
             style="fill:#404040;"/>
          </a>
         </g>
        </svg>
</svg>
