<?xml version="1.0" encoding="UTF-8" standalone="no"?>
<!DOCTYPE svg PUBLIC "-//W3C//DTD SVG 1.1//EN"
 "http://www.w3.org/Graphics/SVG/1.1/DTD/svg11.dtd">
<!-- Generated by graphviz version 2.40.1 (20161225.0304)
 -->
<!-- Title: Ra::Gui::ScaleGizmo::mouseMove Pages: 1 -->
<!--zoomable 298 -->
<svg id="main" version="1.1" xmlns="http://www.w3.org/2000/svg" xmlns:xlink="http://www.w3.org/1999/xlink" xml:space="preserve" onload="init(evt)">
<style type="text/css"><![CDATA[
.edge:hover path { stroke: red; }
.edge:hover polygon { stroke: red; fill: red; }
]]></style>
<script type="text/javascript"><![CDATA[
var edges = document.getElementsByTagName('g');
if (edges && edges.length) {
  for (var i=0;i<edges.length;i++) {
    if (edges[i].id.substr(0,4)=='edge') {
      edges[i].setAttribute('class','edge');
    }
  }
}
]]></script>
        <defs>
                <circle id="rim" cx="0" cy="0" r="7"/>
                <circle id="rim2" cx="0" cy="0" r="3.5"/>
                <g id="zoomPlus">
                        <use xlink:href="#rim" fill="#404040">
                                <set attributeName="fill" to="#808080" begin="zoomplus.mouseover" end="zoomplus.mouseout"/>
                        </use>
                        <path d="M-4,0h8M0,-4v8" fill="none" stroke="white" stroke-width="1.5" pointer-events="none"/>
                </g>
                <g id="zoomMin">
                        <use xlink:href="#rim" fill="#404040">
                                <set attributeName="fill" to="#808080" begin="zoomminus.mouseover" end="zoomminus.mouseout"/>
                        </use>
                        <path d="M-4,0h8" fill="none" stroke="white" stroke-width="1.5" pointer-events="none"/>
                </g>
                <g id="dirArrow">
                        <path fill="none" stroke="white" stroke-width="1.5" d="M0,-3.0v7 M-2.5,-0.5L0,-3.0L2.5,-0.5"/>
                </g>
               <g id="resetDef">
                       <use xlink:href="#rim2" fill="#404040">
                               <set attributeName="fill" to="#808080" begin="reset.mouseover" end="reset.mouseout"/>
                       </use>
               </g>
        </defs>

<script type="text/javascript">
var viewWidth = 764;
var viewHeight = 298;
var sectionId = 'dynsection-4';
</script>
<script xlink:href="svgpan.js"/>
<svg id="graph" class="graph">
<g id="viewport">
<title>Ra::Gui::ScaleGizmo::mouseMove</title>
<polygon fill="#ffffff" stroke="transparent" points="-4,4 -4,-293.5 760,-293.5 760,4 -4,4"/>
<!-- Node58 -->
<g id="node1" class="node">
<title>Node58</title>
<polygon fill="#bfbfbf" stroke="#000000" points="0,-146.5 0,-176.5 116,-176.5 116,-146.5 0,-146.5"/>
<text text-anchor="start" x="8" y="-164.5" font-family="Helvetica,sans-Serif" font-size="10.00" fill="#000000">Ra::Gui::ScaleGizmo</text>
<text text-anchor="middle" x="58" y="-153.5" font-family="Helvetica,sans-Serif" font-size="10.00" fill="#000000">::mouseMove</text>
</g>
<!-- Node59 -->
<g id="node2" class="node">
<title>Node59</title>
<g id="a_node2"><a xlink:href="classRa_1_1Gui_1_1Gizmo.html#ad9d1c38f9ce6bc77e087517c2292a926" target="_top" xlink:title="Returns the controler (ShaderParametersProvider) associated to the given gizmo component. ">
<polygon fill="#ffffff" stroke="#000000" points="152,-270 152,-289 308,-289 308,-270 152,-270"/>
<text text-anchor="middle" x="230" y="-277" font-family="Helvetica,sans-Serif" font-size="10.00" fill="#000000">Ra::Gui::Gizmo::getControler</text>
</a>
</g>
</g>
<!-- Node58&#45;&gt;Node59 -->
<g id="edge1" class="edge">
<title>Node58&#45;&gt;Node59</title>
<path fill="none" stroke="#191970" d="M68.1749,-176.8406C83.6103,-198.8574 115.0863,-239.1131 152,-260.5 155.9043,-262.7621 160.0686,-264.7559 164.3647,-266.5131"/>
<polygon fill="#191970" stroke="#191970" points="163.3362,-269.8633 173.9303,-269.9943 165.7302,-263.2854 163.3362,-269.8633"/>
</g>
<!-- Node60 -->
<g id="node3" class="node">
<title>Node60</title>
<g id="a_node3"><a xlink:href="classRa_1_1Gui_1_1Gizmo_1_1UiSelectionControler.html#a11f8714168f0fc3470ff7c749a91a5d8" target="_top" xlink:title="Set the state of the controler to true. ">
<polygon fill="#ffffff" stroke="#000000" points="154.5,-220.5 154.5,-250.5 305.5,-250.5 305.5,-220.5 154.5,-220.5"/>
<text text-anchor="start" x="162.5" y="-238.5" font-family="Helvetica,sans-Serif" font-size="10.00" fill="#000000">Ra::Gui::Gizmo::UiSelection</text>
<text text-anchor="middle" x="230" y="-227.5" font-family="Helvetica,sans-Serif" font-size="10.00" fill="#000000">Controler::setState</text>
</a>
</g>
</g>
<!-- Node58&#45;&gt;Node60 -->
<g id="edge2" class="edge">
<title>Node58&#45;&gt;Node60</title>
<path fill="none" stroke="#191970" d="M83.293,-176.6521C101.8593,-187.3499 127.9306,-201.5026 152,-211.5 156.7043,-213.4539 161.6256,-215.3324 166.6103,-217.1181"/>
<polygon fill="#191970" stroke="#191970" points="165.6392,-220.4854 176.2339,-220.4332 167.9191,-213.867 165.6392,-220.4854"/>
</g>
<!-- Node61 -->
<g id="node4" class="node">
<title>Node61</title>
<g id="a_node4"><a xlink:href="classRa_1_1Gui_1_1Gizmo_1_1UiSelectionControler.html#a6190ecfbb984d25ff72d80e45a59e9e9" target="_top" xlink:title="Set the state of the controler to false. ">
<polygon fill="#ffffff" stroke="#000000" points="154.5,-171.5 154.5,-201.5 305.5,-201.5 305.5,-171.5 154.5,-171.5"/>
<text text-anchor="start" x="162.5" y="-189.5" font-family="Helvetica,sans-Serif" font-size="10.00" fill="#000000">Ra::Gui::Gizmo::UiSelection</text>
<text text-anchor="middle" x="230" y="-178.5" font-family="Helvetica,sans-Serif" font-size="10.00" fill="#000000">Controler::clearState</text>
</a>
</g>
</g>
<!-- Node58&#45;&gt;Node61 -->
<g id="edge3" class="edge">
<title>Node58&#45;&gt;Node61</title>
<path fill="none" stroke="#191970" d="M116.2314,-169.9639C125.3452,-171.2885 134.9252,-172.681 144.4969,-174.0722"/>
<polygon fill="#191970" stroke="#191970" points="144.0493,-177.5439 154.4488,-175.5187 145.0562,-170.6167 144.0493,-177.5439"/>
</g>
<!-- Node62 -->
<g id="node5" class="node">
<title>Node62</title>
<g id="a_node5"><a xlink:href="classRa_1_1Gui_1_1Gizmo.html#a59f612603ee6c129a563ee6829abbc63" target="_top" xlink:title="Find a mouse&#45;designed point on a 3D plane. ">
<polygon fill="#ffffff" stroke="#000000" points="161,-122.5 161,-152.5 299,-152.5 299,-122.5 161,-122.5"/>
<text text-anchor="start" x="169" y="-140.5" font-family="Helvetica,sans-Serif" font-size="10.00" fill="#000000">Ra::Gui::Gizmo::findPoint</text>
<text text-anchor="middle" x="230" y="-129.5" font-family="Helvetica,sans-Serif" font-size="10.00" fill="#000000">OnPlane</text>
</a>
</g>
</g>
<!-- Node58&#45;&gt;Node62 -->
<g id="edge4" class="edge">
<title>Node58&#45;&gt;Node62</title>
<path fill="none" stroke="#191970" d="M116.2314,-153.3747C127.3119,-151.8286 139.0814,-150.1863 150.6874,-148.5669"/>
<polygon fill="#191970" stroke="#191970" points="151.4029,-152.001 160.8232,-147.1526 150.4354,-145.0682 151.4029,-152.001"/>
</g>
<!-- Node69 -->
<g id="node12" class="node">
<title>Node69</title>
<g id="a_node12"><a xlink:href="classRa_1_1Gui_1_1Gizmo.html#a9f381cac5f535c0f66b04f02856f057d" target="_top" xlink:title="Find a mouse&#45;designed point on a 3D axis. ">
<polygon fill="#ffffff" stroke="#000000" points="161,-73.5 161,-103.5 299,-103.5 299,-73.5 161,-73.5"/>
<text text-anchor="start" x="169" y="-91.5" font-family="Helvetica,sans-Serif" font-size="10.00" fill="#000000">Ra::Gui::Gizmo::findPoint</text>
<text text-anchor="middle" x="230" y="-80.5" font-family="Helvetica,sans-Serif" font-size="10.00" fill="#000000">OnAxis</text>
</a>
</g>
</g>
<!-- Node58&#45;&gt;Node69 -->
<g id="edge11" class="edge">
<title>Node58&#45;&gt;Node69</title>
<path fill="none" stroke="#191970" d="M84.603,-146.4516C103.1338,-136.3357 128.6227,-123.1406 152,-113.5 157.4742,-111.2425 163.2312,-109.0579 169.0343,-106.9823"/>
<polygon fill="#191970" stroke="#191970" points="170.4987,-110.1792 178.802,-103.5985 168.2072,-103.5648 170.4987,-110.1792"/>
</g>
<!-- Node72 -->
<g id="node15" class="node">
<title>Node72</title>
<g id="a_node15"><a xlink:href="namespaceRa_1_1Core_1_1Math.html#a941baf20065c77d494ca251e6e104f31" target="_top" xlink:title="Returns the quaternion q multipled by a scalar factor of k. ">
<polygon fill="#ffffff" stroke="#000000" points="170.5,-35 170.5,-54 289.5,-54 289.5,-35 170.5,-35"/>
<text text-anchor="middle" x="230" y="-42" font-family="Helvetica,sans-Serif" font-size="10.00" fill="#000000">Ra::Core::Math::scale</text>
</a>
</g>
</g>
<!-- Node58&#45;&gt;Node72 -->
<g id="edge16" class="edge">
<title>Node58&#45;&gt;Node72</title>
<path fill="none" stroke="#191970" d="M68.5443,-146.173C84.2056,-124.6032 115.6992,-85.5772 152,-64.5 156.6847,-61.7799 161.7384,-59.4251 166.9419,-57.3872"/>
<polygon fill="#191970" stroke="#191970" points="168.1516,-60.6719 176.4228,-54.0509 165.828,-54.0688 168.1516,-60.6719"/>
</g>
<!-- Node63 -->
<g id="node6" class="node">
<title>Node63</title>
<g id="a_node6"><a xlink:href="classRa_1_1Engine_1_1Camera.html#a0c4e6b238f7fad5f3eb4cbd57b5a967c" target="_top" xlink:title="Ra::Engine::Camera\l::getRayFromScreen">
<polygon fill="#ffffff" stroke="#000000" points="344,-147.5 344,-177.5 458,-177.5 458,-147.5 344,-147.5"/>
<text text-anchor="start" x="352" y="-165.5" font-family="Helvetica,sans-Serif" font-size="10.00" fill="#000000">Ra::Engine::Camera</text>
<text text-anchor="middle" x="401" y="-154.5" font-family="Helvetica,sans-Serif" font-size="10.00" fill="#000000">::getRayFromScreen</text>
</a>
</g>
</g>
<!-- Node62&#45;&gt;Node63 -->
<g id="edge5" class="edge">
<title>Node62&#45;&gt;Node63</title>
<path fill="none" stroke="#191970" d="M299.0593,-147.5964C310.5301,-149.2734 322.4111,-151.0104 333.834,-152.6804"/>
<polygon fill="#191970" stroke="#191970" points="333.3314,-156.1441 343.7325,-154.1276 334.3441,-149.2177 333.3314,-156.1441"/>
</g>
<!-- Node67 -->
<g id="node10" class="node">
<title>Node67</title>
<g id="a_node10"><a xlink:href="namespaceRa_1_1Core_1_1Geometry.html#a8b8fe68d162f9a144a127573ca436286" target="_top" xlink:title="Intersect a ray with an infinite plane defined by point A and normal. ">
<polygon fill="#ffffff" stroke="#000000" points="344.5,-98.5 344.5,-128.5 457.5,-128.5 457.5,-98.5 344.5,-98.5"/>
<text text-anchor="start" x="352.5" y="-116.5" font-family="Helvetica,sans-Serif" font-size="10.00" fill="#000000">Ra::Core::Geometry</text>
<text text-anchor="middle" x="401" y="-105.5" font-family="Helvetica,sans-Serif" font-size="10.00" fill="#000000">::RayCastPlane</text>
</a>
</g>
</g>
<!-- Node62&#45;&gt;Node67 -->
<g id="edge9" class="edge">
<title>Node62&#45;&gt;Node67</title>
<path fill="none" stroke="#191970" d="M299.0593,-127.8075C310.6735,-126.1774 322.7082,-124.4883 334.2621,-122.8667"/>
<polygon fill="#191970" stroke="#191970" points="334.8527,-126.3182 344.2692,-121.4622 333.8797,-119.3862 334.8527,-126.3182"/>
</g>
<!-- Node64 -->
<g id="node7" class="node">
<title>Node64</title>
<g id="a_node7"><a xlink:href="classRa_1_1Engine_1_1Camera.html#a21b3924c926f5ca72551ddbe313cb785" target="_top" xlink:title="Return the position. ">
<polygon fill="#ffffff" stroke="#000000" points="494,-144.5 494,-174.5 607,-174.5 607,-144.5 494,-144.5"/>
<text text-anchor="start" x="502" y="-162.5" font-family="Helvetica,sans-Serif" font-size="10.00" fill="#000000">Ra::Engine::Camera</text>
<text text-anchor="middle" x="550.5" y="-151.5" font-family="Helvetica,sans-Serif" font-size="10.00" fill="#000000">::getPosition</text>
</a>
</g>
</g>
<!-- Node63&#45;&gt;Node64 -->
<g id="edge6" class="edge">
<title>Node63&#45;&gt;Node64</title>
<path fill="none" stroke="#191970" d="M458.373,-161.3487C466.5688,-161.1842 475.0596,-161.0139 483.4209,-160.8461"/>
<polygon fill="#191970" stroke="#191970" points="483.5996,-164.3433 493.5273,-160.6433 483.4591,-157.3447 483.5996,-164.3433"/>
</g>
<!-- Node65 -->
<g id="node8" class="node">
<title>Node65</title>
<g id="a_node8"><a xlink:href="classRa_1_1Engine_1_1Camera.html#af768328fd395865c4fa7b677e3f5326c" target="_top" xlink:title="Return the point on the screen plane (near plane) represented by screen coordinates pix...">
<polygon fill="#ffffff" stroke="#000000" points="494,-193.5 494,-223.5 607,-223.5 607,-193.5 494,-193.5"/>
<text text-anchor="start" x="502" y="-211.5" font-family="Helvetica,sans-Serif" font-size="10.00" fill="#000000">Ra::Engine::Camera</text>
<text text-anchor="middle" x="550.5" y="-200.5" font-family="Helvetica,sans-Serif" font-size="10.00" fill="#000000">::unProject</text>
</a>
</g>
</g>
<!-- Node63&#45;&gt;Node65 -->
<g id="edge7" class="edge">
<title>Node63&#45;&gt;Node65</title>
<path fill="none" stroke="#191970" d="M449.9519,-177.5621C463.3143,-181.6736 477.9303,-186.1708 491.7764,-190.4312"/>
<polygon fill="#191970" stroke="#191970" points="491.1065,-193.8869 501.6936,-193.4826 493.1651,-187.1965 491.1065,-193.8869"/>
</g>
<!-- Node66 -->
<g id="node9" class="node">
<title>Node66</title>
<g id="a_node9"><a xlink:href="classRa_1_1Engine_1_1Camera.html#a26f646767029cf0cd95478bbae9be188" target="_top" xlink:title="Return the projection matrix. ">
<polygon fill="#ffffff" stroke="#000000" points="643,-193.5 643,-223.5 756,-223.5 756,-193.5 643,-193.5"/>
<text text-anchor="start" x="651" y="-211.5" font-family="Helvetica,sans-Serif" font-size="10.00" fill="#000000">Ra::Engine::Camera</text>
<text text-anchor="middle" x="699.5" y="-200.5" font-family="Helvetica,sans-Serif" font-size="10.00" fill="#000000">::getProjMatrix</text>
</a>
</g>
</g>
<!-- Node65&#45;&gt;Node66 -->
<g id="edge8" class="edge">
<title>Node65&#45;&gt;Node66</title>
<path fill="none" stroke="#191970" d="M607.2556,-208.5C615.558,-208.5 624.1727,-208.5 632.6536,-208.5"/>
<polygon fill="#191970" stroke="#191970" points="632.9023,-212.0001 642.9022,-208.5 632.9022,-205.0001 632.9023,-212.0001"/>
</g>
<!-- Node68 -->
<g id="node11" class="node">
<title>Node68</title>
<g id="a_node11"><a xlink:href="namespaceOpenMesh.html#a575b338f0fc9ecb5393d23e977e6ac38" target="_top" xlink:title="OpenMesh::dot">
<polygon fill="#ffffff" stroke="#000000" points="506,-104 506,-123 595,-123 595,-104 506,-104"/>
<text text-anchor="middle" x="550.5" y="-111" font-family="Helvetica,sans-Serif" font-size="10.00" fill="#000000">OpenMesh::dot</text>
</a>
</g>
</g>
<!-- Node67&#45;&gt;Node68 -->
<g id="edge10" class="edge">
<title>Node67&#45;&gt;Node68</title>
<path fill="none" stroke="#191970" d="M457.5195,-113.5C469.9226,-113.5 483.0388,-113.5 495.3858,-113.5"/>
<polygon fill="#191970" stroke="#191970" points="495.5438,-117.0001 505.5437,-113.5 495.5437,-110.0001 495.5438,-117.0001"/>
</g>
<!-- Node69&#45;&gt;Node63 -->
<g id="edge14" class="edge">
<title>Node69&#45;&gt;Node63</title>
<path fill="none" stroke="#191970" d="M284.1155,-103.5303C292.2784,-106.456 300.4769,-109.786 308,-113.5 325.4671,-122.1231 326.9308,-129.1139 344,-138.5 346.8696,-140.078 349.8646,-141.6206 352.9142,-143.1139"/>
<polygon fill="#191970" stroke="#191970" points="351.6152,-146.3701 362.1567,-147.432 354.5782,-140.0281 351.6152,-146.3701"/>
</g>
<!-- Node69&#45;&gt;Node67 -->
<g id="edge15" class="edge">
<title>Node69&#45;&gt;Node67</title>
<path fill="none" stroke="#191970" d="M299.0593,-98.5964C310.6735,-100.2944 322.7082,-102.0538 334.2621,-103.743"/>
<polygon fill="#191970" stroke="#191970" points="333.868,-107.2225 344.2692,-105.206 334.8807,-100.2961 333.868,-107.2225"/>
</g>
<!-- Node70 -->
<g id="node13" class="node">
<title>Node70</title>
<g id="a_node13"><a xlink:href="classRa_1_1Engine_1_1Camera.html#ac9ecb8c6005733f286734e1c841d9038" target="_top" xlink:title="Return the direction the camera is looking at. ">
<polygon fill="#ffffff" stroke="#000000" points="344.5,-49.5 344.5,-79.5 457.5,-79.5 457.5,-49.5 344.5,-49.5"/>
<text text-anchor="start" x="352.5" y="-67.5" font-family="Helvetica,sans-Serif" font-size="10.00" fill="#000000">Ra::Engine::Camera</text>
<text text-anchor="middle" x="401" y="-56.5" font-family="Helvetica,sans-Serif" font-size="10.00" fill="#000000">::getDirection</text>
</a>
</g>
</g>
<!-- Node69&#45;&gt;Node70 -->
<g id="edge12" class="edge">
<title>Node69&#45;&gt;Node70</title>
<path fill="none" stroke="#191970" d="M299.0593,-78.8075C310.6735,-77.1774 322.7082,-75.4883 334.2621,-73.8667"/>
<polygon fill="#191970" stroke="#191970" points="334.8527,-77.3182 344.2692,-72.4622 333.8797,-70.3862 334.8527,-77.3182"/>
</g>
<!-- Node71 -->
<g id="node14" class="node">
<title>Node71</title>
<g id="a_node14"><a xlink:href="classRa_1_1Engine_1_1Camera.html#abcad4a7bff703dac10998d89a4db130e" target="_top" xlink:title="Return the up vector. ">
<polygon fill="#ffffff" stroke="#000000" points="344.5,-.5 344.5,-30.5 457.5,-30.5 457.5,-.5 344.5,-.5"/>
<text text-anchor="start" x="352.5" y="-18.5" font-family="Helvetica,sans-Serif" font-size="10.00" fill="#000000">Ra::Engine::Camera</text>
<text text-anchor="middle" x="401" y="-7.5" font-family="Helvetica,sans-Serif" font-size="10.00" fill="#000000">::getUpVector</text>
</a>
</g>
</g>
<!-- Node69&#45;&gt;Node71 -->
<g id="edge13" class="edge">
<title>Node69&#45;&gt;Node71</title>
<path fill="none" stroke="#191970" d="M283.638,-73.4901C291.946,-70.5453 300.3139,-67.2042 308,-63.5 325.3229,-55.1516 327.0627,-48.6053 344,-39.5 347.0234,-37.8747 350.1805,-36.281 353.3909,-34.7365"/>
<polygon fill="#191970" stroke="#191970" points="354.8985,-37.8955 362.5125,-30.5281 351.966,-31.5394 354.8985,-37.8955"/>
</g>
</g>
</svg>
        <g id="navigator" transform="translate(0 0)" fill="#404254">
                <rect fill="#f2f5e9" fill-opacity="0.5" stroke="#606060" stroke-width=".5" x="0" y="0" width="60" height="60"/>
                <use id="zoomplus" xlink:href="#zoomPlus" x="17" y="9" onmousedown="handleZoom(evt,'in')"/>
                <use id="zoomminus" xlink:href="#zoomMin" x="42" y="9" onmousedown="handleZoom(evt,'out')"/>
                <use id="reset" xlink:href="#resetDef" x="30" y="36" onmousedown="handleReset()"/>
                <g id="arrowUp" xlink:href="#dirArrow" transform="translate(30 24)" onmousedown="handlePan(0,-1)">
                  <use xlink:href="#rim" fill="#404040">
                        <set attributeName="fill" to="#808080" begin="arrowUp.mouseover" end="arrowUp.mouseout"/>
                  </use>
                  <path fill="none" stroke="white" stroke-width="1.5" d="M0,-3.0v7 M-2.5,-0.5L0,-3.0L2.5,-0.5"/>
                </g>
                <g id="arrowRight" xlink:href="#dirArrow" transform="rotate(90) translate(36 -43)" onmousedown="handlePan(1,0)">
                  <use xlink:href="#rim" fill="#404040">
                        <set attributeName="fill" to="#808080" begin="arrowRight.mouseover" end="arrowRight.mouseout"/>
                  </use>
                  <path fill="none" stroke="white" stroke-width="1.5" d="M0,-3.0v7 M-2.5,-0.5L0,-3.0L2.5,-0.5"/>
                </g>
                <g id="arrowDown" xlink:href="#dirArrow" transform="rotate(180) translate(-30 -48)" onmousedown="handlePan(0,1)">
                  <use xlink:href="#rim" fill="#404040">
                        <set attributeName="fill" to="#808080" begin="arrowDown.mouseover" end="arrowDown.mouseout"/>
                  </use>
                  <path fill="none" stroke="white" stroke-width="1.5" d="M0,-3.0v7 M-2.5,-0.5L0,-3.0L2.5,-0.5"/>
                </g>
                <g id="arrowLeft" xlink:href="#dirArrow" transform="rotate(270) translate(-36 17)" onmousedown="handlePan(-1,0)">
                  <use xlink:href="#rim" fill="#404040">
                        <set attributeName="fill" to="#808080" begin="arrowLeft.mouseover" end="arrowLeft.mouseout"/>
                  </use>
                  <path fill="none" stroke="white" stroke-width="1.5" d="M0,-3.0v7 M-2.5,-0.5L0,-3.0L2.5,-0.5"/>
                </g>
        </g>
        <svg viewBox="0 0 15 15" width="100%" height="30px" preserveAspectRatio="xMaxYMin meet">
         <g id="arrow_out" transform="scale(0.3 0.3)">
          <a xlink:href="classRa_1_1Gui_1_1ScaleGizmo_aaf80656c228dda366b69d35f4feed8be_cgraph_org.svg" target="_base">
           <rect id="button" ry="5" rx="5" y="6" x="6" height="38" width="38"
                fill="#f2f5e9" fill-opacity="0.5" stroke="#606060" stroke-width="1.0"/>
           <path id="arrow"
             d="M 11.500037,31.436501 C 11.940474,20.09759 22.043105,11.32322 32.158766,21.979434 L 37.068811,17.246167 C 37.068811,17.246167 37.088388,32 37.088388,32 L 22.160133,31.978069 C 22.160133,31.978069 26.997745,27.140456 26.997745,27.140456 C 18.528582,18.264221 13.291696,25.230495 11.500037,31.436501 z"
             style="fill:#404040;"/>
          </a>
         </g>
        </svg>
</svg>
