<?xml version="1.0" encoding="UTF-8" standalone="no"?>
<!DOCTYPE svg PUBLIC "-//W3C//DTD SVG 1.1//EN"
 "http://www.w3.org/Graphics/SVG/1.1/DTD/svg11.dtd">
<!-- Generated by graphviz version 2.43.0 (0)
 -->
<!-- Title: Ra::Engine::CameraManager Pages: 1 -->
<svg width="594pt" height="795pt"
 viewBox="0.00 0.00 594.00 795.00" xmlns="http://www.w3.org/2000/svg" xmlns:xlink="http://www.w3.org/1999/xlink">
<g id="graph0" class="graph" transform="scale(1 1) rotate(0) translate(4 791)">
<title>Ra::Engine::CameraManager</title>
<polygon fill="white" stroke="transparent" points="-4,4 -4,-791 590,-791 590,4 -4,4"/>
<!-- Node1 -->
<g id="node1" class="node">
<title>Node1</title>
<g id="a_node1"><a xlink:title=" ">
<polygon fill="#bfbfbf" stroke="black" points="177.5,-0.5 177.5,-178.5 336.5,-178.5 336.5,-0.5 177.5,-0.5"/>
<text text-anchor="middle" x="257" y="-166.5" font-family="Helvetica,sans-Serif" font-size="10.00">Ra::Engine::CameraManager</text>
<polyline fill="none" stroke="black" points="177.5,-159.5 336.5,-159.5 "/>
<text text-anchor="middle" x="257" y="-147.5" font-family="Helvetica,sans-Serif" font-size="10.00"> </text>
<polyline fill="none" stroke="black" points="177.5,-140.5 336.5,-140.5 "/>
<text text-anchor="start" x="185.5" y="-128.5" font-family="Helvetica,sans-Serif" font-size="10.00">+ CameraManager()</text>
<text text-anchor="start" x="185.5" y="-117.5" font-family="Helvetica,sans-Serif" font-size="10.00">+ CameraManager()</text>
<text text-anchor="start" x="185.5" y="-106.5" font-family="Helvetica,sans-Serif" font-size="10.00">+ operator=()</text>
<text text-anchor="start" x="185.5" y="-95.5" font-family="Helvetica,sans-Serif" font-size="10.00">+ ~CameraManager()</text>
<text text-anchor="start" x="185.5" y="-84.5" font-family="Helvetica,sans-Serif" font-size="10.00">+ getCamera()</text>
<text text-anchor="start" x="185.5" y="-73.5" font-family="Helvetica,sans-Serif" font-size="10.00">+ addCamera()</text>
<text text-anchor="start" x="185.5" y="-62.5" font-family="Helvetica,sans-Serif" font-size="10.00">+ count()</text>
<text text-anchor="start" x="185.5" y="-51.5" font-family="Helvetica,sans-Serif" font-size="10.00">+ generateTasks()</text>
<text text-anchor="start" x="185.5" y="-40.5" font-family="Helvetica,sans-Serif" font-size="10.00">+ handleAssetLoading()</text>
<text text-anchor="start" x="185.5" y="-29.5" font-family="Helvetica,sans-Serif" font-size="10.00"># registerComponent()</text>
<text text-anchor="start" x="185.5" y="-18.5" font-family="Helvetica,sans-Serif" font-size="10.00"># unregisterComponent()</text>
<text text-anchor="start" x="185.5" y="-7.5" font-family="Helvetica,sans-Serif" font-size="10.00"># unregisterAllComponents()</text>
</a>
</g>
</g>
<!-- Node2 -->
<g id="node2" class="node">
<title>Node2</title>
<g id="a_node2"><a xlink:href="classRa_1_1Engine_1_1System.html" target="_top" xlink:title=" ">
<polygon fill="white" stroke="black" points="116.5,-216.5 116.5,-361.5 275.5,-361.5 275.5,-216.5 116.5,-216.5"/>
<text text-anchor="middle" x="196" y="-349.5" font-family="Helvetica,sans-Serif" font-size="10.00">Ra::Engine::System</text>
<polyline fill="none" stroke="black" points="116.5,-342.5 275.5,-342.5 "/>
<text text-anchor="middle" x="196" y="-330.5" font-family="Helvetica,sans-Serif" font-size="10.00"> </text>
<polyline fill="none" stroke="black" points="116.5,-323.5 275.5,-323.5 "/>
<text text-anchor="start" x="124.5" y="-311.5" font-family="Helvetica,sans-Serif" font-size="10.00">+ System()</text>
<text text-anchor="start" x="124.5" y="-300.5" font-family="Helvetica,sans-Serif" font-size="10.00">+ ~System()</text>
<text text-anchor="start" x="124.5" y="-289.5" font-family="Helvetica,sans-Serif" font-size="10.00">+ handleAssetLoading()</text>
<text text-anchor="start" x="124.5" y="-278.5" font-family="Helvetica,sans-Serif" font-size="10.00">+ generateTasks()</text>
<text text-anchor="start" x="124.5" y="-267.5" font-family="Helvetica,sans-Serif" font-size="10.00">+ getEntityComponents()</text>
<text text-anchor="start" x="124.5" y="-256.5" font-family="Helvetica,sans-Serif" font-size="10.00">+ addComponent()</text>
<text text-anchor="start" x="124.5" y="-245.5" font-family="Helvetica,sans-Serif" font-size="10.00"># registerComponent()</text>
<text text-anchor="start" x="124.5" y="-234.5" font-family="Helvetica,sans-Serif" font-size="10.00"># unregisterComponent()</text>
<text text-anchor="start" x="124.5" y="-223.5" font-family="Helvetica,sans-Serif" font-size="10.00"># unregisterAllComponents()</text>
</a>
</g>
</g>
<!-- Node2&#45;&gt;Node1 -->
<g id="edge1" class="edge">
<title>Node2&#45;&gt;Node1</title>
<path fill="none" stroke="midnightblue" d="M221.07,-206.84C223.94,-197.55 226.87,-188.05 229.76,-178.68"/>
<polygon fill="none" stroke="midnightblue" points="217.72,-205.83 218.11,-216.42 224.4,-207.9 217.72,-205.83"/>
</g>
<!-- Node3 -->
<g id="node3" class="node">
<title>Node3</title>
<g id="a_node3"><a xlink:title=" ">
<polygon fill="white" stroke="#bfbfbf" points="57,-409.5 57,-488.5 233,-488.5 233,-409.5 57,-409.5"/>
<text text-anchor="start" x="65" y="-476.5" font-family="Helvetica,sans-Serif" font-size="10.00">std::vector&lt; std::pair</text>
<text text-anchor="start" x="65" y="-465.5" font-family="Helvetica,sans-Serif" font-size="10.00">&lt; const Ra::Engine::Entity</text>
<text text-anchor="middle" x="145" y="-454.5" font-family="Helvetica,sans-Serif" font-size="10.00"> *, Ra::Engine::Component * &gt; &gt;</text>
<polyline fill="none" stroke="#bfbfbf" points="57,-447.5 233,-447.5 "/>
<text text-anchor="middle" x="145" y="-435.5" font-family="Helvetica,sans-Serif" font-size="10.00"> </text>
<polyline fill="none" stroke="#bfbfbf" points="57,-428.5 233,-428.5 "/>
<text text-anchor="middle" x="145" y="-416.5" font-family="Helvetica,sans-Serif" font-size="10.00"> </text>
</a>
</g>
</g>
<!-- Node3&#45;&gt;Node2 -->
<g id="edge2" class="edge">
<title>Node3&#45;&gt;Node2</title>
<path fill="none" stroke="#404040" d="M157.48,-409.35C161.04,-398.3 165.08,-385.81 169.15,-373.17"/>
<polygon fill="none" stroke="#404040" points="169.21,-372.99 167.25,-366.05 172.9,-361.57 174.86,-368.5 169.21,-372.99"/>
<text text-anchor="middle" x="209.5" y="-383" font-family="Helvetica,sans-Serif" font-size="10.00"> #m_components</text>
</g>
<!-- Node4 -->
<g id="node4" class="node">
<title>Node4</title>
<g id="a_node4"><a xlink:title=" ">
<polygon fill="white" stroke="#bfbfbf" points="0,-580.5 0,-659.5 128,-659.5 128,-580.5 0,-580.5"/>
<text text-anchor="start" x="8" y="-647.5" font-family="Helvetica,sans-Serif" font-size="10.00">pair&lt; const Ra::Engine</text>
<text text-anchor="start" x="8" y="-636.5" font-family="Helvetica,sans-Serif" font-size="10.00">::Entity *, Ra::Engine</text>
<text text-anchor="middle" x="64" y="-625.5" font-family="Helvetica,sans-Serif" font-size="10.00">::Component * &gt;</text>
<polyline fill="none" stroke="#bfbfbf" points="0,-618.5 128,-618.5 "/>
<text text-anchor="middle" x="64" y="-606.5" font-family="Helvetica,sans-Serif" font-size="10.00"> </text>
<polyline fill="none" stroke="#bfbfbf" points="0,-599.5 128,-599.5 "/>
<text text-anchor="middle" x="64" y="-587.5" font-family="Helvetica,sans-Serif" font-size="10.00"> </text>
</a>
</g>
</g>
<!-- Node4&#45;&gt;Node3 -->
<g id="edge3" class="edge">
<title>Node4&#45;&gt;Node3</title>
<path fill="none" stroke="#404040" d="M68.73,-580.44C72.66,-557.99 79.67,-529.73 92,-507 93.55,-504.15 95.27,-501.33 97.12,-498.56"/>
<polygon fill="none" stroke="#404040" points="97.19,-498.47 97.54,-491.26 104.32,-488.81 103.97,-496.01 97.19,-498.47"/>
<text text-anchor="middle" x="121" y="-521" font-family="Helvetica,sans-Serif" font-size="10.00"> +elements</text>
</g>
<!-- Node5 -->
<g id="node5" class="node">
<title>Node5</title>
<g id="a_node5"><a xlink:title="STL class.">
<polygon fill="white" stroke="#bfbfbf" points="148.5,-591.5 148.5,-648.5 245.5,-648.5 245.5,-591.5 148.5,-591.5"/>
<text text-anchor="middle" x="197" y="-636.5" font-family="Helvetica,sans-Serif" font-size="10.00">std::vector&lt; T &gt;</text>
<polyline fill="none" stroke="#bfbfbf" points="148.5,-629.5 245.5,-629.5 "/>
<text text-anchor="middle" x="197" y="-617.5" font-family="Helvetica,sans-Serif" font-size="10.00"> </text>
<polyline fill="none" stroke="#bfbfbf" points="148.5,-610.5 245.5,-610.5 "/>
<text text-anchor="middle" x="197" y="-598.5" font-family="Helvetica,sans-Serif" font-size="10.00"> </text>
</a>
</g>
</g>
<!-- Node5&#45;&gt;Node3 -->
<g id="edge4" class="edge">
<title>Node5&#45;&gt;Node3</title>
<path fill="none" stroke="orange" d="M178.63,-582.3C172.65,-569.2 166.41,-554.18 162,-540 156.85,-523.45 153,-504.68 150.28,-488.58"/>
<polygon fill="orange" stroke="orange" points="175.51,-583.88 182.92,-591.45 181.85,-580.91 175.51,-583.88"/>
<text text-anchor="start" x="162" y="-532" font-family="Helvetica,sans-Serif" font-size="10.00"> &lt; std::pair&lt; const</text>
<text text-anchor="start" x="162" y="-521" font-family="Helvetica,sans-Serif" font-size="10.00"> Ra::Engine::Entity</text>
<text text-anchor="middle" x="242" y="-510" font-family="Helvetica,sans-Serif" font-size="10.00"> *, Ra::Engine::Component * &gt; &gt;</text>
</g>
<!-- Node6 -->
<g id="node6" class="node">
<title>Node6</title>
<g id="a_node6"><a xlink:title=" ">
<polygon fill="white" stroke="#bfbfbf" points="245.5,-729.5 245.5,-786.5 274.5,-786.5 274.5,-729.5 245.5,-729.5"/>
<text text-anchor="middle" x="260" y="-774.5" font-family="Helvetica,sans-Serif" font-size="10.00">T</text>
<polyline fill="none" stroke="#bfbfbf" points="245.5,-767.5 274.5,-767.5 "/>
<text text-anchor="middle" x="260" y="-755.5" font-family="Helvetica,sans-Serif" font-size="10.00"> </text>
<polyline fill="none" stroke="#bfbfbf" points="245.5,-748.5 274.5,-748.5 "/>
<text text-anchor="middle" x="260" y="-736.5" font-family="Helvetica,sans-Serif" font-size="10.00"> </text>
</a>
</g>
</g>
<!-- Node6&#45;&gt;Node5 -->
<g id="edge5" class="edge">
<title>Node6&#45;&gt;Node5</title>
<path fill="none" stroke="#404040" d="M245.29,-733.5C241.09,-726.39 236.67,-718.48 233,-711 225.03,-694.74 217.41,-676.26 211.24,-660.28"/>
<polygon fill="none" stroke="#404040" points="211.08,-659.86 205.21,-655.67 206.82,-648.64 212.69,-652.83 211.08,-659.86"/>
<text text-anchor="middle" x="262" y="-703" font-family="Helvetica,sans-Serif" font-size="10.00"> +elements</text>
</g>
<!-- Node9 -->
<g id="node9" class="node">
<title>Node9</title>
<g id="a_node9"><a xlink:title="STL class.">
<polygon fill="white" stroke="#bfbfbf" points="266,-591.5 266,-648.5 384,-648.5 384,-591.5 266,-591.5"/>
<text text-anchor="middle" x="325" y="-636.5" font-family="Helvetica,sans-Serif" font-size="10.00">std::unique_ptr&lt; T &gt;</text>
<polyline fill="none" stroke="#bfbfbf" points="266,-629.5 384,-629.5 "/>
<text text-anchor="middle" x="325" y="-617.5" font-family="Helvetica,sans-Serif" font-size="10.00"> </text>
<polyline fill="none" stroke="#bfbfbf" points="266,-610.5 384,-610.5 "/>
<text text-anchor="start" x="274" y="-598.5" font-family="Helvetica,sans-Serif" font-size="10.00">+ operator&#45;&gt;()</text>
</a>
</g>
</g>
<!-- Node6&#45;&gt;Node9 -->
<g id="edge9" class="edge">
<title>Node6&#45;&gt;Node9</title>
<path fill="none" stroke="#404040" d="M274.63,-737.47C280.19,-729.51 286.31,-720.07 291,-711 299.25,-695.04 306.57,-676.6 312.29,-660.58"/>
<polygon fill="none" stroke="#404040" points="312.41,-660.23 310.59,-653.25 316.33,-648.89 318.15,-655.87 312.41,-660.23"/>
<text text-anchor="middle" x="307.5" y="-703" font-family="Helvetica,sans-Serif" font-size="10.00"> +ptr</text>
</g>
<!-- Node7 -->
<g id="node7" class="node">
<title>Node7</title>
<g id="a_node7"><a xlink:title=" ">
<polygon fill="white" stroke="#bfbfbf" points="253.5,-415 253.5,-483 402.5,-483 402.5,-415 253.5,-415"/>
<text text-anchor="start" x="261.5" y="-471" font-family="Helvetica,sans-Serif" font-size="10.00">std::unique_ptr&lt; Ra</text>
<text text-anchor="middle" x="328" y="-460" font-family="Helvetica,sans-Serif" font-size="10.00">::Engine::CameraStorage &gt;</text>
<polyline fill="none" stroke="#bfbfbf" points="253.5,-453 402.5,-453 "/>
<text text-anchor="middle" x="328" y="-441" font-family="Helvetica,sans-Serif" font-size="10.00"> </text>
<polyline fill="none" stroke="#bfbfbf" points="253.5,-434 402.5,-434 "/>
<text text-anchor="start" x="261.5" y="-422" font-family="Helvetica,sans-Serif" font-size="10.00">+ operator&#45;&gt;()</text>
</a>
</g>
</g>
<!-- Node7&#45;&gt;Node1 -->
<g id="edge6" class="edge">
<title>Node7&#45;&gt;Node1</title>
<path fill="none" stroke="#404040" d="M321.99,-414.91C313.74,-369.86 298.31,-286.72 284,-216 282.31,-207.67 280.53,-199.03 278.72,-190.36"/>
<polygon fill="none" stroke="#404040" points="278.7,-190.29 273.55,-185.25 276.23,-178.55 281.38,-183.6 278.7,-190.29"/>
<text text-anchor="middle" x="336.5" y="-286.5" font-family="Helvetica,sans-Serif" font-size="10.00"> #m_data</text>
</g>
<!-- Node8 -->
<g id="node8" class="node">
<title>Node8</title>
<g id="a_node8"><a xlink:href="classRa_1_1Engine_1_1CameraStorage.html" target="_top" xlink:title=" ">
<polygon fill="white" stroke="black" points="436,-558.5 436,-681.5 586,-681.5 586,-558.5 436,-558.5"/>
<text text-anchor="middle" x="511" y="-669.5" font-family="Helvetica,sans-Serif" font-size="10.00">Ra::Engine::CameraStorage</text>
<polyline fill="none" stroke="black" points="436,-662.5 586,-662.5 "/>
<text text-anchor="middle" x="511" y="-650.5" font-family="Helvetica,sans-Serif" font-size="10.00"> </text>
<polyline fill="none" stroke="black" points="436,-643.5 586,-643.5 "/>
<text text-anchor="start" x="444" y="-631.5" font-family="Helvetica,sans-Serif" font-size="10.00">+ CameraStorage()</text>
<text text-anchor="start" x="444" y="-620.5" font-family="Helvetica,sans-Serif" font-size="10.00">+ ~CameraStorage()</text>
<text text-anchor="start" x="444" y="-609.5" font-family="Helvetica,sans-Serif" font-size="10.00">+ size()</text>
<text text-anchor="start" x="444" y="-598.5" font-family="Helvetica,sans-Serif" font-size="10.00">+ add()</text>
<text text-anchor="start" x="444" y="-587.5" font-family="Helvetica,sans-Serif" font-size="10.00">+ remove()</text>
<text text-anchor="start" x="444" y="-576.5" font-family="Helvetica,sans-Serif" font-size="10.00">+ clear()</text>
<text text-anchor="start" x="444" y="-565.5" font-family="Helvetica,sans-Serif" font-size="10.00">+ operator[]()</text>
</a>
</g>
</g>
<!-- Node8&#45;&gt;Node7 -->
<g id="edge7" class="edge">
<title>Node8&#45;&gt;Node7</title>
<path fill="none" stroke="#404040" d="M510.39,-558.44C507.44,-540.14 501.24,-521.17 489,-507 469.92,-484.91 441.71,-471.38 414.21,-463.09"/>
<polygon fill="none" stroke="#404040" points="414.07,-463.05 407.22,-465.31 402.5,-459.85 409.35,-457.6 414.07,-463.05"/>
<text text-anchor="middle" x="517.5" y="-521" font-family="Helvetica,sans-Serif" font-size="10.00"> +ptr</text>
</g>
<!-- Node9&#45;&gt;Node7 -->
<g id="edge8" class="edge">
<title>Node9&#45;&gt;Node7</title>
<path fill="none" stroke="orange" d="M325.67,-581.16C326.19,-551.69 326.91,-511.2 327.41,-483.03"/>
<polygon fill="orange" stroke="orange" points="322.17,-581.41 325.49,-591.47 329.17,-581.53 322.17,-581.41"/>
<text text-anchor="middle" x="406" y="-521" font-family="Helvetica,sans-Serif" font-size="10.00"> &lt; Ra::Engine::CameraStorage &gt;</text>
</g>
</g>
</svg>
