<?xml version="1.0" encoding="UTF-8" standalone="no"?>
<!DOCTYPE svg PUBLIC "-//W3C//DTD SVG 1.1//EN"
 "http://www.w3.org/Graphics/SVG/1.1/DTD/svg11.dtd">
<!-- Generated by graphviz version 2.40.1 (20161225.0304)
 -->
<!-- Title: Ra::IO::AssimpGeometryDataLoader::loadData Pages: 1 -->
<!--zoomable 762 -->
<svg id="main" version="1.1" xmlns="http://www.w3.org/2000/svg" xmlns:xlink="http://www.w3.org/1999/xlink" xml:space="preserve" onload="init(evt)">
<style type="text/css"><![CDATA[
.edge:hover path { stroke: red; }
.edge:hover polygon { stroke: red; fill: red; }
]]></style>
<script type="text/javascript"><![CDATA[
var edges = document.getElementsByTagName('g');
if (edges && edges.length) {
  for (var i=0;i<edges.length;i++) {
    if (edges[i].id.substr(0,4)=='edge') {
      edges[i].setAttribute('class','edge');
    }
  }
}
]]></script>
        <defs>
                <circle id="rim" cx="0" cy="0" r="7"/>
                <circle id="rim2" cx="0" cy="0" r="3.5"/>
                <g id="zoomPlus">
                        <use xlink:href="#rim" fill="#404040">
                                <set attributeName="fill" to="#808080" begin="zoomplus.mouseover" end="zoomplus.mouseout"/>
                        </use>
                        <path d="M-4,0h8M0,-4v8" fill="none" stroke="white" stroke-width="1.5" pointer-events="none"/>
                </g>
                <g id="zoomMin">
                        <use xlink:href="#rim" fill="#404040">
                                <set attributeName="fill" to="#808080" begin="zoomminus.mouseover" end="zoomminus.mouseout"/>
                        </use>
                        <path d="M-4,0h8" fill="none" stroke="white" stroke-width="1.5" pointer-events="none"/>
                </g>
                <g id="dirArrow">
                        <path fill="none" stroke="white" stroke-width="1.5" d="M0,-3.0v7 M-2.5,-0.5L0,-3.0L2.5,-0.5"/>
                </g>
               <g id="resetDef">
                       <use xlink:href="#rim2" fill="#404040">
                               <set attributeName="fill" to="#808080" begin="reset.mouseover" end="reset.mouseout"/>
                       </use>
               </g>
        </defs>

<script type="text/javascript">
var viewWidth = 953;
var viewHeight = 762;
var sectionId = 'dynsection-12';
</script>
<script xlink:href="svgpan.js"/>
<svg id="graph" class="graph">
<g id="viewport">
<title>Ra::IO::AssimpGeometryDataLoader::loadData</title>
<polygon fill="#ffffff" stroke="transparent" points="-4,4 -4,-757.8955 949,-757.8955 949,4 -4,4"/>
<!-- Node31 -->
<g id="node1" class="node">
<title>Node31</title>
<polygon fill="#bfbfbf" stroke="#000000" points="0,-259.3955 0,-289.3955 160,-289.3955 160,-259.3955 0,-259.3955"/>
<text text-anchor="start" x="8" y="-277.3955" font-family="Helvetica,sans-Serif" font-size="10.00" fill="#000000">Ra::IO::AssimpGeometryData</text>
<text text-anchor="middle" x="80" y="-266.3955" font-family="Helvetica,sans-Serif" font-size="10.00" fill="#000000">Loader::loadData</text>
</g>
<!-- Node32 -->
<g id="node2" class="node">
<title>Node32</title>
<g id="a_node2"><a xlink:href="classRa_1_1IO_1_1AssimpGeometryDataLoader.html#ac4a70c22b1d918ba74252a9d0becbafd" target="_top" xlink:title="Return true if the given scene has geometry data. ">
<polygon fill="#ffffff" stroke="#000000" points="196,-356.3955 196,-386.3955 356,-386.3955 356,-356.3955 196,-356.3955"/>
<text text-anchor="start" x="204" y="-374.3955" font-family="Helvetica,sans-Serif" font-size="10.00" fill="#000000">Ra::IO::AssimpGeometryData</text>
<text text-anchor="middle" x="276" y="-363.3955" font-family="Helvetica,sans-Serif" font-size="10.00" fill="#000000">Loader::sceneHasGeometry</text>
</a>
</g>
</g>
<!-- Node31&#45;&gt;Node32 -->
<g id="edge1" class="edge">
<title>Node31&#45;&gt;Node32</title>
<path fill="none" stroke="#191970" d="M110.625,-289.5518C144.5701,-306.3511 199.418,-333.4952 236.5538,-351.8737"/>
<polygon fill="#191970" stroke="#191970" points="235.0751,-355.047 245.5901,-356.3457 238.18,-348.7733 235.0751,-355.047"/>
</g>
<!-- Node34 -->
<g id="node4" class="node">
<title>Node34</title>
<g id="a_node4"><a xlink:href="classRa_1_1IO_1_1AssimpGeometryDataLoader.html#ac6c762bcaad871e6771ee2ad4d6c777b" target="_top" xlink:title="Fill data with all the GeometryData from scene. ">
<polygon fill="#ffffff" stroke="#000000" points="196,-235.3955 196,-265.3955 356,-265.3955 356,-235.3955 196,-235.3955"/>
<text text-anchor="start" x="204" y="-253.3955" font-family="Helvetica,sans-Serif" font-size="10.00" fill="#000000">Ra::IO::AssimpGeometryData</text>
<text text-anchor="middle" x="276" y="-242.3955" font-family="Helvetica,sans-Serif" font-size="10.00" fill="#000000">Loader::loadGeometryData</text>
</a>
</g>
</g>
<!-- Node31&#45;&gt;Node34 -->
<g id="edge3" class="edge">
<title>Node31&#45;&gt;Node34</title>
<path fill="none" stroke="#191970" d="M160.0034,-264.5992C168.5245,-263.5558 177.2335,-262.4894 185.8608,-261.433"/>
<polygon fill="#191970" stroke="#191970" points="186.4343,-264.889 195.9347,-260.1994 185.5835,-257.9409 186.4343,-264.889"/>
</g>
<!-- Node33 -->
<g id="node3" class="node">
<title>Node33</title>
<g id="a_node3"><a xlink:href="classRa_1_1IO_1_1AssimpGeometryDataLoader.html#a5d494bbdf71dd227648375b2c59d74a8" target="_top" xlink:title="Return the number of AssImp geometry data in the given scene. ">
<polygon fill="#ffffff" stroke="#000000" points="392,-429.3955 392,-459.3955 552,-459.3955 552,-429.3955 392,-429.3955"/>
<text text-anchor="start" x="400" y="-447.3955" font-family="Helvetica,sans-Serif" font-size="10.00" fill="#000000">Ra::IO::AssimpGeometryData</text>
<text text-anchor="middle" x="472" y="-436.3955" font-family="Helvetica,sans-Serif" font-size="10.00" fill="#000000">Loader::sceneGeometrySize</text>
</a>
</g>
</g>
<!-- Node32&#45;&gt;Node33 -->
<g id="edge2" class="edge">
<title>Node32&#45;&gt;Node33</title>
<path fill="none" stroke="#191970" d="M309.1241,-386.5166C332.1235,-396.7358 363.6141,-410.1762 392,-420.3955 397.5063,-422.3779 403.2648,-424.3317 409.0592,-426.2167"/>
<polygon fill="#191970" stroke="#191970" points="408.2157,-429.6212 418.8062,-429.3169 410.3375,-422.9505 408.2157,-429.6212"/>
</g>
<!-- Node35 -->
<g id="node5" class="node">
<title>Node35</title>
<g id="a_node5"><a xlink:href="classRa_1_1IO_1_1AssimpGeometryDataLoader.html#af5c15d97fec98d1bbc62de339fab4928" target="_top" xlink:title="Fill data with the GeometryData from mesh. ">
<polygon fill="#ffffff" stroke="#000000" points="392,-380.3955 392,-410.3955 552,-410.3955 552,-380.3955 392,-380.3955"/>
<text text-anchor="start" x="400" y="-398.3955" font-family="Helvetica,sans-Serif" font-size="10.00" fill="#000000">Ra::IO::AssimpGeometryData</text>
<text text-anchor="middle" x="472" y="-387.3955" font-family="Helvetica,sans-Serif" font-size="10.00" fill="#000000">Loader::loadMeshData</text>
</a>
</g>
</g>
<!-- Node34&#45;&gt;Node35 -->
<g id="edge4" class="edge">
<title>Node34&#45;&gt;Node35</title>
<path fill="none" stroke="#191970" d="M296.605,-265.639C331.7667,-291.6515 403.4234,-344.6628 443.408,-374.2433"/>
<polygon fill="#191970" stroke="#191970" points="441.5503,-377.2226 451.6711,-380.3563 445.7135,-371.5952 441.5503,-377.2226"/>
</g>
<!-- Node59 -->
<g id="node29" class="node">
<title>Node59</title>
<g id="a_node29"><a xlink:href="classRa_1_1IO_1_1AssimpGeometryDataLoader.html#a60bc6c1f8c09845639f9783a1c59a0fc" target="_top" xlink:title="Fill data with the Material data from material. ">
<polygon fill="#ffffff" stroke="#000000" points="392,-91.3955 392,-121.3955 552,-121.3955 552,-91.3955 392,-91.3955"/>
<text text-anchor="start" x="400" y="-109.3955" font-family="Helvetica,sans-Serif" font-size="10.00" fill="#000000">Ra::IO::AssimpGeometryData</text>
<text text-anchor="middle" x="472" y="-98.3955" font-family="Helvetica,sans-Serif" font-size="10.00" fill="#000000">Loader::loadMaterial</text>
</a>
</g>
</g>
<!-- Node34&#45;&gt;Node59 -->
<g id="edge35" class="edge">
<title>Node34&#45;&gt;Node59</title>
<path fill="none" stroke="#191970" d="M296.605,-235.2572C331.6751,-209.4914 403.0504,-157.0524 443.0949,-127.6319"/>
<polygon fill="#191970" stroke="#191970" points="445.3904,-130.2885 451.377,-121.5471 441.2459,-124.6473 445.3904,-130.2885"/>
</g>
<!-- Node61 -->
<g id="node31" class="node">
<title>Node61</title>
<g id="a_node31"><a xlink:href="classRa_1_1IO_1_1AssimpGeometryDataLoader.html#a97efd0cc7bfcc4d7af4dcde8960e8e2d" target="_top" xlink:title="Fill data with the transformation data from node and parentFrame. ">
<polygon fill="#ffffff" stroke="#000000" points="392,-23.3955 392,-53.3955 552,-53.3955 552,-23.3955 392,-23.3955"/>
<text text-anchor="start" x="400" y="-41.3955" font-family="Helvetica,sans-Serif" font-size="10.00" fill="#000000">Ra::IO::AssimpGeometryData</text>
<text text-anchor="middle" x="472" y="-30.3955" font-family="Helvetica,sans-Serif" font-size="10.00" fill="#000000">Loader::loadMeshFrame</text>
</a>
</g>
</g>
<!-- Node34&#45;&gt;Node61 -->
<g id="edge38" class="edge">
<title>Node34&#45;&gt;Node61</title>
<path fill="none" stroke="#191970" d="M283.3289,-235.0634C299.2538,-203.0529 339.8162,-128.2114 392,-81.3955 402.1012,-72.3334 414.4521,-64.5046 426.3986,-58.104"/>
<polygon fill="#191970" stroke="#191970" points="428.1042,-61.1628 435.4113,-53.491 424.9149,-54.9316 428.1042,-61.1628"/>
</g>
<!-- Node36 -->
<g id="node6" class="node">
<title>Node36</title>
<g id="a_node6"><a xlink:href="classRa_1_1IO_1_1AssimpGeometryDataLoader.html#a338d8b0b7ce312143ac262cb2cc97e69" target="_top" xlink:title="Ra::IO::AssimpGeometryData\lLoader::fetchName">
<polygon fill="#ffffff" stroke="#000000" points="595.5,-723.3955 595.5,-753.3955 755.5,-753.3955 755.5,-723.3955 595.5,-723.3955"/>
<text text-anchor="start" x="603.5" y="-741.3955" font-family="Helvetica,sans-Serif" font-size="10.00" fill="#000000">Ra::IO::AssimpGeometryData</text>
<text text-anchor="middle" x="675.5" y="-730.3955" font-family="Helvetica,sans-Serif" font-size="10.00" fill="#000000">Loader::fetchName</text>
</a>
</g>
</g>
<!-- Node35&#45;&gt;Node36 -->
<g id="edge5" class="edge">
<title>Node35&#45;&gt;Node36</title>
<path fill="none" stroke="#191970" d="M540.9948,-410.6161C545.0947,-413.3634 548.8322,-416.5953 552,-420.3955 636.2896,-521.5145 501.9447,-614.7749 588,-714.3955 588.6307,-715.1257 589.2813,-715.8346 589.9505,-716.5229"/>
<polygon fill="#191970" stroke="#191970" points="587.8762,-719.3525 597.7723,-723.1366 592.396,-714.0072 587.8762,-719.3525"/>
</g>
<!-- Node39 -->
<g id="node9" class="node">
<title>Node39</title>
<g id="a_node9"><a xlink:href="classRa_1_1IO_1_1AssimpGeometryDataLoader.html#a02ec7c18b9af17d19b0dcfd3a39c2ac8" target="_top" xlink:title="Fill data with the GeometryType from mesh. ">
<polygon fill="#ffffff" stroke="#000000" points="595.5,-674.3955 595.5,-704.3955 755.5,-704.3955 755.5,-674.3955 595.5,-674.3955"/>
<text text-anchor="start" x="603.5" y="-692.3955" font-family="Helvetica,sans-Serif" font-size="10.00" fill="#000000">Ra::IO::AssimpGeometryData</text>
<text text-anchor="middle" x="675.5" y="-681.3955" font-family="Helvetica,sans-Serif" font-size="10.00" fill="#000000">Loader::fetchType</text>
</a>
</g>
</g>
<!-- Node35&#45;&gt;Node39 -->
<g id="edge8" class="edge">
<title>Node35&#45;&gt;Node39</title>
<path fill="none" stroke="#191970" d="M540.5274,-410.4633C544.7936,-413.242 548.6922,-416.523 552,-420.3955 623.4808,-504.0812 515.0582,-582.9802 588,-665.3955 588.7569,-666.2507 589.5411,-667.0767 590.3504,-667.8745"/>
<polygon fill="#191970" stroke="#191970" points="588.2931,-670.713 598.2556,-674.3186 592.716,-665.2873 588.2931,-670.713"/>
</g>
<!-- Node41 -->
<g id="node11" class="node">
<title>Node41</title>
<g id="a_node11"><a xlink:href="classRa_1_1IO_1_1AssimpGeometryDataLoader.html#a015c0e61580e9cf1b72ae9751844df68" target="_top" xlink:title="Fill data with the vertices from mesh. ">
<polygon fill="#ffffff" stroke="#000000" points="595.5,-625.3955 595.5,-655.3955 755.5,-655.3955 755.5,-625.3955 595.5,-625.3955"/>
<text text-anchor="start" x="603.5" y="-643.3955" font-family="Helvetica,sans-Serif" font-size="10.00" fill="#000000">Ra::IO::AssimpGeometryData</text>
<text text-anchor="middle" x="675.5" y="-632.3955" font-family="Helvetica,sans-Serif" font-size="10.00" fill="#000000">Loader::fetchVertices</text>
</a>
</g>
</g>
<!-- Node35&#45;&gt;Node41 -->
<g id="edge10" class="edge">
<title>Node35&#45;&gt;Node41</title>
<path fill="none" stroke="#191970" d="M540.3738,-410.5969C544.6749,-413.3452 548.6235,-416.5827 552,-420.3955 610.7182,-486.7018 528.1245,-551.1324 588,-616.3955 588.7721,-617.2371 589.5705,-618.0502 590.3934,-618.8358"/>
<polygon fill="#191970" stroke="#191970" points="588.3901,-621.7142 598.3987,-625.1896 592.7419,-616.2313 588.3901,-621.7142"/>
</g>
<!-- Node43 -->
<g id="node13" class="node">
<title>Node43</title>
<g id="a_node13"><a xlink:href="classRa_1_1Core_1_1Asset_1_1GeometryData.html#a0de3cde9db9923f6ba5e0a43342988e3" target="_top" xlink:title="Return true if the object is a Line Mesh. ">
<polygon fill="#ffffff" stroke="#000000" points="602.5,-576.3955 602.5,-606.3955 748.5,-606.3955 748.5,-576.3955 602.5,-576.3955"/>
<text text-anchor="start" x="610.5" y="-594.3955" font-family="Helvetica,sans-Serif" font-size="10.00" fill="#000000">Ra::Core::Asset::Geometry</text>
<text text-anchor="middle" x="675.5" y="-583.3955" font-family="Helvetica,sans-Serif" font-size="10.00" fill="#000000">Data::isLineMesh</text>
</a>
</g>
</g>
<!-- Node35&#45;&gt;Node43 -->
<g id="edge13" class="edge">
<title>Node35&#45;&gt;Node43</title>
<path fill="none" stroke="#191970" d="M539.7534,-410.5913C544.2542,-413.3382 548.4138,-416.5771 552,-420.3955 598.0483,-469.4262 541.0964,-519.1825 588,-567.3955 589.8261,-569.2726 591.784,-571.0071 593.849,-572.6096"/>
<polygon fill="#191970" stroke="#191970" points="592.0128,-575.591 602.2917,-578.1587 595.8575,-569.7414 592.0128,-575.591"/>
</g>
<!-- Node44 -->
<g id="node14" class="node">
<title>Node44</title>
<g id="a_node14"><a xlink:href="classRa_1_1IO_1_1AssimpGeometryDataLoader.html#a0e91cabef1beb70fac2c31804d1133a1" target="_top" xlink:title="Fill data with the lines from mesh. ">
<polygon fill="#ffffff" stroke="#000000" points="595.5,-527.3955 595.5,-557.3955 755.5,-557.3955 755.5,-527.3955 595.5,-527.3955"/>
<text text-anchor="start" x="603.5" y="-545.3955" font-family="Helvetica,sans-Serif" font-size="10.00" fill="#000000">Ra::IO::AssimpGeometryData</text>
<text text-anchor="middle" x="675.5" y="-534.3955" font-family="Helvetica,sans-Serif" font-size="10.00" fill="#000000">Loader::fetchEdges</text>
</a>
</g>
</g>
<!-- Node35&#45;&gt;Node44 -->
<g id="edge14" class="edge">
<title>Node35&#45;&gt;Node44</title>
<path fill="none" stroke="#191970" d="M538.1358,-410.397C543.1752,-413.1816 547.8898,-416.4825 552,-420.3955 585.6072,-452.3899 553.8352,-486.9972 588,-518.3955 589.1598,-519.4614 590.3625,-520.4807 591.603,-521.4553"/>
<polygon fill="#191970" stroke="#191970" points="590.0262,-524.6113 600.2843,-527.2611 593.9176,-518.7926 590.0262,-524.6113"/>
</g>
<!-- Node46 -->
<g id="node16" class="node">
<title>Node46</title>
<g id="a_node16"><a xlink:href="classRa_1_1IO_1_1AssimpGeometryDataLoader.html#adc78d9c380370c35302444b879b2c9a3" target="_top" xlink:title="Fill data with the faces from mesh. ">
<polygon fill="#ffffff" stroke="#000000" points="595.5,-478.3955 595.5,-508.3955 755.5,-508.3955 755.5,-478.3955 595.5,-478.3955"/>
<text text-anchor="start" x="603.5" y="-496.3955" font-family="Helvetica,sans-Serif" font-size="10.00" fill="#000000">Ra::IO::AssimpGeometryData</text>
<text text-anchor="middle" x="675.5" y="-485.3955" font-family="Helvetica,sans-Serif" font-size="10.00" fill="#000000">Loader::fetchFaces</text>
</a>
</g>
</g>
<!-- Node35&#45;&gt;Node46 -->
<g id="edge17" class="edge">
<title>Node35&#45;&gt;Node46</title>
<path fill="none" stroke="#191970" d="M534.1818,-410.4125C540.4794,-413.2074 546.5523,-416.5062 552,-420.3955 573.9935,-436.0977 565.7337,-454.0827 588,-469.3955 590.1578,-470.8795 592.4043,-472.2719 594.719,-473.5784"/>
<polygon fill="#191970" stroke="#191970" points="593.4331,-476.849 603.941,-478.2038 596.5715,-470.5919 593.4331,-476.849"/>
</g>
<!-- Node48 -->
<g id="node18" class="node">
<title>Node48</title>
<g id="a_node18"><a xlink:href="classRa_1_1Core_1_1Asset_1_1GeometryData.html#a290da1b3cff93d70fd02d7d30f24075a" target="_top" xlink:title="Return true if the object is a Tetrahedron Mesh. ">
<polygon fill="#ffffff" stroke="#000000" points="602.5,-429.3955 602.5,-459.3955 748.5,-459.3955 748.5,-429.3955 602.5,-429.3955"/>
<text text-anchor="start" x="610.5" y="-447.3955" font-family="Helvetica,sans-Serif" font-size="10.00" fill="#000000">Ra::Core::Asset::Geometry</text>
<text text-anchor="middle" x="675.5" y="-436.3955" font-family="Helvetica,sans-Serif" font-size="10.00" fill="#000000">Data::isTetraMesh</text>
</a>
</g>
</g>
<!-- Node35&#45;&gt;Node48 -->
<g id="edge20" class="edge">
<title>Node35&#45;&gt;Node48</title>
<path fill="none" stroke="#191970" d="M534.4397,-410.4302C556.2194,-415.6744 580.8388,-421.6024 603.3428,-427.0211"/>
<polygon fill="#191970" stroke="#191970" points="602.6369,-430.4511 613.1784,-429.3893 604.2756,-423.6456 602.6369,-430.4511"/>
</g>
<!-- Node49 -->
<g id="node19" class="node">
<title>Node49</title>
<g id="a_node19"><a xlink:href="classRa_1_1Core_1_1Asset_1_1GeometryData.html#a44050d78daed746fbe4b39d31bbc3f5b" target="_top" xlink:title="Return true if the object is a Hexahedron Mesh. ">
<polygon fill="#ffffff" stroke="#000000" points="602.5,-380.3955 602.5,-410.3955 748.5,-410.3955 748.5,-380.3955 602.5,-380.3955"/>
<text text-anchor="start" x="610.5" y="-398.3955" font-family="Helvetica,sans-Serif" font-size="10.00" fill="#000000">Ra::Core::Asset::Geometry</text>
<text text-anchor="middle" x="675.5" y="-387.3955" font-family="Helvetica,sans-Serif" font-size="10.00" fill="#000000">Data::isHexMesh</text>
</a>
</g>
</g>
<!-- Node35&#45;&gt;Node49 -->
<g id="edge21" class="edge">
<title>Node35&#45;&gt;Node49</title>
<path fill="none" stroke="#191970" d="M552.1365,-395.3955C565.3427,-395.3955 579.0581,-395.3955 592.3364,-395.3955"/>
<polygon fill="#191970" stroke="#191970" points="592.3895,-398.8956 602.3895,-395.3955 592.3895,-391.8956 592.3895,-398.8956"/>
</g>
<!-- Node50 -->
<g id="node20" class="node">
<title>Node50</title>
<g id="a_node20"><a xlink:href="classRa_1_1IO_1_1AssimpGeometryDataLoader.html#aa0c33c7a06e92fc4da9f4d15a5b447ba" target="_top" xlink:title="Fill data with the polyhedra from mesh. ">
<polygon fill="#ffffff" stroke="#000000" points="595.5,-331.3955 595.5,-361.3955 755.5,-361.3955 755.5,-331.3955 595.5,-331.3955"/>
<text text-anchor="start" x="603.5" y="-349.3955" font-family="Helvetica,sans-Serif" font-size="10.00" fill="#000000">Ra::IO::AssimpGeometryData</text>
<text text-anchor="middle" x="675.5" y="-338.3955" font-family="Helvetica,sans-Serif" font-size="10.00" fill="#000000">Loader::fetchPolyhedron</text>
</a>
</g>
</g>
<!-- Node35&#45;&gt;Node50 -->
<g id="edge22" class="edge">
<title>Node35&#45;&gt;Node50</title>
<path fill="none" stroke="#191970" d="M534.4397,-380.3609C556.2194,-375.1167 580.8388,-369.1887 603.3428,-363.77"/>
<polygon fill="#191970" stroke="#191970" points="604.2756,-367.1455 613.1784,-361.4017 602.6369,-360.34 604.2756,-367.1455"/>
</g>
<!-- Node51 -->
<g id="node21" class="node">
<title>Node51</title>
<g id="a_node21"><a xlink:href="classRa_1_1IO_1_1AssimpGeometryDataLoader.html#adbeb774acac5f2f63059aa4d1b778562" target="_top" xlink:title="Fill data with the vertex normals from mesh. ">
<polygon fill="#ffffff" stroke="#000000" points="595.5,-282.3955 595.5,-312.3955 755.5,-312.3955 755.5,-282.3955 595.5,-282.3955"/>
<text text-anchor="start" x="603.5" y="-300.3955" font-family="Helvetica,sans-Serif" font-size="10.00" fill="#000000">Ra::IO::AssimpGeometryData</text>
<text text-anchor="middle" x="675.5" y="-289.3955" font-family="Helvetica,sans-Serif" font-size="10.00" fill="#000000">Loader::fetchNormals</text>
</a>
</g>
</g>
<!-- Node35&#45;&gt;Node51 -->
<g id="edge23" class="edge">
<title>Node35&#45;&gt;Node51</title>
<path fill="none" stroke="#191970" d="M491.9625,-380.3496C514.3246,-364.1027 552.1507,-338.4047 588,-322.3955 593.3601,-320.0019 599.0075,-317.7764 604.7459,-315.7208"/>
<polygon fill="#191970" stroke="#191970" points="606.1123,-318.9531 614.4546,-312.4218 603.8602,-312.3253 606.1123,-318.9531"/>
</g>
<!-- Node53 -->
<g id="node23" class="node">
<title>Node53</title>
<g id="a_node23"><a xlink:href="classRa_1_1IO_1_1AssimpGeometryDataLoader.html#abcead4d8442c09504783d497e200ac4a" target="_top" xlink:title="Fill data with the vertex tangent vectors from mesh. ">
<polygon fill="#ffffff" stroke="#000000" points="595.5,-233.3955 595.5,-263.3955 755.5,-263.3955 755.5,-233.3955 595.5,-233.3955"/>
<text text-anchor="start" x="603.5" y="-251.3955" font-family="Helvetica,sans-Serif" font-size="10.00" fill="#000000">Ra::IO::AssimpGeometryData</text>
<text text-anchor="middle" x="675.5" y="-240.3955" font-family="Helvetica,sans-Serif" font-size="10.00" fill="#000000">Loader::fetchTangents</text>
</a>
</g>
</g>
<!-- Node35&#45;&gt;Node53 -->
<g id="edge26" class="edge">
<title>Node35&#45;&gt;Node53</title>
<path fill="none" stroke="#191970" d="M482.1943,-379.9879C500.3139,-353.8325 540.703,-300.8234 588,-272.3955 590.8352,-270.6914 593.7941,-269.1054 596.8372,-267.6296"/>
<polygon fill="#191970" stroke="#191970" points="598.4327,-270.7516 606.1801,-263.5246 595.6169,-264.3428 598.4327,-270.7516"/>
</g>
<!-- Node55 -->
<g id="node25" class="node">
<title>Node55</title>
<g id="a_node25"><a xlink:href="classRa_1_1IO_1_1AssimpGeometryDataLoader.html#aaba5e6585d54ed47bffeff90ae9b7d95" target="_top" xlink:title="Fill data with the vertex bitangent vectors from mesh. ">
<polygon fill="#ffffff" stroke="#000000" points="595.5,-184.3955 595.5,-214.3955 755.5,-214.3955 755.5,-184.3955 595.5,-184.3955"/>
<text text-anchor="start" x="603.5" y="-202.3955" font-family="Helvetica,sans-Serif" font-size="10.00" fill="#000000">Ra::IO::AssimpGeometryData</text>
<text text-anchor="middle" x="675.5" y="-191.3955" font-family="Helvetica,sans-Serif" font-size="10.00" fill="#000000">Loader::fetchBitangents</text>
</a>
</g>
</g>
<!-- Node35&#45;&gt;Node55 -->
<g id="edge29" class="edge">
<title>Node35&#45;&gt;Node55</title>
<path fill="none" stroke="#191970" d="M477.8231,-380.3351C491.5968,-346.7535 529.4802,-265.4012 588,-223.3955 590.0715,-221.9086 592.2308,-220.5138 594.4586,-219.2054"/>
<polygon fill="#191970" stroke="#191970" points="596.0975,-222.2981 603.3502,-214.5748 592.8642,-216.0896 596.0975,-222.2981"/>
</g>
<!-- Node57 -->
<g id="node27" class="node">
<title>Node57</title>
<g id="a_node27"><a xlink:href="classRa_1_1IO_1_1AssimpGeometryDataLoader.html#aab50bdaa647338a54137c7ce33186379" target="_top" xlink:title="Fill data with the vertex texture coordinates from mesh. ">
<polygon fill="#ffffff" stroke="#000000" points="588,-135.3955 588,-165.3955 763,-165.3955 763,-135.3955 588,-135.3955"/>
<text text-anchor="start" x="596" y="-153.3955" font-family="Helvetica,sans-Serif" font-size="10.00" fill="#000000">Ra::IO::AssimpGeometryData</text>
<text text-anchor="middle" x="675.5" y="-142.3955" font-family="Helvetica,sans-Serif" font-size="10.00" fill="#000000">Loader::fetchTextureCoordinates</text>
</a>
</g>
</g>
<!-- Node35&#45;&gt;Node57 -->
<g id="edge32" class="edge">
<title>Node35&#45;&gt;Node57</title>
<path fill="none" stroke="#191970" d="M475.4418,-380.3855C485.4042,-340.4168 518.1166,-230.6272 588,-174.3955 589.6108,-173.0994 591.2863,-171.8732 593.0159,-170.713"/>
<polygon fill="#191970" stroke="#191970" points="595.1823,-173.5017 602.0628,-165.445 591.6599,-167.4525 595.1823,-173.5017"/>
</g>
<!-- Node37 -->
<g id="node7" class="node">
<title>Node37</title>
<g id="a_node7"><a xlink:href="namespaceRa_1_1IO.html#aef6c50424873964fcea0008be55d4a34" target="_top" xlink:title="Ra::IO::assimpToCore">
<polygon fill="#ffffff" stroke="#000000" points="812,-282.8955 812,-301.8955 932,-301.8955 932,-282.8955 812,-282.8955"/>
<text text-anchor="middle" x="872" y="-289.8955" font-family="Helvetica,sans-Serif" font-size="10.00" fill="#000000">Ra::IO::assimpToCore</text>
</a>
</g>
</g>
<!-- Node36&#45;&gt;Node37 -->
<g id="edge6" class="edge">
<title>Node36&#45;&gt;Node37</title>
<path fill="none" stroke="#191970" d="M753.3578,-723.2471C756.9149,-720.7107 760.1715,-717.7797 763,-714.3955 820.5196,-645.5774 741.4704,-381.2053 799,-312.3955 800.3275,-310.8077 801.768,-309.3396 803.3025,-307.9824"/>
<polygon fill="#191970" stroke="#191970" points="805.516,-310.7042 811.6713,-302.0808 801.4818,-304.9836 805.516,-310.7042"/>
</g>
<!-- Node38 -->
<g id="node8" class="node">
<title>Node38</title>
<g id="a_node8"><a xlink:href="classRa_1_1Core_1_1Asset_1_1GeometryData.html#abf1770c6283a4f062b3b1f180cadb91c" target="_top" xlink:title="Return the name of the object. ">
<polygon fill="#ffffff" stroke="#000000" points="799,-723.3955 799,-753.3955 945,-753.3955 945,-723.3955 799,-723.3955"/>
<text text-anchor="start" x="807" y="-741.3955" font-family="Helvetica,sans-Serif" font-size="10.00" fill="#000000">Ra::Core::Asset::Geometry</text>
<text text-anchor="middle" x="872" y="-730.3955" font-family="Helvetica,sans-Serif" font-size="10.00" fill="#000000">Data::setName</text>
</a>
</g>
</g>
<!-- Node36&#45;&gt;Node38 -->
<g id="edge7" class="edge">
<title>Node36&#45;&gt;Node38</title>
<path fill="none" stroke="#191970" d="M755.7075,-738.3955C766.4838,-738.3955 777.5601,-738.3955 788.3933,-738.3955"/>
<polygon fill="#191970" stroke="#191970" points="788.6877,-741.8956 798.6877,-738.3955 788.6877,-734.8956 788.6877,-741.8956"/>
</g>
<!-- Node40 -->
<g id="node10" class="node">
<title>Node40</title>
<g id="a_node10"><a xlink:href="classRa_1_1Core_1_1Asset_1_1GeometryData.html#a7b0ddcd9c27162449300a1fd69b491a6" target="_top" xlink:title="Set the type of geometry. ">
<polygon fill="#ffffff" stroke="#000000" points="799,-674.3955 799,-704.3955 945,-704.3955 945,-674.3955 799,-674.3955"/>
<text text-anchor="start" x="807" y="-692.3955" font-family="Helvetica,sans-Serif" font-size="10.00" fill="#000000">Ra::Core::Asset::Geometry</text>
<text text-anchor="middle" x="872" y="-681.3955" font-family="Helvetica,sans-Serif" font-size="10.00" fill="#000000">Data::setType</text>
</a>
</g>
</g>
<!-- Node39&#45;&gt;Node40 -->
<g id="edge9" class="edge">
<title>Node39&#45;&gt;Node40</title>
<path fill="none" stroke="#191970" d="M755.7075,-689.3955C766.4838,-689.3955 777.5601,-689.3955 788.3933,-689.3955"/>
<polygon fill="#191970" stroke="#191970" points="788.6877,-692.8956 798.6877,-689.3955 788.6877,-685.8956 788.6877,-692.8956"/>
</g>
<!-- Node41&#45;&gt;Node37 -->
<g id="edge12" class="edge">
<title>Node41&#45;&gt;Node37</title>
<path fill="none" stroke="#191970" d="M753.2435,-625.1502C756.8293,-622.6381 760.1234,-619.739 763,-616.3955 851.7352,-513.2593 710.2498,-415.5188 799,-312.3955 800.3822,-310.7895 801.8799,-309.3064 803.4731,-307.9372"/>
<polygon fill="#191970" stroke="#191970" points="805.8707,-310.5372 812.1418,-301.9977 801.9141,-304.7626 805.8707,-310.5372"/>
</g>
<!-- Node42 -->
<g id="node12" class="node">
<title>Node42</title>
<g id="a_node12"><a xlink:href="classRa_1_1Core_1_1Asset_1_1GeometryData.html#a343a1ef88bb043988108858b6c6de313" target="_top" xlink:title="Return the list of vertices. ">
<polygon fill="#ffffff" stroke="#000000" points="799,-625.3955 799,-655.3955 945,-655.3955 945,-625.3955 799,-625.3955"/>
<text text-anchor="start" x="807" y="-643.3955" font-family="Helvetica,sans-Serif" font-size="10.00" fill="#000000">Ra::Core::Asset::Geometry</text>
<text text-anchor="middle" x="872" y="-632.3955" font-family="Helvetica,sans-Serif" font-size="10.00" fill="#000000">Data::getVertices</text>
</a>
</g>
</g>
<!-- Node41&#45;&gt;Node42 -->
<g id="edge11" class="edge">
<title>Node41&#45;&gt;Node42</title>
<path fill="none" stroke="#191970" d="M755.7075,-640.3955C766.4838,-640.3955 777.5601,-640.3955 788.3933,-640.3955"/>
<polygon fill="#191970" stroke="#191970" points="788.6877,-643.8956 798.6877,-640.3955 788.6877,-636.8956 788.6877,-643.8956"/>
</g>
<!-- Node44&#45;&gt;Node37 -->
<g id="edge16" class="edge">
<title>Node44&#45;&gt;Node37</title>
<path fill="none" stroke="#191970" d="M752.6357,-527.221C756.4262,-524.6966 759.9264,-521.7749 763,-518.3955 825.5366,-449.638 736.4534,-381.1439 799,-312.3955 800.5807,-310.6581 802.2966,-309.0658 804.121,-307.6068"/>
<polygon fill="#191970" stroke="#191970" points="806.2437,-310.402 812.7333,-302.0273 802.4376,-304.5271 806.2437,-310.402"/>
</g>
<!-- Node45 -->
<g id="node15" class="node">
<title>Node45</title>
<g id="a_node15"><a xlink:href="classRa_1_1Core_1_1Asset_1_1GeometryData.html#a3473c72e64144570571eca16ed1acd72" target="_top" xlink:title="Ra::Core::Asset::Geometry\lData::getEdges">
<polygon fill="#ffffff" stroke="#000000" points="799,-527.3955 799,-557.3955 945,-557.3955 945,-527.3955 799,-527.3955"/>
<text text-anchor="start" x="807" y="-545.3955" font-family="Helvetica,sans-Serif" font-size="10.00" fill="#000000">Ra::Core::Asset::Geometry</text>
<text text-anchor="middle" x="872" y="-534.3955" font-family="Helvetica,sans-Serif" font-size="10.00" fill="#000000">Data::getEdges</text>
</a>
</g>
</g>
<!-- Node44&#45;&gt;Node45 -->
<g id="edge15" class="edge">
<title>Node44&#45;&gt;Node45</title>
<path fill="none" stroke="#191970" d="M755.7075,-542.3955C766.4838,-542.3955 777.5601,-542.3955 788.3933,-542.3955"/>
<polygon fill="#191970" stroke="#191970" points="788.6877,-545.8956 798.6877,-542.3955 788.6877,-538.8956 788.6877,-545.8956"/>
</g>
<!-- Node46&#45;&gt;Node37 -->
<g id="edge19" class="edge">
<title>Node46&#45;&gt;Node37</title>
<path fill="none" stroke="#191970" d="M752.031,-478.2832C756.0246,-475.7484 759.7299,-472.807 763,-469.3955 812.539,-417.7155 749.4535,-364.0684 799,-312.3955 800.6626,-310.6616 802.46,-309.0733 804.3645,-307.6186"/>
<polygon fill="#191970" stroke="#191970" points="806.6662,-310.3093 813.3146,-302.0602 802.973,-304.3628 806.6662,-310.3093"/>
</g>
<!-- Node47 -->
<g id="node17" class="node">
<title>Node47</title>
<g id="a_node17"><a xlink:href="classRa_1_1Core_1_1Asset_1_1GeometryData.html#ab6a1417d3aea242d4be51240e8c662a5" target="_top" xlink:title="Ra::Core::Asset::Geometry\lData::getFaces">
<polygon fill="#ffffff" stroke="#000000" points="799,-478.3955 799,-508.3955 945,-508.3955 945,-478.3955 799,-478.3955"/>
<text text-anchor="start" x="807" y="-496.3955" font-family="Helvetica,sans-Serif" font-size="10.00" fill="#000000">Ra::Core::Asset::Geometry</text>
<text text-anchor="middle" x="872" y="-485.3955" font-family="Helvetica,sans-Serif" font-size="10.00" fill="#000000">Data::getFaces</text>
</a>
</g>
</g>
<!-- Node46&#45;&gt;Node47 -->
<g id="edge18" class="edge">
<title>Node46&#45;&gt;Node47</title>
<path fill="none" stroke="#191970" d="M755.7075,-493.3955C766.4838,-493.3955 777.5601,-493.3955 788.3933,-493.3955"/>
<polygon fill="#191970" stroke="#191970" points="788.6877,-496.8956 798.6877,-493.3955 788.6877,-489.8956 788.6877,-496.8956"/>
</g>
<!-- Node51&#45;&gt;Node37 -->
<g id="edge25" class="edge">
<title>Node51&#45;&gt;Node37</title>
<path fill="none" stroke="#191970" d="M755.7075,-295.3546C770.9691,-294.9663 786.8323,-294.5627 801.7549,-294.1829"/>
<polygon fill="#191970" stroke="#191970" points="802.009,-297.6777 811.9168,-293.9244 801.8309,-290.68 802.009,-297.6777"/>
</g>
<!-- Node52 -->
<g id="node22" class="node">
<title>Node52</title>
<g id="a_node22"><a xlink:href="classRa_1_1Core_1_1Asset_1_1GeometryData.html#acf6f7d15ee8d3a23a286fc463f326ae5" target="_top" xlink:title="Return the list of vertex normals. ">
<polygon fill="#ffffff" stroke="#000000" points="799,-321.3955 799,-351.3955 945,-351.3955 945,-321.3955 799,-321.3955"/>
<text text-anchor="start" x="807" y="-339.3955" font-family="Helvetica,sans-Serif" font-size="10.00" fill="#000000">Ra::Core::Asset::Geometry</text>
<text text-anchor="middle" x="872" y="-328.3955" font-family="Helvetica,sans-Serif" font-size="10.00" fill="#000000">Data::getNormals</text>
</a>
</g>
</g>
<!-- Node51&#45;&gt;Node52 -->
<g id="edge24" class="edge">
<title>Node51&#45;&gt;Node52</title>
<path fill="none" stroke="#191970" d="M751.191,-312.4182C763.5608,-314.8733 776.435,-317.4284 788.9704,-319.9164"/>
<polygon fill="#191970" stroke="#191970" points="788.4448,-323.3803 798.9348,-321.8941 789.8076,-316.5142 788.4448,-323.3803"/>
</g>
<!-- Node53&#45;&gt;Node37 -->
<g id="edge28" class="edge">
<title>Node53&#45;&gt;Node37</title>
<path fill="none" stroke="#191970" d="M742.5746,-263.4148C767.7709,-269.0567 796.0189,-275.382 819.6807,-280.6803"/>
<polygon fill="#191970" stroke="#191970" points="818.9952,-284.1134 829.5184,-282.8831 820.5249,-277.2825 818.9952,-284.1134"/>
</g>
<!-- Node54 -->
<g id="node24" class="node">
<title>Node54</title>
<g id="a_node24"><a xlink:href="classRa_1_1Core_1_1Asset_1_1GeometryData.html#ae06b77a36b83e92e1fb73c0feff970de" target="_top" xlink:title="Return the list of vertex tangent vectors. ">
<polygon fill="#ffffff" stroke="#000000" points="799,-233.3955 799,-263.3955 945,-263.3955 945,-233.3955 799,-233.3955"/>
<text text-anchor="start" x="807" y="-251.3955" font-family="Helvetica,sans-Serif" font-size="10.00" fill="#000000">Ra::Core::Asset::Geometry</text>
<text text-anchor="middle" x="872" y="-240.3955" font-family="Helvetica,sans-Serif" font-size="10.00" fill="#000000">Data::getTangents</text>
</a>
</g>
</g>
<!-- Node53&#45;&gt;Node54 -->
<g id="edge27" class="edge">
<title>Node53&#45;&gt;Node54</title>
<path fill="none" stroke="#191970" d="M755.7075,-248.3955C766.4838,-248.3955 777.5601,-248.3955 788.3933,-248.3955"/>
<polygon fill="#191970" stroke="#191970" points="788.6877,-251.8956 798.6877,-248.3955 788.6877,-244.8956 788.6877,-251.8956"/>
</g>
<!-- Node55&#45;&gt;Node37 -->
<g id="edge31" class="edge">
<title>Node55&#45;&gt;Node37</title>
<path fill="none" stroke="#191970" d="M747.059,-214.5873C752.6722,-217.09 758.068,-220.0037 763,-223.3955 785.2663,-238.7084 776.7315,-257.0859 799,-272.3955 802.5328,-274.8243 806.3507,-276.9589 810.3238,-278.8348"/>
<polygon fill="#191970" stroke="#191970" points="809.236,-282.1723 819.8146,-282.7591 811.9108,-275.7035 809.236,-282.1723"/>
</g>
<!-- Node56 -->
<g id="node26" class="node">
<title>Node56</title>
<g id="a_node26"><a xlink:href="classRa_1_1Core_1_1Asset_1_1GeometryData.html#a445eb7beaa898a5c2177a2e114361349" target="_top" xlink:title="Return the list of vertex bitangent vectors. ">
<polygon fill="#ffffff" stroke="#000000" points="799,-184.3955 799,-214.3955 945,-214.3955 945,-184.3955 799,-184.3955"/>
<text text-anchor="start" x="807" y="-202.3955" font-family="Helvetica,sans-Serif" font-size="10.00" fill="#000000">Ra::Core::Asset::Geometry</text>
<text text-anchor="middle" x="872" y="-191.3955" font-family="Helvetica,sans-Serif" font-size="10.00" fill="#000000">Data::getBiTangents</text>
</a>
</g>
</g>
<!-- Node55&#45;&gt;Node56 -->
<g id="edge30" class="edge">
<title>Node55&#45;&gt;Node56</title>
<path fill="none" stroke="#191970" d="M755.7075,-199.3955C766.4838,-199.3955 777.5601,-199.3955 788.3933,-199.3955"/>
<polygon fill="#191970" stroke="#191970" points="788.6877,-202.8956 798.6877,-199.3955 788.6877,-195.8956 788.6877,-202.8956"/>
</g>
<!-- Node57&#45;&gt;Node37 -->
<g id="edge34" class="edge">
<title>Node57&#45;&gt;Node37</title>
<path fill="none" stroke="#191970" d="M750.7157,-165.53C755.1379,-168.0516 759.2886,-170.9847 763,-174.3955 797.1648,-205.7938 764.8306,-241.0022 799,-272.3955 801.2967,-274.5056 803.795,-276.3964 806.4378,-278.0903"/>
<polygon fill="#191970" stroke="#191970" points="804.8352,-281.2025 815.2999,-282.858 808.1517,-275.0379 804.8352,-281.2025"/>
</g>
<!-- Node58 -->
<g id="node28" class="node">
<title>Node58</title>
<g id="a_node28"><a xlink:href="classRa_1_1Core_1_1Asset_1_1GeometryData.html#a4135cc230509ac75f9849fd3d26b6b4a" target="_top" xlink:title="Return the list of vertex texture coordinates. ">
<polygon fill="#ffffff" stroke="#000000" points="799,-135.3955 799,-165.3955 945,-165.3955 945,-135.3955 799,-135.3955"/>
<text text-anchor="start" x="807" y="-153.3955" font-family="Helvetica,sans-Serif" font-size="10.00" fill="#000000">Ra::Core::Asset::Geometry</text>
<text text-anchor="middle" x="872" y="-142.3955" font-family="Helvetica,sans-Serif" font-size="10.00" fill="#000000">Data::getTexCoords</text>
</a>
</g>
</g>
<!-- Node57&#45;&gt;Node58 -->
<g id="edge33" class="edge">
<title>Node57&#45;&gt;Node58</title>
<path fill="none" stroke="#191970" d="M763.1184,-150.3955C771.6313,-150.3955 780.252,-150.3955 788.7206,-150.3955"/>
<polygon fill="#191970" stroke="#191970" points="788.9578,-153.8956 798.9578,-150.3955 788.9577,-146.8956 788.9578,-153.8956"/>
</g>
<!-- Node59&#45;&gt;Node37 -->
<g id="edge36" class="edge">
<title>Node59&#45;&gt;Node37</title>
<path fill="none" stroke="#191970" d="M552.0401,-101.3852C627.045,-98.4619 732.1129,-99.4897 763,-125.3955 814.5367,-168.6207 752.0894,-224.1893 799,-272.3955 800.8443,-274.2908 802.8498,-276.0117 804.9798,-277.5739"/>
<polygon fill="#191970" stroke="#191970" points="803.362,-280.6853 813.7342,-282.846 806.9733,-274.6887 803.362,-280.6853"/>
</g>
<!-- Node60 -->
<g id="node30" class="node">
<title>Node60</title>
<g id="a_node30"><a xlink:href="classRa_1_1Core_1_1Asset_1_1GeometryData.html#a4df3ae33c97163e9f31cc2f59e9a8374" target="_top" xlink:title="Set the MaterialData for the object. ">
<polygon fill="#ffffff" stroke="#000000" points="602.5,-47.3955 602.5,-77.3955 748.5,-77.3955 748.5,-47.3955 602.5,-47.3955"/>
<text text-anchor="start" x="610.5" y="-65.3955" font-family="Helvetica,sans-Serif" font-size="10.00" fill="#000000">Ra::Core::Asset::Geometry</text>
<text text-anchor="middle" x="675.5" y="-54.3955" font-family="Helvetica,sans-Serif" font-size="10.00" fill="#000000">Data::setMaterial</text>
</a>
</g>
</g>
<!-- Node59&#45;&gt;Node60 -->
<g id="edge37" class="edge">
<title>Node59&#45;&gt;Node60</title>
<path fill="none" stroke="#191970" d="M541.464,-91.3763C559.0482,-87.5743 578.0677,-83.462 596.1017,-79.5627"/>
<polygon fill="#191970" stroke="#191970" points="596.9694,-82.9561 606.0038,-77.4217 595.49,-76.1142 596.9694,-82.9561"/>
</g>
<!-- Node61&#45;&gt;Node37 -->
<g id="edge39" class="edge">
<title>Node61&#45;&gt;Node37</title>
<path fill="none" stroke="#191970" d="M512.8885,-23.3437C574.9387,-3.4177 693.0418,22.6618 763,-37.3955 843.1725,-106.2215 728.7181,-193.4962 799,-272.3955 800.5624,-274.1495 802.2625,-275.756 804.0734,-277.2271"/>
<polygon fill="#191970" stroke="#191970" points="802.3593,-280.2885 812.6405,-282.8474 806.199,-274.4356 802.3593,-280.2885"/>
</g>
</g>
</svg>
        <g id="navigator" transform="translate(0 0)" fill="#404254">
                <rect fill="#f2f5e9" fill-opacity="0.5" stroke="#606060" stroke-width=".5" x="0" y="0" width="60" height="60"/>
                <use id="zoomplus" xlink:href="#zoomPlus" x="17" y="9" onmousedown="handleZoom(evt,'in')"/>
                <use id="zoomminus" xlink:href="#zoomMin" x="42" y="9" onmousedown="handleZoom(evt,'out')"/>
                <use id="reset" xlink:href="#resetDef" x="30" y="36" onmousedown="handleReset()"/>
                <g id="arrowUp" xlink:href="#dirArrow" transform="translate(30 24)" onmousedown="handlePan(0,-1)">
                  <use xlink:href="#rim" fill="#404040">
                        <set attributeName="fill" to="#808080" begin="arrowUp.mouseover" end="arrowUp.mouseout"/>
                  </use>
                  <path fill="none" stroke="white" stroke-width="1.5" d="M0,-3.0v7 M-2.5,-0.5L0,-3.0L2.5,-0.5"/>
                </g>
                <g id="arrowRight" xlink:href="#dirArrow" transform="rotate(90) translate(36 -43)" onmousedown="handlePan(1,0)">
                  <use xlink:href="#rim" fill="#404040">
                        <set attributeName="fill" to="#808080" begin="arrowRight.mouseover" end="arrowRight.mouseout"/>
                  </use>
                  <path fill="none" stroke="white" stroke-width="1.5" d="M0,-3.0v7 M-2.5,-0.5L0,-3.0L2.5,-0.5"/>
                </g>
                <g id="arrowDown" xlink:href="#dirArrow" transform="rotate(180) translate(-30 -48)" onmousedown="handlePan(0,1)">
                  <use xlink:href="#rim" fill="#404040">
                        <set attributeName="fill" to="#808080" begin="arrowDown.mouseover" end="arrowDown.mouseout"/>
                  </use>
                  <path fill="none" stroke="white" stroke-width="1.5" d="M0,-3.0v7 M-2.5,-0.5L0,-3.0L2.5,-0.5"/>
                </g>
                <g id="arrowLeft" xlink:href="#dirArrow" transform="rotate(270) translate(-36 17)" onmousedown="handlePan(-1,0)">
                  <use xlink:href="#rim" fill="#404040">
                        <set attributeName="fill" to="#808080" begin="arrowLeft.mouseover" end="arrowLeft.mouseout"/>
                  </use>
                  <path fill="none" stroke="white" stroke-width="1.5" d="M0,-3.0v7 M-2.5,-0.5L0,-3.0L2.5,-0.5"/>
                </g>
        </g>
        <svg viewBox="0 0 15 15" width="100%" height="30px" preserveAspectRatio="xMaxYMin meet">
         <g id="arrow_out" transform="scale(0.3 0.3)">
          <a xlink:href="classRa_1_1IO_1_1AssimpGeometryDataLoader_aa6c1ada49b7dbf1ef90fa318c39699f7_cgraph_org.svg" target="_base">
           <rect id="button" ry="5" rx="5" y="6" x="6" height="38" width="38"
                fill="#f2f5e9" fill-opacity="0.5" stroke="#606060" stroke-width="1.0"/>
           <path id="arrow"
             d="M 11.500037,31.436501 C 11.940474,20.09759 22.043105,11.32322 32.158766,21.979434 L 37.068811,17.246167 C 37.068811,17.246167 37.088388,32 37.088388,32 L 22.160133,31.978069 C 22.160133,31.978069 26.997745,27.140456 26.997745,27.140456 C 18.528582,18.264221 13.291696,25.230495 11.500037,31.436501 z"
             style="fill:#404040;"/>
          </a>
         </g>
        </svg>
</svg>
