<?xml version="1.0" encoding="UTF-8" standalone="no"?>
<!DOCTYPE svg PUBLIC "-//W3C//DTD SVG 1.1//EN"
 "http://www.w3.org/Graphics/SVG/1.1/DTD/svg11.dtd">
<!-- Generated by graphviz version 2.43.0 (0)
 -->
<!-- Title: Ra::Core::Geometry::AttribArrayGeometry::setVertices Pages: 1 -->
<svg width="529pt" height="160pt"
 viewBox="0.00 0.00 529.00 160.00" xmlns="http://www.w3.org/2000/svg" xmlns:xlink="http://www.w3.org/1999/xlink">
<g id="graph0" class="graph" transform="scale(1 1) rotate(0) translate(4 156)">
<title>Ra::Core::Geometry::AttribArrayGeometry::setVertices</title>
<polygon fill="white" stroke="transparent" points="-4,4 -4,-156 525,-156 525,4 -4,4"/>
<!-- Node1 -->
<g id="node1" class="node">
<title>Node1</title>
<g id="a_node1"><a xlink:title="Set vertices.">
<polygon fill="#bfbfbf" stroke="black" points="0,-55.5 0,-96.5 125,-96.5 125,-55.5 0,-55.5"/>
<text text-anchor="start" x="8" y="-84.5" font-family="Helvetica,sans-Serif" font-size="10.00">Ra::Core::Geometry</text>
<text text-anchor="start" x="8" y="-73.5" font-family="Helvetica,sans-Serif" font-size="10.00">::AttribArrayGeometry</text>
<text text-anchor="middle" x="62.5" y="-62.5" font-family="Helvetica,sans-Serif" font-size="10.00">::setVertices</text>
</a>
</g>
</g>
<!-- Node2 -->
<g id="node2" class="node">
<title>Node2</title>
<g id="a_node2"><a xlink:href="structRa_1_1Core_1_1Geometry_1_1AbstractGeometry.html#a573def11b92bfa63c15dfddec792b450" target="_top" xlink:title=" ">
<polygon fill="white" stroke="black" points="183.5,-110.5 183.5,-151.5 300.5,-151.5 300.5,-110.5 183.5,-110.5"/>
<text text-anchor="start" x="191.5" y="-139.5" font-family="Helvetica,sans-Serif" font-size="10.00">Ra::Core::Geometry</text>
<text text-anchor="start" x="191.5" y="-128.5" font-family="Helvetica,sans-Serif" font-size="10.00">::AbstractGeometry::</text>
<text text-anchor="middle" x="242" y="-117.5" font-family="Helvetica,sans-Serif" font-size="10.00">invalidateAabb</text>
</a>
</g>
</g>
<!-- Node1&#45;&gt;Node2 -->
<g id="edge1" class="edge">
<title>Node1&#45;&gt;Node2</title>
<path fill="none" stroke="midnightblue" d="M125.08,-95.08C140.75,-99.94 157.68,-105.18 173.62,-110.12"/>
<polygon fill="midnightblue" stroke="midnightblue" points="172.81,-113.54 183.4,-113.15 174.89,-106.85 172.81,-113.54"/>
</g>
<!-- Node3 -->
<g id="node3" class="node">
<title>Node3</title>
<g id="a_node3"><a xlink:href="classRa_1_1Core_1_1Utils_1_1AttribManager.html#a056b7697cfbedd6b20dde6ce7955094e" target="_top" xlink:title=" ">
<polygon fill="white" stroke="black" points="161,-61 161,-91 323,-91 323,-61 161,-61"/>
<text text-anchor="start" x="169" y="-79" font-family="Helvetica,sans-Serif" font-size="10.00">Ra::Core::Utils::AttribManager</text>
<text text-anchor="middle" x="242" y="-68" font-family="Helvetica,sans-Serif" font-size="10.00">::setAttrib</text>
</a>
</g>
</g>
<!-- Node1&#45;&gt;Node3 -->
<g id="edge2" class="edge">
<title>Node1&#45;&gt;Node3</title>
<path fill="none" stroke="midnightblue" d="M125.08,-76C133.36,-76 141.98,-76 150.63,-76"/>
<polygon fill="midnightblue" stroke="midnightblue" points="150.77,-79.5 160.77,-76 150.77,-72.5 150.77,-79.5"/>
</g>
<!-- Node4 -->
<g id="node4" class="node">
<title>Node4</title>
<g id="a_node4"><a xlink:href="classRa_1_1Core_1_1Geometry_1_1AttribArrayGeometry.html#acabe05880d71a8dc4406964c258fff5a" target="_top" xlink:title="Access the vertices positions.">
<polygon fill="white" stroke="black" points="179.5,-0.5 179.5,-41.5 304.5,-41.5 304.5,-0.5 179.5,-0.5"/>
<text text-anchor="start" x="187.5" y="-29.5" font-family="Helvetica,sans-Serif" font-size="10.00">Ra::Core::Geometry</text>
<text text-anchor="start" x="187.5" y="-18.5" font-family="Helvetica,sans-Serif" font-size="10.00">::AttribArrayGeometry</text>
<text text-anchor="middle" x="242" y="-7.5" font-family="Helvetica,sans-Serif" font-size="10.00">::vertices</text>
</a>
</g>
</g>
<!-- Node1&#45;&gt;Node4 -->
<g id="edge3" class="edge">
<title>Node1&#45;&gt;Node4</title>
<path fill="none" stroke="midnightblue" d="M125.08,-56.92C139.46,-52.46 154.88,-47.68 169.64,-43.11"/>
<polygon fill="midnightblue" stroke="midnightblue" points="170.71,-46.44 179.23,-40.14 168.64,-39.76 170.71,-46.44"/>
</g>
<!-- Node5 -->
<g id="node5" class="node">
<title>Node5</title>
<g id="a_node5"><a xlink:href="classRa_1_1Core_1_1Utils_1_1AttribManager.html#ae0cb7281ec72606a5392602b4ea50d2c" target="_top" xlink:title=" ">
<polygon fill="white" stroke="black" points="359,-6 359,-36 521,-36 521,-6 359,-6"/>
<text text-anchor="start" x="367" y="-24" font-family="Helvetica,sans-Serif" font-size="10.00">Ra::Core::Utils::AttribManager</text>
<text text-anchor="middle" x="440" y="-13" font-family="Helvetica,sans-Serif" font-size="10.00">::getAttrib</text>
</a>
</g>
</g>
<!-- Node4&#45;&gt;Node5 -->
<g id="edge4" class="edge">
<title>Node4&#45;&gt;Node5</title>
<path fill="none" stroke="midnightblue" d="M304.75,-21C318.7,-21 333.79,-21 348.64,-21"/>
<polygon fill="midnightblue" stroke="midnightblue" points="348.87,-24.5 358.87,-21 348.87,-17.5 348.87,-24.5"/>
</g>
</g>
</svg>
