<?xml version="1.0" encoding="UTF-8" standalone="no"?>
<!DOCTYPE svg PUBLIC "-//W3C//DTD SVG 1.1//EN"
 "http://www.w3.org/Graphics/SVG/1.1/DTD/svg11.dtd">
<!-- Generated by graphviz version 2.40.1 (20161225.0304)
 -->
<!-- Title: Ra::Gui::KeyMappingManager::addAction Pages: 1 -->
<svg width="741pt" height="39pt"
 viewBox="0.00 0.00 741.00 39.00" xmlns="http://www.w3.org/2000/svg" xmlns:xlink="http://www.w3.org/1999/xlink">
<g id="graph0" class="graph" transform="scale(1 1) rotate(0) translate(4 35)">
<title>Ra::Gui::KeyMappingManager::addAction</title>
<polygon fill="#ffffff" stroke="transparent" points="-4,4 -4,-35 737,-35 737,4 -4,4"/>
<!-- Node0 -->
<g id="node1" class="node">
<title>Node0</title>
<polygon fill="#bfbfbf" stroke="#000000" points="0,-.5 0,-30.5 159,-30.5 159,-.5 0,-.5"/>
<text text-anchor="start" x="8" y="-18.5" font-family="Helvetica,sans-Serif" font-size="10.00" fill="#000000">Ra::Gui::KeyMappingManager</text>
<text text-anchor="middle" x="79.5" y="-7.5" font-family="Helvetica,sans-Serif" font-size="10.00" fill="#000000">::addAction</text>
</g>
<!-- Node1 -->
<g id="node2" class="node">
<title>Node1</title>
<g id="a_node2"><a xlink:href="classRa_1_1Gui_1_1KeyMappingManager.html#a77a25c034a6d0e90e3cf69c0eb311ad7" target="_top" xlink:title="Ra::Gui::KeyMappingManager\l::saveConfiguration">
<polygon fill="#ffffff" stroke="#000000" points="195,-.5 195,-30.5 354,-30.5 354,-.5 195,-.5"/>
<text text-anchor="start" x="203" y="-18.5" font-family="Helvetica,sans-Serif" font-size="10.00" fill="#000000">Ra::Gui::KeyMappingManager</text>
<text text-anchor="middle" x="274.5" y="-7.5" font-family="Helvetica,sans-Serif" font-size="10.00" fill="#000000">::saveConfiguration</text>
</a>
</g>
</g>
<!-- Node0&#45;&gt;Node1 -->
<g id="edge1" class="edge">
<title>Node0&#45;&gt;Node1</title>
<path fill="none" stroke="#191970" d="M159.0952,-15.5C167.5728,-15.5 176.2374,-15.5 184.8207,-15.5"/>
<polygon fill="#191970" stroke="#191970" points="184.8433,-19.0001 194.8432,-15.5 184.8432,-12.0001 184.8433,-19.0001"/>
</g>
<!-- Node2 -->
<g id="node3" class="node">
<title>Node2</title>
<g id="a_node3"><a xlink:href="classRa_1_1Gui_1_1KeyMappingManager.html#aad32ca0767b840cfe9efea43335de826" target="_top" xlink:title="Ra::Gui::KeyMappingManager\l::loadConfiguration">
<polygon fill="#ffffff" stroke="#000000" points="390,-.5 390,-30.5 549,-30.5 549,-.5 390,-.5"/>
<text text-anchor="start" x="398" y="-18.5" font-family="Helvetica,sans-Serif" font-size="10.00" fill="#000000">Ra::Gui::KeyMappingManager</text>
<text text-anchor="middle" x="469.5" y="-7.5" font-family="Helvetica,sans-Serif" font-size="10.00" fill="#000000">::loadConfiguration</text>
</a>
</g>
</g>
<!-- Node1&#45;&gt;Node2 -->
<g id="edge2" class="edge">
<title>Node1&#45;&gt;Node2</title>
<path fill="none" stroke="#191970" d="M354.0952,-15.5C362.5728,-15.5 371.2374,-15.5 379.8207,-15.5"/>
<polygon fill="#191970" stroke="#191970" points="379.8433,-19.0001 389.8432,-15.5 379.8432,-12.0001 379.8433,-19.0001"/>
</g>
<!-- Node3 -->
<g id="node4" class="node">
<title>Node3</title>
<g id="a_node4"><a xlink:href="classRa_1_1Core_1_1Utils_1_1Observable.html#a7e5fe761726d56a51f95192eb6555f8f" target="_top" xlink:title="Notify (i.e. call) each attached observer with argument p. ">
<polygon fill="#ffffff" stroke="#000000" points="585,-.5 585,-30.5 733,-30.5 733,-.5 585,-.5"/>
<text text-anchor="start" x="593" y="-18.5" font-family="Helvetica,sans-Serif" font-size="10.00" fill="#000000">Ra::Core::Utils::Observable</text>
<text text-anchor="middle" x="659" y="-7.5" font-family="Helvetica,sans-Serif" font-size="10.00" fill="#000000">&lt;&gt;::notify</text>
</a>
</g>
</g>
<!-- Node2&#45;&gt;Node3 -->
<g id="edge3" class="edge">
<title>Node2&#45;&gt;Node3</title>
<path fill="none" stroke="#191970" d="M549.0414,-15.5C557.4664,-15.5 566.0561,-15.5 574.5346,-15.5"/>
<polygon fill="#191970" stroke="#191970" points="574.803,-19.0001 584.8029,-15.5 574.8029,-12.0001 574.803,-19.0001"/>
</g>
</g>
</svg>
