<?xml version="1.0" encoding="UTF-8" standalone="no"?>
<!DOCTYPE svg PUBLIC "-//W3C//DTD SVG 1.1//EN"
 "http://www.w3.org/Graphics/SVG/1.1/DTD/svg11.dtd">
<!-- Generated by graphviz version 2.40.1 (20161225.0304)
 -->
<!-- Title: Ra::Gui::TrackballCameraManipulator::handleMouseMoveEvent Pages: 1 -->
<!--zoomable 497 -->
<svg id="main" version="1.1" xmlns="http://www.w3.org/2000/svg" xmlns:xlink="http://www.w3.org/1999/xlink" xml:space="preserve" onload="init(evt)">
<style type="text/css"><![CDATA[
.edge:hover path { stroke: red; }
.edge:hover polygon { stroke: red; fill: red; }
]]></style>
<script type="text/javascript"><![CDATA[
var edges = document.getElementsByTagName('g');
if (edges && edges.length) {
  for (var i=0;i<edges.length;i++) {
    if (edges[i].id.substr(0,4)=='edge') {
      edges[i].setAttribute('class','edge');
    }
  }
}
]]></script>
        <defs>
                <circle id="rim" cx="0" cy="0" r="7"/>
                <circle id="rim2" cx="0" cy="0" r="3.5"/>
                <g id="zoomPlus">
                        <use xlink:href="#rim" fill="#404040">
                                <set attributeName="fill" to="#808080" begin="zoomplus.mouseover" end="zoomplus.mouseout"/>
                        </use>
                        <path d="M-4,0h8M0,-4v8" fill="none" stroke="white" stroke-width="1.5" pointer-events="none"/>
                </g>
                <g id="zoomMin">
                        <use xlink:href="#rim" fill="#404040">
                                <set attributeName="fill" to="#808080" begin="zoomminus.mouseover" end="zoomminus.mouseout"/>
                        </use>
                        <path d="M-4,0h8" fill="none" stroke="white" stroke-width="1.5" pointer-events="none"/>
                </g>
                <g id="dirArrow">
                        <path fill="none" stroke="white" stroke-width="1.5" d="M0,-3.0v7 M-2.5,-0.5L0,-3.0L2.5,-0.5"/>
                </g>
               <g id="resetDef">
                       <use xlink:href="#rim2" fill="#404040">
                               <set attributeName="fill" to="#808080" begin="reset.mouseover" end="reset.mouseout"/>
                       </use>
               </g>
        </defs>

<script type="text/javascript">
var viewWidth = 780;
var viewHeight = 497;
var sectionId = 'dynsection-9';
</script>
<script xlink:href="svgpan.js"/>
<svg id="graph" class="graph">
<g id="viewport">
<title>Ra::Gui::TrackballCameraManipulator::handleMouseMoveEvent</title>
<polygon fill="#ffffff" stroke="transparent" points="-4,4 -4,-493 776,-493 776,4 -4,4"/>
<!-- Node80 -->
<g id="node1" class="node">
<title>Node80</title>
<polygon fill="#bfbfbf" stroke="#000000" points="0,-196.5 0,-226.5 199,-226.5 199,-196.5 0,-196.5"/>
<text text-anchor="start" x="8" y="-214.5" font-family="Helvetica,sans-Serif" font-size="10.00" fill="#000000">Ra::Gui::TrackballCamera</text>
<text text-anchor="middle" x="99.5" y="-203.5" font-family="Helvetica,sans-Serif" font-size="10.00" fill="#000000">Manipulator::handleMouseMoveEvent</text>
</g>
<!-- Node81 -->
<g id="node2" class="node">
<title>Node81</title>
<g id="a_node2"><a xlink:href="classRa_1_1Engine_1_1Camera.html#a1e8db55439659b2ea62aca7437e8dda0" target="_top" xlink:title="Return the width of the viewport. ">
<polygon fill="#ffffff" stroke="#000000" points="270,-458.5 270,-488.5 383,-488.5 383,-458.5 270,-458.5"/>
<text text-anchor="start" x="278" y="-476.5" font-family="Helvetica,sans-Serif" font-size="10.00" fill="#000000">Ra::Engine::Camera</text>
<text text-anchor="middle" x="326.5" y="-465.5" font-family="Helvetica,sans-Serif" font-size="10.00" fill="#000000">::getWidth</text>
</a>
</g>
</g>
<!-- Node80&#45;&gt;Node81 -->
<g id="edge1" class="edge">
<title>Node80&#45;&gt;Node81</title>
<path fill="none" stroke="#191970" d="M103.555,-226.5007C115.7469,-268.6448 156.1852,-388.976 235,-449.5 242.3654,-455.1561 250.9413,-459.4844 259.8336,-462.7957"/>
<polygon fill="#191970" stroke="#191970" points="258.9715,-466.1967 269.5646,-466.0042 261.1635,-459.5487 258.9715,-466.1967"/>
</g>
<!-- Node82 -->
<g id="node3" class="node">
<title>Node82</title>
<g id="a_node3"><a xlink:href="classRa_1_1Engine_1_1Camera.html#ad79f6937a35c8b585f33b438525cd09b" target="_top" xlink:title="Return the height of the viewport. ">
<polygon fill="#ffffff" stroke="#000000" points="270,-409.5 270,-439.5 383,-439.5 383,-409.5 270,-409.5"/>
<text text-anchor="start" x="278" y="-427.5" font-family="Helvetica,sans-Serif" font-size="10.00" fill="#000000">Ra::Engine::Camera</text>
<text text-anchor="middle" x="326.5" y="-416.5" font-family="Helvetica,sans-Serif" font-size="10.00" fill="#000000">::getHeight</text>
</a>
</g>
</g>
<!-- Node80&#45;&gt;Node82 -->
<g id="edge2" class="edge">
<title>Node80&#45;&gt;Node82</title>
<path fill="none" stroke="#191970" d="M106.5263,-226.5124C123.5498,-261.2759 170.4074,-347.8843 235,-394.5 242.6464,-400.0183 251.3654,-404.5613 260.3131,-408.2909"/>
<polygon fill="#191970" stroke="#191970" points="259.0949,-411.5722 269.685,-411.8898 261.6044,-405.0375 259.0949,-411.5722"/>
</g>
<!-- Node83 -->
<g id="node4" class="node">
<title>Node83</title>
<g id="a_node4"><a xlink:href="classRa_1_1Gui_1_1TrackballCameraManipulator.html#abb2d7eddd3a1d067d79d8963125dbb48" target="_top" xlink:title="Ra::Gui::TrackballCamera\lManipulator::handleCameraRotate">
<polygon fill="#ffffff" stroke="#000000" points="235,-245.5 235,-275.5 418,-275.5 418,-245.5 235,-245.5"/>
<text text-anchor="start" x="243" y="-263.5" font-family="Helvetica,sans-Serif" font-size="10.00" fill="#000000">Ra::Gui::TrackballCamera</text>
<text text-anchor="middle" x="326.5" y="-252.5" font-family="Helvetica,sans-Serif" font-size="10.00" fill="#000000">Manipulator::handleCameraRotate</text>
</a>
</g>
</g>
<!-- Node80&#45;&gt;Node83 -->
<g id="edge3" class="edge">
<title>Node80&#45;&gt;Node83</title>
<path fill="none" stroke="#191970" d="M169.1502,-226.5346C193.7719,-231.8494 221.6469,-237.8665 247.022,-243.344"/>
<polygon fill="#191970" stroke="#191970" points="246.4682,-246.8049 256.9815,-245.4938 247.9452,-239.9625 246.4682,-246.8049"/>
</g>
<!-- Node86 -->
<g id="node7" class="node">
<title>Node86</title>
<g id="a_node7"><a xlink:href="classRa_1_1Engine_1_1Camera.html#a21b3924c926f5ca72551ddbe313cb785" target="_top" xlink:title="Return the position. ">
<polygon fill="#ffffff" stroke="#000000" points="645.5,-327.5 645.5,-357.5 758.5,-357.5 758.5,-327.5 645.5,-327.5"/>
<text text-anchor="start" x="653.5" y="-345.5" font-family="Helvetica,sans-Serif" font-size="10.00" fill="#000000">Ra::Engine::Camera</text>
<text text-anchor="middle" x="702" y="-334.5" font-family="Helvetica,sans-Serif" font-size="10.00" fill="#000000">::getPosition</text>
</a>
</g>
</g>
<!-- Node80&#45;&gt;Node86 -->
<g id="edge21" class="edge">
<title>Node80&#45;&gt;Node86</title>
<path fill="none" stroke="#191970" d="M123.1592,-226.5958C149.579,-242.9284 194.0238,-268.8593 235,-285.5 328.6136,-323.517 353.892,-332.8184 454,-346.5 516.5298,-355.0458 532.9001,-347.6901 596,-346.5 608.64,-346.2616 622.1232,-345.8634 635.0886,-345.4083"/>
<polygon fill="#191970" stroke="#191970" points="635.4842,-348.8963 645.3495,-345.0331 635.2283,-341.9009 635.4842,-348.8963"/>
</g>
<!-- Node90 -->
<g id="node11" class="node">
<title>Node90</title>
<g id="a_node11"><a xlink:href="classRa_1_1Gui_1_1TrackballCameraManipulator.html#aa9663752b1f2fbf6fd00eeffe8e9b862" target="_top" xlink:title="Ra::Gui::TrackballCamera\lManipulator::handleCameraPan">
<polygon fill="#ffffff" stroke="#000000" points="242,-196.5 242,-226.5 411,-226.5 411,-196.5 242,-196.5"/>
<text text-anchor="start" x="250" y="-214.5" font-family="Helvetica,sans-Serif" font-size="10.00" fill="#000000">Ra::Gui::TrackballCamera</text>
<text text-anchor="middle" x="326.5" y="-203.5" font-family="Helvetica,sans-Serif" font-size="10.00" fill="#000000">Manipulator::handleCameraPan</text>
</a>
</g>
</g>
<!-- Node80&#45;&gt;Node90 -->
<g id="edge11" class="edge">
<title>Node80&#45;&gt;Node90</title>
<path fill="none" stroke="#191970" d="M199.0655,-211.5C209.8984,-211.5 220.9033,-211.5 231.6773,-211.5"/>
<polygon fill="#191970" stroke="#191970" points="231.9232,-215.0001 241.9232,-211.5 231.9231,-208.0001 231.9232,-215.0001"/>
</g>
<!-- Node92 -->
<g id="node13" class="node">
<title>Node92</title>
<g id="a_node13"><a xlink:href="classRa_1_1Gui_1_1TrackballCameraManipulator.html#acd8502e9842b5f79c47a6288c3f7fecd" target="_top" xlink:title="Ra::Gui::TrackballCamera\lManipulator::handleCameraZoom">
<polygon fill="#ffffff" stroke="#000000" points="236.5,-147.5 236.5,-177.5 416.5,-177.5 416.5,-147.5 236.5,-147.5"/>
<text text-anchor="start" x="244.5" y="-165.5" font-family="Helvetica,sans-Serif" font-size="10.00" fill="#000000">Ra::Gui::TrackballCamera</text>
<text text-anchor="middle" x="326.5" y="-154.5" font-family="Helvetica,sans-Serif" font-size="10.00" fill="#000000">Manipulator::handleCameraZoom</text>
</a>
</g>
</g>
<!-- Node80&#45;&gt;Node92 -->
<g id="edge16" class="edge">
<title>Node80&#45;&gt;Node92</title>
<path fill="none" stroke="#191970" d="M169.1502,-196.4654C193.7719,-191.1506 221.6469,-185.1335 247.022,-179.656"/>
<polygon fill="#191970" stroke="#191970" points="247.9452,-183.0375 256.9815,-177.5062 246.4682,-176.1951 247.9452,-183.0375"/>
</g>
<!-- Node95 -->
<g id="node16" class="node">
<title>Node95</title>
<g id="a_node16"><a xlink:href="classRa_1_1Engine_1_1Light.html#a1bf2c510e62b2a99f0012a39ad218378" target="_top" xlink:title="Ra::Engine::Light::\lsetPosition">
<polygon fill="#ffffff" stroke="#000000" points="274.5,-98.5 274.5,-128.5 378.5,-128.5 378.5,-98.5 274.5,-98.5"/>
<text text-anchor="start" x="282.5" y="-116.5" font-family="Helvetica,sans-Serif" font-size="10.00" fill="#000000">Ra::Engine::Light::</text>
<text text-anchor="middle" x="326.5" y="-105.5" font-family="Helvetica,sans-Serif" font-size="10.00" fill="#000000">setPosition</text>
</a>
</g>
</g>
<!-- Node80&#45;&gt;Node95 -->
<g id="edge19" class="edge">
<title>Node80&#45;&gt;Node95</title>
<path fill="none" stroke="#191970" d="M123.6565,-196.2972C150.1453,-180.1551 194.3107,-154.7725 235,-138.5 244.2888,-134.7852 254.3218,-131.4256 264.2226,-128.4619"/>
<polygon fill="#191970" stroke="#191970" points="265.4067,-131.7632 274.0469,-125.6316 263.4688,-125.0368 265.4067,-131.7632"/>
</g>
<!-- Node97 -->
<g id="node18" class="node">
<title>Node97</title>
<g id="a_node18"><a xlink:href="classRa_1_1Engine_1_1Light.html#a24e11b300dfe4e2a785d87b6de74b036" target="_top" xlink:title="Ra::Engine::Light::\lsetDirection">
<polygon fill="#ffffff" stroke="#000000" points="274.5,-49.5 274.5,-79.5 378.5,-79.5 378.5,-49.5 274.5,-49.5"/>
<text text-anchor="start" x="282.5" y="-67.5" font-family="Helvetica,sans-Serif" font-size="10.00" fill="#000000">Ra::Engine::Light::</text>
<text text-anchor="middle" x="326.5" y="-56.5" font-family="Helvetica,sans-Serif" font-size="10.00" fill="#000000">setDirection</text>
</a>
</g>
</g>
<!-- Node80&#45;&gt;Node97 -->
<g id="edge22" class="edge">
<title>Node80&#45;&gt;Node97</title>
<path fill="none" stroke="#191970" d="M112.047,-196.2869C134.1772,-170.4487 182.7708,-118.0239 235,-89.5 244.0906,-84.5354 254.2377,-80.5011 264.3734,-77.2398"/>
<polygon fill="#191970" stroke="#191970" points="265.4751,-80.5636 274.0528,-74.3447 263.4691,-73.8572 265.4751,-80.5636"/>
</g>
<!-- Node98 -->
<g id="node19" class="node">
<title>Node98</title>
<g id="a_node19"><a xlink:href="classRa_1_1Engine_1_1Camera.html#ac9ecb8c6005733f286734e1c841d9038" target="_top" xlink:title="Return the direction the camera is looking at. ">
<polygon fill="#ffffff" stroke="#000000" points="270,-.5 270,-30.5 383,-30.5 383,-.5 270,-.5"/>
<text text-anchor="start" x="278" y="-18.5" font-family="Helvetica,sans-Serif" font-size="10.00" fill="#000000">Ra::Engine::Camera</text>
<text text-anchor="middle" x="326.5" y="-7.5" font-family="Helvetica,sans-Serif" font-size="10.00" fill="#000000">::getDirection</text>
</a>
</g>
</g>
<!-- Node80&#45;&gt;Node98 -->
<g id="edge23" class="edge">
<title>Node80&#45;&gt;Node98</title>
<path fill="none" stroke="#191970" d="M106.9858,-196.391C124.4751,-162.7099 171.4064,-81.1673 235,-39.5 242.6668,-34.4766 251.3398,-30.5028 260.2158,-27.3598"/>
<polygon fill="#191970" stroke="#191970" points="261.431,-30.6458 269.8888,-24.2649 259.2979,-23.9787 261.431,-30.6458"/>
</g>
<!-- Node84 -->
<g id="node5" class="node">
<title>Node84</title>
<g id="a_node5"><a xlink:href="namespaceRa_1_1Core_1_1Math.html#a4f441ac6a56092d52849a4f48e274aa8" target="_top" xlink:title="Ra::Core::Math::cos">
<polygon fill="#ffffff" stroke="#000000" points="470,-295 470,-314 580,-314 580,-295 470,-295"/>
<text text-anchor="middle" x="525" y="-302" font-family="Helvetica,sans-Serif" font-size="10.00" fill="#000000">Ra::Core::Math::cos</text>
</a>
</g>
</g>
<!-- Node83&#45;&gt;Node84 -->
<g id="edge4" class="edge">
<title>Node83&#45;&gt;Node84</title>
<path fill="none" stroke="#191970" d="M394.2573,-275.5192C419.71,-281.1612 448.2456,-287.4864 472.1482,-292.7847"/>
<polygon fill="#191970" stroke="#191970" points="471.5655,-296.2405 482.086,-294.9876 473.0805,-289.4063 471.5655,-296.2405"/>
</g>
<!-- Node85 -->
<g id="node6" class="node">
<title>Node85</title>
<g id="a_node6"><a xlink:href="namespaceRa_1_1Core_1_1Geometry.html#aa04e6052d8911b1df1bd881474debb45" target="_top" xlink:title="Ra::Core::Geometry::t">
<polygon fill="#ffffff" stroke="#000000" points="464,-158 464,-177 586,-177 586,-158 464,-158"/>
<text text-anchor="middle" x="525" y="-165" font-family="Helvetica,sans-Serif" font-size="10.00" fill="#000000">Ra::Core::Geometry::t</text>
</a>
</g>
</g>
<!-- Node83&#45;&gt;Node85 -->
<g id="edge5" class="edge">
<title>Node83&#45;&gt;Node85</title>
<path fill="none" stroke="#191970" d="M401.7841,-245.357C407.4896,-242.8444 412.9741,-239.9151 418,-236.5 440.3516,-221.3119 431.7865,-202.8893 454,-187.5 457.5528,-185.0387 461.4028,-182.8787 465.41,-180.9835"/>
<polygon fill="#191970" stroke="#191970" points="467.077,-184.0816 474.9793,-177.0243 464.4008,-177.6133 467.077,-184.0816"/>
</g>
<!-- Node83&#45;&gt;Node86 -->
<g id="edge6" class="edge">
<title>Node83&#45;&gt;Node86</title>
<path fill="none" stroke="#191970" d="M350.3053,-275.7443C375.1188,-290.7782 415.6646,-312.9854 454,-323.5 513.803,-339.9028 584.552,-343.8818 635.1475,-344.2139"/>
<polygon fill="#191970" stroke="#191970" points="635.3008,-347.7141 645.3075,-344.2335 635.3143,-340.7142 635.3008,-347.7141"/>
</g>
<!-- Node87 -->
<g id="node8" class="node">
<title>Node87</title>
<g id="a_node8"><a xlink:href="classRa_1_1Engine_1_1Camera.html#a57df21d814e3e2684ac858ac3296bb37" target="_top" xlink:title="Ra::Engine::Camera\l::getRightVector">
<polygon fill="#ffffff" stroke="#000000" points="468.5,-245.5 468.5,-275.5 581.5,-275.5 581.5,-245.5 468.5,-245.5"/>
<text text-anchor="start" x="476.5" y="-263.5" font-family="Helvetica,sans-Serif" font-size="10.00" fill="#000000">Ra::Engine::Camera</text>
<text text-anchor="middle" x="525" y="-252.5" font-family="Helvetica,sans-Serif" font-size="10.00" fill="#000000">::getRightVector</text>
</a>
</g>
</g>
<!-- Node83&#45;&gt;Node87 -->
<g id="edge7" class="edge">
<title>Node83&#45;&gt;Node87</title>
<path fill="none" stroke="#191970" d="M418.1964,-260.5C431.6626,-260.5 445.3152,-260.5 458.1551,-260.5"/>
<polygon fill="#191970" stroke="#191970" points="458.2591,-264.0001 468.259,-260.5 458.259,-257.0001 458.2591,-264.0001"/>
</g>
<!-- Node88 -->
<g id="node9" class="node">
<title>Node88</title>
<g id="a_node9"><a xlink:href="classRa_1_1Engine_1_1Camera.html#a7a2c1c84e3063c6c3f09d490477abb0f" target="_top" xlink:title="Apply the local transformation &#39;T&#39; to the camera. ">
<polygon fill="#ffffff" stroke="#000000" points="468.5,-196.5 468.5,-226.5 581.5,-226.5 581.5,-196.5 468.5,-196.5"/>
<text text-anchor="start" x="476.5" y="-214.5" font-family="Helvetica,sans-Serif" font-size="10.00" fill="#000000">Ra::Engine::Camera</text>
<text text-anchor="middle" x="525" y="-203.5" font-family="Helvetica,sans-Serif" font-size="10.00" fill="#000000">::applyTransform</text>
</a>
</g>
</g>
<!-- Node83&#45;&gt;Node88 -->
<g id="edge8" class="edge">
<title>Node83&#45;&gt;Node88</title>
<path fill="none" stroke="#191970" d="M387.4055,-245.4654C409.8415,-239.927 435.3665,-233.6261 458.2881,-227.9679"/>
<polygon fill="#191970" stroke="#191970" points="459.4048,-231.2974 468.2746,-225.5027 457.7272,-224.5014 459.4048,-231.2974"/>
</g>
<!-- Node88&#45;&gt;Node86 -->
<g id="edge9" class="edge">
<title>Node88&#45;&gt;Node86</title>
<path fill="none" stroke="#191970" d="M576.7015,-226.6085C583.4171,-229.4534 590.0285,-232.7397 596,-236.5 631.8542,-259.0776 664.9756,-295.8091 684.3393,-319.5607"/>
<polygon fill="#191970" stroke="#191970" points="681.6144,-321.7574 690.5966,-327.3762 687.0788,-317.3824 681.6144,-321.7574"/>
</g>
<!-- Node89 -->
<g id="node10" class="node">
<title>Node89</title>
<g id="a_node10"><a xlink:href="classRa_1_1Engine_1_1RenderObject.html#a2d6a1bc2b7646fe0912035a2ece24864" target="_top" xlink:title="Ra::Engine::RenderObject\l::setLocalTransform">
<polygon fill="#ffffff" stroke="#000000" points="632,-196.5 632,-226.5 772,-226.5 772,-196.5 632,-196.5"/>
<text text-anchor="start" x="640" y="-214.5" font-family="Helvetica,sans-Serif" font-size="10.00" fill="#000000">Ra::Engine::RenderObject</text>
<text text-anchor="middle" x="702" y="-203.5" font-family="Helvetica,sans-Serif" font-size="10.00" fill="#000000">::setLocalTransform</text>
</a>
</g>
</g>
<!-- Node88&#45;&gt;Node89 -->
<g id="edge10" class="edge">
<title>Node88&#45;&gt;Node89</title>
<path fill="none" stroke="#191970" d="M581.9782,-211.5C594.6218,-211.5 608.2527,-211.5 621.6335,-211.5"/>
<polygon fill="#191970" stroke="#191970" points="621.7967,-215.0001 631.7967,-211.5 621.7966,-208.0001 621.7967,-215.0001"/>
</g>
<!-- Node90&#45;&gt;Node85 -->
<g id="edge14" class="edge">
<title>Node90&#45;&gt;Node85</title>
<path fill="none" stroke="#191970" d="M394.2573,-196.4808C419.71,-190.8388 448.2456,-184.5136 472.1482,-179.2153"/>
<polygon fill="#191970" stroke="#191970" points="473.0805,-182.5937 482.086,-177.0124 471.5655,-175.7595 473.0805,-182.5937"/>
</g>
<!-- Node90&#45;&gt;Node87 -->
<g id="edge12" class="edge">
<title>Node90&#45;&gt;Node87</title>
<path fill="none" stroke="#191970" d="M387.4055,-226.5346C409.8415,-232.073 435.3665,-238.3739 458.2881,-244.0321"/>
<polygon fill="#191970" stroke="#191970" points="457.7272,-247.4986 468.2746,-246.4973 459.4048,-240.7026 457.7272,-247.4986"/>
</g>
<!-- Node90&#45;&gt;Node88 -->
<g id="edge15" class="edge">
<title>Node90&#45;&gt;Node88</title>
<path fill="none" stroke="#191970" d="M411.2576,-211.5C426.9255,-211.5 443.0858,-211.5 458.1312,-211.5"/>
<polygon fill="#191970" stroke="#191970" points="458.3493,-215.0001 468.3493,-211.5 458.3493,-208.0001 458.3493,-215.0001"/>
</g>
<!-- Node91 -->
<g id="node12" class="node">
<title>Node91</title>
<g id="a_node12"><a xlink:href="classRa_1_1Engine_1_1Camera.html#abcad4a7bff703dac10998d89a4db130e" target="_top" xlink:title="Return the up vector. ">
<polygon fill="#ffffff" stroke="#000000" points="468.5,-108.5 468.5,-138.5 581.5,-138.5 581.5,-108.5 468.5,-108.5"/>
<text text-anchor="start" x="476.5" y="-126.5" font-family="Helvetica,sans-Serif" font-size="10.00" fill="#000000">Ra::Engine::Camera</text>
<text text-anchor="middle" x="525" y="-115.5" font-family="Helvetica,sans-Serif" font-size="10.00" fill="#000000">::getUpVector</text>
</a>
</g>
</g>
<!-- Node90&#45;&gt;Node91 -->
<g id="edge13" class="edge">
<title>Node90&#45;&gt;Node91</title>
<path fill="none" stroke="#191970" d="M399.4973,-196.4865C405.9579,-193.9396 412.228,-190.9673 418,-187.5 438.2211,-175.3529 434.2941,-161.4661 454,-148.5 457.0738,-146.4775 460.3303,-144.5975 463.6922,-142.853"/>
<polygon fill="#191970" stroke="#191970" points="465.2444,-145.9906 472.7842,-138.5474 462.2484,-139.6642 465.2444,-145.9906"/>
</g>
<!-- Node93 -->
<g id="node14" class="node">
<title>Node93</title>
<g id="a_node14"><a xlink:href="namespaceRa_1_1Core_1_1Math.html#a90f0fe9079f5bb86c721ea4b61738470" target="_top" xlink:title="Returns the sign of any numeric type as { &#45;1, 0, 1}. ">
<polygon fill="#ffffff" stroke="#000000" points="468,-70 468,-89 582,-89 582,-70 468,-70"/>
<text text-anchor="middle" x="525" y="-77" font-family="Helvetica,sans-Serif" font-size="10.00" fill="#000000">Ra::Core::Math::sign</text>
</a>
</g>
</g>
<!-- Node92&#45;&gt;Node93 -->
<g id="edge17" class="edge">
<title>Node92&#45;&gt;Node93</title>
<path fill="none" stroke="#191970" d="M399.4973,-147.4865C405.9579,-144.9396 412.228,-141.9673 418,-138.5 438.2211,-126.3529 433.8894,-111.8292 454,-99.5 458.3244,-96.8488 463.0104,-94.5392 467.8424,-92.529"/>
<polygon fill="#191970" stroke="#191970" points="469.1094,-95.7921 477.2583,-89.0212 466.6656,-89.2325 469.1094,-95.7921"/>
</g>
<!-- Node94 -->
<g id="node15" class="node">
<title>Node94</title>
<g id="a_node15"><a xlink:href="namespaceRa_1_1Core_1_1Math.html#a1e6a5327cb1c73b29e0c6539576d02b0" target="_top" xlink:title="Ra::Core::Math::signum">
<polygon fill="#ffffff" stroke="#000000" points="637,-70 637,-89 767,-89 767,-70 637,-70"/>
<text text-anchor="middle" x="702" y="-77" font-family="Helvetica,sans-Serif" font-size="10.00" fill="#000000">Ra::Core::Math::signum</text>
</a>
</g>
</g>
<!-- Node93&#45;&gt;Node94 -->
<g id="edge18" class="edge">
<title>Node93&#45;&gt;Node94</title>
<path fill="none" stroke="#191970" d="M582.4668,-79.5C596.5736,-79.5 611.8849,-79.5 626.6922,-79.5"/>
<polygon fill="#191970" stroke="#191970" points="626.8419,-83.0001 636.8419,-79.5 626.8418,-76.0001 626.8419,-83.0001"/>
</g>
<!-- Node96 -->
<g id="node17" class="node">
<title>Node96</title>
<g id="a_node17"><a xlink:href="classRa_1_1Core_1_1Utils_1_1ColorBase.html#a467dad42627c64495356c4fd21b3ac81" target="_top" xlink:title="Ra::Core::Utils::ColorBase\l\&lt; Scalar \&gt;::White">
<polygon fill="#ffffff" stroke="#000000" points="454,-20.5 454,-50.5 596,-50.5 596,-20.5 454,-20.5"/>
<text text-anchor="start" x="462" y="-38.5" font-family="Helvetica,sans-Serif" font-size="10.00" fill="#000000">Ra::Core::Utils::ColorBase</text>
<text text-anchor="middle" x="525" y="-27.5" font-family="Helvetica,sans-Serif" font-size="10.00" fill="#000000">&lt; Scalar &gt;::White</text>
</a>
</g>
</g>
<!-- Node95&#45;&gt;Node96 -->
<g id="edge20" class="edge">
<title>Node95&#45;&gt;Node96</title>
<path fill="none" stroke="#191970" d="M378.6349,-103.0582C391.8605,-99.3933 405.7762,-94.6154 418,-88.5 436.1278,-79.4309 436.2096,-70.2143 454,-60.5 457.9122,-58.3638 462.0424,-56.353 466.2629,-54.4721"/>
<polygon fill="#191970" stroke="#191970" points="467.725,-57.6544 475.5974,-50.5639 465.0215,-51.1975 467.725,-57.6544"/>
</g>
</g>
</svg>
        <g id="navigator" transform="translate(0 0)" fill="#404254">
                <rect fill="#f2f5e9" fill-opacity="0.5" stroke="#606060" stroke-width=".5" x="0" y="0" width="60" height="60"/>
                <use id="zoomplus" xlink:href="#zoomPlus" x="17" y="9" onmousedown="handleZoom(evt,'in')"/>
                <use id="zoomminus" xlink:href="#zoomMin" x="42" y="9" onmousedown="handleZoom(evt,'out')"/>
                <use id="reset" xlink:href="#resetDef" x="30" y="36" onmousedown="handleReset()"/>
                <g id="arrowUp" xlink:href="#dirArrow" transform="translate(30 24)" onmousedown="handlePan(0,-1)">
                  <use xlink:href="#rim" fill="#404040">
                        <set attributeName="fill" to="#808080" begin="arrowUp.mouseover" end="arrowUp.mouseout"/>
                  </use>
                  <path fill="none" stroke="white" stroke-width="1.5" d="M0,-3.0v7 M-2.5,-0.5L0,-3.0L2.5,-0.5"/>
                </g>
                <g id="arrowRight" xlink:href="#dirArrow" transform="rotate(90) translate(36 -43)" onmousedown="handlePan(1,0)">
                  <use xlink:href="#rim" fill="#404040">
                        <set attributeName="fill" to="#808080" begin="arrowRight.mouseover" end="arrowRight.mouseout"/>
                  </use>
                  <path fill="none" stroke="white" stroke-width="1.5" d="M0,-3.0v7 M-2.5,-0.5L0,-3.0L2.5,-0.5"/>
                </g>
                <g id="arrowDown" xlink:href="#dirArrow" transform="rotate(180) translate(-30 -48)" onmousedown="handlePan(0,1)">
                  <use xlink:href="#rim" fill="#404040">
                        <set attributeName="fill" to="#808080" begin="arrowDown.mouseover" end="arrowDown.mouseout"/>
                  </use>
                  <path fill="none" stroke="white" stroke-width="1.5" d="M0,-3.0v7 M-2.5,-0.5L0,-3.0L2.5,-0.5"/>
                </g>
                <g id="arrowLeft" xlink:href="#dirArrow" transform="rotate(270) translate(-36 17)" onmousedown="handlePan(-1,0)">
                  <use xlink:href="#rim" fill="#404040">
                        <set attributeName="fill" to="#808080" begin="arrowLeft.mouseover" end="arrowLeft.mouseout"/>
                  </use>
                  <path fill="none" stroke="white" stroke-width="1.5" d="M0,-3.0v7 M-2.5,-0.5L0,-3.0L2.5,-0.5"/>
                </g>
        </g>
        <svg viewBox="0 0 15 15" width="100%" height="30px" preserveAspectRatio="xMaxYMin meet">
         <g id="arrow_out" transform="scale(0.3 0.3)">
          <a xlink:href="classRa_1_1Gui_1_1TrackballCameraManipulator_ab0941443c6f16d74a9a47aea238c47be_cgraph_org.svg" target="_base">
           <rect id="button" ry="5" rx="5" y="6" x="6" height="38" width="38"
                fill="#f2f5e9" fill-opacity="0.5" stroke="#606060" stroke-width="1.0"/>
           <path id="arrow"
             d="M 11.500037,31.436501 C 11.940474,20.09759 22.043105,11.32322 32.158766,21.979434 L 37.068811,17.246167 C 37.068811,17.246167 37.088388,32 37.088388,32 L 22.160133,31.978069 C 22.160133,31.978069 26.997745,27.140456 26.997745,27.140456 C 18.528582,18.264221 13.291696,25.230495 11.500037,31.436501 z"
             style="fill:#404040;"/>
          </a>
         </g>
        </svg>
</svg>
