<?xml version="1.0" encoding="UTF-8" standalone="no"?>
<!DOCTYPE svg PUBLIC "-//W3C//DTD SVG 1.1//EN"
 "http://www.w3.org/Graphics/SVG/1.1/DTD/svg11.dtd">
<!-- Generated by graphviz version 2.43.0 (0)
 -->
<!-- Title: Ra::Engine::BlinnPhongMaterial::registerMaterial Pages: 1 -->
<!--zoomable 284 -->
<svg id="main" version="1.1" xmlns="http://www.w3.org/2000/svg" xmlns:xlink="http://www.w3.org/1999/xlink" xml:space="preserve" onload="init(evt)">
<style type="text/css"><![CDATA[
.edge:hover path { stroke: red; }
.edge:hover polygon { stroke: red; fill: red; }
]]></style>
<script type="text/javascript"><![CDATA[
var edges = document.getElementsByTagName('g');
if (edges && edges.length) {
  for (var i=0;i<edges.length;i++) {
    if (edges[i].id.substr(0,4)=='edge') {
      edges[i].setAttribute('class','edge');
    }
  }
}
]]></script>
        <defs>
                <circle id="rim" cx="0" cy="0" r="7"/>
                <circle id="rim2" cx="0" cy="0" r="3.5"/>
                <g id="zoomPlus">
                        <use xlink:href="#rim" fill="#404040">
                                <set attributeName="fill" to="#808080" begin="zoomplus.mouseover" end="zoomplus.mouseout"/>
                        </use>
                        <path d="M-4,0h8M0,-4v8" fill="none" stroke="white" stroke-width="1.5" pointer-events="none"/>
                </g>
                <g id="zoomMin">
                        <use xlink:href="#rim" fill="#404040">
                                <set attributeName="fill" to="#808080" begin="zoomminus.mouseover" end="zoomminus.mouseout"/>
                        </use>
                        <path d="M-4,0h8" fill="none" stroke="white" stroke-width="1.5" pointer-events="none"/>
                </g>
                <g id="dirArrow">
                        <path fill="none" stroke="white" stroke-width="1.5" d="M0,-3.0v7 M-2.5,-0.5L0,-3.0L2.5,-0.5"/>
                </g>
               <g id="resetDef">
                       <use xlink:href="#rim2" fill="#404040">
                               <set attributeName="fill" to="#808080" begin="reset.mouseover" end="reset.mouseout"/>
                       </use>
               </g>
        </defs>

<script type="text/javascript">
var viewWidth = 625;
var viewHeight = 284;
var sectionId = 'dynsection-3';
</script>
<script xlink:href="svgpan.js"/>
<svg id="graph" class="graph">
<g id="viewport">
<title>Ra::Engine::BlinnPhongMaterial::registerMaterial</title>
<polygon fill="white" stroke="transparent" points="-4,4 -4,-280 621,-280 621,4 -4,4"/>
<!-- Node1 -->
<g id="node1" class="node">
<title>Node1</title>
<g id="a_node1"><a xlink:title=" ">
<polygon fill="#bfbfbf" stroke="black" points="0,-122.5 0,-152.5 170,-152.5 170,-122.5 0,-122.5"/>
<text text-anchor="start" x="8" y="-140.5" font-family="Helvetica,sans-Serif" font-size="10.00">Ra::Engine::BlinnPhongMaterial</text>
<text text-anchor="middle" x="85" y="-129.5" font-family="Helvetica,sans-Serif" font-size="10.00">::registerMaterial</text>
</a>
</g>
</g>
<!-- Node2 -->
<g id="node2" class="node">
<title>Node2</title>
<g id="a_node2"><a xlink:href="namespaceRa_1_1Engine_1_1ShaderConfigurationFactory.html#a36842535508a390108fb1205210a5c49" target="_top" xlink:title=" ">
<polygon fill="white" stroke="black" points="220.5,-245.5 220.5,-275.5 393.5,-275.5 393.5,-245.5 220.5,-245.5"/>
<text text-anchor="start" x="228.5" y="-263.5" font-family="Helvetica,sans-Serif" font-size="10.00">Ra::Engine::ShaderConfiguration</text>
<text text-anchor="middle" x="307" y="-252.5" font-family="Helvetica,sans-Serif" font-size="10.00">Factory::addConfiguration</text>
</a>
</g>
</g>
<!-- Node1&#45;&gt;Node2 -->
<g id="edge1" class="edge">
<title>Node1&#45;&gt;Node2</title>
<path fill="none" stroke="midnightblue" d="M99.95,-152.76C120.84,-174.67 162.5,-214.8 206,-236.5 209.97,-238.48 214.12,-240.3 218.36,-241.98"/>
<polygon fill="midnightblue" stroke="midnightblue" points="217.19,-245.28 227.78,-245.42 219.59,-238.7 217.19,-245.28"/>
</g>
<!-- Node4 -->
<g id="node4" class="node">
<title>Node4</title>
<g id="a_node4"><a xlink:href="namespaceRa_1_1Engine_1_1ShaderConfigurationFactory.html#ad6fe3c60f8f2b9f9f5d8220ffe4d5ba6" target="_top" xlink:title=" ">
<polygon fill="white" stroke="black" points="220.5,-196.5 220.5,-226.5 393.5,-226.5 393.5,-196.5 220.5,-196.5"/>
<text text-anchor="start" x="228.5" y="-214.5" font-family="Helvetica,sans-Serif" font-size="10.00">Ra::Engine::ShaderConfiguration</text>
<text text-anchor="middle" x="307" y="-203.5" font-family="Helvetica,sans-Serif" font-size="10.00">Factory::getConfiguration</text>
</a>
</g>
</g>
<!-- Node1&#45;&gt;Node4 -->
<g id="edge3" class="edge">
<title>Node1&#45;&gt;Node4</title>
<path fill="none" stroke="midnightblue" d="M118.07,-152.5C141.94,-163.27 175.53,-177.57 206,-187.5 212.83,-189.73 219.98,-191.84 227.18,-193.84"/>
<polygon fill="midnightblue" stroke="midnightblue" points="226.45,-197.26 237.01,-196.47 228.26,-190.5 226.45,-197.26"/>
</g>
<!-- Node5 -->
<g id="node5" class="node">
<title>Node5</title>
<g id="a_node5"><a xlink:href="classRa_1_1Engine_1_1BlinnPhongMaterial.html#a1678c886bb86bbab2c951ec6228d0c75" target="_top" xlink:title=" ">
<polygon fill="white" stroke="black" points="222,-147.5 222,-177.5 392,-177.5 392,-147.5 222,-147.5"/>
<text text-anchor="start" x="230" y="-165.5" font-family="Helvetica,sans-Serif" font-size="10.00">Ra::Engine::BlinnPhongMaterial</text>
<text text-anchor="middle" x="307" y="-154.5" font-family="Helvetica,sans-Serif" font-size="10.00">::isTransparent</text>
</a>
</g>
</g>
<!-- Node1&#45;&gt;Node5 -->
<g id="edge4" class="edge">
<title>Node1&#45;&gt;Node5</title>
<path fill="none" stroke="midnightblue" d="M170.11,-147.06C183.78,-148.61 198.01,-150.23 211.9,-151.81"/>
<polygon fill="midnightblue" stroke="midnightblue" points="211.6,-155.3 221.93,-152.95 212.39,-148.34 211.6,-155.3"/>
</g>
<!-- Node7 -->
<g id="node7" class="node">
<title>Node7</title>
<g id="a_node7"><a xlink:href="namespaceRa_1_1Engine_1_1EngineRenderTechniques.html#affc37bf84d5ff81342b5c09587eedc34" target="_top" xlink:title=" ">
<polygon fill="white" stroke="black" points="207.5,-98.5 207.5,-128.5 406.5,-128.5 406.5,-98.5 207.5,-98.5"/>
<text text-anchor="start" x="215.5" y="-116.5" font-family="Helvetica,sans-Serif" font-size="10.00">Ra::Engine::EngineRender</text>
<text text-anchor="middle" x="307" y="-105.5" font-family="Helvetica,sans-Serif" font-size="10.00">Techniques::registerDefaultTechnique</text>
</a>
</g>
</g>
<!-- Node1&#45;&gt;Node7 -->
<g id="edge6" class="edge">
<title>Node1&#45;&gt;Node7</title>
<path fill="none" stroke="midnightblue" d="M170.11,-128.32C178.93,-127.36 187.98,-126.38 197.02,-125.39"/>
<polygon fill="midnightblue" stroke="midnightblue" points="197.64,-128.84 207.2,-124.28 196.88,-121.88 197.64,-128.84"/>
</g>
<!-- Node8 -->
<g id="node8" class="node">
<title>Node8</title>
<g id="a_node8"><a xlink:href="namespaceRa_1_1Engine_1_1EngineMaterialConverters.html#ac79f2e35d9ad3d13a9aa484bdfcf68fa" target="_top" xlink:title=" ">
<polygon fill="white" stroke="black" points="206,-49.5 206,-79.5 408,-79.5 408,-49.5 206,-49.5"/>
<text text-anchor="start" x="214" y="-67.5" font-family="Helvetica,sans-Serif" font-size="10.00">Ra::Engine::EngineMaterial</text>
<text text-anchor="middle" x="307" y="-56.5" font-family="Helvetica,sans-Serif" font-size="10.00">Converters::registerMaterialConverter</text>
</a>
</g>
</g>
<!-- Node1&#45;&gt;Node8 -->
<g id="edge7" class="edge">
<title>Node1&#45;&gt;Node8</title>
<path fill="none" stroke="midnightblue" d="M119.95,-122.49C143.73,-112.33 176.43,-99.06 206,-89.5 213.95,-86.93 222.34,-84.46 230.73,-82.15"/>
<polygon fill="midnightblue" stroke="midnightblue" points="231.8,-85.48 240.55,-79.51 229.98,-78.72 231.8,-85.48"/>
</g>
<!-- Node9 -->
<g id="node9" class="node">
<title>Node9</title>
<g id="a_node9"><a xlink:href="classRa_1_1Engine_1_1RenderTechnique.html#a22298207c6e70a98b829d6c5ead1a8e4" target="_top" xlink:title=" ">
<polygon fill="white" stroke="black" points="228,-0.5 228,-30.5 386,-30.5 386,-0.5 228,-0.5"/>
<text text-anchor="start" x="236" y="-18.5" font-family="Helvetica,sans-Serif" font-size="10.00">Ra::Engine::RenderTechnique</text>
<text text-anchor="middle" x="307" y="-7.5" font-family="Helvetica,sans-Serif" font-size="10.00">::setConfiguration</text>
</a>
</g>
</g>
<!-- Node1&#45;&gt;Node9 -->
<g id="edge8" class="edge">
<title>Node1&#45;&gt;Node9</title>
<path fill="none" stroke="midnightblue" d="M100.39,-122.26C121.51,-100.79 163.08,-61.89 206,-40.5 210.85,-38.08 215.96,-35.88 221.19,-33.89"/>
<polygon fill="midnightblue" stroke="midnightblue" points="222.46,-37.15 230.72,-30.52 220.12,-30.56 222.46,-37.15"/>
</g>
<!-- Node3 -->
<g id="node3" class="node">
<title>Node3</title>
<g id="a_node3"><a xlink:href="classRa_1_1Engine_1_1ShaderConfiguration.html#a6aefbda787e65960237bb9c0cdc0f627" target="_top" xlink:title=" ">
<polygon fill="white" stroke="black" points="444,-245.5 444,-275.5 617,-275.5 617,-245.5 444,-245.5"/>
<text text-anchor="start" x="452" y="-263.5" font-family="Helvetica,sans-Serif" font-size="10.00">Ra::Engine::ShaderConfiguration</text>
<text text-anchor="middle" x="530.5" y="-252.5" font-family="Helvetica,sans-Serif" font-size="10.00">::getName</text>
</a>
</g>
</g>
<!-- Node2&#45;&gt;Node3 -->
<g id="edge2" class="edge">
<title>Node2&#45;&gt;Node3</title>
<path fill="none" stroke="midnightblue" d="M393.64,-260.5C406.73,-260.5 420.33,-260.5 433.62,-260.5"/>
<polygon fill="midnightblue" stroke="midnightblue" points="433.72,-264 443.72,-260.5 433.72,-257 433.72,-264"/>
</g>
<!-- Node6 -->
<g id="node6" class="node">
<title>Node6</title>
<g id="a_node6"><a xlink:href="classRa_1_1Engine_1_1Material.html#acd29ebfbf6457490802a8a01b1c7211c" target="_top" xlink:title=" ">
<polygon fill="white" stroke="black" points="473,-147.5 473,-177.5 588,-177.5 588,-147.5 473,-147.5"/>
<text text-anchor="start" x="481" y="-165.5" font-family="Helvetica,sans-Serif" font-size="10.00">Ra::Engine::Material</text>
<text text-anchor="middle" x="530.5" y="-154.5" font-family="Helvetica,sans-Serif" font-size="10.00">::isTransparent</text>
</a>
</g>
</g>
<!-- Node5&#45;&gt;Node6 -->
<g id="edge5" class="edge">
<title>Node5&#45;&gt;Node6</title>
<path fill="none" stroke="midnightblue" d="M392.06,-162.5C415.51,-162.5 440.66,-162.5 462.96,-162.5"/>
<polygon fill="midnightblue" stroke="midnightblue" points="462.98,-166 472.98,-162.5 462.98,-159 462.98,-166"/>
</g>
<!-- Node10 -->
<g id="node10" class="node">
<title>Node10</title>
<g id="a_node10"><a xlink:href="classRa_1_1Engine_1_1RenderTechnique.html#a49da5c66a13007251db4e1511daf3852" target="_top" xlink:title=" ">
<polygon fill="white" stroke="black" points="451.5,-0.5 451.5,-30.5 609.5,-30.5 609.5,-0.5 451.5,-0.5"/>
<text text-anchor="start" x="459.5" y="-18.5" font-family="Helvetica,sans-Serif" font-size="10.00">Ra::Engine::RenderTechnique</text>
<text text-anchor="middle" x="530.5" y="-7.5" font-family="Helvetica,sans-Serif" font-size="10.00">::setDirty</text>
</a>
</g>
</g>
<!-- Node9&#45;&gt;Node10 -->
<g id="edge9" class="edge">
<title>Node9&#45;&gt;Node10</title>
<path fill="none" stroke="midnightblue" d="M386.09,-15.5C403.96,-15.5 423.07,-15.5 441.33,-15.5"/>
<polygon fill="midnightblue" stroke="midnightblue" points="441.37,-19 451.37,-15.5 441.37,-12 441.37,-19"/>
</g>
</g>
</svg>
        <g id="navigator" transform="translate(0 0)" fill="#404254">
                <rect fill="#f2f5e9" fill-opacity="0.5" stroke="#606060" stroke-width=".5" x="0" y="0" width="60" height="60"/>
                <use id="zoomplus" xlink:href="#zoomPlus" x="17" y="9" onmousedown="handleZoom(evt,'in')"/>
                <use id="zoomminus" xlink:href="#zoomMin" x="42" y="9" onmousedown="handleZoom(evt,'out')"/>
                <use id="reset" xlink:href="#resetDef" x="30" y="36" onmousedown="handleReset()"/>
                <g id="arrowUp" xlink:href="#dirArrow" transform="translate(30 24)" onmousedown="handlePan(0,-1)">
                  <use xlink:href="#rim" fill="#404040">
                        <set attributeName="fill" to="#808080" begin="arrowUp.mouseover" end="arrowUp.mouseout"/>
                  </use>
                  <path fill="none" stroke="white" stroke-width="1.5" d="M0,-3.0v7 M-2.5,-0.5L0,-3.0L2.5,-0.5"/>
                </g>
                <g id="arrowRight" xlink:href="#dirArrow" transform="rotate(90) translate(36 -43)" onmousedown="handlePan(1,0)">
                  <use xlink:href="#rim" fill="#404040">
                        <set attributeName="fill" to="#808080" begin="arrowRight.mouseover" end="arrowRight.mouseout"/>
                  </use>
                  <path fill="none" stroke="white" stroke-width="1.5" d="M0,-3.0v7 M-2.5,-0.5L0,-3.0L2.5,-0.5"/>
                </g>
                <g id="arrowDown" xlink:href="#dirArrow" transform="rotate(180) translate(-30 -48)" onmousedown="handlePan(0,1)">
                  <use xlink:href="#rim" fill="#404040">
                        <set attributeName="fill" to="#808080" begin="arrowDown.mouseover" end="arrowDown.mouseout"/>
                  </use>
                  <path fill="none" stroke="white" stroke-width="1.5" d="M0,-3.0v7 M-2.5,-0.5L0,-3.0L2.5,-0.5"/>
                </g>
                <g id="arrowLeft" xlink:href="#dirArrow" transform="rotate(270) translate(-36 17)" onmousedown="handlePan(-1,0)">
                  <use xlink:href="#rim" fill="#404040">
                        <set attributeName="fill" to="#808080" begin="arrowLeft.mouseover" end="arrowLeft.mouseout"/>
                  </use>
                  <path fill="none" stroke="white" stroke-width="1.5" d="M0,-3.0v7 M-2.5,-0.5L0,-3.0L2.5,-0.5"/>
                </g>
        </g>
        <svg viewBox="0 0 15 15" width="100%" height="30px" preserveAspectRatio="xMaxYMin meet">
         <g id="arrow_out" transform="scale(0.3 0.3)">
          <a xlink:href="classRa_1_1Engine_1_1BlinnPhongMaterial_afddfa0302459dcc502e9a62441d7a87b_cgraph_org.svg" target="_base">
           <rect id="button" ry="5" rx="5" y="6" x="6" height="38" width="38"
                fill="#f2f5e9" fill-opacity="0.5" stroke="#606060" stroke-width="1.0"/>
           <path id="arrow"
             d="M 11.500037,31.436501 C 11.940474,20.09759 22.043105,11.32322 32.158766,21.979434 L 37.068811,17.246167 C 37.068811,17.246167 37.088388,32 37.088388,32 L 22.160133,31.978069 C 22.160133,31.978069 26.997745,27.140456 26.997745,27.140456 C 18.528582,18.264221 13.291696,25.230495 11.500037,31.436501 z"
             style="fill:#404040;"/>
          </a>
         </g>
        </svg>
</svg>
