<?xml version="1.0" encoding="UTF-8" standalone="no"?>
<!DOCTYPE svg PUBLIC "-//W3C//DTD SVG 1.1//EN"
 "http://www.w3.org/Graphics/SVG/1.1/DTD/svg11.dtd">
<!-- Generated by graphviz version 2.43.0 (0)
 -->
<!-- Title: Ra::Gui::TranslateGizmo::TranslateGizmo Pages: 1 -->
<svg width="970pt" height="695pt"
 viewBox="0.00 0.00 970.00 694.50" xmlns="http://www.w3.org/2000/svg" xmlns:xlink="http://www.w3.org/1999/xlink">
<g id="graph0" class="graph" transform="scale(1 1) rotate(0) translate(4 690.5)">
<title>Ra::Gui::TranslateGizmo::TranslateGizmo</title>
<polygon fill="white" stroke="transparent" points="-4,4 -4,-690.5 966,-690.5 966,4 -4,4"/>
<!-- Node1 -->
<g id="node1" class="node">
<title>Node1</title>
<g id="a_node1"><a xlink:title=" ">
<polygon fill="#bfbfbf" stroke="black" points="0,-323 0,-353 134,-353 134,-323 0,-323"/>
<text text-anchor="start" x="8" y="-341" font-family="Helvetica,sans-Serif" font-size="10.00">Ra::Gui::TranslateGizmo</text>
<text text-anchor="middle" x="67" y="-330" font-family="Helvetica,sans-Serif" font-size="10.00">::TranslateGizmo</text>
</a>
</g>
</g>
<!-- Node2 -->
<g id="node2" class="node">
<title>Node2</title>
<g id="a_node2"><a xlink:href="classRa_1_1Gui_1_1Gizmo.html#a1de8fbf60b72d5909b8467c973381a28" target="_top" xlink:title="add a render object to display the Gizmo">
<polygon fill="white" stroke="black" points="174.5,-656 174.5,-686 322.5,-686 322.5,-656 174.5,-656"/>
<text text-anchor="start" x="182.5" y="-674" font-family="Helvetica,sans-Serif" font-size="10.00">Ra::Gui::Gizmo::addRender</text>
<text text-anchor="middle" x="248.5" y="-663" font-family="Helvetica,sans-Serif" font-size="10.00">Object</text>
</a>
</g>
</g>
<!-- Node1&#45;&gt;Node2 -->
<g id="edge1" class="edge">
<title>Node1&#45;&gt;Node2</title>
<path fill="none" stroke="midnightblue" d="M68.35,-353.04C70.35,-402.54 83.52,-562.11 170,-647 171.1,-648.08 172.25,-649.11 173.43,-650.09"/>
<polygon fill="midnightblue" stroke="midnightblue" points="171.61,-653.09 181.82,-655.94 175.62,-647.35 171.61,-653.09"/>
</g>
<!-- Node5 -->
<g id="node5" class="node">
<title>Node5</title>
<g id="a_node5"><a xlink:href="classRa_1_1Core_1_1Geometry_1_1IndexedGeometry.html#a911ec504149568146f3371aa357c1ab9" target="_top" xlink:title=" ">
<polygon fill="white" stroke="black" points="173,-607 173,-637 324,-637 324,-607 173,-607"/>
<text text-anchor="start" x="181" y="-625" font-family="Helvetica,sans-Serif" font-size="10.00">Ra::Core::Geometry</text>
<text text-anchor="middle" x="248.5" y="-614" font-family="Helvetica,sans-Serif" font-size="10.00">::IndexedGeometry::append</text>
</a>
</g>
</g>
<!-- Node1&#45;&gt;Node5 -->
<g id="edge4" class="edge">
<title>Node1&#45;&gt;Node5</title>
<path fill="none" stroke="midnightblue" d="M69.86,-353.17C75.96,-396.48 99.16,-522.05 170,-592 173.75,-595.71 178.02,-598.97 182.56,-601.83"/>
<polygon fill="midnightblue" stroke="midnightblue" points="181.17,-605.06 191.61,-606.87 184.57,-598.94 181.17,-605.06"/>
</g>
<!-- Node6 -->
<g id="node6" class="node">
<title>Node6</title>
<g id="a_node6"><a xlink:href="namespaceRa_1_1Core_1_1Geometry.html#a7c1802d8c6d3122f1f7316e0ab1efa33" target="_top" xlink:title=" ">
<polygon fill="white" stroke="black" points="192,-274 192,-304 305,-304 305,-274 192,-274"/>
<text text-anchor="start" x="200" y="-292" font-family="Helvetica,sans-Serif" font-size="10.00">Ra::Core::Geometry</text>
<text text-anchor="middle" x="248.5" y="-281" font-family="Helvetica,sans-Serif" font-size="10.00">::makeCone</text>
</a>
</g>
</g>
<!-- Node1&#45;&gt;Node6 -->
<g id="edge5" class="edge">
<title>Node1&#45;&gt;Node6</title>
<path fill="none" stroke="midnightblue" d="M123.32,-322.9C142.09,-317.77 163.23,-312 182.67,-306.7"/>
<polygon fill="midnightblue" stroke="midnightblue" points="183.64,-310.06 192.36,-304.05 181.79,-303.31 183.64,-310.06"/>
</g>
<!-- Node21 -->
<g id="node21" class="node">
<title>Node21</title>
<g id="a_node21"><a xlink:href="namespaceRa_1_1Core_1_1Geometry.html#a74a11ca06c2edbf3724842ed69b6e58b" target="_top" xlink:title=" ">
<polygon fill="white" stroke="black" points="192,-323 192,-353 305,-353 305,-323 192,-323"/>
<text text-anchor="start" x="200" y="-341" font-family="Helvetica,sans-Serif" font-size="10.00">Ra::Core::Geometry</text>
<text text-anchor="middle" x="248.5" y="-330" font-family="Helvetica,sans-Serif" font-size="10.00">::makeCylinder</text>
</a>
</g>
</g>
<!-- Node1&#45;&gt;Node21 -->
<g id="edge24" class="edge">
<title>Node1&#45;&gt;Node21</title>
<path fill="none" stroke="midnightblue" d="M134.07,-338C149.65,-338 166.26,-338 181.82,-338"/>
<polygon fill="midnightblue" stroke="midnightblue" points="181.88,-341.5 191.88,-338 181.88,-334.5 181.88,-341.5"/>
</g>
<!-- Node22 -->
<g id="node22" class="node">
<title>Node22</title>
<g id="a_node22"><a xlink:href="namespaceRa_1_1Core_1_1Geometry.html#a9f66e13e9a53313225543f2f1abcda8e" target="_top" xlink:title="Create a 2D grid mesh with given number of row and columns.">
<polygon fill="white" stroke="black" points="192,-372 192,-402 305,-402 305,-372 192,-372"/>
<text text-anchor="start" x="200" y="-390" font-family="Helvetica,sans-Serif" font-size="10.00">Ra::Core::Geometry</text>
<text text-anchor="middle" x="248.5" y="-379" font-family="Helvetica,sans-Serif" font-size="10.00">::makePlaneGrid</text>
</a>
</g>
</g>
<!-- Node1&#45;&gt;Node22 -->
<g id="edge32" class="edge">
<title>Node1&#45;&gt;Node22</title>
<path fill="none" stroke="midnightblue" d="M123.32,-353.1C142.09,-358.23 163.23,-364 182.67,-369.3"/>
<polygon fill="midnightblue" stroke="midnightblue" points="181.79,-372.69 192.36,-371.95 183.64,-365.94 181.79,-372.69"/>
</g>
<!-- Node24 -->
<g id="node24" class="node">
<title>Node24</title>
<g id="a_node24"><a xlink:href="classRa_1_1Gui_1_1Gizmo.html#aff3c8a79b3f5994f7ee38a49ac9bdf37" target="_top" xlink:title=" ">
<polygon fill="white" stroke="black" points="170,-225 170,-255 327,-255 327,-225 170,-225"/>
<text text-anchor="start" x="178" y="-243" font-family="Helvetica,sans-Serif" font-size="10.00">Ra::Gui::Gizmo::makeRender</text>
<text text-anchor="middle" x="248.5" y="-232" font-family="Helvetica,sans-Serif" font-size="10.00">Technique</text>
</a>
</g>
</g>
<!-- Node1&#45;&gt;Node24 -->
<g id="edge39" class="edge">
<title>Node1&#45;&gt;Node24</title>
<path fill="none" stroke="midnightblue" d="M85.69,-322.72C105.21,-306.51 138.1,-281.07 170,-265 174.35,-262.81 178.93,-260.76 183.6,-258.84"/>
<polygon fill="midnightblue" stroke="midnightblue" points="185.2,-261.98 193.27,-255.11 182.68,-255.44 185.2,-261.98"/>
</g>
<!-- Node26 -->
<g id="node26" class="node">
<title>Node26</title>
<g id="a_node26"><a xlink:href="classRa_1_1Core_1_1Geometry_1_1AttribArrayGeometry.html#a71452620a83df6e6f6b995a503dc8a52" target="_top" xlink:title="Release lock on vertices normals.">
<polygon fill="white" stroke="black" points="620.5,-555.5 620.5,-596.5 745.5,-596.5 745.5,-555.5 620.5,-555.5"/>
<text text-anchor="start" x="628.5" y="-584.5" font-family="Helvetica,sans-Serif" font-size="10.00">Ra::Core::Geometry</text>
<text text-anchor="start" x="628.5" y="-573.5" font-family="Helvetica,sans-Serif" font-size="10.00">::AttribArrayGeometry</text>
<text text-anchor="middle" x="683" y="-562.5" font-family="Helvetica,sans-Serif" font-size="10.00">::normalsUnlock</text>
</a>
</g>
</g>
<!-- Node1&#45;&gt;Node26 -->
<g id="edge41" class="edge">
<title>Node1&#45;&gt;Node26</title>
<path fill="none" stroke="midnightblue" d="M74.84,-353.43C88.6,-382.69 122.4,-446.39 170,-481 302.46,-577.31 503.84,-584.89 610.27,-581.08"/>
<polygon fill="midnightblue" stroke="midnightblue" points="610.41,-584.58 620.27,-580.68 610.13,-577.59 610.41,-584.58"/>
</g>
<!-- Node27 -->
<g id="node27" class="node">
<title>Node27</title>
<g id="a_node27"><a xlink:href="classRa_1_1Core_1_1Geometry_1_1AttribArrayGeometry.html#a365e4d1e66fb093b775a17562408126c" target="_top" xlink:title=" ">
<polygon fill="white" stroke="black" points="620.5,-494.5 620.5,-535.5 745.5,-535.5 745.5,-494.5 620.5,-494.5"/>
<text text-anchor="start" x="628.5" y="-523.5" font-family="Helvetica,sans-Serif" font-size="10.00">Ra::Core::Geometry</text>
<text text-anchor="start" x="628.5" y="-512.5" font-family="Helvetica,sans-Serif" font-size="10.00">::AttribArrayGeometry</text>
<text text-anchor="middle" x="683" y="-501.5" font-family="Helvetica,sans-Serif" font-size="10.00">::normalsWithLock</text>
</a>
</g>
</g>
<!-- Node1&#45;&gt;Node27 -->
<g id="edge43" class="edge">
<title>Node1&#45;&gt;Node27</title>
<path fill="none" stroke="midnightblue" d="M84.23,-353.16C126.22,-391.14 243.51,-489.59 363,-521 445.63,-542.72 544.5,-536.09 610.04,-527.39"/>
<polygon fill="midnightblue" stroke="midnightblue" points="610.83,-530.81 620.26,-525.97 609.88,-523.87 610.83,-530.81"/>
</g>
<!-- Node28 -->
<g id="node28" class="node">
<title>Node28</title>
<g id="a_node28"><a xlink:href="classRa_1_1Engine_1_1RenderObject.html#a16ca652d9af3c2bbe6f5aa04643f8800" target="_top" xlink:title=" ">
<polygon fill="white" stroke="black" points="178.5,-176 178.5,-206 318.5,-206 318.5,-176 178.5,-176"/>
<text text-anchor="start" x="186.5" y="-194" font-family="Helvetica,sans-Serif" font-size="10.00">Ra::Engine::RenderObject</text>
<text text-anchor="middle" x="248.5" y="-183" font-family="Helvetica,sans-Serif" font-size="10.00">::setMesh</text>
</a>
</g>
</g>
<!-- Node1&#45;&gt;Node28 -->
<g id="edge45" class="edge">
<title>Node1&#45;&gt;Node28</title>
<path fill="none" stroke="midnightblue" d="M76.66,-322.89C92.13,-297.21 126.97,-245.02 170,-216 173.05,-213.94 176.28,-212.05 179.63,-210.3"/>
<polygon fill="midnightblue" stroke="midnightblue" points="181.15,-213.45 188.7,-206.01 178.16,-207.12 181.15,-213.45"/>
</g>
<!-- Node29 -->
<g id="node29" class="node">
<title>Node29</title>
<g id="a_node29"><a xlink:href="classRa_1_1Engine_1_1RenderObject.html#a6fe6a73063c5cf048f2660857d6cbaa8" target="_top" xlink:title=" ">
<polygon fill="white" stroke="black" points="178.5,-127 178.5,-157 318.5,-157 318.5,-127 178.5,-127"/>
<text text-anchor="start" x="186.5" y="-145" font-family="Helvetica,sans-Serif" font-size="10.00">Ra::Engine::RenderObject</text>
<text text-anchor="middle" x="248.5" y="-134" font-family="Helvetica,sans-Serif" font-size="10.00">::setRenderTechnique</text>
</a>
</g>
</g>
<!-- Node1&#45;&gt;Node29 -->
<g id="edge46" class="edge">
<title>Node1&#45;&gt;Node29</title>
<path fill="none" stroke="midnightblue" d="M72.83,-322.97C84.24,-289.81 116.05,-209.96 170,-167 172.28,-165.18 174.7,-163.5 177.21,-161.93"/>
<polygon fill="midnightblue" stroke="midnightblue" points="179.01,-164.94 186.09,-157.07 175.64,-158.8 179.01,-164.94"/>
</g>
<!-- Node30 -->
<g id="node30" class="node">
<title>Node30</title>
<g id="a_node30"><a xlink:href="classRa_1_1Gui_1_1TranslateGizmo.html#a5a100607ad14934626008ba6222a4563" target="_top" xlink:title="Called every time the underlying transform may have changed.">
<polygon fill="white" stroke="black" points="181.5,-33 181.5,-63 315.5,-63 315.5,-33 181.5,-33"/>
<text text-anchor="start" x="189.5" y="-51" font-family="Helvetica,sans-Serif" font-size="10.00">Ra::Gui::TranslateGizmo</text>
<text text-anchor="middle" x="248.5" y="-40" font-family="Helvetica,sans-Serif" font-size="10.00">::updateTransform</text>
</a>
</g>
</g>
<!-- Node1&#45;&gt;Node30 -->
<g id="edge47" class="edge">
<title>Node1&#45;&gt;Node30</title>
<path fill="none" stroke="midnightblue" d="M72.7,-322.74C84.7,-285.3 119.17,-186.96 170,-118 183.65,-99.48 202.81,-82.12 218.66,-69.33"/>
<polygon fill="midnightblue" stroke="midnightblue" points="220.91,-72.01 226.6,-63.07 216.58,-66.51 220.91,-72.01"/>
</g>
<!-- Node3 -->
<g id="node3" class="node">
<title>Node3</title>
<g id="a_node3"><a xlink:href="classRa_1_1Engine_1_1Component.html#aea20d8186eb969b255cd83218a809178" target="_top" xlink:title="Add a new render object to the component. This adds the RO to the manager for drawing.">
<polygon fill="white" stroke="black" points="399,-656 399,-686 530,-686 530,-656 399,-656"/>
<text text-anchor="start" x="407" y="-674" font-family="Helvetica,sans-Serif" font-size="10.00">Ra::Engine::Component</text>
<text text-anchor="middle" x="464.5" y="-663" font-family="Helvetica,sans-Serif" font-size="10.00">::addRenderObject</text>
</a>
</g>
</g>
<!-- Node2&#45;&gt;Node3 -->
<g id="edge2" class="edge">
<title>Node2&#45;&gt;Node3</title>
<path fill="none" stroke="midnightblue" d="M322.55,-671C343.87,-671 367.2,-671 388.64,-671"/>
<polygon fill="midnightblue" stroke="midnightblue" points="388.66,-674.5 398.66,-671 388.66,-667.5 388.66,-674.5"/>
</g>
<!-- Node4 -->
<g id="node4" class="node">
<title>Node4</title>
<g id="a_node4"><a xlink:href="classRa_1_1Engine_1_1Component.html#a10b0bc182b76165744ebea603ae32dfe" target="_top" xlink:title="Shortcut to access the render object manager.">
<polygon fill="white" stroke="black" points="617.5,-656 617.5,-686 748.5,-686 748.5,-656 617.5,-656"/>
<text text-anchor="start" x="625.5" y="-674" font-family="Helvetica,sans-Serif" font-size="10.00">Ra::Engine::Component</text>
<text text-anchor="middle" x="683" y="-663" font-family="Helvetica,sans-Serif" font-size="10.00">::getRoMgr</text>
</a>
</g>
</g>
<!-- Node3&#45;&gt;Node4 -->
<g id="edge3" class="edge">
<title>Node3&#45;&gt;Node4</title>
<path fill="none" stroke="midnightblue" d="M530.16,-671C554.37,-671 582.06,-671 607.11,-671"/>
<polygon fill="midnightblue" stroke="midnightblue" points="607.3,-674.5 617.3,-671 607.3,-667.5 607.3,-674.5"/>
</g>
<!-- Node7 -->
<g id="node7" class="node">
<title>Node7</title>
<g id="a_node7"><a xlink:href="classRa_1_1Core_1_1Geometry_1_1IndexedGeometry.html#a927f636cf0698e637cc23e2f7f012a48" target="_top" xlink:title=" ">
<polygon fill="white" stroke="black" points="363,-274 363,-304 566,-304 566,-274 363,-274"/>
<text text-anchor="start" x="371" y="-292" font-family="Helvetica,sans-Serif" font-size="10.00">Ra::Core::Geometry</text>
<text text-anchor="middle" x="464.5" y="-281" font-family="Helvetica,sans-Serif" font-size="10.00">::IndexedGeometry::checkConsistency</text>
</a>
</g>
</g>
<!-- Node6&#45;&gt;Node7 -->
<g id="edge6" class="edge">
<title>Node6&#45;&gt;Node7</title>
<path fill="none" stroke="midnightblue" d="M305.17,-289C319.83,-289 336.18,-289 352.66,-289"/>
<polygon fill="midnightblue" stroke="midnightblue" points="352.92,-292.5 362.92,-289 352.92,-285.5 352.92,-292.5"/>
</g>
<!-- Node8 -->
<g id="node8" class="node">
<title>Node8</title>
<g id="a_node8"><a xlink:href="classRa_1_1Core_1_1Geometry_1_1AttribArrayGeometry.html#a3a3a1458f93f23c7c8663bc3d52f7841" target="_top" xlink:title=" ">
<polygon fill="white" stroke="black" points="402,-432.5 402,-473.5 527,-473.5 527,-432.5 402,-432.5"/>
<text text-anchor="start" x="410" y="-461.5" font-family="Helvetica,sans-Serif" font-size="10.00">Ra::Core::Geometry</text>
<text text-anchor="start" x="410" y="-450.5" font-family="Helvetica,sans-Serif" font-size="10.00">::AttribArrayGeometry</text>
<text text-anchor="middle" x="464.5" y="-439.5" font-family="Helvetica,sans-Serif" font-size="10.00">::colorize</text>
</a>
</g>
</g>
<!-- Node6&#45;&gt;Node8 -->
<g id="edge7" class="edge">
<title>Node6&#45;&gt;Node8</title>
<path fill="none" stroke="midnightblue" d="M305.24,-299.84C313.28,-303.32 320.88,-307.92 327,-314 363.2,-349.95 326.41,-387.45 363,-423 371.23,-431 381.5,-436.88 392.31,-441.19"/>
<polygon fill="midnightblue" stroke="midnightblue" points="391.31,-444.55 401.91,-444.6 393.66,-437.96 391.31,-444.55"/>
</g>
<!-- Node12 -->
<g id="node12" class="node">
<title>Node12</title>
<g id="a_node12"><a xlink:href="namespaceRa_1_1Core_1_1Math.html#a4f441ac6a56092d52849a4f48e274aa8" target="_top" xlink:title=" ">
<polygon fill="white" stroke="black" points="409,-175.5 409,-194.5 520,-194.5 520,-175.5 409,-175.5"/>
<text text-anchor="middle" x="464.5" y="-182.5" font-family="Helvetica,sans-Serif" font-size="10.00">Ra::Core::Math::cos</text>
</a>
</g>
</g>
<!-- Node6&#45;&gt;Node12 -->
<g id="edge12" class="edge">
<title>Node6&#45;&gt;Node12</title>
<path fill="none" stroke="midnightblue" d="M305.37,-277.23C313.11,-274.07 320.59,-270.07 327,-265 351.69,-245.48 337.24,-222.09 363,-204 373.49,-196.63 386.06,-191.91 398.7,-188.92"/>
<polygon fill="midnightblue" stroke="midnightblue" points="399.7,-192.29 408.81,-186.89 398.32,-185.43 399.7,-192.29"/>
</g>
<!-- Node13 -->
<g id="node13" class="node">
<title>Node13</title>
<g id="a_node13"><a xlink:href="namespaceRa_1_1Core_1_1Math.html#a5f25a31a29b0688e349dc35a353b9766" target="_top" xlink:title=" ">
<polygon fill="white" stroke="black" points="382.5,-126 382.5,-156 546.5,-156 546.5,-126 382.5,-126"/>
<text text-anchor="start" x="390.5" y="-144" font-family="Helvetica,sans-Serif" font-size="10.00">Ra::Core::Math::getOrthogonal</text>
<text text-anchor="middle" x="464.5" y="-133" font-family="Helvetica,sans-Serif" font-size="10.00">Vectors</text>
</a>
</g>
</g>
<!-- Node6&#45;&gt;Node13 -->
<g id="edge13" class="edge">
<title>Node6&#45;&gt;Node13</title>
<path fill="none" stroke="midnightblue" d="M305.07,-278.75C313.12,-275.39 320.78,-270.93 327,-265 360.9,-232.71 328.2,-197.32 363,-166 366.23,-163.09 369.75,-160.51 373.47,-158.22"/>
<polygon fill="midnightblue" stroke="midnightblue" points="375.33,-161.19 382.49,-153.38 372.02,-155.02 375.33,-161.19"/>
</g>
<!-- Node16 -->
<g id="node16" class="node">
<title>Node16</title>
<g id="a_node16"><a xlink:href="classRa_1_1Core_1_1Geometry_1_1IndexedGeometry.html#ad1fc6b57b469ef12d14f677852b8f2a8" target="_top" xlink:title=" ">
<polygon fill="white" stroke="black" points="382.5,-323 382.5,-353 546.5,-353 546.5,-323 382.5,-323"/>
<text text-anchor="start" x="390.5" y="-341" font-family="Helvetica,sans-Serif" font-size="10.00">Ra::Core::Geometry</text>
<text text-anchor="middle" x="464.5" y="-330" font-family="Helvetica,sans-Serif" font-size="10.00">::IndexedGeometry::setIndices</text>
</a>
</g>
</g>
<!-- Node6&#45;&gt;Node16 -->
<g id="edge16" class="edge">
<title>Node6&#45;&gt;Node16</title>
<path fill="none" stroke="midnightblue" d="M305.17,-301.75C330.43,-307.53 360.68,-314.46 387.95,-320.7"/>
<polygon fill="midnightblue" stroke="midnightblue" points="387.32,-324.15 397.85,-322.97 388.88,-317.32 387.32,-324.15"/>
</g>
<!-- Node17 -->
<g id="node17" class="node">
<title>Node17</title>
<g id="a_node17"><a xlink:href="classRa_1_1Core_1_1Geometry_1_1AttribArrayGeometry.html#a646faabae9b936589fe03d8a9d2002e9" target="_top" xlink:title="Set normals.">
<polygon fill="white" stroke="black" points="402,-213.5 402,-254.5 527,-254.5 527,-213.5 402,-213.5"/>
<text text-anchor="start" x="410" y="-242.5" font-family="Helvetica,sans-Serif" font-size="10.00">Ra::Core::Geometry</text>
<text text-anchor="start" x="410" y="-231.5" font-family="Helvetica,sans-Serif" font-size="10.00">::AttribArrayGeometry</text>
<text text-anchor="middle" x="464.5" y="-220.5" font-family="Helvetica,sans-Serif" font-size="10.00">::setNormals</text>
</a>
</g>
</g>
<!-- Node6&#45;&gt;Node17 -->
<g id="edge17" class="edge">
<title>Node6&#45;&gt;Node17</title>
<path fill="none" stroke="midnightblue" d="M305.17,-274.69C331.64,-267.89 363.62,-259.67 391.88,-252.41"/>
<polygon fill="midnightblue" stroke="midnightblue" points="392.89,-255.76 401.7,-249.88 391.15,-248.98 392.89,-255.76"/>
</g>
<!-- Node20 -->
<g id="node20" class="node">
<title>Node20</title>
<g id="a_node20"><a xlink:href="classRa_1_1Core_1_1Geometry_1_1AttribArrayGeometry.html#a887411177386edbcdc35d0c6bf78a83a" target="_top" xlink:title="Set vertices.">
<polygon fill="white" stroke="black" points="402,-372.5 402,-413.5 527,-413.5 527,-372.5 402,-372.5"/>
<text text-anchor="start" x="410" y="-401.5" font-family="Helvetica,sans-Serif" font-size="10.00">Ra::Core::Geometry</text>
<text text-anchor="start" x="410" y="-390.5" font-family="Helvetica,sans-Serif" font-size="10.00">::AttribArrayGeometry</text>
<text text-anchor="middle" x="464.5" y="-379.5" font-family="Helvetica,sans-Serif" font-size="10.00">::setVertices</text>
</a>
</g>
</g>
<!-- Node6&#45;&gt;Node20 -->
<g id="edge21" class="edge">
<title>Node6&#45;&gt;Node20</title>
<path fill="none" stroke="midnightblue" d="M305.33,-302.29C312.99,-305.43 320.46,-309.29 327,-314 348.92,-329.8 340.91,-347.44 363,-363 371.83,-369.22 381.97,-374.17 392.33,-378.1"/>
<polygon fill="midnightblue" stroke="midnightblue" points="391.29,-381.44 401.88,-381.44 393.59,-374.84 391.29,-381.44"/>
</g>
<!-- Node9 -->
<g id="node9" class="node">
<title>Node9</title>
<g id="a_node9"><a xlink:href="classRa_1_1Core_1_1Geometry_1_1AttribArrayGeometry.html#aeb68d9cd8cf8c1e05886a23f0ad33c59" target="_top" xlink:title=" ">
<polygon fill="white" stroke="black" points="620.5,-433.5 620.5,-474.5 745.5,-474.5 745.5,-433.5 620.5,-433.5"/>
<text text-anchor="start" x="628.5" y="-462.5" font-family="Helvetica,sans-Serif" font-size="10.00">Ra::Core::Geometry</text>
<text text-anchor="start" x="628.5" y="-451.5" font-family="Helvetica,sans-Serif" font-size="10.00">::AttribArrayGeometry</text>
<text text-anchor="middle" x="683" y="-440.5" font-family="Helvetica,sans-Serif" font-size="10.00">::getAttrib</text>
</a>
</g>
</g>
<!-- Node8&#45;&gt;Node9 -->
<g id="edge8" class="edge">
<title>Node8&#45;&gt;Node9</title>
<path fill="none" stroke="midnightblue" d="M527.25,-453.29C553.07,-453.4 583.25,-453.54 610.07,-453.67"/>
<polygon fill="midnightblue" stroke="midnightblue" points="610.15,-457.17 620.17,-453.71 610.18,-450.17 610.15,-457.17"/>
</g>
<!-- Node11 -->
<g id="node11" class="node">
<title>Node11</title>
<g id="a_node11"><a xlink:href="classRa_1_1Core_1_1Geometry_1_1AttribArrayGeometry.html#acabe05880d71a8dc4406964c258fff5a" target="_top" xlink:title="Access the vertices positions.">
<polygon fill="white" stroke="black" points="620.5,-373.5 620.5,-414.5 745.5,-414.5 745.5,-373.5 620.5,-373.5"/>
<text text-anchor="start" x="628.5" y="-402.5" font-family="Helvetica,sans-Serif" font-size="10.00">Ra::Core::Geometry</text>
<text text-anchor="start" x="628.5" y="-391.5" font-family="Helvetica,sans-Serif" font-size="10.00">::AttribArrayGeometry</text>
<text text-anchor="middle" x="683" y="-380.5" font-family="Helvetica,sans-Serif" font-size="10.00">::vertices</text>
</a>
</g>
</g>
<!-- Node8&#45;&gt;Node11 -->
<g id="edge10" class="edge">
<title>Node8&#45;&gt;Node11</title>
<path fill="none" stroke="midnightblue" d="M527.25,-436.17C553.19,-429.1 583.52,-420.84 610.42,-413.51"/>
<polygon fill="midnightblue" stroke="midnightblue" points="611.44,-416.86 620.17,-410.85 609.6,-410.1 611.44,-416.86"/>
</g>
<!-- Node10 -->
<g id="node10" class="node">
<title>Node10</title>
<g id="a_node10"><a xlink:href="classRa_1_1Core_1_1Utils_1_1AttribManager.html#ae0cb7281ec72606a5392602b4ea50d2c" target="_top" xlink:title=" ">
<polygon fill="white" stroke="black" points="800,-439 800,-469 962,-469 962,-439 800,-439"/>
<text text-anchor="start" x="808" y="-457" font-family="Helvetica,sans-Serif" font-size="10.00">Ra::Core::Utils::AttribManager</text>
<text text-anchor="middle" x="881" y="-446" font-family="Helvetica,sans-Serif" font-size="10.00">::getAttrib</text>
</a>
</g>
</g>
<!-- Node9&#45;&gt;Node10 -->
<g id="edge9" class="edge">
<title>Node9&#45;&gt;Node10</title>
<path fill="none" stroke="midnightblue" d="M745.75,-454C759.7,-454 774.79,-454 789.64,-454"/>
<polygon fill="midnightblue" stroke="midnightblue" points="789.87,-457.5 799.87,-454 789.87,-450.5 789.87,-457.5"/>
</g>
<!-- Node11&#45;&gt;Node10 -->
<g id="edge11" class="edge">
<title>Node11&#45;&gt;Node10</title>
<path fill="none" stroke="midnightblue" d="M745.75,-412.9C769.91,-420.3 797.49,-428.74 821.35,-436.05"/>
<polygon fill="midnightblue" stroke="midnightblue" points="820.39,-439.41 830.98,-438.99 822.44,-432.72 820.39,-439.41"/>
</g>
<!-- Node14 -->
<g id="node14" class="node">
<title>Node14</title>
<g id="a_node14"><a xlink:href="namespaceRa_1_1Core_1_1Math.html#a90f0fe9079f5bb86c721ea4b61738470" target="_top" xlink:title="Returns the sign of any numeric type as { &#45;1, 0, 1}.">
<polygon fill="white" stroke="black" points="625.5,-131.5 625.5,-150.5 740.5,-150.5 740.5,-131.5 625.5,-131.5"/>
<text text-anchor="middle" x="683" y="-138.5" font-family="Helvetica,sans-Serif" font-size="10.00">Ra::Core::Math::sign</text>
</a>
</g>
</g>
<!-- Node13&#45;&gt;Node14 -->
<g id="edge14" class="edge">
<title>Node13&#45;&gt;Node14</title>
<path fill="none" stroke="midnightblue" d="M546.73,-141C569.31,-141 593.57,-141 615.22,-141"/>
<polygon fill="midnightblue" stroke="midnightblue" points="615.29,-144.5 625.29,-141 615.29,-137.5 615.29,-144.5"/>
</g>
<!-- Node15 -->
<g id="node15" class="node">
<title>Node15</title>
<g id="a_node15"><a xlink:href="namespaceRa_1_1Core_1_1Math.html#a1e6a5327cb1c73b29e0c6539576d02b0" target="_top" xlink:title=" ">
<polygon fill="white" stroke="black" points="815.5,-131.5 815.5,-150.5 946.5,-150.5 946.5,-131.5 815.5,-131.5"/>
<text text-anchor="middle" x="881" y="-138.5" font-family="Helvetica,sans-Serif" font-size="10.00">Ra::Core::Math::signum</text>
</a>
</g>
</g>
<!-- Node14&#45;&gt;Node15 -->
<g id="edge15" class="edge">
<title>Node14&#45;&gt;Node15</title>
<path fill="none" stroke="midnightblue" d="M740.69,-141C760.8,-141 783.74,-141 805.13,-141"/>
<polygon fill="midnightblue" stroke="midnightblue" points="805.16,-144.5 815.16,-141 805.16,-137.5 805.16,-144.5"/>
</g>
<!-- Node18 -->
<g id="node18" class="node">
<title>Node18</title>
<g id="a_node18"><a xlink:href="classRa_1_1Core_1_1Geometry_1_1AttribArrayGeometry.html#abfd2320cb73c0cb14805c234af594b5e" target="_top" xlink:title="Access the vertices normals.">
<polygon fill="white" stroke="black" points="620.5,-227.5 620.5,-268.5 745.5,-268.5 745.5,-227.5 620.5,-227.5"/>
<text text-anchor="start" x="628.5" y="-256.5" font-family="Helvetica,sans-Serif" font-size="10.00">Ra::Core::Geometry</text>
<text text-anchor="start" x="628.5" y="-245.5" font-family="Helvetica,sans-Serif" font-size="10.00">::AttribArrayGeometry</text>
<text text-anchor="middle" x="683" y="-234.5" font-family="Helvetica,sans-Serif" font-size="10.00">::normals</text>
</a>
</g>
</g>
<!-- Node17&#45;&gt;Node18 -->
<g id="edge18" class="edge">
<title>Node17&#45;&gt;Node18</title>
<path fill="none" stroke="midnightblue" d="M527.25,-237.99C553.07,-239.66 583.25,-241.61 610.07,-243.35"/>
<polygon fill="midnightblue" stroke="midnightblue" points="609.96,-246.85 620.17,-244 610.41,-239.86 609.96,-246.85"/>
</g>
<!-- Node19 -->
<g id="node19" class="node">
<title>Node19</title>
<g id="a_node19"><a xlink:href="classRa_1_1Core_1_1Utils_1_1AttribManager.html#a056b7697cfbedd6b20dde6ce7955094e" target="_top" xlink:title=" ">
<polygon fill="white" stroke="black" points="602,-312 602,-342 764,-342 764,-312 602,-312"/>
<text text-anchor="start" x="610" y="-330" font-family="Helvetica,sans-Serif" font-size="10.00">Ra::Core::Utils::AttribManager</text>
<text text-anchor="middle" x="683" y="-319" font-family="Helvetica,sans-Serif" font-size="10.00">::setAttrib</text>
</a>
</g>
</g>
<!-- Node17&#45;&gt;Node19 -->
<g id="edge20" class="edge">
<title>Node17&#45;&gt;Node19</title>
<path fill="none" stroke="midnightblue" d="M527.02,-250.93C540.05,-255.08 553.61,-259.84 566,-265 594.53,-276.89 625.32,-293.54 648,-306.59"/>
<polygon fill="midnightblue" stroke="midnightblue" points="646.48,-309.76 656.89,-311.76 650,-303.71 646.48,-309.76"/>
</g>
<!-- Node18&#45;&gt;Node10 -->
<g id="edge19" class="edge">
<title>Node18&#45;&gt;Node10</title>
<path fill="none" stroke="midnightblue" d="M718.86,-268.55C733.58,-278.07 750.43,-290.12 764,-303 805.91,-342.76 844.66,-398.6 865.03,-430.04"/>
<polygon fill="midnightblue" stroke="midnightblue" points="862.17,-432.06 870.51,-438.6 868.06,-428.29 862.17,-432.06"/>
</g>
<!-- Node20&#45;&gt;Node11 -->
<g id="edge23" class="edge">
<title>Node20&#45;&gt;Node11</title>
<path fill="none" stroke="midnightblue" d="M527.25,-393.29C553.07,-393.4 583.25,-393.54 610.07,-393.67"/>
<polygon fill="midnightblue" stroke="midnightblue" points="610.15,-397.17 620.17,-393.71 610.18,-390.17 610.15,-397.17"/>
</g>
<!-- Node20&#45;&gt;Node19 -->
<g id="edge22" class="edge">
<title>Node20&#45;&gt;Node19</title>
<path fill="none" stroke="midnightblue" d="M527.18,-374.7C540.02,-370.86 553.46,-366.82 566,-363 584.98,-357.22 605.68,-350.83 624.27,-345.05"/>
<polygon fill="midnightblue" stroke="midnightblue" points="625.55,-348.32 634.06,-342 623.48,-341.63 625.55,-348.32"/>
</g>
<!-- Node21&#45;&gt;Node7 -->
<g id="edge25" class="edge">
<title>Node21&#45;&gt;Node7</title>
<path fill="none" stroke="midnightblue" d="M305.17,-325.25C330.43,-319.47 360.68,-312.54 387.95,-306.3"/>
<polygon fill="midnightblue" stroke="midnightblue" points="388.88,-309.68 397.85,-304.03 387.32,-302.85 388.88,-309.68"/>
</g>
<!-- Node21&#45;&gt;Node8 -->
<g id="edge26" class="edge">
<title>Node21&#45;&gt;Node8</title>
<path fill="none" stroke="midnightblue" d="M305.34,-350.58C313.09,-353.83 320.58,-357.9 327,-363 351.35,-382.34 338.44,-403.93 363,-423 371.64,-429.71 381.77,-434.93 392.2,-438.97"/>
<polygon fill="midnightblue" stroke="midnightblue" points="391.24,-442.35 401.84,-442.38 393.57,-435.75 391.24,-442.35"/>
</g>
<!-- Node21&#45;&gt;Node12 -->
<g id="edge27" class="edge">
<title>Node21&#45;&gt;Node12</title>
<path fill="none" stroke="midnightblue" d="M305.24,-327.93C313.27,-324.54 320.88,-320.03 327,-314 363.66,-277.92 324.35,-237.95 363,-204 372.99,-195.22 385.74,-189.96 398.78,-186.9"/>
<polygon fill="midnightblue" stroke="midnightblue" points="399.61,-190.3 408.77,-184.96 398.28,-183.43 399.61,-190.3"/>
</g>
<!-- Node21&#45;&gt;Node13 -->
<g id="edge28" class="edge">
<title>Node21&#45;&gt;Node13</title>
<path fill="none" stroke="midnightblue" d="M305.26,-328.5C313.39,-325.05 321.02,-320.36 327,-314 373.37,-264.68 315.26,-213.99 363,-166 366.23,-162.76 369.8,-159.91 373.63,-157.42"/>
<polygon fill="midnightblue" stroke="midnightblue" points="375.37,-160.46 382.36,-152.5 371.93,-154.36 375.37,-160.46"/>
</g>
<!-- Node21&#45;&gt;Node16 -->
<g id="edge29" class="edge">
<title>Node21&#45;&gt;Node16</title>
<path fill="none" stroke="midnightblue" d="M305.17,-338C325.66,-338 349.45,-338 372.27,-338"/>
<polygon fill="midnightblue" stroke="midnightblue" points="372.32,-341.5 382.32,-338 372.32,-334.5 372.32,-341.5"/>
</g>
<!-- Node21&#45;&gt;Node17 -->
<g id="edge30" class="edge">
<title>Node21&#45;&gt;Node17</title>
<path fill="none" stroke="midnightblue" d="M305.33,-325.48C312.99,-322.43 320.46,-318.66 327,-314 349.01,-298.33 340.98,-280.66 363,-265 371.83,-258.72 381.96,-253.69 392.33,-249.66"/>
<polygon fill="midnightblue" stroke="midnightblue" points="393.64,-252.91 401.87,-246.24 391.28,-246.32 393.64,-252.91"/>
</g>
<!-- Node21&#45;&gt;Node20 -->
<g id="edge31" class="edge">
<title>Node21&#45;&gt;Node20</title>
<path fill="none" stroke="midnightblue" d="M305.17,-352.31C331.64,-359.11 363.62,-367.33 391.88,-374.59"/>
<polygon fill="midnightblue" stroke="midnightblue" points="391.15,-378.02 401.7,-377.12 392.89,-371.24 391.15,-378.02"/>
</g>
<!-- Node22&#45;&gt;Node7 -->
<g id="edge34" class="edge">
<title>Node22&#45;&gt;Node7</title>
<path fill="none" stroke="midnightblue" d="M305.33,-374.48C312.99,-371.43 320.46,-367.66 327,-363 349.01,-347.33 340.55,-329.05 363,-314 366.09,-311.93 369.35,-310.02 372.71,-308.28"/>
<polygon fill="midnightblue" stroke="midnightblue" points="374.26,-311.42 381.84,-304.02 371.3,-305.08 374.26,-311.42"/>
</g>
<!-- Node22&#45;&gt;Node8 -->
<g id="edge35" class="edge">
<title>Node22&#45;&gt;Node8</title>
<path fill="none" stroke="midnightblue" d="M296.38,-402.07C316.82,-408.58 341.07,-416.25 363,-423 372.4,-425.89 382.3,-428.9 392.08,-431.84"/>
<polygon fill="midnightblue" stroke="midnightblue" points="391.21,-435.24 401.8,-434.76 393.23,-428.53 391.21,-435.24"/>
</g>
<!-- Node22&#45;&gt;Node16 -->
<g id="edge36" class="edge">
<title>Node22&#45;&gt;Node16</title>
<path fill="none" stroke="midnightblue" d="M305.17,-374.25C330.43,-368.47 360.68,-361.54 387.95,-355.3"/>
<polygon fill="midnightblue" stroke="midnightblue" points="388.88,-358.68 397.85,-353.03 387.32,-351.85 388.88,-358.68"/>
</g>
<!-- Node22&#45;&gt;Node17 -->
<g id="edge37" class="edge">
<title>Node22&#45;&gt;Node17</title>
<path fill="none" stroke="midnightblue" d="M305.05,-376.74C313.11,-373.38 320.77,-368.92 327,-363 360.65,-331.05 329.33,-296.93 363,-265 371.3,-257.13 381.56,-251.25 392.31,-246.87"/>
<polygon fill="midnightblue" stroke="midnightblue" points="393.67,-250.1 401.86,-243.38 391.27,-243.52 393.67,-250.1"/>
</g>
<!-- Node22&#45;&gt;Node20 -->
<g id="edge38" class="edge">
<title>Node22&#45;&gt;Node20</title>
<path fill="none" stroke="midnightblue" d="M305.17,-388.56C331.53,-389.3 363.34,-390.19 391.51,-390.98"/>
<polygon fill="midnightblue" stroke="midnightblue" points="391.61,-394.49 401.7,-391.27 391.81,-387.49 391.61,-394.49"/>
</g>
<!-- Node23 -->
<g id="node23" class="node">
<title>Node23</title>
<g id="a_node23"><a xlink:href="classRa_1_1Core_1_1Grid.html#ac78b9eee5519a5287b1bc7a898b4ea01" target="_top" xlink:title="Access an element with a D&#45;dimensional index.">
<polygon fill="white" stroke="black" points="414.5,-492.5 414.5,-511.5 514.5,-511.5 514.5,-492.5 414.5,-492.5"/>
<text text-anchor="middle" x="464.5" y="-499.5" font-family="Helvetica,sans-Serif" font-size="10.00">Ra::Core::Grid::at</text>
</a>
</g>
</g>
<!-- Node22&#45;&gt;Node23 -->
<g id="edge33" class="edge">
<title>Node22&#45;&gt;Node23</title>
<path fill="none" stroke="midnightblue" d="M262.48,-402.08C281.98,-423.68 321.06,-463.03 363,-483 375.77,-489.08 390.33,-493.22 404.32,-496.03"/>
<polygon fill="midnightblue" stroke="midnightblue" points="403.91,-499.51 414.37,-497.86 405.16,-492.63 403.91,-499.51"/>
</g>
<!-- Node25 -->
<g id="node25" class="node">
<title>Node25</title>
<g id="a_node25"><a xlink:href="namespaceRa_1_1Engine_1_1ShaderConfigurationFactory.html#ad6fe3c60f8f2b9f9f5d8220ffe4d5ba6" target="_top" xlink:title=" ">
<polygon fill="white" stroke="black" points="378,-77 378,-107 551,-107 551,-77 378,-77"/>
<text text-anchor="start" x="386" y="-95" font-family="Helvetica,sans-Serif" font-size="10.00">Ra::Engine::ShaderConfiguration</text>
<text text-anchor="middle" x="464.5" y="-84" font-family="Helvetica,sans-Serif" font-size="10.00">Factory::getConfiguration</text>
</a>
</g>
</g>
<!-- Node24&#45;&gt;Node25 -->
<g id="edge40" class="edge">
<title>Node24&#45;&gt;Node25</title>
<path fill="none" stroke="midnightblue" d="M315.07,-224.83C319.39,-222.32 323.43,-219.4 327,-216 360.9,-183.71 328.2,-148.32 363,-117 364.93,-115.26 366.96,-113.64 369.08,-112.13"/>
<polygon fill="midnightblue" stroke="midnightblue" points="370.97,-115.07 377.62,-106.82 367.28,-109.13 370.97,-115.07"/>
</g>
<!-- Node26&#45;&gt;Node10 -->
<g id="edge42" class="edge">
<title>Node26&#45;&gt;Node10</title>
<path fill="none" stroke="midnightblue" d="M743.04,-555.43C750.25,-552.25 757.4,-548.76 764,-545 798.47,-525.38 833.72,-496.17 856.17,-476.16"/>
<polygon fill="midnightblue" stroke="midnightblue" points="858.75,-478.54 863.83,-469.25 854.06,-473.35 858.75,-478.54"/>
</g>
<!-- Node27&#45;&gt;Node10 -->
<g id="edge44" class="edge">
<title>Node27&#45;&gt;Node10</title>
<path fill="none" stroke="midnightblue" d="M745.75,-495.78C770.11,-488.2 797.94,-479.54 821.93,-472.07"/>
<polygon fill="midnightblue" stroke="midnightblue" points="823.1,-475.37 831.61,-469.06 821.02,-468.69 823.1,-475.37"/>
</g>
<!-- Node31 -->
<g id="node31" class="node">
<title>Node31</title>
<g id="a_node31"><a xlink:href="classRa_1_1Gui_1_1Gizmo.html#a34cb0247b502236be30ed5949f3bbc90" target="_top" xlink:title="read access to the gizmo render objects id">
<polygon fill="white" stroke="black" points="409.5,-38.5 409.5,-57.5 519.5,-57.5 519.5,-38.5 409.5,-38.5"/>
<text text-anchor="middle" x="464.5" y="-45.5" font-family="Helvetica,sans-Serif" font-size="10.00">Ra::Gui::Gizmo::ros</text>
</a>
</g>
</g>
<!-- Node30&#45;&gt;Node31 -->
<g id="edge48" class="edge">
<title>Node30&#45;&gt;Node31</title>
<path fill="none" stroke="midnightblue" d="M315.75,-48C342.3,-48 372.78,-48 399.14,-48"/>
<polygon fill="midnightblue" stroke="midnightblue" points="399.4,-51.5 409.4,-48 399.4,-44.5 399.4,-51.5"/>
</g>
<!-- Node32 -->
<g id="node32" class="node">
<title>Node32</title>
<g id="a_node32"><a xlink:href="namespaceRa_1_1Core_1_1Geometry.html#aa04e6052d8911b1df1bd881474debb45" target="_top" xlink:title=" ">
<polygon fill="white" stroke="black" points="403.5,-0.5 403.5,-19.5 525.5,-19.5 525.5,-0.5 403.5,-0.5"/>
<text text-anchor="middle" x="464.5" y="-7.5" font-family="Helvetica,sans-Serif" font-size="10.00">Ra::Core::Geometry::t</text>
</a>
</g>
</g>
<!-- Node30&#45;&gt;Node32 -->
<g id="edge49" class="edge">
<title>Node30&#45;&gt;Node32</title>
<path fill="none" stroke="midnightblue" d="M315.75,-36.24C342.52,-31.48 373.3,-26.02 399.81,-21.31"/>
<polygon fill="midnightblue" stroke="midnightblue" points="400.51,-24.74 409.75,-19.54 399.29,-17.85 400.51,-24.74"/>
</g>
</g>
</svg>
