<?xml version="1.0" encoding="UTF-8" standalone="no"?>
<!DOCTYPE svg PUBLIC "-//W3C//DTD SVG 1.1//EN"
 "http://www.w3.org/Graphics/SVG/1.1/DTD/svg11.dtd">
<!-- Generated by graphviz version 2.43.0 (0)
 -->
<!-- Title: Ra::Engine::System Pages: 1 -->
<svg width="523pt" height="496pt"
 viewBox="0.00 0.00 523.00 496.00" xmlns="http://www.w3.org/2000/svg" xmlns:xlink="http://www.w3.org/1999/xlink">
<g id="graph0" class="graph" transform="scale(1 1) rotate(0) translate(4 492)">
<title>Ra::Engine::System</title>
<polygon fill="white" stroke="transparent" points="-4,4 -4,-492 519,-492 519,4 -4,4"/>
<!-- Node1 -->
<g id="node1" class="node">
<title>Node1</title>
<g id="a_node1"><a xlink:title=" ">
<polygon fill="#bfbfbf" stroke="black" points="178,-342.5 178,-487.5 337,-487.5 337,-342.5 178,-342.5"/>
<text text-anchor="middle" x="257.5" y="-475.5" font-family="Helvetica,sans-Serif" font-size="10.00">Ra::Engine::System</text>
<polyline fill="none" stroke="black" points="178,-468.5 337,-468.5 "/>
<text text-anchor="start" x="186" y="-456.5" font-family="Helvetica,sans-Serif" font-size="10.00"># m_components</text>
<polyline fill="none" stroke="black" points="178,-449.5 337,-449.5 "/>
<text text-anchor="start" x="186" y="-437.5" font-family="Helvetica,sans-Serif" font-size="10.00">+ System()</text>
<text text-anchor="start" x="186" y="-426.5" font-family="Helvetica,sans-Serif" font-size="10.00">+ ~System()</text>
<text text-anchor="start" x="186" y="-415.5" font-family="Helvetica,sans-Serif" font-size="10.00">+ handleAssetLoading()</text>
<text text-anchor="start" x="186" y="-404.5" font-family="Helvetica,sans-Serif" font-size="10.00">+ generateTasks()</text>
<text text-anchor="start" x="186" y="-393.5" font-family="Helvetica,sans-Serif" font-size="10.00">+ getEntityComponents()</text>
<text text-anchor="start" x="186" y="-382.5" font-family="Helvetica,sans-Serif" font-size="10.00">+ addComponent()</text>
<text text-anchor="start" x="186" y="-371.5" font-family="Helvetica,sans-Serif" font-size="10.00"># registerComponent()</text>
<text text-anchor="start" x="186" y="-360.5" font-family="Helvetica,sans-Serif" font-size="10.00"># unregisterComponent()</text>
<text text-anchor="start" x="186" y="-349.5" font-family="Helvetica,sans-Serif" font-size="10.00"># unregisterAllComponents()</text>
</a>
</g>
</g>
<!-- Node2 -->
<g id="node2" class="node">
<title>Node2</title>
<g id="a_node2"><a xlink:href="classRa_1_1Engine_1_1CameraManager.html" target="_top" xlink:title=" ">
<polygon fill="white" stroke="black" points="0,-127.5 0,-305.5 159,-305.5 159,-127.5 0,-127.5"/>
<text text-anchor="middle" x="79.5" y="-293.5" font-family="Helvetica,sans-Serif" font-size="10.00">Ra::Engine::CameraManager</text>
<polyline fill="none" stroke="black" points="0,-286.5 159,-286.5 "/>
<text text-anchor="start" x="8" y="-274.5" font-family="Helvetica,sans-Serif" font-size="10.00"># m_data</text>
<polyline fill="none" stroke="black" points="0,-267.5 159,-267.5 "/>
<text text-anchor="start" x="8" y="-255.5" font-family="Helvetica,sans-Serif" font-size="10.00">+ CameraManager()</text>
<text text-anchor="start" x="8" y="-244.5" font-family="Helvetica,sans-Serif" font-size="10.00">+ CameraManager()</text>
<text text-anchor="start" x="8" y="-233.5" font-family="Helvetica,sans-Serif" font-size="10.00">+ operator=()</text>
<text text-anchor="start" x="8" y="-222.5" font-family="Helvetica,sans-Serif" font-size="10.00">+ ~CameraManager()</text>
<text text-anchor="start" x="8" y="-211.5" font-family="Helvetica,sans-Serif" font-size="10.00">+ getCamera()</text>
<text text-anchor="start" x="8" y="-200.5" font-family="Helvetica,sans-Serif" font-size="10.00">+ addCamera()</text>
<text text-anchor="start" x="8" y="-189.5" font-family="Helvetica,sans-Serif" font-size="10.00">+ count()</text>
<text text-anchor="start" x="8" y="-178.5" font-family="Helvetica,sans-Serif" font-size="10.00">+ generateTasks()</text>
<text text-anchor="start" x="8" y="-167.5" font-family="Helvetica,sans-Serif" font-size="10.00">+ handleAssetLoading()</text>
<text text-anchor="start" x="8" y="-156.5" font-family="Helvetica,sans-Serif" font-size="10.00"># registerComponent()</text>
<text text-anchor="start" x="8" y="-145.5" font-family="Helvetica,sans-Serif" font-size="10.00"># unregisterComponent()</text>
<text text-anchor="start" x="8" y="-134.5" font-family="Helvetica,sans-Serif" font-size="10.00"># unregisterAllComponents()</text>
</a>
</g>
</g>
<!-- Node1&#45;&gt;Node2 -->
<g id="edge1" class="edge">
<title>Node1&#45;&gt;Node2</title>
<path fill="none" stroke="midnightblue" d="M185.57,-334.59C176.88,-325 167.97,-315.17 159.18,-305.46"/>
<polygon fill="none" stroke="midnightblue" points="183.17,-337.16 192.48,-342.22 188.36,-332.46 183.17,-337.16"/>
</g>
<!-- Node4 -->
<g id="node4" class="node">
<title>Node4</title>
<g id="a_node4"><a xlink:href="classRa_1_1Engine_1_1GeometrySystem.html" target="_top" xlink:title=" ">
<polygon fill="white" stroke="black" points="177.5,-171.5 177.5,-261.5 337.5,-261.5 337.5,-171.5 177.5,-171.5"/>
<text text-anchor="middle" x="257.5" y="-249.5" font-family="Helvetica,sans-Serif" font-size="10.00">Ra::Engine::GeometrySystem</text>
<polyline fill="none" stroke="black" points="177.5,-242.5 337.5,-242.5 "/>
<text text-anchor="middle" x="257.5" y="-230.5" font-family="Helvetica,sans-Serif" font-size="10.00"> </text>
<polyline fill="none" stroke="black" points="177.5,-223.5 337.5,-223.5 "/>
<text text-anchor="start" x="185.5" y="-211.5" font-family="Helvetica,sans-Serif" font-size="10.00">+ GeometrySystem()</text>
<text text-anchor="start" x="185.5" y="-200.5" font-family="Helvetica,sans-Serif" font-size="10.00">+ ~GeometrySystem()</text>
<text text-anchor="start" x="185.5" y="-189.5" font-family="Helvetica,sans-Serif" font-size="10.00">+ handleAssetLoading()</text>
<text text-anchor="start" x="185.5" y="-178.5" font-family="Helvetica,sans-Serif" font-size="10.00">+ generateTasks()</text>
</a>
</g>
</g>
<!-- Node1&#45;&gt;Node4 -->
<g id="edge3" class="edge">
<title>Node1&#45;&gt;Node4</title>
<path fill="none" stroke="midnightblue" d="M257.5,-331.99C257.5,-307.89 257.5,-282.44 257.5,-261.68"/>
<polygon fill="none" stroke="midnightblue" points="254,-332.22 257.5,-342.22 261,-332.22 254,-332.22"/>
</g>
<!-- Node5 -->
<g id="node5" class="node">
<title>Node5</title>
<g id="a_node5"><a xlink:href="classRa_1_1Engine_1_1LightManager.html" target="_top" xlink:title=" ">
<polygon fill="white" stroke="black" points="356,-127.5 356,-305.5 515,-305.5 515,-127.5 356,-127.5"/>
<text text-anchor="middle" x="435.5" y="-293.5" font-family="Helvetica,sans-Serif" font-size="10.00">Ra::Engine::LightManager</text>
<polyline fill="none" stroke="black" points="356,-286.5 515,-286.5 "/>
<text text-anchor="start" x="364" y="-274.5" font-family="Helvetica,sans-Serif" font-size="10.00"># m_data</text>
<polyline fill="none" stroke="black" points="356,-267.5 515,-267.5 "/>
<text text-anchor="start" x="364" y="-255.5" font-family="Helvetica,sans-Serif" font-size="10.00">+ LightManager()</text>
<text text-anchor="start" x="364" y="-244.5" font-family="Helvetica,sans-Serif" font-size="10.00">+ LightManager()</text>
<text text-anchor="start" x="364" y="-233.5" font-family="Helvetica,sans-Serif" font-size="10.00">+ operator=()</text>
<text text-anchor="start" x="364" y="-222.5" font-family="Helvetica,sans-Serif" font-size="10.00">+ ~LightManager()</text>
<text text-anchor="start" x="364" y="-211.5" font-family="Helvetica,sans-Serif" font-size="10.00">+ getLight()</text>
<text text-anchor="start" x="364" y="-200.5" font-family="Helvetica,sans-Serif" font-size="10.00">+ addLight()</text>
<text text-anchor="start" x="364" y="-189.5" font-family="Helvetica,sans-Serif" font-size="10.00">+ count()</text>
<text text-anchor="start" x="364" y="-178.5" font-family="Helvetica,sans-Serif" font-size="10.00">+ generateTasks()</text>
<text text-anchor="start" x="364" y="-167.5" font-family="Helvetica,sans-Serif" font-size="10.00">+ handleAssetLoading()</text>
<text text-anchor="start" x="364" y="-156.5" font-family="Helvetica,sans-Serif" font-size="10.00"># registerComponent()</text>
<text text-anchor="start" x="364" y="-145.5" font-family="Helvetica,sans-Serif" font-size="10.00"># unregisterComponent()</text>
<text text-anchor="start" x="364" y="-134.5" font-family="Helvetica,sans-Serif" font-size="10.00"># unregisterAllComponents()</text>
</a>
</g>
</g>
<!-- Node1&#45;&gt;Node5 -->
<g id="edge4" class="edge">
<title>Node1&#45;&gt;Node5</title>
<path fill="none" stroke="midnightblue" d="M329.43,-334.59C338.12,-325 347.03,-315.17 355.82,-305.46"/>
<polygon fill="none" stroke="midnightblue" points="326.64,-332.46 322.52,-342.22 331.83,-337.16 326.64,-332.46"/>
</g>
<!-- Node3 -->
<g id="node3" class="node">
<title>Node3</title>
<g id="a_node3"><a xlink:href="classRa_1_1Engine_1_1DefaultCameraManager.html" target="_top" xlink:title="DefaultCameraManager. A simple Camera Manager with a list of Cameras.">
<polygon fill="white" stroke="black" points="3.5,-0.5 3.5,-90.5 155.5,-90.5 155.5,-0.5 3.5,-0.5"/>
<text text-anchor="start" x="11.5" y="-78.5" font-family="Helvetica,sans-Serif" font-size="10.00">Ra::Engine::DefaultCamera</text>
<text text-anchor="middle" x="79.5" y="-67.5" font-family="Helvetica,sans-Serif" font-size="10.00">Manager</text>
<polyline fill="none" stroke="black" points="3.5,-60.5 155.5,-60.5 "/>
<text text-anchor="middle" x="79.5" y="-48.5" font-family="Helvetica,sans-Serif" font-size="10.00"> </text>
<polyline fill="none" stroke="black" points="3.5,-41.5 155.5,-41.5 "/>
<text text-anchor="start" x="11.5" y="-29.5" font-family="Helvetica,sans-Serif" font-size="10.00">+ DefaultCameraManager()</text>
<text text-anchor="start" x="11.5" y="-18.5" font-family="Helvetica,sans-Serif" font-size="10.00">+ getCamera()</text>
<text text-anchor="start" x="11.5" y="-7.5" font-family="Helvetica,sans-Serif" font-size="10.00">+ addCamera()</text>
</a>
</g>
</g>
<!-- Node2&#45;&gt;Node3 -->
<g id="edge2" class="edge">
<title>Node2&#45;&gt;Node3</title>
<path fill="none" stroke="midnightblue" d="M79.5,-117.03C79.5,-107.87 79.5,-98.93 79.5,-90.67"/>
<polygon fill="none" stroke="midnightblue" points="76,-117.04 79.5,-127.04 83,-117.04 76,-117.04"/>
</g>
<!-- Node6 -->
<g id="node6" class="node">
<title>Node6</title>
<g id="a_node6"><a xlink:href="classRa_1_1Engine_1_1DefaultLightManager.html" target="_top" xlink:title="DefaultLightManager. A simple Light Manager with a list of lights.">
<polygon fill="white" stroke="black" points="366.5,-0.5 366.5,-90.5 504.5,-90.5 504.5,-0.5 366.5,-0.5"/>
<text text-anchor="start" x="374.5" y="-78.5" font-family="Helvetica,sans-Serif" font-size="10.00">Ra::Engine::DefaultLight</text>
<text text-anchor="middle" x="435.5" y="-67.5" font-family="Helvetica,sans-Serif" font-size="10.00">Manager</text>
<polyline fill="none" stroke="black" points="366.5,-60.5 504.5,-60.5 "/>
<text text-anchor="middle" x="435.5" y="-48.5" font-family="Helvetica,sans-Serif" font-size="10.00"> </text>
<polyline fill="none" stroke="black" points="366.5,-41.5 504.5,-41.5 "/>
<text text-anchor="start" x="374.5" y="-29.5" font-family="Helvetica,sans-Serif" font-size="10.00">+ DefaultLightManager()</text>
<text text-anchor="start" x="374.5" y="-18.5" font-family="Helvetica,sans-Serif" font-size="10.00">+ getLight()</text>
<text text-anchor="start" x="374.5" y="-7.5" font-family="Helvetica,sans-Serif" font-size="10.00">+ addLight()</text>
</a>
</g>
</g>
<!-- Node5&#45;&gt;Node6 -->
<g id="edge5" class="edge">
<title>Node5&#45;&gt;Node6</title>
<path fill="none" stroke="midnightblue" d="M435.5,-117.03C435.5,-107.87 435.5,-98.93 435.5,-90.67"/>
<polygon fill="none" stroke="midnightblue" points="432,-117.04 435.5,-127.04 439,-117.04 432,-117.04"/>
</g>
</g>
</svg>
