<?xml version="1.0" encoding="UTF-8" standalone="no"?>
<!DOCTYPE svg PUBLIC "-//W3C//DTD SVG 1.1//EN"
 "http://www.w3.org/Graphics/SVG/1.1/DTD/svg11.dtd">
<!-- Generated by graphviz version 2.43.0 (0)
 -->
<!-- Title: Ra::Engine::DebugComponent::getRenderObject Pages: 1 -->
<svg width="684pt" height="88pt"
 viewBox="0.00 0.00 684.00 88.00" xmlns="http://www.w3.org/2000/svg" xmlns:xlink="http://www.w3.org/1999/xlink">
<g id="graph0" class="graph" transform="scale(1 1) rotate(0) translate(4 84)">
<title>Ra::Engine::DebugComponent::getRenderObject</title>
<polygon fill="white" stroke="transparent" points="-4,4 -4,-84 680,-84 680,4 -4,4"/>
<!-- Node1 -->
<g id="node1" class="node">
<title>Node1</title>
<g id="a_node1"><a xlink:title="Access render object through RO manager.">
<polygon fill="#bfbfbf" stroke="black" points="0,-24.5 0,-54.5 162,-54.5 162,-24.5 0,-24.5"/>
<text text-anchor="start" x="8" y="-42.5" font-family="Helvetica,sans-Serif" font-size="10.00">Ra::Engine::DebugComponent</text>
<text text-anchor="middle" x="81" y="-31.5" font-family="Helvetica,sans-Serif" font-size="10.00">::getRenderObject</text>
</a>
</g>
</g>
<!-- Node2 -->
<g id="node2" class="node">
<title>Node2</title>
<g id="a_node2"><a xlink:href="classRa_1_1Engine_1_1RenderObjectManager.html#a13fc919e9fa01bfb36e67bc9011d325f" target="_top" xlink:title=" ">
<polygon fill="white" stroke="black" points="198,-49.5 198,-79.5 345,-79.5 345,-49.5 198,-49.5"/>
<text text-anchor="start" x="206" y="-67.5" font-family="Helvetica,sans-Serif" font-size="10.00">Ra::Engine::RenderObject</text>
<text text-anchor="middle" x="271.5" y="-56.5" font-family="Helvetica,sans-Serif" font-size="10.00">Manager::getRenderObject</text>
</a>
</g>
</g>
<!-- Node1&#45;&gt;Node2 -->
<g id="edge1" class="edge">
<title>Node1&#45;&gt;Node2</title>
<path fill="none" stroke="midnightblue" d="M162.21,-50.14C170.71,-51.27 179.37,-52.41 187.89,-53.54"/>
<polygon fill="midnightblue" stroke="midnightblue" points="187.45,-57.02 197.82,-54.86 188.37,-50.08 187.45,-57.02"/>
</g>
<!-- Node5 -->
<g id="node5" class="node">
<title>Node5</title>
<g id="a_node5"><a xlink:href="classRa_1_1Engine_1_1Component.html#a10b0bc182b76165744ebea603ae32dfe" target="_top" xlink:title="Shortcut to access the render object manager.">
<polygon fill="white" stroke="black" points="206,-0.5 206,-30.5 337,-30.5 337,-0.5 206,-0.5"/>
<text text-anchor="start" x="214" y="-18.5" font-family="Helvetica,sans-Serif" font-size="10.00">Ra::Engine::Component</text>
<text text-anchor="middle" x="271.5" y="-7.5" font-family="Helvetica,sans-Serif" font-size="10.00">::getRoMgr</text>
</a>
</g>
</g>
<!-- Node1&#45;&gt;Node5 -->
<g id="edge4" class="edge">
<title>Node1&#45;&gt;Node5</title>
<path fill="none" stroke="midnightblue" d="M162.21,-29.29C173.34,-27.87 184.73,-26.42 195.75,-25.02"/>
<polygon fill="midnightblue" stroke="midnightblue" points="196.27,-28.48 205.75,-23.74 195.38,-21.54 196.27,-28.48"/>
</g>
<!-- Node3 -->
<g id="node3" class="node">
<title>Node3</title>
<g id="a_node3"><a xlink:href="classRa_1_1Engine_1_1RenderObjectManager.html#a242218228300c8e03481863b9a808dec" target="_top" xlink:title=" ">
<polygon fill="white" stroke="black" points="381,-49.5 381,-79.5 521,-79.5 521,-49.5 381,-49.5"/>
<text text-anchor="start" x="389" y="-67.5" font-family="Helvetica,sans-Serif" font-size="10.00">Ra::Engine::RenderObject</text>
<text text-anchor="middle" x="451" y="-56.5" font-family="Helvetica,sans-Serif" font-size="10.00">Manager::exists</text>
</a>
</g>
</g>
<!-- Node2&#45;&gt;Node3 -->
<g id="edge2" class="edge">
<title>Node2&#45;&gt;Node3</title>
<path fill="none" stroke="midnightblue" d="M345.21,-64.5C353.58,-64.5 362.15,-64.5 370.6,-64.5"/>
<polygon fill="midnightblue" stroke="midnightblue" points="370.84,-68 380.84,-64.5 370.84,-61 370.84,-68"/>
</g>
<!-- Node4 -->
<g id="node4" class="node">
<title>Node4</title>
<g id="a_node4"><a xlink:href="classRa_1_1Core_1_1Utils_1_1Index.html#ac1a3e02d77abd15c2a307673f5b67fa1" target="_top" xlink:title="VALID.">
<polygon fill="white" stroke="black" points="557,-49.5 557,-79.5 676,-79.5 676,-49.5 557,-49.5"/>
<text text-anchor="start" x="565" y="-67.5" font-family="Helvetica,sans-Serif" font-size="10.00">Ra::Core::Utils::Index</text>
<text text-anchor="middle" x="616.5" y="-56.5" font-family="Helvetica,sans-Serif" font-size="10.00">::isValid</text>
</a>
</g>
</g>
<!-- Node3&#45;&gt;Node4 -->
<g id="edge3" class="edge">
<title>Node3&#45;&gt;Node4</title>
<path fill="none" stroke="midnightblue" d="M521.34,-64.5C529.75,-64.5 538.35,-64.5 546.76,-64.5"/>
<polygon fill="midnightblue" stroke="midnightblue" points="546.89,-68 556.89,-64.5 546.89,-61 546.89,-68"/>
</g>
</g>
</svg>
