<?xml version="1.0" encoding="UTF-8" standalone="no"?>
<!DOCTYPE svg PUBLIC "-//W3C//DTD SVG 1.1//EN"
 "http://www.w3.org/Graphics/SVG/1.1/DTD/svg11.dtd">
<!-- Generated by graphviz version 2.43.0 (0)
 -->
<!-- Title: Ra::Gui::ItemModel::addItem Pages: 1 -->
<!--zoomable 467 -->
<svg id="main" version="1.1" xmlns="http://www.w3.org/2000/svg" xmlns:xlink="http://www.w3.org/1999/xlink" xml:space="preserve" onload="init(evt)">
<style type="text/css"><![CDATA[
.edge:hover path { stroke: red; }
.edge:hover polygon { stroke: red; fill: red; }
]]></style>
<script type="text/javascript"><![CDATA[
var edges = document.getElementsByTagName('g');
if (edges && edges.length) {
  for (var i=0;i<edges.length;i++) {
    if (edges[i].id.substr(0,4)=='edge') {
      edges[i].setAttribute('class','edge');
    }
  }
}
]]></script>
        <defs>
                <circle id="rim" cx="0" cy="0" r="7"/>
                <circle id="rim2" cx="0" cy="0" r="3.5"/>
                <g id="zoomPlus">
                        <use xlink:href="#rim" fill="#404040">
                                <set attributeName="fill" to="#808080" begin="zoomplus.mouseover" end="zoomplus.mouseout"/>
                        </use>
                        <path d="M-4,0h8M0,-4v8" fill="none" stroke="white" stroke-width="1.5" pointer-events="none"/>
                </g>
                <g id="zoomMin">
                        <use xlink:href="#rim" fill="#404040">
                                <set attributeName="fill" to="#808080" begin="zoomminus.mouseover" end="zoomminus.mouseout"/>
                        </use>
                        <path d="M-4,0h8" fill="none" stroke="white" stroke-width="1.5" pointer-events="none"/>
                </g>
                <g id="dirArrow">
                        <path fill="none" stroke="white" stroke-width="1.5" d="M0,-3.0v7 M-2.5,-0.5L0,-3.0L2.5,-0.5"/>
                </g>
               <g id="resetDef">
                       <use xlink:href="#rim2" fill="#404040">
                               <set attributeName="fill" to="#808080" begin="reset.mouseover" end="reset.mouseout"/>
                       </use>
               </g>
        </defs>

<script type="text/javascript">
var viewWidth = 977;
var viewHeight = 467;
var sectionId = 'dynsection-2';
</script>
<script xlink:href="svgpan.js"/>
<svg id="graph" class="graph">
<g id="viewport">
<title>Ra::Gui::ItemModel::addItem</title>
<polygon fill="white" stroke="transparent" points="-4,4 -4,-462.5 973,-462.5 973,4 -4,4"/>
<!-- Node1 -->
<g id="node1" class="node">
<title>Node1</title>
<g id="a_node1"><a xlink:title=" ">
<polygon fill="#bfbfbf" stroke="black" points="0,-113.5 0,-143.5 110,-143.5 110,-113.5 0,-113.5"/>
<text text-anchor="start" x="8" y="-131.5" font-family="Helvetica,sans-Serif" font-size="10.00">Ra::Gui::ItemModel</text>
<text text-anchor="middle" x="55" y="-120.5" font-family="Helvetica,sans-Serif" font-size="10.00">::addItem</text>
</a>
</g>
</g>
<!-- Node2 -->
<g id="node2" class="node">
<title>Node2</title>
<g id="a_node2"><a xlink:href="classRa_1_1Gui_1_1ItemModel.html#a758fff0416978ca83fa7c907ee05ab0c" target="_top" xlink:title=" ">
<polygon fill="white" stroke="black" points="146,-176.5 146,-206.5 256,-206.5 256,-176.5 146,-176.5"/>
<text text-anchor="start" x="154" y="-194.5" font-family="Helvetica,sans-Serif" font-size="10.00">Ra::Gui::ItemModel</text>
<text text-anchor="middle" x="201" y="-183.5" font-family="Helvetica,sans-Serif" font-size="10.00">::findEntryIndex</text>
</a>
</g>
</g>
<!-- Node1&#45;&gt;Node2 -->
<g id="edge1" class="edge">
<title>Node1&#45;&gt;Node2</title>
<path fill="none" stroke="midnightblue" d="M90.49,-143.59C110.12,-152.18 134.9,-163.02 155.93,-172.22"/>
<polygon fill="midnightblue" stroke="midnightblue" points="154.73,-175.51 165.29,-176.31 157.53,-169.1 154.73,-175.51"/>
</g>
<!-- Node4 -->
<g id="node4" class="node">
<title>Node4</title>
<g id="a_node4"><a xlink:href="structRa_1_1Engine_1_1Scene_1_1ItemEntry.html#a4f2df708e8ee83f1bad37287d0a81916" target="_top" xlink:title="Returns true if the item represents any valid object.">
<polygon fill="white" stroke="black" points="303,-225.5 303,-255.5 413,-255.5 413,-225.5 303,-225.5"/>
<text text-anchor="start" x="311" y="-243.5" font-family="Helvetica,sans-Serif" font-size="10.00">Ra::Engine::Scene::</text>
<text text-anchor="middle" x="358" y="-232.5" font-family="Helvetica,sans-Serif" font-size="10.00">ItemEntry::isValid</text>
</a>
</g>
</g>
<!-- Node1&#45;&gt;Node4 -->
<g id="edge22" class="edge">
<title>Node1&#45;&gt;Node4</title>
<path fill="none" stroke="midnightblue" d="M66.44,-143.72C81.42,-164.18 111.07,-199.9 146,-216.5 191.78,-238.26 249.24,-243.57 292.63,-243.82"/>
<polygon fill="midnightblue" stroke="midnightblue" points="292.8,-247.32 302.79,-243.79 292.78,-240.32 292.8,-247.32"/>
</g>
<!-- Node13 -->
<g id="node13" class="node">
<title>Node13</title>
<g id="a_node13"><a xlink:href="structRa_1_1Engine_1_1Scene_1_1ItemEntry.html#ad2fd60408dfc75b47ff7bec306d95cc4" target="_top" xlink:title="Returns true if the item represents a render object.">
<polygon fill="white" stroke="black" points="482,-132.5 482,-162.5 598,-162.5 598,-132.5 482,-132.5"/>
<text text-anchor="start" x="490" y="-150.5" font-family="Helvetica,sans-Serif" font-size="10.00">Ra::Engine::Scene::</text>
<text text-anchor="middle" x="540" y="-139.5" font-family="Helvetica,sans-Serif" font-size="10.00">ItemEntry::isRoNode</text>
</a>
</g>
</g>
<!-- Node1&#45;&gt;Node13 -->
<g id="edge21" class="edge">
<title>Node1&#45;&gt;Node13</title>
<path fill="none" stroke="midnightblue" d="M110,-130.62C198.71,-134.11 375.07,-141.05 471.75,-144.85"/>
<polygon fill="midnightblue" stroke="midnightblue" points="471.86,-148.36 481.99,-145.26 472.14,-141.37 471.86,-148.36"/>
</g>
<!-- Node14 -->
<g id="node14" class="node">
<title>Node14</title>
<g id="a_node14"><a xlink:href="classRa_1_1Gui_1_1TreeModel.html#a40eebac048f0264815de6a0b5f3b6f53" target="_top" xlink:title="Get the tree item corresponding to the given index.">
<polygon fill="white" stroke="black" points="147,-0.5 147,-30.5 255,-30.5 255,-0.5 147,-0.5"/>
<text text-anchor="start" x="155" y="-18.5" font-family="Helvetica,sans-Serif" font-size="10.00">Ra::Gui::TreeModel</text>
<text text-anchor="middle" x="201" y="-7.5" font-family="Helvetica,sans-Serif" font-size="10.00">::getItem</text>
</a>
</g>
</g>
<!-- Node1&#45;&gt;Node14 -->
<g id="edge15" class="edge">
<title>Node1&#45;&gt;Node14</title>
<path fill="none" stroke="midnightblue" d="M70.33,-113.24C87.35,-95.63 117.06,-66.42 146,-45.5 150.73,-42.08 155.89,-38.75 161.09,-35.64"/>
<polygon fill="midnightblue" stroke="midnightblue" points="162.88,-38.65 169.79,-30.62 159.38,-32.59 162.88,-38.65"/>
</g>
<!-- Node15 -->
<g id="node15" class="node">
<title>Node15</title>
<g id="a_node15"><a xlink:href="structRa_1_1Engine_1_1Scene_1_1ItemEntry.html#a85e1716f224d07767e16ebfbd38c0d00" target="_top" xlink:title="Returns true if the item represents a component.">
<polygon fill="white" stroke="black" points="460,-44.5 460,-74.5 620,-74.5 620,-44.5 460,-44.5"/>
<text text-anchor="start" x="468" y="-62.5" font-family="Helvetica,sans-Serif" font-size="10.00">Ra::Engine::Scene::</text>
<text text-anchor="middle" x="540" y="-51.5" font-family="Helvetica,sans-Serif" font-size="10.00">ItemEntry::isComponentNode</text>
</a>
</g>
</g>
<!-- Node1&#45;&gt;Node15 -->
<g id="edge16" class="edge">
<title>Node1&#45;&gt;Node15</title>
<path fill="none" stroke="midnightblue" d="M110.19,-115.55C121.98,-112.82 134.39,-110.01 146,-107.5 210.67,-93.54 226.46,-87.5 292,-78.5 344,-71.36 402.56,-66.71 449.6,-63.8"/>
<polygon fill="midnightblue" stroke="midnightblue" points="449.99,-67.28 459.77,-63.19 449.57,-60.29 449.99,-67.28"/>
</g>
<!-- Node16 -->
<g id="node16" class="node">
<title>Node16</title>
<g id="a_node16"><a xlink:href="structRa_1_1Engine_1_1Scene_1_1ItemEntry.html#abb75bfc7efa4859df709265ab8982712" target="_top" xlink:title="Returns true if the item represents an entity.">
<polygon fill="white" stroke="black" points="292,-88.5 292,-118.5 424,-118.5 424,-88.5 292,-88.5"/>
<text text-anchor="start" x="300" y="-106.5" font-family="Helvetica,sans-Serif" font-size="10.00">Ra::Engine::Scene::</text>
<text text-anchor="middle" x="358" y="-95.5" font-family="Helvetica,sans-Serif" font-size="10.00">ItemEntry::isEntityNode</text>
</a>
</g>
</g>
<!-- Node1&#45;&gt;Node16 -->
<g id="edge19" class="edge">
<title>Node1&#45;&gt;Node16</title>
<path fill="none" stroke="midnightblue" d="M110.16,-124C158.02,-120.03 228.31,-114.19 281.65,-109.76"/>
<polygon fill="midnightblue" stroke="midnightblue" points="282.07,-113.24 291.74,-108.92 281.49,-106.26 282.07,-113.24"/>
</g>
<!-- Node3 -->
<g id="node3" class="node">
<title>Node3</title>
<g id="a_node3"><a xlink:href="classRa_1_1Gui_1_1TreeItem.html#a1bb89b916eed440cb23de1bff8327e00" target="_top" xlink:title=" ">
<polygon fill="white" stroke="black" points="304.5,-176.5 304.5,-206.5 411.5,-206.5 411.5,-176.5 304.5,-176.5"/>
<text text-anchor="start" x="312.5" y="-194.5" font-family="Helvetica,sans-Serif" font-size="10.00">Ra::Gui::TreeItem::</text>
<text text-anchor="middle" x="358" y="-183.5" font-family="Helvetica,sans-Serif" font-size="10.00">getIndexInParent</text>
</a>
</g>
</g>
<!-- Node2&#45;&gt;Node3 -->
<g id="edge2" class="edge">
<title>Node2&#45;&gt;Node3</title>
<path fill="none" stroke="midnightblue" d="M256.21,-191.5C268.42,-191.5 281.48,-191.5 294.01,-191.5"/>
<polygon fill="midnightblue" stroke="midnightblue" points="294.39,-195 304.39,-191.5 294.39,-188 294.39,-195"/>
</g>
<!-- Node2&#45;&gt;Node4 -->
<g id="edge3" class="edge">
<title>Node2&#45;&gt;Node4</title>
<path fill="none" stroke="midnightblue" d="M249.77,-206.6C265.46,-211.56 283.07,-217.13 299.41,-222.29"/>
<polygon fill="midnightblue" stroke="midnightblue" points="298.8,-225.77 309.39,-225.45 300.91,-219.1 298.8,-225.77"/>
</g>
<!-- Node5 -->
<g id="node5" class="node">
<title>Node5</title>
<g id="a_node5"><a xlink:href="structRa_1_1Engine_1_1Scene_1_1ItemEntry.html#a9673507f752d5efee0439afd0e52892b" target="_top" xlink:title="Debug checks.">
<polygon fill="white" stroke="black" points="656,-88.5 656,-118.5 814,-118.5 814,-88.5 656,-88.5"/>
<text text-anchor="start" x="664" y="-106.5" font-family="Helvetica,sans-Serif" font-size="10.00">Ra::Engine::Scene::</text>
<text text-anchor="middle" x="735" y="-95.5" font-family="Helvetica,sans-Serif" font-size="10.00">ItemEntry::checkConsistency</text>
</a>
</g>
</g>
<!-- Node4&#45;&gt;Node5 -->
<g id="edge4" class="edge">
<title>Node4&#45;&gt;Node5</title>
<path fill="none" stroke="midnightblue" d="M409.75,-225.49C425.79,-220.87 443.6,-215.85 460,-211.5 530.75,-192.73 552.35,-200.44 620,-172.5 650.77,-159.79 682.97,-139.57 705.27,-124.29"/>
<polygon fill="midnightblue" stroke="midnightblue" points="707.38,-127.09 713.6,-118.5 703.39,-121.34 707.38,-127.09"/>
</g>
<!-- Node7 -->
<g id="node7" class="node">
<title>Node7</title>
<g id="a_node7"><a xlink:href="classRa_1_1Engine_1_1Scene_1_1EntityManager.html#a11639733918487b58dbe9862b4cc9ca4" target="_top" xlink:title="Check wether an entity with a given name exists or not.">
<polygon fill="white" stroke="black" points="464,-220.5 464,-250.5 616,-250.5 616,-220.5 464,-220.5"/>
<text text-anchor="start" x="472" y="-238.5" font-family="Helvetica,sans-Serif" font-size="10.00">Ra::Engine::Scene::</text>
<text text-anchor="middle" x="540" y="-227.5" font-family="Helvetica,sans-Serif" font-size="10.00">EntityManager::entityExists</text>
</a>
</g>
</g>
<!-- Node4&#45;&gt;Node7 -->
<g id="edge6" class="edge">
<title>Node4&#45;&gt;Node7</title>
<path fill="none" stroke="midnightblue" d="M413.01,-239C425.84,-238.64 439.84,-238.25 453.69,-237.87"/>
<polygon fill="midnightblue" stroke="midnightblue" points="453.84,-241.37 463.74,-237.59 453.64,-234.37 453.84,-241.37"/>
</g>
<!-- Node8 -->
<g id="node8" class="node">
<title>Node8</title>
<g id="a_node8"><a xlink:href="classRa_1_1Engine_1_1Rendering_1_1RenderObjectManager.html#ae3edd3941dd9eee4cb1988318e47a4ca" target="_top" xlink:title=" ">
<polygon fill="white" stroke="black" points="474.5,-417 474.5,-458 605.5,-458 605.5,-417 474.5,-417"/>
<text text-anchor="start" x="482.5" y="-446" font-family="Helvetica,sans-Serif" font-size="10.00">Ra::Engine::Rendering</text>
<text text-anchor="start" x="482.5" y="-435" font-family="Helvetica,sans-Serif" font-size="10.00">::RenderObjectManager</text>
<text text-anchor="middle" x="540" y="-424" font-family="Helvetica,sans-Serif" font-size="10.00">::exists</text>
</a>
</g>
</g>
<!-- Node4&#45;&gt;Node8 -->
<g id="edge7" class="edge">
<title>Node4&#45;&gt;Node8</title>
<path fill="none" stroke="midnightblue" d="M364.27,-255.72C376.23,-288.13 408.47,-364.54 460,-407.5 461.79,-408.99 463.65,-410.41 465.58,-411.76"/>
<polygon fill="midnightblue" stroke="midnightblue" points="464.08,-414.95 474.42,-417.27 467.79,-409.01 464.08,-414.95"/>
</g>
<!-- Node10 -->
<g id="node10" class="node">
<title>Node10</title>
<g id="a_node10"><a xlink:href="classRa_1_1Engine_1_1RadiumEngine.html#a2991b0dd7d8c14bfe19e775231036dee" target="_top" xlink:title=" ">
<polygon fill="white" stroke="black" points="467.5,-367.5 467.5,-397.5 612.5,-397.5 612.5,-367.5 467.5,-367.5"/>
<text text-anchor="start" x="475.5" y="-385.5" font-family="Helvetica,sans-Serif" font-size="10.00">Ra::Engine::RadiumEngine</text>
<text text-anchor="middle" x="540" y="-374.5" font-family="Helvetica,sans-Serif" font-size="10.00">::getEntityManager</text>
</a>
</g>
</g>
<!-- Node4&#45;&gt;Node10 -->
<g id="edge9" class="edge">
<title>Node4&#45;&gt;Node10</title>
<path fill="none" stroke="midnightblue" d="M367.86,-255.58C383.35,-280.67 417.79,-330.91 460,-358.5 462.56,-360.17 465.24,-361.73 468,-363.19"/>
<polygon fill="midnightblue" stroke="midnightblue" points="466.53,-366.36 477.06,-367.48 469.52,-360.04 466.53,-366.36"/>
</g>
<!-- Node11 -->
<g id="node11" class="node">
<title>Node11</title>
<g id="a_node11"><a xlink:href="classRa_1_1Engine_1_1Scene_1_1Entity.html#aca70e4d7a9078c377650ac4ea59748bd" target="_top" xlink:title=" ">
<polygon fill="white" stroke="black" points="485,-318.5 485,-348.5 595,-348.5 595,-318.5 485,-318.5"/>
<text text-anchor="start" x="493" y="-336.5" font-family="Helvetica,sans-Serif" font-size="10.00">Ra::Engine::Scene::</text>
<text text-anchor="middle" x="540" y="-325.5" font-family="Helvetica,sans-Serif" font-size="10.00">Entity::getName</text>
</a>
</g>
</g>
<!-- Node4&#45;&gt;Node11 -->
<g id="edge10" class="edge">
<title>Node4&#45;&gt;Node11</title>
<path fill="none" stroke="midnightblue" d="M377.31,-255.56C396.77,-270.94 428.98,-294.62 460,-309.5 464.85,-311.82 469.97,-313.98 475.18,-315.97"/>
<polygon fill="midnightblue" stroke="midnightblue" points="474.03,-319.28 484.62,-319.38 476.4,-312.69 474.03,-319.28"/>
</g>
<!-- Node12 -->
<g id="node12" class="node">
<title>Node12</title>
<g id="a_node12"><a xlink:href="classRa_1_1Engine_1_1RadiumEngine.html#a4b46a72f340513061b9a5219a80d9bd6" target="_top" xlink:title="Manager getters.">
<polygon fill="white" stroke="black" points="466.5,-269.5 466.5,-299.5 613.5,-299.5 613.5,-269.5 466.5,-269.5"/>
<text text-anchor="start" x="474.5" y="-287.5" font-family="Helvetica,sans-Serif" font-size="10.00">Ra::Engine::RadiumEngine</text>
<text text-anchor="middle" x="540" y="-276.5" font-family="Helvetica,sans-Serif" font-size="10.00">::getRenderObjectManager</text>
</a>
</g>
</g>
<!-- Node4&#45;&gt;Node12 -->
<g id="edge11" class="edge">
<title>Node4&#45;&gt;Node12</title>
<path fill="none" stroke="midnightblue" d="M413.01,-253.7C430.13,-257.89 449.34,-262.58 467.5,-267.02"/>
<polygon fill="midnightblue" stroke="midnightblue" points="466.91,-270.48 477.46,-269.46 468.57,-263.68 466.91,-270.48"/>
</g>
<!-- Node4&#45;&gt;Node13 -->
<g id="edge12" class="edge">
<title>Node4&#45;&gt;Node13</title>
<path fill="none" stroke="midnightblue" d="M407.82,-225.38C413.47,-222.8 419,-219.84 424,-216.5 443.61,-203.38 440.45,-190.71 460,-177.5 466.02,-173.43 472.66,-169.82 479.46,-166.63"/>
<polygon fill="midnightblue" stroke="midnightblue" points="481.04,-169.77 488.8,-162.55 478.23,-163.35 481.04,-169.77"/>
</g>
<!-- Node6 -->
<g id="node6" class="node">
<title>Node6</title>
<g id="a_node6"><a xlink:href="classRa_1_1Core_1_1Utils_1_1Index.html#a752c4d2e38168a3b1977100caa21b1b8" target="_top" xlink:title="INVALID.">
<polygon fill="white" stroke="black" points="850,-66.5 850,-96.5 969,-96.5 969,-66.5 850,-66.5"/>
<text text-anchor="start" x="858" y="-84.5" font-family="Helvetica,sans-Serif" font-size="10.00">Ra::Core::Utils::Index</text>
<text text-anchor="middle" x="909.5" y="-73.5" font-family="Helvetica,sans-Serif" font-size="10.00">::isInvalid</text>
</a>
</g>
</g>
<!-- Node5&#45;&gt;Node6 -->
<g id="edge5" class="edge">
<title>Node5&#45;&gt;Node6</title>
<path fill="none" stroke="midnightblue" d="M814.17,-93.53C822.73,-92.44 831.39,-91.33 839.82,-90.26"/>
<polygon fill="midnightblue" stroke="midnightblue" points="840.49,-93.7 849.96,-88.97 839.6,-86.76 840.49,-93.7"/>
</g>
<!-- Node9 -->
<g id="node9" class="node">
<title>Node9</title>
<g id="a_node9"><a xlink:href="classRa_1_1Core_1_1Utils_1_1Index.html#ac1a3e02d77abd15c2a307673f5b67fa1" target="_top" xlink:title="VALID.">
<polygon fill="white" stroke="black" points="675.5,-279.5 675.5,-309.5 794.5,-309.5 794.5,-279.5 675.5,-279.5"/>
<text text-anchor="start" x="683.5" y="-297.5" font-family="Helvetica,sans-Serif" font-size="10.00">Ra::Core::Utils::Index</text>
<text text-anchor="middle" x="735" y="-286.5" font-family="Helvetica,sans-Serif" font-size="10.00">::isValid</text>
</a>
</g>
</g>
<!-- Node8&#45;&gt;Node9 -->
<g id="edge8" class="edge">
<title>Node8&#45;&gt;Node9</title>
<path fill="none" stroke="midnightblue" d="M603.05,-416.85C608.94,-414.03 614.7,-410.91 620,-407.5 658.74,-382.56 694.98,-342.71 715.8,-317.61"/>
<polygon fill="midnightblue" stroke="midnightblue" points="718.64,-319.66 722.25,-309.7 713.22,-315.24 718.64,-319.66"/>
</g>
<!-- Node13&#45;&gt;Node5 -->
<g id="edge13" class="edge">
<title>Node13&#45;&gt;Node5</title>
<path fill="none" stroke="midnightblue" d="M598.12,-134.48C616.95,-130.18 638.19,-125.34 658.19,-120.78"/>
<polygon fill="midnightblue" stroke="midnightblue" points="659.23,-124.14 668.2,-118.5 657.67,-117.31 659.23,-124.14"/>
</g>
<!-- Node13&#45;&gt;Node9 -->
<g id="edge14" class="edge">
<title>Node13&#45;&gt;Node9</title>
<path fill="none" stroke="midnightblue" d="M560.93,-162.68C595.4,-188.93 666.26,-242.9 705.78,-273.01"/>
<polygon fill="midnightblue" stroke="midnightblue" points="704.1,-276.13 714.18,-279.4 708.35,-270.56 704.1,-276.13"/>
</g>
<!-- Node15&#45;&gt;Node5 -->
<g id="edge17" class="edge">
<title>Node15&#45;&gt;Node5</title>
<path fill="none" stroke="midnightblue" d="M606.88,-74.52C623.4,-78.29 641.26,-82.36 658.22,-86.22"/>
<polygon fill="midnightblue" stroke="midnightblue" points="657.56,-89.66 668.09,-88.47 659.12,-82.84 657.56,-89.66"/>
</g>
<!-- Node15&#45;&gt;Node6 -->
<g id="edge18" class="edge">
<title>Node15&#45;&gt;Node6</title>
<path fill="none" stroke="midnightblue" d="M620.29,-64.25C685.65,-68.16 777.41,-73.65 839.71,-77.38"/>
<polygon fill="midnightblue" stroke="midnightblue" points="839.64,-80.88 849.83,-77.99 840.06,-73.9 839.64,-80.88"/>
</g>
<!-- Node16&#45;&gt;Node5 -->
<g id="edge20" class="edge">
<title>Node16&#45;&gt;Node5</title>
<path fill="none" stroke="midnightblue" d="M424.32,-103.5C485.6,-103.5 577.71,-103.5 645.55,-103.5"/>
<polygon fill="midnightblue" stroke="midnightblue" points="645.8,-107 655.8,-103.5 645.8,-100 645.8,-107"/>
</g>
</g>
</svg>
        <g id="navigator" transform="translate(0 0)" fill="#404254">
                <rect fill="#f2f5e9" fill-opacity="0.5" stroke="#606060" stroke-width=".5" x="0" y="0" width="60" height="60"/>
                <use id="zoomplus" xlink:href="#zoomPlus" x="17" y="9" onmousedown="handleZoom(evt,'in')"/>
                <use id="zoomminus" xlink:href="#zoomMin" x="42" y="9" onmousedown="handleZoom(evt,'out')"/>
                <use id="reset" xlink:href="#resetDef" x="30" y="36" onmousedown="handleReset()"/>
                <g id="arrowUp" xlink:href="#dirArrow" transform="translate(30 24)" onmousedown="handlePan(0,-1)">
                  <use xlink:href="#rim" fill="#404040">
                        <set attributeName="fill" to="#808080" begin="arrowUp.mouseover" end="arrowUp.mouseout"/>
                  </use>
                  <path fill="none" stroke="white" stroke-width="1.5" d="M0,-3.0v7 M-2.5,-0.5L0,-3.0L2.5,-0.5"/>
                </g>
                <g id="arrowRight" xlink:href="#dirArrow" transform="rotate(90) translate(36 -43)" onmousedown="handlePan(1,0)">
                  <use xlink:href="#rim" fill="#404040">
                        <set attributeName="fill" to="#808080" begin="arrowRight.mouseover" end="arrowRight.mouseout"/>
                  </use>
                  <path fill="none" stroke="white" stroke-width="1.5" d="M0,-3.0v7 M-2.5,-0.5L0,-3.0L2.5,-0.5"/>
                </g>
                <g id="arrowDown" xlink:href="#dirArrow" transform="rotate(180) translate(-30 -48)" onmousedown="handlePan(0,1)">
                  <use xlink:href="#rim" fill="#404040">
                        <set attributeName="fill" to="#808080" begin="arrowDown.mouseover" end="arrowDown.mouseout"/>
                  </use>
                  <path fill="none" stroke="white" stroke-width="1.5" d="M0,-3.0v7 M-2.5,-0.5L0,-3.0L2.5,-0.5"/>
                </g>
                <g id="arrowLeft" xlink:href="#dirArrow" transform="rotate(270) translate(-36 17)" onmousedown="handlePan(-1,0)">
                  <use xlink:href="#rim" fill="#404040">
                        <set attributeName="fill" to="#808080" begin="arrowLeft.mouseover" end="arrowLeft.mouseout"/>
                  </use>
                  <path fill="none" stroke="white" stroke-width="1.5" d="M0,-3.0v7 M-2.5,-0.5L0,-3.0L2.5,-0.5"/>
                </g>
        </g>
        <svg viewBox="0 0 15 15" width="100%" height="30px" preserveAspectRatio="xMaxYMin meet">
         <g id="arrow_out" transform="scale(0.3 0.3)">
          <a xlink:href="classRa_1_1Gui_1_1ItemModel_a8bb7a7d33f9a238657d7f22717611161_cgraph_org.svg" target="_base">
           <rect id="button" ry="5" rx="5" y="6" x="6" height="38" width="38"
                fill="#f2f5e9" fill-opacity="0.5" stroke="#606060" stroke-width="1.0"/>
           <path id="arrow"
             d="M 11.500037,31.436501 C 11.940474,20.09759 22.043105,11.32322 32.158766,21.979434 L 37.068811,17.246167 C 37.068811,17.246167 37.088388,32 37.088388,32 L 22.160133,31.978069 C 22.160133,31.978069 26.997745,27.140456 26.997745,27.140456 C 18.528582,18.264221 13.291696,25.230495 11.500037,31.436501 z"
             style="fill:#404040;"/>
          </a>
         </g>
        </svg>
</svg>
