<?xml version="1.0" encoding="UTF-8" standalone="no"?>
<!DOCTYPE svg PUBLIC "-//W3C//DTD SVG 1.1//EN"
 "http://www.w3.org/Graphics/SVG/1.1/DTD/svg11.dtd">
<!-- Generated by graphviz version 2.43.0 (0)
 -->
<!-- Title: Ra::GuiBase::SelectionManager::SelectionManager Pages: 1 -->
<!--zoomable 526 -->
<svg id="main" version="1.1" xmlns="http://www.w3.org/2000/svg" xmlns:xlink="http://www.w3.org/1999/xlink" xml:space="preserve" onload="init(evt)">
<style type="text/css"><![CDATA[
.edge:hover path { stroke: red; }
.edge:hover polygon { stroke: red; fill: red; }
]]></style>
<script type="text/javascript"><![CDATA[
var edges = document.getElementsByTagName('g');
if (edges && edges.length) {
  for (var i=0;i<edges.length;i++) {
    if (edges[i].id.substr(0,4)=='edge') {
      edges[i].setAttribute('class','edge');
    }
  }
}
]]></script>
        <defs>
                <circle id="rim" cx="0" cy="0" r="7"/>
                <circle id="rim2" cx="0" cy="0" r="3.5"/>
                <g id="zoomPlus">
                        <use xlink:href="#rim" fill="#404040">
                                <set attributeName="fill" to="#808080" begin="zoomplus.mouseover" end="zoomplus.mouseout"/>
                        </use>
                        <path d="M-4,0h8M0,-4v8" fill="none" stroke="white" stroke-width="1.5" pointer-events="none"/>
                </g>
                <g id="zoomMin">
                        <use xlink:href="#rim" fill="#404040">
                                <set attributeName="fill" to="#808080" begin="zoomminus.mouseover" end="zoomminus.mouseout"/>
                        </use>
                        <path d="M-4,0h8" fill="none" stroke="white" stroke-width="1.5" pointer-events="none"/>
                </g>
                <g id="dirArrow">
                        <path fill="none" stroke="white" stroke-width="1.5" d="M0,-3.0v7 M-2.5,-0.5L0,-3.0L2.5,-0.5"/>
                </g>
               <g id="resetDef">
                       <use xlink:href="#rim2" fill="#404040">
                               <set attributeName="fill" to="#808080" begin="reset.mouseover" end="reset.mouseout"/>
                       </use>
               </g>
        </defs>

<script type="text/javascript">
var viewWidth = 1292;
var viewHeight = 526;
var sectionId = 'dynsection-2';
</script>
<script xlink:href="svgpan.js"/>
<svg id="graph" class="graph">
<g id="viewport">
<title>Ra::GuiBase::SelectionManager::SelectionManager</title>
<polygon fill="white" stroke="transparent" points="-4,4 -4,-522 1288,-522 1288,4 -4,4"/>
<!-- Node1 -->
<g id="node1" class="node">
<title>Node1</title>
<g id="a_node1"><a xlink:title=" ">
<polygon fill="#bfbfbf" stroke="black" points="0,-404.5 0,-434.5 170,-434.5 170,-404.5 0,-404.5"/>
<text text-anchor="start" x="8" y="-422.5" font-family="Helvetica,sans-Serif" font-size="10.00">Ra::GuiBase::SelectionManager</text>
<text text-anchor="middle" x="85" y="-411.5" font-family="Helvetica,sans-Serif" font-size="10.00">::SelectionManager</text>
</a>
</g>
</g>
<!-- Node2 -->
<g id="node2" class="node">
<title>Node2</title>
<g id="a_node2"><a xlink:href="classRa_1_1GuiBase_1_1SelectionManager.html#a2fcab4f0b1fd16de85a985380075784f" target="_top" xlink:title=" ">
<polygon fill="white" stroke="black" points="206,-429.5 206,-459.5 376,-459.5 376,-429.5 206,-429.5"/>
<text text-anchor="start" x="214" y="-447.5" font-family="Helvetica,sans-Serif" font-size="10.00">Ra::GuiBase::SelectionManager</text>
<text text-anchor="middle" x="291" y="-436.5" font-family="Helvetica,sans-Serif" font-size="10.00">::onModelRebuilt</text>
</a>
</g>
</g>
<!-- Node1&#45;&gt;Node2 -->
<g id="edge1" class="edge">
<title>Node1&#45;&gt;Node2</title>
<path fill="none" stroke="midnightblue" d="M170.15,-429.81C178.59,-430.85 187.2,-431.9 195.74,-432.95"/>
<polygon fill="midnightblue" stroke="midnightblue" points="195.36,-436.43 205.71,-434.17 196.21,-429.48 195.36,-436.43"/>
</g>
<!-- Node3 -->
<g id="node3" class="node">
<title>Node3</title>
<g id="a_node3"><a xlink:href="classRa_1_1GuiBase_1_1SelectionManager.html#a9d7d7c54f74da3a41576ab26e725c1d7" target="_top" xlink:title=" ">
<polygon fill="white" stroke="black" points="206,-380.5 206,-410.5 376,-410.5 376,-380.5 206,-380.5"/>
<text text-anchor="start" x="214" y="-398.5" font-family="Helvetica,sans-Serif" font-size="10.00">Ra::GuiBase::SelectionManager</text>
<text text-anchor="middle" x="291" y="-387.5" font-family="Helvetica,sans-Serif" font-size="10.00">::printSelection</text>
</a>
</g>
</g>
<!-- Node1&#45;&gt;Node3 -->
<g id="edge2" class="edge">
<title>Node1&#45;&gt;Node3</title>
<path fill="none" stroke="midnightblue" d="M170.15,-409.6C178.59,-408.61 187.2,-407.59 195.74,-406.59"/>
<polygon fill="midnightblue" stroke="midnightblue" points="196.19,-410.06 205.71,-405.42 195.37,-403.11 196.19,-410.06"/>
</g>
<!-- Node4 -->
<g id="node4" class="node">
<title>Node4</title>
<g id="a_node4"><a xlink:href="classRa_1_1GuiBase_1_1SelectionManager.html#aa569fe01a3d92e7cabeda0cf78fd07bc" target="_top" xlink:title=" ">
<polygon fill="white" stroke="black" points="412,-429.5 412,-459.5 582,-459.5 582,-429.5 412,-429.5"/>
<text text-anchor="start" x="420" y="-447.5" font-family="Helvetica,sans-Serif" font-size="10.00">Ra::GuiBase::SelectionManager</text>
<text text-anchor="middle" x="497" y="-436.5" font-family="Helvetica,sans-Serif" font-size="10.00">::currentItem</text>
</a>
</g>
</g>
<!-- Node3&#45;&gt;Node4 -->
<g id="edge3" class="edge">
<title>Node3&#45;&gt;Node4</title>
<path fill="none" stroke="midnightblue" d="M354.59,-410.53C376.43,-415.78 401.11,-421.71 423.67,-427.13"/>
<polygon fill="midnightblue" stroke="midnightblue" points="422.98,-430.56 433.53,-429.49 424.62,-423.76 422.98,-430.56"/>
</g>
<!-- Node9 -->
<g id="node9" class="node">
<title>Node9</title>
<g id="a_node9"><a xlink:href="namespaceRa_1_1Engine.html#a318db0d77f9e9b965c12bd100fb8de50" target="_top" xlink:title="Returns the name associated to the given item.">
<polygon fill="white" stroke="black" points="424.5,-241 424.5,-260 569.5,-260 569.5,-241 424.5,-241"/>
<text text-anchor="middle" x="497" y="-248" font-family="Helvetica,sans-Serif" font-size="10.00">Ra::Engine::getEntryName</text>
</a>
</g>
</g>
<!-- Node3&#45;&gt;Node9 -->
<g id="edge8" class="edge">
<title>Node3&#45;&gt;Node9</title>
<path fill="none" stroke="midnightblue" d="M313.45,-380.26C352.37,-352.59 434.26,-294.38 473.76,-266.31"/>
<polygon fill="midnightblue" stroke="midnightblue" points="476.28,-268.81 482.4,-260.17 472.22,-263.11 476.28,-268.81"/>
</g>
<!-- Node24 -->
<g id="node24" class="node">
<title>Node24</title>
<g id="a_node24"><a xlink:href="classRa_1_1GuiBase_1_1SelectionManager.html#a6d3d5b0ccdf844ddd451be8beefb3dff" target="_top" xlink:title="Return the set of selected entries.">
<polygon fill="white" stroke="black" points="412,-380.5 412,-410.5 582,-410.5 582,-380.5 412,-380.5"/>
<text text-anchor="start" x="420" y="-398.5" font-family="Helvetica,sans-Serif" font-size="10.00">Ra::GuiBase::SelectionManager</text>
<text text-anchor="middle" x="497" y="-387.5" font-family="Helvetica,sans-Serif" font-size="10.00">::selectedEntries</text>
</a>
</g>
</g>
<!-- Node3&#45;&gt;Node24 -->
<g id="edge32" class="edge">
<title>Node3&#45;&gt;Node24</title>
<path fill="none" stroke="midnightblue" d="M376.15,-395.5C384.5,-395.5 393.02,-395.5 401.46,-395.5"/>
<polygon fill="midnightblue" stroke="midnightblue" points="401.71,-399 411.71,-395.5 401.71,-392 401.71,-399"/>
</g>
<!-- Node5 -->
<g id="node5" class="node">
<title>Node5</title>
<g id="a_node5"><a xlink:href="classRa_1_1GuiBase_1_1ItemModel.html#aeea48df2da43c5c76c1310f397c33d66" target="_top" xlink:title=" ">
<polygon fill="white" stroke="black" points="636,-454.5 636,-484.5 770,-484.5 770,-454.5 636,-454.5"/>
<text text-anchor="start" x="644" y="-472.5" font-family="Helvetica,sans-Serif" font-size="10.00">Ra::GuiBase::ItemModel</text>
<text text-anchor="middle" x="703" y="-461.5" font-family="Helvetica,sans-Serif" font-size="10.00">::getEntry</text>
</a>
</g>
</g>
<!-- Node4&#45;&gt;Node5 -->
<g id="edge4" class="edge">
<title>Node4&#45;&gt;Node5</title>
<path fill="none" stroke="midnightblue" d="M582.15,-454.81C596.55,-456.58 611.43,-458.4 625.61,-460.14"/>
<polygon fill="midnightblue" stroke="midnightblue" points="625.44,-463.64 635.8,-461.39 626.3,-456.7 625.44,-463.64"/>
</g>
<!-- Node8 -->
<g id="node8" class="node">
<title>Node8</title>
<g id="a_node8"><a xlink:href="classRa_1_1GuiBase_1_1SelectionManager.html#aa35d23c6f1bb1c3d0dde9de0783be5e5" target="_top" xlink:title=" ">
<polygon fill="white" stroke="black" points="618,-405.5 618,-435.5 788,-435.5 788,-405.5 618,-405.5"/>
<text text-anchor="start" x="626" y="-423.5" font-family="Helvetica,sans-Serif" font-size="10.00">Ra::GuiBase::SelectionManager</text>
<text text-anchor="middle" x="703" y="-412.5" font-family="Helvetica,sans-Serif" font-size="10.00">::itemModel</text>
</a>
</g>
</g>
<!-- Node4&#45;&gt;Node8 -->
<g id="edge7" class="edge">
<title>Node4&#45;&gt;Node8</title>
<path fill="none" stroke="midnightblue" d="M582.15,-434.6C590.59,-433.61 599.2,-432.59 607.74,-431.59"/>
<polygon fill="midnightblue" stroke="midnightblue" points="608.19,-435.06 617.71,-430.42 607.37,-428.11 608.19,-435.06"/>
</g>
<!-- Node6 -->
<g id="node6" class="node">
<title>Node6</title>
<g id="a_node6"><a xlink:href="classRa_1_1GuiBase_1_1TreeModel.html#a95c8502f8402d2eee372c05308e60232" target="_top" xlink:title="Get the tree item corresponding to the given index.">
<polygon fill="white" stroke="black" points="831.5,-438.5 831.5,-468.5 963.5,-468.5 963.5,-438.5 831.5,-438.5"/>
<text text-anchor="start" x="839.5" y="-456.5" font-family="Helvetica,sans-Serif" font-size="10.00">Ra::GuiBase::TreeModel</text>
<text text-anchor="middle" x="897.5" y="-445.5" font-family="Helvetica,sans-Serif" font-size="10.00">::getItem</text>
</a>
</g>
</g>
<!-- Node5&#45;&gt;Node6 -->
<g id="edge5" class="edge">
<title>Node5&#45;&gt;Node6</title>
<path fill="none" stroke="midnightblue" d="M770.25,-463.99C786.64,-462.63 804.32,-461.16 821.11,-459.77"/>
<polygon fill="midnightblue" stroke="midnightblue" points="821.76,-463.22 831.43,-458.91 821.18,-456.25 821.76,-463.22"/>
</g>
<!-- Node7 -->
<g id="node7" class="node">
<title>Node7</title>
<g id="a_node7"><a xlink:href="classRa_1_1GuiBase_1_1TreeModel.html#a24d801f637039aaec9cb20077f4b7e87" target="_top" xlink:title=" ">
<polygon fill="white" stroke="black" points="831.5,-487.5 831.5,-517.5 963.5,-517.5 963.5,-487.5 831.5,-487.5"/>
<text text-anchor="start" x="839.5" y="-505.5" font-family="Helvetica,sans-Serif" font-size="10.00">Ra::GuiBase::TreeModel</text>
<text text-anchor="middle" x="897.5" y="-494.5" font-family="Helvetica,sans-Serif" font-size="10.00">::index</text>
</a>
</g>
</g>
<!-- Node5&#45;&gt;Node7 -->
<g id="edge6" class="edge">
<title>Node5&#45;&gt;Node7</title>
<path fill="none" stroke="midnightblue" d="M770.25,-480.86C786.64,-483.67 804.32,-486.7 821.11,-489.58"/>
<polygon fill="midnightblue" stroke="midnightblue" points="820.99,-493.11 831.43,-491.35 822.17,-486.21 820.99,-493.11"/>
</g>
<!-- Node10 -->
<g id="node10" class="node">
<title>Node10</title>
<g id="a_node10"><a xlink:href="classRa_1_1Engine_1_1Entity.html#a236c7b600cc1bfb88ad1138325b5dd28" target="_top" xlink:title=" ">
<polygon fill="white" stroke="black" points="846,-284.5 846,-314.5 949,-314.5 949,-284.5 846,-284.5"/>
<text text-anchor="start" x="854" y="-302.5" font-family="Helvetica,sans-Serif" font-size="10.00">Ra::Engine::Entity</text>
<text text-anchor="middle" x="897.5" y="-291.5" font-family="Helvetica,sans-Serif" font-size="10.00">::getName</text>
</a>
</g>
</g>
<!-- Node9&#45;&gt;Node10 -->
<g id="edge9" class="edge">
<title>Node9&#45;&gt;Node10</title>
<path fill="none" stroke="midnightblue" d="M569.7,-259.32C645.63,-268.65 764.19,-283.23 835.7,-292.02"/>
<polygon fill="midnightblue" stroke="midnightblue" points="835.54,-295.53 845.9,-293.28 836.4,-288.58 835.54,-295.53"/>
</g>
<!-- Node11 -->
<g id="node11" class="node">
<title>Node11</title>
<g id="a_node11"><a xlink:href="classRa_1_1Engine_1_1Component.html#a243a520429e5b78995df4c0a60ee7237" target="_top" xlink:title="Return the component&#39;s name.">
<polygon fill="white" stroke="black" points="637.5,-54.5 637.5,-84.5 768.5,-84.5 768.5,-54.5 637.5,-54.5"/>
<text text-anchor="start" x="645.5" y="-72.5" font-family="Helvetica,sans-Serif" font-size="10.00">Ra::Engine::Component</text>
<text text-anchor="middle" x="703" y="-61.5" font-family="Helvetica,sans-Serif" font-size="10.00">::getName</text>
</a>
</g>
</g>
<!-- Node9&#45;&gt;Node11 -->
<g id="edge10" class="edge">
<title>Node9&#45;&gt;Node11</title>
<path fill="none" stroke="midnightblue" d="M502.7,-240.75C516.41,-213.33 559.15,-134.95 618,-94.5 621.13,-92.35 624.45,-90.38 627.89,-88.57"/>
<polygon fill="midnightblue" stroke="midnightblue" points="629.68,-91.6 637.24,-84.18 626.7,-85.27 629.68,-91.6"/>
</g>
<!-- Node12 -->
<g id="node12" class="node">
<title>Node12</title>
<g id="a_node12"><a xlink:href="classRa_1_1Engine_1_1RenderObjectManager.html#a13fc919e9fa01bfb36e67bc9011d325f" target="_top" xlink:title=" ">
<polygon fill="white" stroke="black" points="629.5,-103.5 629.5,-133.5 776.5,-133.5 776.5,-103.5 629.5,-103.5"/>
<text text-anchor="start" x="637.5" y="-121.5" font-family="Helvetica,sans-Serif" font-size="10.00">Ra::Engine::RenderObject</text>
<text text-anchor="middle" x="703" y="-110.5" font-family="Helvetica,sans-Serif" font-size="10.00">Manager::getRenderObject</text>
</a>
</g>
</g>
<!-- Node9&#45;&gt;Node12 -->
<g id="edge11" class="edge">
<title>Node9&#45;&gt;Node12</title>
<path fill="none" stroke="midnightblue" d="M507.04,-240.73C525.9,-220.85 571.59,-175.3 618,-148.5 625.23,-144.33 633.14,-140.58 641.12,-137.26"/>
<polygon fill="midnightblue" stroke="midnightblue" points="642.47,-140.5 650.49,-133.57 639.9,-133.98 642.47,-140.5"/>
</g>
<!-- Node15 -->
<g id="node15" class="node">
<title>Node15</title>
<g id="a_node15"><a xlink:href="classRa_1_1Engine_1_1RadiumEngine.html#a28bc0716e719a702079a55a096340d16" target="_top" xlink:title="Manager getters.">
<polygon fill="white" stroke="black" points="824,-235.5 824,-265.5 971,-265.5 971,-235.5 824,-235.5"/>
<text text-anchor="start" x="832" y="-253.5" font-family="Helvetica,sans-Serif" font-size="10.00">Ra::Engine::RadiumEngine</text>
<text text-anchor="middle" x="897.5" y="-242.5" font-family="Helvetica,sans-Serif" font-size="10.00">::getRenderObjectManager</text>
</a>
</g>
</g>
<!-- Node9&#45;&gt;Node15 -->
<g id="edge14" class="edge">
<title>Node9&#45;&gt;Node15</title>
<path fill="none" stroke="midnightblue" d="M569.7,-250.5C638.16,-250.5 741.26,-250.5 813.29,-250.5"/>
<polygon fill="midnightblue" stroke="midnightblue" points="813.69,-254 823.69,-250.5 813.69,-247 813.69,-254"/>
</g>
<!-- Node16 -->
<g id="node16" class="node">
<title>Node16</title>
<g id="a_node16"><a xlink:href="structRa_1_1Engine_1_1ItemEntry.html#abf969f288b9f89ed2a268b2cc70fb78a" target="_top" xlink:title="Returns true if the item represents a component.">
<polygon fill="white" stroke="black" points="836.5,-372.5 836.5,-402.5 958.5,-402.5 958.5,-372.5 836.5,-372.5"/>
<text text-anchor="start" x="844.5" y="-390.5" font-family="Helvetica,sans-Serif" font-size="10.00">Ra::Engine::ItemEntry</text>
<text text-anchor="middle" x="897.5" y="-379.5" font-family="Helvetica,sans-Serif" font-size="10.00">::isComponentNode</text>
</a>
</g>
</g>
<!-- Node9&#45;&gt;Node16 -->
<g id="edge15" class="edge">
<title>Node9&#45;&gt;Node16</title>
<path fill="none" stroke="midnightblue" d="M505.14,-260.04C521.99,-281.76 566.72,-334.74 618,-357.5 684.36,-386.95 768.03,-392.26 826.26,-391.56"/>
<polygon fill="midnightblue" stroke="midnightblue" points="826.53,-395.06 836.46,-391.37 826.4,-388.06 826.53,-395.06"/>
</g>
<!-- Node19 -->
<g id="node19" class="node">
<title>Node19</title>
<g id="a_node19"><a xlink:href="structRa_1_1Engine_1_1ItemEntry.html#ae958f5e3bf366fdd8271f0d862e4c8f9" target="_top" xlink:title="Returns true if the item represents an entity.">
<polygon fill="white" stroke="black" points="642,-317.5 642,-347.5 764,-347.5 764,-317.5 642,-317.5"/>
<text text-anchor="start" x="650" y="-335.5" font-family="Helvetica,sans-Serif" font-size="10.00">Ra::Engine::ItemEntry</text>
<text text-anchor="middle" x="703" y="-324.5" font-family="Helvetica,sans-Serif" font-size="10.00">::isEntityNode</text>
</a>
</g>
</g>
<!-- Node9&#45;&gt;Node19 -->
<g id="edge19" class="edge">
<title>Node9&#45;&gt;Node19</title>
<path fill="none" stroke="midnightblue" d="M519.07,-260.13C542.89,-270.9 582.94,-288.66 618,-302.5 627.82,-306.38 638.38,-310.32 648.57,-314.01"/>
<polygon fill="midnightblue" stroke="midnightblue" points="647.6,-317.39 658.2,-317.47 649.97,-310.8 647.6,-317.39"/>
</g>
<!-- Node20 -->
<g id="node20" class="node">
<title>Node20</title>
<g id="a_node20"><a xlink:href="structRa_1_1Engine_1_1ItemEntry.html#a34e6a9addd931949e507bff26759f751" target="_top" xlink:title="Returns true if the item represents a render object.">
<polygon fill="white" stroke="black" points="836.5,-49.5 836.5,-79.5 958.5,-79.5 958.5,-49.5 836.5,-49.5"/>
<text text-anchor="start" x="844.5" y="-67.5" font-family="Helvetica,sans-Serif" font-size="10.00">Ra::Engine::ItemEntry</text>
<text text-anchor="middle" x="897.5" y="-56.5" font-family="Helvetica,sans-Serif" font-size="10.00">::isRoNode</text>
</a>
</g>
</g>
<!-- Node9&#45;&gt;Node20 -->
<g id="edge21" class="edge">
<title>Node9&#45;&gt;Node20</title>
<path fill="none" stroke="midnightblue" d="M511.74,-240.94C533.38,-226.3 577.15,-198.37 618,-182.5 690.26,-154.43 724.2,-187.54 788,-143.5 811.74,-127.11 801.17,-107.13 824,-89.5 826.32,-87.71 828.78,-86.04 831.34,-84.48"/>
<polygon fill="midnightblue" stroke="midnightblue" points="833.19,-87.46 840.34,-79.64 829.87,-81.3 833.19,-87.46"/>
</g>
<!-- Node21 -->
<g id="node21" class="node">
<title>Node21</title>
<g id="a_node21"><a xlink:href="structRa_1_1Engine_1_1ItemEntry.html#a1339c8b1b1457427d3eeb0ced54bc6a6" target="_top" xlink:title="Returns true if the item represents any valid object.">
<polygon fill="white" stroke="black" points="642,-191.5 642,-221.5 764,-221.5 764,-191.5 642,-191.5"/>
<text text-anchor="start" x="650" y="-209.5" font-family="Helvetica,sans-Serif" font-size="10.00">Ra::Engine::ItemEntry</text>
<text text-anchor="middle" x="703" y="-198.5" font-family="Helvetica,sans-Serif" font-size="10.00">::isValid</text>
</a>
</g>
</g>
<!-- Node9&#45;&gt;Node21 -->
<g id="edge24" class="edge">
<title>Node9&#45;&gt;Node21</title>
<path fill="none" stroke="midnightblue" d="M542.26,-240.95C568.48,-235.3 602.28,-228.01 632.04,-221.59"/>
<polygon fill="midnightblue" stroke="midnightblue" points="632.92,-224.98 641.95,-219.45 631.44,-218.14 632.92,-224.98"/>
</g>
<!-- Node13 -->
<g id="node13" class="node">
<title>Node13</title>
<g id="a_node13"><a xlink:href="classRa_1_1Engine_1_1RenderObjectManager.html#a242218228300c8e03481863b9a808dec" target="_top" xlink:title=" ">
<polygon fill="white" stroke="black" points="827.5,-0.5 827.5,-30.5 967.5,-30.5 967.5,-0.5 827.5,-0.5"/>
<text text-anchor="start" x="835.5" y="-18.5" font-family="Helvetica,sans-Serif" font-size="10.00">Ra::Engine::RenderObject</text>
<text text-anchor="middle" x="897.5" y="-7.5" font-family="Helvetica,sans-Serif" font-size="10.00">Manager::exists</text>
</a>
</g>
</g>
<!-- Node12&#45;&gt;Node13 -->
<g id="edge12" class="edge">
<title>Node12&#45;&gt;Node13</title>
<path fill="none" stroke="midnightblue" d="M772.9,-103.36C778.25,-100.85 783.36,-97.92 788,-94.5 811.52,-77.18 800.84,-57.31 824,-39.5 825.79,-38.12 827.67,-36.82 829.61,-35.59"/>
<polygon fill="midnightblue" stroke="midnightblue" points="831.43,-38.58 838.47,-30.66 828.03,-32.47 831.43,-38.58"/>
</g>
<!-- Node14 -->
<g id="node14" class="node">
<title>Node14</title>
<g id="a_node14"><a xlink:href="classRa_1_1Core_1_1Utils_1_1Index.html#ac1a3e02d77abd15c2a307673f5b67fa1" target="_top" xlink:title="VALID.">
<polygon fill="white" stroke="black" points="1008.5,-25.5 1008.5,-55.5 1127.5,-55.5 1127.5,-25.5 1008.5,-25.5"/>
<text text-anchor="start" x="1016.5" y="-43.5" font-family="Helvetica,sans-Serif" font-size="10.00">Ra::Core::Utils::Index</text>
<text text-anchor="middle" x="1068" y="-32.5" font-family="Helvetica,sans-Serif" font-size="10.00">::isValid</text>
</a>
</g>
</g>
<!-- Node13&#45;&gt;Node14 -->
<g id="edge13" class="edge">
<title>Node13&#45;&gt;Node14</title>
<path fill="none" stroke="midnightblue" d="M967.52,-25.74C977.68,-27.25 988.14,-28.8 998.29,-30.31"/>
<polygon fill="midnightblue" stroke="midnightblue" points="997.91,-33.79 1008.31,-31.79 998.94,-26.86 997.91,-33.79"/>
</g>
<!-- Node17 -->
<g id="node17" class="node">
<title>Node17</title>
<g id="a_node17"><a xlink:href="structRa_1_1Engine_1_1ItemEntry.html#acc4d0f03ddd27dce426af9ed9c8993c9" target="_top" xlink:title="Debug checks.">
<polygon fill="white" stroke="black" points="1007,-328.5 1007,-358.5 1129,-358.5 1129,-328.5 1007,-328.5"/>
<text text-anchor="start" x="1015" y="-346.5" font-family="Helvetica,sans-Serif" font-size="10.00">Ra::Engine::ItemEntry</text>
<text text-anchor="middle" x="1068" y="-335.5" font-family="Helvetica,sans-Serif" font-size="10.00">::checkConsistency</text>
</a>
</g>
</g>
<!-- Node16&#45;&gt;Node17 -->
<g id="edge16" class="edge">
<title>Node16&#45;&gt;Node17</title>
<path fill="none" stroke="midnightblue" d="M956.02,-372.48C970.04,-368.82 985.16,-364.87 999.6,-361.1"/>
<polygon fill="midnightblue" stroke="midnightblue" points="1000.67,-364.44 1009.46,-358.53 998.9,-357.67 1000.67,-364.44"/>
</g>
<!-- Node18 -->
<g id="node18" class="node">
<title>Node18</title>
<g id="a_node18"><a xlink:href="classRa_1_1Core_1_1Utils_1_1Index.html#a752c4d2e38168a3b1977100caa21b1b8" target="_top" xlink:title="INVALID.">
<polygon fill="white" stroke="black" points="1165,-350.5 1165,-380.5 1284,-380.5 1284,-350.5 1165,-350.5"/>
<text text-anchor="start" x="1173" y="-368.5" font-family="Helvetica,sans-Serif" font-size="10.00">Ra::Core::Utils::Index</text>
<text text-anchor="middle" x="1224.5" y="-357.5" font-family="Helvetica,sans-Serif" font-size="10.00">::isInvalid</text>
</a>
</g>
</g>
<!-- Node16&#45;&gt;Node18 -->
<g id="edge18" class="edge">
<title>Node16&#45;&gt;Node18</title>
<path fill="none" stroke="midnightblue" d="M958.87,-383.41C1014.37,-379.66 1096.6,-374.09 1154.64,-370.16"/>
<polygon fill="midnightblue" stroke="midnightblue" points="1155.08,-373.64 1164.82,-369.47 1154.61,-366.66 1155.08,-373.64"/>
</g>
<!-- Node17&#45;&gt;Node18 -->
<g id="edge17" class="edge">
<title>Node17&#45;&gt;Node18</title>
<path fill="none" stroke="midnightblue" d="M1129.18,-352.07C1137.58,-353.27 1146.27,-354.5 1154.81,-355.72"/>
<polygon fill="midnightblue" stroke="midnightblue" points="1154.36,-359.19 1164.76,-357.14 1155.35,-352.26 1154.36,-359.19"/>
</g>
<!-- Node19&#45;&gt;Node17 -->
<g id="edge20" class="edge">
<title>Node19&#45;&gt;Node17</title>
<path fill="none" stroke="midnightblue" d="M764.35,-334.33C828.3,-336.27 929.18,-339.32 996.69,-341.37"/>
<polygon fill="midnightblue" stroke="midnightblue" points="996.71,-344.87 1006.81,-341.68 996.92,-337.87 996.71,-344.87"/>
</g>
<!-- Node20&#45;&gt;Node14 -->
<g id="edge23" class="edge">
<title>Node20&#45;&gt;Node14</title>
<path fill="none" stroke="midnightblue" d="M958.86,-55.9C971.72,-54.07 985.4,-52.12 998.55,-50.25"/>
<polygon fill="midnightblue" stroke="midnightblue" points="999.07,-53.71 1008.48,-48.84 998.08,-46.78 999.07,-53.71"/>
</g>
<!-- Node20&#45;&gt;Node17 -->
<g id="edge22" class="edge">
<title>Node20&#45;&gt;Node17</title>
<path fill="none" stroke="midnightblue" d="M957.38,-79.54C962.34,-82.31 966.99,-85.6 971,-89.5 1037.01,-153.6 1058.17,-267.6 1064.5,-318.16"/>
<polygon fill="midnightblue" stroke="midnightblue" points="1061.03,-318.68 1065.66,-328.21 1067.99,-317.88 1061.03,-318.68"/>
</g>
<!-- Node21&#45;&gt;Node10 -->
<g id="edge29" class="edge">
<title>Node21&#45;&gt;Node10</title>
<path fill="none" stroke="midnightblue" d="M727.16,-221.71C750.8,-236.77 788.9,-259.79 824,-275.5 828.13,-277.35 832.44,-279.13 836.82,-280.83"/>
<polygon fill="midnightblue" stroke="midnightblue" points="835.87,-284.21 846.46,-284.41 838.31,-277.65 835.87,-284.21"/>
</g>
<!-- Node21&#45;&gt;Node13 -->
<g id="edge27" class="edge">
<title>Node21&#45;&gt;Node13</title>
<path fill="none" stroke="midnightblue" d="M732.04,-191.4C750.26,-180.3 773.28,-163.68 788,-143.5 816.83,-103.98 789.18,-73.85 824,-39.5 825.09,-38.42 826.23,-37.4 827.42,-36.41"/>
<polygon fill="midnightblue" stroke="midnightblue" points="829.58,-39.17 835.77,-30.58 825.57,-33.43 829.58,-39.17"/>
</g>
<!-- Node21&#45;&gt;Node15 -->
<g id="edge30" class="edge">
<title>Node21&#45;&gt;Node15</title>
<path fill="none" stroke="midnightblue" d="M764.12,-220.24C782.15,-224.36 802.17,-228.94 821.06,-233.26"/>
<polygon fill="midnightblue" stroke="midnightblue" points="820.3,-236.67 830.82,-235.49 821.86,-229.85 820.3,-236.67"/>
</g>
<!-- Node21&#45;&gt;Node17 -->
<g id="edge25" class="edge">
<title>Node21&#45;&gt;Node17</title>
<path fill="none" stroke="midnightblue" d="M764.12,-198.04C820.76,-192.95 906.34,-192.9 971,-226.5 1010.42,-246.98 1039.64,-291.44 1054.94,-319.27"/>
<polygon fill="midnightblue" stroke="midnightblue" points="1051.99,-321.17 1059.77,-328.36 1058.17,-317.88 1051.99,-321.17"/>
</g>
<!-- Node21&#45;&gt;Node20 -->
<g id="edge31" class="edge">
<title>Node21&#45;&gt;Node20</title>
<path fill="none" stroke="midnightblue" d="M764.06,-192.13C772.81,-188.13 781.16,-183.01 788,-176.5 818.31,-147.65 793.53,-118.18 824,-89.5 825.65,-87.94 827.41,-86.48 829.25,-85.11"/>
<polygon fill="midnightblue" stroke="midnightblue" points="831.22,-88.01 837.75,-79.67 827.44,-82.11 831.22,-88.01"/>
</g>
<!-- Node22 -->
<g id="node22" class="node">
<title>Node22</title>
<g id="a_node22"><a xlink:href="classRa_1_1Engine_1_1EntityManager.html#a34aaf911d9ee2d1c592b260d9614f5bc" target="_top" xlink:title="Check wether an entity with a given name exists or not.">
<polygon fill="white" stroke="black" points="824.5,-147.5 824.5,-177.5 970.5,-177.5 970.5,-147.5 824.5,-147.5"/>
<text text-anchor="start" x="832.5" y="-165.5" font-family="Helvetica,sans-Serif" font-size="10.00">Ra::Engine::EntityManager</text>
<text text-anchor="middle" x="897.5" y="-154.5" font-family="Helvetica,sans-Serif" font-size="10.00">::entityExists</text>
</a>
</g>
</g>
<!-- Node21&#45;&gt;Node22 -->
<g id="edge26" class="edge">
<title>Node21&#45;&gt;Node22</title>
<path fill="none" stroke="midnightblue" d="M764.12,-192.76C782.15,-188.64 802.17,-184.06 821.06,-179.74"/>
<polygon fill="midnightblue" stroke="midnightblue" points="821.86,-183.15 830.82,-177.51 820.3,-176.33 821.86,-183.15"/>
</g>
<!-- Node23 -->
<g id="node23" class="node">
<title>Node23</title>
<g id="a_node23"><a xlink:href="classRa_1_1Engine_1_1RadiumEngine.html#a26f952bd9650234940f69053db06d118" target="_top" xlink:title=" ">
<polygon fill="white" stroke="black" points="825,-98.5 825,-128.5 970,-128.5 970,-98.5 825,-98.5"/>
<text text-anchor="start" x="833" y="-116.5" font-family="Helvetica,sans-Serif" font-size="10.00">Ra::Engine::RadiumEngine</text>
<text text-anchor="middle" x="897.5" y="-105.5" font-family="Helvetica,sans-Serif" font-size="10.00">::getEntityManager</text>
</a>
</g>
</g>
<!-- Node21&#45;&gt;Node23 -->
<g id="edge28" class="edge">
<title>Node21&#45;&gt;Node23</title>
<path fill="none" stroke="midnightblue" d="M758.21,-191.38C768.52,-187.35 778.92,-182.42 788,-176.5 807.49,-163.79 804.44,-151.1 824,-138.5 827.15,-136.47 830.49,-134.58 833.93,-132.84"/>
<polygon fill="midnightblue" stroke="midnightblue" points="835.63,-135.9 843.23,-128.52 832.68,-129.55 835.63,-135.9"/>
</g>
<!-- Node24&#45;&gt;Node8 -->
<g id="edge33" class="edge">
<title>Node24&#45;&gt;Node8</title>
<path fill="none" stroke="midnightblue" d="M582.15,-405.81C590.59,-406.85 599.2,-407.9 607.74,-408.95"/>
<polygon fill="midnightblue" stroke="midnightblue" points="607.36,-412.43 617.71,-410.17 608.21,-405.48 607.36,-412.43"/>
</g>
</g>
</svg>
        <g id="navigator" transform="translate(0 0)" fill="#404254">
                <rect fill="#f2f5e9" fill-opacity="0.5" stroke="#606060" stroke-width=".5" x="0" y="0" width="60" height="60"/>
                <use id="zoomplus" xlink:href="#zoomPlus" x="17" y="9" onmousedown="handleZoom(evt,'in')"/>
                <use id="zoomminus" xlink:href="#zoomMin" x="42" y="9" onmousedown="handleZoom(evt,'out')"/>
                <use id="reset" xlink:href="#resetDef" x="30" y="36" onmousedown="handleReset()"/>
                <g id="arrowUp" xlink:href="#dirArrow" transform="translate(30 24)" onmousedown="handlePan(0,-1)">
                  <use xlink:href="#rim" fill="#404040">
                        <set attributeName="fill" to="#808080" begin="arrowUp.mouseover" end="arrowUp.mouseout"/>
                  </use>
                  <path fill="none" stroke="white" stroke-width="1.5" d="M0,-3.0v7 M-2.5,-0.5L0,-3.0L2.5,-0.5"/>
                </g>
                <g id="arrowRight" xlink:href="#dirArrow" transform="rotate(90) translate(36 -43)" onmousedown="handlePan(1,0)">
                  <use xlink:href="#rim" fill="#404040">
                        <set attributeName="fill" to="#808080" begin="arrowRight.mouseover" end="arrowRight.mouseout"/>
                  </use>
                  <path fill="none" stroke="white" stroke-width="1.5" d="M0,-3.0v7 M-2.5,-0.5L0,-3.0L2.5,-0.5"/>
                </g>
                <g id="arrowDown" xlink:href="#dirArrow" transform="rotate(180) translate(-30 -48)" onmousedown="handlePan(0,1)">
                  <use xlink:href="#rim" fill="#404040">
                        <set attributeName="fill" to="#808080" begin="arrowDown.mouseover" end="arrowDown.mouseout"/>
                  </use>
                  <path fill="none" stroke="white" stroke-width="1.5" d="M0,-3.0v7 M-2.5,-0.5L0,-3.0L2.5,-0.5"/>
                </g>
                <g id="arrowLeft" xlink:href="#dirArrow" transform="rotate(270) translate(-36 17)" onmousedown="handlePan(-1,0)">
                  <use xlink:href="#rim" fill="#404040">
                        <set attributeName="fill" to="#808080" begin="arrowLeft.mouseover" end="arrowLeft.mouseout"/>
                  </use>
                  <path fill="none" stroke="white" stroke-width="1.5" d="M0,-3.0v7 M-2.5,-0.5L0,-3.0L2.5,-0.5"/>
                </g>
        </g>
        <svg viewBox="0 0 15 15" width="100%" height="30px" preserveAspectRatio="xMaxYMin meet">
         <g id="arrow_out" transform="scale(0.3 0.3)">
          <a xlink:href="classRa_1_1GuiBase_1_1SelectionManager_a356fa48fb5bb174ac7dfbfbec092dcf1_cgraph_org.svg" target="_base">
           <rect id="button" ry="5" rx="5" y="6" x="6" height="38" width="38"
                fill="#f2f5e9" fill-opacity="0.5" stroke="#606060" stroke-width="1.0"/>
           <path id="arrow"
             d="M 11.500037,31.436501 C 11.940474,20.09759 22.043105,11.32322 32.158766,21.979434 L 37.068811,17.246167 C 37.068811,17.246167 37.088388,32 37.088388,32 L 22.160133,31.978069 C 22.160133,31.978069 26.997745,27.140456 26.997745,27.140456 C 18.528582,18.264221 13.291696,25.230495 11.500037,31.436501 z"
             style="fill:#404040;"/>
          </a>
         </g>
        </svg>
</svg>
