<?xml version="1.0" encoding="UTF-8" standalone="no"?>
<!DOCTYPE svg PUBLIC "-//W3C//DTD SVG 1.1//EN"
 "http://www.w3.org/Graphics/SVG/1.1/DTD/svg11.dtd">
<!-- Generated by graphviz version 2.40.1 (20161225.0304)
 -->
<!-- Title: Ra::GuiBase::MainWindowInterface Pages: 1 -->
<svg width="196pt" height="259pt"
 viewBox="0.00 0.00 196.00 259.00" xmlns="http://www.w3.org/2000/svg" xmlns:xlink="http://www.w3.org/1999/xlink">
<g id="graph0" class="graph" transform="scale(1 1) rotate(0) translate(4 255)">
<title>Ra::GuiBase::MainWindowInterface</title>
<polygon fill="#ffffff" stroke="transparent" points="-4,4 -4,-255 192,-255 192,4 -4,4"/>
<!-- Node3 -->
<g id="node1" class="node">
<title>Node3</title>
<polygon fill="#bfbfbf" stroke="#000000" points="0,-.5 0,-156.5 188,-156.5 188,-.5 0,-.5"/>
<text text-anchor="middle" x="94" y="-144.5" font-family="Helvetica,sans-Serif" font-size="10.00" fill="#000000">Ra::GuiBase::MainWindowInterface</text>
<polyline fill="none" stroke="#000000" points="0,-137.5 188,-137.5 "/>
<text text-anchor="middle" x="94" y="-125.5" font-family="Helvetica,sans-Serif" font-size="10.00" fill="#000000"> </text>
<polyline fill="none" stroke="#000000" points="0,-118.5 188,-118.5 "/>
<text text-anchor="start" x="8" y="-106.5" font-family="Helvetica,sans-Serif" font-size="10.00" fill="#000000">+ MainWindowInterface()</text>
<text text-anchor="start" x="8" y="-95.5" font-family="Helvetica,sans-Serif" font-size="10.00" fill="#000000">+ ~MainWindowInterface()</text>
<text text-anchor="start" x="8" y="-84.5" font-family="Helvetica,sans-Serif" font-size="10.00" fill="#000000">+ getViewer()</text>
<text text-anchor="start" x="8" y="-73.5" font-family="Helvetica,sans-Serif" font-size="10.00" fill="#000000">+ getSelectionManager()</text>
<text text-anchor="start" x="8" y="-62.5" font-family="Helvetica,sans-Serif" font-size="10.00" fill="#000000">+ getTimeline()</text>
<text text-anchor="start" x="8" y="-51.5" font-family="Helvetica,sans-Serif" font-size="10.00" fill="#000000">+ updateUi()</text>
<text text-anchor="start" x="8" y="-40.5" font-family="Helvetica,sans-Serif" font-size="10.00" fill="#000000">+ onFrameComplete()</text>
<text text-anchor="start" x="8" y="-29.5" font-family="Helvetica,sans-Serif" font-size="10.00" fill="#000000">+ addRenderer()</text>
<text text-anchor="start" x="8" y="-18.5" font-family="Helvetica,sans-Serif" font-size="10.00" fill="#000000">+ postLoadFile()</text>
<text text-anchor="start" x="8" y="-7.5" font-family="Helvetica,sans-Serif" font-size="10.00" fill="#000000">+ cleanup()</text>
</g>
<!-- Node4 -->
<g id="node2" class="node">
<title>Node4</title>
<g id="a_node2"><a xlink:href="classQMainWindow.html" target="_top" xlink:title="{QMainWindow\n||}">
<polygon fill="#ffffff" stroke="#000000" points="51,-193.5 51,-250.5 137,-250.5 137,-193.5 51,-193.5"/>
<text text-anchor="middle" x="94" y="-238.5" font-family="Helvetica,sans-Serif" font-size="10.00" fill="#000000">QMainWindow</text>
<polyline fill="none" stroke="#000000" points="51,-231.5 137,-231.5 "/>
<text text-anchor="middle" x="94" y="-219.5" font-family="Helvetica,sans-Serif" font-size="10.00" fill="#000000"> </text>
<polyline fill="none" stroke="#000000" points="51,-212.5 137,-212.5 "/>
<text text-anchor="middle" x="94" y="-200.5" font-family="Helvetica,sans-Serif" font-size="10.00" fill="#000000"> </text>
</a>
</g>
</g>
<!-- Node4&#45;&gt;Node3 -->
<g id="edge1" class="edge">
<title>Node4&#45;&gt;Node3</title>
<path fill="none" stroke="#191970" d="M94,-183.1909C94,-174.8484 94,-165.7471 94,-156.5064"/>
<polygon fill="none" stroke="#191970" points="90.5001,-183.3055 94,-193.3055 97.5001,-183.3056 90.5001,-183.3055"/>
</g>
</g>
</svg>
