<?xml version="1.0" encoding="UTF-8" standalone="no"?>
<!DOCTYPE svg PUBLIC "-//W3C//DTD SVG 1.1//EN"
 "http://www.w3.org/Graphics/SVG/1.1/DTD/svg11.dtd">
<!-- Generated by graphviz version 2.43.0 (0)
 -->
<!-- Title: Ra::Engine::Mesh Pages: 1 -->
<!--zoomable 1617 -->
<svg id="main" version="1.1" xmlns="http://www.w3.org/2000/svg" xmlns:xlink="http://www.w3.org/1999/xlink" xml:space="preserve" onload="init(evt)">
<style type="text/css"><![CDATA[
.edge:hover path { stroke: red; }
.edge:hover polygon { stroke: red; fill: red; }
]]></style>
<script type="text/javascript"><![CDATA[
var edges = document.getElementsByTagName('g');
if (edges && edges.length) {
  for (var i=0;i<edges.length;i++) {
    if (edges[i].id.substr(0,4)=='edge') {
      edges[i].setAttribute('class','edge');
    }
  }
}
]]></script>
        <defs>
                <circle id="rim" cx="0" cy="0" r="7"/>
                <circle id="rim2" cx="0" cy="0" r="3.5"/>
                <g id="zoomPlus">
                        <use xlink:href="#rim" fill="#404040">
                                <set attributeName="fill" to="#808080" begin="zoomplus.mouseover" end="zoomplus.mouseout"/>
                        </use>
                        <path d="M-4,0h8M0,-4v8" fill="none" stroke="white" stroke-width="1.5" pointer-events="none"/>
                </g>
                <g id="zoomMin">
                        <use xlink:href="#rim" fill="#404040">
                                <set attributeName="fill" to="#808080" begin="zoomminus.mouseover" end="zoomminus.mouseout"/>
                        </use>
                        <path d="M-4,0h8" fill="none" stroke="white" stroke-width="1.5" pointer-events="none"/>
                </g>
                <g id="dirArrow">
                        <path fill="none" stroke="white" stroke-width="1.5" d="M0,-3.0v7 M-2.5,-0.5L0,-3.0L2.5,-0.5"/>
                </g>
               <g id="resetDef">
                       <use xlink:href="#rim2" fill="#404040">
                               <set attributeName="fill" to="#808080" begin="reset.mouseover" end="reset.mouseout"/>
                       </use>
               </g>
        </defs>

<script type="text/javascript">
var viewWidth = 491;
var viewHeight = 1617;
var sectionId = 'dynsection-0';
</script>
<script xlink:href="svgpan.js"/>
<svg id="graph" class="graph">
<g id="viewport">
<title>Ra::Engine::Mesh</title>
<polygon fill="white" stroke="transparent" points="-4,4 -4,-1613 487,-1613 487,4 -4,4"/>
<!-- Node1 -->
<g id="node1" class="node">
<title>Node1</title>
<g id="a_node1"><a xlink:title="Mesh, own a Core::Geometry::TriangleMesh.">
<polygon fill="#bfbfbf" stroke="black" points="132,-0.5 132,-68.5 237,-68.5 237,-0.5 132,-0.5"/>
<text text-anchor="middle" x="184.5" y="-56.5" font-family="Helvetica,sans-Serif" font-size="10.00">Ra::Engine::Mesh</text>
<polyline fill="none" stroke="black" points="132,-49.5 237,-49.5 "/>
<text text-anchor="middle" x="184.5" y="-37.5" font-family="Helvetica,sans-Serif" font-size="10.00"> </text>
<polyline fill="none" stroke="black" points="132,-30.5 237,-30.5 "/>
<text text-anchor="start" x="140" y="-18.5" font-family="Helvetica,sans-Serif" font-size="10.00">+ getNumFaces()</text>
<text text-anchor="start" x="140" y="-7.5" font-family="Helvetica,sans-Serif" font-size="10.00">+ loadGeometry()</text>
</a>
</g>
</g>
<!-- Node2 -->
<g id="node2" class="node">
<title>Node2</title>
<g id="a_node2"><a xlink:href="classRa_1_1Engine_1_1IndexedGeometry.html" target="_top" xlink:title=" ">
<polygon fill="white" stroke="black" points="91.5,-106.5 91.5,-207.5 277.5,-207.5 277.5,-106.5 91.5,-106.5"/>
<text text-anchor="start" x="99.5" y="-195.5" font-family="Helvetica,sans-Serif" font-size="10.00">Ra::Engine::IndexedGeometry</text>
<text text-anchor="middle" x="184.5" y="-184.5" font-family="Helvetica,sans-Serif" font-size="10.00">&lt; Core::Geometry::TriangleMesh &gt;</text>
<polyline fill="none" stroke="black" points="91.5,-177.5 277.5,-177.5 "/>
<text text-anchor="middle" x="184.5" y="-165.5" font-family="Helvetica,sans-Serif" font-size="10.00"> </text>
<polyline fill="none" stroke="black" points="91.5,-158.5 277.5,-158.5 "/>
<text text-anchor="start" x="99.5" y="-146.5" font-family="Helvetica,sans-Serif" font-size="10.00">+ IndexedGeometry()</text>
<text text-anchor="start" x="99.5" y="-135.5" font-family="Helvetica,sans-Serif" font-size="10.00">+ render()</text>
<text text-anchor="start" x="99.5" y="-124.5" font-family="Helvetica,sans-Serif" font-size="10.00">+ loadGeometry()</text>
<text text-anchor="start" x="99.5" y="-113.5" font-family="Helvetica,sans-Serif" font-size="10.00"># updateGL_specific_impl()</text>
</a>
</g>
</g>
<!-- Node2&#45;&gt;Node1 -->
<g id="edge1" class="edge">
<title>Node2&#45;&gt;Node1</title>
<path fill="none" stroke="midnightblue" d="M184.5,-96.07C184.5,-86.61 184.5,-77.14 184.5,-68.59"/>
<polygon fill="none" stroke="midnightblue" points="181,-96.29 184.5,-106.29 188,-96.29 181,-96.29"/>
</g>
<!-- Node3 -->
<g id="node3" class="node">
<title>Node3</title>
<g id="a_node3"><a xlink:href="classRa_1_1Engine_1_1CoreGeometryDisplayable.html" target="_top" xlink:title=" ">
<polygon fill="white" stroke="black" points="298,-266.5 298,-620.5 483,-620.5 483,-266.5 298,-266.5"/>
<text text-anchor="start" x="306" y="-608.5" font-family="Helvetica,sans-Serif" font-size="10.00">Ra::Engine::CoreGeometry</text>
<text text-anchor="start" x="306" y="-597.5" font-family="Helvetica,sans-Serif" font-size="10.00">Displayable&lt; Core::Geometry</text>
<text text-anchor="middle" x="390.5" y="-586.5" font-family="Helvetica,sans-Serif" font-size="10.00">::TriangleMesh &gt;</text>
<polyline fill="none" stroke="black" points="298,-579.5 483,-579.5 "/>
<text text-anchor="start" x="306" y="-567.5" font-family="Helvetica,sans-Serif" font-size="10.00"># m_translationTableMeshTo</text>
<text text-anchor="start" x="306" y="-556.5" font-family="Helvetica,sans-Serif" font-size="10.00">Shader</text>
<text text-anchor="start" x="306" y="-545.5" font-family="Helvetica,sans-Serif" font-size="10.00"># m_translationTableShader</text>
<text text-anchor="start" x="306" y="-534.5" font-family="Helvetica,sans-Serif" font-size="10.00">ToMesh</text>
<text text-anchor="start" x="306" y="-523.5" font-family="Helvetica,sans-Serif" font-size="10.00"># m_mesh</text>
<polyline fill="none" stroke="black" points="298,-516.5 483,-516.5 "/>
<text text-anchor="start" x="306" y="-504.5" font-family="Helvetica,sans-Serif" font-size="10.00">+ CoreGeometryDisplayable()</text>
<text text-anchor="start" x="306" y="-493.5" font-family="Helvetica,sans-Serif" font-size="10.00">+ getAttribArrayGeometry()</text>
<text text-anchor="start" x="306" y="-482.5" font-family="Helvetica,sans-Serif" font-size="10.00">+ getAttribArrayGeometry()</text>
<text text-anchor="start" x="306" y="-471.5" font-family="Helvetica,sans-Serif" font-size="10.00">+ addAttrib()</text>
<text text-anchor="start" x="306" y="-460.5" font-family="Helvetica,sans-Serif" font-size="10.00">+ getNumVertices()</text>
<text text-anchor="start" x="306" y="-449.5" font-family="Helvetica,sans-Serif" font-size="10.00">+ loadGeometry()</text>
<text text-anchor="start" x="306" y="-438.5" font-family="Helvetica,sans-Serif" font-size="10.00">+ updateGL()</text>
<text text-anchor="start" x="306" y="-427.5" font-family="Helvetica,sans-Serif" font-size="10.00">+ setAttribNameCorrespondance()</text>
<text text-anchor="start" x="306" y="-416.5" font-family="Helvetica,sans-Serif" font-size="10.00">+ getAbstractGeometry()</text>
<text text-anchor="start" x="306" y="-405.5" font-family="Helvetica,sans-Serif" font-size="10.00">+ getAbstractGeometry()</text>
<text text-anchor="start" x="306" y="-394.5" font-family="Helvetica,sans-Serif" font-size="10.00">+ getCoreGeometry()</text>
<text text-anchor="start" x="306" y="-383.5" font-family="Helvetica,sans-Serif" font-size="10.00">+ getCoreGeometry()</text>
<text text-anchor="start" x="306" y="-372.5" font-family="Helvetica,sans-Serif" font-size="10.00"># updateGL_specific_impl()</text>
<text text-anchor="start" x="306" y="-361.5" font-family="Helvetica,sans-Serif" font-size="10.00"># loadGeometry_common()</text>
<text text-anchor="start" x="306" y="-350.5" font-family="Helvetica,sans-Serif" font-size="10.00"># setupCoreMeshObservers()</text>
<text text-anchor="start" x="306" y="-339.5" font-family="Helvetica,sans-Serif" font-size="10.00"># autoVertexAttribPointer()</text>
<text text-anchor="start" x="306" y="-328.5" font-family="Helvetica,sans-Serif" font-size="10.00"># addAttribObserver()</text>
<text text-anchor="start" x="306" y="-317.5" font-family="Helvetica,sans-Serif" font-size="10.00"># addToTranslationTable()</text>
<text text-anchor="start" x="306" y="-306.5" font-family="Helvetica,sans-Serif" font-size="10.00">* getAbstractGeometry()</text>
<text text-anchor="start" x="306" y="-295.5" font-family="Helvetica,sans-Serif" font-size="10.00">* getAbstractGeometry()</text>
<text text-anchor="start" x="306" y="-284.5" font-family="Helvetica,sans-Serif" font-size="10.00">* getCoreGeometry()</text>
<text text-anchor="start" x="306" y="-273.5" font-family="Helvetica,sans-Serif" font-size="10.00">* getCoreGeometry()</text>
</a>
</g>
</g>
<!-- Node3&#45;&gt;Node2 -->
<g id="edge2" class="edge">
<title>Node3&#45;&gt;Node2</title>
<path fill="none" stroke="midnightblue" d="M346.08,-257.21C339.81,-246.08 332.66,-235.55 324.5,-226 311.77,-211.11 295.02,-199.2 277.55,-189.77"/>
<polygon fill="none" stroke="midnightblue" points="343.11,-259.09 350.92,-266.26 349.29,-255.79 343.11,-259.09"/>
</g>
<!-- Node4 -->
<g id="node4" class="node">
<title>Node4</title>
<g id="a_node4"><a xlink:href="classRa_1_1Engine_1_1AttribArrayDisplayable.html" target="_top" xlink:title=" ">
<polygon fill="white" stroke="black" points="222,-1060.5 222,-1392.5 407,-1392.5 407,-1060.5 222,-1060.5"/>
<text text-anchor="middle" x="314.5" y="-1380.5" font-family="Helvetica,sans-Serif" font-size="10.00">Ra::Engine::AttribArrayDisplayable</text>
<polyline fill="none" stroke="black" points="222,-1373.5 407,-1373.5 "/>
<text text-anchor="start" x="230" y="-1361.5" font-family="Helvetica,sans-Serif" font-size="10.00"># m_vao</text>
<text text-anchor="start" x="230" y="-1350.5" font-family="Helvetica,sans-Serif" font-size="10.00"># m_renderMode</text>
<text text-anchor="start" x="230" y="-1339.5" font-family="Helvetica,sans-Serif" font-size="10.00"># m_vbos</text>
<text text-anchor="start" x="230" y="-1328.5" font-family="Helvetica,sans-Serif" font-size="10.00"># m_dataDirty</text>
<text text-anchor="start" x="230" y="-1317.5" font-family="Helvetica,sans-Serif" font-size="10.00"># m_handleToBuffer</text>
<text text-anchor="start" x="230" y="-1306.5" font-family="Helvetica,sans-Serif" font-size="10.00"># m_isDirty</text>
<polyline fill="none" stroke="black" points="222,-1299.5 407,-1299.5 "/>
<text text-anchor="start" x="230" y="-1287.5" font-family="Helvetica,sans-Serif" font-size="10.00">+ AttribArrayDisplayable()</text>
<text text-anchor="start" x="230" y="-1276.5" font-family="Helvetica,sans-Serif" font-size="10.00">+ AttribArrayDisplayable()</text>
<text text-anchor="start" x="230" y="-1265.5" font-family="Helvetica,sans-Serif" font-size="10.00">+ operator=()</text>
<text text-anchor="start" x="230" y="-1254.5" font-family="Helvetica,sans-Serif" font-size="10.00">+ ~AttribArrayDisplayable()</text>
<text text-anchor="start" x="230" y="-1243.5" font-family="Helvetica,sans-Serif" font-size="10.00">+ setRenderMode()</text>
<text text-anchor="start" x="230" y="-1232.5" font-family="Helvetica,sans-Serif" font-size="10.00">+ getRenderMode()</text>
<text text-anchor="start" x="230" y="-1221.5" font-family="Helvetica,sans-Serif" font-size="10.00">+ updateGL()</text>
<text text-anchor="start" x="230" y="-1210.5" font-family="Helvetica,sans-Serif" font-size="10.00">+ getName()</text>
<text text-anchor="start" x="230" y="-1199.5" font-family="Helvetica,sans-Serif" font-size="10.00">+ setDirty()</text>
<text text-anchor="start" x="230" y="-1188.5" font-family="Helvetica,sans-Serif" font-size="10.00">+ setDirty()</text>
<text text-anchor="start" x="230" y="-1177.5" font-family="Helvetica,sans-Serif" font-size="10.00">+ setDirty()</text>
<text text-anchor="start" x="230" y="-1166.5" font-family="Helvetica,sans-Serif" font-size="10.00">+ getAttribArrayGeometry()</text>
<text text-anchor="start" x="230" y="-1155.5" font-family="Helvetica,sans-Serif" font-size="10.00">+ getAttribArrayGeometry()</text>
<text text-anchor="start" x="230" y="-1144.5" font-family="Helvetica,sans-Serif" font-size="10.00">+ getAttribName()</text>
<text text-anchor="start" x="230" y="-1133.5" font-family="Helvetica,sans-Serif" font-size="10.00"># updatePickingRenderMode()</text>
<text text-anchor="start" x="230" y="-1122.5" font-family="Helvetica,sans-Serif" font-size="10.00">* setDirty()</text>
<text text-anchor="start" x="230" y="-1111.5" font-family="Helvetica,sans-Serif" font-size="10.00">* setDirty()</text>
<text text-anchor="start" x="230" y="-1100.5" font-family="Helvetica,sans-Serif" font-size="10.00">* setDirty()</text>
<text text-anchor="start" x="230" y="-1089.5" font-family="Helvetica,sans-Serif" font-size="10.00">* getAttribName()</text>
<text text-anchor="start" x="230" y="-1078.5" font-family="Helvetica,sans-Serif" font-size="10.00">* getAttribArrayGeometry()</text>
<text text-anchor="start" x="230" y="-1067.5" font-family="Helvetica,sans-Serif" font-size="10.00">* getAttribArrayGeometry()</text>
</a>
</g>
</g>
<!-- Node4&#45;&gt;Node3 -->
<g id="edge3" class="edge">
<title>Node4&#45;&gt;Node3</title>
<path fill="none" stroke="midnightblue" d="M338.26,-1050.3C339.39,-1041.07 340.47,-1031.93 341.5,-1023 359.96,-862.42 363.51,-822.12 376.5,-661 377.56,-647.86 378.59,-634.27 379.58,-620.59"/>
<polygon fill="none" stroke="midnightblue" points="334.77,-1049.99 337.02,-1060.34 341.72,-1050.85 334.77,-1049.99"/>
</g>
<!-- Node6 -->
<g id="node6" class="node">
<title>Node6</title>
<g id="a_node6"><a xlink:href="classRa_1_1Engine_1_1CoreGeometryDisplayable.html" target="_top" xlink:title="Template class to manage the Displayable aspect of a Core Geomertry, such as TriangleMesh.">
<polygon fill="white" stroke="black" points="147,-679.5 147,-1022.5 332,-1022.5 332,-679.5 147,-679.5"/>
<text text-anchor="start" x="155" y="-1010.5" font-family="Helvetica,sans-Serif" font-size="10.00">Ra::Engine::CoreGeometry</text>
<text text-anchor="middle" x="239.5" y="-999.5" font-family="Helvetica,sans-Serif" font-size="10.00">Displayable&lt; T &gt;</text>
<polyline fill="none" stroke="black" points="147,-992.5 332,-992.5 "/>
<text text-anchor="start" x="155" y="-980.5" font-family="Helvetica,sans-Serif" font-size="10.00"># m_translationTableMeshTo</text>
<text text-anchor="start" x="155" y="-969.5" font-family="Helvetica,sans-Serif" font-size="10.00">Shader</text>
<text text-anchor="start" x="155" y="-958.5" font-family="Helvetica,sans-Serif" font-size="10.00"># m_translationTableShader</text>
<text text-anchor="start" x="155" y="-947.5" font-family="Helvetica,sans-Serif" font-size="10.00">ToMesh</text>
<text text-anchor="start" x="155" y="-936.5" font-family="Helvetica,sans-Serif" font-size="10.00"># m_mesh</text>
<polyline fill="none" stroke="black" points="147,-929.5 332,-929.5 "/>
<text text-anchor="start" x="155" y="-917.5" font-family="Helvetica,sans-Serif" font-size="10.00">+ CoreGeometryDisplayable()</text>
<text text-anchor="start" x="155" y="-906.5" font-family="Helvetica,sans-Serif" font-size="10.00">+ getAttribArrayGeometry()</text>
<text text-anchor="start" x="155" y="-895.5" font-family="Helvetica,sans-Serif" font-size="10.00">+ getAttribArrayGeometry()</text>
<text text-anchor="start" x="155" y="-884.5" font-family="Helvetica,sans-Serif" font-size="10.00">+ addAttrib()</text>
<text text-anchor="start" x="155" y="-873.5" font-family="Helvetica,sans-Serif" font-size="10.00">+ getNumVertices()</text>
<text text-anchor="start" x="155" y="-862.5" font-family="Helvetica,sans-Serif" font-size="10.00">+ loadGeometry()</text>
<text text-anchor="start" x="155" y="-851.5" font-family="Helvetica,sans-Serif" font-size="10.00">+ updateGL()</text>
<text text-anchor="start" x="155" y="-840.5" font-family="Helvetica,sans-Serif" font-size="10.00">+ setAttribNameCorrespondance()</text>
<text text-anchor="start" x="155" y="-829.5" font-family="Helvetica,sans-Serif" font-size="10.00">+ getAbstractGeometry()</text>
<text text-anchor="start" x="155" y="-818.5" font-family="Helvetica,sans-Serif" font-size="10.00">+ getAbstractGeometry()</text>
<text text-anchor="start" x="155" y="-807.5" font-family="Helvetica,sans-Serif" font-size="10.00">+ getCoreGeometry()</text>
<text text-anchor="start" x="155" y="-796.5" font-family="Helvetica,sans-Serif" font-size="10.00">+ getCoreGeometry()</text>
<text text-anchor="start" x="155" y="-785.5" font-family="Helvetica,sans-Serif" font-size="10.00"># updateGL_specific_impl()</text>
<text text-anchor="start" x="155" y="-774.5" font-family="Helvetica,sans-Serif" font-size="10.00"># loadGeometry_common()</text>
<text text-anchor="start" x="155" y="-763.5" font-family="Helvetica,sans-Serif" font-size="10.00"># setupCoreMeshObservers()</text>
<text text-anchor="start" x="155" y="-752.5" font-family="Helvetica,sans-Serif" font-size="10.00"># autoVertexAttribPointer()</text>
<text text-anchor="start" x="155" y="-741.5" font-family="Helvetica,sans-Serif" font-size="10.00"># addAttribObserver()</text>
<text text-anchor="start" x="155" y="-730.5" font-family="Helvetica,sans-Serif" font-size="10.00"># addToTranslationTable()</text>
<text text-anchor="start" x="155" y="-719.5" font-family="Helvetica,sans-Serif" font-size="10.00">* getAbstractGeometry()</text>
<text text-anchor="start" x="155" y="-708.5" font-family="Helvetica,sans-Serif" font-size="10.00">* getAbstractGeometry()</text>
<text text-anchor="start" x="155" y="-697.5" font-family="Helvetica,sans-Serif" font-size="10.00">* getCoreGeometry()</text>
<text text-anchor="start" x="155" y="-686.5" font-family="Helvetica,sans-Serif" font-size="10.00">* getCoreGeometry()</text>
</a>
</g>
</g>
<!-- Node4&#45;&gt;Node6 -->
<g id="edge6" class="edge">
<title>Node4&#45;&gt;Node6</title>
<path fill="none" stroke="midnightblue" d="M279.33,-1050.34C277.48,-1041.12 275.62,-1031.86 273.77,-1022.66"/>
<polygon fill="none" stroke="midnightblue" points="275.93,-1051.2 281.33,-1060.32 282.79,-1049.82 275.93,-1051.2"/>
</g>
<!-- Node5 -->
<g id="node5" class="node">
<title>Node5</title>
<g id="a_node5"><a xlink:href="classRa_1_1Engine_1_1Displayable.html" target="_top" xlink:title=" ">
<polygon fill="white" stroke="black" points="244.5,-1430.5 244.5,-1608.5 384.5,-1608.5 384.5,-1430.5 244.5,-1430.5"/>
<text text-anchor="middle" x="314.5" y="-1596.5" font-family="Helvetica,sans-Serif" font-size="10.00">Ra::Engine::Displayable</text>
<polyline fill="none" stroke="black" points="244.5,-1589.5 384.5,-1589.5 "/>
<text text-anchor="start" x="252.5" y="-1577.5" font-family="Helvetica,sans-Serif" font-size="10.00"># m_pickingRenderMode</text>
<polyline fill="none" stroke="black" points="244.5,-1570.5 384.5,-1570.5 "/>
<text text-anchor="start" x="252.5" y="-1558.5" font-family="Helvetica,sans-Serif" font-size="10.00">+ Displayable()</text>
<text text-anchor="start" x="252.5" y="-1547.5" font-family="Helvetica,sans-Serif" font-size="10.00">+ Displayable()</text>
<text text-anchor="start" x="252.5" y="-1536.5" font-family="Helvetica,sans-Serif" font-size="10.00">+ operator=()</text>
<text text-anchor="start" x="252.5" y="-1525.5" font-family="Helvetica,sans-Serif" font-size="10.00">+ ~Displayable()</text>
<text text-anchor="start" x="252.5" y="-1514.5" font-family="Helvetica,sans-Serif" font-size="10.00">+ pickingRenderMode()</text>
<text text-anchor="start" x="252.5" y="-1503.5" font-family="Helvetica,sans-Serif" font-size="10.00">+ getName()</text>
<text text-anchor="start" x="252.5" y="-1492.5" font-family="Helvetica,sans-Serif" font-size="10.00">+ getAbstractGeometry()</text>
<text text-anchor="start" x="252.5" y="-1481.5" font-family="Helvetica,sans-Serif" font-size="10.00">+ getAbstractGeometry()</text>
<text text-anchor="start" x="252.5" y="-1470.5" font-family="Helvetica,sans-Serif" font-size="10.00">+ updateGL()</text>
<text text-anchor="start" x="252.5" y="-1459.5" font-family="Helvetica,sans-Serif" font-size="10.00">+ render()</text>
<text text-anchor="start" x="252.5" y="-1448.5" font-family="Helvetica,sans-Serif" font-size="10.00">+ getNumFaces()</text>
<text text-anchor="start" x="252.5" y="-1437.5" font-family="Helvetica,sans-Serif" font-size="10.00">+ getNumVertices()</text>
</a>
</g>
</g>
<!-- Node5&#45;&gt;Node4 -->
<g id="edge4" class="edge">
<title>Node5&#45;&gt;Node4</title>
<path fill="none" stroke="midnightblue" d="M314.5,-1420.32C314.5,-1411.28 314.5,-1401.96 314.5,-1392.54"/>
<polygon fill="none" stroke="midnightblue" points="311,-1420.4 314.5,-1430.4 318,-1420.4 311,-1420.4"/>
</g>
<!-- Node6&#45;&gt;Node3 -->
<g id="edge5" class="edge">
<title>Node6&#45;&gt;Node3</title>
<path fill="none" stroke="orange" d="M225.24,-669.66C228.91,-658.81 233.9,-648.47 240.5,-639 253.52,-620.3 271.11,-635.73 288.5,-621 291.74,-618.26 294.9,-615.38 297.98,-612.39"/>
<polygon fill="orange" stroke="orange" points="221.86,-668.73 222.34,-679.32 228.57,-670.75 221.86,-668.73"/>
<text text-anchor="start" x="240.5" y="-653" font-family="Helvetica,sans-Serif" font-size="10.00"> &lt; Core::Geometry::Triangle</text>
<text text-anchor="middle" x="308.5" y="-642" font-family="Helvetica,sans-Serif" font-size="10.00">Mesh &gt;</text>
</g>
<!-- Node8 -->
<g id="node8" class="node">
<title>Node8</title>
<g id="a_node8"><a xlink:href="classRa_1_1Engine_1_1IndexedGeometry.html" target="_top" xlink:title="A CoreGeometry, with indices.">
<polygon fill="white" stroke="black" points="89.5,-398.5 89.5,-488.5 279.5,-488.5 279.5,-398.5 89.5,-398.5"/>
<text text-anchor="middle" x="184.5" y="-476.5" font-family="Helvetica,sans-Serif" font-size="10.00">Ra::Engine::IndexedGeometry&lt; T &gt;</text>
<polyline fill="none" stroke="black" points="89.5,-469.5 279.5,-469.5 "/>
<text text-anchor="middle" x="184.5" y="-457.5" font-family="Helvetica,sans-Serif" font-size="10.00"> </text>
<polyline fill="none" stroke="black" points="89.5,-450.5 279.5,-450.5 "/>
<text text-anchor="start" x="97.5" y="-438.5" font-family="Helvetica,sans-Serif" font-size="10.00">+ IndexedGeometry()</text>
<text text-anchor="start" x="97.5" y="-427.5" font-family="Helvetica,sans-Serif" font-size="10.00">+ render()</text>
<text text-anchor="start" x="97.5" y="-416.5" font-family="Helvetica,sans-Serif" font-size="10.00">+ loadGeometry()</text>
<text text-anchor="start" x="97.5" y="-405.5" font-family="Helvetica,sans-Serif" font-size="10.00"># updateGL_specific_impl()</text>
</a>
</g>
</g>
<!-- Node6&#45;&gt;Node8 -->
<g id="edge9" class="edge">
<title>Node6&#45;&gt;Node8</title>
<path fill="none" stroke="midnightblue" d="M214.95,-668.96C205.9,-602.27 196.42,-532.4 190.49,-488.68"/>
<polygon fill="none" stroke="midnightblue" points="211.52,-669.77 216.33,-679.21 218.46,-668.83 211.52,-669.77"/>
</g>
<!-- Node7 -->
<g id="node7" class="node">
<title>Node7</title>
<g id="a_node7"><a xlink:href="classRa_1_1Engine_1_1VaoIndices.html" target="_top" xlink:title="Concept class to ensure consistent naming of VaoIndices accross derived classes.">
<polygon fill="white" stroke="black" points="0,-811.5 0,-890.5 127,-890.5 127,-811.5 0,-811.5"/>
<text text-anchor="middle" x="63.5" y="-878.5" font-family="Helvetica,sans-Serif" font-size="10.00">Ra::Engine::VaoIndices</text>
<polyline fill="none" stroke="black" points="0,-871.5 127,-871.5 "/>
<text text-anchor="start" x="8" y="-859.5" font-family="Helvetica,sans-Serif" font-size="10.00"># m_indices</text>
<text text-anchor="start" x="8" y="-848.5" font-family="Helvetica,sans-Serif" font-size="10.00"># m_indicesDirty</text>
<text text-anchor="start" x="8" y="-837.5" font-family="Helvetica,sans-Serif" font-size="10.00"># m_numElements</text>
<polyline fill="none" stroke="black" points="0,-830.5 127,-830.5 "/>
<text text-anchor="start" x="8" y="-818.5" font-family="Helvetica,sans-Serif" font-size="10.00">+ setIndicesDirty()</text>
</a>
</g>
</g>
<!-- Node7&#45;&gt;Node2 -->
<g id="edge7" class="edge">
<title>Node7&#45;&gt;Node2</title>
<path fill="none" stroke="midnightblue" d="M53.59,-801.33C34.9,-697.92 2.9,-450.65 80.5,-266 89.68,-244.16 105.47,-224.2 122.02,-207.55"/>
<polygon fill="none" stroke="midnightblue" points="50.2,-802.27 55.46,-811.47 57.09,-801 50.2,-802.27"/>
</g>
<!-- Node7&#45;&gt;Node8 -->
<g id="edge10" class="edge">
<title>Node7&#45;&gt;Node8</title>
<path fill="none" stroke="midnightblue" d="M77.9,-801.73C101.61,-722.28 148.5,-565.14 171.36,-488.54"/>
<polygon fill="none" stroke="midnightblue" points="74.5,-800.9 74.99,-811.49 81.21,-802.9 74.5,-800.9"/>
</g>
<!-- Node8&#45;&gt;Node2 -->
<g id="edge8" class="edge">
<title>Node8&#45;&gt;Node2</title>
<path fill="none" stroke="orange" d="M184.5,-388.29C184.5,-336.16 184.5,-258.01 184.5,-207.51"/>
<polygon fill="orange" stroke="orange" points="181,-388.36 184.5,-398.36 188,-388.36 181,-388.36"/>
<text text-anchor="start" x="184.5" y="-240" font-family="Helvetica,sans-Serif" font-size="10.00"> &lt; Core::Geometry::Triangle</text>
<text text-anchor="middle" x="252.5" y="-229" font-family="Helvetica,sans-Serif" font-size="10.00">Mesh &gt;</text>
</g>
</g>
</svg>
        <g id="navigator" transform="translate(0 0)" fill="#404254">
                <rect fill="#f2f5e9" fill-opacity="0.5" stroke="#606060" stroke-width=".5" x="0" y="0" width="60" height="60"/>
                <use id="zoomplus" xlink:href="#zoomPlus" x="17" y="9" onmousedown="handleZoom(evt,'in')"/>
                <use id="zoomminus" xlink:href="#zoomMin" x="42" y="9" onmousedown="handleZoom(evt,'out')"/>
                <use id="reset" xlink:href="#resetDef" x="30" y="36" onmousedown="handleReset()"/>
                <g id="arrowUp" xlink:href="#dirArrow" transform="translate(30 24)" onmousedown="handlePan(0,-1)">
                  <use xlink:href="#rim" fill="#404040">
                        <set attributeName="fill" to="#808080" begin="arrowUp.mouseover" end="arrowUp.mouseout"/>
                  </use>
                  <path fill="none" stroke="white" stroke-width="1.5" d="M0,-3.0v7 M-2.5,-0.5L0,-3.0L2.5,-0.5"/>
                </g>
                <g id="arrowRight" xlink:href="#dirArrow" transform="rotate(90) translate(36 -43)" onmousedown="handlePan(1,0)">
                  <use xlink:href="#rim" fill="#404040">
                        <set attributeName="fill" to="#808080" begin="arrowRight.mouseover" end="arrowRight.mouseout"/>
                  </use>
                  <path fill="none" stroke="white" stroke-width="1.5" d="M0,-3.0v7 M-2.5,-0.5L0,-3.0L2.5,-0.5"/>
                </g>
                <g id="arrowDown" xlink:href="#dirArrow" transform="rotate(180) translate(-30 -48)" onmousedown="handlePan(0,1)">
                  <use xlink:href="#rim" fill="#404040">
                        <set attributeName="fill" to="#808080" begin="arrowDown.mouseover" end="arrowDown.mouseout"/>
                  </use>
                  <path fill="none" stroke="white" stroke-width="1.5" d="M0,-3.0v7 M-2.5,-0.5L0,-3.0L2.5,-0.5"/>
                </g>
                <g id="arrowLeft" xlink:href="#dirArrow" transform="rotate(270) translate(-36 17)" onmousedown="handlePan(-1,0)">
                  <use xlink:href="#rim" fill="#404040">
                        <set attributeName="fill" to="#808080" begin="arrowLeft.mouseover" end="arrowLeft.mouseout"/>
                  </use>
                  <path fill="none" stroke="white" stroke-width="1.5" d="M0,-3.0v7 M-2.5,-0.5L0,-3.0L2.5,-0.5"/>
                </g>
        </g>
        <svg viewBox="0 0 15 15" width="100%" height="30px" preserveAspectRatio="xMaxYMin meet">
         <g id="arrow_out" transform="scale(0.3 0.3)">
          <a xlink:href="classRa_1_1Engine_1_1Mesh__inherit__graph_org.svg" target="_base">
           <rect id="button" ry="5" rx="5" y="6" x="6" height="38" width="38"
                fill="#f2f5e9" fill-opacity="0.5" stroke="#606060" stroke-width="1.0"/>
           <path id="arrow"
             d="M 11.500037,31.436501 C 11.940474,20.09759 22.043105,11.32322 32.158766,21.979434 L 37.068811,17.246167 C 37.068811,17.246167 37.088388,32 37.088388,32 L 22.160133,31.978069 C 22.160133,31.978069 26.997745,27.140456 26.997745,27.140456 C 18.528582,18.264221 13.291696,25.230495 11.500037,31.436501 z"
             style="fill:#404040;"/>
          </a>
         </g>
        </svg>
</svg>
