<?xml version="1.0" encoding="UTF-8" standalone="no"?>
<!DOCTYPE svg PUBLIC "-//W3C//DTD SVG 1.1//EN"
 "http://www.w3.org/Graphics/SVG/1.1/DTD/svg11.dtd">
<!-- Generated by graphviz version 2.43.0 (0)
 -->
<!-- Title: Ra::Engine::Rendering::DebugRender::addTriangle Pages: 1 -->
<svg width="1315pt" height="255pt"
 viewBox="0.00 0.00 1315.00 254.50" xmlns="http://www.w3.org/2000/svg" xmlns:xlink="http://www.w3.org/1999/xlink">
<g id="graph0" class="graph" transform="scale(1 1) rotate(0) translate(4 250.5)">
<title>Ra::Engine::Rendering::DebugRender::addTriangle</title>
<polygon fill="white" stroke="transparent" points="-4,4 -4,-250.5 1311,-250.5 1311,4 -4,4"/>
<!-- Node1 -->
<g id="node1" class="node">
<title>Node1</title>
<g id="a_node1"><a xlink:title=" ">
<polygon fill="#bfbfbf" stroke="black" points="0,-82 0,-112 151,-112 151,-82 0,-82"/>
<text text-anchor="start" x="8" y="-100" font-family="Helvetica,sans-Serif" font-size="10.00">Ra::Engine::Rendering</text>
<text text-anchor="middle" x="75.5" y="-89" font-family="Helvetica,sans-Serif" font-size="10.00">::DebugRender::addTriangle</text>
</a>
</g>
</g>
<!-- Node2 -->
<g id="node2" class="node">
<title>Node2</title>
<g id="a_node2"><a xlink:href="namespaceRa_1_1Engine_1_1Data_1_1DrawPrimitives.html#a5ff500d17cce57978b811c14a5757111" target="_top" xlink:title=" ">
<polygon fill="white" stroke="black" points="187,-82 187,-112 366,-112 366,-82 187,-82"/>
<text text-anchor="start" x="195" y="-100" font-family="Helvetica,sans-Serif" font-size="10.00">Ra::Engine::Data::DrawPrimitives</text>
<text text-anchor="middle" x="276.5" y="-89" font-family="Helvetica,sans-Serif" font-size="10.00">::Triangle</text>
</a>
</g>
</g>
<!-- Node1&#45;&gt;Node2 -->
<g id="edge1" class="edge">
<title>Node1&#45;&gt;Node2</title>
<path fill="none" stroke="midnightblue" d="M151.17,-97C159.49,-97 168.06,-97 176.63,-97"/>
<polygon fill="midnightblue" stroke="midnightblue" points="176.66,-100.5 186.66,-97 176.66,-93.5 176.66,-100.5"/>
</g>
<!-- Node3 -->
<g id="node3" class="node">
<title>Node3</title>
<g id="a_node3"><a xlink:href="classRa_1_1Core_1_1Geometry_1_1AttribArrayGeometry.html#ae1956b0396dadd84f55a12f2160e5671" target="_top" xlink:title=" ">
<polygon fill="white" stroke="black" points="421.5,-159.5 421.5,-200.5 546.5,-200.5 546.5,-159.5 421.5,-159.5"/>
<text text-anchor="start" x="429.5" y="-188.5" font-family="Helvetica,sans-Serif" font-size="10.00">Ra::Core::Geometry</text>
<text text-anchor="start" x="429.5" y="-177.5" font-family="Helvetica,sans-Serif" font-size="10.00">::AttribArrayGeometry</text>
<text text-anchor="middle" x="484" y="-166.5" font-family="Helvetica,sans-Serif" font-size="10.00">::addAttrib</text>
</a>
</g>
</g>
<!-- Node2&#45;&gt;Node3 -->
<g id="edge2" class="edge">
<title>Node2&#45;&gt;Node3</title>
<path fill="none" stroke="midnightblue" d="M311.67,-112.07C336.58,-122.92 371.22,-137.76 402,-150 406.76,-151.89 411.68,-153.81 416.65,-155.72"/>
<polygon fill="midnightblue" stroke="midnightblue" points="415.63,-159.08 426.22,-159.36 418.12,-152.53 415.63,-159.08"/>
</g>
<!-- Node10 -->
<g id="node10" class="node">
<title>Node10</title>
<g id="a_node10"><a xlink:href="classRa_1_1Core_1_1Geometry_1_1IndexedGeometry.html#ad1fc6b57b469ef12d14f677852b8f2a8" target="_top" xlink:title=" ">
<polygon fill="white" stroke="black" points="402,-110 402,-140 566,-140 566,-110 402,-110"/>
<text text-anchor="start" x="410" y="-128" font-family="Helvetica,sans-Serif" font-size="10.00">Ra::Core::Geometry</text>
<text text-anchor="middle" x="484" y="-117" font-family="Helvetica,sans-Serif" font-size="10.00">::IndexedGeometry::setIndices</text>
</a>
</g>
</g>
<!-- Node2&#45;&gt;Node10 -->
<g id="edge9" class="edge">
<title>Node2&#45;&gt;Node10</title>
<path fill="none" stroke="midnightblue" d="M366.14,-109.08C374.65,-110.24 383.29,-111.41 391.83,-112.58"/>
<polygon fill="midnightblue" stroke="midnightblue" points="391.4,-116.05 401.78,-113.93 392.35,-109.12 391.4,-116.05"/>
</g>
<!-- Node11 -->
<g id="node11" class="node">
<title>Node11</title>
<g id="a_node11"><a xlink:href="classRa_1_1Core_1_1Geometry_1_1AttribArrayGeometry.html#a887411177386edbcdc35d0c6bf78a83a" target="_top" xlink:title="Set vertices.">
<polygon fill="white" stroke="black" points="421.5,-49.5 421.5,-90.5 546.5,-90.5 546.5,-49.5 421.5,-49.5"/>
<text text-anchor="start" x="429.5" y="-78.5" font-family="Helvetica,sans-Serif" font-size="10.00">Ra::Core::Geometry</text>
<text text-anchor="start" x="429.5" y="-67.5" font-family="Helvetica,sans-Serif" font-size="10.00">::AttribArrayGeometry</text>
<text text-anchor="middle" x="484" y="-56.5" font-family="Helvetica,sans-Serif" font-size="10.00">::setVertices</text>
</a>
</g>
</g>
<!-- Node2&#45;&gt;Node11 -->
<g id="edge10" class="edge">
<title>Node2&#45;&gt;Node11</title>
<path fill="none" stroke="midnightblue" d="M366.14,-85.35C381.23,-83.37 396.74,-81.33 411.33,-79.42"/>
<polygon fill="midnightblue" stroke="midnightblue" points="411.8,-82.88 421.26,-78.11 410.89,-75.94 411.8,-82.88"/>
</g>
<!-- Node13 -->
<g id="node13" class="node">
<title>Node13</title>
<g id="a_node13"><a xlink:href="classRa_1_1Core_1_1Geometry_1_1AttribArrayGeometry.html#acabe05880d71a8dc4406964c258fff5a" target="_top" xlink:title="Access the vertices positions.">
<polygon fill="white" stroke="black" points="620.5,-0.5 620.5,-41.5 745.5,-41.5 745.5,-0.5 620.5,-0.5"/>
<text text-anchor="start" x="628.5" y="-29.5" font-family="Helvetica,sans-Serif" font-size="10.00">Ra::Core::Geometry</text>
<text text-anchor="start" x="628.5" y="-18.5" font-family="Helvetica,sans-Serif" font-size="10.00">::AttribArrayGeometry</text>
<text text-anchor="middle" x="683" y="-7.5" font-family="Helvetica,sans-Serif" font-size="10.00">::vertices</text>
</a>
</g>
</g>
<!-- Node2&#45;&gt;Node13 -->
<g id="edge14" class="edge">
<title>Node2&#45;&gt;Node13</title>
<path fill="none" stroke="midnightblue" d="M303.2,-81.88C327.69,-68.29 366.05,-49.12 402,-40 471.28,-22.42 553.1,-18.75 610.34,-18.82"/>
<polygon fill="midnightblue" stroke="midnightblue" points="610.36,-22.32 620.38,-18.87 610.39,-15.32 610.36,-22.32"/>
</g>
<!-- Node4 -->
<g id="node4" class="node">
<title>Node4</title>
<g id="a_node4"><a xlink:href="classRa_1_1Core_1_1Utils_1_1AttribManager.html#ac2d3cdc360ffe1904a15ff8504de95b8" target="_top" xlink:title=" ">
<polygon fill="white" stroke="black" points="602,-165 602,-195 764,-195 764,-165 602,-165"/>
<text text-anchor="start" x="610" y="-183" font-family="Helvetica,sans-Serif" font-size="10.00">Ra::Core::Utils::AttribManager</text>
<text text-anchor="middle" x="683" y="-172" font-family="Helvetica,sans-Serif" font-size="10.00">::addAttrib</text>
</a>
</g>
</g>
<!-- Node3&#45;&gt;Node4 -->
<g id="edge3" class="edge">
<title>Node3&#45;&gt;Node4</title>
<path fill="none" stroke="midnightblue" d="M546.52,-180C560.88,-180 576.46,-180 591.77,-180"/>
<polygon fill="midnightblue" stroke="midnightblue" points="591.78,-183.5 601.78,-180 591.78,-176.5 591.78,-183.5"/>
</g>
<!-- Node5 -->
<g id="node5" class="node">
<title>Node5</title>
<g id="a_node5"><a xlink:href="classRa_1_1Core_1_1Utils_1_1AttribManager.html#ae61e2c70f407d49d854ee4b98a39121f" target="_top" xlink:title="Return true if h correspond to an existing attribute in *this.">
<polygon fill="white" stroke="black" points="800,-192 800,-222 962,-222 962,-192 800,-192"/>
<text text-anchor="start" x="808" y="-210" font-family="Helvetica,sans-Serif" font-size="10.00">Ra::Core::Utils::AttribManager</text>
<text text-anchor="middle" x="881" y="-199" font-family="Helvetica,sans-Serif" font-size="10.00">::isValid</text>
</a>
</g>
</g>
<!-- Node4&#45;&gt;Node5 -->
<g id="edge4" class="edge">
<title>Node4&#45;&gt;Node5</title>
<path fill="none" stroke="midnightblue" d="M764,-191.02C772.52,-192.19 781.23,-193.39 789.86,-194.58"/>
<polygon fill="midnightblue" stroke="midnightblue" points="789.55,-198.07 799.93,-195.97 790.51,-191.14 789.55,-198.07"/>
</g>
<!-- Node9 -->
<g id="node9" class="node">
<title>Node9</title>
<g id="a_node9"><a xlink:href="classRa_1_1Core_1_1Utils_1_1Observable.html#a7e5fe761726d56a51f95192eb6555f8f" target="_top" xlink:title="Notify (i.e. call) each attached observer with argument p.">
<polygon fill="white" stroke="black" points="807,-131.5 807,-172.5 955,-172.5 955,-131.5 807,-131.5"/>
<text text-anchor="start" x="815" y="-160.5" font-family="Helvetica,sans-Serif" font-size="10.00">Ra::Core::Utils::Observable</text>
<text text-anchor="start" x="815" y="-149.5" font-family="Helvetica,sans-Serif" font-size="10.00">&lt; const std::string &amp; &gt;</text>
<text text-anchor="middle" x="881" y="-138.5" font-family="Helvetica,sans-Serif" font-size="10.00">::notify</text>
</a>
</g>
</g>
<!-- Node4&#45;&gt;Node9 -->
<g id="edge8" class="edge">
<title>Node4&#45;&gt;Node9</title>
<path fill="none" stroke="midnightblue" d="M764,-168.57C774.86,-167.02 786.03,-165.42 796.94,-163.87"/>
<polygon fill="midnightblue" stroke="midnightblue" points="797.47,-167.33 806.87,-162.45 796.48,-160.4 797.47,-167.33"/>
</g>
<!-- Node6 -->
<g id="node6" class="node">
<title>Node6</title>
<g id="a_node6"><a xlink:href="classRa_1_1Core_1_1Utils_1_1AttribHandle.html#a17afbd6718234d480c05258369bdfde9" target="_top" xlink:title=" ">
<polygon fill="white" stroke="black" points="998,-216 998,-246 1152,-246 1152,-216 998,-216"/>
<text text-anchor="start" x="1006" y="-234" font-family="Helvetica,sans-Serif" font-size="10.00">Ra::Core::Utils::AttribHandle</text>
<text text-anchor="middle" x="1075" y="-223" font-family="Helvetica,sans-Serif" font-size="10.00">::attribName</text>
</a>
</g>
</g>
<!-- Node5&#45;&gt;Node6 -->
<g id="edge5" class="edge">
<title>Node5&#45;&gt;Node6</title>
<path fill="none" stroke="midnightblue" d="M962.03,-217C970.54,-218.07 979.22,-219.15 987.79,-220.22"/>
<polygon fill="midnightblue" stroke="midnightblue" points="987.43,-223.71 997.79,-221.47 988.3,-216.76 987.43,-223.71"/>
</g>
<!-- Node7 -->
<g id="node7" class="node">
<title>Node7</title>
<g id="a_node7"><a xlink:href="classRa_1_1Core_1_1Utils_1_1Index.html#a771f93efd49538950e3cb9e57e46fbaf" target="_top" xlink:title=" ">
<polygon fill="white" stroke="black" points="1015.5,-167 1015.5,-197 1134.5,-197 1134.5,-167 1015.5,-167"/>
<text text-anchor="start" x="1023.5" y="-185" font-family="Helvetica,sans-Serif" font-size="10.00">Ra::Core::Utils::Index</text>
<text text-anchor="middle" x="1075" y="-174" font-family="Helvetica,sans-Serif" font-size="10.00">::Invalid</text>
</a>
</g>
</g>
<!-- Node5&#45;&gt;Node7 -->
<g id="edge6" class="edge">
<title>Node5&#45;&gt;Node7</title>
<path fill="none" stroke="midnightblue" d="M962.03,-196.58C976.44,-194.7 991.34,-192.76 1005.39,-190.93"/>
<polygon fill="midnightblue" stroke="midnightblue" points="1005.98,-194.39 1015.45,-189.62 1005.08,-187.44 1005.98,-194.39"/>
</g>
<!-- Node8 -->
<g id="node8" class="node">
<title>Node8</title>
<g id="a_node8"><a xlink:href="classRa_1_1Core_1_1Utils_1_1Index.html#ab3376097b792b1ac2068c6da1cb6c8e4" target="_top" xlink:title="CONSTRUCTOR.">
<polygon fill="white" stroke="black" points="1188,-167 1188,-197 1307,-197 1307,-167 1188,-167"/>
<text text-anchor="start" x="1196" y="-185" font-family="Helvetica,sans-Serif" font-size="10.00">Ra::Core::Utils::Index</text>
<text text-anchor="middle" x="1247.5" y="-174" font-family="Helvetica,sans-Serif" font-size="10.00">::Index</text>
</a>
</g>
</g>
<!-- Node7&#45;&gt;Node8 -->
<g id="edge7" class="edge">
<title>Node7&#45;&gt;Node8</title>
<path fill="none" stroke="midnightblue" d="M1134.68,-182C1148.47,-182 1163.3,-182 1177.51,-182"/>
<polygon fill="midnightblue" stroke="midnightblue" points="1177.72,-185.5 1187.72,-182 1177.72,-178.5 1177.72,-185.5"/>
</g>
<!-- Node12 -->
<g id="node12" class="node">
<title>Node12</title>
<g id="a_node12"><a xlink:href="classRa_1_1Core_1_1Utils_1_1AttribManager.html#a056b7697cfbedd6b20dde6ce7955094e" target="_top" xlink:title=" ">
<polygon fill="white" stroke="black" points="602,-61 602,-91 764,-91 764,-61 602,-61"/>
<text text-anchor="start" x="610" y="-79" font-family="Helvetica,sans-Serif" font-size="10.00">Ra::Core::Utils::AttribManager</text>
<text text-anchor="middle" x="683" y="-68" font-family="Helvetica,sans-Serif" font-size="10.00">::setAttrib</text>
</a>
</g>
</g>
<!-- Node11&#45;&gt;Node12 -->
<g id="edge11" class="edge">
<title>Node11&#45;&gt;Node12</title>
<path fill="none" stroke="midnightblue" d="M546.52,-71.87C560.88,-72.31 576.46,-72.79 591.77,-73.25"/>
<polygon fill="midnightblue" stroke="midnightblue" points="591.67,-76.75 601.78,-73.56 591.89,-69.75 591.67,-76.75"/>
</g>
<!-- Node11&#45;&gt;Node13 -->
<g id="edge12" class="edge">
<title>Node11&#45;&gt;Node13</title>
<path fill="none" stroke="midnightblue" d="M546.52,-54.7C566.79,-49.66 589.51,-44.01 610.46,-38.79"/>
<polygon fill="midnightblue" stroke="midnightblue" points="611.41,-42.17 620.27,-36.35 609.72,-35.37 611.41,-42.17"/>
</g>
<!-- Node14 -->
<g id="node14" class="node">
<title>Node14</title>
<g id="a_node14"><a xlink:href="classRa_1_1Core_1_1Utils_1_1AttribManager.html#ae0cb7281ec72606a5392602b4ea50d2c" target="_top" xlink:title=" ">
<polygon fill="white" stroke="black" points="800,-6 800,-36 962,-36 962,-6 800,-6"/>
<text text-anchor="start" x="808" y="-24" font-family="Helvetica,sans-Serif" font-size="10.00">Ra::Core::Utils::AttribManager</text>
<text text-anchor="middle" x="881" y="-13" font-family="Helvetica,sans-Serif" font-size="10.00">::getAttrib</text>
</a>
</g>
</g>
<!-- Node13&#45;&gt;Node14 -->
<g id="edge13" class="edge">
<title>Node13&#45;&gt;Node14</title>
<path fill="none" stroke="midnightblue" d="M745.75,-21C759.7,-21 774.79,-21 789.64,-21"/>
<polygon fill="midnightblue" stroke="midnightblue" points="789.87,-24.5 799.87,-21 789.87,-17.5 789.87,-24.5"/>
</g>
</g>
</svg>
