<?xml version="1.0" encoding="UTF-8" standalone="no"?>
<!DOCTYPE svg PUBLIC "-//W3C//DTD SVG 1.1//EN"
 "http://www.w3.org/Graphics/SVG/1.1/DTD/svg11.dtd">
<!-- Generated by graphviz version 2.43.0 (0)
 -->
<!-- Title: Ra::Core::Geometry::AttribArrayGeometry Pages: 1 -->
<svg width="921pt" height="1259pt"
 viewBox="0.00 0.00 920.50 1259.00" xmlns="http://www.w3.org/2000/svg" xmlns:xlink="http://www.w3.org/1999/xlink">
<g id="graph0" class="graph" transform="scale(1 1) rotate(0) translate(4 1255)">
<title>Ra::Core::Geometry::AttribArrayGeometry</title>
<polygon fill="white" stroke="transparent" points="-4,4 -4,-1255 916.5,-1255 916.5,4 -4,4"/>
<!-- Node1 -->
<g id="node1" class="node">
<title>Node1</title>
<g id="a_node1"><a xlink:title=" ">
<polygon fill="#bfbfbf" stroke="black" points="529,-592.5 529,-1089.5 675,-1089.5 675,-592.5 529,-592.5"/>
<text text-anchor="start" x="537" y="-1077.5" font-family="Helvetica,sans-Serif" font-size="10.00">Ra::Core::Geometry</text>
<text text-anchor="middle" x="602" y="-1066.5" font-family="Helvetica,sans-Serif" font-size="10.00">::AttribArrayGeometry</text>
<polyline fill="none" stroke="black" points="529,-1059.5 675,-1059.5 "/>
<text text-anchor="middle" x="602" y="-1047.5" font-family="Helvetica,sans-Serif" font-size="10.00"> </text>
<polyline fill="none" stroke="black" points="529,-1040.5 675,-1040.5 "/>
<text text-anchor="start" x="537" y="-1028.5" font-family="Helvetica,sans-Serif" font-size="10.00">+ AttribArrayGeometry()</text>
<text text-anchor="start" x="537" y="-1017.5" font-family="Helvetica,sans-Serif" font-size="10.00">+ AttribArrayGeometry()</text>
<text text-anchor="start" x="537" y="-1006.5" font-family="Helvetica,sans-Serif" font-size="10.00">+ AttribArrayGeometry()</text>
<text text-anchor="start" x="537" y="-995.5" font-family="Helvetica,sans-Serif" font-size="10.00">+ operator=()</text>
<text text-anchor="start" x="537" y="-984.5" font-family="Helvetica,sans-Serif" font-size="10.00">+ operator=()</text>
<text text-anchor="start" x="537" y="-973.5" font-family="Helvetica,sans-Serif" font-size="10.00">+ ~AttribArrayGeometry()</text>
<text text-anchor="start" x="537" y="-962.5" font-family="Helvetica,sans-Serif" font-size="10.00">+ append()</text>
<text text-anchor="start" x="537" y="-951.5" font-family="Helvetica,sans-Serif" font-size="10.00">+ clear()</text>
<text text-anchor="start" x="537" y="-940.5" font-family="Helvetica,sans-Serif" font-size="10.00">+ setVertices()</text>
<text text-anchor="start" x="537" y="-929.5" font-family="Helvetica,sans-Serif" font-size="10.00">+ setVertices()</text>
<text text-anchor="start" x="537" y="-918.5" font-family="Helvetica,sans-Serif" font-size="10.00">+ vertices()</text>
<text text-anchor="start" x="537" y="-907.5" font-family="Helvetica,sans-Serif" font-size="10.00">+ setNormals()</text>
<text text-anchor="start" x="537" y="-896.5" font-family="Helvetica,sans-Serif" font-size="10.00">+ setNormals()</text>
<text text-anchor="start" x="537" y="-885.5" font-family="Helvetica,sans-Serif" font-size="10.00">+ normals()</text>
<text text-anchor="start" x="537" y="-874.5" font-family="Helvetica,sans-Serif" font-size="10.00">+ getAttribHandle()</text>
<text text-anchor="start" x="537" y="-863.5" font-family="Helvetica,sans-Serif" font-size="10.00">+ isValid()</text>
<text text-anchor="start" x="537" y="-852.5" font-family="Helvetica,sans-Serif" font-size="10.00">+ getAttrib()</text>
<text text-anchor="start" x="537" y="-841.5" font-family="Helvetica,sans-Serif" font-size="10.00">+ getAttribPtr()</text>
<text text-anchor="start" x="537" y="-830.5" font-family="Helvetica,sans-Serif" font-size="10.00">+ getAttrib()</text>
<text text-anchor="start" x="537" y="-819.5" font-family="Helvetica,sans-Serif" font-size="10.00">+ getAttribBase()</text>
<text text-anchor="start" x="537" y="-808.5" font-family="Helvetica,sans-Serif" font-size="10.00">+ hasAttrib()</text>
<text text-anchor="start" x="537" y="-797.5" font-family="Helvetica,sans-Serif" font-size="10.00">+ removeAttrib()</text>
<text text-anchor="start" x="537" y="-786.5" font-family="Helvetica,sans-Serif" font-size="10.00">+ clearAttributes()</text>
<text text-anchor="start" x="537" y="-775.5" font-family="Helvetica,sans-Serif" font-size="10.00">+ copyBaseGeometry()</text>
<text text-anchor="start" x="537" y="-764.5" font-family="Helvetica,sans-Serif" font-size="10.00">+ copyAttributes()</text>
<text text-anchor="start" x="537" y="-753.5" font-family="Helvetica,sans-Serif" font-size="10.00">+ copyAllAttributes()</text>
<text text-anchor="start" x="537" y="-742.5" font-family="Helvetica,sans-Serif" font-size="10.00">+ computeAabb()</text>
<text text-anchor="start" x="537" y="-731.5" font-family="Helvetica,sans-Serif" font-size="10.00">+ colorize()</text>
<text text-anchor="start" x="537" y="-720.5" font-family="Helvetica,sans-Serif" font-size="10.00">+ vertexAttribs()</text>
<text text-anchor="start" x="537" y="-709.5" font-family="Helvetica,sans-Serif" font-size="10.00">+ vertexAttribs()</text>
<text text-anchor="start" x="537" y="-698.5" font-family="Helvetica,sans-Serif" font-size="10.00">+ verticesWithLock()</text>
<text text-anchor="start" x="537" y="-687.5" font-family="Helvetica,sans-Serif" font-size="10.00">+ verticesUnlock()</text>
<text text-anchor="start" x="537" y="-676.5" font-family="Helvetica,sans-Serif" font-size="10.00">+ normalsWithLock()</text>
<text text-anchor="start" x="537" y="-665.5" font-family="Helvetica,sans-Serif" font-size="10.00">+ normalsUnlock()</text>
<text text-anchor="start" x="537" y="-654.5" font-family="Helvetica,sans-Serif" font-size="10.00">+ addAttrib()</text>
<text text-anchor="start" x="537" y="-643.5" font-family="Helvetica,sans-Serif" font-size="10.00">+ addAttrib()</text>
<text text-anchor="start" x="537" y="-632.5" font-family="Helvetica,sans-Serif" font-size="10.00">+ addAttrib()</text>
<text text-anchor="start" x="537" y="-621.5" font-family="Helvetica,sans-Serif" font-size="10.00">* addAttrib()</text>
<text text-anchor="start" x="537" y="-610.5" font-family="Helvetica,sans-Serif" font-size="10.00">* addAttrib()</text>
<text text-anchor="start" x="537" y="-599.5" font-family="Helvetica,sans-Serif" font-size="10.00">* addAttrib()</text>
</a>
</g>
</g>
<!-- Node3 -->
<g id="node3" class="node">
<title>Node3</title>
<g id="a_node3"><a xlink:href="classRa_1_1Core_1_1Geometry_1_1IndexedGeometry.html" target="_top" xlink:title=" ">
<polygon fill="white" stroke="black" points="196,-106.5 196,-306.5 374,-306.5 374,-106.5 196,-106.5"/>
<text text-anchor="start" x="204" y="-294.5" font-family="Helvetica,sans-Serif" font-size="10.00">Ra::Core::Geometry</text>
<text text-anchor="middle" x="285" y="-283.5" font-family="Helvetica,sans-Serif" font-size="10.00">::IndexedGeometry&lt; Vector1ui &gt;</text>
<polyline fill="none" stroke="black" points="196,-276.5 374,-276.5 "/>
<text text-anchor="middle" x="285" y="-264.5" font-family="Helvetica,sans-Serif" font-size="10.00"> </text>
<polyline fill="none" stroke="black" points="196,-257.5 374,-257.5 "/>
<text text-anchor="start" x="204" y="-245.5" font-family="Helvetica,sans-Serif" font-size="10.00">+ IndexedGeometry()</text>
<text text-anchor="start" x="204" y="-234.5" font-family="Helvetica,sans-Serif" font-size="10.00">+ IndexedGeometry()</text>
<text text-anchor="start" x="204" y="-223.5" font-family="Helvetica,sans-Serif" font-size="10.00">+ IndexedGeometry()</text>
<text text-anchor="start" x="204" y="-212.5" font-family="Helvetica,sans-Serif" font-size="10.00">+ operator=()</text>
<text text-anchor="start" x="204" y="-201.5" font-family="Helvetica,sans-Serif" font-size="10.00">+ operator=()</text>
<text text-anchor="start" x="204" y="-190.5" font-family="Helvetica,sans-Serif" font-size="10.00">+ clear()</text>
<text text-anchor="start" x="204" y="-179.5" font-family="Helvetica,sans-Serif" font-size="10.00">+ copy()</text>
<text text-anchor="start" x="204" y="-168.5" font-family="Helvetica,sans-Serif" font-size="10.00">+ checkConsistency()</text>
<text text-anchor="start" x="204" y="-157.5" font-family="Helvetica,sans-Serif" font-size="10.00">+ append()</text>
<text text-anchor="start" x="204" y="-146.5" font-family="Helvetica,sans-Serif" font-size="10.00">+ getIndices()</text>
<text text-anchor="start" x="204" y="-135.5" font-family="Helvetica,sans-Serif" font-size="10.00">+ getIndicesWithLock()</text>
<text text-anchor="start" x="204" y="-124.5" font-family="Helvetica,sans-Serif" font-size="10.00">+ indicesUnlock()</text>
<text text-anchor="start" x="204" y="-113.5" font-family="Helvetica,sans-Serif" font-size="10.00">+ setIndices()</text>
</a>
</g>
</g>
<!-- Node1&#45;&gt;Node3 -->
<g id="edge2" class="edge">
<title>Node1&#45;&gt;Node3</title>
<path fill="none" stroke="midnightblue" d="M521.19,-773.7C422.12,-686.02 261.06,-520.84 210,-336 207.28,-326.17 207.19,-316.31 208.98,-306.66"/>
<polygon fill="none" stroke="midnightblue" points="518.99,-776.42 528.81,-780.39 523.61,-771.16 518.99,-776.42"/>
</g>
<!-- Node5 -->
<g id="node5" class="node">
<title>Node5</title>
<g id="a_node5"><a xlink:href="classRa_1_1Core_1_1Geometry_1_1IndexedGeometry.html" target="_top" xlink:title=" ">
<polygon fill="white" stroke="black" points="0,-106.5 0,-306.5 178,-306.5 178,-106.5 0,-106.5"/>
<text text-anchor="start" x="8" y="-294.5" font-family="Helvetica,sans-Serif" font-size="10.00">Ra::Core::Geometry</text>
<text text-anchor="middle" x="89" y="-283.5" font-family="Helvetica,sans-Serif" font-size="10.00">::IndexedGeometry&lt; Vector2ui &gt;</text>
<polyline fill="none" stroke="black" points="0,-276.5 178,-276.5 "/>
<text text-anchor="middle" x="89" y="-264.5" font-family="Helvetica,sans-Serif" font-size="10.00"> </text>
<polyline fill="none" stroke="black" points="0,-257.5 178,-257.5 "/>
<text text-anchor="start" x="8" y="-245.5" font-family="Helvetica,sans-Serif" font-size="10.00">+ IndexedGeometry()</text>
<text text-anchor="start" x="8" y="-234.5" font-family="Helvetica,sans-Serif" font-size="10.00">+ IndexedGeometry()</text>
<text text-anchor="start" x="8" y="-223.5" font-family="Helvetica,sans-Serif" font-size="10.00">+ IndexedGeometry()</text>
<text text-anchor="start" x="8" y="-212.5" font-family="Helvetica,sans-Serif" font-size="10.00">+ operator=()</text>
<text text-anchor="start" x="8" y="-201.5" font-family="Helvetica,sans-Serif" font-size="10.00">+ operator=()</text>
<text text-anchor="start" x="8" y="-190.5" font-family="Helvetica,sans-Serif" font-size="10.00">+ clear()</text>
<text text-anchor="start" x="8" y="-179.5" font-family="Helvetica,sans-Serif" font-size="10.00">+ copy()</text>
<text text-anchor="start" x="8" y="-168.5" font-family="Helvetica,sans-Serif" font-size="10.00">+ checkConsistency()</text>
<text text-anchor="start" x="8" y="-157.5" font-family="Helvetica,sans-Serif" font-size="10.00">+ append()</text>
<text text-anchor="start" x="8" y="-146.5" font-family="Helvetica,sans-Serif" font-size="10.00">+ getIndices()</text>
<text text-anchor="start" x="8" y="-135.5" font-family="Helvetica,sans-Serif" font-size="10.00">+ getIndicesWithLock()</text>
<text text-anchor="start" x="8" y="-124.5" font-family="Helvetica,sans-Serif" font-size="10.00">+ indicesUnlock()</text>
<text text-anchor="start" x="8" y="-113.5" font-family="Helvetica,sans-Serif" font-size="10.00">+ setIndices()</text>
</a>
</g>
</g>
<!-- Node1&#45;&gt;Node5 -->
<g id="edge4" class="edge">
<title>Node1&#45;&gt;Node5</title>
<path fill="none" stroke="midnightblue" d="M519.87,-799.29C432.08,-751.88 294.43,-665.72 212,-555 157.06,-481.21 125.04,-380.72 107.52,-306.78"/>
<polygon fill="none" stroke="midnightblue" points="518.27,-802.4 528.74,-804.04 521.58,-796.23 518.27,-802.4"/>
</g>
<!-- Node7 -->
<g id="node7" class="node">
<title>Node7</title>
<g id="a_node7"><a xlink:href="classRa_1_1Core_1_1Geometry_1_1IndexedGeometry.html" target="_top" xlink:title=" ">
<polygon fill="white" stroke="black" points="590,-106.5 590,-306.5 768,-306.5 768,-106.5 590,-106.5"/>
<text text-anchor="start" x="598" y="-294.5" font-family="Helvetica,sans-Serif" font-size="10.00">Ra::Core::Geometry</text>
<text text-anchor="middle" x="679" y="-283.5" font-family="Helvetica,sans-Serif" font-size="10.00">::IndexedGeometry&lt; Vector3ui &gt;</text>
<polyline fill="none" stroke="black" points="590,-276.5 768,-276.5 "/>
<text text-anchor="middle" x="679" y="-264.5" font-family="Helvetica,sans-Serif" font-size="10.00"> </text>
<polyline fill="none" stroke="black" points="590,-257.5 768,-257.5 "/>
<text text-anchor="start" x="598" y="-245.5" font-family="Helvetica,sans-Serif" font-size="10.00">+ IndexedGeometry()</text>
<text text-anchor="start" x="598" y="-234.5" font-family="Helvetica,sans-Serif" font-size="10.00">+ IndexedGeometry()</text>
<text text-anchor="start" x="598" y="-223.5" font-family="Helvetica,sans-Serif" font-size="10.00">+ IndexedGeometry()</text>
<text text-anchor="start" x="598" y="-212.5" font-family="Helvetica,sans-Serif" font-size="10.00">+ operator=()</text>
<text text-anchor="start" x="598" y="-201.5" font-family="Helvetica,sans-Serif" font-size="10.00">+ operator=()</text>
<text text-anchor="start" x="598" y="-190.5" font-family="Helvetica,sans-Serif" font-size="10.00">+ clear()</text>
<text text-anchor="start" x="598" y="-179.5" font-family="Helvetica,sans-Serif" font-size="10.00">+ copy()</text>
<text text-anchor="start" x="598" y="-168.5" font-family="Helvetica,sans-Serif" font-size="10.00">+ checkConsistency()</text>
<text text-anchor="start" x="598" y="-157.5" font-family="Helvetica,sans-Serif" font-size="10.00">+ append()</text>
<text text-anchor="start" x="598" y="-146.5" font-family="Helvetica,sans-Serif" font-size="10.00">+ getIndices()</text>
<text text-anchor="start" x="598" y="-135.5" font-family="Helvetica,sans-Serif" font-size="10.00">+ getIndicesWithLock()</text>
<text text-anchor="start" x="598" y="-124.5" font-family="Helvetica,sans-Serif" font-size="10.00">+ indicesUnlock()</text>
<text text-anchor="start" x="598" y="-113.5" font-family="Helvetica,sans-Serif" font-size="10.00">+ setIndices()</text>
</a>
</g>
</g>
<!-- Node1&#45;&gt;Node7 -->
<g id="edge6" class="edge">
<title>Node1&#45;&gt;Node7</title>
<path fill="none" stroke="midnightblue" d="M631.34,-581.99C639.97,-508.31 649.62,-427.95 659,-354 660.94,-338.72 663.07,-322.56 665.19,-306.76"/>
<polygon fill="none" stroke="midnightblue" points="627.82,-582 630.13,-592.34 634.77,-582.81 627.82,-582"/>
</g>
<!-- Node9 -->
<g id="node9" class="node">
<title>Node9</title>
<g id="a_node9"><a xlink:href="classRa_1_1Core_1_1Geometry_1_1IndexedGeometry.html" target="_top" xlink:title=" ">
<polygon fill="white" stroke="black" points="392.5,-106.5 392.5,-306.5 571.5,-306.5 571.5,-106.5 392.5,-106.5"/>
<text text-anchor="start" x="400.5" y="-294.5" font-family="Helvetica,sans-Serif" font-size="10.00">Ra::Core::Geometry</text>
<text text-anchor="middle" x="482" y="-283.5" font-family="Helvetica,sans-Serif" font-size="10.00">::IndexedGeometry&lt; VectorNui &gt;</text>
<polyline fill="none" stroke="black" points="392.5,-276.5 571.5,-276.5 "/>
<text text-anchor="middle" x="482" y="-264.5" font-family="Helvetica,sans-Serif" font-size="10.00"> </text>
<polyline fill="none" stroke="black" points="392.5,-257.5 571.5,-257.5 "/>
<text text-anchor="start" x="400.5" y="-245.5" font-family="Helvetica,sans-Serif" font-size="10.00">+ IndexedGeometry()</text>
<text text-anchor="start" x="400.5" y="-234.5" font-family="Helvetica,sans-Serif" font-size="10.00">+ IndexedGeometry()</text>
<text text-anchor="start" x="400.5" y="-223.5" font-family="Helvetica,sans-Serif" font-size="10.00">+ IndexedGeometry()</text>
<text text-anchor="start" x="400.5" y="-212.5" font-family="Helvetica,sans-Serif" font-size="10.00">+ operator=()</text>
<text text-anchor="start" x="400.5" y="-201.5" font-family="Helvetica,sans-Serif" font-size="10.00">+ operator=()</text>
<text text-anchor="start" x="400.5" y="-190.5" font-family="Helvetica,sans-Serif" font-size="10.00">+ clear()</text>
<text text-anchor="start" x="400.5" y="-179.5" font-family="Helvetica,sans-Serif" font-size="10.00">+ copy()</text>
<text text-anchor="start" x="400.5" y="-168.5" font-family="Helvetica,sans-Serif" font-size="10.00">+ checkConsistency()</text>
<text text-anchor="start" x="400.5" y="-157.5" font-family="Helvetica,sans-Serif" font-size="10.00">+ append()</text>
<text text-anchor="start" x="400.5" y="-146.5" font-family="Helvetica,sans-Serif" font-size="10.00">+ getIndices()</text>
<text text-anchor="start" x="400.5" y="-135.5" font-family="Helvetica,sans-Serif" font-size="10.00">+ getIndicesWithLock()</text>
<text text-anchor="start" x="400.5" y="-124.5" font-family="Helvetica,sans-Serif" font-size="10.00">+ indicesUnlock()</text>
<text text-anchor="start" x="400.5" y="-113.5" font-family="Helvetica,sans-Serif" font-size="10.00">+ setIndices()</text>
</a>
</g>
</g>
<!-- Node1&#45;&gt;Node9 -->
<g id="edge8" class="edge">
<title>Node1&#45;&gt;Node9</title>
<path fill="none" stroke="midnightblue" d="M611.34,-582.31C611.73,-478.4 606.83,-372.06 588,-325 583.76,-314.41 578.12,-304.17 571.63,-294.44"/>
<polygon fill="none" stroke="midnightblue" points="607.84,-582.34 611.29,-592.35 614.84,-582.37 607.84,-582.34"/>
</g>
<!-- Node11 -->
<g id="node11" class="node">
<title>Node11</title>
<g id="a_node11"><a xlink:href="classRa_1_1Core_1_1Geometry_1_1IndexedGeometry.html" target="_top" xlink:title=" ">
<polygon fill="white" stroke="black" points="350,-354.5 350,-554.5 488,-554.5 488,-354.5 350,-354.5"/>
<text text-anchor="start" x="358" y="-542.5" font-family="Helvetica,sans-Serif" font-size="10.00">Ra::Core::Geometry</text>
<text text-anchor="middle" x="419" y="-531.5" font-family="Helvetica,sans-Serif" font-size="10.00">::IndexedGeometry&lt; T &gt;</text>
<polyline fill="none" stroke="black" points="350,-524.5 488,-524.5 "/>
<text text-anchor="middle" x="419" y="-512.5" font-family="Helvetica,sans-Serif" font-size="10.00"> </text>
<polyline fill="none" stroke="black" points="350,-505.5 488,-505.5 "/>
<text text-anchor="start" x="358" y="-493.5" font-family="Helvetica,sans-Serif" font-size="10.00">+ IndexedGeometry()</text>
<text text-anchor="start" x="358" y="-482.5" font-family="Helvetica,sans-Serif" font-size="10.00">+ IndexedGeometry()</text>
<text text-anchor="start" x="358" y="-471.5" font-family="Helvetica,sans-Serif" font-size="10.00">+ IndexedGeometry()</text>
<text text-anchor="start" x="358" y="-460.5" font-family="Helvetica,sans-Serif" font-size="10.00">+ operator=()</text>
<text text-anchor="start" x="358" y="-449.5" font-family="Helvetica,sans-Serif" font-size="10.00">+ operator=()</text>
<text text-anchor="start" x="358" y="-438.5" font-family="Helvetica,sans-Serif" font-size="10.00">+ clear()</text>
<text text-anchor="start" x="358" y="-427.5" font-family="Helvetica,sans-Serif" font-size="10.00">+ copy()</text>
<text text-anchor="start" x="358" y="-416.5" font-family="Helvetica,sans-Serif" font-size="10.00">+ checkConsistency()</text>
<text text-anchor="start" x="358" y="-405.5" font-family="Helvetica,sans-Serif" font-size="10.00">+ append()</text>
<text text-anchor="start" x="358" y="-394.5" font-family="Helvetica,sans-Serif" font-size="10.00">+ getIndices()</text>
<text text-anchor="start" x="358" y="-383.5" font-family="Helvetica,sans-Serif" font-size="10.00">+ getIndicesWithLock()</text>
<text text-anchor="start" x="358" y="-372.5" font-family="Helvetica,sans-Serif" font-size="10.00">+ indicesUnlock()</text>
<text text-anchor="start" x="358" y="-361.5" font-family="Helvetica,sans-Serif" font-size="10.00">+ setIndices()</text>
</a>
</g>
</g>
<!-- Node1&#45;&gt;Node11 -->
<g id="edge10" class="edge">
<title>Node1&#45;&gt;Node11</title>
<path fill="none" stroke="midnightblue" d="M524.54,-677.25C504.72,-635.61 484.01,-592.09 466.23,-554.73"/>
<polygon fill="none" stroke="midnightblue" points="521.43,-678.85 528.88,-686.38 527.75,-675.84 521.43,-678.85"/>
</g>
<!-- Node12 -->
<g id="node12" class="node">
<title>Node12</title>
<g id="a_node12"><a xlink:href="classRa_1_1Core_1_1Geometry_1_1LineStrip.html" target="_top" xlink:title=" ">
<polygon fill="white" stroke="black" points="668.5,-420.5 668.5,-488.5 781.5,-488.5 781.5,-420.5 668.5,-420.5"/>
<text text-anchor="start" x="676.5" y="-476.5" font-family="Helvetica,sans-Serif" font-size="10.00">Ra::Core::Geometry</text>
<text text-anchor="middle" x="725" y="-465.5" font-family="Helvetica,sans-Serif" font-size="10.00">::LineStrip</text>
<polyline fill="none" stroke="black" points="668.5,-458.5 781.5,-458.5 "/>
<text text-anchor="middle" x="725" y="-446.5" font-family="Helvetica,sans-Serif" font-size="10.00"> </text>
<polyline fill="none" stroke="black" points="668.5,-439.5 781.5,-439.5 "/>
<text text-anchor="middle" x="725" y="-427.5" font-family="Helvetica,sans-Serif" font-size="10.00"> </text>
</a>
</g>
</g>
<!-- Node1&#45;&gt;Node12 -->
<g id="edge15" class="edge">
<title>Node1&#45;&gt;Node12</title>
<path fill="none" stroke="midnightblue" d="M678.13,-602.01C692.46,-557.23 705.66,-515.96 714.38,-488.71"/>
<polygon fill="none" stroke="midnightblue" points="674.77,-601.02 675.06,-611.61 681.44,-603.16 674.77,-601.02"/>
</g>
<!-- Node13 -->
<g id="node13" class="node">
<title>Node13</title>
<g id="a_node13"><a xlink:href="classRa_1_1Core_1_1Geometry_1_1PointCloud.html" target="_top" xlink:title=" ">
<polygon fill="white" stroke="black" points="799.5,-420.5 799.5,-488.5 912.5,-488.5 912.5,-420.5 799.5,-420.5"/>
<text text-anchor="start" x="807.5" y="-476.5" font-family="Helvetica,sans-Serif" font-size="10.00">Ra::Core::Geometry</text>
<text text-anchor="middle" x="856" y="-465.5" font-family="Helvetica,sans-Serif" font-size="10.00">::PointCloud</text>
<polyline fill="none" stroke="black" points="799.5,-458.5 912.5,-458.5 "/>
<text text-anchor="middle" x="856" y="-446.5" font-family="Helvetica,sans-Serif" font-size="10.00"> </text>
<polyline fill="none" stroke="black" points="799.5,-439.5 912.5,-439.5 "/>
<text text-anchor="middle" x="856" y="-427.5" font-family="Helvetica,sans-Serif" font-size="10.00"> </text>
</a>
</g>
</g>
<!-- Node1&#45;&gt;Node13 -->
<g id="edge16" class="edge">
<title>Node1&#45;&gt;Node13</title>
<path fill="none" stroke="midnightblue" d="M680.72,-721.69C714.72,-670.49 754.9,-609.85 791,-555 805.52,-532.94 821.77,-508.06 834.39,-488.7"/>
<polygon fill="none" stroke="midnightblue" points="677.72,-719.89 675.1,-730.15 683.55,-723.76 677.72,-719.89"/>
</g>
<!-- Node2 -->
<g id="node2" class="node">
<title>Node2</title>
<g id="a_node2"><a xlink:href="structRa_1_1Core_1_1Geometry_1_1AbstractGeometry.html" target="_top" xlink:title=" ">
<polygon fill="white" stroke="black" points="535.5,-1127.5 535.5,-1250.5 668.5,-1250.5 668.5,-1127.5 535.5,-1127.5"/>
<text text-anchor="start" x="543.5" y="-1238.5" font-family="Helvetica,sans-Serif" font-size="10.00">Ra::Core::Geometry</text>
<text text-anchor="middle" x="602" y="-1227.5" font-family="Helvetica,sans-Serif" font-size="10.00">::AbstractGeometry</text>
<polyline fill="none" stroke="black" points="535.5,-1220.5 668.5,-1220.5 "/>
<text text-anchor="middle" x="602" y="-1208.5" font-family="Helvetica,sans-Serif" font-size="10.00"> </text>
<polyline fill="none" stroke="black" points="535.5,-1201.5 668.5,-1201.5 "/>
<text text-anchor="start" x="543.5" y="-1189.5" font-family="Helvetica,sans-Serif" font-size="10.00">+ ~AbstractGeometry()</text>
<text text-anchor="start" x="543.5" y="-1178.5" font-family="Helvetica,sans-Serif" font-size="10.00">+ AbstractGeometry()</text>
<text text-anchor="start" x="543.5" y="-1167.5" font-family="Helvetica,sans-Serif" font-size="10.00">+ AbstractGeometry()</text>
<text text-anchor="start" x="543.5" y="-1156.5" font-family="Helvetica,sans-Serif" font-size="10.00">+ operator=()</text>
<text text-anchor="start" x="543.5" y="-1145.5" font-family="Helvetica,sans-Serif" font-size="10.00">+ clear()</text>
<text text-anchor="start" x="543.5" y="-1134.5" font-family="Helvetica,sans-Serif" font-size="10.00">+ computeAabb()</text>
</a>
</g>
</g>
<!-- Node2&#45;&gt;Node1 -->
<g id="edge1" class="edge">
<title>Node2&#45;&gt;Node1</title>
<path fill="none" stroke="midnightblue" d="M602,-1117.05C602,-1108.4 602,-1099.21 602,-1089.65"/>
<polygon fill="none" stroke="midnightblue" points="598.5,-1117.34 602,-1127.34 605.5,-1117.34 598.5,-1117.34"/>
</g>
<!-- Node4 -->
<g id="node4" class="node">
<title>Node4</title>
<g id="a_node4"><a xlink:href="classRa_1_1Core_1_1Geometry_1_1IndexedPointCloud.html" target="_top" xlink:title=" ">
<polygon fill="white" stroke="black" points="228.5,-0.5 228.5,-68.5 341.5,-68.5 341.5,-0.5 228.5,-0.5"/>
<text text-anchor="start" x="236.5" y="-56.5" font-family="Helvetica,sans-Serif" font-size="10.00">Ra::Core::Geometry</text>
<text text-anchor="middle" x="285" y="-45.5" font-family="Helvetica,sans-Serif" font-size="10.00">::IndexedPointCloud</text>
<polyline fill="none" stroke="black" points="228.5,-38.5 341.5,-38.5 "/>
<text text-anchor="middle" x="285" y="-26.5" font-family="Helvetica,sans-Serif" font-size="10.00"> </text>
<polyline fill="none" stroke="black" points="228.5,-19.5 341.5,-19.5 "/>
<text text-anchor="middle" x="285" y="-7.5" font-family="Helvetica,sans-Serif" font-size="10.00"> </text>
</a>
</g>
</g>
<!-- Node3&#45;&gt;Node4 -->
<g id="edge3" class="edge">
<title>Node3&#45;&gt;Node4</title>
<path fill="none" stroke="midnightblue" d="M285,-95.9C285,-86.23 285,-77.03 285,-68.85"/>
<polygon fill="none" stroke="midnightblue" points="281.5,-96.12 285,-106.12 288.5,-96.12 281.5,-96.12"/>
</g>
<!-- Node6 -->
<g id="node6" class="node">
<title>Node6</title>
<g id="a_node6"><a xlink:href="classRa_1_1Core_1_1Geometry_1_1LineMesh.html" target="_top" xlink:title=" ">
<polygon fill="white" stroke="black" points="32.5,-0.5 32.5,-68.5 145.5,-68.5 145.5,-0.5 32.5,-0.5"/>
<text text-anchor="start" x="40.5" y="-56.5" font-family="Helvetica,sans-Serif" font-size="10.00">Ra::Core::Geometry</text>
<text text-anchor="middle" x="89" y="-45.5" font-family="Helvetica,sans-Serif" font-size="10.00">::LineMesh</text>
<polyline fill="none" stroke="black" points="32.5,-38.5 145.5,-38.5 "/>
<text text-anchor="middle" x="89" y="-26.5" font-family="Helvetica,sans-Serif" font-size="10.00"> </text>
<polyline fill="none" stroke="black" points="32.5,-19.5 145.5,-19.5 "/>
<text text-anchor="middle" x="89" y="-7.5" font-family="Helvetica,sans-Serif" font-size="10.00"> </text>
</a>
</g>
</g>
<!-- Node5&#45;&gt;Node6 -->
<g id="edge5" class="edge">
<title>Node5&#45;&gt;Node6</title>
<path fill="none" stroke="midnightblue" d="M89,-95.9C89,-86.23 89,-77.03 89,-68.85"/>
<polygon fill="none" stroke="midnightblue" points="85.5,-96.12 89,-106.12 92.5,-96.12 85.5,-96.12"/>
</g>
<!-- Node8 -->
<g id="node8" class="node">
<title>Node8</title>
<g id="a_node8"><a xlink:href="classRa_1_1Core_1_1Geometry_1_1TriangleMesh.html" target="_top" xlink:title=" ">
<polygon fill="white" stroke="black" points="622.5,-0.5 622.5,-68.5 735.5,-68.5 735.5,-0.5 622.5,-0.5"/>
<text text-anchor="start" x="630.5" y="-56.5" font-family="Helvetica,sans-Serif" font-size="10.00">Ra::Core::Geometry</text>
<text text-anchor="middle" x="679" y="-45.5" font-family="Helvetica,sans-Serif" font-size="10.00">::TriangleMesh</text>
<polyline fill="none" stroke="black" points="622.5,-38.5 735.5,-38.5 "/>
<text text-anchor="middle" x="679" y="-26.5" font-family="Helvetica,sans-Serif" font-size="10.00"> </text>
<polyline fill="none" stroke="black" points="622.5,-19.5 735.5,-19.5 "/>
<text text-anchor="middle" x="679" y="-7.5" font-family="Helvetica,sans-Serif" font-size="10.00"> </text>
</a>
</g>
</g>
<!-- Node7&#45;&gt;Node8 -->
<g id="edge7" class="edge">
<title>Node7&#45;&gt;Node8</title>
<path fill="none" stroke="midnightblue" d="M679,-95.9C679,-86.23 679,-77.03 679,-68.85"/>
<polygon fill="none" stroke="midnightblue" points="675.5,-96.12 679,-106.12 682.5,-96.12 675.5,-96.12"/>
</g>
<!-- Node10 -->
<g id="node10" class="node">
<title>Node10</title>
<g id="a_node10"><a xlink:href="classRa_1_1Core_1_1Geometry_1_1PolyMesh.html" target="_top" xlink:title=" ">
<polygon fill="white" stroke="black" points="425.5,-0.5 425.5,-68.5 538.5,-68.5 538.5,-0.5 425.5,-0.5"/>
<text text-anchor="start" x="433.5" y="-56.5" font-family="Helvetica,sans-Serif" font-size="10.00">Ra::Core::Geometry</text>
<text text-anchor="middle" x="482" y="-45.5" font-family="Helvetica,sans-Serif" font-size="10.00">::PolyMesh</text>
<polyline fill="none" stroke="black" points="425.5,-38.5 538.5,-38.5 "/>
<text text-anchor="middle" x="482" y="-26.5" font-family="Helvetica,sans-Serif" font-size="10.00"> </text>
<polyline fill="none" stroke="black" points="425.5,-19.5 538.5,-19.5 "/>
<text text-anchor="middle" x="482" y="-7.5" font-family="Helvetica,sans-Serif" font-size="10.00"> </text>
</a>
</g>
</g>
<!-- Node9&#45;&gt;Node10 -->
<g id="edge9" class="edge">
<title>Node9&#45;&gt;Node10</title>
<path fill="none" stroke="midnightblue" d="M482,-95.9C482,-86.23 482,-77.03 482,-68.85"/>
<polygon fill="none" stroke="midnightblue" points="478.5,-96.12 482,-106.12 485.5,-96.12 478.5,-96.12"/>
</g>
<!-- Node11&#45;&gt;Node3 -->
<g id="edge11" class="edge">
<title>Node11&#45;&gt;Node3</title>
<path fill="none" stroke="orange" d="M347.21,-345.34C345.42,-342.21 343.68,-339.09 342,-336 336.86,-326.57 331.81,-316.59 326.96,-306.52"/>
<polygon fill="orange" stroke="orange" points="344.29,-347.29 352.34,-354.18 350.35,-343.77 344.29,-347.29"/>
<text text-anchor="middle" x="378" y="-328" font-family="Helvetica,sans-Serif" font-size="10.00"> &lt; Vector1ui &gt;</text>
</g>
<!-- Node11&#45;&gt;Node5 -->
<g id="edge13" class="edge">
<title>Node11&#45;&gt;Node5</title>
<path fill="none" stroke="orange" d="M341.14,-410.42C294.62,-383.22 235.36,-345.95 187,-307 184.07,-304.64 181.14,-302.21 178.22,-299.71"/>
<polygon fill="orange" stroke="orange" points="339.57,-413.55 349.97,-415.55 343.08,-407.5 339.57,-413.55"/>
<text text-anchor="middle" x="259" y="-328" font-family="Helvetica,sans-Serif" font-size="10.00"> &lt; Vector2ui &gt;</text>
</g>
<!-- Node11&#45;&gt;Node7 -->
<g id="edge14" class="edge">
<title>Node11&#45;&gt;Node7</title>
<path fill="none" stroke="orange" d="M495.56,-376.71C514.18,-359.14 534.39,-340.96 554,-325 564.9,-316.13 569.22,-316.02 580,-307 583.27,-304.26 586.56,-301.44 589.84,-298.54"/>
<polygon fill="orange" stroke="orange" points="493.07,-374.25 488.23,-383.67 497.89,-379.32 493.07,-374.25"/>
<text text-anchor="middle" x="590" y="-328" font-family="Helvetica,sans-Serif" font-size="10.00"> &lt; Vector3ui &gt;</text>
</g>
<!-- Node11&#45;&gt;Node9 -->
<g id="edge12" class="edge">
<title>Node11&#45;&gt;Node9</title>
<path fill="none" stroke="orange" d="M416.28,-344.06C417.22,-337.57 418.44,-331.18 420,-325 421.55,-318.85 423.48,-312.66 425.69,-306.52"/>
<polygon fill="orange" stroke="orange" points="412.77,-343.97 415.03,-354.32 419.72,-344.82 412.77,-343.97"/>
<text text-anchor="middle" x="456.5" y="-328" font-family="Helvetica,sans-Serif" font-size="10.00"> &lt; VectorNui &gt;</text>
</g>
</g>
</svg>
