<?xml version="1.0" encoding="UTF-8" standalone="no"?>
<!DOCTYPE svg PUBLIC "-//W3C//DTD SVG 1.1//EN"
 "http://www.w3.org/Graphics/SVG/1.1/DTD/svg11.dtd">
<!-- Generated by graphviz version 2.43.0 (0)
 -->
<!-- Title: Ra::Gui::RotateGizmo::RotateGizmo Pages: 1 -->
<svg width="699pt" height="258pt"
 viewBox="0.00 0.00 699.00 257.50" xmlns="http://www.w3.org/2000/svg" xmlns:xlink="http://www.w3.org/1999/xlink">
<g id="graph0" class="graph" transform="scale(1 1) rotate(0) translate(4 253.5)">
<title>Ra::Gui::RotateGizmo::RotateGizmo</title>
<polygon fill="white" stroke="transparent" points="-4,4 -4,-253.5 695,-253.5 695,4 -4,4"/>
<!-- Node1 -->
<g id="node1" class="node">
<title>Node1</title>
<g id="a_node1"><a xlink:title=" ">
<polygon fill="#bfbfbf" stroke="black" points="0,-121 0,-151 122,-151 122,-121 0,-121"/>
<text text-anchor="start" x="8" y="-139" font-family="Helvetica,sans-Serif" font-size="10.00">Ra::Gui::RotateGizmo</text>
<text text-anchor="middle" x="61" y="-128" font-family="Helvetica,sans-Serif" font-size="10.00">::RotateGizmo</text>
</a>
</g>
</g>
<!-- Node2 -->
<g id="node2" class="node">
<title>Node2</title>
<g id="a_node2"><a xlink:href="classRa_1_1Gui_1_1Gizmo.html#a1de8fbf60b72d5909b8467c973381a28" target="_top" xlink:title="add a render object to display the Gizmo">
<polygon fill="white" stroke="black" points="162.5,-219 162.5,-249 310.5,-249 310.5,-219 162.5,-219"/>
<text text-anchor="start" x="170.5" y="-237" font-family="Helvetica,sans-Serif" font-size="10.00">Ra::Gui::Gizmo::addRender</text>
<text text-anchor="middle" x="236.5" y="-226" font-family="Helvetica,sans-Serif" font-size="10.00">Object</text>
</a>
</g>
</g>
<!-- Node1&#45;&gt;Node2 -->
<g id="edge1" class="edge">
<title>Node1&#45;&gt;Node2</title>
<path fill="none" stroke="midnightblue" d="M77.76,-151.04C95.83,-167.58 126.99,-193.92 158,-210 161.56,-211.84 165.28,-213.58 169.09,-215.19"/>
<polygon fill="midnightblue" stroke="midnightblue" points="168.09,-218.57 178.68,-218.99 170.67,-212.06 168.09,-218.57"/>
</g>
<!-- Node5 -->
<g id="node5" class="node">
<title>Node5</title>
<g id="a_node5"><a xlink:href="classRa_1_1Gui_1_1Gizmo.html#aff3c8a79b3f5994f7ee38a49ac9bdf37" target="_top" xlink:title=" ">
<polygon fill="white" stroke="black" points="158,-170 158,-200 315,-200 315,-170 158,-170"/>
<text text-anchor="start" x="166" y="-188" font-family="Helvetica,sans-Serif" font-size="10.00">Ra::Gui::Gizmo::makeRender</text>
<text text-anchor="middle" x="236.5" y="-177" font-family="Helvetica,sans-Serif" font-size="10.00">Technique</text>
</a>
</g>
</g>
<!-- Node1&#45;&gt;Node5 -->
<g id="edge4" class="edge">
<title>Node1&#45;&gt;Node5</title>
<path fill="none" stroke="midnightblue" d="M115.47,-151.1C133.53,-156.2 153.86,-161.94 172.58,-167.23"/>
<polygon fill="midnightblue" stroke="midnightblue" points="171.63,-170.6 182.21,-169.95 173.53,-163.86 171.63,-170.6"/>
</g>
<!-- Node7 -->
<g id="node7" class="node">
<title>Node7</title>
<g id="a_node7"><a xlink:href="classRa_1_1Gui_1_1RotateGizmo.html#ae2bb91bda019135fbd93be06fa1fdb62" target="_top" xlink:title="Called every time the underlying transform may have changed.">
<polygon fill="white" stroke="black" points="175.5,-121 175.5,-151 297.5,-151 297.5,-121 175.5,-121"/>
<text text-anchor="start" x="183.5" y="-139" font-family="Helvetica,sans-Serif" font-size="10.00">Ra::Gui::RotateGizmo</text>
<text text-anchor="middle" x="236.5" y="-128" font-family="Helvetica,sans-Serif" font-size="10.00">::updateTransform</text>
</a>
</g>
</g>
<!-- Node1&#45;&gt;Node7 -->
<g id="edge6" class="edge">
<title>Node1&#45;&gt;Node7</title>
<path fill="none" stroke="midnightblue" d="M122.19,-136C136.06,-136 150.92,-136 165.17,-136"/>
<polygon fill="midnightblue" stroke="midnightblue" points="165.41,-139.5 175.41,-136 165.41,-132.5 165.41,-139.5"/>
</g>
<!-- Node10 -->
<g id="node10" class="node">
<title>Node10</title>
<g id="a_node10"><a xlink:href="classRa_1_1Core_1_1Geometry_1_1AttribArrayGeometry.html#a815c49137e348ae161fb3762f8c5b1ab" target="_top" xlink:title="Release lock on vertices positions.">
<polygon fill="white" stroke="black" points="174,-60.5 174,-101.5 299,-101.5 299,-60.5 174,-60.5"/>
<text text-anchor="start" x="182" y="-89.5" font-family="Helvetica,sans-Serif" font-size="10.00">Ra::Core::Geometry</text>
<text text-anchor="start" x="182" y="-78.5" font-family="Helvetica,sans-Serif" font-size="10.00">::AttribArrayGeometry</text>
<text text-anchor="middle" x="236.5" y="-67.5" font-family="Helvetica,sans-Serif" font-size="10.00">::verticesUnlock</text>
</a>
</g>
</g>
<!-- Node1&#45;&gt;Node10 -->
<g id="edge9" class="edge">
<title>Node1&#45;&gt;Node10</title>
<path fill="none" stroke="midnightblue" d="M109.41,-120.97C126.33,-115.61 145.78,-109.44 164.25,-103.58"/>
<polygon fill="midnightblue" stroke="midnightblue" points="165.34,-106.91 173.81,-100.56 163.22,-100.24 165.34,-106.91"/>
</g>
<!-- Node12 -->
<g id="node12" class="node">
<title>Node12</title>
<g id="a_node12"><a xlink:href="classRa_1_1Core_1_1Geometry_1_1AttribArrayGeometry.html#a7f57cb8c0c0a79c2c69bffe5b8a20357" target="_top" xlink:title=" ">
<polygon fill="white" stroke="black" points="174,-0.5 174,-41.5 299,-41.5 299,-0.5 174,-0.5"/>
<text text-anchor="start" x="182" y="-29.5" font-family="Helvetica,sans-Serif" font-size="10.00">Ra::Core::Geometry</text>
<text text-anchor="start" x="182" y="-18.5" font-family="Helvetica,sans-Serif" font-size="10.00">::AttribArrayGeometry</text>
<text text-anchor="middle" x="236.5" y="-7.5" font-family="Helvetica,sans-Serif" font-size="10.00">::verticesWithLock</text>
</a>
</g>
</g>
<!-- Node1&#45;&gt;Node12 -->
<g id="edge11" class="edge">
<title>Node1&#45;&gt;Node12</title>
<path fill="none" stroke="midnightblue" d="M75.66,-120.98C93.2,-102.44 125.3,-70.92 158,-51 160.77,-49.31 163.66,-47.69 166.61,-46.13"/>
<polygon fill="midnightblue" stroke="midnightblue" points="168.23,-49.23 175.64,-41.66 165.13,-42.96 168.23,-49.23"/>
</g>
<!-- Node3 -->
<g id="node3" class="node">
<title>Node3</title>
<g id="a_node3"><a xlink:href="classRa_1_1Engine_1_1Component.html#aea20d8186eb969b255cd83218a809178" target="_top" xlink:title="Add a new render object to the component. This adds the RO to the manager for drawing.">
<polygon fill="white" stroke="black" points="372,-219 372,-249 503,-249 503,-219 372,-219"/>
<text text-anchor="start" x="380" y="-237" font-family="Helvetica,sans-Serif" font-size="10.00">Ra::Engine::Component</text>
<text text-anchor="middle" x="437.5" y="-226" font-family="Helvetica,sans-Serif" font-size="10.00">::addRenderObject</text>
</a>
</g>
</g>
<!-- Node2&#45;&gt;Node3 -->
<g id="edge2" class="edge">
<title>Node2&#45;&gt;Node3</title>
<path fill="none" stroke="midnightblue" d="M310.75,-234C327.36,-234 345.03,-234 361.7,-234"/>
<polygon fill="midnightblue" stroke="midnightblue" points="361.94,-237.5 371.94,-234 361.94,-230.5 361.94,-237.5"/>
</g>
<!-- Node4 -->
<g id="node4" class="node">
<title>Node4</title>
<g id="a_node4"><a xlink:href="classRa_1_1Engine_1_1Component.html#a10b0bc182b76165744ebea603ae32dfe" target="_top" xlink:title="Shortcut to access the render object manager.">
<polygon fill="white" stroke="black" points="560,-219 560,-249 691,-249 691,-219 560,-219"/>
<text text-anchor="start" x="568" y="-237" font-family="Helvetica,sans-Serif" font-size="10.00">Ra::Engine::Component</text>
<text text-anchor="middle" x="625.5" y="-226" font-family="Helvetica,sans-Serif" font-size="10.00">::getRoMgr</text>
</a>
</g>
</g>
<!-- Node3&#45;&gt;Node4 -->
<g id="edge3" class="edge">
<title>Node3&#45;&gt;Node4</title>
<path fill="none" stroke="midnightblue" d="M503.03,-234C518.09,-234 534.26,-234 549.72,-234"/>
<polygon fill="midnightblue" stroke="midnightblue" points="549.77,-237.5 559.77,-234 549.77,-230.5 549.77,-237.5"/>
</g>
<!-- Node6 -->
<g id="node6" class="node">
<title>Node6</title>
<g id="a_node6"><a xlink:href="namespaceRa_1_1Engine_1_1ShaderConfigurationFactory.html#ad6fe3c60f8f2b9f9f5d8220ffe4d5ba6" target="_top" xlink:title=" ">
<polygon fill="white" stroke="black" points="351,-170 351,-200 524,-200 524,-170 351,-170"/>
<text text-anchor="start" x="359" y="-188" font-family="Helvetica,sans-Serif" font-size="10.00">Ra::Engine::ShaderConfiguration</text>
<text text-anchor="middle" x="437.5" y="-177" font-family="Helvetica,sans-Serif" font-size="10.00">Factory::getConfiguration</text>
</a>
</g>
</g>
<!-- Node5&#45;&gt;Node6 -->
<g id="edge5" class="edge">
<title>Node5&#45;&gt;Node6</title>
<path fill="none" stroke="midnightblue" d="M315.01,-185C323.48,-185 332.18,-185 340.83,-185"/>
<polygon fill="midnightblue" stroke="midnightblue" points="340.96,-188.5 350.96,-185 340.96,-181.5 340.96,-188.5"/>
</g>
<!-- Node8 -->
<g id="node8" class="node">
<title>Node8</title>
<g id="a_node8"><a xlink:href="classRa_1_1Gui_1_1Gizmo.html#a34cb0247b502236be30ed5949f3bbc90" target="_top" xlink:title="read access to the gizmo render objects id">
<polygon fill="white" stroke="black" points="382.5,-128.5 382.5,-147.5 492.5,-147.5 492.5,-128.5 382.5,-128.5"/>
<text text-anchor="middle" x="437.5" y="-135.5" font-family="Helvetica,sans-Serif" font-size="10.00">Ra::Gui::Gizmo::ros</text>
</a>
</g>
</g>
<!-- Node7&#45;&gt;Node8 -->
<g id="edge7" class="edge">
<title>Node7&#45;&gt;Node8</title>
<path fill="none" stroke="midnightblue" d="M297.75,-136.61C321.27,-136.84 348.28,-137.11 372.18,-137.35"/>
<polygon fill="midnightblue" stroke="midnightblue" points="372.18,-140.85 382.21,-137.45 372.25,-133.85 372.18,-140.85"/>
</g>
<!-- Node9 -->
<g id="node9" class="node">
<title>Node9</title>
<g id="a_node9"><a xlink:href="namespaceRa_1_1Core_1_1Geometry.html#aa04e6052d8911b1df1bd881474debb45" target="_top" xlink:title=" ">
<polygon fill="white" stroke="black" points="376.5,-90.5 376.5,-109.5 498.5,-109.5 498.5,-90.5 376.5,-90.5"/>
<text text-anchor="middle" x="437.5" y="-97.5" font-family="Helvetica,sans-Serif" font-size="10.00">Ra::Core::Geometry::t</text>
</a>
</g>
</g>
<!-- Node7&#45;&gt;Node9 -->
<g id="edge8" class="edge">
<title>Node7&#45;&gt;Node9</title>
<path fill="none" stroke="midnightblue" d="M297.75,-125.1C321.88,-120.74 349.68,-115.71 374.02,-111.3"/>
<polygon fill="midnightblue" stroke="midnightblue" points="374.66,-114.74 383.87,-109.52 373.41,-107.86 374.66,-114.74"/>
</g>
<!-- Node11 -->
<g id="node11" class="node">
<title>Node11</title>
<g id="a_node11"><a xlink:href="classRa_1_1Core_1_1Utils_1_1AttribManager.html#ae0cb7281ec72606a5392602b4ea50d2c" target="_top" xlink:title=" ">
<polygon fill="white" stroke="black" points="356.5,-25 356.5,-55 518.5,-55 518.5,-25 356.5,-25"/>
<text text-anchor="start" x="364.5" y="-43" font-family="Helvetica,sans-Serif" font-size="10.00">Ra::Core::Utils::AttribManager</text>
<text text-anchor="middle" x="437.5" y="-32" font-family="Helvetica,sans-Serif" font-size="10.00">::getAttrib</text>
</a>
</g>
</g>
<!-- Node10&#45;&gt;Node11 -->
<g id="edge10" class="edge">
<title>Node10&#45;&gt;Node11</title>
<path fill="none" stroke="midnightblue" d="M299.1,-68.31C316.34,-64.76 335.37,-60.84 353.62,-57.08"/>
<polygon fill="midnightblue" stroke="midnightblue" points="354.58,-60.45 363.67,-55.01 353.17,-53.6 354.58,-60.45"/>
</g>
<!-- Node12&#45;&gt;Node11 -->
<g id="edge12" class="edge">
<title>Node12&#45;&gt;Node11</title>
<path fill="none" stroke="midnightblue" d="M299.1,-26.88C313.9,-28.29 330.01,-29.83 345.82,-31.34"/>
<polygon fill="midnightblue" stroke="midnightblue" points="345.86,-34.86 356.15,-32.33 346.52,-27.89 345.86,-34.86"/>
</g>
</g>
</svg>
