<?xml version="1.0" encoding="UTF-8" standalone="no"?>
<!DOCTYPE svg PUBLIC "-//W3C//DTD SVG 1.1//EN"
 "http://www.w3.org/Graphics/SVG/1.1/DTD/svg11.dtd">
<!-- Generated by graphviz version 2.43.0 (0)
 -->
<!-- Title: Ra::Engine::Data::LineMesh Pages: 1 -->
<svg width="469pt" height="1606pt"
 viewBox="0.00 0.00 468.50 1606.00" xmlns="http://www.w3.org/2000/svg" xmlns:xlink="http://www.w3.org/1999/xlink">
<g id="graph0" class="graph" transform="scale(1 1) rotate(0) translate(4 1602)">
<title>Ra::Engine::Data::LineMesh</title>
<polygon fill="white" stroke="transparent" points="-4,4 -4,-1602 464.5,-1602 464.5,4 -4,4"/>
<!-- Node1 -->
<g id="node1" class="node">
<title>Node1</title>
<g id="a_node1"><a xlink:title="LineMesh, own a Core::Geometry::LineMesh.">
<polygon fill="#bfbfbf" stroke="black" points="107,-0.5 107,-57.5 257,-57.5 257,-0.5 107,-0.5"/>
<text text-anchor="middle" x="182" y="-45.5" font-family="Helvetica,sans-Serif" font-size="10.00">Ra::Engine::Data::LineMesh</text>
<polyline fill="none" stroke="black" points="107,-38.5 257,-38.5 "/>
<text text-anchor="middle" x="182" y="-26.5" font-family="Helvetica,sans-Serif" font-size="10.00"> </text>
<polyline fill="none" stroke="black" points="107,-19.5 257,-19.5 "/>
<text text-anchor="start" x="115" y="-7.5" font-family="Helvetica,sans-Serif" font-size="10.00">+ LineMesh()</text>
</a>
</g>
</g>
<!-- Node2 -->
<g id="node2" class="node">
<title>Node2</title>
<g id="a_node2"><a xlink:href="classRa_1_1Engine_1_1Data_1_1IndexedGeometry.html" target="_top" xlink:title=" ">
<polygon fill="white" stroke="black" points="105,-95.5 105,-207.5 259,-207.5 259,-95.5 105,-95.5"/>
<text text-anchor="start" x="113" y="-195.5" font-family="Helvetica,sans-Serif" font-size="10.00">Ra::Engine::Data::Indexed</text>
<text text-anchor="start" x="113" y="-184.5" font-family="Helvetica,sans-Serif" font-size="10.00">Geometry&lt; Core::Geometry</text>
<text text-anchor="middle" x="182" y="-173.5" font-family="Helvetica,sans-Serif" font-size="10.00">::LineMesh &gt;</text>
<polyline fill="none" stroke="black" points="105,-166.5 259,-166.5 "/>
<text text-anchor="middle" x="182" y="-154.5" font-family="Helvetica,sans-Serif" font-size="10.00"> </text>
<polyline fill="none" stroke="black" points="105,-147.5 259,-147.5 "/>
<text text-anchor="start" x="113" y="-135.5" font-family="Helvetica,sans-Serif" font-size="10.00">+ IndexedGeometry()</text>
<text text-anchor="start" x="113" y="-124.5" font-family="Helvetica,sans-Serif" font-size="10.00">+ render()</text>
<text text-anchor="start" x="113" y="-113.5" font-family="Helvetica,sans-Serif" font-size="10.00">+ loadGeometry()</text>
<text text-anchor="start" x="113" y="-102.5" font-family="Helvetica,sans-Serif" font-size="10.00"># updateGL_specific_impl()</text>
</a>
</g>
</g>
<!-- Node2&#45;&gt;Node1 -->
<g id="edge1" class="edge">
<title>Node2&#45;&gt;Node1</title>
<path fill="none" stroke="midnightblue" d="M182,-85.12C182,-75.48 182,-66.01 182,-57.72"/>
<polygon fill="none" stroke="midnightblue" points="178.5,-85.19 182,-95.19 185.5,-85.19 178.5,-85.19"/>
</g>
<!-- Node3 -->
<g id="node3" class="node">
<title>Node3</title>
<g id="a_node3"><a xlink:href="classRa_1_1Engine_1_1Data_1_1CoreGeometryDisplayable.html" target="_top" xlink:title=" ">
<polygon fill="white" stroke="black" points="275.5,-255.5 275.5,-609.5 460.5,-609.5 460.5,-255.5 275.5,-255.5"/>
<text text-anchor="start" x="283.5" y="-597.5" font-family="Helvetica,sans-Serif" font-size="10.00">Ra::Engine::Data::CoreGeometry</text>
<text text-anchor="start" x="283.5" y="-586.5" font-family="Helvetica,sans-Serif" font-size="10.00">Displayable&lt; Core::Geometry</text>
<text text-anchor="middle" x="368" y="-575.5" font-family="Helvetica,sans-Serif" font-size="10.00">::LineMesh &gt;</text>
<polyline fill="none" stroke="black" points="275.5,-568.5 460.5,-568.5 "/>
<text text-anchor="start" x="283.5" y="-556.5" font-family="Helvetica,sans-Serif" font-size="10.00"># m_translationTableMeshTo</text>
<text text-anchor="start" x="283.5" y="-545.5" font-family="Helvetica,sans-Serif" font-size="10.00">Shader</text>
<text text-anchor="start" x="283.5" y="-534.5" font-family="Helvetica,sans-Serif" font-size="10.00"># m_translationTableShader</text>
<text text-anchor="start" x="283.5" y="-523.5" font-family="Helvetica,sans-Serif" font-size="10.00">ToMesh</text>
<text text-anchor="start" x="283.5" y="-512.5" font-family="Helvetica,sans-Serif" font-size="10.00"># m_mesh</text>
<polyline fill="none" stroke="black" points="275.5,-505.5 460.5,-505.5 "/>
<text text-anchor="start" x="283.5" y="-493.5" font-family="Helvetica,sans-Serif" font-size="10.00">+ CoreGeometryDisplayable()</text>
<text text-anchor="start" x="283.5" y="-482.5" font-family="Helvetica,sans-Serif" font-size="10.00">+ getAttribArrayGeometry()</text>
<text text-anchor="start" x="283.5" y="-471.5" font-family="Helvetica,sans-Serif" font-size="10.00">+ getAttribArrayGeometry()</text>
<text text-anchor="start" x="283.5" y="-460.5" font-family="Helvetica,sans-Serif" font-size="10.00">+ addAttrib()</text>
<text text-anchor="start" x="283.5" y="-449.5" font-family="Helvetica,sans-Serif" font-size="10.00">+ getNumVertices()</text>
<text text-anchor="start" x="283.5" y="-438.5" font-family="Helvetica,sans-Serif" font-size="10.00">+ loadGeometry()</text>
<text text-anchor="start" x="283.5" y="-427.5" font-family="Helvetica,sans-Serif" font-size="10.00">+ updateGL()</text>
<text text-anchor="start" x="283.5" y="-416.5" font-family="Helvetica,sans-Serif" font-size="10.00">+ setAttribNameCorrespondance()</text>
<text text-anchor="start" x="283.5" y="-405.5" font-family="Helvetica,sans-Serif" font-size="10.00">+ getAbstractGeometry()</text>
<text text-anchor="start" x="283.5" y="-394.5" font-family="Helvetica,sans-Serif" font-size="10.00">+ getAbstractGeometry()</text>
<text text-anchor="start" x="283.5" y="-383.5" font-family="Helvetica,sans-Serif" font-size="10.00">+ getCoreGeometry()</text>
<text text-anchor="start" x="283.5" y="-372.5" font-family="Helvetica,sans-Serif" font-size="10.00">+ getCoreGeometry()</text>
<text text-anchor="start" x="283.5" y="-361.5" font-family="Helvetica,sans-Serif" font-size="10.00"># updateGL_specific_impl()</text>
<text text-anchor="start" x="283.5" y="-350.5" font-family="Helvetica,sans-Serif" font-size="10.00"># loadGeometry_common()</text>
<text text-anchor="start" x="283.5" y="-339.5" font-family="Helvetica,sans-Serif" font-size="10.00"># setupCoreMeshObservers()</text>
<text text-anchor="start" x="283.5" y="-328.5" font-family="Helvetica,sans-Serif" font-size="10.00"># autoVertexAttribPointer()</text>
<text text-anchor="start" x="283.5" y="-317.5" font-family="Helvetica,sans-Serif" font-size="10.00"># addAttribObserver()</text>
<text text-anchor="start" x="283.5" y="-306.5" font-family="Helvetica,sans-Serif" font-size="10.00"># addToTranslationTable()</text>
<text text-anchor="start" x="283.5" y="-295.5" font-family="Helvetica,sans-Serif" font-size="10.00">* getAbstractGeometry()</text>
<text text-anchor="start" x="283.5" y="-284.5" font-family="Helvetica,sans-Serif" font-size="10.00">* getAbstractGeometry()</text>
<text text-anchor="start" x="283.5" y="-273.5" font-family="Helvetica,sans-Serif" font-size="10.00">* getCoreGeometry()</text>
<text text-anchor="start" x="283.5" y="-262.5" font-family="Helvetica,sans-Serif" font-size="10.00">* getCoreGeometry()</text>
</a>
</g>
</g>
<!-- Node3&#45;&gt;Node2 -->
<g id="edge2" class="edge">
<title>Node3&#45;&gt;Node2</title>
<path fill="none" stroke="midnightblue" d="M353.31,-246.25C349.76,-239.16 345.69,-232.37 341,-226 321.27,-199.18 289.33,-181.85 259.23,-170.81"/>
<polygon fill="none" stroke="midnightblue" points="350.15,-247.77 357.52,-255.38 356.51,-244.84 350.15,-247.77"/>
</g>
<!-- Node4 -->
<g id="node4" class="node">
<title>Node4</title>
<g id="a_node4"><a xlink:href="classRa_1_1Engine_1_1Data_1_1AttribArrayDisplayable.html" target="_top" xlink:title=" ">
<polygon fill="white" stroke="black" points="269,-1038.5 269,-1381.5 435,-1381.5 435,-1038.5 269,-1038.5"/>
<text text-anchor="start" x="277" y="-1369.5" font-family="Helvetica,sans-Serif" font-size="10.00">Ra::Engine::Data::Attrib</text>
<text text-anchor="middle" x="352" y="-1358.5" font-family="Helvetica,sans-Serif" font-size="10.00">ArrayDisplayable</text>
<polyline fill="none" stroke="black" points="269,-1351.5 435,-1351.5 "/>
<text text-anchor="start" x="277" y="-1339.5" font-family="Helvetica,sans-Serif" font-size="10.00"># m_vao</text>
<text text-anchor="start" x="277" y="-1328.5" font-family="Helvetica,sans-Serif" font-size="10.00"># m_renderMode</text>
<text text-anchor="start" x="277" y="-1317.5" font-family="Helvetica,sans-Serif" font-size="10.00"># m_vbos</text>
<text text-anchor="start" x="277" y="-1306.5" font-family="Helvetica,sans-Serif" font-size="10.00"># m_dataDirty</text>
<text text-anchor="start" x="277" y="-1295.5" font-family="Helvetica,sans-Serif" font-size="10.00"># m_handleToBuffer</text>
<text text-anchor="start" x="277" y="-1284.5" font-family="Helvetica,sans-Serif" font-size="10.00"># m_isDirty</text>
<polyline fill="none" stroke="black" points="269,-1277.5 435,-1277.5 "/>
<text text-anchor="start" x="277" y="-1265.5" font-family="Helvetica,sans-Serif" font-size="10.00">+ AttribArrayDisplayable()</text>
<text text-anchor="start" x="277" y="-1254.5" font-family="Helvetica,sans-Serif" font-size="10.00">+ AttribArrayDisplayable()</text>
<text text-anchor="start" x="277" y="-1243.5" font-family="Helvetica,sans-Serif" font-size="10.00">+ operator=()</text>
<text text-anchor="start" x="277" y="-1232.5" font-family="Helvetica,sans-Serif" font-size="10.00">+ ~AttribArrayDisplayable()</text>
<text text-anchor="start" x="277" y="-1221.5" font-family="Helvetica,sans-Serif" font-size="10.00">+ setRenderMode()</text>
<text text-anchor="start" x="277" y="-1210.5" font-family="Helvetica,sans-Serif" font-size="10.00">+ getRenderMode()</text>
<text text-anchor="start" x="277" y="-1199.5" font-family="Helvetica,sans-Serif" font-size="10.00">+ updateGL()</text>
<text text-anchor="start" x="277" y="-1188.5" font-family="Helvetica,sans-Serif" font-size="10.00">+ getName()</text>
<text text-anchor="start" x="277" y="-1177.5" font-family="Helvetica,sans-Serif" font-size="10.00">+ setDirty()</text>
<text text-anchor="start" x="277" y="-1166.5" font-family="Helvetica,sans-Serif" font-size="10.00">+ setDirty()</text>
<text text-anchor="start" x="277" y="-1155.5" font-family="Helvetica,sans-Serif" font-size="10.00">+ setDirty()</text>
<text text-anchor="start" x="277" y="-1144.5" font-family="Helvetica,sans-Serif" font-size="10.00">+ getAttribArrayGeometry()</text>
<text text-anchor="start" x="277" y="-1133.5" font-family="Helvetica,sans-Serif" font-size="10.00">+ getAttribArrayGeometry()</text>
<text text-anchor="start" x="277" y="-1122.5" font-family="Helvetica,sans-Serif" font-size="10.00">+ getAttribName()</text>
<text text-anchor="start" x="277" y="-1111.5" font-family="Helvetica,sans-Serif" font-size="10.00"># updatePickingRenderMode()</text>
<text text-anchor="start" x="277" y="-1100.5" font-family="Helvetica,sans-Serif" font-size="10.00">* setDirty()</text>
<text text-anchor="start" x="277" y="-1089.5" font-family="Helvetica,sans-Serif" font-size="10.00">* setDirty()</text>
<text text-anchor="start" x="277" y="-1078.5" font-family="Helvetica,sans-Serif" font-size="10.00">* setDirty()</text>
<text text-anchor="start" x="277" y="-1067.5" font-family="Helvetica,sans-Serif" font-size="10.00">* getAttribName()</text>
<text text-anchor="start" x="277" y="-1056.5" font-family="Helvetica,sans-Serif" font-size="10.00">* getAttribArrayGeometry()</text>
<text text-anchor="start" x="277" y="-1045.5" font-family="Helvetica,sans-Serif" font-size="10.00">* getAttribArrayGeometry()</text>
</a>
</g>
</g>
<!-- Node4&#45;&gt;Node3 -->
<g id="edge3" class="edge">
<title>Node4&#45;&gt;Node3</title>
<path fill="none" stroke="midnightblue" d="M380.78,-1028.44C395.47,-913.76 408.29,-762.18 398,-628 397.54,-621.95 396.99,-615.81 396.38,-609.61"/>
<polygon fill="none" stroke="midnightblue" points="377.31,-1028 379.49,-1038.37 384.25,-1028.9 377.31,-1028"/>
</g>
<!-- Node6 -->
<g id="node6" class="node">
<title>Node6</title>
<g id="a_node6"><a xlink:href="classRa_1_1Engine_1_1Data_1_1CoreGeometryDisplayable.html" target="_top" xlink:title="Template class to manage the Displayable aspect of a Core Geomertry, such as TriangleMesh.">
<polygon fill="white" stroke="black" points="174.5,-657.5 174.5,-1000.5 359.5,-1000.5 359.5,-657.5 174.5,-657.5"/>
<text text-anchor="start" x="182.5" y="-988.5" font-family="Helvetica,sans-Serif" font-size="10.00">Ra::Engine::Data::CoreGeometry</text>
<text text-anchor="middle" x="267" y="-977.5" font-family="Helvetica,sans-Serif" font-size="10.00">Displayable&lt; T &gt;</text>
<polyline fill="none" stroke="black" points="174.5,-970.5 359.5,-970.5 "/>
<text text-anchor="start" x="182.5" y="-958.5" font-family="Helvetica,sans-Serif" font-size="10.00"># m_translationTableMeshTo</text>
<text text-anchor="start" x="182.5" y="-947.5" font-family="Helvetica,sans-Serif" font-size="10.00">Shader</text>
<text text-anchor="start" x="182.5" y="-936.5" font-family="Helvetica,sans-Serif" font-size="10.00"># m_translationTableShader</text>
<text text-anchor="start" x="182.5" y="-925.5" font-family="Helvetica,sans-Serif" font-size="10.00">ToMesh</text>
<text text-anchor="start" x="182.5" y="-914.5" font-family="Helvetica,sans-Serif" font-size="10.00"># m_mesh</text>
<polyline fill="none" stroke="black" points="174.5,-907.5 359.5,-907.5 "/>
<text text-anchor="start" x="182.5" y="-895.5" font-family="Helvetica,sans-Serif" font-size="10.00">+ CoreGeometryDisplayable()</text>
<text text-anchor="start" x="182.5" y="-884.5" font-family="Helvetica,sans-Serif" font-size="10.00">+ getAttribArrayGeometry()</text>
<text text-anchor="start" x="182.5" y="-873.5" font-family="Helvetica,sans-Serif" font-size="10.00">+ getAttribArrayGeometry()</text>
<text text-anchor="start" x="182.5" y="-862.5" font-family="Helvetica,sans-Serif" font-size="10.00">+ addAttrib()</text>
<text text-anchor="start" x="182.5" y="-851.5" font-family="Helvetica,sans-Serif" font-size="10.00">+ getNumVertices()</text>
<text text-anchor="start" x="182.5" y="-840.5" font-family="Helvetica,sans-Serif" font-size="10.00">+ loadGeometry()</text>
<text text-anchor="start" x="182.5" y="-829.5" font-family="Helvetica,sans-Serif" font-size="10.00">+ updateGL()</text>
<text text-anchor="start" x="182.5" y="-818.5" font-family="Helvetica,sans-Serif" font-size="10.00">+ setAttribNameCorrespondance()</text>
<text text-anchor="start" x="182.5" y="-807.5" font-family="Helvetica,sans-Serif" font-size="10.00">+ getAbstractGeometry()</text>
<text text-anchor="start" x="182.5" y="-796.5" font-family="Helvetica,sans-Serif" font-size="10.00">+ getAbstractGeometry()</text>
<text text-anchor="start" x="182.5" y="-785.5" font-family="Helvetica,sans-Serif" font-size="10.00">+ getCoreGeometry()</text>
<text text-anchor="start" x="182.5" y="-774.5" font-family="Helvetica,sans-Serif" font-size="10.00">+ getCoreGeometry()</text>
<text text-anchor="start" x="182.5" y="-763.5" font-family="Helvetica,sans-Serif" font-size="10.00"># updateGL_specific_impl()</text>
<text text-anchor="start" x="182.5" y="-752.5" font-family="Helvetica,sans-Serif" font-size="10.00"># loadGeometry_common()</text>
<text text-anchor="start" x="182.5" y="-741.5" font-family="Helvetica,sans-Serif" font-size="10.00"># setupCoreMeshObservers()</text>
<text text-anchor="start" x="182.5" y="-730.5" font-family="Helvetica,sans-Serif" font-size="10.00"># autoVertexAttribPointer()</text>
<text text-anchor="start" x="182.5" y="-719.5" font-family="Helvetica,sans-Serif" font-size="10.00"># addAttribObserver()</text>
<text text-anchor="start" x="182.5" y="-708.5" font-family="Helvetica,sans-Serif" font-size="10.00"># addToTranslationTable()</text>
<text text-anchor="start" x="182.5" y="-697.5" font-family="Helvetica,sans-Serif" font-size="10.00">* getAbstractGeometry()</text>
<text text-anchor="start" x="182.5" y="-686.5" font-family="Helvetica,sans-Serif" font-size="10.00">* getAbstractGeometry()</text>
<text text-anchor="start" x="182.5" y="-675.5" font-family="Helvetica,sans-Serif" font-size="10.00">* getCoreGeometry()</text>
<text text-anchor="start" x="182.5" y="-664.5" font-family="Helvetica,sans-Serif" font-size="10.00">* getCoreGeometry()</text>
</a>
</g>
</g>
<!-- Node4&#45;&gt;Node6 -->
<g id="edge6" class="edge">
<title>Node4&#45;&gt;Node6</title>
<path fill="none" stroke="midnightblue" d="M311.48,-1028.31C309.4,-1019.04 307.31,-1009.75 305.24,-1000.51"/>
<polygon fill="none" stroke="midnightblue" points="308.12,-1029.36 313.73,-1038.35 314.95,-1027.82 308.12,-1029.36"/>
</g>
<!-- Node5 -->
<g id="node5" class="node">
<title>Node5</title>
<g id="a_node5"><a xlink:href="classRa_1_1Engine_1_1Data_1_1Displayable.html" target="_top" xlink:title=" ">
<polygon fill="white" stroke="black" points="271.5,-1419.5 271.5,-1597.5 432.5,-1597.5 432.5,-1419.5 271.5,-1419.5"/>
<text text-anchor="middle" x="352" y="-1585.5" font-family="Helvetica,sans-Serif" font-size="10.00">Ra::Engine::Data::Displayable</text>
<polyline fill="none" stroke="black" points="271.5,-1578.5 432.5,-1578.5 "/>
<text text-anchor="start" x="279.5" y="-1566.5" font-family="Helvetica,sans-Serif" font-size="10.00"># m_pickingRenderMode</text>
<polyline fill="none" stroke="black" points="271.5,-1559.5 432.5,-1559.5 "/>
<text text-anchor="start" x="279.5" y="-1547.5" font-family="Helvetica,sans-Serif" font-size="10.00">+ Displayable()</text>
<text text-anchor="start" x="279.5" y="-1536.5" font-family="Helvetica,sans-Serif" font-size="10.00">+ Displayable()</text>
<text text-anchor="start" x="279.5" y="-1525.5" font-family="Helvetica,sans-Serif" font-size="10.00">+ operator=()</text>
<text text-anchor="start" x="279.5" y="-1514.5" font-family="Helvetica,sans-Serif" font-size="10.00">+ ~Displayable()</text>
<text text-anchor="start" x="279.5" y="-1503.5" font-family="Helvetica,sans-Serif" font-size="10.00">+ pickingRenderMode()</text>
<text text-anchor="start" x="279.5" y="-1492.5" font-family="Helvetica,sans-Serif" font-size="10.00">+ getName()</text>
<text text-anchor="start" x="279.5" y="-1481.5" font-family="Helvetica,sans-Serif" font-size="10.00">+ getAbstractGeometry()</text>
<text text-anchor="start" x="279.5" y="-1470.5" font-family="Helvetica,sans-Serif" font-size="10.00">+ getAbstractGeometry()</text>
<text text-anchor="start" x="279.5" y="-1459.5" font-family="Helvetica,sans-Serif" font-size="10.00">+ updateGL()</text>
<text text-anchor="start" x="279.5" y="-1448.5" font-family="Helvetica,sans-Serif" font-size="10.00">+ render()</text>
<text text-anchor="start" x="279.5" y="-1437.5" font-family="Helvetica,sans-Serif" font-size="10.00">+ getNumFaces()</text>
<text text-anchor="start" x="279.5" y="-1426.5" font-family="Helvetica,sans-Serif" font-size="10.00">+ getNumVertices()</text>
</a>
</g>
</g>
<!-- Node5&#45;&gt;Node4 -->
<g id="edge4" class="edge">
<title>Node5&#45;&gt;Node4</title>
<path fill="none" stroke="midnightblue" d="M352,-1409.34C352,-1400.36 352,-1391.11 352,-1381.73"/>
<polygon fill="none" stroke="midnightblue" points="348.5,-1409.34 352,-1419.34 355.5,-1409.34 348.5,-1409.34"/>
</g>
<!-- Node6&#45;&gt;Node3 -->
<g id="edge5" class="edge">
<title>Node6&#45;&gt;Node3</title>
<path fill="none" stroke="orange" d="M235.45,-647.41C237.38,-640.75 239.87,-634.25 243,-628 248.96,-616.07 258.17,-619.99 267,-610 269.8,-606.82 272.57,-603.56 275.29,-600.22"/>
<polygon fill="orange" stroke="orange" points="232.01,-646.73 232.99,-657.28 238.8,-648.42 232.01,-646.73"/>
<text text-anchor="middle" x="320.5" y="-631" font-family="Helvetica,sans-Serif" font-size="10.00"> &lt; Core::Geometry::LineMesh &gt;</text>
</g>
<!-- Node8 -->
<g id="node8" class="node">
<title>Node8</title>
<g id="a_node8"><a xlink:href="classRa_1_1Engine_1_1Data_1_1IndexedGeometry.html" target="_top" xlink:title="A CoreGeometry, with indices.">
<polygon fill="white" stroke="black" points="106.5,-382 106.5,-483 257.5,-483 257.5,-382 106.5,-382"/>
<text text-anchor="start" x="114.5" y="-471" font-family="Helvetica,sans-Serif" font-size="10.00">Ra::Engine::Data::Indexed</text>
<text text-anchor="middle" x="182" y="-460" font-family="Helvetica,sans-Serif" font-size="10.00">Geometry&lt; T &gt;</text>
<polyline fill="none" stroke="black" points="106.5,-453 257.5,-453 "/>
<text text-anchor="middle" x="182" y="-441" font-family="Helvetica,sans-Serif" font-size="10.00"> </text>
<polyline fill="none" stroke="black" points="106.5,-434 257.5,-434 "/>
<text text-anchor="start" x="114.5" y="-422" font-family="Helvetica,sans-Serif" font-size="10.00">+ IndexedGeometry()</text>
<text text-anchor="start" x="114.5" y="-411" font-family="Helvetica,sans-Serif" font-size="10.00">+ render()</text>
<text text-anchor="start" x="114.5" y="-400" font-family="Helvetica,sans-Serif" font-size="10.00">+ loadGeometry()</text>
<text text-anchor="start" x="114.5" y="-389" font-family="Helvetica,sans-Serif" font-size="10.00"># updateGL_specific_impl()</text>
</a>
</g>
</g>
<!-- Node6&#45;&gt;Node8 -->
<g id="edge9" class="edge">
<title>Node6&#45;&gt;Node8</title>
<path fill="none" stroke="midnightblue" d="M221.87,-647.54C221.24,-644.68 220.61,-641.83 220,-639 208.52,-585.99 197.49,-524.81 190.3,-483.08"/>
<polygon fill="none" stroke="midnightblue" points="218.46,-648.35 224.06,-657.35 225.3,-646.83 218.46,-648.35"/>
</g>
<!-- Node7 -->
<g id="node7" class="node">
<title>Node7</title>
<g id="a_node7"><a xlink:href="classRa_1_1Engine_1_1Data_1_1VaoIndices.html" target="_top" xlink:title="Concept class to ensure consistent naming of VaoIndices accross derived classes.">
<polygon fill="white" stroke="black" points="0,-789.5 0,-868.5 156,-868.5 156,-789.5 0,-789.5"/>
<text text-anchor="middle" x="78" y="-856.5" font-family="Helvetica,sans-Serif" font-size="10.00">Ra::Engine::Data::VaoIndices</text>
<polyline fill="none" stroke="black" points="0,-849.5 156,-849.5 "/>
<text text-anchor="start" x="8" y="-837.5" font-family="Helvetica,sans-Serif" font-size="10.00"># m_indices</text>
<text text-anchor="start" x="8" y="-826.5" font-family="Helvetica,sans-Serif" font-size="10.00"># m_indicesDirty</text>
<text text-anchor="start" x="8" y="-815.5" font-family="Helvetica,sans-Serif" font-size="10.00"># m_numElements</text>
<polyline fill="none" stroke="black" points="0,-808.5 156,-808.5 "/>
<text text-anchor="start" x="8" y="-796.5" font-family="Helvetica,sans-Serif" font-size="10.00">+ setIndicesDirty()</text>
</a>
</g>
</g>
<!-- Node7&#45;&gt;Node2 -->
<g id="edge7" class="edge">
<title>Node7&#45;&gt;Node2</title>
<path fill="none" stroke="midnightblue" d="M69.41,-779.54C53.61,-678.19 27.51,-438.08 97,-255 103.44,-238.03 113.92,-221.83 125.36,-207.53"/>
<polygon fill="none" stroke="midnightblue" points="65.97,-780.16 71,-789.48 72.88,-779.05 65.97,-780.16"/>
</g>
<!-- Node7&#45;&gt;Node8 -->
<g id="edge10" class="edge">
<title>Node7&#45;&gt;Node8</title>
<path fill="none" stroke="midnightblue" d="M90.72,-779.74C110.59,-704.38 148.78,-559.52 168.88,-483.25"/>
<polygon fill="none" stroke="midnightblue" points="87.33,-778.89 88.16,-789.46 94.09,-780.68 87.33,-778.89"/>
</g>
<!-- Node8&#45;&gt;Node2 -->
<g id="edge8" class="edge">
<title>Node8&#45;&gt;Node2</title>
<path fill="none" stroke="orange" d="M182,-371.88C182,-323.29 182,-255.2 182,-207.81"/>
<polygon fill="orange" stroke="orange" points="178.5,-371.94 182,-381.94 185.5,-371.94 178.5,-371.94"/>
<text text-anchor="middle" x="259.5" y="-229" font-family="Helvetica,sans-Serif" font-size="10.00"> &lt; Core::Geometry::LineMesh &gt;</text>
</g>
</g>
</svg>
