<?xml version="1.0" encoding="UTF-8" standalone="no"?>
<!DOCTYPE svg PUBLIC "-//W3C//DTD SVG 1.1//EN"
 "http://www.w3.org/Graphics/SVG/1.1/DTD/svg11.dtd">
<!-- Generated by graphviz version 2.40.1 (20161225.0304)
 -->
<!-- Title: Ra::Engine::VolumetricMaterial::updateGL Pages: 1 -->
<svg width="375pt" height="186pt"
 viewBox="0.00 0.00 375.00 186.00" xmlns="http://www.w3.org/2000/svg" xmlns:xlink="http://www.w3.org/1999/xlink">
<g id="graph0" class="graph" transform="scale(1 1) rotate(0) translate(4 182)">
<title>Ra::Engine::VolumetricMaterial::updateGL</title>
<polygon fill="#ffffff" stroke="transparent" points="-4,4 -4,-182 371,-182 371,4 -4,4"/>
<!-- Node16 -->
<g id="node1" class="node">
<title>Node16</title>
<polygon fill="#bfbfbf" stroke="#000000" points="0,-73.5 0,-103.5 167,-103.5 167,-73.5 0,-73.5"/>
<text text-anchor="start" x="8" y="-91.5" font-family="Helvetica,sans-Serif" font-size="10.00" fill="#000000">Ra::Engine::VolumetricMaterial</text>
<text text-anchor="middle" x="83.5" y="-80.5" font-family="Helvetica,sans-Serif" font-size="10.00" fill="#000000">::updateGL</text>
</g>
<!-- Node17 -->
<g id="node2" class="node">
<title>Node17</title>
<g id="a_node2"><a xlink:href="classRa_1_1Engine_1_1RenderParameters.html#a4c0efbfc2f10757462c095ca080d1b07" target="_top" xlink:title="Ra::Engine::RenderParameters\l::addParameter">
<polygon fill="#ffffff" stroke="#000000" points="203,-147.5 203,-177.5 367,-177.5 367,-147.5 203,-147.5"/>
<text text-anchor="start" x="211" y="-165.5" font-family="Helvetica,sans-Serif" font-size="10.00" fill="#000000">Ra::Engine::RenderParameters</text>
<text text-anchor="middle" x="285" y="-154.5" font-family="Helvetica,sans-Serif" font-size="10.00" fill="#000000">::addParameter</text>
</a>
</g>
</g>
<!-- Node16&#45;&gt;Node17 -->
<g id="edge1" class="edge">
<title>Node16&#45;&gt;Node17</title>
<path fill="none" stroke="#191970" d="M116.592,-103.5179C140.3657,-114.0174 173.3226,-127.9852 203,-138.5 208.7806,-140.5481 214.8327,-142.5606 220.918,-144.4956"/>
<polygon fill="#191970" stroke="#191970" points="219.8853,-147.8397 230.4736,-147.4666 221.9636,-141.1554 219.8853,-147.8397"/>
</g>
<!-- Node18 -->
<g id="node3" class="node">
<title>Node18</title>
<g id="a_node3"><a xlink:href="classRa_1_1Engine_1_1Texture.html#a92e91423bf41fc81ec2abe314baf7790" target="_top" xlink:title="Ra::Engine::Texture\l::width">
<polygon fill="#ffffff" stroke="#000000" points="230,-98.5 230,-128.5 340,-128.5 340,-98.5 230,-98.5"/>
<text text-anchor="start" x="238" y="-116.5" font-family="Helvetica,sans-Serif" font-size="10.00" fill="#000000">Ra::Engine::Texture</text>
<text text-anchor="middle" x="285" y="-105.5" font-family="Helvetica,sans-Serif" font-size="10.00" fill="#000000">::width</text>
</a>
</g>
</g>
<!-- Node16&#45;&gt;Node18 -->
<g id="edge2" class="edge">
<title>Node16&#45;&gt;Node18</title>
<path fill="none" stroke="#191970" d="M167.2036,-98.8851C184.7542,-101.0626 203.0157,-103.3282 219.7734,-105.4074"/>
<polygon fill="#191970" stroke="#191970" points="219.6385,-108.9174 229.9933,-106.6754 220.5004,-101.9706 219.6385,-108.9174"/>
</g>
<!-- Node19 -->
<g id="node4" class="node">
<title>Node19</title>
<g id="a_node4"><a xlink:href="classRa_1_1Engine_1_1Texture.html#a89e0e99f44bc5a286c0174889ad515d8" target="_top" xlink:title="Ra::Engine::Texture\l::height">
<polygon fill="#ffffff" stroke="#000000" points="230,-49.5 230,-79.5 340,-79.5 340,-49.5 230,-49.5"/>
<text text-anchor="start" x="238" y="-67.5" font-family="Helvetica,sans-Serif" font-size="10.00" fill="#000000">Ra::Engine::Texture</text>
<text text-anchor="middle" x="285" y="-56.5" font-family="Helvetica,sans-Serif" font-size="10.00" fill="#000000">::height</text>
</a>
</g>
</g>
<!-- Node16&#45;&gt;Node19 -->
<g id="edge3" class="edge">
<title>Node16&#45;&gt;Node19</title>
<path fill="none" stroke="#191970" d="M167.2036,-78.5303C184.7542,-76.4399 203.0157,-74.2649 219.7734,-72.2689"/>
<polygon fill="#191970" stroke="#191970" points="220.4775,-75.7099 229.9933,-71.0517 219.6495,-68.759 220.4775,-75.7099"/>
</g>
<!-- Node20 -->
<g id="node5" class="node">
<title>Node20</title>
<g id="a_node5"><a xlink:href="classRa_1_1Engine_1_1Texture.html#a2a345793bfe95852cba88dcd4b046979" target="_top" xlink:title="Ra::Engine::Texture\l::depth">
<polygon fill="#ffffff" stroke="#000000" points="230,-.5 230,-30.5 340,-30.5 340,-.5 230,-.5"/>
<text text-anchor="start" x="238" y="-18.5" font-family="Helvetica,sans-Serif" font-size="10.00" fill="#000000">Ra::Engine::Texture</text>
<text text-anchor="middle" x="285" y="-7.5" font-family="Helvetica,sans-Serif" font-size="10.00" fill="#000000">::depth</text>
</a>
</g>
</g>
<!-- Node16&#45;&gt;Node20 -->
<g id="edge4" class="edge">
<title>Node16&#45;&gt;Node20</title>
<path fill="none" stroke="#191970" d="M118.7528,-73.4111C142.3897,-63.5247 174.3235,-50.6097 203,-40.5 209.5072,-38.206 216.3466,-35.9229 223.1847,-33.7222"/>
<polygon fill="#191970" stroke="#191970" points="224.685,-36.9185 233.1634,-30.5649 222.5734,-30.2446 224.685,-36.9185"/>
</g>
</g>
</svg>
