<?xml version="1.0" encoding="UTF-8" standalone="no"?>
<!DOCTYPE svg PUBLIC "-//W3C//DTD SVG 1.1//EN"
 "http://www.w3.org/Graphics/SVG/1.1/DTD/svg11.dtd">
<!-- Generated by graphviz version 2.40.1 (20161225.0304)
 -->
<!-- Title: Ra::Core::Grid::Iterator::Iterator Pages: 1 -->
<svg width="310pt" height="176pt"
 viewBox="0.00 0.00 310.00 176.00" xmlns="http://www.w3.org/2000/svg" xmlns:xlink="http://www.w3.org/1999/xlink">
<g id="graph0" class="graph" transform="scale(1 1) rotate(0) translate(4 172)">
<title>Ra::Core::Grid::Iterator::Iterator</title>
<polygon fill="#ffffff" stroke="transparent" points="-4,4 -4,-172 306,-172 306,4 -4,4"/>
<!-- Node2 -->
<g id="node1" class="node">
<title>Node2</title>
<polygon fill="#bfbfbf" stroke="#000000" points="0,-66.5 0,-96.5 126,-96.5 126,-66.5 0,-66.5"/>
<text text-anchor="start" x="8" y="-84.5" font-family="Helvetica,sans-Serif" font-size="10.00" fill="#000000">Ra::Core::Grid::Iterator</text>
<text text-anchor="middle" x="63" y="-73.5" font-family="Helvetica,sans-Serif" font-size="10.00" fill="#000000">::Iterator</text>
</g>
<!-- Node3 -->
<g id="node2" class="node">
<title>Node3</title>
<g id="a_node2"><a xlink:href="classRa_1_1Core_1_1Grid_1_1Iterator.html#a250062d7204bf6ef70867dec136906ee" target="_top" xlink:title="Set an existing iterator to a linear index value. ">
<polygon fill="#ffffff" stroke="#000000" points="169,-137.5 169,-167.5 295,-167.5 295,-137.5 169,-137.5"/>
<text text-anchor="start" x="177" y="-155.5" font-family="Helvetica,sans-Serif" font-size="10.00" fill="#000000">Ra::Core::Grid::Iterator</text>
<text text-anchor="middle" x="232" y="-144.5" font-family="Helvetica,sans-Serif" font-size="10.00" fill="#000000">::setFromLinear</text>
</a>
</g>
</g>
<!-- Node2&#45;&gt;Node3 -->
<g id="edge1" class="edge">
<title>Node2&#45;&gt;Node3</title>
<path fill="none" stroke="#191970" d="M92.5006,-96.5809C111.982,-106.2711 138.2121,-118.8116 162,-128.5 166.6403,-130.3899 171.4914,-132.261 176.3813,-134.0752"/>
<polygon fill="#191970" stroke="#191970" points="175.1934,-137.3674 185.7876,-137.4836 177.5782,-130.7861 175.1934,-137.3674"/>
</g>
<!-- Node4 -->
<g id="node3" class="node">
<title>Node4</title>
<g id="a_node3"><a xlink:href="classRa_1_1Core_1_1Grid_1_1Iterator.html#ab83d2a531ca68a242f6fd06d7a77235e" target="_top" xlink:title="Constructor from size and linear index. ">
<polygon fill="#ffffff" stroke="#000000" points="169,-88.5 169,-118.5 295,-118.5 295,-88.5 169,-88.5"/>
<text text-anchor="start" x="177" y="-106.5" font-family="Helvetica,sans-Serif" font-size="10.00" fill="#000000">Ra::Core::Grid::Iterator</text>
<text text-anchor="middle" x="232" y="-95.5" font-family="Helvetica,sans-Serif" font-size="10.00" fill="#000000">::Iterator</text>
</a>
</g>
</g>
<!-- Node2&#45;&gt;Node4 -->
<g id="edge2" class="edge">
<title>Node2&#45;&gt;Node4</title>
<path fill="none" stroke="#191970" d="M126.4102,-89.7546C136.9149,-91.1221 147.8841,-92.55 158.6102,-93.9463"/>
<polygon fill="#191970" stroke="#191970" points="158.4283,-97.4521 168.7965,-95.2723 159.332,-90.5106 158.4283,-97.4521"/>
</g>
<!-- Node5 -->
<g id="node4" class="node">
<title>Node5</title>
<g id="a_node4"><a xlink:href="classRa_1_1Core_1_1Grid.html#a5caa83769b59f497ce4acaf029ecd5c0" target="_top" xlink:title="Returns the size vector (a D&#45;dimensional vector with the size along each dimension). ">
<polygon fill="#ffffff" stroke="#000000" points="162,-50 162,-69 302,-69 302,-50 162,-50"/>
<text text-anchor="middle" x="232" y="-57" font-family="Helvetica,sans-Serif" font-size="10.00" fill="#000000">Ra::Core::Grid::sizeVector</text>
</a>
</g>
</g>
<!-- Node2&#45;&gt;Node5 -->
<g id="edge3" class="edge">
<title>Node2&#45;&gt;Node5</title>
<path fill="none" stroke="#191970" d="M126.4102,-73.2454C134.7577,-72.1588 143.3986,-71.0339 151.9778,-69.9171"/>
<polygon fill="#191970" stroke="#191970" points="152.5348,-73.3742 161.9993,-68.6125 151.6311,-66.4328 152.5348,-73.3742"/>
</g>
<!-- Node6 -->
<g id="node5" class="node">
<title>Node6</title>
<g id="a_node5"><a xlink:href="classRa_1_1Core_1_1Grid_1_1Iterator.html#a57348c88771de4c988b0f0eabbc8238b" target="_top" xlink:title="Set an existing iterator to a vector index value. ">
<polygon fill="#ffffff" stroke="#000000" points="169,-.5 169,-30.5 295,-30.5 295,-.5 169,-.5"/>
<text text-anchor="start" x="177" y="-18.5" font-family="Helvetica,sans-Serif" font-size="10.00" fill="#000000">Ra::Core::Grid::Iterator</text>
<text text-anchor="middle" x="232" y="-7.5" font-family="Helvetica,sans-Serif" font-size="10.00" fill="#000000">::setFromVector</text>
</a>
</g>
</g>
<!-- Node2&#45;&gt;Node6 -->
<g id="edge4" class="edge">
<title>Node2&#45;&gt;Node6</title>
<path fill="none" stroke="#191970" d="M98.11,-66.4621C116.9605,-58.5144 140.6487,-48.7281 162,-40.5 167.5541,-38.3596 173.3792,-36.179 179.1973,-34.042"/>
<polygon fill="#191970" stroke="#191970" points="180.7313,-37.2085 188.9332,-30.5017 178.3391,-30.6299 180.7313,-37.2085"/>
</g>
</g>
</svg>
