<?xml version="1.0" encoding="UTF-8" standalone="no"?>
<!DOCTYPE svg PUBLIC "-//W3C//DTD SVG 1.1//EN"
 "http://www.w3.org/Graphics/SVG/1.1/DTD/svg11.dtd">
<!-- Generated by graphviz version 2.40.1 (20161225.0304)
 -->
<!-- Title: Ra::IO::AssimpGeometryDataLoader::sceneHasGeometry Pages: 1 -->
<svg width="364pt" height="39pt"
 viewBox="0.00 0.00 364.00 39.00" xmlns="http://www.w3.org/2000/svg" xmlns:xlink="http://www.w3.org/1999/xlink">
<g id="graph0" class="graph" transform="scale(1 1) rotate(0) translate(4 35)">
<title>Ra::IO::AssimpGeometryDataLoader::sceneHasGeometry</title>
<polygon fill="#ffffff" stroke="transparent" points="-4,4 -4,-35 360,-35 360,4 -4,4"/>
<!-- Node120 -->
<g id="node1" class="node">
<title>Node120</title>
<polygon fill="#bfbfbf" stroke="#000000" points="0,-.5 0,-30.5 160,-30.5 160,-.5 0,-.5"/>
<text text-anchor="start" x="8" y="-18.5" font-family="Helvetica,sans-Serif" font-size="10.00" fill="#000000">Ra::IO::AssimpGeometryData</text>
<text text-anchor="middle" x="80" y="-7.5" font-family="Helvetica,sans-Serif" font-size="10.00" fill="#000000">Loader::sceneHasGeometry</text>
</g>
<!-- Node121 -->
<g id="node2" class="node">
<title>Node121</title>
<g id="a_node2"><a xlink:href="classRa_1_1IO_1_1AssimpGeometryDataLoader.html#a5d494bbdf71dd227648375b2c59d74a8" target="_top" xlink:title="Return the number of AssImp geometry data in the given scene. ">
<polygon fill="#ffffff" stroke="#000000" points="196,-.5 196,-30.5 356,-30.5 356,-.5 196,-.5"/>
<text text-anchor="start" x="204" y="-18.5" font-family="Helvetica,sans-Serif" font-size="10.00" fill="#000000">Ra::IO::AssimpGeometryData</text>
<text text-anchor="middle" x="276" y="-7.5" font-family="Helvetica,sans-Serif" font-size="10.00" fill="#000000">Loader::sceneGeometrySize</text>
</a>
</g>
</g>
<!-- Node120&#45;&gt;Node121 -->
<g id="edge1" class="edge">
<title>Node120&#45;&gt;Node121</title>
<path fill="none" stroke="#191970" d="M160.0034,-15.5C168.5245,-15.5 177.2335,-15.5 185.8608,-15.5"/>
<polygon fill="#191970" stroke="#191970" points="185.9348,-19.0001 195.9347,-15.5 185.9347,-12.0001 185.9348,-19.0001"/>
</g>
</g>
</svg>
