<?xml version="1.0" encoding="UTF-8" standalone="no"?>
<!DOCTYPE svg PUBLIC "-//W3C//DTD SVG 1.1//EN"
 "http://www.w3.org/Graphics/SVG/1.1/DTD/svg11.dtd">
<!-- Generated by graphviz version 2.43.0 (0)
 -->
<!-- Title: Ra::Engine::Scene::SkinningComponent Pages: 1 -->
<svg width="596pt" height="1791pt"
 viewBox="0.00 0.00 595.50 1791.00" xmlns="http://www.w3.org/2000/svg" xmlns:xlink="http://www.w3.org/1999/xlink">
<g id="graph0" class="graph" transform="scale(1 1) rotate(0) translate(4 1787)">
<title>Ra::Engine::Scene::SkinningComponent</title>
<polygon fill="white" stroke="transparent" points="-4,4 -4,-1787 591.5,-1787 591.5,4 -4,4"/>
<!-- Node1 -->
<g id="node1" class="node">
<title>Node1</title>
<g id="a_node1"><a xlink:title="The SkinningComponent class is responsible for applying Geometric Skinning Methods on an animated obj...">
<polygon fill="#bfbfbf" stroke="black" points="232,-0.5 232,-453.5 383,-453.5 383,-0.5 232,-0.5"/>
<text text-anchor="start" x="240" y="-441.5" font-family="Helvetica,sans-Serif" font-size="10.00">Ra::Engine::Scene::</text>
<text text-anchor="middle" x="307.5" y="-430.5" font-family="Helvetica,sans-Serif" font-size="10.00">SkinningComponent</text>
<polyline fill="none" stroke="black" points="232,-423.5 383,-423.5 "/>
<text text-anchor="middle" x="307.5" y="-411.5" font-family="Helvetica,sans-Serif" font-size="10.00"> </text>
<polyline fill="none" stroke="black" points="232,-404.5 383,-404.5 "/>
<text text-anchor="start" x="240" y="-392.5" font-family="Helvetica,sans-Serif" font-size="10.00">+ SkinningComponent()</text>
<text text-anchor="start" x="240" y="-381.5" font-family="Helvetica,sans-Serif" font-size="10.00">+ ~SkinningComponent()</text>
<text text-anchor="start" x="240" y="-370.5" font-family="Helvetica,sans-Serif" font-size="10.00">+ initialize()</text>
<text text-anchor="start" x="240" y="-359.5" font-family="Helvetica,sans-Serif" font-size="10.00">+ handleSkinDataLoading()</text>
<text text-anchor="start" x="240" y="-348.5" font-family="Helvetica,sans-Serif" font-size="10.00">+ skin()</text>
<text text-anchor="start" x="240" y="-337.5" font-family="Helvetica,sans-Serif" font-size="10.00">+ endSkinning()</text>
<text text-anchor="start" x="240" y="-326.5" font-family="Helvetica,sans-Serif" font-size="10.00">+ setSkinningType()</text>
<text text-anchor="start" x="240" y="-315.5" font-family="Helvetica,sans-Serif" font-size="10.00">+ getSkinningType()</text>
<text text-anchor="start" x="240" y="-304.5" font-family="Helvetica,sans-Serif" font-size="10.00">+ setNormalSkinning()</text>
<text text-anchor="start" x="240" y="-293.5" font-family="Helvetica,sans-Serif" font-size="10.00">+ getNormalSkinning()</text>
<text text-anchor="start" x="240" y="-282.5" font-family="Helvetica,sans-Serif" font-size="10.00">+ getMeshName()</text>
<text text-anchor="start" x="240" y="-271.5" font-family="Helvetica,sans-Serif" font-size="10.00">+ getSkeletonName()</text>
<text text-anchor="start" x="240" y="-260.5" font-family="Helvetica,sans-Serif" font-size="10.00">+ getSkinningRefData()</text>
<text text-anchor="start" x="240" y="-249.5" font-family="Helvetica,sans-Serif" font-size="10.00">+ getSkinningFrameData()</text>
<text text-anchor="start" x="240" y="-238.5" font-family="Helvetica,sans-Serif" font-size="10.00">+ showWeights()</text>
<text text-anchor="start" x="240" y="-227.5" font-family="Helvetica,sans-Serif" font-size="10.00">+ isShowingWeights()</text>
<text text-anchor="start" x="240" y="-216.5" font-family="Helvetica,sans-Serif" font-size="10.00">+ showWeightsType()</text>
<text text-anchor="start" x="240" y="-205.5" font-family="Helvetica,sans-Serif" font-size="10.00">+ getWeightsType()</text>
<text text-anchor="start" x="240" y="-194.5" font-family="Helvetica,sans-Serif" font-size="10.00">+ setWeightBone()</text>
<text text-anchor="start" x="240" y="-183.5" font-family="Helvetica,sans-Serif" font-size="10.00">* initialize()</text>
<text text-anchor="start" x="240" y="-172.5" font-family="Helvetica,sans-Serif" font-size="10.00">* handleSkinDataLoading()</text>
<text text-anchor="start" x="240" y="-161.5" font-family="Helvetica,sans-Serif" font-size="10.00">* skin()</text>
<text text-anchor="start" x="240" y="-150.5" font-family="Helvetica,sans-Serif" font-size="10.00">* endSkinning()</text>
<text text-anchor="start" x="240" y="-139.5" font-family="Helvetica,sans-Serif" font-size="10.00">* setSkinningType()</text>
<text text-anchor="start" x="240" y="-128.5" font-family="Helvetica,sans-Serif" font-size="10.00">* getSkinningType()</text>
<text text-anchor="start" x="240" y="-117.5" font-family="Helvetica,sans-Serif" font-size="10.00">* setNormalSkinning()</text>
<text text-anchor="start" x="240" y="-106.5" font-family="Helvetica,sans-Serif" font-size="10.00">* getNormalSkinning()</text>
<text text-anchor="start" x="240" y="-95.5" font-family="Helvetica,sans-Serif" font-size="10.00">* getMeshName()</text>
<text text-anchor="start" x="240" y="-84.5" font-family="Helvetica,sans-Serif" font-size="10.00">* getSkeletonName()</text>
<text text-anchor="start" x="240" y="-73.5" font-family="Helvetica,sans-Serif" font-size="10.00">* getSkinningRefData()</text>
<text text-anchor="start" x="240" y="-62.5" font-family="Helvetica,sans-Serif" font-size="10.00">* getSkinningFrameData()</text>
<text text-anchor="start" x="240" y="-51.5" font-family="Helvetica,sans-Serif" font-size="10.00">* showWeights()</text>
<text text-anchor="start" x="240" y="-40.5" font-family="Helvetica,sans-Serif" font-size="10.00">* isShowingWeights()</text>
<text text-anchor="start" x="240" y="-29.5" font-family="Helvetica,sans-Serif" font-size="10.00">* showWeightsType()</text>
<text text-anchor="start" x="240" y="-18.5" font-family="Helvetica,sans-Serif" font-size="10.00">* getWeightsType()</text>
<text text-anchor="start" x="240" y="-7.5" font-family="Helvetica,sans-Serif" font-size="10.00">* setWeightBone()</text>
</a>
</g>
</g>
<!-- Node2 -->
<g id="node2" class="node">
<title>Node2</title>
<g id="a_node2"><a xlink:href="classRa_1_1Engine_1_1Scene_1_1Component.html" target="_top" xlink:title="A component is an element that can be updated by a system. It is also linked to some other components...">
<polygon fill="white" stroke="black" points="224.5,-491.5 224.5,-746.5 390.5,-746.5 390.5,-491.5 224.5,-491.5"/>
<text text-anchor="start" x="232.5" y="-734.5" font-family="Helvetica,sans-Serif" font-size="10.00">Ra::Engine::Scene::</text>
<text text-anchor="middle" x="307.5" y="-723.5" font-family="Helvetica,sans-Serif" font-size="10.00">Component</text>
<polyline fill="none" stroke="black" points="224.5,-716.5 390.5,-716.5 "/>
<text text-anchor="middle" x="307.5" y="-704.5" font-family="Helvetica,sans-Serif" font-size="10.00"> </text>
<polyline fill="none" stroke="black" points="224.5,-697.5 390.5,-697.5 "/>
<text text-anchor="start" x="232.5" y="-685.5" font-family="Helvetica,sans-Serif" font-size="10.00">+ Component()</text>
<text text-anchor="start" x="232.5" y="-674.5" font-family="Helvetica,sans-Serif" font-size="10.00">+ ~Component()</text>
<text text-anchor="start" x="232.5" y="-663.5" font-family="Helvetica,sans-Serif" font-size="10.00">+ initialize()</text>
<text text-anchor="start" x="232.5" y="-652.5" font-family="Helvetica,sans-Serif" font-size="10.00">+ setEntity()</text>
<text text-anchor="start" x="232.5" y="-641.5" font-family="Helvetica,sans-Serif" font-size="10.00">+ getEntity()</text>
<text text-anchor="start" x="232.5" y="-630.5" font-family="Helvetica,sans-Serif" font-size="10.00">+ getName()</text>
<text text-anchor="start" x="232.5" y="-619.5" font-family="Helvetica,sans-Serif" font-size="10.00">+ setSystem()</text>
<text text-anchor="start" x="232.5" y="-608.5" font-family="Helvetica,sans-Serif" font-size="10.00">+ getSystem()</text>
<text text-anchor="start" x="232.5" y="-597.5" font-family="Helvetica,sans-Serif" font-size="10.00">+ addRenderObject()</text>
<text text-anchor="start" x="232.5" y="-586.5" font-family="Helvetica,sans-Serif" font-size="10.00">+ removeRenderObject()</text>
<text text-anchor="start" x="232.5" y="-575.5" font-family="Helvetica,sans-Serif" font-size="10.00">+ canEdit()</text>
<text text-anchor="start" x="232.5" y="-564.5" font-family="Helvetica,sans-Serif" font-size="10.00">+ getTransform()</text>
<text text-anchor="start" x="232.5" y="-553.5" font-family="Helvetica,sans-Serif" font-size="10.00">+ setTransform()</text>
<text text-anchor="start" x="232.5" y="-542.5" font-family="Helvetica,sans-Serif" font-size="10.00">+ notifyRenderObjectExpired()</text>
<text text-anchor="start" x="232.5" y="-531.5" font-family="Helvetica,sans-Serif" font-size="10.00">+ computeAabb()</text>
<text text-anchor="start" x="232.5" y="-520.5" font-family="Helvetica,sans-Serif" font-size="10.00">+ invalidateAabb()</text>
<text text-anchor="start" x="232.5" y="-509.5" font-family="Helvetica,sans-Serif" font-size="10.00">+ getRenderObjects()</text>
<text text-anchor="start" x="232.5" y="-498.5" font-family="Helvetica,sans-Serif" font-size="10.00"># getRoMgr()</text>
</a>
</g>
</g>
<!-- Node2&#45;&gt;Node1 -->
<g id="edge1" class="edge">
<title>Node2&#45;&gt;Node1</title>
<path fill="none" stroke="midnightblue" d="M307.5,-481.26C307.5,-472.22 307.5,-462.99 307.5,-453.68"/>
<polygon fill="none" stroke="midnightblue" points="304,-481.38 307.5,-491.38 311,-481.38 304,-481.38"/>
</g>
<!-- Node3 -->
<g id="node3" class="node">
<title>Node3</title>
<g id="a_node3"><a xlink:href="classRa_1_1Engine_1_1Scene_1_1System.html" target="_top" xlink:title=" ">
<polygon fill="white" stroke="black" points="33,-849.5 33,-1005.5 192,-1005.5 192,-849.5 33,-849.5"/>
<text text-anchor="start" x="41" y="-993.5" font-family="Helvetica,sans-Serif" font-size="10.00">Ra::Engine::Scene::</text>
<text text-anchor="middle" x="112.5" y="-982.5" font-family="Helvetica,sans-Serif" font-size="10.00">System</text>
<polyline fill="none" stroke="black" points="33,-975.5 192,-975.5 "/>
<text text-anchor="middle" x="112.5" y="-963.5" font-family="Helvetica,sans-Serif" font-size="10.00"> </text>
<polyline fill="none" stroke="black" points="33,-956.5 192,-956.5 "/>
<text text-anchor="start" x="41" y="-944.5" font-family="Helvetica,sans-Serif" font-size="10.00">+ System()</text>
<text text-anchor="start" x="41" y="-933.5" font-family="Helvetica,sans-Serif" font-size="10.00">+ ~System()</text>
<text text-anchor="start" x="41" y="-922.5" font-family="Helvetica,sans-Serif" font-size="10.00">+ handleAssetLoading()</text>
<text text-anchor="start" x="41" y="-911.5" font-family="Helvetica,sans-Serif" font-size="10.00">+ generateTasks()</text>
<text text-anchor="start" x="41" y="-900.5" font-family="Helvetica,sans-Serif" font-size="10.00">+ getEntityComponents()</text>
<text text-anchor="start" x="41" y="-889.5" font-family="Helvetica,sans-Serif" font-size="10.00">+ addComponent()</text>
<text text-anchor="start" x="41" y="-878.5" font-family="Helvetica,sans-Serif" font-size="10.00"># registerComponent()</text>
<text text-anchor="start" x="41" y="-867.5" font-family="Helvetica,sans-Serif" font-size="10.00"># unregisterComponent()</text>
<text text-anchor="start" x="41" y="-856.5" font-family="Helvetica,sans-Serif" font-size="10.00"># unregisterAllComponents()</text>
</a>
</g>
</g>
<!-- Node3&#45;&gt;Node2 -->
<g id="edge2" class="edge">
<title>Node3&#45;&gt;Node2</title>
<path fill="none" stroke="#404040" d="M153.03,-849.42C167.91,-822.32 185.33,-791.93 202.5,-765 207.32,-757.44 212.39,-749.74 217.59,-742.03"/>
<polygon fill="none" stroke="#404040" points="217.73,-741.82 217.8,-734.6 224.49,-731.9 224.42,-739.11 217.73,-741.82"/>
<text text-anchor="middle" x="234" y="-768" font-family="Helvetica,sans-Serif" font-size="10.00"> #m_system</text>
</g>
<!-- Node4 -->
<g id="node4" class="node">
<title>Node4</title>
<g id="a_node4"><a xlink:title=" ">
<polygon fill="white" stroke="#bfbfbf" points="24.5,-1119.5 24.5,-1209.5 176.5,-1209.5 176.5,-1119.5 24.5,-1119.5"/>
<text text-anchor="start" x="32.5" y="-1197.5" font-family="Helvetica,sans-Serif" font-size="10.00">std::vector&lt; std::pair</text>
<text text-anchor="start" x="32.5" y="-1186.5" font-family="Helvetica,sans-Serif" font-size="10.00">&lt; const Ra::Engine::Scene</text>
<text text-anchor="start" x="32.5" y="-1175.5" font-family="Helvetica,sans-Serif" font-size="10.00">::Entity *, Ra::Engine::Scene</text>
<text text-anchor="middle" x="100.5" y="-1164.5" font-family="Helvetica,sans-Serif" font-size="10.00">::Component * &gt; &gt;</text>
<polyline fill="none" stroke="#bfbfbf" points="24.5,-1157.5 176.5,-1157.5 "/>
<text text-anchor="middle" x="100.5" y="-1145.5" font-family="Helvetica,sans-Serif" font-size="10.00"> </text>
<polyline fill="none" stroke="#bfbfbf" points="24.5,-1138.5 176.5,-1138.5 "/>
<text text-anchor="middle" x="100.5" y="-1126.5" font-family="Helvetica,sans-Serif" font-size="10.00"> </text>
</a>
</g>
</g>
<!-- Node4&#45;&gt;Node3 -->
<g id="edge3" class="edge">
<title>Node4&#45;&gt;Node3</title>
<path fill="none" stroke="#404040" d="M102.76,-1119.3C104.21,-1090.75 106.16,-1052.6 107.93,-1017.92"/>
<polygon fill="none" stroke="#404040" points="107.94,-1017.8 104.25,-1011.6 108.55,-1005.81 112.24,-1012.01 107.94,-1017.8"/>
<text text-anchor="middle" x="149" y="-1082" font-family="Helvetica,sans-Serif" font-size="10.00"> #m_components</text>
</g>
<!-- Node5 -->
<g id="node5" class="node">
<title>Node5</title>
<g id="a_node5"><a xlink:title=" ">
<polygon fill="white" stroke="#bfbfbf" points="0,-1450 0,-1529 173,-1529 173,-1450 0,-1450"/>
<text text-anchor="start" x="8" y="-1517" font-family="Helvetica,sans-Serif" font-size="10.00">pair&lt; const Ra::Engine</text>
<text text-anchor="start" x="8" y="-1506" font-family="Helvetica,sans-Serif" font-size="10.00">::Scene::Entity *, Ra</text>
<text text-anchor="middle" x="86.5" y="-1495" font-family="Helvetica,sans-Serif" font-size="10.00">::Engine::Scene::Component * &gt;</text>
<polyline fill="none" stroke="#bfbfbf" points="0,-1488 173,-1488 "/>
<text text-anchor="middle" x="86.5" y="-1476" font-family="Helvetica,sans-Serif" font-size="10.00"> </text>
<polyline fill="none" stroke="#bfbfbf" points="0,-1469 173,-1469 "/>
<text text-anchor="middle" x="86.5" y="-1457" font-family="Helvetica,sans-Serif" font-size="10.00"> </text>
</a>
</g>
</g>
<!-- Node5&#45;&gt;Node4 -->
<g id="edge4" class="edge">
<title>Node5&#45;&gt;Node4</title>
<path fill="none" stroke="#404040" d="M88.17,-1449.86C90.63,-1393.15 95.23,-1287.04 98.06,-1221.7"/>
<polygon fill="none" stroke="#404040" points="98.07,-1221.59 94.33,-1215.42 98.59,-1209.6 102.32,-1215.77 98.07,-1221.59"/>
<text text-anchor="middle" x="126.5" y="-1258.5" font-family="Helvetica,sans-Serif" font-size="10.00"> +elements</text>
</g>
<!-- Node6 -->
<g id="node6" class="node">
<title>Node6</title>
<g id="a_node6"><a xlink:title="STL class.">
<polygon fill="white" stroke="#bfbfbf" points="191,-1461 191,-1518 288,-1518 288,-1461 191,-1461"/>
<text text-anchor="middle" x="239.5" y="-1506" font-family="Helvetica,sans-Serif" font-size="10.00">std::vector&lt; T &gt;</text>
<polyline fill="none" stroke="#bfbfbf" points="191,-1499 288,-1499 "/>
<text text-anchor="middle" x="239.5" y="-1487" font-family="Helvetica,sans-Serif" font-size="10.00"> </text>
<polyline fill="none" stroke="#bfbfbf" points="191,-1480 288,-1480 "/>
<text text-anchor="middle" x="239.5" y="-1468" font-family="Helvetica,sans-Serif" font-size="10.00"> </text>
</a>
</g>
</g>
<!-- Node6&#45;&gt;Node4 -->
<g id="edge5" class="edge">
<title>Node6&#45;&gt;Node4</title>
<path fill="none" stroke="orange" d="M232.35,-1451.02C221.65,-1400.51 198.47,-1308.88 159.5,-1239 153.92,-1229 146.98,-1218.97 139.84,-1209.68"/>
<polygon fill="orange" stroke="orange" points="228.93,-1451.77 234.38,-1460.85 235.78,-1450.35 228.93,-1451.77"/>
<text text-anchor="start" x="178.5" y="-1275" font-family="Helvetica,sans-Serif" font-size="10.00"> &lt; std::pair&lt; const</text>
<text text-anchor="start" x="178.5" y="-1264" font-family="Helvetica,sans-Serif" font-size="10.00"> Ra::Engine::Scene::</text>
<text text-anchor="start" x="178.5" y="-1253" font-family="Helvetica,sans-Serif" font-size="10.00">Entity *, Ra::Engine</text>
<text text-anchor="middle" x="243" y="-1242" font-family="Helvetica,sans-Serif" font-size="10.00">::Scene::Component * &gt; &gt;</text>
</g>
<!-- Node7 -->
<g id="node7" class="node">
<title>Node7</title>
<g id="a_node7"><a xlink:title=" ">
<polygon fill="white" stroke="#bfbfbf" points="225,-1725.5 225,-1782.5 254,-1782.5 254,-1725.5 225,-1725.5"/>
<text text-anchor="middle" x="239.5" y="-1770.5" font-family="Helvetica,sans-Serif" font-size="10.00">T</text>
<polyline fill="none" stroke="#bfbfbf" points="225,-1763.5 254,-1763.5 "/>
<text text-anchor="middle" x="239.5" y="-1751.5" font-family="Helvetica,sans-Serif" font-size="10.00"> </text>
<polyline fill="none" stroke="#bfbfbf" points="225,-1744.5 254,-1744.5 "/>
<text text-anchor="middle" x="239.5" y="-1732.5" font-family="Helvetica,sans-Serif" font-size="10.00"> </text>
</a>
</g>
</g>
<!-- Node7&#45;&gt;Node6 -->
<g id="edge6" class="edge">
<title>Node7&#45;&gt;Node6</title>
<path fill="none" stroke="#404040" d="M239.5,-1725.4C239.5,-1678.73 239.5,-1584.04 239.5,-1530.23"/>
<polygon fill="none" stroke="#404040" points="239.5,-1530.12 235.5,-1524.12 239.5,-1518.12 243.5,-1524.12 239.5,-1530.12"/>
<text text-anchor="middle" x="268.5" y="-1699" font-family="Helvetica,sans-Serif" font-size="10.00"> +elements</text>
</g>
<!-- Node8 -->
<g id="node8" class="node">
<title>Node8</title>
<g id="a_node8"><a xlink:title="STL class.">
<polygon fill="white" stroke="#bfbfbf" points="214,-899 214,-956 279,-956 279,-899 214,-899"/>
<text text-anchor="middle" x="246.5" y="-944" font-family="Helvetica,sans-Serif" font-size="10.00">std::string</text>
<polyline fill="none" stroke="#bfbfbf" points="214,-937 279,-937 "/>
<text text-anchor="middle" x="246.5" y="-925" font-family="Helvetica,sans-Serif" font-size="10.00"> </text>
<polyline fill="none" stroke="#bfbfbf" points="214,-918 279,-918 "/>
<text text-anchor="middle" x="246.5" y="-906" font-family="Helvetica,sans-Serif" font-size="10.00"> </text>
</a>
</g>
</g>
<!-- Node8&#45;&gt;Node2 -->
<g id="edge7" class="edge">
<title>Node8&#45;&gt;Node2</title>
<path fill="none" stroke="#404040" d="M249.73,-898.92C253.7,-866.65 261.1,-811.68 270.5,-765 270.93,-762.85 271.38,-760.68 271.83,-758.5"/>
<polygon fill="none" stroke="#404040" points="271.84,-758.48 269.19,-751.77 274.36,-746.75 277.01,-753.45 271.84,-758.48"/>
<text text-anchor="middle" x="298" y="-768" font-family="Helvetica,sans-Serif" font-size="10.00"> #m_name</text>
</g>
<!-- Node9 -->
<g id="node9" class="node">
<title>Node9</title>
<g id="a_node9"><a xlink:title="STL class.">
<polygon fill="white" stroke="#bfbfbf" points="194.5,-1130.5 194.5,-1198.5 298.5,-1198.5 298.5,-1130.5 194.5,-1130.5"/>
<text text-anchor="start" x="202.5" y="-1186.5" font-family="Helvetica,sans-Serif" font-size="10.00">std::basic_string&lt;</text>
<text text-anchor="middle" x="246.5" y="-1175.5" font-family="Helvetica,sans-Serif" font-size="10.00"> char &gt;</text>
<polyline fill="none" stroke="#bfbfbf" points="194.5,-1168.5 298.5,-1168.5 "/>
<text text-anchor="middle" x="246.5" y="-1156.5" font-family="Helvetica,sans-Serif" font-size="10.00"> </text>
<polyline fill="none" stroke="#bfbfbf" points="194.5,-1149.5 298.5,-1149.5 "/>
<text text-anchor="middle" x="246.5" y="-1137.5" font-family="Helvetica,sans-Serif" font-size="10.00"> </text>
</a>
</g>
</g>
<!-- Node9&#45;&gt;Node8 -->
<g id="edge8" class="edge">
<title>Node9&#45;&gt;Node8</title>
<path fill="none" stroke="midnightblue" d="M246.5,-1120.25C246.5,-1072.32 246.5,-996.45 246.5,-956.01"/>
<polygon fill="none" stroke="midnightblue" points="243,-1120.33 246.5,-1130.33 250,-1120.33 243,-1120.33"/>
</g>
<!-- Node10 -->
<g id="node10" class="node">
<title>Node10</title>
<g id="a_node10"><a xlink:href="classRa_1_1Engine_1_1Scene_1_1Entity.html" target="_top" xlink:title="An entity is an scene element. It ties together components with a transform.">
<polygon fill="white" stroke="black" points="297.5,-794.5 297.5,-1060.5 441.5,-1060.5 441.5,-794.5 297.5,-794.5"/>
<text text-anchor="start" x="305.5" y="-1048.5" font-family="Helvetica,sans-Serif" font-size="10.00">Ra::Engine::Scene::</text>
<text text-anchor="middle" x="369.5" y="-1037.5" font-family="Helvetica,sans-Serif" font-size="10.00">Entity</text>
<polyline fill="none" stroke="black" points="297.5,-1030.5 441.5,-1030.5 "/>
<text text-anchor="middle" x="369.5" y="-1018.5" font-family="Helvetica,sans-Serif" font-size="10.00"> </text>
<polyline fill="none" stroke="black" points="297.5,-1011.5 441.5,-1011.5 "/>
<text text-anchor="start" x="305.5" y="-999.5" font-family="Helvetica,sans-Serif" font-size="10.00">+ Entity()</text>
<text text-anchor="start" x="305.5" y="-988.5" font-family="Helvetica,sans-Serif" font-size="10.00">+ Entity()</text>
<text text-anchor="start" x="305.5" y="-977.5" font-family="Helvetica,sans-Serif" font-size="10.00">+ operator=()</text>
<text text-anchor="start" x="305.5" y="-966.5" font-family="Helvetica,sans-Serif" font-size="10.00">+ ~Entity()</text>
<text text-anchor="start" x="305.5" y="-955.5" font-family="Helvetica,sans-Serif" font-size="10.00">+ getName()</text>
<text text-anchor="start" x="305.5" y="-944.5" font-family="Helvetica,sans-Serif" font-size="10.00">+ rename()</text>
<text text-anchor="start" x="305.5" y="-933.5" font-family="Helvetica,sans-Serif" font-size="10.00">+ setTransform()</text>
<text text-anchor="start" x="305.5" y="-922.5" font-family="Helvetica,sans-Serif" font-size="10.00">+ setTransform()</text>
<text text-anchor="start" x="305.5" y="-911.5" font-family="Helvetica,sans-Serif" font-size="10.00">+ getTransform()</text>
<text text-anchor="start" x="305.5" y="-900.5" font-family="Helvetica,sans-Serif" font-size="10.00">+ getTransformAsMatrix()</text>
<text text-anchor="start" x="305.5" y="-889.5" font-family="Helvetica,sans-Serif" font-size="10.00">+ swapTransformBuffers()</text>
<text text-anchor="start" x="305.5" y="-878.5" font-family="Helvetica,sans-Serif" font-size="10.00">+ addComponent()</text>
<text text-anchor="start" x="305.5" y="-867.5" font-family="Helvetica,sans-Serif" font-size="10.00">+ removeComponent()</text>
<text text-anchor="start" x="305.5" y="-856.5" font-family="Helvetica,sans-Serif" font-size="10.00">+ getComponent()</text>
<text text-anchor="start" x="305.5" y="-845.5" font-family="Helvetica,sans-Serif" font-size="10.00">+ getComponent()</text>
<text text-anchor="start" x="305.5" y="-834.5" font-family="Helvetica,sans-Serif" font-size="10.00">+ getComponents()</text>
<text text-anchor="start" x="305.5" y="-823.5" font-family="Helvetica,sans-Serif" font-size="10.00">+ getNumComponents()</text>
<text text-anchor="start" x="305.5" y="-812.5" font-family="Helvetica,sans-Serif" font-size="10.00">+ computeAabb()</text>
<text text-anchor="start" x="305.5" y="-801.5" font-family="Helvetica,sans-Serif" font-size="10.00">+ invalidateAabb()</text>
</a>
</g>
</g>
<!-- Node10&#45;&gt;Node2 -->
<g id="edge9" class="edge">
<title>Node10&#45;&gt;Node2</title>
<path fill="none" stroke="#404040" d="M342.76,-794.29C340.37,-782.51 337.95,-770.55 335.56,-758.71"/>
<polygon fill="none" stroke="#404040" points="335.55,-758.68 330.44,-753.59 333.17,-746.92 338.28,-752.01 335.55,-758.68"/>
<text text-anchor="middle" x="366" y="-768" font-family="Helvetica,sans-Serif" font-size="10.00"> #m_entity</text>
</g>
<!-- Node11 -->
<g id="node11" class="node">
<title>Node11</title>
<g id="a_node11"><a xlink:href="classRa_1_1Core_1_1Utils_1_1IndexedObject.html" target="_top" xlink:title=" ">
<polygon fill="white" stroke="black" points="317,-1108.5 317,-1220.5 448,-1220.5 448,-1108.5 317,-1108.5"/>
<text text-anchor="start" x="325" y="-1208.5" font-family="Helvetica,sans-Serif" font-size="10.00">Ra::Core::Utils::Indexed</text>
<text text-anchor="middle" x="382.5" y="-1197.5" font-family="Helvetica,sans-Serif" font-size="10.00">Object</text>
<polyline fill="none" stroke="black" points="317,-1190.5 448,-1190.5 "/>
<text text-anchor="middle" x="382.5" y="-1178.5" font-family="Helvetica,sans-Serif" font-size="10.00"> </text>
<polyline fill="none" stroke="black" points="317,-1171.5 448,-1171.5 "/>
<text text-anchor="start" x="325" y="-1159.5" font-family="Helvetica,sans-Serif" font-size="10.00">+ IndexedObject()</text>
<text text-anchor="start" x="325" y="-1148.5" font-family="Helvetica,sans-Serif" font-size="10.00">+ IndexedObject()</text>
<text text-anchor="start" x="325" y="-1137.5" font-family="Helvetica,sans-Serif" font-size="10.00">+ ~IndexedObject()</text>
<text text-anchor="start" x="325" y="-1126.5" font-family="Helvetica,sans-Serif" font-size="10.00">+ setIndex()</text>
<text text-anchor="start" x="325" y="-1115.5" font-family="Helvetica,sans-Serif" font-size="10.00">+ getIndex()</text>
</a>
</g>
</g>
<!-- Node11&#45;&gt;Node10 -->
<g id="edge10" class="edge">
<title>Node11&#45;&gt;Node10</title>
<path fill="none" stroke="midnightblue" d="M378.89,-1098.28C378.24,-1086.48 377.54,-1073.79 376.82,-1060.87"/>
<polygon fill="none" stroke="midnightblue" points="375.4,-1098.61 379.45,-1108.4 382.39,-1098.22 375.4,-1098.61"/>
</g>
<!-- Node12 -->
<g id="node12" class="node">
<title>Node12</title>
<g id="a_node12"><a xlink:href="classRa_1_1Core_1_1Utils_1_1Index.html" target="_top" xlink:title=" ">
<polygon fill="white" stroke="black" points="314,-1301.5 314,-1677.5 451,-1677.5 451,-1301.5 314,-1301.5"/>
<text text-anchor="middle" x="382.5" y="-1665.5" font-family="Helvetica,sans-Serif" font-size="10.00">Ra::Core::Utils::Index</text>
<polyline fill="none" stroke="black" points="314,-1658.5 451,-1658.5 "/>
<text text-anchor="middle" x="382.5" y="-1646.5" font-family="Helvetica,sans-Serif" font-size="10.00"> </text>
<polyline fill="none" stroke="black" points="314,-1639.5 451,-1639.5 "/>
<text text-anchor="start" x="322" y="-1627.5" font-family="Helvetica,sans-Serif" font-size="10.00">+ Index()</text>
<text text-anchor="start" x="322" y="-1616.5" font-family="Helvetica,sans-Serif" font-size="10.00">+ Index()</text>
<text text-anchor="start" x="322" y="-1605.5" font-family="Helvetica,sans-Serif" font-size="10.00">+ Index()</text>
<text text-anchor="start" x="322" y="-1594.5" font-family="Helvetica,sans-Serif" font-size="10.00">+ isValid()</text>
<text text-anchor="start" x="322" y="-1583.5" font-family="Helvetica,sans-Serif" font-size="10.00">+ isInvalid()</text>
<text text-anchor="start" x="322" y="-1572.5" font-family="Helvetica,sans-Serif" font-size="10.00">+ setInvalid()</text>
<text text-anchor="start" x="322" y="-1561.5" font-family="Helvetica,sans-Serif" font-size="10.00">+ getValue()</text>
<text text-anchor="start" x="322" y="-1550.5" font-family="Helvetica,sans-Serif" font-size="10.00">+ setValue()</text>
<text text-anchor="start" x="322" y="-1539.5" font-family="Helvetica,sans-Serif" font-size="10.00">+ operator IntegerType()</text>
<text text-anchor="start" x="322" y="-1528.5" font-family="Helvetica,sans-Serif" font-size="10.00">+ operator=()</text>
<text text-anchor="start" x="322" y="-1517.5" font-family="Helvetica,sans-Serif" font-size="10.00">+ operator++()</text>
<text text-anchor="start" x="322" y="-1506.5" font-family="Helvetica,sans-Serif" font-size="10.00">+ operator&#45;&#45;()</text>
<text text-anchor="start" x="322" y="-1495.5" font-family="Helvetica,sans-Serif" font-size="10.00">+ operator+()</text>
<text text-anchor="start" x="322" y="-1484.5" font-family="Helvetica,sans-Serif" font-size="10.00">+ operator+()</text>
<text text-anchor="start" x="322" y="-1473.5" font-family="Helvetica,sans-Serif" font-size="10.00">+ operator&#45;()</text>
<text text-anchor="start" x="322" y="-1462.5" font-family="Helvetica,sans-Serif" font-size="10.00">+ operator&#45;()</text>
<text text-anchor="start" x="322" y="-1451.5" font-family="Helvetica,sans-Serif" font-size="10.00">+ operator==()</text>
<text text-anchor="start" x="322" y="-1440.5" font-family="Helvetica,sans-Serif" font-size="10.00">+ operator==()</text>
<text text-anchor="start" x="322" y="-1429.5" font-family="Helvetica,sans-Serif" font-size="10.00">+ operator!=()</text>
<text text-anchor="start" x="322" y="-1418.5" font-family="Helvetica,sans-Serif" font-size="10.00">+ operator!=()</text>
<text text-anchor="start" x="322" y="-1407.5" font-family="Helvetica,sans-Serif" font-size="10.00">+ operator&lt;()</text>
<text text-anchor="start" x="322" y="-1396.5" font-family="Helvetica,sans-Serif" font-size="10.00">+ operator&lt;()</text>
<text text-anchor="start" x="322" y="-1385.5" font-family="Helvetica,sans-Serif" font-size="10.00">+ operator&lt;=()</text>
<text text-anchor="start" x="322" y="-1374.5" font-family="Helvetica,sans-Serif" font-size="10.00">+ operator&lt;=()</text>
<text text-anchor="start" x="322" y="-1363.5" font-family="Helvetica,sans-Serif" font-size="10.00">+ operator&gt;()</text>
<text text-anchor="start" x="322" y="-1352.5" font-family="Helvetica,sans-Serif" font-size="10.00">+ operator&gt;()</text>
<text text-anchor="start" x="322" y="-1341.5" font-family="Helvetica,sans-Serif" font-size="10.00">+ operator&gt;=()</text>
<text text-anchor="start" x="322" y="-1330.5" font-family="Helvetica,sans-Serif" font-size="10.00">+ operator&gt;=()</text>
<text text-anchor="start" x="322" y="-1319.5" font-family="Helvetica,sans-Serif" font-size="10.00">+ Invalid()</text>
<text text-anchor="start" x="322" y="-1308.5" font-family="Helvetica,sans-Serif" font-size="10.00">+ Max()</text>
</a>
</g>
</g>
<!-- Node12&#45;&gt;Node11 -->
<g id="edge11" class="edge">
<title>Node12&#45;&gt;Node11</title>
<path fill="none" stroke="#404040" d="M382.5,-1301.08C382.5,-1276.65 382.5,-1253.03 382.5,-1232.54"/>
<polygon fill="none" stroke="#404040" points="382.5,-1232.54 378.5,-1226.54 382.5,-1220.54 386.5,-1226.54 382.5,-1232.54"/>
<text text-anchor="middle" x="403.5" y="-1258.5" font-family="Helvetica,sans-Serif" font-size="10.00"> #m_idx</text>
</g>
<!-- Node13 -->
<g id="node13" class="node">
<title>Node13</title>
<g id="a_node13"><a xlink:href="classint.html" target="_top" xlink:title=" ">
<polygon fill="white" stroke="black" points="368,-1725.5 368,-1782.5 397,-1782.5 397,-1725.5 368,-1725.5"/>
<text text-anchor="middle" x="382.5" y="-1770.5" font-family="Helvetica,sans-Serif" font-size="10.00">int</text>
<polyline fill="none" stroke="black" points="368,-1763.5 397,-1763.5 "/>
<text text-anchor="middle" x="382.5" y="-1751.5" font-family="Helvetica,sans-Serif" font-size="10.00"> </text>
<polyline fill="none" stroke="black" points="368,-1744.5 397,-1744.5 "/>
<text text-anchor="middle" x="382.5" y="-1732.5" font-family="Helvetica,sans-Serif" font-size="10.00"> </text>
</a>
</g>
</g>
<!-- Node13&#45;&gt;Node12 -->
<g id="edge12" class="edge">
<title>Node13&#45;&gt;Node12</title>
<path fill="none" stroke="#404040" d="M382.5,-1725.4C382.5,-1715.43 382.5,-1703.26 382.5,-1689.76"/>
<polygon fill="none" stroke="#404040" points="382.5,-1689.58 378.5,-1683.58 382.5,-1677.58 386.5,-1683.58 382.5,-1689.58"/>
<text text-anchor="middle" x="403.5" y="-1699" font-family="Helvetica,sans-Serif" font-size="10.00"> #m_idx</text>
</g>
<!-- Node14 -->
<g id="node14" class="node">
<title>Node14</title>
<g id="a_node14"><a xlink:title=" ">
<polygon fill="white" stroke="#bfbfbf" points="459.5,-893.5 459.5,-961.5 587.5,-961.5 587.5,-893.5 459.5,-893.5"/>
<text text-anchor="start" x="467.5" y="-949.5" font-family="Helvetica,sans-Serif" font-size="10.00">vector&lt; Ra::Core::Utils</text>
<text text-anchor="middle" x="523.5" y="-938.5" font-family="Helvetica,sans-Serif" font-size="10.00">::Index &gt;</text>
<polyline fill="none" stroke="#bfbfbf" points="459.5,-931.5 587.5,-931.5 "/>
<text text-anchor="middle" x="523.5" y="-919.5" font-family="Helvetica,sans-Serif" font-size="10.00"> </text>
<polyline fill="none" stroke="#bfbfbf" points="459.5,-912.5 587.5,-912.5 "/>
<text text-anchor="middle" x="523.5" y="-900.5" font-family="Helvetica,sans-Serif" font-size="10.00"> </text>
</a>
</g>
</g>
<!-- Node14&#45;&gt;Node2 -->
<g id="edge13" class="edge">
<title>Node14&#45;&gt;Node2</title>
<path fill="none" stroke="#404040" d="M507.41,-893.38C493.59,-865.96 472.46,-826.39 450.5,-794 434.66,-770.64 416.39,-746.61 398.3,-724.16"/>
<polygon fill="none" stroke="#404040" points="398.14,-723.96 391.25,-721.82 390.58,-714.64 397.46,-716.78 398.14,-723.96"/>
<text text-anchor="middle" x="483" y="-768" font-family="Helvetica,sans-Serif" font-size="10.00"> +m_renderObjects</text>
</g>
</g>
</svg>
