<?xml version="1.0" encoding="UTF-8" standalone="no"?>
<!DOCTYPE svg PUBLIC "-//W3C//DTD SVG 1.1//EN"
 "http://www.w3.org/Graphics/SVG/1.1/DTD/svg11.dtd">
<!-- Generated by graphviz version 2.40.1 (20161225.0304)
 -->
<!-- Title: Ra::Core::Utils::FILELog Pages: 1 -->
<!--zoomable 894 -->
<svg id="main" version="1.1" xmlns="http://www.w3.org/2000/svg" xmlns:xlink="http://www.w3.org/1999/xlink" xml:space="preserve" onload="init(evt)">
<style type="text/css"><![CDATA[
.edge:hover path { stroke: red; }
.edge:hover polygon { stroke: red; fill: red; }
]]></style>
<script type="text/javascript"><![CDATA[
var edges = document.getElementsByTagName('g');
if (edges && edges.length) {
  for (var i=0;i<edges.length;i++) {
    if (edges[i].id.substr(0,4)=='edge') {
      edges[i].setAttribute('class','edge');
    }
  }
}
]]></script>
        <defs>
                <circle id="rim" cx="0" cy="0" r="7"/>
                <circle id="rim2" cx="0" cy="0" r="3.5"/>
                <g id="zoomPlus">
                        <use xlink:href="#rim" fill="#404040">
                                <set attributeName="fill" to="#808080" begin="zoomplus.mouseover" end="zoomplus.mouseout"/>
                        </use>
                        <path d="M-4,0h8M0,-4v8" fill="none" stroke="white" stroke-width="1.5" pointer-events="none"/>
                </g>
                <g id="zoomMin">
                        <use xlink:href="#rim" fill="#404040">
                                <set attributeName="fill" to="#808080" begin="zoomminus.mouseover" end="zoomminus.mouseout"/>
                        </use>
                        <path d="M-4,0h8" fill="none" stroke="white" stroke-width="1.5" pointer-events="none"/>
                </g>
                <g id="dirArrow">
                        <path fill="none" stroke="white" stroke-width="1.5" d="M0,-3.0v7 M-2.5,-0.5L0,-3.0L2.5,-0.5"/>
                </g>
               <g id="resetDef">
                       <use xlink:href="#rim2" fill="#404040">
                               <set attributeName="fill" to="#808080" begin="reset.mouseover" end="reset.mouseout"/>
                       </use>
               </g>
        </defs>

<script type="text/javascript">
var viewWidth = 240;
var viewHeight = 894;
var sectionId = 'dynsection-1';
</script>
<script xlink:href="svgpan.js"/>
<svg id="graph" class="graph">
<g id="viewport">
<title>Ra::Core::Utils::FILELog</title>
<polygon fill="#ffffff" stroke="transparent" points="-4,4 -4,-890 235.5,-890 235.5,4 -4,4"/>
<!-- Node3 -->
<g id="node1" class="node">
<title>Node3</title>
<polygon fill="#bfbfbf" stroke="#000000" points="4,-.5 4,-57.5 133,-57.5 133,-.5 4,-.5"/>
<text text-anchor="middle" x="68.5" y="-45.5" font-family="Helvetica,sans-Serif" font-size="10.00" fill="#000000">Ra::Core::Utils::FILELog</text>
<polyline fill="none" stroke="#000000" points="4,-38.5 133,-38.5 "/>
<text text-anchor="middle" x="68.5" y="-26.5" font-family="Helvetica,sans-Serif" font-size="10.00" fill="#000000"> </text>
<polyline fill="none" stroke="#000000" points="4,-19.5 133,-19.5 "/>
<text text-anchor="middle" x="68.5" y="-7.5" font-family="Helvetica,sans-Serif" font-size="10.00" fill="#000000"> </text>
</g>
<!-- Node4 -->
<g id="node2" class="node">
<title>Node4</title>
<g id="a_node2"><a xlink:href="classRa_1_1Core_1_1Utils_1_1Log.html" target="_top" xlink:title="{Ra::Core::Utils::Log\l\&lt; Output2FILE \&gt;\n||+ Log()\l+ ~Log()\l+ Get()\l+ ReportingLevel()\l+ ToString()\l+ FromString()\l}">
<polygon fill="#ffffff" stroke="#000000" points="13.5,-95.5 13.5,-218.5 123.5,-218.5 123.5,-95.5 13.5,-95.5"/>
<text text-anchor="start" x="21.5" y="-206.5" font-family="Helvetica,sans-Serif" font-size="10.00" fill="#000000">Ra::Core::Utils::Log</text>
<text text-anchor="middle" x="68.5" y="-195.5" font-family="Helvetica,sans-Serif" font-size="10.00" fill="#000000">&lt; Output2FILE &gt;</text>
<polyline fill="none" stroke="#000000" points="13.5,-188.5 123.5,-188.5 "/>
<text text-anchor="middle" x="68.5" y="-176.5" font-family="Helvetica,sans-Serif" font-size="10.00" fill="#000000"> </text>
<polyline fill="none" stroke="#000000" points="13.5,-169.5 123.5,-169.5 "/>
<text text-anchor="start" x="21.5" y="-157.5" font-family="Helvetica,sans-Serif" font-size="10.00" fill="#000000">+ Log()</text>
<text text-anchor="start" x="21.5" y="-146.5" font-family="Helvetica,sans-Serif" font-size="10.00" fill="#000000">+ ~Log()</text>
<text text-anchor="start" x="21.5" y="-135.5" font-family="Helvetica,sans-Serif" font-size="10.00" fill="#000000">+ Get()</text>
<text text-anchor="start" x="21.5" y="-124.5" font-family="Helvetica,sans-Serif" font-size="10.00" fill="#000000">+ ReportingLevel()</text>
<text text-anchor="start" x="21.5" y="-113.5" font-family="Helvetica,sans-Serif" font-size="10.00" fill="#000000">+ ToString()</text>
<text text-anchor="start" x="21.5" y="-102.5" font-family="Helvetica,sans-Serif" font-size="10.00" fill="#000000">+ FromString()</text>
</a>
</g>
</g>
<!-- Node4&#45;&gt;Node3 -->
<g id="edge1" class="edge">
<title>Node4&#45;&gt;Node3</title>
<path fill="none" stroke="#191970" d="M68.5,-85.0767C68.5,-75.364 68.5,-65.8986 68.5,-57.5937"/>
<polygon fill="none" stroke="#191970" points="65.0001,-85.2496 68.5,-95.2496 72.0001,-85.2496 65.0001,-85.2496"/>
</g>
<!-- Node5 -->
<g id="node3" class="node">
<title>Node5</title>
<g id="a_node3"><a xlink:title="STL class. ">
<polygon fill="#ffffff" stroke="#bfbfbf" points="15.5,-426.5 15.5,-483.5 121.5,-483.5 121.5,-426.5 15.5,-426.5"/>
<text text-anchor="middle" x="68.5" y="-471.5" font-family="Helvetica,sans-Serif" font-size="10.00" fill="#000000">std::ostringstream</text>
<polyline fill="none" stroke="#bfbfbf" points="15.5,-464.5 121.5,-464.5 "/>
<text text-anchor="middle" x="68.5" y="-452.5" font-family="Helvetica,sans-Serif" font-size="10.00" fill="#000000"> </text>
<polyline fill="none" stroke="#bfbfbf" points="15.5,-445.5 121.5,-445.5 "/>
<text text-anchor="middle" x="68.5" y="-433.5" font-family="Helvetica,sans-Serif" font-size="10.00" fill="#000000"> </text>
</a>
</g>
</g>
<!-- Node5&#45;&gt;Node4 -->
<g id="edge2" class="edge">
<title>Node5&#45;&gt;Node4</title>
<path fill="none" stroke="#404040" d="M65.2164,-426.1719C63.7611,-411.9863 62.2178,-394.6189 61.5,-379 59.1945,-328.8307 59.8898,-316.1964 61.5,-266 61.8655,-254.6061 62.4453,-242.5525 63.1187,-230.7775"/>
<polygon fill="none" stroke="#404040" points="63.1278,-230.6251 59.4958,-224.3955 63.8493,-218.6468 67.4813,-224.8764 63.1278,-230.6251"/>
<text text-anchor="middle" x="73" y="-320" font-family="Helvetica,sans-Serif" font-size="10.00" fill="#000000"> #os</text>
</g>
<!-- Node10 -->
<g id="node8" class="node">
<title>Node10</title>
<g id="a_node8"><a xlink:href="classRa_1_1Core_1_1Utils_1_1Log.html" target="_top" xlink:title="{Ra::Core::Utils::Log\&lt; T \&gt;\n||+ Log()\l+ ~Log()\l+ Get()\l+ ReportingLevel()\l+ ToString()\l+ FromString()\l}">
<polygon fill="#ffffff" stroke="#000000" points="93.5,-266.5 93.5,-378.5 231.5,-378.5 231.5,-266.5 93.5,-266.5"/>
<text text-anchor="middle" x="162.5" y="-366.5" font-family="Helvetica,sans-Serif" font-size="10.00" fill="#000000">Ra::Core::Utils::Log&lt; T &gt;</text>
<polyline fill="none" stroke="#000000" points="93.5,-359.5 231.5,-359.5 "/>
<text text-anchor="middle" x="162.5" y="-347.5" font-family="Helvetica,sans-Serif" font-size="10.00" fill="#000000"> </text>
<polyline fill="none" stroke="#000000" points="93.5,-340.5 231.5,-340.5 "/>
<text text-anchor="start" x="101.5" y="-328.5" font-family="Helvetica,sans-Serif" font-size="10.00" fill="#000000">+ Log()</text>
<text text-anchor="start" x="101.5" y="-317.5" font-family="Helvetica,sans-Serif" font-size="10.00" fill="#000000">+ ~Log()</text>
<text text-anchor="start" x="101.5" y="-306.5" font-family="Helvetica,sans-Serif" font-size="10.00" fill="#000000">+ Get()</text>
<text text-anchor="start" x="101.5" y="-295.5" font-family="Helvetica,sans-Serif" font-size="10.00" fill="#000000">+ ReportingLevel()</text>
<text text-anchor="start" x="101.5" y="-284.5" font-family="Helvetica,sans-Serif" font-size="10.00" fill="#000000">+ ToString()</text>
<text text-anchor="start" x="101.5" y="-273.5" font-family="Helvetica,sans-Serif" font-size="10.00" fill="#000000">+ FromString()</text>
</a>
</g>
</g>
<!-- Node5&#45;&gt;Node10 -->
<g id="edge8" class="edge">
<title>Node5&#45;&gt;Node10</title>
<path fill="none" stroke="#404040" d="M88.8966,-426.2495C96.7708,-415.1502 106.1304,-401.9571 115.4906,-388.7633"/>
<polygon fill="none" stroke="#404040" points="115.6804,-388.4957 115.8897,-381.2876 122.6238,-378.7084 122.4145,-385.9165 115.6804,-388.4957"/>
<text text-anchor="middle" x="118" y="-400" font-family="Helvetica,sans-Serif" font-size="10.00" fill="#000000"> #os</text>
</g>
<!-- Node6 -->
<g id="node4" class="node">
<title>Node6</title>
<g id="a_node4"><a xlink:title="STL class. ">
<polygon fill="#ffffff" stroke="#bfbfbf" points="0,-521.5 0,-589.5 137,-589.5 137,-521.5 0,-521.5"/>
<text text-anchor="start" x="8" y="-577.5" font-family="Helvetica,sans-Serif" font-size="10.00" fill="#000000">std::basic_ostringstream</text>
<text text-anchor="middle" x="68.5" y="-566.5" font-family="Helvetica,sans-Serif" font-size="10.00" fill="#000000">&lt; char &gt;</text>
<polyline fill="none" stroke="#bfbfbf" points="0,-559.5 137,-559.5 "/>
<text text-anchor="middle" x="68.5" y="-547.5" font-family="Helvetica,sans-Serif" font-size="10.00" fill="#000000"> </text>
<polyline fill="none" stroke="#bfbfbf" points="0,-540.5 137,-540.5 "/>
<text text-anchor="middle" x="68.5" y="-528.5" font-family="Helvetica,sans-Serif" font-size="10.00" fill="#000000"> </text>
</a>
</g>
</g>
<!-- Node6&#45;&gt;Node5 -->
<g id="edge3" class="edge">
<title>Node6&#45;&gt;Node5</title>
<path fill="none" stroke="#191970" d="M68.5,-511.4301C68.5,-502.0073 68.5,-492.2901 68.5,-483.6312"/>
<polygon fill="none" stroke="#191970" points="65.0001,-511.4752 68.5,-521.4753 72.0001,-511.4753 65.0001,-511.4752"/>
</g>
<!-- Node7 -->
<g id="node5" class="node">
<title>Node7</title>
<g id="a_node5"><a xlink:title="STL class. ">
<polygon fill="#ffffff" stroke="#bfbfbf" points="14,-627.5 14,-695.5 123,-695.5 123,-627.5 14,-627.5"/>
<text text-anchor="start" x="22" y="-683.5" font-family="Helvetica,sans-Serif" font-size="10.00" fill="#000000">std::basic_ostream</text>
<text text-anchor="middle" x="68.5" y="-672.5" font-family="Helvetica,sans-Serif" font-size="10.00" fill="#000000">&lt; Char &gt;</text>
<polyline fill="none" stroke="#bfbfbf" points="14,-665.5 123,-665.5 "/>
<text text-anchor="middle" x="68.5" y="-653.5" font-family="Helvetica,sans-Serif" font-size="10.00" fill="#000000"> </text>
<polyline fill="none" stroke="#bfbfbf" points="14,-646.5 123,-646.5 "/>
<text text-anchor="middle" x="68.5" y="-634.5" font-family="Helvetica,sans-Serif" font-size="10.00" fill="#000000"> </text>
</a>
</g>
</g>
<!-- Node7&#45;&gt;Node6 -->
<g id="edge4" class="edge">
<title>Node7&#45;&gt;Node6</title>
<path fill="none" stroke="#191970" d="M68.5,-617.1711C68.5,-607.9405 68.5,-598.3493 68.5,-589.5586"/>
<polygon fill="none" stroke="#191970" points="65.0001,-617.3774 68.5,-627.3775 72.0001,-617.3775 65.0001,-617.3774"/>
</g>
<!-- Node8 -->
<g id="node6" class="node">
<title>Node8</title>
<g id="a_node6"><a xlink:title="STL class. ">
<polygon fill="#ffffff" stroke="#bfbfbf" points="4.5,-733.5 4.5,-790.5 132.5,-790.5 132.5,-733.5 4.5,-733.5"/>
<text text-anchor="middle" x="68.5" y="-778.5" font-family="Helvetica,sans-Serif" font-size="10.00" fill="#000000">std::basic_ios&lt; Char &gt;</text>
<polyline fill="none" stroke="#bfbfbf" points="4.5,-771.5 132.5,-771.5 "/>
<text text-anchor="middle" x="68.5" y="-759.5" font-family="Helvetica,sans-Serif" font-size="10.00" fill="#000000"> </text>
<polyline fill="none" stroke="#bfbfbf" points="4.5,-752.5 132.5,-752.5 "/>
<text text-anchor="middle" x="68.5" y="-740.5" font-family="Helvetica,sans-Serif" font-size="10.00" fill="#000000"> </text>
</a>
</g>
</g>
<!-- Node8&#45;&gt;Node7 -->
<g id="edge5" class="edge">
<title>Node8&#45;&gt;Node7</title>
<path fill="none" stroke="#191970" d="M68.5,-723.1903C68.5,-714.1667 68.5,-704.6233 68.5,-695.8097"/>
<polygon fill="none" stroke="#191970" points="65.0001,-723.4695 68.5,-733.4696 72.0001,-723.4696 65.0001,-723.4695"/>
</g>
<!-- Node9 -->
<g id="node7" class="node">
<title>Node9</title>
<g id="a_node7"><a xlink:title="STL class. ">
<polygon fill="#ffffff" stroke="#bfbfbf" points="28.5,-828.5 28.5,-885.5 108.5,-885.5 108.5,-828.5 28.5,-828.5"/>
<text text-anchor="middle" x="68.5" y="-873.5" font-family="Helvetica,sans-Serif" font-size="10.00" fill="#000000">std::ios_base</text>
<polyline fill="none" stroke="#bfbfbf" points="28.5,-866.5 108.5,-866.5 "/>
<text text-anchor="middle" x="68.5" y="-854.5" font-family="Helvetica,sans-Serif" font-size="10.00" fill="#000000"> </text>
<polyline fill="none" stroke="#bfbfbf" points="28.5,-847.5 108.5,-847.5 "/>
<text text-anchor="middle" x="68.5" y="-835.5" font-family="Helvetica,sans-Serif" font-size="10.00" fill="#000000"> </text>
</a>
</g>
</g>
<!-- Node9&#45;&gt;Node8 -->
<g id="edge6" class="edge">
<title>Node9&#45;&gt;Node8</title>
<path fill="none" stroke="#191970" d="M68.5,-818.3724C68.5,-809.1627 68.5,-799.4917 68.5,-790.8114"/>
<polygon fill="none" stroke="#191970" points="65.0001,-818.4968 68.5,-828.4969 72.0001,-818.4969 65.0001,-818.4968"/>
</g>
<!-- Node10&#45;&gt;Node4 -->
<g id="edge7" class="edge">
<title>Node10&#45;&gt;Node4</title>
<path fill="none" stroke="#ffa500" d="M125.6891,-257.6893C118.3931,-244.8438 110.7531,-231.3924 103.5188,-218.6555"/>
<polygon fill="#ffa500" stroke="#ffa500" points="122.6937,-259.5025 130.6759,-266.4692 128.7805,-256.0453 122.6937,-259.5025"/>
<text text-anchor="middle" x="160" y="-240" font-family="Helvetica,sans-Serif" font-size="10.00" fill="#000000"> &lt; Output2FILE &gt;</text>
</g>
</g>
</svg>
        <g id="navigator" transform="translate(0 0)" fill="#404254">
                <rect fill="#f2f5e9" fill-opacity="0.5" stroke="#606060" stroke-width=".5" x="0" y="0" width="60" height="60"/>
                <use id="zoomplus" xlink:href="#zoomPlus" x="17" y="9" onmousedown="handleZoom(evt,'in')"/>
                <use id="zoomminus" xlink:href="#zoomMin" x="42" y="9" onmousedown="handleZoom(evt,'out')"/>
                <use id="reset" xlink:href="#resetDef" x="30" y="36" onmousedown="handleReset()"/>
                <g id="arrowUp" xlink:href="#dirArrow" transform="translate(30 24)" onmousedown="handlePan(0,-1)">
                  <use xlink:href="#rim" fill="#404040">
                        <set attributeName="fill" to="#808080" begin="arrowUp.mouseover" end="arrowUp.mouseout"/>
                  </use>
                  <path fill="none" stroke="white" stroke-width="1.5" d="M0,-3.0v7 M-2.5,-0.5L0,-3.0L2.5,-0.5"/>
                </g>
                <g id="arrowRight" xlink:href="#dirArrow" transform="rotate(90) translate(36 -43)" onmousedown="handlePan(1,0)">
                  <use xlink:href="#rim" fill="#404040">
                        <set attributeName="fill" to="#808080" begin="arrowRight.mouseover" end="arrowRight.mouseout"/>
                  </use>
                  <path fill="none" stroke="white" stroke-width="1.5" d="M0,-3.0v7 M-2.5,-0.5L0,-3.0L2.5,-0.5"/>
                </g>
                <g id="arrowDown" xlink:href="#dirArrow" transform="rotate(180) translate(-30 -48)" onmousedown="handlePan(0,1)">
                  <use xlink:href="#rim" fill="#404040">
                        <set attributeName="fill" to="#808080" begin="arrowDown.mouseover" end="arrowDown.mouseout"/>
                  </use>
                  <path fill="none" stroke="white" stroke-width="1.5" d="M0,-3.0v7 M-2.5,-0.5L0,-3.0L2.5,-0.5"/>
                </g>
                <g id="arrowLeft" xlink:href="#dirArrow" transform="rotate(270) translate(-36 17)" onmousedown="handlePan(-1,0)">
                  <use xlink:href="#rim" fill="#404040">
                        <set attributeName="fill" to="#808080" begin="arrowLeft.mouseover" end="arrowLeft.mouseout"/>
                  </use>
                  <path fill="none" stroke="white" stroke-width="1.5" d="M0,-3.0v7 M-2.5,-0.5L0,-3.0L2.5,-0.5"/>
                </g>
        </g>
        <svg viewBox="0 0 15 15" width="100%" height="30px" preserveAspectRatio="xMaxYMin meet">
         <g id="arrow_out" transform="scale(0.3 0.3)">
          <a xlink:href="classRa_1_1Core_1_1Utils_1_1FILELog__coll__graph_org.svg" target="_base">
           <rect id="button" ry="5" rx="5" y="6" x="6" height="38" width="38"
                fill="#f2f5e9" fill-opacity="0.5" stroke="#606060" stroke-width="1.0"/>
           <path id="arrow"
             d="M 11.500037,31.436501 C 11.940474,20.09759 22.043105,11.32322 32.158766,21.979434 L 37.068811,17.246167 C 37.068811,17.246167 37.088388,32 37.088388,32 L 22.160133,31.978069 C 22.160133,31.978069 26.997745,27.140456 26.997745,27.140456 C 18.528582,18.264221 13.291696,25.230495 11.500037,31.436501 z"
             style="fill:#404040;"/>
          </a>
         </g>
        </svg>
</svg>
