<?xml version="1.0" encoding="UTF-8" standalone="no"?>
<!DOCTYPE svg PUBLIC "-//W3C//DTD SVG 1.1//EN"
 "http://www.w3.org/Graphics/SVG/1.1/DTD/svg11.dtd">
<!-- Generated by graphviz version 2.40.1 (20161225.0304)
 -->
<!-- Title: Ra::Core::VectorArray&lt; V &gt; Pages: 1 -->
<svg width="864pt" height="521pt"
 viewBox="0.00 0.00 864.00 521.00" xmlns="http://www.w3.org/2000/svg" xmlns:xlink="http://www.w3.org/1999/xlink">
<g id="graph0" class="graph" transform="scale(1 1) rotate(0) translate(4 517)">
<title>Ra::Core::VectorArray&lt; V &gt;</title>
<polygon fill="#ffffff" stroke="transparent" points="-4,4 -4,-517 860,-517 860,4 -4,4"/>
<!-- Node0 -->
<g id="node1" class="node">
<title>Node0</title>
<polygon fill="#bfbfbf" stroke="#000000" points="344.5,-127.5 344.5,-195.5 494.5,-195.5 494.5,-127.5 344.5,-127.5"/>
<text text-anchor="middle" x="419.5" y="-183.5" font-family="Helvetica,sans-Serif" font-size="10.00" fill="#000000">Ra::Core::VectorArray&lt; V &gt;</text>
<polyline fill="none" stroke="#000000" points="344.5,-176.5 494.5,-176.5 "/>
<text text-anchor="middle" x="419.5" y="-164.5" font-family="Helvetica,sans-Serif" font-size="10.00" fill="#000000"> </text>
<polyline fill="none" stroke="#000000" points="344.5,-157.5 494.5,-157.5 "/>
<text text-anchor="start" x="352.5" y="-145.5" font-family="Helvetica,sans-Serif" font-size="10.00" fill="#000000">+ getMap()</text>
<text text-anchor="start" x="352.5" y="-134.5" font-family="Helvetica,sans-Serif" font-size="10.00" fill="#000000">+ getMap()</text>
</g>
<!-- Node5 -->
<g id="node6" class="node">
<title>Node5</title>
<g id="a_node6"><a xlink:href="classRa_1_1Core_1_1VectorArray.html" target="_top" xlink:title="{Ra::Core::VectorArray\l\&lt; Vector \&gt;\n||+ getMap()\l+ getMap()\l}">
<polygon fill="#ffffff" stroke="#000000" points="0,-.5 0,-79.5 121,-79.5 121,-.5 0,-.5"/>
<text text-anchor="start" x="8" y="-67.5" font-family="Helvetica,sans-Serif" font-size="10.00" fill="#000000">Ra::Core::VectorArray</text>
<text text-anchor="middle" x="60.5" y="-56.5" font-family="Helvetica,sans-Serif" font-size="10.00" fill="#000000">&lt; Vector &gt;</text>
<polyline fill="none" stroke="#000000" points="0,-49.5 121,-49.5 "/>
<text text-anchor="middle" x="60.5" y="-37.5" font-family="Helvetica,sans-Serif" font-size="10.00" fill="#000000"> </text>
<polyline fill="none" stroke="#000000" points="0,-30.5 121,-30.5 "/>
<text text-anchor="start" x="8" y="-18.5" font-family="Helvetica,sans-Serif" font-size="10.00" fill="#000000">+ getMap()</text>
<text text-anchor="start" x="8" y="-7.5" font-family="Helvetica,sans-Serif" font-size="10.00" fill="#000000">+ getMap()</text>
</a>
</g>
</g>
<!-- Node0&#45;&gt;Node5 -->
<g id="edge5" class="edge">
<title>Node0&#45;&gt;Node5</title>
<path fill="none" stroke="#ffa500" d="M334.4866,-147.2526C290.2309,-138.5727 235.6609,-125.8718 188.5,-109 161.3638,-99.292 155.9102,-93.5991 130.5,-80 127.4148,-78.3489 124.2646,-76.6387 121.0915,-74.8969"/>
<polygon fill="#ffa500" stroke="#ffa500" points="333.8613,-150.6964 344.3431,-149.153 335.1866,-143.823 333.8613,-150.6964"/>
<text text-anchor="middle" x="217" y="-101" font-family="Helvetica,sans-Serif" font-size="10.00" fill="#000000"> &lt; Vector &gt;</text>
</g>
<!-- Node6 -->
<g id="node7" class="node">
<title>Node6</title>
<g id="a_node7"><a xlink:href="classRa_1_1Core_1_1VectorArray.html" target="_top" xlink:title="{Ra::Core::VectorArray\l\&lt; Ra::Core::Vector3ui \&gt;\n||+ getMap()\l+ getMap()\l}">
<polygon fill="#ffffff" stroke="#000000" points="139.5,-.5 139.5,-79.5 271.5,-79.5 271.5,-.5 139.5,-.5"/>
<text text-anchor="start" x="147.5" y="-67.5" font-family="Helvetica,sans-Serif" font-size="10.00" fill="#000000">Ra::Core::VectorArray</text>
<text text-anchor="middle" x="205.5" y="-56.5" font-family="Helvetica,sans-Serif" font-size="10.00" fill="#000000">&lt; Ra::Core::Vector3ui &gt;</text>
<polyline fill="none" stroke="#000000" points="139.5,-49.5 271.5,-49.5 "/>
<text text-anchor="middle" x="205.5" y="-37.5" font-family="Helvetica,sans-Serif" font-size="10.00" fill="#000000"> </text>
<polyline fill="none" stroke="#000000" points="139.5,-30.5 271.5,-30.5 "/>
<text text-anchor="start" x="147.5" y="-18.5" font-family="Helvetica,sans-Serif" font-size="10.00" fill="#000000">+ getMap()</text>
<text text-anchor="start" x="147.5" y="-7.5" font-family="Helvetica,sans-Serif" font-size="10.00" fill="#000000">+ getMap()</text>
</a>
</g>
</g>
<!-- Node0&#45;&gt;Node6 -->
<g id="edge6" class="edge">
<title>Node0&#45;&gt;Node6</title>
<path fill="none" stroke="#ffa500" d="M334.7271,-142.6122C310.0941,-134.6958 284.0465,-123.7891 262.5,-109 251.0986,-101.1743 240.7354,-90.4502 232.0666,-79.7889"/>
<polygon fill="#ffa500" stroke="#ffa500" points="333.8607,-146.0076 344.448,-145.6087 335.9228,-139.3182 333.8607,-146.0076"/>
<text text-anchor="middle" x="322" y="-101" font-family="Helvetica,sans-Serif" font-size="10.00" fill="#000000"> &lt; Ra::Core::Vector3ui &gt;</text>
</g>
<!-- Node7 -->
<g id="node8" class="node">
<title>Node7</title>
<g id="a_node8"><a xlink:href="classRa_1_1Core_1_1VectorArray.html" target="_top" xlink:title="{Ra::Core::VectorArray\l\&lt; Vector2 \&gt;\n||+ getMap()\l+ getMap()\l}">
<polygon fill="#ffffff" stroke="#000000" points="290,-.5 290,-79.5 411,-79.5 411,-.5 290,-.5"/>
<text text-anchor="start" x="298" y="-67.5" font-family="Helvetica,sans-Serif" font-size="10.00" fill="#000000">Ra::Core::VectorArray</text>
<text text-anchor="middle" x="350.5" y="-56.5" font-family="Helvetica,sans-Serif" font-size="10.00" fill="#000000">&lt; Vector2 &gt;</text>
<polyline fill="none" stroke="#000000" points="290,-49.5 411,-49.5 "/>
<text text-anchor="middle" x="350.5" y="-37.5" font-family="Helvetica,sans-Serif" font-size="10.00" fill="#000000"> </text>
<polyline fill="none" stroke="#000000" points="290,-30.5 411,-30.5 "/>
<text text-anchor="start" x="298" y="-18.5" font-family="Helvetica,sans-Serif" font-size="10.00" fill="#000000">+ getMap()</text>
<text text-anchor="start" x="298" y="-7.5" font-family="Helvetica,sans-Serif" font-size="10.00" fill="#000000">+ getMap()</text>
</a>
</g>
</g>
<!-- Node0&#45;&gt;Node7 -->
<g id="edge7" class="edge">
<title>Node0&#45;&gt;Node7</title>
<path fill="none" stroke="#ffa500" d="M395.0418,-118.4324C387.9223,-105.8957 380.1777,-92.2585 373.1731,-79.9243"/>
<polygon fill="#ffa500" stroke="#ffa500" points="392.1143,-120.3649 400.096,-127.3321 398.2012,-116.9081 392.1143,-120.3649"/>
<text text-anchor="middle" x="421" y="-101" font-family="Helvetica,sans-Serif" font-size="10.00" fill="#000000"> &lt; Vector2 &gt;</text>
</g>
<!-- Node8 -->
<g id="node9" class="node">
<title>Node8</title>
<g id="a_node9"><a xlink:href="classRa_1_1Core_1_1VectorArray.html" target="_top" xlink:title="{Ra::Core::VectorArray\l\&lt; Vector3 \&gt;\n||+ getMap()\l+ getMap()\l}">
<polygon fill="#ffffff" stroke="#000000" points="429,-.5 429,-79.5 550,-79.5 550,-.5 429,-.5"/>
<text text-anchor="start" x="437" y="-67.5" font-family="Helvetica,sans-Serif" font-size="10.00" fill="#000000">Ra::Core::VectorArray</text>
<text text-anchor="middle" x="489.5" y="-56.5" font-family="Helvetica,sans-Serif" font-size="10.00" fill="#000000">&lt; Vector3 &gt;</text>
<polyline fill="none" stroke="#000000" points="429,-49.5 550,-49.5 "/>
<text text-anchor="middle" x="489.5" y="-37.5" font-family="Helvetica,sans-Serif" font-size="10.00" fill="#000000"> </text>
<polyline fill="none" stroke="#000000" points="429,-30.5 550,-30.5 "/>
<text text-anchor="start" x="437" y="-18.5" font-family="Helvetica,sans-Serif" font-size="10.00" fill="#000000">+ getMap()</text>
<text text-anchor="start" x="437" y="-7.5" font-family="Helvetica,sans-Serif" font-size="10.00" fill="#000000">+ getMap()</text>
</a>
</g>
</g>
<!-- Node0&#45;&gt;Node8 -->
<g id="edge8" class="edge">
<title>Node0&#45;&gt;Node8</title>
<path fill="none" stroke="#ffa500" d="M450.4913,-118.7566C452.5875,-115.4954 454.6133,-112.22 456.5,-109 461.9375,-99.7199 467.2378,-89.4046 471.9434,-79.6382"/>
<polygon fill="#ffa500" stroke="#ffa500" points="447.4307,-117.0392 444.8249,-127.3086 453.266,-120.9056 447.4307,-117.0392"/>
<text text-anchor="middle" x="494" y="-101" font-family="Helvetica,sans-Serif" font-size="10.00" fill="#000000"> &lt; Vector3 &gt;</text>
</g>
<!-- Node9 -->
<g id="node10" class="node">
<title>Node9</title>
<g id="a_node10"><a xlink:href="classRa_1_1Core_1_1VectorArray.html" target="_top" xlink:title="{Ra::Core::VectorArray\&lt; T \&gt;\n||+ getMap()\l+ getMap()\l}">
<polygon fill="#ffffff" stroke="#000000" points="568,-6 568,-74 717,-74 717,-6 568,-6"/>
<text text-anchor="middle" x="642.5" y="-62" font-family="Helvetica,sans-Serif" font-size="10.00" fill="#000000">Ra::Core::VectorArray&lt; T &gt;</text>
<polyline fill="none" stroke="#000000" points="568,-55 717,-55 "/>
<text text-anchor="middle" x="642.5" y="-43" font-family="Helvetica,sans-Serif" font-size="10.00" fill="#000000"> </text>
<polyline fill="none" stroke="#000000" points="568,-36 717,-36 "/>
<text text-anchor="start" x="576" y="-24" font-family="Helvetica,sans-Serif" font-size="10.00" fill="#000000">+ getMap()</text>
<text text-anchor="start" x="576" y="-13" font-family="Helvetica,sans-Serif" font-size="10.00" fill="#000000">+ getMap()</text>
</a>
</g>
</g>
<!-- Node0&#45;&gt;Node9 -->
<g id="edge9" class="edge">
<title>Node0&#45;&gt;Node9</title>
<path fill="none" stroke="#ffa500" d="M502.7722,-122.8778C511.8596,-118.3311 520.9192,-113.6515 529.5,-109 549.3039,-98.2646 570.5051,-85.6368 589.1316,-74.1388"/>
<polygon fill="#ffa500" stroke="#ffa500" points="501.1005,-119.7999 493.6923,-127.3741 504.2069,-126.0729 501.1005,-119.7999"/>
<text text-anchor="middle" x="563.5" y="-101" font-family="Helvetica,sans-Serif" font-size="10.00" fill="#000000"> &lt; T &gt;</text>
</g>
<!-- Node10 -->
<g id="node11" class="node">
<title>Node10</title>
<g id="a_node11"><a xlink:href="classRa_1_1Core_1_1VectorArray.html" target="_top" xlink:title="{Ra::Core::VectorArray\l\&lt; Vector4 \&gt;\n||+ getMap()\l+ getMap()\l}">
<polygon fill="#ffffff" stroke="#000000" points="735,-.5 735,-79.5 856,-79.5 856,-.5 735,-.5"/>
<text text-anchor="start" x="743" y="-67.5" font-family="Helvetica,sans-Serif" font-size="10.00" fill="#000000">Ra::Core::VectorArray</text>
<text text-anchor="middle" x="795.5" y="-56.5" font-family="Helvetica,sans-Serif" font-size="10.00" fill="#000000">&lt; Vector4 &gt;</text>
<polyline fill="none" stroke="#000000" points="735,-49.5 856,-49.5 "/>
<text text-anchor="middle" x="795.5" y="-37.5" font-family="Helvetica,sans-Serif" font-size="10.00" fill="#000000"> </text>
<polyline fill="none" stroke="#000000" points="735,-30.5 856,-30.5 "/>
<text text-anchor="start" x="743" y="-18.5" font-family="Helvetica,sans-Serif" font-size="10.00" fill="#000000">+ getMap()</text>
<text text-anchor="start" x="743" y="-7.5" font-family="Helvetica,sans-Serif" font-size="10.00" fill="#000000">+ getMap()</text>
</a>
</g>
</g>
<!-- Node0&#45;&gt;Node10 -->
<g id="edge10" class="edge">
<title>Node0&#45;&gt;Node10</title>
<path fill="none" stroke="#ffa500" d="M504.3665,-145.3332C567.1366,-131.8644 653.9519,-110.0273 726.5,-80 729.3147,-78.835 732.1551,-77.5749 734.9962,-76.2445"/>
<polygon fill="#ffa500" stroke="#ffa500" points="503.5618,-141.9259 494.5046,-147.423 505.0129,-148.7739 503.5618,-141.9259"/>
<text text-anchor="middle" x="709" y="-101" font-family="Helvetica,sans-Serif" font-size="10.00" fill="#000000"> &lt; Vector4 &gt;</text>
</g>
<!-- Node1 -->
<g id="node2" class="node">
<title>Node1</title>
<g id="a_node2"><a xlink:href="structRa_1_1Core_1_1AlignedStdVector.html" target="_top" xlink:title="{Ra::Core::AlignedStdVector\&lt; V \&gt;\n||}">
<polygon fill="#ffffff" stroke="#000000" points="331.5,-233.5 331.5,-290.5 507.5,-290.5 507.5,-233.5 331.5,-233.5"/>
<text text-anchor="middle" x="419.5" y="-278.5" font-family="Helvetica,sans-Serif" font-size="10.00" fill="#000000">Ra::Core::AlignedStdVector&lt; V &gt;</text>
<polyline fill="none" stroke="#000000" points="331.5,-271.5 507.5,-271.5 "/>
<text text-anchor="middle" x="419.5" y="-259.5" font-family="Helvetica,sans-Serif" font-size="10.00" fill="#000000"> </text>
<polyline fill="none" stroke="#000000" points="331.5,-252.5 507.5,-252.5 "/>
<text text-anchor="middle" x="419.5" y="-240.5" font-family="Helvetica,sans-Serif" font-size="10.00" fill="#000000"> </text>
</a>
</g>
</g>
<!-- Node1&#45;&gt;Node0 -->
<g id="edge1" class="edge">
<title>Node1&#45;&gt;Node0</title>
<path fill="none" stroke="#191970" d="M419.5,-223.1903C419.5,-214.1667 419.5,-204.6233 419.5,-195.8097"/>
<polygon fill="none" stroke="#191970" points="416.0001,-223.4695 419.5,-233.4696 423.0001,-223.4696 416.0001,-223.4695"/>
</g>
<!-- Node2 -->
<g id="node3" class="node">
<title>Node2</title>
<g id="a_node3"><a xlink:title="STL class. ">
<polygon fill="#ffffff" stroke="#bfbfbf" points="330,-338.5 330,-406.5 477,-406.5 477,-338.5 330,-338.5"/>
<text text-anchor="start" x="338" y="-394.5" font-family="Helvetica,sans-Serif" font-size="10.00" fill="#000000">std::vector&lt; V, Eigen</text>
<text text-anchor="middle" x="403.5" y="-383.5" font-family="Helvetica,sans-Serif" font-size="10.00" fill="#000000">::aligned_allocator&lt; V &gt; &gt;</text>
<polyline fill="none" stroke="#bfbfbf" points="330,-376.5 477,-376.5 "/>
<text text-anchor="start" x="338" y="-364.5" font-family="Helvetica,sans-Serif" font-size="10.00" fill="#000000">+ elements</text>
<polyline fill="none" stroke="#bfbfbf" points="330,-357.5 477,-357.5 "/>
<text text-anchor="middle" x="403.5" y="-345.5" font-family="Helvetica,sans-Serif" font-size="10.00" fill="#000000"> </text>
</a>
</g>
</g>
<!-- Node2&#45;&gt;Node1 -->
<g id="edge2" class="edge">
<title>Node2&#45;&gt;Node1</title>
<path fill="none" stroke="#191970" d="M409.879,-328.4453C411.7264,-315.6862 413.6943,-302.0955 415.3658,-290.5519"/>
<polygon fill="none" stroke="#191970" points="406.4003,-328.0463 408.4311,-338.4447 413.3281,-329.0495 406.4003,-328.0463"/>
</g>
<!-- Node3 -->
<g id="node4" class="node">
<title>Node3</title>
<g id="a_node4"><a xlink:href="structRa_1_1Core_1_1AlignedStdVector.html" target="_top" xlink:title="{Ra::Core::AlignedStdVector\&lt; T \&gt;\n||}">
<polygon fill="#ffffff" stroke="#000000" points="495.5,-344 495.5,-401 671.5,-401 671.5,-344 495.5,-344"/>
<text text-anchor="middle" x="583.5" y="-389" font-family="Helvetica,sans-Serif" font-size="10.00" fill="#000000">Ra::Core::AlignedStdVector&lt; T &gt;</text>
<polyline fill="none" stroke="#000000" points="495.5,-382 671.5,-382 "/>
<text text-anchor="middle" x="583.5" y="-370" font-family="Helvetica,sans-Serif" font-size="10.00" fill="#000000"> </text>
<polyline fill="none" stroke="#000000" points="495.5,-363 671.5,-363 "/>
<text text-anchor="middle" x="583.5" y="-351" font-family="Helvetica,sans-Serif" font-size="10.00" fill="#000000"> </text>
</a>
</g>
</g>
<!-- Node3&#45;&gt;Node1 -->
<g id="edge3" class="edge">
<title>Node3&#45;&gt;Node1</title>
<path fill="none" stroke="#ffa500" d="M532.3673,-338.0478C509.7481,-322.8074 483.4598,-305.0949 461.9474,-290.6002"/>
<polygon fill="#ffa500" stroke="#ffa500" points="530.5901,-341.0707 540.8391,-343.7559 534.5016,-335.2654 530.5901,-341.0707"/>
<text text-anchor="middle" x="518" y="-312" font-family="Helvetica,sans-Serif" font-size="10.00" fill="#000000"> &lt; V &gt;</text>
</g>
<!-- Node4 -->
<g id="node5" class="node">
<title>Node4</title>
<g id="a_node5"><a xlink:title="STL class. ">
<polygon fill="#ffffff" stroke="#bfbfbf" points="510.5,-444.5 510.5,-512.5 656.5,-512.5 656.5,-444.5 510.5,-444.5"/>
<text text-anchor="start" x="518.5" y="-500.5" font-family="Helvetica,sans-Serif" font-size="10.00" fill="#000000">std::vector&lt; T, Eigen</text>
<text text-anchor="middle" x="583.5" y="-489.5" font-family="Helvetica,sans-Serif" font-size="10.00" fill="#000000">::aligned_allocator&lt; T &gt; &gt;</text>
<polyline fill="none" stroke="#bfbfbf" points="510.5,-482.5 656.5,-482.5 "/>
<text text-anchor="start" x="518.5" y="-470.5" font-family="Helvetica,sans-Serif" font-size="10.00" fill="#000000">+ elements</text>
<polyline fill="none" stroke="#bfbfbf" points="510.5,-463.5 656.5,-463.5 "/>
<text text-anchor="middle" x="583.5" y="-451.5" font-family="Helvetica,sans-Serif" font-size="10.00" fill="#000000"> </text>
</a>
</g>
</g>
<!-- Node4&#45;&gt;Node3 -->
<g id="edge4" class="edge">
<title>Node4&#45;&gt;Node3</title>
<path fill="none" stroke="#191970" d="M583.5,-434.3199C583.5,-423.1388 583.5,-411.4189 583.5,-401.2266"/>
<polygon fill="none" stroke="#191970" points="580.0001,-434.3774 583.5,-444.3775 587.0001,-434.3775 580.0001,-434.3774"/>
</g>
</g>
</svg>
