<?xml version="1.0" encoding="UTF-8" standalone="no"?>
<!DOCTYPE svg PUBLIC "-//W3C//DTD SVG 1.1//EN"
 "http://www.w3.org/Graphics/SVG/1.1/DTD/svg11.dtd">
<!-- Generated by graphviz version 2.43.0 (0)
 -->
<!-- Title: Ra::Gui::Gizmo::~Gizmo Pages: 1 -->
<svg width="850pt" height="100pt"
 viewBox="0.00 0.00 850.00 99.50" xmlns="http://www.w3.org/2000/svg" xmlns:xlink="http://www.w3.org/1999/xlink">
<g id="graph0" class="graph" transform="scale(1 1) rotate(0) translate(4 95.5)">
<title>Ra::Gui::Gizmo::~Gizmo</title>
<polygon fill="white" stroke="transparent" points="-4,4 -4,-95.5 846,-95.5 846,4 -4,4"/>
<!-- Node1 -->
<g id="node1" class="node">
<title>Node1</title>
<g id="a_node1"><a xlink:title=" ">
<polygon fill="#bfbfbf" stroke="black" points="0,-38.5 0,-57.5 135,-57.5 135,-38.5 0,-38.5"/>
<text text-anchor="middle" x="67.5" y="-45.5" font-family="Helvetica,sans-Serif" font-size="10.00">Ra::Gui::Gizmo::~Gizmo</text>
</a>
</g>
</g>
<!-- Node2 -->
<g id="node2" class="node">
<title>Node2</title>
<g id="a_node2"><a xlink:href="classRa_1_1Engine_1_1Scene_1_1Component.html#ac7d9c1724b1e2d41df8155f4aae08919" target="_top" xlink:title="Remove the render object from the component.">
<polygon fill="white" stroke="black" points="171,-33 171,-63 353,-63 353,-33 171,-33"/>
<text text-anchor="start" x="179" y="-51" font-family="Helvetica,sans-Serif" font-size="10.00">Ra::Engine::Scene::</text>
<text text-anchor="middle" x="262" y="-40" font-family="Helvetica,sans-Serif" font-size="10.00">Component::removeRenderObject</text>
</a>
</g>
</g>
<!-- Node1&#45;&gt;Node2 -->
<g id="edge1" class="edge">
<title>Node1&#45;&gt;Node2</title>
<path fill="none" stroke="midnightblue" d="M135.02,-48C143.3,-48 151.9,-48 160.55,-48"/>
<polygon fill="midnightblue" stroke="midnightblue" points="160.71,-51.5 170.71,-48 160.71,-44.5 160.71,-51.5"/>
</g>
<!-- Node3 -->
<g id="node3" class="node">
<title>Node3</title>
<g id="a_node3"><a xlink:href="classRa_1_1Engine_1_1Scene_1_1Component.html#a32a4bfb4e9b24644d680db3852099ff3" target="_top" xlink:title="Shortcut to access the render object manager.">
<polygon fill="white" stroke="black" points="391.5,-61 391.5,-91 517.5,-91 517.5,-61 391.5,-61"/>
<text text-anchor="start" x="399.5" y="-79" font-family="Helvetica,sans-Serif" font-size="10.00">Ra::Engine::Scene::</text>
<text text-anchor="middle" x="454.5" y="-68" font-family="Helvetica,sans-Serif" font-size="10.00">Component::getRoMgr</text>
</a>
</g>
</g>
<!-- Node2&#45;&gt;Node3 -->
<g id="edge2" class="edge">
<title>Node2&#45;&gt;Node3</title>
<path fill="none" stroke="midnightblue" d="M353.23,-61.26C362.59,-62.64 372.02,-64.02 381.15,-65.37"/>
<polygon fill="midnightblue" stroke="midnightblue" points="380.91,-68.87 391.31,-66.86 381.93,-61.94 380.91,-68.87"/>
</g>
<!-- Node4 -->
<g id="node4" class="node">
<title>Node4</title>
<g id="a_node4"><a xlink:href="classRa_1_1Engine_1_1Rendering_1_1RenderObjectManager.html#a596adc9933b3c9089e61ddde477aa7c6" target="_top" xlink:title=" ">
<polygon fill="white" stroke="black" points="389,-0.5 389,-41.5 520,-41.5 520,-0.5 389,-0.5"/>
<text text-anchor="start" x="397" y="-29.5" font-family="Helvetica,sans-Serif" font-size="10.00">Ra::Engine::Rendering</text>
<text text-anchor="start" x="397" y="-18.5" font-family="Helvetica,sans-Serif" font-size="10.00">::RenderObjectManager</text>
<text text-anchor="middle" x="454.5" y="-7.5" font-family="Helvetica,sans-Serif" font-size="10.00">::removeRenderObject</text>
</a>
</g>
</g>
<!-- Node2&#45;&gt;Node4 -->
<g id="edge3" class="edge">
<title>Node2&#45;&gt;Node4</title>
<path fill="none" stroke="midnightblue" d="M353.23,-35.21C361.78,-34 370.38,-32.78 378.75,-31.59"/>
<polygon fill="midnightblue" stroke="midnightblue" points="379.43,-35.03 388.84,-30.16 378.45,-28.1 379.43,-35.03"/>
</g>
<!-- Node5 -->
<g id="node5" class="node">
<title>Node5</title>
<g id="a_node5"><a xlink:href="classRa_1_1Engine_1_1Rendering_1_1RenderObjectManager.html#ae3edd3941dd9eee4cb1988318e47a4ca" target="_top" xlink:title=" ">
<polygon fill="white" stroke="black" points="556,-0.5 556,-41.5 687,-41.5 687,-0.5 556,-0.5"/>
<text text-anchor="start" x="564" y="-29.5" font-family="Helvetica,sans-Serif" font-size="10.00">Ra::Engine::Rendering</text>
<text text-anchor="start" x="564" y="-18.5" font-family="Helvetica,sans-Serif" font-size="10.00">::RenderObjectManager</text>
<text text-anchor="middle" x="621.5" y="-7.5" font-family="Helvetica,sans-Serif" font-size="10.00">::exists</text>
</a>
</g>
</g>
<!-- Node4&#45;&gt;Node5 -->
<g id="edge4" class="edge">
<title>Node4&#45;&gt;Node5</title>
<path fill="none" stroke="midnightblue" d="M520.24,-21C528.58,-21 537.18,-21 545.67,-21"/>
<polygon fill="midnightblue" stroke="midnightblue" points="545.95,-24.5 555.95,-21 545.95,-17.5 545.95,-24.5"/>
</g>
<!-- Node6 -->
<g id="node6" class="node">
<title>Node6</title>
<g id="a_node6"><a xlink:href="classRa_1_1Core_1_1Utils_1_1Index.html#ac1a3e02d77abd15c2a307673f5b67fa1" target="_top" xlink:title="VALID.">
<polygon fill="white" stroke="black" points="723,-6 723,-36 842,-36 842,-6 723,-6"/>
<text text-anchor="start" x="731" y="-24" font-family="Helvetica,sans-Serif" font-size="10.00">Ra::Core::Utils::Index</text>
<text text-anchor="middle" x="782.5" y="-13" font-family="Helvetica,sans-Serif" font-size="10.00">::isValid</text>
</a>
</g>
</g>
<!-- Node5&#45;&gt;Node6 -->
<g id="edge5" class="edge">
<title>Node5&#45;&gt;Node6</title>
<path fill="none" stroke="midnightblue" d="M687.17,-21C695.55,-21 704.15,-21 712.59,-21"/>
<polygon fill="midnightblue" stroke="midnightblue" points="712.77,-24.5 722.77,-21 712.77,-17.5 712.77,-24.5"/>
</g>
</g>
</svg>
