<?xml version="1.0" encoding="UTF-8" standalone="no"?>
<!DOCTYPE svg PUBLIC "-//W3C//DTD SVG 1.1//EN"
 "http://www.w3.org/Graphics/SVG/1.1/DTD/svg11.dtd">
<!-- Generated by graphviz version 2.43.0 (0)
 -->
<!-- Title: Ra::GuiBase::TransformEditor Pages: 1 -->
<!--zoomable 1609 -->
<svg id="main" version="1.1" xmlns="http://www.w3.org/2000/svg" xmlns:xlink="http://www.w3.org/1999/xlink" xml:space="preserve" onload="init(evt)">
<style type="text/css"><![CDATA[
.edge:hover path { stroke: red; }
.edge:hover polygon { stroke: red; fill: red; }
]]></style>
<script type="text/javascript"><![CDATA[
var edges = document.getElementsByTagName('g');
if (edges && edges.length) {
  for (var i=0;i<edges.length;i++) {
    if (edges[i].id.substr(0,4)=='edge') {
      edges[i].setAttribute('class','edge');
    }
  }
}
]]></script>
        <defs>
                <circle id="rim" cx="0" cy="0" r="7"/>
                <circle id="rim2" cx="0" cy="0" r="3.5"/>
                <g id="zoomPlus">
                        <use xlink:href="#rim" fill="#404040">
                                <set attributeName="fill" to="#808080" begin="zoomplus.mouseover" end="zoomplus.mouseout"/>
                        </use>
                        <path d="M-4,0h8M0,-4v8" fill="none" stroke="white" stroke-width="1.5" pointer-events="none"/>
                </g>
                <g id="zoomMin">
                        <use xlink:href="#rim" fill="#404040">
                                <set attributeName="fill" to="#808080" begin="zoomminus.mouseover" end="zoomminus.mouseout"/>
                        </use>
                        <path d="M-4,0h8" fill="none" stroke="white" stroke-width="1.5" pointer-events="none"/>
                </g>
                <g id="dirArrow">
                        <path fill="none" stroke="white" stroke-width="1.5" d="M0,-3.0v7 M-2.5,-0.5L0,-3.0L2.5,-0.5"/>
                </g>
               <g id="resetDef">
                       <use xlink:href="#rim2" fill="#404040">
                               <set attributeName="fill" to="#808080" begin="reset.mouseover" end="reset.mouseout"/>
                       </use>
               </g>
        </defs>

<script type="text/javascript">
var viewWidth = 707;
var viewHeight = 1609;
var sectionId = 'dynsection-1';
</script>
<script xlink:href="svgpan.js"/>
<svg id="graph" class="graph">
<g id="viewport">
<title>Ra::GuiBase::TransformEditor</title>
<polygon fill="white" stroke="transparent" points="-4,4 -4,-1605 703,-1605 703,4 -4,4"/>
<!-- Node1 -->
<g id="node1" class="node">
<title>Node1</title>
<g id="a_node1"><a xlink:title=" ">
<polygon fill="#bfbfbf" stroke="black" points="495.5,-0.5 495.5,-134.5 654.5,-134.5 654.5,-0.5 495.5,-0.5"/>
<text text-anchor="middle" x="575" y="-122.5" font-family="Helvetica,sans-Serif" font-size="10.00">Ra::GuiBase::TransformEditor</text>
<polyline fill="none" stroke="black" points="495.5,-115.5 654.5,-115.5 "/>
<text text-anchor="middle" x="575" y="-103.5" font-family="Helvetica,sans-Serif" font-size="10.00"> </text>
<polyline fill="none" stroke="black" points="495.5,-96.5 654.5,-96.5 "/>
<text text-anchor="start" x="503.5" y="-84.5" font-family="Helvetica,sans-Serif" font-size="10.00">+ TransformEditor()</text>
<text text-anchor="start" x="503.5" y="-73.5" font-family="Helvetica,sans-Serif" font-size="10.00">+ ~TransformEditor()</text>
<text text-anchor="start" x="503.5" y="-62.5" font-family="Helvetica,sans-Serif" font-size="10.00">+ setEditable()</text>
<text text-anchor="start" x="503.5" y="-51.5" font-family="Helvetica,sans-Serif" font-size="10.00">+ updateValues()</text>
<text text-anchor="start" x="503.5" y="-40.5" font-family="Helvetica,sans-Serif" font-size="10.00"># getTransform()</text>
<text text-anchor="start" x="503.5" y="-29.5" font-family="Helvetica,sans-Serif" font-size="10.00"># setTransform()</text>
<text text-anchor="start" x="503.5" y="-18.5" font-family="Helvetica,sans-Serif" font-size="10.00"># canEdit()</text>
<text text-anchor="start" x="503.5" y="-7.5" font-family="Helvetica,sans-Serif" font-size="10.00"># getWorldTransform()</text>
</a>
</g>
</g>
<!-- Node2 -->
<g id="node2" class="node">
<title>Node2</title>
<g id="a_node2"><a xlink:href="structRa_1_1Engine_1_1ItemEntry.html" target="_top" xlink:title=" ">
<polygon fill="white" stroke="black" points="444.5,-182.5 444.5,-327.5 569.5,-327.5 569.5,-182.5 444.5,-182.5"/>
<text text-anchor="middle" x="507" y="-315.5" font-family="Helvetica,sans-Serif" font-size="10.00">Ra::Engine::ItemEntry</text>
<polyline fill="none" stroke="black" points="444.5,-308.5 569.5,-308.5 "/>
<text text-anchor="middle" x="507" y="-296.5" font-family="Helvetica,sans-Serif" font-size="10.00"> </text>
<polyline fill="none" stroke="black" points="444.5,-289.5 569.5,-289.5 "/>
<text text-anchor="start" x="452.5" y="-277.5" font-family="Helvetica,sans-Serif" font-size="10.00">+ ItemEntry()</text>
<text text-anchor="start" x="452.5" y="-266.5" font-family="Helvetica,sans-Serif" font-size="10.00">+ ItemEntry()</text>
<text text-anchor="start" x="452.5" y="-255.5" font-family="Helvetica,sans-Serif" font-size="10.00">+ operator==()</text>
<text text-anchor="start" x="452.5" y="-244.5" font-family="Helvetica,sans-Serif" font-size="10.00">+ isValid()</text>
<text text-anchor="start" x="452.5" y="-233.5" font-family="Helvetica,sans-Serif" font-size="10.00">+ isSelectable()</text>
<text text-anchor="start" x="452.5" y="-222.5" font-family="Helvetica,sans-Serif" font-size="10.00">+ isEntityNode()</text>
<text text-anchor="start" x="452.5" y="-211.5" font-family="Helvetica,sans-Serif" font-size="10.00">+ isComponentNode()</text>
<text text-anchor="start" x="452.5" y="-200.5" font-family="Helvetica,sans-Serif" font-size="10.00">+ isRoNode()</text>
<text text-anchor="start" x="452.5" y="-189.5" font-family="Helvetica,sans-Serif" font-size="10.00">+ checkConsistency()</text>
</a>
</g>
</g>
<!-- Node2&#45;&gt;Node1 -->
<g id="edge1" class="edge">
<title>Node2&#45;&gt;Node1</title>
<path fill="none" stroke="#404040" d="M530.54,-182.37C533.96,-172.47 537.51,-162.46 541,-153 541.82,-150.77 542.66,-148.52 543.52,-146.25"/>
<polygon fill="none" stroke="#404040" points="543.62,-145.99 542.03,-138.96 547.91,-134.78 549.5,-141.82 543.62,-145.99"/>
<text text-anchor="middle" x="581" y="-156" font-family="Helvetica,sans-Serif" font-size="10.00"> #m_currentEdit</text>
</g>
<!-- Node3 -->
<g id="node3" class="node">
<title>Node3</title>
<g id="a_node3"><a xlink:href="classRa_1_1Engine_1_1Component.html" target="_top" xlink:title="A component is an element that can be updated by a system. It is also linked to some other components...">
<polygon fill="white" stroke="black" points="239,-375.5 239,-597.5 405,-597.5 405,-375.5 239,-375.5"/>
<text text-anchor="middle" x="322" y="-585.5" font-family="Helvetica,sans-Serif" font-size="10.00">Ra::Engine::Component</text>
<polyline fill="none" stroke="black" points="239,-578.5 405,-578.5 "/>
<text text-anchor="middle" x="322" y="-566.5" font-family="Helvetica,sans-Serif" font-size="10.00"> </text>
<polyline fill="none" stroke="black" points="239,-559.5 405,-559.5 "/>
<text text-anchor="start" x="247" y="-547.5" font-family="Helvetica,sans-Serif" font-size="10.00">+ Component()</text>
<text text-anchor="start" x="247" y="-536.5" font-family="Helvetica,sans-Serif" font-size="10.00">+ ~Component()</text>
<text text-anchor="start" x="247" y="-525.5" font-family="Helvetica,sans-Serif" font-size="10.00">+ initialize()</text>
<text text-anchor="start" x="247" y="-514.5" font-family="Helvetica,sans-Serif" font-size="10.00">+ setEntity()</text>
<text text-anchor="start" x="247" y="-503.5" font-family="Helvetica,sans-Serif" font-size="10.00">+ getEntity()</text>
<text text-anchor="start" x="247" y="-492.5" font-family="Helvetica,sans-Serif" font-size="10.00">+ getName()</text>
<text text-anchor="start" x="247" y="-481.5" font-family="Helvetica,sans-Serif" font-size="10.00">+ setSystem()</text>
<text text-anchor="start" x="247" y="-470.5" font-family="Helvetica,sans-Serif" font-size="10.00">+ getSystem()</text>
<text text-anchor="start" x="247" y="-459.5" font-family="Helvetica,sans-Serif" font-size="10.00">+ addRenderObject()</text>
<text text-anchor="start" x="247" y="-448.5" font-family="Helvetica,sans-Serif" font-size="10.00">+ removeRenderObject()</text>
<text text-anchor="start" x="247" y="-437.5" font-family="Helvetica,sans-Serif" font-size="10.00">+ canEdit()</text>
<text text-anchor="start" x="247" y="-426.5" font-family="Helvetica,sans-Serif" font-size="10.00">+ getTransform()</text>
<text text-anchor="start" x="247" y="-415.5" font-family="Helvetica,sans-Serif" font-size="10.00">+ setTransform()</text>
<text text-anchor="start" x="247" y="-404.5" font-family="Helvetica,sans-Serif" font-size="10.00">+ notifyRenderObjectExpired()</text>
<text text-anchor="start" x="247" y="-393.5" font-family="Helvetica,sans-Serif" font-size="10.00">+ computeAabb()</text>
<text text-anchor="start" x="247" y="-382.5" font-family="Helvetica,sans-Serif" font-size="10.00"># getRoMgr()</text>
</a>
</g>
</g>
<!-- Node3&#45;&gt;Node2 -->
<g id="edge2" class="edge">
<title>Node3&#45;&gt;Node2</title>
<path fill="none" stroke="#404040" d="M388.44,-375.5C395.72,-365.28 403.29,-355.28 411,-346 418.55,-336.9 426.97,-327.81 435.6,-319.08"/>
<polygon fill="none" stroke="#404040" points="435.75,-318.93 437.2,-311.87 444.28,-310.49 442.83,-317.56 435.75,-318.93"/>
<text text-anchor="middle" x="452" y="-349" font-family="Helvetica,sans-Serif" font-size="10.00"> +m_component</text>
</g>
<!-- Node4 -->
<g id="node4" class="node">
<title>Node4</title>
<g id="a_node4"><a xlink:title=" ">
<polygon fill="white" stroke="#bfbfbf" points="316.5,-959.5 316.5,-1027.5 437.5,-1027.5 437.5,-959.5 316.5,-959.5"/>
<text text-anchor="start" x="324.5" y="-1015.5" font-family="Helvetica,sans-Serif" font-size="10.00">std::vector&lt; Ra::Core</text>
<text text-anchor="middle" x="377" y="-1004.5" font-family="Helvetica,sans-Serif" font-size="10.00">::Utils::Index &gt;</text>
<polyline fill="none" stroke="#bfbfbf" points="316.5,-997.5 437.5,-997.5 "/>
<text text-anchor="middle" x="377" y="-985.5" font-family="Helvetica,sans-Serif" font-size="10.00"> </text>
<polyline fill="none" stroke="#bfbfbf" points="316.5,-978.5 437.5,-978.5 "/>
<text text-anchor="middle" x="377" y="-966.5" font-family="Helvetica,sans-Serif" font-size="10.00"> </text>
</a>
</g>
</g>
<!-- Node4&#45;&gt;Node3 -->
<g id="edge3" class="edge">
<title>Node4&#45;&gt;Node3</title>
<path fill="none" stroke="#404040" d="M357.89,-959.06C347.82,-939.58 336.46,-914.16 331,-890 310.17,-797.75 308.84,-690.58 312.22,-610.03"/>
<polygon fill="none" stroke="#404040" points="312.23,-609.82 308.51,-603.65 312.78,-597.84 316.5,-604.01 312.23,-609.82"/>
<text text-anchor="middle" x="378.5" y="-765" font-family="Helvetica,sans-Serif" font-size="10.00"> +m_renderObjects</text>
</g>
<!-- Node5 -->
<g id="node5" class="node">
<title>Node5</title>
<g id="a_node5"><a xlink:href="classRa_1_1Core_1_1Utils_1_1Index.html" target="_top" xlink:title=" ">
<polygon fill="white" stroke="black" points="465.5,-1119.5 465.5,-1495.5 602.5,-1495.5 602.5,-1119.5 465.5,-1119.5"/>
<text text-anchor="middle" x="534" y="-1483.5" font-family="Helvetica,sans-Serif" font-size="10.00">Ra::Core::Utils::Index</text>
<polyline fill="none" stroke="black" points="465.5,-1476.5 602.5,-1476.5 "/>
<text text-anchor="middle" x="534" y="-1464.5" font-family="Helvetica,sans-Serif" font-size="10.00"> </text>
<polyline fill="none" stroke="black" points="465.5,-1457.5 602.5,-1457.5 "/>
<text text-anchor="start" x="473.5" y="-1445.5" font-family="Helvetica,sans-Serif" font-size="10.00">+ Index()</text>
<text text-anchor="start" x="473.5" y="-1434.5" font-family="Helvetica,sans-Serif" font-size="10.00">+ Index()</text>
<text text-anchor="start" x="473.5" y="-1423.5" font-family="Helvetica,sans-Serif" font-size="10.00">+ operator=()</text>
<text text-anchor="start" x="473.5" y="-1412.5" font-family="Helvetica,sans-Serif" font-size="10.00">+ isValid()</text>
<text text-anchor="start" x="473.5" y="-1401.5" font-family="Helvetica,sans-Serif" font-size="10.00">+ isInvalid()</text>
<text text-anchor="start" x="473.5" y="-1390.5" font-family="Helvetica,sans-Serif" font-size="10.00">+ setInvalid()</text>
<text text-anchor="start" x="473.5" y="-1379.5" font-family="Helvetica,sans-Serif" font-size="10.00">+ getValue()</text>
<text text-anchor="start" x="473.5" y="-1368.5" font-family="Helvetica,sans-Serif" font-size="10.00">+ setValue()</text>
<text text-anchor="start" x="473.5" y="-1357.5" font-family="Helvetica,sans-Serif" font-size="10.00">+ operator IntegerType()</text>
<text text-anchor="start" x="473.5" y="-1346.5" font-family="Helvetica,sans-Serif" font-size="10.00">+ operator=()</text>
<text text-anchor="start" x="473.5" y="-1335.5" font-family="Helvetica,sans-Serif" font-size="10.00">+ operator++()</text>
<text text-anchor="start" x="473.5" y="-1324.5" font-family="Helvetica,sans-Serif" font-size="10.00">+ operator&#45;&#45;()</text>
<text text-anchor="start" x="473.5" y="-1313.5" font-family="Helvetica,sans-Serif" font-size="10.00">+ operator+()</text>
<text text-anchor="start" x="473.5" y="-1302.5" font-family="Helvetica,sans-Serif" font-size="10.00">+ operator+()</text>
<text text-anchor="start" x="473.5" y="-1291.5" font-family="Helvetica,sans-Serif" font-size="10.00">+ operator&#45;()</text>
<text text-anchor="start" x="473.5" y="-1280.5" font-family="Helvetica,sans-Serif" font-size="10.00">+ operator&#45;()</text>
<text text-anchor="start" x="473.5" y="-1269.5" font-family="Helvetica,sans-Serif" font-size="10.00">+ operator==()</text>
<text text-anchor="start" x="473.5" y="-1258.5" font-family="Helvetica,sans-Serif" font-size="10.00">+ operator==()</text>
<text text-anchor="start" x="473.5" y="-1247.5" font-family="Helvetica,sans-Serif" font-size="10.00">+ operator!=()</text>
<text text-anchor="start" x="473.5" y="-1236.5" font-family="Helvetica,sans-Serif" font-size="10.00">+ operator!=()</text>
<text text-anchor="start" x="473.5" y="-1225.5" font-family="Helvetica,sans-Serif" font-size="10.00">+ operator&lt;()</text>
<text text-anchor="start" x="473.5" y="-1214.5" font-family="Helvetica,sans-Serif" font-size="10.00">+ operator&lt;()</text>
<text text-anchor="start" x="473.5" y="-1203.5" font-family="Helvetica,sans-Serif" font-size="10.00">+ operator&lt;=()</text>
<text text-anchor="start" x="473.5" y="-1192.5" font-family="Helvetica,sans-Serif" font-size="10.00">+ operator&lt;=()</text>
<text text-anchor="start" x="473.5" y="-1181.5" font-family="Helvetica,sans-Serif" font-size="10.00">+ operator&gt;()</text>
<text text-anchor="start" x="473.5" y="-1170.5" font-family="Helvetica,sans-Serif" font-size="10.00">+ operator&gt;()</text>
<text text-anchor="start" x="473.5" y="-1159.5" font-family="Helvetica,sans-Serif" font-size="10.00">+ operator&gt;=()</text>
<text text-anchor="start" x="473.5" y="-1148.5" font-family="Helvetica,sans-Serif" font-size="10.00">+ operator&gt;=()</text>
<text text-anchor="start" x="473.5" y="-1137.5" font-family="Helvetica,sans-Serif" font-size="10.00">+ Invalid()</text>
<text text-anchor="start" x="473.5" y="-1126.5" font-family="Helvetica,sans-Serif" font-size="10.00">+ Max()</text>
</a>
</g>
</g>
<!-- Node5&#45;&gt;Node2 -->
<g id="edge17" class="edge">
<title>Node5&#45;&gt;Node2</title>
<path fill="none" stroke="#404040" d="M598.9,-1119.18C608.37,-1078.57 615,-1035.49 615,-994.5 615,-994.5 615,-994.5 615,-485.5 615,-433.23 591.78,-380.1 566.88,-338.14"/>
<polygon fill="none" stroke="#404040" points="566.77,-337.96 560.23,-334.92 560.53,-327.72 567.06,-330.76 566.77,-337.96"/>
<text text-anchor="middle" x="647" y="-765" font-family="Helvetica,sans-Serif" font-size="10.00"> +m_roIndex</text>
</g>
<!-- Node5&#45;&gt;Node4 -->
<g id="edge4" class="edge">
<title>Node5&#45;&gt;Node4</title>
<path fill="none" stroke="#404040" d="M465.45,-1134.82C454.7,-1111.95 443.12,-1089.13 431,-1068 425.15,-1057.81 418.16,-1047.34 411.17,-1037.63"/>
<polygon fill="none" stroke="#404040" points="411.06,-1037.48 404.28,-1035.02 403.94,-1027.81 410.72,-1030.27 411.06,-1037.48"/>
<text text-anchor="middle" x="477" y="-1082" font-family="Helvetica,sans-Serif" font-size="10.00"> +elements</text>
</g>
<!-- Node13 -->
<g id="node13" class="node">
<title>Node13</title>
<g id="a_node13"><a xlink:href="classRa_1_1Core_1_1Utils_1_1IndexedObject.html" target="_top" xlink:title=" ">
<polygon fill="white" stroke="black" points="455.5,-937.5 455.5,-1049.5 586.5,-1049.5 586.5,-937.5 455.5,-937.5"/>
<text text-anchor="start" x="463.5" y="-1037.5" font-family="Helvetica,sans-Serif" font-size="10.00">Ra::Core::Utils::Indexed</text>
<text text-anchor="middle" x="521" y="-1026.5" font-family="Helvetica,sans-Serif" font-size="10.00">Object</text>
<polyline fill="none" stroke="black" points="455.5,-1019.5 586.5,-1019.5 "/>
<text text-anchor="middle" x="521" y="-1007.5" font-family="Helvetica,sans-Serif" font-size="10.00"> </text>
<polyline fill="none" stroke="black" points="455.5,-1000.5 586.5,-1000.5 "/>
<text text-anchor="start" x="463.5" y="-988.5" font-family="Helvetica,sans-Serif" font-size="10.00">+ IndexedObject()</text>
<text text-anchor="start" x="463.5" y="-977.5" font-family="Helvetica,sans-Serif" font-size="10.00">+ IndexedObject()</text>
<text text-anchor="start" x="463.5" y="-966.5" font-family="Helvetica,sans-Serif" font-size="10.00">+ ~IndexedObject()</text>
<text text-anchor="start" x="463.5" y="-955.5" font-family="Helvetica,sans-Serif" font-size="10.00">+ setIndex()</text>
<text text-anchor="start" x="463.5" y="-944.5" font-family="Helvetica,sans-Serif" font-size="10.00">+ getIndex()</text>
</a>
</g>
</g>
<!-- Node5&#45;&gt;Node13 -->
<g id="edge14" class="edge">
<title>Node5&#45;&gt;Node13</title>
<path fill="none" stroke="#404040" d="M526.19,-1119.16C525.34,-1098.75 524.52,-1079.09 523.8,-1061.65"/>
<polygon fill="none" stroke="#404040" points="523.8,-1061.65 519.55,-1055.82 523.3,-1049.66 527.54,-1055.49 523.8,-1061.65"/>
<text text-anchor="middle" x="547" y="-1082" font-family="Helvetica,sans-Serif" font-size="10.00"> #m_idx</text>
</g>
<!-- Node6 -->
<g id="node6" class="node">
<title>Node6</title>
<g id="a_node6"><a xlink:href="classint.html" target="_top" xlink:title=" ">
<polygon fill="white" stroke="black" points="519.5,-1543.5 519.5,-1600.5 548.5,-1600.5 548.5,-1543.5 519.5,-1543.5"/>
<text text-anchor="middle" x="534" y="-1588.5" font-family="Helvetica,sans-Serif" font-size="10.00">int</text>
<polyline fill="none" stroke="black" points="519.5,-1581.5 548.5,-1581.5 "/>
<text text-anchor="middle" x="534" y="-1569.5" font-family="Helvetica,sans-Serif" font-size="10.00"> </text>
<polyline fill="none" stroke="black" points="519.5,-1562.5 548.5,-1562.5 "/>
<text text-anchor="middle" x="534" y="-1550.5" font-family="Helvetica,sans-Serif" font-size="10.00"> </text>
</a>
</g>
</g>
<!-- Node6&#45;&gt;Node5 -->
<g id="edge5" class="edge">
<title>Node6&#45;&gt;Node5</title>
<path fill="none" stroke="#404040" d="M534,-1543.4C534,-1533.43 534,-1521.26 534,-1507.76"/>
<polygon fill="none" stroke="#404040" points="534,-1507.58 530,-1501.58 534,-1495.58 538,-1501.58 534,-1507.58"/>
<text text-anchor="middle" x="555" y="-1517" font-family="Helvetica,sans-Serif" font-size="10.00"> #m_idx</text>
</g>
<!-- Node7 -->
<g id="node7" class="node">
<title>Node7</title>
<g id="a_node7"><a xlink:title="STL class.">
<polygon fill="white" stroke="#bfbfbf" points="224.5,-1279 224.5,-1336 321.5,-1336 321.5,-1279 224.5,-1279"/>
<text text-anchor="middle" x="273" y="-1324" font-family="Helvetica,sans-Serif" font-size="10.00">std::vector&lt; T &gt;</text>
<polyline fill="none" stroke="#bfbfbf" points="224.5,-1317 321.5,-1317 "/>
<text text-anchor="middle" x="273" y="-1305" font-family="Helvetica,sans-Serif" font-size="10.00"> </text>
<polyline fill="none" stroke="#bfbfbf" points="224.5,-1298 321.5,-1298 "/>
<text text-anchor="middle" x="273" y="-1286" font-family="Helvetica,sans-Serif" font-size="10.00"> </text>
</a>
</g>
</g>
<!-- Node7&#45;&gt;Node4 -->
<g id="edge6" class="edge">
<title>Node7&#45;&gt;Node4</title>
<path fill="none" stroke="orange" d="M281.2,-1268.89C292.11,-1221.27 313.19,-1137.11 340,-1068 345.27,-1054.41 352.22,-1039.99 358.66,-1027.54"/>
<polygon fill="orange" stroke="orange" points="277.76,-1268.23 278.96,-1278.76 284.58,-1269.78 277.76,-1268.23"/>
<text text-anchor="start" x="340" y="-1087.5" font-family="Helvetica,sans-Serif" font-size="10.00"> &lt; Ra::Core::Utils::</text>
<text text-anchor="middle" x="385.5" y="-1076.5" font-family="Helvetica,sans-Serif" font-size="10.00">Index &gt;</text>
</g>
<!-- Node10 -->
<g id="node10" class="node">
<title>Node10</title>
<g id="a_node10"><a xlink:title=" ">
<polygon fill="white" stroke="#bfbfbf" points="0,-954 0,-1033 176,-1033 176,-954 0,-954"/>
<text text-anchor="start" x="8" y="-1021" font-family="Helvetica,sans-Serif" font-size="10.00">std::vector&lt; std::pair</text>
<text text-anchor="start" x="8" y="-1010" font-family="Helvetica,sans-Serif" font-size="10.00">&lt; const Ra::Engine::Entity</text>
<text text-anchor="middle" x="88" y="-999" font-family="Helvetica,sans-Serif" font-size="10.00"> *, Ra::Engine::Component * &gt; &gt;</text>
<polyline fill="none" stroke="#bfbfbf" points="0,-992 176,-992 "/>
<text text-anchor="middle" x="88" y="-980" font-family="Helvetica,sans-Serif" font-size="10.00"> </text>
<polyline fill="none" stroke="#bfbfbf" points="0,-973 176,-973 "/>
<text text-anchor="middle" x="88" y="-961" font-family="Helvetica,sans-Serif" font-size="10.00"> </text>
</a>
</g>
</g>
<!-- Node7&#45;&gt;Node10 -->
<g id="edge11" class="edge">
<title>Node7&#45;&gt;Node10</title>
<path fill="none" stroke="orange" d="M252.15,-1269.9C225.26,-1222.9 176.86,-1138.95 134,-1068 127.15,-1056.66 119.57,-1044.43 112.58,-1033.27"/>
<polygon fill="orange" stroke="orange" points="249.23,-1271.85 257.23,-1278.79 255.3,-1268.37 249.23,-1271.85"/>
<text text-anchor="start" x="154" y="-1093" font-family="Helvetica,sans-Serif" font-size="10.00"> &lt; std::pair&lt; const</text>
<text text-anchor="start" x="154" y="-1082" font-family="Helvetica,sans-Serif" font-size="10.00"> Ra::Engine::Entity</text>
<text text-anchor="middle" x="234" y="-1071" font-family="Helvetica,sans-Serif" font-size="10.00"> *, Ra::Engine::Component * &gt; &gt;</text>
</g>
<!-- Node8 -->
<g id="node8" class="node">
<title>Node8</title>
<g id="a_node8"><a xlink:title=" ">
<polygon fill="white" stroke="#bfbfbf" points="258.5,-1543.5 258.5,-1600.5 287.5,-1600.5 287.5,-1543.5 258.5,-1543.5"/>
<text text-anchor="middle" x="273" y="-1588.5" font-family="Helvetica,sans-Serif" font-size="10.00">T</text>
<polyline fill="none" stroke="#bfbfbf" points="258.5,-1581.5 287.5,-1581.5 "/>
<text text-anchor="middle" x="273" y="-1569.5" font-family="Helvetica,sans-Serif" font-size="10.00"> </text>
<polyline fill="none" stroke="#bfbfbf" points="258.5,-1562.5 287.5,-1562.5 "/>
<text text-anchor="middle" x="273" y="-1550.5" font-family="Helvetica,sans-Serif" font-size="10.00"> </text>
</a>
</g>
</g>
<!-- Node8&#45;&gt;Node7 -->
<g id="edge7" class="edge">
<title>Node8&#45;&gt;Node7</title>
<path fill="none" stroke="#404040" d="M273,-1543.4C273,-1496.73 273,-1402.04 273,-1348.23"/>
<polygon fill="none" stroke="#404040" points="273,-1348.12 269,-1342.12 273,-1336.12 277,-1342.12 273,-1348.12"/>
<text text-anchor="middle" x="302" y="-1517" font-family="Helvetica,sans-Serif" font-size="10.00"> +elements</text>
</g>
<!-- Node9 -->
<g id="node9" class="node">
<title>Node9</title>
<g id="a_node9"><a xlink:href="classRa_1_1Engine_1_1System.html" target="_top" xlink:title=" ">
<polygon fill="white" stroke="black" points="30.5,-695 30.5,-840 189.5,-840 189.5,-695 30.5,-695"/>
<text text-anchor="middle" x="110" y="-828" font-family="Helvetica,sans-Serif" font-size="10.00">Ra::Engine::System</text>
<polyline fill="none" stroke="black" points="30.5,-821 189.5,-821 "/>
<text text-anchor="middle" x="110" y="-809" font-family="Helvetica,sans-Serif" font-size="10.00"> </text>
<polyline fill="none" stroke="black" points="30.5,-802 189.5,-802 "/>
<text text-anchor="start" x="38.5" y="-790" font-family="Helvetica,sans-Serif" font-size="10.00">+ System()</text>
<text text-anchor="start" x="38.5" y="-779" font-family="Helvetica,sans-Serif" font-size="10.00">+ ~System()</text>
<text text-anchor="start" x="38.5" y="-768" font-family="Helvetica,sans-Serif" font-size="10.00">+ handleAssetLoading()</text>
<text text-anchor="start" x="38.5" y="-757" font-family="Helvetica,sans-Serif" font-size="10.00">+ generateTasks()</text>
<text text-anchor="start" x="38.5" y="-746" font-family="Helvetica,sans-Serif" font-size="10.00">+ getEntityComponents()</text>
<text text-anchor="start" x="38.5" y="-735" font-family="Helvetica,sans-Serif" font-size="10.00">+ addComponent()</text>
<text text-anchor="start" x="38.5" y="-724" font-family="Helvetica,sans-Serif" font-size="10.00"># registerComponent()</text>
<text text-anchor="start" x="38.5" y="-713" font-family="Helvetica,sans-Serif" font-size="10.00"># unregisterComponent()</text>
<text text-anchor="start" x="38.5" y="-702" font-family="Helvetica,sans-Serif" font-size="10.00"># unregisterAllComponents()</text>
</a>
</g>
</g>
<!-- Node9&#45;&gt;Node3 -->
<g id="edge8" class="edge">
<title>Node9&#45;&gt;Node3</title>
<path fill="none" stroke="#404040" d="M139.29,-694.95C151.55,-668.91 167.13,-640 185,-616 198.14,-598.34 213.88,-581.06 229.93,-565.19"/>
<polygon fill="none" stroke="#404040" points="230.25,-564.88 231.77,-557.83 238.86,-556.52 237.34,-563.57 230.25,-564.88"/>
<text text-anchor="middle" x="216.5" y="-619" font-family="Helvetica,sans-Serif" font-size="10.00"> #m_system</text>
</g>
<!-- Node10&#45;&gt;Node9 -->
<g id="edge9" class="edge">
<title>Node10&#45;&gt;Node9</title>
<path fill="none" stroke="#404040" d="M91.78,-953.99C94.52,-926.13 98.32,-887.41 101.75,-852.54"/>
<polygon fill="none" stroke="#404040" points="101.77,-852.34 98.37,-845.97 102.94,-840.39 106.33,-846.76 101.77,-852.34"/>
<text text-anchor="middle" x="139.5" y="-911" font-family="Helvetica,sans-Serif" font-size="10.00"> #m_components</text>
</g>
<!-- Node11 -->
<g id="node11" class="node">
<title>Node11</title>
<g id="a_node11"><a xlink:title=" ">
<polygon fill="white" stroke="#bfbfbf" points="11,-1268 11,-1347 139,-1347 139,-1268 11,-1268"/>
<text text-anchor="start" x="19" y="-1335" font-family="Helvetica,sans-Serif" font-size="10.00">pair&lt; const Ra::Engine</text>
<text text-anchor="start" x="19" y="-1324" font-family="Helvetica,sans-Serif" font-size="10.00">::Entity *, Ra::Engine</text>
<text text-anchor="middle" x="75" y="-1313" font-family="Helvetica,sans-Serif" font-size="10.00">::Component * &gt;</text>
<polyline fill="none" stroke="#bfbfbf" points="11,-1306 139,-1306 "/>
<text text-anchor="middle" x="75" y="-1294" font-family="Helvetica,sans-Serif" font-size="10.00"> </text>
<polyline fill="none" stroke="#bfbfbf" points="11,-1287 139,-1287 "/>
<text text-anchor="middle" x="75" y="-1275" font-family="Helvetica,sans-Serif" font-size="10.00"> </text>
</a>
</g>
</g>
<!-- Node11&#45;&gt;Node10 -->
<g id="edge10" class="edge">
<title>Node11&#45;&gt;Node10</title>
<path fill="none" stroke="#404040" d="M73.29,-1267.59C71.64,-1220.3 70.16,-1138.15 76,-1068 76.61,-1060.65 77.55,-1052.92 78.63,-1045.35"/>
<polygon fill="none" stroke="#404040" points="78.67,-1045.13 75.63,-1038.59 80.5,-1033.27 83.54,-1039.81 78.67,-1045.13"/>
<text text-anchor="middle" x="105" y="-1082" font-family="Helvetica,sans-Serif" font-size="10.00"> +elements</text>
</g>
<!-- Node12 -->
<g id="node12" class="node">
<title>Node12</title>
<g id="a_node12"><a xlink:href="classRa_1_1Engine_1_1Entity.html" target="_top" xlink:title="An entity is an scene element. It ties together components with a transform.">
<polygon fill="white" stroke="black" points="435,-645.5 435,-889.5 579,-889.5 579,-645.5 435,-645.5"/>
<text text-anchor="middle" x="507" y="-877.5" font-family="Helvetica,sans-Serif" font-size="10.00">Ra::Engine::Entity</text>
<polyline fill="none" stroke="black" points="435,-870.5 579,-870.5 "/>
<text text-anchor="middle" x="507" y="-858.5" font-family="Helvetica,sans-Serif" font-size="10.00"> </text>
<polyline fill="none" stroke="black" points="435,-851.5 579,-851.5 "/>
<text text-anchor="start" x="443" y="-839.5" font-family="Helvetica,sans-Serif" font-size="10.00">+ Entity()</text>
<text text-anchor="start" x="443" y="-828.5" font-family="Helvetica,sans-Serif" font-size="10.00">+ Entity()</text>
<text text-anchor="start" x="443" y="-817.5" font-family="Helvetica,sans-Serif" font-size="10.00">+ operator=()</text>
<text text-anchor="start" x="443" y="-806.5" font-family="Helvetica,sans-Serif" font-size="10.00">+ ~Entity()</text>
<text text-anchor="start" x="443" y="-795.5" font-family="Helvetica,sans-Serif" font-size="10.00">+ getName()</text>
<text text-anchor="start" x="443" y="-784.5" font-family="Helvetica,sans-Serif" font-size="10.00">+ rename()</text>
<text text-anchor="start" x="443" y="-773.5" font-family="Helvetica,sans-Serif" font-size="10.00">+ setTransform()</text>
<text text-anchor="start" x="443" y="-762.5" font-family="Helvetica,sans-Serif" font-size="10.00">+ setTransform()</text>
<text text-anchor="start" x="443" y="-751.5" font-family="Helvetica,sans-Serif" font-size="10.00">+ getTransform()</text>
<text text-anchor="start" x="443" y="-740.5" font-family="Helvetica,sans-Serif" font-size="10.00">+ getTransformAsMatrix()</text>
<text text-anchor="start" x="443" y="-729.5" font-family="Helvetica,sans-Serif" font-size="10.00">+ swapTransformBuffers()</text>
<text text-anchor="start" x="443" y="-718.5" font-family="Helvetica,sans-Serif" font-size="10.00">+ addComponent()</text>
<text text-anchor="start" x="443" y="-707.5" font-family="Helvetica,sans-Serif" font-size="10.00">+ removeComponent()</text>
<text text-anchor="start" x="443" y="-696.5" font-family="Helvetica,sans-Serif" font-size="10.00">+ getComponent()</text>
<text text-anchor="start" x="443" y="-685.5" font-family="Helvetica,sans-Serif" font-size="10.00">+ getComponent()</text>
<text text-anchor="start" x="443" y="-674.5" font-family="Helvetica,sans-Serif" font-size="10.00">+ getComponents()</text>
<text text-anchor="start" x="443" y="-663.5" font-family="Helvetica,sans-Serif" font-size="10.00">+ getNumComponents()</text>
<text text-anchor="start" x="443" y="-652.5" font-family="Helvetica,sans-Serif" font-size="10.00">+ computeAabb()</text>
</a>
</g>
</g>
<!-- Node12&#45;&gt;Node2 -->
<g id="edge18" class="edge">
<title>Node12&#45;&gt;Node2</title>
<path fill="none" stroke="#404040" d="M507,-645.2C507,-551 507,-422.84 507,-339.77"/>
<polygon fill="none" stroke="#404040" points="507,-339.59 503,-333.59 507,-327.59 511,-333.59 507,-339.59"/>
<text text-anchor="middle" x="534.5" y="-484" font-family="Helvetica,sans-Serif" font-size="10.00"> +m_entity</text>
</g>
<!-- Node12&#45;&gt;Node3 -->
<g id="edge12" class="edge">
<title>Node12&#45;&gt;Node3</title>
<path fill="none" stroke="#404040" d="M434.94,-657.83C424.11,-641.49 412.87,-624.55 401.88,-607.97"/>
<polygon fill="none" stroke="#404040" points="401.71,-607.71 395.06,-604.92 395.08,-597.71 401.73,-600.5 401.71,-607.71"/>
<text text-anchor="middle" x="442.5" y="-619" font-family="Helvetica,sans-Serif" font-size="10.00"> #m_entity</text>
</g>
<!-- Node13&#45;&gt;Node12 -->
<g id="edge13" class="edge">
<title>Node13&#45;&gt;Node12</title>
<path fill="none" stroke="midnightblue" d="M516.92,-927.21C516.18,-915.33 515.38,-902.6 514.57,-889.7"/>
<polygon fill="none" stroke="midnightblue" points="513.44,-927.65 517.56,-937.42 520.43,-927.22 513.44,-927.65"/>
</g>
<!-- Node14 -->
<g id="node14" class="node">
<title>Node14</title>
<g id="a_node14"><a xlink:title="STL class.">
<polygon fill="white" stroke="#bfbfbf" points="215.5,-739 215.5,-796 280.5,-796 280.5,-739 215.5,-739"/>
<text text-anchor="middle" x="248" y="-784" font-family="Helvetica,sans-Serif" font-size="10.00">std::string</text>
<polyline fill="none" stroke="#bfbfbf" points="215.5,-777 280.5,-777 "/>
<text text-anchor="middle" x="248" y="-765" font-family="Helvetica,sans-Serif" font-size="10.00"> </text>
<polyline fill="none" stroke="#bfbfbf" points="215.5,-758 280.5,-758 "/>
<text text-anchor="middle" x="248" y="-746" font-family="Helvetica,sans-Serif" font-size="10.00"> </text>
</a>
</g>
</g>
<!-- Node14&#45;&gt;Node3 -->
<g id="edge15" class="edge">
<title>Node14&#45;&gt;Node3</title>
<path fill="none" stroke="#404040" d="M245.2,-738.76C242.95,-708.13 241.79,-657.65 253,-616 253.62,-613.71 254.28,-611.41 254.99,-609.11"/>
<polygon fill="none" stroke="#404040" points="255.03,-609 253.16,-602.04 258.87,-597.63 260.74,-604.6 255.03,-609"/>
<text text-anchor="middle" x="280.5" y="-619" font-family="Helvetica,sans-Serif" font-size="10.00"> #m_name</text>
</g>
<!-- Node15 -->
<g id="node15" class="node">
<title>Node15</title>
<g id="a_node15"><a xlink:title="STL class.">
<polygon fill="white" stroke="#bfbfbf" points="194,-959.5 194,-1027.5 298,-1027.5 298,-959.5 194,-959.5"/>
<text text-anchor="start" x="202" y="-1015.5" font-family="Helvetica,sans-Serif" font-size="10.00">std::basic_string&lt;</text>
<text text-anchor="middle" x="246" y="-1004.5" font-family="Helvetica,sans-Serif" font-size="10.00"> char &gt;</text>
<polyline fill="none" stroke="#bfbfbf" points="194,-997.5 298,-997.5 "/>
<text text-anchor="middle" x="246" y="-985.5" font-family="Helvetica,sans-Serif" font-size="10.00"> </text>
<polyline fill="none" stroke="#bfbfbf" points="194,-978.5 298,-978.5 "/>
<text text-anchor="middle" x="246" y="-966.5" font-family="Helvetica,sans-Serif" font-size="10.00"> </text>
</a>
</g>
</g>
<!-- Node15&#45;&gt;Node14 -->
<g id="edge16" class="edge">
<title>Node15&#45;&gt;Node14</title>
<path fill="none" stroke="midnightblue" d="M246.39,-949.35C246.79,-904.09 247.41,-834.34 247.75,-796.04"/>
<polygon fill="none" stroke="midnightblue" points="242.88,-949.42 246.3,-959.45 249.88,-949.48 242.88,-949.42"/>
</g>
<!-- Node16 -->
<g id="node16" class="node">
<title>Node16</title>
<g id="a_node16"><a xlink:title=" ">
<polygon fill="white" stroke="#bfbfbf" points="588,-221 588,-289 698,-289 698,-221 588,-221"/>
<text text-anchor="start" x="596" y="-277" font-family="Helvetica,sans-Serif" font-size="10.00">Transform&lt; Scalar,</text>
<text text-anchor="middle" x="643" y="-266" font-family="Helvetica,sans-Serif" font-size="10.00"> 3, Eigen::Affine &gt;</text>
<polyline fill="none" stroke="#bfbfbf" points="588,-259 698,-259 "/>
<text text-anchor="middle" x="643" y="-247" font-family="Helvetica,sans-Serif" font-size="10.00"> </text>
<polyline fill="none" stroke="#bfbfbf" points="588,-240 698,-240 "/>
<text text-anchor="middle" x="643" y="-228" font-family="Helvetica,sans-Serif" font-size="10.00"> </text>
</a>
</g>
</g>
<!-- Node16&#45;&gt;Node1 -->
<g id="edge19" class="edge">
<title>Node16&#45;&gt;Node1</title>
<path fill="none" stroke="#404040" d="M638.17,-220.57C634.69,-200.57 629.14,-174.86 621,-153 620.11,-150.62 619.17,-148.22 618.17,-145.81"/>
<polygon fill="none" stroke="#404040" points="618.05,-145.54 611.98,-141.66 613.22,-134.56 619.3,-138.44 618.05,-145.54"/>
<text text-anchor="middle" x="661.5" y="-156" font-family="Helvetica,sans-Serif" font-size="10.00"> #m_transform</text>
</g>
</g>
</svg>
        <g id="navigator" transform="translate(0 0)" fill="#404254">
                <rect fill="#f2f5e9" fill-opacity="0.5" stroke="#606060" stroke-width=".5" x="0" y="0" width="60" height="60"/>
                <use id="zoomplus" xlink:href="#zoomPlus" x="17" y="9" onmousedown="handleZoom(evt,'in')"/>
                <use id="zoomminus" xlink:href="#zoomMin" x="42" y="9" onmousedown="handleZoom(evt,'out')"/>
                <use id="reset" xlink:href="#resetDef" x="30" y="36" onmousedown="handleReset()"/>
                <g id="arrowUp" xlink:href="#dirArrow" transform="translate(30 24)" onmousedown="handlePan(0,-1)">
                  <use xlink:href="#rim" fill="#404040">
                        <set attributeName="fill" to="#808080" begin="arrowUp.mouseover" end="arrowUp.mouseout"/>
                  </use>
                  <path fill="none" stroke="white" stroke-width="1.5" d="M0,-3.0v7 M-2.5,-0.5L0,-3.0L2.5,-0.5"/>
                </g>
                <g id="arrowRight" xlink:href="#dirArrow" transform="rotate(90) translate(36 -43)" onmousedown="handlePan(1,0)">
                  <use xlink:href="#rim" fill="#404040">
                        <set attributeName="fill" to="#808080" begin="arrowRight.mouseover" end="arrowRight.mouseout"/>
                  </use>
                  <path fill="none" stroke="white" stroke-width="1.5" d="M0,-3.0v7 M-2.5,-0.5L0,-3.0L2.5,-0.5"/>
                </g>
                <g id="arrowDown" xlink:href="#dirArrow" transform="rotate(180) translate(-30 -48)" onmousedown="handlePan(0,1)">
                  <use xlink:href="#rim" fill="#404040">
                        <set attributeName="fill" to="#808080" begin="arrowDown.mouseover" end="arrowDown.mouseout"/>
                  </use>
                  <path fill="none" stroke="white" stroke-width="1.5" d="M0,-3.0v7 M-2.5,-0.5L0,-3.0L2.5,-0.5"/>
                </g>
                <g id="arrowLeft" xlink:href="#dirArrow" transform="rotate(270) translate(-36 17)" onmousedown="handlePan(-1,0)">
                  <use xlink:href="#rim" fill="#404040">
                        <set attributeName="fill" to="#808080" begin="arrowLeft.mouseover" end="arrowLeft.mouseout"/>
                  </use>
                  <path fill="none" stroke="white" stroke-width="1.5" d="M0,-3.0v7 M-2.5,-0.5L0,-3.0L2.5,-0.5"/>
                </g>
        </g>
        <svg viewBox="0 0 15 15" width="100%" height="30px" preserveAspectRatio="xMaxYMin meet">
         <g id="arrow_out" transform="scale(0.3 0.3)">
          <a xlink:href="classRa_1_1GuiBase_1_1TransformEditor__coll__graph_org.svg" target="_base">
           <rect id="button" ry="5" rx="5" y="6" x="6" height="38" width="38"
                fill="#f2f5e9" fill-opacity="0.5" stroke="#606060" stroke-width="1.0"/>
           <path id="arrow"
             d="M 11.500037,31.436501 C 11.940474,20.09759 22.043105,11.32322 32.158766,21.979434 L 37.068811,17.246167 C 37.068811,17.246167 37.088388,32 37.088388,32 L 22.160133,31.978069 C 22.160133,31.978069 26.997745,27.140456 26.997745,27.140456 C 18.528582,18.264221 13.291696,25.230495 11.500037,31.436501 z"
             style="fill:#404040;"/>
          </a>
         </g>
        </svg>
</svg>
