<?xml version="1.0" encoding="UTF-8" standalone="no"?>
<!DOCTYPE svg PUBLIC "-//W3C//DTD SVG 1.1//EN"
 "http://www.w3.org/Graphics/SVG/1.1/DTD/svg11.dtd">
<!-- Generated by graphviz version 2.43.0 (0)
 -->
<!-- Title: Ra::Gui::Gizmo::addRenderObject Pages: 1 -->
<svg width="517pt" height="39pt"
 viewBox="0.00 0.00 517.00 39.00" xmlns="http://www.w3.org/2000/svg" xmlns:xlink="http://www.w3.org/1999/xlink">
<g id="graph0" class="graph" transform="scale(1 1) rotate(0) translate(4 35)">
<title>Ra::Gui::Gizmo::addRenderObject</title>
<polygon fill="white" stroke="transparent" points="-4,4 -4,-35 513,-35 513,4 -4,4"/>
<!-- Node1 -->
<g id="node1" class="node">
<title>Node1</title>
<g id="a_node1"><a xlink:title="add a render object to display the Gizmo">
<polygon fill="#bfbfbf" stroke="black" points="0,-0.5 0,-30.5 148,-30.5 148,-0.5 0,-0.5"/>
<text text-anchor="start" x="8" y="-18.5" font-family="Helvetica,sans-Serif" font-size="10.00">Ra::Gui::Gizmo::addRender</text>
<text text-anchor="middle" x="74" y="-7.5" font-family="Helvetica,sans-Serif" font-size="10.00">Object</text>
</a>
</g>
</g>
<!-- Node2 -->
<g id="node2" class="node">
<title>Node2</title>
<g id="a_node2"><a xlink:href="classRa_1_1Engine_1_1Scene_1_1Component.html#ae577a7986a8a4b7a9386a8e52fac7f6c" target="_top" xlink:title="Add a new render object to the component. This adds the RO to the manager for drawing.">
<polygon fill="white" stroke="black" points="184,-0.5 184,-30.5 347,-30.5 347,-0.5 184,-0.5"/>
<text text-anchor="start" x="192" y="-18.5" font-family="Helvetica,sans-Serif" font-size="10.00">Ra::Engine::Scene::</text>
<text text-anchor="middle" x="265.5" y="-7.5" font-family="Helvetica,sans-Serif" font-size="10.00">Component::addRenderObject</text>
</a>
</g>
</g>
<!-- Node1&#45;&gt;Node2 -->
<g id="edge1" class="edge">
<title>Node1&#45;&gt;Node2</title>
<path fill="none" stroke="midnightblue" d="M148.27,-15.5C156.65,-15.5 165.27,-15.5 173.85,-15.5"/>
<polygon fill="midnightblue" stroke="midnightblue" points="173.88,-19 183.88,-15.5 173.88,-12 173.88,-19"/>
</g>
<!-- Node3 -->
<g id="node3" class="node">
<title>Node3</title>
<g id="a_node3"><a xlink:href="classRa_1_1Engine_1_1Scene_1_1Component.html#a32a4bfb4e9b24644d680db3852099ff3" target="_top" xlink:title="Shortcut to access the render object manager.">
<polygon fill="white" stroke="black" points="383,-0.5 383,-30.5 509,-30.5 509,-0.5 383,-0.5"/>
<text text-anchor="start" x="391" y="-18.5" font-family="Helvetica,sans-Serif" font-size="10.00">Ra::Engine::Scene::</text>
<text text-anchor="middle" x="446" y="-7.5" font-family="Helvetica,sans-Serif" font-size="10.00">Component::getRoMgr</text>
</a>
</g>
</g>
<!-- Node2&#45;&gt;Node3 -->
<g id="edge2" class="edge">
<title>Node2&#45;&gt;Node3</title>
<path fill="none" stroke="midnightblue" d="M347.13,-15.5C355.67,-15.5 364.32,-15.5 372.75,-15.5"/>
<polygon fill="midnightblue" stroke="midnightblue" points="372.91,-19 382.91,-15.5 372.91,-12 372.91,-19"/>
</g>
</g>
</svg>
