<?xml version="1.0" encoding="UTF-8" standalone="no"?>
<!DOCTYPE svg PUBLIC "-//W3C//DTD SVG 1.1//EN"
 "http://www.w3.org/Graphics/SVG/1.1/DTD/svg11.dtd">
<!-- Generated by graphviz version 2.43.0 (0)
 -->
<!-- Title: Ra::Core::Geometry::TopologicalMesh::WedgeData Pages: 1 -->
<svg width="883pt" height="967pt"
 viewBox="0.00 0.00 883.00 967.00" xmlns="http://www.w3.org/2000/svg" xmlns:xlink="http://www.w3.org/1999/xlink">
<g id="graph0" class="graph" transform="scale(1 1) rotate(0) translate(4 963)">
<title>Ra::Core::Geometry::TopologicalMesh::WedgeData</title>
<polygon fill="white" stroke="transparent" points="-4,4 -4,-963 879,-963 879,4 -4,4"/>
<!-- Node1 -->
<g id="node1" class="node">
<title>Node1</title>
<g id="a_node1"><a xlink:title=" ">
<polygon fill="#bfbfbf" stroke="black" points="342.5,-0.5 342.5,-112.5 508.5,-112.5 508.5,-0.5 342.5,-0.5"/>
<text text-anchor="start" x="350.5" y="-100.5" font-family="Helvetica,sans-Serif" font-size="10.00">Ra::Core::Geometry</text>
<text text-anchor="middle" x="425.5" y="-89.5" font-family="Helvetica,sans-Serif" font-size="10.00">::TopologicalMesh::WedgeData</text>
<polyline fill="none" stroke="black" points="342.5,-82.5 508.5,-82.5 "/>
<text text-anchor="middle" x="425.5" y="-70.5" font-family="Helvetica,sans-Serif" font-size="10.00"> </text>
<polyline fill="none" stroke="black" points="342.5,-63.5 508.5,-63.5 "/>
<text text-anchor="start" x="350.5" y="-51.5" font-family="Helvetica,sans-Serif" font-size="10.00">+ getAttribArray()</text>
<text text-anchor="start" x="350.5" y="-40.5" font-family="Helvetica,sans-Serif" font-size="10.00">+ WedgeData()</text>
<text text-anchor="start" x="350.5" y="-29.5" font-family="Helvetica,sans-Serif" font-size="10.00">+ operator==()</text>
<text text-anchor="start" x="350.5" y="-18.5" font-family="Helvetica,sans-Serif" font-size="10.00">+ operator!=()</text>
<text text-anchor="start" x="350.5" y="-7.5" font-family="Helvetica,sans-Serif" font-size="10.00">+ operator&lt;()</text>
</a>
</g>
</g>
<!-- Node2 -->
<g id="node2" class="node">
<title>Node2</title>
<g id="a_node2"><a xlink:title=" ">
<polygon fill="white" stroke="#bfbfbf" points="0,-166 0,-234 143,-234 143,-166 0,-166"/>
<text text-anchor="start" x="8" y="-222" font-family="Helvetica,sans-Serif" font-size="10.00">EIGEN_MAKE_ALIGNED</text>
<text text-anchor="middle" x="71.5" y="-211" font-family="Helvetica,sans-Serif" font-size="10.00">_OPERATOR_NEW Vector3</text>
<polyline fill="none" stroke="#bfbfbf" points="0,-204 143,-204 "/>
<text text-anchor="middle" x="71.5" y="-192" font-family="Helvetica,sans-Serif" font-size="10.00"> </text>
<polyline fill="none" stroke="#bfbfbf" points="0,-185 143,-185 "/>
<text text-anchor="middle" x="71.5" y="-173" font-family="Helvetica,sans-Serif" font-size="10.00"> </text>
</a>
</g>
</g>
<!-- Node2&#45;&gt;Node1 -->
<g id="edge1" class="edge">
<title>Node2&#45;&gt;Node1</title>
<path fill="none" stroke="#404040" d="M123.84,-165.84C144.15,-153.84 167.92,-140.84 190.5,-131 235.37,-111.44 287.11,-94.67 330.61,-82.11"/>
<polygon fill="none" stroke="#404040" points="330.81,-82.06 335.48,-76.56 342.35,-78.77 337.67,-84.26 330.81,-82.06"/>
<text text-anchor="middle" x="223.5" y="-134" font-family="Helvetica,sans-Serif" font-size="10.00"> +m_position</text>
</g>
<!-- Node3 -->
<g id="node3" class="node">
<title>Node3</title>
<g id="a_node3"><a xlink:href="classRa_1_1Core_1_1VectorArray.html" target="_top" xlink:title=" ">
<polygon fill="white" stroke="black" points="300,-160.5 300,-239.5 421,-239.5 421,-160.5 300,-160.5"/>
<text text-anchor="start" x="308" y="-227.5" font-family="Helvetica,sans-Serif" font-size="10.00">Ra::Core::VectorArray</text>
<text text-anchor="middle" x="360.5" y="-216.5" font-family="Helvetica,sans-Serif" font-size="10.00">&lt; Vector4 &gt;</text>
<polyline fill="none" stroke="black" points="300,-209.5 421,-209.5 "/>
<text text-anchor="middle" x="360.5" y="-197.5" font-family="Helvetica,sans-Serif" font-size="10.00"> </text>
<polyline fill="none" stroke="black" points="300,-190.5 421,-190.5 "/>
<text text-anchor="start" x="308" y="-178.5" font-family="Helvetica,sans-Serif" font-size="10.00">+ getMap()</text>
<text text-anchor="start" x="308" y="-167.5" font-family="Helvetica,sans-Serif" font-size="10.00">+ getMap()</text>
</a>
</g>
</g>
<!-- Node3&#45;&gt;Node1 -->
<g id="edge2" class="edge">
<title>Node3&#45;&gt;Node1</title>
<path fill="none" stroke="#404040" d="M362.11,-160.33C363.46,-150.5 365.73,-140.14 369.5,-131 370.58,-128.37 371.79,-125.76 373.09,-123.16"/>
<polygon fill="none" stroke="#404040" points="373.09,-123.15 372.51,-115.96 378.91,-112.66 379.5,-119.84 373.09,-123.15"/>
<text text-anchor="middle" x="415" y="-134" font-family="Helvetica,sans-Serif" font-size="10.00"> +m_vector4Attrib</text>
</g>
<!-- Node4 -->
<g id="node4" class="node">
<title>Node4</title>
<g id="a_node4"><a xlink:href="structRa_1_1Core_1_1AlignedStdVector.html" target="_top" xlink:title=" ">
<polygon fill="white" stroke="black" points="398,-462.5 398,-530.5 545,-530.5 545,-462.5 398,-462.5"/>
<text text-anchor="start" x="406" y="-518.5" font-family="Helvetica,sans-Serif" font-size="10.00">Ra::Core::AlignedStdVector</text>
<text text-anchor="middle" x="471.5" y="-507.5" font-family="Helvetica,sans-Serif" font-size="10.00">&lt; Vector4 &gt;</text>
<polyline fill="none" stroke="black" points="398,-500.5 545,-500.5 "/>
<text text-anchor="middle" x="471.5" y="-488.5" font-family="Helvetica,sans-Serif" font-size="10.00"> </text>
<polyline fill="none" stroke="black" points="398,-481.5 545,-481.5 "/>
<text text-anchor="middle" x="471.5" y="-469.5" font-family="Helvetica,sans-Serif" font-size="10.00"> </text>
</a>
</g>
</g>
<!-- Node4&#45;&gt;Node3 -->
<g id="edge3" class="edge">
<title>Node4&#45;&gt;Node3</title>
<path fill="none" stroke="midnightblue" d="M480.39,-452.36C488.38,-401.84 493.91,-317.49 457.5,-258 456.17,-255.83 439.92,-246.02 421.08,-235.13"/>
<polygon fill="none" stroke="midnightblue" points="476.93,-451.86 478.72,-462.31 483.83,-453.02 476.93,-451.86"/>
</g>
<!-- Node5 -->
<g id="node5" class="node">
<title>Node5</title>
<g id="a_node5"><a xlink:title="STL class.">
<polygon fill="white" stroke="#bfbfbf" points="347,-676.5 347,-755.5 484,-755.5 484,-676.5 347,-676.5"/>
<text text-anchor="start" x="355" y="-743.5" font-family="Helvetica,sans-Serif" font-size="10.00">std::vector&lt; Vector4,</text>
<text text-anchor="start" x="355" y="-732.5" font-family="Helvetica,sans-Serif" font-size="10.00"> Eigen::aligned_allocator</text>
<text text-anchor="middle" x="415.5" y="-721.5" font-family="Helvetica,sans-Serif" font-size="10.00">&lt; Vector4 &gt; &gt;</text>
<polyline fill="none" stroke="#bfbfbf" points="347,-714.5 484,-714.5 "/>
<text text-anchor="middle" x="415.5" y="-702.5" font-family="Helvetica,sans-Serif" font-size="10.00"> </text>
<polyline fill="none" stroke="#bfbfbf" points="347,-695.5 484,-695.5 "/>
<text text-anchor="middle" x="415.5" y="-683.5" font-family="Helvetica,sans-Serif" font-size="10.00"> </text>
</a>
</g>
</g>
<!-- Node5&#45;&gt;Node4 -->
<g id="edge4" class="edge">
<title>Node5&#45;&gt;Node4</title>
<path fill="none" stroke="midnightblue" d="M397.33,-666.3C387.55,-631.72 380.88,-585.21 399.5,-549 403.01,-542.17 407.9,-536.04 413.49,-530.6"/>
<polygon fill="none" stroke="midnightblue" points="394.07,-667.6 400.3,-676.17 400.77,-665.58 394.07,-667.6"/>
</g>
<!-- Node6 -->
<g id="node6" class="node">
<title>Node6</title>
<g id="a_node6"><a xlink:title=" ">
<polygon fill="white" stroke="#bfbfbf" points="447,-901.5 447,-958.5 476,-958.5 476,-901.5 447,-901.5"/>
<text text-anchor="middle" x="461.5" y="-946.5" font-family="Helvetica,sans-Serif" font-size="10.00">T</text>
<polyline fill="none" stroke="#bfbfbf" points="447,-939.5 476,-939.5 "/>
<text text-anchor="middle" x="461.5" y="-927.5" font-family="Helvetica,sans-Serif" font-size="10.00"> </text>
<polyline fill="none" stroke="#bfbfbf" points="447,-920.5 476,-920.5 "/>
<text text-anchor="middle" x="461.5" y="-908.5" font-family="Helvetica,sans-Serif" font-size="10.00"> </text>
</a>
</g>
</g>
<!-- Node6&#45;&gt;Node5 -->
<g id="edge5" class="edge">
<title>Node6&#45;&gt;Node5</title>
<path fill="none" stroke="#404040" d="M446.92,-917.88C437.18,-909.49 425.14,-897.05 419.5,-883 404.81,-846.43 404.67,-801.58 407.73,-767.72"/>
<polygon fill="none" stroke="#404040" points="407.73,-767.71 404.37,-761.33 408.98,-755.78 412.33,-762.16 407.73,-767.71"/>
<text text-anchor="middle" x="448.5" y="-875" font-family="Helvetica,sans-Serif" font-size="10.00"> +elements</text>
</g>
<!-- Node8 -->
<g id="node8" class="node">
<title>Node8</title>
<g id="a_node8"><a xlink:title="STL class.">
<polygon fill="white" stroke="#bfbfbf" points="439.5,-780 439.5,-848 585.5,-848 585.5,-780 439.5,-780"/>
<text text-anchor="start" x="447.5" y="-836" font-family="Helvetica,sans-Serif" font-size="10.00">std::vector&lt; T, Eigen</text>
<text text-anchor="middle" x="512.5" y="-825" font-family="Helvetica,sans-Serif" font-size="10.00">::aligned_allocator&lt; T &gt; &gt;</text>
<polyline fill="none" stroke="#bfbfbf" points="439.5,-818 585.5,-818 "/>
<text text-anchor="middle" x="512.5" y="-806" font-family="Helvetica,sans-Serif" font-size="10.00"> </text>
<polyline fill="none" stroke="#bfbfbf" points="439.5,-799 585.5,-799 "/>
<text text-anchor="middle" x="512.5" y="-787" font-family="Helvetica,sans-Serif" font-size="10.00"> </text>
</a>
</g>
</g>
<!-- Node6&#45;&gt;Node8 -->
<g id="edge8" class="edge">
<title>Node6&#45;&gt;Node8</title>
<path fill="none" stroke="#404040" d="M473.85,-901.4C479.52,-888.72 486.39,-873.35 492.76,-859.12"/>
<polygon fill="none" stroke="#404040" points="492.83,-858.98 491.63,-851.86 497.73,-848.02 498.93,-855.13 492.83,-858.98"/>
<text text-anchor="middle" x="515.5" y="-875" font-family="Helvetica,sans-Serif" font-size="10.00"> +elements</text>
</g>
<!-- Node11 -->
<g id="node11" class="node">
<title>Node11</title>
<g id="a_node11"><a xlink:title="STL class.">
<polygon fill="white" stroke="#bfbfbf" points="195,-682 195,-750 342,-750 342,-682 195,-682"/>
<text text-anchor="start" x="203" y="-738" font-family="Helvetica,sans-Serif" font-size="10.00">std::vector&lt; V, Eigen</text>
<text text-anchor="middle" x="268.5" y="-727" font-family="Helvetica,sans-Serif" font-size="10.00">::aligned_allocator&lt; V &gt; &gt;</text>
<polyline fill="none" stroke="#bfbfbf" points="195,-720 342,-720 "/>
<text text-anchor="middle" x="268.5" y="-708" font-family="Helvetica,sans-Serif" font-size="10.00"> </text>
<polyline fill="none" stroke="#bfbfbf" points="195,-701 342,-701 "/>
<text text-anchor="middle" x="268.5" y="-689" font-family="Helvetica,sans-Serif" font-size="10.00"> </text>
</a>
</g>
</g>
<!-- Node6&#45;&gt;Node11 -->
<g id="edge12" class="edge">
<title>Node6&#45;&gt;Node11</title>
<path fill="none" stroke="#404040" d="M446.82,-926.11C424.25,-921.01 380.79,-908.42 353.5,-883 317.91,-849.84 294.82,-798.43 281.81,-761.61"/>
<polygon fill="none" stroke="#404040" points="281.8,-761.57 276.08,-757.17 277.94,-750.21 283.66,-754.6 281.8,-761.57"/>
<text text-anchor="middle" x="382.5" y="-875" font-family="Helvetica,sans-Serif" font-size="10.00"> +elements</text>
</g>
<!-- Node14 -->
<g id="node14" class="node">
<title>Node14</title>
<g id="a_node14"><a xlink:title="STL class.">
<polygon fill="white" stroke="#bfbfbf" points="720,-774.5 720,-853.5 857,-853.5 857,-774.5 720,-774.5"/>
<text text-anchor="start" x="728" y="-841.5" font-family="Helvetica,sans-Serif" font-size="10.00">std::vector&lt; Scalar,</text>
<text text-anchor="start" x="728" y="-830.5" font-family="Helvetica,sans-Serif" font-size="10.00"> Eigen::aligned_allocator</text>
<text text-anchor="middle" x="788.5" y="-819.5" font-family="Helvetica,sans-Serif" font-size="10.00">&lt; Scalar &gt; &gt;</text>
<polyline fill="none" stroke="#bfbfbf" points="720,-812.5 857,-812.5 "/>
<text text-anchor="middle" x="788.5" y="-800.5" font-family="Helvetica,sans-Serif" font-size="10.00"> </text>
<polyline fill="none" stroke="#bfbfbf" points="720,-793.5 857,-793.5 "/>
<text text-anchor="middle" x="788.5" y="-781.5" font-family="Helvetica,sans-Serif" font-size="10.00"> </text>
</a>
</g>
</g>
<!-- Node6&#45;&gt;Node14 -->
<g id="edge17" class="edge">
<title>Node6&#45;&gt;Node14</title>
<path fill="none" stroke="#404040" d="M476.32,-926.21C507.58,-920.12 582.33,-904.44 642.5,-883 664.48,-875.17 687.65,-865.21 708.89,-855.36"/>
<polygon fill="none" stroke="#404040" points="708.94,-855.33 712.67,-849.16 719.8,-850.22 716.08,-856.39 708.94,-855.33"/>
<text text-anchor="middle" x="695.5" y="-875" font-family="Helvetica,sans-Serif" font-size="10.00"> +elements</text>
</g>
<!-- Node17 -->
<g id="node17" class="node">
<title>Node17</title>
<g id="a_node17"><a xlink:title="STL class.">
<polygon fill="white" stroke="#bfbfbf" points="52,-676.5 52,-755.5 189,-755.5 189,-676.5 52,-676.5"/>
<text text-anchor="start" x="60" y="-743.5" font-family="Helvetica,sans-Serif" font-size="10.00">std::vector&lt; Vector2,</text>
<text text-anchor="start" x="60" y="-732.5" font-family="Helvetica,sans-Serif" font-size="10.00"> Eigen::aligned_allocator</text>
<text text-anchor="middle" x="120.5" y="-721.5" font-family="Helvetica,sans-Serif" font-size="10.00">&lt; Vector2 &gt; &gt;</text>
<polyline fill="none" stroke="#bfbfbf" points="52,-714.5 189,-714.5 "/>
<text text-anchor="middle" x="120.5" y="-702.5" font-family="Helvetica,sans-Serif" font-size="10.00"> </text>
<polyline fill="none" stroke="#bfbfbf" points="52,-695.5 189,-695.5 "/>
<text text-anchor="middle" x="120.5" y="-683.5" font-family="Helvetica,sans-Serif" font-size="10.00"> </text>
</a>
</g>
</g>
<!-- Node6&#45;&gt;Node17 -->
<g id="edge22" class="edge">
<title>Node6&#45;&gt;Node17</title>
<path fill="none" stroke="#404040" d="M446.87,-927.99C414.71,-925.23 336.29,-915.41 280.5,-883 229.51,-853.37 184.21,-802.86 154.95,-765.32"/>
<polygon fill="none" stroke="#404040" points="154.79,-765.12 147.97,-762.79 147.5,-755.59 154.32,-757.92 154.79,-765.12"/>
<text text-anchor="middle" x="309.5" y="-875" font-family="Helvetica,sans-Serif" font-size="10.00"> +elements</text>
</g>
<!-- Node20 -->
<g id="node20" class="node">
<title>Node20</title>
<g id="a_node20"><a xlink:title="STL class.">
<polygon fill="white" stroke="#bfbfbf" points="627,-578.5 627,-657.5 764,-657.5 764,-578.5 627,-578.5"/>
<text text-anchor="start" x="635" y="-645.5" font-family="Helvetica,sans-Serif" font-size="10.00">std::vector&lt; Vector3,</text>
<text text-anchor="start" x="635" y="-634.5" font-family="Helvetica,sans-Serif" font-size="10.00"> Eigen::aligned_allocator</text>
<text text-anchor="middle" x="695.5" y="-623.5" font-family="Helvetica,sans-Serif" font-size="10.00">&lt; Vector3 &gt; &gt;</text>
<polyline fill="none" stroke="#bfbfbf" points="627,-616.5 764,-616.5 "/>
<text text-anchor="middle" x="695.5" y="-604.5" font-family="Helvetica,sans-Serif" font-size="10.00"> </text>
<polyline fill="none" stroke="#bfbfbf" points="627,-597.5 764,-597.5 "/>
<text text-anchor="middle" x="695.5" y="-585.5" font-family="Helvetica,sans-Serif" font-size="10.00"> </text>
</a>
</g>
</g>
<!-- Node6&#45;&gt;Node20 -->
<g id="edge28" class="edge">
<title>Node6&#45;&gt;Node20</title>
<path fill="none" stroke="#404040" d="M476.08,-924.54C503.16,-915.53 561.44,-892.69 594.5,-854 640.97,-799.62 668.95,-720.63 683.31,-669.53"/>
<polygon fill="none" stroke="#404040" points="683.35,-669.38 681.07,-662.54 686.5,-657.81 688.78,-664.65 683.35,-669.38"/>
<text text-anchor="middle" x="672.5" y="-811.5" font-family="Helvetica,sans-Serif" font-size="10.00"> +elements</text>
</g>
<!-- Node7 -->
<g id="node7" class="node">
<title>Node7</title>
<g id="a_node7"><a xlink:href="structRa_1_1Core_1_1AlignedStdVector.html" target="_top" xlink:title=" ">
<polygon fill="white" stroke="black" points="421.5,-589.5 421.5,-646.5 597.5,-646.5 597.5,-589.5 421.5,-589.5"/>
<text text-anchor="middle" x="509.5" y="-634.5" font-family="Helvetica,sans-Serif" font-size="10.00">Ra::Core::AlignedStdVector&lt; T &gt;</text>
<polyline fill="none" stroke="black" points="421.5,-627.5 597.5,-627.5 "/>
<text text-anchor="middle" x="509.5" y="-615.5" font-family="Helvetica,sans-Serif" font-size="10.00"> </text>
<polyline fill="none" stroke="black" points="421.5,-608.5 597.5,-608.5 "/>
<text text-anchor="middle" x="509.5" y="-596.5" font-family="Helvetica,sans-Serif" font-size="10.00"> </text>
</a>
</g>
</g>
<!-- Node7&#45;&gt;Node4 -->
<g id="edge6" class="edge">
<title>Node7&#45;&gt;Node4</title>
<path fill="none" stroke="orange" d="M484.37,-580.56C480.83,-573.96 477.66,-566.96 475.5,-560 472.63,-550.76 471.27,-540.39 470.72,-530.79"/>
<polygon fill="orange" stroke="orange" points="481.36,-582.34 489.39,-589.26 487.43,-578.85 481.36,-582.34"/>
<text text-anchor="middle" x="507" y="-552" font-family="Helvetica,sans-Serif" font-size="10.00"> &lt; Vector4 &gt;</text>
</g>
<!-- Node10 -->
<g id="node10" class="node">
<title>Node10</title>
<g id="a_node10"><a xlink:href="structRa_1_1Core_1_1AlignedStdVector.html" target="_top" xlink:title=" ">
<polygon fill="white" stroke="black" points="203.5,-468 203.5,-525 379.5,-525 379.5,-468 203.5,-468"/>
<text text-anchor="middle" x="291.5" y="-513" font-family="Helvetica,sans-Serif" font-size="10.00">Ra::Core::AlignedStdVector&lt; V &gt;</text>
<polyline fill="none" stroke="black" points="203.5,-506 379.5,-506 "/>
<text text-anchor="middle" x="291.5" y="-494" font-family="Helvetica,sans-Serif" font-size="10.00"> </text>
<polyline fill="none" stroke="black" points="203.5,-487 379.5,-487 "/>
<text text-anchor="middle" x="291.5" y="-475" font-family="Helvetica,sans-Serif" font-size="10.00"> </text>
</a>
</g>
</g>
<!-- Node7&#45;&gt;Node10 -->
<g id="edge13" class="edge">
<title>Node7&#45;&gt;Node10</title>
<path fill="none" stroke="orange" d="M450.33,-584.56C416.4,-565.96 374.26,-542.86 341.91,-525.13"/>
<polygon fill="orange" stroke="orange" points="448.76,-587.7 459.21,-589.43 452.13,-581.56 448.76,-587.7"/>
<text text-anchor="middle" x="417" y="-552" font-family="Helvetica,sans-Serif" font-size="10.00"> &lt; V &gt;</text>
</g>
<!-- Node13 -->
<g id="node13" class="node">
<title>Node13</title>
<g id="a_node13"><a xlink:href="structRa_1_1Core_1_1AlignedStdVector.html" target="_top" xlink:title=" ">
<polygon fill="white" stroke="black" points="728,-462.5 728,-530.5 875,-530.5 875,-462.5 728,-462.5"/>
<text text-anchor="start" x="736" y="-518.5" font-family="Helvetica,sans-Serif" font-size="10.00">Ra::Core::AlignedStdVector</text>
<text text-anchor="middle" x="801.5" y="-507.5" font-family="Helvetica,sans-Serif" font-size="10.00">&lt; Scalar &gt;</text>
<polyline fill="none" stroke="black" points="728,-500.5 875,-500.5 "/>
<text text-anchor="middle" x="801.5" y="-488.5" font-family="Helvetica,sans-Serif" font-size="10.00"> </text>
<polyline fill="none" stroke="black" points="728,-481.5 875,-481.5 "/>
<text text-anchor="middle" x="801.5" y="-469.5" font-family="Helvetica,sans-Serif" font-size="10.00"> </text>
</a>
</g>
</g>
<!-- Node7&#45;&gt;Node13 -->
<g id="edge18" class="edge">
<title>Node7&#45;&gt;Node13</title>
<path fill="none" stroke="orange" d="M586.31,-585.57C630.06,-567.66 684.6,-545.34 727.82,-527.65"/>
<polygon fill="orange" stroke="orange" points="584.79,-582.41 576.86,-589.43 587.44,-588.89 584.79,-582.41"/>
<text text-anchor="middle" x="700.5" y="-552" font-family="Helvetica,sans-Serif" font-size="10.00"> &lt; Scalar &gt;</text>
</g>
<!-- Node16 -->
<g id="node16" class="node">
<title>Node16</title>
<g id="a_node16"><a xlink:href="structRa_1_1Core_1_1AlignedStdVector.html" target="_top" xlink:title=" ">
<polygon fill="white" stroke="black" points="38,-462.5 38,-530.5 185,-530.5 185,-462.5 38,-462.5"/>
<text text-anchor="start" x="46" y="-518.5" font-family="Helvetica,sans-Serif" font-size="10.00">Ra::Core::AlignedStdVector</text>
<text text-anchor="middle" x="111.5" y="-507.5" font-family="Helvetica,sans-Serif" font-size="10.00">&lt; Vector2 &gt;</text>
<polyline fill="none" stroke="black" points="38,-500.5 185,-500.5 "/>
<text text-anchor="middle" x="111.5" y="-488.5" font-family="Helvetica,sans-Serif" font-size="10.00"> </text>
<polyline fill="none" stroke="black" points="38,-481.5 185,-481.5 "/>
<text text-anchor="middle" x="111.5" y="-469.5" font-family="Helvetica,sans-Serif" font-size="10.00"> </text>
</a>
</g>
</g>
<!-- Node7&#45;&gt;Node16 -->
<g id="edge23" class="edge">
<title>Node7&#45;&gt;Node16</title>
<path fill="none" stroke="orange" d="M411.55,-593.41C348.92,-577.55 266.27,-555.19 194.5,-531 191.41,-529.96 188.26,-528.86 185.1,-527.73"/>
<polygon fill="orange" stroke="orange" points="410.88,-596.85 421.43,-595.9 412.59,-590.06 410.88,-596.85"/>
<text text-anchor="middle" x="311" y="-552" font-family="Helvetica,sans-Serif" font-size="10.00"> &lt; Vector2 &gt;</text>
</g>
<!-- Node19 -->
<g id="node19" class="node">
<title>Node19</title>
<g id="a_node19"><a xlink:href="structRa_1_1Core_1_1AlignedStdVector.html" target="_top" xlink:title=" ">
<polygon fill="white" stroke="black" points="563,-462.5 563,-530.5 710,-530.5 710,-462.5 563,-462.5"/>
<text text-anchor="start" x="571" y="-518.5" font-family="Helvetica,sans-Serif" font-size="10.00">Ra::Core::AlignedStdVector</text>
<text text-anchor="middle" x="636.5" y="-507.5" font-family="Helvetica,sans-Serif" font-size="10.00">&lt; Vector3 &gt;</text>
<polyline fill="none" stroke="black" points="563,-500.5 710,-500.5 "/>
<text text-anchor="middle" x="636.5" y="-488.5" font-family="Helvetica,sans-Serif" font-size="10.00"> </text>
<polyline fill="none" stroke="black" points="563,-481.5 710,-481.5 "/>
<text text-anchor="middle" x="636.5" y="-469.5" font-family="Helvetica,sans-Serif" font-size="10.00"> </text>
</a>
</g>
</g>
<!-- Node7&#45;&gt;Node19 -->
<g id="edge29" class="edge">
<title>Node7&#45;&gt;Node19</title>
<path fill="none" stroke="orange" d="M533.65,-581.06C541.83,-570.16 551.45,-558.54 561.5,-549 568.26,-542.58 575.88,-536.39 583.62,-530.65"/>
<polygon fill="orange" stroke="orange" points="530.76,-579.08 527.69,-589.22 536.42,-583.21 530.76,-579.08"/>
<text text-anchor="middle" x="593" y="-552" font-family="Helvetica,sans-Serif" font-size="10.00"> &lt; Vector3 &gt;</text>
</g>
<!-- Node8&#45;&gt;Node7 -->
<g id="edge7" class="edge">
<title>Node8&#45;&gt;Node7</title>
<path fill="none" stroke="midnightblue" d="M511.83,-769.48C511.25,-731.86 510.42,-678.62 509.93,-646.59"/>
<polygon fill="none" stroke="midnightblue" points="508.33,-769.71 511.98,-779.65 515.33,-769.6 508.33,-769.71"/>
</g>
<!-- Node9 -->
<g id="node9" class="node">
<title>Node9</title>
<g id="a_node9"><a xlink:href="classRa_1_1Core_1_1VectorArray.html" target="_top" xlink:title=" ">
<polygon fill="white" stroke="black" points="228.5,-356.5 228.5,-424.5 378.5,-424.5 378.5,-356.5 228.5,-356.5"/>
<text text-anchor="middle" x="303.5" y="-412.5" font-family="Helvetica,sans-Serif" font-size="10.00">Ra::Core::VectorArray&lt; V &gt;</text>
<polyline fill="none" stroke="black" points="228.5,-405.5 378.5,-405.5 "/>
<text text-anchor="middle" x="303.5" y="-393.5" font-family="Helvetica,sans-Serif" font-size="10.00"> </text>
<polyline fill="none" stroke="black" points="228.5,-386.5 378.5,-386.5 "/>
<text text-anchor="start" x="236.5" y="-374.5" font-family="Helvetica,sans-Serif" font-size="10.00">+ getMap()</text>
<text text-anchor="start" x="236.5" y="-363.5" font-family="Helvetica,sans-Serif" font-size="10.00">+ getMap()</text>
</a>
</g>
</g>
<!-- Node9&#45;&gt;Node3 -->
<g id="edge9" class="edge">
<title>Node9&#45;&gt;Node3</title>
<path fill="none" stroke="orange" d="M297.82,-346.2C296.1,-319.76 297.11,-285.81 308.5,-258 311.14,-251.55 314.85,-245.38 319.09,-239.62"/>
<polygon fill="orange" stroke="orange" points="294.34,-346.61 298.63,-356.29 301.32,-346.05 294.34,-346.61"/>
<text text-anchor="middle" x="340" y="-295.5" font-family="Helvetica,sans-Serif" font-size="10.00"> &lt; Vector4 &gt;</text>
</g>
<!-- Node15 -->
<g id="node15" class="node">
<title>Node15</title>
<g id="a_node15"><a xlink:href="classRa_1_1Core_1_1VectorArray.html" target="_top" xlink:title=" ">
<polygon fill="white" stroke="black" points="161,-160.5 161,-239.5 282,-239.5 282,-160.5 161,-160.5"/>
<text text-anchor="start" x="169" y="-227.5" font-family="Helvetica,sans-Serif" font-size="10.00">Ra::Core::VectorArray</text>
<text text-anchor="middle" x="221.5" y="-216.5" font-family="Helvetica,sans-Serif" font-size="10.00">&lt; Vector2 &gt;</text>
<polyline fill="none" stroke="black" points="161,-209.5 282,-209.5 "/>
<text text-anchor="middle" x="221.5" y="-197.5" font-family="Helvetica,sans-Serif" font-size="10.00"> </text>
<polyline fill="none" stroke="black" points="161,-190.5 282,-190.5 "/>
<text text-anchor="start" x="169" y="-178.5" font-family="Helvetica,sans-Serif" font-size="10.00">+ getMap()</text>
<text text-anchor="start" x="169" y="-167.5" font-family="Helvetica,sans-Serif" font-size="10.00">+ getMap()</text>
</a>
</g>
</g>
<!-- Node9&#45;&gt;Node15 -->
<g id="edge24" class="edge">
<title>Node9&#45;&gt;Node15</title>
<path fill="none" stroke="orange" d="M237.34,-349.14C234.37,-345.66 231.71,-341.95 229.5,-338 212.73,-308.07 212.3,-268.46 215.13,-239.54"/>
<polygon fill="orange" stroke="orange" points="234.85,-351.6 244.3,-356.39 239.9,-346.75 234.85,-351.6"/>
<text text-anchor="middle" x="261" y="-295.5" font-family="Helvetica,sans-Serif" font-size="10.00"> &lt; Vector2 &gt;</text>
</g>
<!-- Node18 -->
<g id="node18" class="node">
<title>Node18</title>
<g id="a_node18"><a xlink:href="classRa_1_1Core_1_1VectorArray.html" target="_top" xlink:title=" ">
<polygon fill="white" stroke="black" points="439,-160.5 439,-239.5 560,-239.5 560,-160.5 439,-160.5"/>
<text text-anchor="start" x="447" y="-227.5" font-family="Helvetica,sans-Serif" font-size="10.00">Ra::Core::VectorArray</text>
<text text-anchor="middle" x="499.5" y="-216.5" font-family="Helvetica,sans-Serif" font-size="10.00">&lt; Vector3 &gt;</text>
<polyline fill="none" stroke="black" points="439,-209.5 560,-209.5 "/>
<text text-anchor="middle" x="499.5" y="-197.5" font-family="Helvetica,sans-Serif" font-size="10.00"> </text>
<polyline fill="none" stroke="black" points="439,-190.5 560,-190.5 "/>
<text text-anchor="start" x="447" y="-178.5" font-family="Helvetica,sans-Serif" font-size="10.00">+ getMap()</text>
<text text-anchor="start" x="447" y="-167.5" font-family="Helvetica,sans-Serif" font-size="10.00">+ getMap()</text>
</a>
</g>
</g>
<!-- Node9&#45;&gt;Node18 -->
<g id="edge30" class="edge">
<title>Node9&#45;&gt;Node18</title>
<path fill="none" stroke="orange" d="M358.23,-349.86C362.84,-345.99 367.32,-342.01 371.5,-338 404.76,-306.09 405.79,-291.46 437.5,-258 443.33,-251.84 449.71,-245.55 456.07,-239.5"/>
<polygon fill="orange" stroke="orange" points="355.93,-347.22 350.41,-356.26 360.37,-352.64 355.93,-347.22"/>
<text text-anchor="middle" x="469" y="-295.5" font-family="Helvetica,sans-Serif" font-size="10.00"> &lt; Vector3 &gt;</text>
</g>
<!-- Node10&#45;&gt;Node9 -->
<g id="edge10" class="edge">
<title>Node10&#45;&gt;Node9</title>
<path fill="none" stroke="midnightblue" d="M295.84,-457.87C297.09,-447.05 298.44,-435.33 299.66,-424.79"/>
<polygon fill="none" stroke="midnightblue" points="292.35,-457.57 294.68,-467.9 299.31,-458.37 292.35,-457.57"/>
</g>
<!-- Node11&#45;&gt;Node10 -->
<g id="edge11" class="edge">
<title>Node11&#45;&gt;Node10</title>
<path fill="none" stroke="midnightblue" d="M271.67,-671.49C274.29,-637.96 278.41,-590.47 283.5,-549 284.45,-541.28 285.66,-532.93 286.86,-525.25"/>
<polygon fill="none" stroke="midnightblue" points="268.15,-671.62 270.87,-681.86 275.12,-672.16 268.15,-671.62"/>
</g>
<!-- Node12 -->
<g id="node12" class="node">
<title>Node12</title>
<g id="a_node12"><a xlink:href="classRa_1_1Core_1_1VectorArray_3_01Scalar_01_4.html" target="_top" xlink:title=" ">
<polygon fill="white" stroke="black" points="587,-258.5 587,-337.5 708,-337.5 708,-258.5 587,-258.5"/>
<text text-anchor="start" x="595" y="-325.5" font-family="Helvetica,sans-Serif" font-size="10.00">Ra::Core::VectorArray</text>
<text text-anchor="middle" x="647.5" y="-314.5" font-family="Helvetica,sans-Serif" font-size="10.00">&lt; Scalar &gt;</text>
<polyline fill="none" stroke="black" points="587,-307.5 708,-307.5 "/>
<text text-anchor="middle" x="647.5" y="-295.5" font-family="Helvetica,sans-Serif" font-size="10.00"> </text>
<polyline fill="none" stroke="black" points="587,-288.5 708,-288.5 "/>
<text text-anchor="start" x="595" y="-276.5" font-family="Helvetica,sans-Serif" font-size="10.00">+ getMap()</text>
<text text-anchor="start" x="595" y="-265.5" font-family="Helvetica,sans-Serif" font-size="10.00">+ getMap()</text>
</a>
</g>
</g>
<!-- Node12&#45;&gt;Node1 -->
<g id="edge14" class="edge">
<title>Node12&#45;&gt;Node1</title>
<path fill="none" stroke="#404040" d="M617.73,-258.27C613.71,-252.31 609.83,-246.1 606.5,-240 581.55,-194.29 598.17,-169.86 563.5,-131 551.19,-117.21 535.67,-105.56 519.52,-95.88"/>
<polygon fill="none" stroke="#404040" points="519.27,-95.74 512.07,-96.24 508.84,-89.8 516.03,-89.29 519.27,-95.74"/>
<text text-anchor="middle" x="644.5" y="-197.5" font-family="Helvetica,sans-Serif" font-size="10.00"> +m_floatAttrib</text>
</g>
<!-- Node13&#45;&gt;Node12 -->
<g id="edge15" class="edge">
<title>Node13&#45;&gt;Node12</title>
<path fill="none" stroke="midnightblue" d="M769.12,-454.18C742.16,-419.78 704.06,-371.17 677.72,-337.56"/>
<polygon fill="none" stroke="midnightblue" points="766.45,-456.45 775.38,-462.17 771.96,-452.14 766.45,-456.45"/>
</g>
<!-- Node14&#45;&gt;Node13 -->
<g id="edge16" class="edge">
<title>Node14&#45;&gt;Node13</title>
<path fill="none" stroke="midnightblue" d="M790.52,-763.94C793.19,-699.07 797.83,-586.49 800.13,-530.74"/>
<polygon fill="none" stroke="midnightblue" points="787.01,-764.18 790.09,-774.31 794,-764.47 787.01,-764.18"/>
</g>
<!-- Node15&#45;&gt;Node1 -->
<g id="edge19" class="edge">
<title>Node15&#45;&gt;Node1</title>
<path fill="none" stroke="#404040" d="M244.4,-160.17C251.8,-149.79 260.66,-139.2 270.5,-131 288.52,-115.98 310.13,-103.25 331.41,-92.82"/>
<polygon fill="none" stroke="#404040" points="331.64,-92.71 335.35,-86.52 342.49,-87.57 338.78,-93.75 331.64,-92.71"/>
<text text-anchor="middle" x="316" y="-134" font-family="Helvetica,sans-Serif" font-size="10.00"> +m_vector2Attrib</text>
</g>
<!-- Node16&#45;&gt;Node15 -->
<g id="edge20" class="edge">
<title>Node16&#45;&gt;Node15</title>
<path fill="none" stroke="midnightblue" d="M127.45,-452.81C148.83,-395.57 186.47,-294.78 207.06,-239.67"/>
<polygon fill="none" stroke="midnightblue" points="124.12,-451.7 123.9,-462.29 130.68,-454.15 124.12,-451.7"/>
</g>
<!-- Node17&#45;&gt;Node16 -->
<g id="edge21" class="edge">
<title>Node17&#45;&gt;Node16</title>
<path fill="none" stroke="midnightblue" d="M118.48,-666.26C116.78,-624.99 114.37,-566.93 112.88,-530.79"/>
<polygon fill="none" stroke="midnightblue" points="114.99,-666.52 118.9,-676.37 121.98,-666.23 114.99,-666.52"/>
</g>
<!-- Node18&#45;&gt;Node1 -->
<g id="edge25" class="edge">
<title>Node18&#45;&gt;Node1</title>
<path fill="none" stroke="#404040" d="M479.28,-160.33C473.32,-148.94 466.63,-136.14 460.04,-123.54"/>
<polygon fill="none" stroke="#404040" points="459.86,-123.2 453.53,-119.73 454.3,-112.56 460.62,-116.03 459.86,-123.2"/>
<text text-anchor="middle" x="514" y="-134" font-family="Helvetica,sans-Serif" font-size="10.00"> +m_vector3Attrib</text>
</g>
<!-- Node19&#45;&gt;Node18 -->
<g id="edge26" class="edge">
<title>Node19&#45;&gt;Node18</title>
<path fill="none" stroke="midnightblue" d="M616.81,-453.16C590.21,-395.99 543.18,-294.9 517.49,-239.67"/>
<polygon fill="none" stroke="midnightblue" points="613.66,-454.7 621.05,-462.29 620.01,-451.75 613.66,-454.7"/>
</g>
<!-- Node20&#45;&gt;Node19 -->
<g id="edge27" class="edge">
<title>Node20&#45;&gt;Node19</title>
<path fill="none" stroke="midnightblue" d="M707.9,-567.96C707.67,-561.38 706.4,-554.88 703.5,-549 700.19,-542.29 695.55,-536.21 690.22,-530.77"/>
<polygon fill="none" stroke="midnightblue" points="704.38,-568.15 707.46,-578.29 711.38,-568.45 704.38,-568.15"/>
</g>
<!-- Node21 -->
<g id="node21" class="node">
<title>Node21</title>
<g id="a_node21"><a xlink:title=" ">
<polygon fill="white" stroke="#bfbfbf" points="691,-171.5 691,-228.5 736,-228.5 736,-171.5 691,-171.5"/>
<text text-anchor="middle" x="713.5" y="-216.5" font-family="Helvetica,sans-Serif" font-size="10.00">friend</text>
<polyline fill="none" stroke="#bfbfbf" points="691,-209.5 736,-209.5 "/>
<text text-anchor="middle" x="713.5" y="-197.5" font-family="Helvetica,sans-Serif" font-size="10.00"> </text>
<polyline fill="none" stroke="#bfbfbf" points="691,-190.5 736,-190.5 "/>
<text text-anchor="middle" x="713.5" y="-178.5" font-family="Helvetica,sans-Serif" font-size="10.00"> </text>
</a>
</g>
</g>
<!-- Node21&#45;&gt;Node1 -->
<g id="edge31" class="edge">
<title>Node21&#45;&gt;Node1</title>
<path fill="none" stroke="#404040" d="M690.94,-172.3C686.44,-167.85 681.54,-163.54 676.5,-160 629.27,-126.79 569.67,-101.87 520.4,-84.92"/>
<polygon fill="none" stroke="#404040" points="520.14,-84.83 513.17,-86.71 508.76,-81 515.73,-79.13 520.14,-84.83"/>
<text text-anchor="middle" x="668" y="-134" font-family="Helvetica,sans-Serif" font-size="10.00"> +Wedge</text>
</g>
</g>
</svg>
