<?xml version="1.0" encoding="UTF-8" standalone="no"?>
<!DOCTYPE svg PUBLIC "-//W3C//DTD SVG 1.1//EN"
 "http://www.w3.org/Graphics/SVG/1.1/DTD/svg11.dtd">
<!-- Generated by graphviz version 2.40.1 (20161225.0304)
 -->
<!-- Title: Ra::Core::Animation::Cage Pages: 1 -->
<!--zoomable 1030 -->
<svg id="main" version="1.1" xmlns="http://www.w3.org/2000/svg" xmlns:xlink="http://www.w3.org/1999/xlink" xml:space="preserve" onload="init(evt)">
<style type="text/css"><![CDATA[
.edge:hover path { stroke: red; }
.edge:hover polygon { stroke: red; fill: red; }
]]></style>
<script type="text/javascript"><![CDATA[
var edges = document.getElementsByTagName('g');
if (edges && edges.length) {
  for (var i=0;i<edges.length;i++) {
    if (edges[i].id.substr(0,4)=='edge') {
      edges[i].setAttribute('class','edge');
    }
  }
}
]]></script>
        <defs>
                <circle id="rim" cx="0" cy="0" r="7"/>
                <circle id="rim2" cx="0" cy="0" r="3.5"/>
                <g id="zoomPlus">
                        <use xlink:href="#rim" fill="#404040">
                                <set attributeName="fill" to="#808080" begin="zoomplus.mouseover" end="zoomplus.mouseout"/>
                        </use>
                        <path d="M-4,0h8M0,-4v8" fill="none" stroke="white" stroke-width="1.5" pointer-events="none"/>
                </g>
                <g id="zoomMin">
                        <use xlink:href="#rim" fill="#404040">
                                <set attributeName="fill" to="#808080" begin="zoomminus.mouseover" end="zoomminus.mouseout"/>
                        </use>
                        <path d="M-4,0h8" fill="none" stroke="white" stroke-width="1.5" pointer-events="none"/>
                </g>
                <g id="dirArrow">
                        <path fill="none" stroke="white" stroke-width="1.5" d="M0,-3.0v7 M-2.5,-0.5L0,-3.0L2.5,-0.5"/>
                </g>
               <g id="resetDef">
                       <use xlink:href="#rim2" fill="#404040">
                               <set attributeName="fill" to="#808080" begin="reset.mouseover" end="reset.mouseout"/>
                       </use>
               </g>
        </defs>

<script type="text/javascript">
var viewWidth = 627;
var viewHeight = 1030;
var sectionId = 'dynsection-1';
</script>
<script xlink:href="svgpan.js"/>
<svg id="graph" class="graph">
<g id="viewport">
<title>Ra::Core::Animation::Cage</title>
<polygon fill="#ffffff" stroke="transparent" points="-4,4 -4,-1026 622.5,-1026 622.5,4 -4,4"/>
<!-- Node2 -->
<g id="node1" class="node">
<title>Node2</title>
<polygon fill="#bfbfbf" stroke="#000000" points="148,-.5 148,-112.5 262,-112.5 262,-.5 148,-.5"/>
<text text-anchor="start" x="156" y="-100.5" font-family="Helvetica,sans-Serif" font-size="10.00" fill="#000000">Ra::Core::Animation</text>
<text text-anchor="middle" x="205" y="-89.5" font-family="Helvetica,sans-Serif" font-size="10.00" fill="#000000">::Cage</text>
<polyline fill="none" stroke="#000000" points="148,-82.5 262,-82.5 "/>
<text text-anchor="middle" x="205" y="-70.5" font-family="Helvetica,sans-Serif" font-size="10.00" fill="#000000"> </text>
<polyline fill="none" stroke="#000000" points="148,-63.5 262,-63.5 "/>
<text text-anchor="start" x="156" y="-51.5" font-family="Helvetica,sans-Serif" font-size="10.00" fill="#000000">+ Cage()</text>
<text text-anchor="start" x="156" y="-40.5" font-family="Helvetica,sans-Serif" font-size="10.00" fill="#000000">+ Cage()</text>
<text text-anchor="start" x="156" y="-29.5" font-family="Helvetica,sans-Serif" font-size="10.00" fill="#000000">+ Cage()</text>
<text text-anchor="start" x="156" y="-18.5" font-family="Helvetica,sans-Serif" font-size="10.00" fill="#000000">+ ~Cage()</text>
<text text-anchor="start" x="156" y="-7.5" font-family="Helvetica,sans-Serif" font-size="10.00" fill="#000000">+ clear()</text>
</g>
<!-- Node3 -->
<g id="node2" class="node">
<title>Node3</title>
<g id="a_node2"><a xlink:href="classRa_1_1Core_1_1Animation_1_1HandleArray.html" target="_top" xlink:title="{Ra::Core::Animation\l::HandleArray\n||+ HandleArray()\l+ HandleArray()\l+ HandleArray()\l+ operator=()\l+ ~HandleArray()\l+ size()\l+ clear()\l+ getPose()\l+ setPose()\l+ getTransform()\l+ setTransform()\l+ getName()\l+ setName()\l+ getLabel()\l+ setLabel()\l}">
<polygon fill="#ffffff" stroke="#000000" points="102,-393.5 102,-615.5 216,-615.5 216,-393.5 102,-393.5"/>
<text text-anchor="start" x="110" y="-603.5" font-family="Helvetica,sans-Serif" font-size="10.00" fill="#000000">Ra::Core::Animation</text>
<text text-anchor="middle" x="159" y="-592.5" font-family="Helvetica,sans-Serif" font-size="10.00" fill="#000000">::HandleArray</text>
<polyline fill="none" stroke="#000000" points="102,-585.5 216,-585.5 "/>
<text text-anchor="middle" x="159" y="-573.5" font-family="Helvetica,sans-Serif" font-size="10.00" fill="#000000"> </text>
<polyline fill="none" stroke="#000000" points="102,-566.5 216,-566.5 "/>
<text text-anchor="start" x="110" y="-554.5" font-family="Helvetica,sans-Serif" font-size="10.00" fill="#000000">+ HandleArray()</text>
<text text-anchor="start" x="110" y="-543.5" font-family="Helvetica,sans-Serif" font-size="10.00" fill="#000000">+ HandleArray()</text>
<text text-anchor="start" x="110" y="-532.5" font-family="Helvetica,sans-Serif" font-size="10.00" fill="#000000">+ HandleArray()</text>
<text text-anchor="start" x="110" y="-521.5" font-family="Helvetica,sans-Serif" font-size="10.00" fill="#000000">+ operator=()</text>
<text text-anchor="start" x="110" y="-510.5" font-family="Helvetica,sans-Serif" font-size="10.00" fill="#000000">+ ~HandleArray()</text>
<text text-anchor="start" x="110" y="-499.5" font-family="Helvetica,sans-Serif" font-size="10.00" fill="#000000">+ size()</text>
<text text-anchor="start" x="110" y="-488.5" font-family="Helvetica,sans-Serif" font-size="10.00" fill="#000000">+ clear()</text>
<text text-anchor="start" x="110" y="-477.5" font-family="Helvetica,sans-Serif" font-size="10.00" fill="#000000">+ getPose()</text>
<text text-anchor="start" x="110" y="-466.5" font-family="Helvetica,sans-Serif" font-size="10.00" fill="#000000">+ setPose()</text>
<text text-anchor="start" x="110" y="-455.5" font-family="Helvetica,sans-Serif" font-size="10.00" fill="#000000">+ getTransform()</text>
<text text-anchor="start" x="110" y="-444.5" font-family="Helvetica,sans-Serif" font-size="10.00" fill="#000000">+ setTransform()</text>
<text text-anchor="start" x="110" y="-433.5" font-family="Helvetica,sans-Serif" font-size="10.00" fill="#000000">+ getName()</text>
<text text-anchor="start" x="110" y="-422.5" font-family="Helvetica,sans-Serif" font-size="10.00" fill="#000000">+ setName()</text>
<text text-anchor="start" x="110" y="-411.5" font-family="Helvetica,sans-Serif" font-size="10.00" fill="#000000">+ getLabel()</text>
<text text-anchor="start" x="110" y="-400.5" font-family="Helvetica,sans-Serif" font-size="10.00" fill="#000000">+ setLabel()</text>
</a>
</g>
</g>
<!-- Node3&#45;&gt;Node2 -->
<g id="edge1" class="edge">
<title>Node3&#45;&gt;Node2</title>
<path fill="none" stroke="#191970" d="M171.4326,-383.4176C180.4715,-295.3859 192.2929,-180.2566 199.2254,-112.7399"/>
<polygon fill="none" stroke="#191970" points="167.9401,-383.1655 170.4003,-393.4707 174.9035,-383.8805 167.9401,-383.1655"/>
</g>
<!-- Node4 -->
<g id="node3" class="node">
<title>Node4</title>
<polygon fill="#ffffff" stroke="#bfbfbf" points="100.5,-663.5 100.5,-720.5 217.5,-720.5 217.5,-663.5 100.5,-663.5"/>
<text text-anchor="middle" x="159" y="-708.5" font-family="Helvetica,sans-Serif" font-size="10.00" fill="#000000">std::vector&lt; Label &gt;</text>
<polyline fill="none" stroke="#bfbfbf" points="100.5,-701.5 217.5,-701.5 "/>
<text text-anchor="middle" x="159" y="-689.5" font-family="Helvetica,sans-Serif" font-size="10.00" fill="#000000"> </text>
<polyline fill="none" stroke="#bfbfbf" points="100.5,-682.5 217.5,-682.5 "/>
<text text-anchor="middle" x="159" y="-670.5" font-family="Helvetica,sans-Serif" font-size="10.00" fill="#000000"> </text>
</g>
<!-- Node4&#45;&gt;Node3 -->
<g id="edge2" class="edge">
<title>Node4&#45;&gt;Node3</title>
<path fill="none" stroke="#404040" d="M159,-663.114C159,-652.9683 159,-640.8347 159,-627.8576"/>
<polygon fill="none" stroke="#404040" points="159.0001,-627.7355 155,-621.7355 159,-615.7355 163,-621.7355 159.0001,-627.7355"/>
<text text-anchor="middle" x="184.5" y="-637" font-family="Helvetica,sans-Serif" font-size="10.00" fill="#000000"> #m_label</text>
</g>
<!-- Node5 -->
<g id="node4" class="node">
<title>Node5</title>
<g id="a_node4"><a xlink:title="STL class. ">
<polygon fill="#ffffff" stroke="#bfbfbf" points="19.5,-843 19.5,-900 84.5,-900 84.5,-843 19.5,-843"/>
<text text-anchor="middle" x="52" y="-888" font-family="Helvetica,sans-Serif" font-size="10.00" fill="#000000">std::string</text>
<polyline fill="none" stroke="#bfbfbf" points="19.5,-881 84.5,-881 "/>
<text text-anchor="middle" x="52" y="-869" font-family="Helvetica,sans-Serif" font-size="10.00" fill="#000000"> </text>
<polyline fill="none" stroke="#bfbfbf" points="19.5,-862 84.5,-862 "/>
<text text-anchor="middle" x="52" y="-850" font-family="Helvetica,sans-Serif" font-size="10.00" fill="#000000"> </text>
</a>
</g>
</g>
<!-- Node5&#45;&gt;Node3 -->
<g id="edge10" class="edge">
<title>Node5&#45;&gt;Node3</title>
<path fill="none" stroke="#404040" d="M42.8134,-842.9445C31.1558,-801.9205 14.9437,-724.4789 36,-663 47.9129,-628.2176 70.9131,-595.1718 93.8322,-568.3438"/>
<polygon fill="none" stroke="#404040" points="94.0068,-568.1447 94.9542,-560.996 101.9173,-559.1211 100.9699,-566.2697 94.0068,-568.1447"/>
<text text-anchor="middle" x="63.5" y="-689.5" font-family="Helvetica,sans-Serif" font-size="10.00" fill="#000000"> #m_name</text>
</g>
<!-- Node5&#45;&gt;Node4 -->
<g id="edge3" class="edge">
<title>Node5&#45;&gt;Node4</title>
<path fill="none" stroke="#404040" d="M53.3539,-842.8451C55.9968,-814.1449 63.6988,-769.9118 86,-739 88.6236,-735.3634 91.6234,-731.9372 94.8763,-728.7217"/>
<polygon fill="none" stroke="#404040" points="94.9834,-728.6276 96.8471,-721.6614 103.9941,-720.7025 102.1305,-727.6686 94.9834,-728.6276"/>
<text text-anchor="middle" x="115" y="-776.5" font-family="Helvetica,sans-Serif" font-size="10.00" fill="#000000"> +elements</text>
</g>
<!-- Node6 -->
<g id="node5" class="node">
<title>Node6</title>
<g id="a_node5"><a xlink:title="STL class. ">
<polygon fill="#ffffff" stroke="#bfbfbf" points="0,-953.5 0,-1021.5 104,-1021.5 104,-953.5 0,-953.5"/>
<text text-anchor="start" x="8" y="-1009.5" font-family="Helvetica,sans-Serif" font-size="10.00" fill="#000000">std::basic_string&lt;</text>
<text text-anchor="middle" x="52" y="-998.5" font-family="Helvetica,sans-Serif" font-size="10.00" fill="#000000"> char &gt;</text>
<polyline fill="none" stroke="#bfbfbf" points="0,-991.5 104,-991.5 "/>
<text text-anchor="middle" x="52" y="-979.5" font-family="Helvetica,sans-Serif" font-size="10.00" fill="#000000"> </text>
<polyline fill="none" stroke="#bfbfbf" points="0,-972.5 104,-972.5 "/>
<text text-anchor="middle" x="52" y="-960.5" font-family="Helvetica,sans-Serif" font-size="10.00" fill="#000000"> </text>
</a>
</g>
</g>
<!-- Node6&#45;&gt;Node5 -->
<g id="edge4" class="edge">
<title>Node6&#45;&gt;Node5</title>
<path fill="none" stroke="#191970" d="M52,-943.1387C52,-928.7904 52,-913.2617 52,-900.3418"/>
<polygon fill="none" stroke="#191970" points="48.5001,-943.3235 52,-953.3236 55.5001,-943.3236 48.5001,-943.3235"/>
</g>
<!-- Node7 -->
<g id="node6" class="node">
<title>Node7</title>
<g id="a_node6"><a xlink:title="STL class. ">
<polygon fill="#ffffff" stroke="#bfbfbf" points="118.5,-843 118.5,-900 215.5,-900 215.5,-843 118.5,-843"/>
<text text-anchor="middle" x="167" y="-888" font-family="Helvetica,sans-Serif" font-size="10.00" fill="#000000">std::vector&lt; T &gt;</text>
<polyline fill="none" stroke="#bfbfbf" points="118.5,-881 215.5,-881 "/>
<text text-anchor="middle" x="167" y="-869" font-family="Helvetica,sans-Serif" font-size="10.00" fill="#000000"> </text>
<polyline fill="none" stroke="#bfbfbf" points="118.5,-862 215.5,-862 "/>
<text text-anchor="middle" x="167" y="-850" font-family="Helvetica,sans-Serif" font-size="10.00" fill="#000000"> </text>
</a>
</g>
</g>
<!-- Node7&#45;&gt;Node4 -->
<g id="edge5" class="edge">
<title>Node7&#45;&gt;Node4</title>
<path fill="none" stroke="#ffa500" d="M153.8521,-832.966C152.6809,-828.3063 151.6819,-823.5767 151,-819 145.7601,-783.8327 148.0063,-774.4293 151,-739 151.5018,-733.0617 152.3541,-726.7459 153.3201,-720.7347"/>
<polygon fill="#ffa500" stroke="#ffa500" points="150.5826,-834.2729 156.6349,-842.9689 157.3265,-832.3967 150.5826,-834.2729"/>
<text text-anchor="middle" x="177" y="-776.5" font-family="Helvetica,sans-Serif" font-size="10.00" fill="#000000"> &lt; Label &gt;</text>
</g>
<!-- Node8 -->
<g id="node7" class="node">
<title>Node8</title>
<polygon fill="#ffffff" stroke="#bfbfbf" points="310.5,-959 310.5,-1016 339.5,-1016 339.5,-959 310.5,-959"/>
<text text-anchor="middle" x="325" y="-1004" font-family="Helvetica,sans-Serif" font-size="10.00" fill="#000000">T</text>
<polyline fill="none" stroke="#bfbfbf" points="310.5,-997 339.5,-997 "/>
<text text-anchor="middle" x="325" y="-985" font-family="Helvetica,sans-Serif" font-size="10.00" fill="#000000"> </text>
<polyline fill="none" stroke="#bfbfbf" points="310.5,-978 339.5,-978 "/>
<text text-anchor="middle" x="325" y="-966" font-family="Helvetica,sans-Serif" font-size="10.00" fill="#000000"> </text>
</g>
<!-- Node8&#45;&gt;Node7 -->
<g id="edge6" class="edge">
<title>Node8&#45;&gt;Node7</title>
<path fill="none" stroke="#404040" d="M310.1146,-984.7026C284.7008,-979.2443 232.5411,-964.9871 200,-935 192.8051,-928.3698 186.914,-919.8098 182.2054,-911.1347"/>
<polygon fill="none" stroke="#404040" points="182.1395,-910.9998 175.9092,-907.3689 176.8645,-900.2213 183.0948,-903.8522 182.1395,-910.9998"/>
<text text-anchor="middle" x="229" y="-927" font-family="Helvetica,sans-Serif" font-size="10.00" fill="#000000"> +elements</text>
</g>
<!-- Node10 -->
<g id="node9" class="node">
<title>Node10</title>
<g id="a_node9"><a xlink:title="STL class. ">
<polygon fill="#ffffff" stroke="#bfbfbf" points="308,-837.5 308,-905.5 454,-905.5 454,-837.5 308,-837.5"/>
<text text-anchor="start" x="316" y="-893.5" font-family="Helvetica,sans-Serif" font-size="10.00" fill="#000000">std::vector&lt; T, Eigen</text>
<text text-anchor="middle" x="381" y="-882.5" font-family="Helvetica,sans-Serif" font-size="10.00" fill="#000000">::aligned_allocator&lt; T &gt; &gt;</text>
<polyline fill="none" stroke="#bfbfbf" points="308,-875.5 454,-875.5 "/>
<text text-anchor="middle" x="381" y="-863.5" font-family="Helvetica,sans-Serif" font-size="10.00" fill="#000000"> </text>
<polyline fill="none" stroke="#bfbfbf" points="308,-856.5 454,-856.5 "/>
<text text-anchor="middle" x="381" y="-844.5" font-family="Helvetica,sans-Serif" font-size="10.00" fill="#000000"> </text>
</a>
</g>
</g>
<!-- Node8&#45;&gt;Node10 -->
<g id="edge9" class="edge">
<title>Node8&#45;&gt;Node10</title>
<path fill="none" stroke="#404040" d="M338.8427,-958.8258C344.9764,-946.1204 352.3401,-930.867 359.1847,-916.6887"/>
<polygon fill="none" stroke="#404040" points="359.3123,-916.4244 358.3186,-909.2821 364.5294,-905.6178 365.523,-912.7601 359.3123,-916.4244"/>
<text text-anchor="middle" x="384" y="-927" font-family="Helvetica,sans-Serif" font-size="10.00" fill="#000000"> +elements</text>
</g>
<!-- Node13 -->
<g id="node12" class="node">
<title>Node13</title>
<g id="a_node12"><a xlink:title="STL class. ">
<polygon fill="#ffffff" stroke="#bfbfbf" points="427.5,-739.5 427.5,-818.5 618.5,-818.5 618.5,-739.5 427.5,-739.5"/>
<text text-anchor="start" x="435.5" y="-806.5" font-family="Helvetica,sans-Serif" font-size="10.00" fill="#000000">std::vector&lt; Ra::Core</text>
<text text-anchor="start" x="435.5" y="-795.5" font-family="Helvetica,sans-Serif" font-size="10.00" fill="#000000">::Vector3ui, Eigen::aligned</text>
<text text-anchor="middle" x="523" y="-784.5" font-family="Helvetica,sans-Serif" font-size="10.00" fill="#000000">_allocator&lt; Ra::Core::Vector3ui &gt; &gt;</text>
<polyline fill="none" stroke="#bfbfbf" points="427.5,-777.5 618.5,-777.5 "/>
<text text-anchor="middle" x="523" y="-765.5" font-family="Helvetica,sans-Serif" font-size="10.00" fill="#000000"> </text>
<polyline fill="none" stroke="#bfbfbf" points="427.5,-758.5 618.5,-758.5 "/>
<text text-anchor="middle" x="523" y="-746.5" font-family="Helvetica,sans-Serif" font-size="10.00" fill="#000000"> </text>
</a>
</g>
</g>
<!-- Node8&#45;&gt;Node13 -->
<g id="edge14" class="edge">
<title>Node8&#45;&gt;Node13</title>
<path fill="none" stroke="#404040" d="M339.9213,-982.2644C367.6651,-971.8404 427.5801,-945.9932 463,-906 482.3308,-884.1732 496.6928,-855.0317 506.5107,-830.1693"/>
<polygon fill="none" stroke="#404040" points="506.5934,-829.9503 504.9724,-822.9237 510.835,-818.7249 512.456,-825.7514 506.5934,-829.9503"/>
<text text-anchor="middle" x="472" y="-927" font-family="Helvetica,sans-Serif" font-size="10.00" fill="#000000"> +elements</text>
</g>
<!-- Node16 -->
<g id="node15" class="node">
<title>Node16</title>
<g id="a_node15"><a xlink:title="STL class. ">
<polygon fill="#ffffff" stroke="#bfbfbf" points="212.5,-745 212.5,-813 359.5,-813 359.5,-745 212.5,-745"/>
<text text-anchor="start" x="220.5" y="-801" font-family="Helvetica,sans-Serif" font-size="10.00" fill="#000000">std::vector&lt; V, Eigen</text>
<text text-anchor="middle" x="286" y="-790" font-family="Helvetica,sans-Serif" font-size="10.00" fill="#000000">::aligned_allocator&lt; V &gt; &gt;</text>
<polyline fill="none" stroke="#bfbfbf" points="212.5,-783 359.5,-783 "/>
<text text-anchor="middle" x="286" y="-771" font-family="Helvetica,sans-Serif" font-size="10.00" fill="#000000"> </text>
<polyline fill="none" stroke="#bfbfbf" points="212.5,-764 359.5,-764 "/>
<text text-anchor="middle" x="286" y="-752" font-family="Helvetica,sans-Serif" font-size="10.00" fill="#000000"> </text>
</a>
</g>
</g>
<!-- Node8&#45;&gt;Node16 -->
<g id="edge19" class="edge">
<title>Node8&#45;&gt;Node16</title>
<path fill="none" stroke="#404040" d="M310.3149,-970.814C302.7126,-961.0816 294.1687,-948.1579 290,-935 278.6949,-899.3174 278.4272,-856.7127 280.5762,-825.0504"/>
<polygon fill="none" stroke="#404040" points="280.5783,-825.0233 277.0717,-818.7221 281.5395,-813.0618 285.046,-819.363 280.5783,-825.0233"/>
<text text-anchor="middle" x="319" y="-927" font-family="Helvetica,sans-Serif" font-size="10.00" fill="#000000"> +elements</text>
</g>
<!-- Node9 -->
<g id="node8" class="node">
<title>Node9</title>
<g id="a_node8"><a xlink:href="structRa_1_1Core_1_1AlignedStdVector.html" target="_top" xlink:title="{Ra::Core::AlignedStdVector\&lt; T \&gt;\n||}">
<polygon fill="#ffffff" stroke="#000000" points="287,-663.5 287,-720.5 463,-720.5 463,-663.5 287,-663.5"/>
<text text-anchor="middle" x="375" y="-708.5" font-family="Helvetica,sans-Serif" font-size="10.00" fill="#000000">Ra::Core::AlignedStdVector&lt; T &gt;</text>
<polyline fill="none" stroke="#000000" points="287,-701.5 463,-701.5 "/>
<text text-anchor="middle" x="375" y="-689.5" font-family="Helvetica,sans-Serif" font-size="10.00" fill="#000000"> </text>
<polyline fill="none" stroke="#000000" points="287,-682.5 463,-682.5 "/>
<text text-anchor="middle" x="375" y="-670.5" font-family="Helvetica,sans-Serif" font-size="10.00" fill="#000000"> </text>
</a>
</g>
</g>
<!-- Node9&#45;&gt;Node3 -->
<g id="edge7" class="edge">
<title>Node9&#45;&gt;Node3</title>
<path fill="none" stroke="#404040" d="M298.3642,-663.4168C273.032,-651.4383 245.9882,-635.6566 225,-616 224.9051,-615.9111 224.8103,-615.822 224.7155,-615.7328"/>
<polygon fill="none" stroke="#404040" points="224.5604,-615.5741 217.506,-614.0789 216.173,-606.992 223.2274,-608.4873 224.5604,-615.5741"/>
<text text-anchor="middle" x="287" y="-637" font-family="Helvetica,sans-Serif" font-size="10.00" fill="#000000"> +m_pose</text>
</g>
<!-- Node12 -->
<g id="node11" class="node">
<title>Node12</title>
<g id="a_node11"><a xlink:href="structRa_1_1Core_1_1AlignedStdVector.html" target="_top" xlink:title="{Ra::Core::AlignedStdVector\l\&lt; Ra::Core::Vector3ui \&gt;\n||}">
<polygon fill="#ffffff" stroke="#000000" points="428.5,-470.5 428.5,-538.5 575.5,-538.5 575.5,-470.5 428.5,-470.5"/>
<text text-anchor="start" x="436.5" y="-526.5" font-family="Helvetica,sans-Serif" font-size="10.00" fill="#000000">Ra::Core::AlignedStdVector</text>
<text text-anchor="middle" x="502" y="-515.5" font-family="Helvetica,sans-Serif" font-size="10.00" fill="#000000">&lt; Ra::Core::Vector3ui &gt;</text>
<polyline fill="none" stroke="#000000" points="428.5,-508.5 575.5,-508.5 "/>
<text text-anchor="middle" x="502" y="-496.5" font-family="Helvetica,sans-Serif" font-size="10.00" fill="#000000"> </text>
<polyline fill="none" stroke="#000000" points="428.5,-489.5 575.5,-489.5 "/>
<text text-anchor="middle" x="502" y="-477.5" font-family="Helvetica,sans-Serif" font-size="10.00" fill="#000000"> </text>
</a>
</g>
</g>
<!-- Node9&#45;&gt;Node12 -->
<g id="edge15" class="edge">
<title>Node9&#45;&gt;Node12</title>
<path fill="none" stroke="#ffa500" d="M399.246,-654.727C403.7895,-647.8182 408.5191,-640.6769 413,-634 434.8146,-601.4942 460.1379,-564.7399 478.1819,-538.7138"/>
<polygon fill="#ffa500" stroke="#ffa500" points="396.1802,-653.0197 393.6231,-663.3014 402.0338,-656.8584 396.1802,-653.0197"/>
<text text-anchor="middle" x="472.5" y="-637" font-family="Helvetica,sans-Serif" font-size="10.00" fill="#000000"> &lt; Ra::Core::Vector3ui &gt;</text>
</g>
<!-- Node15 -->
<g id="node14" class="node">
<title>Node15</title>
<g id="a_node14"><a xlink:href="structRa_1_1Core_1_1AlignedStdVector.html" target="_top" xlink:title="{Ra::Core::AlignedStdVector\&lt; V \&gt;\n||}">
<polygon fill="#ffffff" stroke="#000000" points="234,-476 234,-533 410,-533 410,-476 234,-476"/>
<text text-anchor="middle" x="322" y="-521" font-family="Helvetica,sans-Serif" font-size="10.00" fill="#000000">Ra::Core::AlignedStdVector&lt; V &gt;</text>
<polyline fill="none" stroke="#000000" points="234,-514 410,-514 "/>
<text text-anchor="middle" x="322" y="-502" font-family="Helvetica,sans-Serif" font-size="10.00" fill="#000000"> </text>
<polyline fill="none" stroke="#000000" points="234,-495 410,-495 "/>
<text text-anchor="middle" x="322" y="-483" font-family="Helvetica,sans-Serif" font-size="10.00" fill="#000000"> </text>
</a>
</g>
</g>
<!-- Node9&#45;&gt;Node15 -->
<g id="edge20" class="edge">
<title>Node9&#45;&gt;Node15</title>
<path fill="none" stroke="#ffa500" d="M359.959,-653.8851C358.9146,-650.8936 357.9149,-647.9067 357,-645 344.9619,-606.755 334.3379,-561.6265 328.0389,-533.0383"/>
<polygon fill="#ffa500" stroke="#ffa500" points="356.6967,-655.1559 363.3979,-663.3622 363.2769,-652.7681 356.6967,-655.1559"/>
<text text-anchor="middle" x="373.5" y="-637" font-family="Helvetica,sans-Serif" font-size="10.00" fill="#000000"> &lt; V &gt;</text>
</g>
<!-- Node10&#45;&gt;Node9 -->
<g id="edge8" class="edge">
<title>Node10&#45;&gt;Node9</title>
<path fill="none" stroke="#191970" d="M379.5112,-826.9602C378.4012,-793.7529 376.9176,-749.3696 375.9604,-720.7309"/>
<polygon fill="none" stroke="#191970" points="376.0251,-827.4375 379.8573,-837.3149 383.0212,-827.2035 376.0251,-827.4375"/>
</g>
<!-- Node11 -->
<g id="node10" class="node">
<title>Node11</title>
<g id="a_node10"><a xlink:href="classRa_1_1Core_1_1VectorArray.html" target="_top" xlink:title="{Ra::Core::VectorArray\l\&lt; Ra::Core::Vector3ui \&gt;\n||+ getMap()\l+ getMap()\l}">
<polygon fill="#ffffff" stroke="#000000" points="256,-160.5 256,-239.5 388,-239.5 388,-160.5 256,-160.5"/>
<text text-anchor="start" x="264" y="-227.5" font-family="Helvetica,sans-Serif" font-size="10.00" fill="#000000">Ra::Core::VectorArray</text>
<text text-anchor="middle" x="322" y="-216.5" font-family="Helvetica,sans-Serif" font-size="10.00" fill="#000000">&lt; Ra::Core::Vector3ui &gt;</text>
<polyline fill="none" stroke="#000000" points="256,-209.5 388,-209.5 "/>
<text text-anchor="middle" x="322" y="-197.5" font-family="Helvetica,sans-Serif" font-size="10.00" fill="#000000"> </text>
<polyline fill="none" stroke="#000000" points="256,-190.5 388,-190.5 "/>
<text text-anchor="start" x="264" y="-178.5" font-family="Helvetica,sans-Serif" font-size="10.00" fill="#000000">+ getMap()</text>
<text text-anchor="start" x="264" y="-167.5" font-family="Helvetica,sans-Serif" font-size="10.00" fill="#000000">+ getMap()</text>
</a>
</g>
</g>
<!-- Node11&#45;&gt;Node2 -->
<g id="edge11" class="edge">
<title>Node11&#45;&gt;Node2</title>
<path fill="none" stroke="#404040" d="M289.7195,-160.4081C280.0313,-148.5255 269.1333,-135.1592 258.4607,-122.0693"/>
<polygon fill="none" stroke="#404040" points="258.3327,-121.9123 251.4411,-119.7898 250.7497,-112.6118 257.6414,-114.7344 258.3327,-121.9123"/>
<text text-anchor="middle" x="306" y="-134" font-family="Helvetica,sans-Serif" font-size="10.00" fill="#000000"> +m_triangle</text>
</g>
<!-- Node12&#45;&gt;Node11 -->
<g id="edge12" class="edge">
<title>Node12&#45;&gt;Node11</title>
<path fill="none" stroke="#191970" d="M502.9085,-460.0037C501.703,-406.4123 492.0501,-316.3368 445,-258 430.4749,-239.9905 409.0455,-227.2699 388.1265,-218.4281"/>
<polygon fill="none" stroke="#191970" points="499.4116,-460.2632 503.0456,-470.2153 506.411,-460.1692 499.4116,-460.2632"/>
</g>
<!-- Node13&#45;&gt;Node12 -->
<g id="edge13" class="edge">
<title>Node13&#45;&gt;Node12</title>
<path fill="none" stroke="#191970" d="M530.3961,-729.243C533.4848,-701.2068 535.6101,-665.58 532,-634 528.2518,-601.212 519.3302,-564.6468 512.1845,-538.755"/>
<polygon fill="none" stroke="#191970" points="526.9163,-728.8665 529.2234,-739.2071 533.8683,-729.6848 526.9163,-728.8665"/>
</g>
<!-- Node14 -->
<g id="node13" class="node">
<title>Node14</title>
<g id="a_node13"><a xlink:href="classRa_1_1Core_1_1VectorArray.html" target="_top" xlink:title="{Ra::Core::VectorArray\&lt; V \&gt;\n||+ getMap()\l+ getMap()\l}">
<polygon fill="#ffffff" stroke="#000000" points="247,-287.5 247,-355.5 397,-355.5 397,-287.5 247,-287.5"/>
<text text-anchor="middle" x="322" y="-343.5" font-family="Helvetica,sans-Serif" font-size="10.00" fill="#000000">Ra::Core::VectorArray&lt; V &gt;</text>
<polyline fill="none" stroke="#000000" points="247,-336.5 397,-336.5 "/>
<text text-anchor="middle" x="322" y="-324.5" font-family="Helvetica,sans-Serif" font-size="10.00" fill="#000000"> </text>
<polyline fill="none" stroke="#000000" points="247,-317.5 397,-317.5 "/>
<text text-anchor="start" x="255" y="-305.5" font-family="Helvetica,sans-Serif" font-size="10.00" fill="#000000">+ getMap()</text>
<text text-anchor="start" x="255" y="-294.5" font-family="Helvetica,sans-Serif" font-size="10.00" fill="#000000">+ getMap()</text>
</a>
</g>
</g>
<!-- Node14&#45;&gt;Node11 -->
<g id="edge16" class="edge">
<title>Node14&#45;&gt;Node11</title>
<path fill="none" stroke="#ffa500" d="M322,-276.967C322,-264.8385 322,-251.7795 322,-239.9243"/>
<polygon fill="#ffa500" stroke="#ffa500" points="318.5001,-277.3321 322,-287.3321 325.5001,-277.3322 318.5001,-277.3321"/>
<text text-anchor="middle" x="381.5" y="-261" font-family="Helvetica,sans-Serif" font-size="10.00" fill="#000000"> &lt; Ra::Core::Vector3ui &gt;</text>
</g>
<!-- Node15&#45;&gt;Node14 -->
<g id="edge17" class="edge">
<title>Node15&#45;&gt;Node14</title>
<path fill="none" stroke="#191970" d="M322,-465.8437C322,-433.2686 322,-387.0977 322,-355.8135"/>
<polygon fill="none" stroke="#191970" points="318.5001,-465.9062 322,-475.9063 325.5001,-465.9063 318.5001,-465.9062"/>
</g>
<!-- Node16&#45;&gt;Node15 -->
<g id="edge18" class="edge">
<title>Node16&#45;&gt;Node15</title>
<path fill="none" stroke="#191970" d="M271.0996,-735.0176C263.3343,-706.1416 256.8123,-667.6327 264,-634 271.8256,-597.3823 290.8056,-558.5943 304.9353,-533.1224"/>
<polygon fill="none" stroke="#191970" points="267.7803,-736.1415 273.8777,-744.8059 274.5143,-734.2302 267.7803,-736.1415"/>
</g>
</g>
</svg>
        <g id="navigator" transform="translate(0 0)" fill="#404254">
                <rect fill="#f2f5e9" fill-opacity="0.5" stroke="#606060" stroke-width=".5" x="0" y="0" width="60" height="60"/>
                <use id="zoomplus" xlink:href="#zoomPlus" x="17" y="9" onmousedown="handleZoom(evt,'in')"/>
                <use id="zoomminus" xlink:href="#zoomMin" x="42" y="9" onmousedown="handleZoom(evt,'out')"/>
                <use id="reset" xlink:href="#resetDef" x="30" y="36" onmousedown="handleReset()"/>
                <g id="arrowUp" xlink:href="#dirArrow" transform="translate(30 24)" onmousedown="handlePan(0,-1)">
                  <use xlink:href="#rim" fill="#404040">
                        <set attributeName="fill" to="#808080" begin="arrowUp.mouseover" end="arrowUp.mouseout"/>
                  </use>
                  <path fill="none" stroke="white" stroke-width="1.5" d="M0,-3.0v7 M-2.5,-0.5L0,-3.0L2.5,-0.5"/>
                </g>
                <g id="arrowRight" xlink:href="#dirArrow" transform="rotate(90) translate(36 -43)" onmousedown="handlePan(1,0)">
                  <use xlink:href="#rim" fill="#404040">
                        <set attributeName="fill" to="#808080" begin="arrowRight.mouseover" end="arrowRight.mouseout"/>
                  </use>
                  <path fill="none" stroke="white" stroke-width="1.5" d="M0,-3.0v7 M-2.5,-0.5L0,-3.0L2.5,-0.5"/>
                </g>
                <g id="arrowDown" xlink:href="#dirArrow" transform="rotate(180) translate(-30 -48)" onmousedown="handlePan(0,1)">
                  <use xlink:href="#rim" fill="#404040">
                        <set attributeName="fill" to="#808080" begin="arrowDown.mouseover" end="arrowDown.mouseout"/>
                  </use>
                  <path fill="none" stroke="white" stroke-width="1.5" d="M0,-3.0v7 M-2.5,-0.5L0,-3.0L2.5,-0.5"/>
                </g>
                <g id="arrowLeft" xlink:href="#dirArrow" transform="rotate(270) translate(-36 17)" onmousedown="handlePan(-1,0)">
                  <use xlink:href="#rim" fill="#404040">
                        <set attributeName="fill" to="#808080" begin="arrowLeft.mouseover" end="arrowLeft.mouseout"/>
                  </use>
                  <path fill="none" stroke="white" stroke-width="1.5" d="M0,-3.0v7 M-2.5,-0.5L0,-3.0L2.5,-0.5"/>
                </g>
        </g>
        <svg viewBox="0 0 15 15" width="100%" height="30px" preserveAspectRatio="xMaxYMin meet">
         <g id="arrow_out" transform="scale(0.3 0.3)">
          <a xlink:href="classRa_1_1Core_1_1Animation_1_1Cage__coll__graph_org.svg" target="_base">
           <rect id="button" ry="5" rx="5" y="6" x="6" height="38" width="38"
                fill="#f2f5e9" fill-opacity="0.5" stroke="#606060" stroke-width="1.0"/>
           <path id="arrow"
             d="M 11.500037,31.436501 C 11.940474,20.09759 22.043105,11.32322 32.158766,21.979434 L 37.068811,17.246167 C 37.068811,17.246167 37.088388,32 37.088388,32 L 22.160133,31.978069 C 22.160133,31.978069 26.997745,27.140456 26.997745,27.140456 C 18.528582,18.264221 13.291696,25.230495 11.500037,31.436501 z"
             style="fill:#404040;"/>
          </a>
         </g>
        </svg>
</svg>
