<?xml version="1.0" encoding="UTF-8" standalone="no"?>
<!DOCTYPE svg PUBLIC "-//W3C//DTD SVG 1.1//EN"
 "http://www.w3.org/Graphics/SVG/1.1/DTD/svg11.dtd">
<!-- Generated by graphviz version 2.43.0 (0)
 -->
<!-- Title: Ra::Core::Geometry::TopologicalMesh::createAllPropsOnFaces Pages: 1 -->
<svg width="373pt" height="350pt"
 viewBox="0.00 0.00 373.00 350.00" xmlns="http://www.w3.org/2000/svg" xmlns:xlink="http://www.w3.org/1999/xlink">
<g id="graph0" class="graph" transform="scale(1 1) rotate(0) translate(4 346)">
<title>Ra::Core::Geometry::TopologicalMesh::createAllPropsOnFaces</title>
<polygon fill="white" stroke="transparent" points="-4,4 -4,-346 369,-346 369,4 -4,4"/>
<!-- Node1 -->
<g id="node1" class="node">
<title>Node1</title>
<g id="a_node1"><a xlink:title=" ">
<polygon fill="#bfbfbf" stroke="black" points="0,-150.5 0,-191.5 153,-191.5 153,-150.5 0,-150.5"/>
<text text-anchor="start" x="8" y="-179.5" font-family="Helvetica,sans-Serif" font-size="10.00">Ra::Core::Geometry</text>
<text text-anchor="start" x="8" y="-168.5" font-family="Helvetica,sans-Serif" font-size="10.00">::TopologicalMesh::createAll</text>
<text text-anchor="middle" x="76.5" y="-157.5" font-family="Helvetica,sans-Serif" font-size="10.00">PropsOnFaces</text>
</a>
</g>
</g>
<!-- Node2 -->
<g id="node2" class="node">
<title>Node2</title>
<g id="a_node2"><a xlink:href="classRa_1_1Core_1_1Geometry_1_1TopologicalMesh.html#a6ee8c2aff09a058a2e19ab9642ee42da" target="_top" xlink:title=" ">
<polygon fill="white" stroke="black" points="189,-300.5 189,-341.5 365,-341.5 365,-300.5 189,-300.5"/>
<text text-anchor="start" x="197" y="-329.5" font-family="Helvetica,sans-Serif" font-size="10.00">Ra::Core::Geometry</text>
<text text-anchor="start" x="197" y="-318.5" font-family="Helvetica,sans-Serif" font-size="10.00">::TopologicalMesh::createNormal</text>
<text text-anchor="middle" x="277" y="-307.5" font-family="Helvetica,sans-Serif" font-size="10.00">PropOnFaces</text>
</a>
</g>
</g>
<!-- Node1&#45;&gt;Node2 -->
<g id="edge1" class="edge">
<title>Node1&#45;&gt;Node2</title>
<path fill="none" stroke="midnightblue" d="M91.73,-191.74C110.92,-218.27 147.53,-264 189,-291 191.59,-292.69 194.29,-294.29 197.07,-295.82"/>
<polygon fill="midnightblue" stroke="midnightblue" points="195.64,-299.02 206.15,-300.42 198.81,-292.77 195.64,-299.02"/>
</g>
<!-- Node3 -->
<g id="node3" class="node">
<title>Node3</title>
<g id="a_node3"><a xlink:href="classRa_1_1Core_1_1Geometry_1_1TopologicalMesh.html#aa0f39c9b822cf5e300a7e67c76be06d6" target="_top" xlink:title=" ">
<polygon fill="white" stroke="black" points="193.5,-240.5 193.5,-281.5 360.5,-281.5 360.5,-240.5 193.5,-240.5"/>
<text text-anchor="start" x="201.5" y="-269.5" font-family="Helvetica,sans-Serif" font-size="10.00">Ra::Core::Geometry</text>
<text text-anchor="start" x="201.5" y="-258.5" font-family="Helvetica,sans-Serif" font-size="10.00">::TopologicalMesh::createProps</text>
<text text-anchor="middle" x="277" y="-247.5" font-family="Helvetica,sans-Serif" font-size="10.00">OnFaces</text>
</a>
</g>
</g>
<!-- Node1&#45;&gt;Node3 -->
<g id="edge2" class="edge">
<title>Node1&#45;&gt;Node3</title>
<path fill="none" stroke="midnightblue" d="M112.42,-191.68C134.04,-204.01 162.62,-219.45 189,-231 193.43,-232.94 198.03,-234.84 202.7,-236.69"/>
<polygon fill="midnightblue" stroke="midnightblue" points="201.75,-240.07 212.34,-240.39 204.26,-233.54 201.75,-240.07"/>
</g>
<!-- Node4 -->
<g id="node4" class="node">
<title>Node4</title>
<g id="a_node4"><a xlink:href="classRa_1_1Core_1_1Geometry_1_1TopologicalMesh.html#ac0bc26a22df41861c7bfa23d79105ba7" target="_top" xlink:title=" ">
<polygon fill="white" stroke="black" points="202,-180.5 202,-221.5 352,-221.5 352,-180.5 202,-180.5"/>
<text text-anchor="start" x="210" y="-209.5" font-family="Helvetica,sans-Serif" font-size="10.00">Ra::Core::Geometry</text>
<text text-anchor="start" x="210" y="-198.5" font-family="Helvetica,sans-Serif" font-size="10.00">::TopologicalMesh::getFloat</text>
<text text-anchor="middle" x="277" y="-187.5" font-family="Helvetica,sans-Serif" font-size="10.00">PropsHandles</text>
</a>
</g>
</g>
<!-- Node1&#45;&gt;Node4 -->
<g id="edge3" class="edge">
<title>Node1&#45;&gt;Node4</title>
<path fill="none" stroke="midnightblue" d="M153.11,-182.43C165.73,-184.33 178.9,-186.32 191.72,-188.26"/>
<polygon fill="midnightblue" stroke="midnightblue" points="191.5,-191.77 201.91,-189.8 192.55,-184.85 191.5,-191.77"/>
</g>
<!-- Node5 -->
<g id="node5" class="node">
<title>Node5</title>
<g id="a_node5"><a xlink:href="classRa_1_1Core_1_1Geometry_1_1TopologicalMesh.html#a122e0ecbdc766232c88dc7f6ad035475" target="_top" xlink:title=" ">
<polygon fill="white" stroke="black" points="196,-120.5 196,-161.5 358,-161.5 358,-120.5 196,-120.5"/>
<text text-anchor="start" x="204" y="-149.5" font-family="Helvetica,sans-Serif" font-size="10.00">Ra::Core::Geometry</text>
<text text-anchor="start" x="204" y="-138.5" font-family="Helvetica,sans-Serif" font-size="10.00">::TopologicalMesh::getVector2</text>
<text text-anchor="middle" x="277" y="-127.5" font-family="Helvetica,sans-Serif" font-size="10.00">PropsHandles</text>
</a>
</g>
</g>
<!-- Node1&#45;&gt;Node5 -->
<g id="edge4" class="edge">
<title>Node1&#45;&gt;Node5</title>
<path fill="none" stroke="midnightblue" d="M153.11,-159.57C163.85,-157.95 174.98,-156.27 185.95,-154.61"/>
<polygon fill="midnightblue" stroke="midnightblue" points="186.61,-158.05 195.98,-153.09 185.57,-151.13 186.61,-158.05"/>
</g>
<!-- Node6 -->
<g id="node6" class="node">
<title>Node6</title>
<g id="a_node6"><a xlink:href="classRa_1_1Core_1_1Geometry_1_1TopologicalMesh.html#a6e52c5ca0ef3fbca09207722f5115bb7" target="_top" xlink:title=" ">
<polygon fill="white" stroke="black" points="196,-60.5 196,-101.5 358,-101.5 358,-60.5 196,-60.5"/>
<text text-anchor="start" x="204" y="-89.5" font-family="Helvetica,sans-Serif" font-size="10.00">Ra::Core::Geometry</text>
<text text-anchor="start" x="204" y="-78.5" font-family="Helvetica,sans-Serif" font-size="10.00">::TopologicalMesh::getVector3</text>
<text text-anchor="middle" x="277" y="-67.5" font-family="Helvetica,sans-Serif" font-size="10.00">PropsHandles</text>
</a>
</g>
</g>
<!-- Node1&#45;&gt;Node6 -->
<g id="edge5" class="edge">
<title>Node1&#45;&gt;Node6</title>
<path fill="none" stroke="midnightblue" d="M112.42,-150.32C134.04,-137.99 162.62,-122.55 189,-111 193.43,-109.06 198.03,-107.16 202.7,-105.31"/>
<polygon fill="midnightblue" stroke="midnightblue" points="204.26,-108.46 212.34,-101.61 201.75,-101.93 204.26,-108.46"/>
</g>
<!-- Node7 -->
<g id="node7" class="node">
<title>Node7</title>
<g id="a_node7"><a xlink:href="classRa_1_1Core_1_1Geometry_1_1TopologicalMesh.html#a52b4baf67feb85e44253d9a966a9a886" target="_top" xlink:title=" ">
<polygon fill="white" stroke="black" points="196,-0.5 196,-41.5 358,-41.5 358,-0.5 196,-0.5"/>
<text text-anchor="start" x="204" y="-29.5" font-family="Helvetica,sans-Serif" font-size="10.00">Ra::Core::Geometry</text>
<text text-anchor="start" x="204" y="-18.5" font-family="Helvetica,sans-Serif" font-size="10.00">::TopologicalMesh::getVector4</text>
<text text-anchor="middle" x="277" y="-7.5" font-family="Helvetica,sans-Serif" font-size="10.00">PropsHandles</text>
</a>
</g>
</g>
<!-- Node1&#45;&gt;Node7 -->
<g id="edge6" class="edge">
<title>Node1&#45;&gt;Node7</title>
<path fill="none" stroke="midnightblue" d="M91.73,-150.26C110.92,-123.73 147.53,-78 189,-51 191.59,-49.31 194.29,-47.71 197.07,-46.18"/>
<polygon fill="midnightblue" stroke="midnightblue" points="198.81,-49.23 206.15,-41.58 195.64,-42.98 198.81,-49.23"/>
</g>
</g>
</svg>
