<?xml version="1.0" encoding="UTF-8" standalone="no"?>
<!DOCTYPE svg PUBLIC "-//W3C//DTD SVG 1.1//EN"
 "http://www.w3.org/Graphics/SVG/1.1/DTD/svg11.dtd">
<!-- Generated by graphviz version 2.40.1 (20161225.0304)
 -->
<!-- Title: src/Core/Asset/DataLoader.hpp Pages: 1 -->
<svg width="1078pt" height="162pt"
 viewBox="0.00 0.00 1078.00 162.00" xmlns="http://www.w3.org/2000/svg" xmlns:xlink="http://www.w3.org/1999/xlink">
<g id="graph0" class="graph" transform="scale(1 1) rotate(0) translate(4 158)">
<title>src/Core/Asset/DataLoader.hpp</title>
<polygon fill="#ffffff" stroke="transparent" points="-4,4 -4,-158 1074,-158 1074,4 -4,4"/>
<!-- Node3 -->
<g id="node1" class="node">
<title>Node3</title>
<polygon fill="#bfbfbf" stroke="#000000" points="541,-134.5 541,-153.5 707,-153.5 707,-134.5 541,-134.5"/>
<text text-anchor="middle" x="624" y="-141.5" font-family="Helvetica,sans-Serif" font-size="10.00" fill="#000000">src/Core/Asset/DataLoader.hpp</text>
</g>
<!-- Node4 -->
<g id="node2" class="node">
<title>Node4</title>
<g id="a_node2"><a xlink:href="AssimpAnimationDataLoader_8hpp.html" target="_top" xlink:title="src/IO/AssimpLoader\l/AssimpAnimationDataLoader.hpp">
<polygon fill="#ffffff" stroke="#000000" points="141,-67.5 141,-97.5 323,-97.5 323,-67.5 141,-67.5"/>
<text text-anchor="start" x="149" y="-85.5" font-family="Helvetica,sans-Serif" font-size="10.00" fill="#000000">src/IO/AssimpLoader</text>
<text text-anchor="middle" x="232" y="-74.5" font-family="Helvetica,sans-Serif" font-size="10.00" fill="#000000">/AssimpAnimationDataLoader.hpp</text>
</a>
</g>
</g>
<!-- Node3&#45;&gt;Node4 -->
<g id="edge1" class="edge">
<title>Node3&#45;&gt;Node4</title>
<path fill="none" stroke="#191970" d="M553.1176,-132.8794C488.7099,-122.7746 393.328,-107.8104 323.2473,-96.8156"/>
<polygon fill="#191970" stroke="#191970" points="552.7584,-136.3658 563.1801,-134.4581 553.8434,-129.4504 552.7584,-136.3658"/>
</g>
<!-- Node7 -->
<g id="node5" class="node">
<title>Node7</title>
<g id="a_node5"><a xlink:href="AssimpCameraDataLoader_8hpp.html" target="_top" xlink:title="src/IO/AssimpLoader\l/AssimpCameraDataLoader.hpp">
<polygon fill="#ffffff" stroke="#000000" points="900,-67.5 900,-97.5 1070,-97.5 1070,-67.5 900,-67.5"/>
<text text-anchor="start" x="908" y="-85.5" font-family="Helvetica,sans-Serif" font-size="10.00" fill="#000000">src/IO/AssimpLoader</text>
<text text-anchor="middle" x="985" y="-74.5" font-family="Helvetica,sans-Serif" font-size="10.00" fill="#000000">/AssimpCameraDataLoader.hpp</text>
</a>
</g>
</g>
<!-- Node3&#45;&gt;Node7 -->
<g id="edge4" class="edge">
<title>Node3&#45;&gt;Node7</title>
<path fill="none" stroke="#191970" d="M689.9589,-132.7632C748.9478,-122.7139 835.7487,-107.9265 899.9417,-96.9905"/>
<polygon fill="#191970" stroke="#191970" points="689.2803,-129.3283 680.0102,-134.4581 690.456,-136.2289 689.2803,-129.3283"/>
</g>
<!-- Node9 -->
<g id="node7" class="node">
<title>Node9</title>
<g id="a_node7"><a xlink:href="AssimpGeometryDataLoader_8hpp.html" target="_top" xlink:title="src/IO/AssimpLoader\l/AssimpGeometryDataLoader.hpp">
<polygon fill="#ffffff" stroke="#000000" points="341.5,-67.5 341.5,-97.5 522.5,-97.5 522.5,-67.5 341.5,-67.5"/>
<text text-anchor="start" x="349.5" y="-85.5" font-family="Helvetica,sans-Serif" font-size="10.00" fill="#000000">src/IO/AssimpLoader</text>
<text text-anchor="middle" x="432" y="-74.5" font-family="Helvetica,sans-Serif" font-size="10.00" fill="#000000">/AssimpGeometryDataLoader.hpp</text>
</a>
</g>
</g>
<!-- Node3&#45;&gt;Node9 -->
<g id="edge6" class="edge">
<title>Node3&#45;&gt;Node9</title>
<path fill="none" stroke="#191970" d="M584.1045,-131.221C553.5087,-121.4207 511.199,-107.8684 478.9685,-97.5446"/>
<polygon fill="#191970" stroke="#191970" points="583.4089,-134.6733 594,-134.3906 585.5443,-128.0069 583.4089,-134.6733"/>
</g>
<!-- Node11 -->
<g id="node9" class="node">
<title>Node11</title>
<g id="a_node9"><a xlink:href="AssimpHandleDataLoader_8hpp.html" target="_top" xlink:title="src/IO/AssimpLoader\l/AssimpHandleDataLoader.hpp">
<polygon fill="#ffffff" stroke="#000000" points="540.5,-67.5 540.5,-97.5 707.5,-97.5 707.5,-67.5 540.5,-67.5"/>
<text text-anchor="start" x="548.5" y="-85.5" font-family="Helvetica,sans-Serif" font-size="10.00" fill="#000000">src/IO/AssimpLoader</text>
<text text-anchor="middle" x="624" y="-74.5" font-family="Helvetica,sans-Serif" font-size="10.00" fill="#000000">/AssimpHandleDataLoader.hpp</text>
</a>
</g>
</g>
<!-- Node3&#45;&gt;Node11 -->
<g id="edge9" class="edge">
<title>Node3&#45;&gt;Node11</title>
<path fill="none" stroke="#191970" d="M624,-124.3693C624,-115.681 624,-105.6241 624,-97.5446"/>
<polygon fill="#191970" stroke="#191970" points="620.5001,-124.3906 624,-134.3906 627.5001,-124.3907 620.5001,-124.3906"/>
</g>
<!-- Node13 -->
<g id="node11" class="node">
<title>Node13</title>
<g id="a_node11"><a xlink:href="AssimpLightDataLoader_8hpp.html" target="_top" xlink:title="src/IO/AssimpLoader\l/AssimpLightDataLoader.hpp">
<polygon fill="#ffffff" stroke="#000000" points="726,-67.5 726,-97.5 882,-97.5 882,-67.5 726,-67.5"/>
<text text-anchor="start" x="734" y="-85.5" font-family="Helvetica,sans-Serif" font-size="10.00" fill="#000000">src/IO/AssimpLoader</text>
<text text-anchor="middle" x="804" y="-74.5" font-family="Helvetica,sans-Serif" font-size="10.00" fill="#000000">/AssimpLightDataLoader.hpp</text>
</a>
</g>
</g>
<!-- Node3&#45;&gt;Node13 -->
<g id="edge12" class="edge">
<title>Node3&#45;&gt;Node13</title>
<path fill="none" stroke="#191970" d="M661.7767,-131.0929C690.4304,-121.303 729.8823,-107.8235 759.967,-97.5446"/>
<polygon fill="#191970" stroke="#191970" points="660.4563,-127.8454 652.125,-134.3906 662.7195,-134.4694 660.4563,-127.8454"/>
</g>
<!-- Node5 -->
<g id="node3" class="node">
<title>Node5</title>
<g id="a_node3"><a xlink:href="AssimpAnimationDataLoader_8cpp.html" target="_top" xlink:title="src/IO/AssimpLoader\l/AssimpAnimationDataLoader.cpp">
<polygon fill="#ffffff" stroke="#000000" points="0,-.5 0,-30.5 182,-30.5 182,-.5 0,-.5"/>
<text text-anchor="start" x="8" y="-18.5" font-family="Helvetica,sans-Serif" font-size="10.00" fill="#000000">src/IO/AssimpLoader</text>
<text text-anchor="middle" x="91" y="-7.5" font-family="Helvetica,sans-Serif" font-size="10.00" fill="#000000">/AssimpAnimationDataLoader.cpp</text>
</a>
</g>
</g>
<!-- Node4&#45;&gt;Node5 -->
<g id="edge2" class="edge">
<title>Node4&#45;&gt;Node5</title>
<path fill="none" stroke="#191970" d="M191.0717,-63.0518C169.4059,-52.7567 143.1892,-40.2991 123.0254,-30.7177"/>
<polygon fill="#191970" stroke="#191970" points="189.8225,-66.3332 200.3568,-67.4639 192.8269,-60.0107 189.8225,-66.3332"/>
</g>
<!-- Node6 -->
<g id="node4" class="node">
<title>Node6</title>
<g id="a_node4"><a xlink:href="AssimpFileLoader_8cpp.html" target="_top" xlink:title="src/IO/AssimpLoader\l/AssimpFileLoader.cpp">
<polygon fill="#ffffff" stroke="#000000" points="398.5,-.5 398.5,-30.5 523.5,-30.5 523.5,-.5 398.5,-.5"/>
<text text-anchor="start" x="406.5" y="-18.5" font-family="Helvetica,sans-Serif" font-size="10.00" fill="#000000">src/IO/AssimpLoader</text>
<text text-anchor="middle" x="461" y="-7.5" font-family="Helvetica,sans-Serif" font-size="10.00" fill="#000000">/AssimpFileLoader.cpp</text>
</a>
</g>
</g>
<!-- Node4&#45;&gt;Node6 -->
<g id="edge3" class="edge">
<title>Node4&#45;&gt;Node6</title>
<path fill="none" stroke="#191970" d="M293.3569,-64.5484C329.6045,-53.9432 374.9831,-40.6665 409.3838,-30.6017"/>
<polygon fill="#191970" stroke="#191970" points="292.0069,-61.2966 283.3921,-67.4639 293.9726,-68.015 292.0069,-61.2966"/>
</g>
<!-- Node8 -->
<g id="node6" class="node">
<title>Node8</title>
<g id="a_node6"><a xlink:href="AssimpCameraDataLoader_8cpp.html" target="_top" xlink:title="src/IO/AssimpLoader\l/AssimpCameraDataLoader.cpp">
<polygon fill="#ffffff" stroke="#000000" points="900,-.5 900,-30.5 1070,-30.5 1070,-.5 900,-.5"/>
<text text-anchor="start" x="908" y="-18.5" font-family="Helvetica,sans-Serif" font-size="10.00" fill="#000000">src/IO/AssimpLoader</text>
<text text-anchor="middle" x="985" y="-7.5" font-family="Helvetica,sans-Serif" font-size="10.00" fill="#000000">/AssimpCameraDataLoader.cpp</text>
</a>
</g>
</g>
<!-- Node7&#45;&gt;Node8 -->
<g id="edge5" class="edge">
<title>Node7&#45;&gt;Node8</title>
<path fill="none" stroke="#191970" d="M985,-57.0249C985,-48.128 985,-38.4287 985,-30.6432"/>
<polygon fill="#191970" stroke="#191970" points="981.5001,-57.2966 985,-67.2967 988.5001,-57.2967 981.5001,-57.2966"/>
</g>
<!-- Node9&#45;&gt;Node6 -->
<g id="edge7" class="edge">
<title>Node9&#45;&gt;Node6</title>
<path fill="none" stroke="#191970" d="M442.6468,-57.9021C446.5997,-48.7696 450.9645,-38.6854 454.4455,-30.6432"/>
<polygon fill="#191970" stroke="#191970" points="439.3408,-56.7291 438.5805,-67.2967 445.7649,-59.5097 439.3408,-56.7291"/>
</g>
<!-- Node10 -->
<g id="node8" class="node">
<title>Node10</title>
<g id="a_node8"><a xlink:href="AssimpGeometryDataLoader_8cpp.html" target="_top" xlink:title="src/IO/AssimpLoader\l/AssimpGeometryDataLoader.cpp">
<polygon fill="#ffffff" stroke="#000000" points="200,-.5 200,-30.5 380,-30.5 380,-.5 200,-.5"/>
<text text-anchor="start" x="208" y="-18.5" font-family="Helvetica,sans-Serif" font-size="10.00" fill="#000000">src/IO/AssimpLoader</text>
<text text-anchor="middle" x="290" y="-7.5" font-family="Helvetica,sans-Serif" font-size="10.00" fill="#000000">/AssimpGeometryDataLoader.cpp</text>
</a>
</g>
</g>
<!-- Node9&#45;&gt;Node10 -->
<g id="edge8" class="edge">
<title>Node9&#45;&gt;Node10</title>
<path fill="none" stroke="#191970" d="M391.0747,-63.1902C369.1989,-52.8685 342.6504,-40.3421 322.2525,-30.7177"/>
<polygon fill="#191970" stroke="#191970" points="389.595,-66.362 400.1324,-67.4639 392.5821,-60.0313 389.595,-66.362"/>
</g>
<!-- Node11&#45;&gt;Node6 -->
<g id="edge10" class="edge">
<title>Node11&#45;&gt;Node6</title>
<path fill="none" stroke="#191970" d="M577.9942,-63.5897C552.6006,-53.1518 521.4935,-40.3654 497.7399,-30.6017"/>
<polygon fill="#191970" stroke="#191970" points="576.8398,-66.8992 587.4196,-67.4639 579.5011,-60.4248 576.8398,-66.8992"/>
</g>
<!-- Node12 -->
<g id="node10" class="node">
<title>Node12</title>
<g id="a_node10"><a xlink:href="AssimpHandleDataLoader_8cpp.html" target="_top" xlink:title="src/IO/AssimpLoader\l/AssimpHandleDataLoader.cpp">
<polygon fill="#ffffff" stroke="#000000" points="542,-.5 542,-30.5 708,-30.5 708,-.5 542,-.5"/>
<text text-anchor="start" x="550" y="-18.5" font-family="Helvetica,sans-Serif" font-size="10.00" fill="#000000">src/IO/AssimpLoader</text>
<text text-anchor="middle" x="625" y="-7.5" font-family="Helvetica,sans-Serif" font-size="10.00" fill="#000000">/AssimpHandleDataLoader.cpp</text>
</a>
</g>
</g>
<!-- Node11&#45;&gt;Node12 -->
<g id="edge11" class="edge">
<title>Node11&#45;&gt;Node12</title>
<path fill="none" stroke="#191970" d="M624.3802,-57.0249C624.513,-48.128 624.6578,-38.4287 624.774,-30.6432"/>
<polygon fill="#191970" stroke="#191970" points="620.8766,-57.2455 624.2269,-67.2967 627.8759,-57.35 620.8766,-57.2455"/>
</g>
<!-- Node13&#45;&gt;Node6 -->
<g id="edge13" class="edge">
<title>Node13&#45;&gt;Node6</title>
<path fill="none" stroke="#191970" d="M715.8722,-66.3113C662.8202,-56.4268 593.9612,-43.3523 533,-31 529.9924,-30.3906 526.9159,-29.7592 523.8099,-29.1153"/>
<polygon fill="#191970" stroke="#191970" points="715.4548,-69.7936 725.9263,-68.1816 716.7351,-62.9117 715.4548,-69.7936"/>
</g>
<!-- Node14 -->
<g id="node12" class="node">
<title>Node14</title>
<g id="a_node12"><a xlink:href="AssimpLightDataLoader_8cpp.html" target="_top" xlink:title="src/IO/AssimpLoader\l/AssimpLightDataLoader.cpp">
<polygon fill="#ffffff" stroke="#000000" points="726.5,-.5 726.5,-30.5 881.5,-30.5 881.5,-.5 726.5,-.5"/>
<text text-anchor="start" x="734.5" y="-18.5" font-family="Helvetica,sans-Serif" font-size="10.00" fill="#000000">src/IO/AssimpLoader</text>
<text text-anchor="middle" x="804" y="-7.5" font-family="Helvetica,sans-Serif" font-size="10.00" fill="#000000">/AssimpLightDataLoader.cpp</text>
</a>
</g>
</g>
<!-- Node13&#45;&gt;Node14 -->
<g id="edge14" class="edge">
<title>Node13&#45;&gt;Node14</title>
<path fill="none" stroke="#191970" d="M804,-57.0249C804,-48.128 804,-38.4287 804,-30.6432"/>
<polygon fill="#191970" stroke="#191970" points="800.5001,-57.2966 804,-67.2967 807.5001,-57.2967 800.5001,-57.2966"/>
</g>
</g>
</svg>
