<?xml version="1.0" encoding="UTF-8" standalone="no"?>
<!DOCTYPE svg PUBLIC "-//W3C//DTD SVG 1.1//EN"
 "http://www.w3.org/Graphics/SVG/1.1/DTD/svg11.dtd">
<!-- Generated by graphviz version 2.40.1 (20161225.0304)
 -->
<!-- Title: src/Engine/Managers/LightManager/DefaultLightManager.hpp Pages: 1 -->
<svg width="348pt" height="128pt"
 viewBox="0.00 0.00 348.00 128.00" xmlns="http://www.w3.org/2000/svg" xmlns:xlink="http://www.w3.org/1999/xlink">
<g id="graph0" class="graph" transform="scale(1 1) rotate(0) translate(4 124)">
<title>src/Engine/Managers/LightManager/DefaultLightManager.hpp</title>
<polygon fill="#ffffff" stroke="transparent" points="-4,4 -4,-124 344,-124 344,4 -4,4"/>
<!-- Node40 -->
<g id="node1" class="node">
<title>Node40</title>
<polygon fill="#bfbfbf" stroke="#000000" points="89,-78.5 89,-119.5 238,-119.5 238,-78.5 89,-78.5"/>
<text text-anchor="start" x="97" y="-107.5" font-family="Helvetica,sans-Serif" font-size="10.00" fill="#000000">src/Engine/Managers</text>
<text text-anchor="start" x="97" y="-96.5" font-family="Helvetica,sans-Serif" font-size="10.00" fill="#000000">/LightManager/DefaultLight</text>
<text text-anchor="middle" x="163.5" y="-85.5" font-family="Helvetica,sans-Serif" font-size="10.00" fill="#000000">Manager.hpp</text>
</g>
<!-- Node41 -->
<g id="node2" class="node">
<title>Node41</title>
<g id="a_node2"><a xlink:href="DefaultLightManager_8cpp.html" target="_top" xlink:title="src/Engine/Managers\l/LightManager/DefaultLight\lManager.cpp">
<polygon fill="#ffffff" stroke="#000000" points="0,-.5 0,-41.5 149,-41.5 149,-.5 0,-.5"/>
<text text-anchor="start" x="8" y="-29.5" font-family="Helvetica,sans-Serif" font-size="10.00" fill="#000000">src/Engine/Managers</text>
<text text-anchor="start" x="8" y="-18.5" font-family="Helvetica,sans-Serif" font-size="10.00" fill="#000000">/LightManager/DefaultLight</text>
<text text-anchor="middle" x="74.5" y="-7.5" font-family="Helvetica,sans-Serif" font-size="10.00" fill="#000000">Manager.cpp</text>
</a>
</g>
</g>
<!-- Node40&#45;&gt;Node41 -->
<g id="edge1" class="edge">
<title>Node40&#45;&gt;Node41</title>
<path fill="none" stroke="#191970" d="M131.8126,-71.229C120.7062,-61.4953 108.4357,-50.7414 98.1076,-41.6898"/>
<polygon fill="#191970" stroke="#191970" points="129.8222,-74.1386 139.6496,-78.0974 134.436,-68.8742 129.8222,-74.1386"/>
</g>
<!-- Node42 -->
<g id="node3" class="node">
<title>Node42</title>
<g id="a_node3"><a xlink:href="ForwardRenderer_8cpp.html" target="_top" xlink:title="src/Engine/Renderer\l/Renderers/ForwardRenderer.cpp">
<polygon fill="#ffffff" stroke="#000000" points="167,-6 167,-36 340,-36 340,-6 167,-6"/>
<text text-anchor="start" x="175" y="-24" font-family="Helvetica,sans-Serif" font-size="10.00" fill="#000000">src/Engine/Renderer</text>
<text text-anchor="middle" x="253.5" y="-13" font-family="Helvetica,sans-Serif" font-size="10.00" fill="#000000">/Renderers/ForwardRenderer.cpp</text>
</a>
</g>
</g>
<!-- Node40&#45;&gt;Node42 -->
<g id="edge2" class="edge">
<title>Node40&#45;&gt;Node42</title>
<path fill="none" stroke="#191970" d="M195.444,-71.3152C209.1563,-59.4312 224.6393,-46.0126 236.1654,-36.0233"/>
<polygon fill="#191970" stroke="#191970" points="192.883,-68.9032 187.6183,-78.0974 197.4675,-74.193 192.883,-68.9032"/>
</g>
</g>
</svg>
