<?xml version="1.0" encoding="UTF-8" standalone="no"?>
<!DOCTYPE svg PUBLIC "-//W3C//DTD SVG 1.1//EN"
 "http://www.w3.org/Graphics/SVG/1.1/DTD/svg11.dtd">
<!-- Generated by graphviz version 2.40.1 (20161225.0304)
 -->
<!-- Title: src/Engine/Managers/CameraManager/DefaultCameraManager.cpp Pages: 1 -->
<svg width="1771pt" height="620pt"
 viewBox="0.00 0.00 1770.80 620.00" xmlns="http://www.w3.org/2000/svg" xmlns:xlink="http://www.w3.org/1999/xlink">
<g id="graph0" class="graph" transform="scale(1 1) rotate(0) translate(4 616)">
<title>src/Engine/Managers/CameraManager/DefaultCameraManager.cpp</title>
<polygon fill="#ffffff" stroke="transparent" points="-4,4 -4,-616 1766.7954,-616 1766.7954,4 -4,4"/>
<!-- Node0 -->
<g id="node1" class="node">
<title>Node0</title>
<polygon fill="#bfbfbf" stroke="#000000" points="1202.8749,-570.5 1202.8749,-611.5 1379.8749,-611.5 1379.8749,-570.5 1202.8749,-570.5"/>
<text text-anchor="start" x="1210.8749" y="-599.5" font-family="Helvetica,sans-Serif" font-size="10.00" fill="#000000">src/Engine/Managers</text>
<text text-anchor="start" x="1210.8749" y="-588.5" font-family="Helvetica,sans-Serif" font-size="10.00" fill="#000000">/CameraManager/DefaultCamera</text>
<text text-anchor="middle" x="1291.3749" y="-577.5" font-family="Helvetica,sans-Serif" font-size="10.00" fill="#000000">Manager.cpp</text>
</g>
<!-- Node1 -->
<g id="node2" class="node">
<title>Node1</title>
<g id="a_node2"><a xlink:href="DefaultCameraManager_8hpp.html" target="_top" xlink:title="Engine/Managers/CameraManager\l/DefaultCameraManager.hpp">
<polygon fill="#ffffff" stroke="#000000" points="1139.8749,-503.5 1139.8749,-533.5 1322.8749,-533.5 1322.8749,-503.5 1139.8749,-503.5"/>
<text text-anchor="start" x="1147.8749" y="-521.5" font-family="Helvetica,sans-Serif" font-size="10.00" fill="#000000">Engine/Managers/CameraManager</text>
<text text-anchor="middle" x="1231.3749" y="-510.5" font-family="Helvetica,sans-Serif" font-size="10.00" fill="#000000">/DefaultCameraManager.hpp</text>
</a>
</g>
</g>
<!-- Node0&#45;&gt;Node1 -->
<g id="edge1" class="edge">
<title>Node0&#45;&gt;Node1</title>
<path fill="none" stroke="#191970" d="M1274.3418,-570.4183C1266.8388,-561.3522 1257.9959,-550.6671 1250.2889,-541.3544"/>
<polygon fill="#191970" stroke="#191970" points="1252.9428,-539.0716 1243.8707,-533.5991 1247.55,-543.5346 1252.9428,-539.0716"/>
</g>
<!-- Node40 -->
<g id="node41" class="node">
<title>Node40</title>
<g id="a_node41"><a xlink:href="RadiumEngine_8hpp.html" target="_top" xlink:title="Engine/RadiumEngine.hpp">
<polygon fill="#ffffff" stroke="#000000" points="1141.3749,-308 1141.3749,-327 1285.3749,-327 1285.3749,-308 1141.3749,-308"/>
<text text-anchor="middle" x="1213.3749" y="-315" font-family="Helvetica,sans-Serif" font-size="10.00" fill="#000000">Engine/RadiumEngine.hpp</text>
</a>
</g>
</g>
<!-- Node0&#45;&gt;Node40 -->
<g id="edge66" class="edge">
<title>Node0&#45;&gt;Node40</title>
<path fill="none" stroke="#191970" d="M1311.0737,-570.3159C1319.3643,-560.2001 1328.0747,-547.3426 1332.3749,-534 1336.6013,-520.8865 1336.2512,-516.2213 1332.3749,-503 1312.1054,-433.864 1257.2734,-366.0743 1229.6888,-335.0537"/>
<polygon fill="#191970" stroke="#191970" points="1231.9866,-332.3766 1222.6824,-327.3088 1226.7955,-337.0726 1231.9866,-332.3766"/>
</g>
<!-- Node2 -->
<g id="node3" class="node">
<title>Node2</title>
<g id="a_node3"><a xlink:href="CameraManager_8hpp.html" target="_top" xlink:title="Engine/Managers/CameraManager\l/CameraManager.hpp">
<polygon fill="#ffffff" stroke="#000000" points="1509.8749,-369.5 1509.8749,-399.5 1692.8749,-399.5 1692.8749,-369.5 1509.8749,-369.5"/>
<text text-anchor="start" x="1517.8749" y="-387.5" font-family="Helvetica,sans-Serif" font-size="10.00" fill="#000000">Engine/Managers/CameraManager</text>
<text text-anchor="middle" x="1601.3749" y="-376.5" font-family="Helvetica,sans-Serif" font-size="10.00" fill="#000000">/CameraManager.hpp</text>
</a>
</g>
</g>
<!-- Node1&#45;&gt;Node2 -->
<g id="edge2" class="edge">
<title>Node1&#45;&gt;Node2</title>
<path fill="none" stroke="#191970" d="M1273.0994,-503.389C1341.2882,-478.6936 1476.3904,-429.7646 1550.2381,-403.0198"/>
<polygon fill="#191970" stroke="#191970" points="1551.5924,-406.2519 1559.8029,-399.5558 1549.2087,-399.6702 1551.5924,-406.2519"/>
</g>
<!-- Node16 -->
<g id="node17" class="node">
<title>Node16</title>
<polygon fill="#ffffff" stroke="#bfbfbf" points="1560.3749,-246.5 1560.3749,-265.5 1618.3749,-265.5 1618.3749,-246.5 1560.3749,-246.5"/>
<text text-anchor="middle" x="1589.3749" y="-253.5" font-family="Helvetica,sans-Serif" font-size="10.00" fill="#000000">memory</text>
</g>
<!-- Node1&#45;&gt;Node16 -->
<g id="edge64" class="edge">
<title>Node1&#45;&gt;Node16</title>
<path fill="none" stroke="#191970" d="M1320.2639,-503.4825C1438.6134,-482.256 1640.2447,-441.4272 1702.3749,-400 1743.0575,-372.8736 1781.8837,-340.989 1752.3749,-302 1737.4665,-282.3021 1671.9061,-268.6447 1628.6087,-261.5845"/>
<polygon fill="#191970" stroke="#191970" points="1629.0858,-258.1165 1618.6623,-260.0139 1627.994,-265.0309 1629.0858,-258.1165"/>
</g>
<!-- Node17 -->
<g id="node18" class="node">
<title>Node17</title>
<polygon fill="#ffffff" stroke="#bfbfbf" points="824.8749,-246.5 824.8749,-265.5 871.8749,-265.5 871.8749,-246.5 824.8749,-246.5"/>
<text text-anchor="middle" x="848.3749" y="-253.5" font-family="Helvetica,sans-Serif" font-size="10.00" fill="#000000">vector</text>
</g>
<!-- Node1&#45;&gt;Node17 -->
<g id="edge65" class="edge">
<title>Node1&#45;&gt;Node17</title>
<path fill="none" stroke="#191970" d="M1181.572,-503.4482C1121.5192,-484.1719 1018.6538,-447.5028 938.3749,-400 919.6169,-388.9005 917.7331,-382.1815 900.3749,-369 878.2789,-352.2207 862.299,-357.5509 849.3749,-333 840.0646,-315.314 841.2874,-292.0248 843.9161,-275.7083"/>
<polygon fill="#191970" stroke="#191970" points="847.3929,-276.1625 845.8485,-265.6809 840.5194,-274.8379 847.3929,-276.1625"/>
</g>
<!-- Node18 -->
<g id="node19" class="node">
<title>Node18</title>
<g id="a_node19"><a xlink:href="Camera_8hpp.html" target="_top" xlink:title="Engine/Renderer/Camera\l/Camera.hpp">
<polygon fill="#ffffff" stroke="#000000" points="705.8749,-436.5 705.8749,-466.5 842.8749,-466.5 842.8749,-436.5 705.8749,-436.5"/>
<text text-anchor="start" x="713.8749" y="-454.5" font-family="Helvetica,sans-Serif" font-size="10.00" fill="#000000">Engine/Renderer/Camera</text>
<text text-anchor="middle" x="774.3749" y="-443.5" font-family="Helvetica,sans-Serif" font-size="10.00" fill="#000000">/Camera.hpp</text>
</a>
</g>
</g>
<!-- Node1&#45;&gt;Node18 -->
<g id="edge21" class="edge">
<title>Node1&#45;&gt;Node18</title>
<path fill="none" stroke="#191970" d="M1139.7183,-505.0624C1055.7601,-492.7534 932.7792,-474.7234 853.1447,-463.0483"/>
<polygon fill="#191970" stroke="#191970" points="853.5731,-459.5738 843.1711,-461.5861 852.5576,-466.4997 853.5731,-459.5738"/>
</g>
<!-- Node3 -->
<g id="node4" class="node">
<title>Node3</title>
<g id="a_node4"><a xlink:href="CameraStorage_8hpp.html" target="_top" xlink:title="Engine/Managers/CameraManager\l/CameraStorage.hpp">
<polygon fill="#ffffff" stroke="#000000" points="1509.8749,-302.5 1509.8749,-332.5 1692.8749,-332.5 1692.8749,-302.5 1509.8749,-302.5"/>
<text text-anchor="start" x="1517.8749" y="-320.5" font-family="Helvetica,sans-Serif" font-size="10.00" fill="#000000">Engine/Managers/CameraManager</text>
<text text-anchor="middle" x="1601.3749" y="-309.5" font-family="Helvetica,sans-Serif" font-size="10.00" fill="#000000">/CameraStorage.hpp</text>
</a>
</g>
</g>
<!-- Node2&#45;&gt;Node3 -->
<g id="edge3" class="edge">
<title>Node2&#45;&gt;Node3</title>
<path fill="none" stroke="#191970" d="M1601.3749,-369.2967C1601.3749,-361.5013 1601.3749,-351.7991 1601.3749,-342.9064"/>
<polygon fill="#191970" stroke="#191970" points="1604.875,-342.6431 1601.3749,-332.6432 1597.875,-342.6432 1604.875,-342.6431"/>
</g>
<!-- Node4 -->
<g id="node5" class="node">
<title>Node4</title>
<g id="a_node5"><a xlink:href="RaEngine_8hpp.html" target="_top" xlink:title="Engine/RaEngine.hpp">
<polygon fill="#ffffff" stroke="#000000" points="1252.8749,-246.5 1252.8749,-265.5 1371.8749,-265.5 1371.8749,-246.5 1252.8749,-246.5"/>
<text text-anchor="middle" x="1312.3749" y="-253.5" font-family="Helvetica,sans-Serif" font-size="10.00" fill="#000000">Engine/RaEngine.hpp</text>
</a>
</g>
</g>
<!-- Node2&#45;&gt;Node4 -->
<g id="edge15" class="edge">
<title>Node2&#45;&gt;Node4</title>
<path fill="none" stroke="#191970" d="M1644.5421,-369.3857C1681.8195,-354.0546 1726.2176,-328.8202 1702.3749,-302 1681.5036,-278.5222 1488.542,-265.0072 1382.0975,-259.2786"/>
<polygon fill="#191970" stroke="#191970" points="1382.2462,-255.7817 1372.0752,-258.7485 1381.8763,-262.7719 1382.2462,-255.7817"/>
</g>
<!-- Node15 -->
<g id="node16" class="node">
<title>Node15</title>
<g id="a_node16"><a xlink:href="System_8hpp.html" target="_top" xlink:title="Engine/System/System.hpp">
<polygon fill="#ffffff" stroke="#000000" points="1341.3749,-308 1341.3749,-327 1491.3749,-327 1491.3749,-308 1341.3749,-308"/>
<text text-anchor="middle" x="1416.3749" y="-315" font-family="Helvetica,sans-Serif" font-size="10.00" fill="#000000">Engine/System/System.hpp</text>
</a>
</g>
</g>
<!-- Node2&#45;&gt;Node15 -->
<g id="edge16" class="edge">
<title>Node2&#45;&gt;Node15</title>
<path fill="none" stroke="#191970" d="M1559.8573,-369.4639C1527.4621,-357.7316 1482.9345,-341.6054 1452.1134,-330.4431"/>
<polygon fill="#191970" stroke="#191970" points="1453.2151,-327.1197 1442.6208,-327.0053 1450.8314,-333.7014 1453.2151,-327.1197"/>
</g>
<!-- Node2&#45;&gt;Node16 -->
<g id="edge20" class="edge">
<title>Node2&#45;&gt;Node16</title>
<path fill="none" stroke="#191970" d="M1668.3188,-369.4359C1712.7012,-356.1683 1758.8019,-333.9434 1735.3749,-302 1722.6067,-284.5902 1667.2329,-270.7498 1628.4796,-262.9611"/>
<polygon fill="#191970" stroke="#191970" points="1629.0161,-259.4999 1618.5308,-261.0198 1627.6754,-266.3703 1629.0161,-259.4999"/>
</g>
<!-- Node3&#45;&gt;Node4 -->
<g id="edge4" class="edge">
<title>Node3&#45;&gt;Node4</title>
<path fill="none" stroke="#191970" d="M1530.6775,-302.4554C1480.2365,-291.7214 1413.3946,-277.4973 1367.0222,-267.6291"/>
<polygon fill="#191970" stroke="#191970" points="1367.6692,-264.1885 1357.1596,-265.5303 1366.2121,-271.0352 1367.6692,-264.1885"/>
</g>
<!-- Node5 -->
<g id="node6" class="node">
<title>Node5</title>
<g id="a_node6"><a xlink:href="CoreMacros_8hpp.html" target="_top" xlink:title="Core/CoreMacros.hpp">
<polygon fill="#ffffff" stroke="#000000" points="667.3749,-56.5 667.3749,-75.5 787.3749,-75.5 787.3749,-56.5 667.3749,-56.5"/>
<text text-anchor="middle" x="727.3749" y="-63.5" font-family="Helvetica,sans-Serif" font-size="10.00" fill="#000000">Core/CoreMacros.hpp</text>
</a>
</g>
</g>
<!-- Node4&#45;&gt;Node5 -->
<g id="edge5" class="edge">
<title>Node4&#45;&gt;Node5</title>
<path fill="none" stroke="#191970" d="M1314.7102,-246.1465C1320.2766,-219.9219 1331.1976,-147.974 1293.3749,-112 1258.1452,-78.4922 941.1319,-69.3108 797.5209,-66.8616"/>
<polygon fill="#191970" stroke="#191970" points="797.543,-63.3616 787.4868,-66.6967 797.4279,-70.3607 797.543,-63.3616"/>
</g>
<!-- Node11 -->
<g id="node12" class="node">
<title>Node11</title>
<g id="a_node12"><a xlink:href="OpenGL_8hpp.html" target="_top" xlink:title="Engine/Renderer/OpenGL\l/OpenGL.hpp">
<polygon fill="#ffffff" stroke="#000000" points="1130.8749,-179.5 1130.8749,-209.5 1267.8749,-209.5 1267.8749,-179.5 1130.8749,-179.5"/>
<text text-anchor="start" x="1138.8749" y="-197.5" font-family="Helvetica,sans-Serif" font-size="10.00" fill="#000000">Engine/Renderer/OpenGL</text>
<text text-anchor="middle" x="1199.3749" y="-186.5" font-family="Helvetica,sans-Serif" font-size="10.00" fill="#000000">/OpenGL.hpp</text>
</a>
</g>
</g>
<!-- Node4&#45;&gt;Node11 -->
<g id="edge11" class="edge">
<title>Node4&#45;&gt;Node11</title>
<path fill="none" stroke="#191970" d="M1294.7187,-246.3906C1279.0715,-237.8747 1255.7205,-225.166 1236.0445,-214.4573"/>
<polygon fill="#191970" stroke="#191970" points="1237.4744,-211.2508 1227.0178,-209.5446 1234.1281,-217.3992 1237.4744,-211.2508"/>
</g>
<!-- Node6 -->
<g id="node7" class="node">
<title>Node6</title>
<polygon fill="#ffffff" stroke="#bfbfbf" points="811.3749,-.5 811.3749,-19.5 863.3749,-19.5 863.3749,-.5 811.3749,-.5"/>
<text text-anchor="middle" x="837.3749" y="-7.5" font-family="Helvetica,sans-Serif" font-size="10.00" fill="#000000">cassert</text>
</g>
<!-- Node5&#45;&gt;Node6 -->
<g id="edge6" class="edge">
<title>Node5&#45;&gt;Node6</title>
<path fill="none" stroke="#191970" d="M746.5354,-56.2455C763.886,-47.4125 789.665,-34.2887 809.3332,-24.2758"/>
<polygon fill="#191970" stroke="#191970" points="811.1102,-27.2986 818.4339,-19.6427 807.9344,-21.0605 811.1102,-27.2986"/>
</g>
<!-- Node7 -->
<g id="node8" class="node">
<title>Node7</title>
<polygon fill="#ffffff" stroke="#bfbfbf" points="595.3749,-.5 595.3749,-19.5 641.3749,-19.5 641.3749,-.5 595.3749,-.5"/>
<text text-anchor="middle" x="618.3749" y="-7.5" font-family="Helvetica,sans-Serif" font-size="10.00" fill="#000000">cstdio</text>
</g>
<!-- Node5&#45;&gt;Node7 -->
<g id="edge7" class="edge">
<title>Node5&#45;&gt;Node7</title>
<path fill="none" stroke="#191970" d="M708.3885,-56.2455C691.1957,-47.4125 665.6511,-34.2887 646.1617,-24.2758"/>
<polygon fill="#191970" stroke="#191970" points="647.6379,-21.0993 637.1437,-19.6427 644.439,-27.3257 647.6379,-21.0993"/>
</g>
<!-- Node8 -->
<g id="node9" class="node">
<title>Node8</title>
<polygon fill="#ffffff" stroke="#bfbfbf" points="659.3749,-.5 659.3749,-19.5 719.3749,-19.5 719.3749,-.5 659.3749,-.5"/>
<text text-anchor="middle" x="689.3749" y="-7.5" font-family="Helvetica,sans-Serif" font-size="10.00" fill="#000000">iostream</text>
</g>
<!-- Node5&#45;&gt;Node8 -->
<g id="edge8" class="edge">
<title>Node5&#45;&gt;Node8</title>
<path fill="none" stroke="#191970" d="M720.7558,-56.2455C715.4703,-48.4564 707.9208,-37.3308 701.5511,-27.9439"/>
<polygon fill="#191970" stroke="#191970" points="704.4294,-25.9522 695.9181,-19.6427 698.637,-29.8827 704.4294,-25.9522"/>
</g>
<!-- Node9 -->
<g id="node10" class="node">
<title>Node9</title>
<polygon fill="#ffffff" stroke="#bfbfbf" points="737.3749,-.5 737.3749,-19.5 793.3749,-19.5 793.3749,-.5 737.3749,-.5"/>
<text text-anchor="middle" x="765.3749" y="-7.5" font-family="Helvetica,sans-Serif" font-size="10.00" fill="#000000">sstream</text>
</g>
<!-- Node5&#45;&gt;Node9 -->
<g id="edge9" class="edge">
<title>Node5&#45;&gt;Node9</title>
<path fill="none" stroke="#191970" d="M733.994,-56.2455C739.2795,-48.4564 746.829,-37.3308 753.1987,-27.9439"/>
<polygon fill="#191970" stroke="#191970" points="756.1128,-29.8827 758.8317,-19.6427 750.3204,-25.9522 756.1128,-29.8827"/>
</g>
<!-- Node10 -->
<g id="node11" class="node">
<title>Node10</title>
<polygon fill="#ffffff" stroke="#bfbfbf" points="451.3749,-.5 451.3749,-19.5 499.3749,-19.5 499.3749,-.5 451.3749,-.5"/>
<text text-anchor="middle" x="475.3749" y="-7.5" font-family="Helvetica,sans-Serif" font-size="10.00" fill="#000000">thread</text>
</g>
<!-- Node5&#45;&gt;Node10 -->
<g id="edge10" class="edge">
<title>Node5&#45;&gt;Node10</title>
<path fill="none" stroke="#191970" d="M684.3409,-56.4369C634.9133,-45.453 554.8225,-27.655 509.4946,-17.5821"/>
<polygon fill="#191970" stroke="#191970" points="510.087,-14.1285 499.5658,-15.3758 508.5684,-20.9618 510.087,-14.1285"/>
</g>
<!-- Node12 -->
<g id="node13" class="node">
<title>Node12</title>
<polygon fill="#ffffff" stroke="#bfbfbf" points="1156.3749,-118 1156.3749,-137 1284.3749,-137 1284.3749,-118 1156.3749,-118"/>
<text text-anchor="middle" x="1220.3749" y="-125" font-family="Helvetica,sans-Serif" font-size="10.00" fill="#000000">glbinding/gl45core/gl.h</text>
</g>
<!-- Node11&#45;&gt;Node12 -->
<g id="edge12" class="edge">
<title>Node11&#45;&gt;Node12</title>
<path fill="none" stroke="#191970" d="M1204.1401,-179.2967C1207.1579,-169.6685 1211.0873,-157.1318 1214.3245,-146.8038"/>
<polygon fill="#191970" stroke="#191970" points="1217.7289,-147.6441 1217.3801,-137.055 1211.0493,-145.5504 1217.7289,-147.6441"/>
</g>
<!-- Node13 -->
<g id="node14" class="node">
<title>Node13</title>
<polygon fill="#ffffff" stroke="#bfbfbf" points="884.3749,-118 884.3749,-137 1006.3749,-137 1006.3749,-118 884.3749,-118"/>
<text text-anchor="middle" x="945.3749" y="-125" font-family="Helvetica,sans-Serif" font-size="10.00" fill="#000000">glbinding/gl45ext/gl.h</text>
</g>
<!-- Node11&#45;&gt;Node13 -->
<g id="edge13" class="edge">
<title>Node11&#45;&gt;Node13</title>
<path fill="none" stroke="#191970" d="M1142.3723,-179.4639C1096.7394,-167.4269 1033.5724,-150.7647 991.1841,-139.5835"/>
<polygon fill="#191970" stroke="#191970" points="991.9719,-136.1717 981.4099,-137.0053 990.1864,-142.9402 991.9719,-136.1717"/>
</g>
<!-- Node14 -->
<g id="node15" class="node">
<title>Node14</title>
<polygon fill="#ffffff" stroke="#bfbfbf" points="1024.8749,-112.5 1024.8749,-142.5 1137.8749,-142.5 1137.8749,-112.5 1024.8749,-112.5"/>
<text text-anchor="start" x="1032.8749" y="-130.5" font-family="Helvetica,sans-Serif" font-size="10.00" fill="#000000">glbinding&#45;aux/types</text>
<text text-anchor="middle" x="1081.3749" y="-119.5" font-family="Helvetica,sans-Serif" font-size="10.00" fill="#000000">_to_string.h</text>
</g>
<!-- Node11&#45;&gt;Node14 -->
<g id="edge14" class="edge">
<title>Node11&#45;&gt;Node14</title>
<path fill="none" stroke="#191970" d="M1172.8934,-179.4639C1156.4601,-170.1332 1135.1322,-158.0232 1117.2002,-147.8415"/>
<polygon fill="#191970" stroke="#191970" points="1118.6005,-144.6117 1108.1763,-142.7177 1115.1441,-150.699 1118.6005,-144.6117"/>
</g>
<!-- Node15&#45;&gt;Node4 -->
<g id="edge17" class="edge">
<title>Node15&#45;&gt;Node4</title>
<path fill="none" stroke="#191970" d="M1400.1249,-307.8906C1383.258,-297.9165 1356.665,-282.1908 1337.1714,-270.6633"/>
<polygon fill="#191970" stroke="#191970" points="1338.9,-267.6194 1328.5108,-265.5419 1335.3369,-273.6447 1338.9,-267.6194"/>
</g>
<!-- Node15&#45;&gt;Node16 -->
<g id="edge18" class="edge">
<title>Node15&#45;&gt;Node16</title>
<path fill="none" stroke="#191970" d="M1443.4062,-307.8906C1472.86,-297.42 1520.1438,-280.6111 1552.8776,-268.9745"/>
<polygon fill="#191970" stroke="#191970" points="1554.2835,-272.1893 1562.5335,-265.5419 1551.9388,-265.5937 1554.2835,-272.1893"/>
</g>
<!-- Node15&#45;&gt;Node17 -->
<g id="edge19" class="edge">
<title>Node15&#45;&gt;Node17</title>
<path fill="none" stroke="#191970" d="M1343.8337,-307.9978C1327.5688,-305.9469 1310.3891,-303.8429 1294.3749,-302 1140.6978,-284.3152 956.8509,-266.3672 882.2808,-259.2215"/>
<polygon fill="#191970" stroke="#191970" points="882.376,-255.7147 872.0882,-258.247 881.7097,-262.683 882.376,-255.7147"/>
</g>
<!-- Node18&#45;&gt;Node4 -->
<g id="edge47" class="edge">
<title>Node18&#45;&gt;Node4</title>
<path fill="none" stroke="#191970" d="M843.2135,-445.2252C970.0548,-432.2051 1233.3084,-397.9096 1294.3749,-333 1308.805,-317.6617 1312.4047,-293.0579 1312.9722,-275.7999"/>
<polygon fill="#191970" stroke="#191970" points="1316.4723,-275.6974 1312.9907,-265.691 1309.4724,-275.6845 1316.4723,-275.6974"/>
</g>
<!-- Node19 -->
<g id="node20" class="node">
<title>Node19</title>
<g id="a_node20"><a xlink:href="Math_8hpp.html" target="_top" xlink:title="Core/Math/Math.hpp">
<polygon fill="#ffffff" stroke="#000000" points="947.3749,-375 947.3749,-394 1061.3749,-394 1061.3749,-375 947.3749,-375"/>
<text text-anchor="middle" x="1004.3749" y="-382" font-family="Helvetica,sans-Serif" font-size="10.00" fill="#000000">Core/Math/Math.hpp</text>
</a>
</g>
</g>
<!-- Node18&#45;&gt;Node19 -->
<g id="edge22" class="edge">
<title>Node18&#45;&gt;Node19</title>
<path fill="none" stroke="#191970" d="M825.9914,-436.4639C866.9639,-424.5284 923.5468,-408.0456 961.9184,-396.8678"/>
<polygon fill="#191970" stroke="#191970" points="963.1228,-400.1625 971.7448,-394.0053 961.165,-393.4418 963.1228,-400.1625"/>
</g>
<!-- Node24 -->
<g id="node25" class="node">
<title>Node24</title>
<g id="a_node25"><a xlink:href="Types_8hpp.html" target="_top" xlink:title="Core/Types.hpp">
<polygon fill="#ffffff" stroke="#000000" points="715.8749,-246.5 715.8749,-265.5 806.8749,-265.5 806.8749,-246.5 715.8749,-246.5"/>
<text text-anchor="middle" x="761.3749" y="-253.5" font-family="Helvetica,sans-Serif" font-size="10.00" fill="#000000">Core/Types.hpp</text>
</a>
</g>
</g>
<!-- Node18&#45;&gt;Node24 -->
<g id="edge29" class="edge">
<title>Node18&#45;&gt;Node24</title>
<path fill="none" stroke="#191970" d="M762.9723,-436.1784C756.413,-426.3846 748.8101,-413.1017 745.3749,-400 733.9419,-356.3955 746.357,-303.2724 754.8337,-275.3264"/>
<polygon fill="#191970" stroke="#191970" points="758.2287,-276.2003 757.9362,-265.6095 751.5604,-274.0711 758.2287,-276.2003"/>
</g>
<!-- Node28 -->
<g id="node29" class="node">
<title>Node28</title>
<g id="a_node29"><a xlink:href="Component_8hpp.html" target="_top" xlink:title="Engine/Component/Component.hpp">
<polygon fill="#ffffff" stroke="#000000" points="357.8749,-308 357.8749,-327 546.8749,-327 546.8749,-308 357.8749,-308"/>
<text text-anchor="middle" x="452.3749" y="-315" font-family="Helvetica,sans-Serif" font-size="10.00" fill="#000000">Engine/Component/Component.hpp</text>
</a>
</g>
</g>
<!-- Node18&#45;&gt;Node28 -->
<g id="edge34" class="edge">
<title>Node18&#45;&gt;Node28</title>
<path fill="none" stroke="#191970" d="M705.6256,-444.2471C659.7814,-437.3949 599.2012,-424.3651 550.3749,-400 517.1172,-383.4039 485.5163,-353.3161 467.5831,-334.4253"/>
<polygon fill="#191970" stroke="#191970" points="470.1383,-332.0335 460.7692,-327.0867 465.0086,-336.7964 470.1383,-332.0335"/>
</g>
<!-- Node33 -->
<g id="node34" class="node">
<title>Node33</title>
<g id="a_node34"><a xlink:href="ViewingParameters_8hpp.html" target="_top" xlink:title="Engine/Renderer/Camera\l/ViewingParameters.hpp">
<polygon fill="#ffffff" stroke="#000000" points="753.8749,-369.5 753.8749,-399.5 890.8749,-399.5 890.8749,-369.5 753.8749,-369.5"/>
<text text-anchor="start" x="761.8749" y="-387.5" font-family="Helvetica,sans-Serif" font-size="10.00" fill="#000000">Engine/Renderer/Camera</text>
<text text-anchor="middle" x="822.3749" y="-376.5" font-family="Helvetica,sans-Serif" font-size="10.00" fill="#000000">/ViewingParameters.hpp</text>
</a>
</g>
</g>
<!-- Node18&#45;&gt;Node33 -->
<g id="edge48" class="edge">
<title>Node18&#45;&gt;Node33</title>
<path fill="none" stroke="#191970" d="M785.2668,-436.2967C791.2812,-427.9016 798.8798,-417.2952 805.6323,-407.8698"/>
<polygon fill="#191970" stroke="#191970" points="808.5474,-409.8107 811.5261,-399.6432 802.857,-405.734 808.5474,-409.8107"/>
</g>
<!-- Node34 -->
<g id="node35" class="node">
<title>Node34</title>
<g id="a_node35"><a xlink:href="Camera_8inl.html" target="_top" xlink:title="Engine/Renderer/Camera\l/Camera.inl">
<polygon fill="#ffffff" stroke="#000000" points="559.8749,-369.5 559.8749,-399.5 696.8749,-399.5 696.8749,-369.5 559.8749,-369.5"/>
<text text-anchor="start" x="567.8749" y="-387.5" font-family="Helvetica,sans-Serif" font-size="10.00" fill="#000000">Engine/Renderer/Camera</text>
<text text-anchor="middle" x="628.3749" y="-376.5" font-family="Helvetica,sans-Serif" font-size="10.00" fill="#000000">/Camera.inl</text>
</a>
</g>
</g>
<!-- Node18&#45;&gt;Node34 -->
<g id="edge50" class="edge">
<title>Node18&#45;&gt;Node34</title>
<path fill="none" stroke="#191970" d="M735.8691,-436.4639C713.9041,-426.9191 686.6121,-414.4663 664.973,-404.144"/>
<polygon fill="#191970" stroke="#191970" points="666.3021,-400.8995 655.7734,-399.7177 663.2672,-407.2073 666.3021,-400.8995"/>
</g>
<!-- Node20 -->
<g id="node21" class="node">
<title>Node20</title>
<g id="a_node21"><a xlink:href="RaCore_8hpp.html" target="_top" xlink:title="Core/RaCore.hpp">
<polygon fill="#ffffff" stroke="#000000" points="678.3749,-118 678.3749,-137 776.3749,-137 776.3749,-118 678.3749,-118"/>
<text text-anchor="middle" x="727.3749" y="-125" font-family="Helvetica,sans-Serif" font-size="10.00" fill="#000000">Core/RaCore.hpp</text>
</a>
</g>
</g>
<!-- Node19&#45;&gt;Node20 -->
<g id="edge23" class="edge">
<title>Node19&#45;&gt;Node20</title>
<path fill="none" stroke="#191970" d="M960.8588,-374.9885C922.3823,-365.5922 870.5239,-350.1681 858.3749,-333 850.4162,-321.7534 854.5109,-315.2249 858.3749,-302 863.6997,-283.7753 876.0501,-284.2247 881.3749,-266 883.8678,-257.4678 883.5937,-254.6075 881.3749,-246 872.8839,-213.0601 869.485,-201.9482 844.3749,-179 824.5932,-160.9215 797.4424,-148.4397 774.2753,-140.297"/>
<polygon fill="#191970" stroke="#191970" points="775.2173,-136.9216 764.6235,-137.0693 772.9972,-143.5602 775.2173,-136.9216"/>
</g>
<!-- Node21 -->
<g id="node22" class="node">
<title>Node21</title>
<polygon fill="#ffffff" stroke="#bfbfbf" points="867.3749,-308 867.3749,-327 931.3749,-327 931.3749,-308 867.3749,-308"/>
<text text-anchor="middle" x="899.3749" y="-315" font-family="Helvetica,sans-Serif" font-size="10.00" fill="#000000">algorithm</text>
</g>
<!-- Node19&#45;&gt;Node21 -->
<g id="edge25" class="edge">
<title>Node19&#45;&gt;Node21</title>
<path fill="none" stroke="#191970" d="M989.331,-374.9005C972.0215,-363.8554 943.3772,-345.5776 923.066,-332.6172"/>
<polygon fill="#191970" stroke="#191970" points="924.7037,-329.5103 914.3909,-327.0817 920.9382,-335.4113 924.7037,-329.5103"/>
</g>
<!-- Node22 -->
<g id="node23" class="node">
<title>Node22</title>
<polygon fill="#ffffff" stroke="#bfbfbf" points="949.8749,-308 949.8749,-327 996.8749,-327 996.8749,-308 949.8749,-308"/>
<text text-anchor="middle" x="973.3749" y="-315" font-family="Helvetica,sans-Serif" font-size="10.00" fill="#000000">cmath</text>
</g>
<!-- Node19&#45;&gt;Node22 -->
<g id="edge26" class="edge">
<title>Node19&#45;&gt;Node22</title>
<path fill="none" stroke="#191970" d="M999.9334,-374.9005C995.2833,-364.8505 987.8626,-348.8122 982.0458,-336.2403"/>
<polygon fill="#191970" stroke="#191970" points="985.1839,-334.6876 977.8082,-327.0817 978.831,-337.627 985.1839,-334.6876"/>
</g>
<!-- Node23 -->
<g id="node24" class="node">
<title>Node23</title>
<g id="a_node24"><a xlink:href="Math_8inl.html" target="_top" xlink:title="Core/Math/Math.inl">
<polygon fill="#ffffff" stroke="#000000" points="1015.3749,-308 1015.3749,-327 1123.3749,-327 1123.3749,-308 1015.3749,-308"/>
<text text-anchor="middle" x="1069.3749" y="-315" font-family="Helvetica,sans-Serif" font-size="10.00" fill="#000000">Core/Math/Math.inl</text>
</a>
</g>
</g>
<!-- Node19&#45;&gt;Node23 -->
<g id="edge27" class="edge">
<title>Node19&#45;&gt;Node23</title>
<path fill="none" stroke="#191970" d="M1008.7872,-374.9005C1017.0542,-364.2535 1033.5661,-346.8856 1047.4169,-334.0385"/>
<polygon fill="#191970" stroke="#191970" points="1050.0694,-336.3613 1055.1821,-327.0817 1045.3985,-331.1476 1050.0694,-336.3613"/>
</g>
<!-- Node20&#45;&gt;Node5 -->
<g id="edge24" class="edge">
<title>Node20&#45;&gt;Node5</title>
<path fill="none" stroke="#191970" d="M727.3749,-117.8906C727.3749,-109.3657 727.3749,-96.6392 727.3749,-85.9235"/>
<polygon fill="#191970" stroke="#191970" points="730.875,-85.7448 727.3749,-75.7449 723.875,-85.7449 730.875,-85.7448"/>
</g>
<!-- Node23&#45;&gt;Node19 -->
<g id="edge28" class="edge">
<title>Node23&#45;&gt;Node19</title>
<path fill="none" stroke="#191970" d="M1064.9764,-327.0817C1056.7186,-337.7212 1040.2098,-355.0879 1026.3561,-367.94"/>
<polygon fill="#191970" stroke="#191970" points="1023.7001,-365.6204 1018.5884,-374.9005 1028.3716,-370.8336 1023.7001,-365.6204"/>
</g>
<!-- Node24&#45;&gt;Node20 -->
<g id="edge30" class="edge">
<title>Node24&#45;&gt;Node20</title>
<path fill="none" stroke="#191970" d="M757.9011,-246.2064C754.6834,-236.946 749.8801,-222.6265 746.3749,-210 740.4973,-188.8274 735.0048,-164.2481 731.4522,-147.4617"/>
<polygon fill="#191970" stroke="#191970" points="734.7855,-146.3002 729.3216,-137.223 727.9323,-147.7263 734.7855,-146.3002"/>
</g>
<!-- Node25 -->
<g id="node26" class="node">
<title>Node25</title>
<polygon fill="#ffffff" stroke="#bfbfbf" points="510.8749,-185 510.8749,-204 579.8749,-204 579.8749,-185 510.8749,-185"/>
<text text-anchor="middle" x="545.3749" y="-192" font-family="Helvetica,sans-Serif" font-size="10.00" fill="#000000">Eigen/Core</text>
</g>
<!-- Node24&#45;&gt;Node25 -->
<g id="edge31" class="edge">
<title>Node24&#45;&gt;Node25</title>
<path fill="none" stroke="#191970" d="M724.5339,-246.4241C690.4054,-237.4323 638.2927,-223.3944 593.3749,-210 590.2699,-209.0741 587.0598,-208.0921 583.8397,-207.0894"/>
<polygon fill="#191970" stroke="#191970" points="584.8351,-203.7334 574.2452,-204.0555 582.7246,-210.4077 584.8351,-203.7334"/>
</g>
<!-- Node26 -->
<g id="node27" class="node">
<title>Node26</title>
<polygon fill="#ffffff" stroke="#bfbfbf" points="601.8749,-185 601.8749,-204 696.8749,-204 696.8749,-185 601.8749,-185"/>
<text text-anchor="middle" x="649.3749" y="-192" font-family="Helvetica,sans-Serif" font-size="10.00" fill="#000000">Eigen/Geometry</text>
</g>
<!-- Node24&#45;&gt;Node26 -->
<g id="edge32" class="edge">
<title>Node24&#45;&gt;Node26</title>
<path fill="none" stroke="#191970" d="M743.8749,-246.3906C725.6284,-236.3713 696.8125,-220.5483 675.7943,-209.0071"/>
<polygon fill="#191970" stroke="#191970" points="677.2021,-205.7872 666.752,-204.0419 673.8329,-211.923 677.2021,-205.7872"/>
</g>
<!-- Node27 -->
<g id="node28" class="node">
<title>Node27</title>
<polygon fill="#ffffff" stroke="#bfbfbf" points="755.3749,-185 755.3749,-204 835.3749,-204 835.3749,-185 755.3749,-185"/>
<text text-anchor="middle" x="795.3749" y="-192" font-family="Helvetica,sans-Serif" font-size="10.00" fill="#000000">Eigen/Sparse</text>
</g>
<!-- Node24&#45;&gt;Node27 -->
<g id="edge33" class="edge">
<title>Node24&#45;&gt;Node27</title>
<path fill="none" stroke="#191970" d="M766.6874,-246.3906C771.5988,-237.5068 779.0328,-224.0601 785.1024,-213.0811"/>
<polygon fill="#191970" stroke="#191970" points="788.2122,-214.6899 789.9875,-204.2449 782.0861,-211.3031 788.2122,-214.6899"/>
</g>
<!-- Node28&#45;&gt;Node4 -->
<g id="edge42" class="edge">
<title>Node28&#45;&gt;Node4</title>
<path fill="none" stroke="#191970" d="M509.4692,-307.9884C524.6757,-305.7298 541.1176,-303.5338 556.3749,-302 860.1523,-271.4624 938.5065,-295.6182 1242.3749,-266 1242.4818,-265.9896 1242.5888,-265.9791 1242.6959,-265.9686"/>
<polygon fill="#191970" stroke="#191970" points="1243.278,-269.4262 1252.8449,-264.8738 1242.5272,-262.4666 1243.278,-269.4262"/>
</g>
<!-- Node28&#45;&gt;Node17 -->
<g id="edge43" class="edge">
<title>Node28&#45;&gt;Node17</title>
<path fill="none" stroke="#191970" d="M515.6067,-307.969C529.0599,-305.9712 543.1843,-303.8961 556.3749,-302 668.6886,-285.8553 700.793,-291.1693 814.9055,-266.0594"/>
<polygon fill="#191970" stroke="#191970" points="815.7294,-269.4617 824.7275,-263.8684 814.2053,-262.6296 815.7294,-269.4617"/>
</g>
<!-- Node28&#45;&gt;Node24 -->
<g id="edge44" class="edge">
<title>Node28&#45;&gt;Node24</title>
<path fill="none" stroke="#191970" d="M500.3171,-307.9581C555.9224,-296.891 647.4319,-278.678 706.0163,-267.018"/>
<polygon fill="#191970" stroke="#191970" points="706.7155,-270.4475 715.8399,-265.0628 705.3491,-263.5822 706.7155,-270.4475"/>
</g>
<!-- Node28&#45;&gt;Node25 -->
<g id="edge40" class="edge">
<title>Node28&#45;&gt;Node25</title>
<path fill="none" stroke="#191970" d="M451.4545,-307.8195C450.5585,-293.1823 450.8229,-265.103 463.3749,-246 474.5132,-229.0484 493.3675,-216.6358 510.1901,-208.2492"/>
<polygon fill="#191970" stroke="#191970" points="511.6923,-211.4106 519.2652,-204.0009 508.7245,-205.0709 511.6923,-211.4106"/>
</g>
<!-- Node28&#45;&gt;Node26 -->
<g id="edge41" class="edge">
<title>Node28&#45;&gt;Node26</title>
<path fill="none" stroke="#191970" d="M455.8777,-307.6757C461.8381,-292.3275 475.3858,-262.6942 496.3749,-246 512.9363,-232.8275 563.1949,-217.276 601.6345,-206.7353"/>
<polygon fill="#191970" stroke="#191970" points="602.8839,-210.0233 611.624,-204.0349 601.0571,-203.2659 602.8839,-210.0233"/>
</g>
<!-- Node29 -->
<g id="node30" class="node">
<title>Node29</title>
<g id="a_node30"><a xlink:href="Index_8hpp.html" target="_top" xlink:title="Core/Utils/Index.hpp">
<polygon fill="#ffffff" stroke="#000000" points="217.3749,-185 217.3749,-204 333.3749,-204 333.3749,-185 217.3749,-185"/>
<text text-anchor="middle" x="275.3749" y="-192" font-family="Helvetica,sans-Serif" font-size="10.00" fill="#000000">Core/Utils/Index.hpp</text>
</a>
</g>
</g>
<!-- Node28&#45;&gt;Node29 -->
<g id="edge35" class="edge">
<title>Node28&#45;&gt;Node29</title>
<path fill="none" stroke="#191970" d="M357.8307,-313.2291C233.3479,-306.6197 27.4628,-291.894 4.3749,-266 -1.5407,-259.3654 -1.2935,-252.847 4.3749,-246 29.6261,-215.4983 135.335,-202.9132 207.0193,-197.8252"/>
<polygon fill="#191970" stroke="#191970" points="207.5941,-201.2944 217.3352,-197.1277 207.1218,-194.3104 207.5941,-201.2944"/>
</g>
<!-- Node32 -->
<g id="node33" class="node">
<title>Node32</title>
<g id="a_node33"><a xlink:href="Component_8inl.html" target="_top" xlink:title="Engine/Component/Component.inl">
<polygon fill="#ffffff" stroke="#000000" points="13.8749,-246.5 13.8749,-265.5 196.8749,-265.5 196.8749,-246.5 13.8749,-246.5"/>
<text text-anchor="middle" x="105.3749" y="-253.5" font-family="Helvetica,sans-Serif" font-size="10.00" fill="#000000">Engine/Component/Component.inl</text>
</a>
</g>
</g>
<!-- Node28&#45;&gt;Node32 -->
<g id="edge45" class="edge">
<title>Node28&#45;&gt;Node32</title>
<path fill="none" stroke="#191970" d="M393.4876,-307.9581C329.445,-296.9894 227.843,-279.0012 163.9321,-267.3305"/>
<polygon fill="#191970" stroke="#191970" points="164.4769,-263.8721 154.01,-265.5137 163.216,-270.7576 164.4769,-263.8721"/>
</g>
<!-- Node29&#45;&gt;Node20 -->
<g id="edge36" class="edge">
<title>Node29&#45;&gt;Node20</title>
<path fill="none" stroke="#191970" d="M333.5407,-185.8781C419.8919,-173.0782 581.1327,-149.1775 668.1129,-136.2844"/>
<polygon fill="#191970" stroke="#191970" points="668.7073,-139.7346 678.086,-134.8061 667.6809,-132.8103 668.7073,-139.7346"/>
</g>
<!-- Node30 -->
<g id="node31" class="node">
<title>Node30</title>
<polygon fill="#ffffff" stroke="#bfbfbf" points="329.3749,-118 329.3749,-137 373.3749,-137 373.3749,-118 329.3749,-118"/>
<text text-anchor="middle" x="351.3749" y="-125" font-family="Helvetica,sans-Serif" font-size="10.00" fill="#000000">limits</text>
</g>
<!-- Node29&#45;&gt;Node30 -->
<g id="edge37" class="edge">
<title>Node29&#45;&gt;Node30</title>
<path fill="none" stroke="#191970" d="M286.2638,-184.9005C298.3411,-174.2535 318.042,-156.8856 332.6149,-144.0385"/>
<polygon fill="#191970" stroke="#191970" points="335.3194,-146.3201 340.5062,-137.0817 330.6903,-141.0692 335.3194,-146.3201"/>
</g>
<!-- Node31 -->
<g id="node32" class="node">
<title>Node31</title>
<g id="a_node32"><a xlink:href="Index_8inl.html" target="_top" xlink:title="Core/Utils/Index.inl">
<polygon fill="#ffffff" stroke="#000000" points="201.3749,-118 201.3749,-137 311.3749,-137 311.3749,-118 201.3749,-118"/>
<text text-anchor="middle" x="256.3749" y="-125" font-family="Helvetica,sans-Serif" font-size="10.00" fill="#000000">Core/Utils/Index.inl</text>
</a>
</g>
</g>
<!-- Node29&#45;&gt;Node31 -->
<g id="edge38" class="edge">
<title>Node29&#45;&gt;Node31</title>
<path fill="none" stroke="#191970" d="M267.7521,-184.9005C263.0504,-175.0495 258.1936,-159.4451 255.7068,-146.9912"/>
<polygon fill="#191970" stroke="#191970" points="259.1632,-146.4394 254.195,-137.0817 252.2433,-147.4952 259.1632,-146.4394"/>
</g>
<!-- Node31&#45;&gt;Node29 -->
<g id="edge39" class="edge">
<title>Node31&#45;&gt;Node29</title>
<path fill="none" stroke="#191970" d="M263.9892,-137.0817C268.6907,-146.9258 273.5488,-162.5286 276.0385,-174.9863"/>
<polygon fill="#191970" stroke="#191970" points="272.583,-175.5439 277.5533,-184.9005 279.5027,-174.4866 272.583,-175.5439"/>
</g>
<!-- Node32&#45;&gt;Node28 -->
<g id="edge46" class="edge">
<title>Node32&#45;&gt;Node28</title>
<path fill="none" stroke="#191970" d="M164.0975,-265.5137C228.0756,-276.4703 329.6776,-294.4579 393.6531,-306.1395"/>
<polygon fill="#191970" stroke="#191970" points="393.1193,-309.5998 403.5862,-307.9581 394.38,-302.7143 393.1193,-309.5998"/>
</g>
<!-- Node33&#45;&gt;Node24 -->
<g id="edge49" class="edge">
<title>Node33&#45;&gt;Node24</title>
<path fill="none" stroke="#191970" d="M810.4974,-369.3974C803.1097,-359.4741 793.8224,-345.9719 787.3749,-333 778.0883,-314.3161 770.855,-291.5251 766.4015,-275.6059"/>
<polygon fill="#191970" stroke="#191970" points="769.7465,-274.5669 763.7713,-265.8178 762.9863,-276.3835 769.7465,-274.5669"/>
</g>
<!-- Node34&#45;&gt;Node18 -->
<g id="edge63" class="edge">
<title>Node34&#45;&gt;Node18</title>
<path fill="none" stroke="#191970" d="M667.0316,-399.6017C689.0984,-409.1934 716.5044,-421.7021 738.1534,-432.0357"/>
<polygon fill="#191970" stroke="#191970" points="736.8218,-435.2791 747.3502,-436.4639 739.8586,-428.9721 736.8218,-435.2791"/>
</g>
<!-- Node35 -->
<g id="node36" class="node">
<title>Node35</title>
<g id="a_node36"><a xlink:href="Entity_8hpp.html" target="_top" xlink:title="Engine/Entity/Entity.hpp">
<polygon fill="#ffffff" stroke="#000000" points="565.3749,-308 565.3749,-327 697.3749,-327 697.3749,-308 565.3749,-308"/>
<text text-anchor="middle" x="631.3749" y="-315" font-family="Helvetica,sans-Serif" font-size="10.00" fill="#000000">Engine/Entity/Entity.hpp</text>
</a>
</g>
</g>
<!-- Node34&#45;&gt;Node35 -->
<g id="edge51" class="edge">
<title>Node34&#45;&gt;Node35</title>
<path fill="none" stroke="#191970" d="M629.0556,-369.2967C629.4822,-359.7699 630.0363,-347.3954 630.4959,-337.1306"/>
<polygon fill="#191970" stroke="#191970" points="633.9962,-337.2016 630.9471,-327.055 627.0032,-336.8884 633.9962,-337.2016"/>
</g>
<!-- Node35&#45;&gt;Node4 -->
<g id="edge52" class="edge">
<title>Node35&#45;&gt;Node4</title>
<path fill="none" stroke="#191970" d="M697.5014,-313.1846C809.7299,-305.579 1044.5781,-288.4453 1242.3749,-266 1242.4816,-265.9879 1242.5885,-265.9757 1242.6954,-265.9636"/>
<polygon fill="#191970" stroke="#191970" points="1243.3206,-269.4137 1252.8314,-264.745 1242.4851,-262.4637 1243.3206,-269.4137"/>
</g>
<!-- Node35&#45;&gt;Node10 -->
<g id="edge55" class="edge">
<title>Node35&#45;&gt;Node10</title>
<path fill="none" stroke="#191970" d="M599.8766,-307.8652C536.8854,-287.6493 401.3749,-238.9895 401.3749,-194.5 401.3749,-194.5 401.3749,-194.5 401.3749,-127.5 401.3749,-86.2758 434.3924,-47.6981 456.3181,-26.6249"/>
<polygon fill="#191970" stroke="#191970" points="458.8561,-29.0447 463.8124,-19.6806 454.0984,-23.9101 458.8561,-29.0447"/>
</g>
<!-- Node35&#45;&gt;Node17 -->
<g id="edge56" class="edge">
<title>Node35&#45;&gt;Node17</title>
<path fill="none" stroke="#191970" d="M666.9351,-307.9566C702.2117,-298.4107 758.0481,-283.0908 814.7828,-266.4165"/>
<polygon fill="#191970" stroke="#191970" points="816.0337,-269.6966 824.6345,-263.5098 814.0528,-262.9827 816.0337,-269.6966"/>
</g>
<!-- Node35&#45;&gt;Node24 -->
<g id="edge57" class="edge">
<title>Node35&#45;&gt;Node24</title>
<path fill="none" stroke="#191970" d="M651.6874,-307.8906C673.248,-297.6908 707.5227,-281.4763 732.0193,-269.8875"/>
<polygon fill="#191970" stroke="#191970" points="733.6623,-272.9822 741.205,-265.5419 730.6688,-266.6545 733.6623,-272.9822"/>
</g>
<!-- Node36 -->
<g id="node37" class="node">
<title>Node36</title>
<polygon fill="#ffffff" stroke="#bfbfbf" points="505.3749,-246.5 505.3749,-265.5 553.3749,-265.5 553.3749,-246.5 505.3749,-246.5"/>
<text text-anchor="middle" x="529.3749" y="-253.5" font-family="Helvetica,sans-Serif" font-size="10.00" fill="#000000">mutex</text>
</g>
<!-- Node35&#45;&gt;Node36 -->
<g id="edge53" class="edge">
<title>Node35&#45;&gt;Node36</title>
<path fill="none" stroke="#191970" d="M615.4374,-307.8906C598.9698,-297.9616 573.0491,-282.333 553.9545,-270.8201"/>
<polygon fill="#191970" stroke="#191970" points="555.5715,-267.7081 545.2005,-265.5419 551.9571,-273.7027 555.5715,-267.7081"/>
</g>
<!-- Node37 -->
<g id="node38" class="node">
<title>Node37</title>
<polygon fill="#ffffff" stroke="#bfbfbf" points="979.3749,-246.5 979.3749,-265.5 1023.3749,-265.5 1023.3749,-246.5 979.3749,-246.5"/>
<text text-anchor="middle" x="1001.3749" y="-253.5" font-family="Helvetica,sans-Serif" font-size="10.00" fill="#000000">string</text>
</g>
<!-- Node35&#45;&gt;Node37 -->
<g id="edge54" class="edge">
<title>Node35&#45;&gt;Node37</title>
<path fill="none" stroke="#191970" d="M688.7814,-307.9581C767.4523,-294.8817 906.1432,-271.829 968.9043,-261.3971"/>
<polygon fill="#191970" stroke="#191970" points="969.7173,-264.8101 979.0081,-259.7177 968.5695,-257.9048 969.7173,-264.8101"/>
</g>
<!-- Node38 -->
<g id="node39" class="node">
<title>Node38</title>
<g id="a_node39"><a xlink:href="IndexedObject_8hpp.html" target="_top" xlink:title="Core/Utils/IndexedObject.hpp">
<polygon fill="#ffffff" stroke="#000000" points="214.8749,-246.5 214.8749,-265.5 373.8749,-265.5 373.8749,-246.5 214.8749,-246.5"/>
<text text-anchor="middle" x="294.3749" y="-253.5" font-family="Helvetica,sans-Serif" font-size="10.00" fill="#000000">Core/Utils/IndexedObject.hpp</text>
</a>
</g>
</g>
<!-- Node35&#45;&gt;Node38 -->
<g id="edge58" class="edge">
<title>Node35&#45;&gt;Node38</title>
<path fill="none" stroke="#191970" d="M585.5986,-307.9579C575.6449,-305.9407 565.1645,-303.8606 555.3749,-302 489.342,-289.4497 413.681,-276.2437 360.8829,-267.2172"/>
<polygon fill="#191970" stroke="#191970" points="361.4144,-263.7574 350.9682,-265.5253 360.2369,-270.6576 361.4144,-263.7574"/>
</g>
<!-- Node39 -->
<g id="node40" class="node">
<title>Node39</title>
<g id="a_node40"><a xlink:href="Entity_8inl.html" target="_top" xlink:title="Engine/Entity/Entity.inl">
<polygon fill="#ffffff" stroke="#000000" points="571.3749,-246.5 571.3749,-265.5 697.3749,-265.5 697.3749,-246.5 571.3749,-246.5"/>
<text text-anchor="middle" x="634.3749" y="-253.5" font-family="Helvetica,sans-Serif" font-size="10.00" fill="#000000">Engine/Entity/Entity.inl</text>
</a>
</g>
</g>
<!-- Node35&#45;&gt;Node39 -->
<g id="edge61" class="edge">
<title>Node35&#45;&gt;Node39</title>
<path fill="none" stroke="#191970" d="M626.7812,-307.8906C625.5336,-299.3657 625.7207,-286.6392 627.0395,-275.9235"/>
<polygon fill="#191970" stroke="#191970" points="630.5445,-276.1969 628.8108,-265.7449 623.6481,-274.9967 630.5445,-276.1969"/>
</g>
<!-- Node38&#45;&gt;Node20 -->
<g id="edge59" class="edge">
<title>Node38&#45;&gt;Node20</title>
<path fill="none" stroke="#191970" d="M317.0132,-246.4527C354.7282,-230.8038 433.0361,-199.3995 501.3749,-179 557.1206,-162.3596 621.9771,-148.0899 667.8772,-138.82"/>
<polygon fill="#191970" stroke="#191970" points="668.8352,-142.1978 677.9541,-136.8037 667.4617,-135.3339 668.8352,-142.1978"/>
</g>
<!-- Node38&#45;&gt;Node29 -->
<g id="edge60" class="edge">
<title>Node38&#45;&gt;Node29</title>
<path fill="none" stroke="#191970" d="M291.4062,-246.3906C288.7447,-237.776 284.7578,-224.8708 281.4258,-214.0858"/>
<polygon fill="#191970" stroke="#191970" points="284.6814,-212.7661 278.3855,-204.2449 277.9933,-214.8324 284.6814,-212.7661"/>
</g>
<!-- Node39&#45;&gt;Node35 -->
<g id="edge62" class="edge">
<title>Node39&#45;&gt;Node35</title>
<path fill="none" stroke="#191970" d="M638.9883,-265.7449C640.2207,-274.314 640.02,-287.0519 638.6893,-297.7462"/>
<polygon fill="#191970" stroke="#191970" points="635.1903,-297.4357 636.9062,-307.8906 642.0846,-298.6476 635.1903,-297.4357"/>
</g>
<!-- Node40&#45;&gt;Node4 -->
<g id="edge67" class="edge">
<title>Node40&#45;&gt;Node4</title>
<path fill="none" stroke="#191970" d="M1228.8437,-307.8906C1244.827,-297.9616 1269.9852,-282.333 1288.5182,-270.8201"/>
<polygon fill="#191970" stroke="#191970" points="1290.3673,-273.7918 1297.0148,-265.5419 1286.6734,-267.8457 1290.3673,-273.7918"/>
</g>
<!-- Node40&#45;&gt;Node16 -->
<g id="edge72" class="edge">
<title>Node40&#45;&gt;Node16</title>
<path fill="none" stroke="#191970" d="M1271.7124,-307.9581C1349.0524,-295.3081 1483.4733,-273.3217 1549.8981,-262.457"/>
<polygon fill="#191970" stroke="#191970" points="1550.652,-265.8803 1559.9559,-260.8119 1549.522,-258.9721 1550.652,-265.8803"/>
</g>
<!-- Node40&#45;&gt;Node17 -->
<g id="edge75" class="edge">
<title>Node40&#45;&gt;Node17</title>
<path fill="none" stroke="#191970" d="M1164.5868,-307.931C1153.9783,-305.9155 1142.8085,-303.8429 1132.3749,-302 1041.9942,-286.0362 935.0428,-269.2901 881.8727,-261.1092"/>
<polygon fill="#191970" stroke="#191970" points="882.392,-257.648 871.9767,-259.59 881.3297,-264.5669 882.392,-257.648"/>
</g>
<!-- Node40&#45;&gt;Node24 -->
<g id="edge68" class="edge">
<title>Node40&#45;&gt;Node24</title>
<path fill="none" stroke="#191970" d="M1166.7912,-307.9614C1155.5509,-305.8328 1143.5567,-303.7043 1132.3749,-302 995.911,-281.2005 957.9748,-286.3903 817.2663,-266.0382"/>
<polygon fill="#191970" stroke="#191970" points="817.3566,-262.5142 806.9549,-264.528 816.3421,-269.4403 817.3566,-262.5142"/>
</g>
<!-- Node40&#45;&gt;Node37 -->
<g id="edge74" class="edge">
<title>Node40&#45;&gt;Node37</title>
<path fill="none" stroke="#191970" d="M1180.2499,-307.8906C1140.0763,-296.2365 1072.8349,-276.7301 1033.2382,-265.2434"/>
<polygon fill="#191970" stroke="#191970" points="1034.1414,-261.8611 1023.5622,-262.4364 1032.1911,-268.584 1034.1414,-261.8611"/>
</g>
<!-- Node41 -->
<g id="node42" class="node">
<title>Node41</title>
<g id="a_node42"><a xlink:href="Singleton_8hpp.html" target="_top" xlink:title="Core/Utils/Singleton.hpp">
<polygon fill="#ffffff" stroke="#000000" points="947.3749,-185 947.3749,-204 1081.3749,-204 1081.3749,-185 947.3749,-185"/>
<text text-anchor="middle" x="1014.3749" y="-192" font-family="Helvetica,sans-Serif" font-size="10.00" fill="#000000">Core/Utils/Singleton.hpp</text>
</a>
</g>
</g>
<!-- Node40&#45;&gt;Node41 -->
<g id="edge69" class="edge">
<title>Node40&#45;&gt;Node41</title>
<path fill="none" stroke="#191970" d="M1196.3772,-307.8398C1178.5589,-297.6464 1149.8096,-281.0102 1125.3749,-266 1094.6466,-247.1237 1059.7651,-224.4448 1037.4402,-209.7661"/>
<polygon fill="#191970" stroke="#191970" points="1039.2472,-206.7653 1028.9713,-204.1854 1035.3955,-212.6104 1039.2472,-206.7653"/>
</g>
<!-- Node42 -->
<g id="node43" class="node">
<title>Node42</title>
<polygon fill="#ffffff" stroke="#bfbfbf" points="1195.3749,-246.5 1195.3749,-265.5 1233.3749,-265.5 1233.3749,-246.5 1195.3749,-246.5"/>
<text text-anchor="middle" x="1214.3749" y="-253.5" font-family="Helvetica,sans-Serif" font-size="10.00" fill="#000000">map</text>
</g>
<!-- Node40&#45;&gt;Node42 -->
<g id="edge71" class="edge">
<title>Node40&#45;&gt;Node42</title>
<path fill="none" stroke="#191970" d="M1213.5312,-307.8906C1213.6698,-299.3657 1213.8767,-286.6392 1214.0509,-275.9235"/>
<polygon fill="#191970" stroke="#191970" points="1217.5533,-275.8005 1214.2164,-265.7449 1210.5542,-275.6866 1217.5533,-275.8005"/>
</g>
<!-- Node43 -->
<g id="node44" class="node">
<title>Node43</title>
<polygon fill="#ffffff" stroke="#bfbfbf" points="1133.8749,-246.5 1133.8749,-265.5 1176.8749,-265.5 1176.8749,-246.5 1133.8749,-246.5"/>
<text text-anchor="middle" x="1155.3749" y="-253.5" font-family="Helvetica,sans-Serif" font-size="10.00" fill="#000000">stack</text>
</g>
<!-- Node40&#45;&gt;Node43 -->
<g id="edge73" class="edge">
<title>Node40&#45;&gt;Node43</title>
<path fill="none" stroke="#191970" d="M1204.3124,-307.8906C1195.5956,-298.6478 1182.2209,-284.466 1171.6553,-273.2628"/>
<polygon fill="#191970" stroke="#191970" points="1173.9725,-270.6186 1164.5652,-265.7449 1168.8799,-275.4213 1173.9725,-270.6186"/>
</g>
<!-- Node41&#45;&gt;Node20 -->
<g id="edge70" class="edge">
<title>Node41&#45;&gt;Node20</title>
<path fill="none" stroke="#191970" d="M973.5596,-184.9717C922.277,-172.9998 834.2521,-152.4504 778.5271,-139.4415"/>
<polygon fill="#191970" stroke="#191970" points="779.048,-135.969 768.5141,-137.1039 777.4565,-142.7857 779.048,-135.969"/>
</g>
</g>
</svg>
