<?xml version="1.0" encoding="UTF-8" standalone="no"?>
<!DOCTYPE svg PUBLIC "-//W3C//DTD SVG 1.1//EN"
 "http://www.w3.org/Graphics/SVG/1.1/DTD/svg11.dtd">
<!-- Generated by graphviz version 2.40.1 (20161225.0304)
 -->
<!-- Title: src/Engine/Renderer/Renderers Pages: 1 -->
<!--zoomable 655 -->
<svg id="main" version="1.1" xmlns="http://www.w3.org/2000/svg" xmlns:xlink="http://www.w3.org/1999/xlink" xml:space="preserve" onload="init(evt)">
<style type="text/css"><![CDATA[
.edge:hover path { stroke: red; }
.edge:hover polygon { stroke: red; fill: red; }
]]></style>
<script type="text/javascript"><![CDATA[
var edges = document.getElementsByTagName('g');
if (edges && edges.length) {
  for (var i=0;i<edges.length;i++) {
    if (edges[i].id.substr(0,4)=='edge') {
      edges[i].setAttribute('class','edge');
    }
  }
}
]]></script>
        <defs>
                <circle id="rim" cx="0" cy="0" r="7"/>
                <circle id="rim2" cx="0" cy="0" r="3.5"/>
                <g id="zoomPlus">
                        <use xlink:href="#rim" fill="#404040">
                                <set attributeName="fill" to="#808080" begin="zoomplus.mouseover" end="zoomplus.mouseout"/>
                        </use>
                        <path d="M-4,0h8M0,-4v8" fill="none" stroke="white" stroke-width="1.5" pointer-events="none"/>
                </g>
                <g id="zoomMin">
                        <use xlink:href="#rim" fill="#404040">
                                <set attributeName="fill" to="#808080" begin="zoomminus.mouseover" end="zoomminus.mouseout"/>
                        </use>
                        <path d="M-4,0h8" fill="none" stroke="white" stroke-width="1.5" pointer-events="none"/>
                </g>
                <g id="dirArrow">
                        <path fill="none" stroke="white" stroke-width="1.5" d="M0,-3.0v7 M-2.5,-0.5L0,-3.0L2.5,-0.5"/>
                </g>
               <g id="resetDef">
                       <use xlink:href="#rim2" fill="#404040">
                               <set attributeName="fill" to="#808080" begin="reset.mouseover" end="reset.mouseout"/>
                       </use>
               </g>
        </defs>

<script type="text/javascript">
var viewWidth = 697;
var viewHeight = 655;
var sectionId = 'dynsection-0';
</script>
<script xlink:href="svgpan.js"/>
<svg id="graph" class="graph">
<g id="viewport">
<title>src/Engine/Renderer/Renderers</title>
<polygon fill="#ffffff" stroke="transparent" points="-4,4 -4,-651 693,-651 693,4 -4,4"/>
<g id="clust1" class="cluster">
<title>clusterdir_54018506bb725509c19b38b6d9bcf0f6</title>
<g id="a_clust1"><a xlink:href="dir_54018506bb725509c19b38b6d9bcf0f6.html" target="_top" xlink:title="Renderer">
<polygon fill="#ddddee" stroke="#000000" points="403,-568 403,-639 485,-639 485,-568 403,-568"/>
<text text-anchor="middle" x="444" y="-627" font-family="Helvetica,sans-Serif" font-size="10.00" fill="#000000">Renderer</text>
</a>
</g>
</g>
<!-- dir_ac53bbf7aa3921b9bb37792f08d5cbd9 -->
<g id="node1" class="node">
<title>dir_ac53bbf7aa3921b9bb37792f08d5cbd9</title>
<g id="a_node1"><a xlink:href="dir_ac53bbf7aa3921b9bb37792f08d5cbd9.html" target="_top" xlink:title="Renderers">
<polygon fill="#eeeeff" stroke="#000000" points="476.5,-612 411.5,-612 411.5,-576 476.5,-576 476.5,-612"/>
<text text-anchor="middle" x="444" y="-591.5" font-family="Helvetica,sans-Serif" font-size="10.00" fill="#000000">Renderers</text>
</a>
</g>
</g>
<!-- dir_b3c92c43cc8feb1052f624d79df8b6af -->
<g id="node2" class="node">
<title>dir_b3c92c43cc8feb1052f624d79df8b6af</title>
<g id="a_node2"><a xlink:href="dir_b3c92c43cc8feb1052f624d79df8b6af.html" target="_top" xlink:title="Light">
<polygon fill="none" stroke="#000000" points="321,-540 267,-540 267,-504 321,-504 321,-540"/>
<text text-anchor="middle" x="294" y="-519.5" font-family="Helvetica,sans-Serif" font-size="10.00" fill="#000000">Light</text>
</a>
</g>
</g>
<!-- dir_ac53bbf7aa3921b9bb37792f08d5cbd9&#45;&gt;dir_b3c92c43cc8feb1052f624d79df8b6af -->
<g id="edge13" class="edge">
<title>dir_ac53bbf7aa3921b9bb37792f08d5cbd9&#45;&gt;dir_b3c92c43cc8feb1052f624d79df8b6af</title>
<path fill="none" stroke="#000000" d="M411.4522,-578.3771C387.6143,-566.9349 355.245,-551.3976 330.5241,-539.5316"/>
<polygon fill="#000000" stroke="#000000" points="331.9876,-536.3518 321.4578,-535.1797 328.9584,-542.6624 331.9876,-536.3518"/>
<g id="a_edge13&#45;headlabel"><a xlink:href="dir_000028_000024.html" target="_top" xlink:title="1">
<text text-anchor="middle" x="336.4568" y="-532.8475" font-family="Helvetica,sans-Serif" font-size="10.00" fill="#000000">1</text>
</a>
</g>
</g>
<!-- dir_652267079d823ee01f6c6cf98db9085b -->
<g id="node3" class="node">
<title>dir_652267079d823ee01f6c6cf98db9085b</title>
<g id="a_node3"><a xlink:href="dir_652267079d823ee01f6c6cf98db9085b.html" target="_top" xlink:title="RenderObject">
<polygon fill="#ffffff" stroke="#ff0000" points="356,-396 274,-396 274,-360 356,-360 356,-396"/>
<text text-anchor="middle" x="315" y="-375.5" font-family="Helvetica,sans-Serif" font-size="10.00" fill="#000000">RenderObject</text>
</a>
</g>
</g>
<!-- dir_ac53bbf7aa3921b9bb37792f08d5cbd9&#45;&gt;dir_652267079d823ee01f6c6cf98db9085b -->
<g id="edge14" class="edge">
<title>dir_ac53bbf7aa3921b9bb37792f08d5cbd9&#45;&gt;dir_652267079d823ee01f6c6cf98db9085b</title>
<path fill="none" stroke="#000000" d="M433.8547,-575.8492C416.922,-545.7092 381.6344,-483.5484 350,-432 344.5355,-423.0955 338.3928,-413.4908 332.7967,-404.8856"/>
<polygon fill="#000000" stroke="#000000" points="335.6173,-402.8038 327.2141,-396.3511 329.7593,-406.6357 335.6173,-402.8038"/>
<g id="a_edge14&#45;headlabel"><a xlink:href="dir_000028_000029.html" target="_top" xlink:title="2">
<text text-anchor="middle" x="339.9611" y="-401.7578" font-family="Helvetica,sans-Serif" font-size="10.00" fill="#000000">2</text>
</a>
</g>
</g>
<!-- dir_8efb2e226a329d96dc3bcfc9eaf1a998 -->
<g id="node4" class="node">
<title>dir_8efb2e226a329d96dc3bcfc9eaf1a998</title>
<g id="a_node4"><a xlink:href="dir_8efb2e226a329d96dc3bcfc9eaf1a998.html" target="_top" xlink:title="Texture">
<polygon fill="none" stroke="#000000" points="527,-108 473,-108 473,-72 527,-72 527,-108"/>
<text text-anchor="middle" x="500" y="-87.5" font-family="Helvetica,sans-Serif" font-size="10.00" fill="#000000">Texture</text>
</a>
</g>
</g>
<!-- dir_ac53bbf7aa3921b9bb37792f08d5cbd9&#45;&gt;dir_8efb2e226a329d96dc3bcfc9eaf1a998 -->
<g id="edge15" class="edge">
<title>dir_ac53bbf7aa3921b9bb37792f08d5cbd9&#45;&gt;dir_8efb2e226a329d96dc3bcfc9eaf1a998</title>
<path fill="none" stroke="#000000" d="M476.7998,-587.1483C535.1682,-572.8235 651,-533.8347 651,-450 651,-450 651,-450 651,-378 651,-270.463 567.4016,-163.509 524.61,-115.8062"/>
<polygon fill="#000000" stroke="#000000" points="526.94,-113.1669 517.6171,-108.1335 521.7664,-117.8821 526.94,-113.1669"/>
<g id="a_edge15&#45;headlabel"><a xlink:href="dir_000028_000032.html" target="_top" xlink:title="1">
<text text-anchor="middle" x="531.4598" y="-111.4111" font-family="Helvetica,sans-Serif" font-size="10.00" fill="#000000">1</text>
</a>
</g>
</g>
<!-- dir_a2f0e5642e47e7ed59fe0f0829eafb5f -->
<g id="node5" class="node">
<title>dir_a2f0e5642e47e7ed59fe0f0829eafb5f</title>
<g id="a_node5"><a xlink:href="dir_a2f0e5642e47e7ed59fe0f0829eafb5f.html" target="_top" xlink:title="Core">
<polygon fill="#ffffff" stroke="#ff0000" points="264,-36 210,-36 210,0 264,0 264,-36"/>
<text text-anchor="middle" x="237" y="-15.5" font-family="Helvetica,sans-Serif" font-size="10.00" fill="#000000">Core</text>
</a>
</g>
</g>
<!-- dir_ac53bbf7aa3921b9bb37792f08d5cbd9&#45;&gt;dir_a2f0e5642e47e7ed59fe0f0829eafb5f -->
<g id="edge16" class="edge">
<title>dir_ac53bbf7aa3921b9bb37792f08d5cbd9&#45;&gt;dir_a2f0e5642e47e7ed59fe0f0829eafb5f</title>
<path fill="none" stroke="#000000" d="M411.3516,-590.564C308.8153,-578.879 0,-536.506 0,-450 0,-450 0,-450 0,-162 0,-115.1222 17.8333,-100.5686 55,-72 97.8176,-39.0877 160.3859,-26.1845 199.8795,-21.1598"/>
<polygon fill="#000000" stroke="#000000" points="200.3567,-24.628 209.8838,-19.9928 199.5456,-17.6751 200.3567,-24.628"/>
<g id="a_edge16&#45;headlabel"><a xlink:href="dir_000028_000001.html" target="_top" xlink:title="12">
<text text-anchor="middle" x="197.1152" y="-25.3645" font-family="Helvetica,sans-Serif" font-size="10.00" fill="#000000">12</text>
</a>
</g>
</g>
<!-- dir_745a441f70a5ddf403f2f793490dcc6d -->
<g id="node6" class="node">
<title>dir_745a441f70a5ddf403f2f793490dcc6d</title>
<g id="a_node6"><a xlink:href="dir_745a441f70a5ddf403f2f793490dcc6d.html" target="_top" xlink:title="OpenGL">
<polygon fill="none" stroke="#000000" points="620.5,-36 565.5,-36 565.5,0 620.5,0 620.5,-36"/>
<text text-anchor="middle" x="593" y="-15.5" font-family="Helvetica,sans-Serif" font-size="10.00" fill="#000000">OpenGL</text>
</a>
</g>
</g>
<!-- dir_ac53bbf7aa3921b9bb37792f08d5cbd9&#45;&gt;dir_745a441f70a5ddf403f2f793490dcc6d -->
<g id="edge17" class="edge">
<title>dir_ac53bbf7aa3921b9bb37792f08d5cbd9&#45;&gt;dir_745a441f70a5ddf403f2f793490dcc6d</title>
<path fill="none" stroke="#000000" d="M476.5341,-590.143C543.1789,-580.2411 689,-547.4418 689,-450 689,-450 689,-450 689,-162 689,-113.9377 651.5183,-69.7161 623.3956,-43.3006"/>
<polygon fill="#000000" stroke="#000000" points="625.4995,-40.4826 615.7507,-36.3339 620.7845,-45.6565 625.4995,-40.4826"/>
<g id="a_edge17&#45;headlabel"><a xlink:href="dir_000028_000027.html" target="_top" xlink:title="2">
<text text-anchor="middle" x="630.0688" y="-38.3051" font-family="Helvetica,sans-Serif" font-size="10.00" fill="#000000">2</text>
</a>
</g>
</g>
<!-- dir_f6a0a87962fcbf90fc709c1bf5ba5a00 -->
<g id="node7" class="node">
<title>dir_f6a0a87962fcbf90fc709c1bf5ba5a00</title>
<g id="a_node7"><a xlink:href="dir_f6a0a87962fcbf90fc709c1bf5ba5a00.html" target="_top" xlink:title="Mesh">
<polygon fill="none" stroke="#000000" points="547,-324 493,-324 493,-288 547,-288 547,-324"/>
<text text-anchor="middle" x="520" y="-303.5" font-family="Helvetica,sans-Serif" font-size="10.00" fill="#000000">Mesh</text>
</a>
</g>
</g>
<!-- dir_ac53bbf7aa3921b9bb37792f08d5cbd9&#45;&gt;dir_f6a0a87962fcbf90fc709c1bf5ba5a00 -->
<g id="edge18" class="edge">
<title>dir_ac53bbf7aa3921b9bb37792f08d5cbd9&#45;&gt;dir_f6a0a87962fcbf90fc709c1bf5ba5a00</title>
<path fill="none" stroke="#000000" d="M476.7934,-577.8088C491.2416,-568.8135 506.7785,-556.1465 515,-540 549.2106,-472.8127 536.4566,-380.0932 526.8456,-334.1478"/>
<polygon fill="#000000" stroke="#000000" points="530.2456,-333.3122 524.6805,-324.2966 523.4087,-334.8149 530.2456,-333.3122"/>
<g id="a_edge18&#45;headlabel"><a xlink:href="dir_000028_000026.html" target="_top" xlink:title="2">
<text text-anchor="middle" x="533.7902" y="-333.7136" font-family="Helvetica,sans-Serif" font-size="10.00" fill="#000000">2</text>
</a>
</g>
</g>
<!-- dir_6bc97c5ccce2964f7b25f8377ac95818 -->
<g id="node8" class="node">
<title>dir_6bc97c5ccce2964f7b25f8377ac95818</title>
<g id="a_node8"><a xlink:href="dir_6bc97c5ccce2964f7b25f8377ac95818.html" target="_top" xlink:title="RenderTechnique">
<polygon fill="none" stroke="#000000" points="444.5,-252 345.5,-252 345.5,-216 444.5,-216 444.5,-252"/>
<text text-anchor="middle" x="395" y="-231.5" font-family="Helvetica,sans-Serif" font-size="10.00" fill="#000000">RenderTechnique</text>
</a>
</g>
</g>
<!-- dir_ac53bbf7aa3921b9bb37792f08d5cbd9&#45;&gt;dir_6bc97c5ccce2964f7b25f8377ac95818 -->
<g id="edge19" class="edge">
<title>dir_ac53bbf7aa3921b9bb37792f08d5cbd9&#45;&gt;dir_6bc97c5ccce2964f7b25f8377ac95818</title>
<path fill="none" stroke="#000000" d="M444.9621,-575.6721C446.9915,-527.5498 449.4122,-394.0046 421,-288 418.5731,-278.9453 414.6342,-269.5757 410.5481,-261.2343"/>
<polygon fill="#000000" stroke="#000000" points="413.6447,-259.6027 405.9449,-252.3251 407.4257,-262.8159 413.6447,-259.6027"/>
<g id="a_edge19&#45;headlabel"><a xlink:href="dir_000028_000031.html" target="_top" xlink:title="4">
<text text-anchor="middle" x="417.8172" y="-258.993" font-family="Helvetica,sans-Serif" font-size="10.00" fill="#000000">4</text>
</a>
</g>
</g>
<!-- dir_06113b60808b1bbb52a01dfd2c3a8657 -->
<g id="node9" class="node">
<title>dir_06113b60808b1bbb52a01dfd2c3a8657</title>
<g id="a_node9"><a xlink:href="dir_06113b60808b1bbb52a01dfd2c3a8657.html" target="_top" xlink:title="Managers">
<polygon fill="#ffffff" stroke="#ff0000" points="171,-324 107,-324 107,-288 171,-288 171,-324"/>
<text text-anchor="middle" x="139" y="-303.5" font-family="Helvetica,sans-Serif" font-size="10.00" fill="#000000">Managers</text>
</a>
</g>
</g>
<!-- dir_ac53bbf7aa3921b9bb37792f08d5cbd9&#45;&gt;dir_06113b60808b1bbb52a01dfd2c3a8657 -->
<g id="edge20" class="edge">
<title>dir_ac53bbf7aa3921b9bb37792f08d5cbd9&#45;&gt;dir_06113b60808b1bbb52a01dfd2c3a8657</title>
<path fill="none" stroke="#000000" d="M411.4474,-589.6063C372.6943,-583.276 307.0602,-569.0079 258,-540 187.7355,-498.4546 167.4814,-474.1776 144,-396 137.9697,-375.923 136.8813,-352.2144 137.214,-334.1721"/>
<polygon fill="#000000" stroke="#000000" points="140.7175,-334.1278 137.5604,-324.0143 133.7216,-333.8892 140.7175,-334.1278"/>
<g id="a_edge20&#45;headlabel"><a xlink:href="dir_000028_000014.html" target="_top" xlink:title="2">
<text text-anchor="middle" x="143.4327" y="-335.317" font-family="Helvetica,sans-Serif" font-size="10.00" fill="#000000">2</text>
</a>
</g>
</g>
<!-- dir_d0f3276f03e9a9cb8f8ba3f2a5ea1262 -->
<g id="node10" class="node">
<title>dir_d0f3276f03e9a9cb8f8ba3f2a5ea1262</title>
<g id="a_node10"><a xlink:href="dir_d0f3276f03e9a9cb8f8ba3f2a5ea1262.html" target="_top" xlink:title="Component">
<polygon fill="none" stroke="#000000" points="341.5,-468 268.5,-468 268.5,-432 341.5,-432 341.5,-468"/>
<text text-anchor="middle" x="305" y="-447.5" font-family="Helvetica,sans-Serif" font-size="10.00" fill="#000000">Component</text>
</a>
</g>
</g>
<!-- dir_ac53bbf7aa3921b9bb37792f08d5cbd9&#45;&gt;dir_d0f3276f03e9a9cb8f8ba3f2a5ea1262 -->
<g id="edge21" class="edge">
<title>dir_ac53bbf7aa3921b9bb37792f08d5cbd9&#45;&gt;dir_d0f3276f03e9a9cb8f8ba3f2a5ea1262</title>
<path fill="none" stroke="#000000" d="M416.6275,-575.8592C402.8143,-566.0608 386.2291,-553.2713 373,-540 353.5454,-520.4834 334.9328,-495.23 322.1144,-476.4431"/>
<polygon fill="#000000" stroke="#000000" points="324.9604,-474.403 316.4799,-468.0522 319.1491,-478.3054 324.9604,-474.403"/>
<g id="a_edge21&#45;headlabel"><a xlink:href="dir_000028_000011.html" target="_top" xlink:title="1">
<text text-anchor="middle" x="329.3214" y="-473.3044" font-family="Helvetica,sans-Serif" font-size="10.00" fill="#000000">1</text>
</a>
</g>
</g>
<!-- dir_909774b1a000bf73b2cf501716b773f3 -->
<g id="node11" class="node">
<title>dir_909774b1a000bf73b2cf501716b773f3</title>
<g id="a_node11"><a xlink:href="dir_909774b1a000bf73b2cf501716b773f3.html" target="_top" xlink:title="Material">
<polygon fill="none" stroke="#000000" points="367,-180 311,-180 311,-144 367,-144 367,-180"/>
<text text-anchor="middle" x="339" y="-159.5" font-family="Helvetica,sans-Serif" font-size="10.00" fill="#000000">Material</text>
</a>
</g>
</g>
<!-- dir_ac53bbf7aa3921b9bb37792f08d5cbd9&#45;&gt;dir_909774b1a000bf73b2cf501716b773f3 -->
<g id="edge22" class="edge">
<title>dir_ac53bbf7aa3921b9bb37792f08d5cbd9&#45;&gt;dir_909774b1a000bf73b2cf501716b773f3</title>
<path fill="none" stroke="#000000" d="M460.9978,-575.7224C504.0012,-527.1687 609.9827,-391.5997 556,-288 520.1419,-219.1837 429.1259,-185.1308 377.0701,-170.7811"/>
<polygon fill="#000000" stroke="#000000" points="377.769,-167.3456 367.2063,-168.1694 375.9773,-174.1125 377.769,-167.3456"/>
<g id="a_edge22&#45;headlabel"><a xlink:href="dir_000028_000025.html" target="_top" xlink:title="1">
<text text-anchor="middle" x="381.9706" y="-163.0209" font-family="Helvetica,sans-Serif" font-size="10.00" fill="#000000">1</text>
</a>
</g>
</g>
<!-- dir_b3c92c43cc8feb1052f624d79df8b6af&#45;&gt;dir_a2f0e5642e47e7ed59fe0f0829eafb5f -->
<g id="edge1" class="edge">
<title>dir_b3c92c43cc8feb1052f624d79df8b6af&#45;&gt;dir_a2f0e5642e47e7ed59fe0f0829eafb5f</title>
<path fill="none" stroke="#000000" d="M266.6035,-513.568C200.5625,-491.3549 38,-424.6284 38,-306 38,-306 38,-306 38,-162 38,-82.9487 142.3404,-42.8772 199.915,-26.7833"/>
<polygon fill="#000000" stroke="#000000" points="200.9985,-30.1163 209.7472,-24.1404 199.1814,-23.3563 200.9985,-30.1163"/>
<g id="a_edge1&#45;headlabel"><a xlink:href="dir_000024_000001.html" target="_top" xlink:title="2">
<text text-anchor="middle" x="198.2641" y="-31.2913" font-family="Helvetica,sans-Serif" font-size="10.00" fill="#000000">2</text>
</a>
</g>
</g>
<!-- dir_b3c92c43cc8feb1052f624d79df8b6af&#45;&gt;dir_6bc97c5ccce2964f7b25f8377ac95818 -->
<g id="edge2" class="edge">
<title>dir_b3c92c43cc8feb1052f624d79df8b6af&#45;&gt;dir_6bc97c5ccce2964f7b25f8377ac95818</title>
<path fill="none" stroke="#000000" d="M315.8884,-503.9733C326.9922,-494.1088 340.1712,-481.2249 350,-468 371.461,-439.1236 374.1122,-429.5906 387,-396 404.4582,-350.497 410.8887,-336.4913 406,-288 405.1498,-279.5665 403.5706,-270.5029 401.8689,-262.2554"/>
<polygon fill="#000000" stroke="#000000" points="405.2578,-261.3697 399.6934,-252.3537 398.4209,-262.8719 405.2578,-261.3697"/>
<g id="a_edge2&#45;headlabel"><a xlink:href="dir_000024_000031.html" target="_top" xlink:title="4">
<text text-anchor="middle" x="408.8023" y="-261.7713" font-family="Helvetica,sans-Serif" font-size="10.00" fill="#000000">4</text>
</a>
</g>
</g>
<!-- dir_b3c92c43cc8feb1052f624d79df8b6af&#45;&gt;dir_d0f3276f03e9a9cb8f8ba3f2a5ea1262 -->
<g id="edge3" class="edge">
<title>dir_b3c92c43cc8feb1052f624d79df8b6af&#45;&gt;dir_d0f3276f03e9a9cb8f8ba3f2a5ea1262</title>
<path fill="none" stroke="#000000" d="M296.7758,-503.8314C297.9522,-496.131 299.3511,-486.9743 300.6586,-478.4166"/>
<polygon fill="#000000" stroke="#000000" points="304.1364,-478.8272 302.1869,-468.4133 297.2167,-477.7699 304.1364,-478.8272"/>
<g id="a_edge3&#45;headlabel"><a xlink:href="dir_000024_000011.html" target="_top" xlink:title="1">
<text text-anchor="middle" x="306.4003" y="-480.3093" font-family="Helvetica,sans-Serif" font-size="10.00" fill="#000000">1</text>
</a>
</g>
</g>
<!-- dir_652267079d823ee01f6c6cf98db9085b&#45;&gt;dir_a2f0e5642e47e7ed59fe0f0829eafb5f -->
<g id="edge4" class="edge">
<title>dir_652267079d823ee01f6c6cf98db9085b&#45;&gt;dir_a2f0e5642e47e7ed59fe0f0829eafb5f</title>
<path fill="none" stroke="#000000" d="M311.0247,-359.6526C298.2978,-300.9129 258.4936,-117.2013 243.1327,-46.3047"/>
<polygon fill="#000000" stroke="#000000" points="246.5055,-45.3425 240.9673,-36.3104 239.6642,-46.8248 246.5055,-45.3425"/>
<g id="a_edge4&#45;headlabel"><a xlink:href="dir_000029_000001.html" target="_top" xlink:title="13">
<text text-anchor="middle" x="250.0415" y="-45.7544" font-family="Helvetica,sans-Serif" font-size="10.00" fill="#000000">13</text>
</a>
</g>
</g>
<!-- dir_652267079d823ee01f6c6cf98db9085b&#45;&gt;dir_745a441f70a5ddf403f2f793490dcc6d -->
<g id="edge5" class="edge">
<title>dir_652267079d823ee01f6c6cf98db9085b&#45;&gt;dir_745a441f70a5ddf403f2f793490dcc6d</title>
<path fill="none" stroke="#000000" d="M356.0832,-374.3276C417.5807,-367.9506 529.2288,-352.68 556,-324 628.3372,-246.505 610.8754,-105.703 599.2778,-45.9815"/>
<polygon fill="#000000" stroke="#000000" points="602.6973,-45.2332 597.2729,-36.1323 595.838,-46.6295 602.6973,-45.2332"/>
<g id="a_edge5&#45;headlabel"><a xlink:href="dir_000029_000027.html" target="_top" xlink:title="1">
<text text-anchor="middle" x="606.1965" y="-45.6893" font-family="Helvetica,sans-Serif" font-size="10.00" fill="#000000">1</text>
</a>
</g>
</g>
<!-- dir_652267079d823ee01f6c6cf98db9085b&#45;&gt;dir_f6a0a87962fcbf90fc709c1bf5ba5a00 -->
<g id="edge6" class="edge">
<title>dir_652267079d823ee01f6c6cf98db9085b&#45;&gt;dir_f6a0a87962fcbf90fc709c1bf5ba5a00</title>
<path fill="none" stroke="#000000" d="M356.4848,-363.4297C393.7003,-350.3589 447.7879,-331.3623 483.4186,-318.8481"/>
<polygon fill="#000000" stroke="#000000" points="484.6743,-322.1168 492.9494,-315.5007 482.3546,-315.5123 484.6743,-322.1168"/>
<g id="a_edge6&#45;headlabel"><a xlink:href="dir_000029_000026.html" target="_top" xlink:title="2">
<text text-anchor="middle" x="482.2236" y="-323.4867" font-family="Helvetica,sans-Serif" font-size="10.00" fill="#000000">2</text>
</a>
</g>
</g>
<!-- dir_652267079d823ee01f6c6cf98db9085b&#45;&gt;dir_6bc97c5ccce2964f7b25f8377ac95818 -->
<g id="edge7" class="edge">
<title>dir_652267079d823ee01f6c6cf98db9085b&#45;&gt;dir_6bc97c5ccce2964f7b25f8377ac95818</title>
<path fill="none" stroke="#000000" d="M325.1321,-359.7623C339.0176,-334.7682 364.0598,-289.6924 380.0884,-260.8409"/>
<polygon fill="#000000" stroke="#000000" points="383.1533,-262.531 384.9502,-252.0896 377.0342,-259.1314 383.1533,-262.531"/>
<g id="a_edge7&#45;headlabel"><a xlink:href="dir_000029_000031.html" target="_top" xlink:title="4">
<text text-anchor="middle" x="383.8896" y="-264.5521" font-family="Helvetica,sans-Serif" font-size="10.00" fill="#000000">4</text>
</a>
</g>
</g>
<!-- dir_652267079d823ee01f6c6cf98db9085b&#45;&gt;dir_06113b60808b1bbb52a01dfd2c3a8657 -->
<g id="edge8" class="edge">
<title>dir_652267079d823ee01f6c6cf98db9085b&#45;&gt;dir_06113b60808b1bbb52a01dfd2c3a8657</title>
<path fill="none" stroke="#000000" d="M273.8351,-363.4297C245.6261,-352.4652 208.4594,-337.3307 180.2395,-325.3508"/>
<polygon fill="#000000" stroke="#000000" points="181.6091,-322.1299 171.0381,-321.4196 178.8589,-328.5671 181.6091,-322.1299"/>
<g id="a_edge8&#45;headlabel"><a xlink:href="dir_000029_000014.html" target="_top" xlink:title="2">
<text text-anchor="middle" x="186.0302" y="-318.4312" font-family="Helvetica,sans-Serif" font-size="10.00" fill="#000000">2</text>
</a>
</g>
</g>
<!-- dir_652267079d823ee01f6c6cf98db9085b&#45;&gt;dir_d0f3276f03e9a9cb8f8ba3f2a5ea1262 -->
<g id="edge9" class="edge">
<title>dir_652267079d823ee01f6c6cf98db9085b&#45;&gt;dir_d0f3276f03e9a9cb8f8ba3f2a5ea1262</title>
<path fill="none" stroke="#000000" d="M318.4186,-396.4133C318.0841,-404.1442 317.0208,-413.3097 315.5142,-421.8545"/>
<polygon fill="#000000" stroke="#000000" points="312.0485,-421.3331 313.4758,-431.8314 318.9068,-422.7344 312.0485,-421.3331"/>
<g id="a_edge9&#45;headlabel"><a xlink:href="dir_000029_000011.html" target="_top" xlink:title="2">
<text text-anchor="middle" x="309.9862" y="-414.7429" font-family="Helvetica,sans-Serif" font-size="10.00" fill="#000000">2</text>
</a>
</g>
</g>
<!-- dir_652267079d823ee01f6c6cf98db9085b&#45;&gt;dir_909774b1a000bf73b2cf501716b773f3 -->
<g id="edge10" class="edge">
<title>dir_652267079d823ee01f6c6cf98db9085b&#45;&gt;dir_909774b1a000bf73b2cf501716b773f3</title>
<path fill="none" stroke="#000000" d="M317.0049,-359.9555C321.1873,-322.3144 330.8681,-235.1867 335.875,-190.1246"/>
<polygon fill="#000000" stroke="#000000" points="339.3581,-190.4704 336.9839,-180.1451 332.4009,-189.6974 339.3581,-190.4704"/>
<g id="a_edge10&#45;headlabel"><a xlink:href="dir_000029_000025.html" target="_top" xlink:title="2">
<text text-anchor="middle" x="341.7831" y="-191.8566" font-family="Helvetica,sans-Serif" font-size="10.00" fill="#000000">2</text>
</a>
</g>
</g>
<!-- dir_8efb2e226a329d96dc3bcfc9eaf1a998&#45;&gt;dir_a2f0e5642e47e7ed59fe0f0829eafb5f -->
<g id="edge11" class="edge">
<title>dir_8efb2e226a329d96dc3bcfc9eaf1a998&#45;&gt;dir_a2f0e5642e47e7ed59fe0f0829eafb5f</title>
<path fill="none" stroke="#000000" d="M472.9156,-77.3164C468.3247,-75.3963 463.5657,-73.5442 459,-72 395.3421,-50.4691 318.7123,-33.786 274.1598,-24.9639"/>
<polygon fill="#000000" stroke="#000000" points="274.572,-21.4783 264.0863,-22.9953 273.2293,-28.3484 274.572,-21.4783"/>
<g id="a_edge11&#45;headlabel"><a xlink:href="dir_000032_000001.html" target="_top" xlink:title="4">
<text text-anchor="middle" x="278.6444" y="-16.8812" font-family="Helvetica,sans-Serif" font-size="10.00" fill="#000000">4</text>
</a>
</g>
</g>
<!-- dir_8efb2e226a329d96dc3bcfc9eaf1a998&#45;&gt;dir_745a441f70a5ddf403f2f793490dcc6d -->
<g id="edge12" class="edge">
<title>dir_8efb2e226a329d96dc3bcfc9eaf1a998&#45;&gt;dir_745a441f70a5ddf403f2f793490dcc6d</title>
<path fill="none" stroke="#000000" d="M523.4678,-71.8314C535.0327,-62.8779 549.1404,-51.9558 561.6183,-42.2955"/>
<polygon fill="#000000" stroke="#000000" points="563.775,-45.0521 569.5397,-36.1628 559.4898,-39.5171 563.775,-45.0521"/>
<g id="a_edge12&#45;headlabel"><a xlink:href="dir_000032_000027.html" target="_top" xlink:title="2">
<text text-anchor="middle" x="562.6708" y="-46.9977" font-family="Helvetica,sans-Serif" font-size="10.00" fill="#000000">2</text>
</a>
</g>
</g>
<!-- dir_f6a0a87962fcbf90fc709c1bf5ba5a00&#45;&gt;dir_a2f0e5642e47e7ed59fe0f0829eafb5f -->
<g id="edge23" class="edge">
<title>dir_f6a0a87962fcbf90fc709c1bf5ba5a00&#45;&gt;dir_a2f0e5642e47e7ed59fe0f0829eafb5f</title>
<path fill="none" stroke="#000000" d="M510.5183,-287.9061C487.4524,-245.3436 424.4985,-137.5422 346,-72 324.5358,-54.0785 296.1163,-40.25 273.6781,-31.0747"/>
<polygon fill="#000000" stroke="#000000" points="274.738,-27.7303 264.1516,-27.3089 272.1647,-34.2401 274.738,-27.7303"/>
<g id="a_edge23&#45;headlabel"><a xlink:href="dir_000026_000001.html" target="_top" xlink:title="6">
<text text-anchor="middle" x="279.1247" y="-23.9112" font-family="Helvetica,sans-Serif" font-size="10.00" fill="#000000">6</text>
</a>
</g>
</g>
<!-- dir_f6a0a87962fcbf90fc709c1bf5ba5a00&#45;&gt;dir_745a441f70a5ddf403f2f793490dcc6d -->
<g id="edge24" class="edge">
<title>dir_f6a0a87962fcbf90fc709c1bf5ba5a00&#45;&gt;dir_745a441f70a5ddf403f2f793490dcc6d</title>
<path fill="none" stroke="#000000" d="M524.5665,-287.9843C536.9081,-239.2939 570.9996,-104.7961 585.8883,-46.0573"/>
<polygon fill="#000000" stroke="#000000" points="589.3709,-46.5623 588.4352,-36.0089 582.5854,-44.8424 589.3709,-46.5623"/>
<g id="a_edge24&#45;headlabel"><a xlink:href="dir_000026_000027.html" target="_top" xlink:title="1">
<text text-anchor="middle" x="591.24" y="-48.2443" font-family="Helvetica,sans-Serif" font-size="10.00" fill="#000000">1</text>
</a>
</g>
</g>
<!-- dir_f6a0a87962fcbf90fc709c1bf5ba5a00&#45;&gt;dir_6bc97c5ccce2964f7b25f8377ac95818 -->
<g id="edge25" class="edge">
<title>dir_f6a0a87962fcbf90fc709c1bf5ba5a00&#45;&gt;dir_6bc97c5ccce2964f7b25f8377ac95818</title>
<path fill="none" stroke="#000000" d="M492.8769,-290.3771C476.0165,-280.6655 454.0345,-268.0039 435.175,-257.1408"/>
<polygon fill="#000000" stroke="#000000" points="436.8945,-254.0922 426.4822,-252.1338 433.4006,-260.1579 436.8945,-254.0922"/>
<g id="a_edge25&#45;headlabel"><a xlink:href="dir_000026_000031.html" target="_top" xlink:title="2">
<text text-anchor="middle" x="441.4265" y="-250.926" font-family="Helvetica,sans-Serif" font-size="10.00" fill="#000000">2</text>
</a>
</g>
</g>
<!-- dir_6bc97c5ccce2964f7b25f8377ac95818&#45;&gt;dir_8efb2e226a329d96dc3bcfc9eaf1a998 -->
<g id="edge26" class="edge">
<title>dir_6bc97c5ccce2964f7b25f8377ac95818&#45;&gt;dir_8efb2e226a329d96dc3bcfc9eaf1a998</title>
<path fill="none" stroke="#000000" d="M408.2983,-215.7623C426.6021,-190.66 459.6758,-145.3017 480.7011,-116.4671"/>
<polygon fill="#000000" stroke="#000000" points="483.7459,-118.2318 486.8097,-108.0896 478.0899,-114.1076 483.7459,-118.2318"/>
<g id="a_edge26&#45;headlabel"><a xlink:href="dir_000031_000032.html" target="_top" xlink:title="1">
<text text-anchor="middle" x="483.9223" y="-120.3091" font-family="Helvetica,sans-Serif" font-size="10.00" fill="#000000">1</text>
</a>
</g>
</g>
<!-- dir_6bc97c5ccce2964f7b25f8377ac95818&#45;&gt;dir_a2f0e5642e47e7ed59fe0f0829eafb5f -->
<g id="edge27" class="edge">
<title>dir_6bc97c5ccce2964f7b25f8377ac95818&#45;&gt;dir_a2f0e5642e47e7ed59fe0f0829eafb5f</title>
<path fill="none" stroke="#000000" d="M394.2457,-215.6731C392.7766,-196.6808 388.484,-166.6589 376,-144 351.4,-99.3503 304.9235,-62.1994 272.5155,-40.0675"/>
<polygon fill="#000000" stroke="#000000" points="274.4482,-37.1495 264.1901,-34.4995 270.5566,-42.9681 274.4482,-37.1495"/>
<g id="a_edge27&#45;headlabel"><a xlink:href="dir_000031_000001.html" target="_top" xlink:title="18">
<text text-anchor="middle" x="279.0145" y="-34.2877" font-family="Helvetica,sans-Serif" font-size="10.00" fill="#000000">18</text>
</a>
</g>
</g>
<!-- dir_6bc97c5ccce2964f7b25f8377ac95818&#45;&gt;dir_909774b1a000bf73b2cf501716b773f3 -->
<g id="edge28" class="edge">
<title>dir_6bc97c5ccce2964f7b25f8377ac95818&#45;&gt;dir_909774b1a000bf73b2cf501716b773f3</title>
<path fill="none" stroke="#000000" d="M374.9164,-215.8314C367.7324,-207.6232 359.8632,-197.7606 353.2447,-188.7323"/>
<polygon fill="#000000" stroke="#000000" points="355.985,-186.5459 347.3454,-180.4133 350.2749,-190.5951 355.985,-186.5459"/>
<g id="a_edge28&#45;headlabel"><a xlink:href="dir_000031_000025.html" target="_top" xlink:title="1">
<text text-anchor="middle" x="360.3803" y="-185.3357" font-family="Helvetica,sans-Serif" font-size="10.00" fill="#000000">1</text>
</a>
</g>
</g>
<!-- dir_06113b60808b1bbb52a01dfd2c3a8657&#45;&gt;dir_b3c92c43cc8feb1052f624d79df8b6af -->
<g id="edge29" class="edge">
<title>dir_06113b60808b1bbb52a01dfd2c3a8657&#45;&gt;dir_b3c92c43cc8feb1052f624d79df8b6af</title>
<path fill="none" stroke="#000000" d="M140.6445,-324.0202C143.0297,-343.0284 148.724,-373.3115 162,-396 186.5702,-437.9899 229.1601,-474.9421 259.3105,-497.7913"/>
<polygon fill="#000000" stroke="#000000" points="257.3471,-500.693 267.4592,-503.8545 261.5257,-495.077 257.3471,-500.693"/>
<g id="a_edge29&#45;headlabel"><a xlink:href="dir_000014_000024.html" target="_top" xlink:title="5">
<text text-anchor="middle" x="252.7683" y="-498.3251" font-family="Helvetica,sans-Serif" font-size="10.00" fill="#000000">5</text>
</a>
</g>
</g>
<!-- dir_06113b60808b1bbb52a01dfd2c3a8657&#45;&gt;dir_652267079d823ee01f6c6cf98db9085b -->
<g id="edge30" class="edge">
<title>dir_06113b60808b1bbb52a01dfd2c3a8657&#45;&gt;dir_652267079d823ee01f6c6cf98db9085b</title>
<path fill="none" stroke="#000000" d="M171.1439,-317.0898C197.9874,-327.3615 236.4891,-342.9411 266.9557,-355.7722"/>
<polygon fill="#000000" stroke="#000000" points="265.967,-359.1544 276.5402,-359.8314 268.6969,-352.7086 265.967,-359.1544"/>
<g id="a_edge30&#45;headlabel"><a xlink:href="dir_000014_000029.html" target="_top" xlink:title="2">
<text text-anchor="middle" x="261.5497" y="-357.8671" font-family="Helvetica,sans-Serif" font-size="10.00" fill="#000000">2</text>
</a>
</g>
</g>
<!-- dir_06113b60808b1bbb52a01dfd2c3a8657&#45;&gt;dir_a2f0e5642e47e7ed59fe0f0829eafb5f -->
<g id="edge31" class="edge">
<title>dir_06113b60808b1bbb52a01dfd2c3a8657&#45;&gt;dir_a2f0e5642e47e7ed59fe0f0829eafb5f</title>
<path fill="none" stroke="#000000" d="M139.1479,-287.849C140.1846,-246.9503 146.7389,-145.4354 185,-72 190.535,-61.3765 198.8116,-51.4119 207.1429,-43.0055"/>
<polygon fill="#000000" stroke="#000000" points="209.6117,-45.4873 214.4109,-36.0418 204.7689,-40.4329 209.6117,-45.4873"/>
<g id="a_edge31&#45;headlabel"><a xlink:href="dir_000014_000001.html" target="_top" xlink:title="15">
<text text-anchor="middle" x="208.9804" y="-47.5243" font-family="Helvetica,sans-Serif" font-size="10.00" fill="#000000">15</text>
</a>
</g>
</g>
<!-- dir_06113b60808b1bbb52a01dfd2c3a8657&#45;&gt;dir_d0f3276f03e9a9cb8f8ba3f2a5ea1262 -->
<g id="edge32" class="edge">
<title>dir_06113b60808b1bbb52a01dfd2c3a8657&#45;&gt;dir_d0f3276f03e9a9cb8f8ba3f2a5ea1262</title>
<path fill="none" stroke="#000000" d="M153.0213,-324.3299C164.2533,-344.1677 180.6371,-375.6825 203,-396 219.2828,-410.7935 240.3557,-422.4059 259.1785,-431.0096"/>
<polygon fill="#000000" stroke="#000000" points="257.9298,-434.2841 268.4922,-435.1136 260.7525,-427.8784 257.9298,-434.2841"/>
<g id="a_edge32&#45;headlabel"><a xlink:href="dir_000014_000011.html" target="_top" xlink:title="2">
<text text-anchor="middle" x="253.4956" y="-432.9329" font-family="Helvetica,sans-Serif" font-size="10.00" fill="#000000">2</text>
</a>
</g>
</g>
<!-- dir_d0f3276f03e9a9cb8f8ba3f2a5ea1262&#45;&gt;dir_652267079d823ee01f6c6cf98db9085b -->
<g id="edge33" class="edge">
<title>dir_d0f3276f03e9a9cb8f8ba3f2a5ea1262&#45;&gt;dir_652267079d823ee01f6c6cf98db9085b</title>
<path fill="none" stroke="#000000" d="M301.571,-431.8314C301.8901,-424.131 302.941,-414.9743 304.4382,-406.4166"/>
<polygon fill="#000000" stroke="#000000" points="307.9094,-406.9094 306.4666,-396.4133 301.049,-405.5182 307.9094,-406.9094"/>
<g id="a_edge33&#45;headlabel"><a xlink:href="dir_000011_000029.html" target="_top" xlink:title="6">
<text text-anchor="middle" x="309.9778" y="-408.4965" font-family="Helvetica,sans-Serif" font-size="10.00" fill="#000000">6</text>
</a>
</g>
</g>
<!-- dir_d0f3276f03e9a9cb8f8ba3f2a5ea1262&#45;&gt;dir_a2f0e5642e47e7ed59fe0f0829eafb5f -->
<g id="edge34" class="edge">
<title>dir_d0f3276f03e9a9cb8f8ba3f2a5ea1262&#45;&gt;dir_a2f0e5642e47e7ed59fe0f0829eafb5f</title>
<path fill="none" stroke="#000000" d="M286.1789,-431.8392C276.7364,-421.938 265.7011,-409.0617 258,-396 219.0822,-329.9924 199,-310.6264 199,-234 199,-234 199,-234 199,-162 199,-120.3681 214.0328,-74.14 225.1881,-45.567"/>
<polygon fill="#000000" stroke="#000000" points="228.4578,-46.817 228.9412,-36.2332 221.9632,-44.2055 228.4578,-46.817"/>
<g id="a_edge34&#45;headlabel"><a xlink:href="dir_000011_000001.html" target="_top" xlink:title="14">
<text text-anchor="middle" x="229.7511" y="-48.7113" font-family="Helvetica,sans-Serif" font-size="10.00" fill="#000000">14</text>
</a>
</g>
</g>
<!-- dir_d0f3276f03e9a9cb8f8ba3f2a5ea1262&#45;&gt;dir_f6a0a87962fcbf90fc709c1bf5ba5a00 -->
<g id="edge35" class="edge">
<title>dir_d0f3276f03e9a9cb8f8ba3f2a5ea1262&#45;&gt;dir_f6a0a87962fcbf90fc709c1bf5ba5a00</title>
<path fill="none" stroke="#000000" d="M339.8797,-431.8555C358.3951,-421.8584 381.3253,-408.889 401,-396 432.3993,-375.4302 466.382,-349.3091 489.9619,-330.5128"/>
<polygon fill="#000000" stroke="#000000" points="492.2344,-333.1769 497.8473,-324.1909 487.8558,-327.7154 492.2344,-333.1769"/>
<g id="a_edge35&#45;headlabel"><a xlink:href="dir_000011_000026.html" target="_top" xlink:title="3">
<text text-anchor="middle" x="491.2059" y="-335.1406" font-family="Helvetica,sans-Serif" font-size="10.00" fill="#000000">3</text>
</a>
</g>
</g>
<!-- dir_d0f3276f03e9a9cb8f8ba3f2a5ea1262&#45;&gt;dir_6bc97c5ccce2964f7b25f8377ac95818 -->
<g id="edge36" class="edge">
<title>dir_d0f3276f03e9a9cb8f8ba3f2a5ea1262&#45;&gt;dir_6bc97c5ccce2964f7b25f8377ac95818</title>
<path fill="none" stroke="#000000" d="M332.0791,-431.9398C343.9922,-422.6005 357.0562,-410.1834 365,-396 388.7108,-353.6651 394.1707,-296.3005 395.1562,-262.4153"/>
<polygon fill="#000000" stroke="#000000" points="398.6579,-262.3481 395.3364,-252.2874 391.659,-262.2235 398.6579,-262.3481"/>
<g id="a_edge36&#45;headlabel"><a xlink:href="dir_000011_000031.html" target="_top" xlink:title="2">
<text text-anchor="middle" x="401.4328" y="-263.4926" font-family="Helvetica,sans-Serif" font-size="10.00" fill="#000000">2</text>
</a>
</g>
</g>
<!-- dir_d0f3276f03e9a9cb8f8ba3f2a5ea1262&#45;&gt;dir_06113b60808b1bbb52a01dfd2c3a8657 -->
<g id="edge37" class="edge">
<title>dir_d0f3276f03e9a9cb8f8ba3f2a5ea1262&#45;&gt;dir_06113b60808b1bbb52a01dfd2c3a8657</title>
<path fill="none" stroke="#000000" d="M268.4562,-440.9246C242.585,-432.3414 208.7129,-417.5441 185,-396 165.9566,-378.6984 151.249,-353.2769 143.3425,-333.8609"/>
<polygon fill="#000000" stroke="#000000" points="146.5747,-332.5095 139.8409,-324.3299 140.0041,-334.9235 146.5747,-332.5095"/>
<g id="a_edge37&#45;headlabel"><a xlink:href="dir_000011_000014.html" target="_top" xlink:title="3">
<text text-anchor="middle" x="150.4794" y="-332.4045" font-family="Helvetica,sans-Serif" font-size="10.00" fill="#000000">3</text>
</a>
</g>
</g>
<!-- dir_d0f3276f03e9a9cb8f8ba3f2a5ea1262&#45;&gt;dir_909774b1a000bf73b2cf501716b773f3 -->
<g id="edge38" class="edge">
<title>dir_d0f3276f03e9a9cb8f8ba3f2a5ea1262&#45;&gt;dir_909774b1a000bf73b2cf501716b773f3</title>
<path fill="none" stroke="#000000" d="M286.8424,-431.7286C278.451,-421.9911 269.3877,-409.2949 265,-396 259.9856,-380.8061 262.1539,-375.7448 265,-360 276.4751,-296.5182 307.0842,-226.8564 325.1384,-189.4359"/>
<polygon fill="#000000" stroke="#000000" points="328.4043,-190.7246 329.6551,-180.2038 322.1165,-187.6483 328.4043,-190.7246"/>
<g id="a_edge38&#45;headlabel"><a xlink:href="dir_000011_000025.html" target="_top" xlink:title="6">
<text text-anchor="middle" x="329.3751" y="-192.7012" font-family="Helvetica,sans-Serif" font-size="10.00" fill="#000000">6</text>
</a>
</g>
</g>
<!-- dir_909774b1a000bf73b2cf501716b773f3&#45;&gt;dir_8efb2e226a329d96dc3bcfc9eaf1a998 -->
<g id="edge39" class="edge">
<title>dir_909774b1a000bf73b2cf501716b773f3&#45;&gt;dir_8efb2e226a329d96dc3bcfc9eaf1a998</title>
<path fill="none" stroke="#000000" d="M367.0441,-149.4586C393.7552,-137.5132 434.1143,-119.4644 463.3582,-106.3864"/>
<polygon fill="#000000" stroke="#000000" points="465.1139,-109.4354 472.8138,-102.1578 462.2561,-103.0452 465.1139,-109.4354"/>
<g id="a_edge39&#45;headlabel"><a xlink:href="dir_000025_000032.html" target="_top" xlink:title="10">
<text text-anchor="middle" x="462.9915" y="-110.9947" font-family="Helvetica,sans-Serif" font-size="10.00" fill="#000000">10</text>
</a>
</g>
</g>
<!-- dir_909774b1a000bf73b2cf501716b773f3&#45;&gt;dir_a2f0e5642e47e7ed59fe0f0829eafb5f -->
<g id="edge40" class="edge">
<title>dir_909774b1a000bf73b2cf501716b773f3&#45;&gt;dir_a2f0e5642e47e7ed59fe0f0829eafb5f</title>
<path fill="none" stroke="#000000" d="M326.0816,-143.7623C308.3009,-118.66 276.172,-73.3017 255.7475,-44.4671"/>
<polygon fill="#000000" stroke="#000000" points="258.4498,-42.2268 249.8135,-36.0896 252.7376,-46.273 258.4498,-42.2268"/>
<g id="a_edge40&#45;headlabel"><a xlink:href="dir_000025_000001.html" target="_top" xlink:title="10">
<text text-anchor="middle" x="262.8444" y="-41.0189" font-family="Helvetica,sans-Serif" font-size="10.00" fill="#000000">10</text>
</a>
</g>
</g>
<!-- dir_909774b1a000bf73b2cf501716b773f3&#45;&gt;dir_6bc97c5ccce2964f7b25f8377ac95818 -->
<g id="edge41" class="edge">
<title>dir_909774b1a000bf73b2cf501716b773f3&#45;&gt;dir_6bc97c5ccce2964f7b25f8377ac95818</title>
<path fill="none" stroke="#000000" d="M359.2974,-180.4133C366.4948,-188.654 374.3583,-198.5245 380.9518,-207.536"/>
<polygon fill="#000000" stroke="#000000" points="378.1881,-209.6897 386.8212,-215.8314 383.9024,-205.6465 378.1881,-209.6897"/>
<g id="a_edge41&#45;headlabel"><a xlink:href="dir_000025_000031.html" target="_top" xlink:title="17">
<text text-anchor="middle" x="373.7942" y="-205.8952" font-family="Helvetica,sans-Serif" font-size="10.00" fill="#000000">17</text>
</a>
</g>
</g>
</g>
</svg>
        <g id="navigator" transform="translate(0 0)" fill="#404254">
                <rect fill="#f2f5e9" fill-opacity="0.5" stroke="#606060" stroke-width=".5" x="0" y="0" width="60" height="60"/>
                <use id="zoomplus" xlink:href="#zoomPlus" x="17" y="9" onmousedown="handleZoom(evt,'in')"/>
                <use id="zoomminus" xlink:href="#zoomMin" x="42" y="9" onmousedown="handleZoom(evt,'out')"/>
                <use id="reset" xlink:href="#resetDef" x="30" y="36" onmousedown="handleReset()"/>
                <g id="arrowUp" xlink:href="#dirArrow" transform="translate(30 24)" onmousedown="handlePan(0,-1)">
                  <use xlink:href="#rim" fill="#404040">
                        <set attributeName="fill" to="#808080" begin="arrowUp.mouseover" end="arrowUp.mouseout"/>
                  </use>
                  <path fill="none" stroke="white" stroke-width="1.5" d="M0,-3.0v7 M-2.5,-0.5L0,-3.0L2.5,-0.5"/>
                </g>
                <g id="arrowRight" xlink:href="#dirArrow" transform="rotate(90) translate(36 -43)" onmousedown="handlePan(1,0)">
                  <use xlink:href="#rim" fill="#404040">
                        <set attributeName="fill" to="#808080" begin="arrowRight.mouseover" end="arrowRight.mouseout"/>
                  </use>
                  <path fill="none" stroke="white" stroke-width="1.5" d="M0,-3.0v7 M-2.5,-0.5L0,-3.0L2.5,-0.5"/>
                </g>
                <g id="arrowDown" xlink:href="#dirArrow" transform="rotate(180) translate(-30 -48)" onmousedown="handlePan(0,1)">
                  <use xlink:href="#rim" fill="#404040">
                        <set attributeName="fill" to="#808080" begin="arrowDown.mouseover" end="arrowDown.mouseout"/>
                  </use>
                  <path fill="none" stroke="white" stroke-width="1.5" d="M0,-3.0v7 M-2.5,-0.5L0,-3.0L2.5,-0.5"/>
                </g>
                <g id="arrowLeft" xlink:href="#dirArrow" transform="rotate(270) translate(-36 17)" onmousedown="handlePan(-1,0)">
                  <use xlink:href="#rim" fill="#404040">
                        <set attributeName="fill" to="#808080" begin="arrowLeft.mouseover" end="arrowLeft.mouseout"/>
                  </use>
                  <path fill="none" stroke="white" stroke-width="1.5" d="M0,-3.0v7 M-2.5,-0.5L0,-3.0L2.5,-0.5"/>
                </g>
        </g>
        <svg viewBox="0 0 15 15" width="100%" height="30px" preserveAspectRatio="xMaxYMin meet">
         <g id="arrow_out" transform="scale(0.3 0.3)">
          <a xlink:href="dir_ac53bbf7aa3921b9bb37792f08d5cbd9_dep_org.svg" target="_base">
           <rect id="button" ry="5" rx="5" y="6" x="6" height="38" width="38"
                fill="#f2f5e9" fill-opacity="0.5" stroke="#606060" stroke-width="1.0"/>
           <path id="arrow"
             d="M 11.500037,31.436501 C 11.940474,20.09759 22.043105,11.32322 32.158766,21.979434 L 37.068811,17.246167 C 37.068811,17.246167 37.088388,32 37.088388,32 L 22.160133,31.978069 C 22.160133,31.978069 26.997745,27.140456 26.997745,27.140456 C 18.528582,18.264221 13.291696,25.230495 11.500037,31.436501 z"
             style="fill:#404040;"/>
          </a>
         </g>
        </svg>
</svg>
