<?xml version="1.0" encoding="UTF-8" standalone="no"?>
<!DOCTYPE svg PUBLIC "-//W3C//DTD SVG 1.1//EN"
 "http://www.w3.org/Graphics/SVG/1.1/DTD/svg11.dtd">
<!-- Generated by graphviz version 2.43.0 (0)
 -->
<!-- Title: /home/runner/work/Radium&#45;Engine/Radium&#45;Engine/src/Radium&#45;Engine/src/Engine/Renderer/Texture Pages: 1 -->
<svg width="136pt" height="151pt"
 viewBox="0.00 0.00 135.50 151.00" xmlns="http://www.w3.org/2000/svg" xmlns:xlink="http://www.w3.org/1999/xlink">
<g id="graph0" class="graph" transform="scale(1 1) rotate(0) translate(4 147)">
<title>/home/runner/work/Radium&#45;Engine/Radium&#45;Engine/src/Radium&#45;Engine/src/Engine/Renderer/Texture</title>
<polygon fill="white" stroke="transparent" points="-4,4 -4,-147 131.5,-147 131.5,4 -4,4"/>
<g id="clust1" class="cluster">
<title>clusterdir_54018506bb725509c19b38b6d9bcf0f6</title>
<g id="a_clust1"><a xlink:href="dir_54018506bb725509c19b38b6d9bcf0f6.html" target="_top" xlink:title="Renderer">
<polygon fill="#ddddee" stroke="black" points="28,-64 28,-135 98,-135 98,-64 28,-64"/>
<text text-anchor="middle" x="63" y="-123" font-family="Helvetica,sans-Serif" font-size="10.00">Renderer</text>
</a>
</g>
</g>
<!-- dir_8efb2e226a329d96dc3bcfc9eaf1a998 -->
<g id="node1" class="node">
<title>dir_8efb2e226a329d96dc3bcfc9eaf1a998</title>
<g id="a_node1"><a xlink:href="dir_8efb2e226a329d96dc3bcfc9eaf1a998.html" target="_top" xlink:title="Texture">
<polygon fill="#eeeeff" stroke="black" points="90,-108 36,-108 36,-72 90,-72 90,-108"/>
<text text-anchor="middle" x="63" y="-87.5" font-family="Helvetica,sans-Serif" font-size="10.00">Texture</text>
</a>
</g>
</g>
<!-- dir_a2f0e5642e47e7ed59fe0f0829eafb5f -->
<g id="node2" class="node">
<title>dir_a2f0e5642e47e7ed59fe0f0829eafb5f</title>
<g id="a_node2"><a xlink:href="dir_a2f0e5642e47e7ed59fe0f0829eafb5f.html" target="_top" xlink:title="Core">
<polygon fill="white" stroke="red" points="54,-36 0,-36 0,0 54,0 54,-36"/>
<text text-anchor="middle" x="27" y="-15.5" font-family="Helvetica,sans-Serif" font-size="10.00">Core</text>
</a>
</g>
</g>
<!-- dir_8efb2e226a329d96dc3bcfc9eaf1a998&#45;&gt;dir_a2f0e5642e47e7ed59fe0f0829eafb5f -->
<g id="edge1" class="edge">
<title>dir_8efb2e226a329d96dc3bcfc9eaf1a998&#45;&gt;dir_a2f0e5642e47e7ed59fe0f0829eafb5f</title>
<path fill="none" stroke="black" d="M54.1,-71.7C50,-63.73 45.05,-54.1 40.51,-45.26"/>
<polygon fill="black" stroke="black" points="43.48,-43.4 35.8,-36.1 37.26,-46.6 43.48,-43.4"/>
<g id="a_edge1&#45;headlabel"><a xlink:href="dir_000035_000004.html" target="_top" xlink:title="3">
<text text-anchor="middle" x="47.65" y="-42.79" font-family="Helvetica,sans-Serif" font-size="10.00">3</text>
</a>
</g>
</g>
<!-- dir_745a441f70a5ddf403f2f793490dcc6d -->
<g id="node3" class="node">
<title>dir_745a441f70a5ddf403f2f793490dcc6d</title>
<g id="a_node3"><a xlink:href="dir_745a441f70a5ddf403f2f793490dcc6d.html" target="_top" xlink:title="OpenGL">
<polygon fill="none" stroke="black" points="127.5,-36 72.5,-36 72.5,0 127.5,0 127.5,-36"/>
<text text-anchor="middle" x="100" y="-15.5" font-family="Helvetica,sans-Serif" font-size="10.00">OpenGL</text>
</a>
</g>
</g>
<!-- dir_8efb2e226a329d96dc3bcfc9eaf1a998&#45;&gt;dir_745a441f70a5ddf403f2f793490dcc6d -->
<g id="edge2" class="edge">
<title>dir_8efb2e226a329d96dc3bcfc9eaf1a998&#45;&gt;dir_745a441f70a5ddf403f2f793490dcc6d</title>
<path fill="none" stroke="black" d="M72.15,-71.7C76.4,-63.64 81.56,-53.89 86.27,-44.98"/>
<polygon fill="black" stroke="black" points="89.38,-46.58 90.96,-36.1 83.19,-43.31 89.38,-46.58"/>
<g id="a_edge2&#45;headlabel"><a xlink:href="dir_000035_000030.html" target="_top" xlink:title="2">
<text text-anchor="middle" x="90.21" y="-48.59" font-family="Helvetica,sans-Serif" font-size="10.00">2</text>
</a>
</g>
</g>
</g>
</svg>
