<?xml version="1.0" encoding="UTF-8" standalone="no"?>
<!DOCTYPE svg PUBLIC "-//W3C//DTD SVG 1.1//EN"
 "http://www.w3.org/Graphics/SVG/1.1/DTD/svg11.dtd">
<!-- Generated by graphviz version 2.43.0 (0)
 -->
<!-- Title: /home/runner/work/Radium&#45;Engine/Radium&#45;Engine/src/Radium&#45;Engine/src/Engine/ItemModel Pages: 1 -->
<svg width="126pt" height="295pt"
 viewBox="0.00 0.00 125.50 295.00" xmlns="http://www.w3.org/2000/svg" xmlns:xlink="http://www.w3.org/1999/xlink">
<g id="graph0" class="graph" transform="scale(1 1) rotate(0) translate(4 291)">
<title>/home/runner/work/Radium&#45;Engine/Radium&#45;Engine/src/Radium&#45;Engine/src/Engine/ItemModel</title>
<polygon fill="white" stroke="transparent" points="-4,4 -4,-291 121.5,-291 121.5,4 -4,4"/>
<g id="clust1" class="cluster">
<title>clusterdir_3072bc1f55ed1280fe4fbe6b21c78379</title>
<g id="a_clust1"><a xlink:href="dir_3072bc1f55ed1280fe4fbe6b21c78379.html" target="_top" xlink:title="Engine">
<polygon fill="#ddddee" stroke="black" points="8,-208 8,-279 94,-279 94,-208 8,-208"/>
<text text-anchor="middle" x="51" y="-267" font-family="Helvetica,sans-Serif" font-size="10.00">Engine</text>
</a>
</g>
</g>
<!-- dir_d3d507863844f6311a74cf28116d817e -->
<g id="node1" class="node">
<title>dir_d3d507863844f6311a74cf28116d817e</title>
<g id="a_node1"><a xlink:href="dir_d3d507863844f6311a74cf28116d817e.html" target="_top" xlink:title="ItemModel">
<polygon fill="#eeeeff" stroke="black" points="85.5,-252 16.5,-252 16.5,-216 85.5,-216 85.5,-252"/>
<text text-anchor="middle" x="51" y="-231.5" font-family="Helvetica,sans-Serif" font-size="10.00">ItemModel</text>
</a>
</g>
</g>
<!-- dir_a2f0e5642e47e7ed59fe0f0829eafb5f -->
<g id="node2" class="node">
<title>dir_a2f0e5642e47e7ed59fe0f0829eafb5f</title>
<g id="a_node2"><a xlink:href="dir_a2f0e5642e47e7ed59fe0f0829eafb5f.html" target="_top" xlink:title="Core">
<polygon fill="white" stroke="red" points="55,-36 1,-36 1,0 55,0 55,-36"/>
<text text-anchor="middle" x="28" y="-15.5" font-family="Helvetica,sans-Serif" font-size="10.00">Core</text>
</a>
</g>
</g>
<!-- dir_d3d507863844f6311a74cf28116d817e&#45;&gt;dir_a2f0e5642e47e7ed59fe0f0829eafb5f -->
<g id="edge1" class="edge">
<title>dir_d3d507863844f6311a74cf28116d817e&#45;&gt;dir_a2f0e5642e47e7ed59fe0f0829eafb5f</title>
<path fill="none" stroke="black" d="M32.4,-215.76C23.47,-206.2 13.71,-193.53 9,-180 -6.7,-134.91 6.75,-78.88 17.61,-46.21"/>
<polygon fill="black" stroke="black" points="21.02,-47.06 21.01,-36.47 14.41,-44.76 21.02,-47.06"/>
<g id="a_edge1&#45;headlabel"><a xlink:href="dir_000016_000004.html" target="_top" xlink:title="1">
<text text-anchor="middle" x="22.52" y="-48.89" font-family="Helvetica,sans-Serif" font-size="10.00">1</text>
</a>
</g>
</g>
<!-- dir_06113b60808b1bbb52a01dfd2c3a8657 -->
<g id="node3" class="node">
<title>dir_06113b60808b1bbb52a01dfd2c3a8657</title>
<g id="a_node3"><a xlink:href="dir_06113b60808b1bbb52a01dfd2c3a8657.html" target="_top" xlink:title="Managers">
<polygon fill="white" stroke="red" points="83.5,-180 18.5,-180 18.5,-144 83.5,-144 83.5,-180"/>
<text text-anchor="middle" x="51" y="-159.5" font-family="Helvetica,sans-Serif" font-size="10.00">Managers</text>
</a>
</g>
</g>
<!-- dir_d3d507863844f6311a74cf28116d817e&#45;&gt;dir_06113b60808b1bbb52a01dfd2c3a8657 -->
<g id="edge2" class="edge">
<title>dir_d3d507863844f6311a74cf28116d817e&#45;&gt;dir_06113b60808b1bbb52a01dfd2c3a8657</title>
<path fill="none" stroke="black" d="M51,-215.7C51,-207.98 51,-198.71 51,-190.11"/>
<polygon fill="black" stroke="black" points="54.5,-190.1 51,-180.1 47.5,-190.1 54.5,-190.1"/>
<g id="a_edge2&#45;headlabel"><a xlink:href="dir_000016_000017.html" target="_top" xlink:title="2">
<text text-anchor="middle" x="57.34" y="-191.2" font-family="Helvetica,sans-Serif" font-size="10.00">2</text>
</a>
</g>
</g>
<!-- dir_54018506bb725509c19b38b6d9bcf0f6 -->
<g id="node4" class="node">
<title>dir_54018506bb725509c19b38b6d9bcf0f6</title>
<g id="a_node4"><a xlink:href="dir_54018506bb725509c19b38b6d9bcf0f6.html" target="_top" xlink:title="Renderer">
<polygon fill="white" stroke="red" points="117.5,-108 56.5,-108 56.5,-72 117.5,-72 117.5,-108"/>
<text text-anchor="middle" x="87" y="-87.5" font-family="Helvetica,sans-Serif" font-size="10.00">Renderer</text>
</a>
</g>
</g>
<!-- dir_d3d507863844f6311a74cf28116d817e&#45;&gt;dir_54018506bb725509c19b38b6d9bcf0f6 -->
<g id="edge3" class="edge">
<title>dir_d3d507863844f6311a74cf28116d817e&#45;&gt;dir_54018506bb725509c19b38b6d9bcf0f6</title>
<path fill="none" stroke="black" d="M69.17,-215.68C77.88,-206.1 87.41,-193.43 92,-180 98.82,-160.05 96.96,-136.12 93.73,-118.1"/>
<polygon fill="black" stroke="black" points="97.15,-117.35 91.73,-108.25 90.29,-118.75 97.15,-117.35"/>
<g id="a_edge3&#45;headlabel"><a xlink:href="dir_000016_000024.html" target="_top" xlink:title="2">
<text text-anchor="middle" x="100.65" y="-117.81" font-family="Helvetica,sans-Serif" font-size="10.00">2</text>
</a>
</g>
</g>
<!-- dir_06113b60808b1bbb52a01dfd2c3a8657&#45;&gt;dir_a2f0e5642e47e7ed59fe0f0829eafb5f -->
<g id="edge4" class="edge">
<title>dir_06113b60808b1bbb52a01dfd2c3a8657&#45;&gt;dir_a2f0e5642e47e7ed59fe0f0829eafb5f</title>
<path fill="none" stroke="black" d="M48.23,-143.87C44.31,-119.67 37.1,-75.21 32.44,-46.39"/>
<polygon fill="black" stroke="black" points="35.84,-45.5 30.78,-36.19 28.93,-46.62 35.84,-45.5"/>
<g id="a_edge4&#45;headlabel"><a xlink:href="dir_000017_000004.html" target="_top" xlink:title="15">
<text text-anchor="middle" x="39.22" y="-46.1" font-family="Helvetica,sans-Serif" font-size="10.00">15</text>
</a>
</g>
</g>
<!-- dir_06113b60808b1bbb52a01dfd2c3a8657&#45;&gt;dir_54018506bb725509c19b38b6d9bcf0f6 -->
<g id="edge5" class="edge">
<title>dir_06113b60808b1bbb52a01dfd2c3a8657&#45;&gt;dir_54018506bb725509c19b38b6d9bcf0f6</title>
<path fill="none" stroke="black" d="M53.98,-143.7C57.29,-135.64 62.1,-125.89 67.09,-116.98"/>
<polygon fill="black" stroke="black" points="70.26,-118.5 72.31,-108.1 64.22,-114.95 70.26,-118.5"/>
<g id="a_edge5&#45;headlabel"><a xlink:href="dir_000017_000024.html" target="_top" xlink:title="9">
<text text-anchor="middle" x="70.89" y="-120.54" font-family="Helvetica,sans-Serif" font-size="10.00">9</text>
</a>
</g>
</g>
<!-- dir_54018506bb725509c19b38b6d9bcf0f6&#45;&gt;dir_a2f0e5642e47e7ed59fe0f0829eafb5f -->
<g id="edge6" class="edge">
<title>dir_54018506bb725509c19b38b6d9bcf0f6&#45;&gt;dir_a2f0e5642e47e7ed59fe0f0829eafb5f</title>
<path fill="none" stroke="black" d="M72.42,-71.7C65.34,-63.3 56.72,-53.07 48.95,-43.86"/>
<polygon fill="black" stroke="black" points="51.54,-41.49 42.42,-36.1 46.19,-46.01 51.54,-41.49"/>
<g id="a_edge6&#45;headlabel"><a xlink:href="dir_000024_000004.html" target="_top" xlink:title="85">
<text text-anchor="middle" x="56.03" y="-39.91" font-family="Helvetica,sans-Serif" font-size="10.00">85</text>
</a>
</g>
</g>
<!-- dir_54018506bb725509c19b38b6d9bcf0f6&#45;&gt;dir_06113b60808b1bbb52a01dfd2c3a8657 -->
<g id="edge7" class="edge">
<title>dir_54018506bb725509c19b38b6d9bcf0f6&#45;&gt;dir_06113b60808b1bbb52a01dfd2c3a8657</title>
<path fill="none" stroke="black" d="M84.1,-108.1C80.81,-116.13 76.02,-125.87 71.03,-134.8"/>
<polygon fill="black" stroke="black" points="67.85,-133.3 65.81,-143.7 73.89,-136.84 67.85,-133.3"/>
<g id="a_edge7&#45;headlabel"><a xlink:href="dir_000024_000017.html" target="_top" xlink:title="5">
<text text-anchor="middle" x="67.22" y="-126.26" font-family="Helvetica,sans-Serif" font-size="10.00">5</text>
</a>
</g>
</g>
</g>
</svg>
