<?xml version="1.0" encoding="UTF-8" standalone="no"?>
<!DOCTYPE svg PUBLIC "-//W3C//DTD SVG 1.1//EN"
 "http://www.w3.org/Graphics/SVG/1.1/DTD/svg11.dtd">
<!-- Generated by graphviz version 2.40.1 (20161225.0304)
 -->
<!-- Title: src Pages: 1 -->
<svg width="276pt" height="220pt"
 viewBox="0.00 0.00 276.00 220.00" xmlns="http://www.w3.org/2000/svg" xmlns:xlink="http://www.w3.org/1999/xlink">
<g id="graph0" class="graph" transform="scale(1 1) rotate(0) translate(4 216)">
<title>src</title>
<polygon fill="#ffffff" stroke="transparent" points="-4,4 -4,-216 272,-216 272,4 -4,4"/>
<g id="clust1" class="cluster">
<title>clusterdir_68267d1309a1af8e8297ef4c3efbcdba</title>
<g id="a_clust1"><a xlink:href="dir_68267d1309a1af8e8297ef4c3efbcdba.html" target="_top">
<polygon fill="#eeeeff" stroke="#000000" points="8,-8 8,-204 260,-204 260,-8 8,-8"/>
</a>
</g>
</g>
<!-- dir_68267d1309a1af8e8297ef4c3efbcdba -->
<g id="node1" class="node">
<title>dir_68267d1309a1af8e8297ef4c3efbcdba</title>
<text text-anchor="middle" x="203" y="-175.5" font-family="Helvetica,sans-Serif" font-size="10.00" fill="#000000">src</text>
</g>
<!-- dir_a2f0e5642e47e7ed59fe0f0829eafb5f -->
<g id="node2" class="node">
<title>dir_a2f0e5642e47e7ed59fe0f0829eafb5f</title>
<g id="a_node2"><a xlink:href="dir_a2f0e5642e47e7ed59fe0f0829eafb5f.html" target="_top" xlink:title="Core">
<polygon fill="#ffffff" stroke="#ff0000" points="126,-52 72,-52 72,-16 126,-16 126,-52"/>
<text text-anchor="middle" x="99" y="-31.5" font-family="Helvetica,sans-Serif" font-size="10.00" fill="#000000">Core</text>
</a>
</g>
</g>
<!-- dir_3072bc1f55ed1280fe4fbe6b21c78379 -->
<g id="node3" class="node">
<title>dir_3072bc1f55ed1280fe4fbe6b21c78379</title>
<g id="a_node3"><a xlink:href="dir_3072bc1f55ed1280fe4fbe6b21c78379.html" target="_top" xlink:title="Engine">
<polygon fill="#ffffff" stroke="#ff0000" points="90,-124 36,-124 36,-88 90,-88 90,-124"/>
<text text-anchor="middle" x="63" y="-103.5" font-family="Helvetica,sans-Serif" font-size="10.00" fill="#000000">Engine</text>
</a>
</g>
</g>
<!-- dir_3072bc1f55ed1280fe4fbe6b21c78379&#45;&gt;dir_a2f0e5642e47e7ed59fe0f0829eafb5f -->
<g id="edge6" class="edge">
<title>dir_3072bc1f55ed1280fe4fbe6b21c78379&#45;&gt;dir_a2f0e5642e47e7ed59fe0f0829eafb5f</title>
<path fill="none" stroke="#000000" d="M72.0843,-87.8314C76.0615,-79.8771 80.8155,-70.369 85.2139,-61.5723"/>
<polygon fill="#000000" stroke="#000000" points="88.4517,-62.9228 89.7934,-52.4133 82.1907,-59.7923 88.4517,-62.9228"/>
<g id="a_edge6&#45;headlabel"><a xlink:href="dir_000010_000001.html" target="_top" xlink:title="128">
<text text-anchor="middle" x="89.3837" y="-64.9077" font-family="Helvetica,sans-Serif" font-size="10.00" fill="#000000">128</text>
</a>
</g>
</g>
<!-- dir_cb59203ea3f84fc4d67c89730003fed4 -->
<g id="node4" class="node">
<title>dir_cb59203ea3f84fc4d67c89730003fed4</title>
<g id="a_node4"><a xlink:href="dir_cb59203ea3f84fc4d67c89730003fed4.html" target="_top" xlink:title="GuiBase">
<polygon fill="#ffffff" stroke="#ff0000" points="113.5,-196 56.5,-196 56.5,-160 113.5,-160 113.5,-196"/>
<text text-anchor="middle" x="85" y="-175.5" font-family="Helvetica,sans-Serif" font-size="10.00" fill="#000000">GuiBase</text>
</a>
</g>
</g>
<!-- dir_cb59203ea3f84fc4d67c89730003fed4&#45;&gt;dir_a2f0e5642e47e7ed59fe0f0829eafb5f -->
<g id="edge3" class="edge">
<title>dir_cb59203ea3f84fc4d67c89730003fed4&#45;&gt;dir_a2f0e5642e47e7ed59fe0f0829eafb5f</title>
<path fill="none" stroke="#000000" d="M57.0391,-159.862C45.446,-150.6621 33.2598,-138.3809 27,-124 20.6142,-109.3296 19.8446,-102.3108 27,-88 34.681,-72.638 49.0404,-60.5124 62.9269,-51.6761"/>
<polygon fill="#000000" stroke="#000000" points="65.0971,-54.4582 71.9091,-46.3435 61.5235,-48.439 65.0971,-54.4582"/>
<g id="a_edge3&#45;headlabel"><a xlink:href="dir_000034_000001.html" target="_top" xlink:title="64">
<text text-anchor="middle" x="63.4556" y="-56.2346" font-family="Helvetica,sans-Serif" font-size="10.00" fill="#000000">64</text>
</a>
</g>
</g>
<!-- dir_cb59203ea3f84fc4d67c89730003fed4&#45;&gt;dir_3072bc1f55ed1280fe4fbe6b21c78379 -->
<g id="edge4" class="edge">
<title>dir_cb59203ea3f84fc4d67c89730003fed4&#45;&gt;dir_3072bc1f55ed1280fe4fbe6b21c78379</title>
<path fill="none" stroke="#000000" d="M79.4485,-159.8314C77.0697,-152.0463 74.2362,-142.7729 71.5967,-134.1347"/>
<polygon fill="#000000" stroke="#000000" points="74.8958,-132.954 68.6263,-124.4133 68.2013,-134.9996 74.8958,-132.954"/>
<g id="a_edge4&#45;headlabel"><a xlink:href="dir_000034_000010.html" target="_top" xlink:title="68">
<text text-anchor="middle" x="78.6614" y="-133.062" font-family="Helvetica,sans-Serif" font-size="10.00" fill="#000000">68</text>
</a>
</g>
</g>
<!-- dir_fae119eb913a40fe8ed97cde8b98911e -->
<g id="node5" class="node">
<title>dir_fae119eb913a40fe8ed97cde8b98911e</title>
<g id="a_node5"><a xlink:href="dir_fae119eb913a40fe8ed97cde8b98911e.html" target="_top" xlink:title="IO">
<polygon fill="#ffffff" stroke="#ff0000" points="162,-124 108,-124 108,-88 162,-88 162,-124"/>
<text text-anchor="middle" x="135" y="-103.5" font-family="Helvetica,sans-Serif" font-size="10.00" fill="#000000">IO</text>
</a>
</g>
</g>
<!-- dir_cb59203ea3f84fc4d67c89730003fed4&#45;&gt;dir_fae119eb913a40fe8ed97cde8b98911e -->
<g id="edge2" class="edge">
<title>dir_cb59203ea3f84fc4d67c89730003fed4&#45;&gt;dir_fae119eb913a40fe8ed97cde8b98911e</title>
<path fill="none" stroke="#000000" d="M97.6171,-159.8314C103.3172,-151.6232 110.1663,-141.7606 116.4359,-132.7323"/>
<polygon fill="#000000" stroke="#000000" points="119.3838,-134.6234 122.213,-124.4133 113.6342,-130.6306 119.3838,-134.6234"/>
<g id="a_edge2&#45;headlabel"><a xlink:href="dir_000034_000044.html" target="_top" xlink:title="1">
<text text-anchor="middle" x="119.6656" y="-136.6954" font-family="Helvetica,sans-Serif" font-size="10.00" fill="#000000">1</text>
</a>
</g>
</g>
<!-- dir_1b07f77798358fd74e92420363fd4633 -->
<g id="node6" class="node">
<title>dir_1b07f77798358fd74e92420363fd4633</title>
<g id="a_node6"><a xlink:href="dir_1b07f77798358fd74e92420363fd4633.html" target="_top" xlink:title="PluginBase">
<polygon fill="#ffffff" stroke="#000000" points="251.5,-124 180.5,-124 180.5,-88 251.5,-88 251.5,-124"/>
<text text-anchor="middle" x="216" y="-103.5" font-family="Helvetica,sans-Serif" font-size="10.00" fill="#000000">PluginBase</text>
</a>
</g>
</g>
<!-- dir_cb59203ea3f84fc4d67c89730003fed4&#45;&gt;dir_1b07f77798358fd74e92420363fd4633 -->
<g id="edge5" class="edge">
<title>dir_cb59203ea3f84fc4d67c89730003fed4&#45;&gt;dir_1b07f77798358fd74e92420363fd4633</title>
<path fill="none" stroke="#000000" d="M113.7485,-162.1993C131.5138,-152.4352 154.612,-139.7399 174.3591,-128.8866"/>
<polygon fill="#000000" stroke="#000000" points="176.0873,-131.9306 183.165,-124.0467 172.7156,-125.7961 176.0873,-131.9306"/>
<g id="a_edge5&#45;headlabel"><a xlink:href="dir_000034_000049.html" target="_top" xlink:title="2">
<text text-anchor="middle" x="174.3047" y="-133.6502" font-family="Helvetica,sans-Serif" font-size="10.00" fill="#000000">2</text>
</a>
</g>
</g>
<!-- dir_fae119eb913a40fe8ed97cde8b98911e&#45;&gt;dir_a2f0e5642e47e7ed59fe0f0829eafb5f -->
<g id="edge1" class="edge">
<title>dir_fae119eb913a40fe8ed97cde8b98911e&#45;&gt;dir_a2f0e5642e47e7ed59fe0f0829eafb5f</title>
<path fill="none" stroke="#000000" d="M125.9157,-87.8314C121.9385,-79.8771 117.1845,-70.369 112.7861,-61.5723"/>
<polygon fill="#000000" stroke="#000000" points="115.8093,-59.7923 108.2066,-52.4133 109.5483,-62.9228 115.8093,-59.7923"/>
<g id="a_edge1&#45;headlabel"><a xlink:href="dir_000044_000001.html" target="_top" xlink:title="38">
<text text-anchor="middle" x="119.9563" y="-59.2377" font-family="Helvetica,sans-Serif" font-size="10.00" fill="#000000">38</text>
</a>
</g>
</g>
<!-- dir_1b07f77798358fd74e92420363fd4633&#45;&gt;dir_a2f0e5642e47e7ed59fe0f0829eafb5f -->
<g id="edge7" class="edge">
<title>dir_1b07f77798358fd74e92420363fd4633&#45;&gt;dir_a2f0e5642e47e7ed59fe0f0829eafb5f</title>
<path fill="none" stroke="#000000" d="M186.476,-87.8314C170.8255,-78.2003 151.4734,-66.2913 134.9535,-56.1252"/>
<polygon fill="#000000" stroke="#000000" points="136.4596,-52.9424 126.1086,-50.6822 132.7909,-58.9041 136.4596,-52.9424"/>
<g id="a_edge7&#45;headlabel"><a xlink:href="dir_000049_000001.html" target="_top" xlink:title="1">
<text text-anchor="middle" x="141.009" y="-49.9082" font-family="Helvetica,sans-Serif" font-size="10.00" fill="#000000">1</text>
</a>
</g>
</g>
</g>
</svg>
