<?xml version="1.0" encoding="UTF-8" standalone="no"?>
<!DOCTYPE svg PUBLIC "-//W3C//DTD SVG 1.1//EN"
 "http://www.w3.org/Graphics/SVG/1.1/DTD/svg11.dtd">
<!-- Generated by graphviz version 2.43.0 (0)
 -->
<!-- Title: /home/runner/work/Radium&#45;Engine/Radium&#45;Engine/src/Radium&#45;Engine/src/Engine/Managers/CameraManager Pages: 1 -->
<svg width="310pt" height="295pt"
 viewBox="0.00 0.00 309.70 295.00" xmlns="http://www.w3.org/2000/svg" xmlns:xlink="http://www.w3.org/1999/xlink">
<g id="graph0" class="graph" transform="scale(1 1) rotate(0) translate(4 291)">
<title>/home/runner/work/Radium&#45;Engine/Radium&#45;Engine/src/Radium&#45;Engine/src/Engine/Managers/CameraManager</title>
<polygon fill="white" stroke="transparent" points="-4,4 -4,-291 305.7,-291 305.7,4 -4,4"/>
<g id="clust1" class="cluster">
<title>clusterdir_06113b60808b1bbb52a01dfd2c3a8657</title>
<g id="a_clust1"><a xlink:href="dir_06113b60808b1bbb52a01dfd2c3a8657.html" target="_top" xlink:title="Managers">
<polygon fill="#ddddee" stroke="black" points="50.7,-208 50.7,-279 164.7,-279 164.7,-208 50.7,-208"/>
<text text-anchor="middle" x="107.7" y="-267" font-family="Helvetica,sans-Serif" font-size="10.00">Managers</text>
</a>
</g>
</g>
<!-- dir_9c9d2b16f43d35e4f1c4dc94ebe4380d -->
<g id="node1" class="node">
<title>dir_9c9d2b16f43d35e4f1c4dc94ebe4380d</title>
<g id="a_node1"><a xlink:href="dir_9c9d2b16f43d35e4f1c4dc94ebe4380d.html" target="_top" xlink:title="CameraManager">
<polygon fill="#eeeeff" stroke="black" points="156.7,-252 58.7,-252 58.7,-216 156.7,-216 156.7,-252"/>
<text text-anchor="middle" x="107.7" y="-231.5" font-family="Helvetica,sans-Serif" font-size="10.00">CameraManager</text>
</a>
</g>
</g>
<!-- dir_a2f0e5642e47e7ed59fe0f0829eafb5f -->
<g id="node2" class="node">
<title>dir_a2f0e5642e47e7ed59fe0f0829eafb5f</title>
<g id="a_node2"><a xlink:href="dir_a2f0e5642e47e7ed59fe0f0829eafb5f.html" target="_top" xlink:title="Core">
<polygon fill="white" stroke="red" points="119.7,-36 65.7,-36 65.7,0 119.7,0 119.7,-36"/>
<text text-anchor="middle" x="92.7" y="-15.5" font-family="Helvetica,sans-Serif" font-size="10.00">Core</text>
</a>
</g>
</g>
<!-- dir_9c9d2b16f43d35e4f1c4dc94ebe4380d&#45;&gt;dir_a2f0e5642e47e7ed59fe0f0829eafb5f -->
<g id="edge1" class="edge">
<title>dir_9c9d2b16f43d35e4f1c4dc94ebe4380d&#45;&gt;dir_a2f0e5642e47e7ed59fe0f0829eafb5f</title>
<path fill="none" stroke="black" d="M58.58,-218.9C39.54,-210.77 19.72,-198.4 8.7,-180 -19.69,-132.6 30.15,-74.65 64.42,-42.8"/>
<polygon fill="black" stroke="black" points="66.82,-45.35 71.89,-36.04 62.13,-40.16 66.82,-45.35"/>
<g id="a_edge1&#45;headlabel"><a xlink:href="dir_000018_000004.html" target="_top" xlink:title="4">
<text text-anchor="middle" x="66.07" y="-47.37" font-family="Helvetica,sans-Serif" font-size="10.00">4</text>
</a>
</g>
</g>
<!-- dir_7205f054df4e14abb60715afe3e7e90c -->
<g id="node3" class="node">
<title>dir_7205f054df4e14abb60715afe3e7e90c</title>
<g id="a_node3"><a xlink:href="dir_7205f054df4e14abb60715afe3e7e90c.html" target="_top" xlink:title="Entity">
<polygon fill="none" stroke="black" points="119.7,-108 65.7,-108 65.7,-72 119.7,-72 119.7,-108"/>
<text text-anchor="middle" x="92.7" y="-87.5" font-family="Helvetica,sans-Serif" font-size="10.00">Entity</text>
</a>
</g>
</g>
<!-- dir_9c9d2b16f43d35e4f1c4dc94ebe4380d&#45;&gt;dir_7205f054df4e14abb60715afe3e7e90c -->
<g id="edge2" class="edge">
<title>dir_9c9d2b16f43d35e4f1c4dc94ebe4380d&#45;&gt;dir_7205f054df4e14abb60715afe3e7e90c</title>
<path fill="none" stroke="black" d="M105.89,-215.87C103.33,-191.67 98.63,-147.21 95.59,-118.39"/>
<polygon fill="black" stroke="black" points="99.04,-117.77 94.51,-108.19 92.08,-118.5 99.04,-117.77"/>
<g id="a_edge2&#45;headlabel"><a xlink:href="dir_000018_000015.html" target="_top" xlink:title="1">
<text text-anchor="middle" x="102.24" y="-118.54" font-family="Helvetica,sans-Serif" font-size="10.00">1</text>
</a>
</g>
</g>
<!-- dir_eecdbbfa89a6d9af25d920c499e6f44e -->
<g id="node4" class="node">
<title>dir_eecdbbfa89a6d9af25d920c499e6f44e</title>
<g id="a_node4"><a xlink:href="dir_eecdbbfa89a6d9af25d920c499e6f44e.html" target="_top" xlink:title="System">
<polygon fill="none" stroke="black" points="189.7,-180 135.7,-180 135.7,-144 189.7,-144 189.7,-180"/>
<text text-anchor="middle" x="162.7" y="-159.5" font-family="Helvetica,sans-Serif" font-size="10.00">System</text>
</a>
</g>
</g>
<!-- dir_9c9d2b16f43d35e4f1c4dc94ebe4380d&#45;&gt;dir_eecdbbfa89a6d9af25d920c499e6f44e -->
<g id="edge3" class="edge">
<title>dir_9c9d2b16f43d35e4f1c4dc94ebe4380d&#45;&gt;dir_eecdbbfa89a6d9af25d920c499e6f44e</title>
<path fill="none" stroke="black" d="M121.29,-215.7C127.82,-207.39 135.76,-197.28 142.94,-188.14"/>
<polygon fill="black" stroke="black" points="145.83,-190.13 149.26,-180.1 140.33,-185.81 145.83,-190.13"/>
<g id="a_edge3&#45;headlabel"><a xlink:href="dir_000018_000036.html" target="_top" xlink:title="1">
<text text-anchor="middle" x="145.84" y="-192.21" font-family="Helvetica,sans-Serif" font-size="10.00">1</text>
</a>
</g>
</g>
<!-- dir_54018506bb725509c19b38b6d9bcf0f6 -->
<g id="node5" class="node">
<title>dir_54018506bb725509c19b38b6d9bcf0f6</title>
<g id="a_node5"><a xlink:href="dir_54018506bb725509c19b38b6d9bcf0f6.html" target="_top" xlink:title="Renderer">
<polygon fill="white" stroke="red" points="79.2,-180 18.2,-180 18.2,-144 79.2,-144 79.2,-180"/>
<text text-anchor="middle" x="48.7" y="-159.5" font-family="Helvetica,sans-Serif" font-size="10.00">Renderer</text>
</a>
</g>
</g>
<!-- dir_9c9d2b16f43d35e4f1c4dc94ebe4380d&#45;&gt;dir_54018506bb725509c19b38b6d9bcf0f6 -->
<g id="edge4" class="edge">
<title>dir_9c9d2b16f43d35e4f1c4dc94ebe4380d&#45;&gt;dir_54018506bb725509c19b38b6d9bcf0f6</title>
<path fill="none" stroke="black" d="M93.11,-215.7C86.04,-207.3 77.41,-197.07 69.65,-187.86"/>
<polygon fill="black" stroke="black" points="72.23,-185.49 63.11,-180.1 66.88,-190.01 72.23,-185.49"/>
<g id="a_edge4&#45;headlabel"><a xlink:href="dir_000018_000024.html" target="_top" xlink:title="2">
<text text-anchor="middle" x="76.72" y="-183.91" font-family="Helvetica,sans-Serif" font-size="10.00">2</text>
</a>
</g>
</g>
<!-- dir_f60fd3cff26f751d5a136115ec0dccfa -->
<g id="node6" class="node">
<title>dir_f60fd3cff26f751d5a136115ec0dccfa</title>
<g id="a_node6"><a xlink:href="dir_f60fd3cff26f751d5a136115ec0dccfa.html" target="_top" xlink:title="ComponentMessenger">
<polygon fill="none" stroke="black" points="301.7,-108 175.7,-108 175.7,-72 301.7,-72 301.7,-108"/>
<text text-anchor="middle" x="238.7" y="-87.5" font-family="Helvetica,sans-Serif" font-size="10.00">ComponentMessenger</text>
</a>
</g>
</g>
<!-- dir_9c9d2b16f43d35e4f1c4dc94ebe4380d&#45;&gt;dir_f60fd3cff26f751d5a136115ec0dccfa -->
<g id="edge5" class="edge">
<title>dir_9c9d2b16f43d35e4f1c4dc94ebe4380d&#45;&gt;dir_f60fd3cff26f751d5a136115ec0dccfa</title>
<path fill="none" stroke="black" d="M149.14,-215.77C166.21,-207.05 185.12,-195.08 198.7,-180 214.74,-162.18 225.27,-136.85 231.48,-117.77"/>
<polygon fill="black" stroke="black" points="234.84,-118.75 234.42,-108.17 228.15,-116.71 234.84,-118.75"/>
<g id="a_edge5&#45;headlabel"><a xlink:href="dir_000018_000019.html" target="_top" xlink:title="1">
<text text-anchor="middle" x="236.5" y="-120.52" font-family="Helvetica,sans-Serif" font-size="10.00">1</text>
</a>
</g>
</g>
<!-- dir_7205f054df4e14abb60715afe3e7e90c&#45;&gt;dir_a2f0e5642e47e7ed59fe0f0829eafb5f -->
<g id="edge6" class="edge">
<title>dir_7205f054df4e14abb60715afe3e7e90c&#45;&gt;dir_a2f0e5642e47e7ed59fe0f0829eafb5f</title>
<path fill="none" stroke="black" d="M92.7,-71.7C92.7,-63.98 92.7,-54.71 92.7,-46.11"/>
<polygon fill="black" stroke="black" points="96.2,-46.1 92.7,-36.1 89.2,-46.1 96.2,-46.1"/>
<g id="a_edge6&#45;headlabel"><a xlink:href="dir_000015_000004.html" target="_top" xlink:title="3">
<text text-anchor="middle" x="99.04" y="-47.2" font-family="Helvetica,sans-Serif" font-size="10.00">3</text>
</a>
</g>
</g>
<!-- dir_eecdbbfa89a6d9af25d920c499e6f44e&#45;&gt;dir_a2f0e5642e47e7ed59fe0f0829eafb5f -->
<g id="edge7" class="edge">
<title>dir_eecdbbfa89a6d9af25d920c499e6f44e&#45;&gt;dir_a2f0e5642e47e7ed59fe0f0829eafb5f</title>
<path fill="none" stroke="black" d="M157.43,-143.76C151.54,-125.45 141.17,-95.9 128.7,-72 123.81,-62.63 117.59,-52.92 111.7,-44.4"/>
<polygon fill="black" stroke="black" points="114.4,-42.16 105.76,-36.03 108.7,-46.21 114.4,-42.16"/>
<g id="a_edge7&#45;headlabel"><a xlink:href="dir_000036_000004.html" target="_top" xlink:title="4">
<text text-anchor="middle" x="118.8" y="-40.94" font-family="Helvetica,sans-Serif" font-size="10.00">4</text>
</a>
</g>
</g>
<!-- dir_eecdbbfa89a6d9af25d920c499e6f44e&#45;&gt;dir_7205f054df4e14abb60715afe3e7e90c -->
<g id="edge8" class="edge">
<title>dir_eecdbbfa89a6d9af25d920c499e6f44e&#45;&gt;dir_7205f054df4e14abb60715afe3e7e90c</title>
<path fill="none" stroke="black" d="M145.39,-143.7C136.83,-135.14 126.35,-124.66 117,-115.3"/>
<polygon fill="black" stroke="black" points="119.35,-112.7 109.8,-108.1 114.4,-117.65 119.35,-112.7"/>
<g id="a_edge8&#45;headlabel"><a xlink:href="dir_000036_000015.html" target="_top" xlink:title="2">
<text text-anchor="middle" x="123.9" y="-110.73" font-family="Helvetica,sans-Serif" font-size="10.00">2</text>
</a>
</g>
</g>
<!-- dir_eecdbbfa89a6d9af25d920c499e6f44e&#45;&gt;dir_f60fd3cff26f751d5a136115ec0dccfa -->
<g id="edge9" class="edge">
<title>dir_eecdbbfa89a6d9af25d920c499e6f44e&#45;&gt;dir_f60fd3cff26f751d5a136115ec0dccfa</title>
<path fill="none" stroke="black" d="M181.48,-143.7C190.87,-135.05 202.38,-124.45 212.61,-115.03"/>
<polygon fill="black" stroke="black" points="215.14,-117.45 220.13,-108.1 210.4,-112.3 215.14,-117.45"/>
<g id="a_edge9&#45;headlabel"><a xlink:href="dir_000036_000019.html" target="_top" xlink:title="1">
<text text-anchor="middle" x="214.42" y="-119.48" font-family="Helvetica,sans-Serif" font-size="10.00">1</text>
</a>
</g>
</g>
<!-- dir_54018506bb725509c19b38b6d9bcf0f6&#45;&gt;dir_a2f0e5642e47e7ed59fe0f0829eafb5f -->
<g id="edge10" class="edge">
<title>dir_54018506bb725509c19b38b6d9bcf0f6&#45;&gt;dir_a2f0e5642e47e7ed59fe0f0829eafb5f</title>
<path fill="none" stroke="black" d="M47.73,-143.73C47.27,-125.38 48.19,-95.81 56.7,-72 60.14,-62.36 65.76,-52.8 71.55,-44.51"/>
<polygon fill="black" stroke="black" points="74.43,-46.5 77.55,-36.38 68.8,-42.34 74.43,-46.5"/>
<g id="a_edge10&#45;headlabel"><a xlink:href="dir_000024_000004.html" target="_top" xlink:title="78">
<text text-anchor="middle" x="74.58" y="-48.58" font-family="Helvetica,sans-Serif" font-size="10.00">78</text>
</a>
</g>
</g>
<!-- dir_54018506bb725509c19b38b6d9bcf0f6&#45;&gt;dir_7205f054df4e14abb60715afe3e7e90c -->
<g id="edge11" class="edge">
<title>dir_54018506bb725509c19b38b6d9bcf0f6&#45;&gt;dir_7205f054df4e14abb60715afe3e7e90c</title>
<path fill="none" stroke="black" d="M59.57,-143.7C64.69,-135.56 70.89,-125.69 76.54,-116.7"/>
<polygon fill="black" stroke="black" points="79.59,-118.43 81.95,-108.1 73.66,-114.71 79.59,-118.43"/>
<g id="a_edge11&#45;headlabel"><a xlink:href="dir_000024_000015.html" target="_top" xlink:title="3">
<text text-anchor="middle" x="80.08" y="-120.49" font-family="Helvetica,sans-Serif" font-size="10.00">3</text>
</a>
</g>
</g>
<!-- dir_f60fd3cff26f751d5a136115ec0dccfa&#45;&gt;dir_a2f0e5642e47e7ed59fe0f0829eafb5f -->
<g id="edge12" class="edge">
<title>dir_f60fd3cff26f751d5a136115ec0dccfa&#45;&gt;dir_a2f0e5642e47e7ed59fe0f0829eafb5f</title>
<path fill="none" stroke="black" d="M202.98,-71.88C180.53,-61.11 151.64,-47.26 129.06,-36.43"/>
<polygon fill="black" stroke="black" points="130.34,-33.16 119.81,-32 127.31,-39.48 130.34,-33.16"/>
<g id="a_edge12&#45;headlabel"><a xlink:href="dir_000019_000004.html" target="_top" xlink:title="2">
<text text-anchor="middle" x="134.8" y="-29.66" font-family="Helvetica,sans-Serif" font-size="10.00">2</text>
</a>
</g>
</g>
</g>
</svg>
