<?xml version="1.0" encoding="UTF-8" standalone="no"?>
<!DOCTYPE svg PUBLIC "-//W3C//DTD SVG 1.1//EN"
 "http://www.w3.org/Graphics/SVG/1.1/DTD/svg11.dtd">
<!-- Generated by graphviz version 2.43.0 (0)
 -->
<!-- Title: /home/runner/work/Radium&#45;Engine/Radium&#45;Engine/src/Radium&#45;Engine/src/Engine/Renderer/Displayable/DisplayableObject.hpp Pages: 1 -->
<!--zoomable 486 -->
<svg id="main" version="1.1" xmlns="http://www.w3.org/2000/svg" xmlns:xlink="http://www.w3.org/1999/xlink" xml:space="preserve" onload="init(evt)">
<style type="text/css"><![CDATA[
.edge:hover path { stroke: red; }
.edge:hover polygon { stroke: red; fill: red; }
]]></style>
<script type="text/javascript"><![CDATA[
var edges = document.getElementsByTagName('g');
if (edges && edges.length) {
  for (var i=0;i<edges.length;i++) {
    if (edges[i].id.substr(0,4)=='edge') {
      edges[i].setAttribute('class','edge');
    }
  }
}
]]></script>
        <defs>
                <circle id="rim" cx="0" cy="0" r="7"/>
                <circle id="rim2" cx="0" cy="0" r="3.5"/>
                <g id="zoomPlus">
                        <use xlink:href="#rim" fill="#404040">
                                <set attributeName="fill" to="#808080" begin="zoomplus.mouseover" end="zoomplus.mouseout"/>
                        </use>
                        <path d="M-4,0h8M0,-4v8" fill="none" stroke="white" stroke-width="1.5" pointer-events="none"/>
                </g>
                <g id="zoomMin">
                        <use xlink:href="#rim" fill="#404040">
                                <set attributeName="fill" to="#808080" begin="zoomminus.mouseover" end="zoomminus.mouseout"/>
                        </use>
                        <path d="M-4,0h8" fill="none" stroke="white" stroke-width="1.5" pointer-events="none"/>
                </g>
                <g id="dirArrow">
                        <path fill="none" stroke="white" stroke-width="1.5" d="M0,-3.0v7 M-2.5,-0.5L0,-3.0L2.5,-0.5"/>
                </g>
               <g id="resetDef">
                       <use xlink:href="#rim2" fill="#404040">
                               <set attributeName="fill" to="#808080" begin="reset.mouseover" end="reset.mouseout"/>
                       </use>
               </g>
        </defs>

<script type="text/javascript">
var viewWidth = 2039;
var viewHeight = 486;
var sectionId = 'dynsection-0';
</script>
<script xlink:href="svgpan.js"/>
<svg id="graph" class="graph">
<g id="viewport">
<title>/home/runner/work/Radium&#45;Engine/Radium&#45;Engine/src/Radium&#45;Engine/src/Engine/Renderer/Displayable/DisplayableObject.hpp</title>
<polygon fill="white" stroke="transparent" points="-4,4 -4,-482 2034.79,-482 2034.79,4 -4,4"/>
<!-- Node1 -->
<g id="node1" class="node">
<title>Node1</title>
<g id="a_node1"><a xlink:title=" ">
<polygon fill="#bfbfbf" stroke="black" points="1112,-425.5 1112,-477.5 1350,-477.5 1350,-425.5 1112,-425.5"/>
<text text-anchor="start" x="1120" y="-465.5" font-family="Helvetica,sans-Serif" font-size="10.00">/home/runner/work/Radium</text>
<text text-anchor="start" x="1120" y="-454.5" font-family="Helvetica,sans-Serif" font-size="10.00">&#45;Engine/Radium&#45;Engine/src</text>
<text text-anchor="start" x="1120" y="-443.5" font-family="Helvetica,sans-Serif" font-size="10.00">/Radium&#45;Engine/src/Engine</text>
<text text-anchor="middle" x="1231" y="-432.5" font-family="Helvetica,sans-Serif" font-size="10.00">/Renderer/Displayable/DisplayableObject.hpp</text>
</a>
</g>
</g>
<!-- Node2 -->
<g id="node2" class="node">
<title>Node2</title>
<g id="a_node2"><a xlink:href="RaEngine_8hpp.html" target="_top" xlink:title=" ">
<polygon fill="white" stroke="black" points="165.5,-369.5 165.5,-388.5 284.5,-388.5 284.5,-369.5 165.5,-369.5"/>
<text text-anchor="middle" x="225" y="-376.5" font-family="Helvetica,sans-Serif" font-size="10.00">Engine/RaEngine.hpp</text>
</a>
</g>
</g>
<!-- Node1&#45;&gt;Node2 -->
<g id="edge1" class="edge">
<title>Node1&#45;&gt;Node2</title>
<path fill="none" stroke="midnightblue" d="M1111.65,-442.14C899.72,-427.28 464.1,-396.76 294.62,-384.88"/>
<polygon fill="midnightblue" stroke="midnightblue" points="294.79,-381.38 284.57,-384.17 294.3,-388.37 294.79,-381.38"/>
</g>
<!-- Node13 -->
<g id="node13" class="node">
<title>Node13</title>
<g id="a_node13"><a xlink:title=" ">
<polygon fill="white" stroke="#bfbfbf" points="1775,-369.5 1775,-388.5 1817,-388.5 1817,-369.5 1775,-369.5"/>
<text text-anchor="middle" x="1796" y="-376.5" font-family="Helvetica,sans-Serif" font-size="10.00">array</text>
</a>
</g>
</g>
<!-- Node1&#45;&gt;Node13 -->
<g id="edge12" class="edge">
<title>Node1&#45;&gt;Node13</title>
<path fill="none" stroke="midnightblue" d="M1350.1,-441.35C1457.97,-431.95 1620.97,-415 1761,-389 1762.25,-388.77 1763.52,-388.52 1764.8,-388.25"/>
<polygon fill="midnightblue" stroke="midnightblue" points="1765.67,-391.64 1774.63,-385.99 1764.1,-384.82 1765.67,-391.64"/>
</g>
<!-- Node14 -->
<g id="node14" class="node">
<title>Node14</title>
<g id="a_node14"><a xlink:title=" ">
<polygon fill="white" stroke="#bfbfbf" points="460,-174 460,-193 498,-193 498,-174 460,-174"/>
<text text-anchor="middle" x="479" y="-181" font-family="Helvetica,sans-Serif" font-size="10.00">map</text>
</a>
</g>
</g>
<!-- Node1&#45;&gt;Node14 -->
<g id="edge13" class="edge">
<title>Node1&#45;&gt;Node14</title>
<path fill="none" stroke="midnightblue" d="M1111.86,-438.25C921.95,-416.05 564.02,-362.27 486,-266 471.78,-248.46 472.53,-221.27 475.13,-203.18"/>
<polygon fill="midnightblue" stroke="midnightblue" points="478.59,-203.72 476.87,-193.26 471.69,-202.5 478.59,-203.72"/>
</g>
<!-- Node15 -->
<g id="node15" class="node">
<title>Node15</title>
<g id="a_node15"><a xlink:title=" ">
<polygon fill="white" stroke="#bfbfbf" points="1385.5,-112.5 1385.5,-131.5 1432.5,-131.5 1432.5,-112.5 1385.5,-112.5"/>
<text text-anchor="middle" x="1409" y="-119.5" font-family="Helvetica,sans-Serif" font-size="10.00">vector</text>
</a>
</g>
</g>
<!-- Node1&#45;&gt;Node15 -->
<g id="edge14" class="edge">
<title>Node1&#45;&gt;Node15</title>
<path fill="none" stroke="midnightblue" d="M1350.09,-440.18C1457.48,-423.52 1607.53,-379.93 1668,-266 1693.21,-218.49 1644.4,-193.42 1597,-168 1537.35,-136.01 1512.71,-148.13 1442.5,-131.95"/>
<polygon fill="midnightblue" stroke="midnightblue" points="1443.31,-128.55 1432.76,-129.6 1441.66,-135.35 1443.31,-128.55"/>
</g>
<!-- Node16 -->
<g id="node16" class="node">
<title>Node16</title>
<g id="a_node16"><a xlink:href="VectorArray_8hpp.html" target="_top" xlink:title=" ">
<polygon fill="white" stroke="black" points="990,-241 990,-260 1164,-260 1164,-241 990,-241"/>
<text text-anchor="middle" x="1077" y="-248" font-family="Helvetica,sans-Serif" font-size="10.00">Core/Containers/VectorArray.hpp</text>
</a>
</g>
</g>
<!-- Node1&#45;&gt;Node16 -->
<g id="edge15" class="edge">
<title>Node1&#45;&gt;Node16</title>
<path fill="none" stroke="midnightblue" d="M1178.03,-425.46C1161.93,-415.85 1145.27,-403.61 1133,-389 1102.71,-352.93 1087.13,-298.29 1080.69,-269.97"/>
<polygon fill="midnightblue" stroke="midnightblue" points="1084.11,-269.24 1078.6,-260.19 1077.27,-270.7 1084.11,-269.24"/>
</g>
<!-- Node20 -->
<g id="node20" class="node">
<title>Node20</title>
<g id="a_node20"><a xlink:href="TriangleMesh_8hpp.html" target="_top" xlink:title=" ">
<polygon fill="white" stroke="black" points="1141.5,-369.5 1141.5,-388.5 1320.5,-388.5 1320.5,-369.5 1141.5,-369.5"/>
<text text-anchor="middle" x="1231" y="-376.5" font-family="Helvetica,sans-Serif" font-size="10.00">Core/Geometry/TriangleMesh.hpp</text>
</a>
</g>
</g>
<!-- Node1&#45;&gt;Node20 -->
<g id="edge22" class="edge">
<title>Node1&#45;&gt;Node20</title>
<path fill="none" stroke="midnightblue" d="M1231,-425.45C1231,-416.73 1231,-407.1 1231,-398.96"/>
<polygon fill="midnightblue" stroke="midnightblue" points="1234.5,-398.7 1231,-388.7 1227.5,-398.7 1234.5,-398.7"/>
</g>
<!-- Node37 -->
<g id="node37" class="node">
<title>Node37</title>
<g id="a_node37"><a xlink:href="Color_8hpp.html" target="_top" xlink:title=" ">
<polygon fill="white" stroke="black" points="1737.5,-241 1737.5,-260 1850.5,-260 1850.5,-241 1737.5,-241"/>
<text text-anchor="middle" x="1794" y="-248" font-family="Helvetica,sans-Serif" font-size="10.00">Core/Utils/Color.hpp</text>
</a>
</g>
</g>
<!-- Node1&#45;&gt;Node37 -->
<g id="edge68" class="edge">
<title>Node1&#45;&gt;Node37</title>
<path fill="none" stroke="midnightblue" d="M1350.09,-448.16C1476.07,-443.52 1664.58,-429.76 1723,-389 1764.03,-360.37 1782.93,-300.64 1790.19,-270.2"/>
<polygon fill="midnightblue" stroke="midnightblue" points="1793.69,-270.62 1792.43,-260.1 1786.85,-269.1 1793.69,-270.62"/>
</g>
<!-- Node3 -->
<g id="node3" class="node">
<title>Node3</title>
<g id="a_node3"><a xlink:href="CoreMacros_8hpp.html" target="_top" xlink:title=" ">
<polygon fill="white" stroke="black" points="947.5,-56.5 947.5,-75.5 1068.5,-75.5 1068.5,-56.5 947.5,-56.5"/>
<text text-anchor="middle" x="1008" y="-63.5" font-family="Helvetica,sans-Serif" font-size="10.00">Core/CoreMacros.hpp</text>
</a>
</g>
</g>
<!-- Node2&#45;&gt;Node3 -->
<g id="edge2" class="edge">
<title>Node2&#45;&gt;Node3</title>
<path fill="none" stroke="midnightblue" d="M165.29,-370.45C98.64,-358.29 0,-327.46 0,-251.5 0,-251.5 0,-251.5 0,-182.5 0,-88.06 707.37,-70.79 936.97,-67.68"/>
<polygon fill="midnightblue" stroke="midnightblue" points="937.26,-71.17 947.22,-67.54 937.17,-64.17 937.26,-71.17"/>
</g>
<!-- Node9 -->
<g id="node9" class="node">
<title>Node9</title>
<g id="a_node9"><a xlink:href="OpenGL_8hpp.html" target="_top" xlink:title=" ">
<polygon fill="white" stroke="black" points="156,-302.5 156,-332.5 294,-332.5 294,-302.5 156,-302.5"/>
<text text-anchor="start" x="164" y="-320.5" font-family="Helvetica,sans-Serif" font-size="10.00">Engine/Renderer/OpenGL</text>
<text text-anchor="middle" x="225" y="-309.5" font-family="Helvetica,sans-Serif" font-size="10.00">/OpenGL.hpp</text>
</a>
</g>
</g>
<!-- Node2&#45;&gt;Node9 -->
<g id="edge8" class="edge">
<title>Node2&#45;&gt;Node9</title>
<path fill="none" stroke="midnightblue" d="M225,-369.48C225,-362.47 225,-352.19 225,-342.7"/>
<polygon fill="midnightblue" stroke="midnightblue" points="228.5,-342.52 225,-332.52 221.5,-342.52 228.5,-342.52"/>
</g>
<!-- Node4 -->
<g id="node4" class="node">
<title>Node4</title>
<g id="a_node4"><a xlink:title=" ">
<polygon fill="white" stroke="#bfbfbf" points="1086,-0.5 1086,-19.5 1138,-19.5 1138,-0.5 1086,-0.5"/>
<text text-anchor="middle" x="1112" y="-7.5" font-family="Helvetica,sans-Serif" font-size="10.00">cassert</text>
</a>
</g>
</g>
<!-- Node3&#45;&gt;Node4 -->
<g id="edge3" class="edge">
<title>Node3&#45;&gt;Node4</title>
<path fill="none" stroke="midnightblue" d="M1024.71,-56.32C1041.31,-47.7 1067,-34.36 1086.22,-24.39"/>
<polygon fill="midnightblue" stroke="midnightblue" points="1088.07,-27.37 1095.33,-19.65 1084.84,-21.16 1088.07,-27.37"/>
</g>
<!-- Node5 -->
<g id="node5" class="node">
<title>Node5</title>
<g id="a_node5"><a xlink:title=" ">
<polygon fill="white" stroke="#bfbfbf" points="878,-0.5 878,-19.5 924,-19.5 924,-0.5 878,-0.5"/>
<text text-anchor="middle" x="901" y="-7.5" font-family="Helvetica,sans-Serif" font-size="10.00">cstdio</text>
</a>
</g>
</g>
<!-- Node3&#45;&gt;Node5 -->
<g id="edge4" class="edge">
<title>Node3&#45;&gt;Node5</title>
<path fill="none" stroke="midnightblue" d="M990.81,-56.32C973.65,-47.66 947.05,-34.24 927.25,-24.25"/>
<polygon fill="midnightblue" stroke="midnightblue" points="928.65,-21.04 918.15,-19.65 925.5,-27.28 928.65,-21.04"/>
</g>
<!-- Node6 -->
<g id="node6" class="node">
<title>Node6</title>
<g id="a_node6"><a xlink:title=" ">
<polygon fill="white" stroke="#bfbfbf" points="942,-0.5 942,-19.5 1002,-19.5 1002,-0.5 942,-0.5"/>
<text text-anchor="middle" x="972" y="-7.5" font-family="Helvetica,sans-Serif" font-size="10.00">iostream</text>
</a>
</g>
</g>
<!-- Node3&#45;&gt;Node6 -->
<g id="edge5" class="edge">
<title>Node3&#45;&gt;Node6</title>
<path fill="none" stroke="midnightblue" d="M1002.06,-56.08C997.02,-48.53 989.66,-37.49 983.49,-28.23"/>
<polygon fill="midnightblue" stroke="midnightblue" points="986.29,-26.13 977.83,-19.75 980.47,-30.01 986.29,-26.13"/>
</g>
<!-- Node7 -->
<g id="node7" class="node">
<title>Node7</title>
<g id="a_node7"><a xlink:title=" ">
<polygon fill="white" stroke="#bfbfbf" points="700,-0.5 700,-19.5 756,-19.5 756,-0.5 700,-0.5"/>
<text text-anchor="middle" x="728" y="-7.5" font-family="Helvetica,sans-Serif" font-size="10.00">sstream</text>
</a>
</g>
</g>
<!-- Node3&#45;&gt;Node7 -->
<g id="edge6" class="edge">
<title>Node3&#45;&gt;Node7</title>
<path fill="none" stroke="midnightblue" d="M963.63,-56.44C909.25,-45.95 817.97,-28.35 766.44,-18.41"/>
<polygon fill="midnightblue" stroke="midnightblue" points="766.86,-14.93 756.38,-16.47 765.54,-21.8 766.86,-14.93"/>
</g>
<!-- Node8 -->
<g id="node8" class="node">
<title>Node8</title>
<g id="a_node8"><a xlink:title=" ">
<polygon fill="white" stroke="#bfbfbf" points="1020,-0.5 1020,-19.5 1068,-19.5 1068,-0.5 1020,-0.5"/>
<text text-anchor="middle" x="1044" y="-7.5" font-family="Helvetica,sans-Serif" font-size="10.00">thread</text>
</a>
</g>
</g>
<!-- Node3&#45;&gt;Node8 -->
<g id="edge7" class="edge">
<title>Node3&#45;&gt;Node8</title>
<path fill="none" stroke="midnightblue" d="M1013.94,-56.08C1018.98,-48.53 1026.34,-37.49 1032.51,-28.23"/>
<polygon fill="midnightblue" stroke="midnightblue" points="1035.53,-30.01 1038.17,-19.75 1029.71,-26.13 1035.53,-30.01"/>
</g>
<!-- Node10 -->
<g id="node10" class="node">
<title>Node10</title>
<g id="a_node10"><a xlink:title=" ">
<polygon fill="white" stroke="#bfbfbf" points="300,-241 300,-260 428,-260 428,-241 300,-241"/>
<text text-anchor="middle" x="364" y="-248" font-family="Helvetica,sans-Serif" font-size="10.00">glbinding/gl45core/gl.h</text>
</a>
</g>
</g>
<!-- Node9&#45;&gt;Node10 -->
<g id="edge9" class="edge">
<title>Node9&#45;&gt;Node10</title>
<path fill="none" stroke="midnightblue" d="M255.16,-302.4C279.44,-291.04 313.28,-275.22 336.75,-264.24"/>
<polygon fill="midnightblue" stroke="midnightblue" points="338.23,-267.41 345.81,-260.01 335.27,-261.07 338.23,-267.41"/>
</g>
<!-- Node11 -->
<g id="node11" class="node">
<title>Node11</title>
<g id="a_node11"><a xlink:title=" ">
<polygon fill="white" stroke="#bfbfbf" points="28,-241 28,-260 150,-260 150,-241 28,-241"/>
<text text-anchor="middle" x="89" y="-248" font-family="Helvetica,sans-Serif" font-size="10.00">glbinding/gl45ext/gl.h</text>
</a>
</g>
</g>
<!-- Node9&#45;&gt;Node11 -->
<g id="edge10" class="edge">
<title>Node9&#45;&gt;Node11</title>
<path fill="none" stroke="midnightblue" d="M195.49,-302.4C171.84,-291.09 138.92,-275.36 115.97,-264.39"/>
<polygon fill="midnightblue" stroke="midnightblue" points="117.33,-261.16 106.8,-260.01 114.31,-267.48 117.33,-261.16"/>
</g>
<!-- Node12 -->
<g id="node12" class="node">
<title>Node12</title>
<g id="a_node12"><a xlink:title=" ">
<polygon fill="white" stroke="#bfbfbf" points="168.5,-235.5 168.5,-265.5 281.5,-265.5 281.5,-235.5 168.5,-235.5"/>
<text text-anchor="start" x="176.5" y="-253.5" font-family="Helvetica,sans-Serif" font-size="10.00">glbinding&#45;aux/types</text>
<text text-anchor="middle" x="225" y="-242.5" font-family="Helvetica,sans-Serif" font-size="10.00">_to_string.h</text>
</a>
</g>
</g>
<!-- Node9&#45;&gt;Node12 -->
<g id="edge11" class="edge">
<title>Node9&#45;&gt;Node12</title>
<path fill="none" stroke="midnightblue" d="M225,-302.4C225,-294.64 225,-284.81 225,-275.86"/>
<polygon fill="midnightblue" stroke="midnightblue" points="228.5,-275.58 225,-265.58 221.5,-275.58 228.5,-275.58"/>
</g>
<!-- Node17 -->
<g id="node17" class="node">
<title>Node17</title>
<g id="a_node17"><a xlink:href="AlignedStdVector_8hpp.html" target="_top" xlink:title=" ">
<polygon fill="white" stroke="black" points="1258,-168.5 1258,-198.5 1408,-198.5 1408,-168.5 1258,-168.5"/>
<text text-anchor="start" x="1266" y="-186.5" font-family="Helvetica,sans-Serif" font-size="10.00">Core/Containers/AlignedStd</text>
<text text-anchor="middle" x="1333" y="-175.5" font-family="Helvetica,sans-Serif" font-size="10.00">Vector.hpp</text>
</a>
</g>
</g>
<!-- Node16&#45;&gt;Node17 -->
<g id="edge16" class="edge">
<title>Node16&#45;&gt;Node17</title>
<path fill="none" stroke="midnightblue" d="M1110.73,-240.94C1150.57,-230.82 1217.75,-213.76 1267.85,-201.04"/>
<polygon fill="midnightblue" stroke="midnightblue" points="1268.8,-204.41 1277.63,-198.56 1267.07,-197.63 1268.8,-204.41"/>
</g>
<!-- Node18 -->
<g id="node18" class="node">
<title>Node18</title>
<g id="a_node18"><a xlink:href="RaCore_8hpp.html" target="_top" xlink:title=" ">
<polygon fill="white" stroke="black" points="1103,-112.5 1103,-131.5 1201,-131.5 1201,-112.5 1103,-112.5"/>
<text text-anchor="middle" x="1152" y="-119.5" font-family="Helvetica,sans-Serif" font-size="10.00">Core/RaCore.hpp</text>
</a>
</g>
</g>
<!-- Node16&#45;&gt;Node18 -->
<g id="edge21" class="edge">
<title>Node16&#45;&gt;Node18</title>
<path fill="none" stroke="midnightblue" d="M1082.16,-240.81C1094.36,-220.22 1125.21,-168.19 1141.52,-140.68"/>
<polygon fill="midnightblue" stroke="midnightblue" points="1144.72,-142.14 1146.81,-131.76 1138.7,-138.57 1144.72,-142.14"/>
</g>
<!-- Node17&#45;&gt;Node15 -->
<g id="edge20" class="edge">
<title>Node17&#45;&gt;Node15</title>
<path fill="none" stroke="midnightblue" d="M1351.01,-168.4C1362.74,-159.22 1378.02,-147.26 1389.94,-137.92"/>
<polygon fill="midnightblue" stroke="midnightblue" points="1392.22,-140.58 1397.94,-131.66 1387.91,-135.07 1392.22,-140.58"/>
</g>
<!-- Node17&#45;&gt;Node18 -->
<g id="edge17" class="edge">
<title>Node17&#45;&gt;Node18</title>
<path fill="none" stroke="midnightblue" d="M1290.11,-168.4C1258.97,-158.16 1217.31,-144.47 1187.92,-134.81"/>
<polygon fill="midnightblue" stroke="midnightblue" points="1188.67,-131.37 1178.07,-131.57 1186.48,-138.02 1188.67,-131.37"/>
</g>
<!-- Node19 -->
<g id="node19" class="node">
<title>Node19</title>
<g id="a_node19"><a xlink:title=" ">
<polygon fill="white" stroke="#bfbfbf" points="1274.5,-112.5 1274.5,-131.5 1367.5,-131.5 1367.5,-112.5 1274.5,-112.5"/>
<text text-anchor="middle" x="1321" y="-119.5" font-family="Helvetica,sans-Serif" font-size="10.00">Eigen/StdVector</text>
</a>
</g>
</g>
<!-- Node17&#45;&gt;Node19 -->
<g id="edge19" class="edge">
<title>Node17&#45;&gt;Node19</title>
<path fill="none" stroke="midnightblue" d="M1330.16,-168.4C1328.54,-160.38 1326.49,-150.23 1324.75,-141.57"/>
<polygon fill="midnightblue" stroke="midnightblue" points="1328.15,-140.77 1322.75,-131.66 1321.29,-142.15 1328.15,-140.77"/>
</g>
<!-- Node18&#45;&gt;Node3 -->
<g id="edge18" class="edge">
<title>Node18&#45;&gt;Node3</title>
<path fill="none" stroke="midnightblue" d="M1129.18,-112.44C1105.17,-103.44 1067.17,-89.19 1040.13,-79.05"/>
<polygon fill="midnightblue" stroke="midnightblue" points="1041.3,-75.75 1030.71,-75.52 1038.84,-82.3 1041.3,-75.75"/>
</g>
<!-- Node20&#45;&gt;Node16 -->
<g id="edge23" class="edge">
<title>Node20&#45;&gt;Node16</title>
<path fill="none" stroke="midnightblue" d="M1220.41,-369.31C1194.59,-348.09 1128.09,-293.46 1095.52,-266.72"/>
<polygon fill="midnightblue" stroke="midnightblue" points="1097.61,-263.9 1087.66,-260.26 1093.16,-269.31 1097.61,-263.9"/>
</g>
<!-- Node20&#45;&gt;Node18 -->
<g id="edge31" class="edge">
<title>Node20&#45;&gt;Node18</title>
<path fill="none" stroke="midnightblue" d="M1228.28,-369.22C1216.96,-332.67 1173.4,-192.09 1157.69,-141.38"/>
<polygon fill="midnightblue" stroke="midnightblue" points="1161.01,-140.26 1154.71,-131.74 1154.32,-142.33 1161.01,-140.26"/>
</g>
<!-- Node21 -->
<g id="node21" class="node">
<title>Node21</title>
<g id="a_node21"><a xlink:href="AbstractGeometry_8hpp.html" target="_top" xlink:title=" ">
<polygon fill="white" stroke="black" points="1220.5,-241 1220.5,-260 1423.5,-260 1423.5,-241 1220.5,-241"/>
<text text-anchor="middle" x="1322" y="-248" font-family="Helvetica,sans-Serif" font-size="10.00">Core/Geometry/AbstractGeometry.hpp</text>
</a>
</g>
</g>
<!-- Node20&#45;&gt;Node21 -->
<g id="edge24" class="edge">
<title>Node20&#45;&gt;Node21</title>
<path fill="none" stroke="midnightblue" d="M1231.4,-369.23C1232.46,-354.2 1236.41,-323.1 1251,-302 1261.97,-286.13 1279.63,-273.54 1294.59,-264.9"/>
<polygon fill="midnightblue" stroke="midnightblue" points="1296.39,-267.91 1303.48,-260.04 1293.02,-261.77 1296.39,-267.91"/>
</g>
<!-- Node22 -->
<g id="node22" class="node">
<title>Node22</title>
<g id="a_node22"><a xlink:href="Types_8hpp.html" target="_top" xlink:title=" ">
<polygon fill="white" stroke="black" points="1496.5,-174 1496.5,-193 1587.5,-193 1587.5,-174 1496.5,-174"/>
<text text-anchor="middle" x="1542" y="-181" font-family="Helvetica,sans-Serif" font-size="10.00">Core/Types.hpp</text>
</a>
</g>
</g>
<!-- Node20&#45;&gt;Node22 -->
<g id="edge32" class="edge">
<title>Node20&#45;&gt;Node22</title>
<path fill="none" stroke="midnightblue" d="M1304.67,-369.44C1414.12,-355.01 1611.23,-321.8 1652,-266 1660.13,-254.88 1659.44,-246.6 1652,-235 1639.56,-215.6 1617.58,-203.55 1596.52,-196.12"/>
<polygon fill="midnightblue" stroke="midnightblue" points="1597.54,-192.77 1586.95,-193.02 1595.39,-199.43 1597.54,-192.77"/>
</g>
<!-- Node26 -->
<g id="node26" class="node">
<title>Node26</title>
<g id="a_node26"><a xlink:href="Attribs_8hpp.html" target="_top" xlink:title=" ">
<polygon fill="white" stroke="black" points="815.5,-308 815.5,-327 936.5,-327 936.5,-308 815.5,-308"/>
<text text-anchor="middle" x="876" y="-315" font-family="Helvetica,sans-Serif" font-size="10.00">Core/Utils/Attribs.hpp</text>
</a>
</g>
</g>
<!-- Node20&#45;&gt;Node26 -->
<g id="edge33" class="edge">
<title>Node20&#45;&gt;Node26</title>
<path fill="none" stroke="midnightblue" d="M1180.14,-369.48C1115.95,-358.72 1005.65,-340.23 937,-328.72"/>
<polygon fill="midnightblue" stroke="midnightblue" points="937.21,-325.21 926.77,-327.01 936.05,-332.11 937.21,-325.21"/>
</g>
<!-- Node30 -->
<g id="node30" class="node">
<title>Node30</title>
<g id="a_node30"><a xlink:href="Observable_8hpp.html" target="_top" xlink:title=" ">
<polygon fill="white" stroke="black" points="522,-241 522,-260 666,-260 666,-241 522,-241"/>
<text text-anchor="middle" x="594" y="-248" font-family="Helvetica,sans-Serif" font-size="10.00">Core/Utils/Observable.hpp</text>
</a>
</g>
</g>
<!-- Node20&#45;&gt;Node30 -->
<g id="edge63" class="edge">
<title>Node20&#45;&gt;Node30</title>
<path fill="none" stroke="midnightblue" d="M1141.34,-375.23C1054.73,-370.97 920.37,-360.21 807,-333 737.79,-316.39 660.75,-282.92 621,-264.46"/>
<polygon fill="midnightblue" stroke="midnightblue" points="622.27,-261.19 611.73,-260.11 619.3,-267.52 622.27,-261.19"/>
</g>
<!-- Node20&#45;&gt;Node37 -->
<g id="edge52" class="edge">
<title>Node20&#45;&gt;Node37</title>
<path fill="none" stroke="midnightblue" d="M1320.75,-378.48C1406.45,-376.58 1538.28,-367.47 1647,-333 1695.73,-317.55 1746.61,-285.08 1773.87,-266.12"/>
<polygon fill="midnightblue" stroke="midnightblue" points="1776.03,-268.88 1782.18,-260.25 1771.99,-263.16 1776.03,-268.88"/>
</g>
<!-- Node43 -->
<g id="node43" class="node">
<title>Node43</title>
<g id="a_node43"><a xlink:href="TriangleMesh_8inl.html" target="_top" xlink:title=" ">
<polygon fill="white" stroke="black" points="1259.5,-308 1259.5,-327 1432.5,-327 1432.5,-308 1259.5,-308"/>
<text text-anchor="middle" x="1346" y="-315" font-family="Helvetica,sans-Serif" font-size="10.00">Core/Geometry/TriangleMesh.inl</text>
</a>
</g>
</g>
<!-- Node20&#45;&gt;Node43 -->
<g id="edge64" class="edge">
<title>Node20&#45;&gt;Node43</title>
<path fill="none" stroke="midnightblue" d="M1242.58,-369.48C1259.7,-359.49 1291.61,-342.85 1315.58,-331.31"/>
<polygon fill="midnightblue" stroke="midnightblue" points="1317.12,-334.45 1324.66,-327.01 1314.12,-328.13 1317.12,-334.45"/>
</g>
<!-- Node21&#45;&gt;Node18 -->
<g id="edge25" class="edge">
<title>Node21&#45;&gt;Node18</title>
<path fill="none" stroke="midnightblue" d="M1309.18,-240.97C1294.47,-231.1 1269.72,-214.26 1249,-199 1221.22,-178.53 1189.94,-153.69 1170.6,-138.1"/>
<polygon fill="midnightblue" stroke="midnightblue" points="1172.58,-135.21 1162.61,-131.65 1168.18,-140.65 1172.58,-135.21"/>
</g>
<!-- Node21&#45;&gt;Node22 -->
<g id="edge26" class="edge">
<title>Node21&#45;&gt;Node22</title>
<path fill="none" stroke="midnightblue" d="M1351.21,-240.87C1390.36,-229.3 1459.93,-208.75 1503.37,-195.91"/>
<polygon fill="midnightblue" stroke="midnightblue" points="1504.42,-199.25 1513.02,-193.06 1502.43,-192.54 1504.42,-199.25"/>
</g>
<!-- Node22&#45;&gt;Node18 -->
<g id="edge27" class="edge">
<title>Node22&#45;&gt;Node18</title>
<path fill="none" stroke="midnightblue" d="M1496.5,-175.56C1425.83,-164.78 1289.69,-144.01 1211.37,-132.06"/>
<polygon fill="midnightblue" stroke="midnightblue" points="1211.6,-128.55 1201.19,-130.5 1210.54,-135.47 1211.6,-128.55"/>
</g>
<!-- Node23 -->
<g id="node23" class="node">
<title>Node23</title>
<g id="a_node23"><a xlink:title=" ">
<polygon fill="white" stroke="#bfbfbf" points="1662.5,-112.5 1662.5,-131.5 1731.5,-131.5 1731.5,-112.5 1662.5,-112.5"/>
<text text-anchor="middle" x="1697" y="-119.5" font-family="Helvetica,sans-Serif" font-size="10.00">Eigen/Core</text>
</a>
</g>
</g>
<!-- Node22&#45;&gt;Node23 -->
<g id="edge28" class="edge">
<title>Node22&#45;&gt;Node23</title>
<path fill="none" stroke="midnightblue" d="M1564.21,-173.98C1590.68,-163.81 1635.11,-146.76 1665.22,-135.2"/>
<polygon fill="midnightblue" stroke="midnightblue" points="1666.75,-138.36 1674.83,-131.51 1664.24,-131.83 1666.75,-138.36"/>
</g>
<!-- Node24 -->
<g id="node24" class="node">
<title>Node24</title>
<g id="a_node24"><a xlink:title=" ">
<polygon fill="white" stroke="#bfbfbf" points="1549.5,-112.5 1549.5,-131.5 1644.5,-131.5 1644.5,-112.5 1549.5,-112.5"/>
<text text-anchor="middle" x="1597" y="-119.5" font-family="Helvetica,sans-Serif" font-size="10.00">Eigen/Geometry</text>
</a>
</g>
</g>
<!-- Node22&#45;&gt;Node24 -->
<g id="edge29" class="edge">
<title>Node22&#45;&gt;Node24</title>
<path fill="none" stroke="midnightblue" d="M1549.88,-173.98C1558.29,-164.87 1571.82,-150.24 1582.23,-138.98"/>
<polygon fill="midnightblue" stroke="midnightblue" points="1584.92,-141.23 1589.13,-131.51 1579.78,-136.48 1584.92,-141.23"/>
</g>
<!-- Node25 -->
<g id="node25" class="node">
<title>Node25</title>
<g id="a_node25"><a xlink:title=" ">
<polygon fill="white" stroke="#bfbfbf" points="1451,-112.5 1451,-131.5 1531,-131.5 1531,-112.5 1451,-112.5"/>
<text text-anchor="middle" x="1491" y="-119.5" font-family="Helvetica,sans-Serif" font-size="10.00">Eigen/Sparse</text>
</a>
</g>
</g>
<!-- Node22&#45;&gt;Node25 -->
<g id="edge30" class="edge">
<title>Node22&#45;&gt;Node25</title>
<path fill="none" stroke="midnightblue" d="M1534.69,-173.98C1526.97,-164.96 1514.59,-150.52 1504.98,-139.31"/>
<polygon fill="midnightblue" stroke="midnightblue" points="1507.46,-136.82 1498.29,-131.51 1502.14,-141.38 1507.46,-136.82"/>
</g>
<!-- Node26&#45;&gt;Node14 -->
<g id="edge34" class="edge">
<title>Node26&#45;&gt;Node14</title>
<path fill="none" stroke="midnightblue" d="M815.16,-315.18C724.33,-312.05 559.04,-301.5 513,-266 493.3,-250.81 484.92,-222.14 481.41,-203.17"/>
<polygon fill="midnightblue" stroke="midnightblue" points="484.84,-202.41 479.84,-193.07 477.92,-203.49 484.84,-202.41"/>
</g>
<!-- Node26&#45;&gt;Node16 -->
<g id="edge35" class="edge">
<title>Node26&#45;&gt;Node16</title>
<path fill="none" stroke="midnightblue" d="M902.69,-307.87C938.23,-296.38 1001.21,-276.01 1040.95,-263.16"/>
<polygon fill="midnightblue" stroke="midnightblue" points="1042.08,-266.47 1050.52,-260.06 1039.93,-259.81 1042.08,-266.47"/>
</g>
<!-- Node26&#45;&gt;Node18 -->
<g id="edge36" class="edge">
<title>Node26&#45;&gt;Node18</title>
<path fill="none" stroke="midnightblue" d="M887.97,-307.7C901.45,-297.73 923.97,-280.92 943,-266 960.15,-252.55 963.42,-247.88 981,-235 1032.34,-197.41 1095.65,-157.53 1128.97,-137.01"/>
<polygon fill="midnightblue" stroke="midnightblue" points="1131.23,-139.73 1137.93,-131.52 1127.57,-133.77 1131.23,-139.73"/>
</g>
<!-- Node27 -->
<g id="node27" class="node">
<title>Node27</title>
<g id="a_node27"><a xlink:href="Index_8hpp.html" target="_top" xlink:title=" ">
<polygon fill="white" stroke="black" points="684,-241 684,-260 800,-260 800,-241 684,-241"/>
<text text-anchor="middle" x="742" y="-248" font-family="Helvetica,sans-Serif" font-size="10.00">Core/Utils/Index.hpp</text>
</a>
</g>
</g>
<!-- Node26&#45;&gt;Node27 -->
<g id="edge37" class="edge">
<title>Node26&#45;&gt;Node27</title>
<path fill="none" stroke="midnightblue" d="M858.21,-307.87C835.38,-296.8 795.57,-277.49 769,-264.6"/>
<polygon fill="midnightblue" stroke="midnightblue" points="770.39,-261.38 759.87,-260.17 767.34,-267.68 770.39,-261.38"/>
</g>
<!-- Node26&#45;&gt;Node30 -->
<g id="edge42" class="edge">
<title>Node26&#45;&gt;Node30</title>
<path fill="none" stroke="midnightblue" d="M838.84,-307.94C788.02,-296.22 696.79,-275.19 641.19,-262.38"/>
<polygon fill="midnightblue" stroke="midnightblue" points="641.77,-258.92 631.24,-260.08 640.2,-265.74 641.77,-258.92"/>
</g>
<!-- Node36 -->
<g id="node36" class="node">
<title>Node36</title>
<g id="a_node36"><a xlink:href="Attribs_8inl.html" target="_top" xlink:title=" ">
<polygon fill="white" stroke="black" points="818.5,-241 818.5,-260 933.5,-260 933.5,-241 818.5,-241"/>
<text text-anchor="middle" x="876" y="-248" font-family="Helvetica,sans-Serif" font-size="10.00">Core/Utils/Attribs.inl</text>
</a>
</g>
</g>
<!-- Node26&#45;&gt;Node36 -->
<g id="edge51" class="edge">
<title>Node26&#45;&gt;Node36</title>
<path fill="none" stroke="midnightblue" d="M876,-307.73C876,-298.18 876,-282.62 876,-270.28"/>
<polygon fill="midnightblue" stroke="midnightblue" points="879.5,-270.13 876,-260.13 872.5,-270.13 879.5,-270.13"/>
</g>
<!-- Node27&#45;&gt;Node18 -->
<g id="edge38" class="edge">
<title>Node27&#45;&gt;Node18</title>
<path fill="none" stroke="midnightblue" d="M740.14,-240.88C737.09,-224.19 733.2,-187.37 753,-168 776.81,-144.7 987.49,-131.11 1092.72,-125.72"/>
<polygon fill="midnightblue" stroke="midnightblue" points="1093.06,-129.2 1102.87,-125.2 1092.71,-122.21 1093.06,-129.2"/>
</g>
<!-- Node28 -->
<g id="node28" class="node">
<title>Node28</title>
<g id="a_node28"><a xlink:title=" ">
<polygon fill="white" stroke="#bfbfbf" points="890,-174 890,-193 934,-193 934,-174 890,-174"/>
<text text-anchor="middle" x="912" y="-181" font-family="Helvetica,sans-Serif" font-size="10.00">limits</text>
</a>
</g>
</g>
<!-- Node27&#45;&gt;Node28 -->
<g id="edge39" class="edge">
<title>Node27&#45;&gt;Node28</title>
<path fill="none" stroke="midnightblue" d="M767.63,-240.96C795.72,-231.41 841.98,-215.17 881,-199 882.37,-198.43 883.77,-197.84 885.18,-197.22"/>
<polygon fill="midnightblue" stroke="midnightblue" points="886.74,-200.36 894.42,-193.06 883.86,-193.98 886.74,-200.36"/>
</g>
<!-- Node29 -->
<g id="node29" class="node">
<title>Node29</title>
<g id="a_node29"><a xlink:href="Index_8inl.html" target="_top" xlink:title=" ">
<polygon fill="white" stroke="black" points="762,-174 762,-193 872,-193 872,-174 762,-174"/>
<text text-anchor="middle" x="817" y="-181" font-family="Helvetica,sans-Serif" font-size="10.00">Core/Utils/Index.inl</text>
</a>
</g>
</g>
<!-- Node27&#45;&gt;Node29 -->
<g id="edge40" class="edge">
<title>Node27&#45;&gt;Node29</title>
<path fill="none" stroke="midnightblue" d="M747.33,-240.73C757.35,-230.11 777.86,-212.05 794.2,-199.26"/>
<polygon fill="midnightblue" stroke="midnightblue" points="796.44,-201.96 802.29,-193.13 792.2,-196.39 796.44,-201.96"/>
</g>
<!-- Node29&#45;&gt;Node27 -->
<g id="edge41" class="edge">
<title>Node29&#45;&gt;Node27</title>
<path fill="none" stroke="midnightblue" d="M811.8,-193.13C801.87,-203.69 781.39,-221.74 765.01,-234.57"/>
<polygon fill="midnightblue" stroke="midnightblue" points="762.75,-231.9 756.9,-240.73 766.98,-237.47 762.75,-231.9"/>
</g>
<!-- Node30&#45;&gt;Node14 -->
<g id="edge50" class="edge">
<title>Node30&#45;&gt;Node14</title>
<path fill="none" stroke="midnightblue" d="M578.49,-240.73C559.09,-229.77 525.67,-210.88 502.97,-198.05"/>
<polygon fill="midnightblue" stroke="midnightblue" points="504.69,-195 494.26,-193.13 501.25,-201.09 504.69,-195"/>
</g>
<!-- Node31 -->
<g id="node31" class="node">
<title>Node31</title>
<g id="a_node31"><a xlink:href="Log_8hpp.html" target="_top" xlink:title=" ">
<polygon fill="white" stroke="black" points="516,-174 516,-193 622,-193 622,-174 516,-174"/>
<text text-anchor="middle" x="569" y="-181" font-family="Helvetica,sans-Serif" font-size="10.00">Core/Utils/Log.hpp</text>
</a>
</g>
</g>
<!-- Node30&#45;&gt;Node31 -->
<g id="edge43" class="edge">
<title>Node30&#45;&gt;Node31</title>
<path fill="none" stroke="midnightblue" d="M590.63,-240.73C586.88,-230.99 580.72,-214.98 575.94,-202.53"/>
<polygon fill="midnightblue" stroke="midnightblue" points="579.17,-201.2 572.32,-193.13 572.64,-203.72 579.17,-201.2"/>
</g>
<!-- Node35 -->
<g id="node35" class="node">
<title>Node35</title>
<g id="a_node35"><a xlink:title=" ">
<polygon fill="white" stroke="#bfbfbf" points="640.5,-174 640.5,-193 705.5,-193 705.5,-174 640.5,-174"/>
<text text-anchor="middle" x="673" y="-181" font-family="Helvetica,sans-Serif" font-size="10.00">functional</text>
</a>
</g>
</g>
<!-- Node30&#45;&gt;Node35 -->
<g id="edge49" class="edge">
<title>Node30&#45;&gt;Node35</title>
<path fill="none" stroke="midnightblue" d="M604.65,-240.73C617.45,-230.21 639.12,-212.38 654.63,-199.62"/>
<polygon fill="midnightblue" stroke="midnightblue" points="657.02,-202.18 662.51,-193.13 652.57,-196.78 657.02,-202.18"/>
</g>
<!-- Node31&#45;&gt;Node7 -->
<g id="edge46" class="edge">
<title>Node31&#45;&gt;Node7</title>
<path fill="none" stroke="midnightblue" d="M560.02,-173.91C546.89,-160.28 525.33,-133.09 538,-112 570.92,-57.23 644.68,-30.56 690,-18.89"/>
<polygon fill="midnightblue" stroke="midnightblue" points="690.89,-22.27 699.77,-16.49 689.22,-15.48 690.89,-22.27"/>
</g>
<!-- Node31&#45;&gt;Node18 -->
<g id="edge44" class="edge">
<title>Node31&#45;&gt;Node18</title>
<path fill="none" stroke="midnightblue" d="M602.18,-173.95C611.75,-171.73 622.24,-169.54 632,-168 797.82,-141.87 995.95,-130 1092.8,-125.42"/>
<polygon fill="midnightblue" stroke="midnightblue" points="1093.15,-128.91 1102.97,-124.95 1092.82,-121.92 1093.15,-128.91"/>
</g>
<!-- Node32 -->
<g id="node32" class="node">
<title>Node32</title>
<g id="a_node32"><a xlink:title=" ">
<polygon fill="white" stroke="#bfbfbf" points="547,-112.5 547,-131.5 591,-131.5 591,-112.5 547,-112.5"/>
<text text-anchor="middle" x="569" y="-119.5" font-family="Helvetica,sans-Serif" font-size="10.00">ctime</text>
</a>
</g>
</g>
<!-- Node31&#45;&gt;Node32 -->
<g id="edge45" class="edge">
<title>Node31&#45;&gt;Node32</title>
<path fill="none" stroke="midnightblue" d="M569,-173.98C569,-165.58 569,-152.48 569,-141.66"/>
<polygon fill="midnightblue" stroke="midnightblue" points="572.5,-141.51 569,-131.51 565.5,-141.51 572.5,-141.51"/>
</g>
<!-- Node33 -->
<g id="node33" class="node">
<title>Node33</title>
<g id="a_node33"><a xlink:title=" ">
<polygon fill="white" stroke="#bfbfbf" points="609,-112.5 609,-131.5 659,-131.5 659,-112.5 609,-112.5"/>
<text text-anchor="middle" x="634" y="-119.5" font-family="Helvetica,sans-Serif" font-size="10.00">stdio.h</text>
</a>
</g>
</g>
<!-- Node31&#45;&gt;Node33 -->
<g id="edge47" class="edge">
<title>Node31&#45;&gt;Node33</title>
<path fill="none" stroke="midnightblue" d="M578.31,-173.98C588.45,-164.7 604.86,-149.67 617.25,-138.33"/>
<polygon fill="midnightblue" stroke="midnightblue" points="619.69,-140.84 624.7,-131.51 614.96,-135.68 619.69,-140.84"/>
</g>
<!-- Node34 -->
<g id="node34" class="node">
<title>Node34</title>
<g id="a_node34"><a xlink:title=" ">
<polygon fill="white" stroke="#bfbfbf" points="677,-112.5 677,-131.5 721,-131.5 721,-112.5 677,-112.5"/>
<text text-anchor="middle" x="699" y="-119.5" font-family="Helvetica,sans-Serif" font-size="10.00">string</text>
</a>
</g>
</g>
<!-- Node31&#45;&gt;Node34 -->
<g id="edge48" class="edge">
<title>Node31&#45;&gt;Node34</title>
<path fill="none" stroke="midnightblue" d="M587.63,-173.98C609.44,-163.99 645.8,-147.35 671.02,-135.81"/>
<polygon fill="midnightblue" stroke="midnightblue" points="672.77,-138.85 680.41,-131.51 669.86,-132.49 672.77,-138.85"/>
</g>
<!-- Node37&#45;&gt;Node3 -->
<g id="edge53" class="edge">
<title>Node37&#45;&gt;Node3</title>
<path fill="none" stroke="midnightblue" d="M1835.16,-241C1915.16,-222.8 2078.62,-176.43 2017,-112 1984.62,-78.15 1303.1,-69.45 1078.84,-67.51"/>
<polygon fill="midnightblue" stroke="midnightblue" points="1078.86,-64.01 1068.83,-67.42 1078.8,-71.01 1078.86,-64.01"/>
</g>
<!-- Node37&#45;&gt;Node23 -->
<g id="edge60" class="edge">
<title>Node37&#45;&gt;Node23</title>
<path fill="none" stroke="midnightblue" d="M1796.1,-240.76C1799.42,-224.8 1804.03,-190.52 1789,-168 1778.01,-151.53 1759.16,-140.87 1741.38,-134.09"/>
<polygon fill="midnightblue" stroke="midnightblue" points="1742.27,-130.69 1731.67,-130.71 1739.97,-137.3 1742.27,-130.69"/>
</g>
<!-- Node37&#45;&gt;Node24 -->
<g id="edge61" class="edge">
<title>Node37&#45;&gt;Node24</title>
<path fill="none" stroke="midnightblue" d="M1792.45,-240.93C1788.99,-224.31 1779.06,-187.63 1756,-168 1740.27,-154.61 1691.95,-142.05 1652.67,-133.62"/>
<polygon fill="midnightblue" stroke="midnightblue" points="1653.15,-130.15 1642.64,-131.52 1651.71,-137 1653.15,-130.15"/>
</g>
<!-- Node38 -->
<g id="node38" class="node">
<title>Node38</title>
<g id="a_node38"><a xlink:href="Math_8hpp.html" target="_top" xlink:title=" ">
<polygon fill="white" stroke="black" points="1841,-174 1841,-193 1957,-193 1957,-174 1841,-174"/>
<text text-anchor="middle" x="1899" y="-181" font-family="Helvetica,sans-Serif" font-size="10.00">Core/Math/Math.hpp</text>
</a>
</g>
</g>
<!-- Node37&#45;&gt;Node38 -->
<g id="edge54" class="edge">
<title>Node37&#45;&gt;Node38</title>
<path fill="none" stroke="midnightblue" d="M1808.16,-240.73C1825.71,-229.87 1855.84,-211.22 1876.56,-198.39"/>
<polygon fill="midnightblue" stroke="midnightblue" points="1878.4,-201.37 1885.06,-193.13 1874.72,-195.41 1878.4,-201.37"/>
</g>
<!-- Node42 -->
<g id="node42" class="node">
<title>Node42</title>
<g id="a_node42"><a xlink:title=" ">
<polygon fill="white" stroke="#bfbfbf" points="1693,-174 1693,-193 1747,-193 1747,-174 1693,-174"/>
<text text-anchor="middle" x="1720" y="-181" font-family="Helvetica,sans-Serif" font-size="10.00">random</text>
</a>
</g>
</g>
<!-- Node37&#45;&gt;Node42 -->
<g id="edge62" class="edge">
<title>Node37&#45;&gt;Node42</title>
<path fill="none" stroke="midnightblue" d="M1784.02,-240.73C1772.15,-230.31 1752.11,-212.71 1737.62,-199.97"/>
<polygon fill="midnightblue" stroke="midnightblue" points="1739.64,-197.1 1729.82,-193.13 1735.03,-202.36 1739.64,-197.1"/>
</g>
<!-- Node38&#45;&gt;Node18 -->
<g id="edge55" class="edge">
<title>Node38&#45;&gt;Node18</title>
<path fill="none" stroke="midnightblue" d="M1840.94,-176.24C1814.97,-173.54 1783.97,-170.44 1756,-168 1538.46,-148.98 1483.73,-148.59 1266,-132 1248.21,-130.64 1228.86,-129.13 1211.24,-127.74"/>
<polygon fill="midnightblue" stroke="midnightblue" points="1211.34,-124.24 1201.09,-126.93 1210.79,-131.21 1211.34,-124.24"/>
</g>
<!-- Node39 -->
<g id="node39" class="node">
<title>Node39</title>
<g id="a_node39"><a xlink:title=" ">
<polygon fill="white" stroke="#bfbfbf" points="1878,-112.5 1878,-131.5 1942,-131.5 1942,-112.5 1878,-112.5"/>
<text text-anchor="middle" x="1910" y="-119.5" font-family="Helvetica,sans-Serif" font-size="10.00">algorithm</text>
</a>
</g>
</g>
<!-- Node38&#45;&gt;Node39 -->
<g id="edge56" class="edge">
<title>Node38&#45;&gt;Node39</title>
<path fill="none" stroke="midnightblue" d="M1900.58,-173.98C1902.13,-165.58 1904.55,-152.48 1906.55,-141.66"/>
<polygon fill="midnightblue" stroke="midnightblue" points="1910.05,-141.98 1908.43,-131.51 1903.17,-140.71 1910.05,-141.98"/>
</g>
<!-- Node40 -->
<g id="node40" class="node">
<title>Node40</title>
<g id="a_node40"><a xlink:title=" ">
<polygon fill="white" stroke="#bfbfbf" points="1960.5,-112.5 1960.5,-131.5 2007.5,-131.5 2007.5,-112.5 1960.5,-112.5"/>
<text text-anchor="middle" x="1984" y="-119.5" font-family="Helvetica,sans-Serif" font-size="10.00">cmath</text>
</a>
</g>
</g>
<!-- Node38&#45;&gt;Node40 -->
<g id="edge57" class="edge">
<title>Node38&#45;&gt;Node40</title>
<path fill="none" stroke="midnightblue" d="M1911.18,-173.98C1924.81,-164.43 1947.13,-148.81 1963.47,-137.37"/>
<polygon fill="midnightblue" stroke="midnightblue" points="1965.66,-140.11 1971.84,-131.51 1961.64,-134.38 1965.66,-140.11"/>
</g>
<!-- Node41 -->
<g id="node41" class="node">
<title>Node41</title>
<g id="a_node41"><a xlink:href="Math_8inl.html" target="_top" xlink:title=" ">
<polygon fill="white" stroke="black" points="1750,-112.5 1750,-131.5 1860,-131.5 1860,-112.5 1750,-112.5"/>
<text text-anchor="middle" x="1805" y="-119.5" font-family="Helvetica,sans-Serif" font-size="10.00">Core/Math/Math.inl</text>
</a>
</g>
</g>
<!-- Node38&#45;&gt;Node41 -->
<g id="edge58" class="edge">
<title>Node38&#45;&gt;Node41</title>
<path fill="none" stroke="midnightblue" d="M1880.63,-173.98C1863.47,-164.43 1838.46,-148.81 1821.83,-137.37"/>
<polygon fill="midnightblue" stroke="midnightblue" points="1823.73,-134.43 1813.55,-131.51 1819.69,-140.14 1823.73,-134.43"/>
</g>
<!-- Node41&#45;&gt;Node38 -->
<g id="edge59" class="edge">
<title>Node41&#45;&gt;Node38</title>
<path fill="none" stroke="midnightblue" d="M1823.34,-131.51C1840.49,-141.05 1865.5,-156.67 1882.15,-168.11"/>
<polygon fill="midnightblue" stroke="midnightblue" points="1880.25,-171.06 1890.43,-173.98 1884.29,-165.34 1880.25,-171.06"/>
</g>
<!-- Node43&#45;&gt;Node20 -->
<g id="edge65" class="edge">
<title>Node43&#45;&gt;Node20</title>
<path fill="none" stroke="midnightblue" d="M1334.45,-327.01C1317.34,-336.99 1285.44,-353.63 1261.46,-365.17"/>
<polygon fill="midnightblue" stroke="midnightblue" points="1259.92,-362.03 1252.38,-369.48 1262.91,-368.36 1259.92,-362.03"/>
</g>
<!-- Node44 -->
<g id="node44" class="node">
<title>Node44</title>
<g id="a_node44"><a xlink:href="TriangleOperation_8hpp.html" target="_top" xlink:title=" ">
<polygon fill="white" stroke="black" points="1441.5,-241 1441.5,-260 1642.5,-260 1642.5,-241 1441.5,-241"/>
<text text-anchor="middle" x="1542" y="-248" font-family="Helvetica,sans-Serif" font-size="10.00">Core/Geometry/TriangleOperation.hpp</text>
</a>
</g>
</g>
<!-- Node43&#45;&gt;Node44 -->
<g id="edge66" class="edge">
<title>Node43&#45;&gt;Node44</title>
<path fill="none" stroke="midnightblue" d="M1372.03,-307.87C1406.54,-296.42 1467.58,-276.18 1506.35,-263.32"/>
<polygon fill="midnightblue" stroke="midnightblue" points="1507.79,-266.53 1516.18,-260.06 1505.58,-259.89 1507.79,-266.53"/>
</g>
<!-- Node44&#45;&gt;Node22 -->
<g id="edge67" class="edge">
<title>Node44&#45;&gt;Node22</title>
<path fill="none" stroke="midnightblue" d="M1542,-240.73C1542,-231.18 1542,-215.62 1542,-203.28"/>
<polygon fill="midnightblue" stroke="midnightblue" points="1545.5,-203.13 1542,-193.13 1538.5,-203.13 1545.5,-203.13"/>
</g>
</g>
</svg>
        <g id="navigator" transform="translate(0 0)" fill="#404254">
                <rect fill="#f2f5e9" fill-opacity="0.5" stroke="#606060" stroke-width=".5" x="0" y="0" width="60" height="60"/>
                <use id="zoomplus" xlink:href="#zoomPlus" x="17" y="9" onmousedown="handleZoom(evt,'in')"/>
                <use id="zoomminus" xlink:href="#zoomMin" x="42" y="9" onmousedown="handleZoom(evt,'out')"/>
                <use id="reset" xlink:href="#resetDef" x="30" y="36" onmousedown="handleReset()"/>
                <g id="arrowUp" xlink:href="#dirArrow" transform="translate(30 24)" onmousedown="handlePan(0,-1)">
                  <use xlink:href="#rim" fill="#404040">
                        <set attributeName="fill" to="#808080" begin="arrowUp.mouseover" end="arrowUp.mouseout"/>
                  </use>
                  <path fill="none" stroke="white" stroke-width="1.5" d="M0,-3.0v7 M-2.5,-0.5L0,-3.0L2.5,-0.5"/>
                </g>
                <g id="arrowRight" xlink:href="#dirArrow" transform="rotate(90) translate(36 -43)" onmousedown="handlePan(1,0)">
                  <use xlink:href="#rim" fill="#404040">
                        <set attributeName="fill" to="#808080" begin="arrowRight.mouseover" end="arrowRight.mouseout"/>
                  </use>
                  <path fill="none" stroke="white" stroke-width="1.5" d="M0,-3.0v7 M-2.5,-0.5L0,-3.0L2.5,-0.5"/>
                </g>
                <g id="arrowDown" xlink:href="#dirArrow" transform="rotate(180) translate(-30 -48)" onmousedown="handlePan(0,1)">
                  <use xlink:href="#rim" fill="#404040">
                        <set attributeName="fill" to="#808080" begin="arrowDown.mouseover" end="arrowDown.mouseout"/>
                  </use>
                  <path fill="none" stroke="white" stroke-width="1.5" d="M0,-3.0v7 M-2.5,-0.5L0,-3.0L2.5,-0.5"/>
                </g>
                <g id="arrowLeft" xlink:href="#dirArrow" transform="rotate(270) translate(-36 17)" onmousedown="handlePan(-1,0)">
                  <use xlink:href="#rim" fill="#404040">
                        <set attributeName="fill" to="#808080" begin="arrowLeft.mouseover" end="arrowLeft.mouseout"/>
                  </use>
                  <path fill="none" stroke="white" stroke-width="1.5" d="M0,-3.0v7 M-2.5,-0.5L0,-3.0L2.5,-0.5"/>
                </g>
        </g>
        <svg viewBox="0 0 15 15" width="100%" height="30px" preserveAspectRatio="xMaxYMin meet">
         <g id="arrow_out" transform="scale(0.3 0.3)">
          <a xlink:href="DisplayableObject_8hpp__incl_org.svg" target="_base">
           <rect id="button" ry="5" rx="5" y="6" x="6" height="38" width="38"
                fill="#f2f5e9" fill-opacity="0.5" stroke="#606060" stroke-width="1.0"/>
           <path id="arrow"
             d="M 11.500037,31.436501 C 11.940474,20.09759 22.043105,11.32322 32.158766,21.979434 L 37.068811,17.246167 C 37.068811,17.246167 37.088388,32 37.088388,32 L 22.160133,31.978069 C 22.160133,31.978069 26.997745,27.140456 26.997745,27.140456 C 18.528582,18.264221 13.291696,25.230495 11.500037,31.436501 z"
             style="fill:#404040;"/>
          </a>
         </g>
        </svg>
</svg>
