<?xml version="1.0" encoding="UTF-8" standalone="no"?>
<!DOCTYPE svg PUBLIC "-//W3C//DTD SVG 1.1//EN"
 "http://www.w3.org/Graphics/SVG/1.1/DTD/svg11.dtd">
<!-- Generated by graphviz version 2.43.0 (0)
 -->
<!-- Title: /home/runner/work/Radium&#45;Engine/Radium&#45;Engine/src/Radium&#45;Engine/src/Core/Geometry/DistanceQueries.inl Pages: 1 -->
<svg width="630pt" height="328pt"
 viewBox="0.00 0.00 630.00 328.00" xmlns="http://www.w3.org/2000/svg" xmlns:xlink="http://www.w3.org/1999/xlink">
<g id="graph0" class="graph" transform="scale(1 1) rotate(0) translate(4 324)">
<title>/home/runner/work/Radium&#45;Engine/Radium&#45;Engine/src/Radium&#45;Engine/src/Core/Geometry/DistanceQueries.inl</title>
<polygon fill="white" stroke="transparent" points="-4,4 -4,-324 626,-324 626,4 -4,4"/>
<!-- Node1 -->
<g id="node1" class="node">
<title>Node1</title>
<g id="a_node1"><a xlink:title=" ">
<polygon fill="#bfbfbf" stroke="black" points="218,-267.5 218,-319.5 406,-319.5 406,-267.5 218,-267.5"/>
<text text-anchor="start" x="226" y="-307.5" font-family="Helvetica,sans-Serif" font-size="10.00">/home/runner/work/Radium</text>
<text text-anchor="start" x="226" y="-296.5" font-family="Helvetica,sans-Serif" font-size="10.00">&#45;Engine/Radium&#45;Engine/src</text>
<text text-anchor="start" x="226" y="-285.5" font-family="Helvetica,sans-Serif" font-size="10.00">/Radium&#45;Engine/src/Core/Geometry</text>
<text text-anchor="middle" x="312" y="-274.5" font-family="Helvetica,sans-Serif" font-size="10.00">/DistanceQueries.inl</text>
</a>
</g>
</g>
<!-- Node2 -->
<g id="node2" class="node">
<title>Node2</title>
<g id="a_node2"><a xlink:href="DistanceQueries_8hpp.html" target="_top" xlink:title=" ">
<polygon fill="white" stroke="black" points="218,-178.5 218,-230.5 406,-230.5 406,-178.5 218,-178.5"/>
<text text-anchor="start" x="226" y="-218.5" font-family="Helvetica,sans-Serif" font-size="10.00">/home/runner/work/Radium</text>
<text text-anchor="start" x="226" y="-207.5" font-family="Helvetica,sans-Serif" font-size="10.00">&#45;Engine/Radium&#45;Engine/src</text>
<text text-anchor="start" x="226" y="-196.5" font-family="Helvetica,sans-Serif" font-size="10.00">/Radium&#45;Engine/src/Core/Geometry</text>
<text text-anchor="middle" x="312" y="-185.5" font-family="Helvetica,sans-Serif" font-size="10.00">/DistanceQueries.hpp</text>
</a>
</g>
</g>
<!-- Node1&#45;&gt;Node2 -->
<g id="edge1" class="edge">
<title>Node1&#45;&gt;Node2</title>
<path fill="none" stroke="midnightblue" d="M305.36,-257.19C305.12,-248.28 305.27,-238.9 305.82,-230.61"/>
<polygon fill="midnightblue" stroke="midnightblue" points="301.87,-257.5 305.81,-267.34 308.86,-257.19 301.87,-257.5"/>
</g>
<!-- Node2&#45;&gt;Node1 -->
<g id="edge3" class="edge">
<title>Node2&#45;&gt;Node1</title>
<path fill="none" stroke="midnightblue" d="M318.64,-240.75C318.88,-249.65 318.73,-259.04 318.19,-267.34"/>
<polygon fill="midnightblue" stroke="midnightblue" points="322.13,-240.44 318.18,-230.61 315.14,-240.76 322.13,-240.44"/>
</g>
<!-- Node3 -->
<g id="node3" class="node">
<title>Node3</title>
<g id="a_node3"><a xlink:href="BulgeCorrection_8cpp.html" target="_top" xlink:title=" ">
<polygon fill="white" stroke="black" points="0,-89.5 0,-141.5 190,-141.5 190,-89.5 0,-89.5"/>
<text text-anchor="start" x="8" y="-129.5" font-family="Helvetica,sans-Serif" font-size="10.00">/home/runner/work/Radium</text>
<text text-anchor="start" x="8" y="-118.5" font-family="Helvetica,sans-Serif" font-size="10.00">&#45;Engine/Radium&#45;Engine/src</text>
<text text-anchor="start" x="8" y="-107.5" font-family="Helvetica,sans-Serif" font-size="10.00">/Radium&#45;Engine/src/Core/Animation</text>
<text text-anchor="middle" x="95" y="-96.5" font-family="Helvetica,sans-Serif" font-size="10.00">/BulgeCorrection.cpp</text>
</a>
</g>
</g>
<!-- Node2&#45;&gt;Node3 -->
<g id="edge2" class="edge">
<title>Node2&#45;&gt;Node3</title>
<path fill="none" stroke="midnightblue" d="M240.21,-174.72C213.43,-163.98 183.27,-151.89 157.41,-141.52"/>
<polygon fill="midnightblue" stroke="midnightblue" points="238.94,-177.98 249.53,-178.45 241.55,-171.48 238.94,-177.98"/>
</g>
<!-- Node4 -->
<g id="node4" class="node">
<title>Node4</title>
<g id="a_node4"><a xlink:href="StretchableTwistableBoneSkinning_8cpp.html" target="_top" xlink:title=" ">
<polygon fill="white" stroke="black" points="208,-89.5 208,-141.5 416,-141.5 416,-89.5 208,-89.5"/>
<text text-anchor="start" x="216" y="-129.5" font-family="Helvetica,sans-Serif" font-size="10.00">/home/runner/work/Radium</text>
<text text-anchor="start" x="216" y="-118.5" font-family="Helvetica,sans-Serif" font-size="10.00">&#45;Engine/Radium&#45;Engine/src</text>
<text text-anchor="start" x="216" y="-107.5" font-family="Helvetica,sans-Serif" font-size="10.00">/Radium&#45;Engine/src/Core/Animation</text>
<text text-anchor="middle" x="312" y="-96.5" font-family="Helvetica,sans-Serif" font-size="10.00">/StretchableTwistableBoneSkinning.cpp</text>
</a>
</g>
</g>
<!-- Node2&#45;&gt;Node4 -->
<g id="edge4" class="edge">
<title>Node2&#45;&gt;Node4</title>
<path fill="none" stroke="midnightblue" d="M312,-168.19C312,-159.28 312,-149.9 312,-141.61"/>
<polygon fill="midnightblue" stroke="midnightblue" points="308.5,-168.34 312,-178.34 315.5,-168.34 308.5,-168.34"/>
</g>
<!-- Node5 -->
<g id="node5" class="node">
<title>Node5</title>
<g id="a_node5"><a xlink:href="PolyLine_8hpp.html" target="_top" xlink:title=" ">
<polygon fill="white" stroke="black" points="434,-89.5 434,-141.5 622,-141.5 622,-89.5 434,-89.5"/>
<text text-anchor="start" x="442" y="-129.5" font-family="Helvetica,sans-Serif" font-size="10.00">/home/runner/work/Radium</text>
<text text-anchor="start" x="442" y="-118.5" font-family="Helvetica,sans-Serif" font-size="10.00">&#45;Engine/Radium&#45;Engine/src</text>
<text text-anchor="start" x="442" y="-107.5" font-family="Helvetica,sans-Serif" font-size="10.00">/Radium&#45;Engine/src/Core/Geometry</text>
<text text-anchor="middle" x="528" y="-96.5" font-family="Helvetica,sans-Serif" font-size="10.00">/PolyLine.hpp</text>
</a>
</g>
</g>
<!-- Node2&#45;&gt;Node5 -->
<g id="edge5" class="edge">
<title>Node2&#45;&gt;Node5</title>
<path fill="none" stroke="midnightblue" d="M383.81,-174.58C410.38,-163.88 440.25,-151.85 465.88,-141.52"/>
<polygon fill="midnightblue" stroke="midnightblue" points="382.15,-171.47 374.19,-178.45 384.77,-177.96 382.15,-171.47"/>
</g>
<!-- Node6 -->
<g id="node6" class="node">
<title>Node6</title>
<g id="a_node6"><a xlink:href="PolyLine_8cpp.html" target="_top" xlink:title=" ">
<polygon fill="white" stroke="black" points="228,-0.5 228,-52.5 416,-52.5 416,-0.5 228,-0.5"/>
<text text-anchor="start" x="236" y="-40.5" font-family="Helvetica,sans-Serif" font-size="10.00">/home/runner/work/Radium</text>
<text text-anchor="start" x="236" y="-29.5" font-family="Helvetica,sans-Serif" font-size="10.00">&#45;Engine/Radium&#45;Engine/src</text>
<text text-anchor="start" x="236" y="-18.5" font-family="Helvetica,sans-Serif" font-size="10.00">/Radium&#45;Engine/src/Core/Geometry</text>
<text text-anchor="middle" x="322" y="-7.5" font-family="Helvetica,sans-Serif" font-size="10.00">/PolyLine.cpp</text>
</a>
</g>
</g>
<!-- Node5&#45;&gt;Node6 -->
<g id="edge6" class="edge">
<title>Node5&#45;&gt;Node6</title>
<path fill="none" stroke="midnightblue" d="M459.18,-85.44C433.93,-74.77 405.58,-62.8 381.25,-52.52"/>
<polygon fill="midnightblue" stroke="midnightblue" points="458.12,-88.79 468.69,-89.45 460.84,-82.34 458.12,-88.79"/>
</g>
<!-- Node7 -->
<g id="node7" class="node">
<title>Node7</title>
<g id="a_node7"><a xlink:href="PolyLine_8inl.html" target="_top" xlink:title=" ">
<polygon fill="white" stroke="black" points="434,-0.5 434,-52.5 622,-52.5 622,-0.5 434,-0.5"/>
<text text-anchor="start" x="442" y="-40.5" font-family="Helvetica,sans-Serif" font-size="10.00">/home/runner/work/Radium</text>
<text text-anchor="start" x="442" y="-29.5" font-family="Helvetica,sans-Serif" font-size="10.00">&#45;Engine/Radium&#45;Engine/src</text>
<text text-anchor="start" x="442" y="-18.5" font-family="Helvetica,sans-Serif" font-size="10.00">/Radium&#45;Engine/src/Core/Geometry</text>
<text text-anchor="middle" x="528" y="-7.5" font-family="Helvetica,sans-Serif" font-size="10.00">/PolyLine.inl</text>
</a>
</g>
</g>
<!-- Node5&#45;&gt;Node7 -->
<g id="edge7" class="edge">
<title>Node5&#45;&gt;Node7</title>
<path fill="none" stroke="midnightblue" d="M521.36,-79.19C521.12,-70.28 521.27,-60.9 521.82,-52.61"/>
<polygon fill="midnightblue" stroke="midnightblue" points="517.87,-79.5 521.81,-89.34 524.86,-79.19 517.87,-79.5"/>
</g>
<!-- Node7&#45;&gt;Node5 -->
<g id="edge8" class="edge">
<title>Node7&#45;&gt;Node5</title>
<path fill="none" stroke="midnightblue" d="M534.64,-62.75C534.88,-71.65 534.73,-81.04 534.19,-89.34"/>
<polygon fill="midnightblue" stroke="midnightblue" points="538.13,-62.44 534.18,-52.61 531.14,-62.76 538.13,-62.44"/>
</g>
</g>
</svg>
