<?xml version="1.0" encoding="UTF-8" standalone="no"?>
<!DOCTYPE svg PUBLIC "-//W3C//DTD SVG 1.1//EN"
 "http://www.w3.org/Graphics/SVG/1.1/DTD/svg11.dtd">
<!-- Generated by graphviz version 2.40.1 (20161225.0304)
 -->
<!-- Title: src/Core/Geometry/DistanceQueries.inl Pages: 1 -->
<svg width="1804pt" height="498pt"
 viewBox="0.00 0.00 1803.97 498.00" xmlns="http://www.w3.org/2000/svg" xmlns:xlink="http://www.w3.org/1999/xlink">
<g id="graph0" class="graph" transform="scale(1 1) rotate(0) translate(4 494)">
<title>src/Core/Geometry/DistanceQueries.inl</title>
<polygon fill="#ffffff" stroke="transparent" points="-4,4 -4,-494 1799.975,-494 1799.975,4 -4,4"/>
<!-- Node0 -->
<g id="node1" class="node">
<title>Node0</title>
<polygon fill="#bfbfbf" stroke="#000000" points="703.975,-459.5 703.975,-489.5 857.975,-489.5 857.975,-459.5 703.975,-459.5"/>
<text text-anchor="start" x="711.975" y="-477.5" font-family="Helvetica,sans-Serif" font-size="10.00" fill="#000000">src/Core/Geometry/Distance</text>
<text text-anchor="middle" x="780.975" y="-466.5" font-family="Helvetica,sans-Serif" font-size="10.00" fill="#000000">Queries.inl</text>
</g>
<!-- Node1 -->
<g id="node2" class="node">
<title>Node1</title>
<g id="a_node2"><a xlink:href="DistanceQueries_8hpp.html" target="_top" xlink:title="Core/Geometry/DistanceQueries.hpp">
<polygon fill="#ffffff" stroke="#000000" points="683.475,-403.5 683.475,-422.5 878.475,-422.5 878.475,-403.5 683.475,-403.5"/>
<text text-anchor="middle" x="780.975" y="-410.5" font-family="Helvetica,sans-Serif" font-size="10.00" fill="#000000">Core/Geometry/DistanceQueries.hpp</text>
</a>
</g>
</g>
<!-- Node0&#45;&gt;Node1 -->
<g id="edge1" class="edge">
<title>Node0&#45;&gt;Node1</title>
<path fill="none" stroke="#191970" d="M775.0593,-459.2977C774.1196,-451.2945 773.9737,-441.3843 774.6215,-432.7889"/>
<polygon fill="#191970" stroke="#191970" points="778.0968,-433.2044 775.8666,-422.8469 771.151,-432.3345 778.0968,-433.2044"/>
</g>
<!-- Node33 -->
<g id="node34" class="node">
<title>Node33</title>
<polygon fill="#ffffff" stroke="#bfbfbf" points="212.975,-112.5 212.975,-131.5 276.975,-131.5 276.975,-112.5 212.975,-112.5"/>
<text text-anchor="middle" x="244.975" y="-119.5" font-family="Helvetica,sans-Serif" font-size="10.00" fill="#000000">algorithm</text>
</g>
<!-- Node0&#45;&gt;Node33 -->
<g id="edge63" class="edge">
<title>Node0&#45;&gt;Node33</title>
<path fill="none" stroke="#191970" d="M703.8594,-470.9344C571.2183,-462.6765 313.975,-436.4231 313.975,-357 313.975,-357 313.975,-357 313.975,-301 313.975,-241.7537 352.3606,-219.4452 322.975,-168 314.6596,-153.4424 299.737,-143.0309 285.1547,-135.8375"/>
<polygon fill="#191970" stroke="#191970" points="286.2483,-132.491 275.6941,-131.5638 283.3665,-138.8703 286.2483,-132.491"/>
</g>
<!-- Node1&#45;&gt;Node0 -->
<g id="edge62" class="edge">
<title>Node1&#45;&gt;Node0</title>
<path fill="none" stroke="#191970" d="M786.0833,-422.8469C787.4454,-429.9883 787.9599,-439.9858 787.6268,-449.2849"/>
<polygon fill="#191970" stroke="#191970" points="784.1334,-449.068 786.8907,-459.2977 791.1146,-449.5813 784.1334,-449.068"/>
</g>
<!-- Node2 -->
<g id="node3" class="node">
<title>Node2</title>
<g id="a_node3"><a xlink:href="TriangleMesh_8hpp.html" target="_top" xlink:title="Core/Geometry/TriangleMesh.hpp">
<polygon fill="#ffffff" stroke="#000000" points="691.475,-347.5 691.475,-366.5 870.475,-366.5 870.475,-347.5 691.475,-347.5"/>
<text text-anchor="middle" x="780.975" y="-354.5" font-family="Helvetica,sans-Serif" font-size="10.00" fill="#000000">Core/Geometry/TriangleMesh.hpp</text>
</a>
</g>
</g>
<!-- Node1&#45;&gt;Node2 -->
<g id="edge2" class="edge">
<title>Node1&#45;&gt;Node2</title>
<path fill="none" stroke="#191970" d="M780.975,-403.2455C780.975,-395.9382 780.975,-385.6944 780.975,-376.7046"/>
<polygon fill="#191970" stroke="#191970" points="784.4751,-376.6426 780.975,-366.6427 777.4751,-376.6427 784.4751,-376.6426"/>
</g>
<!-- Node5 -->
<g id="node6" class="node">
<title>Node5</title>
<g id="a_node6"><a xlink:href="RaCore_8hpp.html" target="_top" xlink:title="Core/RaCore.hpp">
<polygon fill="#ffffff" stroke="#000000" points="995.975,-112.5 995.975,-131.5 1093.975,-131.5 1093.975,-112.5 995.975,-112.5"/>
<text text-anchor="middle" x="1044.975" y="-119.5" font-family="Helvetica,sans-Serif" font-size="10.00" fill="#000000">Core/RaCore.hpp</text>
</a>
</g>
</g>
<!-- Node1&#45;&gt;Node5 -->
<g id="edge59" class="edge">
<title>Node1&#45;&gt;Node5</title>
<path fill="none" stroke="#191970" d="M878.5996,-410.3662C1104.2823,-402.9796 1642.975,-377.3514 1642.975,-301 1642.975,-301 1642.975,-301 1642.975,-245 1642.975,-200.5 1618.4126,-188.6136 1578.975,-168 1537.7251,-146.4392 1234.7609,-130.4818 1104.3752,-124.5393"/>
<polygon fill="#191970" stroke="#191970" points="1104.3182,-121.0333 1094.1705,-124.0787 1104.0024,-128.0262 1104.3182,-121.0333"/>
</g>
<!-- Node15 -->
<g id="node16" class="node">
<title>Node15</title>
<g id="a_node16"><a xlink:href="Types_8hpp.html" target="_top" xlink:title="Core/Types.hpp">
<polygon fill="#ffffff" stroke="#000000" points="435.475,-174 435.475,-193 526.475,-193 526.475,-174 435.475,-174"/>
<text text-anchor="middle" x="480.975" y="-181" font-family="Helvetica,sans-Serif" font-size="10.00" fill="#000000">Core/Types.hpp</text>
</a>
</g>
</g>
<!-- Node1&#45;&gt;Node15 -->
<g id="edge60" class="edge">
<title>Node1&#45;&gt;Node15</title>
<path fill="none" stroke="#191970" d="M729.2123,-403.4539C663.8994,-389.8715 549.6445,-360.9108 462.975,-311 425.1992,-289.2459 380.0984,-273.2677 400.975,-235 410.2329,-218.0299 427.7453,-205.8127 444.0304,-197.5494"/>
<polygon fill="#191970" stroke="#191970" points="445.8491,-200.5617 453.4052,-193.135 442.867,-194.2287 445.8491,-200.5617"/>
</g>
<!-- Node22 -->
<g id="node23" class="node">
<title>Node22</title>
<polygon fill="#ffffff" stroke="#bfbfbf" points="1336.975,-174 1336.975,-193 1380.975,-193 1380.975,-174 1336.975,-174"/>
<text text-anchor="middle" x="1358.975" y="-181" font-family="Helvetica,sans-Serif" font-size="10.00" fill="#000000">limits</text>
</g>
<!-- Node1&#45;&gt;Node22 -->
<g id="edge61" class="edge">
<title>Node1&#45;&gt;Node22</title>
<path fill="none" stroke="#191970" d="M835.1629,-403.4737C918.4344,-388.1331 1082.3513,-355.1488 1216.975,-311 1277.1412,-291.2689 1309.1662,-305.0316 1347.975,-255 1359.2485,-240.4664 1361.2233,-219.1612 1360.8491,-203.5888"/>
<polygon fill="#191970" stroke="#191970" points="1364.3338,-203.2223 1360.2608,-193.4417 1357.3455,-203.6275 1364.3338,-203.2223"/>
</g>
<!-- Node3 -->
<g id="node4" class="node">
<title>Node3</title>
<g id="a_node4"><a xlink:href="VectorArray_8hpp.html" target="_top" xlink:title="Core/Containers/VectorArray.hpp">
<polygon fill="#ffffff" stroke="#000000" points="858.975,-235.5 858.975,-254.5 1032.975,-254.5 1032.975,-235.5 858.975,-235.5"/>
<text text-anchor="middle" x="945.975" y="-242.5" font-family="Helvetica,sans-Serif" font-size="10.00" fill="#000000">Core/Containers/VectorArray.hpp</text>
</a>
</g>
</g>
<!-- Node2&#45;&gt;Node3 -->
<g id="edge3" class="edge">
<title>Node2&#45;&gt;Node3</title>
<path fill="none" stroke="#191970" d="M795.0428,-347.4509C823.6587,-328.0268 888.858,-283.7703 923.4503,-260.2895"/>
<polygon fill="#191970" stroke="#191970" points="925.6345,-263.037 931.9428,-254.5249 921.7031,-257.2453 925.6345,-263.037"/>
</g>
<!-- Node2&#45;&gt;Node5 -->
<g id="edge22" class="edge">
<title>Node2&#45;&gt;Node5</title>
<path fill="none" stroke="#191970" d="M870.5728,-352.4037C1070.8114,-341.1932 1540.6451,-309.3149 1585.975,-255 1610.6964,-225.3785 1586.3285,-193.0866 1546.975,-168 1510.3668,-144.6635 1228.9273,-129.8677 1104.1795,-124.3927"/>
<polygon fill="#191970" stroke="#191970" points="1104.1813,-120.8895 1094.0391,-123.953 1103.878,-127.883 1104.1813,-120.8895"/>
</g>
<!-- Node14 -->
<g id="node15" class="node">
<title>Node14</title>
<g id="a_node15"><a xlink:href="AbstractGeometry_8hpp.html" target="_top" xlink:title="Core/Geometry/AbstractGeometry.hpp">
<polygon fill="#ffffff" stroke="#000000" points="637.475,-235.5 637.475,-254.5 840.475,-254.5 840.475,-235.5 637.475,-235.5"/>
<text text-anchor="middle" x="738.975" y="-242.5" font-family="Helvetica,sans-Serif" font-size="10.00" fill="#000000">Core/Geometry/AbstractGeometry.hpp</text>
</a>
</g>
</g>
<!-- Node2&#45;&gt;Node14 -->
<g id="edge15" class="edge">
<title>Node2&#45;&gt;Node14</title>
<path fill="none" stroke="#191970" d="M778.5697,-347.4477C775.1927,-334.4734 768.5984,-310.6449 760.975,-291 757.4231,-281.8471 752.8197,-271.9912 748.7425,-263.7593"/>
<polygon fill="#191970" stroke="#191970" points="751.7819,-262.0144 744.1362,-254.68 745.5394,-265.1816 751.7819,-262.0144"/>
</g>
<!-- Node2&#45;&gt;Node15 -->
<g id="edge23" class="edge">
<title>Node2&#45;&gt;Node15</title>
<path fill="none" stroke="#191970" d="M705.1191,-347.4744C606.608,-333.3155 443.1699,-303.0983 408.975,-255 393.1566,-232.75 422.8734,-211.2371 448.7929,-197.7224"/>
<polygon fill="#191970" stroke="#191970" points="450.6742,-200.6962 458.0789,-193.1185 447.5649,-194.4246 450.6742,-200.6962"/>
</g>
<!-- Node19 -->
<g id="node20" class="node">
<title>Node19</title>
<g id="a_node20"><a xlink:href="Attribs_8hpp.html" target="_top" xlink:title="Core/Utils/Attribs.hpp">
<polygon fill="#ffffff" stroke="#000000" points="1086.475,-291.5 1086.475,-310.5 1207.475,-310.5 1207.475,-291.5 1086.475,-291.5"/>
<text text-anchor="middle" x="1146.975" y="-298.5" font-family="Helvetica,sans-Serif" font-size="10.00" fill="#000000">Core/Utils/Attribs.hpp</text>
</a>
</g>
</g>
<!-- Node2&#45;&gt;Node19 -->
<g id="edge24" class="edge">
<title>Node2&#45;&gt;Node19</title>
<path fill="none" stroke="#191970" d="M843.4768,-347.4369C908.0478,-337.5572 1008.6496,-322.1645 1076.1318,-311.8394"/>
<polygon fill="#191970" stroke="#191970" points="1076.8976,-315.263 1086.2532,-310.2908 1075.8388,-308.3436 1076.8976,-315.263"/>
</g>
<!-- Node24 -->
<g id="node25" class="node">
<title>Node24</title>
<g id="a_node25"><a xlink:href="Observable_8hpp.html" target="_top" xlink:title="Core/Utils/Observable.hpp">
<polygon fill="#ffffff" stroke="#000000" points="1432.975,-235.5 1432.975,-254.5 1576.975,-254.5 1576.975,-235.5 1432.975,-235.5"/>
<text text-anchor="middle" x="1504.975" y="-242.5" font-family="Helvetica,sans-Serif" font-size="10.00" fill="#000000">Core/Utils/Observable.hpp</text>
</a>
</g>
</g>
<!-- Node2&#45;&gt;Node24 -->
<g id="edge54" class="edge">
<title>Node2&#45;&gt;Node24</title>
<path fill="none" stroke="#191970" d="M870.7478,-350.6983C959.197,-343.7452 1097.9758,-330.839 1216.975,-311 1303.6672,-296.5471 1403.3224,-271.8764 1459.7561,-257.1391"/>
<polygon fill="#191970" stroke="#191970" points="1460.9945,-260.4327 1469.7777,-254.5077 1459.2167,-253.6622 1460.9945,-260.4327"/>
</g>
<!-- Node31 -->
<g id="node32" class="node">
<title>Node31</title>
<g id="a_node32"><a xlink:href="Color_8hpp.html" target="_top" xlink:title="Core/Utils/Color.hpp">
<polygon fill="#ffffff" stroke="#000000" points="156.475,-235.5 156.475,-254.5 269.475,-254.5 269.475,-235.5 156.475,-235.5"/>
<text text-anchor="middle" x="212.975" y="-242.5" font-family="Helvetica,sans-Serif" font-size="10.00" fill="#000000">Core/Utils/Color.hpp</text>
</a>
</g>
</g>
<!-- Node2&#45;&gt;Node31 -->
<g id="edge43" class="edge">
<title>Node2&#45;&gt;Node31</title>
<path fill="none" stroke="#191970" d="M691.1532,-350.6003C616.3365,-344.1136 507.327,-331.9712 413.975,-311 353.6841,-297.4558 285.8258,-273.2082 246.3867,-258.1754"/>
<polygon fill="#191970" stroke="#191970" points="247.584,-254.886 236.994,-254.5642 245.0719,-261.4198 247.584,-254.886"/>
</g>
<!-- Node37 -->
<g id="node38" class="node">
<title>Node37</title>
<g id="a_node38"><a xlink:href="TriangleMesh_8inl.html" target="_top" xlink:title="Core/Geometry/TriangleMesh.inl">
<polygon fill="#ffffff" stroke="#000000" points="579.475,-291.5 579.475,-310.5 752.475,-310.5 752.475,-291.5 579.475,-291.5"/>
<text text-anchor="middle" x="665.975" y="-298.5" font-family="Helvetica,sans-Serif" font-size="10.00" fill="#000000">Core/Geometry/TriangleMesh.inl</text>
</a>
</g>
</g>
<!-- Node2&#45;&gt;Node37 -->
<g id="edge55" class="edge">
<title>Node2&#45;&gt;Node37</title>
<path fill="none" stroke="#191970" d="M755.9637,-347.3733C736.1073,-338.545 708.7749,-325.354 689.3582,-315.2951"/>
<polygon fill="#191970" stroke="#191970" points="690.7469,-312.0706 680.2689,-310.5011 687.4812,-318.2622 690.7469,-312.0706"/>
</g>
<!-- Node4 -->
<g id="node5" class="node">
<title>Node4</title>
<g id="a_node5"><a xlink:href="AlignedStdVector_8hpp.html" target="_top" xlink:title="Core/Containers/AlignedStd\lVector.hpp">
<polygon fill="#ffffff" stroke="#000000" points="806.975,-168.5 806.975,-198.5 956.975,-198.5 956.975,-168.5 806.975,-168.5"/>
<text text-anchor="start" x="814.975" y="-186.5" font-family="Helvetica,sans-Serif" font-size="10.00" fill="#000000">Core/Containers/AlignedStd</text>
<text text-anchor="middle" x="881.975" y="-175.5" font-family="Helvetica,sans-Serif" font-size="10.00" fill="#000000">Vector.hpp</text>
</a>
</g>
</g>
<!-- Node3&#45;&gt;Node4 -->
<g id="edge4" class="edge">
<title>Node3&#45;&gt;Node4</title>
<path fill="none" stroke="#191970" d="M935.975,-235.3906C927.7144,-227.4527 915.6627,-215.8718 905.0395,-205.6635"/>
<polygon fill="#191970" stroke="#191970" points="907.2668,-202.9498 897.6311,-198.5446 902.4166,-207.9971 907.2668,-202.9498"/>
</g>
<!-- Node3&#45;&gt;Node5 -->
<g id="edge14" class="edge">
<title>Node3&#45;&gt;Node5</title>
<path fill="none" stroke="#191970" d="M959.2215,-235.4222C970.6286,-226.752 987.0836,-213.1971 998.975,-199 1014.2107,-180.8101 1027.6063,-156.9944 1035.9546,-140.6943"/>
<polygon fill="#191970" stroke="#191970" points="1039.1421,-142.145 1040.4716,-131.6339 1032.8775,-139.0218 1039.1421,-142.145"/>
</g>
<!-- Node4&#45;&gt;Node5 -->
<g id="edge5" class="edge">
<title>Node4&#45;&gt;Node5</title>
<path fill="none" stroke="#191970" d="M921.8493,-168.4554C948.9269,-158.239 984.3844,-144.8609 1010.2916,-135.0861"/>
<polygon fill="#191970" stroke="#191970" points="1011.5951,-138.3352 1019.7158,-131.5303 1009.124,-131.7858 1011.5951,-138.3352"/>
</g>
<!-- Node12 -->
<g id="node13" class="node">
<title>Node12</title>
<polygon fill="#ffffff" stroke="#bfbfbf" points="852.475,-112.5 852.475,-131.5 945.475,-131.5 945.475,-112.5 852.475,-112.5"/>
<text text-anchor="middle" x="898.975" y="-119.5" font-family="Helvetica,sans-Serif" font-size="10.00" fill="#000000">Eigen/StdVector</text>
</g>
<!-- Node4&#45;&gt;Node12 -->
<g id="edge12" class="edge">
<title>Node4&#45;&gt;Node12</title>
<path fill="none" stroke="#191970" d="M886.1772,-168.2977C888.4141,-160.2055 891.1898,-150.1639 893.5839,-141.5029"/>
<polygon fill="#191970" stroke="#191970" points="896.9622,-142.418 896.2531,-131.8469 890.2152,-140.5529 896.9622,-142.418"/>
</g>
<!-- Node13 -->
<g id="node14" class="node">
<title>Node13</title>
<polygon fill="#ffffff" stroke="#bfbfbf" points="787.475,-112.5 787.475,-131.5 834.475,-131.5 834.475,-112.5 787.475,-112.5"/>
<text text-anchor="middle" x="810.975" y="-119.5" font-family="Helvetica,sans-Serif" font-size="10.00" fill="#000000">vector</text>
</g>
<!-- Node4&#45;&gt;Node13 -->
<g id="edge13" class="edge">
<title>Node4&#45;&gt;Node13</title>
<path fill="none" stroke="#191970" d="M864.4244,-168.2977C853.9529,-159.2274 840.6538,-147.7077 829.9412,-138.4285"/>
<polygon fill="#191970" stroke="#191970" points="832.1932,-135.7487 822.343,-131.8469 827.6101,-141.0398 832.1932,-135.7487"/>
</g>
<!-- Node6 -->
<g id="node7" class="node">
<title>Node6</title>
<g id="a_node7"><a xlink:href="CoreMacros_8hpp.html" target="_top" xlink:title="Core/CoreMacros.hpp">
<polygon fill="#ffffff" stroke="#000000" points="984.975,-56.5 984.975,-75.5 1104.975,-75.5 1104.975,-56.5 984.975,-56.5"/>
<text text-anchor="middle" x="1044.975" y="-63.5" font-family="Helvetica,sans-Serif" font-size="10.00" fill="#000000">Core/CoreMacros.hpp</text>
</a>
</g>
</g>
<!-- Node5&#45;&gt;Node6 -->
<g id="edge6" class="edge">
<title>Node5&#45;&gt;Node6</title>
<path fill="none" stroke="#191970" d="M1044.975,-112.2455C1044.975,-104.9382 1044.975,-94.6944 1044.975,-85.7046"/>
<polygon fill="#191970" stroke="#191970" points="1048.4751,-85.6426 1044.975,-75.6427 1041.4751,-85.6427 1048.4751,-85.6426"/>
</g>
<!-- Node7 -->
<g id="node8" class="node">
<title>Node7</title>
<polygon fill="#ffffff" stroke="#bfbfbf" points="1122.975,-.5 1122.975,-19.5 1174.975,-19.5 1174.975,-.5 1122.975,-.5"/>
<text text-anchor="middle" x="1148.975" y="-7.5" font-family="Helvetica,sans-Serif" font-size="10.00" fill="#000000">cassert</text>
</g>
<!-- Node6&#45;&gt;Node7 -->
<g id="edge7" class="edge">
<title>Node6&#45;&gt;Node7</title>
<path fill="none" stroke="#191970" d="M1063.0904,-56.2455C1079.42,-47.4527 1103.646,-34.4079 1122.2089,-24.4125"/>
<polygon fill="#191970" stroke="#191970" points="1123.9218,-27.4654 1131.0672,-19.6427 1120.6031,-21.3021 1123.9218,-27.4654"/>
</g>
<!-- Node8 -->
<g id="node9" class="node">
<title>Node8</title>
<polygon fill="#ffffff" stroke="#bfbfbf" points="914.975,-.5 914.975,-19.5 960.975,-19.5 960.975,-.5 914.975,-.5"/>
<text text-anchor="middle" x="937.975" y="-7.5" font-family="Helvetica,sans-Serif" font-size="10.00" fill="#000000">cstdio</text>
</g>
<!-- Node6&#45;&gt;Node8 -->
<g id="edge8" class="edge">
<title>Node6&#45;&gt;Node8</title>
<path fill="none" stroke="#191970" d="M1026.337,-56.2455C1009.5363,-47.4527 984.6115,-34.4079 965.5132,-24.4125"/>
<polygon fill="#191970" stroke="#191970" points="966.8823,-21.1787 956.3994,-19.6427 963.6364,-27.3807 966.8823,-21.1787"/>
</g>
<!-- Node9 -->
<g id="node10" class="node">
<title>Node9</title>
<polygon fill="#ffffff" stroke="#bfbfbf" points="978.975,-.5 978.975,-19.5 1038.975,-19.5 1038.975,-.5 978.975,-.5"/>
<text text-anchor="middle" x="1008.975" y="-7.5" font-family="Helvetica,sans-Serif" font-size="10.00" fill="#000000">iostream</text>
</g>
<!-- Node6&#45;&gt;Node9 -->
<g id="edge9" class="edge">
<title>Node6&#45;&gt;Node9</title>
<path fill="none" stroke="#191970" d="M1038.7043,-56.2455C1033.7486,-48.5367 1026.692,-37.5598 1020.6974,-28.2348"/>
<polygon fill="#191970" stroke="#191970" points="1023.5256,-26.1618 1015.1738,-19.6427 1017.6373,-29.9471 1023.5256,-26.1618"/>
</g>
<!-- Node10 -->
<g id="node11" class="node">
<title>Node10</title>
<polygon fill="#ffffff" stroke="#bfbfbf" points="1417.975,-.5 1417.975,-19.5 1473.975,-19.5 1473.975,-.5 1417.975,-.5"/>
<text text-anchor="middle" x="1445.975" y="-7.5" font-family="Helvetica,sans-Serif" font-size="10.00" fill="#000000">sstream</text>
</g>
<!-- Node6&#45;&gt;Node10 -->
<g id="edge10" class="edge">
<title>Node6&#45;&gt;Node10</title>
<path fill="none" stroke="#191970" d="M1105.0087,-57.6162C1188.552,-45.9493 1337.4818,-25.1512 1407.5391,-15.3676"/>
<polygon fill="#191970" stroke="#191970" points="1408.2653,-18.8002 1417.6851,-13.9507 1407.2971,-11.8675 1408.2653,-18.8002"/>
</g>
<!-- Node11 -->
<g id="node12" class="node">
<title>Node11</title>
<polygon fill="#ffffff" stroke="#bfbfbf" points="1056.975,-.5 1056.975,-19.5 1104.975,-19.5 1104.975,-.5 1056.975,-.5"/>
<text text-anchor="middle" x="1080.975" y="-7.5" font-family="Helvetica,sans-Serif" font-size="10.00" fill="#000000">thread</text>
</g>
<!-- Node6&#45;&gt;Node11 -->
<g id="edge11" class="edge">
<title>Node6&#45;&gt;Node11</title>
<path fill="none" stroke="#191970" d="M1051.2457,-56.2455C1056.2014,-48.5367 1063.258,-37.5598 1069.2526,-28.2348"/>
<polygon fill="#191970" stroke="#191970" points="1072.3126,-29.9471 1074.7761,-19.6427 1066.4244,-26.1618 1072.3126,-29.9471"/>
</g>
<!-- Node14&#45;&gt;Node5 -->
<g id="edge16" class="edge">
<title>Node14&#45;&gt;Node5</title>
<path fill="none" stroke="#191970" d="M807.5502,-235.4639C863.9966,-226.8204 938.9571,-213.2814 965.975,-199 969.7237,-197.0184 1006.1006,-160.9208 1028.1627,-138.863"/>
<polygon fill="#191970" stroke="#191970" points="1030.7016,-141.2738 1035.2924,-131.7253 1025.749,-136.3268 1030.7016,-141.2738"/>
</g>
<!-- Node14&#45;&gt;Node15 -->
<g id="edge17" class="edge">
<title>Node14&#45;&gt;Node15</title>
<path fill="none" stroke="#191970" d="M698.9456,-235.4581C653.6595,-224.6632 579.8515,-207.0694 530.8544,-195.3899"/>
<polygon fill="#191970" stroke="#191970" points="531.6374,-191.9785 521.0983,-193.0643 530.0142,-198.7877 531.6374,-191.9785"/>
</g>
<!-- Node15&#45;&gt;Node5 -->
<g id="edge18" class="edge">
<title>Node15&#45;&gt;Node5</title>
<path fill="none" stroke="#191970" d="M526.6375,-178.5436C611.033,-169.3796 797.138,-149.1556 953.975,-132 964.2718,-130.8737 975.2236,-129.6727 985.8296,-128.5082"/>
<polygon fill="#191970" stroke="#191970" points="986.3016,-131.9775 995.8596,-127.4064 985.5372,-125.0193 986.3016,-131.9775"/>
</g>
<!-- Node16 -->
<g id="node17" class="node">
<title>Node16</title>
<polygon fill="#ffffff" stroke="#bfbfbf" points="408.475,-112.5 408.475,-131.5 477.475,-131.5 477.475,-112.5 408.475,-112.5"/>
<text text-anchor="middle" x="442.975" y="-119.5" font-family="Helvetica,sans-Serif" font-size="10.00" fill="#000000">Eigen/Core</text>
</g>
<!-- Node15&#45;&gt;Node16 -->
<g id="edge19" class="edge">
<title>Node15&#45;&gt;Node16</title>
<path fill="none" stroke="#191970" d="M475.0375,-173.8906C469.5483,-165.0068 461.2397,-151.5601 454.456,-140.5811"/>
<polygon fill="#191970" stroke="#191970" points="457.2301,-138.4122 448.9962,-131.7449 451.2752,-142.0917 457.2301,-138.4122"/>
</g>
<!-- Node17 -->
<g id="node18" class="node">
<title>Node17</title>
<polygon fill="#ffffff" stroke="#bfbfbf" points="295.475,-112.5 295.475,-131.5 390.475,-131.5 390.475,-112.5 295.475,-112.5"/>
<text text-anchor="middle" x="342.975" y="-119.5" font-family="Helvetica,sans-Serif" font-size="10.00" fill="#000000">Eigen/Geometry</text>
</g>
<!-- Node15&#45;&gt;Node17 -->
<g id="edge20" class="edge">
<title>Node15&#45;&gt;Node17</title>
<path fill="none" stroke="#191970" d="M459.4125,-173.8906C436.4238,-163.6457 399.819,-147.3326 373.7925,-135.7339"/>
<polygon fill="#191970" stroke="#191970" points="374.9448,-132.4156 364.3861,-131.5419 372.0954,-138.8095 374.9448,-132.4156"/>
</g>
<!-- Node18 -->
<g id="node19" class="node">
<title>Node18</title>
<polygon fill="#ffffff" stroke="#bfbfbf" points="495.975,-112.5 495.975,-131.5 575.975,-131.5 575.975,-112.5 495.975,-112.5"/>
<text text-anchor="middle" x="535.975" y="-119.5" font-family="Helvetica,sans-Serif" font-size="10.00" fill="#000000">Eigen/Sparse</text>
</g>
<!-- Node15&#45;&gt;Node18 -->
<g id="edge21" class="edge">
<title>Node15&#45;&gt;Node18</title>
<path fill="none" stroke="#191970" d="M489.5687,-173.8906C497.8347,-164.6478 510.5176,-150.466 520.5367,-139.2628"/>
<polygon fill="#191970" stroke="#191970" points="523.2028,-141.5321 527.2601,-131.7449 517.9849,-136.8657 523.2028,-141.5321"/>
</g>
<!-- Node19&#45;&gt;Node3 -->
<g id="edge26" class="edge">
<title>Node19&#45;&gt;Node3</title>
<path fill="none" stroke="#191970" d="M1112.4218,-291.3733C1078.5645,-281.9404 1026.829,-267.5265 990.0323,-257.2747"/>
<polygon fill="#191970" stroke="#191970" points="990.6497,-253.8135 980.0772,-254.5011 988.771,-260.5566 990.6497,-253.8135"/>
</g>
<!-- Node19&#45;&gt;Node5 -->
<g id="edge27" class="edge">
<title>Node19&#45;&gt;Node5</title>
<path fill="none" stroke="#191970" d="M1126.1577,-291.4074C1111.4473,-283.5985 1092.3889,-271.2192 1080.975,-255 1056.4125,-220.0967 1048.601,-169.2423 1046.1223,-141.6246"/>
<polygon fill="#191970" stroke="#191970" points="1049.6112,-141.3446 1045.3716,-131.6351 1042.6309,-141.8693 1049.6112,-141.3446"/>
</g>
<!-- Node20 -->
<g id="node21" class="node">
<title>Node20</title>
<polygon fill="#ffffff" stroke="#bfbfbf" points="1409.975,-174 1409.975,-193 1447.975,-193 1447.975,-174 1409.975,-174"/>
<text text-anchor="middle" x="1428.975" y="-181" font-family="Helvetica,sans-Serif" font-size="10.00" fill="#000000">map</text>
</g>
<!-- Node19&#45;&gt;Node20 -->
<g id="edge25" class="edge">
<title>Node19&#45;&gt;Node20</title>
<path fill="none" stroke="#191970" d="M1207.7065,-295.0647C1249.0476,-289.1579 1304.0221,-277.5528 1347.975,-255 1374.4083,-241.4367 1399.1397,-217.2864 1414.1562,-200.8418"/>
<polygon fill="#191970" stroke="#191970" points="1417.0594,-202.8435 1421.081,-193.0416 1411.8246,-198.1962 1417.0594,-202.8435"/>
</g>
<!-- Node21 -->
<g id="node22" class="node">
<title>Node21</title>
<g id="a_node22"><a xlink:href="Index_8hpp.html" target="_top" xlink:title="Core/Utils/Index.hpp">
<polygon fill="#ffffff" stroke="#000000" points="1222.975,-235.5 1222.975,-254.5 1338.975,-254.5 1338.975,-235.5 1222.975,-235.5"/>
<text text-anchor="middle" x="1280.975" y="-242.5" font-family="Helvetica,sans-Serif" font-size="10.00" fill="#000000">Core/Utils/Index.hpp</text>
</a>
</g>
</g>
<!-- Node19&#45;&gt;Node21 -->
<g id="edge28" class="edge">
<title>Node19&#45;&gt;Node21</title>
<path fill="none" stroke="#191970" d="M1170.0104,-291.3733C1191.7138,-282.3032 1224.4368,-268.6279 1248.7299,-258.4755"/>
<polygon fill="#191970" stroke="#191970" points="1250.363,-261.5865 1258.2401,-254.5011 1247.6639,-255.1278 1250.363,-261.5865"/>
</g>
<!-- Node19&#45;&gt;Node24 -->
<g id="edge33" class="edge">
<title>Node19&#45;&gt;Node24</title>
<path fill="none" stroke="#191970" d="M1207.7048,-291.5004C1270.3221,-281.7055 1367.8899,-266.4435 1434.0204,-256.099"/>
<polygon fill="#191970" stroke="#191970" points="1434.6083,-259.5497 1443.9472,-254.5462 1433.5264,-252.6338 1434.6083,-259.5497"/>
</g>
<!-- Node30 -->
<g id="node31" class="node">
<title>Node30</title>
<g id="a_node31"><a xlink:href="Attribs_8inl.html" target="_top" xlink:title="Core/Utils/Attribs.inl">
<polygon fill="#ffffff" stroke="#000000" points="1089.475,-235.5 1089.475,-254.5 1204.475,-254.5 1204.475,-235.5 1089.475,-235.5"/>
<text text-anchor="middle" x="1146.975" y="-242.5" font-family="Helvetica,sans-Serif" font-size="10.00" fill="#000000">Core/Utils/Attribs.inl</text>
</a>
</g>
</g>
<!-- Node19&#45;&gt;Node30 -->
<g id="edge42" class="edge">
<title>Node19&#45;&gt;Node30</title>
<path fill="none" stroke="#191970" d="M1146.975,-291.2455C1146.975,-283.9382 1146.975,-273.6944 1146.975,-264.7046"/>
<polygon fill="#191970" stroke="#191970" points="1150.4751,-264.6426 1146.975,-254.6427 1143.4751,-264.6427 1150.4751,-264.6426"/>
</g>
<!-- Node21&#45;&gt;Node5 -->
<g id="edge29" class="edge">
<title>Node21&#45;&gt;Node5</title>
<path fill="none" stroke="#191970" d="M1282.4557,-235.4708C1284.3857,-219.2726 1285.6686,-186.3454 1267.975,-168 1245.7762,-144.9834 1162.5706,-132.6866 1104.334,-126.7529"/>
<polygon fill="#191970" stroke="#191970" points="1104.4269,-123.2453 1094.1329,-125.752 1103.7433,-130.2118 1104.4269,-123.2453"/>
</g>
<!-- Node21&#45;&gt;Node22 -->
<g id="edge30" class="edge">
<title>Node21&#45;&gt;Node22</title>
<path fill="none" stroke="#191970" d="M1293.1625,-235.3906C1305.4119,-225.7324 1324.5013,-210.6812 1338.9727,-199.271"/>
<polygon fill="#191970" stroke="#191970" points="1341.1874,-201.9819 1346.8731,-193.0419 1336.8533,-196.485 1341.1874,-201.9819"/>
</g>
<!-- Node23 -->
<g id="node24" class="node">
<title>Node23</title>
<g id="a_node24"><a xlink:href="Index_8inl.html" target="_top" xlink:title="Core/Utils/Index.inl">
<polygon fill="#ffffff" stroke="#000000" points="1148.975,-174 1148.975,-193 1258.975,-193 1258.975,-174 1148.975,-174"/>
<text text-anchor="middle" x="1203.975" y="-181" font-family="Helvetica,sans-Serif" font-size="10.00" fill="#000000">Core/Utils/Index.inl</text>
</a>
</g>
</g>
<!-- Node21&#45;&gt;Node23 -->
<g id="edge31" class="edge">
<title>Node21&#45;&gt;Node23</title>
<path fill="none" stroke="#191970" d="M1263.8812,-235.3906C1250.2457,-225.9683 1231.6862,-211.4134 1218.7046,-200.1137"/>
<polygon fill="#191970" stroke="#191970" points="1220.8576,-197.3422 1211.0871,-193.2449 1216.1699,-202.5409 1220.8576,-197.3422"/>
</g>
<!-- Node23&#45;&gt;Node21 -->
<g id="edge32" class="edge">
<title>Node23&#45;&gt;Node21</title>
<path fill="none" stroke="#191970" d="M1220.971,-193.0419C1234.663,-202.4949 1253.3625,-217.1614 1266.3812,-228.5046"/>
<polygon fill="#191970" stroke="#191970" points="1264.2388,-231.2859 1274.0062,-235.3906 1268.9304,-226.0908 1264.2388,-231.2859"/>
</g>
<!-- Node24&#45;&gt;Node20 -->
<g id="edge41" class="edge">
<title>Node24&#45;&gt;Node20</title>
<path fill="none" stroke="#191970" d="M1493.1,-235.3906C1481.3453,-225.8786 1463.1264,-211.1357 1449.1078,-199.7917"/>
<polygon fill="#191970" stroke="#191970" points="1450.9928,-196.8146 1441.0174,-193.2449 1446.5894,-202.2562 1450.9928,-196.8146"/>
</g>
<!-- Node25 -->
<g id="node26" class="node">
<title>Node25</title>
<g id="a_node26"><a xlink:href="Log_8hpp.html" target="_top" xlink:title="Core/Utils/Log.hpp">
<polygon fill="#ffffff" stroke="#000000" points="1670.975,-174 1670.975,-193 1776.975,-193 1776.975,-174 1670.975,-174"/>
<text text-anchor="middle" x="1723.975" y="-181" font-family="Helvetica,sans-Serif" font-size="10.00" fill="#000000">Core/Utils/Log.hpp</text>
</a>
</g>
</g>
<!-- Node24&#45;&gt;Node25 -->
<g id="edge34" class="edge">
<title>Node24&#45;&gt;Node25</title>
<path fill="none" stroke="#191970" d="M1539.1937,-235.3906C1577.2025,-224.7169 1638.6661,-207.4566 1680.1634,-195.8033"/>
<polygon fill="#191970" stroke="#191970" points="1681.3152,-199.1153 1689.9965,-193.0419 1679.4226,-192.3759 1681.3152,-199.1153"/>
</g>
<!-- Node29 -->
<g id="node30" class="node">
<title>Node29</title>
<polygon fill="#ffffff" stroke="#bfbfbf" points="1472.475,-174 1472.475,-193 1537.475,-193 1537.475,-174 1472.475,-174"/>
<text text-anchor="middle" x="1504.975" y="-181" font-family="Helvetica,sans-Serif" font-size="10.00" fill="#000000">functional</text>
</g>
<!-- Node24&#45;&gt;Node29 -->
<g id="edge40" class="edge">
<title>Node24&#45;&gt;Node29</title>
<path fill="none" stroke="#191970" d="M1504.975,-235.3906C1504.975,-226.8657 1504.975,-214.1392 1504.975,-203.4235"/>
<polygon fill="#191970" stroke="#191970" points="1508.4751,-203.2448 1504.975,-193.2449 1501.4751,-203.2449 1508.4751,-203.2448"/>
</g>
<!-- Node25&#45;&gt;Node5 -->
<g id="edge35" class="edge">
<title>Node25&#45;&gt;Node5</title>
<path fill="none" stroke="#191970" d="M1687.3086,-173.9568C1677.5112,-171.6985 1666.8895,-169.5104 1656.975,-168 1455.6958,-137.336 1213.918,-126.8198 1104.2444,-123.4583"/>
<polygon fill="#191970" stroke="#191970" points="1104.1487,-119.9539 1094.049,-123.1548 1103.9404,-126.9509 1104.1487,-119.9539"/>
</g>
<!-- Node25&#45;&gt;Node10 -->
<g id="edge37" class="edge">
<title>Node25&#45;&gt;Node10</title>
<path fill="none" stroke="#191970" d="M1724.0418,-173.9018C1723.6324,-158.8636 1720.6942,-129.6472 1704.975,-112 1646.5723,-46.434 1540.6067,-22.5572 1484.0107,-14.2201"/>
<polygon fill="#191970" stroke="#191970" points="1484.426,-10.7443 1474.0401,-12.8377 1483.4646,-17.678 1484.426,-10.7443"/>
</g>
<!-- Node26 -->
<g id="node27" class="node">
<title>Node26</title>
<polygon fill="#ffffff" stroke="#bfbfbf" points="1751.975,-112.5 1751.975,-131.5 1795.975,-131.5 1795.975,-112.5 1751.975,-112.5"/>
<text text-anchor="middle" x="1773.975" y="-119.5" font-family="Helvetica,sans-Serif" font-size="10.00" fill="#000000">ctime</text>
</g>
<!-- Node25&#45;&gt;Node26 -->
<g id="edge36" class="edge">
<title>Node25&#45;&gt;Node26</title>
<path fill="none" stroke="#191970" d="M1731.7875,-173.8906C1739.229,-164.7376 1750.6084,-150.7409 1759.6742,-139.59"/>
<polygon fill="#191970" stroke="#191970" points="1762.4597,-141.712 1766.0523,-131.7449 1757.0283,-137.2962 1762.4597,-141.712"/>
</g>
<!-- Node27 -->
<g id="node28" class="node">
<title>Node27</title>
<polygon fill="#ffffff" stroke="#bfbfbf" points="1583.975,-112.5 1583.975,-131.5 1633.975,-131.5 1633.975,-112.5 1583.975,-112.5"/>
<text text-anchor="middle" x="1608.975" y="-119.5" font-family="Helvetica,sans-Serif" font-size="10.00" fill="#000000">stdio.h</text>
</g>
<!-- Node25&#45;&gt;Node27 -->
<g id="edge38" class="edge">
<title>Node25&#45;&gt;Node27</title>
<path fill="none" stroke="#191970" d="M1706.0062,-173.8906C1687.1866,-163.8262 1657.4165,-147.9057 1635.8109,-136.3514"/>
<polygon fill="#191970" stroke="#191970" points="1637.2863,-133.1714 1626.8175,-131.5419 1633.9852,-139.3442 1637.2863,-133.1714"/>
</g>
<!-- Node28 -->
<g id="node29" class="node">
<title>Node28</title>
<polygon fill="#ffffff" stroke="#bfbfbf" points="1651.975,-112.5 1651.975,-131.5 1695.975,-131.5 1695.975,-112.5 1651.975,-112.5"/>
<text text-anchor="middle" x="1673.975" y="-119.5" font-family="Helvetica,sans-Serif" font-size="10.00" fill="#000000">string</text>
</g>
<!-- Node25&#45;&gt;Node28 -->
<g id="edge39" class="edge">
<title>Node25&#45;&gt;Node28</title>
<path fill="none" stroke="#191970" d="M1716.1625,-173.8906C1708.721,-164.7376 1697.3416,-150.7409 1688.2758,-139.59"/>
<polygon fill="#191970" stroke="#191970" points="1690.9217,-137.2962 1681.8976,-131.7449 1685.4902,-141.712 1690.9217,-137.2962"/>
</g>
<!-- Node31&#45;&gt;Node6 -->
<g id="edge44" class="edge">
<title>Node31&#45;&gt;Node6</title>
<path fill="none" stroke="#191970" d="M158.6878,-235.4773C115.8539,-227.039 60.5013,-213.7878 42.975,-199 11.6023,-172.5294 -16.3974,-141.6639 11.975,-112 45.2375,-77.2233 747.6888,-68.4313 974.8132,-66.4936"/>
<polygon fill="#191970" stroke="#191970" points="974.9741,-69.9924 984.9445,-66.409 974.9156,-62.9927 974.9741,-69.9924"/>
</g>
<!-- Node31&#45;&gt;Node16 -->
<g id="edge51" class="edge">
<title>Node31&#45;&gt;Node16</title>
<path fill="none" stroke="#191970" d="M214.9581,-235.2889C218.846,-218.816 229.0733,-185.4859 250.975,-168 253.9065,-165.6595 342.6536,-145 398.4507,-132.1765"/>
<polygon fill="#191970" stroke="#191970" points="399.4942,-135.5281 408.4577,-129.8795 397.9281,-128.7055 399.4942,-135.5281"/>
</g>
<!-- Node31&#45;&gt;Node17 -->
<g id="edge52" class="edge">
<title>Node31&#45;&gt;Node17</title>
<path fill="none" stroke="#191970" d="M210.5476,-235.3549C207.1814,-219.5652 203.0645,-187.9633 217.975,-168 227.4958,-155.2528 262.8984,-142.9184 293.6074,-134.2363"/>
<polygon fill="#191970" stroke="#191970" points="294.6605,-137.5767 303.3742,-131.5498 292.804,-130.8273 294.6605,-137.5767"/>
</g>
<!-- Node32 -->
<g id="node33" class="node">
<title>Node32</title>
<g id="a_node33"><a xlink:href="Math_8hpp.html" target="_top" xlink:title="Core/Math/Math.hpp">
<polygon fill="#ffffff" stroke="#000000" points="51.975,-174 51.975,-193 165.975,-193 165.975,-174 51.975,-174"/>
<text text-anchor="middle" x="108.975" y="-181" font-family="Helvetica,sans-Serif" font-size="10.00" fill="#000000">Core/Math/Math.hpp</text>
</a>
</g>
</g>
<!-- Node31&#45;&gt;Node32 -->
<g id="edge45" class="edge">
<title>Node31&#45;&gt;Node32</title>
<path fill="none" stroke="#191970" d="M196.725,-235.3906C179.8581,-225.4165 153.2651,-209.6908 133.7715,-198.1633"/>
<polygon fill="#191970" stroke="#191970" points="135.5,-195.1194 125.1109,-193.0419 131.937,-201.1447 135.5,-195.1194"/>
</g>
<!-- Node36 -->
<g id="node37" class="node">
<title>Node36</title>
<polygon fill="#ffffff" stroke="#bfbfbf" points="259.975,-174 259.975,-193 313.975,-193 313.975,-174 259.975,-174"/>
<text text-anchor="middle" x="286.975" y="-181" font-family="Helvetica,sans-Serif" font-size="10.00" fill="#000000">random</text>
</g>
<!-- Node31&#45;&gt;Node36 -->
<g id="edge53" class="edge">
<title>Node31&#45;&gt;Node36</title>
<path fill="none" stroke="#191970" d="M224.5375,-235.3906C235.9828,-225.8786 253.7223,-211.1357 267.372,-199.7917"/>
<polygon fill="#191970" stroke="#191970" points="269.7958,-202.3283 275.2495,-193.2449 265.3216,-196.9447 269.7958,-202.3283"/>
</g>
<!-- Node32&#45;&gt;Node5 -->
<g id="edge46" class="edge">
<title>Node32&#45;&gt;Node5</title>
<path fill="none" stroke="#191970" d="M166.2502,-176.4888C192.1007,-173.5202 223.0414,-170.2379 250.975,-168 562.8296,-143.0157 642.1294,-157.0976 953.975,-132 964.2998,-131.169 975.2654,-130.1131 985.8764,-129.0005"/>
<polygon fill="#191970" stroke="#191970" points="986.34,-132.4709 995.9086,-127.922 985.5917,-125.511 986.34,-132.4709"/>
</g>
<!-- Node32&#45;&gt;Node33 -->
<g id="edge47" class="edge">
<title>Node32&#45;&gt;Node33</title>
<path fill="none" stroke="#191970" d="M130.225,-173.8906C152.8805,-163.6457 188.9548,-147.3326 214.604,-135.7339"/>
<polygon fill="#191970" stroke="#191970" points="216.2047,-138.8514 223.8742,-131.5419 213.3204,-132.4732 216.2047,-138.8514"/>
</g>
<!-- Node34 -->
<g id="node35" class="node">
<title>Node34</title>
<polygon fill="#ffffff" stroke="#bfbfbf" points="21.475,-112.5 21.475,-131.5 68.475,-131.5 68.475,-112.5 21.475,-112.5"/>
<text text-anchor="middle" x="44.975" y="-119.5" font-family="Helvetica,sans-Serif" font-size="10.00" fill="#000000">cmath</text>
</g>
<!-- Node32&#45;&gt;Node34 -->
<g id="edge48" class="edge">
<title>Node32&#45;&gt;Node34</title>
<path fill="none" stroke="#191970" d="M98.975,-173.8906C89.2631,-164.5581 74.3111,-150.1902 62.6009,-138.9374"/>
<polygon fill="#191970" stroke="#191970" points="64.7516,-136.15 55.116,-131.7449 59.9014,-141.1974 64.7516,-136.15"/>
</g>
<!-- Node35 -->
<g id="node36" class="node">
<title>Node35</title>
<g id="a_node36"><a xlink:href="Math_8inl.html" target="_top" xlink:title="Core/Math/Math.inl">
<polygon fill="#ffffff" stroke="#000000" points="86.975,-112.5 86.975,-131.5 194.975,-131.5 194.975,-112.5 86.975,-112.5"/>
<text text-anchor="middle" x="140.975" y="-119.5" font-family="Helvetica,sans-Serif" font-size="10.00" fill="#000000">Core/Math/Math.inl</text>
</a>
</g>
</g>
<!-- Node32&#45;&gt;Node35 -->
<g id="edge49" class="edge">
<title>Node32&#45;&gt;Node35</title>
<path fill="none" stroke="#191970" d="M108.9125,-173.8906C111.8307,-164.917 118.5339,-151.2879 125.2519,-140.2491"/>
<polygon fill="#191970" stroke="#191970" points="128.2698,-142.0293 130.8157,-131.7449 122.412,-138.1969 128.2698,-142.0293"/>
</g>
<!-- Node35&#45;&gt;Node32 -->
<g id="edge50" class="edge">
<title>Node35&#45;&gt;Node32</title>
<path fill="none" stroke="#191970" d="M140.9932,-131.7449C138.0371,-140.765 131.3149,-154.4043 124.5969,-165.4169"/>
<polygon fill="#191970" stroke="#191970" points="121.5967,-163.6095 119.0375,-173.8906 127.4495,-167.4494 121.5967,-163.6095"/>
</g>
<!-- Node37&#45;&gt;Node2 -->
<g id="edge56" class="edge">
<title>Node37&#45;&gt;Node2</title>
<path fill="none" stroke="#191970" d="M691.022,-310.6427C710.7147,-319.3993 737.7447,-332.4388 757.1186,-342.46"/>
<polygon fill="#191970" stroke="#191970" points="755.7311,-345.6849 766.2104,-347.2455 758.9916,-339.4905 755.7311,-345.6849"/>
</g>
<!-- Node38 -->
<g id="node39" class="node">
<title>Node38</title>
<g id="a_node39"><a xlink:href="TriangleOperation_8hpp.html" target="_top" xlink:title="Core/Geometry/TriangleOperation.hpp">
<polygon fill="#ffffff" stroke="#000000" points="418.475,-235.5 418.475,-254.5 619.475,-254.5 619.475,-235.5 418.475,-235.5"/>
<text text-anchor="middle" x="518.975" y="-242.5" font-family="Helvetica,sans-Serif" font-size="10.00" fill="#000000">Core/Geometry/TriangleOperation.hpp</text>
</a>
</g>
</g>
<!-- Node37&#45;&gt;Node38 -->
<g id="edge57" class="edge">
<title>Node37&#45;&gt;Node38</title>
<path fill="none" stroke="#191970" d="M640.7048,-291.3733C616.5784,-282.1822 580.0388,-268.2624 553.2873,-258.0713"/>
<polygon fill="#191970" stroke="#191970" points="554.5063,-254.7904 543.9154,-254.5011 552.0143,-261.3318 554.5063,-254.7904"/>
</g>
<!-- Node38&#45;&gt;Node15 -->
<g id="edge58" class="edge">
<title>Node38&#45;&gt;Node15</title>
<path fill="none" stroke="#191970" d="M513.0375,-235.3906C507.5483,-226.5068 499.2397,-213.0601 492.456,-202.0811"/>
<polygon fill="#191970" stroke="#191970" points="495.2301,-199.9122 486.9962,-193.2449 489.2752,-203.5917 495.2301,-199.9122"/>
</g>
</g>
</svg>
