<?xml version="1.0" encoding="UTF-8" standalone="no"?>
<!DOCTYPE svg PUBLIC "-//W3C//DTD SVG 1.1//EN"
 "http://www.w3.org/Graphics/SVG/1.1/DTD/svg11.dtd">
<!-- Generated by graphviz version 2.43.0 (0)
 -->
<!-- Title: /home/runner/work/Radium&#45;Engine/Radium&#45;Engine/src/Radium&#45;Engine/src/Engine/Scene/Entity.inl Pages: 1 -->
<svg width="2739pt" height="417pt"
 viewBox="0.00 0.00 2739.00 417.00" xmlns="http://www.w3.org/2000/svg" xmlns:xlink="http://www.w3.org/1999/xlink">
<g id="graph0" class="graph" transform="scale(1 1) rotate(0) translate(4 413)">
<title>/home/runner/work/Radium&#45;Engine/Radium&#45;Engine/src/Radium&#45;Engine/src/Engine/Scene/Entity.inl</title>
<polygon fill="white" stroke="transparent" points="-4,4 -4,-413 2735,-413 2735,4 -4,4"/>
<!-- Node1 -->
<g id="node1" class="node">
<title>Node1</title>
<g id="a_node1"><a xlink:title=" ">
<polygon fill="#bfbfbf" stroke="black" points="1217.5,-356.5 1217.5,-408.5 1366.5,-408.5 1366.5,-356.5 1217.5,-356.5"/>
<text text-anchor="start" x="1225.5" y="-396.5" font-family="Helvetica,sans-Serif" font-size="10.00">/home/runner/work/Radium</text>
<text text-anchor="start" x="1225.5" y="-385.5" font-family="Helvetica,sans-Serif" font-size="10.00">&#45;Engine/Radium&#45;Engine/src</text>
<text text-anchor="start" x="1225.5" y="-374.5" font-family="Helvetica,sans-Serif" font-size="10.00">/Radium&#45;Engine/src/Engine</text>
<text text-anchor="middle" x="1292" y="-363.5" font-family="Helvetica,sans-Serif" font-size="10.00">/Scene/Entity.inl</text>
</a>
</g>
</g>
<!-- Node2 -->
<g id="node2" class="node">
<title>Node2</title>
<g id="a_node2"><a xlink:href="Entity_8hpp.html" target="_top" xlink:title=" ">
<polygon fill="white" stroke="black" points="1217.5,-267.5 1217.5,-319.5 1366.5,-319.5 1366.5,-267.5 1217.5,-267.5"/>
<text text-anchor="start" x="1225.5" y="-307.5" font-family="Helvetica,sans-Serif" font-size="10.00">/home/runner/work/Radium</text>
<text text-anchor="start" x="1225.5" y="-296.5" font-family="Helvetica,sans-Serif" font-size="10.00">&#45;Engine/Radium&#45;Engine/src</text>
<text text-anchor="start" x="1225.5" y="-285.5" font-family="Helvetica,sans-Serif" font-size="10.00">/Radium&#45;Engine/src/Engine</text>
<text text-anchor="middle" x="1292" y="-274.5" font-family="Helvetica,sans-Serif" font-size="10.00">/Scene/Entity.hpp</text>
</a>
</g>
</g>
<!-- Node1&#45;&gt;Node2 -->
<g id="edge1" class="edge">
<title>Node1&#45;&gt;Node2</title>
<path fill="none" stroke="midnightblue" d="M1285.36,-346.19C1285.12,-337.28 1285.27,-327.9 1285.82,-319.61"/>
<polygon fill="midnightblue" stroke="midnightblue" points="1281.87,-346.5 1285.81,-356.34 1288.86,-346.19 1281.87,-346.5"/>
</g>
<!-- Node2&#45;&gt;Node1 -->
<g id="edge3" class="edge">
<title>Node2&#45;&gt;Node1</title>
<path fill="none" stroke="midnightblue" d="M1298.64,-329.75C1298.88,-338.65 1298.73,-348.04 1298.19,-356.34"/>
<polygon fill="midnightblue" stroke="midnightblue" points="1302.13,-329.44 1298.18,-319.61 1295.14,-329.76 1302.13,-329.44"/>
</g>
<!-- Node3 -->
<g id="node3" class="node">
<title>Node3</title>
<g id="a_node3"><a xlink:href="RadiumEngine_8cpp.html" target="_top" xlink:title=" ">
<polygon fill="white" stroke="black" points="302.5,-89.5 302.5,-141.5 451.5,-141.5 451.5,-89.5 302.5,-89.5"/>
<text text-anchor="start" x="310.5" y="-129.5" font-family="Helvetica,sans-Serif" font-size="10.00">/home/runner/work/Radium</text>
<text text-anchor="start" x="310.5" y="-118.5" font-family="Helvetica,sans-Serif" font-size="10.00">&#45;Engine/Radium&#45;Engine/src</text>
<text text-anchor="start" x="310.5" y="-107.5" font-family="Helvetica,sans-Serif" font-size="10.00">/Radium&#45;Engine/src/Engine</text>
<text text-anchor="middle" x="377" y="-96.5" font-family="Helvetica,sans-Serif" font-size="10.00">/RadiumEngine.cpp</text>
</a>
</g>
</g>
<!-- Node2&#45;&gt;Node3 -->
<g id="edge2" class="edge">
<title>Node2&#45;&gt;Node3</title>
<path fill="none" stroke="midnightblue" d="M1207.38,-291.73C1085.57,-288.94 854.5,-277.34 664,-231 577.86,-210.05 483.34,-168.44 427.15,-141.57"/>
<polygon fill="midnightblue" stroke="midnightblue" points="1207.32,-295.23 1217.39,-291.95 1207.47,-288.23 1207.32,-295.23"/>
</g>
<!-- Node4 -->
<g id="node4" class="node">
<title>Node4</title>
<g id="a_node4"><a xlink:href="SystemDisplay_8hpp.html" target="_top" xlink:title=" ">
<polygon fill="white" stroke="black" points="811.5,-178.5 811.5,-230.5 960.5,-230.5 960.5,-178.5 811.5,-178.5"/>
<text text-anchor="start" x="819.5" y="-218.5" font-family="Helvetica,sans-Serif" font-size="10.00">/home/runner/work/Radium</text>
<text text-anchor="start" x="819.5" y="-207.5" font-family="Helvetica,sans-Serif" font-size="10.00">&#45;Engine/Radium&#45;Engine/src</text>
<text text-anchor="start" x="819.5" y="-196.5" font-family="Helvetica,sans-Serif" font-size="10.00">/Radium&#45;Engine/src/Engine</text>
<text text-anchor="middle" x="886" y="-185.5" font-family="Helvetica,sans-Serif" font-size="10.00">/Scene/SystemDisplay.hpp</text>
</a>
</g>
</g>
<!-- Node2&#45;&gt;Node4 -->
<g id="edge4" class="edge">
<title>Node2&#45;&gt;Node4</title>
<path fill="none" stroke="midnightblue" d="M1207.28,-278.28C1142.95,-266.96 1052.48,-249.92 974,-231 969.67,-229.96 965.23,-228.84 960.77,-227.67"/>
<polygon fill="midnightblue" stroke="midnightblue" points="1206.92,-281.77 1217.37,-280.05 1208.13,-274.87 1206.92,-281.77"/>
</g>
<!-- Node6 -->
<g id="node6" class="node">
<title>Node6</title>
<g id="a_node6"><a xlink:href="CameraManager_8cpp.html" target="_top" xlink:title=" ">
<polygon fill="white" stroke="black" points="470,-89.5 470,-141.5 622,-141.5 622,-89.5 470,-89.5"/>
<text text-anchor="start" x="478" y="-129.5" font-family="Helvetica,sans-Serif" font-size="10.00">/home/runner/work/Radium</text>
<text text-anchor="start" x="478" y="-118.5" font-family="Helvetica,sans-Serif" font-size="10.00">&#45;Engine/Radium&#45;Engine/src</text>
<text text-anchor="start" x="478" y="-107.5" font-family="Helvetica,sans-Serif" font-size="10.00">/Radium&#45;Engine/src/Engine</text>
<text text-anchor="middle" x="546" y="-96.5" font-family="Helvetica,sans-Serif" font-size="10.00">/Scene/CameraManager.cpp</text>
</a>
</g>
</g>
<!-- Node2&#45;&gt;Node6 -->
<g id="edge24" class="edge">
<title>Node2&#45;&gt;Node6</title>
<path fill="none" stroke="midnightblue" d="M1207.13,-289.37C1108.41,-284.02 941.3,-269.59 803,-231 725.61,-209.4 641.56,-168.28 591.36,-141.65"/>
<polygon fill="midnightblue" stroke="midnightblue" points="1207.18,-292.88 1217.35,-289.91 1207.54,-285.89 1207.18,-292.88"/>
</g>
<!-- Node9 -->
<g id="node9" class="node">
<title>Node9</title>
<g id="a_node9"><a xlink:href="LightManager_8cpp.html" target="_top" xlink:title=" ">
<polygon fill="white" stroke="black" points="1996.5,-89.5 1996.5,-141.5 2145.5,-141.5 2145.5,-89.5 1996.5,-89.5"/>
<text text-anchor="start" x="2004.5" y="-129.5" font-family="Helvetica,sans-Serif" font-size="10.00">/home/runner/work/Radium</text>
<text text-anchor="start" x="2004.5" y="-118.5" font-family="Helvetica,sans-Serif" font-size="10.00">&#45;Engine/Radium&#45;Engine/src</text>
<text text-anchor="start" x="2004.5" y="-107.5" font-family="Helvetica,sans-Serif" font-size="10.00">/Radium&#45;Engine/src/Engine</text>
<text text-anchor="middle" x="2071" y="-96.5" font-family="Helvetica,sans-Serif" font-size="10.00">/Scene/LightManager.cpp</text>
</a>
</g>
</g>
<!-- Node2&#45;&gt;Node9 -->
<g id="edge28" class="edge">
<title>Node2&#45;&gt;Node9</title>
<path fill="none" stroke="midnightblue" d="M1207.38,-285.8C1101.56,-274.45 941.75,-245.69 1007,-178 1044.85,-138.74 1934.23,-151.09 1988,-142 1990.68,-141.55 1993.39,-141.03 1996.11,-140.47"/>
<polygon fill="midnightblue" stroke="midnightblue" points="1207.13,-289.29 1217.44,-286.84 1207.86,-282.33 1207.13,-289.29"/>
</g>
<!-- Node15 -->
<g id="node15" class="node">
<title>Node15</title>
<g id="a_node15"><a xlink:href="GeometryComponent_8inl.html" target="_top" xlink:title=" ">
<polygon fill="white" stroke="black" points="110,-178.5 110,-230.5 282,-230.5 282,-178.5 110,-178.5"/>
<text text-anchor="start" x="118" y="-218.5" font-family="Helvetica,sans-Serif" font-size="10.00">/home/runner/work/Radium</text>
<text text-anchor="start" x="118" y="-207.5" font-family="Helvetica,sans-Serif" font-size="10.00">&#45;Engine/Radium&#45;Engine/src</text>
<text text-anchor="start" x="118" y="-196.5" font-family="Helvetica,sans-Serif" font-size="10.00">/Radium&#45;Engine/src/Engine</text>
<text text-anchor="middle" x="196" y="-185.5" font-family="Helvetica,sans-Serif" font-size="10.00">/Scene/GeometryComponent.inl</text>
</a>
</g>
</g>
<!-- Node2&#45;&gt;Node15 -->
<g id="edge16" class="edge">
<title>Node2&#45;&gt;Node15</title>
<path fill="none" stroke="midnightblue" d="M1206.99,-287.54C1051.99,-278.24 713.12,-256.81 428,-231 379.67,-226.63 325.8,-220.76 282.13,-215.76"/>
<polygon fill="midnightblue" stroke="midnightblue" points="1207.19,-291.05 1217.38,-288.16 1207.61,-284.07 1207.19,-291.05"/>
</g>
<!-- Node18 -->
<g id="node18" class="node">
<title>Node18</title>
<g id="a_node18"><a xlink:href="GeometrySystem_8cpp.html" target="_top" xlink:title=" ">
<polygon fill="white" stroke="black" points="0,-0.5 0,-52.5 158,-52.5 158,-0.5 0,-0.5"/>
<text text-anchor="start" x="8" y="-40.5" font-family="Helvetica,sans-Serif" font-size="10.00">/home/runner/work/Radium</text>
<text text-anchor="start" x="8" y="-29.5" font-family="Helvetica,sans-Serif" font-size="10.00">&#45;Engine/Radium&#45;Engine/src</text>
<text text-anchor="start" x="8" y="-18.5" font-family="Helvetica,sans-Serif" font-size="10.00">/Radium&#45;Engine/src/Engine</text>
<text text-anchor="middle" x="79" y="-7.5" font-family="Helvetica,sans-Serif" font-size="10.00">/Scene/GeometrySystem.cpp</text>
</a>
</g>
</g>
<!-- Node2&#45;&gt;Node18 -->
<g id="edge27" class="edge">
<title>Node2&#45;&gt;Node18</title>
<path fill="none" stroke="midnightblue" d="M1206.91,-291.1C941.02,-286.34 141.11,-268.92 101,-231 52.2,-184.86 63.46,-95.93 72.7,-52.54"/>
<polygon fill="midnightblue" stroke="midnightblue" points="1207.21,-294.61 1217.27,-291.29 1207.34,-287.61 1207.21,-294.61"/>
</g>
<!-- Node19 -->
<g id="node19" class="node">
<title>Node19</title>
<g id="a_node19"><a xlink:href="RenderObject_8cpp.html" target="_top" xlink:title=" ">
<polygon fill="white" stroke="black" points="1016,-178.5 1016,-230.5 1174,-230.5 1174,-178.5 1016,-178.5"/>
<text text-anchor="start" x="1024" y="-218.5" font-family="Helvetica,sans-Serif" font-size="10.00">/home/runner/work/Radium</text>
<text text-anchor="start" x="1024" y="-207.5" font-family="Helvetica,sans-Serif" font-size="10.00">&#45;Engine/Radium&#45;Engine/src</text>
<text text-anchor="start" x="1024" y="-196.5" font-family="Helvetica,sans-Serif" font-size="10.00">/Radium&#45;Engine/src/Engine</text>
<text text-anchor="middle" x="1095" y="-185.5" font-family="Helvetica,sans-Serif" font-size="10.00">/Rendering/RenderObject.cpp</text>
</a>
</g>
</g>
<!-- Node2&#45;&gt;Node19 -->
<g id="edge22" class="edge">
<title>Node2&#45;&gt;Node19</title>
<path fill="none" stroke="midnightblue" d="M1225.87,-263.29C1201.8,-252.67 1174.83,-240.76 1151.66,-230.52"/>
<polygon fill="midnightblue" stroke="midnightblue" points="1224.72,-266.61 1235.28,-267.45 1227.55,-260.21 1224.72,-266.61"/>
</g>
<!-- Node20 -->
<g id="node20" class="node">
<title>Node20</title>
<g id="a_node20"><a xlink:href="RenderObjectManager_8cpp.html" target="_top" xlink:title=" ">
<polygon fill="white" stroke="black" points="1192,-178.5 1192,-230.5 1392,-230.5 1392,-178.5 1192,-178.5"/>
<text text-anchor="start" x="1200" y="-218.5" font-family="Helvetica,sans-Serif" font-size="10.00">/home/runner/work/Radium</text>
<text text-anchor="start" x="1200" y="-207.5" font-family="Helvetica,sans-Serif" font-size="10.00">&#45;Engine/Radium&#45;Engine/src</text>
<text text-anchor="start" x="1200" y="-196.5" font-family="Helvetica,sans-Serif" font-size="10.00">/Radium&#45;Engine/src/Engine</text>
<text text-anchor="middle" x="1292" y="-185.5" font-family="Helvetica,sans-Serif" font-size="10.00">/Rendering/RenderObjectManager.cpp</text>
</a>
</g>
</g>
<!-- Node2&#45;&gt;Node20 -->
<g id="edge23" class="edge">
<title>Node2&#45;&gt;Node20</title>
<path fill="none" stroke="midnightblue" d="M1292,-257.19C1292,-248.28 1292,-238.9 1292,-230.61"/>
<polygon fill="midnightblue" stroke="midnightblue" points="1288.5,-257.34 1292,-267.34 1295.5,-257.34 1288.5,-257.34"/>
</g>
<!-- Node21 -->
<g id="node21" class="node">
<title>Node21</title>
<g id="a_node21"><a xlink:href="Component_8cpp.html" target="_top" xlink:title=" ">
<polygon fill="white" stroke="black" points="1410.5,-178.5 1410.5,-230.5 1559.5,-230.5 1559.5,-178.5 1410.5,-178.5"/>
<text text-anchor="start" x="1418.5" y="-218.5" font-family="Helvetica,sans-Serif" font-size="10.00">/home/runner/work/Radium</text>
<text text-anchor="start" x="1418.5" y="-207.5" font-family="Helvetica,sans-Serif" font-size="10.00">&#45;Engine/Radium&#45;Engine/src</text>
<text text-anchor="start" x="1418.5" y="-196.5" font-family="Helvetica,sans-Serif" font-size="10.00">/Radium&#45;Engine/src/Engine</text>
<text text-anchor="middle" x="1485" y="-185.5" font-family="Helvetica,sans-Serif" font-size="10.00">/Scene/Component.cpp</text>
</a>
</g>
</g>
<!-- Node2&#45;&gt;Node21 -->
<g id="edge25" class="edge">
<title>Node2&#45;&gt;Node21</title>
<path fill="none" stroke="midnightblue" d="M1356.79,-263.29C1380.37,-252.67 1406.79,-240.76 1429.49,-230.52"/>
<polygon fill="midnightblue" stroke="midnightblue" points="1355.24,-260.15 1347.56,-267.45 1358.12,-266.53 1355.24,-260.15"/>
</g>
<!-- Node22 -->
<g id="node22" class="node">
<title>Node22</title>
<g id="a_node22"><a xlink:href="Entity_8cpp.html" target="_top" xlink:title=" ">
<polygon fill="white" stroke="black" points="1577.5,-178.5 1577.5,-230.5 1726.5,-230.5 1726.5,-178.5 1577.5,-178.5"/>
<text text-anchor="start" x="1585.5" y="-218.5" font-family="Helvetica,sans-Serif" font-size="10.00">/home/runner/work/Radium</text>
<text text-anchor="start" x="1585.5" y="-207.5" font-family="Helvetica,sans-Serif" font-size="10.00">&#45;Engine/Radium&#45;Engine/src</text>
<text text-anchor="start" x="1585.5" y="-196.5" font-family="Helvetica,sans-Serif" font-size="10.00">/Radium&#45;Engine/src/Engine</text>
<text text-anchor="middle" x="1652" y="-185.5" font-family="Helvetica,sans-Serif" font-size="10.00">/Scene/Entity.cpp</text>
</a>
</g>
</g>
<!-- Node2&#45;&gt;Node22 -->
<g id="edge26" class="edge">
<title>Node2&#45;&gt;Node22</title>
<path fill="none" stroke="midnightblue" d="M1376.81,-275.5C1431.86,-264.01 1505,-247.91 1569,-231 1571.77,-230.27 1574.58,-229.51 1577.42,-228.72"/>
<polygon fill="midnightblue" stroke="midnightblue" points="1375.83,-272.13 1366.75,-277.59 1377.25,-278.98 1375.83,-272.13"/>
</g>
<!-- Node23 -->
<g id="node23" class="node">
<title>Node23</title>
<g id="a_node23"><a xlink:href="System_8cpp.html" target="_top" xlink:title=" ">
<polygon fill="white" stroke="black" points="1744.5,-178.5 1744.5,-230.5 1893.5,-230.5 1893.5,-178.5 1744.5,-178.5"/>
<text text-anchor="start" x="1752.5" y="-218.5" font-family="Helvetica,sans-Serif" font-size="10.00">/home/runner/work/Radium</text>
<text text-anchor="start" x="1752.5" y="-207.5" font-family="Helvetica,sans-Serif" font-size="10.00">&#45;Engine/Radium&#45;Engine/src</text>
<text text-anchor="start" x="1752.5" y="-196.5" font-family="Helvetica,sans-Serif" font-size="10.00">/Radium&#45;Engine/src/Engine</text>
<text text-anchor="middle" x="1819" y="-185.5" font-family="Helvetica,sans-Serif" font-size="10.00">/Scene/System.cpp</text>
</a>
</g>
</g>
<!-- Node2&#45;&gt;Node23 -->
<g id="edge29" class="edge">
<title>Node2&#45;&gt;Node23</title>
<path fill="none" stroke="midnightblue" d="M1377.03,-284.82C1466.93,-275.74 1612.54,-258.33 1736,-231 1738.8,-230.38 1741.63,-229.71 1744.49,-229.01"/>
<polygon fill="midnightblue" stroke="midnightblue" points="1376.49,-281.35 1366.89,-285.83 1377.19,-288.32 1376.49,-281.35"/>
</g>
<!-- Node24 -->
<g id="node24" class="node">
<title>Node24</title>
<g id="a_node24"><a xlink:href="SkeletonBasedAnimationUI_8cpp.html" target="_top" xlink:title=" ">
<polygon fill="white" stroke="black" points="1911.5,-178.5 1911.5,-230.5 2134.5,-230.5 2134.5,-178.5 1911.5,-178.5"/>
<text text-anchor="start" x="1919.5" y="-218.5" font-family="Helvetica,sans-Serif" font-size="10.00">/home/runner/work/Radium</text>
<text text-anchor="start" x="1919.5" y="-207.5" font-family="Helvetica,sans-Serif" font-size="10.00">&#45;Engine/Radium&#45;Engine/src</text>
<text text-anchor="start" x="1919.5" y="-196.5" font-family="Helvetica,sans-Serif" font-size="10.00">/Radium&#45;Engine/src/Gui/SkeletonBased</text>
<text text-anchor="middle" x="2023" y="-185.5" font-family="Helvetica,sans-Serif" font-size="10.00">Animation/SkeletonBasedAnimationUI.cpp</text>
</a>
</g>
</g>
<!-- Node2&#45;&gt;Node24 -->
<g id="edge30" class="edge">
<title>Node2&#45;&gt;Node24</title>
<path fill="none" stroke="midnightblue" d="M1376.71,-286.91C1495.02,-278.43 1716.2,-260.16 1903,-231 1905.74,-230.57 1908.5,-230.12 1911.29,-229.66"/>
<polygon fill="midnightblue" stroke="midnightblue" points="1376.36,-283.42 1366.64,-287.62 1376.86,-290.41 1376.36,-283.42"/>
</g>
<!-- Node25 -->
<g id="node25" class="node">
<title>Node25</title>
<g id="a_node25"><a xlink:href="Timeline_8cpp.html" target="_top" xlink:title=" ">
<polygon fill="white" stroke="black" points="2153,-178.5 2153,-230.5 2329,-230.5 2329,-178.5 2153,-178.5"/>
<text text-anchor="start" x="2161" y="-218.5" font-family="Helvetica,sans-Serif" font-size="10.00">/home/runner/work/Radium</text>
<text text-anchor="start" x="2161" y="-207.5" font-family="Helvetica,sans-Serif" font-size="10.00">&#45;Engine/Radium&#45;Engine/src</text>
<text text-anchor="start" x="2161" y="-196.5" font-family="Helvetica,sans-Serif" font-size="10.00">/Radium&#45;Engine/src/Gui/Timeline</text>
<text text-anchor="middle" x="2241" y="-185.5" font-family="Helvetica,sans-Serif" font-size="10.00">/Timeline.cpp</text>
</a>
</g>
</g>
<!-- Node2&#45;&gt;Node25 -->
<g id="edge31" class="edge">
<title>Node2&#45;&gt;Node25</title>
<path fill="none" stroke="midnightblue" d="M1376.94,-291.55C1530.89,-288.69 1865.84,-277.19 2144,-231 2146.92,-230.52 2149.88,-229.98 2152.86,-229.41"/>
<polygon fill="midnightblue" stroke="midnightblue" points="1376.56,-288.06 1366.62,-291.74 1376.68,-295.06 1376.56,-288.06"/>
</g>
<!-- Node26 -->
<g id="node26" class="node">
<title>Node26</title>
<g id="a_node26"><a xlink:href="TransformEditor_8cpp.html" target="_top" xlink:title=" ">
<polygon fill="white" stroke="black" points="2347,-178.5 2347,-230.5 2529,-230.5 2529,-178.5 2347,-178.5"/>
<text text-anchor="start" x="2355" y="-218.5" font-family="Helvetica,sans-Serif" font-size="10.00">/home/runner/work/Radium</text>
<text text-anchor="start" x="2355" y="-207.5" font-family="Helvetica,sans-Serif" font-size="10.00">&#45;Engine/Radium&#45;Engine/src</text>
<text text-anchor="start" x="2355" y="-196.5" font-family="Helvetica,sans-Serif" font-size="10.00">/Radium&#45;Engine/src/Gui/Transform</text>
<text text-anchor="middle" x="2438" y="-185.5" font-family="Helvetica,sans-Serif" font-size="10.00">Editor/TransformEditor.cpp</text>
</a>
</g>
</g>
<!-- Node2&#45;&gt;Node26 -->
<g id="edge32" class="edge">
<title>Node2&#45;&gt;Node26</title>
<path fill="none" stroke="midnightblue" d="M1376.84,-292.98C1555.67,-292.79 1984.02,-286.02 2338,-231 2340.92,-230.55 2343.88,-230.04 2346.86,-229.5"/>
<polygon fill="midnightblue" stroke="midnightblue" points="1376.71,-289.48 1366.71,-292.98 1376.71,-296.48 1376.71,-289.48"/>
</g>
<!-- Node27 -->
<g id="node27" class="node">
<title>Node27</title>
<g id="a_node27"><a xlink:href="EntityTreeModel_8cpp.html" target="_top" xlink:title=" ">
<polygon fill="white" stroke="black" points="2547,-178.5 2547,-230.5 2731,-230.5 2731,-178.5 2547,-178.5"/>
<text text-anchor="start" x="2555" y="-218.5" font-family="Helvetica,sans-Serif" font-size="10.00">/home/runner/work/Radium</text>
<text text-anchor="start" x="2555" y="-207.5" font-family="Helvetica,sans-Serif" font-size="10.00">&#45;Engine/Radium&#45;Engine/src</text>
<text text-anchor="start" x="2555" y="-196.5" font-family="Helvetica,sans-Serif" font-size="10.00">/Radium&#45;Engine/src/Gui/TreeModel</text>
<text text-anchor="middle" x="2639" y="-185.5" font-family="Helvetica,sans-Serif" font-size="10.00">/EntityTreeModel.cpp</text>
</a>
</g>
</g>
<!-- Node2&#45;&gt;Node27 -->
<g id="edge33" class="edge">
<title>Node2&#45;&gt;Node27</title>
<path fill="none" stroke="midnightblue" d="M1376.93,-290.5C1619.64,-284.43 2313.23,-264.58 2538,-231 2540.95,-230.56 2543.94,-230.07 2546.95,-229.54"/>
<polygon fill="midnightblue" stroke="midnightblue" points="1376.66,-287 1366.75,-290.75 1376.84,-294 1376.66,-287"/>
</g>
<!-- Node4&#45;&gt;Node3 -->
<g id="edge5" class="edge">
<title>Node4&#45;&gt;Node3</title>
<path fill="none" stroke="midnightblue" d="M801.29,-195.06C715.02,-185.57 577.72,-168.01 461,-142 458.02,-141.34 455,-140.62 451.96,-139.87"/>
<polygon fill="midnightblue" stroke="midnightblue" points="800.97,-198.54 811.29,-196.14 801.73,-191.58 800.97,-198.54"/>
</g>
<!-- Node5 -->
<g id="node5" class="node">
<title>Node5</title>
<g id="a_node5"><a xlink:href="ForwardRenderer_8cpp.html" target="_top" xlink:title=" ">
<polygon fill="white" stroke="black" points="558.5,-0.5 558.5,-52.5 733.5,-52.5 733.5,-0.5 558.5,-0.5"/>
<text text-anchor="start" x="566.5" y="-40.5" font-family="Helvetica,sans-Serif" font-size="10.00">/home/runner/work/Radium</text>
<text text-anchor="start" x="566.5" y="-29.5" font-family="Helvetica,sans-Serif" font-size="10.00">&#45;Engine/Radium&#45;Engine/src</text>
<text text-anchor="start" x="566.5" y="-18.5" font-family="Helvetica,sans-Serif" font-size="10.00">/Radium&#45;Engine/src/Engine</text>
<text text-anchor="middle" x="646" y="-7.5" font-family="Helvetica,sans-Serif" font-size="10.00">/Rendering/ForwardRenderer.cpp</text>
</a>
</g>
</g>
<!-- Node4&#45;&gt;Node5 -->
<g id="edge6" class="edge">
<title>Node4&#45;&gt;Node5</title>
<path fill="none" stroke="midnightblue" d="M868.37,-169.29C852.63,-139.86 829.97,-100.4 816,-89 792.29,-69.65 761.99,-56.12 733.54,-46.78"/>
<polygon fill="midnightblue" stroke="midnightblue" points="865.44,-171.24 873.21,-178.44 871.63,-167.96 865.44,-171.24"/>
</g>
<!-- Node4&#45;&gt;Node6 -->
<g id="edge7" class="edge">
<title>Node4&#45;&gt;Node6</title>
<path fill="none" stroke="midnightblue" d="M801.48,-184.34C751.69,-172.75 687.57,-157.29 631,-142 628.17,-141.24 625.3,-140.44 622.4,-139.64"/>
<polygon fill="midnightblue" stroke="midnightblue" points="800.71,-187.76 811.25,-186.61 802.3,-180.94 800.71,-187.76"/>
</g>
<!-- Node7 -->
<g id="node7" class="node">
<title>Node7</title>
<g id="a_node7"><a xlink:href="EntityManager_8cpp.html" target="_top" xlink:title=" ">
<polygon fill="white" stroke="black" points="862.5,-89.5 862.5,-141.5 1011.5,-141.5 1011.5,-89.5 862.5,-89.5"/>
<text text-anchor="start" x="870.5" y="-129.5" font-family="Helvetica,sans-Serif" font-size="10.00">/home/runner/work/Radium</text>
<text text-anchor="start" x="870.5" y="-118.5" font-family="Helvetica,sans-Serif" font-size="10.00">&#45;Engine/Radium&#45;Engine/src</text>
<text text-anchor="start" x="870.5" y="-107.5" font-family="Helvetica,sans-Serif" font-size="10.00">/Radium&#45;Engine/src/Engine</text>
<text text-anchor="middle" x="937" y="-96.5" font-family="Helvetica,sans-Serif" font-size="10.00">/Scene/EntityManager.cpp</text>
</a>
</g>
</g>
<!-- Node4&#45;&gt;Node7 -->
<g id="edge8" class="edge">
<title>Node4&#45;&gt;Node7</title>
<path fill="none" stroke="midnightblue" d="M905.85,-169.64C911.32,-160.31 917.16,-150.35 922.28,-141.61"/>
<polygon fill="midnightblue" stroke="midnightblue" points="902.79,-167.94 900.75,-178.34 908.83,-171.48 902.79,-167.94"/>
</g>
<!-- Node8 -->
<g id="node8" class="node">
<title>Node8</title>
<g id="a_node8"><a xlink:href="ItemEntry_8cpp.html" target="_top" xlink:title=" ">
<polygon fill="white" stroke="black" points="1029.5,-89.5 1029.5,-141.5 1178.5,-141.5 1178.5,-89.5 1029.5,-89.5"/>
<text text-anchor="start" x="1037.5" y="-129.5" font-family="Helvetica,sans-Serif" font-size="10.00">/home/runner/work/Radium</text>
<text text-anchor="start" x="1037.5" y="-118.5" font-family="Helvetica,sans-Serif" font-size="10.00">&#45;Engine/Radium&#45;Engine/src</text>
<text text-anchor="start" x="1037.5" y="-107.5" font-family="Helvetica,sans-Serif" font-size="10.00">/Radium&#45;Engine/src/Engine</text>
<text text-anchor="middle" x="1104" y="-96.5" font-family="Helvetica,sans-Serif" font-size="10.00">/Scene/ItemEntry.cpp</text>
</a>
</g>
</g>
<!-- Node4&#45;&gt;Node8 -->
<g id="edge9" class="edge">
<title>Node4&#45;&gt;Node8</title>
<path fill="none" stroke="midnightblue" d="M958.12,-174.72C985.02,-163.98 1015.32,-151.89 1041.3,-141.52"/>
<polygon fill="midnightblue" stroke="midnightblue" points="956.75,-171.5 948.76,-178.45 959.35,-178 956.75,-171.5"/>
</g>
<!-- Node4&#45;&gt;Node9 -->
<g id="edge10" class="edge">
<title>Node4&#45;&gt;Node9</title>
<path fill="none" stroke="midnightblue" d="M970.69,-178.56C971.8,-178.36 972.9,-178.18 974,-178 1419.28,-106.7 1543.31,-216.86 1988,-142 1990.68,-141.55 1993.39,-141.04 1996.11,-140.47"/>
<polygon fill="midnightblue" stroke="midnightblue" points="969.75,-175.17 960.61,-180.52 971.09,-182.04 969.75,-175.17"/>
</g>
<!-- Node10 -->
<g id="node10" class="node">
<title>Node10</title>
<g id="a_node10"><a xlink:href="SystemDisplay_8cpp.html" target="_top" xlink:title=" ">
<polygon fill="white" stroke="black" points="1196.5,-89.5 1196.5,-141.5 1345.5,-141.5 1345.5,-89.5 1196.5,-89.5"/>
<text text-anchor="start" x="1204.5" y="-129.5" font-family="Helvetica,sans-Serif" font-size="10.00">/home/runner/work/Radium</text>
<text text-anchor="start" x="1204.5" y="-118.5" font-family="Helvetica,sans-Serif" font-size="10.00">&#45;Engine/Radium&#45;Engine/src</text>
<text text-anchor="start" x="1204.5" y="-107.5" font-family="Helvetica,sans-Serif" font-size="10.00">/Radium&#45;Engine/src/Engine</text>
<text text-anchor="middle" x="1271" y="-96.5" font-family="Helvetica,sans-Serif" font-size="10.00">/Scene/SystemDisplay.cpp</text>
</a>
</g>
</g>
<!-- Node4&#45;&gt;Node10 -->
<g id="edge11" class="edge">
<title>Node4&#45;&gt;Node10</title>
<path fill="none" stroke="midnightblue" d="M970.73,-178.76C971.82,-178.5 972.91,-178.25 974,-178 1068.03,-156.54 1094.14,-164.21 1188,-142 1190.79,-141.34 1193.62,-140.64 1196.47,-139.9"/>
<polygon fill="midnightblue" stroke="midnightblue" points="969.62,-175.43 960.74,-181.21 971.29,-182.23 969.62,-175.43"/>
</g>
<!-- Node11 -->
<g id="node11" class="node">
<title>Node11</title>
<g id="a_node11"><a xlink:href="BaseApplication_8cpp.html" target="_top" xlink:title=" ">
<polygon fill="white" stroke="black" points="1363.5,-95 1363.5,-136 1596.5,-136 1596.5,-95 1363.5,-95"/>
<text text-anchor="start" x="1371.5" y="-124" font-family="Helvetica,sans-Serif" font-size="10.00">/home/runner/work/Radium</text>
<text text-anchor="start" x="1371.5" y="-113" font-family="Helvetica,sans-Serif" font-size="10.00">&#45;Engine/Radium&#45;Engine/src</text>
<text text-anchor="middle" x="1480" y="-102" font-family="Helvetica,sans-Serif" font-size="10.00">/Radium&#45;Engine/src/Gui/BaseApplication.cpp</text>
</a>
</g>
</g>
<!-- Node4&#45;&gt;Node11 -->
<g id="edge12" class="edge">
<title>Node4&#45;&gt;Node11</title>
<path fill="none" stroke="midnightblue" d="M970.7,-178.65C971.81,-178.42 972.91,-178.21 974,-178 1141.09,-146.19 1186.76,-167.03 1355,-142 1366.39,-140.3 1378.31,-138.25 1390.08,-136.04"/>
<polygon fill="midnightblue" stroke="midnightblue" points="969.69,-175.29 960.66,-180.83 971.18,-182.13 969.69,-175.29"/>
</g>
<!-- Node12 -->
<g id="node12" class="node">
<title>Node12</title>
<g id="a_node12"><a xlink:href="GizmoManager_8cpp.html" target="_top" xlink:title=" ">
<polygon fill="white" stroke="black" points="1614.5,-89.5 1614.5,-141.5 1781.5,-141.5 1781.5,-89.5 1614.5,-89.5"/>
<text text-anchor="start" x="1622.5" y="-129.5" font-family="Helvetica,sans-Serif" font-size="10.00">/home/runner/work/Radium</text>
<text text-anchor="start" x="1622.5" y="-118.5" font-family="Helvetica,sans-Serif" font-size="10.00">&#45;Engine/Radium&#45;Engine/src</text>
<text text-anchor="start" x="1622.5" y="-107.5" font-family="Helvetica,sans-Serif" font-size="10.00">/Radium&#45;Engine/src/Gui/Viewer</text>
<text text-anchor="middle" x="1698" y="-96.5" font-family="Helvetica,sans-Serif" font-size="10.00">/Gizmo/GizmoManager.cpp</text>
</a>
</g>
</g>
<!-- Node4&#45;&gt;Node12 -->
<g id="edge13" class="edge">
<title>Node4&#45;&gt;Node12</title>
<path fill="none" stroke="midnightblue" d="M970.69,-178.59C971.8,-178.38 972.9,-178.19 974,-178 1251.31,-130.55 1328.41,-187.83 1606,-142 1608.78,-141.54 1611.6,-141.03 1614.43,-140.48"/>
<polygon fill="midnightblue" stroke="midnightblue" points="969.73,-175.21 960.63,-180.64 971.12,-182.07 969.73,-175.21"/>
</g>
<!-- Node13 -->
<g id="node13" class="node">
<title>Node13</title>
<g id="a_node13"><a xlink:href="TrackballCameraManipulator_8cpp.html" target="_top" xlink:title=" ">
<polygon fill="white" stroke="black" points="1799.5,-89.5 1799.5,-141.5 1978.5,-141.5 1978.5,-89.5 1799.5,-89.5"/>
<text text-anchor="start" x="1807.5" y="-129.5" font-family="Helvetica,sans-Serif" font-size="10.00">/home/runner/work/Radium</text>
<text text-anchor="start" x="1807.5" y="-118.5" font-family="Helvetica,sans-Serif" font-size="10.00">&#45;Engine/Radium&#45;Engine/src</text>
<text text-anchor="start" x="1807.5" y="-107.5" font-family="Helvetica,sans-Serif" font-size="10.00">/Radium&#45;Engine/src/Gui/Viewer</text>
<text text-anchor="middle" x="1889" y="-96.5" font-family="Helvetica,sans-Serif" font-size="10.00">/TrackballCameraManipulator.cpp</text>
</a>
</g>
</g>
<!-- Node4&#45;&gt;Node13 -->
<g id="edge14" class="edge">
<title>Node4&#45;&gt;Node13</title>
<path fill="none" stroke="midnightblue" d="M970.69,-178.57C971.8,-178.37 972.9,-178.18 974,-178 1332.64,-119 1431.58,-196.06 1791,-142 1793.78,-141.58 1796.6,-141.12 1799.43,-140.61"/>
<polygon fill="midnightblue" stroke="midnightblue" points="969.74,-175.19 960.61,-180.57 971.1,-182.05 969.74,-175.19"/>
</g>
<!-- Node14 -->
<g id="node14" class="node">
<title>Node14</title>
<g id="a_node14"><a xlink:href="Viewer_8cpp.html" target="_top" xlink:title=" ">
<polygon fill="white" stroke="black" points="640.5,-89.5 640.5,-141.5 807.5,-141.5 807.5,-89.5 640.5,-89.5"/>
<text text-anchor="start" x="648.5" y="-129.5" font-family="Helvetica,sans-Serif" font-size="10.00">/home/runner/work/Radium</text>
<text text-anchor="start" x="648.5" y="-118.5" font-family="Helvetica,sans-Serif" font-size="10.00">&#45;Engine/Radium&#45;Engine/src</text>
<text text-anchor="start" x="648.5" y="-107.5" font-family="Helvetica,sans-Serif" font-size="10.00">/Radium&#45;Engine/src/Gui/Viewer</text>
<text text-anchor="middle" x="724" y="-96.5" font-family="Helvetica,sans-Serif" font-size="10.00">/Viewer.cpp</text>
</a>
</g>
</g>
<!-- Node4&#45;&gt;Node14 -->
<g id="edge15" class="edge">
<title>Node4&#45;&gt;Node14</title>
<path fill="none" stroke="midnightblue" d="M830.13,-173.49C810.77,-163.1 789.3,-151.57 770.75,-141.61"/>
<polygon fill="midnightblue" stroke="midnightblue" points="828.68,-176.69 839.14,-178.34 831.99,-170.52 828.68,-176.69"/>
</g>
<!-- Node16 -->
<g id="node16" class="node">
<title>Node16</title>
<g id="a_node16"><a xlink:href="GeometryComponent_8hpp.html" target="_top" xlink:title=" ">
<polygon fill="white" stroke="black" points="107,-89.5 107,-141.5 285,-141.5 285,-89.5 107,-89.5"/>
<text text-anchor="start" x="115" y="-129.5" font-family="Helvetica,sans-Serif" font-size="10.00">/home/runner/work/Radium</text>
<text text-anchor="start" x="115" y="-118.5" font-family="Helvetica,sans-Serif" font-size="10.00">&#45;Engine/Radium&#45;Engine/src</text>
<text text-anchor="start" x="115" y="-107.5" font-family="Helvetica,sans-Serif" font-size="10.00">/Radium&#45;Engine/src/Engine</text>
<text text-anchor="middle" x="196" y="-96.5" font-family="Helvetica,sans-Serif" font-size="10.00">/Scene/GeometryComponent.hpp</text>
</a>
</g>
</g>
<!-- Node15&#45;&gt;Node16 -->
<g id="edge17" class="edge">
<title>Node15&#45;&gt;Node16</title>
<path fill="none" stroke="midnightblue" d="M189.36,-168.19C189.12,-159.28 189.27,-149.9 189.82,-141.61"/>
<polygon fill="midnightblue" stroke="midnightblue" points="185.87,-168.5 189.81,-178.34 192.86,-168.19 185.87,-168.5"/>
</g>
<!-- Node16&#45;&gt;Node5 -->
<g id="edge18" class="edge">
<title>Node16&#45;&gt;Node5</title>
<path fill="none" stroke="midnightblue" d="M295.28,-88.56C389.85,-68.22 488.98,-51.56 558.2,-40.68"/>
<polygon fill="midnightblue" stroke="midnightblue" points="294.29,-85.19 285.26,-90.73 295.77,-92.03 294.29,-85.19"/>
</g>
<!-- Node16&#45;&gt;Node15 -->
<g id="edge19" class="edge">
<title>Node16&#45;&gt;Node15</title>
<path fill="none" stroke="midnightblue" d="M202.64,-151.75C202.88,-160.65 202.73,-170.04 202.19,-178.34"/>
<polygon fill="midnightblue" stroke="midnightblue" points="206.13,-151.44 202.18,-141.61 199.14,-151.76 206.13,-151.44"/>
</g>
<!-- Node17 -->
<g id="node17" class="node">
<title>Node17</title>
<g id="a_node17"><a xlink:href="GeometryComponent_8cpp.html" target="_top" xlink:title=" ">
<polygon fill="white" stroke="black" points="175.5,-0.5 175.5,-52.5 352.5,-52.5 352.5,-0.5 175.5,-0.5"/>
<text text-anchor="start" x="183.5" y="-40.5" font-family="Helvetica,sans-Serif" font-size="10.00">/home/runner/work/Radium</text>
<text text-anchor="start" x="183.5" y="-29.5" font-family="Helvetica,sans-Serif" font-size="10.00">&#45;Engine/Radium&#45;Engine/src</text>
<text text-anchor="start" x="183.5" y="-18.5" font-family="Helvetica,sans-Serif" font-size="10.00">/Radium&#45;Engine/src/Engine</text>
<text text-anchor="middle" x="264" y="-7.5" font-family="Helvetica,sans-Serif" font-size="10.00">/Scene/GeometryComponent.cpp</text>
</a>
</g>
</g>
<!-- Node16&#45;&gt;Node17 -->
<g id="edge20" class="edge">
<title>Node16&#45;&gt;Node17</title>
<path fill="none" stroke="midnightblue" d="M222.02,-81.22C229.44,-71.72 237.4,-61.53 244.38,-52.61"/>
<polygon fill="midnightblue" stroke="midnightblue" points="219.07,-79.3 215.67,-89.34 224.58,-83.61 219.07,-79.3"/>
</g>
<!-- Node16&#45;&gt;Node18 -->
<g id="edge21" class="edge">
<title>Node16&#45;&gt;Node18</title>
<path fill="none" stroke="midnightblue" d="M153.93,-83.22C140.41,-73.16 125.61,-62.16 112.77,-52.61"/>
<polygon fill="midnightblue" stroke="midnightblue" points="152.05,-86.18 162.16,-89.34 156.22,-80.56 152.05,-86.18"/>
</g>
</g>
</svg>
