<?xml version="1.0" encoding="UTF-8" standalone="no"?>
<!DOCTYPE svg PUBLIC "-//W3C//DTD SVG 1.1//EN"
 "http://www.w3.org/Graphics/SVG/1.1/DTD/svg11.dtd">
<!-- Generated by graphviz version 2.43.0 (0)
 -->
<!-- Title: /home/runner/work/Radium&#45;Engine/Radium&#45;Engine/src/Radium&#45;Engine/src/Engine/Scene/Entity.hpp Pages: 1 -->
<svg width="2905pt" height="328pt"
 viewBox="0.00 0.00 2905.00 328.00" xmlns="http://www.w3.org/2000/svg" xmlns:xlink="http://www.w3.org/1999/xlink">
<g id="graph0" class="graph" transform="scale(1 1) rotate(0) translate(4 324)">
<title>/home/runner/work/Radium&#45;Engine/Radium&#45;Engine/src/Radium&#45;Engine/src/Engine/Scene/Entity.hpp</title>
<polygon fill="white" stroke="transparent" points="-4,4 -4,-324 2901,-324 2901,4 -4,4"/>
<!-- Node1 -->
<g id="node1" class="node">
<title>Node1</title>
<g id="a_node1"><a xlink:title=" ">
<polygon fill="#bfbfbf" stroke="black" points="1186.5,-267.5 1186.5,-319.5 1335.5,-319.5 1335.5,-267.5 1186.5,-267.5"/>
<text text-anchor="start" x="1194.5" y="-307.5" font-family="Helvetica,sans-Serif" font-size="10.00">/home/runner/work/Radium</text>
<text text-anchor="start" x="1194.5" y="-296.5" font-family="Helvetica,sans-Serif" font-size="10.00">&#45;Engine/Radium&#45;Engine/src</text>
<text text-anchor="start" x="1194.5" y="-285.5" font-family="Helvetica,sans-Serif" font-size="10.00">/Radium&#45;Engine/src/Engine</text>
<text text-anchor="middle" x="1261" y="-274.5" font-family="Helvetica,sans-Serif" font-size="10.00">/Scene/Entity.hpp</text>
</a>
</g>
</g>
<!-- Node2 -->
<g id="node2" class="node">
<title>Node2</title>
<g id="a_node2"><a xlink:href="RadiumEngine_8cpp.html" target="_top" xlink:title=" ">
<polygon fill="white" stroke="black" points="302.5,-89.5 302.5,-141.5 451.5,-141.5 451.5,-89.5 302.5,-89.5"/>
<text text-anchor="start" x="310.5" y="-129.5" font-family="Helvetica,sans-Serif" font-size="10.00">/home/runner/work/Radium</text>
<text text-anchor="start" x="310.5" y="-118.5" font-family="Helvetica,sans-Serif" font-size="10.00">&#45;Engine/Radium&#45;Engine/src</text>
<text text-anchor="start" x="310.5" y="-107.5" font-family="Helvetica,sans-Serif" font-size="10.00">/Radium&#45;Engine/src/Engine</text>
<text text-anchor="middle" x="377" y="-96.5" font-family="Helvetica,sans-Serif" font-size="10.00">/RadiumEngine.cpp</text>
</a>
</g>
</g>
<!-- Node1&#45;&gt;Node2 -->
<g id="edge1" class="edge">
<title>Node1&#45;&gt;Node2</title>
<path fill="none" stroke="midnightblue" d="M1176.04,-291.11C1059.11,-287.53 842.75,-274.96 664,-231 578.05,-209.86 483.67,-168.41 427.43,-141.61"/>
<polygon fill="midnightblue" stroke="midnightblue" points="1176.25,-294.61 1186.35,-291.41 1176.45,-287.62 1176.25,-294.61"/>
</g>
<!-- Node3 -->
<g id="node3" class="node">
<title>Node3</title>
<g id="a_node3"><a xlink:href="Entity_8inl.html" target="_top" xlink:title=" ">
<polygon fill="white" stroke="black" points="1015.5,-178.5 1015.5,-230.5 1164.5,-230.5 1164.5,-178.5 1015.5,-178.5"/>
<text text-anchor="start" x="1023.5" y="-218.5" font-family="Helvetica,sans-Serif" font-size="10.00">/home/runner/work/Radium</text>
<text text-anchor="start" x="1023.5" y="-207.5" font-family="Helvetica,sans-Serif" font-size="10.00">&#45;Engine/Radium&#45;Engine/src</text>
<text text-anchor="start" x="1023.5" y="-196.5" font-family="Helvetica,sans-Serif" font-size="10.00">/Radium&#45;Engine/src/Engine</text>
<text text-anchor="middle" x="1090" y="-185.5" font-family="Helvetica,sans-Serif" font-size="10.00">/Scene/Entity.inl</text>
</a>
</g>
</g>
<!-- Node1&#45;&gt;Node3 -->
<g id="edge2" class="edge">
<title>Node1&#45;&gt;Node3</title>
<path fill="none" stroke="midnightblue" d="M1196.14,-262.78C1175.08,-252.31 1152.26,-240.66 1133.17,-230.61"/>
<polygon fill="midnightblue" stroke="midnightblue" points="1194.84,-266.04 1205.35,-267.34 1197.94,-259.76 1194.84,-266.04"/>
</g>
<!-- Node4 -->
<g id="node4" class="node">
<title>Node4</title>
<g id="a_node4"><a xlink:href="SystemDisplay_8hpp.html" target="_top" xlink:title=" ">
<polygon fill="white" stroke="black" points="811.5,-178.5 811.5,-230.5 960.5,-230.5 960.5,-178.5 811.5,-178.5"/>
<text text-anchor="start" x="819.5" y="-218.5" font-family="Helvetica,sans-Serif" font-size="10.00">/home/runner/work/Radium</text>
<text text-anchor="start" x="819.5" y="-207.5" font-family="Helvetica,sans-Serif" font-size="10.00">&#45;Engine/Radium&#45;Engine/src</text>
<text text-anchor="start" x="819.5" y="-196.5" font-family="Helvetica,sans-Serif" font-size="10.00">/Radium&#45;Engine/src/Engine</text>
<text text-anchor="middle" x="886" y="-185.5" font-family="Helvetica,sans-Serif" font-size="10.00">/Scene/SystemDisplay.hpp</text>
</a>
</g>
</g>
<!-- Node1&#45;&gt;Node4 -->
<g id="edge4" class="edge">
<title>Node1&#45;&gt;Node4</title>
<path fill="none" stroke="midnightblue" d="M1176.23,-275.98C1118.89,-264.4 1041.6,-248.01 974,-231 969.68,-229.91 965.25,-228.76 960.79,-227.56"/>
<polygon fill="midnightblue" stroke="midnightblue" points="1175.84,-279.47 1186.33,-278.01 1177.22,-272.61 1175.84,-279.47"/>
</g>
<!-- Node6 -->
<g id="node6" class="node">
<title>Node6</title>
<g id="a_node6"><a xlink:href="CameraManager_8cpp.html" target="_top" xlink:title=" ">
<polygon fill="white" stroke="black" points="470,-89.5 470,-141.5 622,-141.5 622,-89.5 470,-89.5"/>
<text text-anchor="start" x="478" y="-129.5" font-family="Helvetica,sans-Serif" font-size="10.00">/home/runner/work/Radium</text>
<text text-anchor="start" x="478" y="-118.5" font-family="Helvetica,sans-Serif" font-size="10.00">&#45;Engine/Radium&#45;Engine/src</text>
<text text-anchor="start" x="478" y="-107.5" font-family="Helvetica,sans-Serif" font-size="10.00">/Radium&#45;Engine/src/Engine</text>
<text text-anchor="middle" x="546" y="-96.5" font-family="Helvetica,sans-Serif" font-size="10.00">/Scene/CameraManager.cpp</text>
</a>
</g>
</g>
<!-- Node1&#45;&gt;Node6 -->
<g id="edge24" class="edge">
<title>Node1&#45;&gt;Node6</title>
<path fill="none" stroke="midnightblue" d="M1176.09,-288.35C1083.02,-282.14 930.03,-267.02 803,-231 725.7,-209.08 641.62,-168.05 591.4,-141.53"/>
<polygon fill="midnightblue" stroke="midnightblue" points="1176.1,-291.86 1186.3,-289.01 1176.55,-284.88 1176.1,-291.86"/>
</g>
<!-- Node9 -->
<g id="node9" class="node">
<title>Node9</title>
<g id="a_node9"><a xlink:href="LightManager_8cpp.html" target="_top" xlink:title=" ">
<polygon fill="white" stroke="black" points="1996.5,-89.5 1996.5,-141.5 2145.5,-141.5 2145.5,-89.5 1996.5,-89.5"/>
<text text-anchor="start" x="2004.5" y="-129.5" font-family="Helvetica,sans-Serif" font-size="10.00">/home/runner/work/Radium</text>
<text text-anchor="start" x="2004.5" y="-118.5" font-family="Helvetica,sans-Serif" font-size="10.00">&#45;Engine/Radium&#45;Engine/src</text>
<text text-anchor="start" x="2004.5" y="-107.5" font-family="Helvetica,sans-Serif" font-size="10.00">/Radium&#45;Engine/src/Engine</text>
<text text-anchor="middle" x="2071" y="-96.5" font-family="Helvetica,sans-Serif" font-size="10.00">/Scene/LightManager.cpp</text>
</a>
</g>
</g>
<!-- Node1&#45;&gt;Node9 -->
<g id="edge28" class="edge">
<title>Node1&#45;&gt;Node9</title>
<path fill="none" stroke="midnightblue" d="M1176.37,-283.23C1110.89,-274.11 1027.95,-257.62 1007,-231 992.43,-212.49 990.65,-194.96 1007,-178 1044.85,-138.74 1934.23,-151.09 1988,-142 1990.68,-141.55 1993.39,-141.03 1996.11,-140.47"/>
<polygon fill="midnightblue" stroke="midnightblue" points="1175.92,-286.71 1186.3,-284.58 1176.86,-279.77 1175.92,-286.71"/>
</g>
<!-- Node15 -->
<g id="node15" class="node">
<title>Node15</title>
<g id="a_node15"><a xlink:href="GeometryComponent_8inl.html" target="_top" xlink:title=" ">
<polygon fill="white" stroke="black" points="110,-178.5 110,-230.5 282,-230.5 282,-178.5 110,-178.5"/>
<text text-anchor="start" x="118" y="-218.5" font-family="Helvetica,sans-Serif" font-size="10.00">/home/runner/work/Radium</text>
<text text-anchor="start" x="118" y="-207.5" font-family="Helvetica,sans-Serif" font-size="10.00">&#45;Engine/Radium&#45;Engine/src</text>
<text text-anchor="start" x="118" y="-196.5" font-family="Helvetica,sans-Serif" font-size="10.00">/Radium&#45;Engine/src/Engine</text>
<text text-anchor="middle" x="196" y="-185.5" font-family="Helvetica,sans-Serif" font-size="10.00">/Scene/GeometryComponent.inl</text>
</a>
</g>
</g>
<!-- Node1&#45;&gt;Node15 -->
<g id="edge16" class="edge">
<title>Node1&#45;&gt;Node15</title>
<path fill="none" stroke="midnightblue" d="M1176.14,-287.24C1025.42,-277.68 701.15,-256.09 428,-231 379.68,-226.56 325.8,-220.7 282.14,-215.71"/>
<polygon fill="midnightblue" stroke="midnightblue" points="1176.05,-290.74 1186.26,-287.88 1176.5,-283.76 1176.05,-290.74"/>
</g>
<!-- Node18 -->
<g id="node18" class="node">
<title>Node18</title>
<g id="a_node18"><a xlink:href="GeometrySystem_8cpp.html" target="_top" xlink:title=" ">
<polygon fill="white" stroke="black" points="0,-0.5 0,-52.5 158,-52.5 158,-0.5 0,-0.5"/>
<text text-anchor="start" x="8" y="-40.5" font-family="Helvetica,sans-Serif" font-size="10.00">/home/runner/work/Radium</text>
<text text-anchor="start" x="8" y="-29.5" font-family="Helvetica,sans-Serif" font-size="10.00">&#45;Engine/Radium&#45;Engine/src</text>
<text text-anchor="start" x="8" y="-18.5" font-family="Helvetica,sans-Serif" font-size="10.00">/Radium&#45;Engine/src/Engine</text>
<text text-anchor="middle" x="79" y="-7.5" font-family="Helvetica,sans-Serif" font-size="10.00">/Scene/GeometrySystem.cpp</text>
</a>
</g>
</g>
<!-- Node1&#45;&gt;Node18 -->
<g id="edge27" class="edge">
<title>Node1&#45;&gt;Node18</title>
<path fill="none" stroke="midnightblue" d="M1176.31,-290.99C915.55,-285.94 139.95,-267.88 101,-231 52.23,-184.83 63.48,-95.91 72.71,-52.53"/>
<polygon fill="midnightblue" stroke="midnightblue" points="1176.42,-294.49 1186.49,-291.18 1176.55,-287.49 1176.42,-294.49"/>
</g>
<!-- Node19 -->
<g id="node19" class="node">
<title>Node19</title>
<g id="a_node19"><a xlink:href="RenderObject_8cpp.html" target="_top" xlink:title=" ">
<polygon fill="white" stroke="black" points="1182,-178.5 1182,-230.5 1340,-230.5 1340,-178.5 1182,-178.5"/>
<text text-anchor="start" x="1190" y="-218.5" font-family="Helvetica,sans-Serif" font-size="10.00">/home/runner/work/Radium</text>
<text text-anchor="start" x="1190" y="-207.5" font-family="Helvetica,sans-Serif" font-size="10.00">&#45;Engine/Radium&#45;Engine/src</text>
<text text-anchor="start" x="1190" y="-196.5" font-family="Helvetica,sans-Serif" font-size="10.00">/Radium&#45;Engine/src/Engine</text>
<text text-anchor="middle" x="1261" y="-185.5" font-family="Helvetica,sans-Serif" font-size="10.00">/Rendering/RenderObject.cpp</text>
</a>
</g>
</g>
<!-- Node1&#45;&gt;Node19 -->
<g id="edge22" class="edge">
<title>Node1&#45;&gt;Node19</title>
<path fill="none" stroke="midnightblue" d="M1261,-257.19C1261,-248.28 1261,-238.9 1261,-230.61"/>
<polygon fill="midnightblue" stroke="midnightblue" points="1257.5,-257.34 1261,-267.34 1264.5,-257.34 1257.5,-257.34"/>
</g>
<!-- Node20 -->
<g id="node20" class="node">
<title>Node20</title>
<g id="a_node20"><a xlink:href="RenderObjectManager_8cpp.html" target="_top" xlink:title=" ">
<polygon fill="white" stroke="black" points="1358,-178.5 1358,-230.5 1558,-230.5 1558,-178.5 1358,-178.5"/>
<text text-anchor="start" x="1366" y="-218.5" font-family="Helvetica,sans-Serif" font-size="10.00">/home/runner/work/Radium</text>
<text text-anchor="start" x="1366" y="-207.5" font-family="Helvetica,sans-Serif" font-size="10.00">&#45;Engine/Radium&#45;Engine/src</text>
<text text-anchor="start" x="1366" y="-196.5" font-family="Helvetica,sans-Serif" font-size="10.00">/Radium&#45;Engine/src/Engine</text>
<text text-anchor="middle" x="1458" y="-185.5" font-family="Helvetica,sans-Serif" font-size="10.00">/Rendering/RenderObjectManager.cpp</text>
</a>
</g>
</g>
<!-- Node1&#45;&gt;Node20 -->
<g id="edge23" class="edge">
<title>Node1&#45;&gt;Node20</title>
<path fill="none" stroke="midnightblue" d="M1327.13,-263.29C1351.2,-252.67 1378.17,-240.76 1401.34,-230.52"/>
<polygon fill="midnightblue" stroke="midnightblue" points="1325.45,-260.21 1317.72,-267.45 1328.28,-266.61 1325.45,-260.21"/>
</g>
<!-- Node21 -->
<g id="node21" class="node">
<title>Node21</title>
<g id="a_node21"><a xlink:href="Component_8cpp.html" target="_top" xlink:title=" ">
<polygon fill="white" stroke="black" points="1576.5,-178.5 1576.5,-230.5 1725.5,-230.5 1725.5,-178.5 1576.5,-178.5"/>
<text text-anchor="start" x="1584.5" y="-218.5" font-family="Helvetica,sans-Serif" font-size="10.00">/home/runner/work/Radium</text>
<text text-anchor="start" x="1584.5" y="-207.5" font-family="Helvetica,sans-Serif" font-size="10.00">&#45;Engine/Radium&#45;Engine/src</text>
<text text-anchor="start" x="1584.5" y="-196.5" font-family="Helvetica,sans-Serif" font-size="10.00">/Radium&#45;Engine/src/Engine</text>
<text text-anchor="middle" x="1651" y="-185.5" font-family="Helvetica,sans-Serif" font-size="10.00">/Scene/Component.cpp</text>
</a>
</g>
</g>
<!-- Node1&#45;&gt;Node21 -->
<g id="edge25" class="edge">
<title>Node1&#45;&gt;Node21</title>
<path fill="none" stroke="midnightblue" d="M1345.73,-277.74C1407.43,-266.44 1492.83,-249.66 1567,-231 1570.1,-230.22 1573.26,-229.39 1576.45,-228.54"/>
<polygon fill="midnightblue" stroke="midnightblue" points="1344.86,-274.34 1335.65,-279.58 1346.12,-281.23 1344.86,-274.34"/>
</g>
<!-- Node22 -->
<g id="node22" class="node">
<title>Node22</title>
<g id="a_node22"><a xlink:href="Entity_8cpp.html" target="_top" xlink:title=" ">
<polygon fill="white" stroke="black" points="1743.5,-178.5 1743.5,-230.5 1892.5,-230.5 1892.5,-178.5 1743.5,-178.5"/>
<text text-anchor="start" x="1751.5" y="-218.5" font-family="Helvetica,sans-Serif" font-size="10.00">/home/runner/work/Radium</text>
<text text-anchor="start" x="1751.5" y="-207.5" font-family="Helvetica,sans-Serif" font-size="10.00">&#45;Engine/Radium&#45;Engine/src</text>
<text text-anchor="start" x="1751.5" y="-196.5" font-family="Helvetica,sans-Serif" font-size="10.00">/Radium&#45;Engine/src/Engine</text>
<text text-anchor="middle" x="1818" y="-185.5" font-family="Helvetica,sans-Serif" font-size="10.00">/Scene/Entity.cpp</text>
</a>
</g>
</g>
<!-- Node1&#45;&gt;Node22 -->
<g id="edge26" class="edge">
<title>Node1&#45;&gt;Node22</title>
<path fill="none" stroke="midnightblue" d="M1345.73,-285.86C1441.13,-277.38 1600.42,-260.19 1735,-231 1737.65,-230.42 1740.34,-229.8 1743.05,-229.15"/>
<polygon fill="midnightblue" stroke="midnightblue" points="1345.21,-282.39 1335.56,-286.75 1345.82,-289.36 1345.21,-282.39"/>
</g>
<!-- Node23 -->
<g id="node23" class="node">
<title>Node23</title>
<g id="a_node23"><a xlink:href="System_8cpp.html" target="_top" xlink:title=" ">
<polygon fill="white" stroke="black" points="1910.5,-178.5 1910.5,-230.5 2059.5,-230.5 2059.5,-178.5 1910.5,-178.5"/>
<text text-anchor="start" x="1918.5" y="-218.5" font-family="Helvetica,sans-Serif" font-size="10.00">/home/runner/work/Radium</text>
<text text-anchor="start" x="1918.5" y="-207.5" font-family="Helvetica,sans-Serif" font-size="10.00">&#45;Engine/Radium&#45;Engine/src</text>
<text text-anchor="start" x="1918.5" y="-196.5" font-family="Helvetica,sans-Serif" font-size="10.00">/Radium&#45;Engine/src/Engine</text>
<text text-anchor="middle" x="1985" y="-185.5" font-family="Helvetica,sans-Serif" font-size="10.00">/Scene/System.cpp</text>
</a>
</g>
</g>
<!-- Node1&#45;&gt;Node23 -->
<g id="edge29" class="edge">
<title>Node1&#45;&gt;Node23</title>
<path fill="none" stroke="midnightblue" d="M1345.88,-289.82C1469.36,-284.69 1705.25,-270.24 1902,-231 1904.66,-230.47 1907.36,-229.89 1910.07,-229.26"/>
<polygon fill="midnightblue" stroke="midnightblue" points="1345.59,-286.33 1335.74,-290.23 1345.87,-293.32 1345.59,-286.33"/>
</g>
<!-- Node24 -->
<g id="node24" class="node">
<title>Node24</title>
<g id="a_node24"><a xlink:href="SkeletonBasedAnimationUI_8cpp.html" target="_top" xlink:title=" ">
<polygon fill="white" stroke="black" points="2077.5,-178.5 2077.5,-230.5 2300.5,-230.5 2300.5,-178.5 2077.5,-178.5"/>
<text text-anchor="start" x="2085.5" y="-218.5" font-family="Helvetica,sans-Serif" font-size="10.00">/home/runner/work/Radium</text>
<text text-anchor="start" x="2085.5" y="-207.5" font-family="Helvetica,sans-Serif" font-size="10.00">&#45;Engine/Radium&#45;Engine/src</text>
<text text-anchor="start" x="2085.5" y="-196.5" font-family="Helvetica,sans-Serif" font-size="10.00">/Radium&#45;Engine/src/Gui/SkeletonBased</text>
<text text-anchor="middle" x="2189" y="-185.5" font-family="Helvetica,sans-Serif" font-size="10.00">Animation/SkeletonBasedAnimationUI.cpp</text>
</a>
</g>
</g>
<!-- Node1&#45;&gt;Node24 -->
<g id="edge30" class="edge">
<title>Node1&#45;&gt;Node24</title>
<path fill="none" stroke="midnightblue" d="M1346.07,-289.76C1493.79,-284.16 1807.05,-268.63 2069,-231 2071.74,-230.61 2074.51,-230.19 2077.31,-229.75"/>
<polygon fill="midnightblue" stroke="midnightblue" points="1345.58,-286.27 1335.72,-290.14 1345.84,-293.27 1345.58,-286.27"/>
</g>
<!-- Node25 -->
<g id="node25" class="node">
<title>Node25</title>
<g id="a_node25"><a xlink:href="Timeline_8cpp.html" target="_top" xlink:title=" ">
<polygon fill="white" stroke="black" points="2319,-178.5 2319,-230.5 2495,-230.5 2495,-178.5 2319,-178.5"/>
<text text-anchor="start" x="2327" y="-218.5" font-family="Helvetica,sans-Serif" font-size="10.00">/home/runner/work/Radium</text>
<text text-anchor="start" x="2327" y="-207.5" font-family="Helvetica,sans-Serif" font-size="10.00">&#45;Engine/Radium&#45;Engine/src</text>
<text text-anchor="start" x="2327" y="-196.5" font-family="Helvetica,sans-Serif" font-size="10.00">/Radium&#45;Engine/src/Gui/Timeline</text>
<text text-anchor="middle" x="2407" y="-185.5" font-family="Helvetica,sans-Serif" font-size="10.00">/Timeline.cpp</text>
</a>
</g>
</g>
<!-- Node1&#45;&gt;Node25 -->
<g id="edge31" class="edge">
<title>Node1&#45;&gt;Node25</title>
<path fill="none" stroke="midnightblue" d="M1345.78,-293.21C1524.99,-293.46 1954.99,-287.5 2310,-231 2312.92,-230.53 2315.89,-230.02 2318.87,-229.46"/>
<polygon fill="midnightblue" stroke="midnightblue" points="1345.64,-289.71 1335.63,-293.18 1345.62,-296.71 1345.64,-289.71"/>
</g>
<!-- Node26 -->
<g id="node26" class="node">
<title>Node26</title>
<g id="a_node26"><a xlink:href="TransformEditor_8cpp.html" target="_top" xlink:title=" ">
<polygon fill="white" stroke="black" points="2513,-178.5 2513,-230.5 2695,-230.5 2695,-178.5 2513,-178.5"/>
<text text-anchor="start" x="2521" y="-218.5" font-family="Helvetica,sans-Serif" font-size="10.00">/home/runner/work/Radium</text>
<text text-anchor="start" x="2521" y="-207.5" font-family="Helvetica,sans-Serif" font-size="10.00">&#45;Engine/Radium&#45;Engine/src</text>
<text text-anchor="start" x="2521" y="-196.5" font-family="Helvetica,sans-Serif" font-size="10.00">/Radium&#45;Engine/src/Gui/Transform</text>
<text text-anchor="middle" x="2604" y="-185.5" font-family="Helvetica,sans-Serif" font-size="10.00">Editor/TransformEditor.cpp</text>
</a>
</g>
</g>
<!-- Node1&#45;&gt;Node26 -->
<g id="edge32" class="edge">
<title>Node1&#45;&gt;Node26</title>
<path fill="none" stroke="midnightblue" d="M1345.73,-290.52C1587.87,-284.51 2279.82,-264.78 2504,-231 2506.92,-230.56 2509.89,-230.07 2512.87,-229.54"/>
<polygon fill="midnightblue" stroke="midnightblue" points="1345.49,-287.02 1335.58,-290.77 1345.66,-294.02 1345.49,-287.02"/>
</g>
<!-- Node27 -->
<g id="node27" class="node">
<title>Node27</title>
<g id="a_node27"><a xlink:href="EntityTreeModel_8cpp.html" target="_top" xlink:title=" ">
<polygon fill="white" stroke="black" points="2713,-178.5 2713,-230.5 2897,-230.5 2897,-178.5 2713,-178.5"/>
<text text-anchor="start" x="2721" y="-218.5" font-family="Helvetica,sans-Serif" font-size="10.00">/home/runner/work/Radium</text>
<text text-anchor="start" x="2721" y="-207.5" font-family="Helvetica,sans-Serif" font-size="10.00">&#45;Engine/Radium&#45;Engine/src</text>
<text text-anchor="start" x="2721" y="-196.5" font-family="Helvetica,sans-Serif" font-size="10.00">/Radium&#45;Engine/src/Gui/TreeModel</text>
<text text-anchor="middle" x="2805" y="-185.5" font-family="Helvetica,sans-Serif" font-size="10.00">/EntityTreeModel.cpp</text>
</a>
</g>
</g>
<!-- Node1&#45;&gt;Node27 -->
<g id="edge33" class="edge">
<title>Node1&#45;&gt;Node27</title>
<path fill="none" stroke="midnightblue" d="M1345.65,-291.17C1613.33,-286.59 2439.28,-269.64 2704,-231 2706.95,-230.57 2709.94,-230.09 2712.96,-229.56"/>
<polygon fill="midnightblue" stroke="midnightblue" points="1345.55,-287.67 1335.61,-291.34 1345.67,-294.67 1345.55,-287.67"/>
</g>
<!-- Node3&#45;&gt;Node1 -->
<g id="edge3" class="edge">
<title>Node3&#45;&gt;Node1</title>
<path fill="none" stroke="midnightblue" d="M1154.74,-235.16C1175.8,-245.63 1198.62,-257.28 1217.73,-267.34"/>
<polygon fill="midnightblue" stroke="midnightblue" points="1156.05,-231.9 1145.53,-230.61 1152.94,-238.18 1156.05,-231.9"/>
</g>
<!-- Node4&#45;&gt;Node2 -->
<g id="edge5" class="edge">
<title>Node4&#45;&gt;Node2</title>
<path fill="none" stroke="midnightblue" d="M801.29,-195.06C715.02,-185.57 577.72,-168.01 461,-142 458.02,-141.34 455,-140.62 451.96,-139.87"/>
<polygon fill="midnightblue" stroke="midnightblue" points="800.97,-198.54 811.29,-196.14 801.73,-191.58 800.97,-198.54"/>
</g>
<!-- Node5 -->
<g id="node5" class="node">
<title>Node5</title>
<g id="a_node5"><a xlink:href="ForwardRenderer_8cpp.html" target="_top" xlink:title=" ">
<polygon fill="white" stroke="black" points="558.5,-0.5 558.5,-52.5 733.5,-52.5 733.5,-0.5 558.5,-0.5"/>
<text text-anchor="start" x="566.5" y="-40.5" font-family="Helvetica,sans-Serif" font-size="10.00">/home/runner/work/Radium</text>
<text text-anchor="start" x="566.5" y="-29.5" font-family="Helvetica,sans-Serif" font-size="10.00">&#45;Engine/Radium&#45;Engine/src</text>
<text text-anchor="start" x="566.5" y="-18.5" font-family="Helvetica,sans-Serif" font-size="10.00">/Radium&#45;Engine/src/Engine</text>
<text text-anchor="middle" x="646" y="-7.5" font-family="Helvetica,sans-Serif" font-size="10.00">/Rendering/ForwardRenderer.cpp</text>
</a>
</g>
</g>
<!-- Node4&#45;&gt;Node5 -->
<g id="edge6" class="edge">
<title>Node4&#45;&gt;Node5</title>
<path fill="none" stroke="midnightblue" d="M868.37,-169.29C852.63,-139.86 829.97,-100.4 816,-89 792.29,-69.65 761.99,-56.12 733.54,-46.78"/>
<polygon fill="midnightblue" stroke="midnightblue" points="865.44,-171.24 873.21,-178.44 871.63,-167.96 865.44,-171.24"/>
</g>
<!-- Node4&#45;&gt;Node6 -->
<g id="edge7" class="edge">
<title>Node4&#45;&gt;Node6</title>
<path fill="none" stroke="midnightblue" d="M801.48,-184.34C751.69,-172.75 687.57,-157.29 631,-142 628.17,-141.24 625.3,-140.44 622.4,-139.64"/>
<polygon fill="midnightblue" stroke="midnightblue" points="800.71,-187.76 811.25,-186.61 802.3,-180.94 800.71,-187.76"/>
</g>
<!-- Node7 -->
<g id="node7" class="node">
<title>Node7</title>
<g id="a_node7"><a xlink:href="EntityManager_8cpp.html" target="_top" xlink:title=" ">
<polygon fill="white" stroke="black" points="862.5,-89.5 862.5,-141.5 1011.5,-141.5 1011.5,-89.5 862.5,-89.5"/>
<text text-anchor="start" x="870.5" y="-129.5" font-family="Helvetica,sans-Serif" font-size="10.00">/home/runner/work/Radium</text>
<text text-anchor="start" x="870.5" y="-118.5" font-family="Helvetica,sans-Serif" font-size="10.00">&#45;Engine/Radium&#45;Engine/src</text>
<text text-anchor="start" x="870.5" y="-107.5" font-family="Helvetica,sans-Serif" font-size="10.00">/Radium&#45;Engine/src/Engine</text>
<text text-anchor="middle" x="937" y="-96.5" font-family="Helvetica,sans-Serif" font-size="10.00">/Scene/EntityManager.cpp</text>
</a>
</g>
</g>
<!-- Node4&#45;&gt;Node7 -->
<g id="edge8" class="edge">
<title>Node4&#45;&gt;Node7</title>
<path fill="none" stroke="midnightblue" d="M905.85,-169.64C911.32,-160.31 917.16,-150.35 922.28,-141.61"/>
<polygon fill="midnightblue" stroke="midnightblue" points="902.79,-167.94 900.75,-178.34 908.83,-171.48 902.79,-167.94"/>
</g>
<!-- Node8 -->
<g id="node8" class="node">
<title>Node8</title>
<g id="a_node8"><a xlink:href="ItemEntry_8cpp.html" target="_top" xlink:title=" ">
<polygon fill="white" stroke="black" points="1029.5,-89.5 1029.5,-141.5 1178.5,-141.5 1178.5,-89.5 1029.5,-89.5"/>
<text text-anchor="start" x="1037.5" y="-129.5" font-family="Helvetica,sans-Serif" font-size="10.00">/home/runner/work/Radium</text>
<text text-anchor="start" x="1037.5" y="-118.5" font-family="Helvetica,sans-Serif" font-size="10.00">&#45;Engine/Radium&#45;Engine/src</text>
<text text-anchor="start" x="1037.5" y="-107.5" font-family="Helvetica,sans-Serif" font-size="10.00">/Radium&#45;Engine/src/Engine</text>
<text text-anchor="middle" x="1104" y="-96.5" font-family="Helvetica,sans-Serif" font-size="10.00">/Scene/ItemEntry.cpp</text>
</a>
</g>
</g>
<!-- Node4&#45;&gt;Node8 -->
<g id="edge9" class="edge">
<title>Node4&#45;&gt;Node8</title>
<path fill="none" stroke="midnightblue" d="M958.12,-174.72C985.02,-163.98 1015.32,-151.89 1041.3,-141.52"/>
<polygon fill="midnightblue" stroke="midnightblue" points="956.75,-171.5 948.76,-178.45 959.35,-178 956.75,-171.5"/>
</g>
<!-- Node4&#45;&gt;Node9 -->
<g id="edge10" class="edge">
<title>Node4&#45;&gt;Node9</title>
<path fill="none" stroke="midnightblue" d="M970.69,-178.56C971.8,-178.36 972.9,-178.18 974,-178 1419.28,-106.7 1543.31,-216.86 1988,-142 1990.68,-141.55 1993.39,-141.04 1996.11,-140.47"/>
<polygon fill="midnightblue" stroke="midnightblue" points="969.75,-175.17 960.61,-180.52 971.09,-182.04 969.75,-175.17"/>
</g>
<!-- Node10 -->
<g id="node10" class="node">
<title>Node10</title>
<g id="a_node10"><a xlink:href="SystemDisplay_8cpp.html" target="_top" xlink:title=" ">
<polygon fill="white" stroke="black" points="1196.5,-89.5 1196.5,-141.5 1345.5,-141.5 1345.5,-89.5 1196.5,-89.5"/>
<text text-anchor="start" x="1204.5" y="-129.5" font-family="Helvetica,sans-Serif" font-size="10.00">/home/runner/work/Radium</text>
<text text-anchor="start" x="1204.5" y="-118.5" font-family="Helvetica,sans-Serif" font-size="10.00">&#45;Engine/Radium&#45;Engine/src</text>
<text text-anchor="start" x="1204.5" y="-107.5" font-family="Helvetica,sans-Serif" font-size="10.00">/Radium&#45;Engine/src/Engine</text>
<text text-anchor="middle" x="1271" y="-96.5" font-family="Helvetica,sans-Serif" font-size="10.00">/Scene/SystemDisplay.cpp</text>
</a>
</g>
</g>
<!-- Node4&#45;&gt;Node10 -->
<g id="edge11" class="edge">
<title>Node4&#45;&gt;Node10</title>
<path fill="none" stroke="midnightblue" d="M970.73,-178.76C971.82,-178.5 972.91,-178.25 974,-178 1068.03,-156.54 1094.14,-164.21 1188,-142 1190.79,-141.34 1193.62,-140.64 1196.47,-139.9"/>
<polygon fill="midnightblue" stroke="midnightblue" points="969.62,-175.43 960.74,-181.21 971.29,-182.23 969.62,-175.43"/>
</g>
<!-- Node11 -->
<g id="node11" class="node">
<title>Node11</title>
<g id="a_node11"><a xlink:href="BaseApplication_8cpp.html" target="_top" xlink:title=" ">
<polygon fill="white" stroke="black" points="1363.5,-95 1363.5,-136 1596.5,-136 1596.5,-95 1363.5,-95"/>
<text text-anchor="start" x="1371.5" y="-124" font-family="Helvetica,sans-Serif" font-size="10.00">/home/runner/work/Radium</text>
<text text-anchor="start" x="1371.5" y="-113" font-family="Helvetica,sans-Serif" font-size="10.00">&#45;Engine/Radium&#45;Engine/src</text>
<text text-anchor="middle" x="1480" y="-102" font-family="Helvetica,sans-Serif" font-size="10.00">/Radium&#45;Engine/src/Gui/BaseApplication.cpp</text>
</a>
</g>
</g>
<!-- Node4&#45;&gt;Node11 -->
<g id="edge12" class="edge">
<title>Node4&#45;&gt;Node11</title>
<path fill="none" stroke="midnightblue" d="M970.7,-178.65C971.81,-178.42 972.91,-178.21 974,-178 1141.09,-146.19 1186.76,-167.03 1355,-142 1366.39,-140.3 1378.31,-138.25 1390.08,-136.04"/>
<polygon fill="midnightblue" stroke="midnightblue" points="969.69,-175.29 960.66,-180.83 971.18,-182.13 969.69,-175.29"/>
</g>
<!-- Node12 -->
<g id="node12" class="node">
<title>Node12</title>
<g id="a_node12"><a xlink:href="GizmoManager_8cpp.html" target="_top" xlink:title=" ">
<polygon fill="white" stroke="black" points="1614.5,-89.5 1614.5,-141.5 1781.5,-141.5 1781.5,-89.5 1614.5,-89.5"/>
<text text-anchor="start" x="1622.5" y="-129.5" font-family="Helvetica,sans-Serif" font-size="10.00">/home/runner/work/Radium</text>
<text text-anchor="start" x="1622.5" y="-118.5" font-family="Helvetica,sans-Serif" font-size="10.00">&#45;Engine/Radium&#45;Engine/src</text>
<text text-anchor="start" x="1622.5" y="-107.5" font-family="Helvetica,sans-Serif" font-size="10.00">/Radium&#45;Engine/src/Gui/Viewer</text>
<text text-anchor="middle" x="1698" y="-96.5" font-family="Helvetica,sans-Serif" font-size="10.00">/Gizmo/GizmoManager.cpp</text>
</a>
</g>
</g>
<!-- Node4&#45;&gt;Node12 -->
<g id="edge13" class="edge">
<title>Node4&#45;&gt;Node12</title>
<path fill="none" stroke="midnightblue" d="M970.69,-178.59C971.8,-178.38 972.9,-178.19 974,-178 1251.31,-130.55 1328.41,-187.83 1606,-142 1608.78,-141.54 1611.6,-141.03 1614.43,-140.48"/>
<polygon fill="midnightblue" stroke="midnightblue" points="969.73,-175.21 960.63,-180.64 971.12,-182.07 969.73,-175.21"/>
</g>
<!-- Node13 -->
<g id="node13" class="node">
<title>Node13</title>
<g id="a_node13"><a xlink:href="TrackballCameraManipulator_8cpp.html" target="_top" xlink:title=" ">
<polygon fill="white" stroke="black" points="1799.5,-89.5 1799.5,-141.5 1978.5,-141.5 1978.5,-89.5 1799.5,-89.5"/>
<text text-anchor="start" x="1807.5" y="-129.5" font-family="Helvetica,sans-Serif" font-size="10.00">/home/runner/work/Radium</text>
<text text-anchor="start" x="1807.5" y="-118.5" font-family="Helvetica,sans-Serif" font-size="10.00">&#45;Engine/Radium&#45;Engine/src</text>
<text text-anchor="start" x="1807.5" y="-107.5" font-family="Helvetica,sans-Serif" font-size="10.00">/Radium&#45;Engine/src/Gui/Viewer</text>
<text text-anchor="middle" x="1889" y="-96.5" font-family="Helvetica,sans-Serif" font-size="10.00">/TrackballCameraManipulator.cpp</text>
</a>
</g>
</g>
<!-- Node4&#45;&gt;Node13 -->
<g id="edge14" class="edge">
<title>Node4&#45;&gt;Node13</title>
<path fill="none" stroke="midnightblue" d="M970.69,-178.57C971.8,-178.37 972.9,-178.18 974,-178 1332.64,-119 1431.58,-196.06 1791,-142 1793.78,-141.58 1796.6,-141.12 1799.43,-140.61"/>
<polygon fill="midnightblue" stroke="midnightblue" points="969.74,-175.19 960.61,-180.57 971.1,-182.05 969.74,-175.19"/>
</g>
<!-- Node14 -->
<g id="node14" class="node">
<title>Node14</title>
<g id="a_node14"><a xlink:href="Viewer_8cpp.html" target="_top" xlink:title=" ">
<polygon fill="white" stroke="black" points="640.5,-89.5 640.5,-141.5 807.5,-141.5 807.5,-89.5 640.5,-89.5"/>
<text text-anchor="start" x="648.5" y="-129.5" font-family="Helvetica,sans-Serif" font-size="10.00">/home/runner/work/Radium</text>
<text text-anchor="start" x="648.5" y="-118.5" font-family="Helvetica,sans-Serif" font-size="10.00">&#45;Engine/Radium&#45;Engine/src</text>
<text text-anchor="start" x="648.5" y="-107.5" font-family="Helvetica,sans-Serif" font-size="10.00">/Radium&#45;Engine/src/Gui/Viewer</text>
<text text-anchor="middle" x="724" y="-96.5" font-family="Helvetica,sans-Serif" font-size="10.00">/Viewer.cpp</text>
</a>
</g>
</g>
<!-- Node4&#45;&gt;Node14 -->
<g id="edge15" class="edge">
<title>Node4&#45;&gt;Node14</title>
<path fill="none" stroke="midnightblue" d="M830.13,-173.49C810.77,-163.1 789.3,-151.57 770.75,-141.61"/>
<polygon fill="midnightblue" stroke="midnightblue" points="828.68,-176.69 839.14,-178.34 831.99,-170.52 828.68,-176.69"/>
</g>
<!-- Node16 -->
<g id="node16" class="node">
<title>Node16</title>
<g id="a_node16"><a xlink:href="GeometryComponent_8hpp.html" target="_top" xlink:title=" ">
<polygon fill="white" stroke="black" points="107,-89.5 107,-141.5 285,-141.5 285,-89.5 107,-89.5"/>
<text text-anchor="start" x="115" y="-129.5" font-family="Helvetica,sans-Serif" font-size="10.00">/home/runner/work/Radium</text>
<text text-anchor="start" x="115" y="-118.5" font-family="Helvetica,sans-Serif" font-size="10.00">&#45;Engine/Radium&#45;Engine/src</text>
<text text-anchor="start" x="115" y="-107.5" font-family="Helvetica,sans-Serif" font-size="10.00">/Radium&#45;Engine/src/Engine</text>
<text text-anchor="middle" x="196" y="-96.5" font-family="Helvetica,sans-Serif" font-size="10.00">/Scene/GeometryComponent.hpp</text>
</a>
</g>
</g>
<!-- Node15&#45;&gt;Node16 -->
<g id="edge17" class="edge">
<title>Node15&#45;&gt;Node16</title>
<path fill="none" stroke="midnightblue" d="M189.36,-168.19C189.12,-159.28 189.27,-149.9 189.82,-141.61"/>
<polygon fill="midnightblue" stroke="midnightblue" points="185.87,-168.5 189.81,-178.34 192.86,-168.19 185.87,-168.5"/>
</g>
<!-- Node16&#45;&gt;Node5 -->
<g id="edge18" class="edge">
<title>Node16&#45;&gt;Node5</title>
<path fill="none" stroke="midnightblue" d="M295.28,-88.56C389.85,-68.22 488.98,-51.56 558.2,-40.68"/>
<polygon fill="midnightblue" stroke="midnightblue" points="294.29,-85.19 285.26,-90.73 295.77,-92.03 294.29,-85.19"/>
</g>
<!-- Node16&#45;&gt;Node15 -->
<g id="edge19" class="edge">
<title>Node16&#45;&gt;Node15</title>
<path fill="none" stroke="midnightblue" d="M202.64,-151.75C202.88,-160.65 202.73,-170.04 202.19,-178.34"/>
<polygon fill="midnightblue" stroke="midnightblue" points="206.13,-151.44 202.18,-141.61 199.14,-151.76 206.13,-151.44"/>
</g>
<!-- Node17 -->
<g id="node17" class="node">
<title>Node17</title>
<g id="a_node17"><a xlink:href="GeometryComponent_8cpp.html" target="_top" xlink:title=" ">
<polygon fill="white" stroke="black" points="175.5,-0.5 175.5,-52.5 352.5,-52.5 352.5,-0.5 175.5,-0.5"/>
<text text-anchor="start" x="183.5" y="-40.5" font-family="Helvetica,sans-Serif" font-size="10.00">/home/runner/work/Radium</text>
<text text-anchor="start" x="183.5" y="-29.5" font-family="Helvetica,sans-Serif" font-size="10.00">&#45;Engine/Radium&#45;Engine/src</text>
<text text-anchor="start" x="183.5" y="-18.5" font-family="Helvetica,sans-Serif" font-size="10.00">/Radium&#45;Engine/src/Engine</text>
<text text-anchor="middle" x="264" y="-7.5" font-family="Helvetica,sans-Serif" font-size="10.00">/Scene/GeometryComponent.cpp</text>
</a>
</g>
</g>
<!-- Node16&#45;&gt;Node17 -->
<g id="edge20" class="edge">
<title>Node16&#45;&gt;Node17</title>
<path fill="none" stroke="midnightblue" d="M222.02,-81.22C229.44,-71.72 237.4,-61.53 244.38,-52.61"/>
<polygon fill="midnightblue" stroke="midnightblue" points="219.07,-79.3 215.67,-89.34 224.58,-83.61 219.07,-79.3"/>
</g>
<!-- Node16&#45;&gt;Node18 -->
<g id="edge21" class="edge">
<title>Node16&#45;&gt;Node18</title>
<path fill="none" stroke="midnightblue" d="M153.93,-83.22C140.41,-73.16 125.61,-62.16 112.77,-52.61"/>
<polygon fill="midnightblue" stroke="midnightblue" points="152.05,-86.18 162.16,-89.34 156.22,-80.56 152.05,-86.18"/>
</g>
</g>
</svg>
