<?xml version="1.0" encoding="UTF-8" standalone="no"?>
<!DOCTYPE svg PUBLIC "-//W3C//DTD SVG 1.1//EN"
 "http://www.w3.org/Graphics/SVG/1.1/DTD/svg11.dtd">
<!-- Generated by graphviz version 2.40.1 (20161225.0304)
 -->
<!-- Title: src/GuiBase/TreeModel/EntityTreeModel.hpp Pages: 1 -->
<svg width="1393pt" height="341pt"
 viewBox="0.00 0.00 1393.00 341.00" xmlns="http://www.w3.org/2000/svg" xmlns:xlink="http://www.w3.org/1999/xlink">
<g id="graph0" class="graph" transform="scale(1 1) rotate(0) translate(4 337)">
<title>src/GuiBase/TreeModel/EntityTreeModel.hpp</title>
<polygon fill="#ffffff" stroke="transparent" points="-4,4 -4,-337 1389,-337 1389,4 -4,4"/>
<!-- Node0 -->
<g id="node1" class="node">
<title>Node0</title>
<polygon fill="#bfbfbf" stroke="#000000" points="797.5,-302.5 797.5,-332.5 924.5,-332.5 924.5,-302.5 797.5,-302.5"/>
<text text-anchor="start" x="805.5" y="-320.5" font-family="Helvetica,sans-Serif" font-size="10.00" fill="#000000">src/GuiBase/TreeModel</text>
<text text-anchor="middle" x="861" y="-309.5" font-family="Helvetica,sans-Serif" font-size="10.00" fill="#000000">/EntityTreeModel.hpp</text>
</g>
<!-- Node1 -->
<g id="node2" class="node">
<title>Node1</title>
<g id="a_node2"><a xlink:href="RaGuiBase_8hpp.html" target="_top" xlink:title="GuiBase/RaGuiBase.hpp">
<polygon fill="#ffffff" stroke="#000000" points="1251,-190.5 1251,-209.5 1385,-209.5 1385,-190.5 1251,-190.5"/>
<text text-anchor="middle" x="1318" y="-197.5" font-family="Helvetica,sans-Serif" font-size="10.00" fill="#000000">GuiBase/RaGuiBase.hpp</text>
</a>
</g>
</g>
<!-- Node0&#45;&gt;Node1 -->
<g id="edge1" class="edge">
<title>Node0&#45;&gt;Node1</title>
<path fill="none" stroke="#191970" d="M924.6922,-309.3024C982.5455,-301.0585 1069.9066,-286.6078 1144,-266 1195.4196,-251.6985 1252.9311,-228.3721 1287.2617,-213.6231"/>
<polygon fill="#191970" stroke="#191970" points="1288.9388,-216.7109 1296.7224,-209.5231 1286.1552,-210.2881 1288.9388,-216.7109"/>
</g>
<!-- Node13 -->
<g id="node14" class="node">
<title>Node13</title>
<g id="a_node14"><a xlink:href="ItemEntry_8hpp.html" target="_top" xlink:title="Engine/ItemModel/ItemEntry.hpp">
<polygon fill="#ffffff" stroke="#000000" points="289.5,-246.5 289.5,-265.5 464.5,-265.5 464.5,-246.5 289.5,-246.5"/>
<text text-anchor="middle" x="377" y="-253.5" font-family="Helvetica,sans-Serif" font-size="10.00" fill="#000000">Engine/ItemModel/ItemEntry.hpp</text>
</a>
</g>
</g>
<!-- Node0&#45;&gt;Node13 -->
<g id="edge14" class="edge">
<title>Node0&#45;&gt;Node13</title>
<path fill="none" stroke="#191970" d="M797.2277,-309.3967C711.1997,-298.4655 557.743,-278.9663 461.9908,-266.7995"/>
<polygon fill="#191970" stroke="#191970" points="462.4088,-263.3245 452.0473,-265.536 461.5264,-270.2687 462.4088,-263.3245"/>
</g>
<!-- Node21 -->
<g id="node22" class="node">
<title>Node21</title>
<g id="a_node22"><a xlink:href="RadiumEngine_8hpp.html" target="_top" xlink:title="Engine/RadiumEngine.hpp">
<polygon fill="#ffffff" stroke="#000000" points="658,-246.5 658,-265.5 802,-265.5 802,-246.5 658,-246.5"/>
<text text-anchor="middle" x="730" y="-253.5" font-family="Helvetica,sans-Serif" font-size="10.00" fill="#000000">Engine/RadiumEngine.hpp</text>
</a>
</g>
</g>
<!-- Node0&#45;&gt;Node21 -->
<g id="edge25" class="edge">
<title>Node0&#45;&gt;Node21</title>
<path fill="none" stroke="#191970" d="M828.9538,-302.4554C807.7672,-292.509 780.1972,-279.5659 759.5412,-269.8686"/>
<polygon fill="#191970" stroke="#191970" points="760.8399,-266.6118 750.3004,-265.5303 757.8651,-272.9483 760.8399,-266.6118"/>
</g>
<!-- Node30 -->
<g id="node31" class="node">
<title>Node30</title>
<g id="a_node31"><a xlink:href="TreeModel_8hpp.html" target="_top" xlink:title="GuiBase/TreeModel/TreeModel.hpp">
<polygon fill="#ffffff" stroke="#000000" points="951.5,-246.5 951.5,-265.5 1134.5,-265.5 1134.5,-246.5 951.5,-246.5"/>
<text text-anchor="middle" x="1043" y="-253.5" font-family="Helvetica,sans-Serif" font-size="10.00" fill="#000000">GuiBase/TreeModel/TreeModel.hpp</text>
</a>
</g>
</g>
<!-- Node0&#45;&gt;Node30 -->
<g id="edge39" class="edge">
<title>Node0&#45;&gt;Node30</title>
<path fill="none" stroke="#191970" d="M905.5222,-302.4554C936.0226,-292.149 976.045,-278.6249 1005.0358,-268.8286"/>
<polygon fill="#191970" stroke="#191970" points="1006.4432,-272.0475 1014.7965,-265.5303 1004.2022,-265.4159 1006.4432,-272.0475"/>
</g>
<!-- Node2 -->
<g id="node3" class="node">
<title>Node2</title>
<g id="a_node3"><a xlink:href="CoreMacros_8hpp.html" target="_top" xlink:title="Core/CoreMacros.hpp">
<polygon fill="#ffffff" stroke="#000000" points="880,-73 880,-92 1000,-92 1000,-73 880,-73"/>
<text text-anchor="middle" x="940" y="-80" font-family="Helvetica,sans-Serif" font-size="10.00" fill="#000000">Core/CoreMacros.hpp</text>
</a>
</g>
</g>
<!-- Node1&#45;&gt;Node2 -->
<g id="edge2" class="edge">
<title>Node1&#45;&gt;Node2</title>
<path fill="none" stroke="#191970" d="M1299.3799,-190.4885C1271.3089,-176.4679 1216.1947,-150.1705 1167,-134 1113.6418,-116.4609 1051.3107,-102.7861 1005.4779,-93.9496"/>
<polygon fill="#191970" stroke="#191970" points="1005.8509,-90.4578 995.3731,-92.0281 1004.5432,-97.3346 1005.8509,-90.4578"/>
</g>
<!-- Node8 -->
<g id="node9" class="node">
<title>Node8</title>
<g id="a_node9"><a xlink:href="RaEngine_8hpp.html" target="_top" xlink:title="Engine/RaEngine.hpp">
<polygon fill="#ffffff" stroke="#000000" points="739.5,-134.5 739.5,-153.5 858.5,-153.5 858.5,-134.5 739.5,-134.5"/>
<text text-anchor="middle" x="799" y="-141.5" font-family="Helvetica,sans-Serif" font-size="10.00" fill="#000000">Engine/RaEngine.hpp</text>
</a>
</g>
</g>
<!-- Node1&#45;&gt;Node8 -->
<g id="edge8" class="edge">
<title>Node1&#45;&gt;Node8</title>
<path fill="none" stroke="#191970" d="M1250.8789,-191.0392C1247.8793,-190.6795 1244.909,-190.3313 1242,-190 1079.3225,-171.4738 1035.4899,-173.8773 868.9183,-154.0592"/>
<polygon fill="#191970" stroke="#191970" points="869.1614,-150.5634 858.8158,-152.8481 868.3281,-157.5136 869.1614,-150.5634"/>
</g>
<!-- Node3 -->
<g id="node4" class="node">
<title>Node3</title>
<polygon fill="#ffffff" stroke="#bfbfbf" points="1090,-6 1090,-25 1142,-25 1142,-6 1090,-6"/>
<text text-anchor="middle" x="1116" y="-13" font-family="Helvetica,sans-Serif" font-size="10.00" fill="#000000">cassert</text>
</g>
<!-- Node2&#45;&gt;Node3 -->
<g id="edge3" class="edge">
<title>Node2&#45;&gt;Node3</title>
<path fill="none" stroke="#191970" d="M967.7656,-72.974C996.3531,-63.0227 1042.0905,-46.7012 1081,-31 1082.5676,-30.3674 1084.1693,-29.7075 1085.7828,-29.0319"/>
<polygon fill="#191970" stroke="#191970" points="1087.1914,-32.2362 1094.9977,-25.0729 1084.4282,-25.8046 1087.1914,-32.2362"/>
</g>
<!-- Node4 -->
<g id="node5" class="node">
<title>Node4</title>
<polygon fill="#ffffff" stroke="#bfbfbf" points="808,-6 808,-25 854,-25 854,-6 808,-6"/>
<text text-anchor="middle" x="831" y="-13" font-family="Helvetica,sans-Serif" font-size="10.00" fill="#000000">cstdio</text>
</g>
<!-- Node2&#45;&gt;Node4 -->
<g id="edge4" class="edge">
<title>Node2&#45;&gt;Node4</title>
<path fill="none" stroke="#191970" d="M924.383,-72.9005C906.3331,-61.8057 876.4104,-43.4128 855.3092,-30.4424"/>
<polygon fill="#191970" stroke="#191970" points="856.9402,-27.3366 846.5881,-25.0817 853.2745,-33.3001 856.9402,-27.3366"/>
</g>
<!-- Node5 -->
<g id="node6" class="node">
<title>Node5</title>
<polygon fill="#ffffff" stroke="#bfbfbf" points="872,-6 872,-25 932,-25 932,-6 872,-6"/>
<text text-anchor="middle" x="902" y="-13" font-family="Helvetica,sans-Serif" font-size="10.00" fill="#000000">iostream</text>
</g>
<!-- Node2&#45;&gt;Node5 -->
<g id="edge5" class="edge">
<title>Node2&#45;&gt;Node5</title>
<path fill="none" stroke="#191970" d="M934.5555,-72.9005C928.7991,-62.751 919.5787,-46.4941 912.4176,-33.8679"/>
<polygon fill="#191970" stroke="#191970" points="915.4123,-32.0533 907.4344,-25.0817 909.3234,-35.5067 915.4123,-32.0533"/>
</g>
<!-- Node6 -->
<g id="node7" class="node">
<title>Node6</title>
<polygon fill="#ffffff" stroke="#bfbfbf" points="950,-6 950,-25 1006,-25 1006,-6 950,-6"/>
<text text-anchor="middle" x="978" y="-13" font-family="Helvetica,sans-Serif" font-size="10.00" fill="#000000">sstream</text>
</g>
<!-- Node2&#45;&gt;Node6 -->
<g id="edge6" class="edge">
<title>Node2&#45;&gt;Node6</title>
<path fill="none" stroke="#191970" d="M945.4445,-72.9005C951.2009,-62.751 960.4213,-46.4941 967.5824,-33.8679"/>
<polygon fill="#191970" stroke="#191970" points="970.6766,-35.5067 972.5656,-25.0817 964.5877,-32.0533 970.6766,-35.5067"/>
</g>
<!-- Node7 -->
<g id="node8" class="node">
<title>Node7</title>
<polygon fill="#ffffff" stroke="#bfbfbf" points="1024,-6 1024,-25 1072,-25 1072,-6 1024,-6"/>
<text text-anchor="middle" x="1048" y="-13" font-family="Helvetica,sans-Serif" font-size="10.00" fill="#000000">thread</text>
</g>
<!-- Node2&#45;&gt;Node7 -->
<g id="edge7" class="edge">
<title>Node2&#45;&gt;Node7</title>
<path fill="none" stroke="#191970" d="M955.4738,-72.9005C973.358,-61.8057 1003.0062,-43.4128 1023.9138,-30.4424"/>
<polygon fill="#191970" stroke="#191970" points="1025.9024,-33.3275 1032.5549,-25.0817 1022.2122,-27.3792 1025.9024,-33.3275"/>
</g>
<!-- Node8&#45;&gt;Node2 -->
<g id="edge9" class="edge">
<title>Node8&#45;&gt;Node2</title>
<path fill="none" stroke="#191970" d="M821.0313,-134.3906C844.6231,-124.1005 882.2501,-107.6888 908.8633,-96.0809"/>
<polygon fill="#191970" stroke="#191970" points="910.3567,-99.248 918.1235,-92.0419 907.5581,-92.8318 910.3567,-99.248"/>
</g>
<!-- Node9 -->
<g id="node10" class="node">
<title>Node9</title>
<g id="a_node10"><a xlink:href="OpenGL_8hpp.html" target="_top" xlink:title="Engine/Renderer/OpenGL\l/OpenGL.hpp">
<polygon fill="#ffffff" stroke="#000000" points="589.5,-67.5 589.5,-97.5 726.5,-97.5 726.5,-67.5 589.5,-67.5"/>
<text text-anchor="start" x="597.5" y="-85.5" font-family="Helvetica,sans-Serif" font-size="10.00" fill="#000000">Engine/Renderer/OpenGL</text>
<text text-anchor="middle" x="658" y="-74.5" font-family="Helvetica,sans-Serif" font-size="10.00" fill="#000000">/OpenGL.hpp</text>
</a>
</g>
</g>
<!-- Node8&#45;&gt;Node9 -->
<g id="edge10" class="edge">
<title>Node8&#45;&gt;Node9</title>
<path fill="none" stroke="#191970" d="M776.9688,-134.3906C756.9143,-125.6435 726.7182,-112.4728 701.7666,-101.5897"/>
<polygon fill="#191970" stroke="#191970" points="703.0578,-98.3345 692.4925,-97.5446 700.2592,-104.7507 703.0578,-98.3345"/>
</g>
<!-- Node10 -->
<g id="node11" class="node">
<title>Node10</title>
<polygon fill="#ffffff" stroke="#bfbfbf" points="522,-6 522,-25 650,-25 650,-6 522,-6"/>
<text text-anchor="middle" x="586" y="-13" font-family="Helvetica,sans-Serif" font-size="10.00" fill="#000000">glbinding/gl45core/gl.h</text>
</g>
<!-- Node9&#45;&gt;Node10 -->
<g id="edge11" class="edge">
<title>Node9&#45;&gt;Node10</title>
<path fill="none" stroke="#191970" d="M641.6621,-67.2967C630.3352,-56.7564 615.2624,-42.7303 603.6586,-31.9323"/>
<polygon fill="#191970" stroke="#191970" points="605.9731,-29.3051 596.268,-25.055 601.2044,-34.4296 605.9731,-29.3051"/>
</g>
<!-- Node11 -->
<g id="node12" class="node">
<title>Node11</title>
<polygon fill="#ffffff" stroke="#bfbfbf" points="668,-6 668,-25 790,-25 790,-6 668,-6"/>
<text text-anchor="middle" x="729" y="-13" font-family="Helvetica,sans-Serif" font-size="10.00" fill="#000000">glbinding/gl45ext/gl.h</text>
</g>
<!-- Node9&#45;&gt;Node11 -->
<g id="edge12" class="edge">
<title>Node9&#45;&gt;Node11</title>
<path fill="none" stroke="#191970" d="M674.111,-67.2967C685.2805,-56.7564 700.144,-42.7303 711.5867,-31.9323"/>
<polygon fill="#191970" stroke="#191970" points="714.0037,-34.4638 718.8746,-25.055 709.1994,-29.3727 714.0037,-34.4638"/>
</g>
<!-- Node12 -->
<g id="node13" class="node">
<title>Node12</title>
<polygon fill="#ffffff" stroke="#bfbfbf" points="390.5,-.5 390.5,-30.5 503.5,-30.5 503.5,-.5 390.5,-.5"/>
<text text-anchor="start" x="398.5" y="-18.5" font-family="Helvetica,sans-Serif" font-size="10.00" fill="#000000">glbinding&#45;aux/types</text>
<text text-anchor="middle" x="447" y="-7.5" font-family="Helvetica,sans-Serif" font-size="10.00" fill="#000000">_to_string.h</text>
</g>
<!-- Node9&#45;&gt;Node12 -->
<g id="edge13" class="edge">
<title>Node9&#45;&gt;Node12</title>
<path fill="none" stroke="#191970" d="M610.6475,-67.4639C579.1301,-57.456 537.544,-44.2509 504.1811,-33.657"/>
<polygon fill="#191970" stroke="#191970" points="505.1494,-30.2923 494.559,-30.6017 503.0308,-36.9641 505.1494,-30.2923"/>
</g>
<!-- Node13&#45;&gt;Node8 -->
<g id="edge15" class="edge">
<title>Node13&#45;&gt;Node8</title>
<path fill="none" stroke="#191970" d="M294.27,-246.472C243.2853,-237.3972 192.6331,-220.4441 221,-190 258.0276,-150.261 639.5232,-159.1935 729.1455,-153.7457"/>
<polygon fill="#191970" stroke="#191970" points="729.5061,-157.2282 739.1948,-152.9412 728.9474,-150.2505 729.5061,-157.2282"/>
</g>
<!-- Node14 -->
<g id="node15" class="node">
<title>Node14</title>
<g id="a_node15"><a xlink:href="Index_8hpp.html" target="_top" xlink:title="Core/Utils/Index.hpp">
<polygon fill="#ffffff" stroke="#000000" points="59,-190.5 59,-209.5 175,-209.5 175,-190.5 59,-190.5"/>
<text text-anchor="middle" x="117" y="-197.5" font-family="Helvetica,sans-Serif" font-size="10.00" fill="#000000">Core/Utils/Index.hpp</text>
</a>
</g>
</g>
<!-- Node13&#45;&gt;Node14 -->
<g id="edge16" class="edge">
<title>Node13&#45;&gt;Node14</title>
<path fill="none" stroke="#191970" d="M332.5998,-246.4369C287.9159,-236.8127 218.943,-221.957 171.0912,-211.6504"/>
<polygon fill="#191970" stroke="#191970" points="171.7298,-208.2078 161.217,-209.5237 170.2559,-215.0508 171.7298,-208.2078"/>
</g>
<!-- Node18 -->
<g id="node19" class="node">
<title>Node18</title>
<polygon fill="#ffffff" stroke="#bfbfbf" points="417,-190.5 417,-209.5 461,-209.5 461,-190.5 417,-190.5"/>
<text text-anchor="middle" x="439" y="-197.5" font-family="Helvetica,sans-Serif" font-size="10.00" fill="#000000">string</text>
</g>
<!-- Node13&#45;&gt;Node18 -->
<g id="edge22" class="edge">
<title>Node13&#45;&gt;Node18</title>
<path fill="none" stroke="#191970" d="M387.7996,-246.2455C396.8678,-238.0549 410.0206,-226.1749 420.7245,-216.5069"/>
<polygon fill="#191970" stroke="#191970" points="423.2491,-218.9429 428.3242,-209.6427 418.5571,-213.7482 423.2491,-218.9429"/>
</g>
<!-- Node19 -->
<g id="node20" class="node">
<title>Node19</title>
<polygon fill="#ffffff" stroke="#bfbfbf" points="479.5,-190.5 479.5,-209.5 526.5,-209.5 526.5,-190.5 479.5,-190.5"/>
<text text-anchor="middle" x="503" y="-197.5" font-family="Helvetica,sans-Serif" font-size="10.00" fill="#000000">vector</text>
</g>
<!-- Node13&#45;&gt;Node19 -->
<g id="edge23" class="edge">
<title>Node13&#45;&gt;Node19</title>
<path fill="none" stroke="#191970" d="M398.6602,-246.3733C418.9772,-237.3435 449.564,-223.7494 472.375,-213.6111"/>
<polygon fill="#191970" stroke="#191970" points="473.9059,-216.7609 481.6225,-209.5011 471.0628,-210.3642 473.9059,-216.7609"/>
</g>
<!-- Node20 -->
<g id="node21" class="node">
<title>Node20</title>
<g id="a_node21"><a xlink:href="ItemEntry_8inl.html" target="_top" xlink:title="Engine/ItemModel/ItemEntry.inl">
<polygon fill="#ffffff" stroke="#000000" points="230.5,-190.5 230.5,-209.5 399.5,-209.5 399.5,-190.5 230.5,-190.5"/>
<text text-anchor="middle" x="315" y="-197.5" font-family="Helvetica,sans-Serif" font-size="10.00" fill="#000000">Engine/ItemModel/ItemEntry.inl</text>
</a>
</g>
</g>
<!-- Node13&#45;&gt;Node20 -->
<g id="edge24" class="edge">
<title>Node13&#45;&gt;Node20</title>
<path fill="none" stroke="#191970" d="M366.2004,-246.2455C357.1322,-238.0549 343.9794,-226.1749 333.2755,-216.5069"/>
<polygon fill="#191970" stroke="#191970" points="335.4429,-213.7482 325.6758,-209.6427 330.7509,-218.9429 335.4429,-213.7482"/>
</g>
<!-- Node15 -->
<g id="node16" class="node">
<title>Node15</title>
<g id="a_node16"><a xlink:href="RaCore_8hpp.html" target="_top" xlink:title="Core/RaCore.hpp">
<polygon fill="#ffffff" stroke="#000000" points="623,-134.5 623,-153.5 721,-153.5 721,-134.5 623,-134.5"/>
<text text-anchor="middle" x="672" y="-141.5" font-family="Helvetica,sans-Serif" font-size="10.00" fill="#000000">Core/RaCore.hpp</text>
</a>
</g>
</g>
<!-- Node14&#45;&gt;Node15 -->
<g id="edge17" class="edge">
<title>Node14&#45;&gt;Node15</title>
<path fill="none" stroke="#191970" d="M175.1314,-191.7074C179.8205,-191.1052 184.4876,-190.528 189,-190 341.4563,-172.1613 521.6016,-156.4107 612.7677,-148.8143"/>
<polygon fill="#191970" stroke="#191970" points="613.229,-152.2881 622.9051,-147.9727 612.6498,-145.3121 613.229,-152.2881"/>
</g>
<!-- Node16 -->
<g id="node17" class="node">
<title>Node16</title>
<polygon fill="#ffffff" stroke="#bfbfbf" points="0,-134.5 0,-153.5 44,-153.5 44,-134.5 0,-134.5"/>
<text text-anchor="middle" x="22" y="-141.5" font-family="Helvetica,sans-Serif" font-size="10.00" fill="#000000">limits</text>
</g>
<!-- Node14&#45;&gt;Node16 -->
<g id="edge19" class="edge">
<title>Node14&#45;&gt;Node16</title>
<path fill="none" stroke="#191970" d="M100.4523,-190.2455C85.7401,-181.5731 64.0112,-168.7645 47.1495,-158.825"/>
<polygon fill="#191970" stroke="#191970" points="48.7502,-155.7057 38.3581,-153.6427 45.1954,-161.736 48.7502,-155.7057"/>
</g>
<!-- Node17 -->
<g id="node18" class="node">
<title>Node17</title>
<g id="a_node18"><a xlink:href="Index_8inl.html" target="_top" xlink:title="Core/Utils/Index.inl">
<polygon fill="#ffffff" stroke="#000000" points="62,-134.5 62,-153.5 172,-153.5 172,-134.5 62,-134.5"/>
<text text-anchor="middle" x="117" y="-141.5" font-family="Helvetica,sans-Serif" font-size="10.00" fill="#000000">Core/Utils/Index.inl</text>
</a>
</g>
</g>
<!-- Node14&#45;&gt;Node17 -->
<g id="edge20" class="edge">
<title>Node14&#45;&gt;Node17</title>
<path fill="none" stroke="#191970" d="M111.7332,-190.2455C110.3221,-182.9382 109.9179,-172.6944 110.5205,-163.7046"/>
<polygon fill="#191970" stroke="#191970" points="114.0111,-163.9945 111.7549,-153.6427 107.0632,-163.1421 114.0111,-163.9945"/>
</g>
<!-- Node15&#45;&gt;Node2 -->
<g id="edge18" class="edge">
<title>Node15&#45;&gt;Node2</title>
<path fill="none" stroke="#191970" d="M713.581,-134.4581C760.7205,-123.6406 837.6113,-105.9959 888.5057,-94.3168"/>
<polygon fill="#191970" stroke="#191970" points="889.3577,-97.7123 898.3215,-92.0643 887.792,-90.8897 889.3577,-97.7123"/>
</g>
<!-- Node17&#45;&gt;Node14 -->
<g id="edge21" class="edge">
<title>Node17&#45;&gt;Node14</title>
<path fill="none" stroke="#191970" d="M122.2451,-153.6427C123.6665,-160.9199 124.081,-171.155 123.4887,-180.1575"/>
<polygon fill="#191970" stroke="#191970" points="119.9947,-179.8972 122.2668,-190.2455 126.9439,-180.739 119.9947,-179.8972"/>
</g>
<!-- Node21&#45;&gt;Node8 -->
<g id="edge26" class="edge">
<title>Node21&#45;&gt;Node8</title>
<path fill="none" stroke="#191970" d="M759.5685,-246.3976C776.4108,-239.2338 796.0794,-227.6009 806,-210 814.0252,-195.7619 811.0083,-177.0397 806.7218,-163.1736"/>
<polygon fill="#191970" stroke="#191970" points="809.9946,-161.9303 803.3583,-153.6714 803.3958,-164.2662 809.9946,-161.9303"/>
</g>
<!-- Node21&#45;&gt;Node18 -->
<g id="edge37" class="edge">
<title>Node21&#45;&gt;Node18</title>
<path fill="none" stroke="#191970" d="M661.3074,-246.4729C610.9456,-238.8851 540.8132,-227.0684 471.0807,-210.0193"/>
<polygon fill="#191970" stroke="#191970" points="471.7945,-206.5904 461.2459,-207.5788 470.1085,-213.3843 471.7945,-206.5904"/>
</g>
<!-- Node21&#45;&gt;Node19 -->
<g id="edge38" class="edge">
<title>Node21&#45;&gt;Node19</title>
<path fill="none" stroke="#191970" d="M686.2744,-246.4385C648.9855,-238.1037 593.7498,-225.3328 536.6655,-210.0604"/>
<polygon fill="#191970" stroke="#191970" points="537.3093,-206.6091 526.7429,-207.3851 535.487,-213.3677 537.3093,-206.6091"/>
</g>
<!-- Node22 -->
<g id="node23" class="node">
<title>Node22</title>
<g id="a_node23"><a xlink:href="Types_8hpp.html" target="_top" xlink:title="Core/Types.hpp">
<polygon fill="#ffffff" stroke="#000000" points="853.5,-190.5 853.5,-209.5 944.5,-209.5 944.5,-190.5 853.5,-190.5"/>
<text text-anchor="middle" x="899" y="-197.5" font-family="Helvetica,sans-Serif" font-size="10.00" fill="#000000">Core/Types.hpp</text>
</a>
</g>
</g>
<!-- Node21&#45;&gt;Node22 -->
<g id="edge27" class="edge">
<title>Node21&#45;&gt;Node22</title>
<path fill="none" stroke="#191970" d="M759.0521,-246.3733C787.1543,-237.0613 829.9054,-222.8953 860.7607,-212.671"/>
<polygon fill="#191970" stroke="#191970" points="861.9355,-215.969 870.327,-209.5011 859.7336,-209.3243 861.9355,-215.969"/>
</g>
<!-- Node26 -->
<g id="node27" class="node">
<title>Node26</title>
<g id="a_node27"><a xlink:href="Singleton_8hpp.html" target="_top" xlink:title="Core/Utils/Singleton.hpp">
<polygon fill="#ffffff" stroke="#000000" points="663,-190.5 663,-209.5 797,-209.5 797,-190.5 663,-190.5"/>
<text text-anchor="middle" x="730" y="-197.5" font-family="Helvetica,sans-Serif" font-size="10.00" fill="#000000">Core/Utils/Singleton.hpp</text>
</a>
</g>
</g>
<!-- Node21&#45;&gt;Node26 -->
<g id="edge32" class="edge">
<title>Node21&#45;&gt;Node26</title>
<path fill="none" stroke="#191970" d="M730,-246.2455C730,-238.9382 730,-228.6944 730,-219.7046"/>
<polygon fill="#191970" stroke="#191970" points="733.5001,-219.6426 730,-209.6427 726.5001,-219.6427 733.5001,-219.6426"/>
</g>
<!-- Node27 -->
<g id="node28" class="node">
<title>Node27</title>
<polygon fill="#ffffff" stroke="#bfbfbf" points="545,-190.5 545,-209.5 583,-209.5 583,-190.5 545,-190.5"/>
<text text-anchor="middle" x="564" y="-197.5" font-family="Helvetica,sans-Serif" font-size="10.00" fill="#000000">map</text>
</g>
<!-- Node21&#45;&gt;Node27 -->
<g id="edge34" class="edge">
<title>Node21&#45;&gt;Node27</title>
<path fill="none" stroke="#191970" d="M700.8631,-246.4872C674.8582,-237.9531 635.5076,-224.9327 592.9639,-210.2887"/>
<polygon fill="#191970" stroke="#191970" points="593.8555,-206.8939 583.2607,-206.9395 591.5715,-213.5108 593.8555,-206.8939"/>
</g>
<!-- Node28 -->
<g id="node29" class="node">
<title>Node28</title>
<polygon fill="#ffffff" stroke="#bfbfbf" points="963,-190.5 963,-209.5 1021,-209.5 1021,-190.5 963,-190.5"/>
<text text-anchor="middle" x="992" y="-197.5" font-family="Helvetica,sans-Serif" font-size="10.00" fill="#000000">memory</text>
</g>
<!-- Node21&#45;&gt;Node28 -->
<g id="edge35" class="edge">
<title>Node21&#45;&gt;Node28</title>
<path fill="none" stroke="#191970" d="M780.4369,-246.4619C823.7273,-238.0902 888.0086,-225.222 952.9853,-210.1467"/>
<polygon fill="#191970" stroke="#191970" points="954.0534,-213.4915 962.9947,-207.8079 952.4606,-206.6751 954.0534,-213.4915"/>
</g>
<!-- Node29 -->
<g id="node30" class="node">
<title>Node29</title>
<polygon fill="#ffffff" stroke="#bfbfbf" points="601.5,-190.5 601.5,-209.5 644.5,-209.5 644.5,-190.5 601.5,-190.5"/>
<text text-anchor="middle" x="623" y="-197.5" font-family="Helvetica,sans-Serif" font-size="10.00" fill="#000000">stack</text>
</g>
<!-- Node21&#45;&gt;Node29 -->
<g id="edge36" class="edge">
<title>Node21&#45;&gt;Node29</title>
<path fill="none" stroke="#191970" d="M711.362,-246.2455C694.5614,-237.4527 669.6366,-224.4079 650.5382,-214.4125"/>
<polygon fill="#191970" stroke="#191970" points="651.9073,-211.1787 641.4244,-209.6427 648.6614,-217.3807 651.9073,-211.1787"/>
</g>
<!-- Node22&#45;&gt;Node15 -->
<g id="edge28" class="edge">
<title>Node22&#45;&gt;Node15</title>
<path fill="none" stroke="#191970" d="M860.2352,-190.4369C821.6308,-180.9133 762.2616,-166.2672 720.5428,-155.9753"/>
<polygon fill="#191970" stroke="#191970" points="721.1521,-152.5208 710.6049,-153.5237 719.4755,-159.317 721.1521,-152.5208"/>
</g>
<!-- Node23 -->
<g id="node24" class="node">
<title>Node23</title>
<polygon fill="#ffffff" stroke="#bfbfbf" points="1088.5,-134.5 1088.5,-153.5 1157.5,-153.5 1157.5,-134.5 1088.5,-134.5"/>
<text text-anchor="middle" x="1123" y="-141.5" font-family="Helvetica,sans-Serif" font-size="10.00" fill="#000000">Eigen/Core</text>
</g>
<!-- Node22&#45;&gt;Node23 -->
<g id="edge29" class="edge">
<title>Node22&#45;&gt;Node23</title>
<path fill="none" stroke="#191970" d="M937.2525,-190.4369C976.3856,-180.6536 1037.142,-165.4645 1078.4273,-155.1432"/>
<polygon fill="#191970" stroke="#191970" points="1079.3669,-158.5161 1088.2194,-152.6951 1077.6691,-151.7251 1079.3669,-158.5161"/>
</g>
<!-- Node24 -->
<g id="node25" class="node">
<title>Node24</title>
<polygon fill="#ffffff" stroke="#bfbfbf" points="876.5,-134.5 876.5,-153.5 971.5,-153.5 971.5,-134.5 876.5,-134.5"/>
<text text-anchor="middle" x="924" y="-141.5" font-family="Helvetica,sans-Serif" font-size="10.00" fill="#000000">Eigen/Geometry</text>
</g>
<!-- Node22&#45;&gt;Node24 -->
<g id="edge30" class="edge">
<title>Node22&#45;&gt;Node24</title>
<path fill="none" stroke="#191970" d="M903.3547,-190.2455C906.7244,-182.6973 911.493,-172.0158 915.5983,-162.8197"/>
<polygon fill="#191970" stroke="#191970" points="918.8147,-164.2009 919.6952,-153.6427 912.4227,-161.3473 918.8147,-164.2009"/>
</g>
<!-- Node25 -->
<g id="node26" class="node">
<title>Node25</title>
<polygon fill="#ffffff" stroke="#bfbfbf" points="990,-134.5 990,-153.5 1070,-153.5 1070,-134.5 990,-134.5"/>
<text text-anchor="middle" x="1030" y="-141.5" font-family="Helvetica,sans-Serif" font-size="10.00" fill="#000000">Eigen/Sparse</text>
</g>
<!-- Node22&#45;&gt;Node25 -->
<g id="edge31" class="edge">
<title>Node22&#45;&gt;Node25</title>
<path fill="none" stroke="#191970" d="M921.5197,-190.3733C942.7372,-181.3032 974.7276,-167.6279 998.4769,-157.4755"/>
<polygon fill="#191970" stroke="#191970" points="999.9548,-160.6502 1007.7742,-153.5011 997.2033,-154.2136 999.9548,-160.6502"/>
</g>
<!-- Node26&#45;&gt;Node15 -->
<g id="edge33" class="edge">
<title>Node26&#45;&gt;Node15</title>
<path fill="none" stroke="#191970" d="M719.8972,-190.2455C711.4972,-182.1352 699.3506,-170.4075 689.3916,-160.7919"/>
<polygon fill="#191970" stroke="#191970" points="691.6122,-158.0707 681.9871,-153.6427 686.75,-163.1066 691.6122,-158.0707"/>
</g>
<!-- Node30&#45;&gt;Node1 -->
<g id="edge40" class="edge">
<title>Node30&#45;&gt;Node1</title>
<path fill="none" stroke="#191970" d="M1089.9617,-246.4369C1137.4213,-236.7724 1210.7866,-221.8326 1261.4223,-211.5213"/>
<polygon fill="#191970" stroke="#191970" points="1262.1315,-214.9488 1271.232,-209.5237 1260.7347,-208.0895 1262.1315,-214.9488"/>
</g>
<!-- Node30&#45;&gt;Node19 -->
<g id="edge42" class="edge">
<title>Node30&#45;&gt;Node19</title>
<path fill="none" stroke="#191970" d="M951.08,-253.2828C851.091,-249.0559 686.6118,-238.3927 536.5127,-209.7115"/>
<polygon fill="#191970" stroke="#191970" points="537.1313,-206.2663 526.6475,-207.7961 535.7971,-213.138 537.1313,-206.2663"/>
</g>
<!-- Node30&#45;&gt;Node28 -->
<g id="edge41" class="edge">
<title>Node30&#45;&gt;Node28</title>
<path fill="none" stroke="#191970" d="M1034.1165,-246.2455C1026.8034,-238.2155 1016.2609,-226.6394 1007.5533,-217.0781"/>
<polygon fill="#191970" stroke="#191970" points="1010.1028,-214.6795 1000.7817,-209.6427 1004.9273,-219.3928 1010.1028,-214.6795"/>
</g>
<!-- Node31 -->
<g id="node32" class="node">
<title>Node31</title>
<polygon fill="#ffffff" stroke="#bfbfbf" points="1039,-190.5 1039,-209.5 1155,-209.5 1155,-190.5 1039,-190.5"/>
<text text-anchor="middle" x="1097" y="-197.5" font-family="Helvetica,sans-Serif" font-size="10.00" fill="#000000">QAbstractItemModel</text>
</g>
<!-- Node30&#45;&gt;Node31 -->
<g id="edge43" class="edge">
<title>Node30&#45;&gt;Node31</title>
<path fill="none" stroke="#191970" d="M1052.4061,-246.2455C1060.1493,-238.2155 1071.312,-226.6394 1080.5318,-217.0781"/>
<polygon fill="#191970" stroke="#191970" points="1083.2798,-219.2706 1087.7017,-209.6427 1078.2409,-214.4117 1083.2798,-219.2706"/>
</g>
<!-- Node32 -->
<g id="node33" class="node">
<title>Node32</title>
<polygon fill="#ffffff" stroke="#bfbfbf" points="1173.5,-190.5 1173.5,-209.5 1232.5,-209.5 1232.5,-190.5 1173.5,-190.5"/>
<text text-anchor="middle" x="1203" y="-197.5" font-family="Helvetica,sans-Serif" font-size="10.00" fill="#000000">QVariant</text>
</g>
<!-- Node30&#45;&gt;Node32 -->
<g id="edge44" class="edge">
<title>Node30&#45;&gt;Node32</title>
<path fill="none" stroke="#191970" d="M1070.505,-246.3733C1096.8802,-237.1419 1136.8851,-223.1402 1166.0358,-212.9375"/>
<polygon fill="#191970" stroke="#191970" points="1167.5716,-216.1082 1175.8539,-209.5011 1165.2591,-209.5012 1167.5716,-216.1082"/>
</g>
</g>
</svg>
