<?xml version="1.0" encoding="UTF-8" standalone="no"?>
<!DOCTYPE svg PUBLIC "-//W3C//DTD SVG 1.1//EN"
 "http://www.w3.org/Graphics/SVG/1.1/DTD/svg11.dtd">
<!-- Generated by graphviz version 2.43.0 (0)
 -->
<!-- Title: /home/runner/work/Radium&#45;Engine/Radium&#45;Engine/src/Radium&#45;Engine/src/Core/Asset/GeometryData.hpp Pages: 1 -->
<!--zoomable 328 -->
<svg id="main" version="1.1" xmlns="http://www.w3.org/2000/svg" xmlns:xlink="http://www.w3.org/1999/xlink" xml:space="preserve" onload="init(evt)">
<style type="text/css"><![CDATA[
.edge:hover path { stroke: red; }
.edge:hover polygon { stroke: red; fill: red; }
]]></style>
<script type="text/javascript"><![CDATA[
var edges = document.getElementsByTagName('g');
if (edges && edges.length) {
  for (var i=0;i<edges.length;i++) {
    if (edges[i].id.substr(0,4)=='edge') {
      edges[i].setAttribute('class','edge');
    }
  }
}
]]></script>
        <defs>
                <circle id="rim" cx="0" cy="0" r="7"/>
                <circle id="rim2" cx="0" cy="0" r="3.5"/>
                <g id="zoomPlus">
                        <use xlink:href="#rim" fill="#404040">
                                <set attributeName="fill" to="#808080" begin="zoomplus.mouseover" end="zoomplus.mouseout"/>
                        </use>
                        <path d="M-4,0h8M0,-4v8" fill="none" stroke="white" stroke-width="1.5" pointer-events="none"/>
                </g>
                <g id="zoomMin">
                        <use xlink:href="#rim" fill="#404040">
                                <set attributeName="fill" to="#808080" begin="zoomminus.mouseover" end="zoomminus.mouseout"/>
                        </use>
                        <path d="M-4,0h8" fill="none" stroke="white" stroke-width="1.5" pointer-events="none"/>
                </g>
                <g id="dirArrow">
                        <path fill="none" stroke="white" stroke-width="1.5" d="M0,-3.0v7 M-2.5,-0.5L0,-3.0L2.5,-0.5"/>
                </g>
               <g id="resetDef">
                       <use xlink:href="#rim2" fill="#404040">
                               <set attributeName="fill" to="#808080" begin="reset.mouseover" end="reset.mouseout"/>
                       </use>
               </g>
        </defs>

<script type="text/javascript">
var viewWidth = 2327;
var viewHeight = 328;
var sectionId = 'dynsection-1';
</script>
<script xlink:href="svgpan.js"/>
<svg id="graph" class="graph">
<g id="viewport">
<title>/home/runner/work/Radium&#45;Engine/Radium&#45;Engine/src/Radium&#45;Engine/src/Core/Asset/GeometryData.hpp</title>
<polygon fill="white" stroke="transparent" points="-4,4 -4,-324 2322.5,-324 2322.5,4 -4,4"/>
<!-- Node1 -->
<g id="node1" class="node">
<title>Node1</title>
<g id="a_node1"><a xlink:title=" ">
<polygon fill="#bfbfbf" stroke="black" points="1341,-267.5 1341,-319.5 1508,-319.5 1508,-267.5 1341,-267.5"/>
<text text-anchor="start" x="1349" y="-307.5" font-family="Helvetica,sans-Serif" font-size="10.00">/home/runner/work/Radium</text>
<text text-anchor="start" x="1349" y="-296.5" font-family="Helvetica,sans-Serif" font-size="10.00">&#45;Engine/Radium&#45;Engine/src</text>
<text text-anchor="start" x="1349" y="-285.5" font-family="Helvetica,sans-Serif" font-size="10.00">/Radium&#45;Engine/src/Core/Asset</text>
<text text-anchor="middle" x="1424.5" y="-274.5" font-family="Helvetica,sans-Serif" font-size="10.00">/GeometryData.hpp</text>
</a>
</g>
</g>
<!-- Node2 -->
<g id="node2" class="node">
<title>Node2</title>
<g id="a_node2"><a xlink:href="FileData_8inl.html" target="_top" xlink:title=" ">
<polygon fill="white" stroke="black" points="1075,-178.5 1075,-230.5 1242,-230.5 1242,-178.5 1075,-178.5"/>
<text text-anchor="start" x="1083" y="-218.5" font-family="Helvetica,sans-Serif" font-size="10.00">/home/runner/work/Radium</text>
<text text-anchor="start" x="1083" y="-207.5" font-family="Helvetica,sans-Serif" font-size="10.00">&#45;Engine/Radium&#45;Engine/src</text>
<text text-anchor="start" x="1083" y="-196.5" font-family="Helvetica,sans-Serif" font-size="10.00">/Radium&#45;Engine/src/Core/Asset</text>
<text text-anchor="middle" x="1158.5" y="-185.5" font-family="Helvetica,sans-Serif" font-size="10.00">/FileData.inl</text>
</a>
</g>
</g>
<!-- Node1&#45;&gt;Node2 -->
<g id="edge1" class="edge">
<title>Node1&#45;&gt;Node2</title>
<path fill="none" stroke="midnightblue" d="M1338.21,-264.28C1304.97,-253.4 1267.26,-241.07 1235,-230.52"/>
<polygon fill="midnightblue" stroke="midnightblue" points="1337.33,-267.67 1347.92,-267.45 1339.5,-261.02 1337.33,-267.67"/>
</g>
<!-- Node6 -->
<g id="node6" class="node">
<title>Node6</title>
<g id="a_node6"><a xlink:href="LightManager_8cpp.html" target="_top" xlink:title=" ">
<polygon fill="white" stroke="black" points="0,-0.5 0,-52.5 227,-52.5 227,-0.5 0,-0.5"/>
<text text-anchor="start" x="8" y="-40.5" font-family="Helvetica,sans-Serif" font-size="10.00">/home/runner/work/Radium</text>
<text text-anchor="start" x="8" y="-29.5" font-family="Helvetica,sans-Serif" font-size="10.00">&#45;Engine/Radium&#45;Engine/src</text>
<text text-anchor="start" x="8" y="-18.5" font-family="Helvetica,sans-Serif" font-size="10.00">/Radium&#45;Engine/src/Engine</text>
<text text-anchor="middle" x="113.5" y="-7.5" font-family="Helvetica,sans-Serif" font-size="10.00">/Managers/LightManager/LightManager.cpp</text>
</a>
</g>
</g>
<!-- Node1&#45;&gt;Node6 -->
<g id="edge23" class="edge">
<title>Node1&#45;&gt;Node6</title>
<path fill="none" stroke="midnightblue" d="M1330.87,-277.54C1258.32,-265.68 1155.35,-248.29 1065.5,-231 759.5,-172.11 400.46,-92.49 223.51,-52.55"/>
<polygon fill="midnightblue" stroke="midnightblue" points="1330.47,-281.02 1340.9,-279.17 1331.6,-274.11 1330.47,-281.02"/>
</g>
<!-- Node9 -->
<g id="node9" class="node">
<title>Node9</title>
<g id="a_node9"><a xlink:href="GeometrySystem_8cpp.html" target="_top" xlink:title=" ">
<polygon fill="white" stroke="black" points="1857,-0.5 1857,-52.5 2022,-52.5 2022,-0.5 1857,-0.5"/>
<text text-anchor="start" x="1865" y="-40.5" font-family="Helvetica,sans-Serif" font-size="10.00">/home/runner/work/Radium</text>
<text text-anchor="start" x="1865" y="-29.5" font-family="Helvetica,sans-Serif" font-size="10.00">&#45;Engine/Radium&#45;Engine/src</text>
<text text-anchor="start" x="1865" y="-18.5" font-family="Helvetica,sans-Serif" font-size="10.00">/Radium&#45;Engine/src/Engine</text>
<text text-anchor="middle" x="1939.5" y="-7.5" font-family="Helvetica,sans-Serif" font-size="10.00">/System/GeometrySystem.cpp</text>
</a>
</g>
</g>
<!-- Node1&#45;&gt;Node9 -->
<g id="edge24" class="edge">
<title>Node1&#45;&gt;Node9</title>
<path fill="none" stroke="midnightblue" d="M1359.1,-261.47C1348.01,-253.17 1337.99,-243.07 1331.5,-231 1320.35,-210.25 1317.61,-197.03 1331.5,-178 1470.61,12.6 1616.73,-102.25 1847.5,-53 1850.58,-52.34 1853.71,-51.64 1856.86,-50.91"/>
<polygon fill="midnightblue" stroke="midnightblue" points="1357.12,-264.36 1367.33,-267.19 1361.12,-258.61 1357.12,-264.36"/>
</g>
<!-- Node14 -->
<g id="node14" class="node">
<title>Node14</title>
<g id="a_node14"><a xlink:href="GeometryData_8inl.html" target="_top" xlink:title=" ">
<polygon fill="white" stroke="black" points="1341,-178.5 1341,-230.5 1508,-230.5 1508,-178.5 1341,-178.5"/>
<text text-anchor="start" x="1349" y="-218.5" font-family="Helvetica,sans-Serif" font-size="10.00">/home/runner/work/Radium</text>
<text text-anchor="start" x="1349" y="-207.5" font-family="Helvetica,sans-Serif" font-size="10.00">&#45;Engine/Radium&#45;Engine/src</text>
<text text-anchor="start" x="1349" y="-196.5" font-family="Helvetica,sans-Serif" font-size="10.00">/Radium&#45;Engine/src/Core/Asset</text>
<text text-anchor="middle" x="1424.5" y="-185.5" font-family="Helvetica,sans-Serif" font-size="10.00">/GeometryData.inl</text>
</a>
</g>
</g>
<!-- Node1&#45;&gt;Node14 -->
<g id="edge13" class="edge">
<title>Node1&#45;&gt;Node14</title>
<path fill="none" stroke="midnightblue" d="M1417.86,-257.19C1417.62,-248.28 1417.77,-238.9 1418.32,-230.61"/>
<polygon fill="midnightblue" stroke="midnightblue" points="1414.37,-257.5 1418.31,-267.34 1421.36,-257.19 1414.37,-257.5"/>
</g>
<!-- Node15 -->
<g id="node15" class="node">
<title>Node15</title>
<g id="a_node15"><a xlink:href="GeometryData_8cpp.html" target="_top" xlink:title=" ">
<polygon fill="white" stroke="black" points="1526,-178.5 1526,-230.5 1693,-230.5 1693,-178.5 1526,-178.5"/>
<text text-anchor="start" x="1534" y="-218.5" font-family="Helvetica,sans-Serif" font-size="10.00">/home/runner/work/Radium</text>
<text text-anchor="start" x="1534" y="-207.5" font-family="Helvetica,sans-Serif" font-size="10.00">&#45;Engine/Radium&#45;Engine/src</text>
<text text-anchor="start" x="1534" y="-196.5" font-family="Helvetica,sans-Serif" font-size="10.00">/Radium&#45;Engine/src/Core/Asset</text>
<text text-anchor="middle" x="1609.5" y="-185.5" font-family="Helvetica,sans-Serif" font-size="10.00">/GeometryData.cpp</text>
</a>
</g>
</g>
<!-- Node1&#45;&gt;Node15 -->
<g id="edge15" class="edge">
<title>Node1&#45;&gt;Node15</title>
<path fill="none" stroke="midnightblue" d="M1487.11,-263.06C1509.52,-252.52 1534.55,-240.75 1556.11,-230.61"/>
<polygon fill="midnightblue" stroke="midnightblue" points="1485.57,-259.91 1478.01,-267.34 1488.55,-266.25 1485.57,-259.91"/>
</g>
<!-- Node16 -->
<g id="node16" class="node">
<title>Node16</title>
<g id="a_node16"><a xlink:href="GeometryComponent_8hpp.html" target="_top" xlink:title=" ">
<polygon fill="white" stroke="black" points="1749,-178.5 1749,-230.5 1954,-230.5 1954,-178.5 1749,-178.5"/>
<text text-anchor="start" x="1757" y="-218.5" font-family="Helvetica,sans-Serif" font-size="10.00">/home/runner/work/Radium</text>
<text text-anchor="start" x="1757" y="-207.5" font-family="Helvetica,sans-Serif" font-size="10.00">&#45;Engine/Radium&#45;Engine/src</text>
<text text-anchor="start" x="1757" y="-196.5" font-family="Helvetica,sans-Serif" font-size="10.00">/Radium&#45;Engine/src/Engine</text>
<text text-anchor="middle" x="1851.5" y="-185.5" font-family="Helvetica,sans-Serif" font-size="10.00">/Component/GeometryComponent.hpp</text>
</a>
</g>
</g>
<!-- Node1&#45;&gt;Node16 -->
<g id="edge16" class="edge">
<title>Node1&#45;&gt;Node16</title>
<path fill="none" stroke="midnightblue" d="M1518.22,-274.38C1579.76,-262.37 1661.99,-246.09 1734.5,-231 1739.18,-230.03 1743.97,-229.02 1748.8,-228"/>
<polygon fill="midnightblue" stroke="midnightblue" points="1517.28,-271 1508.13,-276.35 1518.62,-277.87 1517.28,-271"/>
</g>
<!-- Node17 -->
<g id="node17" class="node">
<title>Node17</title>
<g id="a_node17"><a xlink:href="GeometryComponent_8cpp.html" target="_top" xlink:title=" ">
<polygon fill="white" stroke="black" points="1618.5,-89.5 1618.5,-141.5 1822.5,-141.5 1822.5,-89.5 1618.5,-89.5"/>
<text text-anchor="start" x="1626.5" y="-129.5" font-family="Helvetica,sans-Serif" font-size="10.00">/home/runner/work/Radium</text>
<text text-anchor="start" x="1626.5" y="-118.5" font-family="Helvetica,sans-Serif" font-size="10.00">&#45;Engine/Radium&#45;Engine/src</text>
<text text-anchor="start" x="1626.5" y="-107.5" font-family="Helvetica,sans-Serif" font-size="10.00">/Radium&#45;Engine/src/Engine</text>
<text text-anchor="middle" x="1720.5" y="-96.5" font-family="Helvetica,sans-Serif" font-size="10.00">/Component/GeometryComponent.cpp</text>
</a>
</g>
</g>
<!-- Node1&#45;&gt;Node17 -->
<g id="edge22" class="edge">
<title>Node1&#45;&gt;Node17</title>
<path fill="none" stroke="midnightblue" d="M1518.48,-282.89C1588.65,-273.72 1676.56,-257.33 1701.5,-231 1723.95,-207.3 1725.6,-167.75 1723.78,-141.89"/>
<polygon fill="midnightblue" stroke="midnightblue" points="1517.74,-279.46 1508.26,-284.19 1518.62,-286.4 1517.74,-279.46"/>
</g>
<!-- Node20 -->
<g id="node20" class="node">
<title>Node20</title>
<g id="a_node20"><a xlink:href="AssimpGeometryDataLoader_8cpp.html" target="_top" xlink:title=" ">
<polygon fill="white" stroke="black" points="1972,-178.5 1972,-230.5 2169,-230.5 2169,-178.5 1972,-178.5"/>
<text text-anchor="start" x="1980" y="-218.5" font-family="Helvetica,sans-Serif" font-size="10.00">/home/runner/work/Radium</text>
<text text-anchor="start" x="1980" y="-207.5" font-family="Helvetica,sans-Serif" font-size="10.00">&#45;Engine/Radium&#45;Engine/src</text>
<text text-anchor="start" x="1980" y="-196.5" font-family="Helvetica,sans-Serif" font-size="10.00">/Radium&#45;Engine/src/IO/AssimpLoader</text>
<text text-anchor="middle" x="2070.5" y="-185.5" font-family="Helvetica,sans-Serif" font-size="10.00">/AssimpGeometryDataLoader.cpp</text>
</a>
</g>
</g>
<!-- Node1&#45;&gt;Node20 -->
<g id="edge25" class="edge">
<title>Node1&#45;&gt;Node20</title>
<path fill="none" stroke="midnightblue" d="M1518.54,-285.14C1626.31,-275.92 1807.96,-257.98 1962.5,-231 1965.54,-230.47 1968.62,-229.91 1971.72,-229.32"/>
<polygon fill="midnightblue" stroke="midnightblue" points="1518.02,-281.67 1508.35,-286 1518.61,-288.64 1518.02,-281.67"/>
</g>
<!-- Node3 -->
<g id="node3" class="node">
<title>Node3</title>
<g id="a_node3"><a xlink:href="FileData_8hpp.html" target="_top" xlink:title=" ">
<polygon fill="white" stroke="black" points="1031,-89.5 1031,-141.5 1198,-141.5 1198,-89.5 1031,-89.5"/>
<text text-anchor="start" x="1039" y="-129.5" font-family="Helvetica,sans-Serif" font-size="10.00">/home/runner/work/Radium</text>
<text text-anchor="start" x="1039" y="-118.5" font-family="Helvetica,sans-Serif" font-size="10.00">&#45;Engine/Radium&#45;Engine/src</text>
<text text-anchor="start" x="1039" y="-107.5" font-family="Helvetica,sans-Serif" font-size="10.00">/Radium&#45;Engine/src/Core/Asset</text>
<text text-anchor="middle" x="1114.5" y="-96.5" font-family="Helvetica,sans-Serif" font-size="10.00">/FileData.hpp</text>
</a>
</g>
</g>
<!-- Node2&#45;&gt;Node3 -->
<g id="edge2" class="edge">
<title>Node2&#45;&gt;Node3</title>
<path fill="none" stroke="midnightblue" d="M1141.23,-169.35C1136.55,-160.1 1131.57,-150.26 1127.2,-141.61"/>
<polygon fill="midnightblue" stroke="midnightblue" points="1138.14,-170.99 1145.77,-178.34 1144.38,-167.83 1138.14,-170.99"/>
</g>
<!-- Node4 -->
<g id="node4" class="node">
<title>Node4</title>
<g id="a_node4"><a xlink:href="FileData_8cpp.html" target="_top" xlink:title=" ">
<polygon fill="white" stroke="black" points="245,-0.5 245,-52.5 412,-52.5 412,-0.5 245,-0.5"/>
<text text-anchor="start" x="253" y="-40.5" font-family="Helvetica,sans-Serif" font-size="10.00">/home/runner/work/Radium</text>
<text text-anchor="start" x="253" y="-29.5" font-family="Helvetica,sans-Serif" font-size="10.00">&#45;Engine/Radium&#45;Engine/src</text>
<text text-anchor="start" x="253" y="-18.5" font-family="Helvetica,sans-Serif" font-size="10.00">/Radium&#45;Engine/src/Core/Asset</text>
<text text-anchor="middle" x="328.5" y="-7.5" font-family="Helvetica,sans-Serif" font-size="10.00">/FileData.cpp</text>
</a>
</g>
</g>
<!-- Node3&#45;&gt;Node4 -->
<g id="edge3" class="edge">
<title>Node3&#45;&gt;Node4</title>
<path fill="none" stroke="midnightblue" d="M1020.55,-111.59C886.47,-106.22 632.92,-91.52 420.5,-53 417.73,-52.5 414.92,-51.95 412.09,-51.36"/>
<polygon fill="midnightblue" stroke="midnightblue" points="1020.66,-115.1 1030.79,-111.99 1020.93,-108.11 1020.66,-115.1"/>
</g>
<!-- Node5 -->
<g id="node5" class="node">
<title>Node5</title>
<g id="a_node5"><a xlink:href="CameraManager_8cpp.html" target="_top" xlink:title=" ">
<polygon fill="white" stroke="black" points="430,-0.5 430,-52.5 685,-52.5 685,-0.5 430,-0.5"/>
<text text-anchor="start" x="438" y="-40.5" font-family="Helvetica,sans-Serif" font-size="10.00">/home/runner/work/Radium</text>
<text text-anchor="start" x="438" y="-29.5" font-family="Helvetica,sans-Serif" font-size="10.00">&#45;Engine/Radium&#45;Engine/src</text>
<text text-anchor="start" x="438" y="-18.5" font-family="Helvetica,sans-Serif" font-size="10.00">/Radium&#45;Engine/src/Engine</text>
<text text-anchor="middle" x="557.5" y="-7.5" font-family="Helvetica,sans-Serif" font-size="10.00">/Managers/CameraManager/CameraManager.cpp</text>
</a>
</g>
</g>
<!-- Node3&#45;&gt;Node5 -->
<g id="edge4" class="edge">
<title>Node3&#45;&gt;Node5</title>
<path fill="none" stroke="midnightblue" d="M1020.94,-101.93C935.51,-90.2 805.81,-71.72 693.5,-53 690.78,-52.55 688.02,-52.08 685.24,-51.61"/>
<polygon fill="midnightblue" stroke="midnightblue" points="1020.49,-105.4 1030.87,-103.29 1021.44,-98.47 1020.49,-105.4"/>
</g>
<!-- Node3&#45;&gt;Node6 -->
<g id="edge5" class="edge">
<title>Node3&#45;&gt;Node6</title>
<path fill="none" stroke="midnightblue" d="M1020.42,-112.12C859.1,-107.1 519.62,-92.45 235.5,-53 232.71,-52.61 229.9,-52.2 227.06,-51.76"/>
<polygon fill="midnightblue" stroke="midnightblue" points="1020.68,-115.63 1030.79,-112.44 1020.9,-108.63 1020.68,-115.63"/>
</g>
<!-- Node7 -->
<g id="node7" class="node">
<title>Node7</title>
<g id="a_node7"><a xlink:href="RadiumEngine_8cpp.html" target="_top" xlink:title=" ">
<polygon fill="white" stroke="black" points="703,-0.5 703,-52.5 852,-52.5 852,-0.5 703,-0.5"/>
<text text-anchor="start" x="711" y="-40.5" font-family="Helvetica,sans-Serif" font-size="10.00">/home/runner/work/Radium</text>
<text text-anchor="start" x="711" y="-29.5" font-family="Helvetica,sans-Serif" font-size="10.00">&#45;Engine/Radium&#45;Engine/src</text>
<text text-anchor="start" x="711" y="-18.5" font-family="Helvetica,sans-Serif" font-size="10.00">/Radium&#45;Engine/src/Engine</text>
<text text-anchor="middle" x="777.5" y="-7.5" font-family="Helvetica,sans-Serif" font-size="10.00">/RadiumEngine.cpp</text>
</a>
</g>
</g>
<!-- Node3&#45;&gt;Node7 -->
<g id="edge6" class="edge">
<title>Node3&#45;&gt;Node7</title>
<path fill="none" stroke="midnightblue" d="M1021.16,-93.33C973,-82.04 913.41,-67.52 860.5,-53 857.74,-52.24 854.93,-51.46 852.09,-50.65"/>
<polygon fill="midnightblue" stroke="midnightblue" points="1020.42,-96.75 1030.95,-95.61 1022.01,-89.93 1020.42,-96.75"/>
</g>
<!-- Node8 -->
<g id="node8" class="node">
<title>Node8</title>
<g id="a_node8"><a xlink:href="Renderer_8cpp.html" target="_top" xlink:title=" ">
<polygon fill="white" stroke="black" points="870,-0.5 870,-52.5 1019,-52.5 1019,-0.5 870,-0.5"/>
<text text-anchor="start" x="878" y="-40.5" font-family="Helvetica,sans-Serif" font-size="10.00">/home/runner/work/Radium</text>
<text text-anchor="start" x="878" y="-29.5" font-family="Helvetica,sans-Serif" font-size="10.00">&#45;Engine/Radium&#45;Engine/src</text>
<text text-anchor="start" x="878" y="-18.5" font-family="Helvetica,sans-Serif" font-size="10.00">/Radium&#45;Engine/src/Engine</text>
<text text-anchor="middle" x="944.5" y="-7.5" font-family="Helvetica,sans-Serif" font-size="10.00">/Renderer/Renderer.cpp</text>
</a>
</g>
</g>
<!-- Node3&#45;&gt;Node8 -->
<g id="edge7" class="edge">
<title>Node3&#45;&gt;Node8</title>
<path fill="none" stroke="midnightblue" d="M1056.42,-84.78C1035.97,-74.31 1013.2,-62.66 993.56,-52.61"/>
<polygon fill="midnightblue" stroke="midnightblue" points="1054.83,-87.9 1065.33,-89.34 1058.02,-81.66 1054.83,-87.9"/>
</g>
<!-- Node3&#45;&gt;Node9 -->
<g id="edge8" class="edge">
<title>Node3&#45;&gt;Node9</title>
<path fill="none" stroke="midnightblue" d="M1208.33,-100.24C1237.49,-96.17 1269.78,-92.02 1299.5,-89 1542.33,-64.32 1606.86,-93.81 1847.5,-53 1850.6,-52.47 1853.76,-51.88 1856.93,-51.25"/>
<polygon fill="midnightblue" stroke="midnightblue" points="1207.57,-96.82 1198.15,-101.68 1208.54,-103.75 1207.57,-96.82"/>
</g>
<!-- Node10 -->
<g id="node10" class="node">
<title>Node10</title>
<g id="a_node10"><a xlink:href="Viewer_8cpp.html" target="_top" xlink:title=" ">
<polygon fill="white" stroke="black" points="1037,-0.5 1037,-52.5 1192,-52.5 1192,-0.5 1037,-0.5"/>
<text text-anchor="start" x="1045" y="-40.5" font-family="Helvetica,sans-Serif" font-size="10.00">/home/runner/work/Radium</text>
<text text-anchor="start" x="1045" y="-29.5" font-family="Helvetica,sans-Serif" font-size="10.00">&#45;Engine/Radium&#45;Engine/src</text>
<text text-anchor="start" x="1045" y="-18.5" font-family="Helvetica,sans-Serif" font-size="10.00">/Radium&#45;Engine/src/GuiBase</text>
<text text-anchor="middle" x="1114.5" y="-7.5" font-family="Helvetica,sans-Serif" font-size="10.00">/Viewer/Viewer.cpp</text>
</a>
</g>
</g>
<!-- Node3&#45;&gt;Node10 -->
<g id="edge9" class="edge">
<title>Node3&#45;&gt;Node10</title>
<path fill="none" stroke="midnightblue" d="M1114.5,-79.19C1114.5,-70.28 1114.5,-60.9 1114.5,-52.61"/>
<polygon fill="midnightblue" stroke="midnightblue" points="1111,-79.34 1114.5,-89.34 1118,-79.34 1111,-79.34"/>
</g>
<!-- Node11 -->
<g id="node11" class="node">
<title>Node11</title>
<g id="a_node11"><a xlink:href="AssimpFileLoader_8cpp.html" target="_top" xlink:title=" ">
<polygon fill="white" stroke="black" points="1210,-0.5 1210,-52.5 1407,-52.5 1407,-0.5 1210,-0.5"/>
<text text-anchor="start" x="1218" y="-40.5" font-family="Helvetica,sans-Serif" font-size="10.00">/home/runner/work/Radium</text>
<text text-anchor="start" x="1218" y="-29.5" font-family="Helvetica,sans-Serif" font-size="10.00">&#45;Engine/Radium&#45;Engine/src</text>
<text text-anchor="start" x="1218" y="-18.5" font-family="Helvetica,sans-Serif" font-size="10.00">/Radium&#45;Engine/src/IO/AssimpLoader</text>
<text text-anchor="middle" x="1308.5" y="-7.5" font-family="Helvetica,sans-Serif" font-size="10.00">/AssimpFileLoader.cpp</text>
</a>
</g>
</g>
<!-- Node3&#45;&gt;Node11 -->
<g id="edge10" class="edge">
<title>Node3&#45;&gt;Node11</title>
<path fill="none" stroke="midnightblue" d="M1179.62,-85.29C1203.33,-74.67 1229.89,-62.76 1252.71,-52.52"/>
<polygon fill="midnightblue" stroke="midnightblue" points="1178.04,-82.17 1170.35,-89.45 1180.91,-88.55 1178.04,-82.17"/>
</g>
<!-- Node12 -->
<g id="node12" class="node">
<title>Node12</title>
<g id="a_node12"><a xlink:href="CameraLoader_8cpp.html" target="_top" xlink:title=" ">
<polygon fill="white" stroke="black" points="1425,-0.5 1425,-52.5 1624,-52.5 1624,-0.5 1425,-0.5"/>
<text text-anchor="start" x="1433" y="-40.5" font-family="Helvetica,sans-Serif" font-size="10.00">/home/runner/work/Radium</text>
<text text-anchor="start" x="1433" y="-29.5" font-family="Helvetica,sans-Serif" font-size="10.00">&#45;Engine/Radium&#45;Engine/src</text>
<text text-anchor="start" x="1433" y="-18.5" font-family="Helvetica,sans-Serif" font-size="10.00">/Radium&#45;Engine/src/IO/CameraLoader</text>
<text text-anchor="middle" x="1524.5" y="-7.5" font-family="Helvetica,sans-Serif" font-size="10.00">/CameraLoader.cpp</text>
</a>
</g>
</g>
<!-- Node3&#45;&gt;Node12 -->
<g id="edge11" class="edge">
<title>Node3&#45;&gt;Node12</title>
<path fill="none" stroke="midnightblue" d="M1208.44,-96.02C1267.89,-84.14 1346.3,-68.16 1415.5,-53 1418.54,-52.33 1421.62,-51.65 1424.73,-50.96"/>
<polygon fill="midnightblue" stroke="midnightblue" points="1207.44,-92.65 1198.32,-98.03 1208.81,-99.51 1207.44,-92.65"/>
</g>
<!-- Node13 -->
<g id="node13" class="node">
<title>Node13</title>
<g id="a_node13"><a xlink:href="TinyPlyFileLoader_8cpp.html" target="_top" xlink:title=" ">
<polygon fill="white" stroke="black" points="1642,-0.5 1642,-52.5 1839,-52.5 1839,-0.5 1642,-0.5"/>
<text text-anchor="start" x="1650" y="-40.5" font-family="Helvetica,sans-Serif" font-size="10.00">/home/runner/work/Radium</text>
<text text-anchor="start" x="1650" y="-29.5" font-family="Helvetica,sans-Serif" font-size="10.00">&#45;Engine/Radium&#45;Engine/src</text>
<text text-anchor="start" x="1650" y="-18.5" font-family="Helvetica,sans-Serif" font-size="10.00">/Radium&#45;Engine/src/IO/TinyPlyLoader</text>
<text text-anchor="middle" x="1740.5" y="-7.5" font-family="Helvetica,sans-Serif" font-size="10.00">/TinyPlyFileLoader.cpp</text>
</a>
</g>
</g>
<!-- Node3&#45;&gt;Node13 -->
<g id="edge12" class="edge">
<title>Node3&#45;&gt;Node13</title>
<path fill="none" stroke="midnightblue" d="M1208.41,-101.01C1237.58,-96.97 1269.85,-92.65 1299.5,-89 1447.25,-70.83 1485.78,-78.15 1632.5,-53 1635.54,-52.48 1638.62,-51.92 1641.72,-51.34"/>
<polygon fill="midnightblue" stroke="midnightblue" points="1207.66,-97.58 1198.24,-102.43 1208.62,-104.52 1207.66,-97.58"/>
</g>
<!-- Node14&#45;&gt;Node1 -->
<g id="edge14" class="edge">
<title>Node14&#45;&gt;Node1</title>
<path fill="none" stroke="midnightblue" d="M1431.14,-240.75C1431.38,-249.65 1431.23,-259.04 1430.69,-267.34"/>
<polygon fill="midnightblue" stroke="midnightblue" points="1434.63,-240.44 1430.68,-230.61 1427.64,-240.76 1434.63,-240.44"/>
</g>
<!-- Node16&#45;&gt;Node9 -->
<g id="edge21" class="edge">
<title>Node16&#45;&gt;Node9</title>
<path fill="none" stroke="midnightblue" d="M1850.94,-167.94C1851.99,-144.25 1856.21,-113.16 1869.5,-89 1877.22,-74.97 1889.44,-62.59 1901.52,-52.69"/>
<polygon fill="midnightblue" stroke="midnightblue" points="1847.43,-168.16 1850.66,-178.26 1854.43,-168.35 1847.43,-168.16"/>
</g>
<!-- Node16&#45;&gt;Node17 -->
<g id="edge17" class="edge">
<title>Node16&#45;&gt;Node17</title>
<path fill="none" stroke="midnightblue" d="M1805.25,-172.79C1789.88,-162.58 1772.96,-151.34 1758.31,-141.61"/>
<polygon fill="midnightblue" stroke="midnightblue" points="1803.34,-175.72 1813.61,-178.34 1807.22,-169.89 1803.34,-175.72"/>
</g>
<!-- Node18 -->
<g id="node18" class="node">
<title>Node18</title>
<g id="a_node18"><a xlink:href="GeometryComponent_8inl.html" target="_top" xlink:title=" ">
<polygon fill="white" stroke="black" points="1879,-89.5 1879,-141.5 2078,-141.5 2078,-89.5 1879,-89.5"/>
<text text-anchor="start" x="1887" y="-129.5" font-family="Helvetica,sans-Serif" font-size="10.00">/home/runner/work/Radium</text>
<text text-anchor="start" x="1887" y="-118.5" font-family="Helvetica,sans-Serif" font-size="10.00">&#45;Engine/Radium&#45;Engine/src</text>
<text text-anchor="start" x="1887" y="-107.5" font-family="Helvetica,sans-Serif" font-size="10.00">/Radium&#45;Engine/src/Engine</text>
<text text-anchor="middle" x="1978.5" y="-96.5" font-family="Helvetica,sans-Serif" font-size="10.00">/Component/GeometryComponent.inl</text>
</a>
</g>
</g>
<!-- Node16&#45;&gt;Node18 -->
<g id="edge18" class="edge">
<title>Node16&#45;&gt;Node18</title>
<path fill="none" stroke="midnightblue" d="M1890.25,-172.5C1904.62,-162.37 1920.96,-151.25 1935.67,-141.61"/>
<polygon fill="midnightblue" stroke="midnightblue" points="1888.17,-169.69 1882.05,-178.34 1892.23,-175.39 1888.17,-169.69"/>
</g>
<!-- Node19 -->
<g id="node19" class="node">
<title>Node19</title>
<g id="a_node19"><a xlink:href="ForwardRenderer_8cpp.html" target="_top" xlink:title=" ">
<polygon fill="white" stroke="black" points="2096.5,-89.5 2096.5,-141.5 2318.5,-141.5 2318.5,-89.5 2096.5,-89.5"/>
<text text-anchor="start" x="2104.5" y="-129.5" font-family="Helvetica,sans-Serif" font-size="10.00">/home/runner/work/Radium</text>
<text text-anchor="start" x="2104.5" y="-118.5" font-family="Helvetica,sans-Serif" font-size="10.00">&#45;Engine/Radium&#45;Engine/src</text>
<text text-anchor="start" x="2104.5" y="-107.5" font-family="Helvetica,sans-Serif" font-size="10.00">/Radium&#45;Engine/src/Engine</text>
<text text-anchor="middle" x="2207.5" y="-96.5" font-family="Helvetica,sans-Serif" font-size="10.00">/Renderer/Renderers/ForwardRenderer.cpp</text>
</a>
</g>
</g>
<!-- Node16&#45;&gt;Node19 -->
<g id="edge20" class="edge">
<title>Node16&#45;&gt;Node19</title>
<path fill="none" stroke="midnightblue" d="M1963.84,-176.05C2009.09,-164.99 2060.92,-152.32 2105.11,-141.52"/>
<polygon fill="midnightblue" stroke="midnightblue" points="1962.88,-172.68 1953.99,-178.45 1964.54,-179.48 1962.88,-172.68"/>
</g>
<!-- Node18&#45;&gt;Node16 -->
<g id="edge19" class="edge">
<title>Node18&#45;&gt;Node16</title>
<path fill="none" stroke="midnightblue" d="M1939.83,-147.44C1925.47,-157.57 1909.13,-168.69 1894.42,-178.34"/>
<polygon fill="midnightblue" stroke="midnightblue" points="1941.91,-150.25 1948.03,-141.61 1937.85,-144.55 1941.91,-150.25"/>
</g>
</g>
</svg>
        <g id="navigator" transform="translate(0 0)" fill="#404254">
                <rect fill="#f2f5e9" fill-opacity="0.5" stroke="#606060" stroke-width=".5" x="0" y="0" width="60" height="60"/>
                <use id="zoomplus" xlink:href="#zoomPlus" x="17" y="9" onmousedown="handleZoom(evt,'in')"/>
                <use id="zoomminus" xlink:href="#zoomMin" x="42" y="9" onmousedown="handleZoom(evt,'out')"/>
                <use id="reset" xlink:href="#resetDef" x="30" y="36" onmousedown="handleReset()"/>
                <g id="arrowUp" xlink:href="#dirArrow" transform="translate(30 24)" onmousedown="handlePan(0,-1)">
                  <use xlink:href="#rim" fill="#404040">
                        <set attributeName="fill" to="#808080" begin="arrowUp.mouseover" end="arrowUp.mouseout"/>
                  </use>
                  <path fill="none" stroke="white" stroke-width="1.5" d="M0,-3.0v7 M-2.5,-0.5L0,-3.0L2.5,-0.5"/>
                </g>
                <g id="arrowRight" xlink:href="#dirArrow" transform="rotate(90) translate(36 -43)" onmousedown="handlePan(1,0)">
                  <use xlink:href="#rim" fill="#404040">
                        <set attributeName="fill" to="#808080" begin="arrowRight.mouseover" end="arrowRight.mouseout"/>
                  </use>
                  <path fill="none" stroke="white" stroke-width="1.5" d="M0,-3.0v7 M-2.5,-0.5L0,-3.0L2.5,-0.5"/>
                </g>
                <g id="arrowDown" xlink:href="#dirArrow" transform="rotate(180) translate(-30 -48)" onmousedown="handlePan(0,1)">
                  <use xlink:href="#rim" fill="#404040">
                        <set attributeName="fill" to="#808080" begin="arrowDown.mouseover" end="arrowDown.mouseout"/>
                  </use>
                  <path fill="none" stroke="white" stroke-width="1.5" d="M0,-3.0v7 M-2.5,-0.5L0,-3.0L2.5,-0.5"/>
                </g>
                <g id="arrowLeft" xlink:href="#dirArrow" transform="rotate(270) translate(-36 17)" onmousedown="handlePan(-1,0)">
                  <use xlink:href="#rim" fill="#404040">
                        <set attributeName="fill" to="#808080" begin="arrowLeft.mouseover" end="arrowLeft.mouseout"/>
                  </use>
                  <path fill="none" stroke="white" stroke-width="1.5" d="M0,-3.0v7 M-2.5,-0.5L0,-3.0L2.5,-0.5"/>
                </g>
        </g>
        <svg viewBox="0 0 15 15" width="100%" height="30px" preserveAspectRatio="xMaxYMin meet">
         <g id="arrow_out" transform="scale(0.3 0.3)">
          <a xlink:href="GeometryData_8hpp__dep__incl_org.svg" target="_base">
           <rect id="button" ry="5" rx="5" y="6" x="6" height="38" width="38"
                fill="#f2f5e9" fill-opacity="0.5" stroke="#606060" stroke-width="1.0"/>
           <path id="arrow"
             d="M 11.500037,31.436501 C 11.940474,20.09759 22.043105,11.32322 32.158766,21.979434 L 37.068811,17.246167 C 37.068811,17.246167 37.088388,32 37.088388,32 L 22.160133,31.978069 C 22.160133,31.978069 26.997745,27.140456 26.997745,27.140456 C 18.528582,18.264221 13.291696,25.230495 11.500037,31.436501 z"
             style="fill:#404040;"/>
          </a>
         </g>
        </svg>
</svg>
