<?xml version="1.0" encoding="UTF-8" standalone="no"?>
<!DOCTYPE svg PUBLIC "-//W3C//DTD SVG 1.1//EN"
 "http://www.w3.org/Graphics/SVG/1.1/DTD/svg11.dtd">
<!-- Generated by graphviz version 2.40.1 (20161225.0304)
 -->
<!-- Title: src/Engine/System/GeometrySystem.cpp Pages: 1 -->
<svg width="4197pt" height="542pt"
 viewBox="0.00 0.00 4196.64 542.00" xmlns="http://www.w3.org/2000/svg" xmlns:xlink="http://www.w3.org/1999/xlink">
<g id="graph0" class="graph" transform="scale(1 1) rotate(0) translate(4 538)">
<title>src/Engine/System/GeometrySystem.cpp</title>
<polygon fill="#ffffff" stroke="transparent" points="-4,4 -4,-538 4192.6446,-538 4192.6446,4 -4,4"/>
<!-- Node0 -->
<g id="node1" class="node">
<title>Node0</title>
<polygon fill="#bfbfbf" stroke="#000000" points="1813.1201,-503.5 1813.1201,-533.5 1971.1201,-533.5 1971.1201,-503.5 1813.1201,-503.5"/>
<text text-anchor="start" x="1821.1201" y="-521.5" font-family="Helvetica,sans-Serif" font-size="10.00" fill="#000000">src/Engine/System/Geometry</text>
<text text-anchor="middle" x="1892.1201" y="-510.5" font-family="Helvetica,sans-Serif" font-size="10.00" fill="#000000">System.cpp</text>
</g>
<!-- Node1 -->
<g id="node2" class="node">
<title>Node1</title>
<g id="a_node2"><a xlink:href="GeometrySystem_8hpp.html" target="_top" xlink:title="Engine/System/GeometrySystem.hpp">
<polygon fill="#ffffff" stroke="#000000" points="2474.6201,-442 2474.6201,-461 2673.6201,-461 2673.6201,-442 2474.6201,-442"/>
<text text-anchor="middle" x="2574.1201" y="-449" font-family="Helvetica,sans-Serif" font-size="10.00" fill="#000000">Engine/System/GeometrySystem.hpp</text>
</a>
</g>
</g>
<!-- Node0&#45;&gt;Node1 -->
<g id="edge1" class="edge">
<title>Node0&#45;&gt;Node1</title>
<path fill="none" stroke="#191970" d="M1971.3544,-510.716C2093.8605,-498.6809 2329.4396,-475.5375 2467.0088,-462.0227"/>
<polygon fill="#191970" stroke="#191970" points="2467.5395,-465.4875 2477.1493,-461.0265 2466.855,-458.521 2467.5395,-465.4875"/>
</g>
<!-- Node16 -->
<g id="node10" class="node">
<title>Node16</title>
<g id="a_node10"><a xlink:href="FileData_8hpp.html" target="_top" xlink:title="Core/Asset/FileData.hpp">
<polygon fill="#ffffff" stroke="#000000" points="3170.6201,-442 3170.6201,-461 3303.6201,-461 3303.6201,-442 3170.6201,-442"/>
<text text-anchor="middle" x="3237.1201" y="-449" font-family="Helvetica,sans-Serif" font-size="10.00" fill="#000000">Core/Asset/FileData.hpp</text>
</a>
</g>
</g>
<!-- Node0&#45;&gt;Node16 -->
<g id="edge9" class="edge">
<title>Node0&#45;&gt;Node16</title>
<path fill="none" stroke="#191970" d="M1971.2346,-514.559C2210.3769,-502.6463 2923.7449,-467.1105 3160.0974,-455.3368"/>
<polygon fill="#191970" stroke="#191970" points="3160.5056,-458.8209 3170.319,-454.8276 3160.1572,-451.8296 3160.5056,-458.8209"/>
</g>
<!-- Node49 -->
<g id="node20" class="node">
<title>Node49</title>
<g id="a_node20"><a xlink:href="GeometryData_8hpp.html" target="_top" xlink:title="Core/Asset/GeometryData.hpp">
<polygon fill="#ffffff" stroke="#000000" points="2284.6201,-308 2284.6201,-327 2449.6201,-327 2449.6201,-308 2284.6201,-308"/>
<text text-anchor="middle" x="2367.1201" y="-315" font-family="Helvetica,sans-Serif" font-size="10.00" fill="#000000">Core/Asset/GeometryData.hpp</text>
</a>
</g>
</g>
<!-- Node0&#45;&gt;Node49 -->
<g id="edge73" class="edge">
<title>Node0&#45;&gt;Node49</title>
<path fill="none" stroke="#191970" d="M1927.8223,-503.3923C2017.2712,-465.5413 2249.8957,-367.1044 2335.1776,-331.0167"/>
<polygon fill="#191970" stroke="#191970" points="2336.7512,-334.1514 2344.5966,-327.031 2334.0232,-327.7048 2336.7512,-334.1514"/>
</g>
<!-- Node62 -->
<g id="node29" class="node">
<title>Node62</title>
<g id="a_node29"><a xlink:href="Task_8hpp.html" target="_top" xlink:title="Core/Tasks/Task.hpp">
<polygon fill="#ffffff" stroke="#000000" points="5.6201,-308 5.6201,-327 120.6201,-327 120.6201,-308 5.6201,-308"/>
<text text-anchor="middle" x="63.1201" y="-315" font-family="Helvetica,sans-Serif" font-size="10.00" fill="#000000">Core/Tasks/Task.hpp</text>
</a>
</g>
</g>
<!-- Node0&#45;&gt;Node62 -->
<g id="edge74" class="edge">
<title>Node0&#45;&gt;Node62</title>
<path fill="none" stroke="#191970" d="M1812.9936,-516.2761C1660.6801,-511.4437 1316.3004,-497.8422 1028.1201,-467 683.9268,-430.163 274.8978,-356.983 123.4173,-328.8677"/>
<polygon fill="#191970" stroke="#191970" points="123.8589,-325.3898 113.3874,-327.002 122.5787,-332.2718 123.8589,-325.3898"/>
</g>
<!-- Node64 -->
<g id="node31" class="node">
<title>Node64</title>
<g id="a_node31"><a xlink:href="TaskQueue_8hpp.html" target="_top" xlink:title="Core/Tasks/TaskQueue.hpp">
<polygon fill="#ffffff" stroke="#000000" points="3851.1201,-241 3851.1201,-260 3997.1201,-260 3997.1201,-241 3851.1201,-241"/>
<text text-anchor="middle" x="3924.1201" y="-248" font-family="Helvetica,sans-Serif" font-size="10.00" fill="#000000">Core/Tasks/TaskQueue.hpp</text>
</a>
</g>
</g>
<!-- Node0&#45;&gt;Node64 -->
<g id="edge78" class="edge">
<title>Node0&#45;&gt;Node64</title>
<path fill="none" stroke="#191970" d="M1971.2384,-516.5821C2229.9377,-510.1614 3049.2423,-488.6068 3313.1201,-467 3547.1219,-447.8395 3641.4377,-529.7396 3837.1201,-400 3884.117,-368.8406 3908.977,-302.9593 3918.8899,-270.0564"/>
<polygon fill="#191970" stroke="#191970" points="3922.3069,-270.8369 3921.689,-260.2601 3915.5762,-268.9137 3922.3069,-270.8369"/>
</g>
<!-- Node70 -->
<g id="node36" class="node">
<title>Node70</title>
<g id="a_node36"><a xlink:href="GeometryComponent_8hpp.html" target="_top" xlink:title="Engine/Component/Geometry\lComponent.hpp">
<polygon fill="#ffffff" stroke="#000000" points="1207.6201,-436.5 1207.6201,-466.5 1368.6201,-466.5 1368.6201,-436.5 1207.6201,-436.5"/>
<text text-anchor="start" x="1215.6201" y="-454.5" font-family="Helvetica,sans-Serif" font-size="10.00" fill="#000000">Engine/Component/Geometry</text>
<text text-anchor="middle" x="1288.1201" y="-443.5" font-family="Helvetica,sans-Serif" font-size="10.00" fill="#000000">Component.hpp</text>
</a>
</g>
</g>
<!-- Node0&#45;&gt;Node70 -->
<g id="edge90" class="edge">
<title>Node0&#45;&gt;Node70</title>
<path fill="none" stroke="#191970" d="M1812.8474,-509.7065C1700.8913,-497.2875 1496.9831,-474.6686 1379.0271,-461.5841"/>
<polygon fill="#191970" stroke="#191970" points="1379.2618,-458.0887 1368.9369,-460.4648 1378.49,-465.046 1379.2618,-458.0887"/>
</g>
<!-- Node84 -->
<g id="node41" class="node">
<title>Node84</title>
<g id="a_node41"><a xlink:href="Entity_8hpp.html" target="_top" xlink:title="Engine/Entity/Entity.hpp">
<polygon fill="#ffffff" stroke="#000000" points="1498.1201,-308 1498.1201,-327 1630.1201,-327 1630.1201,-308 1498.1201,-308"/>
<text text-anchor="middle" x="1564.1201" y="-315" font-family="Helvetica,sans-Serif" font-size="10.00" fill="#000000">Engine/Entity/Entity.hpp</text>
</a>
</g>
</g>
<!-- Node0&#45;&gt;Node84 -->
<g id="edge132" class="edge">
<title>Node0&#45;&gt;Node84</title>
<path fill="none" stroke="#191970" d="M1867.4668,-503.3923C1806.5152,-466.0409 1649.2895,-369.6922 1588.5616,-332.4779"/>
<polygon fill="#191970" stroke="#191970" points="1590.0284,-329.2718 1579.6732,-327.031 1586.3709,-335.2403 1590.0284,-329.2718"/>
</g>
<!-- Node87 -->
<g id="node44" class="node">
<title>Node87</title>
<g id="a_node44"><a xlink:href="ComponentMessenger_8hpp.html" target="_top" xlink:title="Engine/Managers/Component\lMessenger/ComponentMessenger.hpp">
<polygon fill="#ffffff" stroke="#000000" points="449.6201,-302.5 449.6201,-332.5 650.6201,-332.5 650.6201,-302.5 449.6201,-302.5"/>
<text text-anchor="start" x="457.6201" y="-320.5" font-family="Helvetica,sans-Serif" font-size="10.00" fill="#000000">Engine/Managers/Component</text>
<text text-anchor="middle" x="550.1201" y="-309.5" font-family="Helvetica,sans-Serif" font-size="10.00" fill="#000000">Messenger/ComponentMessenger.hpp</text>
</a>
</g>
</g>
<!-- Node0&#45;&gt;Node87 -->
<g id="edge133" class="edge">
<title>Node0&#45;&gt;Node87</title>
<path fill="none" stroke="#191970" d="M1812.9568,-516.533C1683.7894,-512.4476 1419.9452,-500.4403 1199.1201,-467 981.119,-433.9873 727.7861,-367.2044 612.7188,-335.279"/>
<polygon fill="#191970" stroke="#191970" points="613.5866,-331.8875 603.0143,-332.5781 611.7097,-338.6312 613.5866,-331.8875"/>
</g>
<!-- Node117 -->
<g id="node49" class="node">
<title>Node117</title>
<g id="a_node49"><a xlink:href="RadiumEngine_8hpp.html" target="_top" xlink:title="Engine/RadiumEngine.hpp">
<polygon fill="#ffffff" stroke="#000000" points="1820.1201,-241 1820.1201,-260 1964.1201,-260 1964.1201,-241 1820.1201,-241"/>
<text text-anchor="middle" x="1892.1201" y="-248" font-family="Helvetica,sans-Serif" font-size="10.00" fill="#000000">Engine/RadiumEngine.hpp</text>
</a>
</g>
</g>
<!-- Node0&#45;&gt;Node117 -->
<g id="edge134" class="edge">
<title>Node0&#45;&gt;Node117</title>
<path fill="none" stroke="#191970" d="M1892.1201,-503.3233C1892.1201,-457.6161 1892.1201,-321.2783 1892.1201,-270.1539"/>
<polygon fill="#191970" stroke="#191970" points="1895.6202,-270.0925 1892.1201,-260.0926 1888.6202,-270.0926 1895.6202,-270.0925"/>
</g>
<!-- Node2 -->
<g id="node3" class="node">
<title>Node2</title>
<g id="a_node3"><a xlink:href="System_8hpp.html" target="_top" xlink:title="Engine/System/System.hpp">
<polygon fill="#ffffff" stroke="#000000" points="3074.1201,-241 3074.1201,-260 3224.1201,-260 3224.1201,-241 3074.1201,-241"/>
<text text-anchor="middle" x="3149.1201" y="-248" font-family="Helvetica,sans-Serif" font-size="10.00" fill="#000000">Engine/System/System.hpp</text>
</a>
</g>
</g>
<!-- Node1&#45;&gt;Node2 -->
<g id="edge2" class="edge">
<title>Node1&#45;&gt;Node2</title>
<path fill="none" stroke="#191970" d="M2597.7374,-441.9515C2659.111,-417.2913 2828.8971,-350.0472 2973.1201,-302 3017.2946,-287.2835 3068.4376,-272.5736 3104.1698,-262.6659"/>
<polygon fill="#191970" stroke="#191970" points="3105.1122,-266.0367 3113.8208,-260.0027 3103.2501,-259.2889 3105.1122,-266.0367"/>
</g>
<!-- Node3 -->
<g id="node4" class="node">
<title>Node3</title>
<g id="a_node4"><a xlink:href="RaEngine_8hpp.html" target="_top" xlink:title="Engine/RaEngine.hpp">
<polygon fill="#ffffff" stroke="#ff0000" points="1078.6201,-174 1078.6201,-193 1197.6201,-193 1197.6201,-174 1078.6201,-174"/>
<text text-anchor="middle" x="1138.1201" y="-181" font-family="Helvetica,sans-Serif" font-size="10.00" fill="#000000">Engine/RaEngine.hpp</text>
</a>
</g>
</g>
<!-- Node2&#45;&gt;Node3 -->
<g id="edge3" class="edge">
<title>Node2&#45;&gt;Node3</title>
<path fill="none" stroke="#191970" d="M3073.9667,-244.7754C3027.6244,-241.4415 2966.9573,-237.4289 2913.1201,-235 2262.9181,-205.6661 2099.5334,-223.2011 1449.1201,-199 1366.2185,-195.9153 1270.9546,-190.9592 1207.9383,-187.4837"/>
<polygon fill="#191970" stroke="#191970" points="1207.8998,-183.9763 1197.7215,-186.9176 1207.5125,-190.9656 1207.8998,-183.9763"/>
</g>
<!-- Node14 -->
<g id="node8" class="node">
<title>Node14</title>
<polygon fill="#ffffff" stroke="#bfbfbf" points="3082.1201,-174 3082.1201,-193 3140.1201,-193 3140.1201,-174 3082.1201,-174"/>
<text text-anchor="middle" x="3111.1201" y="-181" font-family="Helvetica,sans-Serif" font-size="10.00" fill="#000000">memory</text>
</g>
<!-- Node2&#45;&gt;Node14 -->
<g id="edge7" class="edge">
<title>Node2&#45;&gt;Node14</title>
<path fill="none" stroke="#191970" d="M3143.6757,-240.9005C3137.9192,-230.751 3128.6988,-214.4941 3121.5378,-201.8679"/>
<polygon fill="#191970" stroke="#191970" points="3124.5324,-200.0533 3116.5545,-193.0817 3118.4435,-203.5067 3124.5324,-200.0533"/>
</g>
<!-- Node15 -->
<g id="node9" class="node">
<title>Node15</title>
<polygon fill="#ffffff" stroke="#bfbfbf" points="2678.6201,-112.5 2678.6201,-131.5 2725.6201,-131.5 2725.6201,-112.5 2678.6201,-112.5"/>
<text text-anchor="middle" x="2702.1201" y="-119.5" font-family="Helvetica,sans-Serif" font-size="10.00" fill="#000000">vector</text>
</g>
<!-- Node2&#45;&gt;Node15 -->
<g id="edge8" class="edge">
<title>Node2&#45;&gt;Node15</title>
<path fill="none" stroke="#191970" d="M3135.2061,-240.7968C3109.3204,-223.2501 3051.4484,-186.365 2997.1201,-168 2905.78,-137.1236 2791.4288,-126.8312 2735.7305,-123.5112"/>
<polygon fill="#191970" stroke="#191970" points="2735.8935,-120.015 2725.7141,-122.9526 2735.5036,-127.0041 2735.8935,-120.015"/>
</g>
<!-- Node4 -->
<g id="node5" class="node">
<title>Node4</title>
<g id="a_node5"><a xlink:href="CoreMacros_8hpp.html" target="_top" xlink:title="Core/CoreMacros.hpp">
<polygon fill="#ffffff" stroke="#ff0000" points="1161.1201,-56.5 1161.1201,-75.5 1281.1201,-75.5 1281.1201,-56.5 1161.1201,-56.5"/>
<text text-anchor="middle" x="1221.1201" y="-63.5" font-family="Helvetica,sans-Serif" font-size="10.00" fill="#000000">Core/CoreMacros.hpp</text>
</a>
</g>
</g>
<!-- Node3&#45;&gt;Node4 -->
<g id="edge4" class="edge">
<title>Node3&#45;&gt;Node4</title>
<path fill="none" stroke="#191970" d="M1144.9124,-173.8845C1158.7741,-154.261 1190.5144,-109.3274 1208.3507,-84.0772"/>
<polygon fill="#191970" stroke="#191970" points="1211.3232,-85.9355 1214.234,-75.7484 1205.6057,-81.8968 1211.3232,-85.9355"/>
</g>
<!-- Node7 -->
<g id="node6" class="node">
<title>Node7</title>
<polygon fill="#ffffff" stroke="#bfbfbf" points="559.1201,-.5 559.1201,-19.5 619.1201,-19.5 619.1201,-.5 559.1201,-.5"/>
<text text-anchor="middle" x="589.1201" y="-7.5" font-family="Helvetica,sans-Serif" font-size="10.00" fill="#000000">iostream</text>
</g>
<!-- Node4&#45;&gt;Node7 -->
<g id="edge5" class="edge">
<title>Node4&#45;&gt;Node7</title>
<path fill="none" stroke="#191970" d="M1161.0933,-60.6812C1033.3185,-49.3593 737.3054,-23.1303 629.4022,-13.5693"/>
<polygon fill="#191970" stroke="#191970" points="629.5316,-10.0671 619.2617,-12.6708 628.9137,-17.0398 629.5316,-10.0671"/>
</g>
<!-- Node9 -->
<g id="node7" class="node">
<title>Node9</title>
<polygon fill="#ffffff" stroke="#bfbfbf" points="1368.1201,-.5 1368.1201,-19.5 1416.1201,-19.5 1416.1201,-.5 1368.1201,-.5"/>
<text text-anchor="middle" x="1392.1201" y="-7.5" font-family="Helvetica,sans-Serif" font-size="10.00" fill="#000000">thread</text>
</g>
<!-- Node4&#45;&gt;Node9 -->
<g id="edge6" class="edge">
<title>Node4&#45;&gt;Node9</title>
<path fill="none" stroke="#191970" d="M1250.5161,-56.3733C1280.5018,-46.5534 1326.9709,-31.3354 1358.4253,-21.0346"/>
<polygon fill="#191970" stroke="#191970" points="1359.6561,-24.3145 1368.0702,-17.876 1357.4775,-17.6621 1359.6561,-24.3145"/>
</g>
<!-- Node16&#45;&gt;Node14 -->
<g id="edge10" class="edge">
<title>Node16&#45;&gt;Node14</title>
<path fill="none" stroke="#191970" d="M3244.1686,-441.6498C3266.8535,-408.6465 3333.6299,-300.3766 3283.1201,-235 3244.367,-184.8405 3204.8466,-220.2255 3145.1201,-199 3143.4812,-198.4175 3141.8125,-197.7871 3140.1385,-197.125"/>
<polygon fill="#191970" stroke="#191970" points="3141.2319,-193.787 3130.6592,-193.1025 3138.4974,-200.2308 3141.2319,-193.787"/>
</g>
<!-- Node16&#45;&gt;Node15 -->
<g id="edge12" class="edge">
<title>Node16&#45;&gt;Node15</title>
<path fill="none" stroke="#191970" d="M3274.4089,-441.9976C3360.9483,-419.7101 3573.1427,-363.6481 3640.1201,-333 3690.118,-310.1216 3717.796,-314.2727 3744.1201,-266 3750.7164,-253.9039 3747.9977,-248.2209 3744.1201,-235 3734.1621,-201.0473 3731.7712,-185.6766 3701.1201,-168 3679.7466,-155.6738 2908.2682,-128.9557 2735.9994,-123.1345"/>
<polygon fill="#191970" stroke="#191970" points="2735.8682,-119.6282 2725.7559,-122.7892 2735.6323,-126.6243 2735.8682,-119.6282"/>
</g>
<!-- Node17 -->
<g id="node11" class="node">
<title>Node17</title>
<polygon fill="#ffffff" stroke="#bfbfbf" points="3032.1201,-112.5 3032.1201,-131.5 3076.1201,-131.5 3076.1201,-112.5 3032.1201,-112.5"/>
<text text-anchor="middle" x="3054.1201" y="-119.5" font-family="Helvetica,sans-Serif" font-size="10.00" fill="#000000">string</text>
</g>
<!-- Node16&#45;&gt;Node17 -->
<g id="edge11" class="edge">
<title>Node16&#45;&gt;Node17</title>
<path fill="none" stroke="#191970" d="M3303.7586,-449.7155C3438.7111,-445.461 3739.7587,-432.5383 3837.1201,-400 4004.071,-344.2049 4279.9719,-295.0347 4158.1201,-168 4120.0558,-128.3166 3264.3439,-122.817 3086.3645,-122.1017"/>
<polygon fill="#191970" stroke="#191970" points="3086.3314,-118.6016 3076.3182,-122.0636 3086.3048,-125.6016 3086.3314,-118.6016"/>
</g>
<!-- Node18 -->
<g id="node12" class="node">
<title>Node18</title>
<g id="a_node12"><a xlink:href="RaCore_8hpp.html" target="_top" xlink:title="Core/RaCore.hpp">
<polygon fill="#ffffff" stroke="#000000" points="2239.1201,-112.5 2239.1201,-131.5 2337.1201,-131.5 2337.1201,-112.5 2239.1201,-112.5"/>
<text text-anchor="middle" x="2288.1201" y="-119.5" font-family="Helvetica,sans-Serif" font-size="10.00" fill="#000000">Core/RaCore.hpp</text>
</a>
</g>
</g>
<!-- Node16&#45;&gt;Node18 -->
<g id="edge13" class="edge">
<title>Node16&#45;&gt;Node18</title>
<path fill="none" stroke="#191970" d="M3202.9767,-441.9627C3062.3246,-402.684 2531.625,-254.5809 2456.1201,-235 2390.1739,-217.898 2355.4104,-247.0565 2307.1201,-199 2292.0687,-184.0215 2288.2566,-159.1458 2287.6044,-141.7332"/>
<polygon fill="#191970" stroke="#191970" points="2291.1034,-141.5271 2287.5459,-131.5474 2284.1035,-141.5674 2291.1034,-141.5271"/>
</g>
<!-- Node19 -->
<g id="node13" class="node">
<title>Node19</title>
<g id="a_node13"><a xlink:href="FileData_8inl.html" target="_top" xlink:title="Core/Asset/FileData.inl">
<polygon fill="#ffffff" stroke="#000000" points="3073.6201,-375 3073.6201,-394 3200.6201,-394 3200.6201,-375 3073.6201,-375"/>
<text text-anchor="middle" x="3137.1201" y="-382" font-family="Helvetica,sans-Serif" font-size="10.00" fill="#000000">Core/Asset/FileData.inl</text>
</a>
</g>
</g>
<!-- Node16&#45;&gt;Node19 -->
<g id="edge15" class="edge">
<title>Node16&#45;&gt;Node19</title>
<path fill="none" stroke="#191970" d="M3222.7926,-441.9005C3206.3816,-430.9052 3179.2726,-412.7422 3159.945,-399.7927"/>
<polygon fill="#191970" stroke="#191970" points="3161.677,-396.7402 3151.4211,-394.0817 3157.7807,-402.5556 3161.677,-396.7402"/>
</g>
<!-- Node18&#45;&gt;Node4 -->
<g id="edge14" class="edge">
<title>Node18&#45;&gt;Node4</title>
<path fill="none" stroke="#191970" d="M2238.7964,-119.4113C2066.678,-110.3779 1492.2678,-80.2308 1291.2868,-69.6826"/>
<polygon fill="#191970" stroke="#191970" points="1291.3159,-66.1794 1281.1462,-69.1504 1290.949,-73.1698 1291.3159,-66.1794"/>
</g>
<!-- Node20 -->
<g id="node14" class="node">
<title>Node20</title>
<g id="a_node14"><a xlink:href="AnimationData_8hpp.html" target="_top" xlink:title="Core/Asset/AnimationData.hpp">
<polygon fill="#ffffff" stroke="#ff0000" points="3393.6201,-241 3393.6201,-260 3560.6201,-260 3560.6201,-241 3393.6201,-241"/>
<text text-anchor="middle" x="3477.1201" y="-248" font-family="Helvetica,sans-Serif" font-size="10.00" fill="#000000">Core/Asset/AnimationData.hpp</text>
</a>
</g>
</g>
<!-- Node19&#45;&gt;Node20 -->
<g id="edge16" class="edge">
<title>Node19&#45;&gt;Node20</title>
<path fill="none" stroke="#191970" d="M3148.9428,-374.8169C3170.5056,-357.6331 3218.2388,-321.7598 3264.1201,-302 3308.7612,-282.7743 3361.8944,-269.9116 3403.9255,-261.8492"/>
<polygon fill="#191970" stroke="#191970" points="3404.6233,-265.2795 3413.8101,-260.0019 3403.3373,-258.3986 3404.6233,-265.2795"/>
</g>
<!-- Node44 -->
<g id="node16" class="node">
<title>Node44</title>
<g id="a_node16"><a xlink:href="CameraData_8hpp.html" target="_top" xlink:title="Core/Asset/CameraData.hpp">
<polygon fill="#ffffff" stroke="#ff0000" points="2981.6201,-308 2981.6201,-327 3136.6201,-327 3136.6201,-308 2981.6201,-308"/>
<text text-anchor="middle" x="3059.1201" y="-315" font-family="Helvetica,sans-Serif" font-size="10.00" fill="#000000">Core/Asset/CameraData.hpp</text>
</a>
</g>
</g>
<!-- Node19&#45;&gt;Node44 -->
<g id="edge23" class="edge">
<title>Node19&#45;&gt;Node44</title>
<path fill="none" stroke="#191970" d="M3125.9446,-374.9005C3113.4337,-364.1539 3092.9516,-346.5603 3077.9559,-333.6794"/>
<polygon fill="#191970" stroke="#191970" points="3080.1412,-330.9426 3070.2749,-327.0817 3075.58,-336.2526 3080.1412,-330.9426"/>
</g>
<!-- Node19&#45;&gt;Node49 -->
<g id="edge36" class="edge">
<title>Node19&#45;&gt;Node49</title>
<path fill="none" stroke="#191970" d="M3073.4527,-378.9601C2937.5348,-367.1335 2618.4915,-339.3726 2459.9364,-325.5762"/>
<polygon fill="#191970" stroke="#191970" points="2459.9942,-322.0681 2449.7284,-324.688 2459.3873,-329.0418 2459.9942,-322.0681"/>
</g>
<!-- Node55 -->
<g id="node24" class="node">
<title>Node55</title>
<g id="a_node24"><a xlink:href="HandleData_8hpp.html" target="_top" xlink:title="Core/Asset/HandleData.hpp">
<polygon fill="#ffffff" stroke="#ff0000" points="2578.6201,-241 2578.6201,-260 2729.6201,-260 2729.6201,-241 2578.6201,-241"/>
<text text-anchor="middle" x="2654.1201" y="-248" font-family="Helvetica,sans-Serif" font-size="10.00" fill="#000000">Core/Asset/HandleData.hpp</text>
</a>
</g>
</g>
<!-- Node19&#45;&gt;Node55 -->
<g id="edge53" class="edge">
<title>Node19&#45;&gt;Node55</title>
<path fill="none" stroke="#191970" d="M3102.7712,-374.9705C3017.099,-351.2022 2794.0143,-289.3112 2698.5332,-262.8216"/>
<polygon fill="#191970" stroke="#191970" points="2699.1888,-259.3714 2688.6171,-260.0706 2697.3174,-266.1166 2699.1888,-259.3714"/>
</g>
<!-- Node57 -->
<g id="node26" class="node">
<title>Node57</title>
<g id="a_node26"><a xlink:href="LightData_8hpp.html" target="_top" xlink:title="Core/Asset/LightData.hpp">
<polygon fill="#ffffff" stroke="#ff0000" points="3579.1201,-241 3579.1201,-260 3719.1201,-260 3719.1201,-241 3579.1201,-241"/>
<text text-anchor="middle" x="3649.1201" y="-248" font-family="Helvetica,sans-Serif" font-size="10.00" fill="#000000">Core/Asset/LightData.hpp</text>
</a>
</g>
</g>
<!-- Node19&#45;&gt;Node57 -->
<g id="edge61" class="edge">
<title>Node19&#45;&gt;Node57</title>
<path fill="none" stroke="#191970" d="M3173.5315,-374.9705C3264.5313,-351.1541 3501.7845,-289.0605 3602.6534,-262.6612"/>
<polygon fill="#191970" stroke="#191970" points="3603.7639,-265.9885 3612.5519,-260.0706 3601.9915,-259.2166 3603.7639,-265.9885"/>
</g>
<!-- Node61 -->
<g id="node27" class="node">
<title>Node61</title>
<g id="a_node27"><a xlink:href="VolumeData_8hpp.html" target="_top" xlink:title="Core/Asset/VolumeData.hpp">
<polygon fill="#ffffff" stroke="#ff0000" points="2017.6201,-308 2017.6201,-327 2170.6201,-327 2170.6201,-308 2017.6201,-308"/>
<text text-anchor="middle" x="2094.1201" y="-315" font-family="Helvetica,sans-Serif" font-size="10.00" fill="#000000">Core/Asset/VolumeData.hpp</text>
</a>
</g>
</g>
<!-- Node19&#45;&gt;Node61 -->
<g id="edge67" class="edge">
<title>Node19&#45;&gt;Node61</title>
<path fill="none" stroke="#191970" d="M3073.3559,-381.2374C2930.531,-373.8086 2574.0825,-354.5957 2276.1201,-333 2245.0042,-330.7448 2210.9256,-327.9338 2180.7567,-325.3273"/>
<polygon fill="#191970" stroke="#191970" points="2180.9507,-321.8311 2170.6852,-324.4523 2180.3447,-328.8048 2180.9507,-321.8311"/>
</g>
<!-- Node41 -->
<g id="node28" class="node">
<title>Node41</title>
<g id="a_node28"><a xlink:href="Log_8hpp.html" target="_top" xlink:title="Core/Utils/Log.hpp">
<polygon fill="#ffffff" stroke="#ff0000" points="3586.1201,-174 3586.1201,-193 3692.1201,-193 3692.1201,-174 3586.1201,-174"/>
<text text-anchor="middle" x="3639.1201" y="-181" font-family="Helvetica,sans-Serif" font-size="10.00" fill="#000000">Core/Utils/Log.hpp</text>
</a>
</g>
</g>
<!-- Node19&#45;&gt;Node41 -->
<g id="edge70" class="edge">
<title>Node19&#45;&gt;Node41</title>
<path fill="none" stroke="#191970" d="M3200.6329,-381.5976C3339.3336,-373.7869 3662.1974,-347.103 3728.1201,-266 3750.0454,-239.0259 3706.7425,-212.5533 3673.1817,-197.1398"/>
<polygon fill="#191970" stroke="#191970" points="3674.5976,-193.939 3664.0364,-193.0944 3671.7658,-200.3407 3674.5976,-193.939"/>
</g>
<!-- Node20&#45;&gt;Node15 -->
<g id="edge18" class="edge">
<title>Node20&#45;&gt;Node15</title>
<path fill="none" stroke="#191970" d="M3484.9628,-240.9862C3497.932,-224.0707 3520.5763,-188.6085 3501.1201,-168 3487.7738,-153.8631 2886.7082,-129.2721 2736.0742,-123.3233"/>
<polygon fill="#191970" stroke="#191970" points="2736.1512,-119.8237 2726.0212,-122.9276 2735.8758,-126.8183 2736.1512,-119.8237"/>
</g>
<!-- Node20&#45;&gt;Node17 -->
<g id="edge17" class="edge">
<title>Node20&#45;&gt;Node17</title>
<path fill="none" stroke="#191970" d="M3535.1905,-240.9779C3598.0287,-230.0857 3690.7122,-212.0723 3701.1201,-199 3709.7019,-188.2213 3710.5107,-178.0819 3701.1201,-168 3679.9586,-145.2805 3214.9521,-127.5627 3086.6498,-123.0938"/>
<polygon fill="#191970" stroke="#191970" points="3086.4235,-119.584 3076.3088,-122.737 3086.1821,-126.5798 3086.4235,-119.584"/>
</g>
<!-- Node20&#45;&gt;Node18 -->
<g id="edge22" class="edge">
<title>Node20&#45;&gt;Node18</title>
<path fill="none" stroke="#191970" d="M3403.5645,-240.9792C3332.1734,-231.0644 3229.3161,-214.801 3192.1201,-199 3170.4358,-189.7884 3171.339,-175.8348 3149.1201,-168 3074.0789,-141.5391 2529.7512,-127.3008 2347.44,-123.2354"/>
<polygon fill="#191970" stroke="#191970" points="2347.3128,-119.7318 2337.238,-123.0101 2347.1582,-126.7301 2347.3128,-119.7318"/>
</g>
<!-- Node39 -->
<g id="node15" class="node">
<title>Node39</title>
<g id="a_node15"><a xlink:href="AssetData_8hpp.html" target="_top" xlink:title="Core/Asset/AssetData.hpp">
<polygon fill="#ffffff" stroke="#000000" points="2844.6201,-174 2844.6201,-193 2987.6201,-193 2987.6201,-174 2844.6201,-174"/>
<text text-anchor="middle" x="2916.1201" y="-181" font-family="Helvetica,sans-Serif" font-size="10.00" fill="#000000">Core/Asset/AssetData.hpp</text>
</a>
</g>
</g>
<!-- Node20&#45;&gt;Node39 -->
<g id="edge19" class="edge">
<title>Node20&#45;&gt;Node39</title>
<path fill="none" stroke="#191970" d="M3397.3383,-240.9717C3291.2539,-228.3021 3104.7339,-206.0261 2997.7331,-193.247"/>
<polygon fill="#191970" stroke="#191970" points="2997.9763,-189.7513 2987.6318,-192.0406 2997.1461,-196.7019 2997.9763,-189.7513"/>
</g>
<!-- Node39&#45;&gt;Node17 -->
<g id="edge21" class="edge">
<title>Node39&#45;&gt;Node17</title>
<path fill="none" stroke="#191970" d="M2937.6826,-173.8906C2960.6713,-163.6457 2997.2761,-147.3326 3023.3026,-135.7339"/>
<polygon fill="#191970" stroke="#191970" points="3024.9997,-138.8095 3032.709,-131.5419 3022.1503,-132.4156 3024.9997,-138.8095"/>
</g>
<!-- Node39&#45;&gt;Node18 -->
<g id="edge20" class="edge">
<title>Node39&#45;&gt;Node18</title>
<path fill="none" stroke="#191970" d="M2867.5796,-173.932C2855.3856,-171.7546 2842.3026,-169.6112 2830.1201,-168 2655.3828,-144.8899 2447.3357,-131.0263 2347.4331,-125.2108"/>
<polygon fill="#191970" stroke="#191970" points="2347.4241,-121.7045 2337.2393,-124.6235 2347.0214,-128.6929 2347.4241,-121.7045"/>
</g>
<!-- Node44&#45;&gt;Node14 -->
<g id="edge24" class="edge">
<title>Node44&#45;&gt;Node14</title>
<path fill="none" stroke="#191970" d="M3136.6229,-308.197C3188.4442,-300.1994 3249.9841,-286.6425 3266.1201,-266 3274.6053,-255.1451 3274.2361,-246.1336 3266.1201,-235 3235.3204,-192.7484 3203.6106,-215.8678 3154.1201,-199 3151.8386,-198.2224 3149.4931,-197.4111 3147.131,-196.5851"/>
<polygon fill="#191970" stroke="#191970" points="3148.0426,-193.1949 3137.4479,-193.1548 3145.7052,-199.7931 3148.0426,-193.1949"/>
</g>
<!-- Node44&#45;&gt;Node15 -->
<g id="edge26" class="edge">
<title>Node44&#45;&gt;Node15</title>
<path fill="none" stroke="#191970" d="M3136.7226,-309.8825C3193.9466,-302.4737 3264.883,-288.9058 3283.1201,-266 3291.7019,-255.2213 3290.3635,-246.7201 3283.1201,-235 3224.7734,-140.5929 2851.2424,-125.0515 2735.9573,-122.4996"/>
<polygon fill="#191970" stroke="#191970" points="2736.0015,-118.9999 2725.9327,-122.2966 2735.8597,-125.9985 2736.0015,-118.9999"/>
</g>
<!-- Node44&#45;&gt;Node17 -->
<g id="edge25" class="edge">
<title>Node44&#45;&gt;Node17</title>
<path fill="none" stroke="#191970" d="M3136.8669,-314.1588C3308.6784,-306.4187 3707.1965,-286.3607 3728.1201,-266 3759.4152,-235.547 3764.9384,-199.9004 3735.1201,-168 3712.7136,-144.0289 3219.164,-127.0993 3086.63,-122.974"/>
<polygon fill="#191970" stroke="#191970" points="3086.4299,-119.4662 3076.3269,-122.6565 3086.2143,-126.4629 3086.4299,-119.4662"/>
</g>
<!-- Node44&#45;&gt;Node18 -->
<g id="edge33" class="edge">
<title>Node44&#45;&gt;Node18</title>
<path fill="none" stroke="#191970" d="M3045.2682,-307.9339C3020.0663,-290.9356 2964.559,-255.3464 2913.1201,-235 2715.4986,-156.8319 2461.1888,-132.3148 2347.5605,-124.9709"/>
<polygon fill="#191970" stroke="#191970" points="2347.5347,-121.4626 2337.3359,-124.3322 2347.0982,-128.449 2347.5347,-121.4626"/>
</g>
<!-- Node44&#45;&gt;Node39 -->
<g id="edge27" class="edge">
<title>Node44&#45;&gt;Node39</title>
<path fill="none" stroke="#191970" d="M3051.3245,-307.8171C3038.2444,-291.8361 3010.6935,-259.2925 2984.1201,-235 2969.7741,-221.8854 2952.2642,-208.6813 2938.6054,-198.9267"/>
<polygon fill="#191970" stroke="#191970" points="2940.4496,-195.9447 2930.2578,-193.0503 2936.4202,-201.6687 2940.4496,-195.9447"/>
</g>
<!-- Node45 -->
<g id="node17" class="node">
<title>Node45</title>
<g id="a_node17"><a xlink:href="VectorArray_8hpp.html" target="_top" xlink:title="Core/Containers/VectorArray.hpp">
<polygon fill="#ffffff" stroke="#000000" points="2020.1201,-241 2020.1201,-260 2194.1201,-260 2194.1201,-241 2020.1201,-241"/>
<text text-anchor="middle" x="2107.1201" y="-248" font-family="Helvetica,sans-Serif" font-size="10.00" fill="#000000">Core/Containers/VectorArray.hpp</text>
</a>
</g>
</g>
<!-- Node44&#45;&gt;Node45 -->
<g id="edge28" class="edge">
<title>Node44&#45;&gt;Node45</title>
<path fill="none" stroke="#191970" d="M2981.5792,-312.9972C2841.3288,-304.7153 2536.19,-286.0668 2279.1201,-266 2254.8189,-264.1031 2228.6059,-261.8477 2204.1461,-259.653"/>
<polygon fill="#191970" stroke="#191970" points="2204.4197,-256.1635 2194.1455,-258.7503 2203.7904,-263.1352 2204.4197,-256.1635"/>
</g>
<!-- Node33 -->
<g id="node19" class="node">
<title>Node33</title>
<g id="a_node19"><a xlink:href="Types_8hpp.html" target="_top" xlink:title="Core/Types.hpp">
<polygon fill="#ffffff" stroke="#ff0000" points="1727.6201,-174 1727.6201,-193 1818.6201,-193 1818.6201,-174 1727.6201,-174"/>
<text text-anchor="middle" x="1773.1201" y="-181" font-family="Helvetica,sans-Serif" font-size="10.00" fill="#000000">Core/Types.hpp</text>
</a>
</g>
</g>
<!-- Node44&#45;&gt;Node33 -->
<g id="edge34" class="edge">
<title>Node44&#45;&gt;Node33</title>
<path fill="none" stroke="#191970" d="M2981.4931,-313.1837C2884.5759,-306.9119 2714.0176,-292.9617 2570.1201,-266 2518.5117,-256.3303 2507.9305,-243.5218 2456.1201,-235 2195.1424,-192.0743 2124.8124,-229.7375 1862.1201,-199 1851.2669,-197.7301 1839.729,-196.0033 1828.6831,-194.1624"/>
<polygon fill="#191970" stroke="#191970" points="1829.1592,-190.693 1818.711,-192.4496 1827.9742,-197.592 1829.1592,-190.693"/>
</g>
<!-- Node45&#45;&gt;Node18 -->
<g id="edge32" class="edge">
<title>Node45&#45;&gt;Node18</title>
<path fill="none" stroke="#191970" d="M2120.7245,-240.8416C2151.7784,-218.7951 2228.1182,-164.5981 2266.0251,-137.6862"/>
<polygon fill="#191970" stroke="#191970" points="2268.2299,-140.4133 2274.3578,-131.7705 2264.1776,-134.7055 2268.2299,-140.4133"/>
</g>
<!-- Node46 -->
<g id="node18" class="node">
<title>Node46</title>
<g id="a_node18"><a xlink:href="AlignedStdVector_8hpp.html" target="_top" xlink:title="Core/Containers/AlignedStd\lVector.hpp">
<polygon fill="#ffffff" stroke="#ff0000" points="2372.1201,-168.5 2372.1201,-198.5 2522.1201,-198.5 2522.1201,-168.5 2372.1201,-168.5"/>
<text text-anchor="start" x="2380.1201" y="-186.5" font-family="Helvetica,sans-Serif" font-size="10.00" fill="#000000">Core/Containers/AlignedStd</text>
<text text-anchor="middle" x="2447.1201" y="-175.5" font-family="Helvetica,sans-Serif" font-size="10.00" fill="#000000">Vector.hpp</text>
</a>
</g>
</g>
<!-- Node45&#45;&gt;Node46 -->
<g id="edge29" class="edge">
<title>Node45&#45;&gt;Node46</title>
<path fill="none" stroke="#191970" d="M2155.4728,-240.9717C2209.183,-230.3876 2296.9139,-213.0995 2362.1482,-200.2445"/>
<polygon fill="#191970" stroke="#191970" points="2362.8745,-203.6687 2372.0091,-198.3013 2361.521,-196.8008 2362.8745,-203.6687"/>
</g>
<!-- Node46&#45;&gt;Node15 -->
<g id="edge31" class="edge">
<title>Node46&#45;&gt;Node15</title>
<path fill="none" stroke="#191970" d="M2509.5001,-168.4554C2559.6865,-156.3516 2628.2733,-139.8101 2668.6162,-130.0804"/>
<polygon fill="#191970" stroke="#191970" points="2669.5782,-133.4488 2678.4788,-127.7017 2667.9369,-126.6439 2669.5782,-133.4488"/>
</g>
<!-- Node46&#45;&gt;Node18 -->
<g id="edge30" class="edge">
<title>Node46&#45;&gt;Node18</title>
<path fill="none" stroke="#191970" d="M2408.2244,-168.4554C2381.9275,-158.284 2347.5284,-144.9787 2322.2869,-135.2155"/>
<polygon fill="#191970" stroke="#191970" points="2323.3488,-131.8735 2312.7595,-131.5303 2320.8235,-138.4022 2323.3488,-131.8735"/>
</g>
<!-- Node33&#45;&gt;Node18 -->
<g id="edge35" class="edge">
<title>Node33&#45;&gt;Node18</title>
<path fill="none" stroke="#191970" d="M1818.7645,-174.9652C1832.6562,-172.5258 1847.9874,-169.9916 1862.1201,-168 1992.6261,-149.6094 2146.534,-134.6415 2228.9429,-127.1674"/>
<polygon fill="#191970" stroke="#191970" points="2229.4718,-130.634 2239.1169,-126.2498 2228.8429,-123.6623 2229.4718,-130.634"/>
</g>
<!-- Node49&#45;&gt;Node14 -->
<g id="edge37" class="edge">
<title>Node49&#45;&gt;Node14</title>
<path fill="none" stroke="#191970" d="M2449.8927,-315.6134C2661.3155,-310.3927 3206.5068,-294.243 3233.1201,-266 3242.5689,-255.9726 3240.736,-246.4815 3233.1201,-235 3228.0453,-227.3493 3181.8064,-209.196 3147.7482,-196.625"/>
<polygon fill="#191970" stroke="#191970" points="3148.6635,-193.2329 3138.0697,-193.0809 3146.2564,-199.8061 3148.6635,-193.2329"/>
</g>
<!-- Node49&#45;&gt;Node15 -->
<g id="edge39" class="edge">
<title>Node49&#45;&gt;Node15</title>
<path fill="none" stroke="#191970" d="M2383.866,-307.8433C2401.7661,-297.5133 2430.971,-280.6369 2456.1201,-266 2536.9797,-218.9394 2632.5711,-162.8538 2677.038,-136.738"/>
<polygon fill="#191970" stroke="#191970" points="2678.8772,-139.7168 2685.7271,-131.6341 2675.3318,-133.6811 2678.8772,-139.7168"/>
</g>
<!-- Node49&#45;&gt;Node17 -->
<g id="edge38" class="edge">
<title>Node49&#45;&gt;Node17</title>
<path fill="none" stroke="#191970" d="M2449.6896,-313.1471C2596.0594,-304.9643 2889.683,-286.2761 2932.1201,-266 2988.1177,-239.2448 3028.037,-173.2539 3045.0163,-140.7318"/>
<polygon fill="#191970" stroke="#191970" points="3048.1472,-142.2963 3049.5417,-131.7937 3041.902,-139.1344 3048.1472,-142.2963"/>
</g>
<!-- Node49&#45;&gt;Node18 -->
<g id="edge41" class="edge">
<title>Node49&#45;&gt;Node18</title>
<path fill="none" stroke="#191970" d="M2284.2632,-311.1724C2184.71,-302.7128 2028.773,-286.3903 2011.1201,-266 1943.7246,-188.1532 2128.9005,-146.5445 2228.9001,-130.2602"/>
<polygon fill="#191970" stroke="#191970" points="2229.562,-133.699 2238.8881,-128.6715 2228.4624,-126.7859 2229.562,-133.699"/>
</g>
<!-- Node49&#45;&gt;Node39 -->
<g id="edge45" class="edge">
<title>Node49&#45;&gt;Node39</title>
<path fill="none" stroke="#191970" d="M2449.7822,-312.5507C2598.5421,-303.2506 2897.445,-282.6066 2913.1201,-266 2928.7456,-249.4459 2926.1371,-221.6767 2921.9055,-202.9806"/>
<polygon fill="#191970" stroke="#191970" points="2925.259,-201.9697 2919.352,-193.1744 2918.4849,-203.7337 2925.259,-201.9697"/>
</g>
<!-- Node49&#45;&gt;Node45 -->
<g id="edge40" class="edge">
<title>Node49&#45;&gt;Node45</title>
<path fill="none" stroke="#191970" d="M2330.1446,-307.9717C2283.8792,-296.0495 2204.6039,-275.6208 2154.09,-262.6038"/>
<polygon fill="#191970" stroke="#191970" points="2154.9461,-259.2101 2144.3891,-260.1039 2153.1993,-265.9887 2154.9461,-259.2101"/>
</g>
<!-- Node49&#45;&gt;Node33 -->
<g id="edge42" class="edge">
<title>Node49&#45;&gt;Node33</title>
<path fill="none" stroke="#191970" d="M2284.4391,-310.3695C2130.7054,-297.0406 1815.9023,-269.3835 1811.1201,-266 1790.3624,-251.3134 1780.678,-222.3964 1776.3527,-203.0029"/>
<polygon fill="#191970" stroke="#191970" points="1779.7732,-202.2567 1774.4234,-193.1117 1772.9027,-203.5969 1779.7732,-202.2567"/>
</g>
<!-- Node50 -->
<g id="node21" class="node">
<title>Node50</title>
<g id="a_node21"><a xlink:href="Index_8hpp.html" target="_top" xlink:title="Core/Utils/Index.hpp">
<polygon fill="#ffffff" stroke="#ff0000" points="1458.1201,-174 1458.1201,-193 1574.1201,-193 1574.1201,-174 1458.1201,-174"/>
<text text-anchor="middle" x="1516.1201" y="-181" font-family="Helvetica,sans-Serif" font-size="10.00" fill="#000000">Core/Utils/Index.hpp</text>
</a>
</g>
</g>
<!-- Node49&#45;&gt;Node50 -->
<g id="edge43" class="edge">
<title>Node49&#45;&gt;Node50</title>
<path fill="none" stroke="#191970" d="M2284.6108,-310.6877C2129.3994,-297.8083 1807.309,-270.7479 1783.1201,-266 1697.4256,-249.1795 1600.2382,-215.2261 1550.0859,-196.5487"/>
<polygon fill="#191970" stroke="#191970" points="1551.2922,-193.2631 1540.7,-193.0265 1548.8328,-199.8168 1551.2922,-193.2631"/>
</g>
<!-- Node52 -->
<g id="node22" class="node">
<title>Node52</title>
<g id="a_node22"><a xlink:href="MaterialData_8hpp.html" target="_top" xlink:title="Core/Asset/MaterialData.hpp">
<polygon fill="#ffffff" stroke="#ff0000" points="2748.1201,-241 2748.1201,-260 2904.1201,-260 2904.1201,-241 2748.1201,-241"/>
<text text-anchor="middle" x="2826.1201" y="-248" font-family="Helvetica,sans-Serif" font-size="10.00" fill="#000000">Core/Asset/MaterialData.hpp</text>
</a>
</g>
</g>
<!-- Node49&#45;&gt;Node52 -->
<g id="edge46" class="edge">
<title>Node49&#45;&gt;Node52</title>
<path fill="none" stroke="#191970" d="M2442.0607,-307.9921C2517.2771,-298.2453 2636.4053,-282.2536 2739.1201,-266 2747.3977,-264.6902 2756.1039,-263.2336 2764.679,-261.7525"/>
<polygon fill="#191970" stroke="#191970" points="2765.4033,-265.1791 2774.6515,-260.01 2764.1983,-258.2835 2765.4033,-265.1791"/>
</g>
<!-- Node54 -->
<g id="node23" class="node">
<title>Node54</title>
<g id="a_node23"><a xlink:href="GeometryData_8inl.html" target="_top" xlink:title="Core/Asset/GeometryData.inl">
<polygon fill="#ffffff" stroke="#ff0000" points="2287.6201,-241 2287.6201,-260 2446.6201,-260 2446.6201,-241 2287.6201,-241"/>
<text text-anchor="middle" x="2367.1201" y="-248" font-family="Helvetica,sans-Serif" font-size="10.00" fill="#000000">Core/Asset/GeometryData.inl</text>
</a>
</g>
</g>
<!-- Node49&#45;&gt;Node54 -->
<g id="edge51" class="edge">
<title>Node49&#45;&gt;Node54</title>
<path fill="none" stroke="#191970" d="M2362.2195,-307.9005C2360.3307,-298.149 2359.8887,-282.7597 2360.8935,-270.3695"/>
<polygon fill="#191970" stroke="#191970" points="2364.4124,-270.4478 2362.223,-260.0817 2357.4701,-269.5506 2364.4124,-270.4478"/>
</g>
<!-- Node50&#45;&gt;Node18 -->
<g id="edge44" class="edge">
<title>Node50&#45;&gt;Node18</title>
<path fill="none" stroke="#191970" d="M1555.5461,-173.9242C1566.0744,-171.6661 1577.4829,-169.4863 1588.1201,-168 1823.9895,-135.0421 2107.9595,-125.5944 2228.9161,-122.9703"/>
<polygon fill="#191970" stroke="#191970" points="2229.147,-126.4663 2239.0715,-122.7578 2229.0005,-119.4679 2229.147,-126.4663"/>
</g>
<!-- Node52&#45;&gt;Node15 -->
<g id="edge48" class="edge">
<title>Node52&#45;&gt;Node15</title>
<path fill="none" stroke="#191970" d="M2813.1306,-240.9346C2800.1214,-231.0808 2779.8302,-214.9514 2764.1201,-199 2745.5963,-180.1915 2726.95,-156.1877 2715.0155,-140.0213"/>
<polygon fill="#191970" stroke="#191970" points="2717.5316,-137.5308 2708.8158,-131.507 2711.8728,-141.6513 2717.5316,-137.5308"/>
</g>
<!-- Node52&#45;&gt;Node17 -->
<g id="edge47" class="edge">
<title>Node52&#45;&gt;Node17</title>
<path fill="none" stroke="#191970" d="M2824.0787,-240.907C2821.0628,-223.866 2817.601,-188.2114 2836.1201,-168 2860.7407,-141.1295 2967.2323,-128.8932 3021.7272,-124.306"/>
<polygon fill="#191970" stroke="#191970" points="3022.2059,-127.7789 3031.8932,-123.4885 3021.6448,-120.8015 3022.2059,-127.7789"/>
</g>
<!-- Node52&#45;&gt;Node18 -->
<g id="edge50" class="edge">
<title>Node52&#45;&gt;Node18</title>
<path fill="none" stroke="#191970" d="M2800.7894,-240.8825C2755.3753,-223.9619 2656.8296,-188.7038 2571.1201,-168 2494.6655,-149.5317 2404.7743,-136.3369 2347.1615,-128.9417"/>
<polygon fill="#191970" stroke="#191970" points="2347.5036,-125.4571 2337.143,-127.6724 2346.6238,-132.4016 2347.5036,-125.4571"/>
</g>
<!-- Node52&#45;&gt;Node39 -->
<g id="edge49" class="edge">
<title>Node52&#45;&gt;Node39</title>
<path fill="none" stroke="#191970" d="M2839.0149,-240.9005C2853.5843,-230.0544 2877.5223,-212.2339 2894.8655,-199.3229"/>
<polygon fill="#191970" stroke="#191970" points="2897.3179,-201.8606 2903.2492,-193.0817 2893.1379,-196.2457 2897.3179,-201.8606"/>
</g>
<!-- Node54&#45;&gt;Node49 -->
<g id="edge52" class="edge">
<title>Node54&#45;&gt;Node49</title>
<path fill="none" stroke="#191970" d="M2372.0173,-260.0817C2373.9078,-269.8263 2374.3516,-285.214 2373.3486,-297.6079"/>
<polygon fill="#191970" stroke="#191970" points="2369.8291,-297.5349 2372.0207,-307.9005 2376.7716,-298.4306 2369.8291,-297.5349"/>
</g>
<!-- Node55&#45;&gt;Node15 -->
<g id="edge56" class="edge">
<title>Node55&#45;&gt;Node15</title>
<path fill="none" stroke="#191970" d="M2657.7279,-240.8416C2665.6157,-219.7254 2684.521,-169.1144 2694.9354,-141.2341"/>
<polygon fill="#191970" stroke="#191970" points="2698.2499,-142.363 2698.4705,-131.7705 2691.6924,-139.9135 2698.2499,-142.363"/>
</g>
<!-- Node55&#45;&gt;Node17 -->
<g id="edge55" class="edge">
<title>Node55&#45;&gt;Node17</title>
<path fill="none" stroke="#191970" d="M2669.7751,-240.7816C2698.2352,-223.5417 2760.8173,-187.5824 2818.1201,-168 2888.6636,-143.8929 2975.6356,-131.0341 3021.7837,-125.4617"/>
<polygon fill="#191970" stroke="#191970" points="3022.272,-128.9286 3031.7976,-124.2903 3021.4587,-121.976 3022.272,-128.9286"/>
</g>
<!-- Node55&#45;&gt;Node18 -->
<g id="edge58" class="edge">
<title>Node55&#45;&gt;Node18</title>
<path fill="none" stroke="#191970" d="M2643.147,-240.8469C2622.6654,-223.3815 2576.5633,-186.6238 2531.1201,-168 2471.278,-143.4751 2397.7328,-131.8854 2347.3256,-126.4995"/>
<polygon fill="#191970" stroke="#191970" points="2347.5523,-123.0046 2337.2489,-125.4725 2346.8425,-129.9685 2347.5523,-123.0046"/>
</g>
<!-- Node55&#45;&gt;Node39 -->
<g id="edge60" class="edge">
<title>Node55&#45;&gt;Node39</title>
<path fill="none" stroke="#191970" d="M2691.3801,-240.9717C2738.0013,-229.0495 2817.8865,-208.6208 2868.7889,-195.6038"/>
<polygon fill="#191970" stroke="#191970" points="2869.7434,-198.9724 2878.5645,-193.1039 2868.0091,-192.1906 2869.7434,-198.9724"/>
</g>
<!-- Node55&#45;&gt;Node46 -->
<g id="edge57" class="edge">
<title>Node55&#45;&gt;Node46</title>
<path fill="none" stroke="#191970" d="M2624.4621,-240.9005C2592.9263,-230.6933 2542.3065,-214.3091 2503.2049,-201.6531"/>
<polygon fill="#191970" stroke="#191970" points="2504.1225,-198.2713 2493.5307,-198.5218 2501.9669,-204.9312 2504.1225,-198.2713"/>
</g>
<!-- Node55&#45;&gt;Node33 -->
<g id="edge59" class="edge">
<title>Node55&#45;&gt;Node33</title>
<path fill="none" stroke="#191970" d="M2578.5551,-242.8712C2550.2102,-240.1605 2517.7045,-237.2312 2488.1201,-235 2210.2274,-214.0423 2138.9633,-230.9602 1862.1201,-199 1851.2649,-197.7468 1839.7262,-196.0277 1828.68,-194.1891"/>
<polygon fill="#191970" stroke="#191970" points="1829.1559,-190.7196 1818.7078,-192.4769 1827.9713,-197.6187 1829.1559,-190.7196"/>
</g>
<!-- Node22 -->
<g id="node25" class="node">
<title>Node22</title>
<polygon fill="#ffffff" stroke="#bfbfbf" points="2316.1201,-174 2316.1201,-193 2354.1201,-193 2354.1201,-174 2316.1201,-174"/>
<text text-anchor="middle" x="2335.1201" y="-181" font-family="Helvetica,sans-Serif" font-size="10.00" fill="#000000">map</text>
</g>
<!-- Node55&#45;&gt;Node22 -->
<g id="edge54" class="edge">
<title>Node55&#45;&gt;Node22</title>
<path fill="none" stroke="#191970" d="M2585.0756,-240.9606C2512.3733,-230.44 2403.0192,-213.1305 2363.1201,-199 2361.9122,-198.5722 2360.6947,-198.0957 2359.4792,-197.5827"/>
<polygon fill="#191970" stroke="#191970" points="2360.9111,-194.387 2350.3899,-193.1399 2357.837,-200.6759 2360.9111,-194.387"/>
</g>
<!-- Node57&#45;&gt;Node14 -->
<g id="edge62" class="edge">
<title>Node57&#45;&gt;Node14</title>
<path fill="none" stroke="#191970" d="M3604.5482,-240.9563C3593.3463,-238.7782 3581.3236,-236.6285 3570.1201,-235 3403.115,-210.7245 3359.1814,-222.8855 3192.1201,-199 3178.4759,-197.0492 3163.6394,-194.3738 3150.4367,-191.7946"/>
<polygon fill="#191970" stroke="#191970" points="3150.7442,-188.287 3140.2526,-189.7624 3149.3743,-195.1517 3150.7442,-188.287"/>
</g>
<!-- Node57&#45;&gt;Node15 -->
<g id="edge64" class="edge">
<title>Node57&#45;&gt;Node15</title>
<path fill="none" stroke="#191970" d="M3635.8974,-240.9613C3607.9704,-221.0205 3543.4671,-176.0961 3518.1201,-168 3442.7927,-143.9397 2879.9057,-126.9018 2735.6983,-122.9004"/>
<polygon fill="#191970" stroke="#191970" points="2735.7652,-119.4011 2725.6727,-122.6246 2735.5727,-126.3984 2735.7652,-119.4011"/>
</g>
<!-- Node57&#45;&gt;Node17 -->
<g id="edge63" class="edge">
<title>Node57&#45;&gt;Node17</title>
<path fill="none" stroke="#191970" d="M3667.5367,-240.8104C3695.1583,-225.0932 3741.6868,-193.2558 3718.1201,-168 3696.3144,-144.6314 3216.1047,-127.2927 3086.2462,-123.0194"/>
<polygon fill="#191970" stroke="#191970" points="3086.2517,-119.5178 3076.1429,-122.6901 3086.0236,-126.5141 3086.2517,-119.5178"/>
</g>
<!-- Node57&#45;&gt;Node18 -->
<g id="edge66" class="edge">
<title>Node57&#45;&gt;Node18</title>
<path fill="none" stroke="#191970" d="M3603.6912,-240.9655C3592.7282,-238.8368 3581.029,-236.7072 3570.1201,-235 3434.3928,-213.7593 3396.3857,-232.3671 3263.1201,-199 3226.532,-189.8391 3220.9884,-175.9592 3184.1201,-168 3102.8687,-150.4594 2534.1327,-130.1874 2347.3794,-123.9351"/>
<polygon fill="#191970" stroke="#191970" points="2347.314,-120.431 2337.2029,-123.5956 2347.0806,-127.4271 2347.314,-120.431"/>
</g>
<!-- Node57&#45;&gt;Node39 -->
<g id="edge65" class="edge">
<title>Node57&#45;&gt;Node39</title>
<path fill="none" stroke="#191970" d="M3605.4013,-240.9395C3593.965,-238.7089 3581.6184,-236.5386 3570.1201,-235 3350.6091,-205.6261 3293.7814,-217.881 3073.1201,-199 3048.764,-196.916 3022.3081,-194.4011 2998.1768,-192.0091"/>
<polygon fill="#191970" stroke="#191970" points="2998.288,-188.5029 2987.99,-190.9931 2997.5932,-195.4684 2998.288,-188.5029"/>
</g>
<!-- Node61&#45;&gt;Node39 -->
<g id="edge68" class="edge">
<title>Node61&#45;&gt;Node39</title>
<path fill="none" stroke="#191970" d="M2114.6931,-307.8524C2159.2677,-287.0185 2262.1262,-239.3406 2279.1201,-235 2381.8696,-208.7556 2686.3594,-192.9895 2834.0064,-186.6868"/>
<polygon fill="#191970" stroke="#191970" points="2834.5177,-190.1684 2844.3611,-186.2493 2834.2222,-183.1747 2834.5177,-190.1684"/>
</g>
<!-- Node61&#45;&gt;Node33 -->
<g id="edge69" class="edge">
<title>Node61&#45;&gt;Node33</title>
<path fill="none" stroke="#191970" d="M2017.2359,-309.9857C1928.9019,-300.5858 1794.0064,-283.578 1778.1201,-266 1762.9104,-249.1705 1764.5787,-221.6661 1768.0799,-203.0885"/>
<polygon fill="#191970" stroke="#191970" points="1771.5491,-203.6109 1770.3007,-193.0899 1764.7156,-202.0931 1771.5491,-203.6109"/>
</g>
<!-- Node41&#45;&gt;Node17 -->
<g id="edge72" class="edge">
<title>Node41&#45;&gt;Node17</title>
<path fill="none" stroke="#191970" d="M3602.0893,-173.967C3592.3896,-171.7361 3581.9063,-169.5588 3572.1201,-168 3389.7286,-138.9479 3168.0683,-126.9533 3086.3606,-123.3063"/>
<polygon fill="#191970" stroke="#191970" points="3086.3604,-119.803 3076.2176,-122.8647 3086.0559,-126.7964 3086.3604,-119.803"/>
</g>
<!-- Node41&#45;&gt;Node18 -->
<g id="edge71" class="edge">
<title>Node41&#45;&gt;Node18</title>
<path fill="none" stroke="#191970" d="M3585.7966,-176.5801C3560.224,-173.4999 3529.1284,-170.1011 3501.1201,-168 3272.8874,-150.8786 2558.7128,-129.6957 2347.5145,-123.6692"/>
<polygon fill="#191970" stroke="#191970" points="2347.3487,-120.1631 2337.2531,-123.377 2347.1494,-127.1603 2347.3487,-120.1631"/>
</g>
<!-- Node62&#45;&gt;Node17 -->
<g id="edge77" class="edge">
<title>Node62&#45;&gt;Node17</title>
<path fill="none" stroke="#191970" d="M57.3881,-307.74C48.2453,-290.755 33.1322,-255.6092 51.1201,-235 195.9463,-69.0692 322.5116,-184.7261 542.1201,-168 1028.1116,-130.9853 2247.8601,-143.6361 2735.1201,-132 2839.9796,-129.4959 2964.1879,-125.2272 3021.7938,-123.1728"/>
<polygon fill="#191970" stroke="#191970" points="3022.2106,-126.6602 3032.0788,-122.8043 3021.9598,-119.6647 3022.2106,-126.6602"/>
</g>
<!-- Node62&#45;&gt;Node18 -->
<g id="edge75" class="edge">
<title>Node62&#45;&gt;Node18</title>
<path fill="none" stroke="#191970" d="M50.4415,-307.6407C39.5249,-298.2782 24.5455,-283.1188 18.1201,-266 2.8145,-225.2223 -12.3647,-199.1089 18.1201,-168 57.968,-127.3364 1875.6978,-122.6029 2228.9835,-122.0668"/>
<polygon fill="#191970" stroke="#191970" points="2229.0105,-125.5669 2239.0053,-122.0521 2229.0002,-118.5669 2229.0105,-125.5669"/>
</g>
<!-- Node63 -->
<g id="node30" class="node">
<title>Node63</title>
<polygon fill="#ffffff" stroke="#bfbfbf" points="60.6201,-241 60.6201,-260 125.6201,-260 125.6201,-241 60.6201,-241"/>
<text text-anchor="middle" x="93.1201" y="-248" font-family="Helvetica,sans-Serif" font-size="10.00" fill="#000000">functional</text>
</g>
<!-- Node62&#45;&gt;Node63 -->
<g id="edge76" class="edge">
<title>Node62&#45;&gt;Node63</title>
<path fill="none" stroke="#191970" d="M67.4184,-307.9005C71.9184,-297.8505 79.0997,-281.8122 84.7289,-269.2403"/>
<polygon fill="#191970" stroke="#191970" points="87.9375,-270.6389 88.8298,-260.0817 81.5487,-267.7782 87.9375,-270.6389"/>
</g>
<!-- Node64&#45;&gt;Node9 -->
<g id="edge85" class="edge">
<title>Node64&#45;&gt;Node9</title>
<path fill="none" stroke="#191970" d="M3926.1152,-240.8776C3929.1005,-223.4621 3932.4042,-186.7826 3912.1201,-168 3641.8116,82.2995 3452.7657,-135.5221 3085.1201,-112 2418.0755,-69.3222 1602.855,-22.1323 1426.701,-11.9876"/>
<polygon fill="#191970" stroke="#191970" points="1426.6688,-8.48 1416.4842,-11.3995 1426.2665,-15.4684 1426.6688,-8.48"/>
</g>
<!-- Node64&#45;&gt;Node14 -->
<g id="edge82" class="edge">
<title>Node64&#45;&gt;Node14</title>
<path fill="none" stroke="#191970" d="M3851.0573,-244.6932C3814.1947,-241.7709 3768.786,-238.1821 3728.1201,-235 3521.4667,-218.8293 3469.5766,-217.5157 3263.1201,-199 3224.8343,-195.5664 3181.1871,-191.0534 3150.5166,-187.7832"/>
<polygon fill="#191970" stroke="#191970" points="3150.5553,-184.2674 3140.2393,-186.6822 3149.8096,-191.2276 3150.5553,-184.2674"/>
</g>
<!-- Node64&#45;&gt;Node15 -->
<g id="edge86" class="edge">
<title>Node64&#45;&gt;Node15</title>
<path fill="none" stroke="#191970" d="M3907.5495,-240.8092C3875.3948,-222.5821 3801.7438,-183.6266 3734.1201,-168 3684.4313,-156.5178 2908.135,-129.1185 2735.8257,-123.1575"/>
<polygon fill="#191970" stroke="#191970" points="2735.924,-119.6589 2725.8092,-122.8116 2735.6824,-126.6547 2735.924,-119.6589"/>
</g>
<!-- Node64&#45;&gt;Node17 -->
<g id="edge84" class="edge">
<title>Node64&#45;&gt;Node17</title>
<path fill="none" stroke="#191970" d="M3922.877,-240.8017C3920.0134,-222.919 3911.1566,-185.0255 3886.1201,-168 3852.4944,-145.1336 3235.9706,-126.9456 3086.5395,-122.8607"/>
<polygon fill="#191970" stroke="#191970" points="3086.3062,-119.3532 3076.215,-122.5806 3086.1164,-126.3506 3086.3062,-119.3532"/>
</g>
<!-- Node64&#45;&gt;Node18 -->
<g id="edge79" class="edge">
<title>Node64&#45;&gt;Node18</title>
<path fill="none" stroke="#191970" d="M3851.047,-244.2999C3702.4759,-231.6193 3378.1944,-203.5294 3367.1201,-199 3346.9464,-190.7488 3349.4862,-175.7643 3329.1201,-168 3283.0719,-150.4447 2561.0129,-129.4426 2347.2802,-123.5845"/>
<polygon fill="#191970" stroke="#191970" points="2347.2853,-120.0835 2337.1934,-123.309 2347.0941,-127.0808 2347.2853,-120.0835"/>
</g>
<!-- Node64&#45;&gt;Node50 -->
<g id="edge87" class="edge">
<title>Node64&#45;&gt;Node50</title>
<path fill="none" stroke="#191970" d="M3850.6596,-243.623C3813.8963,-240.4534 3768.692,-236.9659 3728.1201,-235 2836.1344,-191.7786 2611.1636,-241.0125 1719.1201,-199 1674.1364,-196.8814 1623.6462,-193.0323 1584.2729,-189.7"/>
<polygon fill="#191970" stroke="#191970" points="1584.5163,-186.2081 1574.2544,-188.843 1583.9197,-193.1827 1584.5163,-186.2081"/>
</g>
<!-- Node65 -->
<g id="node32" class="node">
<title>Node65</title>
<polygon fill="#ffffff" stroke="#bfbfbf" points="4041.6201,-174 4041.6201,-193 4148.6201,-193 4148.6201,-174 4041.6201,-174"/>
<text text-anchor="middle" x="4095.1201" y="-181" font-family="Helvetica,sans-Serif" font-size="10.00" fill="#000000">condition_variable</text>
</g>
<!-- Node64&#45;&gt;Node65 -->
<g id="edge80" class="edge">
<title>Node64&#45;&gt;Node65</title>
<path fill="none" stroke="#191970" d="M3948.6203,-240.9005C3978.2068,-229.3082 4028.1275,-209.7486 4061.3506,-196.7313"/>
<polygon fill="#191970" stroke="#191970" points="4062.6315,-199.9886 4070.6654,-193.0817 4060.0778,-193.471 4062.6315,-199.9886"/>
</g>
<!-- Node66 -->
<g id="node33" class="node">
<title>Node66</title>
<polygon fill="#ffffff" stroke="#bfbfbf" points="3976.6201,-174 3976.6201,-193 4023.6201,-193 4023.6201,-174 3976.6201,-174"/>
<text text-anchor="middle" x="4000.1201" y="-181" font-family="Helvetica,sans-Serif" font-size="10.00" fill="#000000">deque</text>
</g>
<!-- Node64&#45;&gt;Node66 -->
<g id="edge81" class="edge">
<title>Node64&#45;&gt;Node66</title>
<path fill="none" stroke="#191970" d="M3935.0091,-240.9005C3947.0864,-230.2535 3966.7873,-212.8856 3981.3601,-200.0385"/>
<polygon fill="#191970" stroke="#191970" points="3984.0646,-202.3201 3989.2514,-193.0817 3979.4356,-197.0692 3984.0646,-202.3201"/>
</g>
<!-- Node67 -->
<g id="node34" class="node">
<title>Node67</title>
<polygon fill="#ffffff" stroke="#bfbfbf" points="3272.1201,-174 3272.1201,-193 3320.1201,-193 3320.1201,-174 3272.1201,-174"/>
<text text-anchor="middle" x="3296.1201" y="-181" font-family="Helvetica,sans-Serif" font-size="10.00" fill="#000000">mutex</text>
</g>
<!-- Node64&#45;&gt;Node67 -->
<g id="edge83" class="edge">
<title>Node64&#45;&gt;Node67</title>
<path fill="none" stroke="#191970" d="M3851.0857,-244.7111C3698.6984,-232.5517 3358.8713,-204.9831 3334.1201,-199 3331.3283,-198.3251 3328.4734,-197.4785 3325.6446,-196.5308"/>
<polygon fill="#191970" stroke="#191970" points="3326.8493,-193.2446 3316.2568,-193.0229 3324.3991,-199.8018 3326.8493,-193.2446"/>
</g>
<!-- Node68 -->
<g id="node35" class="node">
<title>Node68</title>
<g id="a_node35"><a xlink:href="Timer_8hpp.html" target="_top" xlink:title="Core/Utils/Timer.hpp">
<polygon fill="#ffffff" stroke="#ff0000" points="3376.1201,-174 3376.1201,-193 3492.1201,-193 3492.1201,-174 3376.1201,-174"/>
<text text-anchor="middle" x="3434.1201" y="-181" font-family="Helvetica,sans-Serif" font-size="10.00" fill="#000000">Core/Utils/Timer.hpp</text>
</a>
</g>
</g>
<!-- Node64&#45;&gt;Node68 -->
<g id="edge88" class="edge">
<title>Node64&#45;&gt;Node68</title>
<path fill="none" stroke="#191970" d="M3854.4355,-240.9717C3760.8434,-228.1744 3595.5726,-205.5762 3502.6003,-192.8636"/>
<polygon fill="#191970" stroke="#191970" points="3502.8388,-189.3637 3492.4568,-191.4766 3501.8904,-196.2992 3502.8388,-189.3637"/>
</g>
<!-- Node68&#45;&gt;Node18 -->
<g id="edge89" class="edge">
<title>Node68&#45;&gt;Node18</title>
<path fill="none" stroke="#191970" d="M3395.4667,-173.9211C3384.7316,-171.6051 3373.0273,-169.3974 3362.1201,-168 3261.5414,-155.1141 2557.6871,-130.9543 2347.3468,-123.9496"/>
<polygon fill="#191970" stroke="#191970" points="2347.232,-120.4439 2337.1212,-123.6096 2346.9994,-127.44 2347.232,-120.4439"/>
</g>
<!-- Node70&#45;&gt;Node49 -->
<g id="edge91" class="edge">
<title>Node70&#45;&gt;Node49</title>
<path fill="none" stroke="#191970" d="M1368.8438,-441.5573C1452.8476,-431.2043 1588.2088,-414.5042 1705.1201,-400 1911.73,-374.3676 2154.5865,-344.0554 2280.9176,-328.2736"/>
<polygon fill="#191970" stroke="#191970" points="2281.4328,-331.7365 2290.9218,-327.0238 2280.565,-324.7905 2281.4328,-331.7365"/>
</g>
<!-- Node70&#45;&gt;Node61 -->
<g id="edge92" class="edge">
<title>Node70&#45;&gt;Node61</title>
<path fill="none" stroke="#191970" d="M1368.7206,-438.0999C1527.6716,-411.6738 1878.9152,-353.2785 2026.607,-328.7243"/>
<polygon fill="#191970" stroke="#191970" points="2027.5931,-332.1085 2036.8836,-327.0157 2026.445,-325.2032 2027.5931,-332.1085"/>
</g>
<!-- Node71 -->
<g id="node37" class="node">
<title>Node71</title>
<g id="a_node37"><a xlink:href="TriangleMesh_8hpp.html" target="_top" xlink:title="Core/Geometry/TriangleMesh.hpp">
<polygon fill="#ffffff" stroke="#ff0000" points="1277.6201,-308 1277.6201,-327 1456.6201,-327 1456.6201,-308 1277.6201,-308"/>
<text text-anchor="middle" x="1367.1201" y="-315" font-family="Helvetica,sans-Serif" font-size="10.00" fill="#000000">Core/Geometry/TriangleMesh.hpp</text>
</a>
</g>
</g>
<!-- Node70&#45;&gt;Node71 -->
<g id="edge93" class="edge">
<title>Node70&#45;&gt;Node71</title>
<path fill="none" stroke="#191970" d="M1297.0289,-436.389C1311.6201,-411.6393 1340.5611,-362.5495 1356.3055,-335.8438"/>
<polygon fill="#191970" stroke="#191970" points="1359.3943,-337.4961 1361.458,-327.1042 1353.3643,-333.941 1359.3943,-337.4961"/>
</g>
<!-- Node78 -->
<g id="node38" class="node">
<title>Node78</title>
<g id="a_node38"><a xlink:href="Volume_8hpp.html" target="_top" xlink:title="Core/Geometry/Volume.hpp">
<polygon fill="#ffffff" stroke="#ff0000" points="987.1201,-241 987.1201,-260 1139.1201,-260 1139.1201,-241 987.1201,-241"/>
<text text-anchor="middle" x="1063.1201" y="-248" font-family="Helvetica,sans-Serif" font-size="10.00" fill="#000000">Core/Geometry/Volume.hpp</text>
</a>
</g>
</g>
<!-- Node70&#45;&gt;Node78 -->
<g id="edge97" class="edge">
<title>Node70&#45;&gt;Node78</title>
<path fill="none" stroke="#191970" d="M1286.0029,-436.3876C1281.0043,-406.3888 1265.6827,-339.0289 1225.1201,-302 1209.0116,-287.2948 1157.497,-272.4018 1116.8331,-262.4403"/>
<polygon fill="#191970" stroke="#191970" points="1117.5631,-259.0161 1107.0218,-260.0797 1115.9256,-265.8219 1117.5631,-259.0161"/>
</g>
<!-- Node80 -->
<g id="node39" class="node">
<title>Node80</title>
<g id="a_node39"><a xlink:href="Component_8hpp.html" target="_top" xlink:title="Engine/Component/Component.hpp">
<polygon fill="#ffffff" stroke="#ff0000" points="741.6201,-241 741.6201,-260 930.6201,-260 930.6201,-241 741.6201,-241"/>
<text text-anchor="middle" x="836.1201" y="-248" font-family="Helvetica,sans-Serif" font-size="10.00" fill="#000000">Engine/Component/Component.hpp</text>
</a>
</g>
</g>
<!-- Node70&#45;&gt;Node80 -->
<g id="edge100" class="edge">
<title>Node70&#45;&gt;Node80</title>
<path fill="none" stroke="#191970" d="M1274.2103,-436.3823C1256.6635,-418.1143 1224.8126,-387.5288 1192.1201,-369 1094.0188,-313.4 965.8092,-278.8096 893.0667,-262.2384"/>
<polygon fill="#191970" stroke="#191970" points="893.7033,-258.7943 883.1795,-260.0194 892.1703,-265.6244 893.7033,-258.7943"/>
</g>
<!-- Node82 -->
<g id="node40" class="node">
<title>Node82</title>
<g id="a_node40"><a xlink:href="GeometryComponent_8inl.html" target="_top" xlink:title="Engine/Component/Geometry\lComponent.inl">
<polygon fill="#ffffff" stroke="#ff0000" points="1021.6201,-369.5 1021.6201,-399.5 1182.6201,-399.5 1182.6201,-369.5 1021.6201,-369.5"/>
<text text-anchor="start" x="1029.6201" y="-387.5" font-family="Helvetica,sans-Serif" font-size="10.00" fill="#000000">Engine/Component/Geometry</text>
<text text-anchor="middle" x="1102.1201" y="-376.5" font-family="Helvetica,sans-Serif" font-size="10.00" fill="#000000">Component.inl</text>
</a>
</g>
</g>
<!-- Node70&#45;&gt;Node82 -->
<g id="edge105" class="edge">
<title>Node70&#45;&gt;Node82</title>
<path fill="none" stroke="#191970" d="M1240.6376,-436.4639C1212.1298,-426.6278 1176.1212,-413.7034 1147.9201,-403.2049"/>
<polygon fill="#191970" stroke="#191970" points="1148.8881,-399.8301 1138.2957,-399.6017 1146.4337,-406.3858 1148.8881,-399.8301"/>
</g>
<!-- Node71&#45;&gt;Node18 -->
<g id="edge95" class="edge">
<title>Node71&#45;&gt;Node18</title>
<path fill="none" stroke="#191970" d="M1277.613,-313.4183C1106.97,-305.2011 750.3384,-285.7556 732.1201,-266 722.7798,-255.8715 723.8581,-246.0257 732.1201,-235 795.7113,-150.1378 856.4241,-184.8573 961.1201,-168 1087.0535,-147.7233 1987.1754,-128.123 2228.6404,-123.1866"/>
<polygon fill="#191970" stroke="#191970" points="2229.0414,-126.6792 2238.968,-122.9762 2228.8987,-119.6807 2229.0414,-126.6792"/>
</g>
<!-- Node71&#45;&gt;Node45 -->
<g id="edge94" class="edge">
<title>Node71&#45;&gt;Node45</title>
<path fill="none" stroke="#191970" d="M1437.0471,-307.9799C1454.0668,-305.8386 1472.2316,-303.6998 1489.1201,-302 1703.7412,-280.3993 1758.3813,-286.3971 1973.1201,-266 1988.1331,-264.574 2004.0719,-262.8846 2019.5208,-261.1547"/>
<polygon fill="#191970" stroke="#191970" points="2020.0451,-264.6178 2029.5876,-260.0143 2019.2572,-257.6622 2020.0451,-264.6178"/>
</g>
<!-- Node71&#45;&gt;Node33 -->
<g id="edge96" class="edge">
<title>Node71&#45;&gt;Node33</title>
<path fill="none" stroke="#191970" d="M1368.0575,-307.7478C1370.312,-290.1214 1377.722,-253.1116 1401.1201,-235 1425.6756,-215.9925 1619.6947,-196.7544 1717.3587,-188.1551"/>
<polygon fill="#191970" stroke="#191970" points="1717.6959,-191.6391 1727.3536,-187.2826 1717.0871,-184.6656 1717.6959,-191.6391"/>
</g>
<!-- Node78&#45;&gt;Node18 -->
<g id="edge98" class="edge">
<title>Node78&#45;&gt;Node18</title>
<path fill="none" stroke="#191970" d="M1088.6823,-240.9445C1138.1414,-222.9488 1250.7358,-184.3716 1349.1201,-168 1519.508,-139.6467 2050.0312,-126.7331 2228.7014,-123.1102"/>
<polygon fill="#191970" stroke="#191970" points="2229.0266,-126.6045 2238.9544,-122.9047 2228.8863,-119.6059 2229.0266,-126.6045"/>
</g>
<!-- Node78&#45;&gt;Node33 -->
<g id="edge99" class="edge">
<title>Node78&#45;&gt;Node33</title>
<path fill="none" stroke="#191970" d="M1111.2068,-240.9929C1123.5289,-238.7881 1136.7853,-236.6168 1149.1201,-235 1156.1454,-234.0792 1565.9702,-200.4702 1717.5488,-188.0513"/>
<polygon fill="#191970" stroke="#191970" points="1717.8994,-191.5344 1727.5802,-187.2295 1717.3278,-184.5578 1717.8994,-191.5344"/>
</g>
<!-- Node80&#45;&gt;Node3 -->
<g id="edge102" class="edge">
<title>Node80&#45;&gt;Node3</title>
<path fill="none" stroke="#191970" d="M879.0686,-240.9717C933.2554,-228.9501 1026.4264,-208.2797 1085.0226,-195.2799"/>
<polygon fill="#191970" stroke="#191970" points="1085.8263,-198.6868 1094.8308,-193.1039 1084.3101,-191.853 1085.8263,-198.6868"/>
</g>
<!-- Node80&#45;&gt;Node15 -->
<g id="edge103" class="edge">
<title>Node80&#45;&gt;Node15</title>
<path fill="none" stroke="#191970" d="M856.4982,-240.8696C896.4151,-222.5634 988.1686,-183.215 1070.1201,-168 1070.1201,-168 2434.0826,-129.555 2668.139,-122.9578"/>
<polygon fill="#191970" stroke="#191970" points="2668.5232,-126.4485 2678.4206,-122.668 2668.3259,-119.4512 2668.5232,-126.4485"/>
</g>
<!-- Node80&#45;&gt;Node33 -->
<g id="edge104" class="edge">
<title>Node80&#45;&gt;Node33</title>
<path fill="none" stroke="#191970" d="M916.7801,-240.9978C936.8041,-238.8313 958.2273,-236.6765 978.1201,-235 1246.5331,-212.3787 1314.4232,-217.952 1583.1201,-199 1628.2341,-195.818 1679.3232,-191.6165 1717.1537,-188.3906"/>
<polygon fill="#191970" stroke="#191970" points="1717.7914,-191.8489 1727.4563,-187.5083 1717.194,-184.8744 1717.7914,-191.8489"/>
</g>
<!-- Node80&#45;&gt;Node50 -->
<g id="edge101" class="edge">
<title>Node80&#45;&gt;Node50</title>
<path fill="none" stroke="#191970" d="M921.703,-240.9722C940.2974,-238.9541 959.8642,-236.87 978.1201,-235 1146.8728,-217.7138 1345.596,-199.158 1447.7949,-189.7472"/>
<polygon fill="#191970" stroke="#191970" points="1448.3405,-193.2119 1457.9778,-188.8104 1447.6992,-186.2413 1448.3405,-193.2119"/>
</g>
<!-- Node82&#45;&gt;Node70 -->
<g id="edge106" class="edge">
<title>Node82&#45;&gt;Node70</title>
<path fill="none" stroke="#191970" d="M1149.7927,-399.6017C1178.3337,-409.4515 1214.3416,-422.3773 1242.508,-432.865"/>
<polygon fill="#191970" stroke="#191970" points="1241.5263,-436.2347 1252.1186,-436.4639 1243.9811,-429.6792 1241.5263,-436.2347"/>
</g>
<!-- Node82&#45;&gt;Node84 -->
<g id="edge107" class="edge">
<title>Node82&#45;&gt;Node84</title>
<path fill="none" stroke="#191970" d="M1182.7765,-373.4728C1256.5738,-363.292 1368.7584,-347.5861 1466.1201,-333 1475.413,-331.6078 1485.1953,-330.1051 1494.8366,-328.6023"/>
<polygon fill="#191970" stroke="#191970" points="1495.4683,-332.0461 1504.8062,-327.0407 1494.3851,-325.1304 1495.4683,-332.0461"/>
</g>
<!-- Node82&#45;&gt;Node87 -->
<g id="edge119" class="edge">
<title>Node82&#45;&gt;Node87</title>
<path fill="none" stroke="#191970" d="M1021.5592,-374.7218C926.4763,-363.1809 767.836,-343.9257 661.1478,-330.9762"/>
<polygon fill="#191970" stroke="#191970" points="661.3381,-327.4737 650.9892,-329.7432 660.4946,-334.4227 661.3381,-327.4737"/>
</g>
<!-- Node84&#45;&gt;Node3 -->
<g id="edge108" class="edge">
<title>Node84&#45;&gt;Node3</title>
<path fill="none" stroke="#191970" d="M1509.0323,-307.9629C1495.0644,-305.7718 1480.0657,-303.6144 1466.1201,-302 1412.1113,-295.7477 1015.124,-305.8342 978.1201,-266 944.9427,-230.2849 1011.5904,-207.4649 1068.736,-195.0848"/>
<polygon fill="#191970" stroke="#191970" points="1069.4625,-198.5087 1078.5372,-193.0405 1068.0332,-191.6561 1069.4625,-198.5087"/>
</g>
<!-- Node84&#45;&gt;Node9 -->
<g id="edge111" class="edge">
<title>Node84&#45;&gt;Node9</title>
<path fill="none" stroke="#191970" d="M1564.6575,-307.7996C1565.0552,-290.9068 1563.4202,-255.8992 1545.1201,-235 1515.101,-200.7174 1480.2633,-232.2648 1449.1201,-199 1403.9061,-150.7058 1394.4696,-67.7844 1392.5628,-29.9136"/>
<polygon fill="#191970" stroke="#191970" points="1396.0521,-29.5577 1392.1816,-19.6952 1389.057,-29.8188 1396.0521,-29.5577"/>
</g>
<!-- Node84&#45;&gt;Node15 -->
<g id="edge112" class="edge">
<title>Node84&#45;&gt;Node15</title>
<path fill="none" stroke="#191970" d="M1566.7044,-307.7146C1574.9604,-277.2558 1601.5958,-185.1477 1626.1201,-168 1647.988,-152.7097 2486.8568,-128.1001 2667.9055,-122.9598"/>
<polygon fill="#191970" stroke="#191970" points="2668.2681,-126.451 2678.1651,-122.6694 2668.07,-119.4538 2668.2681,-126.451"/>
</g>
<!-- Node84&#45;&gt;Node17 -->
<g id="edge110" class="edge">
<title>Node84&#45;&gt;Node17</title>
<path fill="none" stroke="#191970" d="M1570.3333,-307.7215C1588.8403,-279.6112 1646.8324,-198.6387 1719.1201,-168 1726.8676,-164.7163 2819.0605,-129.539 3021.9029,-123.032"/>
<polygon fill="#191970" stroke="#191970" points="3022.0429,-126.5294 3031.9255,-122.7106 3021.8185,-119.533 3022.0429,-126.5294"/>
</g>
<!-- Node84&#45;&gt;Node33 -->
<g id="edge113" class="edge">
<title>Node84&#45;&gt;Node33</title>
<path fill="none" stroke="#191970" d="M1581.9772,-307.878C1600.3315,-297.8501 1629.6094,-281.4686 1654.1201,-266 1689.1832,-243.8718 1728.4599,-216.0131 1751.9675,-198.9924"/>
<polygon fill="#191970" stroke="#191970" points="1754.1328,-201.7454 1760.1632,-193.0342 1750.0167,-196.0835 1754.1328,-201.7454"/>
</g>
<!-- Node84&#45;&gt;Node67 -->
<g id="edge109" class="edge">
<title>Node84&#45;&gt;Node67</title>
<path fill="none" stroke="#191970" d="M1630.3526,-314.735C1771.0719,-308.4411 2095.7321,-291.5815 2203.1201,-266 2238.6068,-257.5465 2243.4751,-242.7588 2279.1201,-235 2468.1917,-193.8452 2956.1396,-213.1524 3149.1201,-199 3187.7564,-196.1666 3231.9429,-191.2849 3261.6986,-187.756"/>
<polygon fill="#191970" stroke="#191970" points="3262.4595,-191.1899 3271.9712,-186.5234 3261.6255,-184.2397 3262.4595,-191.1899"/>
</g>
<!-- Node85 -->
<g id="node42" class="node">
<title>Node85</title>
<g id="a_node42"><a xlink:href="IndexedObject_8hpp.html" target="_top" xlink:title="Core/Utils/IndexedObject.hpp">
<polygon fill="#ffffff" stroke="#000000" points="1157.6201,-241 1157.6201,-260 1316.6201,-260 1316.6201,-241 1157.6201,-241"/>
<text text-anchor="middle" x="1237.1201" y="-248" font-family="Helvetica,sans-Serif" font-size="10.00" fill="#000000">Core/Utils/IndexedObject.hpp</text>
</a>
</g>
</g>
<!-- Node84&#45;&gt;Node85 -->
<g id="edge114" class="edge">
<title>Node84&#45;&gt;Node85</title>
<path fill="none" stroke="#191970" d="M1517.6163,-307.9717C1458.6177,-295.8833 1356.9372,-275.0497 1293.5586,-262.0638"/>
<polygon fill="#191970" stroke="#191970" points="1294.227,-258.6282 1283.728,-260.0496 1292.8219,-265.4857 1294.227,-258.6282"/>
</g>
<!-- Node86 -->
<g id="node43" class="node">
<title>Node86</title>
<g id="a_node43"><a xlink:href="Entity_8inl.html" target="_top" xlink:title="Engine/Entity/Entity.inl">
<polygon fill="#ffffff" stroke="#000000" points="1410.1201,-241 1410.1201,-260 1536.1201,-260 1536.1201,-241 1410.1201,-241"/>
<text text-anchor="middle" x="1473.1201" y="-248" font-family="Helvetica,sans-Serif" font-size="10.00" fill="#000000">Engine/Entity/Entity.inl</text>
</a>
</g>
</g>
<!-- Node84&#45;&gt;Node86 -->
<g id="edge117" class="edge">
<title>Node84&#45;&gt;Node86</title>
<path fill="none" stroke="#191970" d="M1546.1815,-307.9005C1529.5038,-297.1539 1505.2836,-279.5603 1489.2213,-266.6794"/>
<polygon fill="#191970" stroke="#191970" points="1491.1751,-263.7536 1481.2369,-260.0817 1486.7161,-269.1497 1491.1751,-263.7536"/>
</g>
<!-- Node85&#45;&gt;Node18 -->
<g id="edge115" class="edge">
<title>Node85&#45;&gt;Node18</title>
<path fill="none" stroke="#191970" d="M1255.7823,-240.8968C1291.9557,-222.8196 1374.6179,-184.1091 1449.1201,-168 1598.0579,-135.7961 2062.6539,-125.5189 2228.5245,-122.8277"/>
<polygon fill="#191970" stroke="#191970" points="2229.0684,-126.3196 2239.0115,-122.6613 2228.9572,-119.3205 2229.0684,-126.3196"/>
</g>
<!-- Node85&#45;&gt;Node50 -->
<g id="edge116" class="edge">
<title>Node85&#45;&gt;Node50</title>
<path fill="none" stroke="#191970" d="M1276.7977,-240.9717C1326.6509,-228.9998 1412.2221,-208.4504 1466.3937,-195.4415"/>
<polygon fill="#191970" stroke="#191970" points="1467.2214,-198.8423 1476.1277,-193.1039 1465.5868,-192.0358 1467.2214,-198.8423"/>
</g>
<!-- Node86&#45;&gt;Node84 -->
<g id="edge118" class="edge">
<title>Node86&#45;&gt;Node84</title>
<path fill="none" stroke="#191970" d="M1491.0312,-260.0817C1507.7005,-270.8207 1531.921,-288.4131 1547.9923,-301.2992"/>
<polygon fill="#191970" stroke="#191970" points="1546.0441,-304.2296 1555.9826,-307.9005 1550.5025,-298.8331 1546.0441,-304.2296"/>
</g>
<!-- Node87&#45;&gt;Node3 -->
<g id="edge120" class="edge">
<title>Node87&#45;&gt;Node3</title>
<path fill="none" stroke="#191970" d="M449.5007,-306.7261C367.156,-296.8691 262.1944,-281.5013 249.1201,-266 240.2372,-255.4681 239.6637,-245.0201 249.1201,-235 263.1501,-220.1338 861.0952,-194.6682 1068.3013,-186.2738"/>
<polygon fill="#191970" stroke="#191970" points="1068.6061,-189.7644 1078.4566,-185.8633 1068.3234,-182.7701 1068.6061,-189.7644"/>
</g>
<!-- Node87&#45;&gt;Node7 -->
<g id="edge122" class="edge">
<title>Node87&#45;&gt;Node7</title>
<path fill="none" stroke="#191970" d="M449.2695,-309.0531C353.5443,-299.9886 221.9592,-284.3868 206.1201,-266 95.5481,-137.6421 430.1883,-46.4279 548.9675,-18.771"/>
<polygon fill="#191970" stroke="#191970" points="549.8242,-22.1655 558.7868,-16.5154 548.257,-15.3432 549.8242,-22.1655"/>
</g>
<!-- Node87&#45;&gt;Node14 -->
<g id="edge123" class="edge">
<title>Node87&#45;&gt;Node14</title>
<path fill="none" stroke="#191970" d="M650.8648,-314.8788C830.8718,-309.5199 1200.6289,-295.2649 1326.1201,-266 1361.2462,-257.8085 1365.8235,-242.4218 1401.1201,-235 1574.7028,-198.5009 2820.2927,-212.9708 2997.1201,-199 3022.0448,-197.0307 3049.8509,-193.2814 3071.7614,-189.9636"/>
<polygon fill="#191970" stroke="#191970" points="3072.345,-193.4151 3081.6929,-188.4286 3071.2756,-186.4972 3072.345,-193.4151"/>
</g>
<!-- Node87&#45;&gt;Node15 -->
<g id="edge126" class="edge">
<title>Node87&#45;&gt;Node15</title>
<path fill="none" stroke="#191970" d="M579.4738,-302.292C645.4604,-269.1346 811.4668,-191.4313 961.1201,-168 1265.2961,-120.375 2038.3509,-140.3225 2346.1201,-132 2464.4353,-128.8006 2604.8625,-124.7945 2668.1781,-122.9771"/>
<polygon fill="#191970" stroke="#191970" points="2668.4779,-126.47 2678.3733,-122.6842 2668.2769,-119.4729 2668.4779,-126.47"/>
</g>
<!-- Node87&#45;&gt;Node63 -->
<g id="edge121" class="edge">
<title>Node87&#45;&gt;Node63</title>
<path fill="none" stroke="#191970" d="M449.3455,-310.315C365.7706,-303.0536 244.2201,-289.4707 140.1201,-266 136.4689,-265.1768 132.6993,-264.1849 128.9575,-263.1056"/>
<polygon fill="#191970" stroke="#191970" points="129.8048,-259.7043 119.2174,-260.1003 127.7409,-266.3931 129.8048,-259.7043"/>
</g>
<!-- Node87&#45;&gt;Node80 -->
<g id="edge129" class="edge">
<title>Node87&#45;&gt;Node80</title>
<path fill="none" stroke="#191970" d="M614.3041,-302.4639C666.1197,-290.3253 738.013,-273.4831 785.7429,-262.3016"/>
<polygon fill="#191970" stroke="#191970" points="786.6073,-265.694 795.5453,-260.0053 785.0106,-258.8785 786.6073,-265.694"/>
</g>
<!-- Node88 -->
<g id="node45" class="node">
<title>Node88</title>
<polygon fill="#ffffff" stroke="#bfbfbf" points="258.6201,-241 258.6201,-260 323.6201,-260 323.6201,-241 258.6201,-241"/>
<text text-anchor="middle" x="291.1201" y="-248" font-family="Helvetica,sans-Serif" font-size="10.00" fill="#000000">typeindex</text>
</g>
<!-- Node87&#45;&gt;Node88 -->
<g id="edge124" class="edge">
<title>Node87&#45;&gt;Node88</title>
<path fill="none" stroke="#191970" d="M475.8216,-302.4483C433.3717,-293.2277 379.351,-280.4403 332.1201,-266 329.5481,-265.2136 326.9047,-264.3489 324.2588,-263.4426"/>
<polygon fill="#191970" stroke="#191970" points="325.3827,-260.1274 314.7882,-260.043 323.0177,-266.7158 325.3827,-260.1274"/>
</g>
<!-- Node89 -->
<g id="node46" class="node">
<title>Node89</title>
<polygon fill="#ffffff" stroke="#bfbfbf" points="341.6201,-241 341.6201,-260 434.6201,-260 434.6201,-241 341.6201,-241"/>
<text text-anchor="middle" x="388.1201" y="-248" font-family="Helvetica,sans-Serif" font-size="10.00" fill="#000000">unordered_map</text>
</g>
<!-- Node87&#45;&gt;Node89 -->
<g id="edge125" class="edge">
<title>Node87&#45;&gt;Node89</title>
<path fill="none" stroke="#191970" d="M513.7642,-302.4639C485.848,-290.9183 447.6433,-275.1176 420.7131,-263.9798"/>
<polygon fill="#191970" stroke="#191970" points="421.9201,-260.6915 411.3415,-260.1039 419.2448,-267.1601 421.9201,-260.6915"/>
</g>
<!-- Node90 -->
<g id="node47" class="node">
<title>Node90</title>
<g id="a_node47"><a xlink:href="Singleton_8hpp.html" target="_top" xlink:title="Core/Utils/Singleton.hpp">
<polygon fill="#ffffff" stroke="#000000" points="551.1201,-174 551.1201,-193 685.1201,-193 685.1201,-174 551.1201,-174"/>
<text text-anchor="middle" x="618.1201" y="-181" font-family="Helvetica,sans-Serif" font-size="10.00" fill="#000000">Core/Utils/Singleton.hpp</text>
</a>
</g>
</g>
<!-- Node87&#45;&gt;Node90 -->
<g id="edge127" class="edge">
<title>Node87&#45;&gt;Node90</title>
<path fill="none" stroke="#191970" d="M449.5781,-308.5901C356.8626,-299.3311 231.3266,-283.7309 216.1201,-266 207.1508,-255.5416 207.0178,-245.3428 216.1201,-235 237.194,-211.0542 430.1225,-195.1916 540.8634,-187.976"/>
<polygon fill="#191970" stroke="#191970" points="541.2319,-191.4596 550.9868,-187.3255 540.7829,-184.474 541.2319,-191.4596"/>
</g>
<!-- Node91 -->
<g id="node48" class="node">
<title>Node91</title>
<g id="a_node48"><a xlink:href="ComponentMessenger_8inl.html" target="_top" xlink:title="Engine/Managers/Component\lMessenger/ComponentMessenger.inl">
<polygon fill="#ffffff" stroke="#ff0000" points="452.6201,-235.5 452.6201,-265.5 647.6201,-265.5 647.6201,-235.5 452.6201,-235.5"/>
<text text-anchor="start" x="460.6201" y="-253.5" font-family="Helvetica,sans-Serif" font-size="10.00" fill="#000000">Engine/Managers/Component</text>
<text text-anchor="middle" x="550.1201" y="-242.5" font-family="Helvetica,sans-Serif" font-size="10.00" fill="#000000">Messenger/ComponentMessenger.inl</text>
</a>
</g>
</g>
<!-- Node87&#45;&gt;Node91 -->
<g id="edge130" class="edge">
<title>Node87&#45;&gt;Node91</title>
<path fill="none" stroke="#191970" d="M544.3593,-302.2967C543.4096,-294.4156 543.1438,-284.5857 543.5618,-275.6135"/>
<polygon fill="#191970" stroke="#191970" points="547.0505,-275.8924 544.3666,-265.6432 540.0732,-275.3291 547.0505,-275.8924"/>
</g>
<!-- Node90&#45;&gt;Node18 -->
<g id="edge128" class="edge">
<title>Node90&#45;&gt;Node18</title>
<path fill="none" stroke="#191970" d="M661.2246,-173.9254C673.4165,-171.5794 686.7377,-169.3551 699.1201,-168 1004.0647,-134.6267 1977.6464,-124.5269 2228.6375,-122.4464"/>
<polygon fill="#191970" stroke="#191970" points="2229.0305,-125.9434 2239.0016,-122.3617 2228.9732,-118.9437 2229.0305,-125.9434"/>
</g>
<!-- Node91&#45;&gt;Node87 -->
<g id="edge131" class="edge">
<title>Node91&#45;&gt;Node87</title>
<path fill="none" stroke="#191970" d="M555.8737,-265.6432C556.8269,-273.5143 557.0962,-283.3414 556.6817,-292.3179"/>
<polygon fill="#191970" stroke="#191970" points="553.1921,-292.0487 555.8809,-302.2967 560.1697,-292.6087 553.1921,-292.0487"/>
</g>
<!-- Node117&#45;&gt;Node3 -->
<g id="edge135" class="edge">
<title>Node117&#45;&gt;Node3</title>
<path fill="none" stroke="#191970" d="M1819.8234,-244.0758C1674.9965,-231.2065 1350.9805,-202.4147 1208.0934,-189.7178"/>
<polygon fill="#191970" stroke="#191970" points="1207.9826,-186.1942 1197.7121,-188.7953 1207.363,-193.1668 1207.9826,-186.1942"/>
</g>
<!-- Node117&#45;&gt;Node14 -->
<g id="edge139" class="edge">
<title>Node117&#45;&gt;Node14</title>
<path fill="none" stroke="#191970" d="M1956.5419,-240.9974C1974.2001,-238.6963 1993.3682,-236.477 2011.1201,-235 2448.1244,-198.6412 2560.2196,-236.5852 2997.1201,-199 3022.0304,-196.857 3049.8363,-193.1039 3071.7502,-189.8275"/>
<polygon fill="#191970" stroke="#191970" points="3072.3244,-193.2805 3081.6836,-188.3151 3071.2706,-186.3603 3072.3244,-193.2805"/>
</g>
<!-- Node117&#45;&gt;Node15 -->
<g id="edge142" class="edge">
<title>Node117&#45;&gt;Node15</title>
<path fill="none" stroke="#191970" d="M1919.4938,-240.9042C1970.7296,-223.3639 2084.9054,-186.2554 2184.1201,-168 2364.6711,-134.7788 2585.2049,-125.3109 2668.2982,-122.8214"/>
<polygon fill="#191970" stroke="#191970" points="2668.5215,-126.3166 2678.4177,-122.5329 2668.3219,-119.3194 2668.5215,-126.3166"/>
</g>
<!-- Node117&#45;&gt;Node17 -->
<g id="edge141" class="edge">
<title>Node117&#45;&gt;Node17</title>
<path fill="none" stroke="#191970" d="M1936.3063,-240.9304C2027.765,-221.2522 2235.2725,-177.3106 2307.1201,-168 2582.1579,-132.3585 2917.8562,-124.1727 3021.8598,-122.4361"/>
<polygon fill="#191970" stroke="#191970" points="3022.0749,-125.9332 3032.0182,-122.275 3021.9639,-118.9341 3022.0749,-125.9332"/>
</g>
<!-- Node117&#45;&gt;Node33 -->
<g id="edge136" class="edge">
<title>Node117&#45;&gt;Node33</title>
<path fill="none" stroke="#191970" d="M1875.0703,-240.9005C1855.1878,-229.7062 1822.1096,-211.0823 1799.0421,-198.0947"/>
<polygon fill="#191970" stroke="#191970" points="1800.5693,-194.938 1790.1383,-193.0817 1797.135,-201.0376 1800.5693,-194.938"/>
</g>
<!-- Node117&#45;&gt;Node22 -->
<g id="edge138" class="edge">
<title>Node117&#45;&gt;Node22</title>
<path fill="none" stroke="#191970" d="M1955.1208,-240.9717C2052.3675,-226.2639 2235.2103,-198.6105 2306.0499,-187.8966"/>
<polygon fill="#191970" stroke="#191970" points="2306.6831,-191.3407 2316.0472,-186.3846 2305.6363,-184.4195 2306.6831,-191.3407"/>
</g>
<!-- Node117&#45;&gt;Node90 -->
<g id="edge137" class="edge">
<title>Node117&#45;&gt;Node90</title>
<path fill="none" stroke="#191970" d="M1819.9741,-246.7058C1597.7047,-235.0166 924.5882,-199.6172 695.4579,-187.5672"/>
<polygon fill="#191970" stroke="#191970" points="695.381,-184.0584 685.211,-187.0283 695.0133,-191.0488 695.381,-184.0584"/>
</g>
<!-- Node118 -->
<g id="node50" class="node">
<title>Node118</title>
<polygon fill="#ffffff" stroke="#bfbfbf" points="1870.6201,-174 1870.6201,-193 1913.6201,-193 1913.6201,-174 1870.6201,-174"/>
<text text-anchor="middle" x="1892.1201" y="-181" font-family="Helvetica,sans-Serif" font-size="10.00" fill="#000000">stack</text>
</g>
<!-- Node117&#45;&gt;Node118 -->
<g id="edge140" class="edge">
<title>Node117&#45;&gt;Node118</title>
<path fill="none" stroke="#191970" d="M1892.1201,-240.9005C1892.1201,-231.149 1892.1201,-215.7597 1892.1201,-203.3695"/>
<polygon fill="#191970" stroke="#191970" points="1895.6202,-203.0816 1892.1201,-193.0817 1888.6202,-203.0817 1895.6202,-203.0816"/>
</g>
</g>
</svg>
