<?xml version="1.0" encoding="UTF-8" standalone="no"?>
<!DOCTYPE svg PUBLIC "-//W3C//DTD SVG 1.1//EN"
 "http://www.w3.org/Graphics/SVG/1.1/DTD/svg11.dtd">
<!-- Generated by graphviz version 2.40.1 (20161225.0304)
 -->
<!-- Title: src/Core/Animation/HandleArray.hpp Pages: 1 -->
<!--zoomable 307 -->
<svg id="main" version="1.1" xmlns="http://www.w3.org/2000/svg" xmlns:xlink="http://www.w3.org/1999/xlink" xml:space="preserve" onload="init(evt)">
<style type="text/css"><![CDATA[
.edge:hover path { stroke: red; }
.edge:hover polygon { stroke: red; fill: red; }
]]></style>
<script type="text/javascript"><![CDATA[
var edges = document.getElementsByTagName('g');
if (edges && edges.length) {
  for (var i=0;i<edges.length;i++) {
    if (edges[i].id.substr(0,4)=='edge') {
      edges[i].setAttribute('class','edge');
    }
  }
}
]]></script>
        <defs>
                <circle id="rim" cx="0" cy="0" r="7"/>
                <circle id="rim2" cx="0" cy="0" r="3.5"/>
                <g id="zoomPlus">
                        <use xlink:href="#rim" fill="#404040">
                                <set attributeName="fill" to="#808080" begin="zoomplus.mouseover" end="zoomplus.mouseout"/>
                        </use>
                        <path d="M-4,0h8M0,-4v8" fill="none" stroke="white" stroke-width="1.5" pointer-events="none"/>
                </g>
                <g id="zoomMin">
                        <use xlink:href="#rim" fill="#404040">
                                <set attributeName="fill" to="#808080" begin="zoomminus.mouseover" end="zoomminus.mouseout"/>
                        </use>
                        <path d="M-4,0h8" fill="none" stroke="white" stroke-width="1.5" pointer-events="none"/>
                </g>
                <g id="dirArrow">
                        <path fill="none" stroke="white" stroke-width="1.5" d="M0,-3.0v7 M-2.5,-0.5L0,-3.0L2.5,-0.5"/>
                </g>
               <g id="resetDef">
                       <use xlink:href="#rim2" fill="#404040">
                               <set attributeName="fill" to="#808080" begin="reset.mouseover" end="reset.mouseout"/>
                       </use>
               </g>
        </defs>

<script type="text/javascript">
var viewWidth = 881;
var viewHeight = 307;
var sectionId = 'dynsection-1';
</script>
<script xlink:href="svgpan.js"/>
<svg id="graph" class="graph">
<g id="viewport">
<title>src/Core/Animation/HandleArray.hpp</title>
<polygon fill="#ffffff" stroke="transparent" points="-4,4 -4,-303 876.5,-303 876.5,4 -4,4"/>
<!-- Node17 -->
<g id="node1" class="node">
<title>Node17</title>
<polygon fill="#bfbfbf" stroke="#000000" points="128,-268.5 128,-298.5 238,-298.5 238,-268.5 128,-268.5"/>
<text text-anchor="start" x="136" y="-286.5" font-family="Helvetica,sans-Serif" font-size="10.00" fill="#000000">src/Core/Animation</text>
<text text-anchor="middle" x="183" y="-275.5" font-family="Helvetica,sans-Serif" font-size="10.00" fill="#000000">/HandleArray.hpp</text>
</g>
<!-- Node18 -->
<g id="node2" class="node">
<title>Node18</title>
<g id="a_node2"><a xlink:href="Cage_8hpp.html" target="_top" xlink:title="src/Core/Animation\l/Cage.hpp">
<polygon fill="#ffffff" stroke="#000000" points="0,-201.5 0,-231.5 110,-231.5 110,-201.5 0,-201.5"/>
<text text-anchor="start" x="8" y="-219.5" font-family="Helvetica,sans-Serif" font-size="10.00" fill="#000000">src/Core/Animation</text>
<text text-anchor="middle" x="55" y="-208.5" font-family="Helvetica,sans-Serif" font-size="10.00" fill="#000000">/Cage.hpp</text>
</a>
</g>
</g>
<!-- Node17&#45;&gt;Node18 -->
<g id="edge1" class="edge">
<title>Node17&#45;&gt;Node18</title>
<path fill="none" stroke="#191970" d="M145.3151,-263.7743C125.7505,-253.5335 102.2132,-241.2132 84.0727,-231.7177"/>
<polygon fill="#191970" stroke="#191970" points="143.7915,-266.9272 154.2743,-268.4639 147.0378,-260.7255 143.7915,-266.9272"/>
</g>
<!-- Node20 -->
<g id="node4" class="node">
<title>Node20</title>
<g id="a_node4"><a xlink:href="HandleArray_8inl.html" target="_top" xlink:title="src/Core/Animation\l/HandleArray.inl">
<polygon fill="#ffffff" stroke="#000000" points="128,-201.5 128,-231.5 238,-231.5 238,-201.5 128,-201.5"/>
<text text-anchor="start" x="136" y="-219.5" font-family="Helvetica,sans-Serif" font-size="10.00" fill="#000000">src/Core/Animation</text>
<text text-anchor="middle" x="183" y="-208.5" font-family="Helvetica,sans-Serif" font-size="10.00" fill="#000000">/HandleArray.inl</text>
</a>
</g>
</g>
<!-- Node17&#45;&gt;Node20 -->
<g id="edge3" class="edge">
<title>Node17&#45;&gt;Node20</title>
<path fill="none" stroke="#191970" d="M176.4384,-258.3179C176.0239,-249.3414 176.2933,-239.5143 177.2464,-231.6432"/>
<polygon fill="#191970" stroke="#191970" points="172.9504,-258.6087 177.2392,-268.2967 179.928,-258.0487 172.9504,-258.6087"/>
</g>
<!-- Node21 -->
<g id="node5" class="node">
<title>Node21</title>
<g id="a_node5"><a xlink:href="HandleArray_8cpp.html" target="_top" xlink:title="src/Core/Animation\l/HandleArray.cpp">
<polygon fill="#ffffff" stroke="#000000" points="256,-201.5 256,-231.5 366,-231.5 366,-201.5 256,-201.5"/>
<text text-anchor="start" x="264" y="-219.5" font-family="Helvetica,sans-Serif" font-size="10.00" fill="#000000">src/Core/Animation</text>
<text text-anchor="middle" x="311" y="-208.5" font-family="Helvetica,sans-Serif" font-size="10.00" fill="#000000">/HandleArray.cpp</text>
</a>
</g>
</g>
<!-- Node17&#45;&gt;Node21 -->
<g id="edge5" class="edge">
<title>Node17&#45;&gt;Node21</title>
<path fill="none" stroke="#191970" d="M220.6849,-263.7743C240.2495,-253.5335 263.7868,-241.2132 281.9273,-231.7177"/>
<polygon fill="#191970" stroke="#191970" points="218.9622,-260.7255 211.7257,-268.4639 222.2085,-266.9272 218.9622,-260.7255"/>
</g>
<!-- Node22 -->
<g id="node6" class="node">
<title>Node22</title>
<g id="a_node6"><a xlink:href="Skeleton_8hpp.html" target="_top" xlink:title="src/Core/Animation\l/Skeleton.hpp">
<polygon fill="#ffffff" stroke="#000000" points="384,-201.5 384,-231.5 494,-231.5 494,-201.5 384,-201.5"/>
<text text-anchor="start" x="392" y="-219.5" font-family="Helvetica,sans-Serif" font-size="10.00" fill="#000000">src/Core/Animation</text>
<text text-anchor="middle" x="439" y="-208.5" font-family="Helvetica,sans-Serif" font-size="10.00" fill="#000000">/Skeleton.hpp</text>
</a>
</g>
</g>
<!-- Node17&#45;&gt;Node22 -->
<g id="edge6" class="edge">
<title>Node17&#45;&gt;Node22</title>
<path fill="none" stroke="#191970" d="M248.0806,-266.4672C290.0448,-255.4844 344.0187,-241.3584 383.866,-230.9296"/>
<polygon fill="#191970" stroke="#191970" points="247.021,-263.1265 238.233,-269.0445 248.7934,-269.8985 247.021,-263.1265"/>
</g>
<!-- Node19 -->
<g id="node3" class="node">
<title>Node19</title>
<g id="a_node3"><a xlink:href="Cage_8cpp.html" target="_top" xlink:title="src/Core/Animation\l/Cage.cpp">
<polygon fill="#ffffff" stroke="#000000" points="0,-134.5 0,-164.5 110,-164.5 110,-134.5 0,-134.5"/>
<text text-anchor="start" x="8" y="-152.5" font-family="Helvetica,sans-Serif" font-size="10.00" fill="#000000">src/Core/Animation</text>
<text text-anchor="middle" x="55" y="-141.5" font-family="Helvetica,sans-Serif" font-size="10.00" fill="#000000">/Cage.cpp</text>
</a>
</g>
</g>
<!-- Node18&#45;&gt;Node19 -->
<g id="edge2" class="edge">
<title>Node18&#45;&gt;Node19</title>
<path fill="none" stroke="#191970" d="M55,-191.0249C55,-182.128 55,-172.4287 55,-164.6432"/>
<polygon fill="#191970" stroke="#191970" points="51.5001,-191.2966 55,-201.2967 58.5001,-191.2967 51.5001,-191.2966"/>
</g>
<!-- Node20&#45;&gt;Node17 -->
<g id="edge4" class="edge">
<title>Node20&#45;&gt;Node17</title>
<path fill="none" stroke="#191970" d="M189.5584,-241.6135C189.9764,-250.5857 189.7105,-260.4156 188.7608,-268.2967"/>
<polygon fill="#191970" stroke="#191970" points="193.0469,-241.3291 188.7536,-231.6432 186.0696,-241.8924 193.0469,-241.3291"/>
</g>
<!-- Node23 -->
<g id="node7" class="node">
<title>Node23</title>
<g id="a_node7"><a xlink:href="SkinningData_8hpp.html" target="_top" xlink:title="src/Core/Animation\l/SkinningData.hpp">
<polygon fill="#ffffff" stroke="#000000" points="192,-134.5 192,-164.5 302,-164.5 302,-134.5 192,-134.5"/>
<text text-anchor="start" x="200" y="-152.5" font-family="Helvetica,sans-Serif" font-size="10.00" fill="#000000">src/Core/Animation</text>
<text text-anchor="middle" x="247" y="-141.5" font-family="Helvetica,sans-Serif" font-size="10.00" fill="#000000">/SkinningData.hpp</text>
</a>
</g>
</g>
<!-- Node22&#45;&gt;Node23 -->
<g id="edge7" class="edge">
<title>Node22&#45;&gt;Node23</title>
<path fill="none" stroke="#191970" d="M386.384,-198.1392C356.1917,-187.6033 318.7492,-174.5375 290.2765,-164.6017"/>
<polygon fill="#191970" stroke="#191970" points="385.3166,-201.4737 395.9115,-201.4639 387.623,-194.8645 385.3166,-201.4737"/>
</g>
<!-- Node26 -->
<g id="node10" class="node">
<title>Node26</title>
<g id="a_node10"><a xlink:href="Skeleton_8cpp.html" target="_top" xlink:title="src/Core/Animation\l/Skeleton.cpp">
<polygon fill="#ffffff" stroke="#000000" points="320,-134.5 320,-164.5 430,-164.5 430,-134.5 320,-134.5"/>
<text text-anchor="start" x="328" y="-152.5" font-family="Helvetica,sans-Serif" font-size="10.00" fill="#000000">src/Core/Animation</text>
<text text-anchor="middle" x="375" y="-141.5" font-family="Helvetica,sans-Serif" font-size="10.00" fill="#000000">/Skeleton.cpp</text>
</a>
</g>
</g>
<!-- Node22&#45;&gt;Node26 -->
<g id="edge10" class="edge">
<title>Node22&#45;&gt;Node26</title>
<path fill="none" stroke="#191970" d="M417.4361,-193.9253C408.2254,-184.2828 397.7193,-173.2843 389.4651,-164.6432"/>
<polygon fill="#191970" stroke="#191970" points="415.0392,-196.4831 424.4774,-201.2967 420.101,-191.648 415.0392,-196.4831"/>
</g>
<!-- Node27 -->
<g id="node11" class="node">
<title>Node27</title>
<g id="a_node11"><a xlink:href="StretchableTwistableBoneSkinning_8hpp.html" target="_top" xlink:title="src/Core/Animation\l/StretchableTwistableBoneSkinning.hpp">
<polygon fill="#ffffff" stroke="#000000" points="448.5,-134.5 448.5,-164.5 657.5,-164.5 657.5,-134.5 448.5,-134.5"/>
<text text-anchor="start" x="456.5" y="-152.5" font-family="Helvetica,sans-Serif" font-size="10.00" fill="#000000">src/Core/Animation</text>
<text text-anchor="middle" x="553" y="-141.5" font-family="Helvetica,sans-Serif" font-size="10.00" fill="#000000">/StretchableTwistableBoneSkinning.hpp</text>
</a>
</g>
</g>
<!-- Node22&#45;&gt;Node27 -->
<g id="edge11" class="edge">
<title>Node22&#45;&gt;Node27</title>
<path fill="none" stroke="#191970" d="M473.2747,-196.3561C490.5561,-186.1995 511.17,-174.0843 527.1071,-164.7177"/>
<polygon fill="#191970" stroke="#191970" points="471.4317,-193.3795 464.5838,-201.4639 474.9786,-199.4144 471.4317,-193.3795"/>
</g>
<!-- Node29 -->
<g id="node13" class="node">
<title>Node29</title>
<g id="a_node13"><a xlink:href="HandleToSkeleton_8cpp.html" target="_top" xlink:title="src/Core/Asset/HandleToSkeleton.cpp">
<polygon fill="#ffffff" stroke="#000000" points="675.5,-140 675.5,-159 872.5,-159 872.5,-140 675.5,-140"/>
<text text-anchor="middle" x="774" y="-147" font-family="Helvetica,sans-Serif" font-size="10.00" fill="#000000">src/Core/Asset/HandleToSkeleton.cpp</text>
</a>
</g>
</g>
<!-- Node22&#45;&gt;Node29 -->
<g id="edge13" class="edge">
<title>Node22&#45;&gt;Node29</title>
<path fill="none" stroke="#191970" d="M504.494,-203.4012C569.7508,-190.3498 668.3675,-170.6265 726.4666,-159.0067"/>
<polygon fill="#191970" stroke="#191970" points="503.4378,-200.043 494.3184,-205.4363 504.8107,-206.9071 503.4378,-200.043"/>
</g>
<!-- Node24 -->
<g id="node8" class="node">
<title>Node24</title>
<g id="a_node8"><a xlink:href="RotationCenterSkinning_8hpp.html" target="_top" xlink:title="src/Core/Animation\l/RotationCenterSkinning.hpp">
<polygon fill="#ffffff" stroke="#000000" points="169.5,-67.5 169.5,-97.5 324.5,-97.5 324.5,-67.5 169.5,-67.5"/>
<text text-anchor="start" x="177.5" y="-85.5" font-family="Helvetica,sans-Serif" font-size="10.00" fill="#000000">src/Core/Animation</text>
<text text-anchor="middle" x="247" y="-74.5" font-family="Helvetica,sans-Serif" font-size="10.00" fill="#000000">/RotationCenterSkinning.hpp</text>
</a>
</g>
</g>
<!-- Node23&#45;&gt;Node24 -->
<g id="edge8" class="edge">
<title>Node23&#45;&gt;Node24</title>
<path fill="none" stroke="#191970" d="M247,-124.0249C247,-115.128 247,-105.4287 247,-97.6432"/>
<polygon fill="#191970" stroke="#191970" points="243.5001,-124.2966 247,-134.2967 250.5001,-124.2967 243.5001,-124.2966"/>
</g>
<!-- Node25 -->
<g id="node9" class="node">
<title>Node25</title>
<g id="a_node9"><a xlink:href="RotationCenterSkinning_8cpp.html" target="_top" xlink:title="src/Core/Animation\l/RotationCenterSkinning.cpp">
<polygon fill="#ffffff" stroke="#000000" points="169.5,-.5 169.5,-30.5 324.5,-30.5 324.5,-.5 169.5,-.5"/>
<text text-anchor="start" x="177.5" y="-18.5" font-family="Helvetica,sans-Serif" font-size="10.00" fill="#000000">src/Core/Animation</text>
<text text-anchor="middle" x="247" y="-7.5" font-family="Helvetica,sans-Serif" font-size="10.00" fill="#000000">/RotationCenterSkinning.cpp</text>
</a>
</g>
</g>
<!-- Node24&#45;&gt;Node25 -->
<g id="edge9" class="edge">
<title>Node24&#45;&gt;Node25</title>
<path fill="none" stroke="#191970" d="M247,-57.0249C247,-48.128 247,-38.4287 247,-30.6432"/>
<polygon fill="#191970" stroke="#191970" points="243.5001,-57.2966 247,-67.2967 250.5001,-57.2967 243.5001,-57.2966"/>
</g>
<!-- Node28 -->
<g id="node12" class="node">
<title>Node28</title>
<g id="a_node12"><a xlink:href="StretchableTwistableBoneSkinning_8cpp.html" target="_top" xlink:title="src/Core/Animation\l/StretchableTwistableBoneSkinning.cpp">
<polygon fill="#ffffff" stroke="#000000" points="449,-67.5 449,-97.5 657,-97.5 657,-67.5 449,-67.5"/>
<text text-anchor="start" x="457" y="-85.5" font-family="Helvetica,sans-Serif" font-size="10.00" fill="#000000">src/Core/Animation</text>
<text text-anchor="middle" x="553" y="-74.5" font-family="Helvetica,sans-Serif" font-size="10.00" fill="#000000">/StretchableTwistableBoneSkinning.cpp</text>
</a>
</g>
</g>
<!-- Node27&#45;&gt;Node28 -->
<g id="edge12" class="edge">
<title>Node27&#45;&gt;Node28</title>
<path fill="none" stroke="#191970" d="M553,-124.0249C553,-115.128 553,-105.4287 553,-97.6432"/>
<polygon fill="#191970" stroke="#191970" points="549.5001,-124.2966 553,-134.2967 556.5001,-124.2967 549.5001,-124.2966"/>
</g>
</g>
</svg>
        <g id="navigator" transform="translate(0 0)" fill="#404254">
                <rect fill="#f2f5e9" fill-opacity="0.5" stroke="#606060" stroke-width=".5" x="0" y="0" width="60" height="60"/>
                <use id="zoomplus" xlink:href="#zoomPlus" x="17" y="9" onmousedown="handleZoom(evt,'in')"/>
                <use id="zoomminus" xlink:href="#zoomMin" x="42" y="9" onmousedown="handleZoom(evt,'out')"/>
                <use id="reset" xlink:href="#resetDef" x="30" y="36" onmousedown="handleReset()"/>
                <g id="arrowUp" xlink:href="#dirArrow" transform="translate(30 24)" onmousedown="handlePan(0,-1)">
                  <use xlink:href="#rim" fill="#404040">
                        <set attributeName="fill" to="#808080" begin="arrowUp.mouseover" end="arrowUp.mouseout"/>
                  </use>
                  <path fill="none" stroke="white" stroke-width="1.5" d="M0,-3.0v7 M-2.5,-0.5L0,-3.0L2.5,-0.5"/>
                </g>
                <g id="arrowRight" xlink:href="#dirArrow" transform="rotate(90) translate(36 -43)" onmousedown="handlePan(1,0)">
                  <use xlink:href="#rim" fill="#404040">
                        <set attributeName="fill" to="#808080" begin="arrowRight.mouseover" end="arrowRight.mouseout"/>
                  </use>
                  <path fill="none" stroke="white" stroke-width="1.5" d="M0,-3.0v7 M-2.5,-0.5L0,-3.0L2.5,-0.5"/>
                </g>
                <g id="arrowDown" xlink:href="#dirArrow" transform="rotate(180) translate(-30 -48)" onmousedown="handlePan(0,1)">
                  <use xlink:href="#rim" fill="#404040">
                        <set attributeName="fill" to="#808080" begin="arrowDown.mouseover" end="arrowDown.mouseout"/>
                  </use>
                  <path fill="none" stroke="white" stroke-width="1.5" d="M0,-3.0v7 M-2.5,-0.5L0,-3.0L2.5,-0.5"/>
                </g>
                <g id="arrowLeft" xlink:href="#dirArrow" transform="rotate(270) translate(-36 17)" onmousedown="handlePan(-1,0)">
                  <use xlink:href="#rim" fill="#404040">
                        <set attributeName="fill" to="#808080" begin="arrowLeft.mouseover" end="arrowLeft.mouseout"/>
                  </use>
                  <path fill="none" stroke="white" stroke-width="1.5" d="M0,-3.0v7 M-2.5,-0.5L0,-3.0L2.5,-0.5"/>
                </g>
        </g>
        <svg viewBox="0 0 15 15" width="100%" height="30px" preserveAspectRatio="xMaxYMin meet">
         <g id="arrow_out" transform="scale(0.3 0.3)">
          <a xlink:href="HandleArray_8hpp__dep__incl_org.svg" target="_base">
           <rect id="button" ry="5" rx="5" y="6" x="6" height="38" width="38"
                fill="#f2f5e9" fill-opacity="0.5" stroke="#606060" stroke-width="1.0"/>
           <path id="arrow"
             d="M 11.500037,31.436501 C 11.940474,20.09759 22.043105,11.32322 32.158766,21.979434 L 37.068811,17.246167 C 37.068811,17.246167 37.088388,32 37.088388,32 L 22.160133,31.978069 C 22.160133,31.978069 26.997745,27.140456 26.997745,27.140456 C 18.528582,18.264221 13.291696,25.230495 11.500037,31.436501 z"
             style="fill:#404040;"/>
          </a>
         </g>
        </svg>
</svg>
