<?xml version="1.0" encoding="UTF-8" standalone="no"?>
<!DOCTYPE svg PUBLIC "-//W3C//DTD SVG 1.1//EN"
 "http://www.w3.org/Graphics/SVG/1.1/DTD/svg11.dtd">
<!-- Generated by graphviz version 2.40.1 (20161225.0304)
 -->
<!-- Title: Graphical Class Hierarchy Pages: 1 -->
<svg width="309pt" height="181pt"
 viewBox="0.00 0.00 309.00 181.00" xmlns="http://www.w3.org/2000/svg" xmlns:xlink="http://www.w3.org/1999/xlink">
<g id="graph0" class="graph" transform="scale(1 1) rotate(0) translate(4 177)">
<title>Graphical Class Hierarchy</title>
<polygon fill="#ffffff" stroke="transparent" points="-4,4 -4,-177 305,-177 305,4 -4,4"/>
<!-- Node156 -->
<g id="node1" class="node">
<title>Node156</title>
<g id="a_node1"><a xlink:title="STL class. ">
<polygon fill="#ffffff" stroke="#bfbfbf" points="0,-88 0,-107 101,-107 101,-88 0,-88"/>
<text text-anchor="middle" x="50.5" y="-95" font-family="Helvetica,sans-Serif" font-size="10.00" fill="#000000">std::map&lt; K, T &gt;</text>
</a>
</g>
</g>
<!-- Node0 -->
<g id="node2" class="node">
<title>Node0</title>
<g id="a_node2"><a xlink:href="classRa_1_1Engine_1_1RenderParameters_1_1UniformBindableSet.html" target="_top" xlink:title="Ra::Engine::RenderParameters\l::UniformBindableSet\&lt; T \&gt;">
<polygon fill="#ffffff" stroke="#000000" points="137,-142.5 137,-172.5 301,-172.5 301,-142.5 137,-142.5"/>
<text text-anchor="start" x="145" y="-160.5" font-family="Helvetica,sans-Serif" font-size="10.00" fill="#000000">Ra::Engine::RenderParameters</text>
<text text-anchor="middle" x="219" y="-149.5" font-family="Helvetica,sans-Serif" font-size="10.00" fill="#000000">::UniformBindableSet&lt; T &gt;</text>
</a>
</g>
</g>
<!-- Node156&#45;&gt;Node0 -->
<g id="edge1" class="edge">
<title>Node156&#45;&gt;Node0</title>
<path fill="none" stroke="#191970" d="M81.1827,-111.2341C97.577,-118.3263 118.2022,-126.8599 137,-133.5 145.8114,-136.6125 155.2521,-139.6466 164.4786,-142.4523"/>
<polygon fill="#191970" stroke="#191970" points="82.1406,-107.8331 71.5759,-107.0344 79.3366,-114.247 82.1406,-107.8331"/>
</g>
<!-- Node158 -->
<g id="node3" class="node">
<title>Node158</title>
<g id="a_node3"><a xlink:href="classRa_1_1Engine_1_1RenderParameters_1_1UniformBindableSet.html" target="_top" xlink:title="Ra::Engine::RenderParameters\l::UniformBindableSet\&lt; Ra\l::Engine::RenderParameters\l::TextureParameter \&gt;">
<polygon fill="#ffffff" stroke="#000000" points="137,-71.5 137,-123.5 301,-123.5 301,-71.5 137,-71.5"/>
<text text-anchor="start" x="145" y="-111.5" font-family="Helvetica,sans-Serif" font-size="10.00" fill="#000000">Ra::Engine::RenderParameters</text>
<text text-anchor="start" x="145" y="-100.5" font-family="Helvetica,sans-Serif" font-size="10.00" fill="#000000">::UniformBindableSet&lt; Ra</text>
<text text-anchor="start" x="145" y="-89.5" font-family="Helvetica,sans-Serif" font-size="10.00" fill="#000000">::Engine::RenderParameters</text>
<text text-anchor="middle" x="219" y="-78.5" font-family="Helvetica,sans-Serif" font-size="10.00" fill="#000000">::TextureParameter &gt;</text>
</a>
</g>
</g>
<!-- Node156&#45;&gt;Node158 -->
<g id="edge2" class="edge">
<title>Node156&#45;&gt;Node158</title>
<path fill="none" stroke="#191970" d="M111.1105,-97.5C119.5131,-97.5 128.257,-97.5 136.9693,-97.5"/>
<polygon fill="#191970" stroke="#191970" points="111.0556,-94.0001 101.0556,-97.5 111.0555,-101.0001 111.0556,-94.0001"/>
</g>
<!-- Node159 -->
<g id="node4" class="node">
<title>Node159</title>
<g id="a_node4"><a xlink:href="classRa_1_1Engine_1_1RenderParameters_1_1UniformBindableSet.html" target="_top" xlink:title="Ra::Engine::RenderParameters\l::UniformBindableSet\&lt; Ra\l::Engine::RenderParameters\l::TParameter \&gt;">
<polygon fill="#ffffff" stroke="#000000" points="137,-.5 137,-52.5 301,-52.5 301,-.5 137,-.5"/>
<text text-anchor="start" x="145" y="-40.5" font-family="Helvetica,sans-Serif" font-size="10.00" fill="#000000">Ra::Engine::RenderParameters</text>
<text text-anchor="start" x="145" y="-29.5" font-family="Helvetica,sans-Serif" font-size="10.00" fill="#000000">::UniformBindableSet&lt; Ra</text>
<text text-anchor="start" x="145" y="-18.5" font-family="Helvetica,sans-Serif" font-size="10.00" fill="#000000">::Engine::RenderParameters</text>
<text text-anchor="middle" x="219" y="-7.5" font-family="Helvetica,sans-Serif" font-size="10.00" fill="#000000">::TParameter &gt;</text>
</a>
</g>
</g>
<!-- Node156&#45;&gt;Node159 -->
<g id="edge3" class="edge">
<title>Node156&#45;&gt;Node159</title>
<path fill="none" stroke="#191970" d="M82.6478,-83.954C103.6967,-75.0848 131.8888,-63.2056 157.1744,-52.5511"/>
<polygon fill="#191970" stroke="#191970" points="81.0809,-80.8162 73.2247,-87.9246 83.7991,-87.2669 81.0809,-80.8162"/>
</g>
</g>
</svg>
