<?xml version="1.0" encoding="UTF-8" standalone="no"?>
<!DOCTYPE svg PUBLIC "-//W3C//DTD SVG 1.1//EN"
 "http://www.w3.org/Graphics/SVG/1.1/DTD/svg11.dtd">
<!-- Generated by graphviz version 2.40.1 (20161225.0304)
 -->
<!-- Title: src/Engine/ItemModel/ItemEntry.hpp Pages: 1 -->
<svg width="794pt" height="285pt"
 viewBox="0.00 0.00 793.50 285.00" xmlns="http://www.w3.org/2000/svg" xmlns:xlink="http://www.w3.org/1999/xlink">
<g id="graph0" class="graph" transform="scale(1 1) rotate(0) translate(4 281)">
<title>src/Engine/ItemModel/ItemEntry.hpp</title>
<polygon fill="#ffffff" stroke="transparent" points="-4,4 -4,-281 789.5,-281 789.5,4 -4,4"/>
<!-- Node0 -->
<g id="node1" class="node">
<title>Node0</title>
<polygon fill="#bfbfbf" stroke="#000000" points="450,-246.5 450,-276.5 572,-276.5 572,-246.5 450,-246.5"/>
<text text-anchor="start" x="458" y="-264.5" font-family="Helvetica,sans-Serif" font-size="10.00" fill="#000000">src/Engine/ItemModel</text>
<text text-anchor="middle" x="511" y="-253.5" font-family="Helvetica,sans-Serif" font-size="10.00" fill="#000000">/ItemEntry.hpp</text>
</g>
<!-- Node1 -->
<g id="node2" class="node">
<title>Node1</title>
<g id="a_node2"><a xlink:href="RaEngine_8hpp.html" target="_top" xlink:title="Engine/RaEngine.hpp">
<polygon fill="#ffffff" stroke="#000000" points="217.5,-190.5 217.5,-209.5 336.5,-209.5 336.5,-190.5 217.5,-190.5"/>
<text text-anchor="middle" x="277" y="-197.5" font-family="Helvetica,sans-Serif" font-size="10.00" fill="#000000">Engine/RaEngine.hpp</text>
</a>
</g>
</g>
<!-- Node0&#45;&gt;Node1 -->
<g id="edge1" class="edge">
<title>Node0&#45;&gt;Node1</title>
<path fill="none" stroke="#191970" d="M453.7572,-246.4554C413.6862,-235.9239 360.8321,-222.0328 323.3901,-212.1923"/>
<polygon fill="#191970" stroke="#191970" points="323.8229,-208.6872 313.2617,-209.5303 322.0436,-215.4573 323.8229,-208.6872"/>
</g>
<!-- Node12 -->
<g id="node13" class="node">
<title>Node12</title>
<g id="a_node13"><a xlink:href="Index_8hpp.html" target="_top" xlink:title="Core/Utils/Index.hpp">
<polygon fill="#ffffff" stroke="#000000" points="355,-190.5 355,-209.5 471,-209.5 471,-190.5 355,-190.5"/>
<text text-anchor="middle" x="413" y="-197.5" font-family="Helvetica,sans-Serif" font-size="10.00" fill="#000000">Core/Utils/Index.hpp</text>
</a>
</g>
</g>
<!-- Node0&#45;&gt;Node12 -->
<g id="edge12" class="edge">
<title>Node0&#45;&gt;Node12</title>
<path fill="none" stroke="#191970" d="M487.0265,-246.4554C471.8224,-236.9141 452.2241,-224.6151 437.0125,-215.0691"/>
<polygon fill="#191970" stroke="#191970" points="438.5172,-211.8813 428.1865,-209.5303 434.7963,-217.8105 438.5172,-211.8813"/>
</g>
<!-- Node16 -->
<g id="node17" class="node">
<title>Node16</title>
<polygon fill="#ffffff" stroke="#bfbfbf" points="489,-190.5 489,-209.5 533,-209.5 533,-190.5 489,-190.5"/>
<text text-anchor="middle" x="511" y="-197.5" font-family="Helvetica,sans-Serif" font-size="10.00" fill="#000000">string</text>
</g>
<!-- Node0&#45;&gt;Node16 -->
<g id="edge18" class="edge">
<title>Node0&#45;&gt;Node16</title>
<path fill="none" stroke="#191970" d="M511,-246.2977C511,-238.3834 511,-228.6043 511,-220.0759"/>
<polygon fill="#191970" stroke="#191970" points="514.5001,-219.8469 511,-209.8469 507.5001,-219.847 514.5001,-219.8469"/>
</g>
<!-- Node17 -->
<g id="node18" class="node">
<title>Node17</title>
<polygon fill="#ffffff" stroke="#bfbfbf" points="551.5,-190.5 551.5,-209.5 598.5,-209.5 598.5,-190.5 551.5,-190.5"/>
<text text-anchor="middle" x="575" y="-197.5" font-family="Helvetica,sans-Serif" font-size="10.00" fill="#000000">vector</text>
</g>
<!-- Node0&#45;&gt;Node17 -->
<g id="edge19" class="edge">
<title>Node0&#45;&gt;Node17</title>
<path fill="none" stroke="#191970" d="M526.8202,-246.2977C536.0742,-237.4052 547.7781,-226.1586 557.333,-216.9769"/>
<polygon fill="#191970" stroke="#191970" points="559.9674,-219.2995 564.7528,-209.8469 555.1172,-214.2521 559.9674,-219.2995"/>
</g>
<!-- Node18 -->
<g id="node19" class="node">
<title>Node18</title>
<g id="a_node19"><a xlink:href="ItemEntry_8inl.html" target="_top" xlink:title="Engine/ItemModel/ItemEntry.inl">
<polygon fill="#ffffff" stroke="#000000" points="616.5,-190.5 616.5,-209.5 785.5,-209.5 785.5,-190.5 616.5,-190.5"/>
<text text-anchor="middle" x="701" y="-197.5" font-family="Helvetica,sans-Serif" font-size="10.00" fill="#000000">Engine/ItemModel/ItemEntry.inl</text>
</a>
</g>
</g>
<!-- Node0&#45;&gt;Node18 -->
<g id="edge20" class="edge">
<title>Node0&#45;&gt;Node18</title>
<path fill="none" stroke="#191970" d="M557.4792,-246.4554C589.4593,-236.104 631.4671,-222.5067 661.7629,-212.7004"/>
<polygon fill="#191970" stroke="#191970" points="663.1206,-215.9398 671.5567,-209.5303 660.9649,-209.28 663.1206,-215.9398"/>
</g>
<!-- Node2 -->
<g id="node3" class="node">
<title>Node2</title>
<g id="a_node3"><a xlink:href="CoreMacros_8hpp.html" target="_top" xlink:title="Core/CoreMacros.hpp">
<polygon fill="#ffffff" stroke="#000000" points="434,-62 434,-81 554,-81 554,-62 434,-62"/>
<text text-anchor="middle" x="494" y="-69" font-family="Helvetica,sans-Serif" font-size="10.00" fill="#000000">Core/CoreMacros.hpp</text>
</a>
</g>
</g>
<!-- Node1&#45;&gt;Node2 -->
<g id="edge2" class="edge">
<title>Node1&#45;&gt;Node2</title>
<path fill="none" stroke="#191970" d="M280.1264,-190.3987C285.9286,-174.0916 299.9162,-141.0047 323,-123 341.3148,-108.715 396.7659,-93.5103 439.6102,-83.3556"/>
<polygon fill="#191970" stroke="#191970" points="440.4268,-86.7592 449.3692,-81.0774 438.8354,-79.9425 440.4268,-86.7592"/>
</g>
<!-- Node8 -->
<g id="node9" class="node">
<title>Node8</title>
<g id="a_node9"><a xlink:href="OpenGL_8hpp.html" target="_top" xlink:title="Engine/Renderer/OpenGL\l/OpenGL.hpp">
<polygon fill="#ffffff" stroke="#000000" points="138.5,-123.5 138.5,-153.5 275.5,-153.5 275.5,-123.5 138.5,-123.5"/>
<text text-anchor="start" x="146.5" y="-141.5" font-family="Helvetica,sans-Serif" font-size="10.00" fill="#000000">Engine/Renderer/OpenGL</text>
<text text-anchor="middle" x="207" y="-130.5" font-family="Helvetica,sans-Serif" font-size="10.00" fill="#000000">/OpenGL.hpp</text>
</a>
</g>
</g>
<!-- Node1&#45;&gt;Node8 -->
<g id="edge8" class="edge">
<title>Node1&#45;&gt;Node8</title>
<path fill="none" stroke="#191970" d="M266.0625,-190.3906C256.9397,-182.3756 243.5897,-170.6466 231.8888,-160.3666"/>
<polygon fill="#191970" stroke="#191970" points="233.9465,-157.5155 224.1239,-153.5446 229.3263,-162.7742 233.9465,-157.5155"/>
</g>
<!-- Node3 -->
<g id="node4" class="node">
<title>Node3</title>
<polygon fill="#ffffff" stroke="#bfbfbf" points="330,-.5 330,-19.5 382,-19.5 382,-.5 330,-.5"/>
<text text-anchor="middle" x="356" y="-7.5" font-family="Helvetica,sans-Serif" font-size="10.00" fill="#000000">cassert</text>
</g>
<!-- Node2&#45;&gt;Node3 -->
<g id="edge3" class="edge">
<title>Node2&#45;&gt;Node3</title>
<path fill="none" stroke="#191970" d="M472.4375,-61.8906C449.4488,-51.6457 412.844,-35.3326 386.8176,-23.7339"/>
<polygon fill="#191970" stroke="#191970" points="387.9698,-20.4156 377.4111,-19.5419 385.1204,-26.8095 387.9698,-20.4156"/>
</g>
<!-- Node4 -->
<g id="node5" class="node">
<title>Node4</title>
<polygon fill="#ffffff" stroke="#bfbfbf" points="400,-.5 400,-19.5 446,-19.5 446,-.5 400,-.5"/>
<text text-anchor="middle" x="423" y="-7.5" font-family="Helvetica,sans-Serif" font-size="10.00" fill="#000000">cstdio</text>
</g>
<!-- Node2&#45;&gt;Node4 -->
<g id="edge4" class="edge">
<title>Node2&#45;&gt;Node4</title>
<path fill="none" stroke="#191970" d="M482.9063,-61.8906C472.0285,-52.4683 455.2252,-37.9134 442.18,-26.6137"/>
<polygon fill="#191970" stroke="#191970" points="444.1004,-23.6466 434.2502,-19.7449 439.5173,-28.9377 444.1004,-23.6466"/>
</g>
<!-- Node5 -->
<g id="node6" class="node">
<title>Node5</title>
<polygon fill="#ffffff" stroke="#bfbfbf" points="464,-.5 464,-19.5 524,-19.5 524,-.5 464,-.5"/>
<text text-anchor="middle" x="494" y="-7.5" font-family="Helvetica,sans-Serif" font-size="10.00" fill="#000000">iostream</text>
</g>
<!-- Node2&#45;&gt;Node5 -->
<g id="edge5" class="edge">
<title>Node2&#45;&gt;Node5</title>
<path fill="none" stroke="#191970" d="M494,-61.8906C494,-53.3657 494,-40.6392 494,-29.9235"/>
<polygon fill="#191970" stroke="#191970" points="497.5001,-29.7448 494,-19.7449 490.5001,-29.7449 497.5001,-29.7448"/>
</g>
<!-- Node6 -->
<g id="node7" class="node">
<title>Node6</title>
<polygon fill="#ffffff" stroke="#bfbfbf" points="542,-.5 542,-19.5 598,-19.5 598,-.5 542,-.5"/>
<text text-anchor="middle" x="570" y="-7.5" font-family="Helvetica,sans-Serif" font-size="10.00" fill="#000000">sstream</text>
</g>
<!-- Node2&#45;&gt;Node6 -->
<g id="edge6" class="edge">
<title>Node2&#45;&gt;Node6</title>
<path fill="none" stroke="#191970" d="M505.875,-61.8906C517.6297,-52.3786 535.8486,-37.6357 549.8672,-26.2917"/>
<polygon fill="#191970" stroke="#191970" points="552.3856,-28.7562 557.9576,-19.7449 547.9822,-23.3146 552.3856,-28.7562"/>
</g>
<!-- Node7 -->
<g id="node8" class="node">
<title>Node7</title>
<polygon fill="#ffffff" stroke="#bfbfbf" points="616,-.5 616,-19.5 664,-19.5 664,-.5 616,-.5"/>
<text text-anchor="middle" x="640" y="-7.5" font-family="Helvetica,sans-Serif" font-size="10.00" fill="#000000">thread</text>
</g>
<!-- Node2&#45;&gt;Node7 -->
<g id="edge7" class="edge">
<title>Node2&#45;&gt;Node7</title>
<path fill="none" stroke="#191970" d="M516.8125,-61.8906C541.3481,-51.5554 580.5442,-35.0447 608.1211,-23.4284"/>
<polygon fill="#191970" stroke="#191970" points="609.4906,-26.6495 617.3477,-19.5419 606.7732,-20.1984 609.4906,-26.6495"/>
</g>
<!-- Node9 -->
<g id="node10" class="node">
<title>Node9</title>
<polygon fill="#ffffff" stroke="#bfbfbf" points="0,-62 0,-81 128,-81 128,-62 0,-62"/>
<text text-anchor="middle" x="64" y="-69" font-family="Helvetica,sans-Serif" font-size="10.00" fill="#000000">glbinding/gl45core/gl.h</text>
</g>
<!-- Node8&#45;&gt;Node9 -->
<g id="edge9" class="edge">
<title>Node8&#45;&gt;Node9</title>
<path fill="none" stroke="#191970" d="M174.908,-123.4639C150.5902,-112.0702 117.4279,-96.5327 93.7138,-85.4219"/>
<polygon fill="#191970" stroke="#191970" points="95.0382,-82.1773 84.4979,-81.1039 92.0683,-88.5161 95.0382,-82.1773"/>
</g>
<!-- Node10 -->
<g id="node11" class="node">
<title>Node10</title>
<polygon fill="#ffffff" stroke="#bfbfbf" points="146,-62 146,-81 268,-81 268,-62 146,-62"/>
<text text-anchor="middle" x="207" y="-69" font-family="Helvetica,sans-Serif" font-size="10.00" fill="#000000">glbinding/gl45ext/gl.h</text>
</g>
<!-- Node8&#45;&gt;Node10 -->
<g id="edge10" class="edge">
<title>Node8&#45;&gt;Node10</title>
<path fill="none" stroke="#191970" d="M207,-123.2967C207,-113.7699 207,-101.3954 207,-91.1306"/>
<polygon fill="#191970" stroke="#191970" points="210.5001,-91.0549 207,-81.055 203.5001,-91.055 210.5001,-91.0549"/>
</g>
<!-- Node11 -->
<g id="node12" class="node">
<title>Node11</title>
<polygon fill="#ffffff" stroke="#bfbfbf" points="286.5,-56.5 286.5,-86.5 399.5,-86.5 399.5,-56.5 286.5,-56.5"/>
<text text-anchor="start" x="294.5" y="-74.5" font-family="Helvetica,sans-Serif" font-size="10.00" fill="#000000">glbinding&#45;aux/types</text>
<text text-anchor="middle" x="343" y="-63.5" font-family="Helvetica,sans-Serif" font-size="10.00" fill="#000000">_to_string.h</text>
</g>
<!-- Node8&#45;&gt;Node11 -->
<g id="edge11" class="edge">
<title>Node8&#45;&gt;Node11</title>
<path fill="none" stroke="#191970" d="M237.5211,-123.4639C256.8955,-113.9191 282.173,-101.4663 303.1257,-91.144"/>
<polygon fill="#191970" stroke="#191970" points="304.6865,-94.2768 312.1103,-86.7177 301.593,-87.9974 304.6865,-94.2768"/>
</g>
<!-- Node13 -->
<g id="node14" class="node">
<title>Node13</title>
<g id="a_node14"><a xlink:href="RaCore_8hpp.html" target="_top" xlink:title="Core/RaCore.hpp">
<polygon fill="#ffffff" stroke="#000000" points="460,-129 460,-148 558,-148 558,-129 460,-129"/>
<text text-anchor="middle" x="509" y="-136" font-family="Helvetica,sans-Serif" font-size="10.00" fill="#000000">Core/RaCore.hpp</text>
</a>
</g>
</g>
<!-- Node12&#45;&gt;Node13 -->
<g id="edge13" class="edge">
<title>Node12&#45;&gt;Node13</title>
<path fill="none" stroke="#191970" d="M428,-190.3906C443.3581,-180.5519 467.4521,-165.1167 485.3745,-153.6351"/>
<polygon fill="#191970" stroke="#191970" points="487.573,-156.3833 494.1053,-148.0419 483.797,-150.4891 487.573,-156.3833"/>
</g>
<!-- Node14 -->
<g id="node15" class="node">
<title>Node14</title>
<polygon fill="#ffffff" stroke="#bfbfbf" points="576,-129 576,-148 620,-148 620,-129 576,-129"/>
<text text-anchor="middle" x="598" y="-136" font-family="Helvetica,sans-Serif" font-size="10.00" fill="#000000">limits</text>
</g>
<!-- Node12&#45;&gt;Node14 -->
<g id="edge15" class="edge">
<title>Node12&#45;&gt;Node14</title>
<path fill="none" stroke="#191970" d="M451.5982,-190.4632C483.1309,-182.2004 528.6025,-169.2011 567,-154 568.3637,-153.4601 569.7488,-152.8825 571.1388,-152.2793"/>
<polygon fill="#191970" stroke="#191970" points="572.6222,-155.4495 580.2092,-148.0544 569.6665,-149.1041 572.6222,-155.4495"/>
</g>
<!-- Node15 -->
<g id="node16" class="node">
<title>Node15</title>
<g id="a_node16"><a xlink:href="Index_8inl.html" target="_top" xlink:title="Core/Utils/Index.inl">
<polygon fill="#ffffff" stroke="#000000" points="332,-129 332,-148 442,-148 442,-129 332,-129"/>
<text text-anchor="middle" x="387" y="-136" font-family="Helvetica,sans-Serif" font-size="10.00" fill="#000000">Core/Utils/Index.inl</text>
</a>
</g>
</g>
<!-- Node12&#45;&gt;Node15 -->
<g id="edge16" class="edge">
<title>Node12&#45;&gt;Node15</title>
<path fill="none" stroke="#191970" d="M403.875,-190.3906C398.5521,-181.776 392.6711,-168.8708 388.9422,-158.0858"/>
<polygon fill="#191970" stroke="#191970" points="392.224,-156.8412 386.031,-148.2449 385.5116,-158.827 392.224,-156.8412"/>
</g>
<!-- Node13&#45;&gt;Node2 -->
<g id="edge14" class="edge">
<title>Node13&#45;&gt;Node2</title>
<path fill="none" stroke="#191970" d="M506.8509,-128.9005C504.6454,-119.0495 501.1519,-103.4451 498.3637,-90.9912"/>
<polygon fill="#191970" stroke="#191970" points="501.7454,-90.0754 496.1451,-81.0817 494.9145,-91.6048 501.7454,-90.0754"/>
</g>
<!-- Node15&#45;&gt;Node12 -->
<g id="edge17" class="edge">
<title>Node15&#45;&gt;Node12</title>
<path fill="none" stroke="#191970" d="M396.2085,-148.2449C401.5372,-156.9042 407.4098,-169.8205 411.1161,-180.5832"/>
<polygon fill="#191970" stroke="#191970" points="407.821,-181.7842 414,-190.3906 414.5367,-179.8094 407.821,-181.7842"/>
</g>
</g>
</svg>
