<?xml version="1.0" encoding="UTF-8" standalone="no"?>
<!DOCTYPE svg PUBLIC "-//W3C//DTD SVG 1.1//EN"
 "http://www.w3.org/Graphics/SVG/1.1/DTD/svg11.dtd">
<!-- Generated by graphviz version 2.43.0 (0)
 -->
<!-- Title: /home/runner/work/Radium&#45;Engine/Radium&#45;Engine/src/Radium&#45;Engine/src/Core/Math/LinearAlgebra.hpp Pages: 1 -->
<!--zoomable 417 -->
<svg id="main" version="1.1" xmlns="http://www.w3.org/2000/svg" xmlns:xlink="http://www.w3.org/1999/xlink" xml:space="preserve" onload="init(evt)">
<style type="text/css"><![CDATA[
.edge:hover path { stroke: red; }
.edge:hover polygon { stroke: red; fill: red; }
]]></style>
<script type="text/javascript"><![CDATA[
var edges = document.getElementsByTagName('g');
if (edges && edges.length) {
  for (var i=0;i<edges.length;i++) {
    if (edges[i].id.substr(0,4)=='edge') {
      edges[i].setAttribute('class','edge');
    }
  }
}
]]></script>
        <defs>
                <circle id="rim" cx="0" cy="0" r="7"/>
                <circle id="rim2" cx="0" cy="0" r="3.5"/>
                <g id="zoomPlus">
                        <use xlink:href="#rim" fill="#404040">
                                <set attributeName="fill" to="#808080" begin="zoomplus.mouseover" end="zoomplus.mouseout"/>
                        </use>
                        <path d="M-4,0h8M0,-4v8" fill="none" stroke="white" stroke-width="1.5" pointer-events="none"/>
                </g>
                <g id="zoomMin">
                        <use xlink:href="#rim" fill="#404040">
                                <set attributeName="fill" to="#808080" begin="zoomminus.mouseover" end="zoomminus.mouseout"/>
                        </use>
                        <path d="M-4,0h8" fill="none" stroke="white" stroke-width="1.5" pointer-events="none"/>
                </g>
                <g id="dirArrow">
                        <path fill="none" stroke="white" stroke-width="1.5" d="M0,-3.0v7 M-2.5,-0.5L0,-3.0L2.5,-0.5"/>
                </g>
               <g id="resetDef">
                       <use xlink:href="#rim2" fill="#404040">
                               <set attributeName="fill" to="#808080" begin="reset.mouseover" end="reset.mouseout"/>
                       </use>
               </g>
        </defs>

<script type="text/javascript">
var viewWidth = 3498;
var viewHeight = 417;
var sectionId = 'dynsection-1';
</script>
<script xlink:href="svgpan.js"/>
<svg id="graph" class="graph">
<g id="viewport">
<title>/home/runner/work/Radium&#45;Engine/Radium&#45;Engine/src/Radium&#45;Engine/src/Core/Math/LinearAlgebra.hpp</title>
<polygon fill="white" stroke="transparent" points="-4,4 -4,-413 3493.5,-413 3493.5,4 -4,4"/>
<!-- Node1 -->
<g id="node1" class="node">
<title>Node1</title>
<g id="a_node1"><a xlink:title=" ">
<polygon fill="#bfbfbf" stroke="black" points="1743,-356.5 1743,-408.5 1907,-408.5 1907,-356.5 1743,-356.5"/>
<text text-anchor="start" x="1751" y="-396.5" font-family="Helvetica,sans-Serif" font-size="10.00">/home/runner/work/Radium</text>
<text text-anchor="start" x="1751" y="-385.5" font-family="Helvetica,sans-Serif" font-size="10.00">&#45;Engine/Radium&#45;Engine/src</text>
<text text-anchor="start" x="1751" y="-374.5" font-family="Helvetica,sans-Serif" font-size="10.00">/Radium&#45;Engine/src/Core/Math</text>
<text text-anchor="middle" x="1825" y="-363.5" font-family="Helvetica,sans-Serif" font-size="10.00">/LinearAlgebra.hpp</text>
</a>
</g>
</g>
<!-- Node2 -->
<g id="node2" class="node">
<title>Node2</title>
<g id="a_node2"><a xlink:href="DualQuaternion_8inl.html" target="_top" xlink:title=" ">
<polygon fill="white" stroke="black" points="329,-267.5 329,-319.5 493,-319.5 493,-267.5 329,-267.5"/>
<text text-anchor="start" x="337" y="-307.5" font-family="Helvetica,sans-Serif" font-size="10.00">/home/runner/work/Radium</text>
<text text-anchor="start" x="337" y="-296.5" font-family="Helvetica,sans-Serif" font-size="10.00">&#45;Engine/Radium&#45;Engine/src</text>
<text text-anchor="start" x="337" y="-285.5" font-family="Helvetica,sans-Serif" font-size="10.00">/Radium&#45;Engine/src/Core/Math</text>
<text text-anchor="middle" x="411" y="-274.5" font-family="Helvetica,sans-Serif" font-size="10.00">/DualQuaternion.inl</text>
</a>
</g>
</g>
<!-- Node1&#45;&gt;Node2 -->
<g id="edge1" class="edge">
<title>Node1&#45;&gt;Node2</title>
<path fill="none" stroke="midnightblue" d="M1732.81,-379.93C1473.21,-375.09 739.59,-358.3 502,-320 499.08,-319.53 496.13,-319 493.15,-318.42"/>
<polygon fill="midnightblue" stroke="midnightblue" points="1732.89,-383.43 1742.95,-380.12 1733.02,-376.44 1732.89,-383.43"/>
</g>
<!-- Node9 -->
<g id="node9" class="node">
<title>Node9</title>
<g id="a_node9"><a xlink:href="LinearAlgebra_8inl.html" target="_top" xlink:title=" ">
<polygon fill="white" stroke="black" points="511,-267.5 511,-319.5 675,-319.5 675,-267.5 511,-267.5"/>
<text text-anchor="start" x="519" y="-307.5" font-family="Helvetica,sans-Serif" font-size="10.00">/home/runner/work/Radium</text>
<text text-anchor="start" x="519" y="-296.5" font-family="Helvetica,sans-Serif" font-size="10.00">&#45;Engine/Radium&#45;Engine/src</text>
<text text-anchor="start" x="519" y="-285.5" font-family="Helvetica,sans-Serif" font-size="10.00">/Radium&#45;Engine/src/Core/Math</text>
<text text-anchor="middle" x="593" y="-274.5" font-family="Helvetica,sans-Serif" font-size="10.00">/LinearAlgebra.inl</text>
</a>
</g>
</g>
<!-- Node1&#45;&gt;Node9 -->
<g id="edge9" class="edge">
<title>Node1&#45;&gt;Node9</title>
<path fill="none" stroke="midnightblue" d="M1732.52,-379.25C1496.63,-372.95 877.27,-353.37 675,-320 674.03,-319.84 673.05,-319.67 672.07,-319.5"/>
<polygon fill="midnightblue" stroke="midnightblue" points="1732.69,-382.75 1742.78,-379.52 1732.88,-375.76 1732.69,-382.75"/>
</g>
<!-- Node10 -->
<g id="node10" class="node">
<title>Node10</title>
<g id="a_node10"><a xlink:href="HandleWeightOperation_8cpp.html" target="_top" xlink:title=" ">
<polygon fill="white" stroke="black" points="693,-267.5 693,-319.5 883,-319.5 883,-267.5 693,-267.5"/>
<text text-anchor="start" x="701" y="-307.5" font-family="Helvetica,sans-Serif" font-size="10.00">/home/runner/work/Radium</text>
<text text-anchor="start" x="701" y="-296.5" font-family="Helvetica,sans-Serif" font-size="10.00">&#45;Engine/Radium&#45;Engine/src</text>
<text text-anchor="start" x="701" y="-285.5" font-family="Helvetica,sans-Serif" font-size="10.00">/Radium&#45;Engine/src/Core/Animation</text>
<text text-anchor="middle" x="788" y="-274.5" font-family="Helvetica,sans-Serif" font-size="10.00">/HandleWeightOperation.cpp</text>
</a>
</g>
</g>
<!-- Node1&#45;&gt;Node10 -->
<g id="edge11" class="edge">
<title>Node1&#45;&gt;Node10</title>
<path fill="none" stroke="midnightblue" d="M1732.67,-380.74C1564.5,-378.18 1197.4,-367.14 892,-320 889.06,-319.55 886.08,-319.05 883.08,-318.52"/>
<polygon fill="midnightblue" stroke="midnightblue" points="1732.68,-384.24 1742.73,-380.89 1732.78,-377.24 1732.68,-384.24"/>
</g>
<!-- Node11 -->
<g id="node11" class="node">
<title>Node11</title>
<g id="a_node11"><a xlink:href="Skeleton_8cpp.html" target="_top" xlink:title=" ">
<polygon fill="white" stroke="black" points="901,-267.5 901,-319.5 1091,-319.5 1091,-267.5 901,-267.5"/>
<text text-anchor="start" x="909" y="-307.5" font-family="Helvetica,sans-Serif" font-size="10.00">/home/runner/work/Radium</text>
<text text-anchor="start" x="909" y="-296.5" font-family="Helvetica,sans-Serif" font-size="10.00">&#45;Engine/Radium&#45;Engine/src</text>
<text text-anchor="start" x="909" y="-285.5" font-family="Helvetica,sans-Serif" font-size="10.00">/Radium&#45;Engine/src/Core/Animation</text>
<text text-anchor="middle" x="996" y="-274.5" font-family="Helvetica,sans-Serif" font-size="10.00">/Skeleton.cpp</text>
</a>
</g>
</g>
<!-- Node1&#45;&gt;Node11 -->
<g id="edge12" class="edge">
<title>Node1&#45;&gt;Node11</title>
<path fill="none" stroke="midnightblue" d="M1732.81,-378.28C1594.54,-372.42 1325.59,-356.99 1100,-320 1097.06,-319.52 1094.09,-319 1091.09,-318.44"/>
<polygon fill="midnightblue" stroke="midnightblue" points="1732.81,-381.78 1742.94,-378.7 1733.1,-374.79 1732.81,-381.78"/>
</g>
<!-- Node12 -->
<g id="node12" class="node">
<title>Node12</title>
<g id="a_node12"><a xlink:href="Tex_8inl.html" target="_top" xlink:title=" ">
<polygon fill="white" stroke="black" points="1109,-267.5 1109,-319.5 1301,-319.5 1301,-267.5 1109,-267.5"/>
<text text-anchor="start" x="1117" y="-307.5" font-family="Helvetica,sans-Serif" font-size="10.00">/home/runner/work/Radium</text>
<text text-anchor="start" x="1117" y="-296.5" font-family="Helvetica,sans-Serif" font-size="10.00">&#45;Engine/Radium&#45;Engine/src</text>
<text text-anchor="start" x="1117" y="-285.5" font-family="Helvetica,sans-Serif" font-size="10.00">/Radium&#45;Engine/src/Core/Containers</text>
<text text-anchor="middle" x="1205" y="-274.5" font-family="Helvetica,sans-Serif" font-size="10.00">/Tex.inl</text>
</a>
</g>
</g>
<!-- Node1&#45;&gt;Node12 -->
<g id="edge13" class="edge">
<title>Node1&#45;&gt;Node12</title>
<path fill="none" stroke="midnightblue" d="M1732.84,-373.84C1629.41,-364.47 1456.86,-346.5 1310,-320 1307.05,-319.47 1304.05,-318.9 1301.03,-318.31"/>
<polygon fill="midnightblue" stroke="midnightblue" points="1732.66,-377.34 1742.94,-374.75 1733.29,-370.37 1732.66,-377.34"/>
</g>
<!-- Node14 -->
<g id="node14" class="node">
<title>Node14</title>
<g id="a_node14"><a xlink:href="Adjacency_8cpp.html" target="_top" xlink:title=" ">
<polygon fill="white" stroke="black" points="1319,-267.5 1319,-319.5 1507,-319.5 1507,-267.5 1319,-267.5"/>
<text text-anchor="start" x="1327" y="-307.5" font-family="Helvetica,sans-Serif" font-size="10.00">/home/runner/work/Radium</text>
<text text-anchor="start" x="1327" y="-296.5" font-family="Helvetica,sans-Serif" font-size="10.00">&#45;Engine/Radium&#45;Engine/src</text>
<text text-anchor="start" x="1327" y="-285.5" font-family="Helvetica,sans-Serif" font-size="10.00">/Radium&#45;Engine/src/Core/Geometry</text>
<text text-anchor="middle" x="1413" y="-274.5" font-family="Helvetica,sans-Serif" font-size="10.00">/Adjacency.cpp</text>
</a>
</g>
</g>
<!-- Node1&#45;&gt;Node14 -->
<g id="edge16" class="edge">
<title>Node1&#45;&gt;Node14</title>
<path fill="none" stroke="midnightblue" d="M1732.73,-364.29C1671.19,-352.53 1588.57,-336.2 1516,-320 1513.12,-319.36 1510.2,-318.7 1507.26,-318.02"/>
<polygon fill="midnightblue" stroke="midnightblue" points="1732.33,-367.78 1742.81,-366.21 1733.64,-360.9 1732.33,-367.78"/>
</g>
<!-- Node15 -->
<g id="node15" class="node">
<title>Node15</title>
<g id="a_node15"><a xlink:href="Area_8cpp.html" target="_top" xlink:title=" ">
<polygon fill="white" stroke="black" points="1525,-267.5 1525,-319.5 1713,-319.5 1713,-267.5 1525,-267.5"/>
<text text-anchor="start" x="1533" y="-307.5" font-family="Helvetica,sans-Serif" font-size="10.00">/home/runner/work/Radium</text>
<text text-anchor="start" x="1533" y="-296.5" font-family="Helvetica,sans-Serif" font-size="10.00">&#45;Engine/Radium&#45;Engine/src</text>
<text text-anchor="start" x="1533" y="-285.5" font-family="Helvetica,sans-Serif" font-size="10.00">/Radium&#45;Engine/src/Core/Geometry</text>
<text text-anchor="middle" x="1619" y="-274.5" font-family="Helvetica,sans-Serif" font-size="10.00">/Area.cpp</text>
</a>
</g>
</g>
<!-- Node1&#45;&gt;Node15 -->
<g id="edge17" class="edge">
<title>Node1&#45;&gt;Node15</title>
<path fill="none" stroke="midnightblue" d="M1756.18,-352.44C1730.93,-341.77 1702.58,-329.8 1678.25,-319.52"/>
<polygon fill="midnightblue" stroke="midnightblue" points="1755.12,-355.79 1765.69,-356.45 1757.84,-349.34 1755.12,-355.79"/>
</g>
<!-- Node16 -->
<g id="node16" class="node">
<title>Node16</title>
<g id="a_node16"><a xlink:href="Laplacian_8cpp.html" target="_top" xlink:title=" ">
<polygon fill="white" stroke="black" points="1731,-267.5 1731,-319.5 1919,-319.5 1919,-267.5 1731,-267.5"/>
<text text-anchor="start" x="1739" y="-307.5" font-family="Helvetica,sans-Serif" font-size="10.00">/home/runner/work/Radium</text>
<text text-anchor="start" x="1739" y="-296.5" font-family="Helvetica,sans-Serif" font-size="10.00">&#45;Engine/Radium&#45;Engine/src</text>
<text text-anchor="start" x="1739" y="-285.5" font-family="Helvetica,sans-Serif" font-size="10.00">/Radium&#45;Engine/src/Core/Geometry</text>
<text text-anchor="middle" x="1825" y="-274.5" font-family="Helvetica,sans-Serif" font-size="10.00">/Laplacian.cpp</text>
</a>
</g>
</g>
<!-- Node1&#45;&gt;Node16 -->
<g id="edge18" class="edge">
<title>Node1&#45;&gt;Node16</title>
<path fill="none" stroke="midnightblue" d="M1825,-346.19C1825,-337.28 1825,-327.9 1825,-319.61"/>
<polygon fill="midnightblue" stroke="midnightblue" points="1821.5,-346.34 1825,-356.34 1828.5,-346.34 1821.5,-346.34"/>
</g>
<!-- Node17 -->
<g id="node17" class="node">
<title>Node17</title>
<g id="a_node17"><a xlink:href="LoopSubdivider_8hpp.html" target="_top" xlink:title=" ">
<polygon fill="white" stroke="black" points="1937,-267.5 1937,-319.5 2125,-319.5 2125,-267.5 1937,-267.5"/>
<text text-anchor="start" x="1945" y="-307.5" font-family="Helvetica,sans-Serif" font-size="10.00">/home/runner/work/Radium</text>
<text text-anchor="start" x="1945" y="-296.5" font-family="Helvetica,sans-Serif" font-size="10.00">&#45;Engine/Radium&#45;Engine/src</text>
<text text-anchor="start" x="1945" y="-285.5" font-family="Helvetica,sans-Serif" font-size="10.00">/Radium&#45;Engine/src/Core/Geometry</text>
<text text-anchor="middle" x="2031" y="-274.5" font-family="Helvetica,sans-Serif" font-size="10.00">/LoopSubdivider.hpp</text>
</a>
</g>
</g>
<!-- Node1&#45;&gt;Node17 -->
<g id="edge19" class="edge">
<title>Node1&#45;&gt;Node17</title>
<path fill="none" stroke="midnightblue" d="M1893.82,-352.44C1919.07,-341.77 1947.42,-329.8 1971.75,-319.52"/>
<polygon fill="midnightblue" stroke="midnightblue" points="1892.16,-349.34 1884.31,-356.45 1894.88,-355.79 1892.16,-349.34"/>
</g>
<!-- Node19 -->
<g id="node19" class="node">
<title>Node19</title>
<g id="a_node19"><a xlink:href="MeshPrimitives_8inl.html" target="_top" xlink:title=" ">
<polygon fill="white" stroke="black" points="2143,-267.5 2143,-319.5 2331,-319.5 2331,-267.5 2143,-267.5"/>
<text text-anchor="start" x="2151" y="-307.5" font-family="Helvetica,sans-Serif" font-size="10.00">/home/runner/work/Radium</text>
<text text-anchor="start" x="2151" y="-296.5" font-family="Helvetica,sans-Serif" font-size="10.00">&#45;Engine/Radium&#45;Engine/src</text>
<text text-anchor="start" x="2151" y="-285.5" font-family="Helvetica,sans-Serif" font-size="10.00">/Radium&#45;Engine/src/Core/Geometry</text>
<text text-anchor="middle" x="2237" y="-274.5" font-family="Helvetica,sans-Serif" font-size="10.00">/MeshPrimitives.inl</text>
</a>
</g>
</g>
<!-- Node1&#45;&gt;Node19 -->
<g id="edge21" class="edge">
<title>Node1&#45;&gt;Node19</title>
<path fill="none" stroke="midnightblue" d="M1917.27,-364.29C1978.81,-352.53 2061.43,-336.2 2134,-320 2136.88,-319.36 2139.8,-318.7 2142.74,-318.02"/>
<polygon fill="midnightblue" stroke="midnightblue" points="1916.36,-360.9 1907.19,-366.21 1917.67,-367.78 1916.36,-360.9"/>
</g>
<!-- Node29 -->
<g id="node29" class="node">
<title>Node29</title>
<g id="a_node29"><a xlink:href="Normal_8cpp.html" target="_top" xlink:title=" ">
<polygon fill="white" stroke="black" points="2349,-267.5 2349,-319.5 2537,-319.5 2537,-267.5 2349,-267.5"/>
<text text-anchor="start" x="2357" y="-307.5" font-family="Helvetica,sans-Serif" font-size="10.00">/home/runner/work/Radium</text>
<text text-anchor="start" x="2357" y="-296.5" font-family="Helvetica,sans-Serif" font-size="10.00">&#45;Engine/Radium&#45;Engine/src</text>
<text text-anchor="start" x="2357" y="-285.5" font-family="Helvetica,sans-Serif" font-size="10.00">/Radium&#45;Engine/src/Core/Geometry</text>
<text text-anchor="middle" x="2443" y="-274.5" font-family="Helvetica,sans-Serif" font-size="10.00">/Normal.cpp</text>
</a>
</g>
</g>
<!-- Node1&#45;&gt;Node29 -->
<g id="edge32" class="edge">
<title>Node1&#45;&gt;Node29</title>
<path fill="none" stroke="midnightblue" d="M1917.18,-373.96C2020.63,-364.7 2193.2,-346.83 2340,-320 2342.9,-319.47 2345.84,-318.91 2348.8,-318.32"/>
<polygon fill="midnightblue" stroke="midnightblue" points="1916.73,-370.49 1907.08,-374.86 1917.35,-377.46 1916.73,-370.49"/>
</g>
<!-- Node30 -->
<g id="node30" class="node">
<title>Node30</title>
<g id="a_node30"><a xlink:href="PolyLine_8inl.html" target="_top" xlink:title=" ">
<polygon fill="white" stroke="black" points="2555,-267.5 2555,-319.5 2743,-319.5 2743,-267.5 2555,-267.5"/>
<text text-anchor="start" x="2563" y="-307.5" font-family="Helvetica,sans-Serif" font-size="10.00">/home/runner/work/Radium</text>
<text text-anchor="start" x="2563" y="-296.5" font-family="Helvetica,sans-Serif" font-size="10.00">&#45;Engine/Radium&#45;Engine/src</text>
<text text-anchor="start" x="2563" y="-285.5" font-family="Helvetica,sans-Serif" font-size="10.00">/Radium&#45;Engine/src/Core/Geometry</text>
<text text-anchor="middle" x="2649" y="-274.5" font-family="Helvetica,sans-Serif" font-size="10.00">/PolyLine.inl</text>
</a>
</g>
</g>
<!-- Node1&#45;&gt;Node30 -->
<g id="edge33" class="edge">
<title>Node1&#45;&gt;Node30</title>
<path fill="none" stroke="midnightblue" d="M1917.25,-378.28C2054.93,-372.44 2322,-357.04 2546,-320 2548.91,-319.52 2551.85,-319 2554.82,-318.45"/>
<polygon fill="midnightblue" stroke="midnightblue" points="1917,-374.79 1907.16,-378.71 1917.29,-381.78 1917,-374.79"/>
</g>
<!-- Node33 -->
<g id="node33" class="node">
<title>Node33</title>
<g id="a_node33"><a xlink:href="RayCast_8cpp.html" target="_top" xlink:title=" ">
<polygon fill="white" stroke="black" points="2761,-267.5 2761,-319.5 2949,-319.5 2949,-267.5 2761,-267.5"/>
<text text-anchor="start" x="2769" y="-307.5" font-family="Helvetica,sans-Serif" font-size="10.00">/home/runner/work/Radium</text>
<text text-anchor="start" x="2769" y="-296.5" font-family="Helvetica,sans-Serif" font-size="10.00">&#45;Engine/Radium&#45;Engine/src</text>
<text text-anchor="start" x="2769" y="-285.5" font-family="Helvetica,sans-Serif" font-size="10.00">/Radium&#45;Engine/src/Core/Geometry</text>
<text text-anchor="middle" x="2855" y="-274.5" font-family="Helvetica,sans-Serif" font-size="10.00">/RayCast.cpp</text>
</a>
</g>
</g>
<!-- Node1&#45;&gt;Node33 -->
<g id="edge37" class="edge">
<title>Node1&#45;&gt;Node33</title>
<path fill="none" stroke="midnightblue" d="M1917.06,-380.76C2084.32,-378.22 2448.81,-367.21 2752,-320 2754.91,-319.55 2757.86,-319.05 2760.84,-318.52"/>
<polygon fill="midnightblue" stroke="midnightblue" points="1917.01,-377.26 1907.06,-380.9 1917.11,-384.26 1917.01,-377.26"/>
</g>
<!-- Node34 -->
<g id="node34" class="node">
<title>Node34</title>
<g id="a_node34"><a xlink:href="TriangleOperation_8cpp.html" target="_top" xlink:title=" ">
<polygon fill="white" stroke="black" points="2967,-267.5 2967,-319.5 3155,-319.5 3155,-267.5 2967,-267.5"/>
<text text-anchor="start" x="2975" y="-307.5" font-family="Helvetica,sans-Serif" font-size="10.00">/home/runner/work/Radium</text>
<text text-anchor="start" x="2975" y="-296.5" font-family="Helvetica,sans-Serif" font-size="10.00">&#45;Engine/Radium&#45;Engine/src</text>
<text text-anchor="start" x="2975" y="-285.5" font-family="Helvetica,sans-Serif" font-size="10.00">/Radium&#45;Engine/src/Core/Geometry</text>
<text text-anchor="middle" x="3061" y="-274.5" font-family="Helvetica,sans-Serif" font-size="10.00">/TriangleOperation.cpp</text>
</a>
</g>
</g>
<!-- Node1&#45;&gt;Node34 -->
<g id="edge38" class="edge">
<title>Node1&#45;&gt;Node34</title>
<path fill="none" stroke="midnightblue" d="M1917.44,-382.35C2111.42,-382.86 2574.72,-377.32 2958,-320 2960.92,-319.56 2963.87,-319.08 2966.84,-318.56"/>
<polygon fill="midnightblue" stroke="midnightblue" points="1917.3,-378.85 1907.29,-382.32 1917.28,-385.85 1917.3,-378.85"/>
</g>
<!-- Node35 -->
<g id="node35" class="node">
<title>Node35</title>
<g id="a_node35"><a xlink:href="Component_8cpp.html" target="_top" xlink:title=" ">
<polygon fill="white" stroke="black" points="3173.5,-267.5 3173.5,-319.5 3322.5,-319.5 3322.5,-267.5 3173.5,-267.5"/>
<text text-anchor="start" x="3181.5" y="-307.5" font-family="Helvetica,sans-Serif" font-size="10.00">/home/runner/work/Radium</text>
<text text-anchor="start" x="3181.5" y="-296.5" font-family="Helvetica,sans-Serif" font-size="10.00">&#45;Engine/Radium&#45;Engine/src</text>
<text text-anchor="start" x="3181.5" y="-285.5" font-family="Helvetica,sans-Serif" font-size="10.00">/Radium&#45;Engine/src/Engine</text>
<text text-anchor="middle" x="3248" y="-274.5" font-family="Helvetica,sans-Serif" font-size="10.00">/Scene/Component.cpp</text>
</a>
</g>
</g>
<!-- Node1&#45;&gt;Node35 -->
<g id="edge39" class="edge">
<title>Node1&#45;&gt;Node35</title>
<path fill="none" stroke="midnightblue" d="M1917.42,-380.24C2179.45,-376.21 2923.68,-361.33 3164,-320 3167,-319.48 3170.05,-318.89 3173.12,-318.24"/>
<polygon fill="midnightblue" stroke="midnightblue" points="1917.13,-376.75 1907.18,-380.4 1917.24,-383.75 1917.13,-376.75"/>
</g>
<!-- Node36 -->
<g id="node36" class="node">
<title>Node36</title>
<g id="a_node36"><a xlink:href="Entity_8cpp.html" target="_top" xlink:title=" ">
<polygon fill="white" stroke="black" points="3340.5,-267.5 3340.5,-319.5 3489.5,-319.5 3489.5,-267.5 3340.5,-267.5"/>
<text text-anchor="start" x="3348.5" y="-307.5" font-family="Helvetica,sans-Serif" font-size="10.00">/home/runner/work/Radium</text>
<text text-anchor="start" x="3348.5" y="-296.5" font-family="Helvetica,sans-Serif" font-size="10.00">&#45;Engine/Radium&#45;Engine/src</text>
<text text-anchor="start" x="3348.5" y="-285.5" font-family="Helvetica,sans-Serif" font-size="10.00">/Radium&#45;Engine/src/Engine</text>
<text text-anchor="middle" x="3415" y="-274.5" font-family="Helvetica,sans-Serif" font-size="10.00">/Scene/Entity.cpp</text>
</a>
</g>
</g>
<!-- Node1&#45;&gt;Node36 -->
<g id="edge40" class="edge">
<title>Node1&#45;&gt;Node36</title>
<path fill="none" stroke="midnightblue" d="M1917.49,-380.84C2201.44,-378.31 3057.93,-366.89 3332,-320 3334.67,-319.54 3337.38,-319.02 3340.11,-318.45"/>
<polygon fill="midnightblue" stroke="midnightblue" points="1917.2,-377.34 1907.23,-380.93 1917.26,-384.34 1917.2,-377.34"/>
</g>
<!-- Node3 -->
<g id="node3" class="node">
<title>Node3</title>
<g id="a_node3"><a xlink:href="DualQuaternion_8hpp.html" target="_top" xlink:title=" ">
<polygon fill="white" stroke="black" points="329,-178.5 329,-230.5 493,-230.5 493,-178.5 329,-178.5"/>
<text text-anchor="start" x="337" y="-218.5" font-family="Helvetica,sans-Serif" font-size="10.00">/home/runner/work/Radium</text>
<text text-anchor="start" x="337" y="-207.5" font-family="Helvetica,sans-Serif" font-size="10.00">&#45;Engine/Radium&#45;Engine/src</text>
<text text-anchor="start" x="337" y="-196.5" font-family="Helvetica,sans-Serif" font-size="10.00">/Radium&#45;Engine/src/Core/Math</text>
<text text-anchor="middle" x="411" y="-185.5" font-family="Helvetica,sans-Serif" font-size="10.00">/DualQuaternion.hpp</text>
</a>
</g>
</g>
<!-- Node2&#45;&gt;Node3 -->
<g id="edge2" class="edge">
<title>Node2&#45;&gt;Node3</title>
<path fill="none" stroke="midnightblue" d="M404.36,-257.19C404.12,-248.28 404.27,-238.9 404.82,-230.61"/>
<polygon fill="midnightblue" stroke="midnightblue" points="400.87,-257.5 404.81,-267.34 407.86,-257.19 400.87,-257.5"/>
</g>
<!-- Node3&#45;&gt;Node2 -->
<g id="edge6" class="edge">
<title>Node3&#45;&gt;Node2</title>
<path fill="none" stroke="midnightblue" d="M417.64,-240.75C417.88,-249.65 417.73,-259.04 417.19,-267.34"/>
<polygon fill="midnightblue" stroke="midnightblue" points="421.13,-240.44 417.18,-230.61 414.14,-240.76 421.13,-240.44"/>
</g>
<!-- Node4 -->
<g id="node4" class="node">
<title>Node4</title>
<g id="a_node4"><a xlink:href="DualQuaternionSkinning_8hpp.html" target="_top" xlink:title=" ">
<polygon fill="white" stroke="black" points="207,-89.5 207,-141.5 397,-141.5 397,-89.5 207,-89.5"/>
<text text-anchor="start" x="215" y="-129.5" font-family="Helvetica,sans-Serif" font-size="10.00">/home/runner/work/Radium</text>
<text text-anchor="start" x="215" y="-118.5" font-family="Helvetica,sans-Serif" font-size="10.00">&#45;Engine/Radium&#45;Engine/src</text>
<text text-anchor="start" x="215" y="-107.5" font-family="Helvetica,sans-Serif" font-size="10.00">/Radium&#45;Engine/src/Core/Animation</text>
<text text-anchor="middle" x="302" y="-96.5" font-family="Helvetica,sans-Serif" font-size="10.00">/DualQuaternionSkinning.hpp</text>
</a>
</g>
</g>
<!-- Node3&#45;&gt;Node4 -->
<g id="edge3" class="edge">
<title>Node3&#45;&gt;Node4</title>
<path fill="none" stroke="midnightblue" d="M371.45,-171.93C358.95,-161.96 345.31,-151.07 333.46,-141.61"/>
<polygon fill="midnightblue" stroke="midnightblue" points="369.47,-174.83 379.47,-178.34 373.84,-169.36 369.47,-174.83"/>
</g>
<!-- Node7 -->
<g id="node7" class="node">
<title>Node7</title>
<g id="a_node7"><a xlink:href="StretchableTwistableBoneSkinning_8hpp.html" target="_top" xlink:title=" ">
<polygon fill="white" stroke="black" points="415.5,-89.5 415.5,-141.5 624.5,-141.5 624.5,-89.5 415.5,-89.5"/>
<text text-anchor="start" x="423.5" y="-129.5" font-family="Helvetica,sans-Serif" font-size="10.00">/home/runner/work/Radium</text>
<text text-anchor="start" x="423.5" y="-118.5" font-family="Helvetica,sans-Serif" font-size="10.00">&#45;Engine/Radium&#45;Engine/src</text>
<text text-anchor="start" x="423.5" y="-107.5" font-family="Helvetica,sans-Serif" font-size="10.00">/Radium&#45;Engine/src/Core/Animation</text>
<text text-anchor="middle" x="520" y="-96.5" font-family="Helvetica,sans-Serif" font-size="10.00">/StretchableTwistableBoneSkinning.hpp</text>
</a>
</g>
</g>
<!-- Node3&#45;&gt;Node7 -->
<g id="edge7" class="edge">
<title>Node3&#45;&gt;Node7</title>
<path fill="none" stroke="midnightblue" d="M450.55,-171.93C463.05,-161.96 476.69,-151.07 488.54,-141.61"/>
<polygon fill="midnightblue" stroke="midnightblue" points="448.16,-169.36 442.53,-178.34 452.53,-174.83 448.16,-169.36"/>
</g>
<!-- Node5 -->
<g id="node5" class="node">
<title>Node5</title>
<g id="a_node5"><a xlink:href="DualQuaternionSkinning_8cpp.html" target="_top" xlink:title=" ">
<polygon fill="white" stroke="black" points="0,-0.5 0,-52.5 190,-52.5 190,-0.5 0,-0.5"/>
<text text-anchor="start" x="8" y="-40.5" font-family="Helvetica,sans-Serif" font-size="10.00">/home/runner/work/Radium</text>
<text text-anchor="start" x="8" y="-29.5" font-family="Helvetica,sans-Serif" font-size="10.00">&#45;Engine/Radium&#45;Engine/src</text>
<text text-anchor="start" x="8" y="-18.5" font-family="Helvetica,sans-Serif" font-size="10.00">/Radium&#45;Engine/src/Core/Animation</text>
<text text-anchor="middle" x="95" y="-7.5" font-family="Helvetica,sans-Serif" font-size="10.00">/DualQuaternionSkinning.cpp</text>
</a>
</g>
</g>
<!-- Node4&#45;&gt;Node5 -->
<g id="edge4" class="edge">
<title>Node4&#45;&gt;Node5</title>
<path fill="none" stroke="midnightblue" d="M233.18,-85.58C207.72,-74.88 179.1,-62.85 154.53,-52.52"/>
<polygon fill="midnightblue" stroke="midnightblue" points="231.83,-88.8 242.4,-89.45 234.54,-82.35 231.83,-88.8"/>
</g>
<!-- Node6 -->
<g id="node6" class="node">
<title>Node6</title>
<g id="a_node6"><a xlink:href="RotationCenterSkinning_8cpp.html" target="_top" xlink:title=" ">
<polygon fill="white" stroke="black" points="208,-0.5 208,-52.5 398,-52.5 398,-0.5 208,-0.5"/>
<text text-anchor="start" x="216" y="-40.5" font-family="Helvetica,sans-Serif" font-size="10.00">/home/runner/work/Radium</text>
<text text-anchor="start" x="216" y="-29.5" font-family="Helvetica,sans-Serif" font-size="10.00">&#45;Engine/Radium&#45;Engine/src</text>
<text text-anchor="start" x="216" y="-18.5" font-family="Helvetica,sans-Serif" font-size="10.00">/Radium&#45;Engine/src/Core/Animation</text>
<text text-anchor="middle" x="303" y="-7.5" font-family="Helvetica,sans-Serif" font-size="10.00">/RotationCenterSkinning.cpp</text>
</a>
</g>
</g>
<!-- Node4&#45;&gt;Node6 -->
<g id="edge5" class="edge">
<title>Node4&#45;&gt;Node6</title>
<path fill="none" stroke="midnightblue" d="M302.41,-79.19C302.51,-70.28 302.62,-60.9 302.71,-52.61"/>
<polygon fill="midnightblue" stroke="midnightblue" points="298.9,-79.3 302.29,-89.34 305.9,-79.38 298.9,-79.3"/>
</g>
<!-- Node8 -->
<g id="node8" class="node">
<title>Node8</title>
<g id="a_node8"><a xlink:href="StretchableTwistableBoneSkinning_8cpp.html" target="_top" xlink:title=" ">
<polygon fill="white" stroke="black" points="416,-0.5 416,-52.5 624,-52.5 624,-0.5 416,-0.5"/>
<text text-anchor="start" x="424" y="-40.5" font-family="Helvetica,sans-Serif" font-size="10.00">/home/runner/work/Radium</text>
<text text-anchor="start" x="424" y="-29.5" font-family="Helvetica,sans-Serif" font-size="10.00">&#45;Engine/Radium&#45;Engine/src</text>
<text text-anchor="start" x="424" y="-18.5" font-family="Helvetica,sans-Serif" font-size="10.00">/Radium&#45;Engine/src/Core/Animation</text>
<text text-anchor="middle" x="520" y="-7.5" font-family="Helvetica,sans-Serif" font-size="10.00">/StretchableTwistableBoneSkinning.cpp</text>
</a>
</g>
</g>
<!-- Node7&#45;&gt;Node8 -->
<g id="edge8" class="edge">
<title>Node7&#45;&gt;Node8</title>
<path fill="none" stroke="midnightblue" d="M520,-79.19C520,-70.28 520,-60.9 520,-52.61"/>
<polygon fill="midnightblue" stroke="midnightblue" points="516.5,-79.34 520,-89.34 523.5,-79.34 516.5,-79.34"/>
</g>
<!-- Node9&#45;&gt;Node1 -->
<g id="edge10" class="edge">
<title>Node9&#45;&gt;Node1</title>
<path fill="none" stroke="midnightblue" d="M684.99,-318.56C687.69,-319.08 690.36,-319.56 693,-320 895.83,-353.47 1518.06,-373.05 1742.92,-379.3"/>
<polygon fill="midnightblue" stroke="midnightblue" points="685.68,-315.12 675.17,-316.5 684.24,-321.98 685.68,-315.12"/>
</g>
<!-- Node13 -->
<g id="node13" class="node">
<title>Node13</title>
<g id="a_node13"><a xlink:href="Tex_8hpp.html" target="_top" xlink:title=" ">
<polygon fill="white" stroke="black" points="1109,-178.5 1109,-230.5 1301,-230.5 1301,-178.5 1109,-178.5"/>
<text text-anchor="start" x="1117" y="-218.5" font-family="Helvetica,sans-Serif" font-size="10.00">/home/runner/work/Radium</text>
<text text-anchor="start" x="1117" y="-207.5" font-family="Helvetica,sans-Serif" font-size="10.00">&#45;Engine/Radium&#45;Engine/src</text>
<text text-anchor="start" x="1117" y="-196.5" font-family="Helvetica,sans-Serif" font-size="10.00">/Radium&#45;Engine/src/Core/Containers</text>
<text text-anchor="middle" x="1205" y="-185.5" font-family="Helvetica,sans-Serif" font-size="10.00">/Tex.hpp</text>
</a>
</g>
</g>
<!-- Node12&#45;&gt;Node13 -->
<g id="edge14" class="edge">
<title>Node12&#45;&gt;Node13</title>
<path fill="none" stroke="midnightblue" d="M1198.36,-257.19C1198.12,-248.28 1198.27,-238.9 1198.82,-230.61"/>
<polygon fill="midnightblue" stroke="midnightblue" points="1194.87,-257.5 1198.81,-267.34 1201.86,-257.19 1194.87,-257.5"/>
</g>
<!-- Node13&#45;&gt;Node12 -->
<g id="edge15" class="edge">
<title>Node13&#45;&gt;Node12</title>
<path fill="none" stroke="midnightblue" d="M1211.64,-240.75C1211.88,-249.65 1211.73,-259.04 1211.19,-267.34"/>
<polygon fill="midnightblue" stroke="midnightblue" points="1215.13,-240.44 1211.18,-230.61 1208.14,-240.76 1215.13,-240.44"/>
</g>
<!-- Node18 -->
<g id="node18" class="node">
<title>Node18</title>
<g id="a_node18"><a xlink:href="LoopSubdivider_8cpp.html" target="_top" xlink:title=" ">
<polygon fill="white" stroke="black" points="1937,-178.5 1937,-230.5 2125,-230.5 2125,-178.5 1937,-178.5"/>
<text text-anchor="start" x="1945" y="-218.5" font-family="Helvetica,sans-Serif" font-size="10.00">/home/runner/work/Radium</text>
<text text-anchor="start" x="1945" y="-207.5" font-family="Helvetica,sans-Serif" font-size="10.00">&#45;Engine/Radium&#45;Engine/src</text>
<text text-anchor="start" x="1945" y="-196.5" font-family="Helvetica,sans-Serif" font-size="10.00">/Radium&#45;Engine/src/Core/Geometry</text>
<text text-anchor="middle" x="2031" y="-185.5" font-family="Helvetica,sans-Serif" font-size="10.00">/LoopSubdivider.cpp</text>
</a>
</g>
</g>
<!-- Node17&#45;&gt;Node18 -->
<g id="edge20" class="edge">
<title>Node17&#45;&gt;Node18</title>
<path fill="none" stroke="midnightblue" d="M2031,-257.19C2031,-248.28 2031,-238.9 2031,-230.61"/>
<polygon fill="midnightblue" stroke="midnightblue" points="2027.5,-257.34 2031,-267.34 2034.5,-257.34 2027.5,-257.34"/>
</g>
<!-- Node20 -->
<g id="node20" class="node">
<title>Node20</title>
<g id="a_node20"><a xlink:href="MeshPrimitives_8hpp.html" target="_top" xlink:title=" ">
<polygon fill="white" stroke="black" points="2143,-178.5 2143,-230.5 2331,-230.5 2331,-178.5 2143,-178.5"/>
<text text-anchor="start" x="2151" y="-218.5" font-family="Helvetica,sans-Serif" font-size="10.00">/home/runner/work/Radium</text>
<text text-anchor="start" x="2151" y="-207.5" font-family="Helvetica,sans-Serif" font-size="10.00">&#45;Engine/Radium&#45;Engine/src</text>
<text text-anchor="start" x="2151" y="-196.5" font-family="Helvetica,sans-Serif" font-size="10.00">/Radium&#45;Engine/src/Core/Geometry</text>
<text text-anchor="middle" x="2237" y="-185.5" font-family="Helvetica,sans-Serif" font-size="10.00">/MeshPrimitives.hpp</text>
</a>
</g>
</g>
<!-- Node19&#45;&gt;Node20 -->
<g id="edge22" class="edge">
<title>Node19&#45;&gt;Node20</title>
<path fill="none" stroke="midnightblue" d="M2230.36,-257.19C2230.12,-248.28 2230.27,-238.9 2230.82,-230.61"/>
<polygon fill="midnightblue" stroke="midnightblue" points="2226.87,-257.5 2230.81,-267.34 2233.86,-257.19 2226.87,-257.5"/>
</g>
<!-- Node20&#45;&gt;Node19 -->
<g id="edge24" class="edge">
<title>Node20&#45;&gt;Node19</title>
<path fill="none" stroke="midnightblue" d="M2243.64,-240.75C2243.88,-249.65 2243.73,-259.04 2243.19,-267.34"/>
<polygon fill="midnightblue" stroke="midnightblue" points="2247.13,-240.44 2243.18,-230.61 2240.14,-240.76 2247.13,-240.44"/>
</g>
<!-- Node21 -->
<g id="node21" class="node">
<title>Node21</title>
<g id="a_node21"><a xlink:href="MeshPrimitives_8cpp.html" target="_top" xlink:title=" ">
<polygon fill="white" stroke="black" points="1447,-89.5 1447,-141.5 1635,-141.5 1635,-89.5 1447,-89.5"/>
<text text-anchor="start" x="1455" y="-129.5" font-family="Helvetica,sans-Serif" font-size="10.00">/home/runner/work/Radium</text>
<text text-anchor="start" x="1455" y="-118.5" font-family="Helvetica,sans-Serif" font-size="10.00">&#45;Engine/Radium&#45;Engine/src</text>
<text text-anchor="start" x="1455" y="-107.5" font-family="Helvetica,sans-Serif" font-size="10.00">/Radium&#45;Engine/src/Core/Geometry</text>
<text text-anchor="middle" x="1541" y="-96.5" font-family="Helvetica,sans-Serif" font-size="10.00">/MeshPrimitives.cpp</text>
</a>
</g>
</g>
<!-- Node20&#45;&gt;Node21 -->
<g id="edge23" class="edge">
<title>Node20&#45;&gt;Node21</title>
<path fill="none" stroke="midnightblue" d="M2132.75,-177.93C1916.54,-144.61 1856.38,-175.84 1644,-142 1641.09,-141.54 1638.14,-141.03 1635.17,-140.49"/>
<polygon fill="midnightblue" stroke="midnightblue" points="2132.41,-181.42 2142.83,-179.51 2133.5,-174.5 2132.41,-181.42"/>
</g>
<!-- Node22 -->
<g id="node22" class="node">
<title>Node22</title>
<g id="a_node22"><a xlink:href="DrawPrimitives_8cpp.html" target="_top" xlink:title=" ">
<polygon fill="white" stroke="black" points="1653.5,-89.5 1653.5,-141.5 1802.5,-141.5 1802.5,-89.5 1653.5,-89.5"/>
<text text-anchor="start" x="1661.5" y="-129.5" font-family="Helvetica,sans-Serif" font-size="10.00">/home/runner/work/Radium</text>
<text text-anchor="start" x="1661.5" y="-118.5" font-family="Helvetica,sans-Serif" font-size="10.00">&#45;Engine/Radium&#45;Engine/src</text>
<text text-anchor="start" x="1661.5" y="-107.5" font-family="Helvetica,sans-Serif" font-size="10.00">/Radium&#45;Engine/src/Engine</text>
<text text-anchor="middle" x="1728" y="-96.5" font-family="Helvetica,sans-Serif" font-size="10.00">/Data/DrawPrimitives.cpp</text>
</a>
</g>
</g>
<!-- Node20&#45;&gt;Node22 -->
<g id="edge25" class="edge">
<title>Node20&#45;&gt;Node22</title>
<path fill="none" stroke="midnightblue" d="M2132.8,-177.9C1989.99,-153.41 1949.26,-170.68 1811,-142 1808.34,-141.45 1805.65,-140.85 1802.94,-140.21"/>
<polygon fill="midnightblue" stroke="midnightblue" points="2132.35,-181.37 2142.81,-179.65 2133.56,-174.48 2132.35,-181.37"/>
</g>
<!-- Node23 -->
<g id="node23" class="node">
<title>Node23</title>
<g id="a_node23"><a xlink:href="VolumeObject_8cpp.html" target="_top" xlink:title=" ">
<polygon fill="white" stroke="black" points="1820.5,-89.5 1820.5,-141.5 1969.5,-141.5 1969.5,-89.5 1820.5,-89.5"/>
<text text-anchor="start" x="1828.5" y="-129.5" font-family="Helvetica,sans-Serif" font-size="10.00">/home/runner/work/Radium</text>
<text text-anchor="start" x="1828.5" y="-118.5" font-family="Helvetica,sans-Serif" font-size="10.00">&#45;Engine/Radium&#45;Engine/src</text>
<text text-anchor="start" x="1828.5" y="-107.5" font-family="Helvetica,sans-Serif" font-size="10.00">/Radium&#45;Engine/src/Engine</text>
<text text-anchor="middle" x="1895" y="-96.5" font-family="Helvetica,sans-Serif" font-size="10.00">/Data/VolumeObject.cpp</text>
</a>
</g>
</g>
<!-- Node20&#45;&gt;Node23 -->
<g id="edge26" class="edge">
<title>Node20&#45;&gt;Node23</title>
<path fill="none" stroke="midnightblue" d="M2133.24,-177.84C2063.15,-161.33 2043.77,-159.67 1978,-142 1975.23,-141.26 1972.42,-140.48 1969.58,-139.69"/>
<polygon fill="midnightblue" stroke="midnightblue" points="2132.45,-181.26 2142.99,-180.16 2134.07,-174.44 2132.45,-181.26"/>
</g>
<!-- Node24 -->
<g id="node24" class="node">
<title>Node24</title>
<g id="a_node24"><a xlink:href="DebugRender_8cpp.html" target="_top" xlink:title=" ">
<polygon fill="white" stroke="black" points="1987,-89.5 1987,-141.5 2145,-141.5 2145,-89.5 1987,-89.5"/>
<text text-anchor="start" x="1995" y="-129.5" font-family="Helvetica,sans-Serif" font-size="10.00">/home/runner/work/Radium</text>
<text text-anchor="start" x="1995" y="-118.5" font-family="Helvetica,sans-Serif" font-size="10.00">&#45;Engine/Radium&#45;Engine/src</text>
<text text-anchor="start" x="1995" y="-107.5" font-family="Helvetica,sans-Serif" font-size="10.00">/Radium&#45;Engine/src/Engine</text>
<text text-anchor="middle" x="2066" y="-96.5" font-family="Helvetica,sans-Serif" font-size="10.00">/Rendering/DebugRender.cpp</text>
</a>
</g>
</g>
<!-- Node20&#45;&gt;Node24 -->
<g id="edge27" class="edge">
<title>Node20&#45;&gt;Node24</title>
<path fill="none" stroke="midnightblue" d="M2178.58,-173.78C2158,-163.31 2135.1,-151.66 2115.35,-141.61"/>
<polygon fill="midnightblue" stroke="midnightblue" points="2177.04,-176.92 2187.54,-178.34 2180.21,-170.68 2177.04,-176.92"/>
</g>
<!-- Node25 -->
<g id="node25" class="node">
<title>Node25</title>
<g id="a_node25"><a xlink:href="Renderer_8cpp.html" target="_top" xlink:title=" ">
<polygon fill="white" stroke="black" points="2162.5,-89.5 2162.5,-141.5 2311.5,-141.5 2311.5,-89.5 2162.5,-89.5"/>
<text text-anchor="start" x="2170.5" y="-129.5" font-family="Helvetica,sans-Serif" font-size="10.00">/home/runner/work/Radium</text>
<text text-anchor="start" x="2170.5" y="-118.5" font-family="Helvetica,sans-Serif" font-size="10.00">&#45;Engine/Radium&#45;Engine/src</text>
<text text-anchor="start" x="2170.5" y="-107.5" font-family="Helvetica,sans-Serif" font-size="10.00">/Radium&#45;Engine/src/Engine</text>
<text text-anchor="middle" x="2237" y="-96.5" font-family="Helvetica,sans-Serif" font-size="10.00">/Rendering/Renderer.cpp</text>
</a>
</g>
</g>
<!-- Node20&#45;&gt;Node25 -->
<g id="edge28" class="edge">
<title>Node20&#45;&gt;Node25</title>
<path fill="none" stroke="midnightblue" d="M2237,-168.19C2237,-159.28 2237,-149.9 2237,-141.61"/>
<polygon fill="midnightblue" stroke="midnightblue" points="2233.5,-168.34 2237,-178.34 2240.5,-168.34 2233.5,-168.34"/>
</g>
<!-- Node26 -->
<g id="node26" class="node">
<title>Node26</title>
<g id="a_node26"><a xlink:href="RotateGizmo_8cpp.html" target="_top" xlink:title=" ">
<polygon fill="white" stroke="black" points="2329.5,-89.5 2329.5,-141.5 2496.5,-141.5 2496.5,-89.5 2329.5,-89.5"/>
<text text-anchor="start" x="2337.5" y="-129.5" font-family="Helvetica,sans-Serif" font-size="10.00">/home/runner/work/Radium</text>
<text text-anchor="start" x="2337.5" y="-118.5" font-family="Helvetica,sans-Serif" font-size="10.00">&#45;Engine/Radium&#45;Engine/src</text>
<text text-anchor="start" x="2337.5" y="-107.5" font-family="Helvetica,sans-Serif" font-size="10.00">/Radium&#45;Engine/src/Gui/Viewer</text>
<text text-anchor="middle" x="2413" y="-96.5" font-family="Helvetica,sans-Serif" font-size="10.00">/Gizmo/RotateGizmo.cpp</text>
</a>
</g>
</g>
<!-- Node20&#45;&gt;Node26 -->
<g id="edge29" class="edge">
<title>Node20&#45;&gt;Node26</title>
<path fill="none" stroke="midnightblue" d="M2297.13,-173.78C2318.31,-163.31 2341.88,-151.66 2362.21,-141.61"/>
<polygon fill="midnightblue" stroke="midnightblue" points="2295.32,-170.77 2287.91,-178.34 2298.42,-177.04 2295.32,-170.77"/>
</g>
<!-- Node27 -->
<g id="node27" class="node">
<title>Node27</title>
<g id="a_node27"><a xlink:href="ScaleGizmo_8cpp.html" target="_top" xlink:title=" ">
<polygon fill="white" stroke="black" points="2514.5,-89.5 2514.5,-141.5 2681.5,-141.5 2681.5,-89.5 2514.5,-89.5"/>
<text text-anchor="start" x="2522.5" y="-129.5" font-family="Helvetica,sans-Serif" font-size="10.00">/home/runner/work/Radium</text>
<text text-anchor="start" x="2522.5" y="-118.5" font-family="Helvetica,sans-Serif" font-size="10.00">&#45;Engine/Radium&#45;Engine/src</text>
<text text-anchor="start" x="2522.5" y="-107.5" font-family="Helvetica,sans-Serif" font-size="10.00">/Radium&#45;Engine/src/Gui/Viewer</text>
<text text-anchor="middle" x="2598" y="-96.5" font-family="Helvetica,sans-Serif" font-size="10.00">/Gizmo/ScaleGizmo.cpp</text>
</a>
</g>
</g>
<!-- Node20&#45;&gt;Node27 -->
<g id="edge30" class="edge">
<title>Node20&#45;&gt;Node27</title>
<path fill="none" stroke="midnightblue" d="M2340.99,-180.71C2390.74,-169.53 2451.08,-155.57 2505,-142 2508.08,-141.22 2511.22,-140.42 2514.39,-139.6"/>
<polygon fill="midnightblue" stroke="midnightblue" points="2340.18,-177.3 2331.18,-182.9 2341.71,-184.13 2340.18,-177.3"/>
</g>
<!-- Node28 -->
<g id="node28" class="node">
<title>Node28</title>
<g id="a_node28"><a xlink:href="TranslateGizmo_8cpp.html" target="_top" xlink:title=" ">
<polygon fill="white" stroke="black" points="2699.5,-89.5 2699.5,-141.5 2866.5,-141.5 2866.5,-89.5 2699.5,-89.5"/>
<text text-anchor="start" x="2707.5" y="-129.5" font-family="Helvetica,sans-Serif" font-size="10.00">/home/runner/work/Radium</text>
<text text-anchor="start" x="2707.5" y="-118.5" font-family="Helvetica,sans-Serif" font-size="10.00">&#45;Engine/Radium&#45;Engine/src</text>
<text text-anchor="start" x="2707.5" y="-107.5" font-family="Helvetica,sans-Serif" font-size="10.00">/Radium&#45;Engine/src/Gui/Viewer</text>
<text text-anchor="middle" x="2783" y="-96.5" font-family="Helvetica,sans-Serif" font-size="10.00">/Gizmo/TranslateGizmo.cpp</text>
</a>
</g>
</g>
<!-- Node20&#45;&gt;Node28 -->
<g id="edge31" class="edge">
<title>Node20&#45;&gt;Node28</title>
<path fill="none" stroke="midnightblue" d="M2341.49,-193.3C2433.73,-183.34 2571.57,-166.16 2690,-142 2693.12,-141.36 2696.28,-140.68 2699.47,-139.96"/>
<polygon fill="midnightblue" stroke="midnightblue" points="2340.88,-189.84 2331.31,-194.38 2341.63,-196.8 2340.88,-189.84"/>
</g>
<!-- Node31 -->
<g id="node31" class="node">
<title>Node31</title>
<g id="a_node31"><a xlink:href="PolyLine_8hpp.html" target="_top" xlink:title=" ">
<polygon fill="white" stroke="black" points="2555,-178.5 2555,-230.5 2743,-230.5 2743,-178.5 2555,-178.5"/>
<text text-anchor="start" x="2563" y="-218.5" font-family="Helvetica,sans-Serif" font-size="10.00">/home/runner/work/Radium</text>
<text text-anchor="start" x="2563" y="-207.5" font-family="Helvetica,sans-Serif" font-size="10.00">&#45;Engine/Radium&#45;Engine/src</text>
<text text-anchor="start" x="2563" y="-196.5" font-family="Helvetica,sans-Serif" font-size="10.00">/Radium&#45;Engine/src/Core/Geometry</text>
<text text-anchor="middle" x="2649" y="-185.5" font-family="Helvetica,sans-Serif" font-size="10.00">/PolyLine.hpp</text>
</a>
</g>
</g>
<!-- Node30&#45;&gt;Node31 -->
<g id="edge34" class="edge">
<title>Node30&#45;&gt;Node31</title>
<path fill="none" stroke="midnightblue" d="M2642.36,-257.19C2642.12,-248.28 2642.27,-238.9 2642.82,-230.61"/>
<polygon fill="midnightblue" stroke="midnightblue" points="2638.87,-257.5 2642.81,-267.34 2645.86,-257.19 2638.87,-257.5"/>
</g>
<!-- Node31&#45;&gt;Node30 -->
<g id="edge36" class="edge">
<title>Node31&#45;&gt;Node30</title>
<path fill="none" stroke="midnightblue" d="M2655.64,-240.75C2655.88,-249.65 2655.73,-259.04 2655.19,-267.34"/>
<polygon fill="midnightblue" stroke="midnightblue" points="2659.13,-240.44 2655.18,-230.61 2652.14,-240.76 2659.13,-240.44"/>
</g>
<!-- Node32 -->
<g id="node32" class="node">
<title>Node32</title>
<g id="a_node32"><a xlink:href="PolyLine_8cpp.html" target="_top" xlink:title=" ">
<polygon fill="white" stroke="black" points="2885,-89.5 2885,-141.5 3073,-141.5 3073,-89.5 2885,-89.5"/>
<text text-anchor="start" x="2893" y="-129.5" font-family="Helvetica,sans-Serif" font-size="10.00">/home/runner/work/Radium</text>
<text text-anchor="start" x="2893" y="-118.5" font-family="Helvetica,sans-Serif" font-size="10.00">&#45;Engine/Radium&#45;Engine/src</text>
<text text-anchor="start" x="2893" y="-107.5" font-family="Helvetica,sans-Serif" font-size="10.00">/Radium&#45;Engine/src/Core/Geometry</text>
<text text-anchor="middle" x="2979" y="-96.5" font-family="Helvetica,sans-Serif" font-size="10.00">/PolyLine.cpp</text>
</a>
</g>
</g>
<!-- Node31&#45;&gt;Node32 -->
<g id="edge35" class="edge">
<title>Node31&#45;&gt;Node32</title>
<path fill="none" stroke="midnightblue" d="M2752.87,-176.12C2795.1,-164.98 2843.56,-152.21 2884.75,-141.35"/>
<polygon fill="midnightblue" stroke="midnightblue" points="2751.9,-172.75 2743.12,-178.69 2753.69,-179.52 2751.9,-172.75"/>
</g>
</g>
</svg>
        <g id="navigator" transform="translate(0 0)" fill="#404254">
                <rect fill="#f2f5e9" fill-opacity="0.5" stroke="#606060" stroke-width=".5" x="0" y="0" width="60" height="60"/>
                <use id="zoomplus" xlink:href="#zoomPlus" x="17" y="9" onmousedown="handleZoom(evt,'in')"/>
                <use id="zoomminus" xlink:href="#zoomMin" x="42" y="9" onmousedown="handleZoom(evt,'out')"/>
                <use id="reset" xlink:href="#resetDef" x="30" y="36" onmousedown="handleReset()"/>
                <g id="arrowUp" xlink:href="#dirArrow" transform="translate(30 24)" onmousedown="handlePan(0,-1)">
                  <use xlink:href="#rim" fill="#404040">
                        <set attributeName="fill" to="#808080" begin="arrowUp.mouseover" end="arrowUp.mouseout"/>
                  </use>
                  <path fill="none" stroke="white" stroke-width="1.5" d="M0,-3.0v7 M-2.5,-0.5L0,-3.0L2.5,-0.5"/>
                </g>
                <g id="arrowRight" xlink:href="#dirArrow" transform="rotate(90) translate(36 -43)" onmousedown="handlePan(1,0)">
                  <use xlink:href="#rim" fill="#404040">
                        <set attributeName="fill" to="#808080" begin="arrowRight.mouseover" end="arrowRight.mouseout"/>
                  </use>
                  <path fill="none" stroke="white" stroke-width="1.5" d="M0,-3.0v7 M-2.5,-0.5L0,-3.0L2.5,-0.5"/>
                </g>
                <g id="arrowDown" xlink:href="#dirArrow" transform="rotate(180) translate(-30 -48)" onmousedown="handlePan(0,1)">
                  <use xlink:href="#rim" fill="#404040">
                        <set attributeName="fill" to="#808080" begin="arrowDown.mouseover" end="arrowDown.mouseout"/>
                  </use>
                  <path fill="none" stroke="white" stroke-width="1.5" d="M0,-3.0v7 M-2.5,-0.5L0,-3.0L2.5,-0.5"/>
                </g>
                <g id="arrowLeft" xlink:href="#dirArrow" transform="rotate(270) translate(-36 17)" onmousedown="handlePan(-1,0)">
                  <use xlink:href="#rim" fill="#404040">
                        <set attributeName="fill" to="#808080" begin="arrowLeft.mouseover" end="arrowLeft.mouseout"/>
                  </use>
                  <path fill="none" stroke="white" stroke-width="1.5" d="M0,-3.0v7 M-2.5,-0.5L0,-3.0L2.5,-0.5"/>
                </g>
        </g>
        <svg viewBox="0 0 15 15" width="100%" height="30px" preserveAspectRatio="xMaxYMin meet">
         <g id="arrow_out" transform="scale(0.3 0.3)">
          <a xlink:href="LinearAlgebra_8hpp__dep__incl_org.svg" target="_base">
           <rect id="button" ry="5" rx="5" y="6" x="6" height="38" width="38"
                fill="#f2f5e9" fill-opacity="0.5" stroke="#606060" stroke-width="1.0"/>
           <path id="arrow"
             d="M 11.500037,31.436501 C 11.940474,20.09759 22.043105,11.32322 32.158766,21.979434 L 37.068811,17.246167 C 37.068811,17.246167 37.088388,32 37.088388,32 L 22.160133,31.978069 C 22.160133,31.978069 26.997745,27.140456 26.997745,27.140456 C 18.528582,18.264221 13.291696,25.230495 11.500037,31.436501 z"
             style="fill:#404040;"/>
          </a>
         </g>
        </svg>
</svg>
