<?xml version="1.0" encoding="UTF-8" standalone="no"?>
<!DOCTYPE svg PUBLIC "-//W3C//DTD SVG 1.1//EN"
 "http://www.w3.org/Graphics/SVG/1.1/DTD/svg11.dtd">
<!-- Generated by graphviz version 2.40.1 (20161225.0304)
 -->
<!-- Title: src/Core/Asset/MaterialData.hpp Pages: 1 -->
<svg width="437pt" height="252pt"
 viewBox="0.00 0.00 436.77 252.00" xmlns="http://www.w3.org/2000/svg" xmlns:xlink="http://www.w3.org/1999/xlink">
<g id="graph0" class="graph" transform="scale(1 1) rotate(0) translate(4 248)">
<title>src/Core/Asset/MaterialData.hpp</title>
<polygon fill="#ffffff" stroke="transparent" points="-4,4 -4,-248 432.7732,-248 432.7732,4 -4,4"/>
<!-- Node0 -->
<g id="node1" class="node">
<title>Node0</title>
<polygon fill="#bfbfbf" stroke="#000000" points="114.2732,-224.5 114.2732,-243.5 287.2732,-243.5 287.2732,-224.5 114.2732,-224.5"/>
<text text-anchor="middle" x="200.7732" y="-231.5" font-family="Helvetica,sans-Serif" font-size="10.00" fill="#000000">src/Core/Asset/MaterialData.hpp</text>
</g>
<!-- Node1 -->
<g id="node2" class="node">
<title>Node1</title>
<polygon fill="#ffffff" stroke="#bfbfbf" points="51.7732,-112.5 51.7732,-131.5 95.7732,-131.5 95.7732,-112.5 51.7732,-112.5"/>
<text text-anchor="middle" x="73.7732" y="-119.5" font-family="Helvetica,sans-Serif" font-size="10.00" fill="#000000">string</text>
</g>
<!-- Node0&#45;&gt;Node1 -->
<g id="edge1" class="edge">
<title>Node0&#45;&gt;Node1</title>
<path fill="none" stroke="#191970" d="M115.3247,-224.4793C69.2066,-217.3897 18.8838,-205.8057 4.7732,-188 -11.1121,-167.9549 17.2138,-148.0982 42.2296,-135.4839"/>
<polygon fill="#191970" stroke="#191970" points="44.0479,-138.4939 51.556,-131.0186 41.0251,-132.1802 44.0479,-138.4939"/>
</g>
<!-- Node2 -->
<g id="node3" class="node">
<title>Node2</title>
<polygon fill="#ffffff" stroke="#bfbfbf" points="14.2732,-168.5 14.2732,-187.5 61.2732,-187.5 61.2732,-168.5 14.2732,-168.5"/>
<text text-anchor="middle" x="37.7732" y="-175.5" font-family="Helvetica,sans-Serif" font-size="10.00" fill="#000000">vector</text>
</g>
<!-- Node0&#45;&gt;Node2 -->
<g id="edge2" class="edge">
<title>Node0&#45;&gt;Node2</title>
<path fill="none" stroke="#191970" d="M172.7525,-224.3733C144.5387,-214.6802 101.0158,-199.7275 71.0602,-189.436"/>
<polygon fill="#191970" stroke="#191970" points="72.0579,-186.078 61.4632,-186.1389 69.7834,-192.6982 72.0579,-186.078"/>
</g>
<!-- Node3 -->
<g id="node4" class="node">
<title>Node3</title>
<g id="a_node4"><a xlink:href="AssetData_8hpp.html" target="_top" xlink:title="Core/Asset/AssetData.hpp">
<polygon fill="#ffffff" stroke="#000000" points="79.2732,-168.5 79.2732,-187.5 222.2732,-187.5 222.2732,-168.5 79.2732,-168.5"/>
<text text-anchor="middle" x="150.7732" y="-175.5" font-family="Helvetica,sans-Serif" font-size="10.00" fill="#000000">Core/Asset/AssetData.hpp</text>
</a>
</g>
</g>
<!-- Node0&#45;&gt;Node3 -->
<g id="edge3" class="edge">
<title>Node0&#45;&gt;Node3</title>
<path fill="none" stroke="#191970" d="M192.0638,-224.2455C184.9659,-216.2958 174.7647,-204.8706 166.2782,-195.3656"/>
<polygon fill="#191970" stroke="#191970" points="168.6537,-192.771 159.3827,-187.6427 163.4321,-197.4331 168.6537,-192.771"/>
</g>
<!-- Node4 -->
<g id="node5" class="node">
<title>Node4</title>
<g id="a_node5"><a xlink:href="RaCore_8hpp.html" target="_top" xlink:title="Core/RaCore.hpp">
<polygon fill="#ffffff" stroke="#000000" points="151.7732,-112.5 151.7732,-131.5 249.7732,-131.5 249.7732,-112.5 151.7732,-112.5"/>
<text text-anchor="middle" x="200.7732" y="-119.5" font-family="Helvetica,sans-Serif" font-size="10.00" fill="#000000">Core/RaCore.hpp</text>
</a>
</g>
</g>
<!-- Node0&#45;&gt;Node4 -->
<g id="edge12" class="edge">
<title>Node0&#45;&gt;Node4</title>
<path fill="none" stroke="#191970" d="M209.8473,-224.3243C217.3695,-215.5913 227.4963,-201.9994 231.7732,-188 236.9919,-170.9179 227.0414,-152.6169 217.0573,-139.6295"/>
<polygon fill="#191970" stroke="#191970" points="219.7368,-137.3776 210.6506,-131.9285 214.3555,-141.8545 219.7368,-137.3776"/>
</g>
<!-- Node11 -->
<g id="node12" class="node">
<title>Node11</title>
<g id="a_node12"><a xlink:href="MaterialData_8inl.html" target="_top" xlink:title="Core/Asset/MaterialData.inl">
<polygon fill="#ffffff" stroke="#000000" points="278.7732,-168.5 278.7732,-187.5 428.7732,-187.5 428.7732,-168.5 278.7732,-168.5"/>
<text text-anchor="middle" x="353.7732" y="-175.5" font-family="Helvetica,sans-Serif" font-size="10.00" fill="#000000">Core/Asset/MaterialData.inl</text>
</a>
</g>
</g>
<!-- Node0&#45;&gt;Node11 -->
<g id="edge13" class="edge">
<title>Node0&#45;&gt;Node11</title>
<path fill="none" stroke="#191970" d="M221.8328,-224.3733C245.3504,-215.1016 283.6518,-201.0178 313.016,-190.804"/>
<polygon fill="#191970" stroke="#191970" points="314.2841,-194.0691 322.5975,-187.5011 312.0027,-187.4513 314.2841,-194.0691"/>
</g>
<!-- Node3&#45;&gt;Node1 -->
<g id="edge11" class="edge">
<title>Node3&#45;&gt;Node1</title>
<path fill="none" stroke="#191970" d="M137.3608,-168.2455C125.7675,-159.814 108.7984,-147.4729 95.3053,-137.6598"/>
<polygon fill="#191970" stroke="#191970" points="97.1778,-134.6938 87.0318,-131.6427 93.0606,-140.355 97.1778,-134.6938"/>
</g>
<!-- Node3&#45;&gt;Node4 -->
<g id="edge4" class="edge">
<title>Node3&#45;&gt;Node4</title>
<path fill="none" stroke="#191970" d="M159.4825,-168.2455C166.5805,-160.2958 176.7816,-148.8706 185.2682,-139.3656"/>
<polygon fill="#191970" stroke="#191970" points="188.1142,-141.4331 192.1636,-131.6427 182.8927,-136.771 188.1142,-141.4331"/>
</g>
<!-- Node5 -->
<g id="node6" class="node">
<title>Node5</title>
<g id="a_node6"><a xlink:href="CoreMacros_8hpp.html" target="_top" xlink:title="Core/CoreMacros.hpp">
<polygon fill="#ffffff" stroke="#000000" points="140.7732,-56.5 140.7732,-75.5 260.7732,-75.5 260.7732,-56.5 140.7732,-56.5"/>
<text text-anchor="middle" x="200.7732" y="-63.5" font-family="Helvetica,sans-Serif" font-size="10.00" fill="#000000">Core/CoreMacros.hpp</text>
</a>
</g>
</g>
<!-- Node4&#45;&gt;Node5 -->
<g id="edge5" class="edge">
<title>Node4&#45;&gt;Node5</title>
<path fill="none" stroke="#191970" d="M200.7732,-112.2455C200.7732,-104.9382 200.7732,-94.6944 200.7732,-85.7046"/>
<polygon fill="#191970" stroke="#191970" points="204.2733,-85.6426 200.7732,-75.6427 197.2733,-85.6427 204.2733,-85.6426"/>
</g>
<!-- Node6 -->
<g id="node7" class="node">
<title>Node6</title>
<polygon fill="#ffffff" stroke="#bfbfbf" points="36.7732,-.5 36.7732,-19.5 88.7732,-19.5 88.7732,-.5 36.7732,-.5"/>
<text text-anchor="middle" x="62.7732" y="-7.5" font-family="Helvetica,sans-Serif" font-size="10.00" fill="#000000">cassert</text>
</g>
<!-- Node5&#45;&gt;Node6 -->
<g id="edge6" class="edge">
<title>Node5&#45;&gt;Node6</title>
<path fill="none" stroke="#191970" d="M177.0501,-56.3733C154.5995,-47.2629 120.6993,-33.5062 95.6477,-23.3404"/>
<polygon fill="#191970" stroke="#191970" points="96.7689,-20.0182 86.1867,-19.5011 94.1367,-26.5045 96.7689,-20.0182"/>
</g>
<!-- Node7 -->
<g id="node8" class="node">
<title>Node7</title>
<polygon fill="#ffffff" stroke="#bfbfbf" points="106.7732,-.5 106.7732,-19.5 152.7732,-19.5 152.7732,-.5 106.7732,-.5"/>
<text text-anchor="middle" x="129.7732" y="-7.5" font-family="Helvetica,sans-Serif" font-size="10.00" fill="#000000">cstdio</text>
</g>
<!-- Node5&#45;&gt;Node7 -->
<g id="edge7" class="edge">
<title>Node5&#45;&gt;Node7</title>
<path fill="none" stroke="#191970" d="M188.4059,-56.2455C177.8178,-47.8943 162.3668,-35.7076 149.9839,-25.9408"/>
<polygon fill="#191970" stroke="#191970" points="152.0179,-23.0875 141.9987,-19.6427 147.6829,-28.5837 152.0179,-23.0875"/>
</g>
<!-- Node8 -->
<g id="node9" class="node">
<title>Node8</title>
<polygon fill="#ffffff" stroke="#bfbfbf" points="170.7732,-.5 170.7732,-19.5 230.7732,-19.5 230.7732,-.5 170.7732,-.5"/>
<text text-anchor="middle" x="200.7732" y="-7.5" font-family="Helvetica,sans-Serif" font-size="10.00" fill="#000000">iostream</text>
</g>
<!-- Node5&#45;&gt;Node8 -->
<g id="edge8" class="edge">
<title>Node5&#45;&gt;Node8</title>
<path fill="none" stroke="#191970" d="M200.7732,-56.2455C200.7732,-48.9382 200.7732,-38.6944 200.7732,-29.7046"/>
<polygon fill="#191970" stroke="#191970" points="204.2733,-29.6426 200.7732,-19.6427 197.2733,-29.6427 204.2733,-29.6426"/>
</g>
<!-- Node9 -->
<g id="node10" class="node">
<title>Node9</title>
<polygon fill="#ffffff" stroke="#bfbfbf" points="248.7732,-.5 248.7732,-19.5 304.7732,-19.5 304.7732,-.5 248.7732,-.5"/>
<text text-anchor="middle" x="276.7732" y="-7.5" font-family="Helvetica,sans-Serif" font-size="10.00" fill="#000000">sstream</text>
</g>
<!-- Node5&#45;&gt;Node9 -->
<g id="edge9" class="edge">
<title>Node5&#45;&gt;Node9</title>
<path fill="none" stroke="#191970" d="M214.0114,-56.2455C225.4541,-47.814 242.2028,-35.4729 255.5206,-25.6598"/>
<polygon fill="#191970" stroke="#191970" points="257.7123,-28.3924 263.6867,-19.6427 253.5599,-22.757 257.7123,-28.3924"/>
</g>
<!-- Node10 -->
<g id="node11" class="node">
<title>Node10</title>
<polygon fill="#ffffff" stroke="#bfbfbf" points="322.7732,-.5 322.7732,-19.5 370.7732,-19.5 370.7732,-.5 322.7732,-.5"/>
<text text-anchor="middle" x="346.7732" y="-7.5" font-family="Helvetica,sans-Serif" font-size="10.00" fill="#000000">thread</text>
</g>
<!-- Node5&#45;&gt;Node10 -->
<g id="edge10" class="edge">
<title>Node5&#45;&gt;Node10</title>
<path fill="none" stroke="#191970" d="M225.8715,-56.3733C249.8732,-47.1671 286.2444,-33.2165 312.8256,-23.021"/>
<polygon fill="#191970" stroke="#191970" points="314.4042,-26.1642 322.4875,-19.315 311.8973,-19.6285 314.4042,-26.1642"/>
</g>
<!-- Node11&#45;&gt;Node0 -->
<g id="edge14" class="edge">
<title>Node11&#45;&gt;Node0</title>
<path fill="none" stroke="#191970" d="M333.032,-187.5011C309.6487,-196.729 271.3743,-210.8084 241.9296,-221.057"/>
<polygon fill="#191970" stroke="#191970" points="240.6287,-217.8033 232.3168,-224.3733 242.9116,-224.4206 240.6287,-217.8033"/>
</g>
</g>
</svg>
