<?xml version="1.0" encoding="UTF-8" standalone="no"?>
<!DOCTYPE svg PUBLIC "-//W3C//DTD SVG 1.1//EN"
 "http://www.w3.org/Graphics/SVG/1.1/DTD/svg11.dtd">
<!-- Generated by graphviz version 2.43.0 (0)
 -->
<!-- Title: /home/runner/work/Radium&#45;Engine/Radium&#45;Engine/src/Radium&#45;Engine/src/Core/Geometry/MeshPrimitives.hpp Pages: 1 -->
<!--zoomable 464 -->
<svg id="main" version="1.1" xmlns="http://www.w3.org/2000/svg" xmlns:xlink="http://www.w3.org/1999/xlink" xml:space="preserve" onload="init(evt)">
<style type="text/css"><![CDATA[
.edge:hover path { stroke: red; }
.edge:hover polygon { stroke: red; fill: red; }
]]></style>
<script type="text/javascript"><![CDATA[
var edges = document.getElementsByTagName('g');
if (edges && edges.length) {
  for (var i=0;i<edges.length;i++) {
    if (edges[i].id.substr(0,4)=='edge') {
      edges[i].setAttribute('class','edge');
    }
  }
}
]]></script>
        <defs>
                <circle id="rim" cx="0" cy="0" r="7"/>
                <circle id="rim2" cx="0" cy="0" r="3.5"/>
                <g id="zoomPlus">
                        <use xlink:href="#rim" fill="#404040">
                                <set attributeName="fill" to="#808080" begin="zoomplus.mouseover" end="zoomplus.mouseout"/>
                        </use>
                        <path d="M-4,0h8M0,-4v8" fill="none" stroke="white" stroke-width="1.5" pointer-events="none"/>
                </g>
                <g id="zoomMin">
                        <use xlink:href="#rim" fill="#404040">
                                <set attributeName="fill" to="#808080" begin="zoomminus.mouseover" end="zoomminus.mouseout"/>
                        </use>
                        <path d="M-4,0h8" fill="none" stroke="white" stroke-width="1.5" pointer-events="none"/>
                </g>
                <g id="dirArrow">
                        <path fill="none" stroke="white" stroke-width="1.5" d="M0,-3.0v7 M-2.5,-0.5L0,-3.0L2.5,-0.5"/>
                </g>
               <g id="resetDef">
                       <use xlink:href="#rim2" fill="#404040">
                               <set attributeName="fill" to="#808080" begin="reset.mouseover" end="reset.mouseout"/>
                       </use>
               </g>
        </defs>

<script type="text/javascript">
var viewWidth = 2144;
var viewHeight = 464;
var sectionId = 'dynsection-0';
</script>
<script xlink:href="svgpan.js"/>
<svg id="graph" class="graph">
<g id="viewport">
<title>/home/runner/work/Radium&#45;Engine/Radium&#45;Engine/src/Radium&#45;Engine/src/Core/Geometry/MeshPrimitives.hpp</title>
<polygon fill="white" stroke="transparent" points="-4,4 -4,-460 2139.5,-460 2139.5,4 -4,4"/>
<!-- Node1 -->
<g id="node1" class="node">
<title>Node1</title>
<g id="a_node1"><a xlink:title=" ">
<polygon fill="#bfbfbf" stroke="black" points="1548.5,-403.5 1548.5,-455.5 1736.5,-455.5 1736.5,-403.5 1548.5,-403.5"/>
<text text-anchor="start" x="1556.5" y="-443.5" font-family="Helvetica,sans-Serif" font-size="10.00">/home/runner/work/Radium</text>
<text text-anchor="start" x="1556.5" y="-432.5" font-family="Helvetica,sans-Serif" font-size="10.00">&#45;Engine/Radium&#45;Engine/src</text>
<text text-anchor="start" x="1556.5" y="-421.5" font-family="Helvetica,sans-Serif" font-size="10.00">/Radium&#45;Engine/src/Core/Geometry</text>
<text text-anchor="middle" x="1642.5" y="-410.5" font-family="Helvetica,sans-Serif" font-size="10.00">/MeshPrimitives.hpp</text>
</a>
</g>
</g>
<!-- Node2 -->
<g id="node2" class="node">
<title>Node2</title>
<g id="a_node2"><a xlink:href="TriangleMesh_8hpp.html" target="_top" xlink:title=" ">
<polygon fill="white" stroke="black" points="1166,-347.5 1166,-366.5 1345,-366.5 1345,-347.5 1166,-347.5"/>
<text text-anchor="middle" x="1255.5" y="-354.5" font-family="Helvetica,sans-Serif" font-size="10.00">Core/Geometry/TriangleMesh.hpp</text>
</a>
</g>
</g>
<!-- Node1&#45;&gt;Node2 -->
<g id="edge1" class="edge">
<title>Node1&#45;&gt;Node2</title>
<path fill="none" stroke="midnightblue" d="M1548.32,-411.34C1474.57,-397.91 1374.4,-379.66 1312.41,-368.37"/>
<polygon fill="midnightblue" stroke="midnightblue" points="1312.88,-364.9 1302.42,-366.55 1311.63,-371.78 1312.88,-364.9"/>
</g>
<!-- Node5 -->
<g id="node5" class="node">
<title>Node5</title>
<g id="a_node5"><a xlink:href="RaCore_8hpp.html" target="_top" xlink:title=" ">
<polygon fill="white" stroke="black" points="559.5,-112.5 559.5,-131.5 657.5,-131.5 657.5,-112.5 559.5,-112.5"/>
<text text-anchor="middle" x="608.5" y="-119.5" font-family="Helvetica,sans-Serif" font-size="10.00">Core/RaCore.hpp</text>
</a>
</g>
</g>
<!-- Node1&#45;&gt;Node5 -->
<g id="edge58" class="edge">
<title>Node1&#45;&gt;Node5</title>
<path fill="none" stroke="midnightblue" d="M1548.34,-429.22C1249.26,-430.26 340.5,-423.43 340.5,-302 340.5,-302 340.5,-302 340.5,-244 340.5,-153.13 470.08,-130.13 549.03,-124.55"/>
<polygon fill="midnightblue" stroke="midnightblue" points="549.59,-128.02 559.34,-123.89 549.14,-121.03 549.59,-128.02"/>
</g>
<!-- Node31 -->
<g id="node31" class="node">
<title>Node31</title>
<g id="a_node31"><a xlink:href="Color_8hpp.html" target="_top" xlink:title=" ">
<polygon fill="white" stroke="black" points="1326,-235.5 1326,-254.5 1439,-254.5 1439,-235.5 1326,-235.5"/>
<text text-anchor="middle" x="1382.5" y="-242.5" font-family="Helvetica,sans-Serif" font-size="10.00">Core/Utils/Color.hpp</text>
</a>
</g>
</g>
<!-- Node1&#45;&gt;Node31 -->
<g id="edge59" class="edge">
<title>Node1&#45;&gt;Node31</title>
<path fill="none" stroke="midnightblue" d="M1624.62,-403.22C1617.15,-392.28 1608.58,-379.21 1601.5,-367 1582.54,-334.34 1592.97,-314.61 1563.5,-291 1531.39,-265.28 1486.57,-254 1449.56,-249.17"/>
<polygon fill="midnightblue" stroke="midnightblue" points="1449.69,-245.66 1439.35,-247.97 1448.87,-252.62 1449.69,-245.66"/>
</g>
<!-- Node39 -->
<g id="node39" class="node">
<title>Node39</title>
<g id="a_node39"><a xlink:href="StdOptional_8hpp.html" target="_top" xlink:title=" ">
<polygon fill="white" stroke="black" points="1813.5,-347.5 1813.5,-366.5 1959.5,-366.5 1959.5,-347.5 1813.5,-347.5"/>
<text text-anchor="middle" x="1886.5" y="-354.5" font-family="Helvetica,sans-Serif" font-size="10.00">Core/Utils/StdOptional.hpp</text>
</a>
</g>
</g>
<!-- Node1&#45;&gt;Node39 -->
<g id="edge60" class="edge">
<title>Node1&#45;&gt;Node39</title>
<path fill="none" stroke="midnightblue" d="M1729.21,-403.45C1769.51,-391.8 1815.42,-378.54 1847.19,-369.36"/>
<polygon fill="midnightblue" stroke="midnightblue" points="1848.35,-372.67 1856.99,-366.53 1846.41,-365.94 1848.35,-372.67"/>
</g>
<!-- Node40 -->
<g id="node40" class="node">
<title>Node40</title>
<g id="a_node40"><a xlink:href="MeshPrimitives_8inl.html" target="_top" xlink:title=" ">
<polygon fill="white" stroke="black" points="1610,-347.5 1610,-366.5 1795,-366.5 1795,-347.5 1610,-347.5"/>
<text text-anchor="middle" x="1702.5" y="-354.5" font-family="Helvetica,sans-Serif" font-size="10.00">Core/Geometry/MeshPrimitives.inl</text>
</a>
</g>
</g>
<!-- Node1&#45;&gt;Node40 -->
<g id="edge61" class="edge">
<title>Node1&#45;&gt;Node40</title>
<path fill="none" stroke="midnightblue" d="M1657.33,-403.45C1665.18,-393.63 1674.76,-382.66 1683.17,-373.95"/>
<polygon fill="midnightblue" stroke="midnightblue" points="1685.85,-376.23 1690.47,-366.7 1680.91,-371.26 1685.85,-376.23"/>
</g>
<!-- Node3 -->
<g id="node3" class="node">
<title>Node3</title>
<g id="a_node3"><a xlink:href="VectorArray_8hpp.html" target="_top" xlink:title=" ">
<polygon fill="white" stroke="black" points="406.5,-235.5 406.5,-254.5 580.5,-254.5 580.5,-235.5 406.5,-235.5"/>
<text text-anchor="middle" x="493.5" y="-242.5" font-family="Helvetica,sans-Serif" font-size="10.00">Core/Containers/VectorArray.hpp</text>
</a>
</g>
</g>
<!-- Node2&#45;&gt;Node3 -->
<g id="edge2" class="edge">
<title>Node2&#45;&gt;Node3</title>
<path fill="none" stroke="midnightblue" d="M1165.69,-354.26C1057.21,-350.85 869.59,-340.77 711.5,-311 644.13,-298.31 567.89,-272.95 525.79,-257.93"/>
<polygon fill="midnightblue" stroke="midnightblue" points="526.94,-254.62 516.34,-254.53 524.56,-261.21 526.94,-254.62"/>
</g>
<!-- Node2&#45;&gt;Node5 -->
<g id="edge21" class="edge">
<title>Node2&#45;&gt;Node5</title>
<path fill="none" stroke="midnightblue" d="M1165.67,-352.46C955.23,-343.21 444.5,-314.76 397.5,-255 348.54,-192.76 477.82,-151.98 555.23,-133.84"/>
<polygon fill="midnightblue" stroke="midnightblue" points="556.36,-137.17 565.32,-131.53 554.8,-130.35 556.36,-137.17"/>
</g>
<!-- Node14 -->
<g id="node14" class="node">
<title>Node14</title>
<g id="a_node14"><a xlink:href="AbstractGeometry_8hpp.html" target="_top" xlink:title=" ">
<polygon fill="white" stroke="black" points="1105,-235.5 1105,-254.5 1308,-254.5 1308,-235.5 1105,-235.5"/>
<text text-anchor="middle" x="1206.5" y="-242.5" font-family="Helvetica,sans-Serif" font-size="10.00">Core/Geometry/AbstractGeometry.hpp</text>
</a>
</g>
</g>
<!-- Node2&#45;&gt;Node14 -->
<g id="edge14" class="edge">
<title>Node2&#45;&gt;Node14</title>
<path fill="none" stroke="midnightblue" d="M1251.66,-347.37C1243.68,-329.46 1225.17,-287.92 1214.5,-263.95"/>
<polygon fill="midnightblue" stroke="midnightblue" points="1217.59,-262.3 1210.33,-254.59 1211.2,-265.15 1217.59,-262.3"/>
</g>
<!-- Node15 -->
<g id="node15" class="node">
<title>Node15</title>
<g id="a_node15"><a xlink:href="Types_8hpp.html" target="_top" xlink:title=" ">
<polygon fill="white" stroke="black" points="1422,-174 1422,-193 1513,-193 1513,-174 1422,-174"/>
<text text-anchor="middle" x="1467.5" y="-181" font-family="Helvetica,sans-Serif" font-size="10.00">Core/Types.hpp</text>
</a>
</g>
</g>
<!-- Node2&#45;&gt;Node15 -->
<g id="edge22" class="edge">
<title>Node2&#45;&gt;Node15</title>
<path fill="none" stroke="midnightblue" d="M1270.11,-347.48C1292.09,-334.76 1335.09,-310.23 1372.5,-291 1405.74,-273.92 1424.54,-283.69 1448.5,-255 1460.66,-240.44 1465.1,-218.81 1466.68,-203.35"/>
<polygon fill="midnightblue" stroke="midnightblue" points="1470.17,-203.6 1467.41,-193.37 1463.19,-203.09 1470.17,-203.6"/>
</g>
<!-- Node19 -->
<g id="node19" class="node">
<title>Node19</title>
<g id="a_node19"><a xlink:href="Attribs_8hpp.html" target="_top" xlink:title=" ">
<polygon fill="white" stroke="black" points="720,-291.5 720,-310.5 841,-310.5 841,-291.5 720,-291.5"/>
<text text-anchor="middle" x="780.5" y="-298.5" font-family="Helvetica,sans-Serif" font-size="10.00">Core/Utils/Attribs.hpp</text>
</a>
</g>
</g>
<!-- Node2&#45;&gt;Node19 -->
<g id="edge23" class="edge">
<title>Node2&#45;&gt;Node19</title>
<path fill="none" stroke="midnightblue" d="M1180.5,-347.47C1090.22,-337.21 939.76,-320.11 851.37,-310.06"/>
<polygon fill="midnightblue" stroke="midnightblue" points="851.5,-306.55 841.17,-308.9 850.71,-313.5 851.5,-306.55"/>
</g>
<!-- Node24 -->
<g id="node24" class="node">
<title>Node24</title>
<g id="a_node24"><a xlink:href="Observable_8hpp.html" target="_top" xlink:title=" ">
<polygon fill="white" stroke="black" points="942.5,-235.5 942.5,-254.5 1086.5,-254.5 1086.5,-235.5 942.5,-235.5"/>
<text text-anchor="middle" x="1014.5" y="-242.5" font-family="Helvetica,sans-Serif" font-size="10.00">Core/Utils/Observable.hpp</text>
</a>
</g>
</g>
<!-- Node2&#45;&gt;Node24 -->
<g id="edge53" class="edge">
<title>Node2&#45;&gt;Node24</title>
<path fill="none" stroke="midnightblue" d="M1236.59,-347.37C1194.35,-328.09 1092.18,-281.45 1042.52,-258.79"/>
<polygon fill="midnightblue" stroke="midnightblue" points="1043.87,-255.56 1033.32,-254.59 1040.97,-261.93 1043.87,-255.56"/>
</g>
<!-- Node2&#45;&gt;Node31 -->
<g id="edge42" class="edge">
<title>Node2&#45;&gt;Node31</title>
<path fill="none" stroke="midnightblue" d="M1265.47,-347.37C1286.89,-328.81 1337.57,-284.91 1364.68,-261.44"/>
<polygon fill="midnightblue" stroke="midnightblue" points="1367.31,-263.78 1372.58,-254.59 1362.73,-258.49 1367.31,-263.78"/>
</g>
<!-- Node37 -->
<g id="node37" class="node">
<title>Node37</title>
<g id="a_node37"><a xlink:href="TriangleMesh_8inl.html" target="_top" xlink:title=" ">
<polygon fill="white" stroke="black" points="1381,-291.5 1381,-310.5 1554,-310.5 1554,-291.5 1381,-291.5"/>
<text text-anchor="middle" x="1467.5" y="-298.5" font-family="Helvetica,sans-Serif" font-size="10.00">Core/Geometry/TriangleMesh.inl</text>
</a>
</g>
</g>
<!-- Node2&#45;&gt;Node37 -->
<g id="edge54" class="edge">
<title>Node2&#45;&gt;Node37</title>
<path fill="none" stroke="midnightblue" d="M1284,-347.44C1318.63,-338.1 1377.3,-323.12 1419.03,-312.93"/>
<polygon fill="midnightblue" stroke="midnightblue" points="1420.09,-316.28 1428.99,-310.52 1418.44,-309.47 1420.09,-316.28"/>
</g>
<!-- Node4 -->
<g id="node4" class="node">
<title>Node4</title>
<g id="a_node4"><a xlink:href="AlignedStdVector_8hpp.html" target="_top" xlink:title=" ">
<polygon fill="white" stroke="black" points="38.5,-168.5 38.5,-198.5 188.5,-198.5 188.5,-168.5 38.5,-168.5"/>
<text text-anchor="start" x="46.5" y="-186.5" font-family="Helvetica,sans-Serif" font-size="10.00">Core/Containers/AlignedStd</text>
<text text-anchor="middle" x="113.5" y="-175.5" font-family="Helvetica,sans-Serif" font-size="10.00">Vector.hpp</text>
</a>
</g>
</g>
<!-- Node3&#45;&gt;Node4 -->
<g id="edge3" class="edge">
<title>Node3&#45;&gt;Node4</title>
<path fill="none" stroke="midnightblue" d="M435.04,-235.47C377.45,-226.98 286.7,-213.39 198.5,-199.14"/>
<polygon fill="midnightblue" stroke="midnightblue" points="199.02,-195.68 188.59,-197.54 197.9,-202.59 199.02,-195.68"/>
</g>
<!-- Node3&#45;&gt;Node5 -->
<g id="edge13" class="edge">
<title>Node3&#45;&gt;Node5</title>
<path fill="none" stroke="midnightblue" d="M501.77,-235.3C520.92,-215.15 568.53,-165.06 593.17,-139.12"/>
<polygon fill="midnightblue" stroke="midnightblue" points="595.95,-141.28 600.3,-131.62 590.88,-136.46 595.95,-141.28"/>
</g>
<!-- Node4&#45;&gt;Node5 -->
<g id="edge4" class="edge">
<title>Node4&#45;&gt;Node5</title>
<path fill="none" stroke="midnightblue" d="M188.57,-169.3C191.58,-168.85 194.57,-168.41 197.5,-168 322.15,-150.43 468.9,-135.82 548.97,-128.35"/>
<polygon fill="midnightblue" stroke="midnightblue" points="549.71,-131.8 559.35,-127.39 549.07,-124.83 549.71,-131.8"/>
</g>
<!-- Node12 -->
<g id="node12" class="node">
<title>Node12</title>
<g id="a_node12"><a xlink:title=" ">
<polygon fill="white" stroke="#bfbfbf" points="0,-112.5 0,-131.5 93,-131.5 93,-112.5 0,-112.5"/>
<text text-anchor="middle" x="46.5" y="-119.5" font-family="Helvetica,sans-Serif" font-size="10.00">Eigen/StdVector</text>
</a>
</g>
</g>
<!-- Node4&#45;&gt;Node12 -->
<g id="edge11" class="edge">
<title>Node4&#45;&gt;Node12</title>
<path fill="none" stroke="midnightblue" d="M97.62,-168.4C87.48,-159.4 74.34,-147.72 63.91,-138.47"/>
<polygon fill="midnightblue" stroke="midnightblue" points="66.05,-135.68 56.25,-131.66 61.4,-140.92 66.05,-135.68"/>
</g>
<!-- Node13 -->
<g id="node13" class="node">
<title>Node13</title>
<g id="a_node13"><a xlink:title=" ">
<polygon fill="white" stroke="#bfbfbf" points="111,-112.5 111,-131.5 158,-131.5 158,-112.5 111,-112.5"/>
<text text-anchor="middle" x="134.5" y="-119.5" font-family="Helvetica,sans-Serif" font-size="10.00">vector</text>
</a>
</g>
</g>
<!-- Node4&#45;&gt;Node13 -->
<g id="edge12" class="edge">
<title>Node4&#45;&gt;Node13</title>
<path fill="none" stroke="midnightblue" d="M118.48,-168.4C121.34,-160.29 124.97,-150.01 128.05,-141.28"/>
<polygon fill="midnightblue" stroke="midnightblue" points="131.42,-142.25 131.44,-131.66 124.82,-139.92 131.42,-142.25"/>
</g>
<!-- Node6 -->
<g id="node6" class="node">
<title>Node6</title>
<g id="a_node6"><a xlink:href="CoreMacros_8hpp.html" target="_top" xlink:title=" ">
<polygon fill="white" stroke="black" points="548,-56.5 548,-75.5 669,-75.5 669,-56.5 548,-56.5"/>
<text text-anchor="middle" x="608.5" y="-63.5" font-family="Helvetica,sans-Serif" font-size="10.00">Core/CoreMacros.hpp</text>
</a>
</g>
</g>
<!-- Node5&#45;&gt;Node6 -->
<g id="edge5" class="edge">
<title>Node5&#45;&gt;Node6</title>
<path fill="none" stroke="midnightblue" d="M608.5,-112.08C608.5,-105.01 608.5,-94.86 608.5,-85.99"/>
<polygon fill="midnightblue" stroke="midnightblue" points="612,-85.75 608.5,-75.75 605,-85.75 612,-85.75"/>
</g>
<!-- Node7 -->
<g id="node7" class="node">
<title>Node7</title>
<g id="a_node7"><a xlink:title=" ">
<polygon fill="white" stroke="#bfbfbf" points="686.5,-0.5 686.5,-19.5 738.5,-19.5 738.5,-0.5 686.5,-0.5"/>
<text text-anchor="middle" x="712.5" y="-7.5" font-family="Helvetica,sans-Serif" font-size="10.00">cassert</text>
</a>
</g>
</g>
<!-- Node6&#45;&gt;Node7 -->
<g id="edge6" class="edge">
<title>Node6&#45;&gt;Node7</title>
<path fill="none" stroke="midnightblue" d="M625.21,-56.32C641.81,-47.7 667.5,-34.36 686.72,-24.39"/>
<polygon fill="midnightblue" stroke="midnightblue" points="688.57,-27.37 695.83,-19.65 685.34,-21.16 688.57,-27.37"/>
</g>
<!-- Node8 -->
<g id="node8" class="node">
<title>Node8</title>
<g id="a_node8"><a xlink:title=" ">
<polygon fill="white" stroke="#bfbfbf" points="478.5,-0.5 478.5,-19.5 524.5,-19.5 524.5,-0.5 478.5,-0.5"/>
<text text-anchor="middle" x="501.5" y="-7.5" font-family="Helvetica,sans-Serif" font-size="10.00">cstdio</text>
</a>
</g>
</g>
<!-- Node6&#45;&gt;Node8 -->
<g id="edge7" class="edge">
<title>Node6&#45;&gt;Node8</title>
<path fill="none" stroke="midnightblue" d="M591.31,-56.32C574.15,-47.66 547.55,-34.24 527.75,-24.25"/>
<polygon fill="midnightblue" stroke="midnightblue" points="529.15,-21.04 518.65,-19.65 526,-27.28 529.15,-21.04"/>
</g>
<!-- Node9 -->
<g id="node9" class="node">
<title>Node9</title>
<g id="a_node9"><a xlink:title=" ">
<polygon fill="white" stroke="#bfbfbf" points="542.5,-0.5 542.5,-19.5 602.5,-19.5 602.5,-0.5 542.5,-0.5"/>
<text text-anchor="middle" x="572.5" y="-7.5" font-family="Helvetica,sans-Serif" font-size="10.00">iostream</text>
</a>
</g>
</g>
<!-- Node6&#45;&gt;Node9 -->
<g id="edge8" class="edge">
<title>Node6&#45;&gt;Node9</title>
<path fill="none" stroke="midnightblue" d="M602.56,-56.08C597.52,-48.53 590.16,-37.49 583.99,-28.23"/>
<polygon fill="midnightblue" stroke="midnightblue" points="586.79,-26.13 578.33,-19.75 580.97,-30.01 586.79,-26.13"/>
</g>
<!-- Node10 -->
<g id="node10" class="node">
<title>Node10</title>
<g id="a_node10"><a xlink:title=" ">
<polygon fill="white" stroke="#bfbfbf" points="309.5,-0.5 309.5,-19.5 365.5,-19.5 365.5,-0.5 309.5,-0.5"/>
<text text-anchor="middle" x="337.5" y="-7.5" font-family="Helvetica,sans-Serif" font-size="10.00">sstream</text>
</a>
</g>
</g>
<!-- Node6&#45;&gt;Node10 -->
<g id="edge9" class="edge">
<title>Node6&#45;&gt;Node10</title>
<path fill="none" stroke="midnightblue" d="M565.56,-56.44C513.31,-46.03 425.88,-28.61 375.82,-18.63"/>
<polygon fill="midnightblue" stroke="midnightblue" points="376.22,-15.15 365.73,-16.62 374.85,-22.01 376.22,-15.15"/>
</g>
<!-- Node11 -->
<g id="node11" class="node">
<title>Node11</title>
<g id="a_node11"><a xlink:title=" ">
<polygon fill="white" stroke="#bfbfbf" points="620.5,-0.5 620.5,-19.5 668.5,-19.5 668.5,-0.5 620.5,-0.5"/>
<text text-anchor="middle" x="644.5" y="-7.5" font-family="Helvetica,sans-Serif" font-size="10.00">thread</text>
</a>
</g>
</g>
<!-- Node6&#45;&gt;Node11 -->
<g id="edge10" class="edge">
<title>Node6&#45;&gt;Node11</title>
<path fill="none" stroke="midnightblue" d="M614.44,-56.08C619.48,-48.53 626.84,-37.49 633.01,-28.23"/>
<polygon fill="midnightblue" stroke="midnightblue" points="636.03,-30.01 638.67,-19.75 630.21,-26.13 636.03,-30.01"/>
</g>
<!-- Node14&#45;&gt;Node5 -->
<g id="edge15" class="edge">
<title>Node14&#45;&gt;Node5</title>
<path fill="none" stroke="midnightblue" d="M1185.34,-235.43C1145.27,-219.58 1055.29,-185.65 976.5,-168 869.19,-143.96 741.21,-131.96 667.94,-126.64"/>
<polygon fill="midnightblue" stroke="midnightblue" points="667.76,-123.12 657.54,-125.91 667.27,-130.11 667.76,-123.12"/>
</g>
<!-- Node14&#45;&gt;Node15 -->
<g id="edge16" class="edge">
<title>Node14&#45;&gt;Node15</title>
<path fill="none" stroke="midnightblue" d="M1243.89,-235.48C1290.31,-224.89 1369.52,-206.84 1420.14,-195.3"/>
<polygon fill="midnightblue" stroke="midnightblue" points="1421.2,-198.64 1430.17,-193.01 1419.65,-191.82 1421.2,-198.64"/>
</g>
<!-- Node15&#45;&gt;Node5 -->
<g id="edge17" class="edge">
<title>Node15&#45;&gt;Node5</title>
<path fill="none" stroke="midnightblue" d="M1421.88,-178.98C1382.78,-175.98 1324.94,-171.6 1274.5,-168 1050.64,-152.03 784.35,-134.47 667.93,-126.86"/>
<polygon fill="midnightblue" stroke="midnightblue" points="668.01,-123.36 657.8,-126.2 667.55,-130.35 668.01,-123.36"/>
</g>
<!-- Node16 -->
<g id="node16" class="node">
<title>Node16</title>
<g id="a_node16"><a xlink:title=" ">
<polygon fill="white" stroke="#bfbfbf" points="1435,-112.5 1435,-131.5 1504,-131.5 1504,-112.5 1435,-112.5"/>
<text text-anchor="middle" x="1469.5" y="-119.5" font-family="Helvetica,sans-Serif" font-size="10.00">Eigen/Core</text>
</a>
</g>
</g>
<!-- Node15&#45;&gt;Node16 -->
<g id="edge18" class="edge">
<title>Node15&#45;&gt;Node16</title>
<path fill="none" stroke="midnightblue" d="M1467.79,-173.98C1468.07,-165.58 1468.51,-152.48 1468.87,-141.66"/>
<polygon fill="midnightblue" stroke="midnightblue" points="1472.38,-141.62 1469.21,-131.51 1465.38,-141.39 1472.38,-141.62"/>
</g>
<!-- Node17 -->
<g id="node17" class="node">
<title>Node17</title>
<g id="a_node17"><a xlink:title=" ">
<polygon fill="white" stroke="#bfbfbf" points="1322,-112.5 1322,-131.5 1417,-131.5 1417,-112.5 1322,-112.5"/>
<text text-anchor="middle" x="1369.5" y="-119.5" font-family="Helvetica,sans-Serif" font-size="10.00">Eigen/Geometry</text>
</a>
</g>
</g>
<!-- Node15&#45;&gt;Node17 -->
<g id="edge19" class="edge">
<title>Node15&#45;&gt;Node17</title>
<path fill="none" stroke="midnightblue" d="M1453.46,-173.98C1437.45,-164.25 1411.05,-148.23 1392.13,-136.74"/>
<polygon fill="midnightblue" stroke="midnightblue" points="1393.88,-133.71 1383.51,-131.51 1390.25,-139.69 1393.88,-133.71"/>
</g>
<!-- Node18 -->
<g id="node18" class="node">
<title>Node18</title>
<g id="a_node18"><a xlink:title=" ">
<polygon fill="white" stroke="#bfbfbf" points="1522.5,-112.5 1522.5,-131.5 1602.5,-131.5 1602.5,-112.5 1522.5,-112.5"/>
<text text-anchor="middle" x="1562.5" y="-119.5" font-family="Helvetica,sans-Serif" font-size="10.00">Eigen/Sparse</text>
</a>
</g>
</g>
<!-- Node15&#45;&gt;Node18 -->
<g id="edge20" class="edge">
<title>Node15&#45;&gt;Node18</title>
<path fill="none" stroke="midnightblue" d="M1481.11,-173.98C1496.56,-164.3 1521.99,-148.37 1540.32,-136.89"/>
<polygon fill="midnightblue" stroke="midnightblue" points="1542.3,-139.78 1548.91,-131.51 1538.58,-133.85 1542.3,-139.78"/>
</g>
<!-- Node19&#45;&gt;Node3 -->
<g id="edge25" class="edge">
<title>Node19&#45;&gt;Node3</title>
<path fill="none" stroke="midnightblue" d="M735.02,-291.44C684.54,-281.94 603.04,-266.61 548.88,-256.42"/>
<polygon fill="midnightblue" stroke="midnightblue" points="549.24,-252.93 538.76,-254.52 547.94,-259.81 549.24,-252.93"/>
</g>
<!-- Node19&#45;&gt;Node5 -->
<g id="edge26" class="edge">
<title>Node19&#45;&gt;Node5</title>
<path fill="none" stroke="midnightblue" d="M719.88,-297.37C687.76,-292.68 650.34,-281.37 627.5,-255 599.92,-223.16 601.94,-169.91 605.43,-141.76"/>
<polygon fill="midnightblue" stroke="midnightblue" points="608.92,-142.07 606.87,-131.68 601.99,-141.08 608.92,-142.07"/>
</g>
<!-- Node20 -->
<g id="node20" class="node">
<title>Node20</title>
<g id="a_node20"><a xlink:title=" ">
<polygon fill="white" stroke="#bfbfbf" points="929.5,-174 929.5,-193 967.5,-193 967.5,-174 929.5,-174"/>
<text text-anchor="middle" x="948.5" y="-181" font-family="Helvetica,sans-Serif" font-size="10.00">map</text>
</a>
</g>
</g>
<!-- Node19&#45;&gt;Node20 -->
<g id="edge24" class="edge">
<title>Node19&#45;&gt;Node20</title>
<path fill="none" stroke="midnightblue" d="M780.77,-291.17C781.66,-277.35 785.37,-250.59 800.5,-235 832.31,-202.21 886.26,-190.71 919.49,-186.67"/>
<polygon fill="midnightblue" stroke="midnightblue" points="919.92,-190.15 929.49,-185.61 919.18,-183.19 919.92,-190.15"/>
</g>
<!-- Node21 -->
<g id="node21" class="node">
<title>Node21</title>
<g id="a_node21"><a xlink:href="Index_8hpp.html" target="_top" xlink:title=" ">
<polygon fill="white" stroke="black" points="636.5,-235.5 636.5,-254.5 752.5,-254.5 752.5,-235.5 636.5,-235.5"/>
<text text-anchor="middle" x="694.5" y="-242.5" font-family="Helvetica,sans-Serif" font-size="10.00">Core/Utils/Index.hpp</text>
</a>
</g>
</g>
<!-- Node19&#45;&gt;Node21 -->
<g id="edge27" class="edge">
<title>Node19&#45;&gt;Node21</title>
<path fill="none" stroke="midnightblue" d="M766.68,-291.32C753.27,-282.9 732.68,-269.97 716.91,-260.07"/>
<polygon fill="midnightblue" stroke="midnightblue" points="718.61,-257.01 708.28,-254.65 714.89,-262.94 718.61,-257.01"/>
</g>
<!-- Node19&#45;&gt;Node24 -->
<g id="edge32" class="edge">
<title>Node19&#45;&gt;Node24</title>
<path fill="none" stroke="midnightblue" d="M817.58,-291.44C858.23,-282.06 923.53,-266.99 967.68,-256.8"/>
<polygon fill="midnightblue" stroke="midnightblue" points="968.64,-260.18 977.6,-254.52 967.06,-253.35 968.64,-260.18"/>
</g>
<!-- Node30 -->
<g id="node30" class="node">
<title>Node30</title>
<g id="a_node30"><a xlink:href="Attribs_8inl.html" target="_top" xlink:title=" ">
<polygon fill="white" stroke="black" points="809,-235.5 809,-254.5 924,-254.5 924,-235.5 809,-235.5"/>
<text text-anchor="middle" x="866.5" y="-242.5" font-family="Helvetica,sans-Serif" font-size="10.00">Core/Utils/Attribs.inl</text>
</a>
</g>
</g>
<!-- Node19&#45;&gt;Node30 -->
<g id="edge41" class="edge">
<title>Node19&#45;&gt;Node30</title>
<path fill="none" stroke="midnightblue" d="M794.32,-291.32C807.73,-282.9 828.32,-269.97 844.09,-260.07"/>
<polygon fill="midnightblue" stroke="midnightblue" points="846.11,-262.94 852.72,-254.65 842.39,-257.01 846.11,-262.94"/>
</g>
<!-- Node21&#45;&gt;Node5 -->
<g id="edge28" class="edge">
<title>Node21&#45;&gt;Node5</title>
<path fill="none" stroke="midnightblue" d="M688.32,-235.3C674.12,-215.33 639.01,-165.92 620.44,-139.8"/>
<polygon fill="midnightblue" stroke="midnightblue" points="623.28,-137.75 614.63,-131.62 617.57,-141.8 623.28,-137.75"/>
</g>
<!-- Node22 -->
<g id="node22" class="node">
<title>Node22</title>
<g id="a_node22"><a xlink:title=" ">
<polygon fill="white" stroke="#bfbfbf" points="674.5,-174 674.5,-193 718.5,-193 718.5,-174 674.5,-174"/>
<text text-anchor="middle" x="696.5" y="-181" font-family="Helvetica,sans-Serif" font-size="10.00">limits</text>
</a>
</g>
</g>
<!-- Node21&#45;&gt;Node22 -->
<g id="edge29" class="edge">
<title>Node21&#45;&gt;Node22</title>
<path fill="none" stroke="midnightblue" d="M694.79,-235.48C695.07,-227.08 695.51,-213.98 695.87,-203.16"/>
<polygon fill="midnightblue" stroke="midnightblue" points="699.38,-203.12 696.21,-193.01 692.38,-202.89 699.38,-203.12"/>
</g>
<!-- Node23 -->
<g id="node23" class="node">
<title>Node23</title>
<g id="a_node23"><a xlink:href="Index_8inl.html" target="_top" xlink:title=" ">
<polygon fill="white" stroke="black" points="736.5,-174 736.5,-193 846.5,-193 846.5,-174 736.5,-174"/>
<text text-anchor="middle" x="791.5" y="-181" font-family="Helvetica,sans-Serif" font-size="10.00">Core/Utils/Index.inl</text>
</a>
</g>
</g>
<!-- Node21&#45;&gt;Node23 -->
<g id="edge30" class="edge">
<title>Node21&#45;&gt;Node23</title>
<path fill="none" stroke="midnightblue" d="M703.5,-235.48C717.35,-225.67 743.53,-209.43 763.86,-197.92"/>
<polygon fill="midnightblue" stroke="midnightblue" points="765.68,-200.92 772.73,-193.01 762.29,-194.8 765.68,-200.92"/>
</g>
<!-- Node23&#45;&gt;Node21 -->
<g id="edge31" class="edge">
<title>Node23&#45;&gt;Node21</title>
<path fill="none" stroke="midnightblue" d="M782.53,-193.01C768.69,-202.81 742.51,-219.04 722.17,-230.56"/>
<polygon fill="midnightblue" stroke="midnightblue" points="720.35,-227.56 713.3,-235.48 723.74,-233.69 720.35,-227.56"/>
</g>
<!-- Node24&#45;&gt;Node20 -->
<g id="edge40" class="edge">
<title>Node24&#45;&gt;Node20</title>
<path fill="none" stroke="midnightblue" d="M1005.04,-235.48C994.75,-226.2 978.08,-211.17 965.51,-199.83"/>
<polygon fill="midnightblue" stroke="midnightblue" points="967.71,-197.11 957.94,-193.01 963.02,-202.3 967.71,-197.11"/>
</g>
<!-- Node25 -->
<g id="node25" class="node">
<title>Node25</title>
<g id="a_node25"><a xlink:href="Log_8hpp.html" target="_top" xlink:title=" ">
<polygon fill="white" stroke="black" points="206.5,-174 206.5,-193 312.5,-193 312.5,-174 206.5,-174"/>
<text text-anchor="middle" x="259.5" y="-181" font-family="Helvetica,sans-Serif" font-size="10.00">Core/Utils/Log.hpp</text>
</a>
</g>
</g>
<!-- Node24&#45;&gt;Node25 -->
<g id="edge33" class="edge">
<title>Node24&#45;&gt;Node25</title>
<path fill="none" stroke="midnightblue" d="M942.09,-235.82C939.19,-235.54 936.32,-235.26 933.5,-235 709.28,-214.15 442.47,-196.18 322.93,-188.49"/>
<polygon fill="midnightblue" stroke="midnightblue" points="323.06,-184.99 312.85,-187.84 322.61,-191.98 323.06,-184.99"/>
</g>
<!-- Node29 -->
<g id="node29" class="node">
<title>Node29</title>
<g id="a_node29"><a xlink:title=" ">
<polygon fill="white" stroke="#bfbfbf" points="1200,-174 1200,-193 1265,-193 1265,-174 1200,-174"/>
<text text-anchor="middle" x="1232.5" y="-181" font-family="Helvetica,sans-Serif" font-size="10.00">functional</text>
</a>
</g>
</g>
<!-- Node24&#45;&gt;Node29 -->
<g id="edge39" class="edge">
<title>Node24&#45;&gt;Node29</title>
<path fill="none" stroke="midnightblue" d="M1051.49,-235.48C1087.27,-227.01 1142.92,-213.27 1190.5,-199 1193.27,-198.17 1196.13,-197.27 1199,-196.34"/>
<polygon fill="midnightblue" stroke="midnightblue" points="1200.25,-199.61 1208.62,-193.12 1198.03,-192.97 1200.25,-199.61"/>
</g>
<!-- Node25&#45;&gt;Node5 -->
<g id="edge34" class="edge">
<title>Node25&#45;&gt;Node5</title>
<path fill="none" stroke="midnightblue" d="M297.34,-173.93C306.84,-171.88 317.03,-169.78 326.5,-168 403.26,-153.58 492.34,-139.87 549.51,-131.45"/>
<polygon fill="midnightblue" stroke="midnightblue" points="550.07,-134.91 559.45,-129.99 549.05,-127.98 550.07,-134.91"/>
</g>
<!-- Node25&#45;&gt;Node10 -->
<g id="edge36" class="edge">
<title>Node25&#45;&gt;Node10</title>
<path fill="none" stroke="midnightblue" d="M250.1,-173.9C236.87,-160.7 215.45,-134.6 225.5,-112 243.2,-72.2 285.21,-41.47 312.44,-24.83"/>
<polygon fill="midnightblue" stroke="midnightblue" points="314.57,-27.64 321.4,-19.54 311.01,-21.62 314.57,-27.64"/>
</g>
<!-- Node26 -->
<g id="node26" class="node">
<title>Node26</title>
<g id="a_node26"><a xlink:title=" ">
<polygon fill="white" stroke="#bfbfbf" points="364.5,-112.5 364.5,-131.5 408.5,-131.5 408.5,-112.5 364.5,-112.5"/>
<text text-anchor="middle" x="386.5" y="-119.5" font-family="Helvetica,sans-Serif" font-size="10.00">ctime</text>
</a>
</g>
</g>
<!-- Node25&#45;&gt;Node26 -->
<g id="edge35" class="edge">
<title>Node25&#45;&gt;Node26</title>
<path fill="none" stroke="midnightblue" d="M277.7,-173.98C299.01,-163.99 334.53,-147.35 359.16,-135.81"/>
<polygon fill="midnightblue" stroke="midnightblue" points="360.77,-138.92 368.34,-131.51 357.8,-132.58 360.77,-138.92"/>
</g>
<!-- Node27 -->
<g id="node27" class="node">
<title>Node27</title>
<g id="a_node27"><a xlink:title=" ">
<polygon fill="white" stroke="#bfbfbf" points="234.5,-112.5 234.5,-131.5 284.5,-131.5 284.5,-112.5 234.5,-112.5"/>
<text text-anchor="middle" x="259.5" y="-119.5" font-family="Helvetica,sans-Serif" font-size="10.00">stdio.h</text>
</a>
</g>
</g>
<!-- Node25&#45;&gt;Node27 -->
<g id="edge37" class="edge">
<title>Node25&#45;&gt;Node27</title>
<path fill="none" stroke="midnightblue" d="M259.5,-173.98C259.5,-165.58 259.5,-152.48 259.5,-141.66"/>
<polygon fill="midnightblue" stroke="midnightblue" points="263,-141.51 259.5,-131.51 256,-141.51 263,-141.51"/>
</g>
<!-- Node28 -->
<g id="node28" class="node">
<title>Node28</title>
<g id="a_node28"><a xlink:title=" ">
<polygon fill="white" stroke="#bfbfbf" points="302.5,-112.5 302.5,-131.5 346.5,-131.5 346.5,-112.5 302.5,-112.5"/>
<text text-anchor="middle" x="324.5" y="-119.5" font-family="Helvetica,sans-Serif" font-size="10.00">string</text>
</a>
</g>
</g>
<!-- Node25&#45;&gt;Node28 -->
<g id="edge38" class="edge">
<title>Node25&#45;&gt;Node28</title>
<path fill="none" stroke="midnightblue" d="M268.81,-173.98C278.95,-164.7 295.36,-149.67 307.75,-138.33"/>
<polygon fill="midnightblue" stroke="midnightblue" points="310.19,-140.84 315.2,-131.51 305.46,-135.68 310.19,-140.84"/>
</g>
<!-- Node31&#45;&gt;Node6 -->
<g id="edge43" class="edge">
<title>Node31&#45;&gt;Node6</title>
<path fill="none" stroke="midnightblue" d="M1373.56,-235.45C1356.09,-219.31 1315.56,-184.49 1274.5,-168 1069.46,-85.66 804.3,-69.85 679.45,-67.21"/>
<polygon fill="midnightblue" stroke="midnightblue" points="679.32,-63.71 669.26,-67.02 679.19,-70.71 679.32,-63.71"/>
</g>
<!-- Node31&#45;&gt;Node16 -->
<g id="edge50" class="edge">
<title>Node31&#45;&gt;Node16</title>
<path fill="none" stroke="midnightblue" d="M1384.51,-235.31C1388.28,-220.4 1397.49,-189.48 1413.5,-168 1422.44,-156.01 1435.3,-145.37 1446.43,-137.46"/>
<polygon fill="midnightblue" stroke="midnightblue" points="1448.58,-140.23 1454.89,-131.72 1444.65,-134.44 1448.58,-140.23"/>
</g>
<!-- Node31&#45;&gt;Node17 -->
<g id="edge51" class="edge">
<title>Node31&#45;&gt;Node17</title>
<path fill="none" stroke="midnightblue" d="M1381.57,-235.3C1379.48,-215.85 1374.39,-168.49 1371.53,-141.9"/>
<polygon fill="midnightblue" stroke="midnightblue" points="1374.97,-141.19 1370.43,-131.62 1368.01,-141.94 1374.97,-141.19"/>
</g>
<!-- Node32 -->
<g id="node32" class="node">
<title>Node32</title>
<g id="a_node32"><a xlink:href="Math_8hpp.html" target="_top" xlink:title=" ">
<polygon fill="white" stroke="black" points="1683.5,-174 1683.5,-193 1799.5,-193 1799.5,-174 1683.5,-174"/>
<text text-anchor="middle" x="1741.5" y="-181" font-family="Helvetica,sans-Serif" font-size="10.00">Core/Math/Math.hpp</text>
</a>
</g>
</g>
<!-- Node31&#45;&gt;Node32 -->
<g id="edge44" class="edge">
<title>Node31&#45;&gt;Node32</title>
<path fill="none" stroke="midnightblue" d="M1433.94,-235.48C1498.98,-224.69 1610.85,-206.15 1680.24,-194.65"/>
<polygon fill="midnightblue" stroke="midnightblue" points="1680.87,-198.1 1690.16,-193.01 1679.72,-191.19 1680.87,-198.1"/>
</g>
<!-- Node36 -->
<g id="node36" class="node">
<title>Node36</title>
<g id="a_node36"><a xlink:title=" ">
<polygon fill="white" stroke="#bfbfbf" points="1127.5,-174 1127.5,-193 1181.5,-193 1181.5,-174 1127.5,-174"/>
<text text-anchor="middle" x="1154.5" y="-181" font-family="Helvetica,sans-Serif" font-size="10.00">random</text>
</a>
</g>
</g>
<!-- Node31&#45;&gt;Node36 -->
<g id="edge52" class="edge">
<title>Node31&#45;&gt;Node36</title>
<path fill="none" stroke="midnightblue" d="M1338.4,-235.47C1299.38,-227.48 1241.1,-214.47 1191.5,-199 1189.08,-198.24 1186.59,-197.41 1184.11,-196.53"/>
<polygon fill="midnightblue" stroke="midnightblue" points="1185.26,-193.22 1174.67,-193 1182.81,-199.78 1185.26,-193.22"/>
</g>
<!-- Node32&#45;&gt;Node5 -->
<g id="edge45" class="edge">
<title>Node32&#45;&gt;Node5</title>
<path fill="none" stroke="midnightblue" d="M1683.31,-177.51C1646.65,-174.48 1598.33,-170.69 1555.5,-168 1220.02,-146.96 817.12,-130.85 667.87,-125.2"/>
<polygon fill="midnightblue" stroke="midnightblue" points="667.7,-121.69 657.57,-124.81 667.43,-128.68 667.7,-121.69"/>
</g>
<!-- Node33 -->
<g id="node33" class="node">
<title>Node33</title>
<g id="a_node33"><a xlink:title=" ">
<polygon fill="white" stroke="#bfbfbf" points="1814.5,-112.5 1814.5,-131.5 1878.5,-131.5 1878.5,-112.5 1814.5,-112.5"/>
<text text-anchor="middle" x="1846.5" y="-119.5" font-family="Helvetica,sans-Serif" font-size="10.00">algorithm</text>
</a>
</g>
</g>
<!-- Node32&#45;&gt;Node33 -->
<g id="edge46" class="edge">
<title>Node32&#45;&gt;Node33</title>
<path fill="none" stroke="midnightblue" d="M1756.54,-173.98C1773.78,-164.21 1802.24,-148.08 1822.53,-136.58"/>
<polygon fill="midnightblue" stroke="midnightblue" points="1824.51,-139.48 1831.48,-131.51 1821.06,-133.39 1824.51,-139.48"/>
</g>
<!-- Node34 -->
<g id="node34" class="node">
<title>Node34</title>
<g id="a_node34"><a xlink:title=" ">
<polygon fill="white" stroke="#bfbfbf" points="1621,-112.5 1621,-131.5 1668,-131.5 1668,-112.5 1621,-112.5"/>
<text text-anchor="middle" x="1644.5" y="-119.5" font-family="Helvetica,sans-Serif" font-size="10.00">cmath</text>
</a>
</g>
</g>
<!-- Node32&#45;&gt;Node34 -->
<g id="edge47" class="edge">
<title>Node32&#45;&gt;Node34</title>
<path fill="none" stroke="midnightblue" d="M1727.6,-173.98C1711.83,-164.3 1685.86,-148.37 1667.15,-136.89"/>
<polygon fill="midnightblue" stroke="midnightblue" points="1668.73,-133.75 1658.37,-131.51 1665.07,-139.72 1668.73,-133.75"/>
</g>
<!-- Node35 -->
<g id="node35" class="node">
<title>Node35</title>
<g id="a_node35"><a xlink:href="Math_8inl.html" target="_top" xlink:title=" ">
<polygon fill="white" stroke="black" points="1686.5,-112.5 1686.5,-131.5 1796.5,-131.5 1796.5,-112.5 1686.5,-112.5"/>
<text text-anchor="middle" x="1741.5" y="-119.5" font-family="Helvetica,sans-Serif" font-size="10.00">Core/Math/Math.inl</text>
</a>
</g>
</g>
<!-- Node32&#45;&gt;Node35 -->
<g id="edge48" class="edge">
<title>Node32&#45;&gt;Node35</title>
<path fill="none" stroke="midnightblue" d="M1736.6,-173.98C1734.77,-165.58 1734.3,-152.48 1735.19,-141.66"/>
<polygon fill="midnightblue" stroke="midnightblue" points="1738.69,-141.9 1736.6,-131.51 1731.75,-140.93 1738.69,-141.9"/>
</g>
<!-- Node35&#45;&gt;Node32 -->
<g id="edge49" class="edge">
<title>Node35&#45;&gt;Node32</title>
<path fill="none" stroke="midnightblue" d="M1746.4,-131.51C1748.23,-139.9 1748.7,-153 1747.82,-163.82"/>
<polygon fill="midnightblue" stroke="midnightblue" points="1744.31,-163.59 1746.4,-173.98 1751.25,-164.55 1744.31,-163.59"/>
</g>
<!-- Node37&#45;&gt;Node2 -->
<g id="edge55" class="edge">
<title>Node37&#45;&gt;Node2</title>
<path fill="none" stroke="midnightblue" d="M1439.15,-310.52C1404.59,-319.84 1345.93,-334.82 1304.15,-345.02"/>
<polygon fill="midnightblue" stroke="midnightblue" points="1303.07,-341.68 1294.18,-347.44 1304.72,-348.49 1303.07,-341.68"/>
</g>
<!-- Node38 -->
<g id="node38" class="node">
<title>Node38</title>
<g id="a_node38"><a xlink:href="TriangleOperation_8hpp.html" target="_top" xlink:title=" ">
<polygon fill="white" stroke="black" points="1496,-235.5 1496,-254.5 1697,-254.5 1697,-235.5 1496,-235.5"/>
<text text-anchor="middle" x="1596.5" y="-242.5" font-family="Helvetica,sans-Serif" font-size="10.00">Core/Geometry/TriangleOperation.hpp</text>
</a>
</g>
</g>
<!-- Node37&#45;&gt;Node38 -->
<g id="edge56" class="edge">
<title>Node37&#45;&gt;Node38</title>
<path fill="none" stroke="midnightblue" d="M1487.94,-291.44C1509.17,-282.56 1542.6,-268.56 1566.75,-258.45"/>
<polygon fill="midnightblue" stroke="midnightblue" points="1568.28,-261.61 1576.16,-254.52 1565.58,-255.15 1568.28,-261.61"/>
</g>
<!-- Node38&#45;&gt;Node15 -->
<g id="edge57" class="edge">
<title>Node38&#45;&gt;Node15</title>
<path fill="none" stroke="midnightblue" d="M1578.02,-235.48C1556.37,-225.49 1520.29,-208.85 1495.27,-197.31"/>
<polygon fill="midnightblue" stroke="midnightblue" points="1496.49,-194.02 1485.95,-193.01 1493.56,-200.38 1496.49,-194.02"/>
</g>
<!-- Node40&#45;&gt;Node1 -->
<g id="edge62" class="edge">
<title>Node40&#45;&gt;Node1</title>
<path fill="none" stroke="midnightblue" d="M1699.72,-366.7C1695.01,-374.05 1686.34,-385.06 1677.1,-395.76"/>
<polygon fill="midnightblue" stroke="midnightblue" points="1674.31,-393.63 1670.32,-403.45 1679.56,-398.26 1674.31,-393.63"/>
</g>
<!-- Node41 -->
<g id="node41" class="node">
<title>Node41</title>
<g id="a_node41"><a xlink:href="LinearAlgebra_8hpp.html" target="_top" xlink:title=" ">
<polygon fill="white" stroke="black" points="1715.5,-235.5 1715.5,-254.5 1873.5,-254.5 1873.5,-235.5 1715.5,-235.5"/>
<text text-anchor="middle" x="1794.5" y="-242.5" font-family="Helvetica,sans-Serif" font-size="10.00">Core/Math/LinearAlgebra.hpp</text>
</a>
</g>
</g>
<!-- Node40&#45;&gt;Node41 -->
<g id="edge63" class="edge">
<title>Node40&#45;&gt;Node41</title>
<path fill="none" stroke="midnightblue" d="M1709.72,-347.37C1725.04,-329.05 1761,-286.05 1780.82,-262.36"/>
<polygon fill="midnightblue" stroke="midnightblue" points="1783.58,-264.51 1787.31,-254.59 1778.21,-260.02 1783.58,-264.51"/>
</g>
<!-- Node41&#45;&gt;Node5 -->
<g id="edge64" class="edge">
<title>Node41&#45;&gt;Node5</title>
<path fill="none" stroke="midnightblue" d="M1726.16,-235.48C1666.4,-227.24 1584.72,-213.85 1555.5,-199 1537.56,-189.88 1541.02,-175.87 1522.5,-168 1444.25,-134.76 857.8,-125.65 667.75,-123.55"/>
<polygon fill="midnightblue" stroke="midnightblue" points="667.71,-120.05 657.67,-123.44 667.63,-127.05 667.71,-120.05"/>
</g>
<!-- Node41&#45;&gt;Node15 -->
<g id="edge71" class="edge">
<title>Node41&#45;&gt;Node15</title>
<path fill="none" stroke="midnightblue" d="M1736.73,-235.46C1682.51,-227.16 1599.23,-213.69 1527.5,-199 1522.12,-197.9 1516.49,-196.66 1510.92,-195.37"/>
<polygon fill="midnightblue" stroke="midnightblue" points="1511.58,-191.93 1501.04,-193.05 1509.97,-198.75 1511.58,-191.93"/>
</g>
<!-- Node41&#45;&gt;Node16 -->
<g id="edge65" class="edge">
<title>Node41&#45;&gt;Node16</title>
<path fill="none" stroke="midnightblue" d="M1742.91,-235.46C1709.79,-228.62 1666.58,-217.12 1631.5,-199 1612.14,-189 1612.46,-178.76 1593.5,-168 1567.85,-153.45 1536.64,-142.15 1511.94,-134.51"/>
<polygon fill="midnightblue" stroke="midnightblue" points="1512.72,-131.09 1502.14,-131.57 1510.71,-137.8 1512.72,-131.09"/>
</g>
<!-- Node41&#45;&gt;Node17 -->
<g id="edge66" class="edge">
<title>Node41&#45;&gt;Node17</title>
<path fill="none" stroke="midnightblue" d="M1718.23,-235.43C1679.45,-229 1632.42,-217.91 1593.5,-199 1573.9,-189.47 1575.02,-177.69 1555.5,-168 1532.77,-156.71 1470.91,-142.87 1424.74,-133.54"/>
<polygon fill="midnightblue" stroke="midnightblue" points="1425.34,-130.09 1414.85,-131.56 1423.97,-136.96 1425.34,-130.09"/>
</g>
<!-- Node41&#45;&gt;Node18 -->
<g id="edge67" class="edge">
<title>Node41&#45;&gt;Node18</title>
<path fill="none" stroke="midnightblue" d="M1764.95,-235.35C1740.06,-227.5 1703.92,-214.76 1674.5,-199 1653.73,-187.88 1650.93,-181.33 1631.5,-168 1616.07,-157.42 1598.4,-145.9 1584.8,-137.17"/>
<polygon fill="midnightblue" stroke="midnightblue" points="1586.42,-134.05 1576.11,-131.61 1582.65,-139.95 1586.42,-134.05"/>
</g>
<!-- Node41&#45;&gt;Node29 -->
<g id="edge68" class="edge">
<title>Node41&#45;&gt;Node29</title>
<path fill="none" stroke="midnightblue" d="M1715.47,-235.63C1594.83,-222.86 1368.87,-198.94 1275.04,-189"/>
<polygon fill="midnightblue" stroke="midnightblue" points="1275.37,-185.52 1265.05,-187.95 1274.63,-192.48 1275.37,-185.52"/>
</g>
<!-- Node41&#45;&gt;Node32 -->
<g id="edge70" class="edge">
<title>Node41&#45;&gt;Node32</title>
<path fill="none" stroke="midnightblue" d="M1786.91,-235.48C1778.8,-226.37 1765.77,-211.74 1755.74,-200.48"/>
<polygon fill="midnightblue" stroke="midnightblue" points="1758.34,-198.15 1749.08,-193.01 1753.12,-202.8 1758.34,-198.15"/>
</g>
<!-- Node42 -->
<g id="node42" class="node">
<title>Node42</title>
<g id="a_node42"><a xlink:title=" ">
<polygon fill="white" stroke="#bfbfbf" points="1818,-168.5 1818,-198.5 1965,-198.5 1965,-168.5 1818,-168.5"/>
<text text-anchor="start" x="1826" y="-186.5" font-family="Helvetica,sans-Serif" font-size="10.00">unsupported/Eigen/Aligned</text>
<text text-anchor="middle" x="1891.5" y="-175.5" font-family="Helvetica,sans-Serif" font-size="10.00">Vector3</text>
</a>
</g>
</g>
<!-- Node41&#45;&gt;Node42 -->
<g id="edge69" class="edge">
<title>Node41&#45;&gt;Node42</title>
<path fill="none" stroke="midnightblue" d="M1808.4,-235.48C1821.78,-227.27 1842.5,-214.56 1859.9,-203.88"/>
<polygon fill="midnightblue" stroke="midnightblue" points="1861.94,-206.74 1868.64,-198.52 1858.28,-200.77 1861.94,-206.74"/>
</g>
<!-- Node43 -->
<g id="node43" class="node">
<title>Node43</title>
<g id="a_node43"><a xlink:href="LinearAlgebra_8inl.html" target="_top" xlink:title=" ">
<polygon fill="white" stroke="black" points="1983.5,-174 1983.5,-193 2135.5,-193 2135.5,-174 1983.5,-174"/>
<text text-anchor="middle" x="2059.5" y="-181" font-family="Helvetica,sans-Serif" font-size="10.00">Core/Math/LinearAlgebra.inl</text>
</a>
</g>
</g>
<!-- Node41&#45;&gt;Node43 -->
<g id="edge72" class="edge">
<title>Node41&#45;&gt;Node43</title>
<path fill="none" stroke="midnightblue" d="M1827.57,-235.48C1872.58,-224.85 1953.34,-206.68 2006.74,-195.15"/>
<polygon fill="midnightblue" stroke="midnightblue" points="2007.66,-198.53 2016.71,-193.01 2006.19,-191.69 2007.66,-198.53"/>
</g>
<!-- Node43&#45;&gt;Node41 -->
<g id="edge73" class="edge">
<title>Node43&#45;&gt;Node41</title>
<path fill="none" stroke="midnightblue" d="M2026.5,-193.01C1981.53,-203.63 1900.77,-221.79 1847.34,-233.33"/>
<polygon fill="midnightblue" stroke="midnightblue" points="1846.41,-229.95 1837.37,-235.48 1847.88,-236.79 1846.41,-229.95"/>
</g>
</g>
</svg>
        <g id="navigator" transform="translate(0 0)" fill="#404254">
                <rect fill="#f2f5e9" fill-opacity="0.5" stroke="#606060" stroke-width=".5" x="0" y="0" width="60" height="60"/>
                <use id="zoomplus" xlink:href="#zoomPlus" x="17" y="9" onmousedown="handleZoom(evt,'in')"/>
                <use id="zoomminus" xlink:href="#zoomMin" x="42" y="9" onmousedown="handleZoom(evt,'out')"/>
                <use id="reset" xlink:href="#resetDef" x="30" y="36" onmousedown="handleReset()"/>
                <g id="arrowUp" xlink:href="#dirArrow" transform="translate(30 24)" onmousedown="handlePan(0,-1)">
                  <use xlink:href="#rim" fill="#404040">
                        <set attributeName="fill" to="#808080" begin="arrowUp.mouseover" end="arrowUp.mouseout"/>
                  </use>
                  <path fill="none" stroke="white" stroke-width="1.5" d="M0,-3.0v7 M-2.5,-0.5L0,-3.0L2.5,-0.5"/>
                </g>
                <g id="arrowRight" xlink:href="#dirArrow" transform="rotate(90) translate(36 -43)" onmousedown="handlePan(1,0)">
                  <use xlink:href="#rim" fill="#404040">
                        <set attributeName="fill" to="#808080" begin="arrowRight.mouseover" end="arrowRight.mouseout"/>
                  </use>
                  <path fill="none" stroke="white" stroke-width="1.5" d="M0,-3.0v7 M-2.5,-0.5L0,-3.0L2.5,-0.5"/>
                </g>
                <g id="arrowDown" xlink:href="#dirArrow" transform="rotate(180) translate(-30 -48)" onmousedown="handlePan(0,1)">
                  <use xlink:href="#rim" fill="#404040">
                        <set attributeName="fill" to="#808080" begin="arrowDown.mouseover" end="arrowDown.mouseout"/>
                  </use>
                  <path fill="none" stroke="white" stroke-width="1.5" d="M0,-3.0v7 M-2.5,-0.5L0,-3.0L2.5,-0.5"/>
                </g>
                <g id="arrowLeft" xlink:href="#dirArrow" transform="rotate(270) translate(-36 17)" onmousedown="handlePan(-1,0)">
                  <use xlink:href="#rim" fill="#404040">
                        <set attributeName="fill" to="#808080" begin="arrowLeft.mouseover" end="arrowLeft.mouseout"/>
                  </use>
                  <path fill="none" stroke="white" stroke-width="1.5" d="M0,-3.0v7 M-2.5,-0.5L0,-3.0L2.5,-0.5"/>
                </g>
        </g>
        <svg viewBox="0 0 15 15" width="100%" height="30px" preserveAspectRatio="xMaxYMin meet">
         <g id="arrow_out" transform="scale(0.3 0.3)">
          <a xlink:href="MeshPrimitives_8hpp__incl_org.svg" target="_base">
           <rect id="button" ry="5" rx="5" y="6" x="6" height="38" width="38"
                fill="#f2f5e9" fill-opacity="0.5" stroke="#606060" stroke-width="1.0"/>
           <path id="arrow"
             d="M 11.500037,31.436501 C 11.940474,20.09759 22.043105,11.32322 32.158766,21.979434 L 37.068811,17.246167 C 37.068811,17.246167 37.088388,32 37.088388,32 L 22.160133,31.978069 C 22.160133,31.978069 26.997745,27.140456 26.997745,27.140456 C 18.528582,18.264221 13.291696,25.230495 11.500037,31.436501 z"
             style="fill:#404040;"/>
          </a>
         </g>
        </svg>
</svg>
