<?xml version="1.0" encoding="UTF-8" standalone="no"?>
<!DOCTYPE svg PUBLIC "-//W3C//DTD SVG 1.1//EN"
 "http://www.w3.org/Graphics/SVG/1.1/DTD/svg11.dtd">
<!-- Generated by graphviz version 2.43.0 (0)
 -->
<!-- Title: /home/runner/work/Radium&#45;Engine/Radium&#45;Engine/src/Radium&#45;Engine/src/Engine/Data/Mesh.inl Pages: 1 -->
<!--zoomable 328 -->
<svg id="main" version="1.1" xmlns="http://www.w3.org/2000/svg" xmlns:xlink="http://www.w3.org/1999/xlink" xml:space="preserve" onload="init(evt)">
<style type="text/css"><![CDATA[
.edge:hover path { stroke: red; }
.edge:hover polygon { stroke: red; fill: red; }
]]></style>
<script type="text/javascript"><![CDATA[
var edges = document.getElementsByTagName('g');
if (edges && edges.length) {
  for (var i=0;i<edges.length;i++) {
    if (edges[i].id.substr(0,4)=='edge') {
      edges[i].setAttribute('class','edge');
    }
  }
}
]]></script>
        <defs>
                <circle id="rim" cx="0" cy="0" r="7"/>
                <circle id="rim2" cx="0" cy="0" r="3.5"/>
                <g id="zoomPlus">
                        <use xlink:href="#rim" fill="#404040">
                                <set attributeName="fill" to="#808080" begin="zoomplus.mouseover" end="zoomplus.mouseout"/>
                        </use>
                        <path d="M-4,0h8M0,-4v8" fill="none" stroke="white" stroke-width="1.5" pointer-events="none"/>
                </g>
                <g id="zoomMin">
                        <use xlink:href="#rim" fill="#404040">
                                <set attributeName="fill" to="#808080" begin="zoomminus.mouseover" end="zoomminus.mouseout"/>
                        </use>
                        <path d="M-4,0h8" fill="none" stroke="white" stroke-width="1.5" pointer-events="none"/>
                </g>
                <g id="dirArrow">
                        <path fill="none" stroke="white" stroke-width="1.5" d="M0,-3.0v7 M-2.5,-0.5L0,-3.0L2.5,-0.5"/>
                </g>
               <g id="resetDef">
                       <use xlink:href="#rim2" fill="#404040">
                               <set attributeName="fill" to="#808080" begin="reset.mouseover" end="reset.mouseout"/>
                       </use>
               </g>
        </defs>

<script type="text/javascript">
var viewWidth = 2755;
var viewHeight = 328;
var sectionId = 'dynsection-1';
</script>
<script xlink:href="svgpan.js"/>
<svg id="graph" class="graph">
<g id="viewport">
<title>/home/runner/work/Radium&#45;Engine/Radium&#45;Engine/src/Radium&#45;Engine/src/Engine/Data/Mesh.inl</title>
<polygon fill="white" stroke="transparent" points="-4,4 -4,-324 2751,-324 2751,4 -4,4"/>
<!-- Node1 -->
<g id="node1" class="node">
<title>Node1</title>
<g id="a_node1"><a xlink:title=" ">
<polygon fill="#bfbfbf" stroke="black" points="1204,-267.5 1204,-319.5 1353,-319.5 1353,-267.5 1204,-267.5"/>
<text text-anchor="start" x="1212" y="-307.5" font-family="Helvetica,sans-Serif" font-size="10.00">/home/runner/work/Radium</text>
<text text-anchor="start" x="1212" y="-296.5" font-family="Helvetica,sans-Serif" font-size="10.00">&#45;Engine/Radium&#45;Engine/src</text>
<text text-anchor="start" x="1212" y="-285.5" font-family="Helvetica,sans-Serif" font-size="10.00">/Radium&#45;Engine/src/Engine</text>
<text text-anchor="middle" x="1278.5" y="-274.5" font-family="Helvetica,sans-Serif" font-size="10.00">/Data/Mesh.inl</text>
</a>
</g>
</g>
<!-- Node2 -->
<g id="node2" class="node">
<title>Node2</title>
<g id="a_node2"><a xlink:href="Mesh_8hpp.html" target="_top" xlink:title=" ">
<polygon fill="white" stroke="black" points="1204,-178.5 1204,-230.5 1353,-230.5 1353,-178.5 1204,-178.5"/>
<text text-anchor="start" x="1212" y="-218.5" font-family="Helvetica,sans-Serif" font-size="10.00">/home/runner/work/Radium</text>
<text text-anchor="start" x="1212" y="-207.5" font-family="Helvetica,sans-Serif" font-size="10.00">&#45;Engine/Radium&#45;Engine/src</text>
<text text-anchor="start" x="1212" y="-196.5" font-family="Helvetica,sans-Serif" font-size="10.00">/Radium&#45;Engine/src/Engine</text>
<text text-anchor="middle" x="1278.5" y="-185.5" font-family="Helvetica,sans-Serif" font-size="10.00">/Data/Mesh.hpp</text>
</a>
</g>
</g>
<!-- Node1&#45;&gt;Node2 -->
<g id="edge1" class="edge">
<title>Node1&#45;&gt;Node2</title>
<path fill="none" stroke="midnightblue" d="M1271.86,-257.19C1271.62,-248.28 1271.77,-238.9 1272.32,-230.61"/>
<polygon fill="midnightblue" stroke="midnightblue" points="1268.37,-257.5 1272.31,-267.34 1275.36,-257.19 1268.37,-257.5"/>
</g>
<!-- Node2&#45;&gt;Node1 -->
<g id="edge3" class="edge">
<title>Node2&#45;&gt;Node1</title>
<path fill="none" stroke="midnightblue" d="M1285.14,-240.75C1285.38,-249.65 1285.23,-259.04 1284.69,-267.34"/>
<polygon fill="midnightblue" stroke="midnightblue" points="1288.63,-240.44 1284.68,-230.61 1281.64,-240.76 1288.63,-240.44"/>
</g>
<!-- Node3 -->
<g id="node3" class="node">
<title>Node3</title>
<g id="a_node3"><a xlink:href="DrawPrimitives_8cpp.html" target="_top" xlink:title=" ">
<polygon fill="white" stroke="black" points="0,-89.5 0,-141.5 149,-141.5 149,-89.5 0,-89.5"/>
<text text-anchor="start" x="8" y="-129.5" font-family="Helvetica,sans-Serif" font-size="10.00">/home/runner/work/Radium</text>
<text text-anchor="start" x="8" y="-118.5" font-family="Helvetica,sans-Serif" font-size="10.00">&#45;Engine/Radium&#45;Engine/src</text>
<text text-anchor="start" x="8" y="-107.5" font-family="Helvetica,sans-Serif" font-size="10.00">/Radium&#45;Engine/src/Engine</text>
<text text-anchor="middle" x="74.5" y="-96.5" font-family="Helvetica,sans-Serif" font-size="10.00">/Data/DrawPrimitives.cpp</text>
</a>
</g>
</g>
<!-- Node2&#45;&gt;Node3 -->
<g id="edge2" class="edge">
<title>Node2&#45;&gt;Node3</title>
<path fill="none" stroke="midnightblue" d="M1193.87,-201.52C968.31,-195.82 356.4,-177.46 157.5,-142 154.83,-141.52 152.12,-140.99 149.4,-140.4"/>
<polygon fill="midnightblue" stroke="midnightblue" points="1193.91,-205.02 1203.99,-201.77 1194.08,-198.03 1193.91,-205.02"/>
</g>
<!-- Node4 -->
<g id="node4" class="node">
<title>Node4</title>
<g id="a_node4"><a xlink:href="Mesh_8cpp.html" target="_top" xlink:title=" ">
<polygon fill="white" stroke="black" points="167,-89.5 167,-141.5 316,-141.5 316,-89.5 167,-89.5"/>
<text text-anchor="start" x="175" y="-129.5" font-family="Helvetica,sans-Serif" font-size="10.00">/home/runner/work/Radium</text>
<text text-anchor="start" x="175" y="-118.5" font-family="Helvetica,sans-Serif" font-size="10.00">&#45;Engine/Radium&#45;Engine/src</text>
<text text-anchor="start" x="175" y="-107.5" font-family="Helvetica,sans-Serif" font-size="10.00">/Radium&#45;Engine/src/Engine</text>
<text text-anchor="middle" x="241.5" y="-96.5" font-family="Helvetica,sans-Serif" font-size="10.00">/Data/Mesh.cpp</text>
</a>
</g>
</g>
<!-- Node2&#45;&gt;Node4 -->
<g id="edge4" class="edge">
<title>Node2&#45;&gt;Node4</title>
<path fill="none" stroke="midnightblue" d="M1193.61,-200.57C992.23,-193.21 490.08,-172.34 324.5,-142 321.83,-141.51 319.13,-140.96 316.41,-140.37"/>
<polygon fill="midnightblue" stroke="midnightblue" points="1193.72,-204.08 1203.84,-200.94 1193.98,-197.08 1193.72,-204.08"/>
</g>
<!-- Node5 -->
<g id="node5" class="node">
<title>Node5</title>
<g id="a_node5"><a xlink:href="VolumeObject_8hpp.html" target="_top" xlink:title=" ">
<polygon fill="white" stroke="black" points="334,-89.5 334,-141.5 483,-141.5 483,-89.5 334,-89.5"/>
<text text-anchor="start" x="342" y="-129.5" font-family="Helvetica,sans-Serif" font-size="10.00">/home/runner/work/Radium</text>
<text text-anchor="start" x="342" y="-118.5" font-family="Helvetica,sans-Serif" font-size="10.00">&#45;Engine/Radium&#45;Engine/src</text>
<text text-anchor="start" x="342" y="-107.5" font-family="Helvetica,sans-Serif" font-size="10.00">/Radium&#45;Engine/src/Engine</text>
<text text-anchor="middle" x="408.5" y="-96.5" font-family="Helvetica,sans-Serif" font-size="10.00">/Data/VolumeObject.hpp</text>
</a>
</g>
</g>
<!-- Node2&#45;&gt;Node5 -->
<g id="edge5" class="edge">
<title>Node2&#45;&gt;Node5</title>
<path fill="none" stroke="midnightblue" d="M1193.89,-202.47C1049.64,-199.46 747.38,-187.72 496.5,-142 492.12,-141.2 487.64,-140.27 483.15,-139.25"/>
<polygon fill="midnightblue" stroke="midnightblue" points="1193.93,-205.97 1204,-202.67 1194.07,-198.97 1193.93,-205.97"/>
</g>
<!-- Node8 -->
<g id="node8" class="node">
<title>Node8</title>
<g id="a_node8"><a xlink:href="GeometryComponent_8cpp.html" target="_top" xlink:title=" ">
<polygon fill="white" stroke="black" points="461,-0.5 461,-52.5 638,-52.5 638,-0.5 461,-0.5"/>
<text text-anchor="start" x="469" y="-40.5" font-family="Helvetica,sans-Serif" font-size="10.00">/home/runner/work/Radium</text>
<text text-anchor="start" x="469" y="-29.5" font-family="Helvetica,sans-Serif" font-size="10.00">&#45;Engine/Radium&#45;Engine/src</text>
<text text-anchor="start" x="469" y="-18.5" font-family="Helvetica,sans-Serif" font-size="10.00">/Radium&#45;Engine/src/Engine</text>
<text text-anchor="middle" x="549.5" y="-7.5" font-family="Helvetica,sans-Serif" font-size="10.00">/Scene/GeometryComponent.cpp</text>
</a>
</g>
</g>
<!-- Node2&#45;&gt;Node8 -->
<g id="edge21" class="edge">
<title>Node2&#45;&gt;Node8</title>
<path fill="none" stroke="midnightblue" d="M1193.88,-202.86C1007.35,-200.56 573.77,-190.05 529.5,-142 507.35,-117.96 521.24,-78.49 534.43,-52.75"/>
<polygon fill="midnightblue" stroke="midnightblue" points="1193.88,-206.36 1203.92,-202.98 1193.97,-199.36 1193.88,-206.36"/>
</g>
<!-- Node9 -->
<g id="node9" class="node">
<title>Node9</title>
<g id="a_node9"><a xlink:href="DebugRender_8cpp.html" target="_top" xlink:title=" ">
<polygon fill="white" stroke="black" points="538.5,-89.5 538.5,-141.5 696.5,-141.5 696.5,-89.5 538.5,-89.5"/>
<text text-anchor="start" x="546.5" y="-129.5" font-family="Helvetica,sans-Serif" font-size="10.00">/home/runner/work/Radium</text>
<text text-anchor="start" x="546.5" y="-118.5" font-family="Helvetica,sans-Serif" font-size="10.00">&#45;Engine/Radium&#45;Engine/src</text>
<text text-anchor="start" x="546.5" y="-107.5" font-family="Helvetica,sans-Serif" font-size="10.00">/Radium&#45;Engine/src/Engine</text>
<text text-anchor="middle" x="617.5" y="-96.5" font-family="Helvetica,sans-Serif" font-size="10.00">/Rendering/DebugRender.cpp</text>
</a>
</g>
</g>
<!-- Node2&#45;&gt;Node9 -->
<g id="edge10" class="edge">
<title>Node2&#45;&gt;Node9</title>
<path fill="none" stroke="midnightblue" d="M1193.43,-199.03C1080.92,-192.07 876.85,-175.75 705.5,-142 702.69,-141.45 699.84,-140.85 696.97,-140.2"/>
<polygon fill="midnightblue" stroke="midnightblue" points="1193.51,-202.55 1203.7,-199.66 1193.93,-195.56 1193.51,-202.55"/>
</g>
<!-- Node10 -->
<g id="node10" class="node">
<title>Node10</title>
<g id="a_node10"><a xlink:href="GeometryComponent_8hpp.html" target="_top" xlink:title=" ">
<polygon fill="white" stroke="black" points="714.5,-89.5 714.5,-141.5 892.5,-141.5 892.5,-89.5 714.5,-89.5"/>
<text text-anchor="start" x="722.5" y="-129.5" font-family="Helvetica,sans-Serif" font-size="10.00">/home/runner/work/Radium</text>
<text text-anchor="start" x="722.5" y="-118.5" font-family="Helvetica,sans-Serif" font-size="10.00">&#45;Engine/Radium&#45;Engine/src</text>
<text text-anchor="start" x="722.5" y="-107.5" font-family="Helvetica,sans-Serif" font-size="10.00">/Radium&#45;Engine/src/Engine</text>
<text text-anchor="middle" x="803.5" y="-96.5" font-family="Helvetica,sans-Serif" font-size="10.00">/Scene/GeometryComponent.hpp</text>
</a>
</g>
</g>
<!-- Node2&#45;&gt;Node10 -->
<g id="edge11" class="edge">
<title>Node2&#45;&gt;Node10</title>
<path fill="none" stroke="midnightblue" d="M1193.64,-191.96C1116.96,-180.98 1001.17,-163.05 901.5,-142 898.58,-141.38 895.61,-140.73 892.61,-140.06"/>
<polygon fill="midnightblue" stroke="midnightblue" points="1193.33,-195.45 1203.73,-193.39 1194.32,-188.52 1193.33,-195.45"/>
</g>
<!-- Node14 -->
<g id="node14" class="node">
<title>Node14</title>
<g id="a_node14"><a xlink:href="Renderer_8cpp.html" target="_top" xlink:title=" ">
<polygon fill="white" stroke="black" points="910,-89.5 910,-141.5 1059,-141.5 1059,-89.5 910,-89.5"/>
<text text-anchor="start" x="918" y="-129.5" font-family="Helvetica,sans-Serif" font-size="10.00">/home/runner/work/Radium</text>
<text text-anchor="start" x="918" y="-118.5" font-family="Helvetica,sans-Serif" font-size="10.00">&#45;Engine/Radium&#45;Engine/src</text>
<text text-anchor="start" x="918" y="-107.5" font-family="Helvetica,sans-Serif" font-size="10.00">/Radium&#45;Engine/src/Engine</text>
<text text-anchor="middle" x="984.5" y="-96.5" font-family="Helvetica,sans-Serif" font-size="10.00">/Rendering/Renderer.cpp</text>
</a>
</g>
</g>
<!-- Node2&#45;&gt;Node14 -->
<g id="edge17" class="edge">
<title>Node2&#45;&gt;Node14</title>
<path fill="none" stroke="midnightblue" d="M1193.54,-178.83C1155.3,-167.67 1109.61,-154.26 1068.5,-142 1065.43,-141.09 1062.3,-140.15 1059.14,-139.2"/>
<polygon fill="midnightblue" stroke="midnightblue" points="1193.03,-182.32 1203.61,-181.76 1194.99,-175.6 1193.03,-182.32"/>
</g>
<!-- Node15 -->
<g id="node15" class="node">
<title>Node15</title>
<g id="a_node15"><a xlink:href="RenderObjectManager_8cpp.html" target="_top" xlink:title=" ">
<polygon fill="white" stroke="black" points="1077.5,-89.5 1077.5,-141.5 1277.5,-141.5 1277.5,-89.5 1077.5,-89.5"/>
<text text-anchor="start" x="1085.5" y="-129.5" font-family="Helvetica,sans-Serif" font-size="10.00">/home/runner/work/Radium</text>
<text text-anchor="start" x="1085.5" y="-118.5" font-family="Helvetica,sans-Serif" font-size="10.00">&#45;Engine/Radium&#45;Engine/src</text>
<text text-anchor="start" x="1085.5" y="-107.5" font-family="Helvetica,sans-Serif" font-size="10.00">/Radium&#45;Engine/src/Engine</text>
<text text-anchor="middle" x="1177.5" y="-96.5" font-family="Helvetica,sans-Serif" font-size="10.00">/Rendering/RenderObjectManager.cpp</text>
</a>
</g>
</g>
<!-- Node2&#45;&gt;Node15 -->
<g id="edge18" class="edge">
<title>Node2&#45;&gt;Node15</title>
<path fill="none" stroke="midnightblue" d="M1241.52,-171.65C1230.03,-161.75 1217.53,-150.98 1206.65,-141.61"/>
<polygon fill="midnightblue" stroke="midnightblue" points="1239.43,-174.46 1249.29,-178.34 1243.99,-169.16 1239.43,-174.46"/>
</g>
<!-- Node16 -->
<g id="node16" class="node">
<title>Node16</title>
<g id="a_node16"><a xlink:href="CameraComponent_8cpp.html" target="_top" xlink:title=" ">
<polygon fill="white" stroke="black" points="1296,-89.5 1296,-141.5 1463,-141.5 1463,-89.5 1296,-89.5"/>
<text text-anchor="start" x="1304" y="-129.5" font-family="Helvetica,sans-Serif" font-size="10.00">/home/runner/work/Radium</text>
<text text-anchor="start" x="1304" y="-118.5" font-family="Helvetica,sans-Serif" font-size="10.00">&#45;Engine/Radium&#45;Engine/src</text>
<text text-anchor="start" x="1304" y="-107.5" font-family="Helvetica,sans-Serif" font-size="10.00">/Radium&#45;Engine/src/Engine</text>
<text text-anchor="middle" x="1379.5" y="-96.5" font-family="Helvetica,sans-Serif" font-size="10.00">/Scene/CameraComponent.cpp</text>
</a>
</g>
</g>
<!-- Node2&#45;&gt;Node16 -->
<g id="edge19" class="edge">
<title>Node2&#45;&gt;Node16</title>
<path fill="none" stroke="midnightblue" d="M1315.48,-171.65C1326.97,-161.75 1339.47,-150.98 1350.35,-141.61"/>
<polygon fill="midnightblue" stroke="midnightblue" points="1313.01,-169.16 1307.71,-178.34 1317.57,-174.46 1313.01,-169.16"/>
</g>
<!-- Node17 -->
<g id="node17" class="node">
<title>Node17</title>
<g id="a_node17"><a xlink:href="Component_8cpp.html" target="_top" xlink:title=" ">
<polygon fill="white" stroke="black" points="1481,-89.5 1481,-141.5 1630,-141.5 1630,-89.5 1481,-89.5"/>
<text text-anchor="start" x="1489" y="-129.5" font-family="Helvetica,sans-Serif" font-size="10.00">/home/runner/work/Radium</text>
<text text-anchor="start" x="1489" y="-118.5" font-family="Helvetica,sans-Serif" font-size="10.00">&#45;Engine/Radium&#45;Engine/src</text>
<text text-anchor="start" x="1489" y="-107.5" font-family="Helvetica,sans-Serif" font-size="10.00">/Radium&#45;Engine/src/Engine</text>
<text text-anchor="middle" x="1555.5" y="-96.5" font-family="Helvetica,sans-Serif" font-size="10.00">/Scene/Component.cpp</text>
</a>
</g>
</g>
<!-- Node2&#45;&gt;Node17 -->
<g id="edge20" class="edge">
<title>Node2&#45;&gt;Node17</title>
<path fill="none" stroke="midnightblue" d="M1363.01,-176.96C1400.57,-165.16 1444.42,-151.39 1480.77,-139.97"/>
<polygon fill="midnightblue" stroke="midnightblue" points="1361.59,-173.74 1353.1,-180.07 1363.68,-180.41 1361.59,-173.74"/>
</g>
<!-- Node18 -->
<g id="node18" class="node">
<title>Node18</title>
<g id="a_node18"><a xlink:href="SkeletonComponent_8cpp.html" target="_top" xlink:title=" ">
<polygon fill="white" stroke="black" points="1648.5,-89.5 1648.5,-141.5 1818.5,-141.5 1818.5,-89.5 1648.5,-89.5"/>
<text text-anchor="start" x="1656.5" y="-129.5" font-family="Helvetica,sans-Serif" font-size="10.00">/home/runner/work/Radium</text>
<text text-anchor="start" x="1656.5" y="-118.5" font-family="Helvetica,sans-Serif" font-size="10.00">&#45;Engine/Radium&#45;Engine/src</text>
<text text-anchor="start" x="1656.5" y="-107.5" font-family="Helvetica,sans-Serif" font-size="10.00">/Radium&#45;Engine/src/Engine</text>
<text text-anchor="middle" x="1733.5" y="-96.5" font-family="Helvetica,sans-Serif" font-size="10.00">/Scene/SkeletonComponent.cpp</text>
</a>
</g>
</g>
<!-- Node2&#45;&gt;Node18 -->
<g id="edge22" class="edge">
<title>Node2&#45;&gt;Node18</title>
<path fill="none" stroke="midnightblue" d="M1363.35,-191.4C1436.79,-180.37 1545.66,-162.67 1639.5,-142 1642.39,-141.36 1645.32,-140.69 1648.28,-140"/>
<polygon fill="midnightblue" stroke="midnightblue" points="1362.6,-187.98 1353.23,-192.91 1363.64,-194.9 1362.6,-187.98"/>
</g>
<!-- Node19 -->
<g id="node19" class="node">
<title>Node19</title>
<g id="a_node19"><a xlink:href="SkinningComponent_8cpp.html" target="_top" xlink:title=" ">
<polygon fill="white" stroke="black" points="1836.5,-89.5 1836.5,-141.5 2006.5,-141.5 2006.5,-89.5 1836.5,-89.5"/>
<text text-anchor="start" x="1844.5" y="-129.5" font-family="Helvetica,sans-Serif" font-size="10.00">/home/runner/work/Radium</text>
<text text-anchor="start" x="1844.5" y="-118.5" font-family="Helvetica,sans-Serif" font-size="10.00">&#45;Engine/Radium&#45;Engine/src</text>
<text text-anchor="start" x="1844.5" y="-107.5" font-family="Helvetica,sans-Serif" font-size="10.00">/Radium&#45;Engine/src/Engine</text>
<text text-anchor="middle" x="1921.5" y="-96.5" font-family="Helvetica,sans-Serif" font-size="10.00">/Scene/SkinningComponent.cpp</text>
</a>
</g>
</g>
<!-- Node2&#45;&gt;Node19 -->
<g id="edge23" class="edge">
<title>Node2&#45;&gt;Node19</title>
<path fill="none" stroke="midnightblue" d="M1363.41,-198.04C1471.81,-190.15 1664.81,-172.99 1827.5,-142 1830.41,-141.45 1833.36,-140.85 1836.33,-140.22"/>
<polygon fill="midnightblue" stroke="midnightblue" points="1362.91,-194.57 1353.19,-198.78 1363.41,-201.55 1362.91,-194.57"/>
</g>
<!-- Node20 -->
<g id="node20" class="node">
<title>Node20</title>
<g id="a_node20"><a xlink:href="Gizmo_8cpp.html" target="_top" xlink:title=" ">
<polygon fill="white" stroke="black" points="2025,-89.5 2025,-141.5 2192,-141.5 2192,-89.5 2025,-89.5"/>
<text text-anchor="start" x="2033" y="-129.5" font-family="Helvetica,sans-Serif" font-size="10.00">/home/runner/work/Radium</text>
<text text-anchor="start" x="2033" y="-118.5" font-family="Helvetica,sans-Serif" font-size="10.00">&#45;Engine/Radium&#45;Engine/src</text>
<text text-anchor="start" x="2033" y="-107.5" font-family="Helvetica,sans-Serif" font-size="10.00">/Radium&#45;Engine/src/Gui/Viewer</text>
<text text-anchor="middle" x="2108.5" y="-96.5" font-family="Helvetica,sans-Serif" font-size="10.00">/Gizmo/Gizmo.cpp</text>
</a>
</g>
</g>
<!-- Node2&#45;&gt;Node20 -->
<g id="edge24" class="edge">
<title>Node2&#45;&gt;Node20</title>
<path fill="none" stroke="midnightblue" d="M1363.16,-201.5C1500.89,-197.11 1781.62,-183.46 2015.5,-142 2018.55,-141.46 2021.64,-140.86 2024.76,-140.22"/>
<polygon fill="midnightblue" stroke="midnightblue" points="1362.98,-198 1353.09,-201.81 1363.2,-205 1362.98,-198"/>
</g>
<!-- Node21 -->
<g id="node21" class="node">
<title>Node21</title>
<g id="a_node21"><a xlink:href="RotateGizmo_8cpp.html" target="_top" xlink:title=" ">
<polygon fill="white" stroke="black" points="2210,-89.5 2210,-141.5 2377,-141.5 2377,-89.5 2210,-89.5"/>
<text text-anchor="start" x="2218" y="-129.5" font-family="Helvetica,sans-Serif" font-size="10.00">/home/runner/work/Radium</text>
<text text-anchor="start" x="2218" y="-118.5" font-family="Helvetica,sans-Serif" font-size="10.00">&#45;Engine/Radium&#45;Engine/src</text>
<text text-anchor="start" x="2218" y="-107.5" font-family="Helvetica,sans-Serif" font-size="10.00">/Radium&#45;Engine/src/Gui/Viewer</text>
<text text-anchor="middle" x="2293.5" y="-96.5" font-family="Helvetica,sans-Serif" font-size="10.00">/Gizmo/RotateGizmo.cpp</text>
</a>
</g>
</g>
<!-- Node2&#45;&gt;Node21 -->
<g id="edge25" class="edge">
<title>Node2&#45;&gt;Node21</title>
<path fill="none" stroke="midnightblue" d="M1363.76,-203.6C1527.38,-202.51 1896.3,-193.91 2201.5,-142 2204.28,-141.53 2207.09,-141.01 2209.93,-140.44"/>
<polygon fill="midnightblue" stroke="midnightblue" points="1363.26,-200.1 1353.28,-203.66 1363.3,-207.1 1363.26,-200.1"/>
</g>
<!-- Node22 -->
<g id="node22" class="node">
<title>Node22</title>
<g id="a_node22"><a xlink:href="ScaleGizmo_8cpp.html" target="_top" xlink:title=" ">
<polygon fill="white" stroke="black" points="2395,-89.5 2395,-141.5 2562,-141.5 2562,-89.5 2395,-89.5"/>
<text text-anchor="start" x="2403" y="-129.5" font-family="Helvetica,sans-Serif" font-size="10.00">/home/runner/work/Radium</text>
<text text-anchor="start" x="2403" y="-118.5" font-family="Helvetica,sans-Serif" font-size="10.00">&#45;Engine/Radium&#45;Engine/src</text>
<text text-anchor="start" x="2403" y="-107.5" font-family="Helvetica,sans-Serif" font-size="10.00">/Radium&#45;Engine/src/Gui/Viewer</text>
<text text-anchor="middle" x="2478.5" y="-96.5" font-family="Helvetica,sans-Serif" font-size="10.00">/Gizmo/ScaleGizmo.cpp</text>
</a>
</g>
</g>
<!-- Node2&#45;&gt;Node22 -->
<g id="edge26" class="edge">
<title>Node2&#45;&gt;Node22</title>
<path fill="none" stroke="midnightblue" d="M1363.29,-201.15C1587.06,-194.58 2189.79,-174.33 2386.5,-142 2389.28,-141.54 2392.1,-141.03 2394.93,-140.48"/>
<polygon fill="midnightblue" stroke="midnightblue" points="1363.14,-197.66 1353.25,-201.45 1363.35,-204.65 1363.14,-197.66"/>
</g>
<!-- Node23 -->
<g id="node23" class="node">
<title>Node23</title>
<g id="a_node23"><a xlink:href="TranslateGizmo_8cpp.html" target="_top" xlink:title=" ">
<polygon fill="white" stroke="black" points="2580,-89.5 2580,-141.5 2747,-141.5 2747,-89.5 2580,-89.5"/>
<text text-anchor="start" x="2588" y="-129.5" font-family="Helvetica,sans-Serif" font-size="10.00">/home/runner/work/Radium</text>
<text text-anchor="start" x="2588" y="-118.5" font-family="Helvetica,sans-Serif" font-size="10.00">&#45;Engine/Radium&#45;Engine/src</text>
<text text-anchor="start" x="2588" y="-107.5" font-family="Helvetica,sans-Serif" font-size="10.00">/Radium&#45;Engine/src/Gui/Viewer</text>
<text text-anchor="middle" x="2663.5" y="-96.5" font-family="Helvetica,sans-Serif" font-size="10.00">/Gizmo/TranslateGizmo.cpp</text>
</a>
</g>
</g>
<!-- Node2&#45;&gt;Node23 -->
<g id="edge27" class="edge">
<title>Node2&#45;&gt;Node23</title>
<path fill="none" stroke="midnightblue" d="M1363.22,-201.93C1612,-196.94 2337.59,-179.5 2571.5,-142 2574.28,-141.55 2577.1,-141.05 2579.94,-140.51"/>
<polygon fill="midnightblue" stroke="midnightblue" points="1363.08,-198.44 1353.15,-202.13 1363.22,-205.43 1363.08,-198.44"/>
</g>
<!-- Node6 -->
<g id="node6" class="node">
<title>Node6</title>
<g id="a_node6"><a xlink:href="VolumeObject_8cpp.html" target="_top" xlink:title=" ">
<polygon fill="white" stroke="black" points="127,-0.5 127,-52.5 276,-52.5 276,-0.5 127,-0.5"/>
<text text-anchor="start" x="135" y="-40.5" font-family="Helvetica,sans-Serif" font-size="10.00">/home/runner/work/Radium</text>
<text text-anchor="start" x="135" y="-29.5" font-family="Helvetica,sans-Serif" font-size="10.00">&#45;Engine/Radium&#45;Engine/src</text>
<text text-anchor="start" x="135" y="-18.5" font-family="Helvetica,sans-Serif" font-size="10.00">/Radium&#45;Engine/src/Engine</text>
<text text-anchor="middle" x="201.5" y="-7.5" font-family="Helvetica,sans-Serif" font-size="10.00">/Data/VolumeObject.cpp</text>
</a>
</g>
</g>
<!-- Node5&#45;&gt;Node6 -->
<g id="edge6" class="edge">
<title>Node5&#45;&gt;Node6</title>
<path fill="none" stroke="midnightblue" d="M339.68,-85.58C314.22,-74.88 285.6,-62.85 261.03,-52.52"/>
<polygon fill="midnightblue" stroke="midnightblue" points="338.33,-88.8 348.9,-89.45 341.04,-82.35 338.33,-88.8"/>
</g>
<!-- Node7 -->
<g id="node7" class="node">
<title>Node7</title>
<g id="a_node7"><a xlink:href="VolumeObject_8inl.html" target="_top" xlink:title=" ">
<polygon fill="white" stroke="black" points="294,-0.5 294,-52.5 443,-52.5 443,-0.5 294,-0.5"/>
<text text-anchor="start" x="302" y="-40.5" font-family="Helvetica,sans-Serif" font-size="10.00">/home/runner/work/Radium</text>
<text text-anchor="start" x="302" y="-29.5" font-family="Helvetica,sans-Serif" font-size="10.00">&#45;Engine/Radium&#45;Engine/src</text>
<text text-anchor="start" x="302" y="-18.5" font-family="Helvetica,sans-Serif" font-size="10.00">/Radium&#45;Engine/src/Engine</text>
<text text-anchor="middle" x="368.5" y="-7.5" font-family="Helvetica,sans-Serif" font-size="10.00">/Data/VolumeObject.inl</text>
</a>
</g>
</g>
<!-- Node5&#45;&gt;Node7 -->
<g id="edge7" class="edge">
<title>Node5&#45;&gt;Node7</title>
<path fill="none" stroke="midnightblue" d="M386.19,-80.35C381.65,-71.1 377.27,-61.26 373.86,-52.61"/>
<polygon fill="midnightblue" stroke="midnightblue" points="383.1,-82 390.74,-89.34 389.34,-78.83 383.1,-82"/>
</g>
<!-- Node5&#45;&gt;Node8 -->
<g id="edge9" class="edge">
<title>Node5&#45;&gt;Node8</title>
<path fill="none" stroke="midnightblue" d="M457.82,-84.07C474.48,-73.79 492.89,-62.43 508.81,-52.61"/>
<polygon fill="midnightblue" stroke="midnightblue" points="455.96,-81.11 449.28,-89.34 459.63,-87.06 455.96,-81.11"/>
</g>
<!-- Node7&#45;&gt;Node5 -->
<g id="edge8" class="edge">
<title>Node7&#45;&gt;Node5</title>
<path fill="none" stroke="midnightblue" d="M390.78,-61.59C395.32,-70.84 399.7,-80.68 403.12,-89.34"/>
<polygon fill="midnightblue" stroke="midnightblue" points="393.87,-59.94 386.23,-52.61 387.63,-63.11 393.87,-59.94"/>
</g>
<!-- Node10&#45;&gt;Node8 -->
<g id="edge15" class="edge">
<title>Node10&#45;&gt;Node8</title>
<path fill="none" stroke="midnightblue" d="M720.7,-86.14C689.05,-75.3 653.22,-63.03 622.55,-52.52"/>
<polygon fill="midnightblue" stroke="midnightblue" points="719.78,-89.52 730.37,-89.45 722.05,-82.9 719.78,-89.52"/>
</g>
<!-- Node11 -->
<g id="node11" class="node">
<title>Node11</title>
<g id="a_node11"><a xlink:href="ForwardRenderer_8cpp.html" target="_top" xlink:title=" ">
<polygon fill="white" stroke="black" points="656,-0.5 656,-52.5 831,-52.5 831,-0.5 656,-0.5"/>
<text text-anchor="start" x="664" y="-40.5" font-family="Helvetica,sans-Serif" font-size="10.00">/home/runner/work/Radium</text>
<text text-anchor="start" x="664" y="-29.5" font-family="Helvetica,sans-Serif" font-size="10.00">&#45;Engine/Radium&#45;Engine/src</text>
<text text-anchor="start" x="664" y="-18.5" font-family="Helvetica,sans-Serif" font-size="10.00">/Radium&#45;Engine/src/Engine</text>
<text text-anchor="middle" x="743.5" y="-7.5" font-family="Helvetica,sans-Serif" font-size="10.00">/Rendering/ForwardRenderer.cpp</text>
</a>
</g>
</g>
<!-- Node10&#45;&gt;Node11 -->
<g id="edge12" class="edge">
<title>Node10&#45;&gt;Node11</title>
<path fill="none" stroke="midnightblue" d="M780.35,-80.93C773.85,-71.51 766.91,-61.44 760.82,-52.61"/>
<polygon fill="midnightblue" stroke="midnightblue" points="777.59,-83.09 786.15,-89.34 783.35,-79.12 777.59,-83.09"/>
</g>
<!-- Node12 -->
<g id="node12" class="node">
<title>Node12</title>
<g id="a_node12"><a xlink:href="GeometryComponent_8inl.html" target="_top" xlink:title=" ">
<polygon fill="white" stroke="black" points="849.5,-0.5 849.5,-52.5 1021.5,-52.5 1021.5,-0.5 849.5,-0.5"/>
<text text-anchor="start" x="857.5" y="-40.5" font-family="Helvetica,sans-Serif" font-size="10.00">/home/runner/work/Radium</text>
<text text-anchor="start" x="857.5" y="-29.5" font-family="Helvetica,sans-Serif" font-size="10.00">&#45;Engine/Radium&#45;Engine/src</text>
<text text-anchor="start" x="857.5" y="-18.5" font-family="Helvetica,sans-Serif" font-size="10.00">/Radium&#45;Engine/src/Engine</text>
<text text-anchor="middle" x="935.5" y="-7.5" font-family="Helvetica,sans-Serif" font-size="10.00">/Scene/GeometryComponent.inl</text>
</a>
</g>
</g>
<!-- Node10&#45;&gt;Node12 -->
<g id="edge13" class="edge">
<title>Node10&#45;&gt;Node12</title>
<path fill="none" stroke="midnightblue" d="M844.03,-83.5C858.98,-73.37 875.96,-62.25 891.22,-52.61"/>
<polygon fill="midnightblue" stroke="midnightblue" points="841.78,-80.81 835.49,-89.34 845.73,-86.59 841.78,-80.81"/>
</g>
<!-- Node13 -->
<g id="node13" class="node">
<title>Node13</title>
<g id="a_node13"><a xlink:href="GeometrySystem_8cpp.html" target="_top" xlink:title=" ">
<polygon fill="white" stroke="black" points="1039.5,-0.5 1039.5,-52.5 1197.5,-52.5 1197.5,-0.5 1039.5,-0.5"/>
<text text-anchor="start" x="1047.5" y="-40.5" font-family="Helvetica,sans-Serif" font-size="10.00">/home/runner/work/Radium</text>
<text text-anchor="start" x="1047.5" y="-29.5" font-family="Helvetica,sans-Serif" font-size="10.00">&#45;Engine/Radium&#45;Engine/src</text>
<text text-anchor="start" x="1047.5" y="-18.5" font-family="Helvetica,sans-Serif" font-size="10.00">/Radium&#45;Engine/src/Engine</text>
<text text-anchor="middle" x="1118.5" y="-7.5" font-family="Helvetica,sans-Serif" font-size="10.00">/Scene/GeometrySystem.cpp</text>
</a>
</g>
</g>
<!-- Node10&#45;&gt;Node13 -->
<g id="edge16" class="edge">
<title>Node10&#45;&gt;Node13</title>
<path fill="none" stroke="midnightblue" d="M902.26,-88.15C942.13,-77.4 988.55,-64.76 1030.5,-53 1033.41,-52.18 1036.37,-51.35 1039.36,-50.5"/>
<polygon fill="midnightblue" stroke="midnightblue" points="901.29,-84.78 892.54,-90.76 903.11,-91.54 901.29,-84.78"/>
</g>
<!-- Node12&#45;&gt;Node10 -->
<g id="edge14" class="edge">
<title>Node12&#45;&gt;Node10</title>
<path fill="none" stroke="midnightblue" d="M895.05,-58.44C880.11,-68.57 863.13,-79.69 847.87,-89.34"/>
<polygon fill="midnightblue" stroke="midnightblue" points="897.31,-61.14 903.59,-52.61 893.36,-55.36 897.31,-61.14"/>
</g>
</g>
</svg>
        <g id="navigator" transform="translate(0 0)" fill="#404254">
                <rect fill="#f2f5e9" fill-opacity="0.5" stroke="#606060" stroke-width=".5" x="0" y="0" width="60" height="60"/>
                <use id="zoomplus" xlink:href="#zoomPlus" x="17" y="9" onmousedown="handleZoom(evt,'in')"/>
                <use id="zoomminus" xlink:href="#zoomMin" x="42" y="9" onmousedown="handleZoom(evt,'out')"/>
                <use id="reset" xlink:href="#resetDef" x="30" y="36" onmousedown="handleReset()"/>
                <g id="arrowUp" xlink:href="#dirArrow" transform="translate(30 24)" onmousedown="handlePan(0,-1)">
                  <use xlink:href="#rim" fill="#404040">
                        <set attributeName="fill" to="#808080" begin="arrowUp.mouseover" end="arrowUp.mouseout"/>
                  </use>
                  <path fill="none" stroke="white" stroke-width="1.5" d="M0,-3.0v7 M-2.5,-0.5L0,-3.0L2.5,-0.5"/>
                </g>
                <g id="arrowRight" xlink:href="#dirArrow" transform="rotate(90) translate(36 -43)" onmousedown="handlePan(1,0)">
                  <use xlink:href="#rim" fill="#404040">
                        <set attributeName="fill" to="#808080" begin="arrowRight.mouseover" end="arrowRight.mouseout"/>
                  </use>
                  <path fill="none" stroke="white" stroke-width="1.5" d="M0,-3.0v7 M-2.5,-0.5L0,-3.0L2.5,-0.5"/>
                </g>
                <g id="arrowDown" xlink:href="#dirArrow" transform="rotate(180) translate(-30 -48)" onmousedown="handlePan(0,1)">
                  <use xlink:href="#rim" fill="#404040">
                        <set attributeName="fill" to="#808080" begin="arrowDown.mouseover" end="arrowDown.mouseout"/>
                  </use>
                  <path fill="none" stroke="white" stroke-width="1.5" d="M0,-3.0v7 M-2.5,-0.5L0,-3.0L2.5,-0.5"/>
                </g>
                <g id="arrowLeft" xlink:href="#dirArrow" transform="rotate(270) translate(-36 17)" onmousedown="handlePan(-1,0)">
                  <use xlink:href="#rim" fill="#404040">
                        <set attributeName="fill" to="#808080" begin="arrowLeft.mouseover" end="arrowLeft.mouseout"/>
                  </use>
                  <path fill="none" stroke="white" stroke-width="1.5" d="M0,-3.0v7 M-2.5,-0.5L0,-3.0L2.5,-0.5"/>
                </g>
        </g>
        <svg viewBox="0 0 15 15" width="100%" height="30px" preserveAspectRatio="xMaxYMin meet">
         <g id="arrow_out" transform="scale(0.3 0.3)">
          <a xlink:href="Mesh_8inl__dep__incl_org.svg" target="_base">
           <rect id="button" ry="5" rx="5" y="6" x="6" height="38" width="38"
                fill="#f2f5e9" fill-opacity="0.5" stroke="#606060" stroke-width="1.0"/>
           <path id="arrow"
             d="M 11.500037,31.436501 C 11.940474,20.09759 22.043105,11.32322 32.158766,21.979434 L 37.068811,17.246167 C 37.068811,17.246167 37.088388,32 37.088388,32 L 22.160133,31.978069 C 22.160133,31.978069 26.997745,27.140456 26.997745,27.140456 C 18.528582,18.264221 13.291696,25.230495 11.500037,31.436501 z"
             style="fill:#404040;"/>
          </a>
         </g>
        </svg>
</svg>
