<?xml version="1.0" encoding="UTF-8" standalone="no"?>
<!DOCTYPE svg PUBLIC "-//W3C//DTD SVG 1.1//EN"
 "http://www.w3.org/Graphics/SVG/1.1/DTD/svg11.dtd">
<!-- Generated by graphviz version 2.40.1 (20161225.0304)
 -->
<!-- Title: Ra::Core::Geometry::areaWeightedNormal Pages: 1 -->
<svg width="427pt" height="127pt"
 viewBox="0.00 0.00 427.00 126.50" xmlns="http://www.w3.org/2000/svg" xmlns:xlink="http://www.w3.org/1999/xlink">
<g id="graph0" class="graph" transform="scale(1 1) rotate(0) translate(4 122.5)">
<title>Ra::Core::Geometry::areaWeightedNormal</title>
<polygon fill="#ffffff" stroke="transparent" points="-4,4 -4,-122.5 423,-122.5 423,4 -4,4"/>
<!-- Node28 -->
<g id="node1" class="node">
<title>Node28</title>
<polygon fill="#bfbfbf" stroke="#000000" points="0,-49.5 0,-79.5 126,-79.5 126,-49.5 0,-49.5"/>
<text text-anchor="start" x="8" y="-67.5" font-family="Helvetica,sans-Serif" font-size="10.00" fill="#000000">Ra::Core::Geometry</text>
<text text-anchor="middle" x="63" y="-56.5" font-family="Helvetica,sans-Serif" font-size="10.00" fill="#000000">::areaWeightedNormal</text>
</g>
<!-- Node29 -->
<g id="node2" class="node">
<title>Node29</title>
<g id="a_node2"><a xlink:href="namespaceRa_1_1Core_1_1Geometry.html#aa04e6052d8911b1df1bd881474debb45" target="_top" xlink:title="Ra::Core::Geometry::t">
<polygon fill="#ffffff" stroke="#000000" points="162,-99 162,-118 284,-118 284,-99 162,-99"/>
<text text-anchor="middle" x="223" y="-106" font-family="Helvetica,sans-Serif" font-size="10.00" fill="#000000">Ra::Core::Geometry::t</text>
</a>
</g>
</g>
<!-- Node28&#45;&gt;Node29 -->
<g id="edge1" class="edge">
<title>Node28&#45;&gt;Node29</title>
<path fill="none" stroke="#191970" d="M117.6154,-79.5192C137.4137,-84.9638 159.5259,-91.0446 178.3632,-96.2249"/>
<polygon fill="#191970" stroke="#191970" points="177.5997,-99.6448 188.1699,-98.9217 179.4559,-92.8954 177.5997,-99.6448"/>
</g>
<!-- Node30 -->
<g id="node3" class="node">
<title>Node30</title>
<g id="a_node3"><a xlink:href="namespaceRa_1_1Core_1_1Geometry.html#a178f2b7309fe2ea5bc31a3abcb25368e" target="_top" xlink:title="Ra::Core::Geometry\l::triangleArea">
<polygon fill="#ffffff" stroke="#000000" points="166.5,-.5 166.5,-30.5 279.5,-30.5 279.5,-.5 166.5,-.5"/>
<text text-anchor="start" x="174.5" y="-18.5" font-family="Helvetica,sans-Serif" font-size="10.00" fill="#000000">Ra::Core::Geometry</text>
<text text-anchor="middle" x="223" y="-7.5" font-family="Helvetica,sans-Serif" font-size="10.00" fill="#000000">::triangleArea</text>
</a>
</g>
</g>
<!-- Node28&#45;&gt;Node30 -->
<g id="edge2" class="edge">
<title>Node28&#45;&gt;Node30</title>
<path fill="none" stroke="#191970" d="M112.3108,-49.3986C128.6598,-44.3917 147.0243,-38.7676 164.0252,-33.561"/>
<polygon fill="#191970" stroke="#191970" points="165.3152,-36.8265 173.852,-30.5516 163.2654,-30.1333 165.3152,-36.8265"/>
</g>
<!-- Node33 -->
<g id="node6" class="node">
<title>Node33</title>
<g id="a_node6"><a xlink:href="namespaceRa_1_1Core_1_1Geometry.html#a2ce97206423345716bf1b55f60c1c227" target="_top" xlink:title="Ra::Core::Geometry\l::triangleNormal">
<polygon fill="#ffffff" stroke="#000000" points="166.5,-49.5 166.5,-79.5 279.5,-79.5 279.5,-49.5 166.5,-49.5"/>
<text text-anchor="start" x="174.5" y="-67.5" font-family="Helvetica,sans-Serif" font-size="10.00" fill="#000000">Ra::Core::Geometry</text>
<text text-anchor="middle" x="223" y="-56.5" font-family="Helvetica,sans-Serif" font-size="10.00" fill="#000000">::triangleNormal</text>
</a>
</g>
</g>
<!-- Node28&#45;&gt;Node33 -->
<g id="edge5" class="edge">
<title>Node28&#45;&gt;Node33</title>
<path fill="none" stroke="#191970" d="M126.2362,-64.5C136.0903,-64.5 146.2997,-64.5 156.2294,-64.5"/>
<polygon fill="#191970" stroke="#191970" points="156.4493,-68.0001 166.4493,-64.5 156.4492,-61.0001 156.4493,-68.0001"/>
</g>
<!-- Node31 -->
<g id="node4" class="node">
<title>Node31</title>
<g id="a_node4"><a xlink:href="namespaceOpenMesh.html#a71e7f1dd3eac016d2b8245ac408a291c" target="_top" xlink:title="OpenMesh::cross">
<polygon fill="#ffffff" stroke="#000000" points="320,-49 320,-68 419,-68 419,-49 320,-49"/>
<text text-anchor="middle" x="369.5" y="-56" font-family="Helvetica,sans-Serif" font-size="10.00" fill="#000000">OpenMesh::cross</text>
</a>
</g>
</g>
<!-- Node30&#45;&gt;Node31 -->
<g id="edge3" class="edge">
<title>Node30&#45;&gt;Node31</title>
<path fill="none" stroke="#191970" d="M274.2386,-30.5393C291.4579,-35.5934 310.4662,-41.1727 326.9445,-46.0093"/>
<polygon fill="#191970" stroke="#191970" points="326.2581,-49.4554 336.839,-48.9135 328.2296,-42.7388 326.2581,-49.4554"/>
</g>
<!-- Node32 -->
<g id="node5" class="node">
<title>Node32</title>
<g id="a_node5"><a xlink:href="namespaceOpenMesh.html#a8205f789ce08919bc11c58383574596c" target="_top" xlink:title="OpenMesh::norm">
<polygon fill="#ffffff" stroke="#000000" points="320,-6 320,-25 419,-25 419,-6 320,-6"/>
<text text-anchor="middle" x="369.5" y="-13" font-family="Helvetica,sans-Serif" font-size="10.00" fill="#000000">OpenMesh::norm</text>
</a>
</g>
</g>
<!-- Node30&#45;&gt;Node32 -->
<g id="edge4" class="edge">
<title>Node30&#45;&gt;Node32</title>
<path fill="none" stroke="#191970" d="M279.6407,-15.5C289.4412,-15.5 299.6605,-15.5 309.5455,-15.5"/>
<polygon fill="#191970" stroke="#191970" points="309.6942,-19.0001 319.6942,-15.5 309.6941,-12.0001 309.6942,-19.0001"/>
</g>
<!-- Node33&#45;&gt;Node31 -->
<g id="edge6" class="edge">
<title>Node33&#45;&gt;Node31</title>
<path fill="none" stroke="#191970" d="M279.6407,-62.1802C289.4412,-61.7789 299.6605,-61.3603 309.5455,-60.9555"/>
<polygon fill="#191970" stroke="#191970" points="309.8458,-64.4462 319.6942,-60.5398 309.5593,-57.4521 309.8458,-64.4462"/>
</g>
</g>
</svg>
