<?xml version="1.0" encoding="UTF-8" standalone="no"?>
<!DOCTYPE svg PUBLIC "-//W3C//DTD SVG 1.1//EN"
 "http://www.w3.org/Graphics/SVG/1.1/DTD/svg11.dtd">
<!-- Generated by graphviz version 2.40.1 (20161225.0304)
 -->
<!-- Title: Ra::Engine::getItemROs Pages: 1 -->
<svg width="793pt" height="410pt"
 viewBox="0.00 0.00 793.00 410.00" xmlns="http://www.w3.org/2000/svg" xmlns:xlink="http://www.w3.org/1999/xlink">
<g id="graph0" class="graph" transform="scale(1 1) rotate(0) translate(4 406)">
<title>Ra::Engine::getItemROs</title>
<polygon fill="#ffffff" stroke="transparent" points="-4,4 -4,-406 789,-406 789,4 -4,4"/>
<!-- Node16 -->
<g id="node1" class="node">
<title>Node16</title>
<polygon fill="#bfbfbf" stroke="#000000" points="0,-251 0,-270 132,-270 132,-251 0,-251"/>
<text text-anchor="middle" x="66" y="-258" font-family="Helvetica,sans-Serif" font-size="10.00" fill="#000000">Ra::Engine::getItemROs</text>
</g>
<!-- Node17 -->
<g id="node2" class="node">
<title>Node17</title>
<g id="a_node2"><a xlink:href="structRa_1_1Engine_1_1ItemEntry.html#a1339c8b1b1457427d3eeb0ced54bc6a6" target="_top" xlink:title="Returns true if the item represents any valid object. ">
<polygon fill="#ffffff" stroke="#000000" points="168,-196.5 168,-226.5 290,-226.5 290,-196.5 168,-196.5"/>
<text text-anchor="start" x="176" y="-214.5" font-family="Helvetica,sans-Serif" font-size="10.00" fill="#000000">Ra::Engine::ItemEntry</text>
<text text-anchor="middle" x="229" y="-203.5" font-family="Helvetica,sans-Serif" font-size="10.00" fill="#000000">::isValid</text>
</a>
</g>
</g>
<!-- Node16&#45;&gt;Node17 -->
<g id="edge1" class="edge">
<title>Node16&#45;&gt;Node17</title>
<path fill="none" stroke="#191970" d="M97.815,-250.936C118.0909,-244.8408 145.0012,-236.7512 169.17,-229.4857"/>
<polygon fill="#191970" stroke="#191970" points="170.4101,-232.7677 178.9791,-226.537 168.3948,-226.0641 170.4101,-232.7677"/>
</g>
<!-- Node23 -->
<g id="node8" class="node">
<title>Node23</title>
<g id="a_node8"><a xlink:href="structRa_1_1Engine_1_1ItemEntry.html#a34e6a9addd931949e507bff26759f751" target="_top" xlink:title="Returns true if the item represents a render object. ">
<polygon fill="#ffffff" stroke="#000000" points="338,-245.5 338,-275.5 460,-275.5 460,-245.5 338,-245.5"/>
<text text-anchor="start" x="346" y="-263.5" font-family="Helvetica,sans-Serif" font-size="10.00" fill="#000000">Ra::Engine::ItemEntry</text>
<text text-anchor="middle" x="399" y="-252.5" font-family="Helvetica,sans-Serif" font-size="10.00" fill="#000000">::isRoNode</text>
</a>
</g>
</g>
<!-- Node16&#45;&gt;Node23 -->
<g id="edge13" class="edge">
<title>Node16&#45;&gt;Node23</title>
<path fill="none" stroke="#191970" d="M132.1882,-260.5C188.7302,-260.5 269.8782,-260.5 327.8123,-260.5"/>
<polygon fill="#191970" stroke="#191970" points="327.9863,-264.0001 337.9863,-260.5 327.9862,-257.0001 327.9863,-264.0001"/>
</g>
<!-- Node27 -->
<g id="node12" class="node">
<title>Node27</title>
<g id="a_node12"><a xlink:href="structRa_1_1Engine_1_1ItemEntry.html#abf969f288b9f89ed2a268b2cc70fb78a" target="_top" xlink:title="Returns true if the item represents a component. ">
<polygon fill="#ffffff" stroke="#000000" points="338,-371.5 338,-401.5 460,-401.5 460,-371.5 338,-371.5"/>
<text text-anchor="start" x="346" y="-389.5" font-family="Helvetica,sans-Serif" font-size="10.00" fill="#000000">Ra::Engine::ItemEntry</text>
<text text-anchor="middle" x="399" y="-378.5" font-family="Helvetica,sans-Serif" font-size="10.00" fill="#000000">::isComponentNode</text>
</a>
</g>
</g>
<!-- Node16&#45;&gt;Node27 -->
<g id="edge14" class="edge">
<title>Node16&#45;&gt;Node27</title>
<path fill="none" stroke="#191970" d="M73.8183,-270.1025C89.5156,-288.6532 126.8998,-329.279 168,-348.5 218.2486,-371.9994 280.578,-381.2428 327.8237,-384.7518"/>
<polygon fill="#191970" stroke="#191970" points="327.7567,-388.2551 337.9693,-385.435 328.2271,-381.2709 327.7567,-388.2551"/>
</g>
<!-- Node28 -->
<g id="node13" class="node">
<title>Node28</title>
<g id="a_node13"><a xlink:href="structRa_1_1Engine_1_1ItemEntry.html#ae958f5e3bf366fdd8271f0d862e4c8f9" target="_top" xlink:title="Returns true if the item represents an entity. ">
<polygon fill="#ffffff" stroke="#000000" points="168,-308.5 168,-338.5 290,-338.5 290,-308.5 168,-308.5"/>
<text text-anchor="start" x="176" y="-326.5" font-family="Helvetica,sans-Serif" font-size="10.00" fill="#000000">Ra::Engine::ItemEntry</text>
<text text-anchor="middle" x="229" y="-315.5" font-family="Helvetica,sans-Serif" font-size="10.00" fill="#000000">::isEntityNode</text>
</a>
</g>
</g>
<!-- Node16&#45;&gt;Node28 -->
<g id="edge17" class="edge">
<title>Node16&#45;&gt;Node28</title>
<path fill="none" stroke="#191970" d="M90.7562,-270.0683C114.4406,-279.2224 150.8174,-293.2822 180.3119,-304.6819"/>
<polygon fill="#191970" stroke="#191970" points="179.4328,-308.0944 190.0222,-308.435 181.9565,-301.5651 179.4328,-308.0944"/>
</g>
<!-- Node29 -->
<g id="node14" class="node">
<title>Node29</title>
<g id="a_node14"><a xlink:href="classRa_1_1Engine_1_1Entity.html#a9118e0d9b5f9b206ff5d172d24c967ab" target="_top" xlink:title="Ra::Engine::Entity\l::getComponents">
<polygon fill="#ffffff" stroke="#000000" points="177.5,-147.5 177.5,-177.5 280.5,-177.5 280.5,-147.5 177.5,-147.5"/>
<text text-anchor="start" x="185.5" y="-165.5" font-family="Helvetica,sans-Serif" font-size="10.00" fill="#000000">Ra::Engine::Entity</text>
<text text-anchor="middle" x="229" y="-154.5" font-family="Helvetica,sans-Serif" font-size="10.00" fill="#000000">::getComponents</text>
</a>
</g>
</g>
<!-- Node16&#45;&gt;Node29 -->
<g id="edge19" class="edge">
<title>Node16&#45;&gt;Node29</title>
<path fill="none" stroke="#191970" d="M77.289,-250.8222C95.4485,-235.6089 132.6967,-205.8429 168,-186.5 171.0363,-184.8364 174.2123,-183.2293 177.4521,-181.6887"/>
<polygon fill="#191970" stroke="#191970" points="179.0057,-184.8277 186.6879,-177.5315 176.1325,-178.4445 179.0057,-184.8277"/>
</g>
<!-- Node18 -->
<g id="node3" class="node">
<title>Node18</title>
<g id="a_node3"><a xlink:href="structRa_1_1Engine_1_1ItemEntry.html#acc4d0f03ddd27dce426af9ed9c8993c9" target="_top" xlink:title="Debug checks. ">
<polygon fill="#ffffff" stroke="#000000" points="508,-327.5 508,-357.5 630,-357.5 630,-327.5 508,-327.5"/>
<text text-anchor="start" x="516" y="-345.5" font-family="Helvetica,sans-Serif" font-size="10.00" fill="#000000">Ra::Engine::ItemEntry</text>
<text text-anchor="middle" x="569" y="-334.5" font-family="Helvetica,sans-Serif" font-size="10.00" fill="#000000">::checkConsistency</text>
</a>
</g>
</g>
<!-- Node17&#45;&gt;Node18 -->
<g id="edge2" class="edge">
<title>Node17&#45;&gt;Node18</title>
<path fill="none" stroke="#191970" d="M244.7982,-226.7012C262.9544,-243.3336 294.3415,-269.6065 326,-284.5 356.1597,-298.6884 437.6926,-316.7459 498.0424,-328.9126"/>
<polygon fill="#191970" stroke="#191970" points="497.4195,-332.3573 507.912,-330.8881 498.7934,-325.4934 497.4195,-332.3573"/>
</g>
<!-- Node20 -->
<g id="node5" class="node">
<title>Node20</title>
<g id="a_node5"><a xlink:href="classRa_1_1Engine_1_1RadiumEngine.html#a26f952bd9650234940f69053db06d118" target="_top" xlink:title="Ra::Engine::RadiumEngine\l::getEntityManager">
<polygon fill="#ffffff" stroke="#000000" points="326.5,-49.5 326.5,-79.5 471.5,-79.5 471.5,-49.5 326.5,-49.5"/>
<text text-anchor="start" x="334.5" y="-67.5" font-family="Helvetica,sans-Serif" font-size="10.00" fill="#000000">Ra::Engine::RadiumEngine</text>
<text text-anchor="middle" x="399" y="-56.5" font-family="Helvetica,sans-Serif" font-size="10.00" fill="#000000">::getEntityManager</text>
</a>
</g>
</g>
<!-- Node17&#45;&gt;Node20 -->
<g id="edge4" class="edge">
<title>Node17&#45;&gt;Node20</title>
<path fill="none" stroke="#191970" d="M277.1226,-196.4634C281.8489,-193.6669 286.2672,-190.3732 290,-186.5 322.1996,-153.0893 292.6297,-120.7414 326,-88.5 327.1094,-87.4282 328.2674,-86.4042 329.4675,-85.426"/>
<polygon fill="#191970" stroke="#191970" points="331.6693,-88.1597 337.9277,-79.6108 327.7042,-82.391 331.6693,-88.1597"/>
</g>
<!-- Node21 -->
<g id="node6" class="node">
<title>Node21</title>
<g id="a_node6"><a xlink:href="classRa_1_1Engine_1_1EntityManager.html#a34aaf911d9ee2d1c592b260d9614f5bc" target="_top" xlink:title="Check wether an entity with a given name exists or not. ">
<polygon fill="#ffffff" stroke="#000000" points="326.5,-196.5 326.5,-226.5 471.5,-226.5 471.5,-196.5 326.5,-196.5"/>
<text text-anchor="start" x="334.5" y="-214.5" font-family="Helvetica,sans-Serif" font-size="10.00" fill="#000000">Ra::Engine::EntityManager</text>
<text text-anchor="middle" x="399" y="-203.5" font-family="Helvetica,sans-Serif" font-size="10.00" fill="#000000">::entityExists</text>
</a>
</g>
</g>
<!-- Node17&#45;&gt;Node21 -->
<g id="edge5" class="edge">
<title>Node17&#45;&gt;Node21</title>
<path fill="none" stroke="#191970" d="M290.3739,-211.5C298.7819,-211.5 307.5249,-211.5 316.2366,-211.5"/>
<polygon fill="#191970" stroke="#191970" points="316.427,-215.0001 326.427,-211.5 316.427,-208.0001 316.427,-215.0001"/>
</g>
<!-- Node22 -->
<g id="node7" class="node">
<title>Node22</title>
<g id="a_node7"><a xlink:href="classRa_1_1Engine_1_1Entity.html#a236c7b600cc1bfb88ad1138325b5dd28" target="_top" xlink:title="Ra::Engine::Entity\l::getName">
<polygon fill="#ffffff" stroke="#000000" points="347.5,-147.5 347.5,-177.5 450.5,-177.5 450.5,-147.5 347.5,-147.5"/>
<text text-anchor="start" x="355.5" y="-165.5" font-family="Helvetica,sans-Serif" font-size="10.00" fill="#000000">Ra::Engine::Entity</text>
<text text-anchor="middle" x="399" y="-154.5" font-family="Helvetica,sans-Serif" font-size="10.00" fill="#000000">::getName</text>
</a>
</g>
</g>
<!-- Node17&#45;&gt;Node22 -->
<g id="edge6" class="edge">
<title>Node17&#45;&gt;Node22</title>
<path fill="none" stroke="#191970" d="M281.3928,-196.3986C299.1724,-191.2738 319.1956,-185.5024 337.6125,-180.1941"/>
<polygon fill="#191970" stroke="#191970" points="338.7249,-183.516 347.3643,-177.3832 336.7861,-176.7898 338.7249,-183.516"/>
</g>
<!-- Node17&#45;&gt;Node23 -->
<g id="edge7" class="edge">
<title>Node17&#45;&gt;Node23</title>
<path fill="none" stroke="#191970" d="M281.3928,-226.6014C299.007,-231.6785 318.8233,-237.3902 337.0981,-242.6577"/>
<polygon fill="#191970" stroke="#191970" points="336.202,-246.0418 346.7802,-245.4484 338.1408,-239.3157 336.202,-246.0418"/>
</g>
<!-- Node25 -->
<g id="node10" class="node">
<title>Node25</title>
<g id="a_node10"><a xlink:href="classRa_1_1Engine_1_1RadiumEngine.html#a28bc0716e719a702079a55a096340d16" target="_top" xlink:title="Manager getters. ">
<polygon fill="#ffffff" stroke="#000000" points="326,-98.5 326,-128.5 472,-128.5 472,-98.5 326,-98.5"/>
<text text-anchor="start" x="334" y="-116.5" font-family="Helvetica,sans-Serif" font-size="10.00" fill="#000000">Ra::Engine::RadiumEngine</text>
<text text-anchor="middle" x="399" y="-105.5" font-family="Helvetica,sans-Serif" font-size="10.00" fill="#000000">::getRenderObjectManager</text>
</a>
</g>
</g>
<!-- Node17&#45;&gt;Node25 -->
<g id="edge10" class="edge">
<title>Node17&#45;&gt;Node25</title>
<path fill="none" stroke="#191970" d="M273.9045,-196.4736C279.599,-193.6159 285.1292,-190.3042 290,-186.5 311.2976,-169.8662 304.1229,-153.3639 326,-137.5 328.0791,-135.9924 330.2582,-134.5758 332.5106,-133.2451"/>
<polygon fill="#191970" stroke="#191970" points="334.2752,-136.2718 341.5051,-128.5272 331.0236,-130.0729 334.2752,-136.2718"/>
</g>
<!-- Node26 -->
<g id="node11" class="node">
<title>Node26</title>
<g id="a_node11"><a xlink:href="classRa_1_1Engine_1_1RenderObjectManager.html#a242218228300c8e03481863b9a808dec" target="_top" xlink:title="Ra::Engine::RenderObject\lManager::exists">
<polygon fill="#ffffff" stroke="#000000" points="329,-.5 329,-30.5 469,-30.5 469,-.5 329,-.5"/>
<text text-anchor="start" x="337" y="-18.5" font-family="Helvetica,sans-Serif" font-size="10.00" fill="#000000">Ra::Engine::RenderObject</text>
<text text-anchor="middle" x="399" y="-7.5" font-family="Helvetica,sans-Serif" font-size="10.00" fill="#000000">Manager::exists</text>
</a>
</g>
</g>
<!-- Node17&#45;&gt;Node26 -->
<g id="edge11" class="edge">
<title>Node17&#45;&gt;Node26</title>
<path fill="none" stroke="#191970" d="M278.1582,-196.4991C282.5746,-193.7054 286.6389,-190.4024 290,-186.5 333.8962,-135.5337 280.3146,-88.8689 326,-39.5 326.892,-38.5361 327.8232,-37.6109 328.7895,-36.7228"/>
<polygon fill="#191970" stroke="#191970" points="330.9754,-39.4576 336.8109,-30.6147 326.7345,-33.8884 330.9754,-39.4576"/>
</g>
<!-- Node19 -->
<g id="node4" class="node">
<title>Node19</title>
<g id="a_node4"><a xlink:href="classRa_1_1Core_1_1Utils_1_1Index.html#a752c4d2e38168a3b1977100caa21b1b8" target="_top" xlink:title="INVALID. ">
<polygon fill="#ffffff" stroke="#000000" points="666,-349.5 666,-379.5 785,-379.5 785,-349.5 666,-349.5"/>
<text text-anchor="start" x="674" y="-367.5" font-family="Helvetica,sans-Serif" font-size="10.00" fill="#000000">Ra::Core::Utils::Index</text>
<text text-anchor="middle" x="725.5" y="-356.5" font-family="Helvetica,sans-Serif" font-size="10.00" fill="#000000">::isInvalid</text>
</a>
</g>
</g>
<!-- Node18&#45;&gt;Node19 -->
<g id="edge3" class="edge">
<title>Node18&#45;&gt;Node19</title>
<path fill="none" stroke="#191970" d="M630.4038,-351.1318C638.6835,-352.2958 647.2273,-353.4968 655.6403,-354.6795"/>
<polygon fill="#191970" stroke="#191970" points="655.4209,-358.183 665.8108,-356.1092 656.3954,-351.2511 655.4209,-358.183"/>
</g>
<!-- Node23&#45;&gt;Node18 -->
<g id="edge8" class="edge">
<title>Node23&#45;&gt;Node18</title>
<path fill="none" stroke="#191970" d="M437.9643,-275.6526C449.0623,-280.1998 461.0958,-285.3531 472,-290.5 492.7473,-300.293 515.3711,-312.3388 533.547,-322.3699"/>
<polygon fill="#191970" stroke="#191970" points="532.172,-325.61 542.613,-327.4093 535.573,-319.4917 532.172,-325.61"/>
</g>
<!-- Node24 -->
<g id="node9" class="node">
<title>Node24</title>
<g id="a_node9"><a xlink:href="classRa_1_1Core_1_1Utils_1_1Index.html#ac1a3e02d77abd15c2a307673f5b67fa1" target="_top" xlink:title="VALID. ">
<polygon fill="#ffffff" stroke="#000000" points="509.5,-123.5 509.5,-153.5 628.5,-153.5 628.5,-123.5 509.5,-123.5"/>
<text text-anchor="start" x="517.5" y="-141.5" font-family="Helvetica,sans-Serif" font-size="10.00" fill="#000000">Ra::Core::Utils::Index</text>
<text text-anchor="middle" x="569" y="-130.5" font-family="Helvetica,sans-Serif" font-size="10.00" fill="#000000">::isValid</text>
</a>
</g>
</g>
<!-- Node23&#45;&gt;Node24 -->
<g id="edge9" class="edge">
<title>Node23&#45;&gt;Node24</title>
<path fill="none" stroke="#191970" d="M452.5446,-245.3589C459.317,-242.5306 465.9757,-239.2574 472,-235.5 503.8945,-215.607 533.3327,-183.3713 551.2194,-161.5746"/>
<polygon fill="#191970" stroke="#191970" points="553.9492,-163.765 557.4901,-153.7794 548.4949,-159.3774 553.9492,-163.765"/>
</g>
<!-- Node26&#45;&gt;Node24 -->
<g id="edge12" class="edge">
<title>Node26&#45;&gt;Node24</title>
<path fill="none" stroke="#191970" d="M454.4954,-30.5849C460.5985,-33.1586 466.563,-36.1168 472,-39.5 504.4274,-59.6779 533.9322,-92.8917 551.673,-115.2199"/>
<polygon fill="#191970" stroke="#191970" points="548.9746,-117.4515 557.8779,-123.1946 554.4993,-113.1528 548.9746,-117.4515"/>
</g>
<!-- Node27&#45;&gt;Node18 -->
<g id="edge15" class="edge">
<title>Node27&#45;&gt;Node18</title>
<path fill="none" stroke="#191970" d="M457.0289,-371.4808C471.1744,-367.8196 486.4316,-363.8706 500.995,-360.1013"/>
<polygon fill="#191970" stroke="#191970" points="502.1402,-363.4203 510.9442,-357.5262 500.3862,-356.6436 502.1402,-363.4203"/>
</g>
<!-- Node27&#45;&gt;Node19 -->
<g id="edge16" class="edge">
<title>Node27&#45;&gt;Node19</title>
<path fill="none" stroke="#191970" d="M460.0291,-382.3878C515.5727,-378.6452 597.5332,-373.1226 655.6691,-369.2053"/>
<polygon fill="#191970" stroke="#191970" points="656.1302,-372.6823 665.8723,-368.5178 655.6596,-365.6981 656.1302,-372.6823"/>
</g>
<!-- Node28&#45;&gt;Node18 -->
<g id="edge18" class="edge">
<title>Node28&#45;&gt;Node18</title>
<path fill="none" stroke="#191970" d="M290.1779,-326.9188C348.4939,-330.1776 436.2835,-335.0835 497.7326,-338.5174"/>
<polygon fill="#191970" stroke="#191970" points="497.561,-342.0132 507.7407,-339.0767 497.9516,-335.0241 497.561,-342.0132"/>
</g>
</g>
</svg>
