<?xml version="1.0" encoding="UTF-8" standalone="no"?>
<!DOCTYPE svg PUBLIC "-//W3C//DTD SVG 1.1//EN"
 "http://www.w3.org/Graphics/SVG/1.1/DTD/svg11.dtd">
<!-- Generated by graphviz version 2.40.1 (20161225.0304)
 -->
<!-- Title: Ra::Core::Geometry::barycentricArea Pages: 1 -->
<svg width="563pt" height="91pt"
 viewBox="0.00 0.00 563.00 91.00" xmlns="http://www.w3.org/2000/svg" xmlns:xlink="http://www.w3.org/1999/xlink">
<g id="graph0" class="graph" transform="scale(1 1) rotate(0) translate(4 87)">
<title>Ra::Core::Geometry::barycentricArea</title>
<polygon fill="#ffffff" stroke="transparent" points="-4,4 -4,-87 559,-87 559,4 -4,4"/>
<!-- Node54 -->
<g id="node1" class="node">
<title>Node54</title>
<polygon fill="#bfbfbf" stroke="#000000" points="0,-36 0,-66 113,-66 113,-36 0,-36"/>
<text text-anchor="start" x="8" y="-54" font-family="Helvetica,sans-Serif" font-size="10.00" fill="#000000">Ra::Core::Geometry</text>
<text text-anchor="middle" x="56.5" y="-43" font-family="Helvetica,sans-Serif" font-size="10.00" fill="#000000">::barycentricArea</text>
</g>
<!-- Node55 -->
<g id="node2" class="node">
<title>Node55</title>
<g id="a_node2"><a xlink:href="namespaceRa_1_1Core_1_1Geometry.html#ac7699468390d5560fbe9f11c5c85fc65" target="_top" xlink:title="GLOBAL MATRIX ///. ">
<polygon fill="#ffffff" stroke="#000000" points="149,-36 149,-66 262,-66 262,-36 149,-36"/>
<text text-anchor="start" x="157" y="-54" font-family="Helvetica,sans-Serif" font-size="10.00" fill="#000000">Ra::Core::Geometry</text>
<text text-anchor="middle" x="205.5" y="-43" font-family="Helvetica,sans-Serif" font-size="10.00" fill="#000000">::oneRingArea</text>
</a>
</g>
</g>
<!-- Node54&#45;&gt;Node55 -->
<g id="edge1" class="edge">
<title>Node54&#45;&gt;Node55</title>
<path fill="none" stroke="#191970" d="M113.2556,-51C121.558,-51 130.1727,-51 138.6536,-51"/>
<polygon fill="#191970" stroke="#191970" points="138.9023,-54.5001 148.9022,-51 138.9022,-47.5001 138.9023,-54.5001"/>
</g>
<!-- Node56 -->
<g id="node3" class="node">
<title>Node56</title>
<g id="a_node3"><a xlink:href="namespaceRa_1_1Core_1_1Geometry.html#aa04e6052d8911b1df1bd881474debb45" target="_top" xlink:title="Ra::Core::Geometry::t">
<polygon fill="#ffffff" stroke="#000000" points="298,-63.5 298,-82.5 420,-82.5 420,-63.5 298,-63.5"/>
<text text-anchor="middle" x="359" y="-70.5" font-family="Helvetica,sans-Serif" font-size="10.00" fill="#000000">Ra::Core::Geometry::t</text>
</a>
</g>
</g>
<!-- Node55&#45;&gt;Node56 -->
<g id="edge2" class="edge">
<title>Node55&#45;&gt;Node56</title>
<path fill="none" stroke="#191970" d="M262.2216,-59.1295C270.5698,-60.326 279.2578,-61.5712 287.8518,-62.8029"/>
<polygon fill="#191970" stroke="#191970" points="287.4756,-66.2846 297.871,-64.2388 288.4687,-59.3554 287.4756,-66.2846"/>
</g>
<!-- Node57 -->
<g id="node4" class="node">
<title>Node57</title>
<g id="a_node4"><a xlink:href="namespaceRa_1_1Core_1_1Geometry.html#a178f2b7309fe2ea5bc31a3abcb25368e" target="_top" xlink:title="Ra::Core::Geometry\l::triangleArea">
<polygon fill="#ffffff" stroke="#000000" points="302.5,-14 302.5,-44 415.5,-44 415.5,-14 302.5,-14"/>
<text text-anchor="start" x="310.5" y="-32" font-family="Helvetica,sans-Serif" font-size="10.00" fill="#000000">Ra::Core::Geometry</text>
<text text-anchor="middle" x="359" y="-21" font-family="Helvetica,sans-Serif" font-size="10.00" fill="#000000">::triangleArea</text>
</a>
</g>
</g>
<!-- Node55&#45;&gt;Node57 -->
<g id="edge3" class="edge">
<title>Node55&#45;&gt;Node57</title>
<path fill="none" stroke="#191970" d="M262.2216,-42.8705C272.0216,-41.466 282.2901,-39.9943 292.3247,-38.5561"/>
<polygon fill="#191970" stroke="#191970" points="292.8531,-42.0162 302.2554,-37.1328 291.86,-35.087 292.8531,-42.0162"/>
</g>
<!-- Node58 -->
<g id="node5" class="node">
<title>Node58</title>
<g id="a_node5"><a xlink:href="namespaceOpenMesh.html#a71e7f1dd3eac016d2b8245ac408a291c" target="_top" xlink:title="OpenMesh::cross">
<polygon fill="#ffffff" stroke="#000000" points="456,-38.5 456,-57.5 555,-57.5 555,-38.5 456,-38.5"/>
<text text-anchor="middle" x="505.5" y="-45.5" font-family="Helvetica,sans-Serif" font-size="10.00" fill="#000000">OpenMesh::cross</text>
</a>
</g>
</g>
<!-- Node57&#45;&gt;Node58 -->
<g id="edge4" class="edge">
<title>Node57&#45;&gt;Node58</title>
<path fill="none" stroke="#191970" d="M415.6407,-36.3459C425.4412,-37.617 435.6605,-38.9423 445.5455,-40.2243"/>
<polygon fill="#191970" stroke="#191970" points="445.327,-43.7252 455.6942,-41.5405 446.2274,-36.7834 445.327,-43.7252"/>
</g>
<!-- Node59 -->
<g id="node6" class="node">
<title>Node59</title>
<g id="a_node6"><a xlink:href="namespaceOpenMesh.html#a8205f789ce08919bc11c58383574596c" target="_top" xlink:title="OpenMesh::norm">
<polygon fill="#ffffff" stroke="#000000" points="456,-.5 456,-19.5 555,-19.5 555,-.5 456,-.5"/>
<text text-anchor="middle" x="505.5" y="-7.5" font-family="Helvetica,sans-Serif" font-size="10.00" fill="#000000">OpenMesh::norm</text>
</a>
</g>
</g>
<!-- Node57&#45;&gt;Node59 -->
<g id="edge5" class="edge">
<title>Node57&#45;&gt;Node59</title>
<path fill="none" stroke="#191970" d="M415.6407,-21.6541C425.4412,-20.383 435.6605,-19.0577 445.5455,-17.7757"/>
<polygon fill="#191970" stroke="#191970" points="446.2274,-21.2166 455.6942,-16.4595 445.327,-14.2748 446.2274,-21.2166"/>
</g>
</g>
</svg>
