<?xml version="1.0" encoding="UTF-8" standalone="no"?>
<!DOCTYPE svg PUBLIC "-//W3C//DTD SVG 1.1//EN"
 "http://www.w3.org/Graphics/SVG/1.1/DTD/svg11.dtd">
<!-- Generated by graphviz version 2.40.1 (20161225.0304)
 -->
<!-- Title: Ra::Core::Geometry::oneRingArea Pages: 1 -->
<svg width="414pt" height="91pt"
 viewBox="0.00 0.00 414.00 91.00" xmlns="http://www.w3.org/2000/svg" xmlns:xlink="http://www.w3.org/1999/xlink">
<g id="graph0" class="graph" transform="scale(1 1) rotate(0) translate(4 87)">
<title>Ra::Core::Geometry::oneRingArea</title>
<polygon fill="#ffffff" stroke="transparent" points="-4,4 -4,-87 410,-87 410,4 -4,4"/>
<!-- Node298 -->
<g id="node1" class="node">
<title>Node298</title>
<polygon fill="#bfbfbf" stroke="#000000" points="0,-36 0,-66 113,-66 113,-36 0,-36"/>
<text text-anchor="start" x="8" y="-54" font-family="Helvetica,sans-Serif" font-size="10.00" fill="#000000">Ra::Core::Geometry</text>
<text text-anchor="middle" x="56.5" y="-43" font-family="Helvetica,sans-Serif" font-size="10.00" fill="#000000">::oneRingArea</text>
</g>
<!-- Node299 -->
<g id="node2" class="node">
<title>Node299</title>
<g id="a_node2"><a xlink:href="namespaceRa_1_1Core_1_1Geometry.html#aa04e6052d8911b1df1bd881474debb45" target="_top" xlink:title="Ra::Core::Geometry::t">
<polygon fill="#ffffff" stroke="#000000" points="149,-63.5 149,-82.5 271,-82.5 271,-63.5 149,-63.5"/>
<text text-anchor="middle" x="210" y="-70.5" font-family="Helvetica,sans-Serif" font-size="10.00" fill="#000000">Ra::Core::Geometry::t</text>
</a>
</g>
</g>
<!-- Node298&#45;&gt;Node299 -->
<g id="edge1" class="edge">
<title>Node298&#45;&gt;Node299</title>
<path fill="none" stroke="#191970" d="M113.2216,-59.1295C121.5698,-60.326 130.2578,-61.5712 138.8518,-62.8029"/>
<polygon fill="#191970" stroke="#191970" points="138.4756,-66.2846 148.871,-64.2388 139.4687,-59.3554 138.4756,-66.2846"/>
</g>
<!-- Node300 -->
<g id="node3" class="node">
<title>Node300</title>
<g id="a_node3"><a xlink:href="namespaceRa_1_1Core_1_1Geometry.html#a178f2b7309fe2ea5bc31a3abcb25368e" target="_top" xlink:title="Ra::Core::Geometry\l::triangleArea">
<polygon fill="#ffffff" stroke="#000000" points="153.5,-14 153.5,-44 266.5,-44 266.5,-14 153.5,-14"/>
<text text-anchor="start" x="161.5" y="-32" font-family="Helvetica,sans-Serif" font-size="10.00" fill="#000000">Ra::Core::Geometry</text>
<text text-anchor="middle" x="210" y="-21" font-family="Helvetica,sans-Serif" font-size="10.00" fill="#000000">::triangleArea</text>
</a>
</g>
</g>
<!-- Node298&#45;&gt;Node300 -->
<g id="edge2" class="edge">
<title>Node298&#45;&gt;Node300</title>
<path fill="none" stroke="#191970" d="M113.2216,-42.8705C123.0216,-41.466 133.2901,-39.9943 143.3247,-38.5561"/>
<polygon fill="#191970" stroke="#191970" points="143.8531,-42.0162 153.2554,-37.1328 142.86,-35.087 143.8531,-42.0162"/>
</g>
<!-- Node301 -->
<g id="node4" class="node">
<title>Node301</title>
<g id="a_node4"><a xlink:href="namespaceOpenMesh.html#a71e7f1dd3eac016d2b8245ac408a291c" target="_top" xlink:title="OpenMesh::cross">
<polygon fill="#ffffff" stroke="#000000" points="307,-38.5 307,-57.5 406,-57.5 406,-38.5 307,-38.5"/>
<text text-anchor="middle" x="356.5" y="-45.5" font-family="Helvetica,sans-Serif" font-size="10.00" fill="#000000">OpenMesh::cross</text>
</a>
</g>
</g>
<!-- Node300&#45;&gt;Node301 -->
<g id="edge3" class="edge">
<title>Node300&#45;&gt;Node301</title>
<path fill="none" stroke="#191970" d="M266.6407,-36.3459C276.4412,-37.617 286.6605,-38.9423 296.5455,-40.2243"/>
<polygon fill="#191970" stroke="#191970" points="296.327,-43.7252 306.6942,-41.5405 297.2274,-36.7834 296.327,-43.7252"/>
</g>
<!-- Node302 -->
<g id="node5" class="node">
<title>Node302</title>
<g id="a_node5"><a xlink:href="namespaceOpenMesh.html#a8205f789ce08919bc11c58383574596c" target="_top" xlink:title="OpenMesh::norm">
<polygon fill="#ffffff" stroke="#000000" points="307,-.5 307,-19.5 406,-19.5 406,-.5 307,-.5"/>
<text text-anchor="middle" x="356.5" y="-7.5" font-family="Helvetica,sans-Serif" font-size="10.00" fill="#000000">OpenMesh::norm</text>
</a>
</g>
</g>
<!-- Node300&#45;&gt;Node302 -->
<g id="edge4" class="edge">
<title>Node300&#45;&gt;Node302</title>
<path fill="none" stroke="#191970" d="M266.6407,-21.6541C276.4412,-20.383 286.6605,-19.0577 296.5455,-17.7757"/>
<polygon fill="#191970" stroke="#191970" points="297.2274,-21.2166 306.6942,-16.4595 296.327,-14.2748 297.2274,-21.2166"/>
</g>
</g>
</svg>
