<?xml version="1.0" encoding="UTF-8" standalone="no"?>
<!DOCTYPE svg PUBLIC "-//W3C//DTD SVG 1.1//EN"
 "http://www.w3.org/Graphics/SVG/1.1/DTD/svg11.dtd">
<!-- Generated by graphviz version 2.40.1 (20161225.0304)
 -->
<!-- Title: Ra::Core::Geometry::makeCapsule Pages: 1 -->
<!--zoomable 308 -->
<svg id="main" version="1.1" xmlns="http://www.w3.org/2000/svg" xmlns:xlink="http://www.w3.org/1999/xlink" xml:space="preserve" onload="init(evt)">
<style type="text/css"><![CDATA[
.edge:hover path { stroke: red; }
.edge:hover polygon { stroke: red; fill: red; }
]]></style>
<script type="text/javascript"><![CDATA[
var edges = document.getElementsByTagName('g');
if (edges && edges.length) {
  for (var i=0;i<edges.length;i++) {
    if (edges[i].id.substr(0,4)=='edge') {
      edges[i].setAttribute('class','edge');
    }
  }
}
]]></script>
        <defs>
                <circle id="rim" cx="0" cy="0" r="7"/>
                <circle id="rim2" cx="0" cy="0" r="3.5"/>
                <g id="zoomPlus">
                        <use xlink:href="#rim" fill="#404040">
                                <set attributeName="fill" to="#808080" begin="zoomplus.mouseover" end="zoomplus.mouseout"/>
                        </use>
                        <path d="M-4,0h8M0,-4v8" fill="none" stroke="white" stroke-width="1.5" pointer-events="none"/>
                </g>
                <g id="zoomMin">
                        <use xlink:href="#rim" fill="#404040">
                                <set attributeName="fill" to="#808080" begin="zoomminus.mouseover" end="zoomminus.mouseout"/>
                        </use>
                        <path d="M-4,0h8" fill="none" stroke="white" stroke-width="1.5" pointer-events="none"/>
                </g>
                <g id="dirArrow">
                        <path fill="none" stroke="white" stroke-width="1.5" d="M0,-3.0v7 M-2.5,-0.5L0,-3.0L2.5,-0.5"/>
                </g>
               <g id="resetDef">
                       <use xlink:href="#rim2" fill="#404040">
                               <set attributeName="fill" to="#808080" begin="reset.mouseover" end="reset.mouseout"/>
                       </use>
               </g>
        </defs>

<script type="text/javascript">
var viewWidth = 754;
var viewHeight = 308;
var sectionId = 'dynsection-22';
</script>
<script xlink:href="svgpan.js"/>
<svg id="graph" class="graph">
<g id="viewport">
<title>Ra::Core::Geometry::makeCapsule</title>
<polygon fill="#ffffff" stroke="transparent" points="-4,4 -4,-303.5 750,-303.5 750,4 -4,4"/>
<!-- Node114 -->
<g id="node1" class="node">
<title>Node114</title>
<polygon fill="#bfbfbf" stroke="#000000" points="0,-137.5 0,-167.5 113,-167.5 113,-137.5 0,-137.5"/>
<text text-anchor="start" x="8" y="-155.5" font-family="Helvetica,sans-Serif" font-size="10.00" fill="#000000">Ra::Core::Geometry</text>
<text text-anchor="middle" x="56.5" y="-144.5" font-family="Helvetica,sans-Serif" font-size="10.00" fill="#000000">::makeCapsule</text>
</g>
<!-- Node115 -->
<g id="node2" class="node">
<title>Node115</title>
<g id="a_node2"><a xlink:href="namespaceRa_1_1Core_1_1Math.html#a4f441ac6a56092d52849a4f48e274aa8" target="_top" xlink:title="Ra::Core::Math::cos">
<polygon fill="#ffffff" stroke="#000000" points="195.5,-280 195.5,-299 305.5,-299 305.5,-280 195.5,-280"/>
<text text-anchor="middle" x="250.5" y="-287" font-family="Helvetica,sans-Serif" font-size="10.00" fill="#000000">Ra::Core::Math::cos</text>
</a>
</g>
</g>
<!-- Node114&#45;&gt;Node115 -->
<g id="edge1" class="edge">
<title>Node114&#45;&gt;Node115</title>
<path fill="none" stroke="#191970" d="M63.7572,-167.6796C76.8895,-193.373 107.1655,-245.1093 149,-270.5 159.9441,-277.1423 172.6804,-281.5574 185.3575,-284.4709"/>
<polygon fill="#191970" stroke="#191970" points="184.9832,-287.9654 195.4761,-286.4994 186.3592,-281.102 184.9832,-287.9654"/>
</g>
<!-- Node116 -->
<g id="node3" class="node">
<title>Node116</title>
<g id="a_node3"><a xlink:href="classRa_1_1Core_1_1Geometry_1_1AttribArrayGeometry.html#a887411177386edbcdc35d0c6bf78a83a" target="_top" xlink:title="Set vertices. ">
<polygon fill="#ffffff" stroke="#000000" points="188,-160 188,-201 313,-201 313,-160 188,-160"/>
<text text-anchor="start" x="196" y="-189" font-family="Helvetica,sans-Serif" font-size="10.00" fill="#000000">Ra::Core::Geometry</text>
<text text-anchor="start" x="196" y="-178" font-family="Helvetica,sans-Serif" font-size="10.00" fill="#000000">::AttribArrayGeometry</text>
<text text-anchor="middle" x="250.5" y="-167" font-family="Helvetica,sans-Serif" font-size="10.00" fill="#000000">::setVertices</text>
</a>
</g>
</g>
<!-- Node114&#45;&gt;Node116 -->
<g id="edge2" class="edge">
<title>Node114&#45;&gt;Node116</title>
<path fill="none" stroke="#191970" d="M113.1343,-160.674C133.3131,-163.5864 156.3283,-166.9082 177.6752,-169.9892"/>
<polygon fill="#191970" stroke="#191970" points="177.2765,-173.4678 187.6739,-171.4323 178.2765,-166.5396 177.2765,-173.4678"/>
</g>
<!-- Node120 -->
<g id="node7" class="node">
<title>Node120</title>
<g id="a_node7"><a xlink:href="classRa_1_1Core_1_1Geometry_1_1AttribArrayGeometry.html#a646faabae9b936589fe03d8a9d2002e9" target="_top" xlink:title="Set normals. ">
<polygon fill="#ffffff" stroke="#000000" points="188,-220 188,-261 313,-261 313,-220 188,-220"/>
<text text-anchor="start" x="196" y="-249" font-family="Helvetica,sans-Serif" font-size="10.00" fill="#000000">Ra::Core::Geometry</text>
<text text-anchor="start" x="196" y="-238" font-family="Helvetica,sans-Serif" font-size="10.00" fill="#000000">::AttribArrayGeometry</text>
<text text-anchor="middle" x="250.5" y="-227" font-family="Helvetica,sans-Serif" font-size="10.00" fill="#000000">::setNormals</text>
</a>
</g>
</g>
<!-- Node114&#45;&gt;Node120 -->
<g id="edge6" class="edge">
<title>Node114&#45;&gt;Node120</title>
<path fill="none" stroke="#191970" d="M76.8911,-167.5742C95.0511,-180.4279 122.7365,-198.6541 149,-210.5 158.2662,-214.6795 168.2674,-218.4535 178.2533,-221.8022"/>
<polygon fill="#191970" stroke="#191970" points="177.2065,-225.142 187.7981,-224.8818 179.3559,-218.4802 177.2065,-225.142"/>
</g>
<!-- Node122 -->
<g id="node9" class="node">
<title>Node122</title>
<g id="a_node9"><a xlink:href="classRa_1_1Core_1_1Geometry_1_1IndexedGeometry.html#ad1fc6b57b469ef12d14f677852b8f2a8" target="_top" xlink:title="Ra::Core::Geometry\l::IndexedGeometry::setIndices">
<polygon fill="#ffffff" stroke="#000000" points="168,-110.5 168,-140.5 333,-140.5 333,-110.5 168,-110.5"/>
<text text-anchor="start" x="176" y="-128.5" font-family="Helvetica,sans-Serif" font-size="10.00" fill="#000000">Ra::Core::Geometry</text>
<text text-anchor="middle" x="250.5" y="-117.5" font-family="Helvetica,sans-Serif" font-size="10.00" fill="#000000">::IndexedGeometry::setIndices</text>
</a>
</g>
</g>
<!-- Node114&#45;&gt;Node122 -->
<g id="edge10" class="edge">
<title>Node114&#45;&gt;Node122</title>
<path fill="none" stroke="#191970" d="M113.1343,-144.6179C127.1711,-142.6643 142.5804,-140.5197 157.8458,-138.3952"/>
<polygon fill="#191970" stroke="#191970" points="158.4188,-141.8493 167.8408,-137.0041 157.4538,-134.9161 158.4188,-141.8493"/>
</g>
<!-- Node123 -->
<g id="node10" class="node">
<title>Node123</title>
<g id="a_node10"><a xlink:href="classRa_1_1Core_1_1Geometry_1_1AttribArrayGeometry.html#a3a3a1458f93f23c7c8663bc3d52f7841" target="_top" xlink:title="Ra::Core::Geometry\l::AttribArrayGeometry\l::colorize">
<polygon fill="#ffffff" stroke="#000000" points="188,-50 188,-91 313,-91 313,-50 188,-50"/>
<text text-anchor="start" x="196" y="-79" font-family="Helvetica,sans-Serif" font-size="10.00" fill="#000000">Ra::Core::Geometry</text>
<text text-anchor="start" x="196" y="-68" font-family="Helvetica,sans-Serif" font-size="10.00" fill="#000000">::AttribArrayGeometry</text>
<text text-anchor="middle" x="250.5" y="-57" font-family="Helvetica,sans-Serif" font-size="10.00" fill="#000000">::colorize</text>
</a>
</g>
</g>
<!-- Node114&#45;&gt;Node123 -->
<g id="edge11" class="edge">
<title>Node114&#45;&gt;Node123</title>
<path fill="none" stroke="#191970" d="M80.54,-137.4331C98.8158,-126.4318 124.848,-111.7156 149,-101.5 158.2272,-97.5972 168.1138,-93.9537 177.9634,-90.6355"/>
<polygon fill="#191970" stroke="#191970" points="179.3573,-93.8622 187.7748,-87.4282 177.1822,-87.2087 179.3573,-93.8622"/>
</g>
<!-- Node125 -->
<g id="node12" class="node">
<title>Node125</title>
<g id="a_node12"><a xlink:href="classRa_1_1Core_1_1Geometry_1_1IndexedGeometry.html#a927f636cf0698e637cc23e2f7f012a48" target="_top" xlink:title="Ra::Core::Geometry\l::IndexedGeometry::checkConsistency">
<polygon fill="#ffffff" stroke="#000000" points="149,-.5 149,-30.5 352,-30.5 352,-.5 149,-.5"/>
<text text-anchor="start" x="157" y="-18.5" font-family="Helvetica,sans-Serif" font-size="10.00" fill="#000000">Ra::Core::Geometry</text>
<text text-anchor="middle" x="250.5" y="-7.5" font-family="Helvetica,sans-Serif" font-size="10.00" fill="#000000">::IndexedGeometry::checkConsistency</text>
</a>
</g>
</g>
<!-- Node114&#45;&gt;Node125 -->
<g id="edge15" class="edge">
<title>Node114&#45;&gt;Node125</title>
<path fill="none" stroke="#191970" d="M64.7827,-137.1613C78.7812,-112.7579 109.4961,-65.321 149,-40.5 152.4035,-38.3615 155.9778,-36.406 159.6679,-34.6177"/>
<polygon fill="#191970" stroke="#191970" points="161.2928,-37.727 169.0476,-30.508 158.4836,-31.3154 161.2928,-37.727"/>
</g>
<!-- Node117 -->
<g id="node4" class="node">
<title>Node117</title>
<g id="a_node4"><a xlink:href="classRa_1_1Core_1_1Utils_1_1AttribManager.html#a056b7697cfbedd6b20dde6ce7955094e" target="_top" xlink:title="Ra::Core::Utils::AttribManager\l::setAttrib">
<polygon fill="#ffffff" stroke="#000000" points="388,-170.5 388,-200.5 549,-200.5 549,-170.5 388,-170.5"/>
<text text-anchor="start" x="396" y="-188.5" font-family="Helvetica,sans-Serif" font-size="10.00" fill="#000000">Ra::Core::Utils::AttribManager</text>
<text text-anchor="middle" x="468.5" y="-177.5" font-family="Helvetica,sans-Serif" font-size="10.00" fill="#000000">::setAttrib</text>
</a>
</g>
</g>
<!-- Node116&#45;&gt;Node117 -->
<g id="edge3" class="edge">
<title>Node116&#45;&gt;Node117</title>
<path fill="none" stroke="#191970" d="M313.2622,-181.9395C333.3508,-182.4002 356.0115,-182.92 377.6851,-183.4171"/>
<polygon fill="#191970" stroke="#191970" points="377.8164,-186.9209 387.894,-183.6512 377.977,-179.9228 377.8164,-186.9209"/>
</g>
<!-- Node118 -->
<g id="node5" class="node">
<title>Node118</title>
<g id="a_node5"><a xlink:href="classRa_1_1Core_1_1Geometry_1_1AttribArrayGeometry.html#acabe05880d71a8dc4406964c258fff5a" target="_top" xlink:title="Access the vertices positions. ">
<polygon fill="#ffffff" stroke="#000000" points="406,-110 406,-151 531,-151 531,-110 406,-110"/>
<text text-anchor="start" x="414" y="-139" font-family="Helvetica,sans-Serif" font-size="10.00" fill="#000000">Ra::Core::Geometry</text>
<text text-anchor="start" x="414" y="-128" font-family="Helvetica,sans-Serif" font-size="10.00" fill="#000000">::AttribArrayGeometry</text>
<text text-anchor="middle" x="468.5" y="-117" font-family="Helvetica,sans-Serif" font-size="10.00" fill="#000000">::vertices</text>
</a>
</g>
</g>
<!-- Node116&#45;&gt;Node118 -->
<g id="edge4" class="edge">
<title>Node116&#45;&gt;Node118</title>
<path fill="none" stroke="#191970" d="M313.2622,-166.105C339.0268,-160.1957 369.0223,-153.316 395.7399,-147.1881"/>
<polygon fill="#191970" stroke="#191970" points="396.839,-150.527 405.8035,-144.8799 395.2741,-143.7041 396.839,-150.527"/>
</g>
<!-- Node119 -->
<g id="node6" class="node">
<title>Node119</title>
<g id="a_node6"><a xlink:href="classRa_1_1Core_1_1Utils_1_1AttribManager.html#ae0cb7281ec72606a5392602b4ea50d2c" target="_top" xlink:title="Ra::Core::Utils::AttribManager\l::getAttrib">
<polygon fill="#ffffff" stroke="#000000" points="585,-115.5 585,-145.5 746,-145.5 746,-115.5 585,-115.5"/>
<text text-anchor="start" x="593" y="-133.5" font-family="Helvetica,sans-Serif" font-size="10.00" fill="#000000">Ra::Core::Utils::AttribManager</text>
<text text-anchor="middle" x="665.5" y="-122.5" font-family="Helvetica,sans-Serif" font-size="10.00" fill="#000000">::getAttrib</text>
</a>
</g>
</g>
<!-- Node118&#45;&gt;Node119 -->
<g id="edge5" class="edge">
<title>Node118&#45;&gt;Node119</title>
<path fill="none" stroke="#191970" d="M531.1027,-130.5C544.9253,-130.5 559.8405,-130.5 574.5309,-130.5"/>
<polygon fill="#191970" stroke="#191970" points="574.6492,-134.0001 584.6492,-130.5 574.6491,-127.0001 574.6492,-134.0001"/>
</g>
<!-- Node120&#45;&gt;Node117 -->
<g id="edge7" class="edge">
<title>Node120&#45;&gt;Node117</title>
<path fill="none" stroke="#191970" d="M313.2622,-224.6655C340.0365,-217.9105 371.3799,-210.0028 398.8655,-203.0683"/>
<polygon fill="#191970" stroke="#191970" points="399.9617,-206.4015 408.8016,-200.5615 398.2492,-199.6142 399.9617,-206.4015"/>
</g>
<!-- Node121 -->
<g id="node8" class="node">
<title>Node121</title>
<g id="a_node8"><a xlink:href="classRa_1_1Core_1_1Geometry_1_1AttribArrayGeometry.html#abfd2320cb73c0cb14805c234af594b5e" target="_top" xlink:title="Access the vertices normals. ">
<polygon fill="#ffffff" stroke="#000000" points="406,-220 406,-261 531,-261 531,-220 406,-220"/>
<text text-anchor="start" x="414" y="-249" font-family="Helvetica,sans-Serif" font-size="10.00" fill="#000000">Ra::Core::Geometry</text>
<text text-anchor="start" x="414" y="-238" font-family="Helvetica,sans-Serif" font-size="10.00" fill="#000000">::AttribArrayGeometry</text>
<text text-anchor="middle" x="468.5" y="-227" font-family="Helvetica,sans-Serif" font-size="10.00" fill="#000000">::normals</text>
</a>
</g>
</g>
<!-- Node120&#45;&gt;Node121 -->
<g id="edge8" class="edge">
<title>Node120&#45;&gt;Node121</title>
<path fill="none" stroke="#191970" d="M313.2622,-240.5C339.0268,-240.5 369.0223,-240.5 395.7399,-240.5"/>
<polygon fill="#191970" stroke="#191970" points="395.8035,-244.0001 405.8035,-240.5 395.8034,-237.0001 395.8035,-244.0001"/>
</g>
<!-- Node121&#45;&gt;Node119 -->
<g id="edge9" class="edge">
<title>Node121&#45;&gt;Node119</title>
<path fill="none" stroke="#191970" d="M528.5614,-219.9863C535.5635,-217.0487 542.5151,-213.8698 549,-210.5 581.4325,-193.6469 615.5685,-169.3182 638.4432,-151.921"/>
<polygon fill="#191970" stroke="#191970" points="640.839,-154.4939 646.6317,-145.6228 636.5713,-148.9453 640.839,-154.4939"/>
</g>
<!-- Node123&#45;&gt;Node118 -->
<g id="edge14" class="edge">
<title>Node123&#45;&gt;Node118</title>
<path fill="none" stroke="#191970" d="M313.2622,-87.774C339.1403,-94.8964 369.2867,-103.1936 396.0928,-110.5714"/>
<polygon fill="#191970" stroke="#191970" points="395.2332,-113.9649 405.8035,-113.2441 397.0908,-107.2159 395.2332,-113.9649"/>
</g>
<!-- Node124 -->
<g id="node11" class="node">
<title>Node124</title>
<g id="a_node11"><a xlink:href="classRa_1_1Core_1_1Geometry_1_1AttribArrayGeometry.html#aeb68d9cd8cf8c1e05886a23f0ad33c59" target="_top" xlink:title="Ra::Core::Geometry\l::AttribArrayGeometry\l::getAttrib">
<polygon fill="#ffffff" stroke="#000000" points="406,-50 406,-91 531,-91 531,-50 406,-50"/>
<text text-anchor="start" x="414" y="-79" font-family="Helvetica,sans-Serif" font-size="10.00" fill="#000000">Ra::Core::Geometry</text>
<text text-anchor="start" x="414" y="-68" font-family="Helvetica,sans-Serif" font-size="10.00" fill="#000000">::AttribArrayGeometry</text>
<text text-anchor="middle" x="468.5" y="-57" font-family="Helvetica,sans-Serif" font-size="10.00" fill="#000000">::getAttrib</text>
</a>
</g>
</g>
<!-- Node123&#45;&gt;Node124 -->
<g id="edge12" class="edge">
<title>Node123&#45;&gt;Node124</title>
<path fill="none" stroke="#191970" d="M313.2622,-70.5C339.0268,-70.5 369.0223,-70.5 395.7399,-70.5"/>
<polygon fill="#191970" stroke="#191970" points="395.8035,-74.0001 405.8035,-70.5 395.8034,-67.0001 395.8035,-74.0001"/>
</g>
<!-- Node124&#45;&gt;Node119 -->
<g id="edge13" class="edge">
<title>Node124&#45;&gt;Node119</title>
<path fill="none" stroke="#191970" d="M531.1027,-89.5668C555.2641,-96.9256 582.7637,-105.3011 606.5663,-112.5507"/>
<polygon fill="#191970" stroke="#191970" points="605.5899,-115.9119 616.1758,-115.4774 607.6294,-109.2156 605.5899,-115.9119"/>
</g>
</g>
</svg>
        <g id="navigator" transform="translate(0 0)" fill="#404254">
                <rect fill="#f2f5e9" fill-opacity="0.5" stroke="#606060" stroke-width=".5" x="0" y="0" width="60" height="60"/>
                <use id="zoomplus" xlink:href="#zoomPlus" x="17" y="9" onmousedown="handleZoom(evt,'in')"/>
                <use id="zoomminus" xlink:href="#zoomMin" x="42" y="9" onmousedown="handleZoom(evt,'out')"/>
                <use id="reset" xlink:href="#resetDef" x="30" y="36" onmousedown="handleReset()"/>
                <g id="arrowUp" xlink:href="#dirArrow" transform="translate(30 24)" onmousedown="handlePan(0,-1)">
                  <use xlink:href="#rim" fill="#404040">
                        <set attributeName="fill" to="#808080" begin="arrowUp.mouseover" end="arrowUp.mouseout"/>
                  </use>
                  <path fill="none" stroke="white" stroke-width="1.5" d="M0,-3.0v7 M-2.5,-0.5L0,-3.0L2.5,-0.5"/>
                </g>
                <g id="arrowRight" xlink:href="#dirArrow" transform="rotate(90) translate(36 -43)" onmousedown="handlePan(1,0)">
                  <use xlink:href="#rim" fill="#404040">
                        <set attributeName="fill" to="#808080" begin="arrowRight.mouseover" end="arrowRight.mouseout"/>
                  </use>
                  <path fill="none" stroke="white" stroke-width="1.5" d="M0,-3.0v7 M-2.5,-0.5L0,-3.0L2.5,-0.5"/>
                </g>
                <g id="arrowDown" xlink:href="#dirArrow" transform="rotate(180) translate(-30 -48)" onmousedown="handlePan(0,1)">
                  <use xlink:href="#rim" fill="#404040">
                        <set attributeName="fill" to="#808080" begin="arrowDown.mouseover" end="arrowDown.mouseout"/>
                  </use>
                  <path fill="none" stroke="white" stroke-width="1.5" d="M0,-3.0v7 M-2.5,-0.5L0,-3.0L2.5,-0.5"/>
                </g>
                <g id="arrowLeft" xlink:href="#dirArrow" transform="rotate(270) translate(-36 17)" onmousedown="handlePan(-1,0)">
                  <use xlink:href="#rim" fill="#404040">
                        <set attributeName="fill" to="#808080" begin="arrowLeft.mouseover" end="arrowLeft.mouseout"/>
                  </use>
                  <path fill="none" stroke="white" stroke-width="1.5" d="M0,-3.0v7 M-2.5,-0.5L0,-3.0L2.5,-0.5"/>
                </g>
        </g>
        <svg viewBox="0 0 15 15" width="100%" height="30px" preserveAspectRatio="xMaxYMin meet">
         <g id="arrow_out" transform="scale(0.3 0.3)">
          <a xlink:href="namespaceRa_1_1Core_1_1Geometry_a9a7411d1ab626094d61750c9236d1681_cgraph_org.svg" target="_base">
           <rect id="button" ry="5" rx="5" y="6" x="6" height="38" width="38"
                fill="#f2f5e9" fill-opacity="0.5" stroke="#606060" stroke-width="1.0"/>
           <path id="arrow"
             d="M 11.500037,31.436501 C 11.940474,20.09759 22.043105,11.32322 32.158766,21.979434 L 37.068811,17.246167 C 37.068811,17.246167 37.088388,32 37.088388,32 L 22.160133,31.978069 C 22.160133,31.978069 26.997745,27.140456 26.997745,27.140456 C 18.528582,18.264221 13.291696,25.230495 11.500037,31.436501 z"
             style="fill:#404040;"/>
          </a>
         </g>
        </svg>
</svg>
