<?xml version="1.0" encoding="UTF-8" standalone="no"?>
<!DOCTYPE svg PUBLIC "-//W3C//DTD SVG 1.1//EN"
 "http://www.w3.org/Graphics/SVG/1.1/DTD/svg11.dtd">
<!-- Generated by graphviz version 2.43.0 (0)
 -->
<!-- Title: Ra::Engine::DrawPrimitives::Sphere Pages: 1 -->
<!--zoomable 308 -->
<svg id="main" version="1.1" xmlns="http://www.w3.org/2000/svg" xmlns:xlink="http://www.w3.org/1999/xlink" xml:space="preserve" onload="init(evt)">
<style type="text/css"><![CDATA[
.edge:hover path { stroke: red; }
.edge:hover polygon { stroke: red; fill: red; }
]]></style>
<script type="text/javascript"><![CDATA[
var edges = document.getElementsByTagName('g');
if (edges && edges.length) {
  for (var i=0;i<edges.length;i++) {
    if (edges[i].id.substr(0,4)=='edge') {
      edges[i].setAttribute('class','edge');
    }
  }
}
]]></script>
        <defs>
                <circle id="rim" cx="0" cy="0" r="7"/>
                <circle id="rim2" cx="0" cy="0" r="3.5"/>
                <g id="zoomPlus">
                        <use xlink:href="#rim" fill="#404040">
                                <set attributeName="fill" to="#808080" begin="zoomplus.mouseover" end="zoomplus.mouseout"/>
                        </use>
                        <path d="M-4,0h8M0,-4v8" fill="none" stroke="white" stroke-width="1.5" pointer-events="none"/>
                </g>
                <g id="zoomMin">
                        <use xlink:href="#rim" fill="#404040">
                                <set attributeName="fill" to="#808080" begin="zoomminus.mouseover" end="zoomminus.mouseout"/>
                        </use>
                        <path d="M-4,0h8" fill="none" stroke="white" stroke-width="1.5" pointer-events="none"/>
                </g>
                <g id="dirArrow">
                        <path fill="none" stroke="white" stroke-width="1.5" d="M0,-3.0v7 M-2.5,-0.5L0,-3.0L2.5,-0.5"/>
                </g>
               <g id="resetDef">
                       <use xlink:href="#rim2" fill="#404040">
                               <set attributeName="fill" to="#808080" begin="reset.mouseover" end="reset.mouseout"/>
                       </use>
               </g>
        </defs>

<script type="text/javascript">
var viewWidth = 1013;
var viewHeight = 308;
var sectionId = 'dynsection-17';
</script>
<script xlink:href="svgpan.js"/>
<svg id="graph" class="graph">
<g id="viewport">
<title>Ra::Engine::DrawPrimitives::Sphere</title>
<polygon fill="white" stroke="transparent" points="-4,4 -4,-303.5 1009,-303.5 1009,4 -4,4"/>
<!-- Node1 -->
<g id="node1" class="node">
<title>Node1</title>
<g id="a_node1"><a xlink:title="Displays sphere computed with given center and radius.">
<polygon fill="#bfbfbf" stroke="black" points="0,-167 0,-197 149,-197 149,-167 0,-167"/>
<text text-anchor="start" x="8" y="-185" font-family="Helvetica,sans-Serif" font-size="10.00">Ra::Engine::DrawPrimitives</text>
<text text-anchor="middle" x="74.5" y="-174" font-family="Helvetica,sans-Serif" font-size="10.00">::Sphere</text>
</a>
</g>
</g>
<!-- Node2 -->
<g id="node2" class="node">
<title>Node2</title>
<g id="a_node2"><a xlink:href="classRa_1_1Engine_1_1AttribArrayDisplayable.html#acd5ce549b1358c2f319a884725633ed2" target="_top" xlink:title=" ">
<polygon fill="white" stroke="black" points="185,-192 185,-222 370,-222 370,-192 185,-192"/>
<text text-anchor="start" x="193" y="-210" font-family="Helvetica,sans-Serif" font-size="10.00">Ra::Engine::AttribArrayDisplayable</text>
<text text-anchor="middle" x="277.5" y="-199" font-family="Helvetica,sans-Serif" font-size="10.00">::getAttribName</text>
</a>
</g>
</g>
<!-- Node1&#45;&gt;Node2 -->
<g id="edge1" class="edge">
<title>Node1&#45;&gt;Node2</title>
<path fill="none" stroke="midnightblue" d="M149.2,-191.17C157.5,-192.2 166.06,-193.26 174.63,-194.33"/>
<polygon fill="midnightblue" stroke="midnightblue" points="174.32,-197.82 184.68,-195.58 175.19,-190.87 174.32,-197.82"/>
</g>
<!-- Node3 -->
<g id="node3" class="node">
<title>Node3</title>
<g id="a_node3"><a xlink:href="namespaceRa_1_1Core_1_1Geometry.html#a9f1b964d3d8b54b91ca8ba0f788c66e7" target="_top" xlink:title="Create a spherical mesh by subdivision of an icosahedron.">
<polygon fill="white" stroke="black" points="213.5,-143 213.5,-173 341.5,-173 341.5,-143 213.5,-143"/>
<text text-anchor="start" x="221.5" y="-161" font-family="Helvetica,sans-Serif" font-size="10.00">Ra::Core::Geometry</text>
<text text-anchor="middle" x="277.5" y="-150" font-family="Helvetica,sans-Serif" font-size="10.00">::makeGeodesicSphere</text>
</a>
</g>
</g>
<!-- Node1&#45;&gt;Node3 -->
<g id="edge2" class="edge">
<title>Node1&#45;&gt;Node3</title>
<path fill="none" stroke="midnightblue" d="M149.2,-173.2C166.81,-171.1 185.6,-168.85 203.19,-166.75"/>
<polygon fill="midnightblue" stroke="midnightblue" points="203.88,-170.2 213.39,-165.54 203.05,-163.25 203.88,-170.2"/>
</g>
<!-- Node4 -->
<g id="node4" class="node">
<title>Node4</title>
<g id="a_node4"><a xlink:href="classRa_1_1Core_1_1Geometry_1_1IndexedGeometry.html#a927f636cf0698e637cc23e2f7f012a48" target="_top" xlink:title=" ">
<polygon fill="white" stroke="black" points="406,-269 406,-299 609,-299 609,-269 406,-269"/>
<text text-anchor="start" x="414" y="-287" font-family="Helvetica,sans-Serif" font-size="10.00">Ra::Core::Geometry</text>
<text text-anchor="middle" x="507.5" y="-276" font-family="Helvetica,sans-Serif" font-size="10.00">::IndexedGeometry::checkConsistency</text>
</a>
</g>
</g>
<!-- Node3&#45;&gt;Node4 -->
<g id="edge3" class="edge">
<title>Node3&#45;&gt;Node4</title>
<path fill="none" stroke="midnightblue" d="M341.6,-167.5C351.86,-171.13 361.8,-176.12 370,-183 398.64,-207.01 377.08,-235.32 406,-259 408.07,-260.69 410.24,-262.28 412.49,-263.75"/>
<polygon fill="midnightblue" stroke="midnightblue" points="411.1,-267 421.52,-268.94 414.59,-260.93 411.1,-267"/>
</g>
<!-- Node5 -->
<g id="node5" class="node">
<title>Node5</title>
<g id="a_node5"><a xlink:href="classRa_1_1Core_1_1Geometry_1_1AttribArrayGeometry.html#a3a3a1458f93f23c7c8663bc3d52f7841" target="_top" xlink:title=" ">
<polygon fill="white" stroke="black" points="445,-208.5 445,-249.5 570,-249.5 570,-208.5 445,-208.5"/>
<text text-anchor="start" x="453" y="-237.5" font-family="Helvetica,sans-Serif" font-size="10.00">Ra::Core::Geometry</text>
<text text-anchor="start" x="453" y="-226.5" font-family="Helvetica,sans-Serif" font-size="10.00">::AttribArrayGeometry</text>
<text text-anchor="middle" x="507.5" y="-215.5" font-family="Helvetica,sans-Serif" font-size="10.00">::colorize</text>
</a>
</g>
</g>
<!-- Node3&#45;&gt;Node5 -->
<g id="edge4" class="edge">
<title>Node3&#45;&gt;Node5</title>
<path fill="none" stroke="midnightblue" d="M338.95,-173.12C349.39,-176.13 360.07,-179.46 370,-183 386.49,-188.88 389.58,-192.93 406,-199 415.35,-202.46 425.3,-205.81 435.16,-208.94"/>
<polygon fill="midnightblue" stroke="midnightblue" points="434.38,-212.36 444.97,-211.99 436.46,-205.68 434.38,-212.36"/>
</g>
<!-- Node9 -->
<g id="node9" class="node">
<title>Node9</title>
<g id="a_node9"><a xlink:href="namespaceRa_1_1Core_1_1Math.html#a4f441ac6a56092d52849a4f48e274aa8" target="_top" xlink:title=" ">
<polygon fill="white" stroke="black" points="452,-170.5 452,-189.5 563,-189.5 563,-170.5 452,-170.5"/>
<text text-anchor="middle" x="507.5" y="-177.5" font-family="Helvetica,sans-Serif" font-size="10.00">Ra::Core::Math::cos</text>
</a>
</g>
</g>
<!-- Node3&#45;&gt;Node9 -->
<g id="edge9" class="edge">
<title>Node3&#45;&gt;Node9</title>
<path fill="none" stroke="midnightblue" d="M341.71,-164.1C372.73,-167.09 410.06,-170.69 441.34,-173.71"/>
<polygon fill="midnightblue" stroke="midnightblue" points="441.41,-177.24 451.7,-174.71 442.08,-170.27 441.41,-177.24"/>
</g>
<!-- Node10 -->
<g id="node10" class="node">
<title>Node10</title>
<g id="a_node10"><a xlink:href="classRa_1_1Core_1_1Geometry_1_1IndexedGeometry.html#ad1fc6b57b469ef12d14f677852b8f2a8" target="_top" xlink:title=" ">
<polygon fill="white" stroke="black" points="425.5,-121 425.5,-151 589.5,-151 589.5,-121 425.5,-121"/>
<text text-anchor="start" x="433.5" y="-139" font-family="Helvetica,sans-Serif" font-size="10.00">Ra::Core::Geometry</text>
<text text-anchor="middle" x="507.5" y="-128" font-family="Helvetica,sans-Serif" font-size="10.00">::IndexedGeometry::setIndices</text>
</a>
</g>
</g>
<!-- Node3&#45;&gt;Node10 -->
<g id="edge10" class="edge">
<title>Node3&#45;&gt;Node10</title>
<path fill="none" stroke="midnightblue" d="M341.71,-151.9C364.41,-149.71 390.49,-147.19 415.11,-144.82"/>
<polygon fill="midnightblue" stroke="midnightblue" points="415.57,-148.29 425.19,-143.85 414.9,-141.32 415.57,-148.29"/>
</g>
<!-- Node11 -->
<g id="node11" class="node">
<title>Node11</title>
<g id="a_node11"><a xlink:href="classRa_1_1Core_1_1Geometry_1_1AttribArrayGeometry.html#a646faabae9b936589fe03d8a9d2002e9" target="_top" xlink:title="Set normals.">
<polygon fill="white" stroke="black" points="445,-0.5 445,-41.5 570,-41.5 570,-0.5 445,-0.5"/>
<text text-anchor="start" x="453" y="-29.5" font-family="Helvetica,sans-Serif" font-size="10.00">Ra::Core::Geometry</text>
<text text-anchor="start" x="453" y="-18.5" font-family="Helvetica,sans-Serif" font-size="10.00">::AttribArrayGeometry</text>
<text text-anchor="middle" x="507.5" y="-7.5" font-family="Helvetica,sans-Serif" font-size="10.00">::setNormals</text>
</a>
</g>
</g>
<!-- Node3&#45;&gt;Node11 -->
<g id="edge11" class="edge">
<title>Node3&#45;&gt;Node11</title>
<path fill="none" stroke="midnightblue" d="M292.33,-142.98C314.3,-119.98 359.44,-76.08 406,-51 415.11,-46.09 425.13,-41.88 435.21,-38.31"/>
<polygon fill="midnightblue" stroke="midnightblue" points="436.49,-41.57 444.85,-35.07 434.26,-34.93 436.49,-41.57"/>
</g>
<!-- Node14 -->
<g id="node14" class="node">
<title>Node14</title>
<g id="a_node14"><a xlink:href="classRa_1_1Core_1_1Geometry_1_1AttribArrayGeometry.html#a887411177386edbcdc35d0c6bf78a83a" target="_top" xlink:title="Set vertices.">
<polygon fill="white" stroke="black" points="445,-60.5 445,-101.5 570,-101.5 570,-60.5 445,-60.5"/>
<text text-anchor="start" x="453" y="-89.5" font-family="Helvetica,sans-Serif" font-size="10.00">Ra::Core::Geometry</text>
<text text-anchor="start" x="453" y="-78.5" font-family="Helvetica,sans-Serif" font-size="10.00">::AttribArrayGeometry</text>
<text text-anchor="middle" x="507.5" y="-67.5" font-family="Helvetica,sans-Serif" font-size="10.00">::setVertices</text>
</a>
</g>
</g>
<!-- Node3&#45;&gt;Node14 -->
<g id="edge15" class="edge">
<title>Node3&#45;&gt;Node14</title>
<path fill="none" stroke="midnightblue" d="M318.81,-142.91C343.81,-133.68 376.65,-121.81 406,-112 415.42,-108.85 425.37,-105.64 435.2,-102.54"/>
<polygon fill="midnightblue" stroke="midnightblue" points="436.47,-105.81 444.97,-99.48 434.38,-99.13 436.47,-105.81"/>
</g>
<!-- Node6 -->
<g id="node6" class="node">
<title>Node6</title>
<g id="a_node6"><a xlink:href="classRa_1_1Core_1_1Geometry_1_1AttribArrayGeometry.html#aeb68d9cd8cf8c1e05886a23f0ad33c59" target="_top" xlink:title=" ">
<polygon fill="white" stroke="black" points="663.5,-199.5 663.5,-240.5 788.5,-240.5 788.5,-199.5 663.5,-199.5"/>
<text text-anchor="start" x="671.5" y="-228.5" font-family="Helvetica,sans-Serif" font-size="10.00">Ra::Core::Geometry</text>
<text text-anchor="start" x="671.5" y="-217.5" font-family="Helvetica,sans-Serif" font-size="10.00">::AttribArrayGeometry</text>
<text text-anchor="middle" x="726" y="-206.5" font-family="Helvetica,sans-Serif" font-size="10.00">::getAttrib</text>
</a>
</g>
</g>
<!-- Node5&#45;&gt;Node6 -->
<g id="edge5" class="edge">
<title>Node5&#45;&gt;Node6</title>
<path fill="none" stroke="midnightblue" d="M570.25,-226.43C596.07,-225.36 626.25,-224.1 653.07,-222.99"/>
<polygon fill="midnightblue" stroke="midnightblue" points="653.32,-226.48 663.17,-222.57 653.03,-219.49 653.32,-226.48"/>
</g>
<!-- Node8 -->
<g id="node8" class="node">
<title>Node8</title>
<g id="a_node8"><a xlink:href="classRa_1_1Core_1_1Geometry_1_1AttribArrayGeometry.html#acabe05880d71a8dc4406964c258fff5a" target="_top" xlink:title="Access the vertices positions.">
<polygon fill="white" stroke="black" points="663.5,-130.5 663.5,-171.5 788.5,-171.5 788.5,-130.5 663.5,-130.5"/>
<text text-anchor="start" x="671.5" y="-159.5" font-family="Helvetica,sans-Serif" font-size="10.00">Ra::Core::Geometry</text>
<text text-anchor="start" x="671.5" y="-148.5" font-family="Helvetica,sans-Serif" font-size="10.00">::AttribArrayGeometry</text>
<text text-anchor="middle" x="726" y="-137.5" font-family="Helvetica,sans-Serif" font-size="10.00">::vertices</text>
</a>
</g>
</g>
<!-- Node5&#45;&gt;Node8 -->
<g id="edge7" class="edge">
<title>Node5&#45;&gt;Node8</title>
<path fill="none" stroke="midnightblue" d="M570.21,-211.66C583.11,-207.74 596.56,-203.42 609,-199 628.77,-191.98 650.06,-183.46 668.95,-175.55"/>
<polygon fill="midnightblue" stroke="midnightblue" points="670.44,-178.72 678.3,-171.6 667.72,-172.27 670.44,-178.72"/>
</g>
<!-- Node7 -->
<g id="node7" class="node">
<title>Node7</title>
<g id="a_node7"><a xlink:href="classRa_1_1Core_1_1Utils_1_1AttribManager.html#ae0cb7281ec72606a5392602b4ea50d2c" target="_top" xlink:title=" ">
<polygon fill="white" stroke="black" points="843,-136 843,-166 1005,-166 1005,-136 843,-136"/>
<text text-anchor="start" x="851" y="-154" font-family="Helvetica,sans-Serif" font-size="10.00">Ra::Core::Utils::AttribManager</text>
<text text-anchor="middle" x="924" y="-143" font-family="Helvetica,sans-Serif" font-size="10.00">::getAttrib</text>
</a>
</g>
</g>
<!-- Node6&#45;&gt;Node7 -->
<g id="edge6" class="edge">
<title>Node6&#45;&gt;Node7</title>
<path fill="none" stroke="midnightblue" d="M785.28,-199.48C812.29,-189.97 844.16,-178.76 870.43,-169.51"/>
<polygon fill="midnightblue" stroke="midnightblue" points="871.93,-172.69 880.2,-166.07 869.61,-166.09 871.93,-172.69"/>
</g>
<!-- Node8&#45;&gt;Node7 -->
<g id="edge8" class="edge">
<title>Node8&#45;&gt;Node7</title>
<path fill="none" stroke="midnightblue" d="M788.75,-151C802.7,-151 817.79,-151 832.64,-151"/>
<polygon fill="midnightblue" stroke="midnightblue" points="832.87,-154.5 842.87,-151 832.87,-147.5 832.87,-154.5"/>
</g>
<!-- Node12 -->
<g id="node12" class="node">
<title>Node12</title>
<g id="a_node12"><a xlink:href="classRa_1_1Core_1_1Geometry_1_1AttribArrayGeometry.html#abfd2320cb73c0cb14805c234af594b5e" target="_top" xlink:title="Access the vertices normals.">
<polygon fill="white" stroke="black" points="663.5,-2.5 663.5,-43.5 788.5,-43.5 788.5,-2.5 663.5,-2.5"/>
<text text-anchor="start" x="671.5" y="-31.5" font-family="Helvetica,sans-Serif" font-size="10.00">Ra::Core::Geometry</text>
<text text-anchor="start" x="671.5" y="-20.5" font-family="Helvetica,sans-Serif" font-size="10.00">::AttribArrayGeometry</text>
<text text-anchor="middle" x="726" y="-9.5" font-family="Helvetica,sans-Serif" font-size="10.00">::normals</text>
</a>
</g>
</g>
<!-- Node11&#45;&gt;Node12 -->
<g id="edge12" class="edge">
<title>Node11&#45;&gt;Node12</title>
<path fill="none" stroke="midnightblue" d="M570.25,-21.57C596.07,-21.81 626.25,-22.09 653.07,-22.34"/>
<polygon fill="midnightblue" stroke="midnightblue" points="653.14,-25.84 663.17,-22.43 653.2,-18.84 653.14,-25.84"/>
</g>
<!-- Node13 -->
<g id="node13" class="node">
<title>Node13</title>
<g id="a_node13"><a xlink:href="classRa_1_1Core_1_1Utils_1_1AttribManager.html#a056b7697cfbedd6b20dde6ce7955094e" target="_top" xlink:title=" ">
<polygon fill="white" stroke="black" points="645,-64 645,-94 807,-94 807,-64 645,-64"/>
<text text-anchor="start" x="653" y="-82" font-family="Helvetica,sans-Serif" font-size="10.00">Ra::Core::Utils::AttribManager</text>
<text text-anchor="middle" x="726" y="-71" font-family="Helvetica,sans-Serif" font-size="10.00">::setAttrib</text>
</a>
</g>
</g>
<!-- Node11&#45;&gt;Node13 -->
<g id="edge14" class="edge">
<title>Node11&#45;&gt;Node13</title>
<path fill="none" stroke="midnightblue" d="M570.25,-37.54C597.98,-44.97 630.73,-53.74 658.95,-61.3"/>
<polygon fill="midnightblue" stroke="midnightblue" points="658.16,-64.72 668.72,-63.92 659.97,-57.95 658.16,-64.72"/>
</g>
<!-- Node12&#45;&gt;Node7 -->
<g id="edge13" class="edge">
<title>Node12&#45;&gt;Node7</title>
<path fill="none" stroke="midnightblue" d="M786.58,-43.56C793.63,-46.73 800.59,-50.22 807,-54 842.8,-75.12 878.69,-107.22 900.86,-128.64"/>
<polygon fill="midnightblue" stroke="midnightblue" points="898.52,-131.24 908.11,-135.74 903.41,-126.24 898.52,-131.24"/>
</g>
<!-- Node14&#45;&gt;Node8 -->
<g id="edge17" class="edge">
<title>Node14&#45;&gt;Node8</title>
<path fill="none" stroke="midnightblue" d="M570.23,-99.77C583.06,-103.75 596.49,-107.97 609,-112 623.93,-116.81 639.9,-122.09 655.06,-127.17"/>
<polygon fill="midnightblue" stroke="midnightblue" points="654.29,-130.6 664.89,-130.47 656.52,-123.97 654.29,-130.6"/>
</g>
<!-- Node14&#45;&gt;Node13 -->
<g id="edge16" class="edge">
<title>Node14&#45;&gt;Node13</title>
<path fill="none" stroke="midnightblue" d="M570.25,-80.43C590.32,-80.24 613.02,-80.03 634.73,-79.83"/>
<polygon fill="midnightblue" stroke="midnightblue" points="634.99,-83.33 644.95,-79.74 634.92,-76.33 634.99,-83.33"/>
</g>
</g>
</svg>
        <g id="navigator" transform="translate(0 0)" fill="#404254">
                <rect fill="#f2f5e9" fill-opacity="0.5" stroke="#606060" stroke-width=".5" x="0" y="0" width="60" height="60"/>
                <use id="zoomplus" xlink:href="#zoomPlus" x="17" y="9" onmousedown="handleZoom(evt,'in')"/>
                <use id="zoomminus" xlink:href="#zoomMin" x="42" y="9" onmousedown="handleZoom(evt,'out')"/>
                <use id="reset" xlink:href="#resetDef" x="30" y="36" onmousedown="handleReset()"/>
                <g id="arrowUp" xlink:href="#dirArrow" transform="translate(30 24)" onmousedown="handlePan(0,-1)">
                  <use xlink:href="#rim" fill="#404040">
                        <set attributeName="fill" to="#808080" begin="arrowUp.mouseover" end="arrowUp.mouseout"/>
                  </use>
                  <path fill="none" stroke="white" stroke-width="1.5" d="M0,-3.0v7 M-2.5,-0.5L0,-3.0L2.5,-0.5"/>
                </g>
                <g id="arrowRight" xlink:href="#dirArrow" transform="rotate(90) translate(36 -43)" onmousedown="handlePan(1,0)">
                  <use xlink:href="#rim" fill="#404040">
                        <set attributeName="fill" to="#808080" begin="arrowRight.mouseover" end="arrowRight.mouseout"/>
                  </use>
                  <path fill="none" stroke="white" stroke-width="1.5" d="M0,-3.0v7 M-2.5,-0.5L0,-3.0L2.5,-0.5"/>
                </g>
                <g id="arrowDown" xlink:href="#dirArrow" transform="rotate(180) translate(-30 -48)" onmousedown="handlePan(0,1)">
                  <use xlink:href="#rim" fill="#404040">
                        <set attributeName="fill" to="#808080" begin="arrowDown.mouseover" end="arrowDown.mouseout"/>
                  </use>
                  <path fill="none" stroke="white" stroke-width="1.5" d="M0,-3.0v7 M-2.5,-0.5L0,-3.0L2.5,-0.5"/>
                </g>
                <g id="arrowLeft" xlink:href="#dirArrow" transform="rotate(270) translate(-36 17)" onmousedown="handlePan(-1,0)">
                  <use xlink:href="#rim" fill="#404040">
                        <set attributeName="fill" to="#808080" begin="arrowLeft.mouseover" end="arrowLeft.mouseout"/>
                  </use>
                  <path fill="none" stroke="white" stroke-width="1.5" d="M0,-3.0v7 M-2.5,-0.5L0,-3.0L2.5,-0.5"/>
                </g>
        </g>
        <svg viewBox="0 0 15 15" width="100%" height="30px" preserveAspectRatio="xMaxYMin meet">
         <g id="arrow_out" transform="scale(0.3 0.3)">
          <a xlink:href="namespaceRa_1_1Engine_1_1DrawPrimitives_a7170136c52f78d62597f431f79317664_cgraph_org.svg" target="_base">
           <rect id="button" ry="5" rx="5" y="6" x="6" height="38" width="38"
                fill="#f2f5e9" fill-opacity="0.5" stroke="#606060" stroke-width="1.0"/>
           <path id="arrow"
             d="M 11.500037,31.436501 C 11.940474,20.09759 22.043105,11.32322 32.158766,21.979434 L 37.068811,17.246167 C 37.068811,17.246167 37.088388,32 37.088388,32 L 22.160133,31.978069 C 22.160133,31.978069 26.997745,27.140456 26.997745,27.140456 C 18.528582,18.264221 13.291696,25.230495 11.500037,31.436501 z"
             style="fill:#404040;"/>
          </a>
         </g>
        </svg>
</svg>
