<?xml version="1.0" encoding="UTF-8" standalone="no"?>
<!DOCTYPE svg PUBLIC "-//W3C//DTD SVG 1.1//EN"
 "http://www.w3.org/Graphics/SVG/1.1/DTD/svg11.dtd">
<!-- Generated by graphviz version 2.43.0 (0)
 -->
<!-- Title: Ra::Core::Geometry::printWedgesInfo Pages: 1 -->
<svg width="533pt" height="390pt"
 viewBox="0.00 0.00 533.00 389.50" xmlns="http://www.w3.org/2000/svg" xmlns:xlink="http://www.w3.org/1999/xlink">
<g id="graph0" class="graph" transform="scale(1 1) rotate(0) translate(4 385.5)">
<title>Ra::Core::Geometry::printWedgesInfo</title>
<polygon fill="white" stroke="transparent" points="-4,4 -4,-385.5 529,-385.5 529,4 -4,4"/>
<!-- Node1 -->
<g id="node1" class="node">
<title>Node1</title>
<g id="a_node1"><a xlink:title=" ">
<polygon fill="#bfbfbf" stroke="black" points="0,-220.5 0,-250.5 113,-250.5 113,-220.5 0,-220.5"/>
<text text-anchor="start" x="8" y="-238.5" font-family="Helvetica,sans-Serif" font-size="10.00">Ra::Core::Geometry</text>
<text text-anchor="middle" x="56.5" y="-227.5" font-family="Helvetica,sans-Serif" font-size="10.00">::printWedgesInfo</text>
</a>
</g>
</g>
<!-- Node2 -->
<g id="node2" class="node">
<title>Node2</title>
<g id="a_node2"><a xlink:href="classRa_1_1Core_1_1Geometry_1_1TopologicalMesh.html#a88b037b40acc05092f9e2d9371ba0c1f" target="_top" xlink:title=" ">
<polygon fill="white" stroke="black" points="149.5,-275 149.5,-316 306.5,-316 306.5,-275 149.5,-275"/>
<text text-anchor="start" x="157.5" y="-304" font-family="Helvetica,sans-Serif" font-size="10.00">Ra::Core::Geometry</text>
<text text-anchor="start" x="157.5" y="-293" font-family="Helvetica,sans-Serif" font-size="10.00">::TopologicalMesh::getVertex</text>
<text text-anchor="middle" x="228" y="-282" font-family="Helvetica,sans-Serif" font-size="10.00">Wedges</text>
</a>
</g>
</g>
<!-- Node1&#45;&gt;Node2 -->
<g id="edge1" class="edge">
<title>Node1&#45;&gt;Node2</title>
<path fill="none" stroke="midnightblue" d="M100.27,-250.64C118.14,-256.97 139.34,-264.47 159.23,-271.51"/>
<polygon fill="midnightblue" stroke="midnightblue" points="158.28,-274.89 168.88,-274.92 160.62,-268.29 158.28,-274.89"/>
</g>
<!-- Node3 -->
<g id="node3" class="node">
<title>Node3</title>
<g id="a_node3"><a xlink:href="classRa_1_1Core_1_1Geometry_1_1TopologicalMesh.html#a1c787a24f4cb95e0b32fd56d9581fe00" target="_top" xlink:title=" ">
<polygon fill="white" stroke="black" points="149,-215 149,-256 307,-256 307,-215 149,-215"/>
<text text-anchor="start" x="157" y="-244" font-family="Helvetica,sans-Serif" font-size="10.00">Ra::Core::Geometry</text>
<text text-anchor="start" x="157" y="-233" font-family="Helvetica,sans-Serif" font-size="10.00">::TopologicalMesh::getWedge</text>
<text text-anchor="middle" x="228" y="-222" font-family="Helvetica,sans-Serif" font-size="10.00">IndexPph</text>
</a>
</g>
</g>
<!-- Node1&#45;&gt;Node3 -->
<g id="edge2" class="edge">
<title>Node1&#45;&gt;Node3</title>
<path fill="none" stroke="midnightblue" d="M113,-235.5C121.26,-235.5 129.94,-235.5 138.67,-235.5"/>
<polygon fill="midnightblue" stroke="midnightblue" points="138.92,-239 148.92,-235.5 138.92,-232 138.92,-239"/>
</g>
<!-- Node4 -->
<g id="node4" class="node">
<title>Node4</title>
<g id="a_node4"><a xlink:href="namespaceRa_1_1Core_1_1Geometry.html#a263765e5ec18c5e0d28c42049285b281" target="_top" xlink:title=" ">
<polygon fill="white" stroke="black" points="171.5,-165.5 171.5,-195.5 284.5,-195.5 284.5,-165.5 171.5,-165.5"/>
<text text-anchor="start" x="179.5" y="-183.5" font-family="Helvetica,sans-Serif" font-size="10.00">Ra::Core::Geometry</text>
<text text-anchor="middle" x="228" y="-172.5" font-family="Helvetica,sans-Serif" font-size="10.00">::wedgeInfo</text>
</a>
</g>
</g>
<!-- Node1&#45;&gt;Node4 -->
<g id="edge3" class="edge">
<title>Node1&#45;&gt;Node4</title>
<path fill="none" stroke="midnightblue" d="M103.09,-220.49C117.74,-215.68 134.05,-210.35 149,-205.5 155.88,-203.27 163.11,-200.94 170.27,-198.63"/>
<polygon fill="midnightblue" stroke="midnightblue" points="171.51,-201.91 179.96,-195.52 169.37,-195.25 171.51,-201.91"/>
</g>
<!-- Node5 -->
<g id="node5" class="node">
<title>Node5</title>
<g id="a_node5"><a xlink:href="classRa_1_1Core_1_1Geometry_1_1TopologicalMesh.html#af8fc9107dd9bcb2eb4d769ef303b2b88" target="_top" xlink:title=" ">
<polygon fill="white" stroke="black" points="359,-340 359,-381 509,-381 509,-340 359,-340"/>
<text text-anchor="start" x="367" y="-369" font-family="Helvetica,sans-Serif" font-size="10.00">Ra::Core::Geometry</text>
<text text-anchor="start" x="367" y="-358" font-family="Helvetica,sans-Serif" font-size="10.00">::TopologicalMesh::getFloat</text>
<text text-anchor="middle" x="434" y="-347" font-family="Helvetica,sans-Serif" font-size="10.00">AttribNames</text>
</a>
</g>
</g>
<!-- Node4&#45;&gt;Node5 -->
<g id="edge4" class="edge">
<title>Node4&#45;&gt;Node5</title>
<path fill="none" stroke="midnightblue" d="M284.51,-190.74C292.87,-194.29 300.76,-199.07 307,-205.5 347.27,-246.98 302.97,-288.78 343,-330.5 345.14,-332.73 347.45,-334.79 349.89,-336.7"/>
<polygon fill="midnightblue" stroke="midnightblue" points="348.4,-339.92 358.65,-342.62 352.32,-334.12 348.4,-339.92"/>
</g>
<!-- Node6 -->
<g id="node6" class="node">
<title>Node6</title>
<g id="a_node6"><a xlink:href="classRa_1_1Core_1_1Geometry_1_1TopologicalMesh.html#a90c0fc635f1b2f00e46e727f107809d9" target="_top" xlink:title=" ">
<polygon fill="white" stroke="black" points="359.5,-280 359.5,-321 508.5,-321 508.5,-280 359.5,-280"/>
<text text-anchor="start" x="367.5" y="-309" font-family="Helvetica,sans-Serif" font-size="10.00">Ra::Core::Geometry</text>
<text text-anchor="start" x="367.5" y="-298" font-family="Helvetica,sans-Serif" font-size="10.00">::TopologicalMesh::getVec2</text>
<text text-anchor="middle" x="434" y="-287" font-family="Helvetica,sans-Serif" font-size="10.00">AttribNames</text>
</a>
</g>
</g>
<!-- Node4&#45;&gt;Node6 -->
<g id="edge5" class="edge">
<title>Node4&#45;&gt;Node6</title>
<path fill="none" stroke="midnightblue" d="M284.56,-192.5C292.62,-195.83 300.41,-200.08 307,-205.5 332.52,-226.46 317.6,-249.39 343,-270.5 345.39,-272.49 347.92,-274.35 350.56,-276.08"/>
<polygon fill="midnightblue" stroke="midnightblue" points="348.89,-279.16 359.28,-281.23 352.44,-273.13 348.89,-279.16"/>
</g>
<!-- Node7 -->
<g id="node7" class="node">
<title>Node7</title>
<g id="a_node7"><a xlink:href="classRa_1_1Core_1_1Geometry_1_1TopologicalMesh.html#a3cce1f3046115108f2f5678889b2ed40" target="_top" xlink:title=" ">
<polygon fill="white" stroke="black" points="359.5,-220 359.5,-261 508.5,-261 508.5,-220 359.5,-220"/>
<text text-anchor="start" x="367.5" y="-249" font-family="Helvetica,sans-Serif" font-size="10.00">Ra::Core::Geometry</text>
<text text-anchor="start" x="367.5" y="-238" font-family="Helvetica,sans-Serif" font-size="10.00">::TopologicalMesh::getVec3</text>
<text text-anchor="middle" x="434" y="-227" font-family="Helvetica,sans-Serif" font-size="10.00">AttribNames</text>
</a>
</g>
</g>
<!-- Node4&#45;&gt;Node7 -->
<g id="edge6" class="edge">
<title>Node4&#45;&gt;Node7</title>
<path fill="none" stroke="midnightblue" d="M280.21,-195.56C302.41,-202.09 328.91,-209.88 353.56,-217.13"/>
<polygon fill="midnightblue" stroke="midnightblue" points="352.68,-220.52 363.26,-219.99 354.66,-213.81 352.68,-220.52"/>
</g>
<!-- Node8 -->
<g id="node8" class="node">
<title>Node8</title>
<g id="a_node8"><a xlink:href="classRa_1_1Core_1_1Geometry_1_1TopologicalMesh.html#a226d5c166fcf83f949a0241b4a22ae4d" target="_top" xlink:title=" ">
<polygon fill="white" stroke="black" points="359.5,-160 359.5,-201 508.5,-201 508.5,-160 359.5,-160"/>
<text text-anchor="start" x="367.5" y="-189" font-family="Helvetica,sans-Serif" font-size="10.00">Ra::Core::Geometry</text>
<text text-anchor="start" x="367.5" y="-178" font-family="Helvetica,sans-Serif" font-size="10.00">::TopologicalMesh::getVec4</text>
<text text-anchor="middle" x="434" y="-167" font-family="Helvetica,sans-Serif" font-size="10.00">AttribNames</text>
</a>
</g>
</g>
<!-- Node4&#45;&gt;Node8 -->
<g id="edge7" class="edge">
<title>Node4&#45;&gt;Node8</title>
<path fill="none" stroke="midnightblue" d="M284.74,-180.5C304.6,-180.5 327.43,-180.5 349.13,-180.5"/>
<polygon fill="midnightblue" stroke="midnightblue" points="349.33,-184 359.33,-180.5 349.33,-177 349.33,-184"/>
</g>
<!-- Node9 -->
<g id="node9" class="node">
<title>Node9</title>
<g id="a_node9"><a xlink:href="classRa_1_1Core_1_1Geometry_1_1TopologicalMesh.html#af04d4910fbeb0e3e13815cc36995dab7" target="_top" xlink:title=" ">
<polygon fill="white" stroke="black" points="343,-110.5 343,-140.5 525,-140.5 525,-110.5 343,-110.5"/>
<text text-anchor="start" x="351" y="-128.5" font-family="Helvetica,sans-Serif" font-size="10.00">Ra::Core::Geometry</text>
<text text-anchor="middle" x="434" y="-117.5" font-family="Helvetica,sans-Serif" font-size="10.00">::TopologicalMesh::getWedgeData</text>
</a>
</g>
</g>
<!-- Node4&#45;&gt;Node9 -->
<g id="edge8" class="edge">
<title>Node4&#45;&gt;Node9</title>
<path fill="none" stroke="midnightblue" d="M284.74,-165.47C310.27,-158.59 340.69,-150.39 367.32,-143.21"/>
<polygon fill="midnightblue" stroke="midnightblue" points="368.58,-146.49 377.32,-140.51 366.76,-139.73 368.58,-146.49"/>
</g>
<!-- Node10 -->
<g id="node10" class="node">
<title>Node10</title>
<g id="a_node10"><a xlink:href="classRa_1_1Core_1_1Geometry_1_1TopologicalMesh.html#aa905a256aa1dc66d1a9124e6cf6ab44b" target="_top" xlink:title=" ">
<polygon fill="white" stroke="black" points="355,-50 355,-91 513,-91 513,-50 355,-50"/>
<text text-anchor="start" x="363" y="-79" font-family="Helvetica,sans-Serif" font-size="10.00">Ra::Core::Geometry</text>
<text text-anchor="start" x="363" y="-68" font-family="Helvetica,sans-Serif" font-size="10.00">::TopologicalMesh::getWedge</text>
<text text-anchor="middle" x="434" y="-57" font-family="Helvetica,sans-Serif" font-size="10.00">RefCount</text>
</a>
</g>
</g>
<!-- Node4&#45;&gt;Node10 -->
<g id="edge9" class="edge">
<title>Node4&#45;&gt;Node10</title>
<path fill="none" stroke="midnightblue" d="M247.36,-165.39C269.09,-148.09 306.91,-119.78 343,-101.5 347.49,-99.22 352.19,-97.05 356.98,-94.99"/>
<polygon fill="midnightblue" stroke="midnightblue" points="358.36,-98.2 366.28,-91.16 355.7,-91.73 358.36,-98.2"/>
</g>
<!-- Node11 -->
<g id="node11" class="node">
<title>Node11</title>
<g id="a_node11"><a xlink:href="classRa_1_1Core_1_1Utils_1_1Index.html#ac1a3e02d77abd15c2a307673f5b67fa1" target="_top" xlink:title="VALID.">
<polygon fill="white" stroke="black" points="374.5,-0.5 374.5,-30.5 493.5,-30.5 493.5,-0.5 374.5,-0.5"/>
<text text-anchor="start" x="382.5" y="-18.5" font-family="Helvetica,sans-Serif" font-size="10.00">Ra::Core::Utils::Index</text>
<text text-anchor="middle" x="434" y="-7.5" font-family="Helvetica,sans-Serif" font-size="10.00">::isValid</text>
</a>
</g>
</g>
<!-- Node4&#45;&gt;Node11 -->
<g id="edge10" class="edge">
<title>Node4&#45;&gt;Node11</title>
<path fill="none" stroke="midnightblue" d="M237.12,-165.25C253.29,-136.37 292.37,-73.61 343,-40.5 349.58,-36.19 356.91,-32.62 364.45,-29.66"/>
<polygon fill="midnightblue" stroke="midnightblue" points="365.84,-32.88 374.08,-26.23 363.49,-26.29 365.84,-32.88"/>
</g>
</g>
</svg>
