<?xml version="1.0" encoding="UTF-8" standalone="no"?>
<!DOCTYPE svg PUBLIC "-//W3C//DTD SVG 1.1//EN"
 "http://www.w3.org/Graphics/SVG/1.1/DTD/svg11.dtd">
<!-- Generated by graphviz version 2.43.0 (0)
 -->
<!-- Title: Ra::Engine::Data::DrawPrimitives::Primitive Pages: 1 -->
<!--zoomable 154 -->
<svg id="main" version="1.1" xmlns="http://www.w3.org/2000/svg" xmlns:xlink="http://www.w3.org/1999/xlink" xml:space="preserve" onload="init(evt)">
<style type="text/css"><![CDATA[
.edge:hover path { stroke: red; }
.edge:hover polygon { stroke: red; fill: red; }
]]></style>
<script type="text/javascript"><![CDATA[
var edges = document.getElementsByTagName('g');
if (edges && edges.length) {
  for (var i=0;i<edges.length;i++) {
    if (edges[i].id.substr(0,4)=='edge') {
      edges[i].setAttribute('class','edge');
    }
  }
}
]]></script>
        <defs>
                <circle id="rim" cx="0" cy="0" r="7"/>
                <circle id="rim2" cx="0" cy="0" r="3.5"/>
                <g id="zoomPlus">
                        <use xlink:href="#rim" fill="#404040">
                                <set attributeName="fill" to="#808080" begin="zoomplus.mouseover" end="zoomplus.mouseout"/>
                        </use>
                        <path d="M-4,0h8M0,-4v8" fill="none" stroke="white" stroke-width="1.5" pointer-events="none"/>
                </g>
                <g id="zoomMin">
                        <use xlink:href="#rim" fill="#404040">
                                <set attributeName="fill" to="#808080" begin="zoomminus.mouseover" end="zoomminus.mouseout"/>
                        </use>
                        <path d="M-4,0h8" fill="none" stroke="white" stroke-width="1.5" pointer-events="none"/>
                </g>
                <g id="dirArrow">
                        <path fill="none" stroke="white" stroke-width="1.5" d="M0,-3.0v7 M-2.5,-0.5L0,-3.0L2.5,-0.5"/>
                </g>
               <g id="resetDef">
                       <use xlink:href="#rim2" fill="#404040">
                               <set attributeName="fill" to="#808080" begin="reset.mouseover" end="reset.mouseout"/>
                       </use>
               </g>
        </defs>

<script type="text/javascript">
var viewWidth = 1087;
var viewHeight = 154;
var sectionId = 'dynsection-11';
</script>
<script xlink:href="svgpan.js"/>
<svg id="graph" class="graph">
<g id="viewport">
<title>Ra::Engine::Data::DrawPrimitives::Primitive</title>
<polygon fill="white" stroke="transparent" points="-4,4 -4,-149.5 1083,-149.5 1083,4 -4,4"/>
<!-- Node1 -->
<g id="node1" class="node">
<title>Node1</title>
<g id="a_node1"><a xlink:title=" ">
<polygon fill="#bfbfbf" stroke="black" points="0,-79.5 0,-109.5 179,-109.5 179,-79.5 0,-79.5"/>
<text text-anchor="start" x="8" y="-97.5" font-family="Helvetica,sans-Serif" font-size="10.00">Ra::Engine::Data::DrawPrimitives</text>
<text text-anchor="middle" x="89.5" y="-86.5" font-family="Helvetica,sans-Serif" font-size="10.00">::Primitive</text>
</a>
</g>
</g>
<!-- Node2 -->
<g id="node2" class="node">
<title>Node2</title>
<g id="a_node2"><a xlink:href="namespaceRa_1_1Engine_1_1Data_1_1DrawPrimitives.html#a08c0b98218906938eba8b68cd323a00d" target="_top" xlink:title=" ">
<polygon fill="white" stroke="black" points="215,-79.5 215,-109.5 394,-109.5 394,-79.5 215,-79.5"/>
<text text-anchor="start" x="223" y="-97.5" font-family="Helvetica,sans-Serif" font-size="10.00">Ra::Engine::Data::DrawPrimitives</text>
<text text-anchor="middle" x="304.5" y="-86.5" font-family="Helvetica,sans-Serif" font-size="10.00">::Primitive</text>
</a>
</g>
</g>
<!-- Node1&#45;&gt;Node2 -->
<g id="edge1" class="edge">
<title>Node1&#45;&gt;Node2</title>
<path fill="none" stroke="midnightblue" d="M179.29,-94.5C187.65,-94.5 196.16,-94.5 204.6,-94.5"/>
<polygon fill="midnightblue" stroke="midnightblue" points="204.86,-98 214.86,-94.5 204.85,-91 204.86,-98"/>
</g>
<!-- Node3 -->
<g id="node3" class="node">
<title>Node3</title>
<g id="a_node3"><a xlink:href="namespaceRa_1_1Engine_1_1Rendering_1_1EngineRenderTechniques.html#ab597fd85376bd86d7e78dc4194e409c2" target="_top" xlink:title=" ">
<polygon fill="white" stroke="black" points="449,-104 449,-145 593,-145 593,-104 449,-104"/>
<text text-anchor="start" x="457" y="-133" font-family="Helvetica,sans-Serif" font-size="10.00">Ra::Engine::Rendering</text>
<text text-anchor="start" x="457" y="-122" font-family="Helvetica,sans-Serif" font-size="10.00">::EngineRenderTechniques</text>
<text text-anchor="middle" x="521" y="-111" font-family="Helvetica,sans-Serif" font-size="10.00">::getDefaultTechnique</text>
</a>
</g>
</g>
<!-- Node2&#45;&gt;Node3 -->
<g id="edge2" class="edge">
<title>Node2&#45;&gt;Node3</title>
<path fill="none" stroke="midnightblue" d="M394.29,-106.92C409.09,-108.99 424.37,-111.12 438.96,-113.17"/>
<polygon fill="midnightblue" stroke="midnightblue" points="438.55,-116.64 448.93,-114.56 439.52,-109.71 438.55,-116.64"/>
</g>
<!-- Node4 -->
<g id="node4" class="node">
<title>Node4</title>
<g id="a_node4"><a xlink:href="classRa_1_1Engine_1_1Rendering_1_1RenderTechnique.html#a13f5f243daad1b13a6bec5efe3831c25" target="_top" xlink:title=" ">
<polygon fill="white" stroke="black" points="430,-44 430,-85 612,-85 612,-44 430,-44"/>
<text text-anchor="start" x="438" y="-73" font-family="Helvetica,sans-Serif" font-size="10.00">Ra::Engine::Rendering</text>
<text text-anchor="start" x="438" y="-62" font-family="Helvetica,sans-Serif" font-size="10.00">::RenderTechnique::setParameters</text>
<text text-anchor="middle" x="521" y="-51" font-family="Helvetica,sans-Serif" font-size="10.00">Provider</text>
</a>
</g>
</g>
<!-- Node2&#45;&gt;Node4 -->
<g id="edge3" class="edge">
<title>Node2&#45;&gt;Node4</title>
<path fill="none" stroke="midnightblue" d="M394.29,-82.08C402.74,-80.9 411.35,-79.7 419.9,-78.5"/>
<polygon fill="midnightblue" stroke="midnightblue" points="420.47,-81.95 429.89,-77.1 419.5,-75.02 420.47,-81.95"/>
</g>
<!-- Node5 -->
<g id="node5" class="node">
<title>Node5</title>
<g id="a_node5"><a xlink:href="classRa_1_1Engine_1_1Rendering_1_1RenderTechnique.html#a61ce4565cdb1afebe02e0c3a5da0b5a2" target="_top" xlink:title=" ">
<polygon fill="white" stroke="black" points="648,-49.5 648,-79.5 849,-79.5 849,-49.5 648,-49.5"/>
<text text-anchor="start" x="656" y="-67.5" font-family="Helvetica,sans-Serif" font-size="10.00">Ra::Engine::Rendering</text>
<text text-anchor="middle" x="748.5" y="-56.5" font-family="Helvetica,sans-Serif" font-size="10.00">::RenderTechnique::addPassProperties</text>
</a>
</g>
</g>
<!-- Node4&#45;&gt;Node5 -->
<g id="edge4" class="edge">
<title>Node4&#45;&gt;Node5</title>
<path fill="none" stroke="midnightblue" d="M612.1,-64.5C620.56,-64.5 629.2,-64.5 637.82,-64.5"/>
<polygon fill="midnightblue" stroke="midnightblue" points="637.92,-68 647.92,-64.5 637.92,-61 637.92,-68"/>
</g>
<!-- Node6 -->
<g id="node6" class="node">
<title>Node6</title>
<g id="a_node6"><a xlink:href="classRa_1_1Engine_1_1Rendering_1_1RenderTechnique.html#a80ed342917f6314ebe193cd311cfc8cd" target="_top" xlink:title=" ">
<polygon fill="white" stroke="black" points="885,-98.5 885,-128.5 1079,-128.5 1079,-98.5 885,-98.5"/>
<text text-anchor="start" x="893" y="-116.5" font-family="Helvetica,sans-Serif" font-size="10.00">Ra::Engine::Rendering</text>
<text text-anchor="middle" x="982" y="-105.5" font-family="Helvetica,sans-Serif" font-size="10.00">::RenderTechnique::hasConfiguration</text>
</a>
</g>
</g>
<!-- Node4&#45;&gt;Node6 -->
<g id="edge8" class="edge">
<title>Node4&#45;&gt;Node6</title>
<path fill="none" stroke="midnightblue" d="M612.31,-82.98C624.27,-85.05 636.41,-86.97 648,-88.5 723.42,-98.48 809.02,-104.8 874.55,-108.59"/>
<polygon fill="midnightblue" stroke="midnightblue" points="874.71,-112.1 884.89,-109.17 875.1,-105.11 874.71,-112.1"/>
</g>
<!-- Node7 -->
<g id="node7" class="node">
<title>Node7</title>
<g id="a_node7"><a xlink:href="classRa_1_1Core_1_1Utils_1_1Index.html#ac1a3e02d77abd15c2a307673f5b67fa1" target="_top" xlink:title="VALID.">
<polygon fill="white" stroke="black" points="922.5,-0.5 922.5,-30.5 1041.5,-30.5 1041.5,-0.5 922.5,-0.5"/>
<text text-anchor="start" x="930.5" y="-18.5" font-family="Helvetica,sans-Serif" font-size="10.00">Ra::Core::Utils::Index</text>
<text text-anchor="middle" x="982" y="-7.5" font-family="Helvetica,sans-Serif" font-size="10.00">::isValid</text>
</a>
</g>
</g>
<!-- Node4&#45;&gt;Node7 -->
<g id="edge9" class="edge">
<title>Node4&#45;&gt;Node7</title>
<path fill="none" stroke="midnightblue" d="M612.28,-45.19C624.25,-43.04 636.4,-41.06 648,-39.5 738.97,-27.24 844.83,-20.97 912.34,-17.96"/>
<polygon fill="midnightblue" stroke="midnightblue" points="912.59,-21.45 922.43,-17.52 912.28,-14.46 912.59,-21.45"/>
</g>
<!-- Node5&#45;&gt;Node6 -->
<g id="edge5" class="edge">
<title>Node5&#45;&gt;Node6</title>
<path fill="none" stroke="midnightblue" d="M820.53,-79.53C845.75,-84.87 874.32,-90.92 900.29,-96.42"/>
<polygon fill="midnightblue" stroke="midnightblue" points="899.6,-99.85 910.1,-98.49 901.04,-93 899.6,-99.85"/>
</g>
<!-- Node5&#45;&gt;Node7 -->
<g id="edge6" class="edge">
<title>Node5&#45;&gt;Node7</title>
<path fill="none" stroke="midnightblue" d="M820.53,-49.47C849.66,-43.3 883.25,-36.19 912.15,-30.07"/>
<polygon fill="midnightblue" stroke="midnightblue" points="913.11,-33.45 922.16,-27.95 911.66,-26.6 913.11,-33.45"/>
</g>
<!-- Node8 -->
<g id="node8" class="node">
<title>Node8</title>
<g id="a_node8"><a xlink:href="classRa_1_1Engine_1_1Rendering_1_1RenderTechnique.html#af3b58075507144820fe06f6a129b0107" target="_top" xlink:title=" ">
<polygon fill="white" stroke="black" points="906.5,-49.5 906.5,-79.5 1057.5,-79.5 1057.5,-49.5 906.5,-49.5"/>
<text text-anchor="start" x="914.5" y="-67.5" font-family="Helvetica,sans-Serif" font-size="10.00">Ra::Engine::Rendering</text>
<text text-anchor="middle" x="982" y="-56.5" font-family="Helvetica,sans-Serif" font-size="10.00">::RenderTechnique::setDirty</text>
</a>
</g>
</g>
<!-- Node5&#45;&gt;Node8 -->
<g id="edge7" class="edge">
<title>Node5&#45;&gt;Node8</title>
<path fill="none" stroke="midnightblue" d="M849.02,-64.5C864.65,-64.5 880.69,-64.5 895.96,-64.5"/>
<polygon fill="midnightblue" stroke="midnightblue" points="896.39,-68 906.39,-64.5 896.39,-61 896.39,-68"/>
</g>
</g>
</svg>
        <g id="navigator" transform="translate(0 0)" fill="#404254">
                <rect fill="#f2f5e9" fill-opacity="0.5" stroke="#606060" stroke-width=".5" x="0" y="0" width="60" height="60"/>
                <use id="zoomplus" xlink:href="#zoomPlus" x="17" y="9" onmousedown="handleZoom(evt,'in')"/>
                <use id="zoomminus" xlink:href="#zoomMin" x="42" y="9" onmousedown="handleZoom(evt,'out')"/>
                <use id="reset" xlink:href="#resetDef" x="30" y="36" onmousedown="handleReset()"/>
                <g id="arrowUp" xlink:href="#dirArrow" transform="translate(30 24)" onmousedown="handlePan(0,-1)">
                  <use xlink:href="#rim" fill="#404040">
                        <set attributeName="fill" to="#808080" begin="arrowUp.mouseover" end="arrowUp.mouseout"/>
                  </use>
                  <path fill="none" stroke="white" stroke-width="1.5" d="M0,-3.0v7 M-2.5,-0.5L0,-3.0L2.5,-0.5"/>
                </g>
                <g id="arrowRight" xlink:href="#dirArrow" transform="rotate(90) translate(36 -43)" onmousedown="handlePan(1,0)">
                  <use xlink:href="#rim" fill="#404040">
                        <set attributeName="fill" to="#808080" begin="arrowRight.mouseover" end="arrowRight.mouseout"/>
                  </use>
                  <path fill="none" stroke="white" stroke-width="1.5" d="M0,-3.0v7 M-2.5,-0.5L0,-3.0L2.5,-0.5"/>
                </g>
                <g id="arrowDown" xlink:href="#dirArrow" transform="rotate(180) translate(-30 -48)" onmousedown="handlePan(0,1)">
                  <use xlink:href="#rim" fill="#404040">
                        <set attributeName="fill" to="#808080" begin="arrowDown.mouseover" end="arrowDown.mouseout"/>
                  </use>
                  <path fill="none" stroke="white" stroke-width="1.5" d="M0,-3.0v7 M-2.5,-0.5L0,-3.0L2.5,-0.5"/>
                </g>
                <g id="arrowLeft" xlink:href="#dirArrow" transform="rotate(270) translate(-36 17)" onmousedown="handlePan(-1,0)">
                  <use xlink:href="#rim" fill="#404040">
                        <set attributeName="fill" to="#808080" begin="arrowLeft.mouseover" end="arrowLeft.mouseout"/>
                  </use>
                  <path fill="none" stroke="white" stroke-width="1.5" d="M0,-3.0v7 M-2.5,-0.5L0,-3.0L2.5,-0.5"/>
                </g>
        </g>
        <svg viewBox="0 0 15 15" width="100%" height="30px" preserveAspectRatio="xMaxYMin meet">
         <g id="arrow_out" transform="scale(0.3 0.3)">
          <a xlink:href="namespaceRa_1_1Engine_1_1Data_1_1DrawPrimitives_aeb2f6005289276eda6e9ba9037b8eabf_cgraph_org.svg" target="_base">
           <rect id="button" ry="5" rx="5" y="6" x="6" height="38" width="38"
                fill="#f2f5e9" fill-opacity="0.5" stroke="#606060" stroke-width="1.0"/>
           <path id="arrow"
             d="M 11.500037,31.436501 C 11.940474,20.09759 22.043105,11.32322 32.158766,21.979434 L 37.068811,17.246167 C 37.068811,17.246167 37.088388,32 37.088388,32 L 22.160133,31.978069 C 22.160133,31.978069 26.997745,27.140456 26.997745,27.140456 C 18.528582,18.264221 13.291696,25.230495 11.500037,31.436501 z"
             style="fill:#404040;"/>
          </a>
         </g>
        </svg>
</svg>
