<?xml version="1.0" encoding="UTF-8" standalone="no"?>
<!DOCTYPE svg PUBLIC "-//W3C//DTD SVG 1.1//EN"
 "http://www.w3.org/Graphics/SVG/1.1/DTD/svg11.dtd">
<!-- Generated by graphviz version 2.43.0 (0)
 -->
<!-- Title: Ra::Engine::Data::DrawPrimitives::Sphere Pages: 1 -->
<!--zoomable 313 -->
<svg id="main" version="1.1" xmlns="http://www.w3.org/2000/svg" xmlns:xlink="http://www.w3.org/1999/xlink" xml:space="preserve" onload="init(evt)">
<style type="text/css"><![CDATA[
.edge:hover path { stroke: red; }
.edge:hover polygon { stroke: red; fill: red; }
]]></style>
<script type="text/javascript"><![CDATA[
var edges = document.getElementsByTagName('g');
if (edges && edges.length) {
  for (var i=0;i<edges.length;i++) {
    if (edges[i].id.substr(0,4)=='edge') {
      edges[i].setAttribute('class','edge');
    }
  }
}
]]></script>
        <defs>
                <circle id="rim" cx="0" cy="0" r="7"/>
                <circle id="rim2" cx="0" cy="0" r="3.5"/>
                <g id="zoomPlus">
                        <use xlink:href="#rim" fill="#404040">
                                <set attributeName="fill" to="#808080" begin="zoomplus.mouseover" end="zoomplus.mouseout"/>
                        </use>
                        <path d="M-4,0h8M0,-4v8" fill="none" stroke="white" stroke-width="1.5" pointer-events="none"/>
                </g>
                <g id="zoomMin">
                        <use xlink:href="#rim" fill="#404040">
                                <set attributeName="fill" to="#808080" begin="zoomminus.mouseover" end="zoomminus.mouseout"/>
                        </use>
                        <path d="M-4,0h8" fill="none" stroke="white" stroke-width="1.5" pointer-events="none"/>
                </g>
                <g id="dirArrow">
                        <path fill="none" stroke="white" stroke-width="1.5" d="M0,-3.0v7 M-2.5,-0.5L0,-3.0L2.5,-0.5"/>
                </g>
               <g id="resetDef">
                       <use xlink:href="#rim2" fill="#404040">
                               <set attributeName="fill" to="#808080" begin="reset.mouseover" end="reset.mouseout"/>
                       </use>
               </g>
        </defs>

<script type="text/javascript">
var viewWidth = 986;
var viewHeight = 313;
var sectionId = 'dynsection-13';
</script>
<script xlink:href="svgpan.js"/>
<svg id="graph" class="graph">
<g id="viewport">
<title>Ra::Engine::Data::DrawPrimitives::Sphere</title>
<polygon fill="white" stroke="transparent" points="-4,4 -4,-308.5 982,-308.5 982,4 -4,4"/>
<!-- Node1 -->
<g id="node1" class="node">
<title>Node1</title>
<g id="a_node1"><a xlink:title="Displays sphere computed with given center and radius.">
<polygon fill="#bfbfbf" stroke="black" points="0,-123.5 0,-153.5 179,-153.5 179,-123.5 0,-123.5"/>
<text text-anchor="start" x="8" y="-141.5" font-family="Helvetica,sans-Serif" font-size="10.00">Ra::Engine::Data::DrawPrimitives</text>
<text text-anchor="middle" x="89.5" y="-130.5" font-family="Helvetica,sans-Serif" font-size="10.00">::Sphere</text>
</a>
</g>
</g>
<!-- Node2 -->
<g id="node2" class="node">
<title>Node2</title>
<g id="a_node2"><a xlink:href="namespaceRa_1_1Core_1_1Geometry.html#a9f1b964d3d8b54b91ca8ba0f788c66e7" target="_top" xlink:title="Create a spherical mesh by subdivision of an icosahedron.">
<polygon fill="white" stroke="black" points="215,-123.5 215,-153.5 343,-153.5 343,-123.5 215,-123.5"/>
<text text-anchor="start" x="223" y="-141.5" font-family="Helvetica,sans-Serif" font-size="10.00">Ra::Core::Geometry</text>
<text text-anchor="middle" x="279" y="-130.5" font-family="Helvetica,sans-Serif" font-size="10.00">::makeGeodesicSphere</text>
</a>
</g>
</g>
<!-- Node1&#45;&gt;Node2 -->
<g id="edge1" class="edge">
<title>Node1&#45;&gt;Node2</title>
<path fill="none" stroke="midnightblue" d="M179.03,-138.5C187.66,-138.5 196.35,-138.5 204.8,-138.5"/>
<polygon fill="midnightblue" stroke="midnightblue" points="204.98,-142 214.98,-138.5 204.98,-135 204.98,-142"/>
</g>
<!-- Node3 -->
<g id="node3" class="node">
<title>Node3</title>
<g id="a_node3"><a xlink:href="classRa_1_1Core_1_1Geometry_1_1IndexedGeometry.html#a927f636cf0698e637cc23e2f7f012a48" target="_top" xlink:title=" ">
<polygon fill="white" stroke="black" points="379,-268.5 379,-298.5 582,-298.5 582,-268.5 379,-268.5"/>
<text text-anchor="start" x="387" y="-286.5" font-family="Helvetica,sans-Serif" font-size="10.00">Ra::Core::Geometry</text>
<text text-anchor="middle" x="480.5" y="-275.5" font-family="Helvetica,sans-Serif" font-size="10.00">::IndexedGeometry::checkConsistency</text>
</a>
</g>
</g>
<!-- Node2&#45;&gt;Node3 -->
<g id="edge2" class="edge">
<title>Node2&#45;&gt;Node3</title>
<path fill="none" stroke="midnightblue" d="M288.15,-153.67C302.79,-179.4 336.05,-231.43 379,-258.5 382.37,-260.62 385.91,-262.57 389.56,-264.34"/>
<polygon fill="midnightblue" stroke="midnightblue" points="388.28,-267.61 398.85,-268.43 391.1,-261.2 388.28,-267.61"/>
</g>
<!-- Node4 -->
<g id="node4" class="node">
<title>Node4</title>
<g id="a_node4"><a xlink:href="classRa_1_1Core_1_1Geometry_1_1AttribArrayGeometry.html#a3a3a1458f93f23c7c8663bc3d52f7841" target="_top" xlink:title=" ">
<polygon fill="white" stroke="black" points="418,-208 418,-249 543,-249 543,-208 418,-208"/>
<text text-anchor="start" x="426" y="-237" font-family="Helvetica,sans-Serif" font-size="10.00">Ra::Core::Geometry</text>
<text text-anchor="start" x="426" y="-226" font-family="Helvetica,sans-Serif" font-size="10.00">::AttribArrayGeometry</text>
<text text-anchor="middle" x="480.5" y="-215" font-family="Helvetica,sans-Serif" font-size="10.00">::colorize</text>
</a>
</g>
</g>
<!-- Node2&#45;&gt;Node4 -->
<g id="edge3" class="edge">
<title>Node2&#45;&gt;Node4</title>
<path fill="none" stroke="midnightblue" d="M301.15,-153.51C320.63,-166.79 350.71,-185.95 379,-198.5 388.27,-202.61 398.27,-206.36 408.23,-209.69"/>
<polygon fill="midnightblue" stroke="midnightblue" points="407.16,-213.03 417.75,-212.77 409.31,-206.37 407.16,-213.03"/>
</g>
<!-- Node8 -->
<g id="node8" class="node">
<title>Node8</title>
<g id="a_node8"><a xlink:href="namespaceRa_1_1Core_1_1Math.html#a4f441ac6a56092d52849a4f48e274aa8" target="_top" xlink:title=" ">
<polygon fill="white" stroke="black" points="425,-50 425,-69 536,-69 536,-50 425,-50"/>
<text text-anchor="middle" x="480.5" y="-57" font-family="Helvetica,sans-Serif" font-size="10.00">Ra::Core::Math::cos</text>
</a>
</g>
</g>
<!-- Node2&#45;&gt;Node8 -->
<g id="edge8" class="edge">
<title>Node2&#45;&gt;Node8</title>
<path fill="none" stroke="midnightblue" d="M300.11,-123.32C319.36,-109.54 349.72,-89.72 379,-78.5 390.27,-74.18 402.64,-70.82 414.73,-68.21"/>
<polygon fill="midnightblue" stroke="midnightblue" points="415.68,-71.58 424.79,-66.18 414.3,-64.72 415.68,-71.58"/>
</g>
<!-- Node9 -->
<g id="node9" class="node">
<title>Node9</title>
<g id="a_node9"><a xlink:href="classRa_1_1Core_1_1Geometry_1_1IndexedGeometry.html#ad1fc6b57b469ef12d14f677852b8f2a8" target="_top" xlink:title=" ">
<polygon fill="white" stroke="black" points="398.5,-0.5 398.5,-30.5 562.5,-30.5 562.5,-0.5 398.5,-0.5"/>
<text text-anchor="start" x="406.5" y="-18.5" font-family="Helvetica,sans-Serif" font-size="10.00">Ra::Core::Geometry</text>
<text text-anchor="middle" x="480.5" y="-7.5" font-family="Helvetica,sans-Serif" font-size="10.00">::IndexedGeometry::setIndices</text>
</a>
</g>
</g>
<!-- Node2&#45;&gt;Node9 -->
<g id="edge9" class="edge">
<title>Node2&#45;&gt;Node9</title>
<path fill="none" stroke="midnightblue" d="M290.96,-123.36C307.52,-101.61 341.05,-61.83 379,-40.5 382.99,-38.26 387.17,-36.22 391.48,-34.36"/>
<polygon fill="midnightblue" stroke="midnightblue" points="393.06,-37.49 401.07,-30.56 390.49,-30.98 393.06,-37.49"/>
</g>
<!-- Node10 -->
<g id="node10" class="node">
<title>Node10</title>
<g id="a_node10"><a xlink:href="classRa_1_1Core_1_1Geometry_1_1AttribArrayGeometry.html#a646faabae9b936589fe03d8a9d2002e9" target="_top" xlink:title="Set normals.">
<polygon fill="white" stroke="black" points="418,-148 418,-189 543,-189 543,-148 418,-148"/>
<text text-anchor="start" x="426" y="-177" font-family="Helvetica,sans-Serif" font-size="10.00">Ra::Core::Geometry</text>
<text text-anchor="start" x="426" y="-166" font-family="Helvetica,sans-Serif" font-size="10.00">::AttribArrayGeometry</text>
<text text-anchor="middle" x="480.5" y="-155" font-family="Helvetica,sans-Serif" font-size="10.00">::setNormals</text>
</a>
</g>
</g>
<!-- Node2&#45;&gt;Node10 -->
<g id="edge10" class="edge">
<title>Node2&#45;&gt;Node10</title>
<path fill="none" stroke="midnightblue" d="M343.12,-147.99C363.72,-151.09 386.74,-154.55 407.91,-157.73"/>
<polygon fill="midnightblue" stroke="midnightblue" points="407.4,-161.2 417.81,-159.22 408.44,-154.28 407.4,-161.2"/>
</g>
<!-- Node13 -->
<g id="node13" class="node">
<title>Node13</title>
<g id="a_node13"><a xlink:href="classRa_1_1Core_1_1Geometry_1_1AttribArrayGeometry.html#a887411177386edbcdc35d0c6bf78a83a" target="_top" xlink:title="Set vertices.">
<polygon fill="white" stroke="black" points="418,-88 418,-129 543,-129 543,-88 418,-88"/>
<text text-anchor="start" x="426" y="-117" font-family="Helvetica,sans-Serif" font-size="10.00">Ra::Core::Geometry</text>
<text text-anchor="start" x="426" y="-106" font-family="Helvetica,sans-Serif" font-size="10.00">::AttribArrayGeometry</text>
<text text-anchor="middle" x="480.5" y="-95" font-family="Helvetica,sans-Serif" font-size="10.00">::setVertices</text>
</a>
</g>
</g>
<!-- Node2&#45;&gt;Node13 -->
<g id="edge14" class="edge">
<title>Node2&#45;&gt;Node13</title>
<path fill="none" stroke="midnightblue" d="M343.12,-129.01C363.72,-125.91 386.74,-122.45 407.91,-119.27"/>
<polygon fill="midnightblue" stroke="midnightblue" points="408.44,-122.72 417.81,-117.78 407.4,-115.8 408.44,-122.72"/>
</g>
<!-- Node5 -->
<g id="node5" class="node">
<title>Node5</title>
<g id="a_node5"><a xlink:href="classRa_1_1Core_1_1Geometry_1_1AttribArrayGeometry.html#aeb68d9cd8cf8c1e05886a23f0ad33c59" target="_top" xlink:title=" ">
<polygon fill="white" stroke="black" points="636.5,-263 636.5,-304 761.5,-304 761.5,-263 636.5,-263"/>
<text text-anchor="start" x="644.5" y="-292" font-family="Helvetica,sans-Serif" font-size="10.00">Ra::Core::Geometry</text>
<text text-anchor="start" x="644.5" y="-281" font-family="Helvetica,sans-Serif" font-size="10.00">::AttribArrayGeometry</text>
<text text-anchor="middle" x="699" y="-270" font-family="Helvetica,sans-Serif" font-size="10.00">::getAttrib</text>
</a>
</g>
</g>
<!-- Node4&#45;&gt;Node5 -->
<g id="edge4" class="edge">
<title>Node4&#45;&gt;Node5</title>
<path fill="none" stroke="midnightblue" d="M543.25,-244.19C569.19,-250.78 599.52,-258.48 626.42,-265.32"/>
<polygon fill="midnightblue" stroke="midnightblue" points="625.61,-268.72 636.17,-267.79 627.34,-261.94 625.61,-268.72"/>
</g>
<!-- Node7 -->
<g id="node7" class="node">
<title>Node7</title>
<g id="a_node7"><a xlink:href="classRa_1_1Core_1_1Geometry_1_1AttribArrayGeometry.html#acabe05880d71a8dc4406964c258fff5a" target="_top" xlink:title="Access the vertices positions.">
<polygon fill="white" stroke="black" points="636.5,-143 636.5,-184 761.5,-184 761.5,-143 636.5,-143"/>
<text text-anchor="start" x="644.5" y="-172" font-family="Helvetica,sans-Serif" font-size="10.00">Ra::Core::Geometry</text>
<text text-anchor="start" x="644.5" y="-161" font-family="Helvetica,sans-Serif" font-size="10.00">::AttribArrayGeometry</text>
<text text-anchor="middle" x="699" y="-150" font-family="Helvetica,sans-Serif" font-size="10.00">::vertices</text>
</a>
</g>
</g>
<!-- Node4&#45;&gt;Node7 -->
<g id="edge6" class="edge">
<title>Node4&#45;&gt;Node7</title>
<path fill="none" stroke="midnightblue" d="M543.16,-210.12C556,-206.29 569.44,-202.27 582,-198.5 596.46,-194.16 611.93,-189.5 626.71,-185.05"/>
<polygon fill="midnightblue" stroke="midnightblue" points="627.74,-188.39 636.3,-182.15 625.72,-181.69 627.74,-188.39"/>
</g>
<!-- Node6 -->
<g id="node6" class="node">
<title>Node6</title>
<g id="a_node6"><a xlink:href="classRa_1_1Core_1_1Utils_1_1AttribManager.html#ae0cb7281ec72606a5392602b4ea50d2c" target="_top" xlink:title=" ">
<polygon fill="white" stroke="black" points="816,-208.5 816,-238.5 978,-238.5 978,-208.5 816,-208.5"/>
<text text-anchor="start" x="824" y="-226.5" font-family="Helvetica,sans-Serif" font-size="10.00">Ra::Core::Utils::AttribManager</text>
<text text-anchor="middle" x="897" y="-215.5" font-family="Helvetica,sans-Serif" font-size="10.00">::getAttrib</text>
</a>
</g>
</g>
<!-- Node5&#45;&gt;Node6 -->
<g id="edge5" class="edge">
<title>Node5&#45;&gt;Node6</title>
<path fill="none" stroke="midnightblue" d="M761.75,-264.6C785.91,-257.2 813.49,-248.76 837.35,-241.45"/>
<polygon fill="midnightblue" stroke="midnightblue" points="838.44,-244.78 846.98,-238.51 836.39,-238.09 838.44,-244.78"/>
</g>
<!-- Node7&#45;&gt;Node6 -->
<g id="edge7" class="edge">
<title>Node7&#45;&gt;Node6</title>
<path fill="none" stroke="midnightblue" d="M761.75,-182.4C785.91,-189.8 813.49,-198.24 837.35,-205.55"/>
<polygon fill="midnightblue" stroke="midnightblue" points="836.39,-208.91 846.98,-208.49 838.44,-202.22 836.39,-208.91"/>
</g>
<!-- Node11 -->
<g id="node11" class="node">
<title>Node11</title>
<g id="a_node11"><a xlink:href="classRa_1_1Core_1_1Geometry_1_1AttribArrayGeometry.html#abfd2320cb73c0cb14805c234af594b5e" target="_top" xlink:title="Access the vertices normals.">
<polygon fill="white" stroke="black" points="636.5,-203 636.5,-244 761.5,-244 761.5,-203 636.5,-203"/>
<text text-anchor="start" x="644.5" y="-232" font-family="Helvetica,sans-Serif" font-size="10.00">Ra::Core::Geometry</text>
<text text-anchor="start" x="644.5" y="-221" font-family="Helvetica,sans-Serif" font-size="10.00">::AttribArrayGeometry</text>
<text text-anchor="middle" x="699" y="-210" font-family="Helvetica,sans-Serif" font-size="10.00">::normals</text>
</a>
</g>
</g>
<!-- Node10&#45;&gt;Node11 -->
<g id="edge11" class="edge">
<title>Node10&#45;&gt;Node11</title>
<path fill="none" stroke="midnightblue" d="M543.25,-184.19C569.19,-190.78 599.52,-198.48 626.42,-205.32"/>
<polygon fill="midnightblue" stroke="midnightblue" points="625.61,-208.72 636.17,-207.79 627.34,-201.94 625.61,-208.72"/>
</g>
<!-- Node12 -->
<g id="node12" class="node">
<title>Node12</title>
<g id="a_node12"><a xlink:href="classRa_1_1Core_1_1Utils_1_1AttribManager.html#a056b7697cfbedd6b20dde6ce7955094e" target="_top" xlink:title=" ">
<polygon fill="white" stroke="black" points="618,-93.5 618,-123.5 780,-123.5 780,-93.5 618,-93.5"/>
<text text-anchor="start" x="626" y="-111.5" font-family="Helvetica,sans-Serif" font-size="10.00">Ra::Core::Utils::AttribManager</text>
<text text-anchor="middle" x="699" y="-100.5" font-family="Helvetica,sans-Serif" font-size="10.00">::setAttrib</text>
</a>
</g>
</g>
<!-- Node10&#45;&gt;Node12 -->
<g id="edge13" class="edge">
<title>Node10&#45;&gt;Node12</title>
<path fill="none" stroke="midnightblue" d="M543.25,-151.39C571.54,-143.55 605.05,-134.26 633.65,-126.33"/>
<polygon fill="midnightblue" stroke="midnightblue" points="634.84,-129.64 643.54,-123.59 632.97,-122.89 634.84,-129.64"/>
</g>
<!-- Node11&#45;&gt;Node6 -->
<g id="edge12" class="edge">
<title>Node11&#45;&gt;Node6</title>
<path fill="none" stroke="midnightblue" d="M761.75,-223.5C775.7,-223.5 790.79,-223.5 805.64,-223.5"/>
<polygon fill="midnightblue" stroke="midnightblue" points="805.87,-227 815.87,-223.5 805.87,-220 805.87,-227"/>
</g>
<!-- Node13&#45;&gt;Node7 -->
<g id="edge17" class="edge">
<title>Node13&#45;&gt;Node7</title>
<path fill="none" stroke="midnightblue" d="M543.25,-124.19C569.19,-130.78 599.52,-138.48 626.42,-145.32"/>
<polygon fill="midnightblue" stroke="midnightblue" points="625.61,-148.72 636.17,-147.79 627.34,-141.94 625.61,-148.72"/>
</g>
<!-- Node13&#45;&gt;Node12 -->
<g id="edge16" class="edge">
<title>Node13&#45;&gt;Node12</title>
<path fill="none" stroke="midnightblue" d="M543.25,-108.5C563.32,-108.5 586.02,-108.5 607.73,-108.5"/>
<polygon fill="midnightblue" stroke="midnightblue" points="607.95,-112 617.95,-108.5 607.95,-105 607.95,-112"/>
</g>
<!-- Node14 -->
<g id="node14" class="node">
<title>Node14</title>
<g id="a_node14"><a xlink:href="structRa_1_1Core_1_1Geometry_1_1AbstractGeometry.html#a573def11b92bfa63c15dfddec792b450" target="_top" xlink:title=" ">
<polygon fill="white" stroke="black" points="640.5,-33 640.5,-74 757.5,-74 757.5,-33 640.5,-33"/>
<text text-anchor="start" x="648.5" y="-62" font-family="Helvetica,sans-Serif" font-size="10.00">Ra::Core::Geometry</text>
<text text-anchor="start" x="648.5" y="-51" font-family="Helvetica,sans-Serif" font-size="10.00">::AbstractGeometry::</text>
<text text-anchor="middle" x="699" y="-40" font-family="Helvetica,sans-Serif" font-size="10.00">invalidateAabb</text>
</a>
</g>
</g>
<!-- Node13&#45;&gt;Node14 -->
<g id="edge15" class="edge">
<title>Node13&#45;&gt;Node14</title>
<path fill="none" stroke="midnightblue" d="M543.25,-92.81C570.41,-85.91 602.39,-77.79 630.21,-70.72"/>
<polygon fill="midnightblue" stroke="midnightblue" points="631.42,-74.02 640.26,-68.17 629.7,-67.24 631.42,-74.02"/>
</g>
</g>
</svg>
        <g id="navigator" transform="translate(0 0)" fill="#404254">
                <rect fill="#f2f5e9" fill-opacity="0.5" stroke="#606060" stroke-width=".5" x="0" y="0" width="60" height="60"/>
                <use id="zoomplus" xlink:href="#zoomPlus" x="17" y="9" onmousedown="handleZoom(evt,'in')"/>
                <use id="zoomminus" xlink:href="#zoomMin" x="42" y="9" onmousedown="handleZoom(evt,'out')"/>
                <use id="reset" xlink:href="#resetDef" x="30" y="36" onmousedown="handleReset()"/>
                <g id="arrowUp" xlink:href="#dirArrow" transform="translate(30 24)" onmousedown="handlePan(0,-1)">
                  <use xlink:href="#rim" fill="#404040">
                        <set attributeName="fill" to="#808080" begin="arrowUp.mouseover" end="arrowUp.mouseout"/>
                  </use>
                  <path fill="none" stroke="white" stroke-width="1.5" d="M0,-3.0v7 M-2.5,-0.5L0,-3.0L2.5,-0.5"/>
                </g>
                <g id="arrowRight" xlink:href="#dirArrow" transform="rotate(90) translate(36 -43)" onmousedown="handlePan(1,0)">
                  <use xlink:href="#rim" fill="#404040">
                        <set attributeName="fill" to="#808080" begin="arrowRight.mouseover" end="arrowRight.mouseout"/>
                  </use>
                  <path fill="none" stroke="white" stroke-width="1.5" d="M0,-3.0v7 M-2.5,-0.5L0,-3.0L2.5,-0.5"/>
                </g>
                <g id="arrowDown" xlink:href="#dirArrow" transform="rotate(180) translate(-30 -48)" onmousedown="handlePan(0,1)">
                  <use xlink:href="#rim" fill="#404040">
                        <set attributeName="fill" to="#808080" begin="arrowDown.mouseover" end="arrowDown.mouseout"/>
                  </use>
                  <path fill="none" stroke="white" stroke-width="1.5" d="M0,-3.0v7 M-2.5,-0.5L0,-3.0L2.5,-0.5"/>
                </g>
                <g id="arrowLeft" xlink:href="#dirArrow" transform="rotate(270) translate(-36 17)" onmousedown="handlePan(-1,0)">
                  <use xlink:href="#rim" fill="#404040">
                        <set attributeName="fill" to="#808080" begin="arrowLeft.mouseover" end="arrowLeft.mouseout"/>
                  </use>
                  <path fill="none" stroke="white" stroke-width="1.5" d="M0,-3.0v7 M-2.5,-0.5L0,-3.0L2.5,-0.5"/>
                </g>
        </g>
        <svg viewBox="0 0 15 15" width="100%" height="30px" preserveAspectRatio="xMaxYMin meet">
         <g id="arrow_out" transform="scale(0.3 0.3)">
          <a xlink:href="namespaceRa_1_1Engine_1_1Data_1_1DrawPrimitives_ab0d998fb49864a940afd6009f12a484c_cgraph_org.svg" target="_base">
           <rect id="button" ry="5" rx="5" y="6" x="6" height="38" width="38"
                fill="#f2f5e9" fill-opacity="0.5" stroke="#606060" stroke-width="1.0"/>
           <path id="arrow"
             d="M 11.500037,31.436501 C 11.940474,20.09759 22.043105,11.32322 32.158766,21.979434 L 37.068811,17.246167 C 37.068811,17.246167 37.088388,32 37.088388,32 L 22.160133,31.978069 C 22.160133,31.978069 26.997745,27.140456 26.997745,27.140456 C 18.528582,18.264221 13.291696,25.230495 11.500037,31.436501 z"
             style="fill:#404040;"/>
          </a>
         </g>
        </svg>
</svg>
