<?xml version="1.0" encoding="UTF-8" standalone="no"?>
<!DOCTYPE svg PUBLIC "-//W3C//DTD SVG 1.1//EN"
 "http://www.w3.org/Graphics/SVG/1.1/DTD/svg11.dtd">
<!-- Generated by graphviz version 2.43.0 (0)
 -->
<!-- Title: /home/runner/work/Radium&#45;Engine/Radium&#45;Engine/src/Radium&#45;Engine/src/Core/Resources/Resources.hpp Pages: 1 -->
<svg width="1299pt" height="161pt"
 viewBox="0.00 0.00 1298.50 161.00" xmlns="http://www.w3.org/2000/svg" xmlns:xlink="http://www.w3.org/1999/xlink">
<g id="graph0" class="graph" transform="scale(1 1) rotate(0) translate(4 157)">
<title>/home/runner/work/Radium&#45;Engine/Radium&#45;Engine/src/Radium&#45;Engine/src/Core/Resources/Resources.hpp</title>
<polygon fill="white" stroke="transparent" points="-4,4 -4,-157 1294.5,-157 1294.5,4 -4,4"/>
<!-- Node1 -->
<g id="node1" class="node">
<title>Node1</title>
<g id="a_node1"><a xlink:title=" ">
<polygon fill="#bfbfbf" stroke="black" points="558,-100.5 558,-152.5 748,-152.5 748,-100.5 558,-100.5"/>
<text text-anchor="start" x="566" y="-140.5" font-family="Helvetica,sans-Serif" font-size="10.00">/home/runner/work/Radium</text>
<text text-anchor="start" x="566" y="-129.5" font-family="Helvetica,sans-Serif" font-size="10.00">&#45;Engine/Radium&#45;Engine/src</text>
<text text-anchor="start" x="566" y="-118.5" font-family="Helvetica,sans-Serif" font-size="10.00">/Radium&#45;Engine/src/Core/Resources</text>
<text text-anchor="middle" x="653" y="-107.5" font-family="Helvetica,sans-Serif" font-size="10.00">/Resources.hpp</text>
</a>
</g>
</g>
<!-- Node2 -->
<g id="node2" class="node">
<title>Node2</title>
<g id="a_node2"><a xlink:href="Resources_8cpp.html" target="_top" xlink:title=" ">
<polygon fill="white" stroke="black" points="0,-6 0,-58 190,-58 190,-6 0,-6"/>
<text text-anchor="start" x="8" y="-46" font-family="Helvetica,sans-Serif" font-size="10.00">/home/runner/work/Radium</text>
<text text-anchor="start" x="8" y="-35" font-family="Helvetica,sans-Serif" font-size="10.00">&#45;Engine/Radium&#45;Engine/src</text>
<text text-anchor="start" x="8" y="-24" font-family="Helvetica,sans-Serif" font-size="10.00">/Radium&#45;Engine/src/Core/Resources</text>
<text text-anchor="middle" x="95" y="-13" font-family="Helvetica,sans-Serif" font-size="10.00">/Resources.cpp</text>
</a>
</g>
</g>
<!-- Node1&#45;&gt;Node2 -->
<g id="edge1" class="edge">
<title>Node1&#45;&gt;Node2</title>
<path fill="none" stroke="midnightblue" d="M547.7,-115.91C455.17,-106.38 317.23,-89.47 199,-64 190.99,-62.27 182.7,-60.24 174.45,-58.05"/>
<polygon fill="midnightblue" stroke="midnightblue" points="547.61,-119.42 557.92,-116.95 548.32,-112.46 547.61,-119.42"/>
</g>
<!-- Node3 -->
<g id="node3" class="node">
<title>Node3</title>
<g id="a_node3"><a xlink:href="RadiumEngine_8cpp.html" target="_top" xlink:title=" ">
<polygon fill="white" stroke="black" points="208.5,-6 208.5,-58 357.5,-58 357.5,-6 208.5,-6"/>
<text text-anchor="start" x="216.5" y="-46" font-family="Helvetica,sans-Serif" font-size="10.00">/home/runner/work/Radium</text>
<text text-anchor="start" x="216.5" y="-35" font-family="Helvetica,sans-Serif" font-size="10.00">&#45;Engine/Radium&#45;Engine/src</text>
<text text-anchor="start" x="216.5" y="-24" font-family="Helvetica,sans-Serif" font-size="10.00">/Radium&#45;Engine/src/Engine</text>
<text text-anchor="middle" x="283" y="-13" font-family="Helvetica,sans-Serif" font-size="10.00">/RadiumEngine.cpp</text>
</a>
</g>
</g>
<!-- Node1&#45;&gt;Node3 -->
<g id="edge2" class="edge">
<title>Node1&#45;&gt;Node3</title>
<path fill="none" stroke="midnightblue" d="M547.71,-106.77C493.03,-96.08 425.4,-81.36 366,-64 359.95,-62.23 353.7,-60.23 347.49,-58.13"/>
<polygon fill="midnightblue" stroke="midnightblue" points="547.28,-110.26 557.77,-108.72 548.62,-103.38 547.28,-110.26"/>
</g>
<!-- Node4 -->
<g id="node4" class="node">
<title>Node4</title>
<g id="a_node4"><a xlink:href="Renderer_8cpp.html" target="_top" xlink:title=" ">
<polygon fill="white" stroke="black" points="375.5,-6 375.5,-58 524.5,-58 524.5,-6 375.5,-6"/>
<text text-anchor="start" x="383.5" y="-46" font-family="Helvetica,sans-Serif" font-size="10.00">/home/runner/work/Radium</text>
<text text-anchor="start" x="383.5" y="-35" font-family="Helvetica,sans-Serif" font-size="10.00">&#45;Engine/Radium&#45;Engine/src</text>
<text text-anchor="start" x="383.5" y="-24" font-family="Helvetica,sans-Serif" font-size="10.00">/Radium&#45;Engine/src/Engine</text>
<text text-anchor="middle" x="450" y="-13" font-family="Helvetica,sans-Serif" font-size="10.00">/Renderer/Renderer.cpp</text>
</a>
</g>
</g>
<!-- Node1&#45;&gt;Node4 -->
<g id="edge3" class="edge">
<title>Node1&#45;&gt;Node4</title>
<path fill="none" stroke="midnightblue" d="M588.73,-96.21C561.8,-83.94 530.82,-69.83 504.98,-58.05"/>
<polygon fill="midnightblue" stroke="midnightblue" points="587.51,-99.51 598.07,-100.47 590.42,-93.14 587.51,-99.51"/>
</g>
<!-- Node5 -->
<g id="node5" class="node">
<title>Node5</title>
<g id="a_node5"><a xlink:href="ForwardRenderer_8cpp.html" target="_top" xlink:title=" ">
<polygon fill="white" stroke="black" points="542,-6 542,-58 764,-58 764,-6 542,-6"/>
<text text-anchor="start" x="550" y="-46" font-family="Helvetica,sans-Serif" font-size="10.00">/home/runner/work/Radium</text>
<text text-anchor="start" x="550" y="-35" font-family="Helvetica,sans-Serif" font-size="10.00">&#45;Engine/Radium&#45;Engine/src</text>
<text text-anchor="start" x="550" y="-24" font-family="Helvetica,sans-Serif" font-size="10.00">/Radium&#45;Engine/src/Engine</text>
<text text-anchor="middle" x="653" y="-13" font-family="Helvetica,sans-Serif" font-size="10.00">/Renderer/Renderers/ForwardRenderer.cpp</text>
</a>
</g>
</g>
<!-- Node1&#45;&gt;Node5 -->
<g id="edge4" class="edge">
<title>Node1&#45;&gt;Node5</title>
<path fill="none" stroke="midnightblue" d="M653,-89.99C653,-79.41 653,-68.03 653,-58.25"/>
<polygon fill="midnightblue" stroke="midnightblue" points="649.5,-90.22 653,-100.22 656.5,-90.22 649.5,-90.22"/>
</g>
<!-- Node6 -->
<g id="node6" class="node">
<title>Node6</title>
<g id="a_node6"><a xlink:href="ShaderConfiguration_8cpp.html" target="_top" xlink:title=" ">
<polygon fill="white" stroke="black" points="782,-0.5 782,-63.5 932,-63.5 932,-0.5 782,-0.5"/>
<text text-anchor="start" x="790" y="-51.5" font-family="Helvetica,sans-Serif" font-size="10.00">/home/runner/work/Radium</text>
<text text-anchor="start" x="790" y="-40.5" font-family="Helvetica,sans-Serif" font-size="10.00">&#45;Engine/Radium&#45;Engine/src</text>
<text text-anchor="start" x="790" y="-29.5" font-family="Helvetica,sans-Serif" font-size="10.00">/Radium&#45;Engine/src/Engine</text>
<text text-anchor="start" x="790" y="-18.5" font-family="Helvetica,sans-Serif" font-size="10.00">/Renderer/RenderTechnique</text>
<text text-anchor="middle" x="857" y="-7.5" font-family="Helvetica,sans-Serif" font-size="10.00">/ShaderConfiguration.cpp</text>
</a>
</g>
</g>
<!-- Node1&#45;&gt;Node6 -->
<g id="edge5" class="edge">
<title>Node1&#45;&gt;Node6</title>
<path fill="none" stroke="midnightblue" d="M717.49,-96.26C740.39,-85.87 766.22,-74.16 789.38,-63.66"/>
<polygon fill="midnightblue" stroke="midnightblue" points="715.87,-93.15 708.21,-100.47 718.76,-99.53 715.87,-93.15"/>
</g>
<!-- Node7 -->
<g id="node7" class="node">
<title>Node7</title>
<g id="a_node7"><a xlink:href="BaseApplication_8cpp.html" target="_top" xlink:title=" ">
<polygon fill="white" stroke="black" points="950.5,-6 950.5,-58 1105.5,-58 1105.5,-6 950.5,-6"/>
<text text-anchor="start" x="958.5" y="-46" font-family="Helvetica,sans-Serif" font-size="10.00">/home/runner/work/Radium</text>
<text text-anchor="start" x="958.5" y="-35" font-family="Helvetica,sans-Serif" font-size="10.00">&#45;Engine/Radium&#45;Engine/src</text>
<text text-anchor="start" x="958.5" y="-24" font-family="Helvetica,sans-Serif" font-size="10.00">/Radium&#45;Engine/src/GuiBase</text>
<text text-anchor="middle" x="1028" y="-13" font-family="Helvetica,sans-Serif" font-size="10.00">/BaseApplication.cpp</text>
</a>
</g>
</g>
<!-- Node1&#45;&gt;Node7 -->
<g id="edge6" class="edge">
<title>Node1&#45;&gt;Node7</title>
<path fill="none" stroke="midnightblue" d="M758.23,-106.49C813.13,-95.71 881.15,-80.97 941,-64 947.32,-62.21 953.86,-60.19 960.36,-58.07"/>
<polygon fill="midnightblue" stroke="midnightblue" points="757.28,-103.11 748.14,-108.46 758.62,-109.98 757.28,-103.11"/>
</g>
<!-- Node8 -->
<g id="node8" class="node">
<title>Node8</title>
<g id="a_node8"><a xlink:href="KeyMappingManager_8cpp.html" target="_top" xlink:title=" ">
<polygon fill="white" stroke="black" points="1123.5,-6 1123.5,-58 1290.5,-58 1290.5,-6 1123.5,-6"/>
<text text-anchor="start" x="1131.5" y="-46" font-family="Helvetica,sans-Serif" font-size="10.00">/home/runner/work/Radium</text>
<text text-anchor="start" x="1131.5" y="-35" font-family="Helvetica,sans-Serif" font-size="10.00">&#45;Engine/Radium&#45;Engine/src</text>
<text text-anchor="start" x="1131.5" y="-24" font-family="Helvetica,sans-Serif" font-size="10.00">/Radium&#45;Engine/src/GuiBase</text>
<text text-anchor="middle" x="1207" y="-13" font-family="Helvetica,sans-Serif" font-size="10.00">/Utils/KeyMappingManager.cpp</text>
</a>
</g>
</g>
<!-- Node1&#45;&gt;Node8 -->
<g id="edge7" class="edge">
<title>Node1&#45;&gt;Node8</title>
<path fill="none" stroke="midnightblue" d="M758.31,-117.3C852.64,-108.59 994.29,-92.09 1115,-64 1122.31,-62.3 1129.85,-60.25 1137.33,-58.03"/>
<polygon fill="midnightblue" stroke="midnightblue" points="757.84,-113.83 748.2,-118.22 758.47,-120.8 757.84,-113.83"/>
</g>
</g>
</svg>
