<?xml version="1.0" encoding="UTF-8" standalone="no"?>
<!DOCTYPE svg PUBLIC "-//W3C//DTD SVG 1.1//EN"
 "http://www.w3.org/Graphics/SVG/1.1/DTD/svg11.dtd">
<!-- Generated by graphviz version 2.43.0 (0)
 -->
<!-- Title: /home/runner/work/Radium&#45;Engine/Radium&#45;Engine/src/Radium&#45;Engine/src/Engine/Renderer/RenderTechnique/ShaderProgramManager.cpp Pages: 1 -->
<svg width="1383pt" height="396pt"
 viewBox="0.00 0.00 1383.00 396.00" xmlns="http://www.w3.org/2000/svg" xmlns:xlink="http://www.w3.org/1999/xlink">
<g id="graph0" class="graph" transform="scale(1 1) rotate(0) translate(4 392)">
<title>/home/runner/work/Radium&#45;Engine/Radium&#45;Engine/src/Radium&#45;Engine/src/Engine/Renderer/RenderTechnique/ShaderProgramManager.cpp</title>
<polygon fill="white" stroke="transparent" points="-4,4 -4,-392 1379,-392 1379,4 -4,4"/>
<!-- Node1 -->
<g id="node1" class="node">
<title>Node1</title>
<g id="a_node1"><a xlink:title=" ">
<polygon fill="#bfbfbf" stroke="black" points="812.5,-324.5 812.5,-387.5 969.5,-387.5 969.5,-324.5 812.5,-324.5"/>
<text text-anchor="start" x="820.5" y="-375.5" font-family="Helvetica,sans-Serif" font-size="10.00">/home/runner/work/Radium</text>
<text text-anchor="start" x="820.5" y="-364.5" font-family="Helvetica,sans-Serif" font-size="10.00">&#45;Engine/Radium&#45;Engine/src</text>
<text text-anchor="start" x="820.5" y="-353.5" font-family="Helvetica,sans-Serif" font-size="10.00">/Radium&#45;Engine/src/Engine</text>
<text text-anchor="start" x="820.5" y="-342.5" font-family="Helvetica,sans-Serif" font-size="10.00">/Renderer/RenderTechnique</text>
<text text-anchor="middle" x="891" y="-331.5" font-family="Helvetica,sans-Serif" font-size="10.00">/ShaderProgramManager.cpp</text>
</a>
</g>
</g>
<!-- Node2 -->
<g id="node2" class="node">
<title>Node2</title>
<g id="a_node2"><a xlink:href="ShaderProgram_8hpp.html" target="_top" xlink:title=" ">
<polygon fill="white" stroke="black" points="341.5,-257.5 341.5,-287.5 524.5,-287.5 524.5,-257.5 341.5,-257.5"/>
<text text-anchor="start" x="349.5" y="-275.5" font-family="Helvetica,sans-Serif" font-size="10.00">Engine/Renderer/RenderTechnique</text>
<text text-anchor="middle" x="433" y="-264.5" font-family="Helvetica,sans-Serif" font-size="10.00">/ShaderProgram.hpp</text>
</a>
</g>
</g>
<!-- Node1&#45;&gt;Node2 -->
<g id="edge1" class="edge">
<title>Node1&#45;&gt;Node2</title>
<path fill="none" stroke="midnightblue" d="M812.27,-340.99C731.53,-326.62 606.18,-304.32 521.92,-289.32"/>
<polygon fill="midnightblue" stroke="midnightblue" points="522.31,-285.84 511.85,-287.53 521.09,-292.73 522.31,-285.84"/>
</g>
<!-- Node27 -->
<g id="node27" class="node">
<title>Node27</title>
<g id="a_node27"><a xlink:title=" ">
<polygon fill="white" stroke="#bfbfbf" points="0,-134.5 0,-153.5 114,-153.5 114,-134.5 0,-134.5"/>
<text text-anchor="middle" x="57" y="-141.5" font-family="Helvetica,sans-Serif" font-size="10.00">globjects/Program.h</text>
</a>
</g>
</g>
<!-- Node1&#45;&gt;Node27 -->
<g id="edge49" class="edge">
<title>Node1&#45;&gt;Node27</title>
<path fill="none" stroke="midnightblue" d="M812.46,-348.64C704.03,-339.15 502.64,-319.03 333,-288 210.95,-265.67 141.65,-316.13 62,-221 48.77,-205.2 49.8,-180.47 52.62,-163.54"/>
<polygon fill="midnightblue" stroke="midnightblue" points="56.06,-164.2 54.61,-153.71 49.2,-162.82 56.06,-164.2"/>
</g>
<!-- Node28 -->
<g id="node28" class="node">
<title>Node28</title>
<g id="a_node28"><a xlink:href="ShaderProgramManager_8hpp.html" target="_top" xlink:title=" ">
<polygon fill="white" stroke="black" points="739.5,-257.5 739.5,-287.5 922.5,-287.5 922.5,-257.5 739.5,-257.5"/>
<text text-anchor="start" x="747.5" y="-275.5" font-family="Helvetica,sans-Serif" font-size="10.00">Engine/Renderer/RenderTechnique</text>
<text text-anchor="middle" x="831" y="-264.5" font-family="Helvetica,sans-Serif" font-size="10.00">/ShaderProgramManager.hpp</text>
</a>
</g>
</g>
<!-- Node1&#45;&gt;Node28 -->
<g id="edge31" class="edge">
<title>Node1&#45;&gt;Node28</title>
<path fill="none" stroke="midnightblue" d="M868.32,-324.19C861.35,-314.72 853.82,-304.49 847.36,-295.72"/>
<polygon fill="midnightblue" stroke="midnightblue" points="850.07,-293.49 841.32,-287.52 844.43,-297.64 850.07,-293.49"/>
</g>
<!-- Node32 -->
<g id="node32" class="node">
<title>Node32</title>
<g id="a_node32"><a xlink:href="MakeShared_8hpp.html" target="_top" xlink:title=" ">
<polygon fill="white" stroke="black" points="542.5,-263 542.5,-282 721.5,-282 721.5,-263 542.5,-263"/>
<text text-anchor="middle" x="632" y="-270" font-family="Helvetica,sans-Serif" font-size="10.00">Core/Containers/MakeShared.hpp</text>
</a>
</g>
</g>
<!-- Node1&#45;&gt;Node32 -->
<g id="edge40" class="edge">
<title>Node1&#45;&gt;Node32</title>
<path fill="none" stroke="midnightblue" d="M812.24,-330.22C764.62,-315.23 706.14,-296.83 668.96,-285.13"/>
<polygon fill="midnightblue" stroke="midnightblue" points="669.66,-281.68 659.07,-282.02 667.56,-288.36 669.66,-281.68"/>
</g>
<!-- Node33 -->
<g id="node33" class="node">
<title>Node33</title>
<g id="a_node33"><a xlink:href="Log_8hpp.html" target="_top" xlink:title=" ">
<polygon fill="white" stroke="black" points="1184,-196 1184,-215 1290,-215 1290,-196 1184,-196"/>
<text text-anchor="middle" x="1237" y="-203" font-family="Helvetica,sans-Serif" font-size="10.00">Core/Utils/Log.hpp</text>
</a>
</g>
</g>
<!-- Node1&#45;&gt;Node33 -->
<g id="edge42" class="edge">
<title>Node1&#45;&gt;Node33</title>
<path fill="none" stroke="midnightblue" d="M907.87,-324.33C921.82,-302.01 943.72,-273 971,-257 1050.42,-210.42 1084.81,-239.49 1175,-221 1180.48,-219.88 1186.22,-218.63 1191.9,-217.35"/>
<polygon fill="midnightblue" stroke="midnightblue" points="1193.02,-220.69 1201.99,-215.04 1191.46,-213.86 1193.02,-220.69"/>
</g>
<!-- Node36 -->
<g id="node36" class="node">
<title>Node36</title>
<g id="a_node36"><a xlink:title=" ">
<polygon fill="white" stroke="#bfbfbf" points="979.5,-263 979.5,-282 1116.5,-282 1116.5,-263 979.5,-263"/>
<text text-anchor="middle" x="1048" y="-270" font-family="Helvetica,sans-Serif" font-size="10.00">globjects/NamedString.h</text>
</a>
</g>
</g>
<!-- Node1&#45;&gt;Node36 -->
<g id="edge48" class="edge">
<title>Node1&#45;&gt;Node36</title>
<path fill="none" stroke="midnightblue" d="M949.91,-324.42C975.03,-311.38 1003.02,-296.85 1022.64,-286.66"/>
<polygon fill="midnightblue" stroke="midnightblue" points="1024.3,-289.75 1031.56,-282.03 1021.07,-283.54 1024.3,-289.75"/>
</g>
<!-- Node37 -->
<g id="node37" class="node">
<title>Node37</title>
<g id="a_node37"><a xlink:title=" ">
<polygon fill="white" stroke="#bfbfbf" points="1135,-263 1135,-282 1241,-282 1241,-263 1135,-263"/>
<text text-anchor="middle" x="1188" y="-270" font-family="Helvetica,sans-Serif" font-size="10.00">globjects/Shader.h</text>
</a>
</g>
</g>
<!-- Node1&#45;&gt;Node37 -->
<g id="edge50" class="edge">
<title>Node1&#45;&gt;Node37</title>
<path fill="none" stroke="midnightblue" d="M969.81,-333.37C1026.85,-317.72 1101.62,-297.2 1147.17,-284.7"/>
<polygon fill="midnightblue" stroke="midnightblue" points="1148.27,-288.03 1156.99,-282.01 1146.42,-281.28 1148.27,-288.03"/>
</g>
<!-- Node38 -->
<g id="node38" class="node">
<title>Node38</title>
<g id="a_node38"><a xlink:title=" ">
<polygon fill="white" stroke="#bfbfbf" points="1259,-263 1259,-282 1375,-282 1375,-263 1259,-263"/>
<text text-anchor="middle" x="1317" y="-270" font-family="Helvetica,sans-Serif" font-size="10.00">globjects/base/File.h</text>
</a>
</g>
</g>
<!-- Node1&#45;&gt;Node38 -->
<g id="edge51" class="edge">
<title>Node1&#45;&gt;Node38</title>
<path fill="none" stroke="midnightblue" d="M969.56,-341.01C1042.38,-327.88 1153.66,-307.41 1250,-288 1255.9,-286.81 1262.09,-285.52 1268.22,-284.23"/>
<polygon fill="midnightblue" stroke="midnightblue" points="1269.37,-287.56 1278.42,-282.05 1267.91,-280.71 1269.37,-287.56"/>
</g>
<!-- Node3 -->
<g id="node3" class="node">
<title>Node3</title>
<g id="a_node3"><a xlink:href="RaEngine_8hpp.html" target="_top" xlink:title=" ">
<polygon fill="white" stroke="black" points="146.5,-134.5 146.5,-153.5 265.5,-153.5 265.5,-134.5 146.5,-134.5"/>
<text text-anchor="middle" x="206" y="-141.5" font-family="Helvetica,sans-Serif" font-size="10.00">Engine/RaEngine.hpp</text>
</a>
</g>
</g>
<!-- Node2&#45;&gt;Node3 -->
<g id="edge2" class="edge">
<title>Node2&#45;&gt;Node3</title>
<path fill="none" stroke="midnightblue" d="M341.47,-257.68C295.72,-249.05 246.61,-236.61 230,-221 214.2,-206.15 208.75,-181.01 206.9,-163.74"/>
<polygon fill="midnightblue" stroke="midnightblue" points="210.39,-163.41 206.13,-153.71 203.41,-163.95 210.39,-163.41"/>
</g>
<!-- Node14 -->
<g id="node14" class="node">
<title>Node14</title>
<g id="a_node14"><a xlink:href="Types_8hpp.html" target="_top" xlink:title=" ">
<polygon fill="white" stroke="black" points="512.5,-196 512.5,-215 603.5,-215 603.5,-196 512.5,-196"/>
<text text-anchor="middle" x="558" y="-203" font-family="Helvetica,sans-Serif" font-size="10.00">Core/Types.hpp</text>
</a>
</g>
</g>
<!-- Node2&#45;&gt;Node14 -->
<g id="edge13" class="edge">
<title>Node2&#45;&gt;Node14</title>
<path fill="none" stroke="midnightblue" d="M460.12,-257.4C481.67,-246.19 511.57,-230.64 532.64,-219.69"/>
<polygon fill="midnightblue" stroke="midnightblue" points="534.38,-222.73 541.64,-215.01 531.15,-216.52 534.38,-222.73"/>
</g>
<!-- Node19 -->
<g id="node19" class="node">
<title>Node19</title>
<g id="a_node19"><a xlink:href="ShaderConfiguration_8hpp.html" target="_top" xlink:title=" ">
<polygon fill="white" stroke="black" points="272.5,-190.5 272.5,-220.5 455.5,-220.5 455.5,-190.5 272.5,-190.5"/>
<text text-anchor="start" x="280.5" y="-208.5" font-family="Helvetica,sans-Serif" font-size="10.00">Engine/Renderer/RenderTechnique</text>
<text text-anchor="middle" x="364" y="-197.5" font-family="Helvetica,sans-Serif" font-size="10.00">/ShaderConfiguration.hpp</text>
</a>
</g>
</g>
<!-- Node2&#45;&gt;Node19 -->
<g id="edge19" class="edge">
<title>Node2&#45;&gt;Node19</title>
<path fill="none" stroke="midnightblue" d="M418.03,-257.4C408.81,-248.71 396.81,-237.4 386.46,-227.66"/>
<polygon fill="midnightblue" stroke="midnightblue" points="388.62,-224.89 378.94,-220.58 383.82,-229.98 388.62,-224.89"/>
</g>
<!-- Node20 -->
<g id="node20" class="node">
<title>Node20</title>
<g id="a_node20"><a xlink:title=" ">
<polygon fill="white" stroke="#bfbfbf" points="384,-134.5 384,-153.5 426,-153.5 426,-134.5 384,-134.5"/>
<text text-anchor="middle" x="405" y="-141.5" font-family="Helvetica,sans-Serif" font-size="10.00">array</text>
</a>
</g>
</g>
<!-- Node2&#45;&gt;Node20 -->
<g id="edge26" class="edge">
<title>Node2&#45;&gt;Node20</title>
<path fill="none" stroke="midnightblue" d="M445.79,-257.33C459.07,-240.8 476.42,-212.84 465,-190 458.27,-176.54 445.39,-166.07 433.29,-158.62"/>
<polygon fill="midnightblue" stroke="midnightblue" points="434.72,-155.41 424.3,-153.52 431.27,-161.5 434.72,-155.41"/>
</g>
<!-- Node23 -->
<g id="node23" class="node">
<title>Node23</title>
<g id="a_node23"><a xlink:title=" ">
<polygon fill="white" stroke="#bfbfbf" points="808,-134.5 808,-153.5 852,-153.5 852,-134.5 808,-134.5"/>
<text text-anchor="middle" x="830" y="-141.5" font-family="Helvetica,sans-Serif" font-size="10.00">string</text>
</a>
</g>
</g>
<!-- Node2&#45;&gt;Node23 -->
<g id="edge28" class="edge">
<title>Node2&#45;&gt;Node23</title>
<path fill="none" stroke="midnightblue" d="M509.16,-257.44C542.25,-249.51 580.74,-237.75 613,-221 632.34,-210.96 631.48,-199.7 651,-190 708.77,-161.27 731.44,-170.45 797.6,-154.2"/>
<polygon fill="midnightblue" stroke="midnightblue" points="798.87,-157.48 807.68,-151.61 797.13,-150.7 798.87,-157.48"/>
</g>
<!-- Node25 -->
<g id="node25" class="node">
<title>Node25</title>
<g id="a_node25"><a xlink:title=" ">
<polygon fill="white" stroke="#bfbfbf" points="660,-196 660,-215 718,-215 718,-196 660,-196"/>
<text text-anchor="middle" x="689" y="-203" font-family="Helvetica,sans-Serif" font-size="10.00">memory</text>
</a>
</g>
</g>
<!-- Node2&#45;&gt;Node25 -->
<g id="edge27" class="edge">
<title>Node2&#45;&gt;Node25</title>
<path fill="none" stroke="midnightblue" d="M499.14,-257.47C541.4,-248.11 597.23,-234.97 646,-221 649.01,-220.14 652.12,-219.19 655.23,-218.22"/>
<polygon fill="midnightblue" stroke="midnightblue" points="656.59,-221.45 665.02,-215.02 654.42,-214.8 656.59,-221.45"/>
</g>
<!-- Node26 -->
<g id="node26" class="node">
<title>Node26</title>
<g id="a_node26"><a xlink:href="ShaderProgram_8inl.html" target="_top" xlink:title=" ">
<polygon fill="white" stroke="black" points="70.5,-196 70.5,-215 177.5,-215 177.5,-196 70.5,-196"/>
<text text-anchor="middle" x="124" y="-203" font-family="Helvetica,sans-Serif" font-size="10.00">ShaderProgram.inl</text>
</a>
</g>
</g>
<!-- Node2&#45;&gt;Node26 -->
<g id="edge29" class="edge">
<title>Node2&#45;&gt;Node26</title>
<path fill="none" stroke="midnightblue" d="M365.72,-257.47C317.38,-247.37 250.66,-233.4 192,-221 186.17,-219.77 180.07,-218.47 174.01,-217.18"/>
<polygon fill="midnightblue" stroke="midnightblue" points="174.42,-213.69 163.91,-215.03 172.96,-220.54 174.42,-213.69"/>
</g>
<!-- Node4 -->
<g id="node4" class="node">
<title>Node4</title>
<g id="a_node4"><a xlink:href="CoreMacros_8hpp.html" target="_top" xlink:title=" ">
<polygon fill="white" stroke="black" points="874.5,-73 874.5,-92 995.5,-92 995.5,-73 874.5,-73"/>
<text text-anchor="middle" x="935" y="-80" font-family="Helvetica,sans-Serif" font-size="10.00">Core/CoreMacros.hpp</text>
</a>
</g>
</g>
<!-- Node3&#45;&gt;Node4 -->
<g id="edge3" class="edge">
<title>Node3&#45;&gt;Node4</title>
<path fill="none" stroke="midnightblue" d="M265.82,-135C268.92,-134.65 272,-134.31 275,-134 489.09,-111.86 743.18,-95.09 864.16,-87.68"/>
<polygon fill="midnightblue" stroke="midnightblue" points="864.62,-91.15 874.39,-87.05 864.2,-84.17 864.62,-91.15"/>
</g>
<!-- Node10 -->
<g id="node10" class="node">
<title>Node10</title>
<g id="a_node10"><a xlink:href="OpenGL_8hpp.html" target="_top" xlink:title=" ">
<polygon fill="white" stroke="black" points="137,-67.5 137,-97.5 275,-97.5 275,-67.5 137,-67.5"/>
<text text-anchor="start" x="145" y="-85.5" font-family="Helvetica,sans-Serif" font-size="10.00">Engine/Renderer/OpenGL</text>
<text text-anchor="middle" x="206" y="-74.5" font-family="Helvetica,sans-Serif" font-size="10.00">/OpenGL.hpp</text>
</a>
</g>
</g>
<!-- Node3&#45;&gt;Node10 -->
<g id="edge9" class="edge">
<title>Node3&#45;&gt;Node10</title>
<path fill="none" stroke="midnightblue" d="M206,-134.48C206,-127.47 206,-117.19 206,-107.7"/>
<polygon fill="midnightblue" stroke="midnightblue" points="209.5,-107.52 206,-97.52 202.5,-107.52 209.5,-107.52"/>
</g>
<!-- Node5 -->
<g id="node5" class="node">
<title>Node5</title>
<g id="a_node5"><a xlink:title=" ">
<polygon fill="white" stroke="#bfbfbf" points="809,-6 809,-25 861,-25 861,-6 809,-6"/>
<text text-anchor="middle" x="835" y="-13" font-family="Helvetica,sans-Serif" font-size="10.00">cassert</text>
</a>
</g>
</g>
<!-- Node4&#45;&gt;Node5 -->
<g id="edge4" class="edge">
<title>Node4&#45;&gt;Node5</title>
<path fill="none" stroke="midnightblue" d="M921.51,-72.73C904.95,-61.96 876.62,-43.55 856.91,-30.74"/>
<polygon fill="midnightblue" stroke="midnightblue" points="858.56,-27.64 848.27,-25.13 854.75,-33.51 858.56,-27.64"/>
</g>
<!-- Node6 -->
<g id="node6" class="node">
<title>Node6</title>
<g id="a_node6"><a xlink:title=" ">
<polygon fill="white" stroke="#bfbfbf" points="879,-6 879,-25 925,-25 925,-6 879,-6"/>
<text text-anchor="middle" x="902" y="-13" font-family="Helvetica,sans-Serif" font-size="10.00">cstdio</text>
</a>
</g>
</g>
<!-- Node4&#45;&gt;Node6 -->
<g id="edge5" class="edge">
<title>Node4&#45;&gt;Node6</title>
<path fill="none" stroke="midnightblue" d="M930.55,-72.73C925.55,-62.89 917.31,-46.66 910.97,-34.16"/>
<polygon fill="midnightblue" stroke="midnightblue" points="914.03,-32.46 906.38,-25.13 907.79,-35.63 914.03,-32.46"/>
</g>
<!-- Node7 -->
<g id="node7" class="node">
<title>Node7</title>
<g id="a_node7"><a xlink:title=" ">
<polygon fill="white" stroke="#bfbfbf" points="943,-6 943,-25 1003,-25 1003,-6 943,-6"/>
<text text-anchor="middle" x="973" y="-13" font-family="Helvetica,sans-Serif" font-size="10.00">iostream</text>
</a>
</g>
</g>
<!-- Node4&#45;&gt;Node7 -->
<g id="edge6" class="edge">
<title>Node4&#45;&gt;Node7</title>
<path fill="none" stroke="midnightblue" d="M940.12,-72.73C945.94,-62.79 955.56,-46.34 962.89,-33.79"/>
<polygon fill="midnightblue" stroke="midnightblue" points="965.93,-35.53 967.96,-25.13 959.89,-31.99 965.93,-35.53"/>
</g>
<!-- Node8 -->
<g id="node8" class="node">
<title>Node8</title>
<g id="a_node8"><a xlink:title=" ">
<polygon fill="white" stroke="#bfbfbf" points="1098,-6 1098,-25 1154,-25 1154,-6 1098,-6"/>
<text text-anchor="middle" x="1126" y="-13" font-family="Helvetica,sans-Serif" font-size="10.00">sstream</text>
</a>
</g>
</g>
<!-- Node4&#45;&gt;Node8 -->
<g id="edge7" class="edge">
<title>Node4&#45;&gt;Node8</title>
<path fill="none" stroke="midnightblue" d="M960.36,-72.87C993.99,-61.42 1053.48,-41.18 1091.26,-28.32"/>
<polygon fill="midnightblue" stroke="midnightblue" points="1092.5,-31.6 1100.84,-25.06 1090.24,-24.97 1092.5,-31.6"/>
</g>
<!-- Node9 -->
<g id="node9" class="node">
<title>Node9</title>
<g id="a_node9"><a xlink:title=" ">
<polygon fill="white" stroke="#bfbfbf" points="1021,-6 1021,-25 1069,-25 1069,-6 1021,-6"/>
<text text-anchor="middle" x="1045" y="-13" font-family="Helvetica,sans-Serif" font-size="10.00">thread</text>
</a>
</g>
</g>
<!-- Node4&#45;&gt;Node9 -->
<g id="edge8" class="edge">
<title>Node4&#45;&gt;Node9</title>
<path fill="none" stroke="midnightblue" d="M949.84,-72.73C968.31,-61.82 1000.07,-43.05 1021.78,-30.22"/>
<polygon fill="midnightblue" stroke="midnightblue" points="1023.57,-33.23 1030.4,-25.13 1020.01,-27.2 1023.57,-33.23"/>
</g>
<!-- Node11 -->
<g id="node11" class="node">
<title>Node11</title>
<g id="a_node11"><a xlink:title=" ">
<polygon fill="white" stroke="#bfbfbf" points="281,-6 281,-25 409,-25 409,-6 281,-6"/>
<text text-anchor="middle" x="345" y="-13" font-family="Helvetica,sans-Serif" font-size="10.00">glbinding/gl45core/gl.h</text>
</a>
</g>
</g>
<!-- Node10&#45;&gt;Node11 -->
<g id="edge10" class="edge">
<title>Node10&#45;&gt;Node11</title>
<path fill="none" stroke="midnightblue" d="M236.16,-67.4C260.44,-56.04 294.28,-40.22 317.75,-29.24"/>
<polygon fill="midnightblue" stroke="midnightblue" points="319.23,-32.41 326.81,-25.01 316.27,-26.07 319.23,-32.41"/>
</g>
<!-- Node12 -->
<g id="node12" class="node">
<title>Node12</title>
<g id="a_node12"><a xlink:title=" ">
<polygon fill="white" stroke="#bfbfbf" points="9,-6 9,-25 131,-25 131,-6 9,-6"/>
<text text-anchor="middle" x="70" y="-13" font-family="Helvetica,sans-Serif" font-size="10.00">glbinding/gl45ext/gl.h</text>
</a>
</g>
</g>
<!-- Node10&#45;&gt;Node12 -->
<g id="edge11" class="edge">
<title>Node10&#45;&gt;Node12</title>
<path fill="none" stroke="midnightblue" d="M176.49,-67.4C152.84,-56.09 119.92,-40.36 96.97,-29.39"/>
<polygon fill="midnightblue" stroke="midnightblue" points="98.33,-26.16 87.8,-25.01 95.31,-32.48 98.33,-26.16"/>
</g>
<!-- Node13 -->
<g id="node13" class="node">
<title>Node13</title>
<g id="a_node13"><a xlink:title=" ">
<polygon fill="white" stroke="#bfbfbf" points="149.5,-0.5 149.5,-30.5 262.5,-30.5 262.5,-0.5 149.5,-0.5"/>
<text text-anchor="start" x="157.5" y="-18.5" font-family="Helvetica,sans-Serif" font-size="10.00">glbinding&#45;aux/types</text>
<text text-anchor="middle" x="206" y="-7.5" font-family="Helvetica,sans-Serif" font-size="10.00">_to_string.h</text>
</a>
</g>
</g>
<!-- Node10&#45;&gt;Node13 -->
<g id="edge12" class="edge">
<title>Node10&#45;&gt;Node13</title>
<path fill="none" stroke="midnightblue" d="M206,-67.4C206,-59.64 206,-49.81 206,-40.86"/>
<polygon fill="midnightblue" stroke="midnightblue" points="209.5,-40.58 206,-30.58 202.5,-40.58 209.5,-40.58"/>
</g>
<!-- Node15 -->
<g id="node15" class="node">
<title>Node15</title>
<g id="a_node15"><a xlink:href="RaCore_8hpp.html" target="_top" xlink:title=" ">
<polygon fill="white" stroke="black" points="886,-134.5 886,-153.5 984,-153.5 984,-134.5 886,-134.5"/>
<text text-anchor="middle" x="935" y="-141.5" font-family="Helvetica,sans-Serif" font-size="10.00">Core/RaCore.hpp</text>
</a>
</g>
</g>
<!-- Node14&#45;&gt;Node15 -->
<g id="edge14" class="edge">
<title>Node14&#45;&gt;Node15</title>
<path fill="none" stroke="midnightblue" d="M603.85,-197.26C672.07,-186.5 800.32,-166.26 875.63,-154.37"/>
<polygon fill="midnightblue" stroke="midnightblue" points="876.56,-157.77 885.89,-152.75 875.47,-150.85 876.56,-157.77"/>
</g>
<!-- Node16 -->
<g id="node16" class="node">
<title>Node16</title>
<g id="a_node16"><a xlink:title=" ">
<polygon fill="white" stroke="#bfbfbf" points="542.5,-134.5 542.5,-153.5 611.5,-153.5 611.5,-134.5 542.5,-134.5"/>
<text text-anchor="middle" x="577" y="-141.5" font-family="Helvetica,sans-Serif" font-size="10.00">Eigen/Core</text>
</a>
</g>
</g>
<!-- Node14&#45;&gt;Node16 -->
<g id="edge16" class="edge">
<title>Node14&#45;&gt;Node16</title>
<path fill="none" stroke="midnightblue" d="M560.72,-195.98C563.43,-187.49 567.67,-174.2 571.15,-163.32"/>
<polygon fill="midnightblue" stroke="midnightblue" points="574.57,-164.1 574.28,-153.51 567.91,-161.97 574.57,-164.1"/>
</g>
<!-- Node17 -->
<g id="node17" class="node">
<title>Node17</title>
<g id="a_node17"><a xlink:title=" ">
<polygon fill="white" stroke="#bfbfbf" points="629.5,-134.5 629.5,-153.5 724.5,-153.5 724.5,-134.5 629.5,-134.5"/>
<text text-anchor="middle" x="677" y="-141.5" font-family="Helvetica,sans-Serif" font-size="10.00">Eigen/Geometry</text>
</a>
</g>
</g>
<!-- Node14&#45;&gt;Node17 -->
<g id="edge17" class="edge">
<title>Node14&#45;&gt;Node17</title>
<path fill="none" stroke="midnightblue" d="M575.05,-195.98C594.84,-186.08 627.72,-169.64 650.77,-158.12"/>
<polygon fill="midnightblue" stroke="midnightblue" points="652.6,-161.11 659.98,-153.51 649.47,-154.85 652.6,-161.11"/>
</g>
<!-- Node18 -->
<g id="node18" class="node">
<title>Node18</title>
<g id="a_node18"><a xlink:title=" ">
<polygon fill="white" stroke="#bfbfbf" points="444,-134.5 444,-153.5 524,-153.5 524,-134.5 444,-134.5"/>
<text text-anchor="middle" x="484" y="-141.5" font-family="Helvetica,sans-Serif" font-size="10.00">Eigen/Sparse</text>
</a>
</g>
</g>
<!-- Node14&#45;&gt;Node18 -->
<g id="edge18" class="edge">
<title>Node14&#45;&gt;Node18</title>
<path fill="none" stroke="midnightblue" d="M547.4,-195.98C535.75,-186.61 516.81,-171.38 502.67,-160.01"/>
<polygon fill="midnightblue" stroke="midnightblue" points="504.57,-157.05 494.58,-153.51 500.18,-162.5 504.57,-157.05"/>
</g>
<!-- Node15&#45;&gt;Node4 -->
<g id="edge15" class="edge">
<title>Node15&#45;&gt;Node4</title>
<path fill="none" stroke="midnightblue" d="M935,-134.48C935,-126.08 935,-112.98 935,-102.16"/>
<polygon fill="midnightblue" stroke="midnightblue" points="938.5,-102.01 935,-92.01 931.5,-102.01 938.5,-102.01"/>
</g>
<!-- Node19&#45;&gt;Node3 -->
<g id="edge20" class="edge">
<title>Node19&#45;&gt;Node3</title>
<path fill="none" stroke="midnightblue" d="M326.56,-190.4C299.81,-180.33 264.18,-166.91 238.6,-157.28"/>
<polygon fill="midnightblue" stroke="midnightblue" points="239.58,-153.91 228.99,-153.66 237.12,-160.46 239.58,-153.91"/>
</g>
<!-- Node19&#45;&gt;Node20 -->
<g id="edge21" class="edge">
<title>Node19&#45;&gt;Node20</title>
<path fill="none" stroke="midnightblue" d="M373.72,-190.4C379.55,-181.93 387.02,-171.1 393.19,-162.14"/>
<polygon fill="midnightblue" stroke="midnightblue" points="396.24,-163.88 399.03,-153.66 390.48,-159.91 396.24,-163.88"/>
</g>
<!-- Node21 -->
<g id="node21" class="node">
<title>Node21</title>
<g id="a_node21"><a xlink:title=" ">
<polygon fill="white" stroke="#bfbfbf" points="284,-134.5 284,-153.5 316,-153.5 316,-134.5 284,-134.5"/>
<text text-anchor="middle" x="300" y="-141.5" font-family="Helvetica,sans-Serif" font-size="10.00">list</text>
</a>
</g>
</g>
<!-- Node19&#45;&gt;Node21 -->
<g id="edge22" class="edge">
<title>Node19&#45;&gt;Node21</title>
<path fill="none" stroke="midnightblue" d="M348.83,-190.4C339.25,-181.49 326.84,-169.95 316.93,-160.74"/>
<polygon fill="midnightblue" stroke="midnightblue" points="319.02,-157.9 309.31,-153.66 314.25,-163.03 319.02,-157.9"/>
</g>
<!-- Node22 -->
<g id="node22" class="node">
<title>Node22</title>
<g id="a_node22"><a xlink:title=" ">
<polygon fill="white" stroke="#bfbfbf" points="334,-134.5 334,-153.5 366,-153.5 366,-134.5 334,-134.5"/>
<text text-anchor="middle" x="350" y="-141.5" font-family="Helvetica,sans-Serif" font-size="10.00">set</text>
</a>
</g>
</g>
<!-- Node19&#45;&gt;Node22 -->
<g id="edge23" class="edge">
<title>Node19&#45;&gt;Node22</title>
<path fill="none" stroke="midnightblue" d="M360.68,-190.4C358.79,-182.38 356.41,-172.23 354.37,-163.57"/>
<polygon fill="midnightblue" stroke="midnightblue" points="357.73,-162.59 352.04,-153.66 350.92,-164.19 357.73,-162.59"/>
</g>
<!-- Node19&#45;&gt;Node23 -->
<g id="edge24" class="edge">
<title>Node19&#45;&gt;Node23</title>
<path fill="none" stroke="midnightblue" d="M455.53,-194.7C565.59,-182.79 741.66,-163.33 797.9,-153.77"/>
<polygon fill="midnightblue" stroke="midnightblue" points="798.57,-157.2 807.76,-151.94 797.29,-150.32 798.57,-157.2"/>
</g>
<!-- Node24 -->
<g id="node24" class="node">
<title>Node24</title>
<g id="a_node24"><a xlink:title=" ">
<polygon fill="white" stroke="#bfbfbf" points="742.5,-134.5 742.5,-153.5 789.5,-153.5 789.5,-134.5 742.5,-134.5"/>
<text text-anchor="middle" x="766" y="-141.5" font-family="Helvetica,sans-Serif" font-size="10.00">vector</text>
</a>
</g>
</g>
<!-- Node19&#45;&gt;Node24 -->
<g id="edge25" class="edge">
<title>Node19&#45;&gt;Node24</title>
<path fill="none" stroke="midnightblue" d="M455.8,-193.45C542.82,-182.72 668.4,-166.52 732.25,-154.09"/>
<polygon fill="midnightblue" stroke="midnightblue" points="733.22,-157.47 742.32,-152.05 731.83,-150.61 733.22,-157.47"/>
</g>
<!-- Node26&#45;&gt;Node27 -->
<g id="edge30" class="edge">
<title>Node26&#45;&gt;Node27</title>
<path fill="none" stroke="midnightblue" d="M114.4,-195.98C103.95,-186.7 87.03,-171.67 74.26,-160.33"/>
<polygon fill="midnightblue" stroke="midnightblue" points="76.38,-157.53 66.58,-153.51 71.73,-162.77 76.38,-157.53"/>
</g>
<!-- Node28&#45;&gt;Node3 -->
<g id="edge32" class="edge">
<title>Node28&#45;&gt;Node3</title>
<path fill="none" stroke="midnightblue" d="M739.48,-257.98C736.62,-257.64 733.79,-257.31 731,-257 627.55,-245.53 355.45,-270.71 264,-221 240.24,-208.08 223.23,-180.82 214,-162.71"/>
<polygon fill="midnightblue" stroke="midnightblue" points="217.07,-161 209.58,-153.51 210.76,-164.04 217.07,-161"/>
</g>
<!-- Node28&#45;&gt;Node23 -->
<g id="edge35" class="edge">
<title>Node28&#45;&gt;Node23</title>
<path fill="none" stroke="midnightblue" d="M820.56,-257.31C814.1,-247.63 806.41,-234.2 803,-221 799.55,-207.66 799.32,-203.28 803,-190 805.79,-179.92 811.51,-169.83 816.97,-161.77"/>
<polygon fill="midnightblue" stroke="midnightblue" points="819.82,-163.79 822.85,-153.64 814.15,-159.69 819.82,-163.79"/>
</g>
<!-- Node28&#45;&gt;Node24 -->
<g id="edge36" class="edge">
<title>Node28&#45;&gt;Node24</title>
<path fill="none" stroke="midnightblue" d="M819.97,-257.48C812.57,-247.64 802.94,-233.98 796,-221 785.89,-202.1 777.26,-179.03 771.89,-163.3"/>
<polygon fill="midnightblue" stroke="midnightblue" points="775.18,-162.11 768.71,-153.72 768.54,-164.31 775.18,-162.11"/>
</g>
<!-- Node28&#45;&gt;Node25 -->
<g id="edge34" class="edge">
<title>Node28&#45;&gt;Node25</title>
<path fill="none" stroke="midnightblue" d="M800.19,-257.4C775.38,-246.04 740.82,-230.22 716.84,-219.24"/>
<polygon fill="midnightblue" stroke="midnightblue" points="718.13,-215.99 707.58,-215.01 715.22,-222.35 718.13,-215.99"/>
</g>
<!-- Node29 -->
<g id="node29" class="node">
<title>Node29</title>
<g id="a_node29"><a xlink:title=" ">
<polygon fill="white" stroke="#bfbfbf" points="812,-196 812,-215 850,-215 850,-196 812,-196"/>
<text text-anchor="middle" x="831" y="-203" font-family="Helvetica,sans-Serif" font-size="10.00">map</text>
</a>
</g>
</g>
<!-- Node28&#45;&gt;Node29 -->
<g id="edge33" class="edge">
<title>Node28&#45;&gt;Node29</title>
<path fill="none" stroke="midnightblue" d="M831,-257.4C831,-248.06 831,-235.71 831,-225.52"/>
<polygon fill="midnightblue" stroke="midnightblue" points="834.5,-225.19 831,-215.19 827.5,-225.19 834.5,-225.19"/>
</g>
<!-- Node30 -->
<g id="node30" class="node">
<title>Node30</title>
<g id="a_node30"><a xlink:href="Singleton_8hpp.html" target="_top" xlink:title=" ">
<polygon fill="white" stroke="black" points="868,-196 868,-215 1002,-215 1002,-196 868,-196"/>
<text text-anchor="middle" x="935" y="-203" font-family="Helvetica,sans-Serif" font-size="10.00">Core/Utils/Singleton.hpp</text>
</a>
</g>
</g>
<!-- Node28&#45;&gt;Node30 -->
<g id="edge37" class="edge">
<title>Node28&#45;&gt;Node30</title>
<path fill="none" stroke="midnightblue" d="M853.57,-257.4C871.01,-246.5 895.03,-231.48 912.47,-220.58"/>
<polygon fill="midnightblue" stroke="midnightblue" points="914.76,-223.28 921.39,-215.01 911.05,-217.34 914.76,-223.28"/>
</g>
<!-- Node31 -->
<g id="node31" class="node">
<title>Node31</title>
<g id="a_node31"><a xlink:href="StdOptional_8hpp.html" target="_top" xlink:title=" ">
<polygon fill="white" stroke="black" points="1020,-196 1020,-215 1166,-215 1166,-196 1020,-196"/>
<text text-anchor="middle" x="1093" y="-203" font-family="Helvetica,sans-Serif" font-size="10.00">Core/Utils/StdOptional.hpp</text>
</a>
</g>
</g>
<!-- Node28&#45;&gt;Node31 -->
<g id="edge39" class="edge">
<title>Node28&#45;&gt;Node31</title>
<path fill="none" stroke="midnightblue" d="M887.53,-257.48C935.82,-245.5 1004.32,-228.5 1048.71,-217.49"/>
<polygon fill="midnightblue" stroke="midnightblue" points="1049.76,-220.83 1058.62,-215.03 1048.07,-214.04 1049.76,-220.83"/>
</g>
<!-- Node30&#45;&gt;Node15 -->
<g id="edge38" class="edge">
<title>Node30&#45;&gt;Node15</title>
<path fill="none" stroke="midnightblue" d="M935,-195.98C935,-187.58 935,-174.48 935,-163.66"/>
<polygon fill="midnightblue" stroke="midnightblue" points="938.5,-163.51 935,-153.51 931.5,-163.51 938.5,-163.51"/>
</g>
<!-- Node32&#45;&gt;Node25 -->
<g id="edge41" class="edge">
<title>Node32&#45;&gt;Node25</title>
<path fill="none" stroke="midnightblue" d="M639.69,-262.73C648.66,-252.5 663.69,-235.36 674.8,-222.69"/>
<polygon fill="midnightblue" stroke="midnightblue" points="677.47,-224.95 681.43,-215.13 672.21,-220.34 677.47,-224.95"/>
</g>
<!-- Node33&#45;&gt;Node8 -->
<g id="edge45" class="edge">
<title>Node33&#45;&gt;Node8</title>
<path fill="none" stroke="midnightblue" d="M1221.72,-195.99C1207.27,-187.21 1185.92,-172.25 1173,-154 1146.61,-116.72 1134.04,-63.4 1128.94,-35.37"/>
<polygon fill="midnightblue" stroke="midnightblue" points="1132.36,-34.61 1127.24,-25.33 1125.46,-35.78 1132.36,-34.61"/>
</g>
<!-- Node33&#45;&gt;Node15 -->
<g id="edge43" class="edge">
<title>Node33&#45;&gt;Node15</title>
<path fill="none" stroke="midnightblue" d="M1201.65,-195.95C1192.95,-193.92 1183.65,-191.82 1175,-190 1113.42,-177.03 1042.56,-163.97 993.89,-155.29"/>
<polygon fill="midnightblue" stroke="midnightblue" points="994.31,-151.81 983.85,-153.5 993.08,-158.7 994.31,-151.81"/>
</g>
<!-- Node33&#45;&gt;Node23 -->
<g id="edge47" class="edge">
<title>Node33&#45;&gt;Node23</title>
<path fill="none" stroke="midnightblue" d="M1203.67,-196C1194.43,-193.83 1184.36,-191.66 1175,-190 1043.63,-166.78 1008.81,-174.56 877,-154 872.22,-153.26 867.19,-152.38 862.26,-151.48"/>
<polygon fill="midnightblue" stroke="midnightblue" points="862.89,-148.04 852.42,-149.62 861.59,-154.92 862.89,-148.04"/>
</g>
<!-- Node34 -->
<g id="node34" class="node">
<title>Node34</title>
<g id="a_node34"><a xlink:title=" ">
<polygon fill="white" stroke="#bfbfbf" points="1182,-134.5 1182,-153.5 1226,-153.5 1226,-134.5 1182,-134.5"/>
<text text-anchor="middle" x="1204" y="-141.5" font-family="Helvetica,sans-Serif" font-size="10.00">ctime</text>
</a>
</g>
</g>
<!-- Node33&#45;&gt;Node34 -->
<g id="edge44" class="edge">
<title>Node33&#45;&gt;Node34</title>
<path fill="none" stroke="midnightblue" d="M1232.27,-195.98C1227.42,-187.23 1219.73,-173.37 1213.6,-162.31"/>
<polygon fill="midnightblue" stroke="midnightblue" points="1216.63,-160.56 1208.72,-153.51 1210.51,-163.95 1216.63,-160.56"/>
</g>
<!-- Node35 -->
<g id="node35" class="node">
<title>Node35</title>
<g id="a_node35"><a xlink:title=" ">
<polygon fill="white" stroke="#bfbfbf" points="1244,-134.5 1244,-153.5 1294,-153.5 1294,-134.5 1244,-134.5"/>
<text text-anchor="middle" x="1269" y="-141.5" font-family="Helvetica,sans-Serif" font-size="10.00">stdio.h</text>
</a>
</g>
</g>
<!-- Node33&#45;&gt;Node35 -->
<g id="edge46" class="edge">
<title>Node33&#45;&gt;Node35</title>
<path fill="none" stroke="midnightblue" d="M1241.58,-195.98C1246.24,-187.32 1253.59,-173.65 1259.51,-162.65"/>
<polygon fill="midnightblue" stroke="midnightblue" points="1262.77,-163.97 1264.42,-153.51 1256.6,-160.66 1262.77,-163.97"/>
</g>
</g>
</svg>
