<?xml version="1.0" encoding="UTF-8" standalone="no"?>
<!DOCTYPE svg PUBLIC "-//W3C//DTD SVG 1.1//EN"
 "http://www.w3.org/Graphics/SVG/1.1/DTD/svg11.dtd">
<!-- Generated by graphviz version 2.43.0 (0)
 -->
<!-- Title: /home/runner/work/Radium&#45;Engine/Radium&#45;Engine/src/Radium&#45;Engine/src/Engine/Scene/SignalManager.hpp Pages: 1 -->
<svg width="962pt" height="352pt"
 viewBox="0.00 0.00 962.00 352.00" xmlns="http://www.w3.org/2000/svg" xmlns:xlink="http://www.w3.org/1999/xlink">
<g id="graph0" class="graph" transform="scale(1 1) rotate(0) translate(4 348)">
<title>/home/runner/work/Radium&#45;Engine/Radium&#45;Engine/src/Radium&#45;Engine/src/Engine/Scene/SignalManager.hpp</title>
<polygon fill="white" stroke="transparent" points="-4,4 -4,-348 958,-348 958,4 -4,4"/>
<!-- Node1 -->
<g id="node1" class="node">
<title>Node1</title>
<g id="a_node1"><a xlink:title=" ">
<polygon fill="#bfbfbf" stroke="black" points="556.5,-291.5 556.5,-343.5 705.5,-343.5 705.5,-291.5 556.5,-291.5"/>
<text text-anchor="start" x="564.5" y="-331.5" font-family="Helvetica,sans-Serif" font-size="10.00">/home/runner/work/Radium</text>
<text text-anchor="start" x="564.5" y="-320.5" font-family="Helvetica,sans-Serif" font-size="10.00">&#45;Engine/Radium&#45;Engine/src</text>
<text text-anchor="start" x="564.5" y="-309.5" font-family="Helvetica,sans-Serif" font-size="10.00">/Radium&#45;Engine/src/Engine</text>
<text text-anchor="middle" x="631" y="-298.5" font-family="Helvetica,sans-Serif" font-size="10.00">/Scene/SignalManager.hpp</text>
</a>
</g>
</g>
<!-- Node2 -->
<g id="node2" class="node">
<title>Node2</title>
<g id="a_node2"><a xlink:href="RaEngine_8hpp.html" target="_top" xlink:title=" ">
<polygon fill="white" stroke="black" points="168.5,-179.5 168.5,-198.5 287.5,-198.5 287.5,-179.5 168.5,-179.5"/>
<text text-anchor="middle" x="228" y="-186.5" font-family="Helvetica,sans-Serif" font-size="10.00">Engine/RaEngine.hpp</text>
</a>
</g>
</g>
<!-- Node1&#45;&gt;Node2 -->
<g id="edge1" class="edge">
<title>Node1&#45;&gt;Node2</title>
<path fill="none" stroke="midnightblue" d="M556.44,-296.09C515.18,-284.54 463.08,-269.54 417,-255 362.02,-237.66 298.79,-215.45 261.18,-201.99"/>
<polygon fill="midnightblue" stroke="midnightblue" points="262.33,-198.69 251.74,-198.6 259.97,-205.27 262.33,-198.69"/>
</g>
<!-- Node13 -->
<g id="node13" class="node">
<title>Node13</title>
<g id="a_node13"><a xlink:title=" ">
<polygon fill="white" stroke="#bfbfbf" points="851,-235.5 851,-254.5 899,-254.5 899,-235.5 851,-235.5"/>
<text text-anchor="middle" x="875" y="-242.5" font-family="Helvetica,sans-Serif" font-size="10.00">mutex</text>
</a>
</g>
</g>
<!-- Node1&#45;&gt;Node13 -->
<g id="edge12" class="edge">
<title>Node1&#45;&gt;Node13</title>
<path fill="none" stroke="midnightblue" d="M705.53,-294.96C750.69,-281.92 806.12,-265.9 841.02,-255.82"/>
<polygon fill="midnightblue" stroke="midnightblue" points="842.08,-259.15 850.72,-253.02 840.14,-252.43 842.08,-259.15"/>
</g>
<!-- Node14 -->
<g id="node14" class="node">
<title>Node14</title>
<g id="a_node14"><a xlink:href="Observable_8hpp.html" target="_top" xlink:title=" ">
<polygon fill="white" stroke="black" points="689,-235.5 689,-254.5 833,-254.5 833,-235.5 689,-235.5"/>
<text text-anchor="middle" x="761" y="-242.5" font-family="Helvetica,sans-Serif" font-size="10.00">Core/Utils/Observable.hpp</text>
</a>
</g>
</g>
<!-- Node1&#45;&gt;Node14 -->
<g id="edge13" class="edge">
<title>Node1&#45;&gt;Node14</title>
<path fill="none" stroke="midnightblue" d="M677.2,-291.45C697.09,-280.66 719.54,-268.48 736.2,-259.45"/>
<polygon fill="midnightblue" stroke="midnightblue" points="738.15,-262.37 745.28,-254.53 734.82,-256.22 738.15,-262.37"/>
</g>
<!-- Node22 -->
<g id="node22" class="node">
<title>Node22</title>
<g id="a_node22"><a xlink:href="ItemEntry_8hpp.html" target="_top" xlink:title=" ">
<polygon fill="white" stroke="black" points="426,-235.5 426,-254.5 578,-254.5 578,-235.5 426,-235.5"/>
<text text-anchor="middle" x="502" y="-242.5" font-family="Helvetica,sans-Serif" font-size="10.00">Engine/Scene/ItemEntry.hpp</text>
</a>
</g>
</g>
<!-- Node1&#45;&gt;Node22 -->
<g id="edge23" class="edge">
<title>Node1&#45;&gt;Node22</title>
<path fill="none" stroke="midnightblue" d="M585.16,-291.45C565.42,-280.66 543.14,-268.48 526.61,-259.45"/>
<polygon fill="midnightblue" stroke="midnightblue" points="528.06,-256.25 517.6,-254.53 524.7,-262.39 528.06,-256.25"/>
</g>
<!-- Node3 -->
<g id="node3" class="node">
<title>Node3</title>
<g id="a_node3"><a xlink:href="CoreMacros_8hpp.html" target="_top" xlink:title=" ">
<polygon fill="white" stroke="black" points="495.5,-62 495.5,-81 616.5,-81 616.5,-62 495.5,-62"/>
<text text-anchor="middle" x="556" y="-69" font-family="Helvetica,sans-Serif" font-size="10.00">Core/CoreMacros.hpp</text>
</a>
</g>
</g>
<!-- Node2&#45;&gt;Node3 -->
<g id="edge2" class="edge">
<title>Node2&#45;&gt;Node3</title>
<path fill="none" stroke="midnightblue" d="M234.92,-179.23C246.68,-164.99 272,-137.03 300,-123 358.31,-93.78 432,-81.45 485.33,-76.26"/>
<polygon fill="midnightblue" stroke="midnightblue" points="485.74,-79.74 495.38,-75.34 485.1,-72.77 485.74,-79.74"/>
</g>
<!-- Node9 -->
<g id="node9" class="node">
<title>Node9</title>
<g id="a_node9"><a xlink:href="OpenGL_8hpp.html" target="_top" xlink:title=" ">
<polygon fill="white" stroke="black" points="141,-123.5 141,-142.5 253,-142.5 253,-123.5 141,-123.5"/>
<text text-anchor="middle" x="197" y="-130.5" font-family="Helvetica,sans-Serif" font-size="10.00">Engine/OpenGL.hpp</text>
</a>
</g>
</g>
<!-- Node2&#45;&gt;Node9 -->
<g id="edge8" class="edge">
<title>Node2&#45;&gt;Node9</title>
<path fill="none" stroke="midnightblue" d="M222.88,-179.08C218.59,-171.61 212.34,-160.72 207.06,-151.52"/>
<polygon fill="midnightblue" stroke="midnightblue" points="210.04,-149.68 202.02,-142.75 203.97,-153.17 210.04,-149.68"/>
</g>
<!-- Node4 -->
<g id="node4" class="node">
<title>Node4</title>
<g id="a_node4"><a xlink:title=" ">
<polygon fill="white" stroke="#bfbfbf" points="464,-0.5 464,-19.5 516,-19.5 516,-0.5 464,-0.5"/>
<text text-anchor="middle" x="490" y="-7.5" font-family="Helvetica,sans-Serif" font-size="10.00">cassert</text>
</a>
</g>
</g>
<!-- Node3&#45;&gt;Node4 -->
<g id="edge3" class="edge">
<title>Node3&#45;&gt;Node4</title>
<path fill="none" stroke="midnightblue" d="M546.54,-61.98C536.25,-52.7 519.58,-37.67 507.01,-26.33"/>
<polygon fill="midnightblue" stroke="midnightblue" points="509.21,-23.61 499.44,-19.51 504.52,-28.8 509.21,-23.61"/>
</g>
<!-- Node5 -->
<g id="node5" class="node">
<title>Node5</title>
<g id="a_node5"><a xlink:title=" ">
<polygon fill="white" stroke="#bfbfbf" points="534,-0.5 534,-19.5 580,-19.5 580,-0.5 534,-0.5"/>
<text text-anchor="middle" x="557" y="-7.5" font-family="Helvetica,sans-Serif" font-size="10.00">cstdio</text>
</a>
</g>
</g>
<!-- Node3&#45;&gt;Node5 -->
<g id="edge4" class="edge">
<title>Node3&#45;&gt;Node5</title>
<path fill="none" stroke="midnightblue" d="M556.14,-61.98C556.28,-53.58 556.5,-40.48 556.69,-29.66"/>
<polygon fill="midnightblue" stroke="midnightblue" points="560.19,-29.57 556.86,-19.51 553.19,-29.45 560.19,-29.57"/>
</g>
<!-- Node6 -->
<g id="node6" class="node">
<title>Node6</title>
<g id="a_node6"><a xlink:title=" ">
<polygon fill="white" stroke="#bfbfbf" points="598,-0.5 598,-19.5 658,-19.5 658,-0.5 598,-0.5"/>
<text text-anchor="middle" x="628" y="-7.5" font-family="Helvetica,sans-Serif" font-size="10.00">iostream</text>
</a>
</g>
</g>
<!-- Node3&#45;&gt;Node6 -->
<g id="edge5" class="edge">
<title>Node3&#45;&gt;Node6</title>
<path fill="none" stroke="midnightblue" d="M566.32,-61.98C577.65,-52.61 596.07,-37.38 609.84,-26.01"/>
<polygon fill="midnightblue" stroke="midnightblue" points="612.22,-28.58 617.7,-19.51 607.77,-23.18 612.22,-28.58"/>
</g>
<!-- Node7 -->
<g id="node7" class="node">
<title>Node7</title>
<g id="a_node7"><a xlink:title=" ">
<polygon fill="white" stroke="#bfbfbf" points="678,-0.5 678,-19.5 734,-19.5 734,-0.5 678,-0.5"/>
<text text-anchor="middle" x="706" y="-7.5" font-family="Helvetica,sans-Serif" font-size="10.00">sstream</text>
</a>
</g>
</g>
<!-- Node3&#45;&gt;Node7 -->
<g id="edge6" class="edge">
<title>Node3&#45;&gt;Node7</title>
<path fill="none" stroke="midnightblue" d="M577.49,-61.98C603.11,-51.81 646.11,-34.76 675.24,-23.2"/>
<polygon fill="midnightblue" stroke="midnightblue" points="676.54,-26.45 684.55,-19.51 673.96,-19.94 676.54,-26.45"/>
</g>
<!-- Node8 -->
<g id="node8" class="node">
<title>Node8</title>
<g id="a_node8"><a xlink:title=" ">
<polygon fill="white" stroke="#bfbfbf" points="398,-0.5 398,-19.5 446,-19.5 446,-0.5 398,-0.5"/>
<text text-anchor="middle" x="422" y="-7.5" font-family="Helvetica,sans-Serif" font-size="10.00">thread</text>
</a>
</g>
</g>
<!-- Node3&#45;&gt;Node8 -->
<g id="edge7" class="edge">
<title>Node3&#45;&gt;Node8</title>
<path fill="none" stroke="midnightblue" d="M536.8,-61.98C514.21,-51.95 476.5,-35.2 450.5,-23.65"/>
<polygon fill="midnightblue" stroke="midnightblue" points="451.72,-20.37 441.16,-19.51 448.88,-26.77 451.72,-20.37"/>
</g>
<!-- Node10 -->
<g id="node10" class="node">
<title>Node10</title>
<g id="a_node10"><a xlink:title=" ">
<polygon fill="white" stroke="#bfbfbf" points="272,-62 272,-81 400,-81 400,-62 272,-62"/>
<text text-anchor="middle" x="336" y="-69" font-family="Helvetica,sans-Serif" font-size="10.00">glbinding/gl45core/gl.h</text>
</a>
</g>
</g>
<!-- Node9&#45;&gt;Node10 -->
<g id="edge9" class="edge">
<title>Node9&#45;&gt;Node10</title>
<path fill="none" stroke="midnightblue" d="M216.92,-123.48C240.45,-113.4 279.81,-96.55 306.79,-85"/>
<polygon fill="midnightblue" stroke="midnightblue" points="308.31,-88.16 316.12,-81.01 305.55,-81.73 308.31,-88.16"/>
</g>
<!-- Node11 -->
<g id="node11" class="node">
<title>Node11</title>
<g id="a_node11"><a xlink:title=" ">
<polygon fill="white" stroke="#bfbfbf" points="0,-62 0,-81 122,-81 122,-62 0,-62"/>
<text text-anchor="middle" x="61" y="-69" font-family="Helvetica,sans-Serif" font-size="10.00">glbinding/gl45ext/gl.h</text>
</a>
</g>
</g>
<!-- Node9&#45;&gt;Node11 -->
<g id="edge10" class="edge">
<title>Node9&#45;&gt;Node11</title>
<path fill="none" stroke="midnightblue" d="M177.51,-123.48C154.59,-113.45 116.31,-96.7 89.92,-85.15"/>
<polygon fill="midnightblue" stroke="midnightblue" points="91.01,-81.81 80.45,-81.01 88.21,-88.22 91.01,-81.81"/>
</g>
<!-- Node12 -->
<g id="node12" class="node">
<title>Node12</title>
<g id="a_node12"><a xlink:title=" ">
<polygon fill="white" stroke="#bfbfbf" points="140.5,-56.5 140.5,-86.5 253.5,-86.5 253.5,-56.5 140.5,-56.5"/>
<text text-anchor="start" x="148.5" y="-74.5" font-family="Helvetica,sans-Serif" font-size="10.00">glbinding&#45;aux/types</text>
<text text-anchor="middle" x="197" y="-63.5" font-family="Helvetica,sans-Serif" font-size="10.00">_to_string.h</text>
</a>
</g>
</g>
<!-- Node9&#45;&gt;Node12 -->
<g id="edge11" class="edge">
<title>Node9&#45;&gt;Node12</title>
<path fill="none" stroke="midnightblue" d="M197,-123.48C197,-116.47 197,-106.19 197,-96.7"/>
<polygon fill="midnightblue" stroke="midnightblue" points="200.5,-96.52 197,-86.52 193.5,-96.52 200.5,-96.52"/>
</g>
<!-- Node15 -->
<g id="node15" class="node">
<title>Node15</title>
<g id="a_node15"><a xlink:href="Log_8hpp.html" target="_top" xlink:title=" ">
<polygon fill="white" stroke="black" points="708,-179.5 708,-198.5 814,-198.5 814,-179.5 708,-179.5"/>
<text text-anchor="middle" x="761" y="-186.5" font-family="Helvetica,sans-Serif" font-size="10.00">Core/Utils/Log.hpp</text>
</a>
</g>
</g>
<!-- Node14&#45;&gt;Node15 -->
<g id="edge14" class="edge">
<title>Node14&#45;&gt;Node15</title>
<path fill="none" stroke="midnightblue" d="M761,-235.08C761,-228.01 761,-217.86 761,-208.99"/>
<polygon fill="midnightblue" stroke="midnightblue" points="764.5,-208.75 761,-198.75 757.5,-208.75 764.5,-208.75"/>
</g>
<!-- Node20 -->
<g id="node20" class="node">
<title>Node20</title>
<g id="a_node20"><a xlink:title=" ">
<polygon fill="white" stroke="#bfbfbf" points="832.5,-179.5 832.5,-198.5 897.5,-198.5 897.5,-179.5 832.5,-179.5"/>
<text text-anchor="middle" x="865" y="-186.5" font-family="Helvetica,sans-Serif" font-size="10.00">functional</text>
</a>
</g>
</g>
<!-- Node14&#45;&gt;Node20 -->
<g id="edge21" class="edge">
<title>Node14&#45;&gt;Node20</title>
<path fill="none" stroke="midnightblue" d="M777.71,-235.32C794.31,-226.7 820,-213.36 839.22,-203.39"/>
<polygon fill="midnightblue" stroke="midnightblue" points="841.07,-206.37 848.33,-198.65 837.84,-200.16 841.07,-206.37"/>
</g>
<!-- Node21 -->
<g id="node21" class="node">
<title>Node21</title>
<g id="a_node21"><a xlink:title=" ">
<polygon fill="white" stroke="#bfbfbf" points="916,-179.5 916,-198.5 954,-198.5 954,-179.5 916,-179.5"/>
<text text-anchor="middle" x="935" y="-186.5" font-family="Helvetica,sans-Serif" font-size="10.00">map</text>
</a>
</g>
</g>
<!-- Node14&#45;&gt;Node21 -->
<g id="edge22" class="edge">
<title>Node14&#45;&gt;Node21</title>
<path fill="none" stroke="midnightblue" d="M789.02,-235.47C816.54,-227.07 859.96,-213.76 906.15,-199.24"/>
<polygon fill="midnightblue" stroke="midnightblue" points="907.24,-202.57 915.73,-196.23 905.14,-195.89 907.24,-202.57"/>
</g>
<!-- Node15&#45;&gt;Node7 -->
<g id="edge18" class="edge">
<title>Node15&#45;&gt;Node7</title>
<path fill="none" stroke="midnightblue" d="M753.36,-179.36C746.19,-170.75 735.72,-156.85 730,-143 714.2,-104.74 708.77,-55.99 706.93,-29.75"/>
<polygon fill="midnightblue" stroke="midnightblue" points="710.42,-29.46 706.32,-19.69 703.43,-29.88 710.42,-29.46"/>
</g>
<!-- Node16 -->
<g id="node16" class="node">
<title>Node16</title>
<g id="a_node16"><a xlink:href="RaCore_8hpp.html" target="_top" xlink:title=" ">
<polygon fill="white" stroke="black" points="507,-123.5 507,-142.5 605,-142.5 605,-123.5 507,-123.5"/>
<text text-anchor="middle" x="556" y="-130.5" font-family="Helvetica,sans-Serif" font-size="10.00">Core/RaCore.hpp</text>
</a>
</g>
</g>
<!-- Node15&#45;&gt;Node16 -->
<g id="edge15" class="edge">
<title>Node15&#45;&gt;Node16</title>
<path fill="none" stroke="midnightblue" d="M728.52,-179.44C693.28,-170.16 636.9,-155.31 598.24,-145.13"/>
<polygon fill="midnightblue" stroke="midnightblue" points="598.89,-141.68 588.33,-142.52 597.11,-148.45 598.89,-141.68"/>
</g>
<!-- Node17 -->
<g id="node17" class="node">
<title>Node17</title>
<g id="a_node17"><a xlink:title=" ">
<polygon fill="white" stroke="#bfbfbf" points="739,-123.5 739,-142.5 783,-142.5 783,-123.5 739,-123.5"/>
<text text-anchor="middle" x="761" y="-130.5" font-family="Helvetica,sans-Serif" font-size="10.00">ctime</text>
</a>
</g>
</g>
<!-- Node15&#45;&gt;Node17 -->
<g id="edge17" class="edge">
<title>Node15&#45;&gt;Node17</title>
<path fill="none" stroke="midnightblue" d="M761,-179.08C761,-172.01 761,-161.86 761,-152.99"/>
<polygon fill="midnightblue" stroke="midnightblue" points="764.5,-152.75 761,-142.75 757.5,-152.75 764.5,-152.75"/>
</g>
<!-- Node18 -->
<g id="node18" class="node">
<title>Node18</title>
<g id="a_node18"><a xlink:title=" ">
<polygon fill="white" stroke="#bfbfbf" points="801,-123.5 801,-142.5 851,-142.5 851,-123.5 801,-123.5"/>
<text text-anchor="middle" x="826" y="-130.5" font-family="Helvetica,sans-Serif" font-size="10.00">stdio.h</text>
</a>
</g>
</g>
<!-- Node15&#45;&gt;Node18 -->
<g id="edge19" class="edge">
<title>Node15&#45;&gt;Node18</title>
<path fill="none" stroke="midnightblue" d="M771.44,-179.32C781.15,-171.26 795.82,-159.08 807.5,-149.37"/>
<polygon fill="midnightblue" stroke="midnightblue" points="809.91,-151.92 815.37,-142.83 805.44,-146.53 809.91,-151.92"/>
</g>
<!-- Node19 -->
<g id="node19" class="node">
<title>Node19</title>
<g id="a_node19"><a xlink:title=" ">
<polygon fill="white" stroke="#bfbfbf" points="627,-123.5 627,-142.5 671,-142.5 671,-123.5 627,-123.5"/>
<text text-anchor="middle" x="649" y="-130.5" font-family="Helvetica,sans-Serif" font-size="10.00">string</text>
</a>
</g>
</g>
<!-- Node15&#45;&gt;Node19 -->
<g id="edge20" class="edge">
<title>Node15&#45;&gt;Node19</title>
<path fill="none" stroke="midnightblue" d="M743.01,-179.32C724.96,-170.62 696.95,-157.12 676.2,-147.11"/>
<polygon fill="midnightblue" stroke="midnightblue" points="677.48,-143.84 666.95,-142.65 674.44,-150.15 677.48,-143.84"/>
</g>
<!-- Node16&#45;&gt;Node3 -->
<g id="edge16" class="edge">
<title>Node16&#45;&gt;Node3</title>
<path fill="none" stroke="midnightblue" d="M556,-123.48C556,-115.08 556,-101.98 556,-91.16"/>
<polygon fill="midnightblue" stroke="midnightblue" points="559.5,-91.01 556,-81.01 552.5,-91.01 559.5,-91.01"/>
</g>
<!-- Node22&#45;&gt;Node2 -->
<g id="edge24" class="edge">
<title>Node22&#45;&gt;Node2</title>
<path fill="none" stroke="midnightblue" d="M458.58,-235.44C410.48,-225.96 332.91,-210.67 281.19,-200.48"/>
<polygon fill="midnightblue" stroke="midnightblue" points="281.7,-197.02 271.21,-198.52 280.35,-203.88 281.7,-197.02"/>
</g>
<!-- Node22&#45;&gt;Node19 -->
<g id="edge30" class="edge">
<title>Node22&#45;&gt;Node19</title>
<path fill="none" stroke="midnightblue" d="M491.99,-235.37C478.03,-222.28 455.91,-197.04 470,-179 510.6,-127 550.05,-159.21 614,-143 614.9,-142.77 615.82,-142.54 616.75,-142.3"/>
<polygon fill="midnightblue" stroke="midnightblue" points="617.97,-145.6 626.79,-139.74 616.23,-138.82 617.97,-145.6"/>
</g>
<!-- Node23 -->
<g id="node23" class="node">
<title>Node23</title>
<g id="a_node23"><a xlink:href="Index_8hpp.html" target="_top" xlink:title=" ">
<polygon fill="white" stroke="black" points="306,-179.5 306,-198.5 422,-198.5 422,-179.5 306,-179.5"/>
<text text-anchor="middle" x="364" y="-186.5" font-family="Helvetica,sans-Serif" font-size="10.00">Core/Utils/Index.hpp</text>
</a>
</g>
</g>
<!-- Node22&#45;&gt;Node23 -->
<g id="edge25" class="edge">
<title>Node22&#45;&gt;Node23</title>
<path fill="none" stroke="midnightblue" d="M480.13,-235.44C457.22,-226.48 421.02,-212.31 395.13,-202.18"/>
<polygon fill="midnightblue" stroke="midnightblue" points="396.35,-198.9 385.76,-198.52 393.8,-205.42 396.35,-198.9"/>
</g>
<!-- Node26 -->
<g id="node26" class="node">
<title>Node26</title>
<g id="a_node26"><a xlink:title=" ">
<polygon fill="white" stroke="#bfbfbf" points="478.5,-179.5 478.5,-198.5 525.5,-198.5 525.5,-179.5 478.5,-179.5"/>
<text text-anchor="middle" x="502" y="-186.5" font-family="Helvetica,sans-Serif" font-size="10.00">vector</text>
</a>
</g>
</g>
<!-- Node22&#45;&gt;Node26 -->
<g id="edge31" class="edge">
<title>Node22&#45;&gt;Node26</title>
<path fill="none" stroke="midnightblue" d="M502,-235.08C502,-228.01 502,-217.86 502,-208.99"/>
<polygon fill="midnightblue" stroke="midnightblue" points="505.5,-208.75 502,-198.75 498.5,-208.75 505.5,-208.75"/>
</g>
<!-- Node27 -->
<g id="node27" class="node">
<title>Node27</title>
<g id="a_node27"><a xlink:href="ItemEntry_8inl.html" target="_top" xlink:title=" ">
<polygon fill="white" stroke="black" points="544,-179.5 544,-198.5 690,-198.5 690,-179.5 544,-179.5"/>
<text text-anchor="middle" x="617" y="-186.5" font-family="Helvetica,sans-Serif" font-size="10.00">Engine/Scene/ItemEntry.inl</text>
</a>
</g>
</g>
<!-- Node22&#45;&gt;Node27 -->
<g id="edge32" class="edge">
<title>Node22&#45;&gt;Node27</title>
<path fill="none" stroke="midnightblue" d="M515.36,-235.32C532.23,-226.51 561.28,-212.75 584.11,-202.71"/>
<polygon fill="midnightblue" stroke="midnightblue" points="585.68,-205.84 593.46,-198.65 582.89,-199.42 585.68,-205.84"/>
</g>
<!-- Node23&#45;&gt;Node16 -->
<g id="edge26" class="edge">
<title>Node23&#45;&gt;Node16</title>
<path fill="none" stroke="midnightblue" d="M394.42,-179.44C427.28,-170.2 479.78,-155.44 515.97,-145.26"/>
<polygon fill="midnightblue" stroke="midnightblue" points="517.04,-148.59 525.72,-142.52 515.15,-141.85 517.04,-148.59"/>
</g>
<!-- Node24 -->
<g id="node24" class="node">
<title>Node24</title>
<g id="a_node24"><a xlink:title=" ">
<polygon fill="white" stroke="#bfbfbf" points="437,-123.5 437,-142.5 481,-142.5 481,-123.5 437,-123.5"/>
<text text-anchor="middle" x="459" y="-130.5" font-family="Helvetica,sans-Serif" font-size="10.00">limits</text>
</a>
</g>
</g>
<!-- Node23&#45;&gt;Node24 -->
<g id="edge27" class="edge">
<title>Node23&#45;&gt;Node24</title>
<path fill="none" stroke="midnightblue" d="M379.26,-179.32C394.22,-170.82 417.25,-157.73 434.73,-147.8"/>
<polygon fill="midnightblue" stroke="midnightblue" points="436.81,-150.64 443.77,-142.65 433.35,-144.55 436.81,-150.64"/>
</g>
<!-- Node25 -->
<g id="node25" class="node">
<title>Node25</title>
<g id="a_node25"><a xlink:href="Index_8inl.html" target="_top" xlink:title=" ">
<polygon fill="white" stroke="black" points="309,-123.5 309,-142.5 419,-142.5 419,-123.5 309,-123.5"/>
<text text-anchor="middle" x="364" y="-130.5" font-family="Helvetica,sans-Serif" font-size="10.00">Core/Utils/Index.inl</text>
</a>
</g>
</g>
<!-- Node23&#45;&gt;Node25 -->
<g id="edge28" class="edge">
<title>Node23&#45;&gt;Node25</title>
<path fill="none" stroke="midnightblue" d="M358.83,-179.08C357.32,-171.93 356.89,-161.64 357.54,-152.69"/>
<polygon fill="midnightblue" stroke="midnightblue" points="361.02,-153.13 358.87,-142.75 354.08,-152.2 361.02,-153.13"/>
</g>
<!-- Node25&#45;&gt;Node23 -->
<g id="edge29" class="edge">
<title>Node25&#45;&gt;Node23</title>
<path fill="none" stroke="midnightblue" d="M369.13,-142.75C370.66,-149.86 371.1,-160.14 370.47,-169.1"/>
<polygon fill="midnightblue" stroke="midnightblue" points="366.99,-168.71 369.17,-179.08 373.93,-169.62 366.99,-168.71"/>
</g>
<!-- Node27&#45;&gt;Node22 -->
<g id="edge33" class="edge">
<title>Node27&#45;&gt;Node22</title>
<path fill="none" stroke="midnightblue" d="M603.94,-198.52C587.08,-207.35 557.71,-221.26 534.72,-231.37"/>
<polygon fill="midnightblue" stroke="midnightblue" points="533.1,-228.26 525.31,-235.44 535.88,-234.68 533.1,-228.26"/>
</g>
</g>
</svg>
