<?xml version="1.0" encoding="UTF-8" standalone="no"?>
<!DOCTYPE svg PUBLIC "-//W3C//DTD SVG 1.1//EN"
 "http://www.w3.org/Graphics/SVG/1.1/DTD/svg11.dtd">
<!-- Generated by graphviz version 2.40.1 (20161225.0304)
 -->
<!-- Title: src/Core/Utils/StringUtils.cpp Pages: 1 -->
<!--zoomable 252 -->
<svg id="main" version="1.1" xmlns="http://www.w3.org/2000/svg" xmlns:xlink="http://www.w3.org/1999/xlink" xml:space="preserve" onload="init(evt)">
<style type="text/css"><![CDATA[
.edge:hover path { stroke: red; }
.edge:hover polygon { stroke: red; fill: red; }
]]></style>
<script type="text/javascript"><![CDATA[
var edges = document.getElementsByTagName('g');
if (edges && edges.length) {
  for (var i=0;i<edges.length;i++) {
    if (edges[i].id.substr(0,4)=='edge') {
      edges[i].setAttribute('class','edge');
    }
  }
}
]]></script>
        <defs>
                <circle id="rim" cx="0" cy="0" r="7"/>
                <circle id="rim2" cx="0" cy="0" r="3.5"/>
                <g id="zoomPlus">
                        <use xlink:href="#rim" fill="#404040">
                                <set attributeName="fill" to="#808080" begin="zoomplus.mouseover" end="zoomplus.mouseout"/>
                        </use>
                        <path d="M-4,0h8M0,-4v8" fill="none" stroke="white" stroke-width="1.5" pointer-events="none"/>
                </g>
                <g id="zoomMin">
                        <use xlink:href="#rim" fill="#404040">
                                <set attributeName="fill" to="#808080" begin="zoomminus.mouseover" end="zoomminus.mouseout"/>
                        </use>
                        <path d="M-4,0h8" fill="none" stroke="white" stroke-width="1.5" pointer-events="none"/>
                </g>
                <g id="dirArrow">
                        <path fill="none" stroke="white" stroke-width="1.5" d="M0,-3.0v7 M-2.5,-0.5L0,-3.0L2.5,-0.5"/>
                </g>
               <g id="resetDef">
                       <use xlink:href="#rim2" fill="#404040">
                               <set attributeName="fill" to="#808080" begin="reset.mouseover" end="reset.mouseout"/>
                       </use>
               </g>
        </defs>

<script type="text/javascript">
var viewWidth = 584;
var viewHeight = 252;
var sectionId = 'dynsection-0';
</script>
<script xlink:href="svgpan.js"/>
<svg id="graph" class="graph">
<g id="viewport">
<title>src/Core/Utils/StringUtils.cpp</title>
<polygon fill="#ffffff" stroke="transparent" points="-4,4 -4,-248 580,-248 580,4 -4,4"/>
<!-- Node0 -->
<g id="node1" class="node">
<title>Node0</title>
<polygon fill="#bfbfbf" stroke="#000000" points="190,-224.5 190,-243.5 346,-243.5 346,-224.5 190,-224.5"/>
<text text-anchor="middle" x="268" y="-231.5" font-family="Helvetica,sans-Serif" font-size="10.00" fill="#000000">src/Core/Utils/StringUtils.cpp</text>
</g>
<!-- Node1 -->
<g id="node2" class="node">
<title>Node1</title>
<g id="a_node2"><a xlink:href="StringUtils_8hpp.html" target="_top" xlink:title="Core/Utils/StringUtils.hpp">
<polygon fill="#ffffff" stroke="#000000" points="138,-168.5 138,-187.5 278,-187.5 278,-168.5 138,-168.5"/>
<text text-anchor="middle" x="208" y="-175.5" font-family="Helvetica,sans-Serif" font-size="10.00" fill="#000000">Core/Utils/StringUtils.hpp</text>
</a>
</g>
</g>
<!-- Node0&#45;&gt;Node1 -->
<g id="edge1" class="edge">
<title>Node0&#45;&gt;Node1</title>
<path fill="none" stroke="#191970" d="M257.5488,-224.2455C248.7731,-216.0549 236.0446,-204.1749 225.686,-194.5069"/>
<polygon fill="#191970" stroke="#191970" points="228.0301,-191.9072 218.3314,-187.6427 223.2539,-197.0246 228.0301,-191.9072"/>
</g>
<!-- Node3 -->
<g id="node4" class="node">
<title>Node3</title>
<g id="a_node4"><a xlink:href="CoreMacros_8hpp.html" target="_top" xlink:title="Core/CoreMacros.hpp">
<polygon fill="#ffffff" stroke="#000000" points="104,-56.5 104,-75.5 224,-75.5 224,-56.5 104,-56.5"/>
<text text-anchor="middle" x="164" y="-63.5" font-family="Helvetica,sans-Serif" font-size="10.00" fill="#000000">Core/CoreMacros.hpp</text>
</a>
</g>
</g>
<!-- Node0&#45;&gt;Node3 -->
<g id="edge11" class="edge">
<title>Node0&#45;&gt;Node3</title>
<path fill="none" stroke="#191970" d="M220.5378,-224.488C184.7516,-216.2397 140.0149,-203.2477 129,-188 109.2202,-160.6194 118.2077,-144.0073 129,-112 132.5695,-101.4138 139.6535,-91.3356 146.5202,-83.3256"/>
<polygon fill="#191970" stroke="#191970" points="149.253,-85.5244 153.441,-75.7924 144.0981,-80.7886 149.253,-85.5244"/>
</g>
<!-- Node5 -->
<g id="node6" class="node">
<title>Node5</title>
<polygon fill="#ffffff" stroke="#bfbfbf" points="0,-.5 0,-19.5 46,-19.5 46,-.5 0,-.5"/>
<text text-anchor="middle" x="23" y="-7.5" font-family="Helvetica,sans-Serif" font-size="10.00" fill="#000000">cstdio</text>
</g>
<!-- Node0&#45;&gt;Node5 -->
<g id="edge14" class="edge">
<title>Node0&#45;&gt;Node5</title>
<path fill="none" stroke="#191970" d="M211.9444,-224.4386C168.9552,-216.1165 114.1643,-203.048 97,-188 48.6515,-145.6127 31.1937,-66.5923 25.4919,-29.7982"/>
<polygon fill="#191970" stroke="#191970" points="28.9468,-29.2324 24.0786,-19.8223 22.016,-30.2144 28.9468,-29.2324"/>
</g>
<!-- Node7 -->
<g id="node8" class="node">
<title>Node7</title>
<polygon fill="#ffffff" stroke="#bfbfbf" points="64,-.5 64,-19.5 120,-19.5 120,-.5 64,-.5"/>
<text text-anchor="middle" x="92" y="-7.5" font-family="Helvetica,sans-Serif" font-size="10.00" fill="#000000">sstream</text>
</g>
<!-- Node0&#45;&gt;Node7 -->
<g id="edge17" class="edge">
<title>Node0&#45;&gt;Node7</title>
<path fill="none" stroke="#191970" d="M215.4094,-224.4377C176.3501,-216.248 127.5893,-203.3606 114,-188 74.5316,-143.3868 81.7644,-66.0553 87.9419,-29.8147"/>
<polygon fill="#191970" stroke="#191970" points="91.4568,-30.058 89.8499,-19.5857 84.5755,-28.7743 91.4568,-30.058"/>
</g>
<!-- Node11 -->
<g id="node12" class="node">
<title>Node11</title>
<polygon fill="#ffffff" stroke="#bfbfbf" points="296,-168.5 296,-187.5 360,-187.5 360,-168.5 296,-168.5"/>
<text text-anchor="middle" x="328" y="-175.5" font-family="Helvetica,sans-Serif" font-size="10.00" fill="#000000">algorithm</text>
</g>
<!-- Node0&#45;&gt;Node11 -->
<g id="edge12" class="edge">
<title>Node0&#45;&gt;Node11</title>
<path fill="none" stroke="#191970" d="M278.4512,-224.2455C287.2269,-216.0549 299.9554,-204.1749 310.314,-194.5069"/>
<polygon fill="#191970" stroke="#191970" points="312.7461,-197.0246 317.6686,-187.6427 307.9699,-191.9072 312.7461,-197.0246"/>
</g>
<!-- Node12 -->
<g id="node13" class="node">
<title>Node12</title>
<polygon fill="#ffffff" stroke="#bfbfbf" points="378.5,-168.5 378.5,-187.5 431.5,-187.5 431.5,-168.5 378.5,-168.5"/>
<text text-anchor="middle" x="405" y="-175.5" font-family="Helvetica,sans-Serif" font-size="10.00" fill="#000000">cstdarg</text>
</g>
<!-- Node0&#45;&gt;Node12 -->
<g id="edge13" class="edge">
<title>Node0&#45;&gt;Node12</title>
<path fill="none" stroke="#191970" d="M291.5511,-224.3733C313.8391,-215.2629 347.4937,-201.5062 372.3637,-191.3404"/>
<polygon fill="#191970" stroke="#191970" points="373.8239,-194.5247 381.7562,-187.5011 371.1753,-188.0451 373.8239,-194.5247"/>
</g>
<!-- Node13 -->
<g id="node14" class="node">
<title>Node13</title>
<polygon fill="#ffffff" stroke="#bfbfbf" points="450,-168.5 450,-187.5 500,-187.5 500,-168.5 450,-168.5"/>
<text text-anchor="middle" x="475" y="-175.5" font-family="Helvetica,sans-Serif" font-size="10.00" fill="#000000">cstring</text>
</g>
<!-- Node0&#45;&gt;Node13 -->
<g id="edge15" class="edge">
<title>Node0&#45;&gt;Node13</title>
<path fill="none" stroke="#191970" d="M304.8614,-224.4971C337.8825,-215.9179 387.8744,-202.767 440.0133,-188.23"/>
<polygon fill="#191970" stroke="#191970" points="441.0829,-191.5652 449.7701,-185.5003 439.1969,-184.8241 441.0829,-191.5652"/>
</g>
<!-- Node14 -->
<g id="node15" class="node">
<title>Node14</title>
<polygon fill="#ffffff" stroke="#bfbfbf" points="518,-168.5 518,-187.5 576,-187.5 576,-168.5 518,-168.5"/>
<text text-anchor="middle" x="547" y="-175.5" font-family="Helvetica,sans-Serif" font-size="10.00" fill="#000000">memory</text>
</g>
<!-- Node0&#45;&gt;Node14 -->
<g id="edge16" class="edge">
<title>Node0&#45;&gt;Node14</title>
<path fill="none" stroke="#191970" d="M323.7435,-224.4813C370.4382,-216.2536 439.0551,-203.5744 507.4966,-188.235"/>
<polygon fill="#191970" stroke="#191970" points="508.6088,-191.5719 517.5907,-185.9527 507.065,-184.7443 508.6088,-191.5719"/>
</g>
<!-- Node2 -->
<g id="node3" class="node">
<title>Node2</title>
<g id="a_node3"><a xlink:href="RaCore_8hpp.html" target="_top" xlink:title="Core/RaCore.hpp">
<polygon fill="#ffffff" stroke="#000000" points="138,-112.5 138,-131.5 236,-131.5 236,-112.5 138,-112.5"/>
<text text-anchor="middle" x="187" y="-119.5" font-family="Helvetica,sans-Serif" font-size="10.00" fill="#000000">Core/RaCore.hpp</text>
</a>
</g>
</g>
<!-- Node1&#45;&gt;Node2 -->
<g id="edge2" class="edge">
<title>Node1&#45;&gt;Node2</title>
<path fill="none" stroke="#191970" d="M204.3421,-168.2455C201.5416,-160.7776 197.591,-150.2427 194.1676,-141.1137"/>
<polygon fill="#191970" stroke="#191970" points="197.4045,-139.777 190.616,-131.6427 190.8501,-142.2349 197.4045,-139.777"/>
</g>
<!-- Node9 -->
<g id="node10" class="node">
<title>Node9</title>
<polygon fill="#ffffff" stroke="#bfbfbf" points="254,-112.5 254,-131.5 298,-131.5 298,-112.5 254,-112.5"/>
<text text-anchor="middle" x="276" y="-119.5" font-family="Helvetica,sans-Serif" font-size="10.00" fill="#000000">string</text>
</g>
<!-- Node1&#45;&gt;Node9 -->
<g id="edge9" class="edge">
<title>Node1&#45;&gt;Node9</title>
<path fill="none" stroke="#191970" d="M219.8447,-168.2455C229.888,-159.9746 244.4995,-147.9416 256.3004,-138.2232"/>
<polygon fill="#191970" stroke="#191970" points="258.7967,-140.7015 264.291,-131.6427 254.3467,-135.298 258.7967,-140.7015"/>
</g>
<!-- Node10 -->
<g id="node11" class="node">
<title>Node10</title>
<polygon fill="#ffffff" stroke="#bfbfbf" points="316.5,-112.5 316.5,-131.5 363.5,-131.5 363.5,-112.5 316.5,-112.5"/>
<text text-anchor="middle" x="340" y="-119.5" font-family="Helvetica,sans-Serif" font-size="10.00" fill="#000000">vector</text>
</g>
<!-- Node1&#45;&gt;Node10 -->
<g id="edge10" class="edge">
<title>Node1&#45;&gt;Node10</title>
<path fill="none" stroke="#191970" d="M230.6916,-168.3733C252.0711,-159.3032 284.3057,-145.6279 308.2362,-135.4755"/>
<polygon fill="#191970" stroke="#191970" points="309.7656,-138.6287 317.6045,-131.5011 307.0317,-132.1846 309.7656,-138.6287"/>
</g>
<!-- Node2&#45;&gt;Node3 -->
<g id="edge3" class="edge">
<title>Node2&#45;&gt;Node3</title>
<path fill="none" stroke="#191970" d="M182.9937,-112.2455C179.9265,-104.7776 175.5997,-94.2427 171.8503,-85.1137"/>
<polygon fill="#191970" stroke="#191970" points="174.9972,-83.5631 167.9604,-75.6427 168.5221,-86.2226 174.9972,-83.5631"/>
</g>
<!-- Node4 -->
<g id="node5" class="node">
<title>Node4</title>
<polygon fill="#ffffff" stroke="#bfbfbf" points="138,-.5 138,-19.5 190,-19.5 190,-.5 138,-.5"/>
<text text-anchor="middle" x="164" y="-7.5" font-family="Helvetica,sans-Serif" font-size="10.00" fill="#000000">cassert</text>
</g>
<!-- Node3&#45;&gt;Node4 -->
<g id="edge4" class="edge">
<title>Node3&#45;&gt;Node4</title>
<path fill="none" stroke="#191970" d="M164,-56.2455C164,-48.9382 164,-38.6944 164,-29.7046"/>
<polygon fill="#191970" stroke="#191970" points="167.5001,-29.6426 164,-19.6427 160.5001,-29.6427 167.5001,-29.6426"/>
</g>
<!-- Node3&#45;&gt;Node5 -->
<g id="edge5" class="edge">
<title>Node3&#45;&gt;Node5</title>
<path fill="none" stroke="#191970" d="M139.7612,-56.3733C116.5814,-47.1671 81.4558,-33.2165 55.785,-23.021"/>
<polygon fill="#191970" stroke="#191970" points="57.0397,-19.7534 46.4539,-19.315 54.4559,-26.2591 57.0397,-19.7534"/>
</g>
<!-- Node6 -->
<g id="node7" class="node">
<title>Node6</title>
<polygon fill="#ffffff" stroke="#bfbfbf" points="208,-.5 208,-19.5 268,-19.5 268,-.5 208,-.5"/>
<text text-anchor="middle" x="238" y="-7.5" font-family="Helvetica,sans-Serif" font-size="10.00" fill="#000000">iostream</text>
</g>
<!-- Node3&#45;&gt;Node6 -->
<g id="edge6" class="edge">
<title>Node3&#45;&gt;Node6</title>
<path fill="none" stroke="#191970" d="M176.8898,-56.2455C187.9254,-47.8943 204.0292,-35.7076 216.9353,-25.9408"/>
<polygon fill="#191970" stroke="#191970" points="219.3959,-28.4681 225.2579,-19.6427 215.1717,-22.8862 219.3959,-28.4681"/>
</g>
<!-- Node3&#45;&gt;Node7 -->
<g id="edge7" class="edge">
<title>Node3&#45;&gt;Node7</title>
<path fill="none" stroke="#191970" d="M151.4586,-56.2455C140.7213,-47.8943 125.0527,-35.7076 112.4953,-25.9408"/>
<polygon fill="#191970" stroke="#191970" points="114.4401,-23.0194 104.3977,-19.6427 110.1425,-28.5449 114.4401,-23.0194"/>
</g>
<!-- Node8 -->
<g id="node9" class="node">
<title>Node8</title>
<polygon fill="#ffffff" stroke="#bfbfbf" points="286,-.5 286,-19.5 334,-19.5 334,-.5 286,-.5"/>
<text text-anchor="middle" x="310" y="-7.5" font-family="Helvetica,sans-Serif" font-size="10.00" fill="#000000">thread</text>
</g>
<!-- Node3&#45;&gt;Node8 -->
<g id="edge8" class="edge">
<title>Node3&#45;&gt;Node8</title>
<path fill="none" stroke="#191970" d="M189.0983,-56.3733C213.1001,-47.1671 249.4713,-33.2165 276.0524,-23.021"/>
<polygon fill="#191970" stroke="#191970" points="277.631,-26.1642 285.7144,-19.315 275.1242,-19.6285 277.631,-26.1642"/>
</g>
</g>
</svg>
        <g id="navigator" transform="translate(0 0)" fill="#404254">
                <rect fill="#f2f5e9" fill-opacity="0.5" stroke="#606060" stroke-width=".5" x="0" y="0" width="60" height="60"/>
                <use id="zoomplus" xlink:href="#zoomPlus" x="17" y="9" onmousedown="handleZoom(evt,'in')"/>
                <use id="zoomminus" xlink:href="#zoomMin" x="42" y="9" onmousedown="handleZoom(evt,'out')"/>
                <use id="reset" xlink:href="#resetDef" x="30" y="36" onmousedown="handleReset()"/>
                <g id="arrowUp" xlink:href="#dirArrow" transform="translate(30 24)" onmousedown="handlePan(0,-1)">
                  <use xlink:href="#rim" fill="#404040">
                        <set attributeName="fill" to="#808080" begin="arrowUp.mouseover" end="arrowUp.mouseout"/>
                  </use>
                  <path fill="none" stroke="white" stroke-width="1.5" d="M0,-3.0v7 M-2.5,-0.5L0,-3.0L2.5,-0.5"/>
                </g>
                <g id="arrowRight" xlink:href="#dirArrow" transform="rotate(90) translate(36 -43)" onmousedown="handlePan(1,0)">
                  <use xlink:href="#rim" fill="#404040">
                        <set attributeName="fill" to="#808080" begin="arrowRight.mouseover" end="arrowRight.mouseout"/>
                  </use>
                  <path fill="none" stroke="white" stroke-width="1.5" d="M0,-3.0v7 M-2.5,-0.5L0,-3.0L2.5,-0.5"/>
                </g>
                <g id="arrowDown" xlink:href="#dirArrow" transform="rotate(180) translate(-30 -48)" onmousedown="handlePan(0,1)">
                  <use xlink:href="#rim" fill="#404040">
                        <set attributeName="fill" to="#808080" begin="arrowDown.mouseover" end="arrowDown.mouseout"/>
                  </use>
                  <path fill="none" stroke="white" stroke-width="1.5" d="M0,-3.0v7 M-2.5,-0.5L0,-3.0L2.5,-0.5"/>
                </g>
                <g id="arrowLeft" xlink:href="#dirArrow" transform="rotate(270) translate(-36 17)" onmousedown="handlePan(-1,0)">
                  <use xlink:href="#rim" fill="#404040">
                        <set attributeName="fill" to="#808080" begin="arrowLeft.mouseover" end="arrowLeft.mouseout"/>
                  </use>
                  <path fill="none" stroke="white" stroke-width="1.5" d="M0,-3.0v7 M-2.5,-0.5L0,-3.0L2.5,-0.5"/>
                </g>
        </g>
        <svg viewBox="0 0 15 15" width="100%" height="30px" preserveAspectRatio="xMaxYMin meet">
         <g id="arrow_out" transform="scale(0.3 0.3)">
          <a xlink:href="StringUtils_8cpp__incl_org.svg" target="_base">
           <rect id="button" ry="5" rx="5" y="6" x="6" height="38" width="38"
                fill="#f2f5e9" fill-opacity="0.5" stroke="#606060" stroke-width="1.0"/>
           <path id="arrow"
             d="M 11.500037,31.436501 C 11.940474,20.09759 22.043105,11.32322 32.158766,21.979434 L 37.068811,17.246167 C 37.068811,17.246167 37.088388,32 37.088388,32 L 22.160133,31.978069 C 22.160133,31.978069 26.997745,27.140456 26.997745,27.140456 C 18.528582,18.264221 13.291696,25.230495 11.500037,31.436501 z"
             style="fill:#404040;"/>
          </a>
         </g>
        </svg>
</svg>
