<?xml version="1.0" encoding="UTF-8" standalone="no"?>
<!DOCTYPE svg PUBLIC "-//W3C//DTD SVG 1.1//EN"
 "http://www.w3.org/Graphics/SVG/1.1/DTD/svg11.dtd">
<!-- Generated by graphviz version 2.40.1 (20161225.0304)
 -->
<!-- Title: Ra::Core::Asset::HandleAnimation Pages: 1 -->
<svg width="599pt" height="1262pt"
 viewBox="0.00 0.00 599.00 1262.00" xmlns="http://www.w3.org/2000/svg" xmlns:xlink="http://www.w3.org/1999/xlink">
<g id="graph0" class="graph" transform="scale(1 1) rotate(0) translate(4 1258)">
<title>Ra::Core::Asset::HandleAnimation</title>
<polygon fill="#ffffff" stroke="transparent" points="-4,4 -4,-1258 595,-1258 595,4 -4,4"/>
<!-- Node1 -->
<g id="node1" class="node">
<title>Node1</title>
<polygon fill="#bfbfbf" stroke="#000000" points="187,-.5 187,-57.5 369,-57.5 369,-.5 187,-.5"/>
<text text-anchor="middle" x="278" y="-45.5" font-family="Helvetica,sans-Serif" font-size="10.00" fill="#000000">Ra::Core::Asset::HandleAnimation</text>
<polyline fill="none" stroke="#000000" points="187,-38.5 369,-38.5 "/>
<text text-anchor="middle" x="278" y="-26.5" font-family="Helvetica,sans-Serif" font-size="10.00" fill="#000000"> </text>
<polyline fill="none" stroke="#000000" points="187,-19.5 369,-19.5 "/>
<text text-anchor="start" x="195" y="-7.5" font-family="Helvetica,sans-Serif" font-size="10.00" fill="#000000">+ HandleAnimation()</text>
</g>
<!-- Node2 -->
<g id="node2" class="node">
<title>Node2</title>
<g id="a_node2"><a xlink:href="classRa_1_1Core_1_1Asset_1_1AnimationTime.html" target="_top" xlink:title="{Ra::Core::Asset::AnimationTime\n||+ AnimationTime()\l+ AnimationTime()\l+ ~AnimationTime()\l+ getStart()\l+ setStart()\l+ getEnd()\l+ setEnd()\l+ extends()\l+ extends()\l+ isValid()\l+ duration()\l+ contains()\l+ intersect()\l* getStart()\l* setStart()\l* getEnd()\l* setEnd()\l* extends()\l* extends()\l* isValid()\l* duration()\l* contains()\l* intersect()\l* operator==()\l* operator!=()\l* operator==()\l* operator\&lt;()\l* operator\&gt;()\l}">
<polygon fill="#ffffff" stroke="#000000" points="0,-105.5 0,-459.5 172,-459.5 172,-105.5 0,-105.5"/>
<text text-anchor="middle" x="86" y="-447.5" font-family="Helvetica,sans-Serif" font-size="10.00" fill="#000000">Ra::Core::Asset::AnimationTime</text>
<polyline fill="none" stroke="#000000" points="0,-440.5 172,-440.5 "/>
<text text-anchor="middle" x="86" y="-428.5" font-family="Helvetica,sans-Serif" font-size="10.00" fill="#000000"> </text>
<polyline fill="none" stroke="#000000" points="0,-421.5 172,-421.5 "/>
<text text-anchor="start" x="8" y="-409.5" font-family="Helvetica,sans-Serif" font-size="10.00" fill="#000000">+ AnimationTime()</text>
<text text-anchor="start" x="8" y="-398.5" font-family="Helvetica,sans-Serif" font-size="10.00" fill="#000000">+ AnimationTime()</text>
<text text-anchor="start" x="8" y="-387.5" font-family="Helvetica,sans-Serif" font-size="10.00" fill="#000000">+ ~AnimationTime()</text>
<text text-anchor="start" x="8" y="-376.5" font-family="Helvetica,sans-Serif" font-size="10.00" fill="#000000">+ getStart()</text>
<text text-anchor="start" x="8" y="-365.5" font-family="Helvetica,sans-Serif" font-size="10.00" fill="#000000">+ setStart()</text>
<text text-anchor="start" x="8" y="-354.5" font-family="Helvetica,sans-Serif" font-size="10.00" fill="#000000">+ getEnd()</text>
<text text-anchor="start" x="8" y="-343.5" font-family="Helvetica,sans-Serif" font-size="10.00" fill="#000000">+ setEnd()</text>
<text text-anchor="start" x="8" y="-332.5" font-family="Helvetica,sans-Serif" font-size="10.00" fill="#000000">+ extends()</text>
<text text-anchor="start" x="8" y="-321.5" font-family="Helvetica,sans-Serif" font-size="10.00" fill="#000000">+ extends()</text>
<text text-anchor="start" x="8" y="-310.5" font-family="Helvetica,sans-Serif" font-size="10.00" fill="#000000">+ isValid()</text>
<text text-anchor="start" x="8" y="-299.5" font-family="Helvetica,sans-Serif" font-size="10.00" fill="#000000">+ duration()</text>
<text text-anchor="start" x="8" y="-288.5" font-family="Helvetica,sans-Serif" font-size="10.00" fill="#000000">+ contains()</text>
<text text-anchor="start" x="8" y="-277.5" font-family="Helvetica,sans-Serif" font-size="10.00" fill="#000000">+ intersect()</text>
<text text-anchor="start" x="8" y="-266.5" font-family="Helvetica,sans-Serif" font-size="10.00" fill="#000000">* getStart()</text>
<text text-anchor="start" x="8" y="-255.5" font-family="Helvetica,sans-Serif" font-size="10.00" fill="#000000">* setStart()</text>
<text text-anchor="start" x="8" y="-244.5" font-family="Helvetica,sans-Serif" font-size="10.00" fill="#000000">* getEnd()</text>
<text text-anchor="start" x="8" y="-233.5" font-family="Helvetica,sans-Serif" font-size="10.00" fill="#000000">* setEnd()</text>
<text text-anchor="start" x="8" y="-222.5" font-family="Helvetica,sans-Serif" font-size="10.00" fill="#000000">* extends()</text>
<text text-anchor="start" x="8" y="-211.5" font-family="Helvetica,sans-Serif" font-size="10.00" fill="#000000">* extends()</text>
<text text-anchor="start" x="8" y="-200.5" font-family="Helvetica,sans-Serif" font-size="10.00" fill="#000000">* isValid()</text>
<text text-anchor="start" x="8" y="-189.5" font-family="Helvetica,sans-Serif" font-size="10.00" fill="#000000">* duration()</text>
<text text-anchor="start" x="8" y="-178.5" font-family="Helvetica,sans-Serif" font-size="10.00" fill="#000000">* contains()</text>
<text text-anchor="start" x="8" y="-167.5" font-family="Helvetica,sans-Serif" font-size="10.00" fill="#000000">* intersect()</text>
<text text-anchor="start" x="8" y="-156.5" font-family="Helvetica,sans-Serif" font-size="10.00" fill="#000000">* operator==()</text>
<text text-anchor="start" x="8" y="-145.5" font-family="Helvetica,sans-Serif" font-size="10.00" fill="#000000">* operator!=()</text>
<text text-anchor="start" x="8" y="-134.5" font-family="Helvetica,sans-Serif" font-size="10.00" fill="#000000">* operator==()</text>
<text text-anchor="start" x="8" y="-123.5" font-family="Helvetica,sans-Serif" font-size="10.00" fill="#000000">* operator&lt;()</text>
<text text-anchor="start" x="8" y="-112.5" font-family="Helvetica,sans-Serif" font-size="10.00" fill="#000000">* operator&gt;()</text>
</a>
</g>
</g>
<!-- Node2&#45;&gt;Node1 -->
<g id="edge1" class="edge">
<title>Node2&#45;&gt;Node1</title>
<path fill="none" stroke="#404040" d="M149.2681,-105.3141C156.4074,-94.8007 164.2953,-84.8995 173,-76 177.1045,-71.8037 181.6505,-67.9514 186.4825,-64.4194"/>
<polygon fill="none" stroke="#404040" points="186.7505,-64.2418 189.5417,-57.5928 196.7528,-57.612 193.9616,-64.261 186.7505,-64.2418"/>
<text text-anchor="middle" x="223.5" y="-79" font-family="Helvetica,sans-Serif" font-size="10.00" fill="#000000"> +m_animationTime</text>
</g>
<!-- Node3 -->
<g id="node3" class="node">
<title>Node3</title>
<polygon fill="#ffffff" stroke="#bfbfbf" points="62.5,-667 62.5,-724 109.5,-724 109.5,-667 62.5,-667"/>
<text text-anchor="middle" x="86" y="-712" font-family="Helvetica,sans-Serif" font-size="10.00" fill="#000000">Scalar</text>
<polyline fill="none" stroke="#bfbfbf" points="62.5,-705 109.5,-705 "/>
<text text-anchor="middle" x="86" y="-693" font-family="Helvetica,sans-Serif" font-size="10.00" fill="#000000"> </text>
<polyline fill="none" stroke="#bfbfbf" points="62.5,-686 109.5,-686 "/>
<text text-anchor="middle" x="86" y="-674" font-family="Helvetica,sans-Serif" font-size="10.00" fill="#000000"> </text>
</g>
<!-- Node3&#45;&gt;Node2 -->
<g id="edge2" class="edge">
<title>Node3&#45;&gt;Node2</title>
<path fill="none" stroke="#404040" d="M86,-666.7865C86,-625.8512 86,-547.2895 86,-471.8117"/>
<polygon fill="none" stroke="#404040" points="86.0001,-471.7307 82,-465.7307 86,-459.7307 90,-465.7307 86.0001,-471.7307"/>
<text text-anchor="middle" x="109" y="-492" font-family="Helvetica,sans-Serif" font-size="10.00" fill="#000000"> #m_end</text>
<text text-anchor="middle" x="109" y="-481" font-family="Helvetica,sans-Serif" font-size="10.00" fill="#000000">#m_start</text>
</g>
<!-- Node4 -->
<g id="node4" class="node">
<title>Node4</title>
<g id="a_node4"><a xlink:href="classRa_1_1Core_1_1Animation_1_1KeyFramedValue.html" target="_top" xlink:title="{Ra::Core::Animation\l::KeyFramedValue\&lt; Transform \&gt;\n||+ KeyFramedValue()\l+ KeyFramedValue()\l+ operator=()\l+ getTimes()\l+ size()\l+ getKeyFrames()\l+ operator[]()\l+ insertKeyFrame()\l+ insertInterpolatedKeyFrame()\l+ removeKeyFrame()\l+ moveKeyFrame()\l+ at()\l+ findRange()\l+ operator==()\l+ operator!=()\l* size()\l* getKeyFrames()\l* operator[]()\l* insertKeyFrame()\l* insertInterpolatedKeyFrame()\l* removeKeyFrame()\l* moveKeyFrame()\l* at()\l* findRange()\l* operator==()\l* operator!=()\l}">
<polygon fill="#ffffff" stroke="#000000" points="190.5,-111 190.5,-454 365.5,-454 365.5,-111 190.5,-111"/>
<text text-anchor="start" x="198.5" y="-442" font-family="Helvetica,sans-Serif" font-size="10.00" fill="#000000">Ra::Core::Animation</text>
<text text-anchor="middle" x="278" y="-431" font-family="Helvetica,sans-Serif" font-size="10.00" fill="#000000">::KeyFramedValue&lt; Transform &gt;</text>
<polyline fill="none" stroke="#000000" points="190.5,-424 365.5,-424 "/>
<text text-anchor="middle" x="278" y="-412" font-family="Helvetica,sans-Serif" font-size="10.00" fill="#000000"> </text>
<polyline fill="none" stroke="#000000" points="190.5,-405 365.5,-405 "/>
<text text-anchor="start" x="198.5" y="-393" font-family="Helvetica,sans-Serif" font-size="10.00" fill="#000000">+ KeyFramedValue()</text>
<text text-anchor="start" x="198.5" y="-382" font-family="Helvetica,sans-Serif" font-size="10.00" fill="#000000">+ KeyFramedValue()</text>
<text text-anchor="start" x="198.5" y="-371" font-family="Helvetica,sans-Serif" font-size="10.00" fill="#000000">+ operator=()</text>
<text text-anchor="start" x="198.5" y="-360" font-family="Helvetica,sans-Serif" font-size="10.00" fill="#000000">+ getTimes()</text>
<text text-anchor="start" x="198.5" y="-349" font-family="Helvetica,sans-Serif" font-size="10.00" fill="#000000">+ size()</text>
<text text-anchor="start" x="198.5" y="-338" font-family="Helvetica,sans-Serif" font-size="10.00" fill="#000000">+ getKeyFrames()</text>
<text text-anchor="start" x="198.5" y="-327" font-family="Helvetica,sans-Serif" font-size="10.00" fill="#000000">+ operator[]()</text>
<text text-anchor="start" x="198.5" y="-316" font-family="Helvetica,sans-Serif" font-size="10.00" fill="#000000">+ insertKeyFrame()</text>
<text text-anchor="start" x="198.5" y="-305" font-family="Helvetica,sans-Serif" font-size="10.00" fill="#000000">+ insertInterpolatedKeyFrame()</text>
<text text-anchor="start" x="198.5" y="-294" font-family="Helvetica,sans-Serif" font-size="10.00" fill="#000000">+ removeKeyFrame()</text>
<text text-anchor="start" x="198.5" y="-283" font-family="Helvetica,sans-Serif" font-size="10.00" fill="#000000">+ moveKeyFrame()</text>
<text text-anchor="start" x="198.5" y="-272" font-family="Helvetica,sans-Serif" font-size="10.00" fill="#000000">+ at()</text>
<text text-anchor="start" x="198.5" y="-261" font-family="Helvetica,sans-Serif" font-size="10.00" fill="#000000">+ findRange()</text>
<text text-anchor="start" x="198.5" y="-250" font-family="Helvetica,sans-Serif" font-size="10.00" fill="#000000">+ operator==()</text>
<text text-anchor="start" x="198.5" y="-239" font-family="Helvetica,sans-Serif" font-size="10.00" fill="#000000">+ operator!=()</text>
<text text-anchor="start" x="198.5" y="-228" font-family="Helvetica,sans-Serif" font-size="10.00" fill="#000000">* size()</text>
<text text-anchor="start" x="198.5" y="-217" font-family="Helvetica,sans-Serif" font-size="10.00" fill="#000000">* getKeyFrames()</text>
<text text-anchor="start" x="198.5" y="-206" font-family="Helvetica,sans-Serif" font-size="10.00" fill="#000000">* operator[]()</text>
<text text-anchor="start" x="198.5" y="-195" font-family="Helvetica,sans-Serif" font-size="10.00" fill="#000000">* insertKeyFrame()</text>
<text text-anchor="start" x="198.5" y="-184" font-family="Helvetica,sans-Serif" font-size="10.00" fill="#000000">* insertInterpolatedKeyFrame()</text>
<text text-anchor="start" x="198.5" y="-173" font-family="Helvetica,sans-Serif" font-size="10.00" fill="#000000">* removeKeyFrame()</text>
<text text-anchor="start" x="198.5" y="-162" font-family="Helvetica,sans-Serif" font-size="10.00" fill="#000000">* moveKeyFrame()</text>
<text text-anchor="start" x="198.5" y="-151" font-family="Helvetica,sans-Serif" font-size="10.00" fill="#000000">* at()</text>
<text text-anchor="start" x="198.5" y="-140" font-family="Helvetica,sans-Serif" font-size="10.00" fill="#000000">* findRange()</text>
<text text-anchor="start" x="198.5" y="-129" font-family="Helvetica,sans-Serif" font-size="10.00" fill="#000000">* operator==()</text>
<text text-anchor="start" x="198.5" y="-118" font-family="Helvetica,sans-Serif" font-size="10.00" fill="#000000">* operator!=()</text>
</a>
</g>
</g>
<!-- Node4&#45;&gt;Node1 -->
<g id="edge3" class="edge">
<title>Node4&#45;&gt;Node1</title>
<path fill="none" stroke="#404040" d="M278,-110.9541C278,-95.9863 278,-81.975 278,-69.9181"/>
<polygon fill="none" stroke="#404040" points="278.0001,-69.6493 274,-63.6493 278,-57.6493 282,-63.6492 278.0001,-69.6493"/>
<text text-anchor="middle" x="304" y="-79" font-family="Helvetica,sans-Serif" font-size="10.00" fill="#000000"> +m_anim</text>
</g>
<!-- Node5 -->
<g id="node5" class="node">
<title>Node5</title>
<g id="a_node5"><a xlink:href="classRa_1_1Core_1_1Animation_1_1KeyFramedValueBase.html" target="_top" xlink:title="{Ra::Core::Animation\l::KeyFramedValueBase\n||+ KeyFramedValueBase()\l+ ~KeyFramedValueBase()\l+ size()\l+ removeKeyFrame()\l+ moveKeyFrame()\l+ getTimes()\l}">
<polygon fill="#ffffff" stroke="#000000" points="99.5,-920.5 99.5,-1043.5 248.5,-1043.5 248.5,-920.5 99.5,-920.5"/>
<text text-anchor="start" x="107.5" y="-1031.5" font-family="Helvetica,sans-Serif" font-size="10.00" fill="#000000">Ra::Core::Animation</text>
<text text-anchor="middle" x="174" y="-1020.5" font-family="Helvetica,sans-Serif" font-size="10.00" fill="#000000">::KeyFramedValueBase</text>
<polyline fill="none" stroke="#000000" points="99.5,-1013.5 248.5,-1013.5 "/>
<text text-anchor="middle" x="174" y="-1001.5" font-family="Helvetica,sans-Serif" font-size="10.00" fill="#000000"> </text>
<polyline fill="none" stroke="#000000" points="99.5,-994.5 248.5,-994.5 "/>
<text text-anchor="start" x="107.5" y="-982.5" font-family="Helvetica,sans-Serif" font-size="10.00" fill="#000000">+ KeyFramedValueBase()</text>
<text text-anchor="start" x="107.5" y="-971.5" font-family="Helvetica,sans-Serif" font-size="10.00" fill="#000000">+ ~KeyFramedValueBase()</text>
<text text-anchor="start" x="107.5" y="-960.5" font-family="Helvetica,sans-Serif" font-size="10.00" fill="#000000">+ size()</text>
<text text-anchor="start" x="107.5" y="-949.5" font-family="Helvetica,sans-Serif" font-size="10.00" fill="#000000">+ removeKeyFrame()</text>
<text text-anchor="start" x="107.5" y="-938.5" font-family="Helvetica,sans-Serif" font-size="10.00" fill="#000000">+ moveKeyFrame()</text>
<text text-anchor="start" x="107.5" y="-927.5" font-family="Helvetica,sans-Serif" font-size="10.00" fill="#000000">+ getTimes()</text>
</a>
</g>
</g>
<!-- Node5&#45;&gt;Node4 -->
<g id="edge4" class="edge">
<title>Node5&#45;&gt;Node4</title>
<path fill="none" stroke="#191970" d="M165.2073,-910.3338C155.9521,-818.3603 146.3244,-654.391 175,-518 179.453,-496.82 185.9157,-475.2125 193.4667,-454.0998"/>
<polygon fill="none" stroke="#191970" points="161.7348,-910.7814 166.2445,-920.3685 168.6977,-910.0616 161.7348,-910.7814"/>
</g>
<!-- Node10 -->
<g id="node10" class="node">
<title>Node10</title>
<g id="a_node10"><a xlink:href="classRa_1_1Core_1_1Animation_1_1KeyFramedValue.html" target="_top" xlink:title="{Ra::Core::Animation\l::KeyFramedValue\&lt; VALUE\l_TYPE \&gt;\n||+ KeyFramedValue()\l+ KeyFramedValue()\l+ operator=()\l+ getTimes()\l+ size()\l+ getKeyFrames()\l+ operator[]()\l+ insertKeyFrame()\l+ insertInterpolatedKeyFrame()\l+ removeKeyFrame()\l+ moveKeyFrame()\l+ at()\l+ findRange()\l+ operator==()\l+ operator!=()\l* size()\l* getKeyFrames()\l* operator[]()\l* insertKeyFrame()\l* insertInterpolatedKeyFrame()\l* removeKeyFrame()\l* moveKeyFrame()\l* at()\l* findRange()\l* operator==()\l* operator!=()\l}">
<polygon fill="#ffffff" stroke="#000000" points="184,-518.5 184,-872.5 354,-872.5 354,-518.5 184,-518.5"/>
<text text-anchor="start" x="192" y="-860.5" font-family="Helvetica,sans-Serif" font-size="10.00" fill="#000000">Ra::Core::Animation</text>
<text text-anchor="start" x="192" y="-849.5" font-family="Helvetica,sans-Serif" font-size="10.00" fill="#000000">::KeyFramedValue&lt; VALUE</text>
<text text-anchor="middle" x="269" y="-838.5" font-family="Helvetica,sans-Serif" font-size="10.00" fill="#000000">_TYPE &gt;</text>
<polyline fill="none" stroke="#000000" points="184,-831.5 354,-831.5 "/>
<text text-anchor="middle" x="269" y="-819.5" font-family="Helvetica,sans-Serif" font-size="10.00" fill="#000000"> </text>
<polyline fill="none" stroke="#000000" points="184,-812.5 354,-812.5 "/>
<text text-anchor="start" x="192" y="-800.5" font-family="Helvetica,sans-Serif" font-size="10.00" fill="#000000">+ KeyFramedValue()</text>
<text text-anchor="start" x="192" y="-789.5" font-family="Helvetica,sans-Serif" font-size="10.00" fill="#000000">+ KeyFramedValue()</text>
<text text-anchor="start" x="192" y="-778.5" font-family="Helvetica,sans-Serif" font-size="10.00" fill="#000000">+ operator=()</text>
<text text-anchor="start" x="192" y="-767.5" font-family="Helvetica,sans-Serif" font-size="10.00" fill="#000000">+ getTimes()</text>
<text text-anchor="start" x="192" y="-756.5" font-family="Helvetica,sans-Serif" font-size="10.00" fill="#000000">+ size()</text>
<text text-anchor="start" x="192" y="-745.5" font-family="Helvetica,sans-Serif" font-size="10.00" fill="#000000">+ getKeyFrames()</text>
<text text-anchor="start" x="192" y="-734.5" font-family="Helvetica,sans-Serif" font-size="10.00" fill="#000000">+ operator[]()</text>
<text text-anchor="start" x="192" y="-723.5" font-family="Helvetica,sans-Serif" font-size="10.00" fill="#000000">+ insertKeyFrame()</text>
<text text-anchor="start" x="192" y="-712.5" font-family="Helvetica,sans-Serif" font-size="10.00" fill="#000000">+ insertInterpolatedKeyFrame()</text>
<text text-anchor="start" x="192" y="-701.5" font-family="Helvetica,sans-Serif" font-size="10.00" fill="#000000">+ removeKeyFrame()</text>
<text text-anchor="start" x="192" y="-690.5" font-family="Helvetica,sans-Serif" font-size="10.00" fill="#000000">+ moveKeyFrame()</text>
<text text-anchor="start" x="192" y="-679.5" font-family="Helvetica,sans-Serif" font-size="10.00" fill="#000000">+ at()</text>
<text text-anchor="start" x="192" y="-668.5" font-family="Helvetica,sans-Serif" font-size="10.00" fill="#000000">+ findRange()</text>
<text text-anchor="start" x="192" y="-657.5" font-family="Helvetica,sans-Serif" font-size="10.00" fill="#000000">+ operator==()</text>
<text text-anchor="start" x="192" y="-646.5" font-family="Helvetica,sans-Serif" font-size="10.00" fill="#000000">+ operator!=()</text>
<text text-anchor="start" x="192" y="-635.5" font-family="Helvetica,sans-Serif" font-size="10.00" fill="#000000">* size()</text>
<text text-anchor="start" x="192" y="-624.5" font-family="Helvetica,sans-Serif" font-size="10.00" fill="#000000">* getKeyFrames()</text>
<text text-anchor="start" x="192" y="-613.5" font-family="Helvetica,sans-Serif" font-size="10.00" fill="#000000">* operator[]()</text>
<text text-anchor="start" x="192" y="-602.5" font-family="Helvetica,sans-Serif" font-size="10.00" fill="#000000">* insertKeyFrame()</text>
<text text-anchor="start" x="192" y="-591.5" font-family="Helvetica,sans-Serif" font-size="10.00" fill="#000000">* insertInterpolatedKeyFrame()</text>
<text text-anchor="start" x="192" y="-580.5" font-family="Helvetica,sans-Serif" font-size="10.00" fill="#000000">* removeKeyFrame()</text>
<text text-anchor="start" x="192" y="-569.5" font-family="Helvetica,sans-Serif" font-size="10.00" fill="#000000">* moveKeyFrame()</text>
<text text-anchor="start" x="192" y="-558.5" font-family="Helvetica,sans-Serif" font-size="10.00" fill="#000000">* at()</text>
<text text-anchor="start" x="192" y="-547.5" font-family="Helvetica,sans-Serif" font-size="10.00" fill="#000000">* findRange()</text>
<text text-anchor="start" x="192" y="-536.5" font-family="Helvetica,sans-Serif" font-size="10.00" fill="#000000">* operator==()</text>
<text text-anchor="start" x="192" y="-525.5" font-family="Helvetica,sans-Serif" font-size="10.00" fill="#000000">* operator!=()</text>
</a>
</g>
</g>
<!-- Node5&#45;&gt;Node10 -->
<g id="edge10" class="edge">
<title>Node5&#45;&gt;Node10</title>
<path fill="none" stroke="#191970" d="M197.7223,-910.4587C201.6482,-898.6189 205.8661,-885.8984 210.2182,-872.7735"/>
<polygon fill="none" stroke="#191970" points="194.3219,-909.5931 194.4966,-920.1865 200.9662,-911.7963 194.3219,-909.5931"/>
</g>
<!-- Node6 -->
<g id="node6" class="node">
<title>Node6</title>
<polygon fill="#ffffff" stroke="#bfbfbf" points="302.5,-953.5 302.5,-1010.5 441.5,-1010.5 441.5,-953.5 302.5,-953.5"/>
<text text-anchor="middle" x="372" y="-998.5" font-family="Helvetica,sans-Serif" font-size="10.00" fill="#000000">std::vector&lt; KeyFrame &gt;</text>
<polyline fill="none" stroke="#bfbfbf" points="302.5,-991.5 441.5,-991.5 "/>
<text text-anchor="middle" x="372" y="-979.5" font-family="Helvetica,sans-Serif" font-size="10.00" fill="#000000"> </text>
<polyline fill="none" stroke="#bfbfbf" points="302.5,-972.5 441.5,-972.5 "/>
<text text-anchor="middle" x="372" y="-960.5" font-family="Helvetica,sans-Serif" font-size="10.00" fill="#000000"> </text>
</g>
<!-- Node6&#45;&gt;Node4 -->
<g id="edge5" class="edge">
<title>Node6&#45;&gt;Node4</title>
<path fill="none" stroke="#404040" d="M376.0996,-953.2422C386.1987,-874.7743 407.6729,-651.2705 353,-478 351.7168,-473.9333 350.3937,-469.8288 349.0371,-465.6985"/>
<polygon fill="none" stroke="#404040" points="348.9316,-465.3823 343.237,-460.9583 345.1305,-454.0002 350.8251,-458.4242 348.9316,-465.3823"/>
<text text-anchor="middle" x="428.5" y="-693" font-family="Helvetica,sans-Serif" font-size="10.00" fill="#000000"> #m_keyframes</text>
</g>
<!-- Node6&#45;&gt;Node10 -->
<g id="edge11" class="edge">
<title>Node6&#45;&gt;Node10</title>
<path fill="none" stroke="#404040" d="M336.588,-953.1865C321.936,-939.2912 306.2402,-921.4274 297,-902 294.2776,-896.2761 291.7966,-890.3685 289.5368,-884.3292"/>
<polygon fill="none" stroke="#404040" points="289.3895,-883.9042 283.6447,-879.5457 285.4584,-872.5664 291.2033,-876.9249 289.3895,-883.9042"/>
<text text-anchor="middle" x="336.5" y="-894" font-family="Helvetica,sans-Serif" font-size="10.00" fill="#000000"> #m_keyframes</text>
</g>
<!-- Node7 -->
<g id="node7" class="node">
<title>Node7</title>
<polygon fill="#ffffff" stroke="#bfbfbf" points="294.5,-1091.5 294.5,-1148.5 359.5,-1148.5 359.5,-1091.5 294.5,-1091.5"/>
<text text-anchor="middle" x="327" y="-1136.5" font-family="Helvetica,sans-Serif" font-size="10.00" fill="#000000">KeyFrame</text>
<polyline fill="none" stroke="#bfbfbf" points="294.5,-1129.5 359.5,-1129.5 "/>
<text text-anchor="middle" x="327" y="-1117.5" font-family="Helvetica,sans-Serif" font-size="10.00" fill="#000000"> </text>
<polyline fill="none" stroke="#bfbfbf" points="294.5,-1110.5 359.5,-1110.5 "/>
<text text-anchor="middle" x="327" y="-1098.5" font-family="Helvetica,sans-Serif" font-size="10.00" fill="#000000"> </text>
</g>
<!-- Node7&#45;&gt;Node6 -->
<g id="edge6" class="edge">
<title>Node7&#45;&gt;Node6</title>
<path fill="none" stroke="#404040" d="M330.5315,-1091.3616C332.069,-1081.9003 334.1802,-1071.3953 337,-1062 341.0371,-1048.5485 346.7358,-1034.3562 352.3648,-1021.7207"/>
<polygon fill="none" stroke="#404040" points="352.4549,-1021.5245 351.3253,-1014.4024 357.465,-1010.6204 358.5947,-1017.7425 352.4549,-1021.5245"/>
<text text-anchor="middle" x="366" y="-1065" font-family="Helvetica,sans-Serif" font-size="10.00" fill="#000000"> +elements</text>
</g>
<!-- Node8 -->
<g id="node8" class="node">
<title>Node8</title>
<g id="a_node8"><a xlink:title="STL class. ">
<polygon fill="#ffffff" stroke="#bfbfbf" points="377.5,-1091.5 377.5,-1148.5 474.5,-1148.5 474.5,-1091.5 377.5,-1091.5"/>
<text text-anchor="middle" x="426" y="-1136.5" font-family="Helvetica,sans-Serif" font-size="10.00" fill="#000000">std::vector&lt; T &gt;</text>
<polyline fill="none" stroke="#bfbfbf" points="377.5,-1129.5 474.5,-1129.5 "/>
<text text-anchor="middle" x="426" y="-1117.5" font-family="Helvetica,sans-Serif" font-size="10.00" fill="#000000"> </text>
<polyline fill="none" stroke="#bfbfbf" points="377.5,-1110.5 474.5,-1110.5 "/>
<text text-anchor="middle" x="426" y="-1098.5" font-family="Helvetica,sans-Serif" font-size="10.00" fill="#000000"> </text>
</a>
</g>
</g>
<!-- Node8&#45;&gt;Node6 -->
<g id="edge7" class="edge">
<title>Node8&#45;&gt;Node6</title>
<path fill="none" stroke="#ffa500" d="M411.0523,-1081.8003C402.2286,-1059.2508 391.2441,-1031.1794 383.1745,-1010.5571"/>
<polygon fill="#ffa500" stroke="#ffa500" points="407.9078,-1083.3693 414.8112,-1091.4063 414.4265,-1080.8185 407.9078,-1083.3693"/>
<text text-anchor="middle" x="444" y="-1065" font-family="Helvetica,sans-Serif" font-size="10.00" fill="#000000"> &lt; KeyFrame &gt;</text>
</g>
<!-- Node9 -->
<g id="node9" class="node">
<title>Node9</title>
<polygon fill="#ffffff" stroke="#bfbfbf" points="411.5,-1196.5 411.5,-1253.5 440.5,-1253.5 440.5,-1196.5 411.5,-1196.5"/>
<text text-anchor="middle" x="426" y="-1241.5" font-family="Helvetica,sans-Serif" font-size="10.00" fill="#000000">T</text>
<polyline fill="none" stroke="#bfbfbf" points="411.5,-1234.5 440.5,-1234.5 "/>
<text text-anchor="middle" x="426" y="-1222.5" font-family="Helvetica,sans-Serif" font-size="10.00" fill="#000000"> </text>
<polyline fill="none" stroke="#bfbfbf" points="411.5,-1215.5 440.5,-1215.5 "/>
<text text-anchor="middle" x="426" y="-1203.5" font-family="Helvetica,sans-Serif" font-size="10.00" fill="#000000"> </text>
</g>
<!-- Node9&#45;&gt;Node8 -->
<g id="edge8" class="edge">
<title>Node9&#45;&gt;Node8</title>
<path fill="none" stroke="#404040" d="M426,-1196.3083C426,-1185.4281 426,-1172.817 426,-1161.0192"/>
<polygon fill="none" stroke="#404040" points="426.0001,-1160.657 422,-1154.6571 426,-1148.657 430,-1154.657 426.0001,-1160.657"/>
<text text-anchor="middle" x="455" y="-1170" font-family="Helvetica,sans-Serif" font-size="10.00" fill="#000000"> +elements</text>
</g>
<!-- Node10&#45;&gt;Node4 -->
<g id="edge9" class="edge">
<title>Node10&#45;&gt;Node4</title>
<path fill="none" stroke="#ffa500" d="M273.0853,-508.0288C273.4758,-490.1124 273.8704,-472.0034 274.2573,-454.2473"/>
<polygon fill="#ffa500" stroke="#ffa500" points="269.5813,-508.1799 272.8625,-518.2538 276.5796,-508.3325 269.5813,-508.1799"/>
<text text-anchor="middle" x="311.5" y="-486.5" font-family="Helvetica,sans-Serif" font-size="10.00" fill="#000000"> &lt; Transform &gt;</text>
</g>
<!-- Node11 -->
<g id="node11" class="node">
<title>Node11</title>
<g id="a_node11"><a xlink:title="STL class. ">
<polygon fill="#ffffff" stroke="#bfbfbf" points="460.5,-254 460.5,-311 525.5,-311 525.5,-254 460.5,-254"/>
<text text-anchor="middle" x="493" y="-299" font-family="Helvetica,sans-Serif" font-size="10.00" fill="#000000">std::string</text>
<polyline fill="none" stroke="#bfbfbf" points="460.5,-292 525.5,-292 "/>
<text text-anchor="middle" x="493" y="-280" font-family="Helvetica,sans-Serif" font-size="10.00" fill="#000000"> </text>
<polyline fill="none" stroke="#bfbfbf" points="460.5,-273 525.5,-273 "/>
<text text-anchor="middle" x="493" y="-261" font-family="Helvetica,sans-Serif" font-size="10.00" fill="#000000"> </text>
</a>
</g>
</g>
<!-- Node11&#45;&gt;Node1 -->
<g id="edge12" class="edge">
<title>Node11&#45;&gt;Node1</title>
<path fill="none" stroke="#404040" d="M477.4992,-253.8091C456.8141,-217.0027 417.6822,-152.2788 374,-105 360.8649,-90.7834 344.9287,-77.0652 329.8457,-65.2894"/>
<polygon fill="none" stroke="#404040" points="329.6335,-65.1275 322.4372,-64.6661 320.0952,-57.8458 327.2916,-58.3072 329.6335,-65.1275"/>
<text text-anchor="middle" x="382.5" y="-79" font-family="Helvetica,sans-Serif" font-size="10.00" fill="#000000"> +m_name</text>
</g>
<!-- Node12 -->
<g id="node12" class="node">
<title>Node12</title>
<g id="a_node12"><a xlink:title="STL class. ">
<polygon fill="#ffffff" stroke="#bfbfbf" points="487,-661.5 487,-729.5 591,-729.5 591,-661.5 487,-661.5"/>
<text text-anchor="start" x="495" y="-717.5" font-family="Helvetica,sans-Serif" font-size="10.00" fill="#000000">std::basic_string&lt;</text>
<text text-anchor="middle" x="539" y="-706.5" font-family="Helvetica,sans-Serif" font-size="10.00" fill="#000000"> char &gt;</text>
<polyline fill="none" stroke="#bfbfbf" points="487,-699.5 591,-699.5 "/>
<text text-anchor="middle" x="539" y="-687.5" font-family="Helvetica,sans-Serif" font-size="10.00" fill="#000000"> </text>
<polyline fill="none" stroke="#bfbfbf" points="487,-680.5 591,-680.5 "/>
<text text-anchor="middle" x="539" y="-668.5" font-family="Helvetica,sans-Serif" font-size="10.00" fill="#000000"> </text>
</a>
</g>
</g>
<!-- Node12&#45;&gt;Node11 -->
<g id="edge13" class="edge">
<title>Node12&#45;&gt;Node11</title>
<path fill="none" stroke="#191970" d="M534.0702,-651.2389C524.5947,-566.1659 504.0798,-381.9775 496.1853,-311.0986"/>
<polygon fill="none" stroke="#191970" points="530.611,-651.8 535.1965,-661.3511 537.5679,-651.0251 530.611,-651.8"/>
</g>
</g>
</svg>
