<?xml version="1.0" encoding="UTF-8" standalone="no"?>
<!DOCTYPE svg PUBLIC "-//W3C//DTD SVG 1.1//EN"
 "http://www.w3.org/Graphics/SVG/1.1/DTD/svg11.dtd">
<!-- Generated by graphviz version 2.43.0 (0)
 -->
<!-- Title: Ra::Engine::ItemEntry Pages: 1 -->
<svg width="687pt" height="1427pt"
 viewBox="0.00 0.00 687.00 1427.00" xmlns="http://www.w3.org/2000/svg" xmlns:xlink="http://www.w3.org/1999/xlink">
<g id="graph0" class="graph" transform="scale(1 1) rotate(0) translate(4 1423)">
<title>Ra::Engine::ItemEntry</title>
<polygon fill="white" stroke="transparent" points="-4,4 -4,-1423 683,-1423 683,4 -4,4"/>
<!-- Node1 -->
<g id="node1" class="node">
<title>Node1</title>
<g id="a_node1"><a xlink:title=" ">
<polygon fill="#bfbfbf" stroke="black" points="444.5,-0.5 444.5,-145.5 569.5,-145.5 569.5,-0.5 444.5,-0.5"/>
<text text-anchor="middle" x="507" y="-133.5" font-family="Helvetica,sans-Serif" font-size="10.00">Ra::Engine::ItemEntry</text>
<polyline fill="none" stroke="black" points="444.5,-126.5 569.5,-126.5 "/>
<text text-anchor="middle" x="507" y="-114.5" font-family="Helvetica,sans-Serif" font-size="10.00"> </text>
<polyline fill="none" stroke="black" points="444.5,-107.5 569.5,-107.5 "/>
<text text-anchor="start" x="452.5" y="-95.5" font-family="Helvetica,sans-Serif" font-size="10.00">+ ItemEntry()</text>
<text text-anchor="start" x="452.5" y="-84.5" font-family="Helvetica,sans-Serif" font-size="10.00">+ ItemEntry()</text>
<text text-anchor="start" x="452.5" y="-73.5" font-family="Helvetica,sans-Serif" font-size="10.00">+ operator==()</text>
<text text-anchor="start" x="452.5" y="-62.5" font-family="Helvetica,sans-Serif" font-size="10.00">+ isValid()</text>
<text text-anchor="start" x="452.5" y="-51.5" font-family="Helvetica,sans-Serif" font-size="10.00">+ isSelectable()</text>
<text text-anchor="start" x="452.5" y="-40.5" font-family="Helvetica,sans-Serif" font-size="10.00">+ isEntityNode()</text>
<text text-anchor="start" x="452.5" y="-29.5" font-family="Helvetica,sans-Serif" font-size="10.00">+ isComponentNode()</text>
<text text-anchor="start" x="452.5" y="-18.5" font-family="Helvetica,sans-Serif" font-size="10.00">+ isRoNode()</text>
<text text-anchor="start" x="452.5" y="-7.5" font-family="Helvetica,sans-Serif" font-size="10.00">+ checkConsistency()</text>
</a>
</g>
</g>
<!-- Node2 -->
<g id="node2" class="node">
<title>Node2</title>
<g id="a_node2"><a xlink:href="classRa_1_1Engine_1_1Component.html" target="_top" xlink:title="A component is an element that can be updated by a system. It is also linked to some other components...">
<polygon fill="white" stroke="black" points="239,-193.5 239,-415.5 405,-415.5 405,-193.5 239,-193.5"/>
<text text-anchor="middle" x="322" y="-403.5" font-family="Helvetica,sans-Serif" font-size="10.00">Ra::Engine::Component</text>
<polyline fill="none" stroke="black" points="239,-396.5 405,-396.5 "/>
<text text-anchor="middle" x="322" y="-384.5" font-family="Helvetica,sans-Serif" font-size="10.00"> </text>
<polyline fill="none" stroke="black" points="239,-377.5 405,-377.5 "/>
<text text-anchor="start" x="247" y="-365.5" font-family="Helvetica,sans-Serif" font-size="10.00">+ Component()</text>
<text text-anchor="start" x="247" y="-354.5" font-family="Helvetica,sans-Serif" font-size="10.00">+ ~Component()</text>
<text text-anchor="start" x="247" y="-343.5" font-family="Helvetica,sans-Serif" font-size="10.00">+ initialize()</text>
<text text-anchor="start" x="247" y="-332.5" font-family="Helvetica,sans-Serif" font-size="10.00">+ setEntity()</text>
<text text-anchor="start" x="247" y="-321.5" font-family="Helvetica,sans-Serif" font-size="10.00">+ getEntity()</text>
<text text-anchor="start" x="247" y="-310.5" font-family="Helvetica,sans-Serif" font-size="10.00">+ getName()</text>
<text text-anchor="start" x="247" y="-299.5" font-family="Helvetica,sans-Serif" font-size="10.00">+ setSystem()</text>
<text text-anchor="start" x="247" y="-288.5" font-family="Helvetica,sans-Serif" font-size="10.00">+ getSystem()</text>
<text text-anchor="start" x="247" y="-277.5" font-family="Helvetica,sans-Serif" font-size="10.00">+ addRenderObject()</text>
<text text-anchor="start" x="247" y="-266.5" font-family="Helvetica,sans-Serif" font-size="10.00">+ removeRenderObject()</text>
<text text-anchor="start" x="247" y="-255.5" font-family="Helvetica,sans-Serif" font-size="10.00">+ canEdit()</text>
<text text-anchor="start" x="247" y="-244.5" font-family="Helvetica,sans-Serif" font-size="10.00">+ getTransform()</text>
<text text-anchor="start" x="247" y="-233.5" font-family="Helvetica,sans-Serif" font-size="10.00">+ setTransform()</text>
<text text-anchor="start" x="247" y="-222.5" font-family="Helvetica,sans-Serif" font-size="10.00">+ notifyRenderObjectExpired()</text>
<text text-anchor="start" x="247" y="-211.5" font-family="Helvetica,sans-Serif" font-size="10.00">+ computeAabb()</text>
<text text-anchor="start" x="247" y="-200.5" font-family="Helvetica,sans-Serif" font-size="10.00"># getRoMgr()</text>
</a>
</g>
</g>
<!-- Node2&#45;&gt;Node1 -->
<g id="edge1" class="edge">
<title>Node2&#45;&gt;Node1</title>
<path fill="none" stroke="#404040" d="M388.44,-193.5C395.72,-183.28 403.29,-173.28 411,-164 418.55,-154.9 426.97,-145.81 435.6,-137.08"/>
<polygon fill="none" stroke="#404040" points="435.75,-136.93 437.2,-129.87 444.28,-128.49 442.83,-135.56 435.75,-136.93"/>
<text text-anchor="middle" x="452" y="-167" font-family="Helvetica,sans-Serif" font-size="10.00"> +m_component</text>
</g>
<!-- Node3 -->
<g id="node3" class="node">
<title>Node3</title>
<g id="a_node3"><a xlink:title=" ">
<polygon fill="white" stroke="#bfbfbf" points="316.5,-777.5 316.5,-845.5 437.5,-845.5 437.5,-777.5 316.5,-777.5"/>
<text text-anchor="start" x="324.5" y="-833.5" font-family="Helvetica,sans-Serif" font-size="10.00">std::vector&lt; Ra::Core</text>
<text text-anchor="middle" x="377" y="-822.5" font-family="Helvetica,sans-Serif" font-size="10.00">::Utils::Index &gt;</text>
<polyline fill="none" stroke="#bfbfbf" points="316.5,-815.5 437.5,-815.5 "/>
<text text-anchor="middle" x="377" y="-803.5" font-family="Helvetica,sans-Serif" font-size="10.00"> </text>
<polyline fill="none" stroke="#bfbfbf" points="316.5,-796.5 437.5,-796.5 "/>
<text text-anchor="middle" x="377" y="-784.5" font-family="Helvetica,sans-Serif" font-size="10.00"> </text>
</a>
</g>
</g>
<!-- Node3&#45;&gt;Node2 -->
<g id="edge2" class="edge">
<title>Node3&#45;&gt;Node2</title>
<path fill="none" stroke="#404040" d="M357.89,-777.06C347.82,-757.58 336.46,-732.16 331,-708 310.17,-615.75 308.84,-508.58 312.22,-428.03"/>
<polygon fill="none" stroke="#404040" points="312.23,-427.82 308.51,-421.65 312.78,-415.84 316.5,-422.01 312.23,-427.82"/>
<text text-anchor="middle" x="378.5" y="-583" font-family="Helvetica,sans-Serif" font-size="10.00"> +m_renderObjects</text>
</g>
<!-- Node4 -->
<g id="node4" class="node">
<title>Node4</title>
<g id="a_node4"><a xlink:href="classRa_1_1Core_1_1Utils_1_1Index.html" target="_top" xlink:title=" ">
<polygon fill="white" stroke="black" points="465.5,-937.5 465.5,-1313.5 602.5,-1313.5 602.5,-937.5 465.5,-937.5"/>
<text text-anchor="middle" x="534" y="-1301.5" font-family="Helvetica,sans-Serif" font-size="10.00">Ra::Core::Utils::Index</text>
<polyline fill="none" stroke="black" points="465.5,-1294.5 602.5,-1294.5 "/>
<text text-anchor="middle" x="534" y="-1282.5" font-family="Helvetica,sans-Serif" font-size="10.00"> </text>
<polyline fill="none" stroke="black" points="465.5,-1275.5 602.5,-1275.5 "/>
<text text-anchor="start" x="473.5" y="-1263.5" font-family="Helvetica,sans-Serif" font-size="10.00">+ Index()</text>
<text text-anchor="start" x="473.5" y="-1252.5" font-family="Helvetica,sans-Serif" font-size="10.00">+ Index()</text>
<text text-anchor="start" x="473.5" y="-1241.5" font-family="Helvetica,sans-Serif" font-size="10.00">+ operator=()</text>
<text text-anchor="start" x="473.5" y="-1230.5" font-family="Helvetica,sans-Serif" font-size="10.00">+ isValid()</text>
<text text-anchor="start" x="473.5" y="-1219.5" font-family="Helvetica,sans-Serif" font-size="10.00">+ isInvalid()</text>
<text text-anchor="start" x="473.5" y="-1208.5" font-family="Helvetica,sans-Serif" font-size="10.00">+ setInvalid()</text>
<text text-anchor="start" x="473.5" y="-1197.5" font-family="Helvetica,sans-Serif" font-size="10.00">+ getValue()</text>
<text text-anchor="start" x="473.5" y="-1186.5" font-family="Helvetica,sans-Serif" font-size="10.00">+ setValue()</text>
<text text-anchor="start" x="473.5" y="-1175.5" font-family="Helvetica,sans-Serif" font-size="10.00">+ operator IntegerType()</text>
<text text-anchor="start" x="473.5" y="-1164.5" font-family="Helvetica,sans-Serif" font-size="10.00">+ operator=()</text>
<text text-anchor="start" x="473.5" y="-1153.5" font-family="Helvetica,sans-Serif" font-size="10.00">+ operator++()</text>
<text text-anchor="start" x="473.5" y="-1142.5" font-family="Helvetica,sans-Serif" font-size="10.00">+ operator&#45;&#45;()</text>
<text text-anchor="start" x="473.5" y="-1131.5" font-family="Helvetica,sans-Serif" font-size="10.00">+ operator+()</text>
<text text-anchor="start" x="473.5" y="-1120.5" font-family="Helvetica,sans-Serif" font-size="10.00">+ operator+()</text>
<text text-anchor="start" x="473.5" y="-1109.5" font-family="Helvetica,sans-Serif" font-size="10.00">+ operator&#45;()</text>
<text text-anchor="start" x="473.5" y="-1098.5" font-family="Helvetica,sans-Serif" font-size="10.00">+ operator&#45;()</text>
<text text-anchor="start" x="473.5" y="-1087.5" font-family="Helvetica,sans-Serif" font-size="10.00">+ operator==()</text>
<text text-anchor="start" x="473.5" y="-1076.5" font-family="Helvetica,sans-Serif" font-size="10.00">+ operator==()</text>
<text text-anchor="start" x="473.5" y="-1065.5" font-family="Helvetica,sans-Serif" font-size="10.00">+ operator!=()</text>
<text text-anchor="start" x="473.5" y="-1054.5" font-family="Helvetica,sans-Serif" font-size="10.00">+ operator!=()</text>
<text text-anchor="start" x="473.5" y="-1043.5" font-family="Helvetica,sans-Serif" font-size="10.00">+ operator&lt;()</text>
<text text-anchor="start" x="473.5" y="-1032.5" font-family="Helvetica,sans-Serif" font-size="10.00">+ operator&lt;()</text>
<text text-anchor="start" x="473.5" y="-1021.5" font-family="Helvetica,sans-Serif" font-size="10.00">+ operator&lt;=()</text>
<text text-anchor="start" x="473.5" y="-1010.5" font-family="Helvetica,sans-Serif" font-size="10.00">+ operator&lt;=()</text>
<text text-anchor="start" x="473.5" y="-999.5" font-family="Helvetica,sans-Serif" font-size="10.00">+ operator&gt;()</text>
<text text-anchor="start" x="473.5" y="-988.5" font-family="Helvetica,sans-Serif" font-size="10.00">+ operator&gt;()</text>
<text text-anchor="start" x="473.5" y="-977.5" font-family="Helvetica,sans-Serif" font-size="10.00">+ operator&gt;=()</text>
<text text-anchor="start" x="473.5" y="-966.5" font-family="Helvetica,sans-Serif" font-size="10.00">+ operator&gt;=()</text>
<text text-anchor="start" x="473.5" y="-955.5" font-family="Helvetica,sans-Serif" font-size="10.00">+ Invalid()</text>
<text text-anchor="start" x="473.5" y="-944.5" font-family="Helvetica,sans-Serif" font-size="10.00">+ Max()</text>
</a>
</g>
</g>
<!-- Node4&#45;&gt;Node1 -->
<g id="edge16" class="edge">
<title>Node4&#45;&gt;Node1</title>
<path fill="none" stroke="#404040" d="M598.9,-937.18C608.37,-896.57 615,-853.49 615,-812.5 615,-812.5 615,-812.5 615,-303.5 615,-251.23 591.78,-198.1 566.88,-156.14"/>
<polygon fill="none" stroke="#404040" points="566.77,-155.96 560.23,-152.92 560.53,-145.72 567.06,-148.76 566.77,-155.96"/>
<text text-anchor="middle" x="647" y="-583" font-family="Helvetica,sans-Serif" font-size="10.00"> +m_roIndex</text>
</g>
<!-- Node4&#45;&gt;Node3 -->
<g id="edge3" class="edge">
<title>Node4&#45;&gt;Node3</title>
<path fill="none" stroke="#404040" d="M465.45,-952.82C454.7,-929.95 443.12,-907.13 431,-886 425.15,-875.81 418.16,-865.34 411.17,-855.63"/>
<polygon fill="none" stroke="#404040" points="411.06,-855.48 404.28,-853.02 403.94,-845.81 410.72,-848.27 411.06,-855.48"/>
<text text-anchor="middle" x="476" y="-900" font-family="Helvetica,sans-Serif" font-size="10.00"> +elements</text>
</g>
<!-- Node12 -->
<g id="node12" class="node">
<title>Node12</title>
<g id="a_node12"><a xlink:href="classRa_1_1Core_1_1Utils_1_1IndexedObject.html" target="_top" xlink:title=" ">
<polygon fill="white" stroke="black" points="455.5,-755.5 455.5,-867.5 586.5,-867.5 586.5,-755.5 455.5,-755.5"/>
<text text-anchor="start" x="463.5" y="-855.5" font-family="Helvetica,sans-Serif" font-size="10.00">Ra::Core::Utils::Indexed</text>
<text text-anchor="middle" x="521" y="-844.5" font-family="Helvetica,sans-Serif" font-size="10.00">Object</text>
<polyline fill="none" stroke="black" points="455.5,-837.5 586.5,-837.5 "/>
<text text-anchor="middle" x="521" y="-825.5" font-family="Helvetica,sans-Serif" font-size="10.00"> </text>
<polyline fill="none" stroke="black" points="455.5,-818.5 586.5,-818.5 "/>
<text text-anchor="start" x="463.5" y="-806.5" font-family="Helvetica,sans-Serif" font-size="10.00">+ IndexedObject()</text>
<text text-anchor="start" x="463.5" y="-795.5" font-family="Helvetica,sans-Serif" font-size="10.00">+ IndexedObject()</text>
<text text-anchor="start" x="463.5" y="-784.5" font-family="Helvetica,sans-Serif" font-size="10.00">+ ~IndexedObject()</text>
<text text-anchor="start" x="463.5" y="-773.5" font-family="Helvetica,sans-Serif" font-size="10.00">+ setIndex()</text>
<text text-anchor="start" x="463.5" y="-762.5" font-family="Helvetica,sans-Serif" font-size="10.00">+ getIndex()</text>
</a>
</g>
</g>
<!-- Node4&#45;&gt;Node12 -->
<g id="edge13" class="edge">
<title>Node4&#45;&gt;Node12</title>
<path fill="none" stroke="#404040" d="M526.19,-937.16C525.34,-916.75 524.52,-897.09 523.8,-879.65"/>
<polygon fill="none" stroke="#404040" points="523.8,-879.65 519.55,-873.82 523.3,-867.66 527.54,-873.49 523.8,-879.65"/>
<text text-anchor="middle" x="546" y="-900" font-family="Helvetica,sans-Serif" font-size="10.00"> #m_idx</text>
</g>
<!-- Node5 -->
<g id="node5" class="node">
<title>Node5</title>
<g id="a_node5"><a xlink:href="classint.html" target="_top" xlink:title=" ">
<polygon fill="white" stroke="black" points="519.5,-1361.5 519.5,-1418.5 548.5,-1418.5 548.5,-1361.5 519.5,-1361.5"/>
<text text-anchor="middle" x="534" y="-1406.5" font-family="Helvetica,sans-Serif" font-size="10.00">int</text>
<polyline fill="none" stroke="black" points="519.5,-1399.5 548.5,-1399.5 "/>
<text text-anchor="middle" x="534" y="-1387.5" font-family="Helvetica,sans-Serif" font-size="10.00"> </text>
<polyline fill="none" stroke="black" points="519.5,-1380.5 548.5,-1380.5 "/>
<text text-anchor="middle" x="534" y="-1368.5" font-family="Helvetica,sans-Serif" font-size="10.00"> </text>
</a>
</g>
</g>
<!-- Node5&#45;&gt;Node4 -->
<g id="edge4" class="edge">
<title>Node5&#45;&gt;Node4</title>
<path fill="none" stroke="#404040" d="M534,-1361.4C534,-1351.43 534,-1339.26 534,-1325.76"/>
<polygon fill="none" stroke="#404040" points="534,-1325.58 530,-1319.58 534,-1313.58 538,-1319.58 534,-1325.58"/>
<text text-anchor="middle" x="555" y="-1335" font-family="Helvetica,sans-Serif" font-size="10.00"> #m_idx</text>
</g>
<!-- Node6 -->
<g id="node6" class="node">
<title>Node6</title>
<g id="a_node6"><a xlink:title="STL class.">
<polygon fill="white" stroke="#bfbfbf" points="224.5,-1097 224.5,-1154 321.5,-1154 321.5,-1097 224.5,-1097"/>
<text text-anchor="middle" x="273" y="-1142" font-family="Helvetica,sans-Serif" font-size="10.00">std::vector&lt; T &gt;</text>
<polyline fill="none" stroke="#bfbfbf" points="224.5,-1135 321.5,-1135 "/>
<text text-anchor="middle" x="273" y="-1123" font-family="Helvetica,sans-Serif" font-size="10.00"> </text>
<polyline fill="none" stroke="#bfbfbf" points="224.5,-1116 321.5,-1116 "/>
<text text-anchor="middle" x="273" y="-1104" font-family="Helvetica,sans-Serif" font-size="10.00"> </text>
</a>
</g>
</g>
<!-- Node6&#45;&gt;Node3 -->
<g id="edge5" class="edge">
<title>Node6&#45;&gt;Node3</title>
<path fill="none" stroke="orange" d="M281.2,-1086.89C292.11,-1039.27 313.19,-955.11 340,-886 345.27,-872.41 352.22,-857.99 358.66,-845.54"/>
<polygon fill="orange" stroke="orange" points="277.76,-1086.23 278.96,-1096.76 284.58,-1087.78 277.76,-1086.23"/>
<text text-anchor="start" x="340" y="-905.5" font-family="Helvetica,sans-Serif" font-size="10.00"> &lt; Ra::Core::Utils::</text>
<text text-anchor="middle" x="385.5" y="-894.5" font-family="Helvetica,sans-Serif" font-size="10.00">Index &gt;</text>
</g>
<!-- Node9 -->
<g id="node9" class="node">
<title>Node9</title>
<g id="a_node9"><a xlink:title=" ">
<polygon fill="white" stroke="#bfbfbf" points="0,-772 0,-851 176,-851 176,-772 0,-772"/>
<text text-anchor="start" x="8" y="-839" font-family="Helvetica,sans-Serif" font-size="10.00">std::vector&lt; std::pair</text>
<text text-anchor="start" x="8" y="-828" font-family="Helvetica,sans-Serif" font-size="10.00">&lt; const Ra::Engine::Entity</text>
<text text-anchor="middle" x="88" y="-817" font-family="Helvetica,sans-Serif" font-size="10.00"> *, Ra::Engine::Component * &gt; &gt;</text>
<polyline fill="none" stroke="#bfbfbf" points="0,-810 176,-810 "/>
<text text-anchor="middle" x="88" y="-798" font-family="Helvetica,sans-Serif" font-size="10.00"> </text>
<polyline fill="none" stroke="#bfbfbf" points="0,-791 176,-791 "/>
<text text-anchor="middle" x="88" y="-779" font-family="Helvetica,sans-Serif" font-size="10.00"> </text>
</a>
</g>
</g>
<!-- Node6&#45;&gt;Node9 -->
<g id="edge10" class="edge">
<title>Node6&#45;&gt;Node9</title>
<path fill="none" stroke="orange" d="M252.15,-1087.9C225.26,-1040.9 176.86,-956.95 134,-886 127.15,-874.66 119.57,-862.43 112.58,-851.27"/>
<polygon fill="orange" stroke="orange" points="249.23,-1089.85 257.23,-1096.79 255.3,-1086.37 249.23,-1089.85"/>
<text text-anchor="start" x="154" y="-911" font-family="Helvetica,sans-Serif" font-size="10.00"> &lt; std::pair&lt; const</text>
<text text-anchor="start" x="154" y="-900" font-family="Helvetica,sans-Serif" font-size="10.00"> Ra::Engine::Entity</text>
<text text-anchor="middle" x="234" y="-889" font-family="Helvetica,sans-Serif" font-size="10.00"> *, Ra::Engine::Component * &gt; &gt;</text>
</g>
<!-- Node7 -->
<g id="node7" class="node">
<title>Node7</title>
<g id="a_node7"><a xlink:title=" ">
<polygon fill="white" stroke="#bfbfbf" points="258.5,-1361.5 258.5,-1418.5 287.5,-1418.5 287.5,-1361.5 258.5,-1361.5"/>
<text text-anchor="middle" x="273" y="-1406.5" font-family="Helvetica,sans-Serif" font-size="10.00">T</text>
<polyline fill="none" stroke="#bfbfbf" points="258.5,-1399.5 287.5,-1399.5 "/>
<text text-anchor="middle" x="273" y="-1387.5" font-family="Helvetica,sans-Serif" font-size="10.00"> </text>
<polyline fill="none" stroke="#bfbfbf" points="258.5,-1380.5 287.5,-1380.5 "/>
<text text-anchor="middle" x="273" y="-1368.5" font-family="Helvetica,sans-Serif" font-size="10.00"> </text>
</a>
</g>
</g>
<!-- Node7&#45;&gt;Node6 -->
<g id="edge6" class="edge">
<title>Node7&#45;&gt;Node6</title>
<path fill="none" stroke="#404040" d="M273,-1361.4C273,-1314.73 273,-1220.04 273,-1166.23"/>
<polygon fill="none" stroke="#404040" points="273,-1166.12 269,-1160.12 273,-1154.12 277,-1160.12 273,-1166.12"/>
<text text-anchor="middle" x="302" y="-1335" font-family="Helvetica,sans-Serif" font-size="10.00"> +elements</text>
</g>
<!-- Node8 -->
<g id="node8" class="node">
<title>Node8</title>
<g id="a_node8"><a xlink:href="classRa_1_1Engine_1_1System.html" target="_top" xlink:title=" ">
<polygon fill="white" stroke="black" points="30.5,-513 30.5,-658 189.5,-658 189.5,-513 30.5,-513"/>
<text text-anchor="middle" x="110" y="-646" font-family="Helvetica,sans-Serif" font-size="10.00">Ra::Engine::System</text>
<polyline fill="none" stroke="black" points="30.5,-639 189.5,-639 "/>
<text text-anchor="middle" x="110" y="-627" font-family="Helvetica,sans-Serif" font-size="10.00"> </text>
<polyline fill="none" stroke="black" points="30.5,-620 189.5,-620 "/>
<text text-anchor="start" x="38.5" y="-608" font-family="Helvetica,sans-Serif" font-size="10.00">+ System()</text>
<text text-anchor="start" x="38.5" y="-597" font-family="Helvetica,sans-Serif" font-size="10.00">+ ~System()</text>
<text text-anchor="start" x="38.5" y="-586" font-family="Helvetica,sans-Serif" font-size="10.00">+ handleAssetLoading()</text>
<text text-anchor="start" x="38.5" y="-575" font-family="Helvetica,sans-Serif" font-size="10.00">+ generateTasks()</text>
<text text-anchor="start" x="38.5" y="-564" font-family="Helvetica,sans-Serif" font-size="10.00">+ getEntityComponents()</text>
<text text-anchor="start" x="38.5" y="-553" font-family="Helvetica,sans-Serif" font-size="10.00">+ addComponent()</text>
<text text-anchor="start" x="38.5" y="-542" font-family="Helvetica,sans-Serif" font-size="10.00"># registerComponent()</text>
<text text-anchor="start" x="38.5" y="-531" font-family="Helvetica,sans-Serif" font-size="10.00"># unregisterComponent()</text>
<text text-anchor="start" x="38.5" y="-520" font-family="Helvetica,sans-Serif" font-size="10.00"># unregisterAllComponents()</text>
</a>
</g>
</g>
<!-- Node8&#45;&gt;Node2 -->
<g id="edge7" class="edge">
<title>Node8&#45;&gt;Node2</title>
<path fill="none" stroke="#404040" d="M138.71,-512.9C150.79,-486.85 166.2,-457.96 184,-434 197.34,-416.04 213.4,-398.51 229.76,-382.46"/>
<polygon fill="none" stroke="#404040" points="230.22,-382.02 231.78,-374.98 238.87,-373.71 237.32,-380.75 230.22,-382.02"/>
<text text-anchor="middle" x="215.5" y="-437" font-family="Helvetica,sans-Serif" font-size="10.00"> #m_system</text>
</g>
<!-- Node9&#45;&gt;Node8 -->
<g id="edge8" class="edge">
<title>Node9&#45;&gt;Node8</title>
<path fill="none" stroke="#404040" d="M91.78,-771.99C94.52,-744.13 98.32,-705.41 101.75,-670.54"/>
<polygon fill="none" stroke="#404040" points="101.77,-670.34 98.37,-663.97 102.94,-658.39 106.33,-664.76 101.77,-670.34"/>
<text text-anchor="middle" x="139.5" y="-729" font-family="Helvetica,sans-Serif" font-size="10.00"> #m_components</text>
</g>
<!-- Node10 -->
<g id="node10" class="node">
<title>Node10</title>
<g id="a_node10"><a xlink:title=" ">
<polygon fill="white" stroke="#bfbfbf" points="11,-1086 11,-1165 139,-1165 139,-1086 11,-1086"/>
<text text-anchor="start" x="19" y="-1153" font-family="Helvetica,sans-Serif" font-size="10.00">pair&lt; const Ra::Engine</text>
<text text-anchor="start" x="19" y="-1142" font-family="Helvetica,sans-Serif" font-size="10.00">::Entity *, Ra::Engine</text>
<text text-anchor="middle" x="75" y="-1131" font-family="Helvetica,sans-Serif" font-size="10.00">::Component * &gt;</text>
<polyline fill="none" stroke="#bfbfbf" points="11,-1124 139,-1124 "/>
<text text-anchor="middle" x="75" y="-1112" font-family="Helvetica,sans-Serif" font-size="10.00"> </text>
<polyline fill="none" stroke="#bfbfbf" points="11,-1105 139,-1105 "/>
<text text-anchor="middle" x="75" y="-1093" font-family="Helvetica,sans-Serif" font-size="10.00"> </text>
</a>
</g>
</g>
<!-- Node10&#45;&gt;Node9 -->
<g id="edge9" class="edge">
<title>Node10&#45;&gt;Node9</title>
<path fill="none" stroke="#404040" d="M73.29,-1085.59C71.64,-1038.3 70.16,-956.15 76,-886 76.61,-878.65 77.55,-870.92 78.63,-863.35"/>
<polygon fill="none" stroke="#404040" points="78.67,-863.13 75.63,-856.59 80.5,-851.27 83.54,-857.81 78.67,-863.13"/>
<text text-anchor="middle" x="105" y="-900" font-family="Helvetica,sans-Serif" font-size="10.00"> +elements</text>
</g>
<!-- Node11 -->
<g id="node11" class="node">
<title>Node11</title>
<g id="a_node11"><a xlink:href="classRa_1_1Engine_1_1Entity.html" target="_top" xlink:title="An entity is an scene element. It ties together components with a transform.">
<polygon fill="white" stroke="black" points="435,-463.5 435,-707.5 579,-707.5 579,-463.5 435,-463.5"/>
<text text-anchor="middle" x="507" y="-695.5" font-family="Helvetica,sans-Serif" font-size="10.00">Ra::Engine::Entity</text>
<polyline fill="none" stroke="black" points="435,-688.5 579,-688.5 "/>
<text text-anchor="middle" x="507" y="-676.5" font-family="Helvetica,sans-Serif" font-size="10.00"> </text>
<polyline fill="none" stroke="black" points="435,-669.5 579,-669.5 "/>
<text text-anchor="start" x="443" y="-657.5" font-family="Helvetica,sans-Serif" font-size="10.00">+ Entity()</text>
<text text-anchor="start" x="443" y="-646.5" font-family="Helvetica,sans-Serif" font-size="10.00">+ Entity()</text>
<text text-anchor="start" x="443" y="-635.5" font-family="Helvetica,sans-Serif" font-size="10.00">+ operator=()</text>
<text text-anchor="start" x="443" y="-624.5" font-family="Helvetica,sans-Serif" font-size="10.00">+ ~Entity()</text>
<text text-anchor="start" x="443" y="-613.5" font-family="Helvetica,sans-Serif" font-size="10.00">+ getName()</text>
<text text-anchor="start" x="443" y="-602.5" font-family="Helvetica,sans-Serif" font-size="10.00">+ rename()</text>
<text text-anchor="start" x="443" y="-591.5" font-family="Helvetica,sans-Serif" font-size="10.00">+ setTransform()</text>
<text text-anchor="start" x="443" y="-580.5" font-family="Helvetica,sans-Serif" font-size="10.00">+ setTransform()</text>
<text text-anchor="start" x="443" y="-569.5" font-family="Helvetica,sans-Serif" font-size="10.00">+ getTransform()</text>
<text text-anchor="start" x="443" y="-558.5" font-family="Helvetica,sans-Serif" font-size="10.00">+ getTransformAsMatrix()</text>
<text text-anchor="start" x="443" y="-547.5" font-family="Helvetica,sans-Serif" font-size="10.00">+ swapTransformBuffers()</text>
<text text-anchor="start" x="443" y="-536.5" font-family="Helvetica,sans-Serif" font-size="10.00">+ addComponent()</text>
<text text-anchor="start" x="443" y="-525.5" font-family="Helvetica,sans-Serif" font-size="10.00">+ removeComponent()</text>
<text text-anchor="start" x="443" y="-514.5" font-family="Helvetica,sans-Serif" font-size="10.00">+ getComponent()</text>
<text text-anchor="start" x="443" y="-503.5" font-family="Helvetica,sans-Serif" font-size="10.00">+ getComponent()</text>
<text text-anchor="start" x="443" y="-492.5" font-family="Helvetica,sans-Serif" font-size="10.00">+ getComponents()</text>
<text text-anchor="start" x="443" y="-481.5" font-family="Helvetica,sans-Serif" font-size="10.00">+ getNumComponents()</text>
<text text-anchor="start" x="443" y="-470.5" font-family="Helvetica,sans-Serif" font-size="10.00">+ computeAabb()</text>
</a>
</g>
</g>
<!-- Node11&#45;&gt;Node1 -->
<g id="edge17" class="edge">
<title>Node11&#45;&gt;Node1</title>
<path fill="none" stroke="#404040" d="M507,-463.2C507,-369 507,-240.84 507,-157.77"/>
<polygon fill="none" stroke="#404040" points="507,-157.59 503,-151.59 507,-145.59 511,-151.59 507,-157.59"/>
<text text-anchor="middle" x="534.5" y="-302" font-family="Helvetica,sans-Serif" font-size="10.00"> +m_entity</text>
</g>
<!-- Node11&#45;&gt;Node2 -->
<g id="edge11" class="edge">
<title>Node11&#45;&gt;Node2</title>
<path fill="none" stroke="#404040" d="M434.94,-475.83C424.11,-459.49 412.87,-442.55 401.88,-425.97"/>
<polygon fill="none" stroke="#404040" points="401.71,-425.71 395.06,-422.92 395.08,-415.71 401.73,-418.5 401.71,-425.71"/>
<text text-anchor="middle" x="441.5" y="-437" font-family="Helvetica,sans-Serif" font-size="10.00"> #m_entity</text>
</g>
<!-- Node12&#45;&gt;Node11 -->
<g id="edge12" class="edge">
<title>Node12&#45;&gt;Node11</title>
<path fill="none" stroke="midnightblue" d="M516.92,-745.21C516.18,-733.33 515.38,-720.6 514.57,-707.7"/>
<polygon fill="none" stroke="midnightblue" points="513.44,-745.65 517.56,-755.42 520.43,-745.22 513.44,-745.65"/>
</g>
<!-- Node13 -->
<g id="node13" class="node">
<title>Node13</title>
<g id="a_node13"><a xlink:title="STL class.">
<polygon fill="white" stroke="#bfbfbf" points="215.5,-557 215.5,-614 280.5,-614 280.5,-557 215.5,-557"/>
<text text-anchor="middle" x="248" y="-602" font-family="Helvetica,sans-Serif" font-size="10.00">std::string</text>
<polyline fill="none" stroke="#bfbfbf" points="215.5,-595 280.5,-595 "/>
<text text-anchor="middle" x="248" y="-583" font-family="Helvetica,sans-Serif" font-size="10.00"> </text>
<polyline fill="none" stroke="#bfbfbf" points="215.5,-576 280.5,-576 "/>
<text text-anchor="middle" x="248" y="-564" font-family="Helvetica,sans-Serif" font-size="10.00"> </text>
</a>
</g>
</g>
<!-- Node13&#45;&gt;Node2 -->
<g id="edge14" class="edge">
<title>Node13&#45;&gt;Node2</title>
<path fill="none" stroke="#404040" d="M245.2,-556.76C242.95,-526.13 241.79,-475.65 253,-434 253.62,-431.71 254.28,-429.41 254.99,-427.11"/>
<polygon fill="none" stroke="#404040" points="255.03,-427 253.16,-420.04 258.87,-415.63 260.74,-422.6 255.03,-427"/>
<text text-anchor="middle" x="280.5" y="-437" font-family="Helvetica,sans-Serif" font-size="10.00"> #m_name</text>
</g>
<!-- Node14 -->
<g id="node14" class="node">
<title>Node14</title>
<g id="a_node14"><a xlink:title="STL class.">
<polygon fill="white" stroke="#bfbfbf" points="194,-777.5 194,-845.5 298,-845.5 298,-777.5 194,-777.5"/>
<text text-anchor="start" x="202" y="-833.5" font-family="Helvetica,sans-Serif" font-size="10.00">std::basic_string&lt;</text>
<text text-anchor="middle" x="246" y="-822.5" font-family="Helvetica,sans-Serif" font-size="10.00"> char &gt;</text>
<polyline fill="none" stroke="#bfbfbf" points="194,-815.5 298,-815.5 "/>
<text text-anchor="middle" x="246" y="-803.5" font-family="Helvetica,sans-Serif" font-size="10.00"> </text>
<polyline fill="none" stroke="#bfbfbf" points="194,-796.5 298,-796.5 "/>
<text text-anchor="middle" x="246" y="-784.5" font-family="Helvetica,sans-Serif" font-size="10.00"> </text>
</a>
</g>
</g>
<!-- Node14&#45;&gt;Node13 -->
<g id="edge15" class="edge">
<title>Node14&#45;&gt;Node13</title>
<path fill="none" stroke="midnightblue" d="M246.39,-767.35C246.79,-722.09 247.41,-652.34 247.75,-614.04"/>
<polygon fill="none" stroke="midnightblue" points="242.88,-767.42 246.3,-777.45 249.88,-767.48 242.88,-767.42"/>
</g>
</g>
</svg>
