<?xml version="1.0" encoding="UTF-8" standalone="no"?>
<!DOCTYPE svg PUBLIC "-//W3C//DTD SVG 1.1//EN"
 "http://www.w3.org/Graphics/SVG/1.1/DTD/svg11.dtd">
<!-- Generated by graphviz version 2.40.1 (20161225.0304)
 -->
<!-- Title: Ra::Core::Skinning::FrameData Pages: 1 -->
<!--zoomable 687 -->
<svg id="main" version="1.1" xmlns="http://www.w3.org/2000/svg" xmlns:xlink="http://www.w3.org/1999/xlink" xml:space="preserve" onload="init(evt)">
<style type="text/css"><![CDATA[
.edge:hover path { stroke: red; }
.edge:hover polygon { stroke: red; fill: red; }
]]></style>
<script type="text/javascript"><![CDATA[
var edges = document.getElementsByTagName('g');
if (edges && edges.length) {
  for (var i=0;i<edges.length;i++) {
    if (edges[i].id.substr(0,4)=='edge') {
      edges[i].setAttribute('class','edge');
    }
  }
}
]]></script>
        <defs>
                <circle id="rim" cx="0" cy="0" r="7"/>
                <circle id="rim2" cx="0" cy="0" r="3.5"/>
                <g id="zoomPlus">
                        <use xlink:href="#rim" fill="#404040">
                                <set attributeName="fill" to="#808080" begin="zoomplus.mouseover" end="zoomplus.mouseout"/>
                        </use>
                        <path d="M-4,0h8M0,-4v8" fill="none" stroke="white" stroke-width="1.5" pointer-events="none"/>
                </g>
                <g id="zoomMin">
                        <use xlink:href="#rim" fill="#404040">
                                <set attributeName="fill" to="#808080" begin="zoomminus.mouseover" end="zoomminus.mouseout"/>
                        </use>
                        <path d="M-4,0h8" fill="none" stroke="white" stroke-width="1.5" pointer-events="none"/>
                </g>
                <g id="dirArrow">
                        <path fill="none" stroke="white" stroke-width="1.5" d="M0,-3.0v7 M-2.5,-0.5L0,-3.0L2.5,-0.5"/>
                </g>
               <g id="resetDef">
                       <use xlink:href="#rim2" fill="#404040">
                               <set attributeName="fill" to="#808080" begin="reset.mouseover" end="reset.mouseout"/>
                       </use>
               </g>
        </defs>

<script type="text/javascript">
var viewWidth = 552;
var viewHeight = 687;
var sectionId = 'dynsection-0';
</script>
<script xlink:href="svgpan.js"/>
<svg id="graph" class="graph">
<g id="viewport">
<title>Ra::Core::Skinning::FrameData</title>
<polygon fill="#ffffff" stroke="transparent" points="-4,4 -4,-683 548,-683 548,4 -4,4"/>
<!-- Node1 -->
<g id="node1" class="node">
<title>Node1</title>
<polygon fill="#bfbfbf" stroke="#000000" points="244,-.5 244,-68.5 350,-68.5 350,-.5 244,-.5"/>
<text text-anchor="start" x="252" y="-56.5" font-family="Helvetica,sans-Serif" font-size="10.00" fill="#000000">Ra::Core::Skinning</text>
<text text-anchor="middle" x="297" y="-45.5" font-family="Helvetica,sans-Serif" font-size="10.00" fill="#000000">::FrameData</text>
<polyline fill="none" stroke="#000000" points="244,-38.5 350,-38.5 "/>
<text text-anchor="middle" x="297" y="-26.5" font-family="Helvetica,sans-Serif" font-size="10.00" fill="#000000"> </text>
<polyline fill="none" stroke="#000000" points="244,-19.5 350,-19.5 "/>
<text text-anchor="middle" x="297" y="-7.5" font-family="Helvetica,sans-Serif" font-size="10.00" fill="#000000"> </text>
</g>
<!-- Node2 -->
<g id="node2" class="node">
<title>Node2</title>
<g id="a_node2"><a xlink:href="structRa_1_1Core_1_1AlignedStdVector.html" target="_top" xlink:title="{Ra::Core::AlignedStdVector\l\&lt; Eigen::Transform\&lt; Scalar,\l 3, Eigen::Affine \&gt; \&gt;\n||}">
<polygon fill="#ffffff" stroke="#000000" points="9,-149.5 9,-228.5 163,-228.5 163,-149.5 9,-149.5"/>
<text text-anchor="start" x="17" y="-216.5" font-family="Helvetica,sans-Serif" font-size="10.00" fill="#000000">Ra::Core::AlignedStdVector</text>
<text text-anchor="start" x="17" y="-205.5" font-family="Helvetica,sans-Serif" font-size="10.00" fill="#000000">&lt; Eigen::Transform&lt; Scalar,</text>
<text text-anchor="middle" x="86" y="-194.5" font-family="Helvetica,sans-Serif" font-size="10.00" fill="#000000"> 3, Eigen::Affine &gt; &gt;</text>
<polyline fill="none" stroke="#000000" points="9,-187.5 163,-187.5 "/>
<text text-anchor="middle" x="86" y="-175.5" font-family="Helvetica,sans-Serif" font-size="10.00" fill="#000000"> </text>
<polyline fill="none" stroke="#000000" points="9,-168.5 163,-168.5 "/>
<text text-anchor="middle" x="86" y="-156.5" font-family="Helvetica,sans-Serif" font-size="10.00" fill="#000000"> </text>
</a>
</g>
</g>
<!-- Node2&#45;&gt;Node1 -->
<g id="edge1" class="edge">
<title>Node2&#45;&gt;Node1</title>
<path fill="none" stroke="#404040" d="M80.2829,-149.4622C79.5119,-128.5871 82.4749,-103.873 97,-87 114.5627,-66.5984 180.1904,-52.0824 231.538,-43.558"/>
<polygon fill="none" stroke="#404040" points="231.7318,-43.5269 237.0214,-38.6258 243.5799,-41.6234 238.2904,-46.5245 231.7318,-43.5269"/>
<text text-anchor="middle" x="162" y="-123" font-family="Helvetica,sans-Serif" font-size="10.00" fill="#000000"> +m_previousPose</text>
<text text-anchor="middle" x="162" y="-112" font-family="Helvetica,sans-Serif" font-size="10.00" fill="#000000">+m_prevToCurrentRelPose</text>
<text text-anchor="middle" x="162" y="-101" font-family="Helvetica,sans-Serif" font-size="10.00" fill="#000000">+m_refToCurrentRelPose</text>
<text text-anchor="middle" x="162" y="-90" font-family="Helvetica,sans-Serif" font-size="10.00" fill="#000000">+m_currentPose</text>
</g>
<!-- Node3 -->
<g id="node3" class="node">
<title>Node3</title>
<g id="a_node3"><a xlink:title="STL class. ">
<polygon fill="#ffffff" stroke="#bfbfbf" points="0,-374.5 0,-486.5 154,-486.5 154,-374.5 0,-374.5"/>
<text text-anchor="start" x="8" y="-474.5" font-family="Helvetica,sans-Serif" font-size="10.00" fill="#000000">std::vector&lt; Eigen</text>
<text text-anchor="start" x="8" y="-463.5" font-family="Helvetica,sans-Serif" font-size="10.00" fill="#000000">::Transform&lt; Scalar,</text>
<text text-anchor="start" x="8" y="-452.5" font-family="Helvetica,sans-Serif" font-size="10.00" fill="#000000"> 3, Eigen::Affine &gt;,</text>
<text text-anchor="start" x="8" y="-441.5" font-family="Helvetica,sans-Serif" font-size="10.00" fill="#000000"> Eigen::aligned_allocator</text>
<text text-anchor="start" x="8" y="-430.5" font-family="Helvetica,sans-Serif" font-size="10.00" fill="#000000">&lt; Eigen::Transform&lt; Scalar,</text>
<text text-anchor="middle" x="77" y="-419.5" font-family="Helvetica,sans-Serif" font-size="10.00" fill="#000000"> 3, Eigen::Affine &gt; &gt; &gt;</text>
<polyline fill="none" stroke="#bfbfbf" points="0,-412.5 154,-412.5 "/>
<text text-anchor="middle" x="77" y="-400.5" font-family="Helvetica,sans-Serif" font-size="10.00" fill="#000000"> </text>
<polyline fill="none" stroke="#bfbfbf" points="0,-393.5 154,-393.5 "/>
<text text-anchor="middle" x="77" y="-381.5" font-family="Helvetica,sans-Serif" font-size="10.00" fill="#000000"> </text>
</a>
</g>
</g>
<!-- Node3&#45;&gt;Node2 -->
<g id="edge2" class="edge">
<title>Node3&#45;&gt;Node2</title>
<path fill="none" stroke="#191970" d="M79.4683,-364.2669C81.0903,-320.7438 83.158,-265.2606 84.5277,-228.5072"/>
<polygon fill="none" stroke="#191970" points="75.9623,-364.3646 79.0874,-374.488 82.9575,-364.6254 75.9623,-364.3646"/>
</g>
<!-- Node4 -->
<g id="node4" class="node">
<title>Node4</title>
<polygon fill="#ffffff" stroke="#bfbfbf" points="106.5,-621.5 106.5,-678.5 135.5,-678.5 135.5,-621.5 106.5,-621.5"/>
<text text-anchor="middle" x="121" y="-666.5" font-family="Helvetica,sans-Serif" font-size="10.00" fill="#000000">T</text>
<polyline fill="none" stroke="#bfbfbf" points="106.5,-659.5 135.5,-659.5 "/>
<text text-anchor="middle" x="121" y="-647.5" font-family="Helvetica,sans-Serif" font-size="10.00" fill="#000000"> </text>
<polyline fill="none" stroke="#bfbfbf" points="106.5,-640.5 135.5,-640.5 "/>
<text text-anchor="middle" x="121" y="-628.5" font-family="Helvetica,sans-Serif" font-size="10.00" fill="#000000"> </text>
</g>
<!-- Node4&#45;&gt;Node3 -->
<g id="edge3" class="edge">
<title>Node4&#45;&gt;Node3</title>
<path fill="none" stroke="#404040" d="M106.1933,-634.3628C99.0365,-625.7915 91.1215,-614.5746 87,-603 75.2663,-570.0478 72.1469,-531.3263 72.2289,-498.9276"/>
<polygon fill="none" stroke="#404040" points="72.23,-498.8439 68.3183,-492.786 72.4057,-486.8452 76.3174,-492.9031 72.23,-498.8439"/>
<text text-anchor="middle" x="116" y="-595" font-family="Helvetica,sans-Serif" font-size="10.00" fill="#000000"> +elements</text>
</g>
<!-- Node6 -->
<g id="node6" class="node">
<title>Node6</title>
<g id="a_node6"><a xlink:title="STL class. ">
<polygon fill="#ffffff" stroke="#bfbfbf" points="111,-505.5 111,-573.5 257,-573.5 257,-505.5 111,-505.5"/>
<text text-anchor="start" x="119" y="-561.5" font-family="Helvetica,sans-Serif" font-size="10.00" fill="#000000">std::vector&lt; T, Eigen</text>
<text text-anchor="middle" x="184" y="-550.5" font-family="Helvetica,sans-Serif" font-size="10.00" fill="#000000">::aligned_allocator&lt; T &gt; &gt;</text>
<polyline fill="none" stroke="#bfbfbf" points="111,-543.5 257,-543.5 "/>
<text text-anchor="middle" x="184" y="-531.5" font-family="Helvetica,sans-Serif" font-size="10.00" fill="#000000"> </text>
<polyline fill="none" stroke="#bfbfbf" points="111,-524.5 257,-524.5 "/>
<text text-anchor="middle" x="184" y="-512.5" font-family="Helvetica,sans-Serif" font-size="10.00" fill="#000000"> </text>
</a>
</g>
</g>
<!-- Node4&#45;&gt;Node6 -->
<g id="edge6" class="edge">
<title>Node4&#45;&gt;Node6</title>
<path fill="none" stroke="#404040" d="M135.6118,-624.3713C142.3807,-612.4989 150.6268,-598.0355 158.3801,-584.4365"/>
<polygon fill="none" stroke="#404040" points="158.5113,-584.2064 158.0081,-577.0128 164.4548,-573.7816 164.9579,-580.9752 158.5113,-584.2064"/>
<text text-anchor="middle" x="182" y="-595" font-family="Helvetica,sans-Serif" font-size="10.00" fill="#000000"> +elements</text>
</g>
<!-- Node5 -->
<g id="node5" class="node">
<title>Node5</title>
<g id="a_node5"><a xlink:href="structRa_1_1Core_1_1AlignedStdVector.html" target="_top" xlink:title="{Ra::Core::AlignedStdVector\&lt; T \&gt;\n||}">
<polygon fill="#ffffff" stroke="#000000" points="98,-298.5 98,-355.5 274,-355.5 274,-298.5 98,-298.5"/>
<text text-anchor="middle" x="186" y="-343.5" font-family="Helvetica,sans-Serif" font-size="10.00" fill="#000000">Ra::Core::AlignedStdVector&lt; T &gt;</text>
<polyline fill="none" stroke="#000000" points="98,-336.5 274,-336.5 "/>
<text text-anchor="middle" x="186" y="-324.5" font-family="Helvetica,sans-Serif" font-size="10.00" fill="#000000"> </text>
<polyline fill="none" stroke="#000000" points="98,-317.5 274,-317.5 "/>
<text text-anchor="middle" x="186" y="-305.5" font-family="Helvetica,sans-Serif" font-size="10.00" fill="#000000"> </text>
</a>
</g>
</g>
<!-- Node5&#45;&gt;Node2 -->
<g id="edge4" class="edge">
<title>Node5&#45;&gt;Node2</title>
<path fill="none" stroke="#ffa500" d="M159.3773,-290.2607C145.5856,-271.2282 128.7317,-247.9697 114.656,-228.5453"/>
<polygon fill="#ffa500" stroke="#ffa500" points="156.578,-292.3625 165.2799,-298.4063 162.2463,-288.2551 156.578,-292.3625"/>
<text text-anchor="start" x="151" y="-272" font-family="Helvetica,sans-Serif" font-size="10.00" fill="#000000"> &lt; Eigen::Transform</text>
<text text-anchor="start" x="151" y="-261" font-family="Helvetica,sans-Serif" font-size="10.00" fill="#000000">&lt; Scalar, 3, Eigen::</text>
<text text-anchor="middle" x="199.5" y="-250" font-family="Helvetica,sans-Serif" font-size="10.00" fill="#000000">Affine &gt; &gt;</text>
</g>
<!-- Node6&#45;&gt;Node5 -->
<g id="edge5" class="edge">
<title>Node6&#45;&gt;Node5</title>
<path fill="none" stroke="#191970" d="M184.4175,-495.1423C184.8125,-453.1743 185.3936,-391.4268 185.7308,-355.607"/>
<polygon fill="none" stroke="#191970" points="180.9157,-495.3257 184.3213,-505.3582 187.9154,-495.3916 180.9157,-495.3257"/>
</g>
<!-- Node7 -->
<g id="node7" class="node">
<title>Node7</title>
<g id="a_node7"><a xlink:href="classint.html" target="_top" xlink:title="{int\n||}">
<polygon fill="#ffffff" stroke="#000000" points="224.5,-160.5 224.5,-217.5 253.5,-217.5 253.5,-160.5 224.5,-160.5"/>
<text text-anchor="middle" x="239" y="-205.5" font-family="Helvetica,sans-Serif" font-size="10.00" fill="#000000">int</text>
<polyline fill="none" stroke="#000000" points="224.5,-198.5 253.5,-198.5 "/>
<text text-anchor="middle" x="239" y="-186.5" font-family="Helvetica,sans-Serif" font-size="10.00" fill="#000000"> </text>
<polyline fill="none" stroke="#000000" points="224.5,-179.5 253.5,-179.5 "/>
<text text-anchor="middle" x="239" y="-167.5" font-family="Helvetica,sans-Serif" font-size="10.00" fill="#000000"> </text>
</a>
</g>
</g>
<!-- Node7&#45;&gt;Node1 -->
<g id="edge7" class="edge">
<title>Node7&#45;&gt;Node1</title>
<path fill="none" stroke="#404040" d="M233.4019,-160.451C230.6099,-139.2571 229.7169,-110.1424 240,-87 241.3367,-83.9917 242.9387,-81.0788 244.7429,-78.2706"/>
<polygon fill="none" stroke="#404040" points="244.8264,-78.1598 245.2432,-70.9607 252.0489,-68.5767 251.632,-75.7757 244.8264,-78.1598"/>
<text text-anchor="middle" x="287" y="-106.5" font-family="Helvetica,sans-Serif" font-size="10.00" fill="#000000"> +m_frameCounter</text>
</g>
<!-- Node8 -->
<g id="node8" class="node">
<title>Node8</title>
<g id="a_node8"><a xlink:href="classbool.html" target="_top" xlink:title="{bool\n||}">
<polygon fill="#ffffff" stroke="#000000" points="337,-160.5 337,-217.5 375,-217.5 375,-160.5 337,-160.5"/>
<text text-anchor="middle" x="356" y="-205.5" font-family="Helvetica,sans-Serif" font-size="10.00" fill="#000000">bool</text>
<polyline fill="none" stroke="#000000" points="337,-198.5 375,-198.5 "/>
<text text-anchor="middle" x="356" y="-186.5" font-family="Helvetica,sans-Serif" font-size="10.00" fill="#000000"> </text>
<polyline fill="none" stroke="#000000" points="337,-179.5 375,-179.5 "/>
<text text-anchor="middle" x="356" y="-167.5" font-family="Helvetica,sans-Serif" font-size="10.00" fill="#000000"> </text>
</a>
</g>
</g>
<!-- Node8&#45;&gt;Node1 -->
<g id="edge8" class="edge">
<title>Node8&#45;&gt;Node1</title>
<path fill="none" stroke="#404040" d="M352.9421,-160.3496C349.9679,-139.3658 344.3287,-110.5594 334,-87 332.8478,-84.3719 331.5534,-81.7417 330.157,-79.1363"/>
<polygon fill="none" stroke="#404040" points="330.0545,-78.9629 323.5569,-75.8352 323.9449,-68.6346 330.4425,-71.7622 330.0545,-78.9629"/>
<text text-anchor="middle" x="386" y="-112" font-family="Helvetica,sans-Serif" font-size="10.00" fill="#000000"> +m_doReset</text>
<text text-anchor="middle" x="386" y="-101" font-family="Helvetica,sans-Serif" font-size="10.00" fill="#000000">+m_doSkinning</text>
</g>
<!-- Node9 -->
<g id="node9" class="node">
<title>Node9</title>
<polygon fill="#ffffff" stroke="#bfbfbf" points="417,-160.5 417,-217.5 497,-217.5 497,-160.5 417,-160.5"/>
<text text-anchor="middle" x="457" y="-205.5" font-family="Helvetica,sans-Serif" font-size="10.00" fill="#000000">Vector3Array</text>
<polyline fill="none" stroke="#bfbfbf" points="417,-198.5 497,-198.5 "/>
<text text-anchor="middle" x="457" y="-186.5" font-family="Helvetica,sans-Serif" font-size="10.00" fill="#000000"> </text>
<polyline fill="none" stroke="#bfbfbf" points="417,-179.5 497,-179.5 "/>
<text text-anchor="middle" x="457" y="-167.5" font-family="Helvetica,sans-Serif" font-size="10.00" fill="#000000"> </text>
</g>
<!-- Node9&#45;&gt;Node1 -->
<g id="edge9" class="edge">
<title>Node9&#45;&gt;Node1</title>
<path fill="none" stroke="#404040" d="M455.8857,-160.2114C453.5633,-137.7605 447.0033,-107.114 429,-87 411.543,-67.4963 385.8728,-55.1408 361.8,-47.3586"/>
<polygon fill="none" stroke="#404040" points="361.6557,-47.3158 354.7643,-49.4391 350.1537,-43.8944 357.0452,-41.7711 361.6557,-47.3158"/>
<text text-anchor="middle" x="497" y="-117.5" font-family="Helvetica,sans-Serif" font-size="10.00" fill="#000000"> +m_currentPos</text>
<text text-anchor="middle" x="497" y="-106.5" font-family="Helvetica,sans-Serif" font-size="10.00" fill="#000000">+m_currentNormal</text>
<text text-anchor="middle" x="497" y="-95.5" font-family="Helvetica,sans-Serif" font-size="10.00" fill="#000000">+m_previousPos</text>
</g>
</g>
</svg>
        <g id="navigator" transform="translate(0 0)" fill="#404254">
                <rect fill="#f2f5e9" fill-opacity="0.5" stroke="#606060" stroke-width=".5" x="0" y="0" width="60" height="60"/>
                <use id="zoomplus" xlink:href="#zoomPlus" x="17" y="9" onmousedown="handleZoom(evt,'in')"/>
                <use id="zoomminus" xlink:href="#zoomMin" x="42" y="9" onmousedown="handleZoom(evt,'out')"/>
                <use id="reset" xlink:href="#resetDef" x="30" y="36" onmousedown="handleReset()"/>
                <g id="arrowUp" xlink:href="#dirArrow" transform="translate(30 24)" onmousedown="handlePan(0,-1)">
                  <use xlink:href="#rim" fill="#404040">
                        <set attributeName="fill" to="#808080" begin="arrowUp.mouseover" end="arrowUp.mouseout"/>
                  </use>
                  <path fill="none" stroke="white" stroke-width="1.5" d="M0,-3.0v7 M-2.5,-0.5L0,-3.0L2.5,-0.5"/>
                </g>
                <g id="arrowRight" xlink:href="#dirArrow" transform="rotate(90) translate(36 -43)" onmousedown="handlePan(1,0)">
                  <use xlink:href="#rim" fill="#404040">
                        <set attributeName="fill" to="#808080" begin="arrowRight.mouseover" end="arrowRight.mouseout"/>
                  </use>
                  <path fill="none" stroke="white" stroke-width="1.5" d="M0,-3.0v7 M-2.5,-0.5L0,-3.0L2.5,-0.5"/>
                </g>
                <g id="arrowDown" xlink:href="#dirArrow" transform="rotate(180) translate(-30 -48)" onmousedown="handlePan(0,1)">
                  <use xlink:href="#rim" fill="#404040">
                        <set attributeName="fill" to="#808080" begin="arrowDown.mouseover" end="arrowDown.mouseout"/>
                  </use>
                  <path fill="none" stroke="white" stroke-width="1.5" d="M0,-3.0v7 M-2.5,-0.5L0,-3.0L2.5,-0.5"/>
                </g>
                <g id="arrowLeft" xlink:href="#dirArrow" transform="rotate(270) translate(-36 17)" onmousedown="handlePan(-1,0)">
                  <use xlink:href="#rim" fill="#404040">
                        <set attributeName="fill" to="#808080" begin="arrowLeft.mouseover" end="arrowLeft.mouseout"/>
                  </use>
                  <path fill="none" stroke="white" stroke-width="1.5" d="M0,-3.0v7 M-2.5,-0.5L0,-3.0L2.5,-0.5"/>
                </g>
        </g>
        <svg viewBox="0 0 15 15" width="100%" height="30px" preserveAspectRatio="xMaxYMin meet">
         <g id="arrow_out" transform="scale(0.3 0.3)">
          <a xlink:href="structRa_1_1Core_1_1Skinning_1_1FrameData__coll__graph_org.svg" target="_base">
           <rect id="button" ry="5" rx="5" y="6" x="6" height="38" width="38"
                fill="#f2f5e9" fill-opacity="0.5" stroke="#606060" stroke-width="1.0"/>
           <path id="arrow"
             d="M 11.500037,31.436501 C 11.940474,20.09759 22.043105,11.32322 32.158766,21.979434 L 37.068811,17.246167 C 37.068811,17.246167 37.088388,32 37.088388,32 L 22.160133,31.978069 C 22.160133,31.978069 26.997745,27.140456 26.997745,27.140456 C 18.528582,18.264221 13.291696,25.230495 11.500037,31.436501 z"
             style="fill:#404040;"/>
          </a>
         </g>
        </svg>
</svg>
