<?xml version="1.0" encoding="UTF-8" standalone="no"?>
<!DOCTYPE svg PUBLIC "-//W3C//DTD SVG 1.1//EN"
 "http://www.w3.org/Graphics/SVG/1.1/DTD/svg11.dtd">
<!-- Generated by graphviz version 2.43.0 (0)
 -->
<!-- Title: Ra::Core::Utils::map_values&lt; Mapclass &gt; Pages: 1 -->
<svg width="130pt" height="215pt"
 viewBox="0.00 0.00 130.00 215.00" xmlns="http://www.w3.org/2000/svg" xmlns:xlink="http://www.w3.org/1999/xlink">
<g id="graph0" class="graph" transform="scale(1 1) rotate(0) translate(4 211)">
<title>Ra::Core::Utils::map_values&lt; Mapclass &gt;</title>
<polygon fill="white" stroke="transparent" points="-4,4 -4,-211 126,-211 126,4 -4,4"/>
<!-- Node1 -->
<g id="node1" class="node">
<title>Node1</title>
<g id="a_node1"><a xlink:title="Generate a range to iterate over the values of a map.">
<polygon fill="#bfbfbf" stroke="black" points="0,-0.5 0,-101.5 122,-101.5 122,-0.5 0,-0.5"/>
<text text-anchor="start" x="8" y="-89.5" font-family="Helvetica,sans-Serif" font-size="10.00">Ra::Core::Utils::map</text>
<text text-anchor="middle" x="61" y="-78.5" font-family="Helvetica,sans-Serif" font-size="10.00">_values&lt; Mapclass &gt;</text>
<polyline fill="none" stroke="black" points="0,-71.5 122,-71.5 "/>
<text text-anchor="middle" x="61" y="-59.5" font-family="Helvetica,sans-Serif" font-size="10.00"> </text>
<polyline fill="none" stroke="black" points="0,-52.5 122,-52.5 "/>
<text text-anchor="start" x="8" y="-40.5" font-family="Helvetica,sans-Serif" font-size="10.00">+ map_values()</text>
<text text-anchor="start" x="8" y="-29.5" font-family="Helvetica,sans-Serif" font-size="10.00">+ begin()</text>
<text text-anchor="start" x="8" y="-18.5" font-family="Helvetica,sans-Serif" font-size="10.00">+ end()</text>
<text text-anchor="start" x="8" y="-7.5" font-family="Helvetica,sans-Serif" font-size="10.00">+ size()</text>
</a>
</g>
</g>
<!-- Node2 -->
<g id="node2" class="node">
<title>Node2</title>
<g id="a_node2"><a xlink:title=" ">
<polygon fill="white" stroke="#bfbfbf" points="32,-149.5 32,-206.5 90,-206.5 90,-149.5 32,-149.5"/>
<text text-anchor="middle" x="61" y="-194.5" font-family="Helvetica,sans-Serif" font-size="10.00">map_t &amp;</text>
<polyline fill="none" stroke="#bfbfbf" points="32,-187.5 90,-187.5 "/>
<text text-anchor="middle" x="61" y="-175.5" font-family="Helvetica,sans-Serif" font-size="10.00"> </text>
<polyline fill="none" stroke="#bfbfbf" points="32,-168.5 90,-168.5 "/>
<text text-anchor="middle" x="61" y="-156.5" font-family="Helvetica,sans-Serif" font-size="10.00"> </text>
</a>
</g>
</g>
<!-- Node2&#45;&gt;Node1 -->
<g id="edge1" class="edge">
<title>Node2&#45;&gt;Node1</title>
<path fill="none" stroke="#404040" d="M61,-149.26C61,-138.79 61,-126.42 61,-114.07"/>
<polygon fill="none" stroke="#404040" points="61,-113.8 57,-107.8 61,-101.8 65,-107.8 61,-113.8"/>
<text text-anchor="middle" x="72.5" y="-123" font-family="Helvetica,sans-Serif" font-size="10.00"> +x_</text>
</g>
</g>
</svg>
