<?xml version="1.0" encoding="UTF-8" standalone="no"?>
<!DOCTYPE svg PUBLIC "-//W3C//DTD SVG 1.1//EN"
 "http://www.w3.org/Graphics/SVG/1.1/DTD/svg11.dtd">
<!-- Generated by graphviz version 2.40.1 (20161225.0304)
 -->
<!-- Title: Ra::Core::Geometry::VolumeSparse::SampleType Pages: 1 -->
<svg width="166pt" height="182pt"
 viewBox="0.00 0.00 166.00 182.00" xmlns="http://www.w3.org/2000/svg" xmlns:xlink="http://www.w3.org/1999/xlink">
<g id="graph0" class="graph" transform="scale(1 1) rotate(0) translate(4 178)">
<title>Ra::Core::Geometry::VolumeSparse::SampleType</title>
<polygon fill="#ffffff" stroke="transparent" points="-4,4 -4,-178 162,-178 162,4 -4,4"/>
<!-- Node1 -->
<g id="node1" class="node">
<title>Node1</title>
<polygon fill="#bfbfbf" stroke="#000000" points="0,-.5 0,-68.5 158,-68.5 158,-.5 0,-.5"/>
<text text-anchor="start" x="8" y="-56.5" font-family="Helvetica,sans-Serif" font-size="10.00" fill="#000000">Ra::Core::Geometry</text>
<text text-anchor="middle" x="79" y="-45.5" font-family="Helvetica,sans-Serif" font-size="10.00" fill="#000000">::VolumeSparse::SampleType</text>
<polyline fill="none" stroke="#000000" points="0,-38.5 158,-38.5 "/>
<text text-anchor="middle" x="79" y="-26.5" font-family="Helvetica,sans-Serif" font-size="10.00" fill="#000000"> </text>
<polyline fill="none" stroke="#000000" points="0,-19.5 158,-19.5 "/>
<text text-anchor="start" x="8" y="-7.5" font-family="Helvetica,sans-Serif" font-size="10.00" fill="#000000">+ SampleType()</text>
</g>
<!-- Node2 -->
<g id="node2" class="node">
<title>Node2</title>
<polygon fill="#ffffff" stroke="#bfbfbf" points="29,-116.5 29,-173.5 67,-173.5 67,-116.5 29,-116.5"/>
<text text-anchor="middle" x="48" y="-161.5" font-family="Helvetica,sans-Serif" font-size="10.00" fill="#000000">float</text>
<polyline fill="none" stroke="#bfbfbf" points="29,-154.5 67,-154.5 "/>
<text text-anchor="middle" x="48" y="-142.5" font-family="Helvetica,sans-Serif" font-size="10.00" fill="#000000"> </text>
<polyline fill="none" stroke="#bfbfbf" points="29,-135.5 67,-135.5 "/>
<text text-anchor="middle" x="48" y="-123.5" font-family="Helvetica,sans-Serif" font-size="10.00" fill="#000000"> </text>
</g>
<!-- Node2&#45;&gt;Node1 -->
<g id="edge1" class="edge">
<title>Node2&#45;&gt;Node1</title>
<path fill="none" stroke="#404040" d="M45.6813,-116.2763C45.6569,-106.8094 46.4381,-96.3225 49,-87 49.6628,-84.588 50.4622,-82.1702 51.3669,-79.7685"/>
<polygon fill="none" stroke="#404040" points="51.3956,-79.7035 50.166,-72.598 56.252,-68.7301 57.4816,-75.8356 51.3956,-79.7035"/>
<text text-anchor="middle" x="68.5" y="-90" font-family="Helvetica,sans-Serif" font-size="10.00" fill="#000000"> +value</text>
</g>
<!-- Node3 -->
<g id="node3" class="node">
<title>Node3</title>
<g id="a_node3"><a xlink:href="classint.html" target="_top" xlink:title="{int\n||}">
<polygon fill="#ffffff" stroke="#000000" points="95.5,-116.5 95.5,-173.5 124.5,-173.5 124.5,-116.5 95.5,-116.5"/>
<text text-anchor="middle" x="110" y="-161.5" font-family="Helvetica,sans-Serif" font-size="10.00" fill="#000000">int</text>
<polyline fill="none" stroke="#000000" points="95.5,-154.5 124.5,-154.5 "/>
<text text-anchor="middle" x="110" y="-142.5" font-family="Helvetica,sans-Serif" font-size="10.00" fill="#000000"> </text>
<polyline fill="none" stroke="#000000" points="95.5,-135.5 124.5,-135.5 "/>
<text text-anchor="middle" x="110" y="-123.5" font-family="Helvetica,sans-Serif" font-size="10.00" fill="#000000"> </text>
</a>
</g>
</g>
<!-- Node3&#45;&gt;Node1 -->
<g id="edge2" class="edge">
<title>Node3&#45;&gt;Node1</title>
<path fill="none" stroke="#404040" d="M101.936,-116.2559C98.8683,-105.321 95.2914,-92.5708 91.8875,-80.4376"/>
<polygon fill="none" stroke="#404040" points="91.808,-80.154 86.3359,-75.4575 88.5665,-68.6001 94.0386,-73.2965 91.808,-80.154"/>
<text text-anchor="middle" x="115.5" y="-90" font-family="Helvetica,sans-Serif" font-size="10.00" fill="#000000"> +index</text>
</g>
</g>
</svg>
