<?xml version="1.0" encoding="UTF-8" standalone="no"?>
<!DOCTYPE svg PUBLIC "-//W3C//DTD SVG 1.1//EN"
 "http://www.w3.org/Graphics/SVG/1.1/DTD/svg11.dtd">
<!-- Generated by graphviz version 2.40.1 (20161225.0304)
 -->
<!-- Title: src/Core/Tasks/Task.hpp Pages: 1 -->
<svg width="955pt" height="95pt"
 viewBox="0.00 0.00 954.50 95.00" xmlns="http://www.w3.org/2000/svg" xmlns:xlink="http://www.w3.org/1999/xlink">
<g id="graph0" class="graph" transform="scale(1 1) rotate(0) translate(4 91)">
<title>src/Core/Tasks/Task.hpp</title>
<polygon fill="#ffffff" stroke="transparent" points="-4,4 -4,-91 950.5,-91 950.5,4 -4,4"/>
<!-- Node10 -->
<g id="node1" class="node">
<title>Node10</title>
<polygon fill="#bfbfbf" stroke="#000000" points="423.5,-67.5 423.5,-86.5 555.5,-86.5 555.5,-67.5 423.5,-67.5"/>
<text text-anchor="middle" x="489.5" y="-74.5" font-family="Helvetica,sans-Serif" font-size="10.00" fill="#000000">src/Core/Tasks/Task.hpp</text>
</g>
<!-- Node11 -->
<g id="node2" class="node">
<title>Node11</title>
<g id="a_node2"><a xlink:href="TaskQueue_8cpp.html" target="_top" xlink:title="src/Core/Tasks/TaskQueue.cpp">
<polygon fill="#ffffff" stroke="#000000" points="0,-6 0,-25 163,-25 163,-6 0,-6"/>
<text text-anchor="middle" x="81.5" y="-13" font-family="Helvetica,sans-Serif" font-size="10.00" fill="#000000">src/Core/Tasks/TaskQueue.cpp</text>
</a>
</g>
</g>
<!-- Node10&#45;&gt;Node11 -->
<g id="edge1" class="edge">
<title>Node10&#45;&gt;Node11</title>
<path fill="none" stroke="#191970" d="M413.2594,-66.558C348.786,-57.5872 254.0003,-44.0688 171.5,-31 159.9118,-29.1643 147.5028,-27.0948 135.716,-25.0799"/>
<polygon fill="#191970" stroke="#191970" points="412.9537,-70.0491 423.3402,-67.958 413.9167,-63.1156 412.9537,-70.0491"/>
</g>
<!-- Node12 -->
<g id="node3" class="node">
<title>Node12</title>
<g id="a_node3"><a xlink:href="CameraManager_8cpp.html" target="_top" xlink:title="src/Engine/Managers\l/CameraManager/CameraManager.cpp">
<polygon fill="#ffffff" stroke="#000000" points="181,-.5 181,-30.5 384,-30.5 384,-.5 181,-.5"/>
<text text-anchor="start" x="189" y="-18.5" font-family="Helvetica,sans-Serif" font-size="10.00" fill="#000000">src/Engine/Managers</text>
<text text-anchor="middle" x="282.5" y="-7.5" font-family="Helvetica,sans-Serif" font-size="10.00" fill="#000000">/CameraManager/CameraManager.cpp</text>
</a>
</g>
</g>
<!-- Node10&#45;&gt;Node12 -->
<g id="edge2" class="edge">
<title>Node10&#45;&gt;Node12</title>
<path fill="none" stroke="#191970" d="M447.3453,-64.4758C414.2956,-54.6567 368.1885,-40.9582 333.1379,-30.5446"/>
<polygon fill="#191970" stroke="#191970" points="446.5736,-67.8976 457.1563,-67.3906 448.5672,-61.1875 446.5736,-67.8976"/>
</g>
<!-- Node13 -->
<g id="node4" class="node">
<title>Node13</title>
<g id="a_node4"><a xlink:href="LightManager_8cpp.html" target="_top" xlink:title="src/Engine/Managers\l/LightManager/LightManager.cpp">
<polygon fill="#ffffff" stroke="#000000" points="402.5,-.5 402.5,-30.5 576.5,-30.5 576.5,-.5 402.5,-.5"/>
<text text-anchor="start" x="410.5" y="-18.5" font-family="Helvetica,sans-Serif" font-size="10.00" fill="#000000">src/Engine/Managers</text>
<text text-anchor="middle" x="489.5" y="-7.5" font-family="Helvetica,sans-Serif" font-size="10.00" fill="#000000">/LightManager/LightManager.cpp</text>
</a>
</g>
</g>
<!-- Node10&#45;&gt;Node13 -->
<g id="edge3" class="edge">
<title>Node10&#45;&gt;Node13</title>
<path fill="none" stroke="#191970" d="M489.5,-57.3693C489.5,-48.681 489.5,-38.6241 489.5,-30.5446"/>
<polygon fill="#191970" stroke="#191970" points="486.0001,-57.3906 489.5,-67.3906 493.0001,-57.3907 486.0001,-57.3906"/>
</g>
<!-- Node14 -->
<g id="node5" class="node">
<title>Node14</title>
<g id="a_node5"><a xlink:href="GeometrySystem_8cpp.html" target="_top" xlink:title="src/Engine/System/Geometry\lSystem.cpp">
<polygon fill="#ffffff" stroke="#000000" points="594.5,-.5 594.5,-30.5 752.5,-30.5 752.5,-.5 594.5,-.5"/>
<text text-anchor="start" x="602.5" y="-18.5" font-family="Helvetica,sans-Serif" font-size="10.00" fill="#000000">src/Engine/System/Geometry</text>
<text text-anchor="middle" x="673.5" y="-7.5" font-family="Helvetica,sans-Serif" font-size="10.00" fill="#000000">System.cpp</text>
</a>
</g>
</g>
<!-- Node10&#45;&gt;Node14 -->
<g id="edge4" class="edge">
<title>Node10&#45;&gt;Node14</title>
<path fill="none" stroke="#191970" d="M528.1162,-64.0929C557.4066,-54.303 597.7353,-40.8235 628.4885,-30.5446"/>
<polygon fill="#191970" stroke="#191970" points="526.6247,-60.9011 518.25,-67.3906 528.8438,-67.54 526.6247,-60.9011"/>
</g>
<!-- Node15 -->
<g id="node6" class="node">
<title>Node15</title>
<g id="a_node6"><a xlink:href="BaseApplication_8cpp.html" target="_top" xlink:title="src/GuiBase/BaseApplication.cpp">
<polygon fill="#ffffff" stroke="#000000" points="770.5,-6 770.5,-25 946.5,-25 946.5,-6 770.5,-6"/>
<text text-anchor="middle" x="858.5" y="-13" font-family="Helvetica,sans-Serif" font-size="10.00" fill="#000000">src/GuiBase/BaseApplication.cpp</text>
</a>
</g>
</g>
<!-- Node10&#45;&gt;Node15 -->
<g id="edge5" class="edge">
<title>Node10&#45;&gt;Node15</title>
<path fill="none" stroke="#191970" d="M556.7998,-65.7834C626.8637,-54.1061 735.4075,-36.0154 801.4179,-25.0137"/>
<polygon fill="#191970" stroke="#191970" points="556.0399,-62.3617 546.7514,-67.4581 557.1907,-69.2664 556.0399,-62.3617"/>
</g>
</g>
</svg>
