<?xml version="1.0" encoding="UTF-8" standalone="no"?>
<!DOCTYPE svg PUBLIC "-//W3C//DTD SVG 1.1//EN"
 "http://www.w3.org/Graphics/SVG/1.1/DTD/svg11.dtd">
<!-- Generated by graphviz version 2.40.1 (20161225.0304)
 -->
<!-- Title: src/GuiBase/Timeline/TimelineScrollArea.hpp Pages: 1 -->
<svg width="342pt" height="151pt"
 viewBox="0.00 0.00 342.00 151.00" xmlns="http://www.w3.org/2000/svg" xmlns:xlink="http://www.w3.org/1999/xlink">
<g id="graph0" class="graph" transform="scale(1 1) rotate(0) translate(4 147)">
<title>src/GuiBase/Timeline/TimelineScrollArea.hpp</title>
<polygon fill="#ffffff" stroke="transparent" points="-4,4 -4,-147 338,-147 338,4 -4,4"/>
<!-- Node0 -->
<g id="node1" class="node">
<title>Node0</title>
<polygon fill="#bfbfbf" stroke="#000000" points="39.5,-112.5 39.5,-142.5 172.5,-142.5 172.5,-112.5 39.5,-112.5"/>
<text text-anchor="start" x="47.5" y="-130.5" font-family="Helvetica,sans-Serif" font-size="10.00" fill="#000000">src/GuiBase/Timeline</text>
<text text-anchor="middle" x="106" y="-119.5" font-family="Helvetica,sans-Serif" font-size="10.00" fill="#000000">/TimelineScrollArea.hpp</text>
</g>
<!-- Node1 -->
<g id="node2" class="node">
<title>Node1</title>
<polygon fill="#ffffff" stroke="#bfbfbf" points="12,-56.5 12,-75.5 86,-75.5 86,-56.5 12,-56.5"/>
<text text-anchor="middle" x="49" y="-63.5" font-family="Helvetica,sans-Serif" font-size="10.00" fill="#000000">QScrollArea</text>
</g>
<!-- Node0&#45;&gt;Node1 -->
<g id="edge1" class="edge">
<title>Node0&#45;&gt;Node1</title>
<path fill="none" stroke="#191970" d="M91.9101,-112.2977C83.7507,-103.4941 73.4528,-92.3833 64.9905,-83.2529"/>
<polygon fill="#191970" stroke="#191970" points="67.4911,-80.8021 58.1264,-75.8469 62.3571,-85.5604 67.4911,-80.8021"/>
</g>
<!-- Node2 -->
<g id="node3" class="node">
<title>Node2</title>
<g id="a_node3"><a xlink:href="CoreMacros_8hpp.html" target="_top" xlink:title="Core/CoreMacros.hpp">
<polygon fill="#ffffff" stroke="#000000" points="104,-56.5 104,-75.5 224,-75.5 224,-56.5 104,-56.5"/>
<text text-anchor="middle" x="164" y="-63.5" font-family="Helvetica,sans-Serif" font-size="10.00" fill="#000000">Core/CoreMacros.hpp</text>
</a>
</g>
</g>
<!-- Node0&#45;&gt;Node2 -->
<g id="edge2" class="edge">
<title>Node0&#45;&gt;Node2</title>
<path fill="none" stroke="#191970" d="M120.3371,-112.2977C128.6397,-103.4941 139.1182,-92.3833 147.7289,-83.2529"/>
<polygon fill="#191970" stroke="#191970" points="150.3987,-85.5234 154.7135,-75.8469 145.3061,-80.7206 150.3987,-85.5234"/>
</g>
<!-- Node3 -->
<g id="node4" class="node">
<title>Node3</title>
<polygon fill="#ffffff" stroke="#bfbfbf" points="0,-.5 0,-19.5 52,-19.5 52,-.5 0,-.5"/>
<text text-anchor="middle" x="26" y="-7.5" font-family="Helvetica,sans-Serif" font-size="10.00" fill="#000000">cassert</text>
</g>
<!-- Node2&#45;&gt;Node3 -->
<g id="edge3" class="edge">
<title>Node2&#45;&gt;Node3</title>
<path fill="none" stroke="#191970" d="M140.277,-56.3733C117.8263,-47.2629 83.9261,-33.5062 58.8745,-23.3404"/>
<polygon fill="#191970" stroke="#191970" points="59.9957,-20.0182 49.4135,-19.5011 57.3635,-26.5045 59.9957,-20.0182"/>
</g>
<!-- Node4 -->
<g id="node5" class="node">
<title>Node4</title>
<polygon fill="#ffffff" stroke="#bfbfbf" points="70,-.5 70,-19.5 116,-19.5 116,-.5 70,-.5"/>
<text text-anchor="middle" x="93" y="-7.5" font-family="Helvetica,sans-Serif" font-size="10.00" fill="#000000">cstdio</text>
</g>
<!-- Node2&#45;&gt;Node4 -->
<g id="edge4" class="edge">
<title>Node2&#45;&gt;Node4</title>
<path fill="none" stroke="#191970" d="M151.6327,-56.2455C141.0446,-47.8943 125.5936,-35.7076 113.2107,-25.9408"/>
<polygon fill="#191970" stroke="#191970" points="115.2447,-23.0875 105.2255,-19.6427 110.9097,-28.5837 115.2447,-23.0875"/>
</g>
<!-- Node5 -->
<g id="node6" class="node">
<title>Node5</title>
<polygon fill="#ffffff" stroke="#bfbfbf" points="134,-.5 134,-19.5 194,-19.5 194,-.5 134,-.5"/>
<text text-anchor="middle" x="164" y="-7.5" font-family="Helvetica,sans-Serif" font-size="10.00" fill="#000000">iostream</text>
</g>
<!-- Node2&#45;&gt;Node5 -->
<g id="edge5" class="edge">
<title>Node2&#45;&gt;Node5</title>
<path fill="none" stroke="#191970" d="M164,-56.2455C164,-48.9382 164,-38.6944 164,-29.7046"/>
<polygon fill="#191970" stroke="#191970" points="167.5001,-29.6426 164,-19.6427 160.5001,-29.6427 167.5001,-29.6426"/>
</g>
<!-- Node6 -->
<g id="node7" class="node">
<title>Node6</title>
<polygon fill="#ffffff" stroke="#bfbfbf" points="212,-.5 212,-19.5 268,-19.5 268,-.5 212,-.5"/>
<text text-anchor="middle" x="240" y="-7.5" font-family="Helvetica,sans-Serif" font-size="10.00" fill="#000000">sstream</text>
</g>
<!-- Node2&#45;&gt;Node6 -->
<g id="edge6" class="edge">
<title>Node2&#45;&gt;Node6</title>
<path fill="none" stroke="#191970" d="M177.2382,-56.2455C188.681,-47.814 205.4296,-35.4729 218.7475,-25.6598"/>
<polygon fill="#191970" stroke="#191970" points="220.9391,-28.3924 226.9135,-19.6427 216.7867,-22.757 220.9391,-28.3924"/>
</g>
<!-- Node7 -->
<g id="node8" class="node">
<title>Node7</title>
<polygon fill="#ffffff" stroke="#bfbfbf" points="286,-.5 286,-19.5 334,-19.5 334,-.5 286,-.5"/>
<text text-anchor="middle" x="310" y="-7.5" font-family="Helvetica,sans-Serif" font-size="10.00" fill="#000000">thread</text>
</g>
<!-- Node2&#45;&gt;Node7 -->
<g id="edge7" class="edge">
<title>Node2&#45;&gt;Node7</title>
<path fill="none" stroke="#191970" d="M189.0983,-56.3733C213.1001,-47.1671 249.4713,-33.2165 276.0524,-23.021"/>
<polygon fill="#191970" stroke="#191970" points="277.631,-26.1642 285.7144,-19.315 275.1242,-19.6285 277.631,-26.1642"/>
</g>
</g>
</svg>
