<?xml version="1.0" encoding="UTF-8" standalone="no"?>
<!DOCTYPE svg PUBLIC "-//W3C//DTD SVG 1.1//EN"
 "http://www.w3.org/Graphics/SVG/1.1/DTD/svg11.dtd">
<!-- Generated by graphviz version 2.40.1 (20161225.0304)
 -->
<!-- Title: src/IO/TinyPlyLoader/TinyPlyFileLoader.hpp Pages: 1 -->
<svg width="393pt" height="263pt"
 viewBox="0.00 0.00 393.00 263.00" xmlns="http://www.w3.org/2000/svg" xmlns:xlink="http://www.w3.org/1999/xlink">
<g id="graph0" class="graph" transform="scale(1 1) rotate(0) translate(4 259)">
<title>src/IO/TinyPlyLoader/TinyPlyFileLoader.hpp</title>
<polygon fill="#ffffff" stroke="transparent" points="-4,4 -4,-259 389,-259 389,4 -4,4"/>
<!-- Node0 -->
<g id="node1" class="node">
<title>Node0</title>
<polygon fill="#bfbfbf" stroke="#000000" points="107.5,-224.5 107.5,-254.5 232.5,-254.5 232.5,-224.5 107.5,-224.5"/>
<text text-anchor="start" x="115.5" y="-242.5" font-family="Helvetica,sans-Serif" font-size="10.00" fill="#000000">src/IO/TinyPlyLoader</text>
<text text-anchor="middle" x="170" y="-231.5" font-family="Helvetica,sans-Serif" font-size="10.00" fill="#000000">/TinyPlyFileLoader.hpp</text>
</g>
<!-- Node1 -->
<g id="node2" class="node">
<title>Node1</title>
<g id="a_node2"><a xlink:href="FileLoaderInterface_8hpp.html" target="_top" xlink:title="Core/Asset/FileLoaderInterface.hpp">
<polygon fill="#ffffff" stroke="#000000" points="3,-168.5 3,-187.5 189,-187.5 189,-168.5 3,-168.5"/>
<text text-anchor="middle" x="96" y="-175.5" font-family="Helvetica,sans-Serif" font-size="10.00" fill="#000000">Core/Asset/FileLoaderInterface.hpp</text>
</a>
</g>
</g>
<!-- Node0&#45;&gt;Node1 -->
<g id="edge1" class="edge">
<title>Node0&#45;&gt;Node1</title>
<path fill="none" stroke="#191970" d="M151.7079,-224.2977C140.7939,-215.2274 126.9329,-203.7077 115.7676,-194.4285"/>
<polygon fill="#191970" stroke="#191970" points="117.7762,-191.5468 107.8483,-187.8469 113.302,-196.9303 117.7762,-191.5468"/>
</g>
<!-- Node11 -->
<g id="node12" class="node">
<title>Node11</title>
<g id="a_node12"><a xlink:href="RaIO_8hpp.html" target="_top" xlink:title="IO/RaIO.hpp">
<polygon fill="#ffffff" stroke="#000000" points="212,-168.5 212,-187.5 286,-187.5 286,-168.5 212,-168.5"/>
<text text-anchor="middle" x="249" y="-175.5" font-family="Helvetica,sans-Serif" font-size="10.00" fill="#000000">IO/RaIO.hpp</text>
</a>
</g>
</g>
<!-- Node0&#45;&gt;Node11 -->
<g id="edge11" class="edge">
<title>Node0&#45;&gt;Node11</title>
<path fill="none" stroke="#191970" d="M189.5281,-224.2977C201.2937,-215.1384 216.2675,-203.4816 228.2465,-194.1562"/>
<polygon fill="#191970" stroke="#191970" points="230.6103,-196.7516 236.3511,-187.8469 226.3102,-191.228 230.6103,-196.7516"/>
</g>
<!-- Node2 -->
<g id="node3" class="node">
<title>Node2</title>
<polygon fill="#ffffff" stroke="#bfbfbf" points="0,-112.5 0,-131.5 44,-131.5 44,-112.5 0,-112.5"/>
<text text-anchor="middle" x="22" y="-119.5" font-family="Helvetica,sans-Serif" font-size="10.00" fill="#000000">string</text>
</g>
<!-- Node1&#45;&gt;Node2 -->
<g id="edge2" class="edge">
<title>Node1&#45;&gt;Node2</title>
<path fill="none" stroke="#191970" d="M83.1102,-168.2455C72.0746,-159.8943 55.9708,-147.7076 43.0647,-137.9408"/>
<polygon fill="#191970" stroke="#191970" points="44.8283,-134.8862 34.7421,-131.6427 40.6041,-140.4681 44.8283,-134.8862"/>
</g>
<!-- Node3 -->
<g id="node4" class="node">
<title>Node3</title>
<polygon fill="#ffffff" stroke="#bfbfbf" points="62.5,-112.5 62.5,-131.5 109.5,-131.5 109.5,-112.5 62.5,-112.5"/>
<text text-anchor="middle" x="86" y="-119.5" font-family="Helvetica,sans-Serif" font-size="10.00" fill="#000000">vector</text>
</g>
<!-- Node1&#45;&gt;Node3 -->
<g id="edge3" class="edge">
<title>Node1&#45;&gt;Node3</title>
<path fill="none" stroke="#191970" d="M94.2581,-168.2455C92.9533,-160.9382 91.124,-150.6944 89.5187,-141.7046"/>
<polygon fill="#191970" stroke="#191970" points="92.9254,-140.8717 87.7219,-131.6427 86.0344,-142.1022 92.9254,-140.8717"/>
</g>
<!-- Node4 -->
<g id="node5" class="node">
<title>Node4</title>
<g id="a_node5"><a xlink:href="RaCore_8hpp.html" target="_top" xlink:title="Core/RaCore.hpp">
<polygon fill="#ffffff" stroke="#000000" points="128,-112.5 128,-131.5 226,-131.5 226,-112.5 128,-112.5"/>
<text text-anchor="middle" x="177" y="-119.5" font-family="Helvetica,sans-Serif" font-size="10.00" fill="#000000">Core/RaCore.hpp</text>
</a>
</g>
</g>
<!-- Node1&#45;&gt;Node4 -->
<g id="edge4" class="edge">
<title>Node1&#45;&gt;Node4</title>
<path fill="none" stroke="#191970" d="M110.1091,-168.2455C122.4209,-159.7337 140.4958,-147.2375 154.7538,-137.3801"/>
<polygon fill="#191970" stroke="#191970" points="156.8174,-140.2085 163.0526,-131.6427 152.8366,-134.4506 156.8174,-140.2085"/>
</g>
<!-- Node5 -->
<g id="node6" class="node">
<title>Node5</title>
<g id="a_node6"><a xlink:href="CoreMacros_8hpp.html" target="_top" xlink:title="Core/CoreMacros.hpp">
<polygon fill="#ffffff" stroke="#000000" points="155,-56.5 155,-75.5 275,-75.5 275,-56.5 155,-56.5"/>
<text text-anchor="middle" x="215" y="-63.5" font-family="Helvetica,sans-Serif" font-size="10.00" fill="#000000">Core/CoreMacros.hpp</text>
</a>
</g>
</g>
<!-- Node4&#45;&gt;Node5 -->
<g id="edge5" class="edge">
<title>Node4&#45;&gt;Node5</title>
<path fill="none" stroke="#191970" d="M183.6191,-112.2455C188.9046,-104.4564 196.4541,-93.3308 202.8238,-83.9439"/>
<polygon fill="#191970" stroke="#191970" points="205.7379,-85.8827 208.4568,-75.6427 199.9455,-81.9522 205.7379,-85.8827"/>
</g>
<!-- Node6 -->
<g id="node7" class="node">
<title>Node6</title>
<polygon fill="#ffffff" stroke="#bfbfbf" points="51,-.5 51,-19.5 103,-19.5 103,-.5 51,-.5"/>
<text text-anchor="middle" x="77" y="-7.5" font-family="Helvetica,sans-Serif" font-size="10.00" fill="#000000">cassert</text>
</g>
<!-- Node5&#45;&gt;Node6 -->
<g id="edge6" class="edge">
<title>Node5&#45;&gt;Node6</title>
<path fill="none" stroke="#191970" d="M191.277,-56.3733C168.8263,-47.2629 134.9261,-33.5062 109.8745,-23.3404"/>
<polygon fill="#191970" stroke="#191970" points="110.9957,-20.0182 100.4135,-19.5011 108.3635,-26.5045 110.9957,-20.0182"/>
</g>
<!-- Node7 -->
<g id="node8" class="node">
<title>Node7</title>
<polygon fill="#ffffff" stroke="#bfbfbf" points="121,-.5 121,-19.5 167,-19.5 167,-.5 121,-.5"/>
<text text-anchor="middle" x="144" y="-7.5" font-family="Helvetica,sans-Serif" font-size="10.00" fill="#000000">cstdio</text>
</g>
<!-- Node5&#45;&gt;Node7 -->
<g id="edge7" class="edge">
<title>Node5&#45;&gt;Node7</title>
<path fill="none" stroke="#191970" d="M202.6327,-56.2455C192.0446,-47.8943 176.5936,-35.7076 164.2107,-25.9408"/>
<polygon fill="#191970" stroke="#191970" points="166.2447,-23.0875 156.2255,-19.6427 161.9097,-28.5837 166.2447,-23.0875"/>
</g>
<!-- Node8 -->
<g id="node9" class="node">
<title>Node8</title>
<polygon fill="#ffffff" stroke="#bfbfbf" points="185,-.5 185,-19.5 245,-19.5 245,-.5 185,-.5"/>
<text text-anchor="middle" x="215" y="-7.5" font-family="Helvetica,sans-Serif" font-size="10.00" fill="#000000">iostream</text>
</g>
<!-- Node5&#45;&gt;Node8 -->
<g id="edge8" class="edge">
<title>Node5&#45;&gt;Node8</title>
<path fill="none" stroke="#191970" d="M215,-56.2455C215,-48.9382 215,-38.6944 215,-29.7046"/>
<polygon fill="#191970" stroke="#191970" points="218.5001,-29.6426 215,-19.6427 211.5001,-29.6427 218.5001,-29.6426"/>
</g>
<!-- Node9 -->
<g id="node10" class="node">
<title>Node9</title>
<polygon fill="#ffffff" stroke="#bfbfbf" points="263,-.5 263,-19.5 319,-19.5 319,-.5 263,-.5"/>
<text text-anchor="middle" x="291" y="-7.5" font-family="Helvetica,sans-Serif" font-size="10.00" fill="#000000">sstream</text>
</g>
<!-- Node5&#45;&gt;Node9 -->
<g id="edge9" class="edge">
<title>Node5&#45;&gt;Node9</title>
<path fill="none" stroke="#191970" d="M228.2382,-56.2455C239.681,-47.814 256.4296,-35.4729 269.7475,-25.6598"/>
<polygon fill="#191970" stroke="#191970" points="271.9391,-28.3924 277.9135,-19.6427 267.7867,-22.757 271.9391,-28.3924"/>
</g>
<!-- Node10 -->
<g id="node11" class="node">
<title>Node10</title>
<polygon fill="#ffffff" stroke="#bfbfbf" points="337,-.5 337,-19.5 385,-19.5 385,-.5 337,-.5"/>
<text text-anchor="middle" x="361" y="-7.5" font-family="Helvetica,sans-Serif" font-size="10.00" fill="#000000">thread</text>
</g>
<!-- Node5&#45;&gt;Node10 -->
<g id="edge10" class="edge">
<title>Node5&#45;&gt;Node10</title>
<path fill="none" stroke="#191970" d="M240.0983,-56.3733C264.1001,-47.1671 300.4713,-33.2165 327.0524,-23.021"/>
<polygon fill="#191970" stroke="#191970" points="328.631,-26.1642 336.7144,-19.315 326.1242,-19.6285 328.631,-26.1642"/>
</g>
<!-- Node11&#45;&gt;Node5 -->
<g id="edge12" class="edge">
<title>Node11&#45;&gt;Node5</title>
<path fill="none" stroke="#191970" d="M247.5929,-168.4449C245.5425,-155.4674 241.2806,-131.6354 235,-112 232.0576,-102.8011 227.911,-92.939 224.1557,-84.715"/>
<polygon fill="#191970" stroke="#191970" points="227.3107,-83.1992 219.8765,-75.6504 220.9806,-86.1876 227.3107,-83.1992"/>
</g>
</g>
</svg>
