<?xml version="1.0" encoding="UTF-8" standalone="no"?>
<!DOCTYPE svg PUBLIC "-//W3C//DTD SVG 1.1//EN"
 "http://www.w3.org/Graphics/SVG/1.1/DTD/svg11.dtd">
<!-- Generated by graphviz version 2.43.0 (0)
 -->
<!-- Title: /home/runner/work/Radium&#45;Engine/Radium&#45;Engine/src/Radium&#45;Engine/src/Core/Geometry/TopologicalMesh.inl Pages: 1 -->
<svg width="2061pt" height="531pt"
 viewBox="0.00 0.00 2060.73 531.00" xmlns="http://www.w3.org/2000/svg" xmlns:xlink="http://www.w3.org/1999/xlink">
<g id="graph0" class="graph" transform="scale(1 1) rotate(0) translate(4 527)">
<title>/home/runner/work/Radium&#45;Engine/Radium&#45;Engine/src/Radium&#45;Engine/src/Core/Geometry/TopologicalMesh.inl</title>
<polygon fill="white" stroke="transparent" points="-4,4 -4,-527 2056.73,-527 2056.73,4 -4,4"/>
<!-- Node1 -->
<g id="node1" class="node">
<title>Node1</title>
<g id="a_node1"><a xlink:title=" ">
<polygon fill="#bfbfbf" stroke="black" points="1000.73,-470.5 1000.73,-522.5 1188.73,-522.5 1188.73,-470.5 1000.73,-470.5"/>
<text text-anchor="start" x="1008.73" y="-510.5" font-family="Helvetica,sans-Serif" font-size="10.00">/home/runner/work/Radium</text>
<text text-anchor="start" x="1008.73" y="-499.5" font-family="Helvetica,sans-Serif" font-size="10.00">&#45;Engine/Radium&#45;Engine/src</text>
<text text-anchor="start" x="1008.73" y="-488.5" font-family="Helvetica,sans-Serif" font-size="10.00">/Radium&#45;Engine/src/Core/Geometry</text>
<text text-anchor="middle" x="1094.73" y="-477.5" font-family="Helvetica,sans-Serif" font-size="10.00">/TopologicalMesh.inl</text>
</a>
</g>
</g>
<!-- Node2 -->
<g id="node2" class="node">
<title>Node2</title>
<g id="a_node2"><a xlink:href="TopologicalMesh_8hpp.html" target="_top" xlink:title=" ">
<polygon fill="white" stroke="black" points="1035.23,-414.5 1035.23,-433.5 1154.23,-433.5 1154.23,-414.5 1035.23,-414.5"/>
<text text-anchor="middle" x="1094.73" y="-421.5" font-family="Helvetica,sans-Serif" font-size="10.00">TopologicalMesh.hpp</text>
</a>
</g>
</g>
<!-- Node1&#45;&gt;Node2 -->
<g id="edge1" class="edge">
<title>Node1&#45;&gt;Node2</title>
<path fill="none" stroke="midnightblue" d="M1088.24,-470.45C1087.78,-461.63 1087.93,-451.88 1088.69,-443.68"/>
<polygon fill="midnightblue" stroke="midnightblue" points="1092.17,-444.09 1090.1,-433.7 1085.24,-443.11 1092.17,-444.09"/>
</g>
<!-- Node48 -->
<g id="node48" class="node">
<title>Node48</title>
<g id="a_node48"><a xlink:title=" ">
<polygon fill="white" stroke="#bfbfbf" points="1172.23,-414.5 1172.23,-433.5 1229.23,-433.5 1229.23,-414.5 1172.23,-414.5"/>
<text text-anchor="middle" x="1200.73" y="-421.5" font-family="Helvetica,sans-Serif" font-size="10.00">typeinfo</text>
</a>
</g>
</g>
<!-- Node1&#45;&gt;Node48 -->
<g id="edge80" class="edge">
<title>Node1&#45;&gt;Node48</title>
<path fill="none" stroke="midnightblue" d="M1132.4,-470.45C1148.16,-459.96 1165.9,-448.16 1179.35,-439.22"/>
<polygon fill="midnightblue" stroke="midnightblue" points="1181.52,-441.98 1187.91,-433.53 1177.64,-436.15 1181.52,-441.98"/>
</g>
<!-- Node2&#45;&gt;Node1 -->
<g id="edge79" class="edge">
<title>Node2&#45;&gt;Node1</title>
<path fill="none" stroke="midnightblue" d="M1099.35,-433.7C1100.77,-440.47 1101.48,-450.37 1101.48,-460.27"/>
<polygon fill="midnightblue" stroke="midnightblue" points="1097.97,-460.36 1101.22,-470.45 1104.97,-460.54 1097.97,-460.36"/>
</g>
<!-- Node3 -->
<g id="node3" class="node">
<title>Node3</title>
<g id="a_node3"><a xlink:href="RaCore_8hpp.html" target="_top" xlink:title=" ">
<polygon fill="white" stroke="black" points="1052.73,-112.5 1052.73,-131.5 1150.73,-131.5 1150.73,-112.5 1052.73,-112.5"/>
<text text-anchor="middle" x="1101.73" y="-119.5" font-family="Helvetica,sans-Serif" font-size="10.00">Core/RaCore.hpp</text>
</a>
</g>
</g>
<!-- Node2&#45;&gt;Node3 -->
<g id="edge2" class="edge">
<title>Node2&#45;&gt;Node3</title>
<path fill="none" stroke="midnightblue" d="M1094.73,-414.49C1094.73,-394.74 1094.73,-344.22 1094.73,-302 1094.73,-302 1094.73,-302 1094.73,-244 1094.73,-207.83 1097.88,-165.69 1099.96,-141.9"/>
<polygon fill="midnightblue" stroke="midnightblue" points="1103.46,-142.07 1100.87,-131.8 1096.48,-141.44 1103.46,-142.07"/>
</g>
<!-- Node10 -->
<g id="node10" class="node">
<title>Node10</title>
<g id="a_node10"><a xlink:href="VectorArray_8hpp.html" target="_top" xlink:title=" ">
<polygon fill="white" stroke="black" points="1494.73,-235.5 1494.73,-254.5 1668.73,-254.5 1668.73,-235.5 1494.73,-235.5"/>
<text text-anchor="middle" x="1581.73" y="-242.5" font-family="Helvetica,sans-Serif" font-size="10.00">Core/Containers/VectorArray.hpp</text>
</a>
</g>
</g>
<!-- Node2&#45;&gt;Node10 -->
<g id="edge9" class="edge">
<title>Node2&#45;&gt;Node10</title>
<path fill="none" stroke="midnightblue" d="M1112.14,-414.45C1168.76,-386.66 1345.6,-300.22 1372.73,-291 1419.31,-275.16 1473.7,-263.66 1515.31,-256.25"/>
<polygon fill="midnightblue" stroke="midnightblue" points="1516.08,-259.67 1525.33,-254.5 1514.88,-252.77 1516.08,-259.67"/>
</g>
<!-- Node14 -->
<g id="node14" class="node">
<title>Node14</title>
<g id="a_node14"><a xlink:href="OpenMesh_8hpp.html" target="_top" xlink:title=" ">
<polygon fill="white" stroke="black" points="175.23,-235.5 175.23,-254.5 342.23,-254.5 342.23,-235.5 175.23,-235.5"/>
<text text-anchor="middle" x="258.73" y="-242.5" font-family="Helvetica,sans-Serif" font-size="10.00">Core/Geometry/OpenMesh.hpp</text>
</a>
</g>
</g>
<!-- Node2&#45;&gt;Node14 -->
<g id="edge15" class="edge">
<title>Node2&#45;&gt;Node14</title>
<path fill="none" stroke="midnightblue" d="M1035.11,-422.26C869.94,-419.79 414.7,-410.14 355.73,-378 309.04,-352.56 278.81,-293.88 265.9,-264.07"/>
<polygon fill="midnightblue" stroke="midnightblue" points="269.13,-262.73 262.06,-254.84 262.67,-265.42 269.13,-262.73"/>
</g>
<!-- Node15 -->
<g id="node15" class="node">
<title>Node15</title>
<g id="a_node15"><a xlink:title=" ">
<polygon fill="white" stroke="#bfbfbf" points="419.23,-112.5 419.23,-131.5 488.23,-131.5 488.23,-112.5 419.23,-112.5"/>
<text text-anchor="middle" x="453.73" y="-119.5" font-family="Helvetica,sans-Serif" font-size="10.00">Eigen/Core</text>
</a>
</g>
</g>
<!-- Node2&#45;&gt;Node15 -->
<g id="edge76" class="edge">
<title>Node2&#45;&gt;Node15</title>
<path fill="none" stroke="midnightblue" d="M1035.14,-421.68C911.2,-418.36 629.63,-407.72 538.73,-378 484.68,-360.33 463.34,-356.87 429.73,-311 391.67,-259.06 425.82,-176.68 444.02,-140.74"/>
<polygon fill="midnightblue" stroke="midnightblue" points="447.31,-142.01 448.86,-131.53 441.11,-138.76 447.31,-142.01"/>
</g>
<!-- Node16 -->
<g id="node16" class="node">
<title>Node16</title>
<g id="a_node16"><a xlink:title=" ">
<polygon fill="white" stroke="#bfbfbf" points="299.23,-112.5 299.23,-131.5 394.23,-131.5 394.23,-112.5 299.23,-112.5"/>
<text text-anchor="middle" x="346.73" y="-119.5" font-family="Helvetica,sans-Serif" font-size="10.00">Eigen/Geometry</text>
</a>
</g>
</g>
<!-- Node2&#45;&gt;Node16 -->
<g id="edge77" class="edge">
<title>Node2&#45;&gt;Node16</title>
<path fill="none" stroke="midnightblue" d="M1035.04,-422.55C860.78,-420.84 354.92,-412.93 193.73,-378 104.03,-358.56 1.73,-393.78 1.73,-302 1.73,-302 1.73,-302 1.73,-244 1.73,-209.18 -5.18,-191.26 20.73,-168 59.2,-133.47 206.16,-125.27 289.02,-123.43"/>
<polygon fill="midnightblue" stroke="midnightblue" points="289.12,-126.93 299.04,-123.23 288.98,-119.93 289.12,-126.93"/>
</g>
<!-- Node17 -->
<g id="node17" class="node">
<title>Node17</title>
<g id="a_node17"><a xlink:href="Types_8hpp.html" target="_top" xlink:title=" ">
<polygon fill="white" stroke="black" points="491.23,-174 491.23,-193 582.23,-193 582.23,-174 491.23,-174"/>
<text text-anchor="middle" x="536.73" y="-181" font-family="Helvetica,sans-Serif" font-size="10.00">Core/Types.hpp</text>
</a>
</g>
</g>
<!-- Node2&#45;&gt;Node17 -->
<g id="edge68" class="edge">
<title>Node2&#45;&gt;Node17</title>
<path fill="none" stroke="midnightblue" d="M1035.08,-419.34C894.32,-409.67 546.43,-379.31 454.73,-311 425.86,-289.5 407.3,-265.3 426.73,-235 439.17,-215.6 461.15,-203.55 482.2,-196.12"/>
<polygon fill="midnightblue" stroke="midnightblue" points="483.34,-199.43 491.78,-193.02 481.18,-192.77 483.34,-199.43"/>
</g>
<!-- Node19 -->
<g id="node19" class="node">
<title>Node19</title>
<g id="a_node19"><a xlink:title=" ">
<polygon fill="white" stroke="#bfbfbf" points="30.23,-168.5 30.23,-198.5 153.23,-198.5 153.23,-168.5 30.23,-168.5"/>
<text text-anchor="start" x="38.23" y="-186.5" font-family="Helvetica,sans-Serif" font-size="10.00">OpenMesh/Core/Mesh</text>
<text text-anchor="middle" x="91.73" y="-175.5" font-family="Helvetica,sans-Serif" font-size="10.00">/Traits.hh</text>
</a>
</g>
</g>
<!-- Node2&#45;&gt;Node19 -->
<g id="edge72" class="edge">
<title>Node2&#45;&gt;Node19</title>
<path fill="none" stroke="midnightblue" d="M1035.11,-422.48C853.26,-420.55 313.66,-411.97 242.73,-378 168.74,-342.57 120.64,-251.01 101.33,-207.77"/>
<polygon fill="midnightblue" stroke="midnightblue" points="104.54,-206.37 97.35,-198.59 98.12,-209.16 104.54,-206.37"/>
</g>
<!-- Node20 -->
<g id="node20" class="node">
<title>Node20</title>
<g id="a_node20"><a xlink:title=" ">
<polygon fill="white" stroke="#bfbfbf" points="171.73,-168.5 171.73,-198.5 311.73,-198.5 311.73,-168.5 171.73,-168.5"/>
<text text-anchor="start" x="179.73" y="-186.5" font-family="Helvetica,sans-Serif" font-size="10.00">OpenMesh/Core/Mesh</text>
<text text-anchor="middle" x="241.73" y="-175.5" font-family="Helvetica,sans-Serif" font-size="10.00">/TriMesh_ArrayKernelT.hh</text>
</a>
</g>
</g>
<!-- Node2&#45;&gt;Node20 -->
<g id="edge73" class="edge">
<title>Node2&#45;&gt;Node20</title>
<path fill="none" stroke="midnightblue" d="M1035.03,-421.68C864.31,-417.59 382.02,-403.88 315.73,-378 235.42,-346.64 202.6,-332.93 165.73,-255 155.68,-233.77 175.63,-215.86 197.61,-203.41"/>
<polygon fill="midnightblue" stroke="midnightblue" points="199.53,-206.35 206.73,-198.57 196.26,-200.16 199.53,-206.35"/>
</g>
<!-- Node21 -->
<g id="node21" class="node">
<title>Node21</title>
<g id="a_node21"><a xlink:href="TriangleMesh_8hpp.html" target="_top" xlink:title=" ">
<polygon fill="white" stroke="black" points="874.23,-353 874.23,-372 1053.23,-372 1053.23,-353 874.23,-353"/>
<text text-anchor="middle" x="963.73" y="-360" font-family="Helvetica,sans-Serif" font-size="10.00">Core/Geometry/TriangleMesh.hpp</text>
</a>
</g>
</g>
<!-- Node2&#45;&gt;Node21 -->
<g id="edge26" class="edge">
<title>Node2&#45;&gt;Node21</title>
<path fill="none" stroke="midnightblue" d="M1075.96,-414.48C1053.88,-404.45 1017.01,-387.7 991.59,-376.15"/>
<polygon fill="midnightblue" stroke="midnightblue" points="993.01,-372.96 982.46,-372.01 990.12,-379.33 993.01,-372.96"/>
</g>
<!-- Node25 -->
<g id="node25" class="node">
<title>Node25</title>
<g id="a_node25"><a xlink:href="Index_8hpp.html" target="_top" xlink:title=" ">
<polygon fill="white" stroke="black" points="1686.73,-235.5 1686.73,-254.5 1802.73,-254.5 1802.73,-235.5 1686.73,-235.5"/>
<text text-anchor="middle" x="1744.73" y="-242.5" font-family="Helvetica,sans-Serif" font-size="10.00">Core/Utils/Index.hpp</text>
</a>
</g>
</g>
<!-- Node2&#45;&gt;Node25 -->
<g id="edge69" class="edge">
<title>Node2&#45;&gt;Node25</title>
<path fill="none" stroke="midnightblue" d="M1126.08,-414.46C1232.9,-385.38 1582.68,-290.13 1703.36,-257.27"/>
<polygon fill="midnightblue" stroke="midnightblue" points="1704.58,-260.56 1713.31,-254.55 1702.74,-253.81 1704.58,-260.56"/>
</g>
<!-- Node43 -->
<g id="node43" class="node">
<title>Node43</title>
<g id="a_node43"><a xlink:href="StdOptional_8hpp.html" target="_top" xlink:title=" ">
<polygon fill="white" stroke="black" points="1414.73,-353 1414.73,-372 1560.73,-372 1560.73,-353 1414.73,-353"/>
<text text-anchor="middle" x="1487.73" y="-360" font-family="Helvetica,sans-Serif" font-size="10.00">Core/Utils/StdOptional.hpp</text>
</a>
</g>
</g>
<!-- Node2&#45;&gt;Node43 -->
<g id="edge70" class="edge">
<title>Node2&#45;&gt;Node43</title>
<path fill="none" stroke="midnightblue" d="M1154.3,-414.58C1216,-405.79 1315.19,-391.42 1400.73,-378 1409.41,-376.64 1418.57,-375.16 1427.56,-373.68"/>
<polygon fill="midnightblue" stroke="midnightblue" points="1428.31,-377.11 1437.61,-372.02 1427.17,-370.2 1428.31,-377.11"/>
</g>
<!-- Node44 -->
<g id="node44" class="node">
<title>Node44</title>
<g id="a_node44"><a xlink:title=" ">
<polygon fill="white" stroke="#bfbfbf" points="1579.23,-347.5 1579.23,-377.5 1728.23,-377.5 1728.23,-347.5 1579.23,-347.5"/>
<text text-anchor="start" x="1587.23" y="-365.5" font-family="Helvetica,sans-Serif" font-size="10.00">OpenMesh/Core/Mesh</text>
<text text-anchor="middle" x="1653.73" y="-354.5" font-family="Helvetica,sans-Serif" font-size="10.00">/PolyMesh_ArrayKernelT.hh</text>
</a>
</g>
</g>
<!-- Node2&#45;&gt;Node44 -->
<g id="edge71" class="edge">
<title>Node2&#45;&gt;Node44</title>
<path fill="none" stroke="midnightblue" d="M1154.41,-414.95C1157.22,-414.62 1160.01,-414.3 1162.73,-414 1339.97,-394.44 1387.93,-401.21 1568.99,-378.02"/>
<polygon fill="midnightblue" stroke="midnightblue" points="1569.65,-381.46 1579.12,-376.71 1568.75,-374.52 1569.65,-381.46"/>
</g>
<!-- Node45 -->
<g id="node45" class="node">
<title>Node45</title>
<g id="a_node45"><a xlink:title=" ">
<polygon fill="white" stroke="#bfbfbf" points="1746.23,-347.5 1746.23,-377.5 1865.23,-377.5 1865.23,-347.5 1746.23,-347.5"/>
<text text-anchor="start" x="1754.23" y="-365.5" font-family="Helvetica,sans-Serif" font-size="10.00">OpenMesh/Core/Utils</text>
<text text-anchor="middle" x="1805.73" y="-354.5" font-family="Helvetica,sans-Serif" font-size="10.00">/Property.hh</text>
</a>
</g>
</g>
<!-- Node2&#45;&gt;Node45 -->
<g id="edge74" class="edge">
<title>Node2&#45;&gt;Node45</title>
<path fill="none" stroke="midnightblue" d="M1154.4,-414.86C1157.22,-414.56 1160,-414.27 1162.73,-414 1413.78,-389.54 1481.66,-411.77 1735.7,-377.99"/>
<polygon fill="midnightblue" stroke="midnightblue" points="1736.54,-381.41 1745.98,-376.61 1735.6,-374.47 1736.54,-381.41"/>
</g>
<!-- Node46 -->
<g id="node46" class="node">
<title>Node46</title>
<g id="a_node46"><a xlink:title=" ">
<polygon fill="white" stroke="#bfbfbf" points="1883.23,-347.5 1883.23,-377.5 2002.23,-377.5 2002.23,-347.5 1883.23,-347.5"/>
<text text-anchor="start" x="1891.23" y="-365.5" font-family="Helvetica,sans-Serif" font-size="10.00">OpenMesh/Core/Utils</text>
<text text-anchor="middle" x="1942.73" y="-354.5" font-family="Helvetica,sans-Serif" font-size="10.00">/PropertyManager.hh</text>
</a>
</g>
</g>
<!-- Node2&#45;&gt;Node46 -->
<g id="edge75" class="edge">
<title>Node2&#45;&gt;Node46</title>
<path fill="none" stroke="midnightblue" d="M1154.4,-414.82C1157.21,-414.53 1160,-414.25 1162.73,-414 1474.87,-385.5 1558.77,-418.45 1872.8,-378.11"/>
<polygon fill="midnightblue" stroke="midnightblue" points="1873.65,-381.53 1883.12,-376.77 1872.75,-374.59 1873.65,-381.53"/>
</g>
<!-- Node47 -->
<g id="node47" class="node">
<title>Node47</title>
<g id="a_node47"><a xlink:title=" ">
<polygon fill="white" stroke="#bfbfbf" points="2020.73,-353 2020.73,-372 2052.73,-372 2052.73,-353 2020.73,-353"/>
<text text-anchor="middle" x="2036.73" y="-360" font-family="Helvetica,sans-Serif" font-size="10.00">set</text>
</a>
</g>
</g>
<!-- Node2&#45;&gt;Node47 -->
<g id="edge78" class="edge">
<title>Node2&#45;&gt;Node47</title>
<path fill="none" stroke="midnightblue" d="M1154.4,-414.8C1157.21,-414.51 1160,-414.24 1162.73,-414 1350.85,-397.6 1830.45,-430.91 2011.73,-378 2012.97,-377.64 2014.22,-377.2 2015.46,-376.7"/>
<polygon fill="midnightblue" stroke="midnightblue" points="2017.19,-379.75 2024.55,-372.14 2014.04,-373.5 2017.19,-379.75"/>
</g>
<!-- Node4 -->
<g id="node4" class="node">
<title>Node4</title>
<g id="a_node4"><a xlink:href="CoreMacros_8hpp.html" target="_top" xlink:title=" ">
<polygon fill="white" stroke="black" points="1041.23,-56.5 1041.23,-75.5 1162.23,-75.5 1162.23,-56.5 1041.23,-56.5"/>
<text text-anchor="middle" x="1101.73" y="-63.5" font-family="Helvetica,sans-Serif" font-size="10.00">Core/CoreMacros.hpp</text>
</a>
</g>
</g>
<!-- Node3&#45;&gt;Node4 -->
<g id="edge3" class="edge">
<title>Node3&#45;&gt;Node4</title>
<path fill="none" stroke="midnightblue" d="M1101.73,-112.08C1101.73,-105.01 1101.73,-94.86 1101.73,-85.99"/>
<polygon fill="midnightblue" stroke="midnightblue" points="1105.23,-85.75 1101.73,-75.75 1098.23,-85.75 1105.23,-85.75"/>
</g>
<!-- Node5 -->
<g id="node5" class="node">
<title>Node5</title>
<g id="a_node5"><a xlink:title=" ">
<polygon fill="white" stroke="#bfbfbf" points="1109.73,-0.5 1109.73,-19.5 1161.73,-19.5 1161.73,-0.5 1109.73,-0.5"/>
<text text-anchor="middle" x="1135.73" y="-7.5" font-family="Helvetica,sans-Serif" font-size="10.00">cassert</text>
</a>
</g>
</g>
<!-- Node4&#45;&gt;Node5 -->
<g id="edge4" class="edge">
<title>Node4&#45;&gt;Node5</title>
<path fill="none" stroke="midnightblue" d="M1107.34,-56.08C1112.1,-48.53 1119.05,-37.49 1124.88,-28.23"/>
<polygon fill="midnightblue" stroke="midnightblue" points="1127.85,-30.08 1130.22,-19.75 1121.93,-26.35 1127.85,-30.08"/>
</g>
<!-- Node6 -->
<g id="node6" class="node">
<title>Node6</title>
<g id="a_node6"><a xlink:title=" ">
<polygon fill="white" stroke="#bfbfbf" points="1179.73,-0.5 1179.73,-19.5 1225.73,-19.5 1225.73,-0.5 1179.73,-0.5"/>
<text text-anchor="middle" x="1202.73" y="-7.5" font-family="Helvetica,sans-Serif" font-size="10.00">cstdio</text>
</a>
</g>
</g>
<!-- Node4&#45;&gt;Node6 -->
<g id="edge5" class="edge">
<title>Node4&#45;&gt;Node6</title>
<path fill="none" stroke="midnightblue" d="M1117.95,-56.32C1134.08,-47.7 1159.03,-34.36 1177.69,-24.39"/>
<polygon fill="midnightblue" stroke="midnightblue" points="1179.37,-27.46 1186.54,-19.65 1176.07,-21.28 1179.37,-27.46"/>
</g>
<!-- Node7 -->
<g id="node7" class="node">
<title>Node7</title>
<g id="a_node7"><a xlink:title=" ">
<polygon fill="white" stroke="#bfbfbf" points="965.73,-0.5 965.73,-19.5 1025.73,-19.5 1025.73,-0.5 965.73,-0.5"/>
<text text-anchor="middle" x="995.73" y="-7.5" font-family="Helvetica,sans-Serif" font-size="10.00">iostream</text>
</a>
</g>
</g>
<!-- Node4&#45;&gt;Node7 -->
<g id="edge6" class="edge">
<title>Node4&#45;&gt;Node7</title>
<path fill="none" stroke="midnightblue" d="M1084.7,-56.32C1067.7,-47.66 1041.35,-34.24 1021.73,-24.25"/>
<polygon fill="midnightblue" stroke="midnightblue" points="1023.22,-21.08 1012.72,-19.65 1020.04,-27.31 1023.22,-21.08"/>
</g>
<!-- Node8 -->
<g id="node8" class="node">
<title>Node8</title>
<g id="a_node8"><a xlink:title=" ">
<polygon fill="white" stroke="#bfbfbf" points="1372.73,-0.5 1372.73,-19.5 1428.73,-19.5 1428.73,-0.5 1372.73,-0.5"/>
<text text-anchor="middle" x="1400.73" y="-7.5" font-family="Helvetica,sans-Serif" font-size="10.00">sstream</text>
</a>
</g>
</g>
<!-- Node4&#45;&gt;Node8 -->
<g id="edge7" class="edge">
<title>Node4&#45;&gt;Node8</title>
<path fill="none" stroke="midnightblue" d="M1149.11,-56.44C1208.2,-45.77 1308.07,-27.73 1362.53,-17.9"/>
<polygon fill="midnightblue" stroke="midnightblue" points="1363.25,-21.33 1372.47,-16.1 1362,-14.44 1363.25,-21.33"/>
</g>
<!-- Node9 -->
<g id="node9" class="node">
<title>Node9</title>
<g id="a_node9"><a xlink:title=" ">
<polygon fill="white" stroke="#bfbfbf" points="1043.73,-0.5 1043.73,-19.5 1091.73,-19.5 1091.73,-0.5 1043.73,-0.5"/>
<text text-anchor="middle" x="1067.73" y="-7.5" font-family="Helvetica,sans-Serif" font-size="10.00">thread</text>
</a>
</g>
</g>
<!-- Node4&#45;&gt;Node9 -->
<g id="edge8" class="edge">
<title>Node4&#45;&gt;Node9</title>
<path fill="none" stroke="midnightblue" d="M1096.11,-56.08C1091.36,-48.53 1084.41,-37.49 1078.58,-28.23"/>
<polygon fill="midnightblue" stroke="midnightblue" points="1081.53,-26.35 1073.24,-19.75 1075.6,-30.08 1081.53,-26.35"/>
</g>
<!-- Node10&#45;&gt;Node3 -->
<g id="edge14" class="edge">
<title>Node10&#45;&gt;Node3</title>
<path fill="none" stroke="midnightblue" d="M1517.43,-235.49C1455.61,-226.73 1366.94,-212.5 1334.73,-199 1312.67,-189.75 1312.53,-177.84 1290.73,-168 1249.24,-149.28 1198.97,-137.8 1160.71,-131.12"/>
<polygon fill="midnightblue" stroke="midnightblue" points="1161.2,-127.65 1150.76,-129.44 1160.04,-134.55 1161.2,-127.65"/>
</g>
<!-- Node11 -->
<g id="node11" class="node">
<title>Node11</title>
<g id="a_node11"><a xlink:href="AlignedStdVector_8hpp.html" target="_top" xlink:title=" ">
<polygon fill="white" stroke="black" points="1376.73,-168.5 1376.73,-198.5 1526.73,-198.5 1526.73,-168.5 1376.73,-168.5"/>
<text text-anchor="start" x="1384.73" y="-186.5" font-family="Helvetica,sans-Serif" font-size="10.00">Core/Containers/AlignedStd</text>
<text text-anchor="middle" x="1451.73" y="-175.5" font-family="Helvetica,sans-Serif" font-size="10.00">Vector.hpp</text>
</a>
</g>
</g>
<!-- Node10&#45;&gt;Node11 -->
<g id="edge10" class="edge">
<title>Node10&#45;&gt;Node11</title>
<path fill="none" stroke="midnightblue" d="M1563.1,-235.48C1544.51,-226.96 1515.35,-213.62 1491.53,-202.72"/>
<polygon fill="midnightblue" stroke="midnightblue" points="1492.92,-199.5 1482.37,-198.52 1490,-205.87 1492.92,-199.5"/>
</g>
<!-- Node11&#45;&gt;Node3 -->
<g id="edge11" class="edge">
<title>Node11&#45;&gt;Node3</title>
<path fill="none" stroke="midnightblue" d="M1376.64,-169.74C1312.09,-158.76 1220.24,-143.15 1160.81,-133.04"/>
<polygon fill="midnightblue" stroke="midnightblue" points="1161.28,-129.57 1150.84,-131.35 1160.11,-136.48 1161.28,-129.57"/>
</g>
<!-- Node12 -->
<g id="node12" class="node">
<title>Node12</title>
<g id="a_node12"><a xlink:title=" ">
<polygon fill="white" stroke="#bfbfbf" points="1317.23,-112.5 1317.23,-131.5 1410.23,-131.5 1410.23,-112.5 1317.23,-112.5"/>
<text text-anchor="middle" x="1363.73" y="-119.5" font-family="Helvetica,sans-Serif" font-size="10.00">Eigen/StdVector</text>
</a>
</g>
</g>
<!-- Node11&#45;&gt;Node12 -->
<g id="edge12" class="edge">
<title>Node11&#45;&gt;Node12</title>
<path fill="none" stroke="midnightblue" d="M1430.87,-168.4C1417.03,-159.04 1398.92,-146.79 1384.99,-137.38"/>
<polygon fill="midnightblue" stroke="midnightblue" points="1386.78,-134.36 1376.53,-131.66 1382.86,-140.16 1386.78,-134.36"/>
</g>
<!-- Node13 -->
<g id="node13" class="node">
<title>Node13</title>
<g id="a_node13"><a xlink:title=" ">
<polygon fill="white" stroke="#bfbfbf" points="1428.23,-112.5 1428.23,-131.5 1475.23,-131.5 1475.23,-112.5 1428.23,-112.5"/>
<text text-anchor="middle" x="1451.73" y="-119.5" font-family="Helvetica,sans-Serif" font-size="10.00">vector</text>
</a>
</g>
</g>
<!-- Node11&#45;&gt;Node13 -->
<g id="edge13" class="edge">
<title>Node11&#45;&gt;Node13</title>
<path fill="none" stroke="midnightblue" d="M1451.73,-168.4C1451.73,-160.47 1451.73,-150.46 1451.73,-141.86"/>
<polygon fill="midnightblue" stroke="midnightblue" points="1455.23,-141.66 1451.73,-131.66 1448.23,-141.66 1455.23,-141.66"/>
</g>
<!-- Node14&#45;&gt;Node3 -->
<g id="edge16" class="edge">
<title>Node14&#45;&gt;Node3</title>
<path fill="none" stroke="midnightblue" d="M342.23,-239.39C525.46,-229.19 947.68,-205.09 961.73,-199 980.19,-191 977.85,-178.96 994.73,-168 1016.32,-153.97 1043.01,-142.74 1064.33,-135"/>
<polygon fill="midnightblue" stroke="midnightblue" points="1065.75,-138.22 1074.02,-131.59 1063.42,-131.61 1065.75,-138.22"/>
</g>
<!-- Node14&#45;&gt;Node15 -->
<g id="edge17" class="edge">
<title>Node14&#45;&gt;Node15</title>
<path fill="none" stroke="midnightblue" d="M276.09,-235.4C293.29,-226.71 320.25,-212.66 342.73,-199 375.53,-179.06 411.97,-153.4 433.85,-137.58"/>
<polygon fill="midnightblue" stroke="midnightblue" points="435.99,-140.35 442.02,-131.64 431.87,-134.69 435.99,-140.35"/>
</g>
<!-- Node14&#45;&gt;Node16 -->
<g id="edge18" class="edge">
<title>Node14&#45;&gt;Node16</title>
<path fill="none" stroke="midnightblue" d="M275.72,-235.5C289.62,-227.74 308.87,-215.05 320.73,-199 333.39,-181.87 340.19,-158.12 343.63,-141.76"/>
<polygon fill="midnightblue" stroke="midnightblue" points="347.1,-142.25 345.5,-131.77 340.22,-140.96 347.1,-142.25"/>
</g>
<!-- Node14&#45;&gt;Node17 -->
<g id="edge19" class="edge">
<title>Node14&#45;&gt;Node17</title>
<path fill="none" stroke="midnightblue" d="M298.56,-235.48C348.21,-224.85 433.07,-206.68 486.96,-195.15"/>
<polygon fill="midnightblue" stroke="midnightblue" points="487.92,-198.52 496.97,-193.01 486.46,-191.68 487.92,-198.52"/>
</g>
<!-- Node14&#45;&gt;Node19 -->
<g id="edge24" class="edge">
<title>Node14&#45;&gt;Node19</title>
<path fill="none" stroke="midnightblue" d="M234.8,-235.48C210.39,-226.78 171.79,-213.03 140.84,-202"/>
<polygon fill="midnightblue" stroke="midnightblue" points="141.68,-198.58 131.09,-198.52 139.33,-205.18 141.68,-198.58"/>
</g>
<!-- Node14&#45;&gt;Node20 -->
<g id="edge25" class="edge">
<title>Node14&#45;&gt;Node20</title>
<path fill="none" stroke="midnightblue" d="M256.29,-235.48C254.27,-228.4 251.29,-217.97 248.55,-208.39"/>
<polygon fill="midnightblue" stroke="midnightblue" points="251.85,-207.18 245.73,-198.52 245.12,-209.1 251.85,-207.18"/>
</g>
<!-- Node17&#45;&gt;Node3 -->
<g id="edge20" class="edge">
<title>Node17&#45;&gt;Node3</title>
<path fill="none" stroke="midnightblue" d="M582.37,-176.74C605.02,-173.96 632.8,-170.66 657.73,-168 825.8,-150.1 871.03,-153.1 1042.57,-132.07"/>
<polygon fill="midnightblue" stroke="midnightblue" points="1043.21,-135.52 1052.71,-130.82 1042.36,-128.57 1043.21,-135.52"/>
</g>
<!-- Node17&#45;&gt;Node15 -->
<g id="edge21" class="edge">
<title>Node17&#45;&gt;Node15</title>
<path fill="none" stroke="midnightblue" d="M524.84,-173.98C511.52,-164.43 489.73,-148.81 473.77,-137.37"/>
<polygon fill="midnightblue" stroke="midnightblue" points="475.76,-134.49 465.6,-131.51 471.69,-140.18 475.76,-134.49"/>
</g>
<!-- Node17&#45;&gt;Node16 -->
<g id="edge22" class="edge">
<title>Node17&#45;&gt;Node16</title>
<path fill="none" stroke="midnightblue" d="M509.51,-173.98C476.49,-163.64 420.69,-146.16 383.78,-134.6"/>
<polygon fill="midnightblue" stroke="midnightblue" points="384.49,-131.16 373.9,-131.51 382.4,-137.84 384.49,-131.16"/>
</g>
<!-- Node18 -->
<g id="node18" class="node">
<title>Node18</title>
<g id="a_node18"><a xlink:title=" ">
<polygon fill="white" stroke="#bfbfbf" points="506.73,-112.5 506.73,-131.5 586.73,-131.5 586.73,-112.5 506.73,-112.5"/>
<text text-anchor="middle" x="546.73" y="-119.5" font-family="Helvetica,sans-Serif" font-size="10.00">Eigen/Sparse</text>
</a>
</g>
</g>
<!-- Node17&#45;&gt;Node18 -->
<g id="edge23" class="edge">
<title>Node17&#45;&gt;Node18</title>
<path fill="none" stroke="midnightblue" d="M538.16,-173.98C539.57,-165.58 541.77,-152.48 543.59,-141.66"/>
<polygon fill="midnightblue" stroke="midnightblue" points="547.09,-141.95 545.3,-131.51 540.19,-140.79 547.09,-141.95"/>
</g>
<!-- Node21&#45;&gt;Node3 -->
<g id="edge31" class="edge">
<title>Node21&#45;&gt;Node3</title>
<path fill="none" stroke="midnightblue" d="M970.22,-352.94C983.54,-335.21 1014.55,-292.93 1036.73,-255 1048.95,-234.1 1078.71,-171.77 1093.34,-140.83"/>
<polygon fill="midnightblue" stroke="midnightblue" points="1096.57,-142.18 1097.67,-131.65 1090.24,-139.2 1096.57,-142.18"/>
</g>
<!-- Node21&#45;&gt;Node10 -->
<g id="edge27" class="edge">
<title>Node21&#45;&gt;Node10</title>
<path fill="none" stroke="midnightblue" d="M1053.34,-353.81C1119.37,-346.64 1210.85,-333.57 1288.73,-311 1310.14,-304.79 1313.4,-297.49 1334.73,-291 1388.94,-274.52 1451.79,-263.17 1500.52,-255.99"/>
<polygon fill="midnightblue" stroke="midnightblue" points="1501.3,-259.42 1510.7,-254.52 1500.3,-252.49 1501.3,-259.42"/>
</g>
<!-- Node21&#45;&gt;Node17 -->
<g id="edge32" class="edge">
<title>Node21&#45;&gt;Node17</title>
<path fill="none" stroke="midnightblue" d="M938.73,-352.99C889.45,-335.99 776.6,-295.94 684.73,-255 666.93,-247.07 663.24,-243.54 645.73,-235 618.46,-221.7 586.98,-207.21 564.89,-197.17"/>
<polygon fill="midnightblue" stroke="midnightblue" points="566.29,-193.97 555.74,-193.03 563.41,-200.34 566.29,-193.97"/>
</g>
<!-- Node22 -->
<g id="node22" class="node">
<title>Node22</title>
<g id="a_node22"><a xlink:href="AbstractGeometry_8hpp.html" target="_top" xlink:title=" ">
<polygon fill="white" stroke="black" points="825.23,-235.5 825.23,-254.5 1028.23,-254.5 1028.23,-235.5 825.23,-235.5"/>
<text text-anchor="middle" x="926.73" y="-242.5" font-family="Helvetica,sans-Serif" font-size="10.00">Core/Geometry/AbstractGeometry.hpp</text>
</a>
</g>
</g>
<!-- Node21&#45;&gt;Node22 -->
<g id="edge28" class="edge">
<title>Node21&#45;&gt;Node22</title>
<path fill="none" stroke="midnightblue" d="M960.95,-352.82C954.97,-334.17 940.8,-289.94 932.7,-264.63"/>
<polygon fill="midnightblue" stroke="midnightblue" points="935.92,-263.24 929.54,-254.78 929.26,-265.37 935.92,-263.24"/>
</g>
<!-- Node23 -->
<g id="node23" class="node">
<title>Node23</title>
<g id="a_node23"><a xlink:href="Attribs_8hpp.html" target="_top" xlink:title=" ">
<polygon fill="white" stroke="black" points="1123.23,-291.5 1123.23,-310.5 1244.23,-310.5 1244.23,-291.5 1123.23,-291.5"/>
<text text-anchor="middle" x="1183.73" y="-298.5" font-family="Helvetica,sans-Serif" font-size="10.00">Core/Utils/Attribs.hpp</text>
</a>
</g>
</g>
<!-- Node21&#45;&gt;Node23 -->
<g id="edge33" class="edge">
<title>Node21&#45;&gt;Node23</title>
<path fill="none" stroke="midnightblue" d="M995.25,-352.98C1033.97,-342.5 1099.75,-324.71 1142.46,-313.16"/>
<polygon fill="midnightblue" stroke="midnightblue" points="1143.53,-316.5 1152.27,-310.51 1141.7,-309.74 1143.53,-316.5"/>
</g>
<!-- Node28 -->
<g id="node28" class="node">
<title>Node28</title>
<g id="a_node28"><a xlink:href="Observable_8hpp.html" target="_top" xlink:title=" ">
<polygon fill="white" stroke="black" points="1332.73,-235.5 1332.73,-254.5 1476.73,-254.5 1476.73,-235.5 1332.73,-235.5"/>
<text text-anchor="middle" x="1404.73" y="-242.5" font-family="Helvetica,sans-Serif" font-size="10.00">Core/Utils/Observable.hpp</text>
</a>
</g>
</g>
<!-- Node21&#45;&gt;Node28 -->
<g id="edge63" class="edge">
<title>Node21&#45;&gt;Node28</title>
<path fill="none" stroke="midnightblue" d="M1044.44,-352.96C1103.13,-345.42 1183.99,-332.25 1252.73,-311 1273.25,-304.66 1277.03,-299.58 1296.73,-291 1322.73,-279.68 1352.49,-267.32 1374.18,-258.42"/>
<polygon fill="midnightblue" stroke="midnightblue" points="1375.6,-261.62 1383.53,-254.6 1372.95,-255.14 1375.6,-261.62"/>
</g>
<!-- Node35 -->
<g id="node35" class="node">
<title>Node35</title>
<g id="a_node35"><a xlink:href="Color_8hpp.html" target="_top" xlink:title=" ">
<polygon fill="white" stroke="black" points="694.23,-235.5 694.23,-254.5 807.23,-254.5 807.23,-235.5 694.23,-235.5"/>
<text text-anchor="middle" x="750.73" y="-242.5" font-family="Helvetica,sans-Serif" font-size="10.00">Core/Utils/Color.hpp</text>
</a>
</g>
</g>
<!-- Node21&#45;&gt;Node35 -->
<g id="edge52" class="edge">
<title>Node21&#45;&gt;Node35</title>
<path fill="none" stroke="midnightblue" d="M947.72,-352.82C910.85,-332.83 819.75,-283.43 775.56,-259.47"/>
<polygon fill="midnightblue" stroke="midnightblue" points="777.09,-256.31 766.63,-254.62 773.75,-262.47 777.09,-256.31"/>
</g>
<!-- Node41 -->
<g id="node41" class="node">
<title>Node41</title>
<g id="a_node41"><a xlink:href="TriangleMesh_8inl.html" target="_top" xlink:title=" ">
<polygon fill="white" stroke="black" points="464.23,-291.5 464.23,-310.5 637.23,-310.5 637.23,-291.5 464.23,-291.5"/>
<text text-anchor="middle" x="550.73" y="-298.5" font-family="Helvetica,sans-Serif" font-size="10.00">Core/Geometry/TriangleMesh.inl</text>
</a>
</g>
</g>
<!-- Node21&#45;&gt;Node41 -->
<g id="edge64" class="edge">
<title>Node21&#45;&gt;Node41</title>
<path fill="none" stroke="midnightblue" d="M899.65,-352.98C822.16,-342.15 692.62,-323.5 615.02,-312.01"/>
<polygon fill="midnightblue" stroke="midnightblue" points="615.3,-308.52 604.89,-310.51 614.27,-315.44 615.3,-308.52"/>
</g>
<!-- Node22&#45;&gt;Node3 -->
<g id="edge29" class="edge">
<title>Node22&#45;&gt;Node3</title>
<path fill="none" stroke="midnightblue" d="M940.1,-235.33C953.88,-226.37 975.93,-211.89 994.73,-199 1025.31,-178.03 1060.25,-153 1081.65,-137.56"/>
<polygon fill="midnightblue" stroke="midnightblue" points="1083.89,-140.26 1089.94,-131.56 1079.79,-134.59 1083.89,-140.26"/>
</g>
<!-- Node22&#45;&gt;Node17 -->
<g id="edge30" class="edge">
<title>Node22&#45;&gt;Node17</title>
<path fill="none" stroke="midnightblue" d="M870.85,-235.48C796.72,-224.17 666.63,-204.32 592.54,-193.01"/>
<polygon fill="midnightblue" stroke="midnightblue" points="592.88,-189.53 582.46,-191.48 591.82,-196.45 592.88,-189.53"/>
</g>
<!-- Node23&#45;&gt;Node3 -->
<g id="edge36" class="edge">
<title>Node23&#45;&gt;Node3</title>
<path fill="none" stroke="midnightblue" d="M1176.65,-291.47C1169.64,-282.73 1158.95,-268.53 1151.73,-255 1131.14,-216.41 1114.95,-167.46 1107.04,-141.36"/>
<polygon fill="midnightblue" stroke="midnightblue" points="1110.36,-140.26 1104.17,-131.67 1103.65,-142.25 1110.36,-140.26"/>
</g>
<!-- Node23&#45;&gt;Node10 -->
<g id="edge35" class="edge">
<title>Node23&#45;&gt;Node10</title>
<path fill="none" stroke="midnightblue" d="M1244.61,-291.74C1315.67,-282.1 1433.11,-266.16 1508.93,-255.88"/>
<polygon fill="midnightblue" stroke="midnightblue" points="1509.44,-259.34 1518.88,-254.53 1508.5,-252.4 1509.44,-259.34"/>
</g>
<!-- Node24 -->
<g id="node24" class="node">
<title>Node24</title>
<g id="a_node24"><a xlink:title=" ">
<polygon fill="white" stroke="#bfbfbf" points="1160.73,-174 1160.73,-193 1198.73,-193 1198.73,-174 1160.73,-174"/>
<text text-anchor="middle" x="1179.73" y="-181" font-family="Helvetica,sans-Serif" font-size="10.00">map</text>
</a>
</g>
</g>
<!-- Node23&#45;&gt;Node24 -->
<g id="edge34" class="edge">
<title>Node23&#45;&gt;Node24</title>
<path fill="none" stroke="midnightblue" d="M1222.58,-291.49C1258.16,-281.73 1302.75,-263.32 1284.73,-235 1264.45,-203.13 1241.62,-215.69 1207.73,-199 1206.89,-198.59 1206.04,-198.17 1205.18,-197.74"/>
<polygon fill="midnightblue" stroke="midnightblue" points="1206.46,-194.46 1195.96,-193.05 1203.28,-200.7 1206.46,-194.46"/>
</g>
<!-- Node23&#45;&gt;Node25 -->
<g id="edge37" class="edge">
<title>Node23&#45;&gt;Node25</title>
<path fill="none" stroke="midnightblue" d="M1244.27,-295.32C1335.58,-288.08 1514.24,-273.2 1676.47,-255.1"/>
<polygon fill="midnightblue" stroke="midnightblue" points="1677.09,-258.55 1686.64,-253.96 1676.31,-251.59 1677.09,-258.55"/>
</g>
<!-- Node23&#45;&gt;Node28 -->
<g id="edge42" class="edge">
<title>Node23&#45;&gt;Node28</title>
<path fill="none" stroke="midnightblue" d="M1218.75,-291.44C1256.98,-282.1 1318.29,-267.12 1359.99,-256.93"/>
<polygon fill="midnightblue" stroke="midnightblue" points="1360.99,-260.29 1369.87,-254.52 1359.33,-253.49 1360.99,-260.29"/>
</g>
<!-- Node34 -->
<g id="node34" class="node">
<title>Node34</title>
<g id="a_node34"><a xlink:href="Attribs_8inl.html" target="_top" xlink:title=" ">
<polygon fill="white" stroke="black" points="1161.23,-235.5 1161.23,-254.5 1276.23,-254.5 1276.23,-235.5 1161.23,-235.5"/>
<text text-anchor="middle" x="1218.73" y="-242.5" font-family="Helvetica,sans-Serif" font-size="10.00">Core/Utils/Attribs.inl</text>
</a>
</g>
</g>
<!-- Node23&#45;&gt;Node34 -->
<g id="edge51" class="edge">
<title>Node23&#45;&gt;Node34</title>
<path fill="none" stroke="midnightblue" d="M1189.51,-291.08C1194.4,-283.53 1201.55,-272.49 1207.56,-263.23"/>
<polygon fill="midnightblue" stroke="midnightblue" points="1210.55,-265.05 1213.06,-254.75 1204.68,-261.24 1210.55,-265.05"/>
</g>
<!-- Node25&#45;&gt;Node3 -->
<g id="edge38" class="edge">
<title>Node25&#45;&gt;Node3</title>
<path fill="none" stroke="midnightblue" d="M1686.63,-236.13C1683.62,-235.74 1680.64,-235.36 1677.73,-235 1540.1,-217.77 1496.46,-250.64 1367.73,-199 1346.53,-190.49 1347.56,-177.37 1326.73,-168 1273.58,-144.11 1207.71,-132.83 1161.01,-127.55"/>
<polygon fill="midnightblue" stroke="midnightblue" points="1161.37,-124.07 1151.06,-126.48 1160.62,-131.03 1161.37,-124.07"/>
</g>
<!-- Node26 -->
<g id="node26" class="node">
<title>Node26</title>
<g id="a_node26"><a xlink:title=" ">
<polygon fill="white" stroke="#bfbfbf" points="1668.73,-174 1668.73,-193 1712.73,-193 1712.73,-174 1668.73,-174"/>
<text text-anchor="middle" x="1690.73" y="-181" font-family="Helvetica,sans-Serif" font-size="10.00">limits</text>
</a>
</g>
</g>
<!-- Node25&#45;&gt;Node26 -->
<g id="edge39" class="edge">
<title>Node25&#45;&gt;Node26</title>
<path fill="none" stroke="midnightblue" d="M1736.99,-235.48C1728.73,-226.37 1715.45,-211.74 1705.23,-200.48"/>
<polygon fill="midnightblue" stroke="midnightblue" points="1707.76,-198.06 1698.45,-193.01 1702.58,-202.77 1707.76,-198.06"/>
</g>
<!-- Node27 -->
<g id="node27" class="node">
<title>Node27</title>
<g id="a_node27"><a xlink:href="Index_8inl.html" target="_top" xlink:title=" ">
<polygon fill="white" stroke="black" points="1730.73,-174 1730.73,-193 1840.73,-193 1840.73,-174 1730.73,-174"/>
<text text-anchor="middle" x="1785.73" y="-181" font-family="Helvetica,sans-Serif" font-size="10.00">Core/Utils/Index.inl</text>
</a>
</g>
</g>
<!-- Node25&#45;&gt;Node27 -->
<g id="edge40" class="edge">
<title>Node25&#45;&gt;Node27</title>
<path fill="none" stroke="midnightblue" d="M1745.7,-235.48C1749.95,-226.46 1759.5,-212.02 1768.39,-200.81"/>
<polygon fill="midnightblue" stroke="midnightblue" points="1771.2,-202.91 1774.97,-193.01 1765.85,-198.4 1771.2,-202.91"/>
</g>
<!-- Node27&#45;&gt;Node25 -->
<g id="edge41" class="edge">
<title>Node27&#45;&gt;Node25</title>
<path fill="none" stroke="midnightblue" d="M1784.76,-193.01C1780.52,-202.02 1770.98,-216.45 1762.08,-227.67"/>
<polygon fill="midnightblue" stroke="midnightblue" points="1759.27,-225.57 1755.5,-235.48 1764.62,-230.08 1759.27,-225.57"/>
</g>
<!-- Node28&#45;&gt;Node24 -->
<g id="edge50" class="edge">
<title>Node28&#45;&gt;Node24</title>
<path fill="none" stroke="midnightblue" d="M1350.57,-235.45C1310.39,-228.19 1254.67,-216.2 1207.73,-199 1206.48,-198.54 1205.23,-198.05 1203.97,-197.52"/>
<polygon fill="midnightblue" stroke="midnightblue" points="1205.06,-194.16 1194.52,-193.05 1202.07,-200.49 1205.06,-194.16"/>
</g>
<!-- Node29 -->
<g id="node29" class="node">
<title>Node29</title>
<g id="a_node29"><a xlink:href="Log_8hpp.html" target="_top" xlink:title=" ">
<polygon fill="white" stroke="black" points="1544.73,-174 1544.73,-193 1650.73,-193 1650.73,-174 1544.73,-174"/>
<text text-anchor="middle" x="1597.73" y="-181" font-family="Helvetica,sans-Serif" font-size="10.00">Core/Utils/Log.hpp</text>
</a>
</g>
</g>
<!-- Node28&#45;&gt;Node29 -->
<g id="edge43" class="edge">
<title>Node28&#45;&gt;Node29</title>
<path fill="none" stroke="midnightblue" d="M1432.38,-235.48C1465.92,-225.14 1522.6,-207.66 1560.1,-196.1"/>
<polygon fill="midnightblue" stroke="midnightblue" points="1561.6,-199.3 1570.13,-193.01 1559.54,-192.61 1561.6,-199.3"/>
</g>
<!-- Node33 -->
<g id="node33" class="node">
<title>Node33</title>
<g id="a_node33"><a xlink:title=" ">
<polygon fill="white" stroke="#bfbfbf" points="1217.23,-174 1217.23,-193 1282.23,-193 1282.23,-174 1217.23,-174"/>
<text text-anchor="middle" x="1249.73" y="-181" font-family="Helvetica,sans-Serif" font-size="10.00">functional</text>
</a>
</g>
</g>
<!-- Node28&#45;&gt;Node33 -->
<g id="edge49" class="edge">
<title>Node28&#45;&gt;Node33</title>
<path fill="none" stroke="midnightblue" d="M1382.52,-235.48C1356.05,-225.31 1311.61,-208.26 1281.51,-196.7"/>
<polygon fill="midnightblue" stroke="midnightblue" points="1282.48,-193.33 1271.89,-193.01 1279.98,-199.86 1282.48,-193.33"/>
</g>
<!-- Node29&#45;&gt;Node3 -->
<g id="edge44" class="edge">
<title>Node29&#45;&gt;Node3</title>
<path fill="none" stroke="midnightblue" d="M1564.74,-173.97C1555.41,-171.78 1545.21,-169.59 1535.73,-168 1402.7,-145.64 1244.75,-132.61 1160.91,-126.76"/>
<polygon fill="midnightblue" stroke="midnightblue" points="1161.03,-123.26 1150.81,-126.06 1160.55,-130.24 1161.03,-123.26"/>
</g>
<!-- Node29&#45;&gt;Node8 -->
<g id="edge46" class="edge">
<title>Node29&#45;&gt;Node8</title>
<path fill="none" stroke="midnightblue" d="M1592.88,-173.98C1584.63,-159.97 1566.8,-131.66 1546.73,-112 1508.81,-74.87 1455.85,-42 1425.23,-24.45"/>
<polygon fill="midnightblue" stroke="midnightblue" points="1426.92,-21.38 1416.49,-19.51 1423.48,-27.48 1426.92,-21.38"/>
</g>
<!-- Node30 -->
<g id="node30" class="node">
<title>Node30</title>
<g id="a_node30"><a xlink:title=" ">
<polygon fill="white" stroke="#bfbfbf" points="1493.73,-112.5 1493.73,-131.5 1537.73,-131.5 1537.73,-112.5 1493.73,-112.5"/>
<text text-anchor="middle" x="1515.73" y="-119.5" font-family="Helvetica,sans-Serif" font-size="10.00">ctime</text>
</a>
</g>
</g>
<!-- Node29&#45;&gt;Node30 -->
<g id="edge45" class="edge">
<title>Node29&#45;&gt;Node30</title>
<path fill="none" stroke="midnightblue" d="M1585.98,-173.98C1572.95,-164.52 1551.69,-149.1 1535.97,-137.69"/>
<polygon fill="midnightblue" stroke="midnightblue" points="1537.6,-134.55 1527.45,-131.51 1533.49,-140.21 1537.6,-134.55"/>
</g>
<!-- Node31 -->
<g id="node31" class="node">
<title>Node31</title>
<g id="a_node31"><a xlink:title=" ">
<polygon fill="white" stroke="#bfbfbf" points="1593.73,-112.5 1593.73,-131.5 1643.73,-131.5 1643.73,-112.5 1593.73,-112.5"/>
<text text-anchor="middle" x="1618.73" y="-119.5" font-family="Helvetica,sans-Serif" font-size="10.00">stdio.h</text>
</a>
</g>
</g>
<!-- Node29&#45;&gt;Node31 -->
<g id="edge47" class="edge">
<title>Node29&#45;&gt;Node31</title>
<path fill="none" stroke="midnightblue" d="M1600.74,-173.98C1603.76,-165.4 1608.52,-151.93 1612.38,-140.98"/>
<polygon fill="midnightblue" stroke="midnightblue" points="1615.7,-142.1 1615.72,-131.51 1609.1,-139.77 1615.7,-142.1"/>
</g>
<!-- Node32 -->
<g id="node32" class="node">
<title>Node32</title>
<g id="a_node32"><a xlink:title=" ">
<polygon fill="white" stroke="#bfbfbf" points="1661.73,-112.5 1661.73,-131.5 1705.73,-131.5 1705.73,-112.5 1661.73,-112.5"/>
<text text-anchor="middle" x="1683.73" y="-119.5" font-family="Helvetica,sans-Serif" font-size="10.00">string</text>
</a>
</g>
</g>
<!-- Node29&#45;&gt;Node32 -->
<g id="edge48" class="edge">
<title>Node29&#45;&gt;Node32</title>
<path fill="none" stroke="midnightblue" d="M1610.05,-173.98C1623.84,-164.43 1646.43,-148.81 1662.96,-137.37"/>
<polygon fill="midnightblue" stroke="midnightblue" points="1665.2,-140.08 1671.43,-131.51 1661.21,-134.32 1665.2,-140.08"/>
</g>
<!-- Node35&#45;&gt;Node4 -->
<g id="edge53" class="edge">
<title>Node35&#45;&gt;Node4</title>
<path fill="none" stroke="midnightblue" d="M748.72,-235.41C743.8,-211.92 733.84,-146.08 767.73,-112 803.49,-76.03 944.02,-68.14 1031,-66.8"/>
<polygon fill="midnightblue" stroke="midnightblue" points="1031.11,-70.29 1041.07,-66.67 1031.02,-63.3 1031.11,-70.29"/>
</g>
<!-- Node35&#45;&gt;Node15 -->
<g id="edge60" class="edge">
<title>Node35&#45;&gt;Node15</title>
<path fill="none" stroke="midnightblue" d="M732.87,-235.36C694.18,-216.67 604.97,-173.69 590.73,-168 558.33,-155.04 520.6,-142.86 492.94,-134.44"/>
<polygon fill="midnightblue" stroke="midnightblue" points="493.83,-131.05 483.24,-131.52 491.81,-137.75 493.83,-131.05"/>
</g>
<!-- Node35&#45;&gt;Node16 -->
<g id="edge61" class="edge">
<title>Node35&#45;&gt;Node16</title>
<path fill="none" stroke="midnightblue" d="M694.19,-240.26C638.75,-235.27 552.5,-223.97 481.73,-199 438.36,-183.69 392.69,-154.93 367.15,-137.51"/>
<polygon fill="midnightblue" stroke="midnightblue" points="368.9,-134.47 358.69,-131.65 364.92,-140.22 368.9,-134.47"/>
</g>
<!-- Node36 -->
<g id="node36" class="node">
<title>Node36</title>
<g id="a_node36"><a xlink:href="Math_8hpp.html" target="_top" xlink:title=" ">
<polygon fill="white" stroke="black" points="836.73,-174 836.73,-193 952.73,-193 952.73,-174 836.73,-174"/>
<text text-anchor="middle" x="894.73" y="-181" font-family="Helvetica,sans-Serif" font-size="10.00">Core/Math/Math.hpp</text>
</a>
</g>
</g>
<!-- Node35&#45;&gt;Node36 -->
<g id="edge54" class="edge">
<title>Node35&#45;&gt;Node36</title>
<path fill="none" stroke="midnightblue" d="M771.36,-235.48C795.85,-225.36 836.87,-208.4 864.84,-196.85"/>
<polygon fill="midnightblue" stroke="midnightblue" points="866.23,-200.06 874.13,-193.01 863.56,-193.59 866.23,-200.06"/>
</g>
<!-- Node40 -->
<g id="node40" class="node">
<title>Node40</title>
<g id="a_node40"><a xlink:title=" ">
<polygon fill="white" stroke="#bfbfbf" points="666.73,-174 666.73,-193 720.73,-193 720.73,-174 666.73,-174"/>
<text text-anchor="middle" x="693.73" y="-181" font-family="Helvetica,sans-Serif" font-size="10.00">random</text>
</a>
</g>
</g>
<!-- Node35&#45;&gt;Node40 -->
<g id="edge62" class="edge">
<title>Node35&#45;&gt;Node40</title>
<path fill="none" stroke="midnightblue" d="M742.56,-235.48C733.84,-226.37 719.82,-211.74 709.04,-200.48"/>
<polygon fill="midnightblue" stroke="midnightblue" points="711.32,-197.81 701.88,-193.01 706.27,-202.65 711.32,-197.81"/>
</g>
<!-- Node36&#45;&gt;Node3 -->
<g id="edge55" class="edge">
<title>Node36&#45;&gt;Node3</title>
<path fill="none" stroke="midnightblue" d="M924.39,-173.98C960.66,-163.55 1022.19,-145.86 1062.39,-134.31"/>
<polygon fill="midnightblue" stroke="midnightblue" points="1063.48,-137.64 1072.12,-131.51 1061.55,-130.91 1063.48,-137.64"/>
</g>
<!-- Node37 -->
<g id="node37" class="node">
<title>Node37</title>
<g id="a_node37"><a xlink:title=" ">
<polygon fill="white" stroke="#bfbfbf" points="970.73,-112.5 970.73,-131.5 1034.73,-131.5 1034.73,-112.5 970.73,-112.5"/>
<text text-anchor="middle" x="1002.73" y="-119.5" font-family="Helvetica,sans-Serif" font-size="10.00">algorithm</text>
</a>
</g>
</g>
<!-- Node36&#45;&gt;Node37 -->
<g id="edge56" class="edge">
<title>Node36&#45;&gt;Node37</title>
<path fill="none" stroke="midnightblue" d="M910.2,-173.98C928.01,-164.17 957.47,-147.93 978.36,-136.42"/>
<polygon fill="midnightblue" stroke="midnightblue" points="980.21,-139.4 987.28,-131.51 976.83,-133.27 980.21,-139.4"/>
</g>
<!-- Node38 -->
<g id="node38" class="node">
<title>Node38</title>
<g id="a_node38"><a xlink:title=" ">
<polygon fill="white" stroke="#bfbfbf" points="777.23,-112.5 777.23,-131.5 824.23,-131.5 824.23,-112.5 777.23,-112.5"/>
<text text-anchor="middle" x="800.73" y="-119.5" font-family="Helvetica,sans-Serif" font-size="10.00">cmath</text>
</a>
</g>
</g>
<!-- Node36&#45;&gt;Node38 -->
<g id="edge57" class="edge">
<title>Node36&#45;&gt;Node38</title>
<path fill="none" stroke="midnightblue" d="M881.26,-173.98C866.04,-164.34 841.04,-148.52 822.93,-137.05"/>
<polygon fill="midnightblue" stroke="midnightblue" points="824.49,-133.9 814.17,-131.51 820.75,-139.81 824.49,-133.9"/>
</g>
<!-- Node39 -->
<g id="node39" class="node">
<title>Node39</title>
<g id="a_node39"><a xlink:href="Math_8inl.html" target="_top" xlink:title=" ">
<polygon fill="white" stroke="black" points="842.73,-112.5 842.73,-131.5 952.73,-131.5 952.73,-112.5 842.73,-112.5"/>
<text text-anchor="middle" x="897.73" y="-119.5" font-family="Helvetica,sans-Serif" font-size="10.00">Core/Math/Math.inl</text>
</a>
</g>
</g>
<!-- Node36&#45;&gt;Node39 -->
<g id="edge58" class="edge">
<title>Node36&#45;&gt;Node39</title>
<path fill="none" stroke="midnightblue" d="M890.26,-173.98C888.85,-165.58 889.04,-152.48 890.47,-141.66"/>
<polygon fill="midnightblue" stroke="midnightblue" points="893.97,-141.99 892.4,-131.51 887.1,-140.68 893.97,-141.99"/>
</g>
<!-- Node39&#45;&gt;Node36 -->
<g id="edge59" class="edge">
<title>Node39&#45;&gt;Node36</title>
<path fill="none" stroke="midnightblue" d="M902.2,-131.51C903.61,-139.9 903.42,-153 901.99,-163.82"/>
<polygon fill="midnightblue" stroke="midnightblue" points="898.48,-163.5 900.06,-173.98 905.36,-164.8 898.48,-163.5"/>
</g>
<!-- Node41&#45;&gt;Node21 -->
<g id="edge65" class="edge">
<title>Node41&#45;&gt;Node21</title>
<path fill="none" stroke="midnightblue" d="M614.69,-310.51C692.14,-321.33 821.67,-339.97 899.32,-351.47"/>
<polygon fill="midnightblue" stroke="midnightblue" points="899.05,-354.97 909.46,-352.98 900.08,-348.05 899.05,-354.97"/>
</g>
<!-- Node42 -->
<g id="node42" class="node">
<title>Node42</title>
<g id="a_node42"><a xlink:href="TriangleOperation_8hpp.html" target="_top" xlink:title=" ">
<polygon fill="white" stroke="black" points="436.23,-235.5 436.23,-254.5 637.23,-254.5 637.23,-235.5 436.23,-235.5"/>
<text text-anchor="middle" x="536.73" y="-242.5" font-family="Helvetica,sans-Serif" font-size="10.00">Core/Geometry/TriangleOperation.hpp</text>
</a>
</g>
</g>
<!-- Node41&#45;&gt;Node42 -->
<g id="edge66" class="edge">
<title>Node41&#45;&gt;Node42</title>
<path fill="none" stroke="midnightblue" d="M548.42,-291.08C546.56,-283.93 543.89,-273.64 541.57,-264.69"/>
<polygon fill="midnightblue" stroke="midnightblue" points="544.89,-263.55 539,-254.75 538.12,-265.31 544.89,-263.55"/>
</g>
<!-- Node42&#45;&gt;Node17 -->
<g id="edge67" class="edge">
<title>Node42&#45;&gt;Node17</title>
<path fill="none" stroke="midnightblue" d="M536.73,-235.48C536.73,-227.08 536.73,-213.98 536.73,-203.16"/>
<polygon fill="midnightblue" stroke="midnightblue" points="540.23,-203.01 536.73,-193.01 533.23,-203.01 540.23,-203.01"/>
</g>
</g>
</svg>
