<?xml version="1.0" encoding="UTF-8" standalone="no"?>
<!DOCTYPE svg PUBLIC "-//W3C//DTD SVG 1.1//EN"
 "http://www.w3.org/Graphics/SVG/1.1/DTD/svg11.dtd">
<!-- Generated by graphviz version 2.43.0 (0)
 -->
<!-- Title: /home/runner/work/Radium&#45;Engine/Radium&#45;Engine/src/Radium&#45;Engine/src/Core/Geometry/TopologicalMesh.inl Pages: 1 -->
<svg width="816pt" height="328pt"
 viewBox="0.00 0.00 816.00 328.00" xmlns="http://www.w3.org/2000/svg" xmlns:xlink="http://www.w3.org/1999/xlink">
<g id="graph0" class="graph" transform="scale(1 1) rotate(0) translate(4 324)">
<title>/home/runner/work/Radium&#45;Engine/Radium&#45;Engine/src/Radium&#45;Engine/src/Core/Geometry/TopologicalMesh.inl</title>
<polygon fill="white" stroke="transparent" points="-4,4 -4,-324 812,-324 812,4 -4,4"/>
<!-- Node1 -->
<g id="node1" class="node">
<title>Node1</title>
<g id="a_node1"><a xlink:title=" ">
<polygon fill="#bfbfbf" stroke="black" points="311,-267.5 311,-319.5 499,-319.5 499,-267.5 311,-267.5"/>
<text text-anchor="start" x="319" y="-307.5" font-family="Helvetica,sans-Serif" font-size="10.00">/home/runner/work/Radium</text>
<text text-anchor="start" x="319" y="-296.5" font-family="Helvetica,sans-Serif" font-size="10.00">&#45;Engine/Radium&#45;Engine/src</text>
<text text-anchor="start" x="319" y="-285.5" font-family="Helvetica,sans-Serif" font-size="10.00">/Radium&#45;Engine/src/Core/Geometry</text>
<text text-anchor="middle" x="405" y="-274.5" font-family="Helvetica,sans-Serif" font-size="10.00">/TopologicalMesh.inl</text>
</a>
</g>
</g>
<!-- Node2 -->
<g id="node2" class="node">
<title>Node2</title>
<g id="a_node2"><a xlink:href="TopologicalMesh_8hpp.html" target="_top" xlink:title=" ">
<polygon fill="white" stroke="black" points="311,-178.5 311,-230.5 499,-230.5 499,-178.5 311,-178.5"/>
<text text-anchor="start" x="319" y="-218.5" font-family="Helvetica,sans-Serif" font-size="10.00">/home/runner/work/Radium</text>
<text text-anchor="start" x="319" y="-207.5" font-family="Helvetica,sans-Serif" font-size="10.00">&#45;Engine/Radium&#45;Engine/src</text>
<text text-anchor="start" x="319" y="-196.5" font-family="Helvetica,sans-Serif" font-size="10.00">/Radium&#45;Engine/src/Core/Geometry</text>
<text text-anchor="middle" x="405" y="-185.5" font-family="Helvetica,sans-Serif" font-size="10.00">/TopologicalMesh.hpp</text>
</a>
</g>
</g>
<!-- Node1&#45;&gt;Node2 -->
<g id="edge1" class="edge">
<title>Node1&#45;&gt;Node2</title>
<path fill="none" stroke="midnightblue" d="M398.36,-257.19C398.12,-248.28 398.27,-238.9 398.82,-230.61"/>
<polygon fill="midnightblue" stroke="midnightblue" points="394.87,-257.5 398.81,-267.34 401.86,-257.19 394.87,-257.5"/>
</g>
<!-- Node2&#45;&gt;Node1 -->
<g id="edge3" class="edge">
<title>Node2&#45;&gt;Node1</title>
<path fill="none" stroke="midnightblue" d="M411.64,-240.75C411.88,-249.65 411.73,-259.04 411.19,-267.34"/>
<polygon fill="midnightblue" stroke="midnightblue" points="415.13,-240.44 411.18,-230.61 408.14,-240.76 415.13,-240.44"/>
</g>
<!-- Node3 -->
<g id="node3" class="node">
<title>Node3</title>
<g id="a_node3"><a xlink:href="RotationCenterSkinning_8cpp.html" target="_top" xlink:title=" ">
<polygon fill="white" stroke="black" points="0,-89.5 0,-141.5 190,-141.5 190,-89.5 0,-89.5"/>
<text text-anchor="start" x="8" y="-129.5" font-family="Helvetica,sans-Serif" font-size="10.00">/home/runner/work/Radium</text>
<text text-anchor="start" x="8" y="-118.5" font-family="Helvetica,sans-Serif" font-size="10.00">&#45;Engine/Radium&#45;Engine/src</text>
<text text-anchor="start" x="8" y="-107.5" font-family="Helvetica,sans-Serif" font-size="10.00">/Radium&#45;Engine/src/Core/Animation</text>
<text text-anchor="middle" x="95" y="-96.5" font-family="Helvetica,sans-Serif" font-size="10.00">/RotationCenterSkinning.cpp</text>
</a>
</g>
</g>
<!-- Node2&#45;&gt;Node3 -->
<g id="edge2" class="edge">
<title>Node2&#45;&gt;Node3</title>
<path fill="none" stroke="midnightblue" d="M305.93,-175.7C266.83,-164.72 222.24,-152.21 184.16,-141.52"/>
<polygon fill="midnightblue" stroke="midnightblue" points="305.18,-179.12 315.75,-178.45 307.07,-172.38 305.18,-179.12"/>
</g>
<!-- Node4 -->
<g id="node4" class="node">
<title>Node4</title>
<g id="a_node4"><a xlink:href="CatmullClarkSubdivider_8hpp.html" target="_top" xlink:title=" ">
<polygon fill="white" stroke="black" points="208,-89.5 208,-141.5 396,-141.5 396,-89.5 208,-89.5"/>
<text text-anchor="start" x="216" y="-129.5" font-family="Helvetica,sans-Serif" font-size="10.00">/home/runner/work/Radium</text>
<text text-anchor="start" x="216" y="-118.5" font-family="Helvetica,sans-Serif" font-size="10.00">&#45;Engine/Radium&#45;Engine/src</text>
<text text-anchor="start" x="216" y="-107.5" font-family="Helvetica,sans-Serif" font-size="10.00">/Radium&#45;Engine/src/Core/Geometry</text>
<text text-anchor="middle" x="302" y="-96.5" font-family="Helvetica,sans-Serif" font-size="10.00">/CatmullClarkSubdivider.hpp</text>
</a>
</g>
</g>
<!-- Node2&#45;&gt;Node4 -->
<g id="edge4" class="edge">
<title>Node2&#45;&gt;Node4</title>
<path fill="none" stroke="midnightblue" d="M367.29,-171.65C355.57,-161.75 342.82,-150.98 331.72,-141.61"/>
<polygon fill="midnightblue" stroke="midnightblue" points="365.31,-174.56 375.21,-178.34 369.83,-169.21 365.31,-174.56"/>
</g>
<!-- Node6 -->
<g id="node6" class="node">
<title>Node6</title>
<g id="a_node6"><a xlink:href="LoopSubdivider_8hpp.html" target="_top" xlink:title=" ">
<polygon fill="white" stroke="black" points="414,-89.5 414,-141.5 602,-141.5 602,-89.5 414,-89.5"/>
<text text-anchor="start" x="422" y="-129.5" font-family="Helvetica,sans-Serif" font-size="10.00">/home/runner/work/Radium</text>
<text text-anchor="start" x="422" y="-118.5" font-family="Helvetica,sans-Serif" font-size="10.00">&#45;Engine/Radium&#45;Engine/src</text>
<text text-anchor="start" x="422" y="-107.5" font-family="Helvetica,sans-Serif" font-size="10.00">/Radium&#45;Engine/src/Core/Geometry</text>
<text text-anchor="middle" x="508" y="-96.5" font-family="Helvetica,sans-Serif" font-size="10.00">/LoopSubdivider.hpp</text>
</a>
</g>
</g>
<!-- Node2&#45;&gt;Node6 -->
<g id="edge6" class="edge">
<title>Node2&#45;&gt;Node6</title>
<path fill="none" stroke="midnightblue" d="M442.71,-171.65C454.43,-161.75 467.18,-150.98 478.28,-141.61"/>
<polygon fill="midnightblue" stroke="midnightblue" points="440.17,-169.21 434.79,-178.34 444.69,-174.56 440.17,-169.21"/>
</g>
<!-- Node8 -->
<g id="node8" class="node">
<title>Node8</title>
<g id="a_node8"><a xlink:href="TopologicalMesh_8cpp.html" target="_top" xlink:title=" ">
<polygon fill="white" stroke="black" points="620,-89.5 620,-141.5 808,-141.5 808,-89.5 620,-89.5"/>
<text text-anchor="start" x="628" y="-129.5" font-family="Helvetica,sans-Serif" font-size="10.00">/home/runner/work/Radium</text>
<text text-anchor="start" x="628" y="-118.5" font-family="Helvetica,sans-Serif" font-size="10.00">&#45;Engine/Radium&#45;Engine/src</text>
<text text-anchor="start" x="628" y="-107.5" font-family="Helvetica,sans-Serif" font-size="10.00">/Radium&#45;Engine/src/Core/Geometry</text>
<text text-anchor="middle" x="714" y="-96.5" font-family="Helvetica,sans-Serif" font-size="10.00">/TopologicalMesh.cpp</text>
</a>
</g>
</g>
<!-- Node2&#45;&gt;Node8 -->
<g id="edge8" class="edge">
<title>Node2&#45;&gt;Node8</title>
<path fill="none" stroke="midnightblue" d="M503.75,-175.7C542.73,-164.72 587.18,-152.21 625.13,-141.52"/>
<polygon fill="midnightblue" stroke="midnightblue" points="502.64,-172.37 493.96,-178.45 504.54,-179.11 502.64,-172.37"/>
</g>
<!-- Node5 -->
<g id="node5" class="node">
<title>Node5</title>
<g id="a_node5"><a xlink:href="CatmullClarkSubdivider_8cpp.html" target="_top" xlink:title=" ">
<polygon fill="white" stroke="black" points="208,-0.5 208,-52.5 396,-52.5 396,-0.5 208,-0.5"/>
<text text-anchor="start" x="216" y="-40.5" font-family="Helvetica,sans-Serif" font-size="10.00">/home/runner/work/Radium</text>
<text text-anchor="start" x="216" y="-29.5" font-family="Helvetica,sans-Serif" font-size="10.00">&#45;Engine/Radium&#45;Engine/src</text>
<text text-anchor="start" x="216" y="-18.5" font-family="Helvetica,sans-Serif" font-size="10.00">/Radium&#45;Engine/src/Core/Geometry</text>
<text text-anchor="middle" x="302" y="-7.5" font-family="Helvetica,sans-Serif" font-size="10.00">/CatmullClarkSubdivider.cpp</text>
</a>
</g>
</g>
<!-- Node4&#45;&gt;Node5 -->
<g id="edge5" class="edge">
<title>Node4&#45;&gt;Node5</title>
<path fill="none" stroke="midnightblue" d="M302,-79.19C302,-70.28 302,-60.9 302,-52.61"/>
<polygon fill="midnightblue" stroke="midnightblue" points="298.5,-79.34 302,-89.34 305.5,-79.34 298.5,-79.34"/>
</g>
<!-- Node7 -->
<g id="node7" class="node">
<title>Node7</title>
<g id="a_node7"><a xlink:href="LoopSubdivider_8cpp.html" target="_top" xlink:title=" ">
<polygon fill="white" stroke="black" points="414,-0.5 414,-52.5 602,-52.5 602,-0.5 414,-0.5"/>
<text text-anchor="start" x="422" y="-40.5" font-family="Helvetica,sans-Serif" font-size="10.00">/home/runner/work/Radium</text>
<text text-anchor="start" x="422" y="-29.5" font-family="Helvetica,sans-Serif" font-size="10.00">&#45;Engine/Radium&#45;Engine/src</text>
<text text-anchor="start" x="422" y="-18.5" font-family="Helvetica,sans-Serif" font-size="10.00">/Radium&#45;Engine/src/Core/Geometry</text>
<text text-anchor="middle" x="508" y="-7.5" font-family="Helvetica,sans-Serif" font-size="10.00">/LoopSubdivider.cpp</text>
</a>
</g>
</g>
<!-- Node6&#45;&gt;Node7 -->
<g id="edge7" class="edge">
<title>Node6&#45;&gt;Node7</title>
<path fill="none" stroke="midnightblue" d="M508,-79.19C508,-70.28 508,-60.9 508,-52.61"/>
<polygon fill="midnightblue" stroke="midnightblue" points="504.5,-79.34 508,-89.34 511.5,-79.34 504.5,-79.34"/>
</g>
</g>
</svg>
