<?xml version="1.0" encoding="UTF-8" standalone="no"?>
<!DOCTYPE svg PUBLIC "-//W3C//DTD SVG 1.1//EN"
 "http://www.w3.org/Graphics/SVG/1.1/DTD/svg11.dtd">
<!-- Generated by graphviz version 2.40.1 (20161225.0304)
 -->
<!-- Title: src/GuiBase/TransformEditor/TransformEditor.cpp Pages: 1 -->
<svg width="1176pt" height="408pt"
 viewBox="0.00 0.00 1175.74 408.00" xmlns="http://www.w3.org/2000/svg" xmlns:xlink="http://www.w3.org/1999/xlink">
<g id="graph0" class="graph" transform="scale(1 1) rotate(0) translate(4 404)">
<title>src/GuiBase/TransformEditor/TransformEditor.cpp</title>
<polygon fill="#ffffff" stroke="transparent" points="-4,4 -4,-404 1171.7384,-404 1171.7384,4 -4,4"/>
<!-- Node0 -->
<g id="node1" class="node">
<title>Node0</title>
<polygon fill="#bfbfbf" stroke="#000000" points="273.2384,-369.5 273.2384,-399.5 428.2384,-399.5 428.2384,-369.5 273.2384,-369.5"/>
<text text-anchor="start" x="281.2384" y="-387.5" font-family="Helvetica,sans-Serif" font-size="10.00" fill="#000000">src/GuiBase/TransformEditor</text>
<text text-anchor="middle" x="350.7384" y="-376.5" font-family="Helvetica,sans-Serif" font-size="10.00" fill="#000000">/TransformEditor.cpp</text>
</g>
<!-- Node1 -->
<g id="node2" class="node">
<title>Node1</title>
<g id="a_node2"><a xlink:href="TransformEditor_8hpp.html" target="_top" xlink:title="GuiBase/TransformEditor\l/TransformEditor.hpp">
<polygon fill="#ffffff" stroke="#000000" points="125.2384,-302.5 125.2384,-332.5 262.2384,-332.5 262.2384,-302.5 125.2384,-302.5"/>
<text text-anchor="start" x="133.2384" y="-320.5" font-family="Helvetica,sans-Serif" font-size="10.00" fill="#000000">GuiBase/TransformEditor</text>
<text text-anchor="middle" x="193.7384" y="-309.5" font-family="Helvetica,sans-Serif" font-size="10.00" fill="#000000">/TransformEditor.hpp</text>
</a>
</g>
</g>
<!-- Node0&#45;&gt;Node1 -->
<g id="edge1" class="edge">
<title>Node0&#45;&gt;Node1</title>
<path fill="none" stroke="#191970" d="M315.5045,-369.4639C292.7578,-359.7567 262.9625,-347.0415 238.539,-336.6188"/>
<polygon fill="#191970" stroke="#191970" points="239.6972,-333.3077 229.1259,-332.6017 236.9496,-339.7459 239.6972,-333.3077"/>
</g>
<!-- Node26 -->
<g id="node27" class="node">
<title>Node26</title>
<g id="a_node27"><a xlink:href="Component_8hpp.html" target="_top" xlink:title="Engine/Component/Component.hpp">
<polygon fill="#ffffff" stroke="#000000" points="256.2384,-246.5 256.2384,-265.5 445.2384,-265.5 445.2384,-246.5 256.2384,-246.5"/>
<text text-anchor="middle" x="350.7384" y="-253.5" font-family="Helvetica,sans-Serif" font-size="10.00" fill="#000000">Engine/Component/Component.hpp</text>
</a>
</g>
</g>
<!-- Node0&#45;&gt;Node26 -->
<g id="edge31" class="edge">
<title>Node0&#45;&gt;Node26</title>
<path fill="none" stroke="#191970" d="M350.7384,-369.2548C350.7384,-345.9744 350.7384,-301.5607 350.7384,-275.8117"/>
<polygon fill="#191970" stroke="#191970" points="354.2385,-275.7358 350.7384,-265.7358 347.2385,-275.7358 354.2385,-275.7358"/>
</g>
<!-- Node28 -->
<g id="node29" class="node">
<title>Node28</title>
<g id="a_node29"><a xlink:href="Entity_8hpp.html" target="_top" xlink:title="Engine/Entity/Entity.hpp">
<polygon fill="#ffffff" stroke="#000000" points="841.7384,-308 841.7384,-327 973.7384,-327 973.7384,-308 841.7384,-308"/>
<text text-anchor="middle" x="907.7384" y="-315" font-family="Helvetica,sans-Serif" font-size="10.00" fill="#000000">Engine/Entity/Entity.hpp</text>
</a>
</g>
</g>
<!-- Node0&#45;&gt;Node28 -->
<g id="edge40" class="edge">
<title>Node0&#45;&gt;Node28</title>
<path fill="none" stroke="#191970" d="M428.4799,-375.1487C535.1316,-362.3198 725.6159,-339.407 831.4825,-326.6726"/>
<polygon fill="#191970" stroke="#191970" points="831.9475,-330.142 841.4579,-325.4727 831.1115,-323.1921 831.9475,-330.142"/>
</g>
<!-- Node2 -->
<g id="node3" class="node">
<title>Node2</title>
<g id="a_node3"><a xlink:href="Types_8hpp.html" target="_top" xlink:title="Core/Types.hpp">
<polygon fill="#ffffff" stroke="#000000" points="27.2384,-190.5 27.2384,-209.5 118.2384,-209.5 118.2384,-190.5 27.2384,-190.5"/>
<text text-anchor="middle" x="72.7384" y="-197.5" font-family="Helvetica,sans-Serif" font-size="10.00" fill="#000000">Core/Types.hpp</text>
</a>
</g>
</g>
<!-- Node1&#45;&gt;Node2 -->
<g id="edge2" class="edge">
<title>Node1&#45;&gt;Node2</title>
<path fill="none" stroke="#191970" d="M134.4228,-302.4422C101.8651,-292.8483 66.2129,-279.6834 56.7384,-266 47.0315,-251.981 53.3988,-232.7373 60.7764,-218.6465"/>
<polygon fill="#191970" stroke="#191970" points="63.8907,-220.2524 65.8602,-209.8422 57.8287,-216.752 63.8907,-220.2524"/>
</g>
<!-- Node13 -->
<g id="node14" class="node">
<title>Node13</title>
<g id="a_node14"><a xlink:href="ItemEntry_8hpp.html" target="_top" xlink:title="Engine/ItemModel/ItemEntry.hpp">
<polygon fill="#ffffff" stroke="#000000" points="678.2384,-246.5 678.2384,-265.5 853.2384,-265.5 853.2384,-246.5 678.2384,-246.5"/>
<text text-anchor="middle" x="765.7384" y="-253.5" font-family="Helvetica,sans-Serif" font-size="10.00" fill="#000000">Engine/ItemModel/ItemEntry.hpp</text>
</a>
</g>
</g>
<!-- Node1&#45;&gt;Node13 -->
<g id="edge13" class="edge">
<title>Node1&#45;&gt;Node13</title>
<path fill="none" stroke="#191970" d="M262.4506,-310.1122C363.4444,-299.2536 552.4561,-278.9316 667.9106,-266.5182"/>
<polygon fill="#191970" stroke="#191970" points="668.5902,-269.9654 678.1587,-265.4163 667.8419,-263.0055 668.5902,-269.9654"/>
</g>
<!-- Node25 -->
<g id="node26" class="node">
<title>Node25</title>
<g id="a_node26"><a xlink:href="RaGuiBase_8hpp.html" target="_top" xlink:title="GuiBase/RaGuiBase.hpp">
<polygon fill="#ffffff" stroke="#000000" points="65.7384,-246.5 65.7384,-265.5 199.7384,-265.5 199.7384,-246.5 65.7384,-246.5"/>
<text text-anchor="middle" x="132.7384" y="-253.5" font-family="Helvetica,sans-Serif" font-size="10.00" fill="#000000">GuiBase/RaGuiBase.hpp</text>
</a>
</g>
</g>
<!-- Node1&#45;&gt;Node25 -->
<g id="edge28" class="edge">
<title>Node1&#45;&gt;Node25</title>
<path fill="none" stroke="#191970" d="M178.6597,-302.2977C169.8395,-293.4052 158.6843,-282.1586 149.5772,-272.9769"/>
<polygon fill="#191970" stroke="#191970" points="152.0324,-270.4821 142.5053,-265.8469 147.0625,-275.4116 152.0324,-270.4821"/>
</g>
<!-- Node3 -->
<g id="node4" class="node">
<title>Node3</title>
<g id="a_node4"><a xlink:href="RaCore_8hpp.html" target="_top" xlink:title="Core/RaCore.hpp">
<polygon fill="#ffffff" stroke="#000000" points="363.7384,-129 363.7384,-148 461.7384,-148 461.7384,-129 363.7384,-129"/>
<text text-anchor="middle" x="412.7384" y="-136" font-family="Helvetica,sans-Serif" font-size="10.00" fill="#000000">Core/RaCore.hpp</text>
</a>
</g>
</g>
<!-- Node2&#45;&gt;Node3 -->
<g id="edge3" class="edge">
<title>Node2&#45;&gt;Node3</title>
<path fill="none" stroke="#191970" d="M118.4006,-191.5276C121.2217,-191.0093 124.0184,-190.4967 126.7384,-190 205.1609,-175.678 295.7336,-159.4156 353.5798,-149.0646"/>
<polygon fill="#191970" stroke="#191970" points="354.4083,-152.472 363.6357,-147.2657 353.1756,-145.5814 354.4083,-152.472"/>
</g>
<!-- Node10 -->
<g id="node11" class="node">
<title>Node10</title>
<polygon fill="#ffffff" stroke="#bfbfbf" points="125.2384,-129 125.2384,-148 194.2384,-148 194.2384,-129 125.2384,-129"/>
<text text-anchor="middle" x="159.7384" y="-136" font-family="Helvetica,sans-Serif" font-size="10.00" fill="#000000">Eigen/Core</text>
</g>
<!-- Node2&#45;&gt;Node10 -->
<g id="edge10" class="edge">
<title>Node2&#45;&gt;Node10</title>
<path fill="none" stroke="#191970" d="M86.3321,-190.3906C100.1227,-180.6421 121.6856,-165.3994 137.8794,-153.9521"/>
<polygon fill="#191970" stroke="#191970" points="140.0946,-156.6723 146.2401,-148.0419 136.054,-150.9563 140.0946,-156.6723"/>
</g>
<!-- Node11 -->
<g id="node12" class="node">
<title>Node11</title>
<polygon fill="#ffffff" stroke="#bfbfbf" points="212.2384,-129 212.2384,-148 307.2384,-148 307.2384,-129 212.2384,-129"/>
<text text-anchor="middle" x="259.7384" y="-136" font-family="Helvetica,sans-Serif" font-size="10.00" fill="#000000">Eigen/Geometry</text>
</g>
<!-- Node2&#45;&gt;Node11 -->
<g id="edge11" class="edge">
<title>Node2&#45;&gt;Node11</title>
<path fill="none" stroke="#191970" d="M101.9571,-190.3906C134.069,-179.8298 185.7874,-162.8208 221.1991,-151.1747"/>
<polygon fill="#191970" stroke="#191970" points="222.3188,-154.4909 230.7248,-148.0419 220.1319,-147.8413 222.3188,-154.4909"/>
</g>
<!-- Node12 -->
<g id="node13" class="node">
<title>Node12</title>
<polygon fill="#ffffff" stroke="#bfbfbf" points="26.7384,-129 26.7384,-148 106.7384,-148 106.7384,-129 26.7384,-129"/>
<text text-anchor="middle" x="66.7384" y="-136" font-family="Helvetica,sans-Serif" font-size="10.00" fill="#000000">Eigen/Sparse</text>
</g>
<!-- Node2&#45;&gt;Node12 -->
<g id="edge12" class="edge">
<title>Node2&#45;&gt;Node12</title>
<path fill="none" stroke="#191970" d="M71.8009,-190.3906C70.9692,-181.8657 69.7276,-169.1392 68.6821,-158.4235"/>
<polygon fill="#191970" stroke="#191970" points="72.1437,-157.8577 67.6891,-148.2449 65.1767,-158.5375 72.1437,-157.8577"/>
</g>
<!-- Node4 -->
<g id="node5" class="node">
<title>Node4</title>
<g id="a_node5"><a xlink:href="CoreMacros_8hpp.html" target="_top" xlink:title="Core/CoreMacros.hpp">
<polygon fill="#ffffff" stroke="#000000" points="275.7384,-62 275.7384,-81 395.7384,-81 395.7384,-62 275.7384,-62"/>
<text text-anchor="middle" x="335.7384" y="-69" font-family="Helvetica,sans-Serif" font-size="10.00" fill="#000000">Core/CoreMacros.hpp</text>
</a>
</g>
</g>
<!-- Node3&#45;&gt;Node4 -->
<g id="edge4" class="edge">
<title>Node3&#45;&gt;Node4</title>
<path fill="none" stroke="#191970" d="M401.7062,-128.9005C389.3556,-118.1539 369.1361,-100.5603 354.3327,-87.6794"/>
<polygon fill="#191970" stroke="#191970" points="356.5916,-85.0055 346.7501,-81.0817 351.9966,-90.2863 356.5916,-85.0055"/>
</g>
<!-- Node5 -->
<g id="node6" class="node">
<title>Node5</title>
<polygon fill="#ffffff" stroke="#bfbfbf" points="419.7384,-.5 419.7384,-19.5 471.7384,-19.5 471.7384,-.5 419.7384,-.5"/>
<text text-anchor="middle" x="445.7384" y="-7.5" font-family="Helvetica,sans-Serif" font-size="10.00" fill="#000000">cassert</text>
</g>
<!-- Node4&#45;&gt;Node5 -->
<g id="edge5" class="edge">
<title>Node4&#45;&gt;Node5</title>
<path fill="none" stroke="#191970" d="M352.9259,-61.8906C370.8466,-51.8713 399.1479,-36.0483 419.7907,-24.5071"/>
<polygon fill="#191970" stroke="#191970" points="421.6511,-27.4769 428.6716,-19.5419 418.2351,-21.367 421.6511,-27.4769"/>
</g>
<!-- Node6 -->
<g id="node7" class="node">
<title>Node6</title>
<polygon fill="#ffffff" stroke="#bfbfbf" points="203.7384,-.5 203.7384,-19.5 249.7384,-19.5 249.7384,-.5 203.7384,-.5"/>
<text text-anchor="middle" x="226.7384" y="-7.5" font-family="Helvetica,sans-Serif" font-size="10.00" fill="#000000">cstdio</text>
</g>
<!-- Node4&#45;&gt;Node6 -->
<g id="edge6" class="edge">
<title>Node4&#45;&gt;Node6</title>
<path fill="none" stroke="#191970" d="M318.7071,-61.8906C300.9494,-51.8713 272.9054,-36.0483 252.4502,-24.5071"/>
<polygon fill="#191970" stroke="#191970" points="254.0793,-21.4077 243.65,-19.5419 250.6395,-27.5042 254.0793,-21.4077"/>
</g>
<!-- Node7 -->
<g id="node8" class="node">
<title>Node7</title>
<polygon fill="#ffffff" stroke="#bfbfbf" points="267.7384,-.5 267.7384,-19.5 327.7384,-19.5 327.7384,-.5 267.7384,-.5"/>
<text text-anchor="middle" x="297.7384" y="-7.5" font-family="Helvetica,sans-Serif" font-size="10.00" fill="#000000">iostream</text>
</g>
<!-- Node4&#45;&gt;Node7 -->
<g id="edge7" class="edge">
<title>Node4&#45;&gt;Node7</title>
<path fill="none" stroke="#191970" d="M329.8009,-61.8906C324.3117,-53.0068 316.0031,-39.5601 309.2194,-28.5811"/>
<polygon fill="#191970" stroke="#191970" points="311.9935,-26.4122 303.7596,-19.7449 306.0386,-30.0917 311.9935,-26.4122"/>
</g>
<!-- Node8 -->
<g id="node9" class="node">
<title>Node8</title>
<polygon fill="#ffffff" stroke="#bfbfbf" points="345.7384,-.5 345.7384,-19.5 401.7384,-19.5 401.7384,-.5 345.7384,-.5"/>
<text text-anchor="middle" x="373.7384" y="-7.5" font-family="Helvetica,sans-Serif" font-size="10.00" fill="#000000">sstream</text>
</g>
<!-- Node4&#45;&gt;Node8 -->
<g id="edge8" class="edge">
<title>Node4&#45;&gt;Node8</title>
<path fill="none" stroke="#191970" d="M341.6759,-61.8906C347.1651,-53.0068 355.4736,-39.5601 362.2574,-28.5811"/>
<polygon fill="#191970" stroke="#191970" points="365.4382,-30.0917 367.7172,-19.7449 359.4832,-26.4122 365.4382,-30.0917"/>
</g>
<!-- Node9 -->
<g id="node10" class="node">
<title>Node9</title>
<polygon fill="#ffffff" stroke="#bfbfbf" points="797.7384,-.5 797.7384,-19.5 845.7384,-19.5 845.7384,-.5 797.7384,-.5"/>
<text text-anchor="middle" x="821.7384" y="-7.5" font-family="Helvetica,sans-Serif" font-size="10.00" fill="#000000">thread</text>
</g>
<!-- Node4&#45;&gt;Node9 -->
<g id="edge9" class="edge">
<title>Node4&#45;&gt;Node9</title>
<path fill="none" stroke="#191970" d="M375.2048,-61.9812C385.1312,-59.8025 395.7915,-57.6463 405.7384,-56 546.5442,-32.6955 716.1727,-18.0727 787.5058,-12.5284"/>
<polygon fill="#191970" stroke="#191970" points="787.9943,-16.0013 797.6971,-11.7463 787.4586,-9.0218 787.9943,-16.0013"/>
</g>
<!-- Node14 -->
<g id="node15" class="node">
<title>Node14</title>
<g id="a_node15"><a xlink:href="RaEngine_8hpp.html" target="_top" xlink:title="Engine/RaEngine.hpp">
<polygon fill="#ffffff" stroke="#000000" points="414.2384,-190.5 414.2384,-209.5 533.2384,-209.5 533.2384,-190.5 414.2384,-190.5"/>
<text text-anchor="middle" x="473.7384" y="-197.5" font-family="Helvetica,sans-Serif" font-size="10.00" fill="#000000">Engine/RaEngine.hpp</text>
</a>
</g>
</g>
<!-- Node13&#45;&gt;Node14 -->
<g id="edge14" class="edge">
<title>Node13&#45;&gt;Node14</title>
<path fill="none" stroke="#191970" d="M715.8736,-246.4369C665.3751,-236.7522 587.2549,-221.7703 533.4779,-211.4569"/>
<polygon fill="#191970" stroke="#191970" points="533.8778,-207.9699 523.3975,-209.5237 532.5593,-214.8446 533.8778,-207.9699"/>
</g>
<!-- Node19 -->
<g id="node20" class="node">
<title>Node19</title>
<g id="a_node20"><a xlink:href="Index_8hpp.html" target="_top" xlink:title="Core/Utils/Index.hpp">
<polygon fill="#ffffff" stroke="#000000" points="589.7384,-190.5 589.7384,-209.5 705.7384,-209.5 705.7384,-190.5 589.7384,-190.5"/>
<text text-anchor="middle" x="647.7384" y="-197.5" font-family="Helvetica,sans-Serif" font-size="10.00" fill="#000000">Core/Utils/Index.hpp</text>
</a>
</g>
</g>
<!-- Node13&#45;&gt;Node19 -->
<g id="edge20" class="edge">
<title>Node13&#45;&gt;Node19</title>
<path fill="none" stroke="#191970" d="M745.4535,-246.3733C726.5963,-237.4241 698.2924,-223.9917 676.9929,-213.8835"/>
<polygon fill="#191970" stroke="#191970" points="678.2935,-210.6266 667.7586,-209.5011 675.2923,-216.9506 678.2935,-210.6266"/>
</g>
<!-- Node22 -->
<g id="node23" class="node">
<title>Node22</title>
<polygon fill="#ffffff" stroke="#bfbfbf" points="1036.7384,-190.5 1036.7384,-209.5 1080.7384,-209.5 1080.7384,-190.5 1036.7384,-190.5"/>
<text text-anchor="middle" x="1058.7384" y="-197.5" font-family="Helvetica,sans-Serif" font-size="10.00" fill="#000000">string</text>
</g>
<!-- Node13&#45;&gt;Node22 -->
<g id="edge25" class="edge">
<title>Node13&#45;&gt;Node22</title>
<path fill="none" stroke="#191970" d="M815.774,-246.4369C876.0478,-234.917 975.5381,-215.9018 1026.4854,-206.1644"/>
<polygon fill="#191970" stroke="#191970" points="1027.4235,-209.5485 1036.5886,-204.2334 1026.1093,-202.673 1027.4235,-209.5485"/>
</g>
<!-- Node23 -->
<g id="node24" class="node">
<title>Node23</title>
<polygon fill="#ffffff" stroke="#bfbfbf" points="911.2384,-190.5 911.2384,-209.5 958.2384,-209.5 958.2384,-190.5 911.2384,-190.5"/>
<text text-anchor="middle" x="934.7384" y="-197.5" font-family="Helvetica,sans-Serif" font-size="10.00" fill="#000000">vector</text>
</g>
<!-- Node13&#45;&gt;Node23 -->
<g id="edge26" class="edge">
<title>Node13&#45;&gt;Node23</title>
<path fill="none" stroke="#191970" d="M794.7905,-246.3733C824.5107,-236.5252 870.6152,-221.2479 901.7052,-210.9459"/>
<polygon fill="#191970" stroke="#191970" points="902.8405,-214.2569 911.232,-207.7891 900.6387,-207.6122 902.8405,-214.2569"/>
</g>
<!-- Node24 -->
<g id="node25" class="node">
<title>Node24</title>
<g id="a_node25"><a xlink:href="ItemEntry_8inl.html" target="_top" xlink:title="Engine/ItemModel/ItemEntry.inl">
<polygon fill="#ffffff" stroke="#000000" points="724.2384,-190.5 724.2384,-209.5 893.2384,-209.5 893.2384,-190.5 724.2384,-190.5"/>
<text text-anchor="middle" x="808.7384" y="-197.5" font-family="Helvetica,sans-Serif" font-size="10.00" fill="#000000">Engine/ItemModel/ItemEntry.inl</text>
</a>
</g>
</g>
<!-- Node13&#45;&gt;Node24 -->
<g id="edge27" class="edge">
<title>Node13&#45;&gt;Node24</title>
<path fill="none" stroke="#191970" d="M773.2284,-246.2455C779.271,-238.3761 787.9287,-227.101 795.1825,-217.6542"/>
<polygon fill="#191970" stroke="#191970" points="798.0199,-219.7058 801.3342,-209.6427 792.4679,-215.4426 798.0199,-219.7058"/>
</g>
<!-- Node14&#45;&gt;Node4 -->
<g id="edge15" class="edge">
<title>Node14&#45;&gt;Node4</title>
<path fill="none" stroke="#191970" d="M418.2583,-190.4151C395.5736,-183.7941 370.9141,-172.6622 354.7384,-154 339.6711,-136.6166 335.9257,-109.651 335.29,-91.318"/>
<polygon fill="#191970" stroke="#191970" points="338.7891,-91.158 335.2227,-81.1815 331.7893,-91.2046 338.7891,-91.158"/>
</g>
<!-- Node15 -->
<g id="node16" class="node">
<title>Node15</title>
<g id="a_node16"><a xlink:href="OpenGL_8hpp.html" target="_top" xlink:title="Engine/Renderer/OpenGL\l/OpenGL.hpp">
<polygon fill="#ffffff" stroke="#000000" points="480.2384,-123.5 480.2384,-153.5 617.2384,-153.5 617.2384,-123.5 480.2384,-123.5"/>
<text text-anchor="start" x="488.2384" y="-141.5" font-family="Helvetica,sans-Serif" font-size="10.00" fill="#000000">Engine/Renderer/OpenGL</text>
<text text-anchor="middle" x="548.7384" y="-130.5" font-family="Helvetica,sans-Serif" font-size="10.00" fill="#000000">/OpenGL.hpp</text>
</a>
</g>
</g>
<!-- Node14&#45;&gt;Node15 -->
<g id="edge16" class="edge">
<title>Node14&#45;&gt;Node15</title>
<path fill="none" stroke="#191970" d="M485.4571,-190.3906C495.3255,-182.2986 509.8107,-170.4207 522.4329,-160.0705"/>
<polygon fill="#191970" stroke="#191970" points="524.8779,-162.5919 530.3913,-153.5446 520.4393,-157.179 524.8779,-162.5919"/>
</g>
<!-- Node16 -->
<g id="node17" class="node">
<title>Node16</title>
<polygon fill="#ffffff" stroke="#bfbfbf" points="545.7384,-62 545.7384,-81 673.7384,-81 673.7384,-62 545.7384,-62"/>
<text text-anchor="middle" x="609.7384" y="-69" font-family="Helvetica,sans-Serif" font-size="10.00" fill="#000000">glbinding/gl45core/gl.h</text>
</g>
<!-- Node15&#45;&gt;Node16 -->
<g id="edge17" class="edge">
<title>Node15&#45;&gt;Node16</title>
<path fill="none" stroke="#191970" d="M562.5802,-123.2967C571.992,-112.9591 584.4567,-99.2684 594.2073,-88.5588"/>
<polygon fill="#191970" stroke="#191970" points="596.8949,-90.8057 601.0391,-81.055 591.7188,-86.0931 596.8949,-90.8057"/>
</g>
<!-- Node17 -->
<g id="node18" class="node">
<title>Node17</title>
<polygon fill="#ffffff" stroke="#bfbfbf" points="691.7384,-62 691.7384,-81 813.7384,-81 813.7384,-62 691.7384,-62"/>
<text text-anchor="middle" x="752.7384" y="-69" font-family="Helvetica,sans-Serif" font-size="10.00" fill="#000000">glbinding/gl45ext/gl.h</text>
</g>
<!-- Node15&#45;&gt;Node17 -->
<g id="edge18" class="edge">
<title>Node15&#45;&gt;Node17</title>
<path fill="none" stroke="#191970" d="M594.52,-123.4639C630.5515,-111.63 680.1941,-95.3258 714.2089,-84.1543"/>
<polygon fill="#191970" stroke="#191970" points="715.3883,-87.4509 723.7969,-81.0053 713.2041,-80.8004 715.3883,-87.4509"/>
</g>
<!-- Node18 -->
<g id="node19" class="node">
<title>Node18</title>
<polygon fill="#ffffff" stroke="#bfbfbf" points="414.2384,-56.5 414.2384,-86.5 527.2384,-86.5 527.2384,-56.5 414.2384,-56.5"/>
<text text-anchor="start" x="422.2384" y="-74.5" font-family="Helvetica,sans-Serif" font-size="10.00" fill="#000000">glbinding&#45;aux/types</text>
<text text-anchor="middle" x="470.7384" y="-63.5" font-family="Helvetica,sans-Serif" font-size="10.00" fill="#000000">_to_string.h</text>
</g>
<!-- Node15&#45;&gt;Node18 -->
<g id="edge19" class="edge">
<title>Node15&#45;&gt;Node18</title>
<path fill="none" stroke="#191970" d="M531.039,-123.2967C520.767,-114.4733 507.6512,-103.2072 496.2768,-93.4368"/>
<polygon fill="#191970" stroke="#191970" points="498.2341,-90.5041 488.3678,-86.6432 493.6729,-95.8141 498.2341,-90.5041"/>
</g>
<!-- Node19&#45;&gt;Node3 -->
<g id="edge21" class="edge">
<title>Node19&#45;&gt;Node3</title>
<path fill="none" stroke="#191970" d="M611.3306,-190.4986C575.737,-181.2064 520.0082,-166.6485 471.7384,-154 467.5893,-152.9128 463.2763,-151.7816 458.9551,-150.6476"/>
<polygon fill="#191970" stroke="#191970" points="459.4919,-147.17 448.9309,-148.0159 457.7143,-153.9406 459.4919,-147.17"/>
</g>
<!-- Node20 -->
<g id="node21" class="node">
<title>Node20</title>
<polygon fill="#ffffff" stroke="#bfbfbf" points="635.7384,-129 635.7384,-148 679.7384,-148 679.7384,-129 635.7384,-129"/>
<text text-anchor="middle" x="657.7384" y="-136" font-family="Helvetica,sans-Serif" font-size="10.00" fill="#000000">limits</text>
</g>
<!-- Node19&#45;&gt;Node20 -->
<g id="edge22" class="edge">
<title>Node19&#45;&gt;Node20</title>
<path fill="none" stroke="#191970" d="M649.3009,-190.3906C650.6871,-181.8657 652.7564,-169.1392 654.4988,-158.4235"/>
<polygon fill="#191970" stroke="#191970" points="658.0035,-158.677 656.1539,-148.2449 651.0942,-157.5535 658.0035,-158.677"/>
</g>
<!-- Node21 -->
<g id="node22" class="node">
<title>Node21</title>
<g id="a_node22"><a xlink:href="Index_8inl.html" target="_top" xlink:title="Core/Utils/Index.inl">
<polygon fill="#ffffff" stroke="#000000" points="697.7384,-129 697.7384,-148 807.7384,-148 807.7384,-129 697.7384,-129"/>
<text text-anchor="middle" x="752.7384" y="-136" font-family="Helvetica,sans-Serif" font-size="10.00" fill="#000000">Core/Utils/Index.inl</text>
</a>
</g>
</g>
<!-- Node19&#45;&gt;Node21 -->
<g id="edge23" class="edge">
<title>Node19&#45;&gt;Node21</title>
<path fill="none" stroke="#191970" d="M659.0821,-190.3906C674.3015,-180.3262 701.2331,-164.4057 722.4241,-152.8514"/>
<polygon fill="#191970" stroke="#191970" points="724.2374,-155.8506 731.3981,-148.0419 720.9307,-149.6808 724.2374,-155.8506"/>
</g>
<!-- Node21&#45;&gt;Node19 -->
<g id="edge24" class="edge">
<title>Node21&#45;&gt;Node19</title>
<path fill="none" stroke="#191970" d="M741.4966,-148.0419C726.3298,-158.0801 699.4116,-173.9972 678.195,-185.571"/>
<polygon fill="#191970" stroke="#191970" points="676.366,-182.5803 669.2071,-190.3906 679.6741,-188.7493 676.366,-182.5803"/>
</g>
<!-- Node25&#45;&gt;Node4 -->
<g id="edge29" class="edge">
<title>Node25&#45;&gt;Node4</title>
<path fill="none" stroke="#191970" d="M73.4204,-246.4757C52.2234,-239.9 30.4568,-228.7855 17.7384,-210 -3.9393,-177.9814 -7.3225,-152.446 17.7384,-123 33.6192,-104.3403 176.7772,-87.0941 265.5139,-78.0704"/>
<polygon fill="#191970" stroke="#191970" points="265.921,-81.5472 275.5206,-77.0641 265.2206,-74.5823 265.921,-81.5472"/>
</g>
<!-- Node25&#45;&gt;Node14 -->
<g id="edge30" class="edge">
<title>Node25&#45;&gt;Node14</title>
<path fill="none" stroke="#191970" d="M190.9709,-246.4369C250.4339,-236.6717 342.6925,-221.5207 405.5349,-211.2006"/>
<polygon fill="#191970" stroke="#191970" points="406.4454,-214.598 415.746,-209.5237 405.311,-207.6905 406.4454,-214.598"/>
</g>
<!-- Node26&#45;&gt;Node2 -->
<g id="edge37" class="edge">
<title>Node26&#45;&gt;Node2</title>
<path fill="none" stroke="#191970" d="M303.2644,-246.4369C254.8508,-236.6845 179.7708,-221.5605 128.543,-211.2412"/>
<polygon fill="#191970" stroke="#191970" points="129.1247,-207.7882 118.6304,-209.2444 127.7423,-214.6503 129.1247,-207.7882"/>
</g>
<!-- Node26&#45;&gt;Node10 -->
<g id="edge33" class="edge">
<title>Node26&#45;&gt;Node10</title>
<path fill="none" stroke="#191970" d="M350.2624,-246.4589C349.0279,-232.1571 344.6001,-205.2192 328.7384,-190 287.0218,-149.9732 258.8041,-171.612 203.7384,-154 201.1518,-153.1727 198.4879,-152.2962 195.8113,-151.3976"/>
<polygon fill="#191970" stroke="#191970" points="196.7733,-148.0275 186.1787,-148.095 194.503,-154.6491 196.7733,-148.0275"/>
</g>
<!-- Node26&#45;&gt;Node11 -->
<g id="edge34" class="edge">
<title>Node26&#45;&gt;Node11</title>
<path fill="none" stroke="#191970" d="M356.1976,-246.257C363.0236,-232.6396 372.5746,-207.6103 361.7384,-190 350.3026,-171.4153 329.8621,-159.2933 310.2666,-151.5115"/>
<polygon fill="#191970" stroke="#191970" points="311.3519,-148.1817 300.7581,-148.0307 308.9455,-154.7551 311.3519,-148.1817"/>
</g>
<!-- Node26&#45;&gt;Node14 -->
<g id="edge35" class="edge">
<title>Node26&#45;&gt;Node14</title>
<path fill="none" stroke="#191970" d="M371.8828,-246.3733C391.6275,-237.3838 421.3082,-223.8706 443.5439,-213.7471"/>
<polygon fill="#191970" stroke="#191970" points="445.219,-216.8302 452.8698,-209.5011 442.3184,-210.4594 445.219,-216.8302"/>
</g>
<!-- Node26&#45;&gt;Node19 -->
<g id="edge32" class="edge">
<title>Node26&#45;&gt;Node19</title>
<path fill="none" stroke="#191970" d="M401.457,-246.4369C452.927,-236.7321 532.6086,-221.708 587.3168,-211.3926"/>
<polygon fill="#191970" stroke="#191970" points="588.0506,-214.816 597.2289,-209.5237 586.7535,-207.9372 588.0506,-214.816"/>
</g>
<!-- Node26&#45;&gt;Node23 -->
<g id="edge36" class="edge">
<title>Node26&#45;&gt;Node23</title>
<path fill="none" stroke="#191970" d="M445.3805,-249.2521C583.6455,-239.2309 831.2671,-220.6136 901.1524,-209.7544"/>
<polygon fill="#191970" stroke="#191970" points="901.8719,-213.1819 911.1219,-208.0158 900.6692,-206.2859 901.8719,-213.1819"/>
</g>
<!-- Node27 -->
<g id="node28" class="node">
<title>Node27</title>
<g id="a_node28"><a xlink:href="Component_8inl.html" target="_top" xlink:title="Engine/Component/Component.inl">
<polygon fill="#ffffff" stroke="#000000" points="136.2384,-190.5 136.2384,-209.5 319.2384,-209.5 319.2384,-190.5 136.2384,-190.5"/>
<text text-anchor="middle" x="227.7384" y="-197.5" font-family="Helvetica,sans-Serif" font-size="10.00" fill="#000000">Engine/Component/Component.inl</text>
</a>
</g>
</g>
<!-- Node26&#45;&gt;Node27 -->
<g id="edge38" class="edge">
<title>Node26&#45;&gt;Node27</title>
<path fill="none" stroke="#191970" d="M324.3519,-246.3733C303.0415,-237.4644 273.4831,-224.1127 252.5945,-214.0203"/>
<polygon fill="#191970" stroke="#191970" points="253.9087,-210.7664 243.3896,-209.5011 250.8237,-217.05 253.9087,-210.7664"/>
</g>
<!-- Node27&#45;&gt;Node26 -->
<g id="edge39" class="edge">
<title>Node27&#45;&gt;Node26</title>
<path fill="none" stroke="#191970" d="M253.8242,-209.5011C275.0566,-218.3679 304.6165,-231.7139 325.5864,-241.8368"/>
<polygon fill="#191970" stroke="#191970" points="324.3164,-245.1122 334.836,-246.3733 327.3988,-238.8274 324.3164,-245.1122"/>
</g>
<!-- Node28&#45;&gt;Node2 -->
<g id="edge46" class="edge">
<title>Node28&#45;&gt;Node2</title>
<path fill="none" stroke="#191970" d="M841.6029,-315.6447C697.2502,-311.0597 358.0481,-297.2264 247.7384,-266 228.9952,-260.6942 226.6803,-253.5858 208.7384,-246 177.9663,-232.9896 142.1342,-220.9927 114.9769,-212.5148"/>
<polygon fill="#191970" stroke="#191970" points="115.977,-209.1606 105.3895,-209.5551 113.9122,-215.8491 115.977,-209.1606"/>
</g>
<!-- Node28&#45;&gt;Node9 -->
<g id="edge44" class="edge">
<title>Node28&#45;&gt;Node9</title>
<path fill="none" stroke="#191970" d="M971.8942,-307.9788C1027.2983,-298.7657 1102.1939,-283.6319 1126.7384,-266 1154.7844,-245.8527 1167.7384,-234.5325 1167.7384,-200 1167.7384,-200 1167.7384,-200 1167.7384,-138.5 1167.7384,-72.3836 942.9091,-29.3612 855.7199,-15.1628"/>
<polygon fill="#191970" stroke="#191970" points="856.2211,-11.6986 845.7937,-13.5746 855.1151,-18.6107 856.2211,-11.6986"/>
</g>
<!-- Node28&#45;&gt;Node14 -->
<g id="edge41" class="edge">
<title>Node28&#45;&gt;Node14</title>
<path fill="none" stroke="#191970" d="M841.3833,-313.2514C730.8968,-305.5952 518.7172,-288.1935 492.7384,-266 479.59,-254.7674 475.2414,-235.079 473.9419,-220.1208"/>
<polygon fill="#191970" stroke="#191970" points="477.4231,-219.6432 473.4473,-209.8227 470.4311,-219.9791 477.4231,-219.6432"/>
</g>
<!-- Node28&#45;&gt;Node22 -->
<g id="edge43" class="edge">
<title>Node28&#45;&gt;Node22</title>
<path fill="none" stroke="#191970" d="M973.9297,-309.5115C1026.5077,-301.6446 1093.91,-287.6308 1110.7384,-266 1124.3318,-248.5274 1103.5351,-228.5769 1084.3445,-215.2266"/>
<polygon fill="#191970" stroke="#191970" points="1086.0484,-212.1581 1075.7696,-209.5897 1082.2032,-218.0075 1086.0484,-212.1581"/>
</g>
<!-- Node28&#45;&gt;Node23 -->
<g id="edge45" class="edge">
<title>Node28&#45;&gt;Node23</title>
<path fill="none" stroke="#191970" d="M904.3964,-307.9746C900.028,-294.0091 893.7134,-267.3232 900.7384,-246 904.244,-235.3594 911.2625,-225.164 918.0171,-217.0877"/>
<polygon fill="#191970" stroke="#191970" points="920.7398,-219.2937 924.8022,-209.5087 915.5244,-214.6247 920.7398,-219.2937"/>
</g>
<!-- Node29 -->
<g id="node30" class="node">
<title>Node29</title>
<polygon fill="#ffffff" stroke="#bfbfbf" points="909.7384,-246.5 909.7384,-265.5 957.7384,-265.5 957.7384,-246.5 909.7384,-246.5"/>
<text text-anchor="middle" x="933.7384" y="-253.5" font-family="Helvetica,sans-Serif" font-size="10.00" fill="#000000">mutex</text>
</g>
<!-- Node28&#45;&gt;Node29 -->
<g id="edge42" class="edge">
<title>Node28&#45;&gt;Node29</title>
<path fill="none" stroke="#191970" d="M911.8009,-307.8906C915.4808,-299.1862 921.0126,-286.1015 925.6004,-275.2494"/>
<polygon fill="#191970" stroke="#191970" points="928.9483,-276.3185 929.6186,-265.7449 922.5008,-273.5927 928.9483,-276.3185"/>
</g>
<!-- Node30 -->
<g id="node31" class="node">
<title>Node30</title>
<g id="a_node31"><a xlink:href="IndexedObject_8hpp.html" target="_top" xlink:title="Core/Utils/IndexedObject.hpp">
<polygon fill="#ffffff" stroke="#000000" points="501.2384,-246.5 501.2384,-265.5 660.2384,-265.5 660.2384,-246.5 501.2384,-246.5"/>
<text text-anchor="middle" x="580.7384" y="-253.5" font-family="Helvetica,sans-Serif" font-size="10.00" fill="#000000">Core/Utils/IndexedObject.hpp</text>
</a>
</g>
</g>
<!-- Node28&#45;&gt;Node30 -->
<g id="edge47" class="edge">
<title>Node28&#45;&gt;Node30</title>
<path fill="none" stroke="#191970" d="M857.0034,-307.9581C798.8021,-297.012 703.4311,-279.0752 641.3669,-267.4026"/>
<polygon fill="#191970" stroke="#191970" points="641.798,-263.9224 631.3233,-265.5137 640.5041,-270.8018 641.798,-263.9224"/>
</g>
<!-- Node31 -->
<g id="node32" class="node">
<title>Node31</title>
<g id="a_node32"><a xlink:href="Entity_8inl.html" target="_top" xlink:title="Engine/Entity/Entity.inl">
<polygon fill="#ffffff" stroke="#000000" points="975.7384,-246.5 975.7384,-265.5 1101.7384,-265.5 1101.7384,-246.5 975.7384,-246.5"/>
<text text-anchor="middle" x="1038.7384" y="-253.5" font-family="Helvetica,sans-Serif" font-size="10.00" fill="#000000">Engine/Entity/Entity.inl</text>
</a>
</g>
</g>
<!-- Node28&#45;&gt;Node31 -->
<g id="edge50" class="edge">
<title>Node28&#45;&gt;Node31</title>
<path fill="none" stroke="#191970" d="M923.1446,-307.8906C943.0555,-297.6005 977.7978,-281.1888 1004.0991,-269.5809"/>
<polygon fill="#191970" stroke="#191970" points="1005.596,-272.7466 1013.3641,-265.5419 1002.7986,-266.3298 1005.596,-272.7466"/>
</g>
<!-- Node30&#45;&gt;Node3 -->
<g id="edge48" class="edge">
<title>Node30&#45;&gt;Node3</title>
<path fill="none" stroke="#191970" d="M577.4402,-246.1181C572.2156,-231.8702 560.7435,-205.5635 542.7384,-190 528.8407,-177.987 485.9401,-162.1785 453.1861,-151.2608"/>
<polygon fill="#191970" stroke="#191970" points="453.983,-147.8385 443.3901,-148.0392 451.7961,-154.4882 453.983,-147.8385"/>
</g>
<!-- Node30&#45;&gt;Node19 -->
<g id="edge49" class="edge">
<title>Node30&#45;&gt;Node19</title>
<path fill="none" stroke="#191970" d="M592.4089,-246.2455C602.3045,-237.9746 616.7011,-225.9416 628.3285,-216.2232"/>
<polygon fill="#191970" stroke="#191970" points="630.7734,-218.7413 636.2016,-209.6427 626.2842,-213.3703 630.7734,-218.7413"/>
</g>
<!-- Node31&#45;&gt;Node28 -->
<g id="edge51" class="edge">
<title>Node31&#45;&gt;Node28</title>
<path fill="none" stroke="#191970" d="M1023.4627,-265.5419C1003.6168,-275.8051 968.8887,-292.2139 942.5505,-303.8428"/>
<polygon fill="#191970" stroke="#191970" points="941.0365,-300.6846 933.2696,-307.8906 943.835,-307.1009 941.0365,-300.6846"/>
</g>
</g>
</svg>
