<?xml version="1.0" encoding="UTF-8" standalone="no"?>
<!DOCTYPE svg PUBLIC "-//W3C//DTD SVG 1.1//EN"
 "http://www.w3.org/Graphics/SVG/1.1/DTD/svg11.dtd">
<!-- Generated by graphviz version 2.43.0 (0)
 -->
<!-- Title: /home/runner/work/Radium&#45;Engine/Radium&#45;Engine/src/Radium&#45;Engine/src/IO/AssimpLoader/AssimpLightDataLoader.hpp Pages: 1 -->
<svg width="1107pt" height="397pt"
 viewBox="0.00 0.00 1106.97 397.00" xmlns="http://www.w3.org/2000/svg" xmlns:xlink="http://www.w3.org/1999/xlink">
<g id="graph0" class="graph" transform="scale(1 1) rotate(0) translate(4 393)">
<title>/home/runner/work/Radium&#45;Engine/Radium&#45;Engine/src/Radium&#45;Engine/src/IO/AssimpLoader/AssimpLightDataLoader.hpp</title>
<polygon fill="white" stroke="transparent" points="-4,4 -4,-393 1102.97,-393 1102.97,4 -4,4"/>
<!-- Node1 -->
<g id="node1" class="node">
<title>Node1</title>
<g id="a_node1"><a xlink:title=" ">
<polygon fill="#bfbfbf" stroke="black" points="526,-336.5 526,-388.5 723,-388.5 723,-336.5 526,-336.5"/>
<text text-anchor="start" x="534" y="-376.5" font-family="Helvetica,sans-Serif" font-size="10.00">/home/runner/work/Radium</text>
<text text-anchor="start" x="534" y="-365.5" font-family="Helvetica,sans-Serif" font-size="10.00">&#45;Engine/Radium&#45;Engine/src</text>
<text text-anchor="start" x="534" y="-354.5" font-family="Helvetica,sans-Serif" font-size="10.00">/Radium&#45;Engine/src/IO/AssimpLoader</text>
<text text-anchor="middle" x="624.5" y="-343.5" font-family="Helvetica,sans-Serif" font-size="10.00">/AssimpLightDataLoader.hpp</text>
</a>
</g>
</g>
<!-- Node2 -->
<g id="node2" class="node">
<title>Node2</title>
<g id="a_node2"><a xlink:href="DataLoader_8hpp.html" target="_top" xlink:title=" ">
<polygon fill="white" stroke="black" points="20,-280.5 20,-299.5 169,-299.5 169,-280.5 20,-280.5"/>
<text text-anchor="middle" x="94.5" y="-287.5" font-family="Helvetica,sans-Serif" font-size="10.00">Core/Asset/DataLoader.hpp</text>
</a>
</g>
</g>
<!-- Node1&#45;&gt;Node2 -->
<g id="edge1" class="edge">
<title>Node1&#45;&gt;Node2</title>
<path fill="none" stroke="midnightblue" d="M525.74,-348.36C422.15,-334.58 261.71,-313.24 168.51,-300.84"/>
<polygon fill="midnightblue" stroke="midnightblue" points="168.97,-297.37 158.59,-299.53 168.04,-304.31 168.97,-297.37"/>
</g>
<!-- Node5 -->
<g id="node5" class="node">
<title>Node5</title>
<g id="a_node5"><a xlink:href="LightData_8hpp.html" target="_top" xlink:title=" ">
<polygon fill="white" stroke="black" points="233.5,-280.5 233.5,-299.5 373.5,-299.5 373.5,-280.5 233.5,-280.5"/>
<text text-anchor="middle" x="303.5" y="-287.5" font-family="Helvetica,sans-Serif" font-size="10.00">Core/Asset/LightData.hpp</text>
</a>
</g>
</g>
<!-- Node1&#45;&gt;Node5 -->
<g id="edge4" class="edge">
<title>Node1&#45;&gt;Node5</title>
<path fill="none" stroke="midnightblue" d="M525.57,-339.77C468.03,-327.13 398.04,-311.76 352.21,-301.7"/>
<polygon fill="midnightblue" stroke="midnightblue" points="352.76,-298.24 342.24,-299.51 351.26,-305.07 352.76,-298.24"/>
</g>
<!-- Node27 -->
<g id="node27" class="node">
<title>Node27</title>
<g id="a_node27"><a xlink:href="Types_8hpp.html" target="_top" xlink:title=" ">
<polygon fill="white" stroke="black" points="839,-224.5 839,-243.5 930,-243.5 930,-224.5 839,-224.5"/>
<text text-anchor="middle" x="884.5" y="-231.5" font-family="Helvetica,sans-Serif" font-size="10.00">Core/Types.hpp</text>
</a>
</g>
</g>
<!-- Node1&#45;&gt;Node27 -->
<g id="edge37" class="edge">
<title>Node1&#45;&gt;Node27</title>
<path fill="none" stroke="midnightblue" d="M623.56,-336.27C624.32,-318.11 628.49,-294.36 643.5,-280 669.47,-255.16 766.02,-243.51 828.75,-238.46"/>
<polygon fill="midnightblue" stroke="midnightblue" points="829.2,-241.94 838.9,-237.68 828.66,-234.96 829.2,-241.94"/>
</g>
<!-- Node29 -->
<g id="node29" class="node">
<title>Node29</title>
<g id="a_node29"><a xlink:href="RaIO_8hpp.html" target="_top" xlink:title=" ">
<polygon fill="white" stroke="black" points="652.5,-280.5 652.5,-299.5 726.5,-299.5 726.5,-280.5 652.5,-280.5"/>
<text text-anchor="middle" x="689.5" y="-287.5" font-family="Helvetica,sans-Serif" font-size="10.00">IO/RaIO.hpp</text>
</a>
</g>
</g>
<!-- Node1&#45;&gt;Node29 -->
<g id="edge42" class="edge">
<title>Node1&#45;&gt;Node29</title>
<path fill="none" stroke="midnightblue" d="M647.6,-336.45C656.56,-326.73 666.56,-315.88 674.55,-307.22"/>
<polygon fill="midnightblue" stroke="midnightblue" points="677.28,-309.42 681.48,-299.7 672.13,-304.68 677.28,-309.42"/>
</g>
<!-- Node30 -->
<g id="node30" class="node">
<title>Node30</title>
<g id="a_node30"><a xlink:title=" ">
<polygon fill="white" stroke="#bfbfbf" points="744.5,-280.5 744.5,-299.5 776.5,-299.5 776.5,-280.5 744.5,-280.5"/>
<text text-anchor="middle" x="760.5" y="-287.5" font-family="Helvetica,sans-Serif" font-size="10.00">set</text>
</a>
</g>
</g>
<!-- Node1&#45;&gt;Node30 -->
<g id="edge44" class="edge">
<title>Node1&#45;&gt;Node30</title>
<path fill="none" stroke="midnightblue" d="M672.83,-336.45C693.96,-325.49 717.86,-313.1 735.37,-304.03"/>
<polygon fill="midnightblue" stroke="midnightblue" points="737.11,-307.07 744.37,-299.36 733.88,-300.85 737.11,-307.07"/>
</g>
<!-- Node3 -->
<g id="node3" class="node">
<title>Node3</title>
<g id="a_node3"><a xlink:title=" ">
<polygon fill="white" stroke="#bfbfbf" points="65.5,-224.5 65.5,-243.5 123.5,-243.5 123.5,-224.5 65.5,-224.5"/>
<text text-anchor="middle" x="94.5" y="-231.5" font-family="Helvetica,sans-Serif" font-size="10.00">memory</text>
</a>
</g>
</g>
<!-- Node2&#45;&gt;Node3 -->
<g id="edge2" class="edge">
<title>Node2&#45;&gt;Node3</title>
<path fill="none" stroke="midnightblue" d="M94.5,-280.08C94.5,-273.01 94.5,-262.86 94.5,-253.99"/>
<polygon fill="midnightblue" stroke="midnightblue" points="98,-253.75 94.5,-243.75 91,-253.75 98,-253.75"/>
</g>
<!-- Node4 -->
<g id="node4" class="node">
<title>Node4</title>
<g id="a_node4"><a xlink:title=" ">
<polygon fill="white" stroke="#bfbfbf" points="0,-224.5 0,-243.5 47,-243.5 47,-224.5 0,-224.5"/>
<text text-anchor="middle" x="23.5" y="-231.5" font-family="Helvetica,sans-Serif" font-size="10.00">vector</text>
</a>
</g>
</g>
<!-- Node2&#45;&gt;Node4 -->
<g id="edge3" class="edge">
<title>Node2&#45;&gt;Node4</title>
<path fill="none" stroke="midnightblue" d="M83.09,-280.32C72.39,-272.18 56.16,-259.84 43.34,-250.09"/>
<polygon fill="midnightblue" stroke="midnightblue" points="45.19,-247.1 35.11,-243.83 40.96,-252.67 45.19,-247.1"/>
</g>
<!-- Node5&#45;&gt;Node3 -->
<g id="edge5" class="edge">
<title>Node5&#45;&gt;Node3</title>
<path fill="none" stroke="midnightblue" d="M270.38,-280.44C233.22,-270.84 172.98,-255.28 133.55,-245.09"/>
<polygon fill="midnightblue" stroke="midnightblue" points="134.31,-241.67 123.75,-242.56 132.56,-248.45 134.31,-241.67"/>
</g>
<!-- Node5&#45;&gt;Node4 -->
<g id="edge7" class="edge">
<title>Node5&#45;&gt;Node4</title>
<path fill="none" stroke="midnightblue" d="M249.26,-280.5C201.29,-272.67 129.22,-260.15 57.37,-244.03"/>
<polygon fill="midnightblue" stroke="midnightblue" points="57.76,-240.53 47.23,-241.73 56.21,-247.36 57.76,-240.53"/>
</g>
<!-- Node6 -->
<g id="node6" class="node">
<title>Node6</title>
<g id="a_node6"><a xlink:title=" ">
<polygon fill="white" stroke="#bfbfbf" points="277.5,-112.5 277.5,-131.5 321.5,-131.5 321.5,-112.5 277.5,-112.5"/>
<text text-anchor="middle" x="299.5" y="-119.5" font-family="Helvetica,sans-Serif" font-size="10.00">string</text>
</a>
</g>
</g>
<!-- Node5&#45;&gt;Node6 -->
<g id="edge6" class="edge">
<title>Node5&#45;&gt;Node6</title>
<path fill="none" stroke="midnightblue" d="M302.47,-280.5C300.21,-260.76 295.09,-210.27 296.5,-168 296.79,-159.38 297.38,-149.85 297.97,-141.79"/>
<polygon fill="midnightblue" stroke="midnightblue" points="301.47,-141.86 298.75,-131.62 294.49,-141.32 301.47,-141.86"/>
</g>
<!-- Node7 -->
<g id="node7" class="node">
<title>Node7</title>
<g id="a_node7"><a xlink:href="AssetData_8hpp.html" target="_top" xlink:title=" ">
<polygon fill="white" stroke="black" points="306,-168.5 306,-187.5 449,-187.5 449,-168.5 306,-168.5"/>
<text text-anchor="middle" x="377.5" y="-175.5" font-family="Helvetica,sans-Serif" font-size="10.00">Core/Asset/AssetData.hpp</text>
</a>
</g>
</g>
<!-- Node5&#45;&gt;Node7 -->
<g id="edge8" class="edge">
<title>Node5&#45;&gt;Node7</title>
<path fill="none" stroke="midnightblue" d="M309.31,-280.37C321.52,-262.22 350.05,-219.8 366.07,-195.99"/>
<polygon fill="midnightblue" stroke="midnightblue" points="369.04,-197.84 371.72,-187.59 363.23,-193.94 369.04,-197.84"/>
</g>
<!-- Node8 -->
<g id="node8" class="node">
<title>Node8</title>
<g id="a_node8"><a xlink:href="RaCore_8hpp.html" target="_top" xlink:title=" ">
<polygon fill="white" stroke="black" points="389.5,-112.5 389.5,-131.5 487.5,-131.5 487.5,-112.5 389.5,-112.5"/>
<text text-anchor="middle" x="438.5" y="-119.5" font-family="Helvetica,sans-Serif" font-size="10.00">Core/RaCore.hpp</text>
</a>
</g>
</g>
<!-- Node5&#45;&gt;Node8 -->
<g id="edge17" class="edge">
<title>Node5&#45;&gt;Node8</title>
<path fill="none" stroke="midnightblue" d="M330.62,-280.47C367.32,-267.29 431.34,-238.12 458.5,-188 466.73,-172.82 459.03,-153.77 450.91,-140.23"/>
<polygon fill="midnightblue" stroke="midnightblue" points="453.83,-138.29 445.42,-131.84 447.97,-142.13 453.83,-138.29"/>
</g>
<!-- Node15 -->
<g id="node15" class="node">
<title>Node15</title>
<g id="a_node15"><a xlink:href="Color_8hpp.html" target="_top" xlink:title=" ">
<polygon fill="white" stroke="black" points="596,-224.5 596,-243.5 709,-243.5 709,-224.5 596,-224.5"/>
<text text-anchor="middle" x="652.5" y="-231.5" font-family="Helvetica,sans-Serif" font-size="10.00">Core/Utils/Color.hpp</text>
</a>
</g>
</g>
<!-- Node5&#45;&gt;Node15 -->
<g id="edge18" class="edge">
<title>Node5&#45;&gt;Node15</title>
<path fill="none" stroke="midnightblue" d="M358.8,-280.44C420.83,-270.85 521.36,-255.29 587.2,-245.1"/>
<polygon fill="midnightblue" stroke="midnightblue" points="588.11,-248.5 597.46,-243.52 587.04,-241.59 588.11,-248.5"/>
</g>
<!-- Node23 -->
<g id="node23" class="node">
<title>Node23</title>
<g id="a_node23"><a xlink:href="LightData_8inl.html" target="_top" xlink:title=" ">
<polygon fill="white" stroke="black" points="141.5,-224.5 141.5,-243.5 275.5,-243.5 275.5,-224.5 141.5,-224.5"/>
<text text-anchor="middle" x="208.5" y="-231.5" font-family="Helvetica,sans-Serif" font-size="10.00">Core/Asset/LightData.inl</text>
</a>
</g>
</g>
<!-- Node5&#45;&gt;Node23 -->
<g id="edge29" class="edge">
<title>Node5&#45;&gt;Node23</title>
<path fill="none" stroke="midnightblue" d="M283.12,-280.32C266.48,-271.9 243.43,-258.97 227.25,-249.07"/>
<polygon fill="midnightblue" stroke="midnightblue" points="228.95,-246.01 218.62,-243.65 225.22,-251.93 228.95,-246.01"/>
</g>
<!-- Node7&#45;&gt;Node6 -->
<g id="edge16" class="edge">
<title>Node7&#45;&gt;Node6</title>
<path fill="none" stroke="midnightblue" d="M364.97,-168.32C352.91,-159.98 334.47,-147.21 320.23,-137.35"/>
<polygon fill="midnightblue" stroke="midnightblue" points="322.22,-134.47 312,-131.65 318.23,-140.22 322.22,-134.47"/>
</g>
<!-- Node7&#45;&gt;Node8 -->
<g id="edge9" class="edge">
<title>Node7&#45;&gt;Node8</title>
<path fill="none" stroke="midnightblue" d="M387.3,-168.32C396.32,-160.34 409.91,-148.31 420.82,-138.65"/>
<polygon fill="midnightblue" stroke="midnightblue" points="423.35,-141.08 428.52,-131.83 418.71,-135.84 423.35,-141.08"/>
</g>
<!-- Node9 -->
<g id="node9" class="node">
<title>Node9</title>
<g id="a_node9"><a xlink:href="CoreMacros_8hpp.html" target="_top" xlink:title=" ">
<polygon fill="white" stroke="black" points="416,-56.5 416,-75.5 537,-75.5 537,-56.5 416,-56.5"/>
<text text-anchor="middle" x="476.5" y="-63.5" font-family="Helvetica,sans-Serif" font-size="10.00">Core/CoreMacros.hpp</text>
</a>
</g>
</g>
<!-- Node8&#45;&gt;Node9 -->
<g id="edge10" class="edge">
<title>Node8&#45;&gt;Node9</title>
<path fill="none" stroke="midnightblue" d="M444.77,-112.08C450.14,-104.46 458.02,-93.26 464.58,-83.94"/>
<polygon fill="midnightblue" stroke="midnightblue" points="467.45,-85.94 470.34,-75.75 461.72,-81.91 467.45,-85.94"/>
</g>
<!-- Node10 -->
<g id="node10" class="node">
<title>Node10</title>
<g id="a_node10"><a xlink:title=" ">
<polygon fill="white" stroke="#bfbfbf" points="559.5,-0.5 559.5,-19.5 611.5,-19.5 611.5,-0.5 559.5,-0.5"/>
<text text-anchor="middle" x="585.5" y="-7.5" font-family="Helvetica,sans-Serif" font-size="10.00">cassert</text>
</a>
</g>
</g>
<!-- Node9&#45;&gt;Node10 -->
<g id="edge11" class="edge">
<title>Node9&#45;&gt;Node10</title>
<path fill="none" stroke="midnightblue" d="M494.01,-56.32C511.57,-47.62 538.83,-34.12 559.03,-24.11"/>
<polygon fill="midnightblue" stroke="midnightblue" points="560.62,-27.23 568.03,-19.65 557.52,-20.96 560.62,-27.23"/>
</g>
<!-- Node11 -->
<g id="node11" class="node">
<title>Node11</title>
<g id="a_node11"><a xlink:title=" ">
<polygon fill="white" stroke="#bfbfbf" points="351.5,-0.5 351.5,-19.5 397.5,-19.5 397.5,-0.5 351.5,-0.5"/>
<text text-anchor="middle" x="374.5" y="-7.5" font-family="Helvetica,sans-Serif" font-size="10.00">cstdio</text>
</a>
</g>
</g>
<!-- Node9&#45;&gt;Node11 -->
<g id="edge12" class="edge">
<title>Node9&#45;&gt;Node11</title>
<path fill="none" stroke="midnightblue" d="M460.11,-56.32C443.83,-47.7 418.63,-34.36 399.78,-24.39"/>
<polygon fill="midnightblue" stroke="midnightblue" points="401.32,-21.24 390.85,-19.65 398.05,-27.43 401.32,-21.24"/>
</g>
<!-- Node12 -->
<g id="node12" class="node">
<title>Node12</title>
<g id="a_node12"><a xlink:title=" ">
<polygon fill="white" stroke="#bfbfbf" points="415.5,-0.5 415.5,-19.5 475.5,-19.5 475.5,-0.5 415.5,-0.5"/>
<text text-anchor="middle" x="445.5" y="-7.5" font-family="Helvetica,sans-Serif" font-size="10.00">iostream</text>
</a>
</g>
</g>
<!-- Node9&#45;&gt;Node12 -->
<g id="edge13" class="edge">
<title>Node9&#45;&gt;Node12</title>
<path fill="none" stroke="midnightblue" d="M471.38,-56.08C467.09,-48.61 460.84,-37.72 455.56,-28.52"/>
<polygon fill="midnightblue" stroke="midnightblue" points="458.54,-26.68 450.52,-19.75 452.47,-30.17 458.54,-26.68"/>
</g>
<!-- Node13 -->
<g id="node13" class="node">
<title>Node13</title>
<g id="a_node13"><a xlink:title=" ">
<polygon fill="white" stroke="#bfbfbf" points="253.5,-0.5 253.5,-19.5 309.5,-19.5 309.5,-0.5 253.5,-0.5"/>
<text text-anchor="middle" x="281.5" y="-7.5" font-family="Helvetica,sans-Serif" font-size="10.00">sstream</text>
</a>
</g>
</g>
<!-- Node9&#45;&gt;Node13 -->
<g id="edge14" class="edge">
<title>Node9&#45;&gt;Node13</title>
<path fill="none" stroke="midnightblue" d="M445.6,-56.44C411.44,-46.98 356.39,-31.74 319.58,-21.55"/>
<polygon fill="midnightblue" stroke="midnightblue" points="320.29,-18.11 309.72,-18.82 318.42,-24.86 320.29,-18.11"/>
</g>
<!-- Node14 -->
<g id="node14" class="node">
<title>Node14</title>
<g id="a_node14"><a xlink:title=" ">
<polygon fill="white" stroke="#bfbfbf" points="493.5,-0.5 493.5,-19.5 541.5,-19.5 541.5,-0.5 493.5,-0.5"/>
<text text-anchor="middle" x="517.5" y="-7.5" font-family="Helvetica,sans-Serif" font-size="10.00">thread</text>
</a>
</g>
</g>
<!-- Node9&#45;&gt;Node14 -->
<g id="edge15" class="edge">
<title>Node9&#45;&gt;Node14</title>
<path fill="none" stroke="midnightblue" d="M483.27,-56.08C489.06,-48.46 497.56,-37.26 504.64,-27.94"/>
<polygon fill="midnightblue" stroke="midnightblue" points="507.6,-29.83 510.86,-19.75 502.02,-25.6 507.6,-29.83"/>
</g>
<!-- Node15&#45;&gt;Node9 -->
<g id="edge19" class="edge">
<title>Node15&#45;&gt;Node9</title>
<path fill="none" stroke="midnightblue" d="M607.84,-224.45C583.73,-217.9 554.82,-206.71 534.5,-188 530.38,-184.21 499.75,-117.91 484.74,-85.09"/>
<polygon fill="midnightblue" stroke="midnightblue" points="487.81,-83.38 480.47,-75.74 481.44,-86.29 487.81,-83.38"/>
</g>
<!-- Node16 -->
<g id="node16" class="node">
<title>Node16</title>
<g id="a_node16"><a xlink:href="Math_8hpp.html" target="_top" xlink:title=" ">
<polygon fill="white" stroke="black" points="543.5,-168.5 543.5,-187.5 659.5,-187.5 659.5,-168.5 543.5,-168.5"/>
<text text-anchor="middle" x="601.5" y="-175.5" font-family="Helvetica,sans-Serif" font-size="10.00">Core/Math/Math.hpp</text>
</a>
</g>
</g>
<!-- Node15&#45;&gt;Node16 -->
<g id="edge20" class="edge">
<title>Node15&#45;&gt;Node16</title>
<path fill="none" stroke="midnightblue" d="M644.08,-224.08C636.65,-216.22 625.65,-204.57 616.69,-195.08"/>
<polygon fill="midnightblue" stroke="midnightblue" points="619.18,-192.62 609.76,-187.75 614.09,-197.42 619.18,-192.62"/>
</g>
<!-- Node20 -->
<g id="node20" class="node">
<title>Node20</title>
<g id="a_node20"><a xlink:title=" ">
<polygon fill="white" stroke="#bfbfbf" points="750,-168.5 750,-187.5 819,-187.5 819,-168.5 750,-168.5"/>
<text text-anchor="middle" x="784.5" y="-175.5" font-family="Helvetica,sans-Serif" font-size="10.00">Eigen/Core</text>
</a>
</g>
</g>
<!-- Node15&#45;&gt;Node20 -->
<g id="edge26" class="edge">
<title>Node15&#45;&gt;Node20</title>
<path fill="none" stroke="midnightblue" d="M673.42,-224.44C695.24,-215.52 729.65,-201.44 754.39,-191.32"/>
<polygon fill="midnightblue" stroke="midnightblue" points="755.75,-194.54 763.68,-187.52 753.1,-188.06 755.75,-194.54"/>
</g>
<!-- Node21 -->
<g id="node21" class="node">
<title>Node21</title>
<g id="a_node21"><a xlink:title=" ">
<polygon fill="white" stroke="#bfbfbf" points="837,-168.5 837,-187.5 932,-187.5 932,-168.5 837,-168.5"/>
<text text-anchor="middle" x="884.5" y="-175.5" font-family="Helvetica,sans-Serif" font-size="10.00">Eigen/Geometry</text>
</a>
</g>
</g>
<!-- Node15&#45;&gt;Node21 -->
<g id="edge27" class="edge">
<title>Node15&#45;&gt;Node21</title>
<path fill="none" stroke="midnightblue" d="M689.26,-224.44C729.56,-215.06 794.31,-199.99 838.08,-189.8"/>
<polygon fill="midnightblue" stroke="midnightblue" points="838.96,-193.19 847.91,-187.52 837.38,-186.37 838.96,-193.19"/>
</g>
<!-- Node22 -->
<g id="node22" class="node">
<title>Node22</title>
<g id="a_node22"><a xlink:title=" ">
<polygon fill="white" stroke="#bfbfbf" points="677.5,-168.5 677.5,-187.5 731.5,-187.5 731.5,-168.5 677.5,-168.5"/>
<text text-anchor="middle" x="704.5" y="-175.5" font-family="Helvetica,sans-Serif" font-size="10.00">random</text>
</a>
</g>
</g>
<!-- Node15&#45;&gt;Node22 -->
<g id="edge28" class="edge">
<title>Node15&#45;&gt;Node22</title>
<path fill="none" stroke="midnightblue" d="M661.09,-224.08C668.66,-216.22 679.88,-204.57 689.01,-195.08"/>
<polygon fill="midnightblue" stroke="midnightblue" points="691.66,-197.38 696.07,-187.75 686.62,-192.53 691.66,-197.38"/>
</g>
<!-- Node16&#45;&gt;Node8 -->
<g id="edge21" class="edge">
<title>Node16&#45;&gt;Node8</title>
<path fill="none" stroke="midnightblue" d="M575.67,-168.44C548.25,-159.36 504.72,-144.94 474.07,-134.78"/>
<polygon fill="midnightblue" stroke="midnightblue" points="474.8,-131.34 464.21,-131.52 472.6,-137.98 474.8,-131.34"/>
</g>
<!-- Node17 -->
<g id="node17" class="node">
<title>Node17</title>
<g id="a_node17"><a xlink:title=" ">
<polygon fill="white" stroke="#bfbfbf" points="737.5,-112.5 737.5,-131.5 801.5,-131.5 801.5,-112.5 737.5,-112.5"/>
<text text-anchor="middle" x="769.5" y="-119.5" font-family="Helvetica,sans-Serif" font-size="10.00">algorithm</text>
</a>
</g>
</g>
<!-- Node16&#45;&gt;Node17 -->
<g id="edge22" class="edge">
<title>Node16&#45;&gt;Node17</title>
<path fill="none" stroke="midnightblue" d="M628.12,-168.44C656.51,-159.32 701.64,-144.81 733.25,-134.65"/>
<polygon fill="midnightblue" stroke="midnightblue" points="734.56,-137.91 743,-131.52 732.41,-131.24 734.56,-137.91"/>
</g>
<!-- Node18 -->
<g id="node18" class="node">
<title>Node18</title>
<g id="a_node18"><a xlink:title=" ">
<polygon fill="white" stroke="#bfbfbf" points="544,-112.5 544,-131.5 591,-131.5 591,-112.5 544,-112.5"/>
<text text-anchor="middle" x="567.5" y="-119.5" font-family="Helvetica,sans-Serif" font-size="10.00">cmath</text>
</a>
</g>
</g>
<!-- Node16&#45;&gt;Node18 -->
<g id="edge23" class="edge">
<title>Node16&#45;&gt;Node18</title>
<path fill="none" stroke="midnightblue" d="M595.89,-168.08C591.13,-160.53 584.18,-149.49 578.35,-140.23"/>
<polygon fill="midnightblue" stroke="midnightblue" points="581.3,-138.35 573.01,-131.75 575.38,-142.08 581.3,-138.35"/>
</g>
<!-- Node19 -->
<g id="node19" class="node">
<title>Node19</title>
<g id="a_node19"><a xlink:href="Math_8inl.html" target="_top" xlink:title=" ">
<polygon fill="white" stroke="black" points="609.5,-112.5 609.5,-131.5 719.5,-131.5 719.5,-112.5 609.5,-112.5"/>
<text text-anchor="middle" x="664.5" y="-119.5" font-family="Helvetica,sans-Serif" font-size="10.00">Core/Math/Math.inl</text>
</a>
</g>
</g>
<!-- Node16&#45;&gt;Node19 -->
<g id="edge24" class="edge">
<title>Node16&#45;&gt;Node19</title>
<path fill="none" stroke="midnightblue" d="M606.74,-168.08C614.55,-159.9 628.56,-147.63 640.94,-137.95"/>
<polygon fill="midnightblue" stroke="midnightblue" points="643.29,-140.57 649.16,-131.75 639.07,-134.98 643.29,-140.57"/>
</g>
<!-- Node19&#45;&gt;Node16 -->
<g id="edge25" class="edge">
<title>Node19&#45;&gt;Node16</title>
<path fill="none" stroke="midnightblue" d="M659.34,-131.83C651.53,-140.03 637.43,-152.38 624.99,-162.1"/>
<polygon fill="midnightblue" stroke="midnightblue" points="622.61,-159.51 616.74,-168.32 626.83,-165.1 622.61,-159.51"/>
</g>
<!-- Node23&#45;&gt;Node5 -->
<g id="edge30" class="edge">
<title>Node23&#45;&gt;Node5</title>
<path fill="none" stroke="midnightblue" d="M228.84,-243.65C245.47,-252.07 268.51,-265 284.71,-274.9"/>
<polygon fill="midnightblue" stroke="midnightblue" points="283.02,-277.97 293.35,-280.32 286.74,-272.04 283.02,-277.97"/>
</g>
<!-- Node24 -->
<g id="node24" class="node">
<title>Node24</title>
<g id="a_node24"><a xlink:href="Log_8hpp.html" target="_top" xlink:title=" ">
<polygon fill="white" stroke="black" points="143.5,-168.5 143.5,-187.5 249.5,-187.5 249.5,-168.5 143.5,-168.5"/>
<text text-anchor="middle" x="196.5" y="-175.5" font-family="Helvetica,sans-Serif" font-size="10.00">Core/Utils/Log.hpp</text>
</a>
</g>
</g>
<!-- Node23&#45;&gt;Node24 -->
<g id="edge31" class="edge">
<title>Node23&#45;&gt;Node24</title>
<path fill="none" stroke="midnightblue" d="M206.52,-224.08C204.93,-216.93 202.64,-206.64 200.65,-197.69"/>
<polygon fill="midnightblue" stroke="midnightblue" points="204.03,-196.75 198.44,-187.75 197.2,-198.27 204.03,-196.75"/>
</g>
<!-- Node24&#45;&gt;Node6 -->
<g id="edge36" class="edge">
<title>Node24&#45;&gt;Node6</title>
<path fill="none" stroke="midnightblue" d="M213.05,-168.32C229.49,-159.7 254.93,-146.36 273.97,-136.39"/>
<polygon fill="midnightblue" stroke="midnightblue" points="275.76,-139.4 282.99,-131.65 272.51,-133.2 275.76,-139.4"/>
</g>
<!-- Node24&#45;&gt;Node8 -->
<g id="edge32" class="edge">
<title>Node24&#45;&gt;Node8</title>
<path fill="none" stroke="midnightblue" d="M234.85,-168.44C276.97,-159.04 344.71,-143.93 390.37,-133.74"/>
<polygon fill="midnightblue" stroke="midnightblue" points="391.34,-137.11 400.33,-131.52 389.81,-130.28 391.34,-137.11"/>
</g>
<!-- Node24&#45;&gt;Node13 -->
<g id="edge34" class="edge">
<title>Node24&#45;&gt;Node13</title>
<path fill="none" stroke="midnightblue" d="M203.96,-168.49C211.35,-159.76 222.68,-145.57 230.5,-132 250.44,-97.4 266.97,-53.5 275.42,-29.22"/>
<polygon fill="midnightblue" stroke="midnightblue" points="278.81,-30.15 278.72,-19.55 272.18,-27.89 278.81,-30.15"/>
</g>
<!-- Node25 -->
<g id="node25" class="node">
<title>Node25</title>
<g id="a_node25"><a xlink:title=" ">
<polygon fill="white" stroke="#bfbfbf" points="109.5,-112.5 109.5,-131.5 153.5,-131.5 153.5,-112.5 109.5,-112.5"/>
<text text-anchor="middle" x="131.5" y="-119.5" font-family="Helvetica,sans-Serif" font-size="10.00">ctime</text>
</a>
</g>
</g>
<!-- Node24&#45;&gt;Node25 -->
<g id="edge33" class="edge">
<title>Node24&#45;&gt;Node25</title>
<path fill="none" stroke="midnightblue" d="M186.06,-168.32C176.35,-160.26 161.68,-148.08 150,-138.37"/>
<polygon fill="midnightblue" stroke="midnightblue" points="152.06,-135.53 142.13,-131.83 147.59,-140.92 152.06,-135.53"/>
</g>
<!-- Node26 -->
<g id="node26" class="node">
<title>Node26</title>
<g id="a_node26"><a xlink:title=" ">
<polygon fill="white" stroke="#bfbfbf" points="171.5,-112.5 171.5,-131.5 221.5,-131.5 221.5,-112.5 171.5,-112.5"/>
<text text-anchor="middle" x="196.5" y="-119.5" font-family="Helvetica,sans-Serif" font-size="10.00">stdio.h</text>
</a>
</g>
</g>
<!-- Node24&#45;&gt;Node26 -->
<g id="edge35" class="edge">
<title>Node24&#45;&gt;Node26</title>
<path fill="none" stroke="midnightblue" d="M196.5,-168.08C196.5,-161.01 196.5,-150.86 196.5,-141.99"/>
<polygon fill="midnightblue" stroke="midnightblue" points="200,-141.75 196.5,-131.75 193,-141.75 200,-141.75"/>
</g>
<!-- Node27&#45;&gt;Node8 -->
<g id="edge38" class="edge">
<title>Node27&#45;&gt;Node8</title>
<path fill="none" stroke="midnightblue" d="M901.41,-224.48C924.15,-211.97 959.74,-187.93 941.5,-168 910.92,-134.59 580.6,-136.09 535.5,-132 523.39,-130.9 510.44,-129.71 498.07,-128.57"/>
<polygon fill="midnightblue" stroke="midnightblue" points="498.12,-125.06 487.84,-127.62 497.48,-132.03 498.12,-125.06"/>
</g>
<!-- Node27&#45;&gt;Node20 -->
<g id="edge39" class="edge">
<title>Node27&#45;&gt;Node20</title>
<path fill="none" stroke="midnightblue" d="M868.43,-224.32C852.54,-215.74 827.99,-202.49 809.54,-192.52"/>
<polygon fill="midnightblue" stroke="midnightblue" points="810.99,-189.33 800.53,-187.65 807.66,-195.49 810.99,-189.33"/>
</g>
<!-- Node27&#45;&gt;Node21 -->
<g id="edge40" class="edge">
<title>Node27&#45;&gt;Node21</title>
<path fill="none" stroke="midnightblue" d="M884.5,-224.08C884.5,-217.01 884.5,-206.86 884.5,-197.99"/>
<polygon fill="midnightblue" stroke="midnightblue" points="888,-197.75 884.5,-187.75 881,-197.75 888,-197.75"/>
</g>
<!-- Node28 -->
<g id="node28" class="node">
<title>Node28</title>
<g id="a_node28"><a xlink:title=" ">
<polygon fill="white" stroke="#bfbfbf" points="988.5,-168.5 988.5,-187.5 1068.5,-187.5 1068.5,-168.5 988.5,-168.5"/>
<text text-anchor="middle" x="1028.5" y="-175.5" font-family="Helvetica,sans-Serif" font-size="10.00">Eigen/Sparse</text>
</a>
</g>
</g>
<!-- Node27&#45;&gt;Node28 -->
<g id="edge41" class="edge">
<title>Node27&#45;&gt;Node28</title>
<path fill="none" stroke="midnightblue" d="M907.32,-224.44C931.33,-215.44 969.33,-201.19 996.37,-191.05"/>
<polygon fill="midnightblue" stroke="midnightblue" points="997.66,-194.3 1005.79,-187.52 995.2,-187.75 997.66,-194.3"/>
</g>
<!-- Node29&#45;&gt;Node9 -->
<g id="edge43" class="edge">
<title>Node29&#45;&gt;Node9</title>
<path fill="none" stroke="midnightblue" d="M726.65,-281.67C729.64,-281.1 732.62,-280.54 735.5,-280 892.75,-250.75 1178.32,-292.16 1077.5,-168 1011.84,-87.14 691.65,-70.92 547.31,-67.73"/>
<polygon fill="midnightblue" stroke="midnightblue" points="547.29,-64.23 537.22,-67.53 547.15,-71.23 547.29,-64.23"/>
</g>
</g>
</svg>
