<?xml version="1.0" encoding="UTF-8" standalone="no"?>
<!DOCTYPE svg PUBLIC "-//W3C//DTD SVG 1.1//EN"
 "http://www.w3.org/Graphics/SVG/1.1/DTD/svg11.dtd">
<!-- Generated by graphviz version 2.43.0 (0)
 -->
<!-- Title: /home/runner/work/Radium&#45;Engine/Radium&#45;Engine/src/Radium&#45;Engine/src/Core/Animation/Cage.hpp Pages: 1 -->
<svg width="902pt" height="408pt"
 viewBox="0.00 0.00 902.43 408.00" xmlns="http://www.w3.org/2000/svg" xmlns:xlink="http://www.w3.org/1999/xlink">
<g id="graph0" class="graph" transform="scale(1 1) rotate(0) translate(4 404)">
<title>/home/runner/work/Radium&#45;Engine/Radium&#45;Engine/src/Radium&#45;Engine/src/Core/Animation/Cage.hpp</title>
<polygon fill="white" stroke="transparent" points="-4,4 -4,-404 898.43,-404 898.43,4 -4,4"/>
<!-- Node1 -->
<g id="node1" class="node">
<title>Node1</title>
<g id="a_node1"><a xlink:title=" ">
<polygon fill="#bfbfbf" stroke="black" points="364.43,-347.5 364.43,-399.5 554.43,-399.5 554.43,-347.5 364.43,-347.5"/>
<text text-anchor="start" x="372.43" y="-387.5" font-family="Helvetica,sans-Serif" font-size="10.00">/home/runner/work/Radium</text>
<text text-anchor="start" x="372.43" y="-376.5" font-family="Helvetica,sans-Serif" font-size="10.00">&#45;Engine/Radium&#45;Engine/src</text>
<text text-anchor="start" x="372.43" y="-365.5" font-family="Helvetica,sans-Serif" font-size="10.00">/Radium&#45;Engine/src/Core/Animation</text>
<text text-anchor="middle" x="459.43" y="-354.5" font-family="Helvetica,sans-Serif" font-size="10.00">/Cage.hpp</text>
</a>
</g>
</g>
<!-- Node2 -->
<g id="node2" class="node">
<title>Node2</title>
<g id="a_node2"><a xlink:href="HandleArray_8hpp.html" target="_top" xlink:title=" ">
<polygon fill="white" stroke="black" points="371.43,-291.5 371.43,-310.5 547.43,-310.5 547.43,-291.5 371.43,-291.5"/>
<text text-anchor="middle" x="459.43" y="-298.5" font-family="Helvetica,sans-Serif" font-size="10.00">Core/Animation/HandleArray.hpp</text>
</a>
</g>
</g>
<!-- Node1&#45;&gt;Node2 -->
<g id="edge1" class="edge">
<title>Node1&#45;&gt;Node2</title>
<path fill="none" stroke="midnightblue" d="M459.43,-347.45C459.43,-338.73 459.43,-329.1 459.43,-320.96"/>
<polygon fill="midnightblue" stroke="midnightblue" points="462.93,-320.7 459.43,-310.7 455.93,-320.7 462.93,-320.7"/>
</g>
<!-- Node5 -->
<g id="node5" class="node">
<title>Node5</title>
<g id="a_node5"><a xlink:href="RaCore_8hpp.html" target="_top" xlink:title=" ">
<polygon fill="white" stroke="black" points="313.43,-112.5 313.43,-131.5 411.43,-131.5 411.43,-112.5 313.43,-112.5"/>
<text text-anchor="middle" x="362.43" y="-119.5" font-family="Helvetica,sans-Serif" font-size="10.00">Core/RaCore.hpp</text>
</a>
</g>
</g>
<!-- Node1&#45;&gt;Node5 -->
<g id="edge24" class="edge">
<title>Node1&#45;&gt;Node5</title>
<path fill="none" stroke="midnightblue" d="M364.07,-366.41C256.64,-353.86 86.61,-315.57 6.43,-199 -1.38,-187.65 -2.68,-178.34 6.43,-168 25.7,-146.13 207.11,-132.19 303.25,-126.27"/>
<polygon fill="midnightblue" stroke="midnightblue" points="303.64,-129.75 313.41,-125.65 303.22,-122.76 303.64,-129.75"/>
</g>
<!-- Node19 -->
<g id="node19" class="node">
<title>Node19</title>
<g id="a_node19"><a xlink:href="VectorArray_8hpp.html" target="_top" xlink:title=" ">
<polygon fill="white" stroke="black" points="562.43,-235.5 562.43,-254.5 736.43,-254.5 736.43,-235.5 562.43,-235.5"/>
<text text-anchor="middle" x="649.43" y="-242.5" font-family="Helvetica,sans-Serif" font-size="10.00">Core/Containers/VectorArray.hpp</text>
</a>
</g>
</g>
<!-- Node1&#45;&gt;Node19 -->
<g id="edge21" class="edge">
<title>Node1&#45;&gt;Node19</title>
<path fill="none" stroke="midnightblue" d="M499.8,-347.47C517.32,-336.46 538,-323.27 556.43,-311 581.79,-294.11 610.46,-273.9 629.17,-260.55"/>
<polygon fill="midnightblue" stroke="midnightblue" points="631.41,-263.25 637.51,-254.59 627.34,-257.56 631.41,-263.25"/>
</g>
<!-- Node3 -->
<g id="node3" class="node">
<title>Node3</title>
<g id="a_node3"><a xlink:href="Pose_8hpp.html" target="_top" xlink:title=" ">
<polygon fill="white" stroke="black" points="754.43,-235.5 754.43,-254.5 894.43,-254.5 894.43,-235.5 754.43,-235.5"/>
<text text-anchor="middle" x="824.43" y="-242.5" font-family="Helvetica,sans-Serif" font-size="10.00">Core/Animation/Pose.hpp</text>
</a>
</g>
</g>
<!-- Node2&#45;&gt;Node3 -->
<g id="edge2" class="edge">
<title>Node2&#45;&gt;Node3</title>
<path fill="none" stroke="midnightblue" d="M517.26,-291.44C582.27,-281.83 687.7,-266.23 756.56,-256.04"/>
<polygon fill="midnightblue" stroke="midnightblue" points="757.48,-259.44 766.86,-254.52 756.46,-252.52 757.48,-259.44"/>
</g>
<!-- Node2&#45;&gt;Node5 -->
<g id="edge13" class="edge">
<title>Node2&#45;&gt;Node5</title>
<path fill="none" stroke="midnightblue" d="M419.93,-291.48C400.03,-284.99 377.6,-273.85 365.43,-255 342.91,-220.14 350.74,-168.56 357.26,-141.35"/>
<polygon fill="midnightblue" stroke="midnightblue" points="360.66,-142.16 359.79,-131.6 353.89,-140.4 360.66,-142.16"/>
</g>
<!-- Node14 -->
<g id="node14" class="node">
<title>Node14</title>
<g id="a_node14"><a xlink:href="Types_8hpp.html" target="_top" xlink:title=" ">
<polygon fill="white" stroke="black" points="210.93,-235.5 210.93,-254.5 301.93,-254.5 301.93,-235.5 210.93,-235.5"/>
<text text-anchor="middle" x="256.43" y="-242.5" font-family="Helvetica,sans-Serif" font-size="10.00">Core/Types.hpp</text>
</a>
</g>
</g>
<!-- Node2&#45;&gt;Node14 -->
<g id="edge14" class="edge">
<title>Node2&#45;&gt;Node14</title>
<path fill="none" stroke="midnightblue" d="M427.26,-291.44C392.37,-282.16 336.53,-267.31 298.26,-257.13"/>
<polygon fill="midnightblue" stroke="midnightblue" points="299.01,-253.7 288.44,-254.52 297.21,-260.47 299.01,-253.7"/>
</g>
<!-- Node18 -->
<g id="node18" class="node">
<title>Node18</title>
<g id="a_node18"><a xlink:href="HandleArray_8inl.html" target="_top" xlink:title=" ">
<polygon fill="white" stroke="black" points="374.43,-235.5 374.43,-254.5 544.43,-254.5 544.43,-235.5 374.43,-235.5"/>
<text text-anchor="middle" x="459.43" y="-242.5" font-family="Helvetica,sans-Serif" font-size="10.00">Core/Animation/HandleArray.inl</text>
</a>
</g>
</g>
<!-- Node2&#45;&gt;Node18 -->
<g id="edge19" class="edge">
<title>Node2&#45;&gt;Node18</title>
<path fill="none" stroke="midnightblue" d="M454.26,-291.08C452.75,-283.93 452.32,-273.64 452.97,-264.69"/>
<polygon fill="midnightblue" stroke="midnightblue" points="456.44,-265.13 454.3,-254.75 449.5,-264.2 456.44,-265.13"/>
</g>
<!-- Node4 -->
<g id="node4" class="node">
<title>Node4</title>
<g id="a_node4"><a xlink:href="AlignedStdVector_8hpp.html" target="_top" xlink:title=" ">
<polygon fill="white" stroke="black" points="574.43,-168.5 574.43,-198.5 724.43,-198.5 724.43,-168.5 574.43,-168.5"/>
<text text-anchor="start" x="582.43" y="-186.5" font-family="Helvetica,sans-Serif" font-size="10.00">Core/Containers/AlignedStd</text>
<text text-anchor="middle" x="649.43" y="-175.5" font-family="Helvetica,sans-Serif" font-size="10.00">Vector.hpp</text>
</a>
</g>
</g>
<!-- Node3&#45;&gt;Node4 -->
<g id="edge3" class="edge">
<title>Node3&#45;&gt;Node4</title>
<path fill="none" stroke="midnightblue" d="M799.35,-235.48C773.66,-226.74 732.98,-212.91 700.47,-201.86"/>
<polygon fill="midnightblue" stroke="midnightblue" points="701.26,-198.43 690.67,-198.52 699.01,-205.06 701.26,-198.43"/>
</g>
<!-- Node4&#45;&gt;Node5 -->
<g id="edge4" class="edge">
<title>Node4&#45;&gt;Node5</title>
<path fill="none" stroke="midnightblue" d="M581.77,-168.47C530.21,-157.78 460.3,-143.29 413.39,-133.57"/>
<polygon fill="midnightblue" stroke="midnightblue" points="413.96,-130.11 403.46,-131.51 412.54,-136.96 413.96,-130.11"/>
</g>
<!-- Node12 -->
<g id="node12" class="node">
<title>Node12</title>
<g id="a_node12"><a xlink:title=" ">
<polygon fill="white" stroke="#bfbfbf" points="558.93,-112.5 558.93,-131.5 651.93,-131.5 651.93,-112.5 558.93,-112.5"/>
<text text-anchor="middle" x="605.43" y="-119.5" font-family="Helvetica,sans-Serif" font-size="10.00">Eigen/StdVector</text>
</a>
</g>
</g>
<!-- Node4&#45;&gt;Node12 -->
<g id="edge11" class="edge">
<title>Node4&#45;&gt;Node12</title>
<path fill="none" stroke="midnightblue" d="M639,-168.4C632.67,-159.84 624.56,-148.87 617.89,-139.86"/>
<polygon fill="midnightblue" stroke="midnightblue" points="620.59,-137.62 611.83,-131.66 614.96,-141.78 620.59,-137.62"/>
</g>
<!-- Node13 -->
<g id="node13" class="node">
<title>Node13</title>
<g id="a_node13"><a xlink:title=" ">
<polygon fill="white" stroke="#bfbfbf" points="669.93,-112.5 669.93,-131.5 716.93,-131.5 716.93,-112.5 669.93,-112.5"/>
<text text-anchor="middle" x="693.43" y="-119.5" font-family="Helvetica,sans-Serif" font-size="10.00">vector</text>
</a>
</g>
</g>
<!-- Node4&#45;&gt;Node13 -->
<g id="edge12" class="edge">
<title>Node4&#45;&gt;Node13</title>
<path fill="none" stroke="midnightblue" d="M659.85,-168.4C666.18,-159.84 674.29,-148.87 680.96,-139.86"/>
<polygon fill="midnightblue" stroke="midnightblue" points="683.89,-141.78 687.02,-131.66 678.26,-137.62 683.89,-141.78"/>
</g>
<!-- Node6 -->
<g id="node6" class="node">
<title>Node6</title>
<g id="a_node6"><a xlink:href="CoreMacros_8hpp.html" target="_top" xlink:title=" ">
<polygon fill="white" stroke="black" points="301.93,-56.5 301.93,-75.5 422.93,-75.5 422.93,-56.5 301.93,-56.5"/>
<text text-anchor="middle" x="362.43" y="-63.5" font-family="Helvetica,sans-Serif" font-size="10.00">Core/CoreMacros.hpp</text>
</a>
</g>
</g>
<!-- Node5&#45;&gt;Node6 -->
<g id="edge5" class="edge">
<title>Node5&#45;&gt;Node6</title>
<path fill="none" stroke="midnightblue" d="M362.43,-112.08C362.43,-105.01 362.43,-94.86 362.43,-85.99"/>
<polygon fill="midnightblue" stroke="midnightblue" points="365.93,-85.75 362.43,-75.75 358.93,-85.75 365.93,-85.75"/>
</g>
<!-- Node7 -->
<g id="node7" class="node">
<title>Node7</title>
<g id="a_node7"><a xlink:title=" ">
<polygon fill="white" stroke="#bfbfbf" points="198.43,-0.5 198.43,-19.5 250.43,-19.5 250.43,-0.5 198.43,-0.5"/>
<text text-anchor="middle" x="224.43" y="-7.5" font-family="Helvetica,sans-Serif" font-size="10.00">cassert</text>
</a>
</g>
</g>
<!-- Node6&#45;&gt;Node7 -->
<g id="edge6" class="edge">
<title>Node6&#45;&gt;Node7</title>
<path fill="none" stroke="midnightblue" d="M340.56,-56.44C317.65,-47.48 281.45,-33.31 255.56,-23.18"/>
<polygon fill="midnightblue" stroke="midnightblue" points="256.78,-19.9 246.19,-19.52 254.23,-26.42 256.78,-19.9"/>
</g>
<!-- Node8 -->
<g id="node8" class="node">
<title>Node8</title>
<g id="a_node8"><a xlink:title=" ">
<polygon fill="white" stroke="#bfbfbf" points="268.43,-0.5 268.43,-19.5 314.43,-19.5 314.43,-0.5 268.43,-0.5"/>
<text text-anchor="middle" x="291.43" y="-7.5" font-family="Helvetica,sans-Serif" font-size="10.00">cstdio</text>
</a>
</g>
</g>
<!-- Node6&#45;&gt;Node8 -->
<g id="edge7" class="edge">
<title>Node6&#45;&gt;Node8</title>
<path fill="none" stroke="midnightblue" d="M351.02,-56.32C340.32,-48.18 324.09,-35.84 311.26,-26.09"/>
<polygon fill="midnightblue" stroke="midnightblue" points="313.12,-23.1 303.04,-19.83 308.88,-28.67 313.12,-23.1"/>
</g>
<!-- Node9 -->
<g id="node9" class="node">
<title>Node9</title>
<g id="a_node9"><a xlink:title=" ">
<polygon fill="white" stroke="#bfbfbf" points="332.43,-0.5 332.43,-19.5 392.43,-19.5 392.43,-0.5 332.43,-0.5"/>
<text text-anchor="middle" x="362.43" y="-7.5" font-family="Helvetica,sans-Serif" font-size="10.00">iostream</text>
</a>
</g>
</g>
<!-- Node6&#45;&gt;Node9 -->
<g id="edge8" class="edge">
<title>Node6&#45;&gt;Node9</title>
<path fill="none" stroke="midnightblue" d="M362.43,-56.08C362.43,-49.01 362.43,-38.86 362.43,-29.99"/>
<polygon fill="midnightblue" stroke="midnightblue" points="365.93,-29.75 362.43,-19.75 358.93,-29.75 365.93,-29.75"/>
</g>
<!-- Node10 -->
<g id="node10" class="node">
<title>Node10</title>
<g id="a_node10"><a xlink:title=" ">
<polygon fill="white" stroke="#bfbfbf" points="410.43,-0.5 410.43,-19.5 466.43,-19.5 466.43,-0.5 410.43,-0.5"/>
<text text-anchor="middle" x="438.43" y="-7.5" font-family="Helvetica,sans-Serif" font-size="10.00">sstream</text>
</a>
</g>
</g>
<!-- Node6&#45;&gt;Node10 -->
<g id="edge9" class="edge">
<title>Node6&#45;&gt;Node10</title>
<path fill="none" stroke="midnightblue" d="M374.64,-56.32C386.2,-48.11 403.8,-35.6 417.59,-25.81"/>
<polygon fill="midnightblue" stroke="midnightblue" points="419.87,-28.48 425.99,-19.83 415.81,-22.77 419.87,-28.48"/>
</g>
<!-- Node11 -->
<g id="node11" class="node">
<title>Node11</title>
<g id="a_node11"><a xlink:title=" ">
<polygon fill="white" stroke="#bfbfbf" points="484.43,-0.5 484.43,-19.5 532.43,-19.5 532.43,-0.5 484.43,-0.5"/>
<text text-anchor="middle" x="508.43" y="-7.5" font-family="Helvetica,sans-Serif" font-size="10.00">thread</text>
</a>
</g>
</g>
<!-- Node6&#45;&gt;Node11 -->
<g id="edge10" class="edge">
<title>Node6&#45;&gt;Node11</title>
<path fill="none" stroke="midnightblue" d="M385.56,-56.44C409.91,-47.44 448.43,-33.19 475.85,-23.05"/>
<polygon fill="midnightblue" stroke="midnightblue" points="477.24,-26.27 485.4,-19.52 474.81,-19.7 477.24,-26.27"/>
</g>
<!-- Node14&#45;&gt;Node5 -->
<g id="edge15" class="edge">
<title>Node14&#45;&gt;Node5</title>
<path fill="none" stroke="midnightblue" d="M267.09,-235.21C277.38,-226.5 293.18,-212.53 305.43,-199 322.64,-179.99 339.97,-156.04 350.92,-140.16"/>
<polygon fill="midnightblue" stroke="midnightblue" points="353.85,-142.07 356.59,-131.84 348.07,-138.13 353.85,-142.07"/>
</g>
<!-- Node15 -->
<g id="node15" class="node">
<title>Node15</title>
<g id="a_node15"><a xlink:title=" ">
<polygon fill="white" stroke="#bfbfbf" points="15.93,-174 15.93,-193 84.93,-193 84.93,-174 15.93,-174"/>
<text text-anchor="middle" x="50.43" y="-181" font-family="Helvetica,sans-Serif" font-size="10.00">Eigen/Core</text>
</a>
</g>
</g>
<!-- Node14&#45;&gt;Node15 -->
<g id="edge16" class="edge">
<title>Node14&#45;&gt;Node15</title>
<path fill="none" stroke="midnightblue" d="M223.49,-235.49C190.45,-226.81 138.2,-212.72 93.43,-199 90.51,-198.11 87.49,-197.15 84.46,-196.17"/>
<polygon fill="midnightblue" stroke="midnightblue" points="85.5,-192.83 74.91,-193.02 83.31,-199.48 85.5,-192.83"/>
</g>
<!-- Node16 -->
<g id="node16" class="node">
<title>Node16</title>
<g id="a_node16"><a xlink:title=" ">
<polygon fill="white" stroke="#bfbfbf" points="102.93,-174 102.93,-193 197.93,-193 197.93,-174 102.93,-174"/>
<text text-anchor="middle" x="150.43" y="-181" font-family="Helvetica,sans-Serif" font-size="10.00">Eigen/Geometry</text>
</a>
</g>
</g>
<!-- Node14&#45;&gt;Node16 -->
<g id="edge17" class="edge">
<title>Node14&#45;&gt;Node16</title>
<path fill="none" stroke="midnightblue" d="M241.24,-235.48C223.76,-225.67 194.85,-209.43 174.34,-197.92"/>
<polygon fill="midnightblue" stroke="midnightblue" points="176.02,-194.85 165.59,-193.01 172.59,-200.96 176.02,-194.85"/>
</g>
<!-- Node17 -->
<g id="node17" class="node">
<title>Node17</title>
<g id="a_node17"><a xlink:title=" ">
<polygon fill="white" stroke="#bfbfbf" points="216.43,-174 216.43,-193 296.43,-193 296.43,-174 216.43,-174"/>
<text text-anchor="middle" x="256.43" y="-181" font-family="Helvetica,sans-Serif" font-size="10.00">Eigen/Sparse</text>
</a>
</g>
</g>
<!-- Node14&#45;&gt;Node17 -->
<g id="edge18" class="edge">
<title>Node14&#45;&gt;Node17</title>
<path fill="none" stroke="midnightblue" d="M256.43,-235.48C256.43,-227.08 256.43,-213.98 256.43,-203.16"/>
<polygon fill="midnightblue" stroke="midnightblue" points="259.93,-203.01 256.43,-193.01 252.93,-203.01 259.93,-203.01"/>
</g>
<!-- Node18&#45;&gt;Node2 -->
<g id="edge20" class="edge">
<title>Node18&#45;&gt;Node2</title>
<path fill="none" stroke="midnightblue" d="M464.56,-254.75C466.08,-261.86 466.53,-272.14 465.9,-281.1"/>
<polygon fill="midnightblue" stroke="midnightblue" points="462.42,-280.71 464.59,-291.08 469.36,-281.62 462.42,-280.71"/>
</g>
<!-- Node19&#45;&gt;Node4 -->
<g id="edge22" class="edge">
<title>Node19&#45;&gt;Node4</title>
<path fill="none" stroke="midnightblue" d="M649.43,-235.48C649.43,-228.47 649.43,-218.19 649.43,-208.7"/>
<polygon fill="midnightblue" stroke="midnightblue" points="652.93,-208.52 649.43,-198.52 645.93,-208.52 652.93,-208.52"/>
</g>
<!-- Node19&#45;&gt;Node5 -->
<g id="edge23" class="edge">
<title>Node19&#45;&gt;Node5</title>
<path fill="none" stroke="midnightblue" d="M629.24,-235.49C579.55,-214.54 451.07,-160.37 392.42,-135.64"/>
<polygon fill="midnightblue" stroke="midnightblue" points="393.54,-132.32 382.97,-131.66 390.82,-138.77 393.54,-132.32"/>
</g>
</g>
</svg>
