<?xml version="1.0" encoding="UTF-8" standalone="no"?>
<!DOCTYPE svg PUBLIC "-//W3C//DTD SVG 1.1//EN"
 "http://www.w3.org/Graphics/SVG/1.1/DTD/svg11.dtd">
<!-- Generated by graphviz version 2.43.0 (0)
 -->
<!-- Title: /home/runner/work/Radium&#45;Engine/Radium&#45;Engine/src/Radium&#45;Engine/src/Core/Asset/Camera.cpp Pages: 1 -->
<svg width="1609pt" height="464pt"
 viewBox="0.00 0.00 1608.50 464.00" xmlns="http://www.w3.org/2000/svg" xmlns:xlink="http://www.w3.org/1999/xlink">
<g id="graph0" class="graph" transform="scale(1 1) rotate(0) translate(4 460)">
<title>/home/runner/work/Radium&#45;Engine/Radium&#45;Engine/src/Radium&#45;Engine/src/Core/Asset/Camera.cpp</title>
<polygon fill="white" stroke="transparent" points="-4,4 -4,-460 1604.5,-460 1604.5,4 -4,4"/>
<!-- Node1 -->
<g id="node1" class="node">
<title>Node1</title>
<g id="a_node1"><a xlink:title=" ">
<polygon fill="#bfbfbf" stroke="black" points="613.5,-403.5 613.5,-455.5 780.5,-455.5 780.5,-403.5 613.5,-403.5"/>
<text text-anchor="start" x="621.5" y="-443.5" font-family="Helvetica,sans-Serif" font-size="10.00">/home/runner/work/Radium</text>
<text text-anchor="start" x="621.5" y="-432.5" font-family="Helvetica,sans-Serif" font-size="10.00">&#45;Engine/Radium&#45;Engine/src</text>
<text text-anchor="start" x="621.5" y="-421.5" font-family="Helvetica,sans-Serif" font-size="10.00">/Radium&#45;Engine/src/Core/Asset</text>
<text text-anchor="middle" x="697" y="-410.5" font-family="Helvetica,sans-Serif" font-size="10.00">/Camera.cpp</text>
</a>
</g>
</g>
<!-- Node2 -->
<g id="node2" class="node">
<title>Node2</title>
<g id="a_node2"><a xlink:href="Camera_8hpp.html" target="_top" xlink:title=" ">
<polygon fill="white" stroke="black" points="423.5,-291.5 423.5,-310.5 554.5,-310.5 554.5,-291.5 423.5,-291.5"/>
<text text-anchor="middle" x="489" y="-298.5" font-family="Helvetica,sans-Serif" font-size="10.00">Core/Asset/Camera.hpp</text>
</a>
</g>
</g>
<!-- Node1&#45;&gt;Node2 -->
<g id="edge1" class="edge">
<title>Node1&#45;&gt;Node2</title>
<path fill="none" stroke="midnightblue" d="M655.41,-403.2C612.28,-376.97 546.43,-336.92 511.92,-315.94"/>
<polygon fill="midnightblue" stroke="midnightblue" points="513.42,-312.76 503.06,-310.55 509.78,-318.74 513.42,-312.76"/>
</g>
<!-- Node3 -->
<g id="node3" class="node">
<title>Node3</title>
<g id="a_node3"><a xlink:href="Math_8hpp.html" target="_top" xlink:title=" ">
<polygon fill="white" stroke="black" points="431,-235.5 431,-254.5 547,-254.5 547,-235.5 431,-235.5"/>
<text text-anchor="middle" x="489" y="-242.5" font-family="Helvetica,sans-Serif" font-size="10.00">Core/Math/Math.hpp</text>
</a>
</g>
</g>
<!-- Node1&#45;&gt;Node3 -->
<g id="edge55" class="edge">
<title>Node1&#45;&gt;Node3</title>
<path fill="none" stroke="midnightblue" d="M675.91,-403.29C650.83,-374.19 606.81,-325.88 563,-291 547.95,-279.02 529.45,-267.77 514.72,-259.52"/>
<polygon fill="midnightblue" stroke="midnightblue" points="516.1,-256.28 505.65,-254.55 512.74,-262.42 516.1,-256.28"/>
</g>
<!-- Node26 -->
<g id="node26" class="node">
<title>Node26</title>
<g id="a_node26"><a xlink:href="CameraComponent_8hpp.html" target="_top" xlink:title=" ">
<polygon fill="white" stroke="black" points="668,-347.5 668,-366.5 868,-366.5 868,-347.5 668,-347.5"/>
<text text-anchor="middle" x="768" y="-354.5" font-family="Helvetica,sans-Serif" font-size="10.00">Engine/Scene/CameraComponent.hpp</text>
</a>
</g>
</g>
<!-- Node1&#45;&gt;Node26 -->
<g id="edge30" class="edge">
<title>Node1&#45;&gt;Node26</title>
<path fill="none" stroke="midnightblue" d="M722.23,-403.45C732.12,-393.63 743.17,-382.66 751.93,-373.95"/>
<polygon fill="midnightblue" stroke="midnightblue" points="754.61,-376.23 759.24,-366.7 749.68,-371.26 754.61,-376.23"/>
</g>
<!-- Node38 -->
<g id="node38" class="node">
<title>Node38</title>
<g id="a_node38"><a xlink:href="MakeShared_8hpp.html" target="_top" xlink:title=" ">
<polygon fill="white" stroke="black" points="890.5,-347.5 890.5,-366.5 1069.5,-366.5 1069.5,-347.5 890.5,-347.5"/>
<text text-anchor="middle" x="980" y="-354.5" font-family="Helvetica,sans-Serif" font-size="10.00">Core/Containers/MakeShared.hpp</text>
</a>
</g>
</g>
<!-- Node1&#45;&gt;Node38 -->
<g id="edge53" class="edge">
<title>Node1&#45;&gt;Node38</title>
<path fill="none" stroke="midnightblue" d="M780.76,-407.63C831.65,-394.96 894.58,-379.28 935.93,-368.98"/>
<polygon fill="midnightblue" stroke="midnightblue" points="936.84,-372.36 945.7,-366.55 935.15,-365.57 936.84,-372.36"/>
</g>
<!-- Node2&#45;&gt;Node3 -->
<g id="edge2" class="edge">
<title>Node2&#45;&gt;Node3</title>
<path fill="none" stroke="midnightblue" d="M489,-291.08C489,-284.01 489,-273.86 489,-264.99"/>
<polygon fill="midnightblue" stroke="midnightblue" points="492.5,-264.75 489,-254.75 485.5,-264.75 492.5,-264.75"/>
</g>
<!-- Node14 -->
<g id="node14" class="node">
<title>Node14</title>
<g id="a_node14"><a xlink:href="Types_8hpp.html" target="_top" xlink:title=" ">
<polygon fill="white" stroke="black" points="977.5,-235.5 977.5,-254.5 1068.5,-254.5 1068.5,-235.5 977.5,-235.5"/>
<text text-anchor="middle" x="1023" y="-242.5" font-family="Helvetica,sans-Serif" font-size="10.00">Core/Types.hpp</text>
</a>
</g>
</g>
<!-- Node2&#45;&gt;Node14 -->
<g id="edge14" class="edge">
<title>Node2&#45;&gt;Node14</title>
<path fill="none" stroke="midnightblue" d="M554.75,-293.35C660.83,-282.62 867.88,-261.69 967.22,-251.64"/>
<polygon fill="midnightblue" stroke="midnightblue" points="967.75,-255.1 977.35,-250.62 967.05,-248.14 967.75,-255.1"/>
</g>
<!-- Node18 -->
<g id="node18" class="node">
<title>Node18</title>
<g id="a_node18"><a xlink:href="Observable_8hpp.html" target="_top" xlink:title=" ">
<polygon fill="white" stroke="black" points="215,-235.5 215,-254.5 359,-254.5 359,-235.5 215,-235.5"/>
<text text-anchor="middle" x="287" y="-242.5" font-family="Helvetica,sans-Serif" font-size="10.00">Core/Utils/Observable.hpp</text>
</a>
</g>
</g>
<!-- Node2&#45;&gt;Node18 -->
<g id="edge19" class="edge">
<title>Node2&#45;&gt;Node18</title>
<path fill="none" stroke="midnightblue" d="M456.99,-291.44C422.27,-282.16 366.71,-267.31 328.62,-257.13"/>
<polygon fill="midnightblue" stroke="midnightblue" points="329.42,-253.72 318.86,-254.52 327.61,-260.48 329.42,-253.72"/>
</g>
<!-- Node25 -->
<g id="node25" class="node">
<title>Node25</title>
<g id="a_node25"><a xlink:href="Camera_8inl.html" target="_top" xlink:title=" ">
<polygon fill="white" stroke="black" points="71.5,-235.5 71.5,-254.5 196.5,-254.5 196.5,-235.5 71.5,-235.5"/>
<text text-anchor="middle" x="134" y="-242.5" font-family="Helvetica,sans-Serif" font-size="10.00">Core/Asset/Camera.inl</text>
</a>
</g>
</g>
<!-- Node2&#45;&gt;Node25 -->
<g id="edge28" class="edge">
<title>Node2&#45;&gt;Node25</title>
<path fill="none" stroke="midnightblue" d="M427.66,-291.44C362.46,-281.85 260.1,-266.29 195.02,-256.1"/>
<polygon fill="midnightblue" stroke="midnightblue" points="195.33,-252.61 184.91,-254.52 194.24,-259.52 195.33,-252.61"/>
</g>
<!-- Node4 -->
<g id="node4" class="node">
<title>Node4</title>
<g id="a_node4"><a xlink:href="RaCore_8hpp.html" target="_top" xlink:title=" ">
<polygon fill="white" stroke="black" points="603,-118 603,-137 701,-137 701,-118 603,-118"/>
<text text-anchor="middle" x="652" y="-125" font-family="Helvetica,sans-Serif" font-size="10.00">Core/RaCore.hpp</text>
</a>
</g>
</g>
<!-- Node3&#45;&gt;Node4 -->
<g id="edge3" class="edge">
<title>Node3&#45;&gt;Node4</title>
<path fill="none" stroke="midnightblue" d="M501.25,-235.32C528.98,-215.67 596.81,-167.61 631.23,-143.22"/>
<polygon fill="midnightblue" stroke="midnightblue" points="633.47,-145.92 639.61,-137.28 629.42,-140.21 633.47,-145.92"/>
</g>
<!-- Node11 -->
<g id="node11" class="node">
<title>Node11</title>
<g id="a_node11"><a xlink:title=" ">
<polygon fill="white" stroke="#bfbfbf" points="411,-179.5 411,-198.5 475,-198.5 475,-179.5 411,-179.5"/>
<text text-anchor="middle" x="443" y="-186.5" font-family="Helvetica,sans-Serif" font-size="10.00">algorithm</text>
</a>
</g>
</g>
<!-- Node3&#45;&gt;Node11 -->
<g id="edge10" class="edge">
<title>Node3&#45;&gt;Node11</title>
<path fill="none" stroke="midnightblue" d="M481.4,-235.08C474.77,-227.3 464.98,-215.8 456.94,-206.37"/>
<polygon fill="midnightblue" stroke="midnightblue" points="459.6,-204.09 450.45,-198.75 454.27,-208.63 459.6,-204.09"/>
</g>
<!-- Node12 -->
<g id="node12" class="node">
<title>Node12</title>
<g id="a_node12"><a xlink:title=" ">
<polygon fill="white" stroke="#bfbfbf" points="493.5,-179.5 493.5,-198.5 540.5,-198.5 540.5,-179.5 493.5,-179.5"/>
<text text-anchor="middle" x="517" y="-186.5" font-family="Helvetica,sans-Serif" font-size="10.00">cmath</text>
</a>
</g>
</g>
<!-- Node3&#45;&gt;Node12 -->
<g id="edge11" class="edge">
<title>Node3&#45;&gt;Node12</title>
<path fill="none" stroke="midnightblue" d="M493.62,-235.08C497.46,-227.69 503.02,-216.95 507.76,-207.81"/>
<polygon fill="midnightblue" stroke="midnightblue" points="510.97,-209.24 512.46,-198.75 504.75,-206.02 510.97,-209.24"/>
</g>
<!-- Node13 -->
<g id="node13" class="node">
<title>Node13</title>
<g id="a_node13"><a xlink:href="Math_8inl.html" target="_top" xlink:title=" ">
<polygon fill="white" stroke="black" points="283,-179.5 283,-198.5 393,-198.5 393,-179.5 283,-179.5"/>
<text text-anchor="middle" x="338" y="-186.5" font-family="Helvetica,sans-Serif" font-size="10.00">Core/Math/Math.inl</text>
</a>
</g>
</g>
<!-- Node3&#45;&gt;Node13 -->
<g id="edge12" class="edge">
<title>Node3&#45;&gt;Node13</title>
<path fill="none" stroke="midnightblue" d="M459.98,-235.44C432.95,-226.48 393.12,-212.31 366.32,-202.18"/>
<polygon fill="midnightblue" stroke="midnightblue" points="367.32,-198.82 356.73,-198.52 364.82,-205.36 367.32,-198.82"/>
</g>
<!-- Node5 -->
<g id="node5" class="node">
<title>Node5</title>
<g id="a_node5"><a xlink:href="CoreMacros_8hpp.html" target="_top" xlink:title=" ">
<polygon fill="white" stroke="black" points="591.5,-56.5 591.5,-75.5 712.5,-75.5 712.5,-56.5 591.5,-56.5"/>
<text text-anchor="middle" x="652" y="-63.5" font-family="Helvetica,sans-Serif" font-size="10.00">Core/CoreMacros.hpp</text>
</a>
</g>
</g>
<!-- Node4&#45;&gt;Node5 -->
<g id="edge4" class="edge">
<title>Node4&#45;&gt;Node5</title>
<path fill="none" stroke="midnightblue" d="M652,-117.98C652,-109.58 652,-96.48 652,-85.66"/>
<polygon fill="midnightblue" stroke="midnightblue" points="655.5,-85.51 652,-75.51 648.5,-85.51 655.5,-85.51"/>
</g>
<!-- Node6 -->
<g id="node6" class="node">
<title>Node6</title>
<g id="a_node6"><a xlink:title=" ">
<polygon fill="white" stroke="#bfbfbf" points="730,-0.5 730,-19.5 782,-19.5 782,-0.5 730,-0.5"/>
<text text-anchor="middle" x="756" y="-7.5" font-family="Helvetica,sans-Serif" font-size="10.00">cassert</text>
</a>
</g>
</g>
<!-- Node5&#45;&gt;Node6 -->
<g id="edge5" class="edge">
<title>Node5&#45;&gt;Node6</title>
<path fill="none" stroke="midnightblue" d="M668.71,-56.32C685.31,-47.7 711,-34.36 730.22,-24.39"/>
<polygon fill="midnightblue" stroke="midnightblue" points="732.07,-27.37 739.33,-19.65 728.84,-21.16 732.07,-27.37"/>
</g>
<!-- Node7 -->
<g id="node7" class="node">
<title>Node7</title>
<g id="a_node7"><a xlink:title=" ">
<polygon fill="white" stroke="#bfbfbf" points="522,-0.5 522,-19.5 568,-19.5 568,-0.5 522,-0.5"/>
<text text-anchor="middle" x="545" y="-7.5" font-family="Helvetica,sans-Serif" font-size="10.00">cstdio</text>
</a>
</g>
</g>
<!-- Node5&#45;&gt;Node7 -->
<g id="edge6" class="edge">
<title>Node5&#45;&gt;Node7</title>
<path fill="none" stroke="midnightblue" d="M634.81,-56.32C617.65,-47.66 591.05,-34.24 571.25,-24.25"/>
<polygon fill="midnightblue" stroke="midnightblue" points="572.65,-21.04 562.15,-19.65 569.5,-27.28 572.65,-21.04"/>
</g>
<!-- Node8 -->
<g id="node8" class="node">
<title>Node8</title>
<g id="a_node8"><a xlink:title=" ">
<polygon fill="white" stroke="#bfbfbf" points="586,-0.5 586,-19.5 646,-19.5 646,-0.5 586,-0.5"/>
<text text-anchor="middle" x="616" y="-7.5" font-family="Helvetica,sans-Serif" font-size="10.00">iostream</text>
</a>
</g>
</g>
<!-- Node5&#45;&gt;Node8 -->
<g id="edge7" class="edge">
<title>Node5&#45;&gt;Node8</title>
<path fill="none" stroke="midnightblue" d="M646.06,-56.08C641.02,-48.53 633.66,-37.49 627.49,-28.23"/>
<polygon fill="midnightblue" stroke="midnightblue" points="630.29,-26.13 621.83,-19.75 624.47,-30.01 630.29,-26.13"/>
</g>
<!-- Node9 -->
<g id="node9" class="node">
<title>Node9</title>
<g id="a_node9"><a xlink:title=" ">
<polygon fill="white" stroke="#bfbfbf" points="270,-0.5 270,-19.5 326,-19.5 326,-0.5 270,-0.5"/>
<text text-anchor="middle" x="298" y="-7.5" font-family="Helvetica,sans-Serif" font-size="10.00">sstream</text>
</a>
</g>
</g>
<!-- Node5&#45;&gt;Node9 -->
<g id="edge8" class="edge">
<title>Node5&#45;&gt;Node9</title>
<path fill="none" stroke="midnightblue" d="M595.91,-56.44C523.48,-45.4 399.31,-26.45 336.62,-16.89"/>
<polygon fill="midnightblue" stroke="midnightblue" points="336.79,-13.38 326.38,-15.33 335.74,-20.3 336.79,-13.38"/>
</g>
<!-- Node10 -->
<g id="node10" class="node">
<title>Node10</title>
<g id="a_node10"><a xlink:title=" ">
<polygon fill="white" stroke="#bfbfbf" points="664,-0.5 664,-19.5 712,-19.5 712,-0.5 664,-0.5"/>
<text text-anchor="middle" x="688" y="-7.5" font-family="Helvetica,sans-Serif" font-size="10.00">thread</text>
</a>
</g>
</g>
<!-- Node5&#45;&gt;Node10 -->
<g id="edge9" class="edge">
<title>Node5&#45;&gt;Node10</title>
<path fill="none" stroke="midnightblue" d="M657.94,-56.08C662.98,-48.53 670.34,-37.49 676.51,-28.23"/>
<polygon fill="midnightblue" stroke="midnightblue" points="679.53,-30.01 682.17,-19.75 673.71,-26.13 679.53,-30.01"/>
</g>
<!-- Node13&#45;&gt;Node3 -->
<g id="edge13" class="edge">
<title>Node13&#45;&gt;Node3</title>
<path fill="none" stroke="midnightblue" d="M366.89,-198.52C393.89,-207.47 433.72,-221.63 460.56,-231.77"/>
<polygon fill="midnightblue" stroke="midnightblue" points="459.57,-235.14 470.16,-235.44 462.07,-228.6 459.57,-235.14"/>
</g>
<!-- Node14&#45;&gt;Node4 -->
<g id="edge15" class="edge">
<title>Node14&#45;&gt;Node4</title>
<path fill="none" stroke="midnightblue" d="M1027.22,-235.19C1033.13,-221.4 1041.71,-194.68 1028,-179 1007.48,-155.54 811.82,-139.17 711.17,-132.23"/>
<polygon fill="midnightblue" stroke="midnightblue" points="711.37,-128.73 701.15,-131.54 710.89,-135.71 711.37,-128.73"/>
</g>
<!-- Node15 -->
<g id="node15" class="node">
<title>Node15</title>
<g id="a_node15"><a xlink:title=" ">
<polygon fill="white" stroke="#bfbfbf" points="1075.5,-179.5 1075.5,-198.5 1144.5,-198.5 1144.5,-179.5 1075.5,-179.5"/>
<text text-anchor="middle" x="1110" y="-186.5" font-family="Helvetica,sans-Serif" font-size="10.00">Eigen/Core</text>
</a>
</g>
</g>
<!-- Node14&#45;&gt;Node15 -->
<g id="edge16" class="edge">
<title>Node14&#45;&gt;Node15</title>
<path fill="none" stroke="midnightblue" d="M1036.98,-235.32C1050.55,-226.9 1071.38,-213.97 1087.32,-204.07"/>
<polygon fill="midnightblue" stroke="midnightblue" points="1089.41,-206.9 1096.06,-198.65 1085.71,-200.95 1089.41,-206.9"/>
</g>
<!-- Node16 -->
<g id="node16" class="node">
<title>Node16</title>
<g id="a_node16"><a xlink:title=" ">
<polygon fill="white" stroke="#bfbfbf" points="825.5,-179.5 825.5,-198.5 920.5,-198.5 920.5,-179.5 825.5,-179.5"/>
<text text-anchor="middle" x="873" y="-186.5" font-family="Helvetica,sans-Serif" font-size="10.00">Eigen/Geometry</text>
</a>
</g>
</g>
<!-- Node14&#45;&gt;Node16 -->
<g id="edge17" class="edge">
<title>Node14&#45;&gt;Node16</title>
<path fill="none" stroke="midnightblue" d="M999.23,-235.44C974.11,-226.4 934.29,-212.06 906.1,-201.92"/>
<polygon fill="midnightblue" stroke="midnightblue" points="907.25,-198.61 896.66,-198.52 904.88,-205.2 907.25,-198.61"/>
</g>
<!-- Node17 -->
<g id="node17" class="node">
<title>Node17</title>
<g id="a_node17"><a xlink:title=" ">
<polygon fill="white" stroke="#bfbfbf" points="939,-179.5 939,-198.5 1019,-198.5 1019,-179.5 939,-179.5"/>
<text text-anchor="middle" x="979" y="-186.5" font-family="Helvetica,sans-Serif" font-size="10.00">Eigen/Sparse</text>
</a>
</g>
</g>
<!-- Node14&#45;&gt;Node17 -->
<g id="edge18" class="edge">
<title>Node14&#45;&gt;Node17</title>
<path fill="none" stroke="midnightblue" d="M1015.73,-235.08C1009.46,-227.38 1000.21,-216.03 992.57,-206.65"/>
<polygon fill="midnightblue" stroke="midnightblue" points="995.16,-204.29 986.13,-198.75 989.73,-208.71 995.16,-204.29"/>
</g>
<!-- Node19 -->
<g id="node19" class="node">
<title>Node19</title>
<g id="a_node19"><a xlink:href="Log_8hpp.html" target="_top" xlink:title=" ">
<polygon fill="white" stroke="black" points="19,-179.5 19,-198.5 125,-198.5 125,-179.5 19,-179.5"/>
<text text-anchor="middle" x="72" y="-186.5" font-family="Helvetica,sans-Serif" font-size="10.00">Core/Utils/Log.hpp</text>
</a>
</g>
</g>
<!-- Node18&#45;&gt;Node19 -->
<g id="edge20" class="edge">
<title>Node18&#45;&gt;Node19</title>
<path fill="none" stroke="midnightblue" d="M252.93,-235.44C215.82,-226.12 156.34,-211.18 115.79,-201"/>
<polygon fill="midnightblue" stroke="midnightblue" points="116.46,-197.56 105.91,-198.52 114.75,-204.35 116.46,-197.56"/>
</g>
<!-- Node23 -->
<g id="node23" class="node">
<title>Node23</title>
<g id="a_node23"><a xlink:title=" ">
<polygon fill="white" stroke="#bfbfbf" points="143.5,-179.5 143.5,-198.5 208.5,-198.5 208.5,-179.5 143.5,-179.5"/>
<text text-anchor="middle" x="176" y="-186.5" font-family="Helvetica,sans-Serif" font-size="10.00">functional</text>
</a>
</g>
</g>
<!-- Node18&#45;&gt;Node23 -->
<g id="edge26" class="edge">
<title>Node18&#45;&gt;Node23</title>
<path fill="none" stroke="midnightblue" d="M269.17,-235.32C251.28,-226.62 223.52,-213.12 202.95,-203.11"/>
<polygon fill="midnightblue" stroke="midnightblue" points="204.31,-199.88 193.79,-198.65 201.25,-206.18 204.31,-199.88"/>
</g>
<!-- Node24 -->
<g id="node24" class="node">
<title>Node24</title>
<g id="a_node24"><a xlink:title=" ">
<polygon fill="white" stroke="#bfbfbf" points="227,-179.5 227,-198.5 265,-198.5 265,-179.5 227,-179.5"/>
<text text-anchor="middle" x="246" y="-186.5" font-family="Helvetica,sans-Serif" font-size="10.00">map</text>
</a>
</g>
</g>
<!-- Node18&#45;&gt;Node24 -->
<g id="edge27" class="edge">
<title>Node18&#45;&gt;Node24</title>
<path fill="none" stroke="midnightblue" d="M280.23,-235.08C274.44,-227.46 265.94,-216.26 258.86,-206.94"/>
<polygon fill="midnightblue" stroke="midnightblue" points="261.48,-204.6 252.64,-198.75 255.9,-208.83 261.48,-204.6"/>
</g>
<!-- Node19&#45;&gt;Node4 -->
<g id="edge21" class="edge">
<title>Node19&#45;&gt;Node4</title>
<path fill="none" stroke="midnightblue" d="M125.08,-180.13C128.09,-179.73 131.08,-179.35 134,-179 299.95,-158.88 496.58,-141.46 592.88,-133.35"/>
<polygon fill="midnightblue" stroke="midnightblue" points="593.32,-136.83 603,-132.51 592.74,-129.85 593.32,-136.83"/>
</g>
<!-- Node19&#45;&gt;Node9 -->
<g id="edge23" class="edge">
<title>Node19&#45;&gt;Node9</title>
<path fill="none" stroke="midnightblue" d="M71.89,-179.45C72.15,-164.22 74.73,-132.08 91,-112 134.39,-58.45 213.18,-31.23 260.04,-19.15"/>
<polygon fill="midnightblue" stroke="midnightblue" points="260.94,-22.53 269.81,-16.73 259.26,-15.74 260.94,-22.53"/>
</g>
<!-- Node20 -->
<g id="node20" class="node">
<title>Node20</title>
<g id="a_node20"><a xlink:title=" ">
<polygon fill="white" stroke="#bfbfbf" points="100,-118 100,-137 144,-137 144,-118 100,-118"/>
<text text-anchor="middle" x="122" y="-125" font-family="Helvetica,sans-Serif" font-size="10.00">ctime</text>
</a>
</g>
</g>
<!-- Node19&#45;&gt;Node20 -->
<g id="edge22" class="edge">
<title>Node19&#45;&gt;Node20</title>
<path fill="none" stroke="midnightblue" d="M79.16,-179.48C86.74,-170.46 98.87,-156.02 108.29,-144.81"/>
<polygon fill="midnightblue" stroke="midnightblue" points="111.1,-146.92 114.85,-137.01 105.74,-142.41 111.1,-146.92"/>
</g>
<!-- Node21 -->
<g id="node21" class="node">
<title>Node21</title>
<g id="a_node21"><a xlink:title=" ">
<polygon fill="white" stroke="#bfbfbf" points="162,-118 162,-137 212,-137 212,-118 162,-118"/>
<text text-anchor="middle" x="187" y="-125" font-family="Helvetica,sans-Serif" font-size="10.00">stdio.h</text>
</a>
</g>
</g>
<!-- Node19&#45;&gt;Node21 -->
<g id="edge24" class="edge">
<title>Node19&#45;&gt;Node21</title>
<path fill="none" stroke="midnightblue" d="M88.48,-179.48C107.61,-169.58 139.37,-153.14 161.65,-141.62"/>
<polygon fill="midnightblue" stroke="midnightblue" points="163.28,-144.71 170.55,-137.01 160.06,-138.5 163.28,-144.71"/>
</g>
<!-- Node22 -->
<g id="node22" class="node">
<title>Node22</title>
<g id="a_node22"><a xlink:title=" ">
<polygon fill="white" stroke="#bfbfbf" points="0,-118 0,-137 44,-137 44,-118 0,-118"/>
<text text-anchor="middle" x="22" y="-125" font-family="Helvetica,sans-Serif" font-size="10.00">string</text>
</a>
</g>
</g>
<!-- Node19&#45;&gt;Node22 -->
<g id="edge25" class="edge">
<title>Node19&#45;&gt;Node22</title>
<path fill="none" stroke="midnightblue" d="M64.84,-179.48C57.26,-170.46 45.13,-156.02 35.71,-144.81"/>
<polygon fill="midnightblue" stroke="midnightblue" points="38.26,-142.41 29.15,-137.01 32.9,-146.92 38.26,-142.41"/>
</g>
<!-- Node25&#45;&gt;Node2 -->
<g id="edge29" class="edge">
<title>Node25&#45;&gt;Node2</title>
<path fill="none" stroke="midnightblue" d="M195.07,-254.52C260.17,-264.1 362.52,-279.65 427.71,-289.85"/>
<polygon fill="midnightblue" stroke="midnightblue" points="427.42,-293.35 437.84,-291.44 428.5,-286.44 427.42,-293.35"/>
</g>
<!-- Node26&#45;&gt;Node2 -->
<g id="edge31" class="edge">
<title>Node26&#45;&gt;Node2</title>
<path fill="none" stroke="midnightblue" d="M723.79,-347.44C674.71,-337.94 595.49,-322.61 542.84,-312.42"/>
<polygon fill="midnightblue" stroke="midnightblue" points="543.48,-308.98 533,-310.52 542.15,-315.85 543.48,-308.98"/>
</g>
<!-- Node26&#45;&gt;Node3 -->
<g id="edge32" class="edge">
<title>Node26&#45;&gt;Node3</title>
<path fill="none" stroke="midnightblue" d="M754.32,-347.38C732.38,-333.85 687.66,-307.49 647,-291 611.34,-276.54 569.39,-264.83 537.68,-256.98"/>
<polygon fill="midnightblue" stroke="midnightblue" points="538.31,-253.53 527.77,-254.57 536.66,-260.33 538.31,-253.53"/>
</g>
<!-- Node26&#45;&gt;Node14 -->
<g id="edge33" class="edge">
<title>Node26&#45;&gt;Node14</title>
<path fill="none" stroke="midnightblue" d="M816.92,-347.47C850.65,-340.45 895.9,-328.73 933,-311 960.5,-297.86 988.36,-276.15 1005.65,-261.48"/>
<polygon fill="midnightblue" stroke="midnightblue" points="1007.97,-264.1 1013.24,-254.9 1003.39,-258.8 1007.97,-264.1"/>
</g>
<!-- Node27 -->
<g id="node27" class="node">
<title>Node27</title>
<g id="a_node27"><a xlink:href="RaEngine_8hpp.html" target="_top" xlink:title=" ">
<polygon fill="white" stroke="black" points="1125.5,-235.5 1125.5,-254.5 1244.5,-254.5 1244.5,-235.5 1125.5,-235.5"/>
<text text-anchor="middle" x="1185" y="-242.5" font-family="Helvetica,sans-Serif" font-size="10.00">Engine/RaEngine.hpp</text>
</a>
</g>
</g>
<!-- Node26&#45;&gt;Node27 -->
<g id="edge34" class="edge">
<title>Node26&#45;&gt;Node27</title>
<path fill="none" stroke="midnightblue" d="M817.05,-347.46C857.13,-339.84 914.98,-327.35 964,-311 984.76,-304.07 988.33,-298.18 1009,-291 1050.08,-276.73 1097.97,-264.78 1133.41,-256.79"/>
<polygon fill="midnightblue" stroke="midnightblue" points="1134.52,-260.12 1143.53,-254.54 1133,-253.29 1134.52,-260.12"/>
</g>
<!-- Node32 -->
<g id="node32" class="node">
<title>Node32</title>
<g id="a_node32"><a xlink:href="Component_8hpp.html" target="_top" xlink:title=" ">
<polygon fill="white" stroke="black" points="762,-291.5 762,-310.5 924,-310.5 924,-291.5 762,-291.5"/>
<text text-anchor="middle" x="843" y="-298.5" font-family="Helvetica,sans-Serif" font-size="10.00">Engine/Scene/Component.hpp</text>
</a>
</g>
</g>
<!-- Node26&#45;&gt;Node32 -->
<g id="edge40" class="edge">
<title>Node26&#45;&gt;Node32</title>
<path fill="none" stroke="midnightblue" d="M780.05,-347.32C791.46,-339.11 808.83,-326.6 822.43,-316.81"/>
<polygon fill="midnightblue" stroke="midnightblue" points="824.66,-319.52 830.73,-310.83 820.57,-313.84 824.66,-319.52"/>
</g>
<!-- Node27&#45;&gt;Node5 -->
<g id="edge35" class="edge">
<title>Node27&#45;&gt;Node5</title>
<path fill="none" stroke="midnightblue" d="M1183.39,-235.33C1180.31,-221.24 1172.19,-193.49 1154,-179 1087.85,-126.31 844.74,-90.27 722.77,-75.09"/>
<polygon fill="midnightblue" stroke="midnightblue" points="723.13,-71.61 712.78,-73.86 722.28,-78.56 723.13,-71.61"/>
</g>
<!-- Node28 -->
<g id="node28" class="node">
<title>Node28</title>
<g id="a_node28"><a xlink:href="OpenGL_8hpp.html" target="_top" xlink:title=" ">
<polygon fill="white" stroke="black" points="1281,-179.5 1281,-198.5 1393,-198.5 1393,-179.5 1281,-179.5"/>
<text text-anchor="middle" x="1337" y="-186.5" font-family="Helvetica,sans-Serif" font-size="10.00">Engine/OpenGL.hpp</text>
</a>
</g>
</g>
<!-- Node27&#45;&gt;Node28 -->
<g id="edge36" class="edge">
<title>Node27&#45;&gt;Node28</title>
<path fill="none" stroke="midnightblue" d="M1209.08,-235.44C1234.54,-226.4 1274.89,-212.06 1303.46,-201.92"/>
<polygon fill="midnightblue" stroke="midnightblue" points="1304.78,-205.16 1313.03,-198.52 1302.43,-198.57 1304.78,-205.16"/>
</g>
<!-- Node29 -->
<g id="node29" class="node">
<title>Node29</title>
<g id="a_node29"><a xlink:title=" ">
<polygon fill="white" stroke="#bfbfbf" points="1201,-118 1201,-137 1329,-137 1329,-118 1201,-118"/>
<text text-anchor="middle" x="1265" y="-125" font-family="Helvetica,sans-Serif" font-size="10.00">glbinding/gl45core/gl.h</text>
</a>
</g>
</g>
<!-- Node28&#45;&gt;Node29 -->
<g id="edge37" class="edge">
<title>Node28&#45;&gt;Node29</title>
<path fill="none" stroke="midnightblue" d="M1326.68,-179.48C1315.35,-170.11 1296.93,-154.88 1283.16,-143.51"/>
<polygon fill="midnightblue" stroke="midnightblue" points="1285.23,-140.68 1275.3,-137.01 1280.78,-146.08 1285.23,-140.68"/>
</g>
<!-- Node30 -->
<g id="node30" class="node">
<title>Node30</title>
<g id="a_node30"><a xlink:title=" ">
<polygon fill="white" stroke="#bfbfbf" points="1347,-118 1347,-137 1469,-137 1469,-118 1347,-118"/>
<text text-anchor="middle" x="1408" y="-125" font-family="Helvetica,sans-Serif" font-size="10.00">glbinding/gl45ext/gl.h</text>
</a>
</g>
</g>
<!-- Node28&#45;&gt;Node30 -->
<g id="edge38" class="edge">
<title>Node28&#45;&gt;Node30</title>
<path fill="none" stroke="midnightblue" d="M1347.17,-179.48C1358.35,-170.11 1376.52,-154.88 1390.09,-143.51"/>
<polygon fill="midnightblue" stroke="midnightblue" points="1392.43,-146.11 1397.85,-137.01 1387.93,-140.75 1392.43,-146.11"/>
</g>
<!-- Node31 -->
<g id="node31" class="node">
<title>Node31</title>
<g id="a_node31"><a xlink:title=" ">
<polygon fill="white" stroke="#bfbfbf" points="1487.5,-112.5 1487.5,-142.5 1600.5,-142.5 1600.5,-112.5 1487.5,-112.5"/>
<text text-anchor="start" x="1495.5" y="-130.5" font-family="Helvetica,sans-Serif" font-size="10.00">glbinding&#45;aux/types</text>
<text text-anchor="middle" x="1544" y="-119.5" font-family="Helvetica,sans-Serif" font-size="10.00">_to_string.h</text>
</a>
</g>
</g>
<!-- Node28&#45;&gt;Node31 -->
<g id="edge39" class="edge">
<title>Node28&#45;&gt;Node31</title>
<path fill="none" stroke="midnightblue" d="M1366.66,-179.48C1397.58,-170.59 1446.84,-156.43 1485.6,-145.29"/>
<polygon fill="midnightblue" stroke="midnightblue" points="1486.57,-148.65 1495.21,-142.52 1484.64,-141.92 1486.57,-148.65"/>
</g>
<!-- Node32&#45;&gt;Node14 -->
<g id="edge50" class="edge">
<title>Node32&#45;&gt;Node14</title>
<path fill="none" stroke="midnightblue" d="M871.52,-291.44C902.07,-282.28 950.71,-267.69 984.6,-257.52"/>
<polygon fill="midnightblue" stroke="midnightblue" points="986.04,-260.74 994.61,-254.52 984.03,-254.04 986.04,-260.74"/>
</g>
<!-- Node32&#45;&gt;Node15 -->
<g id="edge46" class="edge">
<title>Node32&#45;&gt;Node15</title>
<path fill="none" stroke="midnightblue" d="M924.02,-292.22C982.09,-285.23 1054.09,-273.22 1078,-255 1092.97,-243.59 1101.38,-223.3 1105.77,-208.42"/>
<polygon fill="midnightblue" stroke="midnightblue" points="1109.16,-209.3 1108.3,-198.74 1102.39,-207.53 1109.16,-209.3"/>
</g>
<!-- Node32&#45;&gt;Node16 -->
<g id="edge47" class="edge">
<title>Node32&#45;&gt;Node16</title>
<path fill="none" stroke="midnightblue" d="M878.01,-291.45C896.93,-284.84 918.68,-273.59 930,-255 941.9,-235.46 919.41,-216.14 899.28,-203.71"/>
<polygon fill="midnightblue" stroke="midnightblue" points="901.01,-200.67 890.61,-198.67 897.49,-206.72 901.01,-200.67"/>
</g>
<!-- Node32&#45;&gt;Node27 -->
<g id="edge48" class="edge">
<title>Node32&#45;&gt;Node27</title>
<path fill="none" stroke="midnightblue" d="M897.19,-291.44C957.98,-281.85 1056.49,-266.29 1121.01,-256.1"/>
<polygon fill="midnightblue" stroke="midnightblue" points="1121.73,-259.53 1131.06,-254.52 1120.64,-252.62 1121.73,-259.53"/>
</g>
<!-- Node33 -->
<g id="node33" class="node">
<title>Node33</title>
<g id="a_node33"><a xlink:href="Index_8hpp.html" target="_top" xlink:title=" ">
<polygon fill="white" stroke="black" points="565,-235.5 565,-254.5 681,-254.5 681,-235.5 565,-235.5"/>
<text text-anchor="middle" x="623" y="-242.5" font-family="Helvetica,sans-Serif" font-size="10.00">Core/Utils/Index.hpp</text>
</a>
</g>
</g>
<!-- Node32&#45;&gt;Node33 -->
<g id="edge41" class="edge">
<title>Node32&#45;&gt;Node33</title>
<path fill="none" stroke="midnightblue" d="M808.14,-291.44C770.08,-282.1 709.04,-267.12 667.54,-256.93"/>
<polygon fill="midnightblue" stroke="midnightblue" points="668.24,-253.5 657.7,-254.52 666.57,-260.3 668.24,-253.5"/>
</g>
<!-- Node36 -->
<g id="node36" class="node">
<title>Node36</title>
<g id="a_node36"><a xlink:title=" ">
<polygon fill="white" stroke="#bfbfbf" points="699.5,-235.5 699.5,-254.5 746.5,-254.5 746.5,-235.5 699.5,-235.5"/>
<text text-anchor="middle" x="723" y="-242.5" font-family="Helvetica,sans-Serif" font-size="10.00">vector</text>
</a>
</g>
</g>
<!-- Node32&#45;&gt;Node36 -->
<g id="edge49" class="edge">
<title>Node32&#45;&gt;Node36</title>
<path fill="none" stroke="midnightblue" d="M823.99,-291.44C804.41,-282.64 773.69,-268.81 751.27,-258.72"/>
<polygon fill="midnightblue" stroke="midnightblue" points="752.48,-255.43 741.93,-254.52 749.61,-261.81 752.48,-255.43"/>
</g>
<!-- Node37 -->
<g id="node37" class="node">
<title>Node37</title>
<g id="a_node37"><a xlink:href="Component_8inl.html" target="_top" xlink:title=" ">
<polygon fill="white" stroke="black" points="765,-235.5 765,-254.5 921,-254.5 921,-235.5 765,-235.5"/>
<text text-anchor="middle" x="843" y="-242.5" font-family="Helvetica,sans-Serif" font-size="10.00">Engine/Scene/Component.inl</text>
</a>
</g>
</g>
<!-- Node32&#45;&gt;Node37 -->
<g id="edge51" class="edge">
<title>Node32&#45;&gt;Node37</title>
<path fill="none" stroke="midnightblue" d="M837.83,-291.08C836.32,-283.93 835.89,-273.64 836.54,-264.69"/>
<polygon fill="midnightblue" stroke="midnightblue" points="840.02,-265.13 837.87,-254.75 833.08,-264.2 840.02,-265.13"/>
</g>
<!-- Node33&#45;&gt;Node4 -->
<g id="edge42" class="edge">
<title>Node33&#45;&gt;Node4</title>
<path fill="none" stroke="midnightblue" d="M662.25,-235.48C682,-228.99 704.18,-217.84 716,-199 729.8,-176.99 702.54,-155.44 679.43,-142.07"/>
<polygon fill="midnightblue" stroke="midnightblue" points="681.01,-138.95 670.56,-137.2 677.64,-145.08 681.01,-138.95"/>
</g>
<!-- Node34 -->
<g id="node34" class="node">
<title>Node34</title>
<g id="a_node34"><a xlink:title=" ">
<polygon fill="white" stroke="#bfbfbf" points="763,-179.5 763,-198.5 807,-198.5 807,-179.5 763,-179.5"/>
<text text-anchor="middle" x="785" y="-186.5" font-family="Helvetica,sans-Serif" font-size="10.00">limits</text>
</a>
</g>
</g>
<!-- Node33&#45;&gt;Node34 -->
<g id="edge43" class="edge">
<title>Node33&#45;&gt;Node34</title>
<path fill="none" stroke="midnightblue" d="M648.67,-235.44C676.96,-226.01 722.52,-210.83 753.09,-200.64"/>
<polygon fill="midnightblue" stroke="midnightblue" points="754.45,-203.87 762.83,-197.39 752.24,-197.23 754.45,-203.87"/>
</g>
<!-- Node35 -->
<g id="node35" class="node">
<title>Node35</title>
<g id="a_node35"><a xlink:href="Index_8inl.html" target="_top" xlink:title=" ">
<polygon fill="white" stroke="black" points="597,-179.5 597,-198.5 707,-198.5 707,-179.5 597,-179.5"/>
<text text-anchor="middle" x="652" y="-186.5" font-family="Helvetica,sans-Serif" font-size="10.00">Core/Utils/Index.inl</text>
</a>
</g>
</g>
<!-- Node33&#45;&gt;Node35 -->
<g id="edge44" class="edge">
<title>Node33&#45;&gt;Node35</title>
<path fill="none" stroke="midnightblue" d="M622.62,-235.08C625.08,-227.53 630.62,-216.49 636.41,-207.23"/>
<polygon fill="midnightblue" stroke="midnightblue" points="639.44,-208.99 642.17,-198.75 633.65,-205.05 639.44,-208.99"/>
</g>
<!-- Node35&#45;&gt;Node33 -->
<g id="edge45" class="edge">
<title>Node35&#45;&gt;Node33</title>
<path fill="none" stroke="midnightblue" d="M652.43,-198.75C650.02,-206.25 644.5,-217.27 638.72,-226.57"/>
<polygon fill="midnightblue" stroke="midnightblue" points="635.66,-224.84 632.96,-235.08 641.46,-228.76 635.66,-224.84"/>
</g>
<!-- Node37&#45;&gt;Node32 -->
<g id="edge52" class="edge">
<title>Node37&#45;&gt;Node32</title>
<path fill="none" stroke="midnightblue" d="M848.13,-254.75C849.66,-261.86 850.1,-272.14 849.47,-281.1"/>
<polygon fill="midnightblue" stroke="midnightblue" points="845.99,-280.71 848.17,-291.08 852.93,-281.62 845.99,-280.71"/>
</g>
<!-- Node39 -->
<g id="node39" class="node">
<title>Node39</title>
<g id="a_node39"><a xlink:title=" ">
<polygon fill="white" stroke="#bfbfbf" points="1018,-291.5 1018,-310.5 1076,-310.5 1076,-291.5 1018,-291.5"/>
<text text-anchor="middle" x="1047" y="-298.5" font-family="Helvetica,sans-Serif" font-size="10.00">memory</text>
</a>
</g>
</g>
<!-- Node38&#45;&gt;Node39 -->
<g id="edge54" class="edge">
<title>Node38&#45;&gt;Node39</title>
<path fill="none" stroke="midnightblue" d="M990.76,-347.32C1000.77,-339.26 1015.89,-327.08 1027.93,-317.37"/>
<polygon fill="midnightblue" stroke="midnightblue" points="1030.45,-319.83 1036.04,-310.83 1026.06,-314.38 1030.45,-319.83"/>
</g>
</g>
</svg>
