<?xml version="1.0" encoding="UTF-8" standalone="no"?>
<!DOCTYPE svg PUBLIC "-//W3C//DTD SVG 1.1//EN"
 "http://www.w3.org/Graphics/SVG/1.1/DTD/svg11.dtd">
<!-- Generated by graphviz version 2.43.0 (0)
 -->
<!-- Title: /home/runner/work/Radium&#45;Engine/Radium&#45;Engine/src/Radium&#45;Engine/src/Core/Utils/CircularIndex.hpp Pages: 1 -->
<svg width="1280pt" height="239pt"
 viewBox="0.00 0.00 1280.00 239.00" xmlns="http://www.w3.org/2000/svg" xmlns:xlink="http://www.w3.org/1999/xlink">
<g id="graph0" class="graph" transform="scale(1 1) rotate(0) translate(4 235)">
<title>/home/runner/work/Radium&#45;Engine/Radium&#45;Engine/src/Radium&#45;Engine/src/Core/Utils/CircularIndex.hpp</title>
<polygon fill="white" stroke="transparent" points="-4,4 -4,-235 1276,-235 1276,4 -4,4"/>
<!-- Node1 -->
<g id="node1" class="node">
<title>Node1</title>
<g id="a_node1"><a xlink:title=" ">
<polygon fill="#bfbfbf" stroke="black" points="505,-178.5 505,-230.5 667,-230.5 667,-178.5 505,-178.5"/>
<text text-anchor="start" x="513" y="-218.5" font-family="Helvetica,sans-Serif" font-size="10.00">/home/runner/work/Radium</text>
<text text-anchor="start" x="513" y="-207.5" font-family="Helvetica,sans-Serif" font-size="10.00">&#45;Engine/Radium&#45;Engine/src</text>
<text text-anchor="start" x="513" y="-196.5" font-family="Helvetica,sans-Serif" font-size="10.00">/Radium&#45;Engine/src/Core/Utils</text>
<text text-anchor="middle" x="586" y="-185.5" font-family="Helvetica,sans-Serif" font-size="10.00">/CircularIndex.hpp</text>
</a>
</g>
</g>
<!-- Node2 -->
<g id="node2" class="node">
<title>Node2</title>
<g id="a_node2"><a xlink:href="Sequence_8hpp.html" target="_top" xlink:title=" ">
<polygon fill="white" stroke="black" points="104,-89.5 104,-141.5 294,-141.5 294,-89.5 104,-89.5"/>
<text text-anchor="start" x="112" y="-129.5" font-family="Helvetica,sans-Serif" font-size="10.00">/home/runner/work/Radium</text>
<text text-anchor="start" x="112" y="-118.5" font-family="Helvetica,sans-Serif" font-size="10.00">&#45;Engine/Radium&#45;Engine/src</text>
<text text-anchor="start" x="112" y="-107.5" font-family="Helvetica,sans-Serif" font-size="10.00">/Radium&#45;Engine/src/Core/Animation</text>
<text text-anchor="middle" x="199" y="-96.5" font-family="Helvetica,sans-Serif" font-size="10.00">/Sequence.hpp</text>
</a>
</g>
</g>
<!-- Node1&#45;&gt;Node2 -->
<g id="edge1" class="edge">
<title>Node1&#45;&gt;Node2</title>
<path fill="none" stroke="midnightblue" d="M494.93,-184.35C439.39,-172.51 367,-156.8 303,-142 300.1,-141.33 297.16,-140.64 294.19,-139.95"/>
<polygon fill="midnightblue" stroke="midnightblue" points="494.24,-187.78 504.75,-186.44 495.7,-180.93 494.24,-187.78"/>
</g>
<!-- Node5 -->
<g id="node5" class="node">
<title>Node5</title>
<g id="a_node5"><a xlink:href="CircularIndex_8inl.html" target="_top" xlink:title=" ">
<polygon fill="white" stroke="black" points="312,-89.5 312,-141.5 474,-141.5 474,-89.5 312,-89.5"/>
<text text-anchor="start" x="320" y="-129.5" font-family="Helvetica,sans-Serif" font-size="10.00">/home/runner/work/Radium</text>
<text text-anchor="start" x="320" y="-118.5" font-family="Helvetica,sans-Serif" font-size="10.00">&#45;Engine/Radium&#45;Engine/src</text>
<text text-anchor="start" x="320" y="-107.5" font-family="Helvetica,sans-Serif" font-size="10.00">/Radium&#45;Engine/src/Core/Utils</text>
<text text-anchor="middle" x="393" y="-96.5" font-family="Helvetica,sans-Serif" font-size="10.00">/CircularIndex.inl</text>
</a>
</g>
</g>
<!-- Node1&#45;&gt;Node5 -->
<g id="edge4" class="edge">
<title>Node1&#45;&gt;Node5</title>
<path fill="none" stroke="midnightblue" d="M514.8,-174.29C490.7,-163.67 464.36,-151.76 442.33,-141.52"/>
<polygon fill="midnightblue" stroke="midnightblue" points="513.69,-177.63 524.26,-178.45 516.51,-171.22 513.69,-177.63"/>
</g>
<!-- Node6 -->
<g id="node6" class="node">
<title>Node6</title>
<g id="a_node6"><a xlink:href="Area_8cpp.html" target="_top" xlink:title=" ">
<polygon fill="white" stroke="black" points="492,-89.5 492,-141.5 680,-141.5 680,-89.5 492,-89.5"/>
<text text-anchor="start" x="500" y="-129.5" font-family="Helvetica,sans-Serif" font-size="10.00">/home/runner/work/Radium</text>
<text text-anchor="start" x="500" y="-118.5" font-family="Helvetica,sans-Serif" font-size="10.00">&#45;Engine/Radium&#45;Engine/src</text>
<text text-anchor="start" x="500" y="-107.5" font-family="Helvetica,sans-Serif" font-size="10.00">/Radium&#45;Engine/src/Core/Geometry</text>
<text text-anchor="middle" x="586" y="-96.5" font-family="Helvetica,sans-Serif" font-size="10.00">/Area.cpp</text>
</a>
</g>
</g>
<!-- Node1&#45;&gt;Node6 -->
<g id="edge6" class="edge">
<title>Node1&#45;&gt;Node6</title>
<path fill="none" stroke="midnightblue" d="M586,-168.19C586,-159.28 586,-149.9 586,-141.61"/>
<polygon fill="midnightblue" stroke="midnightblue" points="582.5,-168.34 586,-178.34 589.5,-168.34 582.5,-168.34"/>
</g>
<!-- Node7 -->
<g id="node7" class="node">
<title>Node7</title>
<g id="a_node7"><a xlink:href="Laplacian_8cpp.html" target="_top" xlink:title=" ">
<polygon fill="white" stroke="black" points="698,-89.5 698,-141.5 886,-141.5 886,-89.5 698,-89.5"/>
<text text-anchor="start" x="706" y="-129.5" font-family="Helvetica,sans-Serif" font-size="10.00">/home/runner/work/Radium</text>
<text text-anchor="start" x="706" y="-118.5" font-family="Helvetica,sans-Serif" font-size="10.00">&#45;Engine/Radium&#45;Engine/src</text>
<text text-anchor="start" x="706" y="-107.5" font-family="Helvetica,sans-Serif" font-size="10.00">/Radium&#45;Engine/src/Core/Geometry</text>
<text text-anchor="middle" x="792" y="-96.5" font-family="Helvetica,sans-Serif" font-size="10.00">/Laplacian.cpp</text>
</a>
</g>
</g>
<!-- Node1&#45;&gt;Node7 -->
<g id="edge7" class="edge">
<title>Node1&#45;&gt;Node7</title>
<path fill="none" stroke="midnightblue" d="M654.82,-174.44C680.07,-163.77 708.42,-151.8 732.75,-141.52"/>
<polygon fill="midnightblue" stroke="midnightblue" points="653.16,-171.34 645.31,-178.45 655.88,-177.79 653.16,-171.34"/>
</g>
<!-- Node8 -->
<g id="node8" class="node">
<title>Node8</title>
<g id="a_node8"><a xlink:href="Normal_8cpp.html" target="_top" xlink:title=" ">
<polygon fill="white" stroke="black" points="904,-89.5 904,-141.5 1092,-141.5 1092,-89.5 904,-89.5"/>
<text text-anchor="start" x="912" y="-129.5" font-family="Helvetica,sans-Serif" font-size="10.00">/home/runner/work/Radium</text>
<text text-anchor="start" x="912" y="-118.5" font-family="Helvetica,sans-Serif" font-size="10.00">&#45;Engine/Radium&#45;Engine/src</text>
<text text-anchor="start" x="912" y="-107.5" font-family="Helvetica,sans-Serif" font-size="10.00">/Radium&#45;Engine/src/Core/Geometry</text>
<text text-anchor="middle" x="998" y="-96.5" font-family="Helvetica,sans-Serif" font-size="10.00">/Normal.cpp</text>
</a>
</g>
</g>
<!-- Node1&#45;&gt;Node8 -->
<g id="edge8" class="edge">
<title>Node1&#45;&gt;Node8</title>
<path fill="none" stroke="midnightblue" d="M677.3,-186.48C738.94,-174.7 822.05,-158.28 895,-142 897.88,-141.36 900.8,-140.7 903.74,-140.02"/>
<polygon fill="midnightblue" stroke="midnightblue" points="676.38,-183.09 667.21,-188.4 677.69,-189.97 676.38,-183.09"/>
</g>
<!-- Node9 -->
<g id="node9" class="node">
<title>Node9</title>
<g id="a_node9"><a xlink:href="CircularIndex_8cpp.html" target="_top" xlink:title=" ">
<polygon fill="white" stroke="black" points="1110,-89.5 1110,-141.5 1272,-141.5 1272,-89.5 1110,-89.5"/>
<text text-anchor="start" x="1118" y="-129.5" font-family="Helvetica,sans-Serif" font-size="10.00">/home/runner/work/Radium</text>
<text text-anchor="start" x="1118" y="-118.5" font-family="Helvetica,sans-Serif" font-size="10.00">&#45;Engine/Radium&#45;Engine/src</text>
<text text-anchor="start" x="1118" y="-107.5" font-family="Helvetica,sans-Serif" font-size="10.00">/Radium&#45;Engine/src/Core/Utils</text>
<text text-anchor="middle" x="1191" y="-96.5" font-family="Helvetica,sans-Serif" font-size="10.00">/CircularIndex.cpp</text>
</a>
</g>
</g>
<!-- Node1&#45;&gt;Node9 -->
<g id="edge9" class="edge">
<title>Node1&#45;&gt;Node9</title>
<path fill="none" stroke="midnightblue" d="M677.45,-196.95C780.95,-188.52 954.24,-171.36 1101,-142 1103.87,-141.43 1106.77,-140.81 1109.7,-140.15"/>
<polygon fill="midnightblue" stroke="midnightblue" points="677.04,-193.47 667.35,-197.76 677.6,-200.45 677.04,-193.47"/>
</g>
<!-- Node3 -->
<g id="node3" class="node">
<title>Node3</title>
<g id="a_node3"><a xlink:href="Sequence_8cpp.html" target="_top" xlink:title=" ">
<polygon fill="white" stroke="black" points="0,-0.5 0,-52.5 190,-52.5 190,-0.5 0,-0.5"/>
<text text-anchor="start" x="8" y="-40.5" font-family="Helvetica,sans-Serif" font-size="10.00">/home/runner/work/Radium</text>
<text text-anchor="start" x="8" y="-29.5" font-family="Helvetica,sans-Serif" font-size="10.00">&#45;Engine/Radium&#45;Engine/src</text>
<text text-anchor="start" x="8" y="-18.5" font-family="Helvetica,sans-Serif" font-size="10.00">/Radium&#45;Engine/src/Core/Animation</text>
<text text-anchor="middle" x="95" y="-7.5" font-family="Helvetica,sans-Serif" font-size="10.00">/Sequence.cpp</text>
</a>
</g>
</g>
<!-- Node2&#45;&gt;Node3 -->
<g id="edge2" class="edge">
<title>Node2&#45;&gt;Node3</title>
<path fill="none" stroke="midnightblue" d="M160.93,-82.65C149.09,-72.75 136.22,-61.98 125.01,-52.61"/>
<polygon fill="midnightblue" stroke="midnightblue" points="159,-85.6 168.92,-89.34 163.49,-80.24 159,-85.6"/>
</g>
<!-- Node4 -->
<g id="node4" class="node">
<title>Node4</title>
<g id="a_node4"><a xlink:href="Sequence_8inl.html" target="_top" xlink:title=" ">
<polygon fill="white" stroke="black" points="208,-0.5 208,-52.5 398,-52.5 398,-0.5 208,-0.5"/>
<text text-anchor="start" x="216" y="-40.5" font-family="Helvetica,sans-Serif" font-size="10.00">/home/runner/work/Radium</text>
<text text-anchor="start" x="216" y="-29.5" font-family="Helvetica,sans-Serif" font-size="10.00">&#45;Engine/Radium&#45;Engine/src</text>
<text text-anchor="start" x="216" y="-18.5" font-family="Helvetica,sans-Serif" font-size="10.00">/Radium&#45;Engine/src/Core/Animation</text>
<text text-anchor="middle" x="303" y="-7.5" font-family="Helvetica,sans-Serif" font-size="10.00">/Sequence.inl</text>
</a>
</g>
</g>
<!-- Node2&#45;&gt;Node4 -->
<g id="edge3" class="edge">
<title>Node2&#45;&gt;Node4</title>
<path fill="none" stroke="midnightblue" d="M237.07,-82.65C248.91,-72.75 261.78,-61.98 272.99,-52.61"/>
<polygon fill="midnightblue" stroke="midnightblue" points="234.51,-80.24 229.08,-89.34 239,-85.6 234.51,-80.24"/>
</g>
<!-- Node5&#45;&gt;Node1 -->
<g id="edge5" class="edge">
<title>Node5&#45;&gt;Node1</title>
<path fill="none" stroke="midnightblue" d="M464.14,-145.68C488.23,-156.31 514.58,-168.22 536.61,-178.45"/>
<polygon fill="midnightblue" stroke="midnightblue" points="465.25,-142.34 454.68,-141.52 462.43,-148.75 465.25,-142.34"/>
</g>
</g>
</svg>
