<?xml version="1.0" encoding="UTF-8" standalone="no"?>
<!DOCTYPE svg PUBLIC "-//W3C//DTD SVG 1.1//EN"
 "http://www.w3.org/Graphics/SVG/1.1/DTD/svg11.dtd">
<!-- Generated by graphviz version 2.43.0 (0)
 -->
<!-- Title: Ra::Gui::Viewer::addRenderer Pages: 1 -->
<svg width="963pt" height="247pt"
 viewBox="0.00 0.00 963.00 246.50" xmlns="http://www.w3.org/2000/svg" xmlns:xlink="http://www.w3.org/1999/xlink">
<g id="graph0" class="graph" transform="scale(1 1) rotate(0) translate(4 242.5)">
<title>Ra::Gui::Viewer::addRenderer</title>
<polygon fill="white" stroke="transparent" points="-4,4 -4,-242.5 959,-242.5 959,4 -4,4"/>
<!-- Node1 -->
<g id="node1" class="node">
<title>Node1</title>
<g id="a_node1"><a xlink:title=" ">
<polygon fill="#bfbfbf" stroke="black" points="0,-55 0,-74 160,-74 160,-55 0,-55"/>
<text text-anchor="middle" x="80" y="-62" font-family="Helvetica,sans-Serif" font-size="10.00">Ra::Gui::Viewer::addRenderer</text>
</a>
</g>
</g>
<!-- Node2 -->
<g id="node2" class="node">
<title>Node2</title>
<g id="a_node2"><a xlink:href="classRa_1_1Gui_1_1WindowQt.html#acd31b9e580f049491d13c16ef954d964" target="_top" xlink:title=" ">
<polygon fill="white" stroke="black" points="209,-98.5 209,-128.5 323,-128.5 323,-98.5 209,-98.5"/>
<text text-anchor="start" x="217" y="-116.5" font-family="Helvetica,sans-Serif" font-size="10.00">Ra::Gui::WindowQt::</text>
<text text-anchor="middle" x="266" y="-105.5" font-family="Helvetica,sans-Serif" font-size="10.00">doneCurrent</text>
</a>
</g>
</g>
<!-- Node1&#45;&gt;Node2 -->
<g id="edge1" class="edge">
<title>Node1&#45;&gt;Node2</title>
<path fill="none" stroke="midnightblue" d="M116.91,-74.06C140.2,-80.27 171.24,-88.53 198.88,-95.89"/>
<polygon fill="midnightblue" stroke="midnightblue" points="198.33,-99.37 208.89,-98.56 200.13,-92.6 198.33,-99.37"/>
</g>
<!-- Node3 -->
<g id="node3" class="node">
<title>Node3</title>
<g id="a_node3"><a xlink:href="classRa_1_1Gui_1_1Viewer.html#a14a1ad5406cca6655fd9ed6e296bf8e3" target="_top" xlink:title="Initialize renderer internal state + configure lights.">
<polygon fill="white" stroke="black" points="196,-49.5 196,-79.5 336,-79.5 336,-49.5 196,-49.5"/>
<text text-anchor="start" x="204" y="-67.5" font-family="Helvetica,sans-Serif" font-size="10.00">Ra::Gui::Viewer::initialize</text>
<text text-anchor="middle" x="266" y="-56.5" font-family="Helvetica,sans-Serif" font-size="10.00">Renderer</text>
</a>
</g>
</g>
<!-- Node1&#45;&gt;Node3 -->
<g id="edge2" class="edge">
<title>Node1&#45;&gt;Node3</title>
<path fill="none" stroke="midnightblue" d="M160.1,-64.5C168.55,-64.5 177.14,-64.5 185.6,-64.5"/>
<polygon fill="midnightblue" stroke="midnightblue" points="185.81,-68 195.81,-64.5 185.81,-61 185.81,-68"/>
</g>
<!-- Node13 -->
<g id="node13" class="node">
<title>Node13</title>
<g id="a_node13"><a xlink:href="classRa_1_1Gui_1_1WindowQt.html#a78476baacd2df24a260f604d02c8ddc4" target="_top" xlink:title=" ">
<polygon fill="white" stroke="black" points="209,-0.5 209,-30.5 323,-30.5 323,-0.5 209,-0.5"/>
<text text-anchor="start" x="217" y="-18.5" font-family="Helvetica,sans-Serif" font-size="10.00">Ra::Gui::WindowQt::</text>
<text text-anchor="middle" x="266" y="-7.5" font-family="Helvetica,sans-Serif" font-size="10.00">makeCurrent</text>
</a>
</g>
</g>
<!-- Node1&#45;&gt;Node13 -->
<g id="edge12" class="edge">
<title>Node1&#45;&gt;Node13</title>
<path fill="none" stroke="midnightblue" d="M116.91,-54.94C140.2,-48.73 171.24,-40.47 198.88,-33.11"/>
<polygon fill="midnightblue" stroke="midnightblue" points="200.13,-36.4 208.89,-30.44 198.33,-29.63 200.13,-36.4"/>
</g>
<!-- Node4 -->
<g id="node4" class="node">
<title>Node4</title>
<g id="a_node4"><a xlink:href="classRa_1_1Engine_1_1Rendering_1_1Renderer.html#a1937407357a05fef64bd1f0bafa50492" target="_top" xlink:title="Initialize renderer.">
<polygon fill="white" stroke="black" points="395.5,-98.5 395.5,-128.5 519.5,-128.5 519.5,-98.5 395.5,-98.5"/>
<text text-anchor="start" x="403.5" y="-116.5" font-family="Helvetica,sans-Serif" font-size="10.00">Ra::Engine::Rendering</text>
<text text-anchor="middle" x="457.5" y="-105.5" font-family="Helvetica,sans-Serif" font-size="10.00">::Renderer::initialize</text>
</a>
</g>
</g>
<!-- Node3&#45;&gt;Node4 -->
<g id="edge3" class="edge">
<title>Node3&#45;&gt;Node4</title>
<path fill="none" stroke="midnightblue" d="M325.14,-79.53C345.24,-84.73 367.94,-90.6 388.74,-95.98"/>
<polygon fill="midnightblue" stroke="midnightblue" points="387.91,-99.38 398.47,-98.49 389.66,-92.6 387.91,-99.38"/>
</g>
<!-- Node11 -->
<g id="node11" class="node">
<title>Node11</title>
<g id="a_node11"><a xlink:href="classRa_1_1Engine_1_1Rendering_1_1Renderer.html#abbb35a6ba5e765ce56848af6d235cf8f" target="_top" xlink:title=" ">
<polygon fill="white" stroke="black" points="386,-49.5 386,-79.5 529,-79.5 529,-49.5 386,-49.5"/>
<text text-anchor="start" x="394" y="-67.5" font-family="Helvetica,sans-Serif" font-size="10.00">Ra::Engine::Rendering</text>
<text text-anchor="middle" x="457.5" y="-56.5" font-family="Helvetica,sans-Serif" font-size="10.00">::Renderer::lockRendering</text>
</a>
</g>
</g>
<!-- Node3&#45;&gt;Node11 -->
<g id="edge10" class="edge">
<title>Node3&#45;&gt;Node11</title>
<path fill="none" stroke="midnightblue" d="M336.22,-64.5C349.11,-64.5 362.68,-64.5 375.88,-64.5"/>
<polygon fill="midnightblue" stroke="midnightblue" points="375.88,-68 385.88,-64.5 375.88,-61 375.88,-68"/>
</g>
<!-- Node12 -->
<g id="node12" class="node">
<title>Node12</title>
<g id="a_node12"><a xlink:href="classRa_1_1Engine_1_1Rendering_1_1Renderer.html#a80b7cdbb5e045a77c90a27bd20db3b77" target="_top" xlink:title="Update the background color (does not trigger a redraw)">
<polygon fill="white" stroke="black" points="372,-0.5 372,-30.5 543,-30.5 543,-0.5 372,-0.5"/>
<text text-anchor="start" x="380" y="-18.5" font-family="Helvetica,sans-Serif" font-size="10.00">Ra::Engine::Rendering</text>
<text text-anchor="middle" x="457.5" y="-7.5" font-family="Helvetica,sans-Serif" font-size="10.00">::Renderer::setBackgroundColor</text>
</a>
</g>
</g>
<!-- Node3&#45;&gt;Node12 -->
<g id="edge11" class="edge">
<title>Node3&#45;&gt;Node12</title>
<path fill="none" stroke="midnightblue" d="M325.14,-49.47C345.24,-44.27 367.94,-38.4 388.74,-33.02"/>
<polygon fill="midnightblue" stroke="midnightblue" points="389.66,-36.4 398.47,-30.51 387.91,-29.62 389.66,-36.4"/>
</g>
<!-- Node5 -->
<g id="node5" class="node">
<title>Node5</title>
<g id="a_node5"><a xlink:href="namespaceRa_1_1Engine_1_1Data_1_1ShaderConfigurationFactory.html#a00918835250fbd8bbe4deae59ecd6dde" target="_top" xlink:title=" ">
<polygon fill="white" stroke="black" points="610.5,-197 610.5,-238 747.5,-238 747.5,-197 610.5,-197"/>
<text text-anchor="start" x="618.5" y="-226" font-family="Helvetica,sans-Serif" font-size="10.00">Ra::Engine::Data::Shader</text>
<text text-anchor="start" x="618.5" y="-215" font-family="Helvetica,sans-Serif" font-size="10.00">ConfigurationFactory::</text>
<text text-anchor="middle" x="679" y="-204" font-family="Helvetica,sans-Serif" font-size="10.00">addConfiguration</text>
</a>
</g>
</g>
<!-- Node4&#45;&gt;Node5 -->
<g id="edge4" class="edge">
<title>Node4&#45;&gt;Node5</title>
<path fill="none" stroke="midnightblue" d="M479.35,-128.61C502.68,-144.95 542.05,-170.89 579,-187.5 585.97,-190.63 593.35,-193.55 600.83,-196.24"/>
<polygon fill="midnightblue" stroke="midnightblue" points="599.72,-199.56 610.31,-199.53 602.01,-192.95 599.72,-199.56"/>
</g>
<!-- Node6 -->
<g id="node6" class="node">
<title>Node6</title>
<g id="a_node6"><a xlink:href="classRa_1_1Engine_1_1Data_1_1ShaderConfiguration.html#a42ec93f4772c0455149a81e9d8502d43" target="_top" xlink:title=" ">
<polygon fill="white" stroke="black" points="609,-147.5 609,-177.5 749,-177.5 749,-147.5 609,-147.5"/>
<text text-anchor="start" x="617" y="-165.5" font-family="Helvetica,sans-Serif" font-size="10.00">Ra::Engine::Data::Shader</text>
<text text-anchor="middle" x="679" y="-154.5" font-family="Helvetica,sans-Serif" font-size="10.00">Configuration::addShader</text>
</a>
</g>
</g>
<!-- Node4&#45;&gt;Node6 -->
<g id="edge5" class="edge">
<title>Node4&#45;&gt;Node6</title>
<path fill="none" stroke="midnightblue" d="M519.64,-127.15C544.73,-132.75 574.06,-139.3 600.61,-145.22"/>
<polygon fill="midnightblue" stroke="midnightblue" points="600.11,-148.7 610.63,-147.46 601.64,-141.87 600.11,-148.7"/>
</g>
<!-- Node7 -->
<g id="node7" class="node">
<title>Node7</title>
<g id="a_node7"><a xlink:href="classRa_1_1Engine_1_1Data_1_1ShaderProgramManager.html#a4b346bfdb26bd4c0dcb3372f6e6b1dad" target="_top" xlink:title=" ">
<polygon fill="white" stroke="black" points="579,-98.5 579,-128.5 779,-128.5 779,-98.5 579,-98.5"/>
<text text-anchor="start" x="587" y="-116.5" font-family="Helvetica,sans-Serif" font-size="10.00">Ra::Engine::Data::Shader</text>
<text text-anchor="middle" x="679" y="-105.5" font-family="Helvetica,sans-Serif" font-size="10.00">ProgramManager::addShaderProgram</text>
</a>
</g>
</g>
<!-- Node4&#45;&gt;Node7 -->
<g id="edge6" class="edge">
<title>Node4&#45;&gt;Node7</title>
<path fill="none" stroke="midnightblue" d="M519.64,-113.5C534.88,-113.5 551.67,-113.5 568.46,-113.5"/>
<polygon fill="midnightblue" stroke="midnightblue" points="568.9,-117 578.9,-113.5 568.9,-110 568.9,-117"/>
</g>
<!-- Node8 -->
<g id="node8" class="node">
<title>Node8</title>
<g id="a_node8"><a xlink:href="classRa_1_1Engine_1_1Rendering_1_1Renderer.html#ab14ff49e794cd718b77db013c9fae556" target="_top" xlink:title="initializeInternal Initialize the renderer dependant resources.">
<polygon fill="white" stroke="black" points="603,-49.5 603,-79.5 755,-79.5 755,-49.5 603,-49.5"/>
<text text-anchor="start" x="611" y="-67.5" font-family="Helvetica,sans-Serif" font-size="10.00">Ra::Engine::Rendering</text>
<text text-anchor="middle" x="679" y="-56.5" font-family="Helvetica,sans-Serif" font-size="10.00">::Renderer::initializeInternal</text>
</a>
</g>
</g>
<!-- Node4&#45;&gt;Node8 -->
<g id="edge7" class="edge">
<title>Node4&#45;&gt;Node8</title>
<path fill="none" stroke="midnightblue" d="M519.64,-99.85C544.73,-94.25 574.06,-87.7 600.61,-81.78"/>
<polygon fill="midnightblue" stroke="midnightblue" points="601.64,-85.13 610.63,-79.54 600.11,-78.3 601.64,-85.13"/>
</g>
<!-- Node9 -->
<g id="node9" class="node">
<title>Node9</title>
<g id="a_node9"><a xlink:href="classRa_1_1Engine_1_1Rendering_1_1Renderer.html#a314e31247fa616d1cbb02143cd42019f" target="_top" xlink:title="Resize the viewport and all the screen textures, fbos. This function must be overrided as soon as som...">
<polygon fill="white" stroke="black" points="617,-0.5 617,-30.5 741,-30.5 741,-0.5 617,-0.5"/>
<text text-anchor="start" x="625" y="-18.5" font-family="Helvetica,sans-Serif" font-size="10.00">Ra::Engine::Rendering</text>
<text text-anchor="middle" x="679" y="-7.5" font-family="Helvetica,sans-Serif" font-size="10.00">::Renderer::resize</text>
</a>
</g>
</g>
<!-- Node4&#45;&gt;Node9 -->
<g id="edge8" class="edge">
<title>Node4&#45;&gt;Node9</title>
<path fill="none" stroke="midnightblue" d="M519.84,-101.42C528.03,-98.31 536.01,-94.4 543,-89.5 565.42,-73.77 556.28,-54.79 579,-39.5 587.51,-33.78 597.24,-29.41 607.2,-26.09"/>
<polygon fill="midnightblue" stroke="midnightblue" points="608.22,-29.44 616.79,-23.21 606.21,-22.73 608.22,-29.44"/>
</g>
<!-- Node10 -->
<g id="node10" class="node">
<title>Node10</title>
<g id="a_node10"><a xlink:href="classRa_1_1Engine_1_1Rendering_1_1Renderer.html#ac804ffc9a0b4f71c02610ce930fd5c65" target="_top" xlink:title=" ">
<polygon fill="white" stroke="black" points="815,-0.5 815,-30.5 955,-30.5 955,-0.5 815,-0.5"/>
<text text-anchor="start" x="823" y="-18.5" font-family="Helvetica,sans-Serif" font-size="10.00">Ra::Engine::Rendering</text>
<text text-anchor="middle" x="885" y="-7.5" font-family="Helvetica,sans-Serif" font-size="10.00">::Renderer::resizeInternal</text>
</a>
</g>
</g>
<!-- Node9&#45;&gt;Node10 -->
<g id="edge9" class="edge">
<title>Node9&#45;&gt;Node10</title>
<path fill="none" stroke="midnightblue" d="M741.21,-15.5C761.18,-15.5 783.64,-15.5 804.74,-15.5"/>
<polygon fill="midnightblue" stroke="midnightblue" points="804.97,-19 814.97,-15.5 804.97,-12 804.97,-19"/>
</g>
</g>
</svg>
