<?xml version="1.0" encoding="UTF-8" standalone="no"?>
<!DOCTYPE svg PUBLIC "-//W3C//DTD SVG 1.1//EN"
 "http://www.w3.org/Graphics/SVG/1.1/DTD/svg11.dtd">
<!-- Generated by graphviz version 2.43.0 (0)
 -->
<!-- Title: CLI::AutoTimer Pages: 1 -->
<svg width="445pt" height="471pt"
 viewBox="0.00 0.00 445.00 471.00" xmlns="http://www.w3.org/2000/svg" xmlns:xlink="http://www.w3.org/1999/xlink">
<g id="graph0" class="graph" transform="scale(1 1) rotate(0) translate(4 467)">
<title>CLI::AutoTimer</title>
<polygon fill="white" stroke="transparent" points="-4,4 -4,-467 441,-467 441,4 -4,4"/>
<!-- Node1 -->
<g id="node1" class="node">
<title>Node1</title>
<g id="a_node1"><a xlink:title="This class prints out the time upon destruction.">
<polygon fill="#bfbfbf" stroke="black" points="126.5,-0.5 126.5,-68.5 221.5,-68.5 221.5,-0.5 126.5,-0.5"/>
<text text-anchor="middle" x="174" y="-56.5" font-family="Helvetica,sans-Serif" font-size="10.00">CLI::AutoTimer</text>
<polyline fill="none" stroke="black" points="126.5,-49.5 221.5,-49.5 "/>
<text text-anchor="middle" x="174" y="-37.5" font-family="Helvetica,sans-Serif" font-size="10.00"> </text>
<polyline fill="none" stroke="black" points="126.5,-30.5 221.5,-30.5 "/>
<text text-anchor="start" x="134.5" y="-18.5" font-family="Helvetica,sans-Serif" font-size="10.00">+ AutoTimer()</text>
<text text-anchor="start" x="134.5" y="-7.5" font-family="Helvetica,sans-Serif" font-size="10.00">+ ~AutoTimer()</text>
</a>
</g>
</g>
<!-- Node2 -->
<g id="node2" class="node">
<title>Node2</title>
<g id="a_node2"><a xlink:href="classCLI_1_1Timer.html" target="_top" xlink:title="This is a simple timer with pretty printing. Creating the timer starts counting.">
<polygon fill="white" stroke="black" points="120,-106.5 120,-240.5 228,-240.5 228,-106.5 120,-106.5"/>
<text text-anchor="middle" x="174" y="-228.5" font-family="Helvetica,sans-Serif" font-size="10.00">CLI::Timer</text>
<polyline fill="none" stroke="black" points="120,-221.5 228,-221.5 "/>
<text text-anchor="middle" x="174" y="-209.5" font-family="Helvetica,sans-Serif" font-size="10.00"> </text>
<polyline fill="none" stroke="black" points="120,-202.5 228,-202.5 "/>
<text text-anchor="start" x="128" y="-190.5" font-family="Helvetica,sans-Serif" font-size="10.00">+ Timer()</text>
<text text-anchor="start" x="128" y="-179.5" font-family="Helvetica,sans-Serif" font-size="10.00">+ time_it()</text>
<text text-anchor="start" x="128" y="-168.5" font-family="Helvetica,sans-Serif" font-size="10.00">+ make_time_str()</text>
<text text-anchor="start" x="128" y="-157.5" font-family="Helvetica,sans-Serif" font-size="10.00">+ make_time_str()</text>
<text text-anchor="start" x="128" y="-146.5" font-family="Helvetica,sans-Serif" font-size="10.00">+ to_string()</text>
<text text-anchor="start" x="128" y="-135.5" font-family="Helvetica,sans-Serif" font-size="10.00">+ operator/()</text>
<text text-anchor="start" x="128" y="-124.5" font-family="Helvetica,sans-Serif" font-size="10.00">+ Simple()</text>
<text text-anchor="start" x="128" y="-113.5" font-family="Helvetica,sans-Serif" font-size="10.00">+ Big()</text>
</a>
</g>
</g>
<!-- Node2&#45;&gt;Node1 -->
<g id="edge1" class="edge">
<title>Node2&#45;&gt;Node1</title>
<path fill="none" stroke="midnightblue" d="M174,-96.26C174,-86.56 174,-77.07 174,-68.58"/>
<polygon fill="none" stroke="midnightblue" points="170.5,-96.41 174,-106.41 177.5,-96.41 170.5,-96.41"/>
</g>
<!-- Node3 -->
<g id="node3" class="node">
<title>Node3</title>
<g id="a_node3"><a xlink:title="STL class.">
<polygon fill="white" stroke="#bfbfbf" points="19.5,-294 19.5,-351 84.5,-351 84.5,-294 19.5,-294"/>
<text text-anchor="middle" x="52" y="-339" font-family="Helvetica,sans-Serif" font-size="10.00">std::string</text>
<polyline fill="none" stroke="#bfbfbf" points="19.5,-332 84.5,-332 "/>
<text text-anchor="middle" x="52" y="-320" font-family="Helvetica,sans-Serif" font-size="10.00"> </text>
<polyline fill="none" stroke="#bfbfbf" points="19.5,-313 84.5,-313 "/>
<text text-anchor="middle" x="52" y="-301" font-family="Helvetica,sans-Serif" font-size="10.00"> </text>
</a>
</g>
</g>
<!-- Node3&#45;&gt;Node2 -->
<g id="edge2" class="edge">
<title>Node3&#45;&gt;Node2</title>
<path fill="none" stroke="#404040" d="M73.72,-293.97C82.44,-283.03 92.62,-270.36 102,-259 105.24,-255.07 108.59,-251.05 111.97,-247"/>
<polygon fill="none" stroke="#404040" points="112.21,-246.72 113,-239.56 119.92,-237.53 119.13,-244.7 112.21,-246.72"/>
<text text-anchor="middle" x="120.5" y="-262" font-family="Helvetica,sans-Serif" font-size="10.00"> #title_</text>
</g>
<!-- Node4 -->
<g id="node4" class="node">
<title>Node4</title>
<g id="a_node4"><a xlink:title="STL class.">
<polygon fill="white" stroke="#bfbfbf" points="0,-394.5 0,-462.5 104,-462.5 104,-394.5 0,-394.5"/>
<text text-anchor="start" x="8" y="-450.5" font-family="Helvetica,sans-Serif" font-size="10.00">std::basic_string&lt;</text>
<text text-anchor="middle" x="52" y="-439.5" font-family="Helvetica,sans-Serif" font-size="10.00"> char &gt;</text>
<polyline fill="none" stroke="#bfbfbf" points="0,-432.5 104,-432.5 "/>
<text text-anchor="middle" x="52" y="-420.5" font-family="Helvetica,sans-Serif" font-size="10.00"> </text>
<polyline fill="none" stroke="#bfbfbf" points="0,-413.5 104,-413.5 "/>
<text text-anchor="middle" x="52" y="-401.5" font-family="Helvetica,sans-Serif" font-size="10.00"> </text>
</a>
</g>
</g>
<!-- Node4&#45;&gt;Node3 -->
<g id="edge3" class="edge">
<title>Node4&#45;&gt;Node3</title>
<path fill="none" stroke="midnightblue" d="M52,-384.25C52,-373.05 52,-361.3 52,-351.15"/>
<polygon fill="none" stroke="midnightblue" points="48.5,-384.31 52,-394.31 55.5,-384.31 48.5,-384.31"/>
</g>
<!-- Node5 -->
<g id="node5" class="node">
<title>Node5</title>
<g id="a_node5"><a xlink:title=" ">
<polygon fill="white" stroke="#bfbfbf" points="102.5,-294 102.5,-351 147.5,-351 147.5,-294 102.5,-294"/>
<text text-anchor="middle" x="125" y="-339" font-family="Helvetica,sans-Serif" font-size="10.00">size_t</text>
<polyline fill="none" stroke="#bfbfbf" points="102.5,-332 147.5,-332 "/>
<text text-anchor="middle" x="125" y="-320" font-family="Helvetica,sans-Serif" font-size="10.00"> </text>
<polyline fill="none" stroke="#bfbfbf" points="102.5,-313 147.5,-313 "/>
<text text-anchor="middle" x="125" y="-301" font-family="Helvetica,sans-Serif" font-size="10.00"> </text>
</a>
</g>
</g>
<!-- Node5&#45;&gt;Node2 -->
<g id="edge4" class="edge">
<title>Node5&#45;&gt;Node2</title>
<path fill="none" stroke="#404040" d="M134.22,-293.85C138.22,-281.85 143.12,-267.15 148.1,-252.2"/>
<polygon fill="none" stroke="#404040" points="148.11,-252.16 146.22,-245.2 151.91,-240.77 153.81,-247.73 148.11,-252.16"/>
<text text-anchor="middle" x="167.5" y="-262" font-family="Helvetica,sans-Serif" font-size="10.00"> #cycles</text>
</g>
<!-- Node6 -->
<g id="node6" class="node">
<title>Node6</title>
<g id="a_node6"><a xlink:title=" ">
<polygon fill="white" stroke="#bfbfbf" points="165.5,-294 165.5,-351 282.5,-351 282.5,-294 165.5,-294"/>
<text text-anchor="middle" x="224" y="-339" font-family="Helvetica,sans-Serif" font-size="10.00">time_point&lt; clock &gt;</text>
<polyline fill="none" stroke="#bfbfbf" points="165.5,-332 282.5,-332 "/>
<text text-anchor="middle" x="224" y="-320" font-family="Helvetica,sans-Serif" font-size="10.00"> </text>
<polyline fill="none" stroke="#bfbfbf" points="165.5,-313 282.5,-313 "/>
<text text-anchor="middle" x="224" y="-301" font-family="Helvetica,sans-Serif" font-size="10.00"> </text>
</a>
</g>
</g>
<!-- Node6&#45;&gt;Node2 -->
<g id="edge5" class="edge">
<title>Node6&#45;&gt;Node2</title>
<path fill="none" stroke="#404040" d="M214.6,-293.85C210.52,-281.85 205.51,-267.15 200.43,-252.2"/>
<polygon fill="none" stroke="#404040" points="200.41,-252.14 194.69,-247.74 196.54,-240.77 202.26,-245.17 200.41,-252.14"/>
<text text-anchor="middle" x="226" y="-262" font-family="Helvetica,sans-Serif" font-size="10.00"> #start_</text>
</g>
<!-- Node7 -->
<g id="node7" class="node">
<title>Node7</title>
<g id="a_node7"><a xlink:title=" ">
<polygon fill="white" stroke="#bfbfbf" points="301,-288.5 301,-356.5 437,-356.5 437,-288.5 301,-288.5"/>
<text text-anchor="start" x="309" y="-344.5" font-family="Helvetica,sans-Serif" font-size="10.00">function&lt; std::string</text>
<text text-anchor="middle" x="369" y="-333.5" font-family="Helvetica,sans-Serif" font-size="10.00">(std::string, std::string)&gt;</text>
<polyline fill="none" stroke="#bfbfbf" points="301,-326.5 437,-326.5 "/>
<text text-anchor="middle" x="369" y="-314.5" font-family="Helvetica,sans-Serif" font-size="10.00"> </text>
<polyline fill="none" stroke="#bfbfbf" points="301,-307.5 437,-307.5 "/>
<text text-anchor="middle" x="369" y="-295.5" font-family="Helvetica,sans-Serif" font-size="10.00"> </text>
</a>
</g>
</g>
<!-- Node7&#45;&gt;Node2 -->
<g id="edge6" class="edge">
<title>Node7&#45;&gt;Node2</title>
<path fill="none" stroke="#404040" d="M324.75,-288.14C299.12,-268.82 266.4,-244.16 238,-222.75"/>
<polygon fill="none" stroke="#404040" points="237.74,-222.55 230.54,-222.13 228.16,-215.33 235.36,-215.74 237.74,-222.55"/>
<text text-anchor="middle" x="333.5" y="-262" font-family="Helvetica,sans-Serif" font-size="10.00"> #time_print_</text>
</g>
</g>
</svg>
