<?xml version="1.0" encoding="UTF-8" standalone="no"?>
<!DOCTYPE svg PUBLIC "-//W3C//DTD SVG 1.1//EN"
 "http://www.w3.org/Graphics/SVG/1.1/DTD/svg11.dtd">
<!-- Generated by graphviz version 2.43.0 (0)
 -->
<!-- Title: Ra::Engine::Data::PlainMaterial Pages: 1 -->
<!--zoomable 814 -->

<svg id="main" version="1.1" xmlns="http://www.w3.org/2000/svg" xmlns:xlink="http://www.w3.org/1999/xlink" xml:space="preserve" onload="init(evt)">
<style type="text/css"><![CDATA[
.node, .edge {opacity: 0.7;}
.node.selected, .edge.selected {opacity: 1;}
.edge:hover path { stroke: red; }
.edge:hover polygon { stroke: red; fill: red; }
]]></style>

<defs>
  <circle id="rim" cx="0" cy="0" r="7"/>
  <circle id="rim2" cx="0" cy="0" r="3.5"/>
  <g id="zoomPlus">
    <use xlink:href="#rim" fill="#404040"><set attributeName="fill" to="#808080" begin="zoomplus.mouseover" end="zoomplus.mouseout"/></use>
    <path d="M-4,0h8M0,-4v8" fill="none" stroke="white" stroke-width="1.5" pointer-events="none"/>
  </g>
  <g id="zoomMin">
    <use xlink:href="#rim" fill="#404040"><set attributeName="fill" to="#808080" begin="zoomminus.mouseover" end="zoomminus.mouseout"/></use>
    <path d="M-4,0h8" fill="none" stroke="white" stroke-width="1.5" pointer-events="none"/>
  </g>
  <g id="arrowUp" transform="translate(30 24)">
    <use xlink:href="#rim"/>
    <path pointer-events="none" fill="none" stroke="white" stroke-width="1.5" d="M0,-3.0v7 M-2.5,-0.5L0,-3.0L2.5,-0.5"/>
  </g>
  <g id="arrowRight" transform="rotate(90) translate(36 -43)">
    <use xlink:href="#rim"/>
    <path pointer-events="none" fill="none" stroke="white" stroke-width="1.5" d="M0,-3.0v7 M-2.5,-0.5L0,-3.0L2.5,-0.5"/>
  </g>
  <g id="arrowDown" transform="rotate(180) translate(-30 -48)">
    <use xlink:href="#rim"/>
    <path pointer-events="none" fill="none" stroke="white" stroke-width="1.5" d="M0,-3.0v7 M-2.5,-0.5L0,-3.0L2.5,-0.5"/>
  </g>
  <g id="arrowLeft" transform="rotate(270) translate(-36 17)">
    <use xlink:href="#rim"/>
    <path pointer-events="none" fill="none" stroke="white" stroke-width="1.5" d="M0,-3.0v7 M-2.5,-0.5L0,-3.0L2.5,-0.5"/>
  </g>
  <g id="resetDef">
    <use xlink:href="#rim2" fill="#404040"><set attributeName="fill" to="#808080" begin="reset.mouseover" end="reset.mouseout"/></use>
  </g>
</defs>
<script type="application/ecmascript">
var viewWidth = 365;
var viewHeight = 814;
var sectionId = 'dynsection-0';
</script>
<script type="application/ecmascript" xlink:href="svg.min.js"/>
<svg id="graph" class="graph">
<g id="viewport">
<title>Ra::Engine::Data::PlainMaterial</title>
<!-- Node1 -->
<g id="Node000001" class="node">
<title>Node1</title>
<g id="a_Node000001"><a xlink:title=" ">
<polygon fill="#999999" stroke="transparent" points="254,-124 92,-124 92,0 254,0 254,-124"/>
<text text-anchor="start" x="97" y="-112" font-family="Helvetica,sans-Serif" font-size="10.00">Ra::Engine::Data::PlainMaterial</text>
<text text-anchor="start" x="171" y="-97" font-family="Helvetica,sans-Serif" font-size="10.00"> </text>
<text text-anchor="start" x="99.5" y="-82" font-family="Helvetica,sans-Serif" font-size="10.00">+</text>
<text text-anchor="start" x="116" y="-82" font-family="Helvetica,sans-Serif" font-size="10.00">PlainMaterial()</text>
<text text-anchor="start" x="99.5" y="-67" font-family="Helvetica,sans-Serif" font-size="10.00">+</text>
<text text-anchor="start" x="116" y="-67" font-family="Helvetica,sans-Serif" font-size="10.00">~PlainMaterial()</text>
<text text-anchor="start" x="99.5" y="-52" font-family="Helvetica,sans-Serif" font-size="10.00">+</text>
<text text-anchor="start" x="116" y="-52" font-family="Helvetica,sans-Serif" font-size="10.00">updateFromParameters()</text>
<text text-anchor="start" x="99.5" y="-37" font-family="Helvetica,sans-Serif" font-size="10.00">+</text>
<text text-anchor="start" x="116" y="-37" font-family="Helvetica,sans-Serif" font-size="10.00">getParametersMetadata()</text>
<text text-anchor="start" x="99.5" y="-22" font-family="Helvetica,sans-Serif" font-size="10.00">+</text>
<text text-anchor="start" x="116" y="-22" font-family="Helvetica,sans-Serif" font-size="10.00">registerMaterial()</text>
<text text-anchor="start" x="99.5" y="-7" font-family="Helvetica,sans-Serif" font-size="10.00">+</text>
<text text-anchor="start" x="116" y="-7" font-family="Helvetica,sans-Serif" font-size="10.00">unregisterMaterial()</text>
<polygon fill="#666666" stroke="#666666" points="92,-107 92,-107 254,-107 254,-107 92,-107"/>
<polygon fill="#666666" stroke="#666666" points="92,-92 92,-92 254,-92 254,-92 92,-92"/>
<polygon fill="none" stroke="#666666" points="92,0 92,-124 254,-124 254,0 92,0"/>
</a>
</g>
</g>
<!-- Node2 -->
<g id="Node000002" class="node">
<title>Node2</title>
<g id="a_Node000002"><a xlink:href="classRa_1_1Engine_1_1Data_1_1SimpleMaterial.html" target="_top" xlink:title=" ">
<polygon fill="white" stroke="transparent" points="249.5,-355 96.5,-355 96.5,-160 249.5,-160 249.5,-355"/>
<text text-anchor="start" x="113" y="-342.5" font-family="Helvetica,sans-Serif" font-size="10.00">Ra::Engine::Data::Simple</text>
<text text-anchor="start" x="153" y="-331.5" font-family="Helvetica,sans-Serif" font-size="10.00">Material</text>
<text text-anchor="start" x="101" y="-316.5" font-family="Helvetica,sans-Serif" font-size="10.00">+</text>
<text text-anchor="start" x="114" y="-316.5" font-family="Helvetica,sans-Serif" font-size="10.00">m_color</text>
<text text-anchor="start" x="101" y="-301.5" font-family="Helvetica,sans-Serif" font-size="10.00">+</text>
<text text-anchor="start" x="114" y="-301.5" font-family="Helvetica,sans-Serif" font-size="10.00">m_perVertexColor</text>
<text text-anchor="start" x="101" y="-286.5" font-family="Helvetica,sans-Serif" font-size="10.00">+</text>
<text text-anchor="start" x="114" y="-286.5" font-family="Helvetica,sans-Serif" font-size="10.00">SimpleMaterial()</text>
<text text-anchor="start" x="101" y="-271.5" font-family="Helvetica,sans-Serif" font-size="10.00">+</text>
<text text-anchor="start" x="114" y="-271.5" font-family="Helvetica,sans-Serif" font-size="10.00">~SimpleMaterial()</text>
<text text-anchor="start" x="101" y="-256.5" font-family="Helvetica,sans-Serif" font-size="10.00">+</text>
<text text-anchor="start" x="114" y="-256.5" font-family="Helvetica,sans-Serif" font-size="10.00">updateGL()</text>
<text text-anchor="start" x="101" y="-241.5" font-family="Helvetica,sans-Serif" font-size="10.00">+</text>
<text text-anchor="start" x="114" y="-241.5" font-family="Helvetica,sans-Serif" font-size="10.00">addTexture()</text>
<text text-anchor="start" x="101" y="-226.5" font-family="Helvetica,sans-Serif" font-size="10.00">+</text>
<text text-anchor="start" x="114" y="-226.5" font-family="Helvetica,sans-Serif" font-size="10.00">addTexture()</text>
<text text-anchor="start" x="101" y="-211.5" font-family="Helvetica,sans-Serif" font-size="10.00">+</text>
<text text-anchor="start" x="114" y="-211.5" font-family="Helvetica,sans-Serif" font-size="10.00">getTexture()</text>
<text text-anchor="start" x="101" y="-196.5" font-family="Helvetica,sans-Serif" font-size="10.00">+</text>
<text text-anchor="start" x="114" y="-196.5" font-family="Helvetica,sans-Serif" font-size="10.00">setColoredByVertexAttrib()</text>
<text text-anchor="start" x="101" y="-181.5" font-family="Helvetica,sans-Serif" font-size="10.00">+</text>
<text text-anchor="start" x="114" y="-181.5" font-family="Helvetica,sans-Serif" font-size="10.00">isColoredByVertexAttrib()</text>
<text text-anchor="start" x="101" y="-166.5" font-family="Helvetica,sans-Serif" font-size="10.00">#</text>
<text text-anchor="start" x="114" y="-166.5" font-family="Helvetica,sans-Serif" font-size="10.00">loadMetaData()</text>
<polygon fill="#666666" stroke="#666666" points="97,-326.5 97,-326.5 250,-326.5 250,-326.5 97,-326.5"/>
<polygon fill="#666666" stroke="#666666" points="97,-296.5 97,-296.5 112,-296.5 112,-296.5 97,-296.5"/>
<polygon fill="#666666" stroke="#666666" points="112,-296.5 112,-296.5 250,-296.5 250,-296.5 112,-296.5"/>
<polygon fill="none" stroke="#666666" points="96.5,-160 96.5,-355 249.5,-355 249.5,-160 96.5,-160"/>
</a>
</g>
</g>
<!-- Node2&#45;&gt;Node1 -->
<g id="edge1_Node000001_Node000002" class="edge">
<title>Node2&#45;&gt;Node1</title>
<g id="a_edge1_Node000001_Node000002"><a xlink:title=" ">
<path fill="none" stroke="#63b8ff" d="M173,-149.56C173,-140.91 173,-132.37 173,-124.22"/>
<polygon fill="none" stroke="#63b8ff" points="169.5,-149.75 173,-159.75 176.5,-149.75 169.5,-149.75"/>
</a>
</g>
</g>
<!-- Node3 -->
<g id="Node000003" class="node">
<title>Node3</title>
<g id="a_Node000003"><a xlink:href="classRa_1_1Engine_1_1Data_1_1Material.html" target="_top" xlink:title=" ">
<polygon fill="white" stroke="transparent" points="157.5,-635 4.5,-635 4.5,-391 157.5,-391 157.5,-635"/>
<text text-anchor="start" x="17.5" y="-623" font-family="Helvetica,sans-Serif" font-size="10.00">Ra::Engine::Data::Material</text>
<text text-anchor="start" x="9" y="-608" font-family="Helvetica,sans-Serif" font-size="10.00">#</text>
<text text-anchor="start" x="22" y="-608" font-family="Helvetica,sans-Serif" font-size="10.00">m_instanceName</text>
<text text-anchor="start" x="9" y="-593" font-family="Helvetica,sans-Serif" font-size="10.00">#</text>
<text text-anchor="start" x="22" y="-593" font-family="Helvetica,sans-Serif" font-size="10.00">m_aspect</text>
<text text-anchor="start" x="9" y="-578" font-family="Helvetica,sans-Serif" font-size="10.00">#</text>
<text text-anchor="start" x="22" y="-578" font-family="Helvetica,sans-Serif" font-size="10.00">m_isDirty</text>
<text text-anchor="start" x="9" y="-563" font-family="Helvetica,sans-Serif" font-size="10.00">+</text>
<text text-anchor="start" x="22" y="-563" font-family="Helvetica,sans-Serif" font-size="10.00">~Material()</text>
<text text-anchor="start" x="9" y="-548" font-family="Helvetica,sans-Serif" font-size="10.00">+</text>
<text text-anchor="start" x="22" y="-548" font-family="Helvetica,sans-Serif" font-size="10.00">getInstanceName()</text>
<text text-anchor="start" x="9" y="-533" font-family="Helvetica,sans-Serif" font-size="10.00">+</text>
<text text-anchor="start" x="22" y="-533" font-family="Helvetica,sans-Serif" font-size="10.00">getMaterialName()</text>
<text text-anchor="start" x="9" y="-518" font-family="Helvetica,sans-Serif" font-size="10.00">+</text>
<text text-anchor="start" x="22" y="-518" font-family="Helvetica,sans-Serif" font-size="10.00">setMaterialAspect()</text>
<text text-anchor="start" x="9" y="-503" font-family="Helvetica,sans-Serif" font-size="10.00">+</text>
<text text-anchor="start" x="22" y="-503" font-family="Helvetica,sans-Serif" font-size="10.00">getMaterialAspect()</text>
<text text-anchor="start" x="9" y="-488" font-family="Helvetica,sans-Serif" font-size="10.00">+</text>
<text text-anchor="start" x="22" y="-488" font-family="Helvetica,sans-Serif" font-size="10.00">isTransparent()</text>
<text text-anchor="start" x="9" y="-473" font-family="Helvetica,sans-Serif" font-size="10.00">+</text>
<text text-anchor="start" x="22" y="-473" font-family="Helvetica,sans-Serif" font-size="10.00">getPropertyList()</text>
<text text-anchor="start" x="9" y="-458" font-family="Helvetica,sans-Serif" font-size="10.00">+</text>
<text text-anchor="start" x="22" y="-458" font-family="Helvetica,sans-Serif" font-size="10.00">setColoredByVertexAttrib()</text>
<text text-anchor="start" x="9" y="-443" font-family="Helvetica,sans-Serif" font-size="10.00">+</text>
<text text-anchor="start" x="22" y="-443" font-family="Helvetica,sans-Serif" font-size="10.00">isColoredByVertexAttrib()</text>
<text text-anchor="start" x="9" y="-428" font-family="Helvetica,sans-Serif" font-size="10.00">+</text>
<text text-anchor="start" x="22" y="-428" font-family="Helvetica,sans-Serif" font-size="10.00">needUpdate()</text>
<text text-anchor="start" x="9" y="-413" font-family="Helvetica,sans-Serif" font-size="10.00">#</text>
<text text-anchor="start" x="22" y="-413" font-family="Helvetica,sans-Serif" font-size="10.00">Material()</text>
<text text-anchor="start" x="9" y="-398" font-family="Helvetica,sans-Serif" font-size="10.00">#</text>
<text text-anchor="start" x="22" y="-398" font-family="Helvetica,sans-Serif" font-size="10.00">setMaterialName()</text>
<polygon fill="#666666" stroke="#666666" points="5,-618 5,-618 158,-618 158,-618 5,-618"/>
<polygon fill="#666666" stroke="#666666" points="5,-573 5,-573 20,-573 20,-573 5,-573"/>
<polygon fill="#666666" stroke="#666666" points="20,-573 20,-573 158,-573 158,-573 20,-573"/>
<polygon fill="none" stroke="#666666" points="4.5,-391 4.5,-635 157.5,-635 157.5,-391 4.5,-391"/>
</a>
</g>
</g>
<!-- Node3&#45;&gt;Node2 -->
<g id="edge2_Node000002_Node000003" class="edge">
<title>Node3&#45;&gt;Node2</title>
<g id="a_edge2_Node000002_Node000003"><a xlink:title=" ">
<path fill="none" stroke="#63b8ff" d="M128.44,-381.28C131.63,-372.49 134.81,-363.72 137.92,-355.15"/>
<polygon fill="none" stroke="#63b8ff" points="125.1,-380.22 124.98,-390.82 131.68,-382.61 125.1,-380.22"/>
</a>
</g>
</g>
<!-- Node4 -->
<g id="Node000004" class="node">
<title>Node4</title>
<g id="a_Node000004"><a xlink:href="classRa_1_1Engine_1_1Data_1_1ShaderParameterProvider.html" target="_top" xlink:title=" ">
<polygon fill="white" stroke="transparent" points="162,-806 0,-806 0,-671 162,-671 162,-806"/>
<text text-anchor="start" x="20.5" y="-793.5" font-family="Helvetica,sans-Serif" font-size="10.00">Ra::Engine::Data::Shader</text>
<text text-anchor="start" x="35.5" y="-782.5" font-family="Helvetica,sans-Serif" font-size="10.00">ParameterProvider</text>
<text text-anchor="start" x="79" y="-767.5" font-family="Helvetica,sans-Serif" font-size="10.00"> </text>
<text text-anchor="start" x="4" y="-752.5" font-family="Helvetica,sans-Serif" font-size="10.00">+</text>
<text text-anchor="start" x="17" y="-752.5" font-family="Helvetica,sans-Serif" font-size="10.00">~ShaderParameterProvider()</text>
<text text-anchor="start" x="4" y="-737.5" font-family="Helvetica,sans-Serif" font-size="10.00">+</text>
<text text-anchor="start" x="17" y="-737.5" font-family="Helvetica,sans-Serif" font-size="10.00">getParameters()</text>
<text text-anchor="start" x="4" y="-722.5" font-family="Helvetica,sans-Serif" font-size="10.00">+</text>
<text text-anchor="start" x="17" y="-722.5" font-family="Helvetica,sans-Serif" font-size="10.00">getParameters()</text>
<text text-anchor="start" x="4" y="-707.5" font-family="Helvetica,sans-Serif" font-size="10.00">+</text>
<text text-anchor="start" x="17" y="-707.5" font-family="Helvetica,sans-Serif" font-size="10.00">updateGL()</text>
<text text-anchor="start" x="4" y="-692.5" font-family="Helvetica,sans-Serif" font-size="10.00">+</text>
<text text-anchor="start" x="17" y="-692.5" font-family="Helvetica,sans-Serif" font-size="10.00">updateFromParameters()</text>
<text text-anchor="start" x="4" y="-677.5" font-family="Helvetica,sans-Serif" font-size="10.00">+</text>
<text text-anchor="start" x="17" y="-677.5" font-family="Helvetica,sans-Serif" font-size="10.00">getPropertyList()</text>
<polygon fill="#666666" stroke="#666666" points="0,-777.5 0,-777.5 162,-777.5 162,-777.5 0,-777.5"/>
<polygon fill="#666666" stroke="#666666" points="0,-762.5 0,-762.5 162,-762.5 162,-762.5 0,-762.5"/>
<polygon fill="none" stroke="#666666" points="0,-671 0,-806 162,-806 162,-671 0,-671"/>
</a>
</g>
</g>
<!-- Node4&#45;&gt;Node3 -->
<g id="edge3_Node000003_Node000004" class="edge">
<title>Node4&#45;&gt;Node3</title>
<g id="a_edge3_Node000003_Node000004"><a xlink:title=" ">
<path fill="none" stroke="#63b8ff" d="M81,-660.48C81,-652.25 81,-643.74 81,-635.16"/>
<polygon fill="none" stroke="#63b8ff" points="77.5,-660.75 81,-670.75 84.5,-660.75 77.5,-660.75"/>
</a>
</g>
</g>
<!-- Node5 -->
<g id="Node000005" class="node">
<title>Node5</title>
<g id="a_Node000005"><a xlink:href="classRa_1_1Engine_1_1Data_1_1ParameterSetEditingInterface.html" target="_top" xlink:title=" ">
<polygon fill="white" stroke="transparent" points="356.5,-558 175.5,-558 175.5,-468 356.5,-468 356.5,-558"/>
<text text-anchor="start" x="197.5" y="-546" font-family="Helvetica,sans-Serif" font-size="10.00">Ra::Engine::Data::Parameter</text>
<text text-anchor="start" x="219.5" y="-535" font-family="Helvetica,sans-Serif" font-size="10.00">SetEditingInterface</text>
<text text-anchor="start" x="264.5" y="-520" font-family="Helvetica,sans-Serif" font-size="10.00"> </text>
<text text-anchor="start" x="180" y="-505" font-family="Helvetica,sans-Serif" font-size="10.00">+</text>
<text text-anchor="start" x="193" y="-505" font-family="Helvetica,sans-Serif" font-size="10.00">~ParameterSetEditingInterface()</text>
<text text-anchor="start" x="180" y="-490" font-family="Helvetica,sans-Serif" font-size="10.00">+</text>
<text text-anchor="start" x="193" y="-490" font-family="Helvetica,sans-Serif" font-size="10.00">getParametersMetadata()</text>
<text text-anchor="start" x="180" y="-475" font-family="Helvetica,sans-Serif" font-size="10.00">+</text>
<text text-anchor="start" x="193" y="-475" font-family="Helvetica,sans-Serif" font-size="10.00">loadMetaData()</text>
<polygon fill="#666666" stroke="#666666" points="176,-530 176,-530 357,-530 357,-530 176,-530"/>
<polygon fill="#666666" stroke="#666666" points="176,-515 176,-515 357,-515 357,-515 176,-515"/>
<polygon fill="none" stroke="#666666" points="175.5,-468 175.5,-558 356.5,-558 356.5,-468 175.5,-468"/>
</a>
</g>
</g>
<!-- Node5&#45;&gt;Node2 -->
<g id="edge4_Node000002_Node000005" class="edge">
<title>Node5&#45;&gt;Node2</title>
<g id="a_edge4_Node000002_Node000005"><a xlink:title=" ">
<path fill="none" stroke="#63b8ff" d="M246.34,-458.42C235.35,-428.46 221.32,-390.2 208.47,-355.19"/>
<polygon fill="none" stroke="#63b8ff" points="243.07,-459.66 249.8,-467.84 249.64,-457.25 243.07,-459.66"/>
</a>
</g>
</g>
</g>
</svg>

<g id="navigator" transform="translate(0 0)" fill="#404254">
  <rect fill="#f2f5e9" fill-opacity="0.5" stroke="#606060" stroke-width=".5" x="0" y="0" width="60" height="60"/>
  <use id="zoomplus" xlink:href="#zoomPlus" x="17" y="9" onmousedown="handleZoom(evt,'in')"/>
  <use id="zoomminus" xlink:href="#zoomMin" x="42" y="9" onmousedown="handleZoom(evt,'out')"/>
  <use id="reset" xlink:href="#resetDef" x="30" y="36" onmousedown="handleReset()"/>
   <use id="arrowup" xlink:href="#arrowUp" x="0" y="0" onmousedown="handlePan(0,-1)"/>
  <use id="arrowright" xlink:href="#arrowRight" x="0" y="0" onmousedown="handlePan(1,0)"/>
  <use id="arrowdown" xlink:href="#arrowDown" x="0" y="0" onmousedown="handlePan(0,1)"/>
  <use id="arrowleft" xlink:href="#arrowLeft" x="0" y="0" onmousedown="handlePan(-1,0)"/>
</g>
<svg viewBox="0 0 15 15" width="100%" height="30px" preserveAspectRatio="xMaxYMin meet">
 <g id="arrow_out" transform="scale(0.3 0.3)">
  <a xlink:href="classRa_1_1Engine_1_1Data_1_1PlainMaterial__inherit__graph_org.svg" target="_base">
   <rect id="button" ry="5" rx="5" y="6" x="6" height="38" width="38"
        fill="#f2f5e9" fill-opacity="0.5" stroke="#606060" stroke-width="1.0"/>
   <path id="arrow"
     d="M 11.500037,31.436501 C 11.940474,20.09759 22.043105,11.32322 32.158766,21.979434 L 37.068811,17.246167 C 37.068811,17.246167 37.088388,32 37.088388,32 L 22.160133,31.978069 C 22.160133,31.978069 26.997745,27.140456 26.997745,27.140456 C 18.528582,18.264221 13.291696,25.230495 11.500037,31.436501 z"
     style="fill:#404040;"/>
  </a>
 </g>
</svg>

<style type='text/css'>
<![CDATA[
[data-mouse-over-selected='false'] { opacity: 0.7; }
[data-mouse-over-selected='true']  { opacity: 1.0; }
]]>
</style>
<script type="application/ecmascript"><![CDATA[
document.addEventListener('DOMContentLoaded', (event) => {
  highlightEdges();
  highlightAdjacentNodes();
});
]]></script>
</svg>
