<?xml version="1.0" encoding="UTF-8" standalone="no"?>
<!DOCTYPE svg PUBLIC "-//W3C//DTD SVG 1.1//EN"
 "http://www.w3.org/Graphics/SVG/1.1/DTD/svg11.dtd">
<!-- Generated by graphviz version 2.43.0 (0)
 -->
<!-- Title: Ra::Engine::Data::ParameterSetEditingInterface Pages: 1 -->
<svg width="501pt" height="620pt"
 viewBox="0.00 0.00 500.50 620.00" xmlns="http://www.w3.org/2000/svg" xmlns:xlink="http://www.w3.org/1999/xlink">
<g id="graph0" class="graph" transform="scale(1 1) rotate(0) translate(4 616)">
<title>Ra::Engine::Data::ParameterSetEditingInterface</title>
<!-- Node1 -->
<g id="Node000001" class="node">
<title>Node1</title>
<g id="a_Node000001"><a xlink:title=" ">
<polygon fill="#999999" stroke="transparent" points="338,-612 157,-612 157,-522 338,-522 338,-612"/>
<text text-anchor="start" x="179" y="-600" font-family="Helvetica,sans-Serif" font-size="10.00">Ra::Engine::Data::Parameter</text>
<text text-anchor="start" x="201" y="-589" font-family="Helvetica,sans-Serif" font-size="10.00">SetEditingInterface</text>
<text text-anchor="start" x="246" y="-574" font-family="Helvetica,sans-Serif" font-size="10.00"> </text>
<text text-anchor="start" x="161.5" y="-559" font-family="Helvetica,sans-Serif" font-size="10.00">+</text>
<text text-anchor="start" x="174.5" y="-559" font-family="Helvetica,sans-Serif" font-size="10.00">~ParameterSetEditingInterface()</text>
<text text-anchor="start" x="161.5" y="-544" font-family="Helvetica,sans-Serif" font-size="10.00">+</text>
<text text-anchor="start" x="174.5" y="-544" font-family="Helvetica,sans-Serif" font-size="10.00">getParametersMetadata()</text>
<text text-anchor="start" x="161.5" y="-529" font-family="Helvetica,sans-Serif" font-size="10.00">+</text>
<text text-anchor="start" x="174.5" y="-529" font-family="Helvetica,sans-Serif" font-size="10.00">loadMetaData()</text>
<polygon fill="#666666" stroke="#666666" points="157.5,-584 157.5,-584 338.5,-584 338.5,-584 157.5,-584"/>
<polygon fill="#666666" stroke="#666666" points="157.5,-569 157.5,-569 338.5,-569 338.5,-569 157.5,-569"/>
<polygon fill="none" stroke="#666666" points="157,-522 157,-612 338,-612 338,-522 157,-522"/>
</a>
</g>
</g>
<!-- Node2 -->
<g id="Node000002" class="node">
<title>Node2</title>
<g id="a_Node000002"><a xlink:href="classRa_1_1Engine_1_1Data_1_1BlinnPhongMaterial.html" target="_top" xlink:title=" ">
<polygon fill="white" stroke="transparent" points="153,-486 0,-486 0,-171 153,-171 153,-486"/>
<text text-anchor="start" x="6" y="-473.5" font-family="Helvetica,sans-Serif" font-size="10.00">Ra::Engine::Data::BlinnPhong</text>
<text text-anchor="start" x="56.5" y="-462.5" font-family="Helvetica,sans-Serif" font-size="10.00">Material</text>
<text text-anchor="start" x="4.5" y="-447.5" font-family="Helvetica,sans-Serif" font-size="10.00">+</text>
<text text-anchor="start" x="17.5" y="-447.5" font-family="Helvetica,sans-Serif" font-size="10.00">m_kd</text>
<text text-anchor="start" x="4.5" y="-432.5" font-family="Helvetica,sans-Serif" font-size="10.00">+</text>
<text text-anchor="start" x="17.5" y="-432.5" font-family="Helvetica,sans-Serif" font-size="10.00">m_ks</text>
<text text-anchor="start" x="4.5" y="-417.5" font-family="Helvetica,sans-Serif" font-size="10.00">+</text>
<text text-anchor="start" x="17.5" y="-417.5" font-family="Helvetica,sans-Serif" font-size="10.00">m_ns</text>
<text text-anchor="start" x="4.5" y="-402.5" font-family="Helvetica,sans-Serif" font-size="10.00">+</text>
<text text-anchor="start" x="17.5" y="-402.5" font-family="Helvetica,sans-Serif" font-size="10.00">m_alpha</text>
<text text-anchor="start" x="4.5" y="-387.5" font-family="Helvetica,sans-Serif" font-size="10.00">+</text>
<text text-anchor="start" x="17.5" y="-387.5" font-family="Helvetica,sans-Serif" font-size="10.00">m_perVertexColor</text>
<text text-anchor="start" x="4.5" y="-372.5" font-family="Helvetica,sans-Serif" font-size="10.00">+</text>
<text text-anchor="start" x="17.5" y="-372.5" font-family="Helvetica,sans-Serif" font-size="10.00">m_renderAsSplat</text>
<text text-anchor="start" x="4.5" y="-357.5" font-family="Helvetica,sans-Serif" font-size="10.00">+</text>
<text text-anchor="start" x="17.5" y="-357.5" font-family="Helvetica,sans-Serif" font-size="10.00">BlinnPhongMaterial()</text>
<text text-anchor="start" x="4.5" y="-342.5" font-family="Helvetica,sans-Serif" font-size="10.00">+</text>
<text text-anchor="start" x="17.5" y="-342.5" font-family="Helvetica,sans-Serif" font-size="10.00">~BlinnPhongMaterial()</text>
<text text-anchor="start" x="4.5" y="-327.5" font-family="Helvetica,sans-Serif" font-size="10.00">+</text>
<text text-anchor="start" x="17.5" y="-327.5" font-family="Helvetica,sans-Serif" font-size="10.00">updateGL()</text>
<text text-anchor="start" x="4.5" y="-312.5" font-family="Helvetica,sans-Serif" font-size="10.00">+</text>
<text text-anchor="start" x="17.5" y="-312.5" font-family="Helvetica,sans-Serif" font-size="10.00">updateFromParameters()</text>
<text text-anchor="start" x="4.5" y="-297.5" font-family="Helvetica,sans-Serif" font-size="10.00">+</text>
<text text-anchor="start" x="17.5" y="-297.5" font-family="Helvetica,sans-Serif" font-size="10.00">isTransparent()</text>
<text text-anchor="start" x="4.5" y="-282.5" font-family="Helvetica,sans-Serif" font-size="10.00">+</text>
<text text-anchor="start" x="17.5" y="-282.5" font-family="Helvetica,sans-Serif" font-size="10.00">addTexture()</text>
<text text-anchor="start" x="4.5" y="-267.5" font-family="Helvetica,sans-Serif" font-size="10.00">+</text>
<text text-anchor="start" x="17.5" y="-267.5" font-family="Helvetica,sans-Serif" font-size="10.00">getTexture()</text>
<text text-anchor="start" x="4.5" y="-252.5" font-family="Helvetica,sans-Serif" font-size="10.00">+</text>
<text text-anchor="start" x="17.5" y="-252.5" font-family="Helvetica,sans-Serif" font-size="10.00">getParametersMetadata()</text>
<text text-anchor="start" x="4.5" y="-237.5" font-family="Helvetica,sans-Serif" font-size="10.00">+</text>
<text text-anchor="start" x="17.5" y="-237.5" font-family="Helvetica,sans-Serif" font-size="10.00">setColoredByVertexAttrib()</text>
<text text-anchor="start" x="4.5" y="-222.5" font-family="Helvetica,sans-Serif" font-size="10.00">+</text>
<text text-anchor="start" x="17.5" y="-222.5" font-family="Helvetica,sans-Serif" font-size="10.00">isColoredByVertexAttrib()</text>
<text text-anchor="start" x="4.5" y="-207.5" font-family="Helvetica,sans-Serif" font-size="10.00">+</text>
<text text-anchor="start" x="17.5" y="-207.5" font-family="Helvetica,sans-Serif" font-size="10.00">addTexture()</text>
<text text-anchor="start" x="4.5" y="-192.5" font-family="Helvetica,sans-Serif" font-size="10.00">+</text>
<text text-anchor="start" x="17.5" y="-192.5" font-family="Helvetica,sans-Serif" font-size="10.00">registerMaterial()</text>
<text text-anchor="start" x="4.5" y="-177.5" font-family="Helvetica,sans-Serif" font-size="10.00">+</text>
<text text-anchor="start" x="17.5" y="-177.5" font-family="Helvetica,sans-Serif" font-size="10.00">unregisterMaterial()</text>
<polygon fill="#666666" stroke="#666666" points="0.5,-457.5 0.5,-457.5 153.5,-457.5 153.5,-457.5 0.5,-457.5"/>
<polygon fill="#666666" stroke="#666666" points="0.5,-367.5 0.5,-367.5 15.5,-367.5 15.5,-367.5 0.5,-367.5"/>
<polygon fill="#666666" stroke="#666666" points="15.5,-367.5 15.5,-367.5 153.5,-367.5 153.5,-367.5 15.5,-367.5"/>
<polygon fill="none" stroke="#666666" points="0,-171 0,-486 153,-486 153,-171 0,-171"/>
</a>
</g>
</g>
<!-- Node1&#45;&gt;Node2 -->
<g id="edge1_Node000001_Node000002" class="edge">
<title>Node1&#45;&gt;Node2</title>
<g id="a_edge1_Node000001_Node000002"><a xlink:title=" ">
<path fill="none" stroke="#63b8ff" d="M188.1,-514.72C179.02,-505.6 170.14,-495.86 162.5,-486 159.37,-481.96 156.28,-477.78 153.25,-473.51"/>
<polygon fill="none" stroke="#63b8ff" points="185.81,-517.38 195.4,-521.88 190.71,-512.38 185.81,-517.38"/>
</a>
</g>
</g>
<!-- Node3 -->
<g id="Node000003" class="node">
<title>Node3</title>
<g id="a_Node000003"><a xlink:href="classRa_1_1Engine_1_1Data_1_1SimpleMaterial.html" target="_top" xlink:title=" ">
<polygon fill="white" stroke="transparent" points="324,-426 171,-426 171,-231 324,-231 324,-426"/>
<text text-anchor="start" x="187.5" y="-413.5" font-family="Helvetica,sans-Serif" font-size="10.00">Ra::Engine::Data::Simple</text>
<text text-anchor="start" x="227.5" y="-402.5" font-family="Helvetica,sans-Serif" font-size="10.00">Material</text>
<text text-anchor="start" x="175.5" y="-387.5" font-family="Helvetica,sans-Serif" font-size="10.00">+</text>
<text text-anchor="start" x="188.5" y="-387.5" font-family="Helvetica,sans-Serif" font-size="10.00">m_color</text>
<text text-anchor="start" x="175.5" y="-372.5" font-family="Helvetica,sans-Serif" font-size="10.00">+</text>
<text text-anchor="start" x="188.5" y="-372.5" font-family="Helvetica,sans-Serif" font-size="10.00">m_perVertexColor</text>
<text text-anchor="start" x="175.5" y="-357.5" font-family="Helvetica,sans-Serif" font-size="10.00">+</text>
<text text-anchor="start" x="188.5" y="-357.5" font-family="Helvetica,sans-Serif" font-size="10.00">SimpleMaterial()</text>
<text text-anchor="start" x="175.5" y="-342.5" font-family="Helvetica,sans-Serif" font-size="10.00">+</text>
<text text-anchor="start" x="188.5" y="-342.5" font-family="Helvetica,sans-Serif" font-size="10.00">~SimpleMaterial()</text>
<text text-anchor="start" x="175.5" y="-327.5" font-family="Helvetica,sans-Serif" font-size="10.00">+</text>
<text text-anchor="start" x="188.5" y="-327.5" font-family="Helvetica,sans-Serif" font-size="10.00">updateGL()</text>
<text text-anchor="start" x="175.5" y="-312.5" font-family="Helvetica,sans-Serif" font-size="10.00">+</text>
<text text-anchor="start" x="188.5" y="-312.5" font-family="Helvetica,sans-Serif" font-size="10.00">addTexture()</text>
<text text-anchor="start" x="175.5" y="-297.5" font-family="Helvetica,sans-Serif" font-size="10.00">+</text>
<text text-anchor="start" x="188.5" y="-297.5" font-family="Helvetica,sans-Serif" font-size="10.00">addTexture()</text>
<text text-anchor="start" x="175.5" y="-282.5" font-family="Helvetica,sans-Serif" font-size="10.00">+</text>
<text text-anchor="start" x="188.5" y="-282.5" font-family="Helvetica,sans-Serif" font-size="10.00">getTexture()</text>
<text text-anchor="start" x="175.5" y="-267.5" font-family="Helvetica,sans-Serif" font-size="10.00">+</text>
<text text-anchor="start" x="188.5" y="-267.5" font-family="Helvetica,sans-Serif" font-size="10.00">setColoredByVertexAttrib()</text>
<text text-anchor="start" x="175.5" y="-252.5" font-family="Helvetica,sans-Serif" font-size="10.00">+</text>
<text text-anchor="start" x="188.5" y="-252.5" font-family="Helvetica,sans-Serif" font-size="10.00">isColoredByVertexAttrib()</text>
<text text-anchor="start" x="175.5" y="-237.5" font-family="Helvetica,sans-Serif" font-size="10.00">#</text>
<text text-anchor="start" x="188.5" y="-237.5" font-family="Helvetica,sans-Serif" font-size="10.00">loadMetaData()</text>
<polygon fill="#666666" stroke="#666666" points="171.5,-397.5 171.5,-397.5 324.5,-397.5 324.5,-397.5 171.5,-397.5"/>
<polygon fill="#666666" stroke="#666666" points="171.5,-367.5 171.5,-367.5 186.5,-367.5 186.5,-367.5 171.5,-367.5"/>
<polygon fill="#666666" stroke="#666666" points="186.5,-367.5 186.5,-367.5 324.5,-367.5 324.5,-367.5 186.5,-367.5"/>
<polygon fill="none" stroke="#666666" points="171,-231 171,-426 324,-426 324,-231 171,-231"/>
</a>
</g>
</g>
<!-- Node1&#45;&gt;Node3 -->
<g id="edge2_Node000001_Node000003" class="edge">
<title>Node1&#45;&gt;Node3</title>
<g id="a_edge2_Node000001_Node000003"><a xlink:title=" ">
<path fill="none" stroke="#63b8ff" d="M247.5,-511.67C247.5,-486.38 247.5,-455.5 247.5,-426.41"/>
<polygon fill="none" stroke="#63b8ff" points="244,-511.79 247.5,-521.79 251,-511.79 244,-511.79"/>
</a>
</g>
</g>
<!-- Node6 -->
<g id="Node000006" class="node">
<title>Node6</title>
<g id="a_Node000006"><a xlink:href="classRa_1_1Engine_1_1Data_1_1VolumetricMaterial.html" target="_top" xlink:title=" ">
<polygon fill="white" stroke="transparent" points="492.5,-463.5 342.5,-463.5 342.5,-193.5 492.5,-193.5 492.5,-463.5"/>
<text text-anchor="start" x="347.5" y="-451.5" font-family="Helvetica,sans-Serif" font-size="10.00">Ra::Engine::Data::Volumetric</text>
<text text-anchor="start" x="397" y="-440.5" font-family="Helvetica,sans-Serif" font-size="10.00">Material</text>
<text text-anchor="start" x="347" y="-425.5" font-family="Helvetica,sans-Serif" font-size="10.00">+</text>
<text text-anchor="start" x="360.5" y="-425.5" font-family="Helvetica,sans-Serif" font-size="10.00">m_sigma_a</text>
<text text-anchor="start" x="347" y="-410.5" font-family="Helvetica,sans-Serif" font-size="10.00">+</text>
<text text-anchor="start" x="360.5" y="-410.5" font-family="Helvetica,sans-Serif" font-size="10.00">m_sigma_s</text>
<text text-anchor="start" x="347" y="-395.5" font-family="Helvetica,sans-Serif" font-size="10.00">+</text>
<text text-anchor="start" x="360.5" y="-395.5" font-family="Helvetica,sans-Serif" font-size="10.00">m_g</text>
<text text-anchor="start" x="347" y="-380.5" font-family="Helvetica,sans-Serif" font-size="10.00">+</text>
<text text-anchor="start" x="360.5" y="-380.5" font-family="Helvetica,sans-Serif" font-size="10.00">m_scale</text>
<text text-anchor="start" x="347" y="-365.5" font-family="Helvetica,sans-Serif" font-size="10.00">+</text>
<text text-anchor="start" x="360.5" y="-365.5" font-family="Helvetica,sans-Serif" font-size="10.00">m_stepsize</text>
<text text-anchor="start" x="347" y="-350.5" font-family="Helvetica,sans-Serif" font-size="10.00">+</text>
<text text-anchor="start" x="360.5" y="-350.5" font-family="Helvetica,sans-Serif" font-size="10.00">m_modelToMedium</text>
<text text-anchor="start" x="347" y="-335.5" font-family="Helvetica,sans-Serif" font-size="10.00">+</text>
<text text-anchor="start" x="360.5" y="-335.5" font-family="Helvetica,sans-Serif" font-size="10.00">VolumetricMaterial()</text>
<text text-anchor="start" x="347" y="-320.5" font-family="Helvetica,sans-Serif" font-size="10.00">+</text>
<text text-anchor="start" x="360.5" y="-320.5" font-family="Helvetica,sans-Serif" font-size="10.00">~VolumetricMaterial()</text>
<text text-anchor="start" x="347" y="-305.5" font-family="Helvetica,sans-Serif" font-size="10.00">+</text>
<text text-anchor="start" x="360.5" y="-305.5" font-family="Helvetica,sans-Serif" font-size="10.00">updateGL()</text>
<text text-anchor="start" x="347" y="-290.5" font-family="Helvetica,sans-Serif" font-size="10.00">+</text>
<text text-anchor="start" x="360.5" y="-290.5" font-family="Helvetica,sans-Serif" font-size="10.00">updateFromParameters()</text>
<text text-anchor="start" x="347" y="-275.5" font-family="Helvetica,sans-Serif" font-size="10.00">+</text>
<text text-anchor="start" x="360.5" y="-275.5" font-family="Helvetica,sans-Serif" font-size="10.00">isTransparent()</text>
<text text-anchor="start" x="347" y="-260.5" font-family="Helvetica,sans-Serif" font-size="10.00">+</text>
<text text-anchor="start" x="360.5" y="-260.5" font-family="Helvetica,sans-Serif" font-size="10.00">setTexture()</text>
<text text-anchor="start" x="347" y="-245.5" font-family="Helvetica,sans-Serif" font-size="10.00">+</text>
<text text-anchor="start" x="360.5" y="-245.5" font-family="Helvetica,sans-Serif" font-size="10.00">getTexture()</text>
<text text-anchor="start" x="347" y="-230.5" font-family="Helvetica,sans-Serif" font-size="10.00">+</text>
<text text-anchor="start" x="360.5" y="-230.5" font-family="Helvetica,sans-Serif" font-size="10.00">getParametersMetadata()</text>
<text text-anchor="start" x="347" y="-215.5" font-family="Helvetica,sans-Serif" font-size="10.00">+</text>
<text text-anchor="start" x="360.5" y="-215.5" font-family="Helvetica,sans-Serif" font-size="10.00">registerMaterial()</text>
<text text-anchor="start" x="347" y="-200.5" font-family="Helvetica,sans-Serif" font-size="10.00">+</text>
<text text-anchor="start" x="360.5" y="-200.5" font-family="Helvetica,sans-Serif" font-size="10.00">unregisterMaterial()</text>
<polygon fill="#666666" stroke="#666666" points="342.5,-435.5 342.5,-435.5 492.5,-435.5 492.5,-435.5 342.5,-435.5"/>
<polygon fill="#666666" stroke="#666666" points="342.5,-345.5 342.5,-345.5 358.5,-345.5 358.5,-345.5 342.5,-345.5"/>
<polygon fill="#666666" stroke="#666666" points="358.5,-345.5 358.5,-345.5 492.5,-345.5 492.5,-345.5 358.5,-345.5"/>
<polygon fill="none" stroke="#666666" points="342.5,-193.5 342.5,-463.5 492.5,-463.5 492.5,-193.5 342.5,-193.5"/>
</a>
</g>
</g>
<!-- Node1&#45;&gt;Node6 -->
<g id="edge5_Node000001_Node000006" class="edge">
<title>Node1&#45;&gt;Node6</title>
<g id="a_edge5_Node000001_Node000006"><a xlink:title=" ">
<path fill="none" stroke="#63b8ff" d="M308.06,-514.5C317.11,-505.47 325.93,-495.81 333.5,-486 338.96,-478.92 344.26,-471.43 349.37,-463.73"/>
<polygon fill="none" stroke="#63b8ff" points="305.5,-512.11 300.77,-521.59 310.38,-517.13 305.5,-512.11"/>
</a>
</g>
</g>
<!-- Node4 -->
<g id="Node000004" class="node">
<title>Node4</title>
<g id="a_Node000004"><a xlink:href="classRa_1_1Engine_1_1Data_1_1LambertianMaterial.html" target="_top" xlink:title=" ">
<polygon fill="white" stroke="transparent" points="236,-135 83,-135 83,0 236,0 236,-135"/>
<text text-anchor="start" x="88.5" y="-122.5" font-family="Helvetica,sans-Serif" font-size="10.00">Ra::Engine::Data::Lambertian</text>
<text text-anchor="start" x="139.5" y="-111.5" font-family="Helvetica,sans-Serif" font-size="10.00">Material</text>
<text text-anchor="start" x="158" y="-96.5" font-family="Helvetica,sans-Serif" font-size="10.00"> </text>
<text text-anchor="start" x="89" y="-81.5" font-family="Helvetica,sans-Serif" font-size="10.00">+</text>
<text text-anchor="start" x="103.5" y="-81.5" font-family="Helvetica,sans-Serif" font-size="10.00">LambertianMaterial()</text>
<text text-anchor="start" x="89" y="-66.5" font-family="Helvetica,sans-Serif" font-size="10.00">+</text>
<text text-anchor="start" x="103.5" y="-66.5" font-family="Helvetica,sans-Serif" font-size="10.00">~LambertianMaterial()</text>
<text text-anchor="start" x="89" y="-51.5" font-family="Helvetica,sans-Serif" font-size="10.00">+</text>
<text text-anchor="start" x="103.5" y="-51.5" font-family="Helvetica,sans-Serif" font-size="10.00">updateFromParameters()</text>
<text text-anchor="start" x="89" y="-36.5" font-family="Helvetica,sans-Serif" font-size="10.00">+</text>
<text text-anchor="start" x="103.5" y="-36.5" font-family="Helvetica,sans-Serif" font-size="10.00">getParametersMetadata()</text>
<text text-anchor="start" x="89" y="-21.5" font-family="Helvetica,sans-Serif" font-size="10.00">+</text>
<text text-anchor="start" x="103.5" y="-21.5" font-family="Helvetica,sans-Serif" font-size="10.00">registerMaterial()</text>
<text text-anchor="start" x="89" y="-6.5" font-family="Helvetica,sans-Serif" font-size="10.00">+</text>
<text text-anchor="start" x="103.5" y="-6.5" font-family="Helvetica,sans-Serif" font-size="10.00">unregisterMaterial()</text>
<polygon fill="#666666" stroke="#666666" points="83.5,-106.5 83.5,-106.5 236.5,-106.5 236.5,-106.5 83.5,-106.5"/>
<polygon fill="#666666" stroke="#666666" points="83.5,-91.5 83.5,-91.5 236.5,-91.5 236.5,-91.5 83.5,-91.5"/>
<polygon fill="none" stroke="#666666" points="83,0 83,-135 236,-135 236,0 83,0"/>
</a>
</g>
</g>
<!-- Node3&#45;&gt;Node4 -->
<g id="edge3_Node000003_Node000004" class="edge">
<title>Node3&#45;&gt;Node4</title>
<g id="a_edge3_Node000003_Node000004"><a xlink:title=" ">
<path fill="none" stroke="#63b8ff" d="M211.29,-220.94C201.45,-191.97 191.07,-161.43 182.21,-135.35"/>
<polygon fill="none" stroke="#63b8ff" points="208.08,-222.35 214.61,-230.69 214.7,-220.1 208.08,-222.35"/>
</a>
</g>
</g>
<!-- Node5 -->
<g id="Node000005" class="node">
<title>Node5</title>
<g id="a_Node000005"><a xlink:href="classRa_1_1Engine_1_1Data_1_1PlainMaterial.html" target="_top" xlink:title=" ">
<polygon fill="white" stroke="transparent" points="416.5,-129.5 254.5,-129.5 254.5,-5.5 416.5,-5.5 416.5,-129.5"/>
<text text-anchor="start" x="259.5" y="-117.5" font-family="Helvetica,sans-Serif" font-size="10.00">Ra::Engine::Data::PlainMaterial</text>
<text text-anchor="start" x="333.5" y="-102.5" font-family="Helvetica,sans-Serif" font-size="10.00"> </text>
<text text-anchor="start" x="262" y="-87.5" font-family="Helvetica,sans-Serif" font-size="10.00">+</text>
<text text-anchor="start" x="278.5" y="-87.5" font-family="Helvetica,sans-Serif" font-size="10.00">PlainMaterial()</text>
<text text-anchor="start" x="262" y="-72.5" font-family="Helvetica,sans-Serif" font-size="10.00">+</text>
<text text-anchor="start" x="278.5" y="-72.5" font-family="Helvetica,sans-Serif" font-size="10.00">~PlainMaterial()</text>
<text text-anchor="start" x="262" y="-57.5" font-family="Helvetica,sans-Serif" font-size="10.00">+</text>
<text text-anchor="start" x="278.5" y="-57.5" font-family="Helvetica,sans-Serif" font-size="10.00">updateFromParameters()</text>
<text text-anchor="start" x="262" y="-42.5" font-family="Helvetica,sans-Serif" font-size="10.00">+</text>
<text text-anchor="start" x="278.5" y="-42.5" font-family="Helvetica,sans-Serif" font-size="10.00">getParametersMetadata()</text>
<text text-anchor="start" x="262" y="-27.5" font-family="Helvetica,sans-Serif" font-size="10.00">+</text>
<text text-anchor="start" x="278.5" y="-27.5" font-family="Helvetica,sans-Serif" font-size="10.00">registerMaterial()</text>
<text text-anchor="start" x="262" y="-12.5" font-family="Helvetica,sans-Serif" font-size="10.00">+</text>
<text text-anchor="start" x="278.5" y="-12.5" font-family="Helvetica,sans-Serif" font-size="10.00">unregisterMaterial()</text>
<polygon fill="#666666" stroke="#666666" points="254.5,-112.5 254.5,-112.5 416.5,-112.5 416.5,-112.5 254.5,-112.5"/>
<polygon fill="#666666" stroke="#666666" points="254.5,-97.5 254.5,-97.5 416.5,-97.5 416.5,-97.5 254.5,-97.5"/>
<polygon fill="none" stroke="#666666" points="254.5,-5.5 254.5,-129.5 416.5,-129.5 416.5,-5.5 254.5,-5.5"/>
</a>
</g>
</g>
<!-- Node3&#45;&gt;Node5 -->
<g id="edge4_Node000003_Node000005" class="edge">
<title>Node3&#45;&gt;Node5</title>
<g id="a_edge4_Node000003_Node000005"><a xlink:title=" ">
<path fill="none" stroke="#63b8ff" d="M283.66,-221.08C294.26,-189.88 305.48,-156.85 314.77,-129.52"/>
<polygon fill="none" stroke="#63b8ff" points="280.3,-220.1 280.39,-230.69 286.92,-222.35 280.3,-220.1"/>
</a>
</g>
</g>
</g>
</svg>
