<?xml version="1.0" encoding="UTF-8" standalone="no"?>
<!DOCTYPE svg PUBLIC "-//W3C//DTD SVG 1.1//EN"
 "http://www.w3.org/Graphics/SVG/1.1/DTD/svg11.dtd">
<!-- Generated by graphviz version 2.43.0 (0)
 -->
<!-- Title: Ra::Engine::Data::EnvironmentTexture::updateGL Pages: 1 -->
<svg width="383pt" height="39pt"
 viewBox="0.00 0.00 383.00 39.00" xmlns="http://www.w3.org/2000/svg" xmlns:xlink="http://www.w3.org/1999/xlink">
<g id="graph0" class="graph" transform="scale(1 1) rotate(0) translate(4 35)">
<title>Ra::Engine::Data::EnvironmentTexture::updateGL</title>
<polygon fill="white" stroke="transparent" points="-4,4 -4,-35 379,-35 379,4 -4,4"/>
<!-- Node1 -->
<g id="node1" class="node">
<title>Node1</title>
<g id="a_node1"><a xlink:title="Update the OpenGL state of the envmap : texture, skybox and shaders if needed.">
<polygon fill="#bfbfbf" stroke="black" points="0,-0.5 0,-30.5 166,-30.5 166,-0.5 0,-0.5"/>
<text text-anchor="start" x="8" y="-18.5" font-family="Helvetica,sans-Serif" font-size="10.00">Ra::Engine::Data::Environment</text>
<text text-anchor="middle" x="83" y="-7.5" font-family="Helvetica,sans-Serif" font-size="10.00">Texture::updateGL</text>
</a>
</g>
</g>
<!-- Node2 -->
<g id="node2" class="node">
<title>Node2</title>
<g id="a_node2"><a xlink:href="classRa_1_1Engine_1_1Data_1_1ShaderConfiguration.html#a817ed4e22a81e034776cc21e8cfc6b8b" target="_top" xlink:title=" ">
<polygon fill="white" stroke="black" points="202,-0.5 202,-30.5 375,-30.5 375,-0.5 202,-0.5"/>
<text text-anchor="start" x="210" y="-18.5" font-family="Helvetica,sans-Serif" font-size="10.00">Ra::Engine::Data::Shader</text>
<text text-anchor="middle" x="288.5" y="-7.5" font-family="Helvetica,sans-Serif" font-size="10.00">Configuration::addShaderSource</text>
</a>
</g>
</g>
<!-- Node1&#45;&gt;Node2 -->
<g id="edge1" class="edge">
<title>Node1&#45;&gt;Node2</title>
<path fill="none" stroke="midnightblue" d="M166.18,-15.5C174.5,-15.5 182.99,-15.5 191.43,-15.5"/>
<polygon fill="midnightblue" stroke="midnightblue" points="191.69,-19 201.69,-15.5 191.69,-12 191.69,-19"/>
</g>
</g>
</svg>
