<?xml version="1.0" encoding="UTF-8" standalone="no"?>
<!DOCTYPE svg PUBLIC "-//W3C//DTD SVG 1.1//EN"
 "http://www.w3.org/Graphics/SVG/1.1/DTD/svg11.dtd">
<!-- Generated by graphviz version 2.43.0 (0)
 -->
<!-- Title: Ra::Headless::OpenGLContext Pages: 1 -->
<svg width="484pt" height="904pt"
 viewBox="0.00 0.00 484.00 904.00" xmlns="http://www.w3.org/2000/svg" xmlns:xlink="http://www.w3.org/1999/xlink">
<g id="graph0" class="graph" transform="scale(1 1) rotate(0) translate(4 900)">
<title>Ra::Headless::OpenGLContext</title>
<!-- Node1 -->
<g id="Node000001" class="node">
<title>Node1</title>
<g id="a_Node000001"><a xlink:title=" ">
<polygon fill="#999999" stroke="transparent" points="310.5,-379 151.5,-379 151.5,0 310.5,0 310.5,-379"/>
<text text-anchor="start" x="158" y="-366.5" font-family="Helvetica,sans-Serif" font-size="10.00">Ra::Headless::OpenGLContext</text>
<text text-anchor="start" x="156" y="-351.5" font-family="Helvetica,sans-Serif" font-size="10.00">#</text>
<text text-anchor="start" x="169" y="-351.5" font-family="Helvetica,sans-Serif" font-size="10.00">m_mode</text>
<text text-anchor="start" x="156" y="-336.5" font-family="Helvetica,sans-Serif" font-size="10.00">#</text>
<text text-anchor="start" x="169" y="-336.5" font-family="Helvetica,sans-Serif" font-size="10.00">m_delay</text>
<text text-anchor="start" x="156" y="-321.5" font-family="Helvetica,sans-Serif" font-size="10.00">+</text>
<text text-anchor="start" x="169" y="-321.5" font-family="Helvetica,sans-Serif" font-size="10.00">OpenGLContext()</text>
<text text-anchor="start" x="156" y="-306.5" font-family="Helvetica,sans-Serif" font-size="10.00">+</text>
<text text-anchor="start" x="169" y="-306.5" font-family="Helvetica,sans-Serif" font-size="10.00">~OpenGLContext()</text>
<text text-anchor="start" x="156" y="-291.5" font-family="Helvetica,sans-Serif" font-size="10.00">+</text>
<text text-anchor="start" x="169" y="-291.5" font-family="Helvetica,sans-Serif" font-size="10.00">makeCurrent()</text>
<text text-anchor="start" x="156" y="-276.5" font-family="Helvetica,sans-Serif" font-size="10.00">+</text>
<text text-anchor="start" x="169" y="-276.5" font-family="Helvetica,sans-Serif" font-size="10.00">doneCurrent()</text>
<text text-anchor="start" x="156" y="-261.5" font-family="Helvetica,sans-Serif" font-size="10.00">+</text>
<text text-anchor="start" x="169" y="-261.5" font-family="Helvetica,sans-Serif" font-size="10.00">isValid()</text>
<text text-anchor="start" x="156" y="-246.5" font-family="Helvetica,sans-Serif" font-size="10.00">+</text>
<text text-anchor="start" x="169" y="-246.5" font-family="Helvetica,sans-Serif" font-size="10.00">isWindow()</text>
<text text-anchor="start" x="156" y="-231.5" font-family="Helvetica,sans-Serif" font-size="10.00">+</text>
<text text-anchor="start" x="169" y="-231.5" font-family="Helvetica,sans-Serif" font-size="10.00">getInfo()</text>
<text text-anchor="start" x="156" y="-216.5" font-family="Helvetica,sans-Serif" font-size="10.00">+</text>
<text text-anchor="start" x="169" y="-216.5" font-family="Helvetica,sans-Serif" font-size="10.00">show()</text>
<text text-anchor="start" x="156" y="-201.5" font-family="Helvetica,sans-Serif" font-size="10.00">+</text>
<text text-anchor="start" x="169" y="-201.5" font-family="Helvetica,sans-Serif" font-size="10.00">hide()</text>
<text text-anchor="start" x="156" y="-186.5" font-family="Helvetica,sans-Serif" font-size="10.00">+</text>
<text text-anchor="start" x="169" y="-186.5" font-family="Helvetica,sans-Serif" font-size="10.00">resize()</text>
<text text-anchor="start" x="156" y="-171.5" font-family="Helvetica,sans-Serif" font-size="10.00">+</text>
<text text-anchor="start" x="169" y="-171.5" font-family="Helvetica,sans-Serif" font-size="10.00">renderLoop()</text>
<text text-anchor="start" x="156" y="-156.5" font-family="Helvetica,sans-Serif" font-size="10.00">+</text>
<text text-anchor="start" x="169" y="-156.5" font-family="Helvetica,sans-Serif" font-size="10.00">resizeListener()</text>
<text text-anchor="start" x="156" y="-141.5" font-family="Helvetica,sans-Serif" font-size="10.00">+</text>
<text text-anchor="start" x="169" y="-141.5" font-family="Helvetica,sans-Serif" font-size="10.00">keyboardListener()</text>
<text text-anchor="start" x="156" y="-126.5" font-family="Helvetica,sans-Serif" font-size="10.00">+</text>
<text text-anchor="start" x="169" y="-126.5" font-family="Helvetica,sans-Serif" font-size="10.00">mouseListener()</text>
<text text-anchor="start" x="156" y="-111.5" font-family="Helvetica,sans-Serif" font-size="10.00">+</text>
<text text-anchor="start" x="169" y="-111.5" font-family="Helvetica,sans-Serif" font-size="10.00">mouseMoveListener()</text>
<text text-anchor="start" x="156" y="-96.5" font-family="Helvetica,sans-Serif" font-size="10.00">+</text>
<text text-anchor="start" x="169" y="-96.5" font-family="Helvetica,sans-Serif" font-size="10.00">scrollListener()</text>
<text text-anchor="start" x="156" y="-81.5" font-family="Helvetica,sans-Serif" font-size="10.00">#</text>
<text text-anchor="start" x="169" y="-81.5" font-family="Helvetica,sans-Serif" font-size="10.00">processEvents()</text>
<text text-anchor="start" x="156" y="-66.5" font-family="Helvetica,sans-Serif" font-size="10.00">#</text>
<text text-anchor="start" x="169" y="-66.5" font-family="Helvetica,sans-Serif" font-size="10.00">resizeFrameBuffer()</text>
<text text-anchor="start" x="156" y="-51.5" font-family="Helvetica,sans-Serif" font-size="10.00">#</text>
<text text-anchor="start" x="169" y="-51.5" font-family="Helvetica,sans-Serif" font-size="10.00">keyboardEventCallback()</text>
<text text-anchor="start" x="156" y="-36.5" font-family="Helvetica,sans-Serif" font-size="10.00">#</text>
<text text-anchor="start" x="169" y="-36.5" font-family="Helvetica,sans-Serif" font-size="10.00">mouseEventCallback()</text>
<text text-anchor="start" x="156" y="-21.5" font-family="Helvetica,sans-Serif" font-size="10.00">#</text>
<text text-anchor="start" x="169" y="-21.5" font-family="Helvetica,sans-Serif" font-size="10.00">mouseMoveEventCallback()</text>
<text text-anchor="start" x="156" y="-6.5" font-family="Helvetica,sans-Serif" font-size="10.00">#</text>
<text text-anchor="start" x="169" y="-6.5" font-family="Helvetica,sans-Serif" font-size="10.00">scrollEventCallback()</text>
<polygon fill="#666666" stroke="#666666" points="152,-361.5 152,-361.5 311,-361.5 311,-361.5 152,-361.5"/>
<polygon fill="#666666" stroke="#666666" points="152,-331.5 152,-331.5 167,-331.5 167,-331.5 152,-331.5"/>
<polygon fill="#666666" stroke="#666666" points="167,-331.5 167,-331.5 311,-331.5 311,-331.5 167,-331.5"/>
<polygon fill="none" stroke="#666666" points="151.5,0 151.5,-379 310.5,-379 310.5,0 151.5,0"/>
</a>
</g>
</g>
<!-- Node2 -->
<g id="Node000002" class="node">
<title>Node2</title>
<g id="a_Node000002"><a xlink:href="classRa_1_1Core_1_1Utils_1_1Observable.html" target="_top" xlink:title=" ">
<polygon fill="white" stroke="transparent" points="142,-643 0,-643 0,-448 142,-448 142,-643"/>
<text text-anchor="start" x="5" y="-630.5" font-family="Helvetica,sans-Serif" font-size="10.00">Ra::Core::Utils::Observable</text>
<text text-anchor="start" x="43.5" y="-619.5" font-family="Helvetica,sans-Serif" font-size="10.00">&lt; int, int &gt;</text>
<text text-anchor="start" x="69" y="-604.5" font-family="Helvetica,sans-Serif" font-size="10.00"> </text>
<text text-anchor="start" x="11.5" y="-589.5" font-family="Helvetica,sans-Serif" font-size="10.00">+</text>
<text text-anchor="start" x="32" y="-589.5" font-family="Helvetica,sans-Serif" font-size="10.00">Observable()</text>
<text text-anchor="start" x="11.5" y="-574.5" font-family="Helvetica,sans-Serif" font-size="10.00">+</text>
<text text-anchor="start" x="32" y="-574.5" font-family="Helvetica,sans-Serif" font-size="10.00">Observable()</text>
<text text-anchor="start" x="11.5" y="-559.5" font-family="Helvetica,sans-Serif" font-size="10.00">+</text>
<text text-anchor="start" x="32" y="-559.5" font-family="Helvetica,sans-Serif" font-size="10.00">operator=()</text>
<text text-anchor="start" x="11.5" y="-544.5" font-family="Helvetica,sans-Serif" font-size="10.00">+</text>
<text text-anchor="start" x="32" y="-544.5" font-family="Helvetica,sans-Serif" font-size="10.00">~Observable()</text>
<text text-anchor="start" x="11.5" y="-529.5" font-family="Helvetica,sans-Serif" font-size="10.00">+</text>
<text text-anchor="start" x="32" y="-529.5" font-family="Helvetica,sans-Serif" font-size="10.00">copyObserversTo()</text>
<text text-anchor="start" x="11.5" y="-514.5" font-family="Helvetica,sans-Serif" font-size="10.00">+</text>
<text text-anchor="start" x="32" y="-514.5" font-family="Helvetica,sans-Serif" font-size="10.00">attach()</text>
<text text-anchor="start" x="11.5" y="-499.5" font-family="Helvetica,sans-Serif" font-size="10.00">+</text>
<text text-anchor="start" x="32" y="-499.5" font-family="Helvetica,sans-Serif" font-size="10.00">attachMember()</text>
<text text-anchor="start" x="11.5" y="-484.5" font-family="Helvetica,sans-Serif" font-size="10.00">+</text>
<text text-anchor="start" x="32" y="-484.5" font-family="Helvetica,sans-Serif" font-size="10.00">notify()</text>
<text text-anchor="start" x="11.5" y="-469.5" font-family="Helvetica,sans-Serif" font-size="10.00">+</text>
<text text-anchor="start" x="32" y="-469.5" font-family="Helvetica,sans-Serif" font-size="10.00">detachAll()</text>
<text text-anchor="start" x="11.5" y="-454.5" font-family="Helvetica,sans-Serif" font-size="10.00">+</text>
<text text-anchor="start" x="32" y="-454.5" font-family="Helvetica,sans-Serif" font-size="10.00">detach()</text>
<polygon fill="#666666" stroke="#666666" points="0,-614.5 0,-614.5 142,-614.5 142,-614.5 0,-614.5"/>
<polygon fill="#666666" stroke="#666666" points="0,-599.5 0,-599.5 142,-599.5 142,-599.5 0,-599.5"/>
<polygon fill="none" stroke="#666666" points="0,-448 0,-643 142,-643 142,-448 0,-448"/>
</a>
</g>
</g>
<!-- Node2&#45;&gt;Node1 -->
<g id="edge1_Node000001_Node000002" class="edge">
<title>Node2&#45;&gt;Node1</title>
<g id="a_edge1_Node000001_Node000002"><a xlink:title=" ">
<path fill="none" stroke="#63b8ff" d="M77.63,-447.68C80.63,-430.45 84.91,-412.93 91,-397 104.1,-362.74 123.85,-328.56 144.42,-298.14"/>
<polygon fill="none" stroke="#63b8ff" points="144.62,-297.86 144.72,-290.65 151.42,-287.97 151.31,-295.18 144.62,-297.86"/>
</a>
</g>
<text text-anchor="middle" x="159" y="-422" font-family="Helvetica,sans-Serif" font-size="10.00" fill="grey"> #m_mouseMoveObservers</text>
<text text-anchor="middle" x="159" y="-411" font-family="Helvetica,sans-Serif" font-size="10.00" fill="grey">#m_resizers</text>
<text text-anchor="middle" x="159" y="-400" font-family="Helvetica,sans-Serif" font-size="10.00" fill="grey">#m_scrollObservers</text>
</g>
<!-- Node3 -->
<g id="Node000003" class="node">
<title>Node3</title>
<g id="a_Node000003"><a xlink:href="classRa_1_1Core_1_1Utils_1_1Observable.html" target="_top" xlink:title=" ">
<polygon fill="white" stroke="transparent" points="302,-896 160,-896 160,-701 302,-701 302,-896"/>
<text text-anchor="start" x="165" y="-883.5" font-family="Helvetica,sans-Serif" font-size="10.00">Ra::Core::Utils::Observable</text>
<text text-anchor="start" x="208.5" y="-872.5" font-family="Helvetica,sans-Serif" font-size="10.00">&lt; Args &gt;</text>
<text text-anchor="start" x="229" y="-857.5" font-family="Helvetica,sans-Serif" font-size="10.00"> </text>
<text text-anchor="start" x="171.5" y="-842.5" font-family="Helvetica,sans-Serif" font-size="10.00">+</text>
<text text-anchor="start" x="192" y="-842.5" font-family="Helvetica,sans-Serif" font-size="10.00">Observable()</text>
<text text-anchor="start" x="171.5" y="-827.5" font-family="Helvetica,sans-Serif" font-size="10.00">+</text>
<text text-anchor="start" x="192" y="-827.5" font-family="Helvetica,sans-Serif" font-size="10.00">Observable()</text>
<text text-anchor="start" x="171.5" y="-812.5" font-family="Helvetica,sans-Serif" font-size="10.00">+</text>
<text text-anchor="start" x="192" y="-812.5" font-family="Helvetica,sans-Serif" font-size="10.00">operator=()</text>
<text text-anchor="start" x="171.5" y="-797.5" font-family="Helvetica,sans-Serif" font-size="10.00">+</text>
<text text-anchor="start" x="192" y="-797.5" font-family="Helvetica,sans-Serif" font-size="10.00">~Observable()</text>
<text text-anchor="start" x="171.5" y="-782.5" font-family="Helvetica,sans-Serif" font-size="10.00">+</text>
<text text-anchor="start" x="192" y="-782.5" font-family="Helvetica,sans-Serif" font-size="10.00">copyObserversTo()</text>
<text text-anchor="start" x="171.5" y="-767.5" font-family="Helvetica,sans-Serif" font-size="10.00">+</text>
<text text-anchor="start" x="192" y="-767.5" font-family="Helvetica,sans-Serif" font-size="10.00">attach()</text>
<text text-anchor="start" x="171.5" y="-752.5" font-family="Helvetica,sans-Serif" font-size="10.00">+</text>
<text text-anchor="start" x="192" y="-752.5" font-family="Helvetica,sans-Serif" font-size="10.00">attachMember()</text>
<text text-anchor="start" x="171.5" y="-737.5" font-family="Helvetica,sans-Serif" font-size="10.00">+</text>
<text text-anchor="start" x="192" y="-737.5" font-family="Helvetica,sans-Serif" font-size="10.00">notify()</text>
<text text-anchor="start" x="171.5" y="-722.5" font-family="Helvetica,sans-Serif" font-size="10.00">+</text>
<text text-anchor="start" x="192" y="-722.5" font-family="Helvetica,sans-Serif" font-size="10.00">detachAll()</text>
<text text-anchor="start" x="171.5" y="-707.5" font-family="Helvetica,sans-Serif" font-size="10.00">+</text>
<text text-anchor="start" x="192" y="-707.5" font-family="Helvetica,sans-Serif" font-size="10.00">detach()</text>
<polygon fill="#666666" stroke="#666666" points="160,-867.5 160,-867.5 302,-867.5 302,-867.5 160,-867.5"/>
<polygon fill="#666666" stroke="#666666" points="160,-852.5 160,-852.5 302,-852.5 302,-852.5 160,-852.5"/>
<polygon fill="none" stroke="#666666" points="160,-701 160,-896 302,-896 302,-701 160,-701"/>
</a>
</g>
</g>
<!-- Node3&#45;&gt;Node2 -->
<g id="edge2_Node000002_Node000003" class="edge">
<title>Node3&#45;&gt;Node2</title>
<g id="a_edge2_Node000002_Node000003"><a xlink:title=" ">
<path fill="none" stroke="orange" d="M163.96,-692.34C153.57,-676.03 142.87,-659.24 132.6,-643.13"/>
<polygon fill="orange" stroke="orange" points="161.04,-694.26 169.37,-700.82 166.94,-690.5 161.04,-694.26"/>
</a>
</g>
<text text-anchor="middle" x="185" y="-669.5" font-family="Helvetica,sans-Serif" font-size="10.00" fill="grey"> &lt; int, int &gt;</text>
</g>
<!-- Node4 -->
<g id="Node000004" class="node">
<title>Node4</title>
<g id="a_Node000004"><a xlink:href="classRa_1_1Core_1_1Utils_1_1Observable.html" target="_top" xlink:title=" ">
<polygon fill="white" stroke="transparent" points="302,-643 160,-643 160,-448 302,-448 302,-643"/>
<text text-anchor="start" x="165" y="-630.5" font-family="Helvetica,sans-Serif" font-size="10.00">Ra::Core::Utils::Observable</text>
<text text-anchor="start" x="185" y="-619.5" font-family="Helvetica,sans-Serif" font-size="10.00">&lt; int, int, int, int &gt;</text>
<text text-anchor="start" x="229" y="-604.5" font-family="Helvetica,sans-Serif" font-size="10.00"> </text>
<text text-anchor="start" x="171.5" y="-589.5" font-family="Helvetica,sans-Serif" font-size="10.00">+</text>
<text text-anchor="start" x="192" y="-589.5" font-family="Helvetica,sans-Serif" font-size="10.00">Observable()</text>
<text text-anchor="start" x="171.5" y="-574.5" font-family="Helvetica,sans-Serif" font-size="10.00">+</text>
<text text-anchor="start" x="192" y="-574.5" font-family="Helvetica,sans-Serif" font-size="10.00">Observable()</text>
<text text-anchor="start" x="171.5" y="-559.5" font-family="Helvetica,sans-Serif" font-size="10.00">+</text>
<text text-anchor="start" x="192" y="-559.5" font-family="Helvetica,sans-Serif" font-size="10.00">operator=()</text>
<text text-anchor="start" x="171.5" y="-544.5" font-family="Helvetica,sans-Serif" font-size="10.00">+</text>
<text text-anchor="start" x="192" y="-544.5" font-family="Helvetica,sans-Serif" font-size="10.00">~Observable()</text>
<text text-anchor="start" x="171.5" y="-529.5" font-family="Helvetica,sans-Serif" font-size="10.00">+</text>
<text text-anchor="start" x="192" y="-529.5" font-family="Helvetica,sans-Serif" font-size="10.00">copyObserversTo()</text>
<text text-anchor="start" x="171.5" y="-514.5" font-family="Helvetica,sans-Serif" font-size="10.00">+</text>
<text text-anchor="start" x="192" y="-514.5" font-family="Helvetica,sans-Serif" font-size="10.00">attach()</text>
<text text-anchor="start" x="171.5" y="-499.5" font-family="Helvetica,sans-Serif" font-size="10.00">+</text>
<text text-anchor="start" x="192" y="-499.5" font-family="Helvetica,sans-Serif" font-size="10.00">attachMember()</text>
<text text-anchor="start" x="171.5" y="-484.5" font-family="Helvetica,sans-Serif" font-size="10.00">+</text>
<text text-anchor="start" x="192" y="-484.5" font-family="Helvetica,sans-Serif" font-size="10.00">notify()</text>
<text text-anchor="start" x="171.5" y="-469.5" font-family="Helvetica,sans-Serif" font-size="10.00">+</text>
<text text-anchor="start" x="192" y="-469.5" font-family="Helvetica,sans-Serif" font-size="10.00">detachAll()</text>
<text text-anchor="start" x="171.5" y="-454.5" font-family="Helvetica,sans-Serif" font-size="10.00">+</text>
<text text-anchor="start" x="192" y="-454.5" font-family="Helvetica,sans-Serif" font-size="10.00">detach()</text>
<polygon fill="#666666" stroke="#666666" points="160,-614.5 160,-614.5 302,-614.5 302,-614.5 160,-614.5"/>
<polygon fill="#666666" stroke="#666666" points="160,-599.5 160,-599.5 302,-599.5 302,-599.5 160,-599.5"/>
<polygon fill="none" stroke="#666666" points="160,-448 160,-643 302,-643 302,-448 160,-448"/>
</a>
</g>
</g>
<!-- Node3&#45;&gt;Node4 -->
<g id="edge4_Node000004_Node000003" class="edge">
<title>Node3&#45;&gt;Node4</title>
<g id="a_edge4_Node000004_Node000003"><a xlink:title=" ">
<path fill="none" stroke="orange" d="M231,-690.54C231,-674.79 231,-658.65 231,-643.13"/>
<polygon fill="orange" stroke="orange" points="227.5,-690.82 231,-700.82 234.5,-690.82 227.5,-690.82"/>
</a>
</g>
<text text-anchor="middle" x="278.5" y="-669.5" font-family="Helvetica,sans-Serif" font-size="10.00" fill="grey"> &lt; int, int, int, int &gt;</text>
</g>
<!-- Node5 -->
<g id="Node000005" class="node">
<title>Node5</title>
<g id="a_Node000005"><a xlink:href="classRa_1_1Core_1_1Utils_1_1Observable.html" target="_top" xlink:title=" ">
<polygon fill="white" stroke="transparent" points="462,-643 320,-643 320,-448 462,-448 462,-643"/>
<text text-anchor="start" x="325" y="-630.5" font-family="Helvetica,sans-Serif" font-size="10.00">Ra::Core::Utils::Observable</text>
<text text-anchor="start" x="335.5" y="-619.5" font-family="Helvetica,sans-Serif" font-size="10.00">&lt; int, int, int, int, int &gt;</text>
<text text-anchor="start" x="389" y="-604.5" font-family="Helvetica,sans-Serif" font-size="10.00"> </text>
<text text-anchor="start" x="331.5" y="-589.5" font-family="Helvetica,sans-Serif" font-size="10.00">+</text>
<text text-anchor="start" x="352" y="-589.5" font-family="Helvetica,sans-Serif" font-size="10.00">Observable()</text>
<text text-anchor="start" x="331.5" y="-574.5" font-family="Helvetica,sans-Serif" font-size="10.00">+</text>
<text text-anchor="start" x="352" y="-574.5" font-family="Helvetica,sans-Serif" font-size="10.00">Observable()</text>
<text text-anchor="start" x="331.5" y="-559.5" font-family="Helvetica,sans-Serif" font-size="10.00">+</text>
<text text-anchor="start" x="352" y="-559.5" font-family="Helvetica,sans-Serif" font-size="10.00">operator=()</text>
<text text-anchor="start" x="331.5" y="-544.5" font-family="Helvetica,sans-Serif" font-size="10.00">+</text>
<text text-anchor="start" x="352" y="-544.5" font-family="Helvetica,sans-Serif" font-size="10.00">~Observable()</text>
<text text-anchor="start" x="331.5" y="-529.5" font-family="Helvetica,sans-Serif" font-size="10.00">+</text>
<text text-anchor="start" x="352" y="-529.5" font-family="Helvetica,sans-Serif" font-size="10.00">copyObserversTo()</text>
<text text-anchor="start" x="331.5" y="-514.5" font-family="Helvetica,sans-Serif" font-size="10.00">+</text>
<text text-anchor="start" x="352" y="-514.5" font-family="Helvetica,sans-Serif" font-size="10.00">attach()</text>
<text text-anchor="start" x="331.5" y="-499.5" font-family="Helvetica,sans-Serif" font-size="10.00">+</text>
<text text-anchor="start" x="352" y="-499.5" font-family="Helvetica,sans-Serif" font-size="10.00">attachMember()</text>
<text text-anchor="start" x="331.5" y="-484.5" font-family="Helvetica,sans-Serif" font-size="10.00">+</text>
<text text-anchor="start" x="352" y="-484.5" font-family="Helvetica,sans-Serif" font-size="10.00">notify()</text>
<text text-anchor="start" x="331.5" y="-469.5" font-family="Helvetica,sans-Serif" font-size="10.00">+</text>
<text text-anchor="start" x="352" y="-469.5" font-family="Helvetica,sans-Serif" font-size="10.00">detachAll()</text>
<text text-anchor="start" x="331.5" y="-454.5" font-family="Helvetica,sans-Serif" font-size="10.00">+</text>
<text text-anchor="start" x="352" y="-454.5" font-family="Helvetica,sans-Serif" font-size="10.00">detach()</text>
<polygon fill="#666666" stroke="#666666" points="320,-614.5 320,-614.5 462,-614.5 462,-614.5 320,-614.5"/>
<polygon fill="#666666" stroke="#666666" points="320,-599.5 320,-599.5 462,-599.5 462,-599.5 320,-599.5"/>
<polygon fill="none" stroke="#666666" points="320,-448 320,-643 462,-643 462,-448 320,-448"/>
</a>
</g>
</g>
<!-- Node3&#45;&gt;Node5 -->
<g id="edge6_Node000005_Node000003" class="edge">
<title>Node3&#45;&gt;Node5</title>
<g id="a_edge6_Node000005_Node000003"><a xlink:title=" ">
<path fill="none" stroke="orange" d="M308.38,-713.46C316.11,-703.5 323.49,-693.23 330,-683 337.94,-670.52 345.37,-656.83 352.12,-643.08"/>
<polygon fill="orange" stroke="orange" points="305.58,-711.35 302.12,-721.36 311.07,-715.7 305.58,-711.35"/>
</a>
</g>
<text text-anchor="start" x="342" y="-675" font-family="Helvetica,sans-Serif" font-size="10.00" fill="grey"> &lt; int, int, int, int,</text>
<text text-anchor="middle" x="385.5" y="-664" font-family="Helvetica,sans-Serif" font-size="10.00" fill="grey"> int &gt;</text>
</g>
<!-- Node4&#45;&gt;Node1 -->
<g id="edge3_Node000001_Node000004" class="edge">
<title>Node4&#45;&gt;Node1</title>
<g id="a_edge3_Node000001_Node000004"><a xlink:title=" ">
<path fill="none" stroke="#63b8ff" d="M231,-447.77C231,-430.05 231,-410.98 231,-391.5"/>
<polygon fill="none" stroke="#63b8ff" points="231,-391.34 227,-385.34 231,-379.34 235,-385.34 231,-391.34"/>
</a>
</g>
<text text-anchor="middle" x="291.5" y="-411" font-family="Helvetica,sans-Serif" font-size="10.00" fill="grey"> #m_keyboardObservers</text>
</g>
<!-- Node5&#45;&gt;Node1 -->
<g id="edge5_Node000001_Node000005" class="edge">
<title>Node5&#45;&gt;Node1</title>
<g id="a_edge5_Node000001_Node000005"><a xlink:title=" ">
<path fill="none" stroke="#63b8ff" d="M372.66,-447.92C368.1,-430.67 362.58,-413.07 356,-397 345.18,-370.58 331.27,-343.61 316.68,-318.23"/>
<polygon fill="none" stroke="#63b8ff" points="316.67,-318.21 310.19,-315.04 310.62,-307.84 317.1,-311.01 316.67,-318.21"/>
</a>
</g>
<text text-anchor="middle" x="421.5" y="-411" font-family="Helvetica,sans-Serif" font-size="10.00" fill="grey"> #m_mouseObservers</text>
</g>
</g>
</svg>
