<?xml version="1.0" encoding="UTF-8" standalone="no"?>
<!DOCTYPE svg PUBLIC "-//W3C//DTD SVG 1.1//EN"
 "http://www.w3.org/Graphics/SVG/1.1/DTD/svg11.dtd">
<!-- Generated by graphviz version 2.43.0 (0)
 -->
<!-- Title: Ra::Core::Animation::Skeleton::setModelTransform Pages: 1 -->
<svg width="506pt" height="88pt"
 viewBox="0.00 0.00 506.00 88.00" xmlns="http://www.w3.org/2000/svg" xmlns:xlink="http://www.w3.org/1999/xlink">
<g id="graph0" class="graph" transform="scale(1 1) rotate(0) translate(4 84)">
<title>Ra::Core::Animation::Skeleton::setModelTransform</title>
<polygon fill="white" stroke="transparent" points="-4,4 -4,-84 502,-84 502,4 -4,4"/>
<!-- Node1 -->
<g id="node1" class="node">
<title>Node1</title>
<g id="a_node1"><a xlink:title=" ">
<polygon fill="#bfbfbf" stroke="black" points="0,-24.5 0,-54.5 164,-54.5 164,-24.5 0,-24.5"/>
<text text-anchor="start" x="8" y="-42.5" font-family="Helvetica,sans-Serif" font-size="10.00">Ra::Core::Animation</text>
<text text-anchor="middle" x="82" y="-31.5" font-family="Helvetica,sans-Serif" font-size="10.00">::Skeleton::setModelTransform</text>
</a>
</g>
</g>
<!-- Node2 -->
<g id="node2" class="node">
<title>Node2</title>
<g id="a_node2"><a xlink:href="classRa_1_1Core_1_1AdjacencyList.html#a778181dcdae7c7a6a482401c89d75253" target="_top" xlink:title="Return true if the node is a leaf node.">
<polygon fill="white" stroke="black" points="200,-49.5 200,-79.5 331,-79.5 331,-49.5 200,-49.5"/>
<text text-anchor="start" x="208" y="-67.5" font-family="Helvetica,sans-Serif" font-size="10.00">Ra::Core::AdjacencyList</text>
<text text-anchor="middle" x="265.5" y="-56.5" font-family="Helvetica,sans-Serif" font-size="10.00">::isLeaf</text>
</a>
</g>
</g>
<!-- Node1&#45;&gt;Node2 -->
<g id="edge1" class="edge">
<title>Node1&#45;&gt;Node2</title>
<path fill="none" stroke="midnightblue" d="M164.19,-50.68C172.72,-51.86 181.35,-53.05 189.8,-54.21"/>
<polygon fill="midnightblue" stroke="midnightblue" points="189.6,-57.72 199.98,-55.61 190.55,-50.78 189.6,-57.72"/>
</g>
<!-- Node4 -->
<g id="node4" class="node">
<title>Node4</title>
<g id="a_node4"><a xlink:href="classRa_1_1Core_1_1AdjacencyList.html#a9bf4ac88fdea50ef9916b641617d4827" target="_top" xlink:title="Return true if a node is a root node.">
<polygon fill="white" stroke="black" points="200,-0.5 200,-30.5 331,-30.5 331,-0.5 200,-0.5"/>
<text text-anchor="start" x="208" y="-18.5" font-family="Helvetica,sans-Serif" font-size="10.00">Ra::Core::AdjacencyList</text>
<text text-anchor="middle" x="265.5" y="-7.5" font-family="Helvetica,sans-Serif" font-size="10.00">::isRoot</text>
</a>
</g>
</g>
<!-- Node1&#45;&gt;Node4 -->
<g id="edge3" class="edge">
<title>Node1&#45;&gt;Node4</title>
<path fill="none" stroke="midnightblue" d="M164.19,-28.76C172.72,-27.64 181.35,-26.49 189.8,-25.38"/>
<polygon fill="midnightblue" stroke="midnightblue" points="190.53,-28.81 199.98,-24.03 189.61,-21.87 190.53,-28.81"/>
</g>
<!-- Node3 -->
<g id="node3" class="node">
<title>Node3</title>
<g id="a_node3"><a xlink:href="classRa_1_1Core_1_1AdjacencyList.html#a48b78362d882a41b32f0df6aa1d42855" target="_top" xlink:title="Return the number of nodes in the graph.">
<polygon fill="white" stroke="black" points="367,-24.5 367,-54.5 498,-54.5 498,-24.5 367,-24.5"/>
<text text-anchor="start" x="375" y="-42.5" font-family="Helvetica,sans-Serif" font-size="10.00">Ra::Core::AdjacencyList</text>
<text text-anchor="middle" x="432.5" y="-31.5" font-family="Helvetica,sans-Serif" font-size="10.00">::size</text>
</a>
</g>
</g>
<!-- Node2&#45;&gt;Node3 -->
<g id="edge2" class="edge">
<title>Node2&#45;&gt;Node3</title>
<path fill="none" stroke="midnightblue" d="M331.24,-54.69C339.67,-53.41 348.37,-52.1 356.95,-50.8"/>
<polygon fill="midnightblue" stroke="midnightblue" points="357.59,-54.24 366.95,-49.28 356.54,-47.32 357.59,-54.24"/>
</g>
<!-- Node4&#45;&gt;Node3 -->
<g id="edge4" class="edge">
<title>Node4&#45;&gt;Node3</title>
<path fill="none" stroke="midnightblue" d="M331.24,-24.92C339.67,-26.14 348.37,-27.41 356.95,-28.66"/>
<polygon fill="midnightblue" stroke="midnightblue" points="356.55,-32.13 366.95,-30.11 357.56,-25.21 356.55,-32.13"/>
</g>
</g>
</svg>
