<?xml version="1.0" encoding="UTF-8" standalone="no"?>
<!DOCTYPE svg PUBLIC "-//W3C//DTD SVG 1.1//EN"
 "http://www.w3.org/Graphics/SVG/1.1/DTD/svg11.dtd">
<!-- Generated by graphviz version 2.43.0 (0)
 -->
<!-- Title: Ra::Core::Animation::HandleArray Pages: 1 -->
<svg width="258pt" height="659pt"
 viewBox="0.00 0.00 257.50 659.00" xmlns="http://www.w3.org/2000/svg" xmlns:xlink="http://www.w3.org/1999/xlink">
<g id="graph0" class="graph" transform="scale(1 1) rotate(0) translate(4 655)">
<title>Ra::Core::Animation::HandleArray</title>
<!-- Node1 -->
<g id="Node000001" class="node">
<title>Node1</title>
<g id="a_Node000001"><a xlink:title=" ">
<polygon fill="#999999" stroke="transparent" points="175,-651 67,-651 67,-351 175,-351 175,-651"/>
<text text-anchor="start" x="72" y="-639" font-family="Helvetica,sans-Serif" font-size="10.00">Ra::Core::Animation</text>
<text text-anchor="start" x="87.5" y="-628" font-family="Helvetica,sans-Serif" font-size="10.00">::HandleArray</text>
<text text-anchor="start" x="73.5" y="-613" font-family="Helvetica,sans-Serif" font-size="10.00">+</text>
<text text-anchor="start" x="89" y="-613" font-family="Helvetica,sans-Serif" font-size="10.00">m_pose</text>
<text text-anchor="start" x="73.5" y="-598" font-family="Helvetica,sans-Serif" font-size="10.00">#</text>
<text text-anchor="start" x="89" y="-598" font-family="Helvetica,sans-Serif" font-size="10.00">m_name</text>
<text text-anchor="start" x="73.5" y="-583" font-family="Helvetica,sans-Serif" font-size="10.00">#</text>
<text text-anchor="start" x="89" y="-583" font-family="Helvetica,sans-Serif" font-size="10.00">m_label</text>
<text text-anchor="start" x="73.5" y="-568" font-family="Helvetica,sans-Serif" font-size="10.00">+</text>
<text text-anchor="start" x="89" y="-568" font-family="Helvetica,sans-Serif" font-size="10.00">HandleArray()</text>
<text text-anchor="start" x="73.5" y="-553" font-family="Helvetica,sans-Serif" font-size="10.00">+</text>
<text text-anchor="start" x="89" y="-553" font-family="Helvetica,sans-Serif" font-size="10.00">HandleArray()</text>
<text text-anchor="start" x="73.5" y="-538" font-family="Helvetica,sans-Serif" font-size="10.00">+</text>
<text text-anchor="start" x="89" y="-538" font-family="Helvetica,sans-Serif" font-size="10.00">HandleArray()</text>
<text text-anchor="start" x="73.5" y="-523" font-family="Helvetica,sans-Serif" font-size="10.00">+</text>
<text text-anchor="start" x="89" y="-523" font-family="Helvetica,sans-Serif" font-size="10.00">operator=()</text>
<text text-anchor="start" x="73.5" y="-508" font-family="Helvetica,sans-Serif" font-size="10.00">+</text>
<text text-anchor="start" x="89" y="-508" font-family="Helvetica,sans-Serif" font-size="10.00">~HandleArray()</text>
<text text-anchor="start" x="73.5" y="-493" font-family="Helvetica,sans-Serif" font-size="10.00">+</text>
<text text-anchor="start" x="89" y="-493" font-family="Helvetica,sans-Serif" font-size="10.00">size()</text>
<text text-anchor="start" x="73.5" y="-478" font-family="Helvetica,sans-Serif" font-size="10.00">+</text>
<text text-anchor="start" x="89" y="-478" font-family="Helvetica,sans-Serif" font-size="10.00">clear()</text>
<text text-anchor="start" x="73.5" y="-463" font-family="Helvetica,sans-Serif" font-size="10.00">+</text>
<text text-anchor="start" x="89" y="-463" font-family="Helvetica,sans-Serif" font-size="10.00">getPose()</text>
<text text-anchor="start" x="73.5" y="-448" font-family="Helvetica,sans-Serif" font-size="10.00">+</text>
<text text-anchor="start" x="89" y="-448" font-family="Helvetica,sans-Serif" font-size="10.00">setPose()</text>
<text text-anchor="start" x="73.5" y="-433" font-family="Helvetica,sans-Serif" font-size="10.00">+</text>
<text text-anchor="start" x="89" y="-433" font-family="Helvetica,sans-Serif" font-size="10.00">getTransform()</text>
<text text-anchor="start" x="73.5" y="-418" font-family="Helvetica,sans-Serif" font-size="10.00">+</text>
<text text-anchor="start" x="89" y="-418" font-family="Helvetica,sans-Serif" font-size="10.00">setTransform()</text>
<text text-anchor="start" x="73.5" y="-403" font-family="Helvetica,sans-Serif" font-size="10.00">+</text>
<text text-anchor="start" x="89" y="-403" font-family="Helvetica,sans-Serif" font-size="10.00">getName()</text>
<text text-anchor="start" x="73.5" y="-388" font-family="Helvetica,sans-Serif" font-size="10.00">+</text>
<text text-anchor="start" x="89" y="-388" font-family="Helvetica,sans-Serif" font-size="10.00">setName()</text>
<text text-anchor="start" x="73.5" y="-373" font-family="Helvetica,sans-Serif" font-size="10.00">+</text>
<text text-anchor="start" x="89" y="-373" font-family="Helvetica,sans-Serif" font-size="10.00">getLabel()</text>
<text text-anchor="start" x="73.5" y="-358" font-family="Helvetica,sans-Serif" font-size="10.00">+</text>
<text text-anchor="start" x="89" y="-358" font-family="Helvetica,sans-Serif" font-size="10.00">setLabel()</text>
<polygon fill="#666666" stroke="#666666" points="67,-623 67,-623 175,-623 175,-623 67,-623"/>
<polygon fill="#666666" stroke="#666666" points="67,-578 67,-578 87,-578 87,-578 67,-578"/>
<polygon fill="#666666" stroke="#666666" points="87,-578 87,-578 175,-578 175,-578 87,-578"/>
<polygon fill="none" stroke="#666666" points="67,-351 67,-651 175,-651 175,-351 67,-351"/>
</a>
</g>
</g>
<!-- Node2 -->
<g id="Node000002" class="node">
<title>Node2</title>
<g id="a_Node000002"><a xlink:href="classRa_1_1Core_1_1Animation_1_1Cage.html" target="_top" xlink:title=" ">
<polygon fill="white" stroke="transparent" points="108,-217.5 0,-217.5 0,-97.5 108,-97.5 108,-217.5"/>
<text text-anchor="start" x="5" y="-205.5" font-family="Helvetica,sans-Serif" font-size="10.00">Ra::Core::Animation</text>
<text text-anchor="start" x="38.5" y="-194.5" font-family="Helvetica,sans-Serif" font-size="10.00">::Cage</text>
<text text-anchor="start" x="12.5" y="-179.5" font-family="Helvetica,sans-Serif" font-size="10.00">+</text>
<text text-anchor="start" x="34" y="-179.5" font-family="Helvetica,sans-Serif" font-size="10.00">m_triangle</text>
<text text-anchor="start" x="12.5" y="-164.5" font-family="Helvetica,sans-Serif" font-size="10.00">+</text>
<text text-anchor="start" x="34" y="-164.5" font-family="Helvetica,sans-Serif" font-size="10.00">Cage()</text>
<text text-anchor="start" x="12.5" y="-149.5" font-family="Helvetica,sans-Serif" font-size="10.00">+</text>
<text text-anchor="start" x="34" y="-149.5" font-family="Helvetica,sans-Serif" font-size="10.00">Cage()</text>
<text text-anchor="start" x="12.5" y="-134.5" font-family="Helvetica,sans-Serif" font-size="10.00">+</text>
<text text-anchor="start" x="34" y="-134.5" font-family="Helvetica,sans-Serif" font-size="10.00">Cage()</text>
<text text-anchor="start" x="12.5" y="-119.5" font-family="Helvetica,sans-Serif" font-size="10.00">+</text>
<text text-anchor="start" x="34" y="-119.5" font-family="Helvetica,sans-Serif" font-size="10.00">~Cage()</text>
<text text-anchor="start" x="12.5" y="-104.5" font-family="Helvetica,sans-Serif" font-size="10.00">+</text>
<text text-anchor="start" x="34" y="-104.5" font-family="Helvetica,sans-Serif" font-size="10.00">clear()</text>
<polygon fill="#666666" stroke="#666666" points="0,-189.5 0,-189.5 108,-189.5 108,-189.5 0,-189.5"/>
<polygon fill="#666666" stroke="#666666" points="0,-174.5 0,-174.5 32,-174.5 32,-174.5 0,-174.5"/>
<polygon fill="#666666" stroke="#666666" points="32,-174.5 32,-174.5 108,-174.5 108,-174.5 32,-174.5"/>
<polygon fill="none" stroke="#666666" points="0,-97.5 0,-217.5 108,-217.5 108,-97.5 0,-97.5"/>
</a>
</g>
</g>
<!-- Node1&#45;&gt;Node2 -->
<g id="edge1_Node000001_Node000002" class="edge">
<title>Node1&#45;&gt;Node2</title>
<g id="a_edge1_Node000001_Node000002"><a xlink:title=" ">
<path fill="none" stroke="#63b8ff" d="M89.76,-340.76C81.14,-296.83 72.32,-251.87 65.59,-217.59"/>
<polygon fill="none" stroke="#63b8ff" points="86.35,-341.57 91.71,-350.71 93.22,-340.22 86.35,-341.57"/>
</a>
</g>
</g>
<!-- Node3 -->
<g id="Node000003" class="node">
<title>Node3</title>
<g id="a_Node000003"><a xlink:href="classRa_1_1Core_1_1Animation_1_1Skeleton.html" target="_top" xlink:title=" ">
<polygon fill="white" stroke="transparent" points="249.5,-315 126.5,-315 126.5,0 249.5,0 249.5,-315"/>
<text text-anchor="start" x="139.5" y="-302.5" font-family="Helvetica,sans-Serif" font-size="10.00">Ra::Core::Animation</text>
<text text-anchor="start" x="164" y="-291.5" font-family="Helvetica,sans-Serif" font-size="10.00">::Skeleton</text>
<text text-anchor="start" x="131" y="-276.5" font-family="Helvetica,sans-Serif" font-size="10.00">+</text>
<text text-anchor="start" x="144" y="-276.5" font-family="Helvetica,sans-Serif" font-size="10.00">m_graph</text>
<text text-anchor="start" x="131" y="-261.5" font-family="Helvetica,sans-Serif" font-size="10.00">+</text>
<text text-anchor="start" x="144" y="-261.5" font-family="Helvetica,sans-Serif" font-size="10.00">m_manipulation</text>
<text text-anchor="start" x="131" y="-246.5" font-family="Helvetica,sans-Serif" font-size="10.00">#</text>
<text text-anchor="start" x="144" y="-246.5" font-family="Helvetica,sans-Serif" font-size="10.00">m_modelSpace</text>
<text text-anchor="start" x="131" y="-231.5" font-family="Helvetica,sans-Serif" font-size="10.00">+</text>
<text text-anchor="start" x="144" y="-231.5" font-family="Helvetica,sans-Serif" font-size="10.00">Skeleton()</text>
<text text-anchor="start" x="131" y="-216.5" font-family="Helvetica,sans-Serif" font-size="10.00">+</text>
<text text-anchor="start" x="144" y="-216.5" font-family="Helvetica,sans-Serif" font-size="10.00">Skeleton()</text>
<text text-anchor="start" x="131" y="-201.5" font-family="Helvetica,sans-Serif" font-size="10.00">+</text>
<text text-anchor="start" x="144" y="-201.5" font-family="Helvetica,sans-Serif" font-size="10.00">Skeleton()</text>
<text text-anchor="start" x="131" y="-186.5" font-family="Helvetica,sans-Serif" font-size="10.00">+</text>
<text text-anchor="start" x="144" y="-186.5" font-family="Helvetica,sans-Serif" font-size="10.00">~Skeleton()</text>
<text text-anchor="start" x="131" y="-171.5" font-family="Helvetica,sans-Serif" font-size="10.00">+</text>
<text text-anchor="start" x="144" y="-171.5" font-family="Helvetica,sans-Serif" font-size="10.00">size()</text>
<text text-anchor="start" x="131" y="-156.5" font-family="Helvetica,sans-Serif" font-size="10.00">+</text>
<text text-anchor="start" x="144" y="-156.5" font-family="Helvetica,sans-Serif" font-size="10.00">clear()</text>
<text text-anchor="start" x="131" y="-141.5" font-family="Helvetica,sans-Serif" font-size="10.00">+</text>
<text text-anchor="start" x="144" y="-141.5" font-family="Helvetica,sans-Serif" font-size="10.00">getPose()</text>
<text text-anchor="start" x="131" y="-126.5" font-family="Helvetica,sans-Serif" font-size="10.00">+</text>
<text text-anchor="start" x="144" y="-126.5" font-family="Helvetica,sans-Serif" font-size="10.00">setPose()</text>
<text text-anchor="start" x="131" y="-111.5" font-family="Helvetica,sans-Serif" font-size="10.00">+</text>
<text text-anchor="start" x="144" y="-111.5" font-family="Helvetica,sans-Serif" font-size="10.00">getTransform()</text>
<text text-anchor="start" x="131" y="-96.5" font-family="Helvetica,sans-Serif" font-size="10.00">+</text>
<text text-anchor="start" x="144" y="-96.5" font-family="Helvetica,sans-Serif" font-size="10.00">setTransform()</text>
<text text-anchor="start" x="131" y="-81.5" font-family="Helvetica,sans-Serif" font-size="10.00">+</text>
<text text-anchor="start" x="144" y="-81.5" font-family="Helvetica,sans-Serif" font-size="10.00">addRoot()</text>
<text text-anchor="start" x="131" y="-66.5" font-family="Helvetica,sans-Serif" font-size="10.00">+</text>
<text text-anchor="start" x="144" y="-66.5" font-family="Helvetica,sans-Serif" font-size="10.00">addBone()</text>
<text text-anchor="start" x="131" y="-51.5" font-family="Helvetica,sans-Serif" font-size="10.00">+</text>
<text text-anchor="start" x="144" y="-51.5" font-family="Helvetica,sans-Serif" font-size="10.00">getBonePoints()</text>
<text text-anchor="start" x="131" y="-36.5" font-family="Helvetica,sans-Serif" font-size="10.00">+</text>
<text text-anchor="start" x="144" y="-36.5" font-family="Helvetica,sans-Serif" font-size="10.00">projectOnBone()</text>
<text text-anchor="start" x="131" y="-21.5" font-family="Helvetica,sans-Serif" font-size="10.00">#</text>
<text text-anchor="start" x="144" y="-21.5" font-family="Helvetica,sans-Serif" font-size="10.00">setLocalTransform()</text>
<text text-anchor="start" x="131" y="-6.5" font-family="Helvetica,sans-Serif" font-size="10.00">#</text>
<text text-anchor="start" x="144" y="-6.5" font-family="Helvetica,sans-Serif" font-size="10.00">setModelTransform()</text>
<polygon fill="#666666" stroke="#666666" points="127,-286.5 127,-286.5 250,-286.5 250,-286.5 127,-286.5"/>
<polygon fill="#666666" stroke="#666666" points="127,-241.5 127,-241.5 142,-241.5 142,-241.5 127,-241.5"/>
<polygon fill="#666666" stroke="#666666" points="142,-241.5 142,-241.5 250,-241.5 250,-241.5 142,-241.5"/>
<polygon fill="none" stroke="#666666" points="126.5,0 126.5,-315 249.5,-315 249.5,0 126.5,0"/>
</a>
</g>
</g>
<!-- Node1&#45;&gt;Node3 -->
<g id="edge2_Node000001_Node000003" class="edge">
<title>Node1&#45;&gt;Node3</title>
<g id="a_edge2_Node000001_Node000003"><a xlink:title=" ">
<path fill="none" stroke="#63b8ff" d="M152.24,-340.76C153.91,-332.27 155.58,-323.74 157.25,-315.26"/>
<polygon fill="none" stroke="#63b8ff" points="148.78,-340.22 150.29,-350.71 155.65,-341.57 148.78,-340.22"/>
</a>
</g>
</g>
</g>
</svg>
