<?xml version="1.0" encoding="UTF-8" standalone="no"?>
<!DOCTYPE svg PUBLIC "-//W3C//DTD SVG 1.1//EN"
 "http://www.w3.org/Graphics/SVG/1.1/DTD/svg11.dtd">
<!-- Generated by graphviz version 2.43.0 (0)
 -->
<!-- Title: CLI::App::add_option_no_stream Pages: 1 -->
<svg width="479pt" height="192pt"
 viewBox="0.00 0.00 479.00 192.00" xmlns="http://www.w3.org/2000/svg" xmlns:xlink="http://www.w3.org/1999/xlink">
<g id="graph0" class="graph" transform="scale(1 1) rotate(0) translate(4 188)">
<title>CLI::App::add_option_no_stream</title>
<polygon fill="white" stroke="transparent" points="-4,4 -4,-188 475,-188 475,4 -4,4"/>
<!-- Node1 -->
<g id="node1" class="node">
<title>Node1</title>
<g id="a_node1"><a xlink:title="Add option for assigning to a variable.">
<polygon fill="#bfbfbf" stroke="black" points="0,-77 0,-107 116,-107 116,-77 0,-77"/>
<text text-anchor="start" x="8" y="-95" font-family="Helvetica,sans-Serif" font-size="10.00">CLI::App::add_option</text>
<text text-anchor="middle" x="58" y="-84" font-family="Helvetica,sans-Serif" font-size="10.00">_no_stream</text>
</a>
</g>
</g>
<!-- Node2 -->
<g id="node2" class="node">
<title>Node2</title>
<g id="a_node2"><a xlink:href="classCLI_1_1App.html#a1f9503a8cdceb4e5b42c9fd4ae6b7b10" target="_top" xlink:title=" ">
<polygon fill="white" stroke="black" points="162.5,-164.5 162.5,-183.5 278.5,-183.5 278.5,-164.5 162.5,-164.5"/>
<text text-anchor="middle" x="220.5" y="-171.5" font-family="Helvetica,sans-Serif" font-size="10.00">CLI::App::add_option</text>
</a>
</g>
</g>
<!-- Node1&#45;&gt;Node2 -->
<g id="edge1" class="edge">
<title>Node1&#45;&gt;Node2</title>
<path fill="none" stroke="midnightblue" d="M77.51,-107.19C95.54,-121.33 124.23,-142.1 152,-155 157.04,-157.34 162.42,-159.45 167.87,-161.34"/>
<polygon fill="midnightblue" stroke="midnightblue" points="167.1,-164.76 177.69,-164.49 169.24,-158.1 167.1,-164.76"/>
</g>
<!-- Node3 -->
<g id="node3" class="node">
<title>Node3</title>
<g id="a_node3"><a xlink:href="classCLI_1_1Option.html#af75c26433baa09c7c762bfb9eb466215" target="_top" xlink:title="Set the number of expected arguments.">
<polygon fill="white" stroke="black" points="160,-126.5 160,-145.5 281,-145.5 281,-126.5 160,-126.5"/>
<text text-anchor="middle" x="220.5" y="-133.5" font-family="Helvetica,sans-Serif" font-size="10.00">CLI::Option::expected</text>
</a>
</g>
</g>
<!-- Node1&#45;&gt;Node3 -->
<g id="edge2" class="edge">
<title>Node1&#45;&gt;Node3</title>
<path fill="none" stroke="midnightblue" d="M113.79,-107.02C133.65,-112.46 155.83,-118.54 174.72,-123.72"/>
<polygon fill="midnightblue" stroke="midnightblue" points="173.99,-127.15 184.56,-126.42 175.84,-120.4 173.99,-127.15"/>
</g>
<!-- Node4 -->
<g id="node4" class="node">
<title>Node4</title>
<g id="a_node4"><a xlink:href="classCLI_1_1Option.html#a3f3097fd90b0cf348f95204fd67bc72e" target="_top" xlink:title=" ">
<polygon fill="white" stroke="black" points="152,-77 152,-107 289,-107 289,-77 152,-77"/>
<text text-anchor="start" x="160" y="-95" font-family="Helvetica,sans-Serif" font-size="10.00">CLI::Option::run_callback</text>
<text text-anchor="middle" x="220.5" y="-84" font-family="Helvetica,sans-Serif" font-size="10.00">_for_default</text>
</a>
</g>
</g>
<!-- Node1&#45;&gt;Node4 -->
<g id="edge3" class="edge">
<title>Node1&#45;&gt;Node4</title>
<path fill="none" stroke="midnightblue" d="M116.04,-92C124.39,-92 133.11,-92 141.8,-92"/>
<polygon fill="midnightblue" stroke="midnightblue" points="141.94,-95.5 151.94,-92 141.94,-88.5 141.94,-95.5"/>
</g>
<!-- Node5 -->
<g id="node5" class="node">
<title>Node5</title>
<g id="a_node5"><a xlink:href="classCLI_1_1Option.html#addaddebd60f66aaedc13e5fb473db902" target="_top" xlink:title="Set a custom option typestring.">
<polygon fill="white" stroke="black" points="155,-38.5 155,-57.5 286,-57.5 286,-38.5 155,-38.5"/>
<text text-anchor="middle" x="220.5" y="-45.5" font-family="Helvetica,sans-Serif" font-size="10.00">CLI::Option::type_name</text>
</a>
</g>
</g>
<!-- Node1&#45;&gt;Node5 -->
<g id="edge4" class="edge">
<title>Node1&#45;&gt;Node5</title>
<path fill="none" stroke="midnightblue" d="M113.79,-76.98C133.65,-71.54 155.83,-65.46 174.72,-60.28"/>
<polygon fill="midnightblue" stroke="midnightblue" points="175.84,-63.6 184.56,-57.58 173.99,-56.85 175.84,-63.6"/>
</g>
<!-- Node7 -->
<g id="node7" class="node">
<title>Node7</title>
<g id="a_node7"><a xlink:href="classCLI_1_1Option.html#a490eba9b24865845a0715e4566dcb6cc" target="_top" xlink:title="Set a custom option size.">
<polygon fill="white" stroke="black" points="159.5,-0.5 159.5,-19.5 281.5,-19.5 281.5,-0.5 159.5,-0.5"/>
<text text-anchor="middle" x="220.5" y="-7.5" font-family="Helvetica,sans-Serif" font-size="10.00">CLI::Option::type_size</text>
</a>
</g>
</g>
<!-- Node1&#45;&gt;Node7 -->
<g id="edge6" class="edge">
<title>Node1&#45;&gt;Node7</title>
<path fill="none" stroke="midnightblue" d="M77.51,-76.81C95.54,-62.67 124.23,-41.9 152,-29 157.04,-26.66 162.42,-24.55 167.87,-22.66"/>
<polygon fill="midnightblue" stroke="midnightblue" points="169.24,-25.9 177.69,-19.51 167.1,-19.24 169.24,-25.9"/>
</g>
<!-- Node6 -->
<g id="node6" class="node">
<title>Node6</title>
<g id="a_node6"><a xlink:href="classCLI_1_1Option.html#a08c4fc3c4d254ac57a48d5756626a03c" target="_top" xlink:title="Set the type function to run when displayed on this option.">
<polygon fill="white" stroke="black" points="325,-38.5 325,-57.5 471,-57.5 471,-38.5 325,-38.5"/>
<text text-anchor="middle" x="398" y="-45.5" font-family="Helvetica,sans-Serif" font-size="10.00">CLI::Option::type_name_fn</text>
</a>
</g>
</g>
<!-- Node5&#45;&gt;Node6 -->
<g id="edge5" class="edge">
<title>Node5&#45;&gt;Node6</title>
<path fill="none" stroke="midnightblue" d="M286.35,-48C295.53,-48 305.07,-48 314.52,-48"/>
<polygon fill="midnightblue" stroke="midnightblue" points="314.73,-51.5 324.73,-48 314.73,-44.5 314.73,-51.5"/>
</g>
</g>
</svg>
