<?xml version="1.0" encoding="UTF-8" standalone="no"?>
<!DOCTYPE svg PUBLIC "-//W3C//DTD SVG 1.1//EN"
 "http://www.w3.org/Graphics/SVG/1.1/DTD/svg11.dtd">
<!-- Generated by graphviz version 2.43.0 (0)
 -->
<!-- Title: Ra::Engine::Scene::SkinningComponent::initialize Pages: 1 -->
<svg width="798pt" height="248pt"
 viewBox="0.00 0.00 798.00 247.50" xmlns="http://www.w3.org/2000/svg" xmlns:xlink="http://www.w3.org/1999/xlink">
<g id="graph0" class="graph" transform="scale(1 1) rotate(0) translate(4 243.5)">
<title>Ra::Engine::Scene::SkinningComponent::initialize</title>
<!-- Node1 -->
<g id="Node000001" class="node">
<title>Node1</title>
<g id="a_Node000001"><a xlink:title="Pure virtual method to be overridden by any component. When this method is called you are guaranteed ...">
<polygon fill="#999999" stroke="#666666" points="163,-132 0,-132 0,-102 163,-102 163,-132"/>
<text text-anchor="start" x="8" y="-120" font-family="Helvetica,sans-Serif" font-size="10.00">Ra::Engine::Scene::</text>
<text text-anchor="middle" x="81.5" y="-109" font-family="Helvetica,sans-Serif" font-size="10.00">SkinningComponent::initialize</text>
</a>
</g>
</g>
<!-- Node2 -->
<g id="Node000002" class="node">
<title>Node2</title>
<g id="a_Node000002"><a target="_blank" xlink:href="http://en.cppreference.com/w/cpp/container/vector/data.html#" xlink:title=" ">
<polygon fill="white" stroke="#666666" points="351,-239.5 255,-239.5 255,-220.5 351,-220.5 351,-239.5"/>
<text text-anchor="middle" x="303" y="-227.5" font-family="Helvetica,sans-Serif" font-size="10.00">std::vector::data</text>
</a>
</g>
</g>
<!-- Node1&#45;&gt;Node2 -->
<g id="edge1_Node000001_Node000002" class="edge">
<title>Node1&#45;&gt;Node2</title>
<g id="a_edge1_Node000001_Node000002"><a xlink:title=" ">
<path fill="none" stroke="#63b8ff" d="M96.31,-132.13C116.61,-153.36 156.73,-191.58 199,-211 213.23,-217.54 229.55,-221.83 244.93,-224.64"/>
<polygon fill="#63b8ff" stroke="#63b8ff" points="244.44,-228.11 254.88,-226.29 245.58,-221.2 244.44,-228.11"/>
</a>
</g>
</g>
<!-- Node3 -->
<g id="Node000003" class="node">
<title>Node3</title>
<g id="a_Node000003"><a xlink:href="classRa_1_1Engine_1_1Scene_1_1Component.html#a28dba9115491fdfd4803f7f32ee53af3" target="_top" xlink:title="Return the entity the component belongs to.">
<polygon fill="white" stroke="#666666" points="364.5,-202 241.5,-202 241.5,-172 364.5,-172 364.5,-202"/>
<text text-anchor="start" x="249.5" y="-190" font-family="Helvetica,sans-Serif" font-size="10.00">Ra::Engine::Scene::</text>
<text text-anchor="middle" x="303" y="-179" font-family="Helvetica,sans-Serif" font-size="10.00">Component::getEntity</text>
</a>
</g>
</g>
<!-- Node1&#45;&gt;Node3 -->
<g id="edge2_Node000001_Node000003" class="edge">
<title>Node1&#45;&gt;Node3</title>
<g id="a_edge2_Node000001_Node000003"><a xlink:title=" ">
<path fill="none" stroke="#63b8ff" d="M116.69,-132.04C139.65,-141.76 170.77,-154.19 199,-163 209.4,-166.25 220.51,-169.28 231.45,-172.02"/>
<polygon fill="#63b8ff" stroke="#63b8ff" points="230.87,-175.48 241.42,-174.45 232.53,-168.68 230.87,-175.48"/>
</a>
</g>
</g>
<!-- Node4 -->
<g id="Node000004" class="node">
<title>Node4</title>
<g id="a_Node000004"><a xlink:href="namespaceRa_1_1Core_1_1Math.html#a5f25a31a29b0688e349dc35a353b9766" target="_top" xlink:title=" ">
<polygon fill="white" stroke="#666666" points="385,-154 221,-154 221,-124 385,-124 385,-154"/>
<text text-anchor="start" x="229" y="-142" font-family="Helvetica,sans-Serif" font-size="10.00">Ra::Core::Math::getOrthogonal</text>
<text text-anchor="middle" x="303" y="-131" font-family="Helvetica,sans-Serif" font-size="10.00">Vectors</text>
</a>
</g>
</g>
<!-- Node1&#45;&gt;Node4 -->
<g id="edge3_Node000001_Node000004" class="edge">
<title>Node1&#45;&gt;Node4</title>
<g id="a_edge3_Node000001_Node000004"><a xlink:title=" ">
<path fill="none" stroke="#63b8ff" d="M163.3,-125.1C178.64,-126.64 194.8,-128.26 210.44,-129.82"/>
<polygon fill="#63b8ff" stroke="#63b8ff" points="210.34,-133.33 220.64,-130.85 211.04,-126.37 210.34,-133.33"/>
</a>
</g>
</g>
<!-- Node7 -->
<g id="Node000007" class="node">
<title>Node7</title>
<g id="a_Node000007"><a xlink:href="classRa_1_1Engine_1_1Scene_1_1Component.html#a32a4bfb4e9b24644d680db3852099ff3" target="_top" xlink:title="Shortcut to access the render object manager.">
<polygon fill="white" stroke="#666666" points="790,-70 664,-70 664,-40 790,-40 790,-70"/>
<text text-anchor="start" x="672" y="-58" font-family="Helvetica,sans-Serif" font-size="10.00">Ra::Engine::Scene::</text>
<text text-anchor="middle" x="727" y="-47" font-family="Helvetica,sans-Serif" font-size="10.00">Component::getRoMgr</text>
</a>
</g>
</g>
<!-- Node1&#45;&gt;Node7 -->
<g id="edge6_Node000001_Node000007" class="edge">
<title>Node1&#45;&gt;Node7</title>
<g id="a_edge6_Node000001_Node000007"><a xlink:title=" ">
<path fill="none" stroke="#63b8ff" d="M163.02,-109.24C289.35,-97.07 532.16,-73.68 653.41,-61.99"/>
<polygon fill="#63b8ff" stroke="#63b8ff" points="654.07,-65.45 663.69,-61 653.4,-58.48 654.07,-65.45"/>
</a>
</g>
</g>
<!-- Node8 -->
<g id="Node000008" class="node">
<title>Node8</title>
<g id="a_Node000008"><a target="_blank" xlink:href="http://en.cppreference.com/w/cpp/utility/move.html#" xlink:title=" ">
<polygon fill="white" stroke="#666666" points="335.5,-67.5 270.5,-67.5 270.5,-48.5 335.5,-48.5 335.5,-67.5"/>
<text text-anchor="middle" x="303" y="-55.5" font-family="Helvetica,sans-Serif" font-size="10.00">std::move</text>
</a>
</g>
</g>
<!-- Node1&#45;&gt;Node8 -->
<g id="edge7_Node000001_Node000008" class="edge">
<title>Node1&#45;&gt;Node8</title>
<g id="a_edge7_Node000001_Node000008"><a xlink:title=" ">
<path fill="none" stroke="#63b8ff" d="M130.2,-101.93C151.21,-95.48 176.25,-88.06 199,-82 219.15,-76.63 241.7,-71.3 260.55,-67.03"/>
<polygon fill="#63b8ff" stroke="#63b8ff" points="261.33,-70.45 270.32,-64.84 259.79,-63.62 261.33,-70.45"/>
</a>
</g>
</g>
<!-- Node9 -->
<g id="Node000009" class="node">
<title>Node9</title>
<g id="a_Node000009"><a xlink:href="classRa_1_1Engine_1_1Scene_1_1SkinningComponent.html#adbf1bff88f420b0b0ad5b2957b544a2d" target="_top" xlink:title="Set the type of skinning weight to display.">
<polygon fill="white" stroke="#666666" points="407,-30 199,-30 199,0 407,0 407,-30"/>
<text text-anchor="start" x="207" y="-18" font-family="Helvetica,sans-Serif" font-size="10.00">Ra::Engine::Scene::</text>
<text text-anchor="middle" x="303" y="-7" font-family="Helvetica,sans-Serif" font-size="10.00">SkinningComponent::showWeightsType</text>
</a>
</g>
</g>
<!-- Node1&#45;&gt;Node9 -->
<g id="edge8_Node000001_Node000009" class="edge">
<title>Node1&#45;&gt;Node9</title>
<g id="a_edge8_Node000001_Node000009"><a xlink:title=" ">
<path fill="none" stroke="#63b8ff" d="M100.65,-101.77C122.58,-84.12 161.27,-55.38 199,-39 203.95,-36.85 209.12,-34.88 214.39,-33.08"/>
<polygon fill="#63b8ff" stroke="#63b8ff" points="215.52,-36.39 223.97,-30 213.38,-29.73 215.52,-36.39"/>
</a>
</g>
</g>
<!-- Node5 -->
<g id="Node000005" class="node">
<title>Node5</title>
<g id="a_Node000005"><a target="_blank" xlink:href="http://en.cppreference.com/w/cpp/numeric/math/copysign.html#" xlink:title=" ">
<polygon fill="white" stroke="#666666" points="576,-182.5 495,-182.5 495,-163.5 576,-163.5 576,-182.5"/>
<text text-anchor="middle" x="535.5" y="-170.5" font-family="Helvetica,sans-Serif" font-size="10.00">std::copysign</text>
</a>
</g>
</g>
<!-- Node4&#45;&gt;Node5 -->
<g id="edge4_Node000004_Node000005" class="edge">
<title>Node4&#45;&gt;Node5</title>
<g id="a_edge4_Node000004_Node000005"><a xlink:title=" ">
<path fill="none" stroke="#63b8ff" d="M385.27,-150.99C418.54,-155.9 455.97,-161.42 485.02,-165.7"/>
<polygon fill="#63b8ff" stroke="#63b8ff" points="484.52,-169.17 494.92,-167.16 485.54,-162.24 484.52,-169.17"/>
</a>
</g>
</g>
<!-- Node6 -->
<g id="Node000006" class="node">
<title>Node6</title>
<g id="a_Node000006"><a xlink:href="namespaceRa_1_1Core_1_1Math.html#a90f0fe9079f5bb86c721ea4b61738470" target="_top" xlink:title="Returns the sign of any numeric type as { &#45;1, 0, 1}.">
<polygon fill="white" stroke="#666666" points="593,-145.5 478,-145.5 478,-126.5 593,-126.5 593,-145.5"/>
<text text-anchor="middle" x="535.5" y="-133.5" font-family="Helvetica,sans-Serif" font-size="10.00">Ra::Core::Math::sign</text>
</a>
</g>
</g>
<!-- Node4&#45;&gt;Node6 -->
<g id="edge5_Node000004_Node000006" class="edge">
<title>Node4&#45;&gt;Node6</title>
<g id="a_edge5_Node000004_Node000006"><a xlink:title=" ">
<path fill="none" stroke="#63b8ff" d="M385.27,-137.94C412.27,-137.59 442.01,-137.2 467.78,-136.87"/>
<polygon fill="#63b8ff" stroke="#63b8ff" points="467.87,-140.37 477.82,-136.74 467.78,-133.37 467.87,-140.37"/>
</a>
</g>
</g>
<!-- Node10 -->
<g id="Node000010" class="node">
<title>Node10</title>
<g id="a_Node000010"><a xlink:href="classRa_1_1Engine_1_1Scene_1_1SkinningComponent.html#acb0c9f8ee61577b0f8ff4266a2d0033a" target="_top" xlink:title="Toggles display of skinning weights.">
<polygon fill="white" stroke="#666666" points="628,-49 443,-49 443,-19 628,-19 628,-49"/>
<text text-anchor="start" x="451" y="-37" font-family="Helvetica,sans-Serif" font-size="10.00">Ra::Engine::Scene::</text>
<text text-anchor="middle" x="535.5" y="-26" font-family="Helvetica,sans-Serif" font-size="10.00">SkinningComponent::showWeights</text>
</a>
</g>
</g>
<!-- Node9&#45;&gt;Node10 -->
<g id="edge9_Node000009_Node000010" class="edge">
<title>Node9&#45;&gt;Node10</title>
<g id="a_edge9_Node000009_Node000010"><a xlink:title=" ">
<path fill="none" stroke="#63b8ff" d="M407.11,-23.5C415.55,-24.2 424.08,-24.9 432.5,-25.59"/>
<polygon fill="#63b8ff" stroke="#63b8ff" points="432.47,-29.1 442.73,-26.44 433.05,-22.13 432.47,-29.1"/>
</a>
</g>
</g>
<!-- Node10&#45;&gt;Node7 -->
<g id="edge10_Node000010_Node000007" class="edge">
<title>Node10&#45;&gt;Node7</title>
<g id="a_edge10_Node000010_Node000007"><a xlink:title=" ">
<path fill="none" stroke="#63b8ff" d="M628.2,-44.16C636.79,-45.11 645.42,-46.07 653.81,-47"/>
<polygon fill="#63b8ff" stroke="#63b8ff" points="653.56,-50.49 663.89,-48.12 654.33,-43.54 653.56,-50.49"/>
</a>
</g>
</g>
</g>
</svg>
