<?xml version="1.0" encoding="UTF-8" standalone="no"?>
<!DOCTYPE svg PUBLIC "-//W3C//DTD SVG 1.1//EN"
 "http://www.w3.org/Graphics/SVG/1.1/DTD/svg11.dtd">
<!-- Generated by graphviz version 2.43.0 (0)
 -->
<!-- Title: Ra::Engine::Scene::SkinningComponent::initialize Pages: 1 -->
<svg width="530pt" height="170pt"
 viewBox="0.00 0.00 530.00 170.00" xmlns="http://www.w3.org/2000/svg" xmlns:xlink="http://www.w3.org/1999/xlink">
<g id="graph0" class="graph" transform="scale(1 1) rotate(0) translate(4 166)">
<title>Ra::Engine::Scene::SkinningComponent::initialize</title>
<polygon fill="white" stroke="transparent" points="-4,4 -4,-166 526,-166 526,4 -4,4"/>
<!-- Node1 -->
<g id="node1" class="node">
<title>Node1</title>
<g id="a_node1"><a xlink:title="Pure virtual method to be overridden by any component. When this method is called you are guaranteed ...">
<polygon fill="#bfbfbf" stroke="black" points="0,-66 0,-96 163,-96 163,-66 0,-66"/>
<text text-anchor="start" x="8" y="-84" font-family="Helvetica,sans-Serif" font-size="10.00">Ra::Engine::Scene::</text>
<text text-anchor="middle" x="81.5" y="-73" font-family="Helvetica,sans-Serif" font-size="10.00">SkinningComponent::initialize</text>
</a>
</g>
</g>
<!-- Node2 -->
<g id="node2" class="node">
<title>Node2</title>
<g id="a_node2"><a xlink:href="classRa_1_1Core_1_1Geometry_1_1AttribArrayGeometry.html#aeb68d9cd8cf8c1e05886a23f0ad33c59" target="_top" xlink:title=" ">
<polygon fill="white" stroke="black" points="199,-120.5 199,-161.5 324,-161.5 324,-120.5 199,-120.5"/>
<text text-anchor="start" x="207" y="-149.5" font-family="Helvetica,sans-Serif" font-size="10.00">Ra::Core::Geometry</text>
<text text-anchor="start" x="207" y="-138.5" font-family="Helvetica,sans-Serif" font-size="10.00">::AttribArrayGeometry</text>
<text text-anchor="middle" x="261.5" y="-127.5" font-family="Helvetica,sans-Serif" font-size="10.00">::getAttrib</text>
</a>
</g>
</g>
<!-- Node1&#45;&gt;Node2 -->
<g id="edge1" class="edge">
<title>Node1&#45;&gt;Node2</title>
<path fill="none" stroke="midnightblue" d="M127.42,-96.14C146.35,-102.52 168.85,-110.11 189.9,-117.2"/>
<polygon fill="midnightblue" stroke="midnightblue" points="188.87,-120.55 199.46,-120.42 191.1,-113.91 188.87,-120.55"/>
</g>
<!-- Node4 -->
<g id="node4" class="node">
<title>Node4</title>
<g id="a_node4"><a xlink:href="classRa_1_1Core_1_1Geometry_1_1AttribArrayGeometry.html#a25adccb0a28277580c023e2cd4adb0b0" target="_top" xlink:title=" ">
<polygon fill="white" stroke="black" points="199,-60.5 199,-101.5 324,-101.5 324,-60.5 199,-60.5"/>
<text text-anchor="start" x="207" y="-89.5" font-family="Helvetica,sans-Serif" font-size="10.00">Ra::Core::Geometry</text>
<text text-anchor="start" x="207" y="-78.5" font-family="Helvetica,sans-Serif" font-size="10.00">::AttribArrayGeometry</text>
<text text-anchor="middle" x="261.5" y="-67.5" font-family="Helvetica,sans-Serif" font-size="10.00">::getAttribHandle</text>
</a>
</g>
</g>
<!-- Node1&#45;&gt;Node4 -->
<g id="edge3" class="edge">
<title>Node1&#45;&gt;Node4</title>
<path fill="none" stroke="midnightblue" d="M163.17,-81C171.67,-81 180.27,-81 188.66,-81"/>
<polygon fill="midnightblue" stroke="midnightblue" points="188.78,-84.5 198.77,-81 188.77,-77.5 188.78,-84.5"/>
</g>
<!-- Node6 -->
<g id="node6" class="node">
<title>Node6</title>
<g id="a_node6"><a xlink:href="classRa_1_1Core_1_1Geometry_1_1AttribArrayGeometry.html#a377baa027aad5620615d0f876a5698e0" target="_top" xlink:title=" ">
<polygon fill="white" stroke="black" points="199,-0.5 199,-41.5 324,-41.5 324,-0.5 199,-0.5"/>
<text text-anchor="start" x="207" y="-29.5" font-family="Helvetica,sans-Serif" font-size="10.00">Ra::Core::Geometry</text>
<text text-anchor="start" x="207" y="-18.5" font-family="Helvetica,sans-Serif" font-size="10.00">::AttribArrayGeometry</text>
<text text-anchor="middle" x="261.5" y="-7.5" font-family="Helvetica,sans-Serif" font-size="10.00">::hasAttrib</text>
</a>
</g>
</g>
<!-- Node1&#45;&gt;Node6 -->
<g id="edge5" class="edge">
<title>Node1&#45;&gt;Node6</title>
<path fill="none" stroke="midnightblue" d="M127.42,-65.86C146.35,-59.48 168.85,-51.89 189.9,-44.8"/>
<polygon fill="midnightblue" stroke="midnightblue" points="191.1,-48.09 199.46,-41.58 188.87,-41.45 191.1,-48.09"/>
</g>
<!-- Node3 -->
<g id="node3" class="node">
<title>Node3</title>
<g id="a_node3"><a xlink:href="classRa_1_1Core_1_1Utils_1_1AttribManager.html#ae0cb7281ec72606a5392602b4ea50d2c" target="_top" xlink:title=" ">
<polygon fill="white" stroke="black" points="360,-126 360,-156 522,-156 522,-126 360,-126"/>
<text text-anchor="start" x="368" y="-144" font-family="Helvetica,sans-Serif" font-size="10.00">Ra::Core::Utils::AttribManager</text>
<text text-anchor="middle" x="441" y="-133" font-family="Helvetica,sans-Serif" font-size="10.00">::getAttrib</text>
</a>
</g>
</g>
<!-- Node2&#45;&gt;Node3 -->
<g id="edge2" class="edge">
<title>Node2&#45;&gt;Node3</title>
<path fill="none" stroke="midnightblue" d="M324.08,-141C332.36,-141 340.98,-141 349.63,-141"/>
<polygon fill="midnightblue" stroke="midnightblue" points="349.77,-144.5 359.77,-141 349.77,-137.5 349.77,-144.5"/>
</g>
<!-- Node5 -->
<g id="node5" class="node">
<title>Node5</title>
<g id="a_node5"><a xlink:href="classRa_1_1Core_1_1Utils_1_1AttribManager.html#af89047a2747bc4e08144bbb3477e1d8e" target="_top" xlink:title="findAttrib Grab an attribute handler by name.">
<polygon fill="white" stroke="black" points="360,-66 360,-96 522,-96 522,-66 360,-66"/>
<text text-anchor="start" x="368" y="-84" font-family="Helvetica,sans-Serif" font-size="10.00">Ra::Core::Utils::AttribManager</text>
<text text-anchor="middle" x="441" y="-73" font-family="Helvetica,sans-Serif" font-size="10.00">::findAttrib</text>
</a>
</g>
</g>
<!-- Node4&#45;&gt;Node5 -->
<g id="edge4" class="edge">
<title>Node4&#45;&gt;Node5</title>
<path fill="none" stroke="midnightblue" d="M324.08,-81C332.36,-81 340.98,-81 349.63,-81"/>
<polygon fill="midnightblue" stroke="midnightblue" points="349.77,-84.5 359.77,-81 349.77,-77.5 349.77,-84.5"/>
</g>
<!-- Node7 -->
<g id="node7" class="node">
<title>Node7</title>
<g id="a_node7"><a xlink:href="classRa_1_1Core_1_1Utils_1_1AttribManager.html#acf143d6db7f6e39edb18ed21d45b3317" target="_top" xlink:title="contains Check if an attribute with the given name exists.">
<polygon fill="white" stroke="black" points="360,-6 360,-36 522,-36 522,-6 360,-6"/>
<text text-anchor="start" x="368" y="-24" font-family="Helvetica,sans-Serif" font-size="10.00">Ra::Core::Utils::AttribManager</text>
<text text-anchor="middle" x="441" y="-13" font-family="Helvetica,sans-Serif" font-size="10.00">::contains</text>
</a>
</g>
</g>
<!-- Node6&#45;&gt;Node7 -->
<g id="edge6" class="edge">
<title>Node6&#45;&gt;Node7</title>
<path fill="none" stroke="midnightblue" d="M324.08,-21C332.36,-21 340.98,-21 349.63,-21"/>
<polygon fill="midnightblue" stroke="midnightblue" points="349.77,-24.5 359.77,-21 349.77,-17.5 349.77,-24.5"/>
</g>
</g>
</svg>
