<?xml version="1.0" encoding="UTF-8" standalone="no"?>
<!DOCTYPE svg PUBLIC "-//W3C//DTD SVG 1.1//EN"
 "http://www.w3.org/Graphics/SVG/1.1/DTD/svg11.dtd">
<!-- Generated by graphviz version 2.43.0 (0)
 -->
<!-- Title: CLI::FormatterBase Pages: 1 -->
<svg width="283pt" height="601pt"
 viewBox="0.00 0.00 283.00 601.00" xmlns="http://www.w3.org/2000/svg" xmlns:xlink="http://www.w3.org/1999/xlink">
<g id="graph0" class="graph" transform="scale(1 1) rotate(0) translate(4 597)">
<title>CLI::FormatterBase</title>
<polygon fill="white" stroke="transparent" points="-4,4 -4,-597 279,-597 279,4 -4,4"/>
<!-- Node1 -->
<g id="node1" class="node">
<title>Node1</title>
<g id="a_node1"><a xlink:title=" ">
<polygon fill="#bfbfbf" stroke="black" points="90.5,-0.5 90.5,-244.5 215.5,-244.5 215.5,-0.5 90.5,-0.5"/>
<text text-anchor="middle" x="153" y="-232.5" font-family="Helvetica,sans-Serif" font-size="10.00">CLI::FormatterBase</text>
<polyline fill="none" stroke="black" points="90.5,-225.5 215.5,-225.5 "/>
<text text-anchor="middle" x="153" y="-213.5" font-family="Helvetica,sans-Serif" font-size="10.00"> </text>
<polyline fill="none" stroke="black" points="90.5,-206.5 215.5,-206.5 "/>
<text text-anchor="start" x="98.5" y="-194.5" font-family="Helvetica,sans-Serif" font-size="10.00">+ FormatterBase()</text>
<text text-anchor="start" x="98.5" y="-183.5" font-family="Helvetica,sans-Serif" font-size="10.00">+ FormatterBase()</text>
<text text-anchor="start" x="98.5" y="-172.5" font-family="Helvetica,sans-Serif" font-size="10.00">+ FormatterBase()</text>
<text text-anchor="start" x="98.5" y="-161.5" font-family="Helvetica,sans-Serif" font-size="10.00">+ ~FormatterBase()</text>
<text text-anchor="start" x="98.5" y="-150.5" font-family="Helvetica,sans-Serif" font-size="10.00">+ make_help()</text>
<text text-anchor="start" x="98.5" y="-139.5" font-family="Helvetica,sans-Serif" font-size="10.00">+ label()</text>
<text text-anchor="start" x="98.5" y="-128.5" font-family="Helvetica,sans-Serif" font-size="10.00">+ column_width()</text>
<text text-anchor="start" x="98.5" y="-117.5" font-family="Helvetica,sans-Serif" font-size="10.00">+ get_label()</text>
<text text-anchor="start" x="98.5" y="-106.5" font-family="Helvetica,sans-Serif" font-size="10.00">+ get_column_width()</text>
<text text-anchor="start" x="98.5" y="-95.5" font-family="Helvetica,sans-Serif" font-size="10.00">* FormatterBase()</text>
<text text-anchor="start" x="98.5" y="-84.5" font-family="Helvetica,sans-Serif" font-size="10.00">* FormatterBase()</text>
<text text-anchor="start" x="98.5" y="-73.5" font-family="Helvetica,sans-Serif" font-size="10.00">* FormatterBase()</text>
<text text-anchor="start" x="98.5" y="-62.5" font-family="Helvetica,sans-Serif" font-size="10.00">* ~FormatterBase()</text>
<text text-anchor="start" x="98.5" y="-51.5" font-family="Helvetica,sans-Serif" font-size="10.00">* make_help()</text>
<text text-anchor="start" x="98.5" y="-40.5" font-family="Helvetica,sans-Serif" font-size="10.00">* label()</text>
<text text-anchor="start" x="98.5" y="-29.5" font-family="Helvetica,sans-Serif" font-size="10.00">* column_width()</text>
<text text-anchor="start" x="98.5" y="-18.5" font-family="Helvetica,sans-Serif" font-size="10.00">* get_label()</text>
<text text-anchor="start" x="98.5" y="-7.5" font-family="Helvetica,sans-Serif" font-size="10.00">* get_column_width()</text>
</a>
</g>
</g>
<!-- Node2 -->
<g id="node2" class="node">
<title>Node2</title>
<g id="a_node2"><a xlink:title=" ">
<polygon fill="white" stroke="#bfbfbf" points="41,-292.5 41,-360.5 163,-360.5 163,-292.5 41,-292.5"/>
<text text-anchor="start" x="49" y="-348.5" font-family="Helvetica,sans-Serif" font-size="10.00">std::map&lt; std::string,</text>
<text text-anchor="middle" x="102" y="-337.5" font-family="Helvetica,sans-Serif" font-size="10.00"> std::string &gt;</text>
<polyline fill="none" stroke="#bfbfbf" points="41,-330.5 163,-330.5 "/>
<text text-anchor="middle" x="102" y="-318.5" font-family="Helvetica,sans-Serif" font-size="10.00"> </text>
<polyline fill="none" stroke="#bfbfbf" points="41,-311.5 163,-311.5 "/>
<text text-anchor="middle" x="102" y="-299.5" font-family="Helvetica,sans-Serif" font-size="10.00"> </text>
</a>
</g>
</g>
<!-- Node2&#45;&gt;Node1 -->
<g id="edge1" class="edge">
<title>Node2&#45;&gt;Node1</title>
<path fill="none" stroke="#404040" d="M110.42,-292.14C113.07,-281.66 116.17,-269.37 119.47,-256.29"/>
<polygon fill="none" stroke="#404040" points="119.48,-256.25 117.07,-249.45 122.42,-244.62 124.83,-251.41 119.48,-256.25"/>
<text text-anchor="middle" x="141" y="-266" font-family="Helvetica,sans-Serif" font-size="10.00"> #labels_</text>
</g>
<!-- Node3 -->
<g id="node3" class="node">
<title>Node3</title>
<g id="a_node3"><a xlink:title="STL class.">
<polygon fill="white" stroke="#bfbfbf" points="19.5,-419.5 19.5,-476.5 84.5,-476.5 84.5,-419.5 19.5,-419.5"/>
<text text-anchor="middle" x="52" y="-464.5" font-family="Helvetica,sans-Serif" font-size="10.00">std::string</text>
<polyline fill="none" stroke="#bfbfbf" points="19.5,-457.5 84.5,-457.5 "/>
<text text-anchor="middle" x="52" y="-445.5" font-family="Helvetica,sans-Serif" font-size="10.00"> </text>
<polyline fill="none" stroke="#bfbfbf" points="19.5,-438.5 84.5,-438.5 "/>
<text text-anchor="middle" x="52" y="-426.5" font-family="Helvetica,sans-Serif" font-size="10.00"> </text>
</a>
</g>
</g>
<!-- Node3&#45;&gt;Node2 -->
<g id="edge2" class="edge">
<title>Node3&#45;&gt;Node2</title>
<path fill="none" stroke="#404040" d="M56.19,-419.49C58.69,-406.83 62.48,-391.81 68,-379 69.13,-376.39 70.39,-373.76 71.74,-371.15"/>
<polygon fill="none" stroke="#404040" points="71.8,-371.05 71.28,-363.85 77.72,-360.61 78.24,-367.8 71.8,-371.05"/>
<text text-anchor="middle" x="97" y="-393" font-family="Helvetica,sans-Serif" font-size="10.00"> +elements</text>
<text text-anchor="middle" x="97" y="-382" font-family="Helvetica,sans-Serif" font-size="10.00">+keys</text>
</g>
<!-- Node4 -->
<g id="node4" class="node">
<title>Node4</title>
<g id="a_node4"><a xlink:title="STL class.">
<polygon fill="white" stroke="#bfbfbf" points="0,-524.5 0,-592.5 104,-592.5 104,-524.5 0,-524.5"/>
<text text-anchor="start" x="8" y="-580.5" font-family="Helvetica,sans-Serif" font-size="10.00">std::basic_string&lt;</text>
<text text-anchor="middle" x="52" y="-569.5" font-family="Helvetica,sans-Serif" font-size="10.00"> char &gt;</text>
<polyline fill="none" stroke="#bfbfbf" points="0,-562.5 104,-562.5 "/>
<text text-anchor="middle" x="52" y="-550.5" font-family="Helvetica,sans-Serif" font-size="10.00"> </text>
<polyline fill="none" stroke="#bfbfbf" points="0,-543.5 104,-543.5 "/>
<text text-anchor="middle" x="52" y="-531.5" font-family="Helvetica,sans-Serif" font-size="10.00"> </text>
</a>
</g>
</g>
<!-- Node4&#45;&gt;Node3 -->
<g id="edge3" class="edge">
<title>Node4&#45;&gt;Node3</title>
<path fill="none" stroke="midnightblue" d="M52,-514.06C52,-501.51 52,-488.15 52,-476.83"/>
<polygon fill="none" stroke="midnightblue" points="48.5,-514.36 52,-524.36 55.5,-514.36 48.5,-514.36"/>
</g>
<!-- Node5 -->
<g id="node5" class="node">
<title>Node5</title>
<g id="a_node5"><a xlink:title="STL class.">
<polygon fill="white" stroke="#bfbfbf" points="102.5,-419.5 102.5,-476.5 203.5,-476.5 203.5,-419.5 102.5,-419.5"/>
<text text-anchor="middle" x="153" y="-464.5" font-family="Helvetica,sans-Serif" font-size="10.00">std::map&lt; K, T &gt;</text>
<polyline fill="none" stroke="#bfbfbf" points="102.5,-457.5 203.5,-457.5 "/>
<text text-anchor="middle" x="153" y="-445.5" font-family="Helvetica,sans-Serif" font-size="10.00"> </text>
<polyline fill="none" stroke="#bfbfbf" points="102.5,-438.5 203.5,-438.5 "/>
<text text-anchor="middle" x="153" y="-426.5" font-family="Helvetica,sans-Serif" font-size="10.00"> </text>
</a>
</g>
</g>
<!-- Node5&#45;&gt;Node2 -->
<g id="edge4" class="edge">
<title>Node5&#45;&gt;Node2</title>
<path fill="none" stroke="orange" d="M138.76,-410.01C134.75,-399.9 130.31,-388.99 126,-379 123.42,-373.02 120.58,-366.7 117.78,-360.62"/>
<polygon fill="orange" stroke="orange" points="135.54,-411.37 142.46,-419.39 142.05,-408.8 135.54,-411.37"/>
<text text-anchor="start" x="134" y="-393" font-family="Helvetica,sans-Serif" font-size="10.00"> &lt; std::string, std</text>
<text text-anchor="middle" x="176.5" y="-382" font-family="Helvetica,sans-Serif" font-size="10.00">::string &gt;</text>
</g>
<!-- Node6 -->
<g id="node6" class="node">
<title>Node6</title>
<g id="a_node6"><a xlink:title=" ">
<polygon fill="white" stroke="#bfbfbf" points="130.5,-530 130.5,-587 159.5,-587 159.5,-530 130.5,-530"/>
<text text-anchor="middle" x="145" y="-575" font-family="Helvetica,sans-Serif" font-size="10.00">K</text>
<polyline fill="none" stroke="#bfbfbf" points="130.5,-568 159.5,-568 "/>
<text text-anchor="middle" x="145" y="-556" font-family="Helvetica,sans-Serif" font-size="10.00"> </text>
<polyline fill="none" stroke="#bfbfbf" points="130.5,-549 159.5,-549 "/>
<text text-anchor="middle" x="145" y="-537" font-family="Helvetica,sans-Serif" font-size="10.00"> </text>
</a>
</g>
</g>
<!-- Node6&#45;&gt;Node5 -->
<g id="edge5" class="edge">
<title>Node6&#45;&gt;Node5</title>
<path fill="none" stroke="#404040" d="M144.64,-529.77C144.71,-518.91 145.05,-506.35 146,-495 146.17,-492.95 146.38,-490.86 146.61,-488.74"/>
<polygon fill="none" stroke="#404040" points="146.63,-488.56 143.44,-482.1 148.17,-476.66 151.37,-483.12 146.63,-488.56"/>
<text text-anchor="middle" x="163" y="-498" font-family="Helvetica,sans-Serif" font-size="10.00"> +keys</text>
</g>
<!-- Node7 -->
<g id="node7" class="node">
<title>Node7</title>
<g id="a_node7"><a xlink:title=" ">
<polygon fill="white" stroke="#bfbfbf" points="187.5,-530 187.5,-587 216.5,-587 216.5,-530 187.5,-530"/>
<text text-anchor="middle" x="202" y="-575" font-family="Helvetica,sans-Serif" font-size="10.00">T</text>
<polyline fill="none" stroke="#bfbfbf" points="187.5,-568 216.5,-568 "/>
<text text-anchor="middle" x="202" y="-556" font-family="Helvetica,sans-Serif" font-size="10.00"> </text>
<polyline fill="none" stroke="#bfbfbf" points="187.5,-549 216.5,-549 "/>
<text text-anchor="middle" x="202" y="-537" font-family="Helvetica,sans-Serif" font-size="10.00"> </text>
</a>
</g>
</g>
<!-- Node7&#45;&gt;Node5 -->
<g id="edge6" class="edge">
<title>Node7&#45;&gt;Node5</title>
<path fill="none" stroke="#404040" d="M193.58,-529.97C189.88,-518.91 185.18,-506.16 180,-495 178.86,-492.54 177.63,-490.05 176.34,-487.55"/>
<polygon fill="none" stroke="#404040" points="176.2,-487.29 169.81,-483.94 170.44,-476.76 176.83,-480.11 176.2,-487.29"/>
<text text-anchor="middle" x="213" y="-498" font-family="Helvetica,sans-Serif" font-size="10.00"> +elements</text>
</g>
<!-- Node8 -->
<g id="node8" class="node">
<title>Node8</title>
<g id="a_node8"><a xlink:title=" ">
<polygon fill="white" stroke="#bfbfbf" points="181.5,-298 181.5,-355 226.5,-355 226.5,-298 181.5,-298"/>
<text text-anchor="middle" x="204" y="-343" font-family="Helvetica,sans-Serif" font-size="10.00">size_t</text>
<polyline fill="none" stroke="#bfbfbf" points="181.5,-336 226.5,-336 "/>
<text text-anchor="middle" x="204" y="-324" font-family="Helvetica,sans-Serif" font-size="10.00"> </text>
<polyline fill="none" stroke="#bfbfbf" points="181.5,-317 226.5,-317 "/>
<text text-anchor="middle" x="204" y="-305" font-family="Helvetica,sans-Serif" font-size="10.00"> </text>
</a>
</g>
</g>
<!-- Node8&#45;&gt;Node1 -->
<g id="edge7" class="edge">
<title>Node8&#45;&gt;Node1</title>
<path fill="none" stroke="#404040" d="M197.02,-297.84C194.1,-286.3 190.49,-271.99 186.6,-256.57"/>
<polygon fill="none" stroke="#404040" points="186.51,-256.22 181.16,-251.38 183.57,-244.59 188.92,-249.43 186.51,-256.22"/>
<text text-anchor="middle" x="232.5" y="-266" font-family="Helvetica,sans-Serif" font-size="10.00"> #column_width_</text>
</g>
</g>
</svg>
