<?xml version="1.0" encoding="UTF-8" standalone="no"?>
<!DOCTYPE svg PUBLIC "-//W3C//DTD SVG 1.1//EN"
 "http://www.w3.org/Graphics/SVG/1.1/DTD/svg11.dtd">
<!-- Generated by graphviz version 2.43.0 (0)
 -->
<!-- Title: Ra::Core::Animation::KeyFramedValue::KeyFramedValue Pages: 1 -->
<svg width="717pt" height="208pt"
 viewBox="0.00 0.00 717.00 207.50" xmlns="http://www.w3.org/2000/svg" xmlns:xlink="http://www.w3.org/1999/xlink">
<g id="graph0" class="graph" transform="scale(1 1) rotate(0) translate(4 203.5)">
<title>Ra::Core::Animation::KeyFramedValue::KeyFramedValue</title>
<!-- Node1 -->
<g id="Node000001" class="node">
<title>Node1</title>
<g id="a_Node000001"><a xlink:title=" ">
<polygon fill="#999999" stroke="#666666" points="165,-104 0,-104 0,-63 165,-63 165,-104"/>
<text text-anchor="start" x="8" y="-92" font-family="Helvetica,sans-Serif" font-size="10.00">Ra::Core::Animation</text>
<text text-anchor="start" x="8" y="-81" font-family="Helvetica,sans-Serif" font-size="10.00">::KeyFramedValue::KeyFramed</text>
<text text-anchor="middle" x="82.5" y="-70" font-family="Helvetica,sans-Serif" font-size="10.00">Value</text>
</a>
</g>
</g>
<!-- Node2 -->
<g id="Node000002" class="node">
<title>Node2</title>
<g id="a_Node000002"><a xlink:href="classRa_1_1Core_1_1Animation_1_1KeyFramedValue.html#a7607a8855a37987dc11a5aa826c8a236" target="_top" xlink:title=" ">
<polygon fill="white" stroke="#666666" points="357,-104 201,-104 201,-63 357,-63 357,-104"/>
<text text-anchor="start" x="209" y="-92" font-family="Helvetica,sans-Serif" font-size="10.00">Ra::Core::Animation</text>
<text text-anchor="start" x="209" y="-81" font-family="Helvetica,sans-Serif" font-size="10.00">::KeyFramedValue::insertKey</text>
<text text-anchor="middle" x="279" y="-70" font-family="Helvetica,sans-Serif" font-size="10.00">Frame</text>
</a>
</g>
</g>
<!-- Node1&#45;&gt;Node2 -->
<g id="edge1_Node000001_Node000002" class="edge">
<title>Node1&#45;&gt;Node2</title>
<g id="a_edge1_Node000001_Node000002"><a xlink:title=" ">
<path fill="none" stroke="#63b8ff" d="M165.14,-83.5C173.66,-83.5 182.34,-83.5 190.92,-83.5"/>
<polygon fill="#63b8ff" stroke="#63b8ff" points="190.92,-87 200.92,-83.5 190.92,-80 190.92,-87"/>
</a>
</g>
</g>
<!-- Node3 -->
<g id="Node000003" class="node">
<title>Node3</title>
<g id="a_Node000003"><a xlink:href="namespaceRa_1_1Core_1_1Math.html#a46540d56930b4c1ff3b115872cde4893" target="_top" xlink:title="Compare two numbers such that |x&#45;y| &lt; espilon*epsilonBoostFactor.">
<polygon fill="white" stroke="#666666" points="538,-178.5 393,-178.5 393,-148.5 538,-148.5 538,-178.5"/>
<text text-anchor="start" x="401" y="-166.5" font-family="Helvetica,sans-Serif" font-size="10.00">Ra::Core::Math::areApprox</text>
<text text-anchor="middle" x="465.5" y="-155.5" font-family="Helvetica,sans-Serif" font-size="10.00">Equal</text>
</a>
</g>
</g>
<!-- Node2&#45;&gt;Node3 -->
<g id="edge2_Node000002_Node000003" class="edge">
<title>Node2&#45;&gt;Node3</title>
<g id="a_edge2_Node000002_Node000003"><a xlink:title=" ">
<path fill="none" stroke="#63b8ff" d="M319.49,-104.12C340.95,-114.97 368.13,-128.14 393,-138.5 398.16,-140.65 403.58,-142.77 409.02,-144.82"/>
<polygon fill="#63b8ff" stroke="#63b8ff" points="408.22,-148.25 418.81,-148.42 410.63,-141.68 408.22,-148.25"/>
</a>
</g>
</g>
<!-- Node6 -->
<g id="Node000006" class="node">
<title>Node6</title>
<g id="a_Node000006"><a target="_blank" xlink:href="http://en.cppreference.com/w/cpp/container/vector/begin.html#" xlink:title=" ">
<polygon fill="white" stroke="#666666" points="516,-130 415,-130 415,-111 516,-111 516,-130"/>
<text text-anchor="middle" x="465.5" y="-118" font-family="Helvetica,sans-Serif" font-size="10.00">std::vector::begin</text>
</a>
</g>
</g>
<!-- Node2&#45;&gt;Node6 -->
<g id="edge5_Node000002_Node000006" class="edge">
<title>Node2&#45;&gt;Node6</title>
<g id="a_edge5_Node000002_Node000006"><a xlink:title=" ">
<path fill="none" stroke="#63b8ff" d="M357.18,-98.98C373.86,-102.32 391.22,-105.81 407,-108.97"/>
<polygon fill="#63b8ff" stroke="#63b8ff" points="406.62,-112.46 417.11,-111 408,-105.6 406.62,-112.46"/>
</a>
</g>
</g>
<!-- Node7 -->
<g id="Node000007" class="node">
<title>Node7</title>
<g id="a_Node000007"><a target="_blank" xlink:href="http://en.cppreference.com/w/cpp/container/vector/end.html#" xlink:title=" ">
<polygon fill="white" stroke="#666666" points="511.5,-93 419.5,-93 419.5,-74 511.5,-74 511.5,-93"/>
<text text-anchor="middle" x="465.5" y="-81" font-family="Helvetica,sans-Serif" font-size="10.00">std::vector::end</text>
</a>
</g>
</g>
<!-- Node2&#45;&gt;Node7 -->
<g id="edge6_Node000002_Node000007" class="edge">
<title>Node2&#45;&gt;Node7</title>
<g id="a_edge6_Node000002_Node000007"><a xlink:title=" ">
<path fill="none" stroke="#63b8ff" d="M357.18,-83.5C374.59,-83.5 392.74,-83.5 409.06,-83.5"/>
<polygon fill="#63b8ff" stroke="#63b8ff" points="409.49,-87 419.49,-83.5 409.49,-80 409.49,-87"/>
</a>
</g>
</g>
<!-- Node8 -->
<g id="Node000008" class="node">
<title>Node8</title>
<g id="a_Node000008"><a target="_blank" xlink:href="http://en.cppreference.com/w/cpp/container/vector/insert.html#" xlink:title=" ">
<polygon fill="white" stroke="#666666" points="516.5,-56 414.5,-56 414.5,-37 516.5,-37 516.5,-56"/>
<text text-anchor="middle" x="465.5" y="-44" font-family="Helvetica,sans-Serif" font-size="10.00">std::vector::insert</text>
</a>
</g>
</g>
<!-- Node2&#45;&gt;Node8 -->
<g id="edge7_Node000002_Node000008" class="edge">
<title>Node2&#45;&gt;Node8</title>
<g id="a_edge7_Node000002_Node000008"><a xlink:title=" ">
<path fill="none" stroke="#63b8ff" d="M357.18,-68.02C373.86,-64.68 391.22,-61.19 407,-58.03"/>
<polygon fill="#63b8ff" stroke="#63b8ff" points="408,-61.4 417.11,-56 406.62,-54.54 408,-61.4"/>
</a>
</g>
</g>
<!-- Node9 -->
<g id="Node000009" class="node">
<title>Node9</title>
<g id="a_Node000009"><a target="_blank" xlink:href="http://en.cppreference.com/w/cpp/algorithm/upper_bound.html#" xlink:title=" ">
<polygon fill="white" stroke="#666666" points="516,-19 415,-19 415,0 516,0 516,-19"/>
<text text-anchor="middle" x="465.5" y="-7" font-family="Helvetica,sans-Serif" font-size="10.00">std::upper_bound</text>
</a>
</g>
</g>
<!-- Node2&#45;&gt;Node9 -->
<g id="edge8_Node000002_Node000009" class="edge">
<title>Node2&#45;&gt;Node9</title>
<g id="a_edge8_Node000002_Node000009"><a xlink:title=" ">
<path fill="none" stroke="#63b8ff" d="M316.53,-62.91C338.24,-51.31 366.6,-37.24 393,-27.5 398.54,-25.46 404.4,-23.57 410.3,-21.84"/>
<polygon fill="#63b8ff" stroke="#63b8ff" points="411.49,-25.14 420.19,-19.09 409.61,-18.39 411.49,-25.14"/>
</a>
</g>
</g>
<!-- Node4 -->
<g id="Node000004" class="node">
<title>Node4</title>
<g id="a_Node000004"><a target="_blank" xlink:href="http://en.cppreference.com/w/cpp/types/numeric_limits/epsilon.html#" xlink:title=" ">
<polygon fill="white" stroke="#666666" points="696.5,-199.5 586.5,-199.5 586.5,-169.5 696.5,-169.5 696.5,-199.5"/>
<text text-anchor="start" x="594.5" y="-187.5" font-family="Helvetica,sans-Serif" font-size="10.00">std::numeric_limits</text>
<text text-anchor="middle" x="641.5" y="-176.5" font-family="Helvetica,sans-Serif" font-size="10.00">::epsilon</text>
</a>
</g>
</g>
<!-- Node3&#45;&gt;Node4 -->
<g id="edge3_Node000003_Node000004" class="edge">
<title>Node3&#45;&gt;Node4</title>
<g id="a_edge3_Node000003_Node000004"><a xlink:title=" ">
<path fill="none" stroke="#63b8ff" d="M538.03,-172.13C550.62,-173.65 563.66,-175.23 576.05,-176.72"/>
<polygon fill="#63b8ff" stroke="#63b8ff" points="575.93,-180.23 586.28,-177.96 576.77,-173.28 575.93,-180.23"/>
</a>
</g>
</g>
<!-- Node5 -->
<g id="Node000005" class="node">
<title>Node5</title>
<g id="a_Node000005"><a target="_blank" xlink:href="http://en.cppreference.com/w/cpp/types/numeric_limits/min.html#" xlink:title=" ">
<polygon fill="white" stroke="#666666" points="709,-151 574,-151 574,-132 709,-132 709,-151"/>
<text text-anchor="middle" x="641.5" y="-139" font-family="Helvetica,sans-Serif" font-size="10.00">std::numeric_limits::min</text>
</a>
</g>
</g>
<!-- Node3&#45;&gt;Node5 -->
<g id="edge4_Node000003_Node000005" class="edge">
<title>Node3&#45;&gt;Node5</title>
<g id="a_edge4_Node000003_Node000005"><a xlink:title=" ">
<path fill="none" stroke="#63b8ff" d="M538.03,-154.46C546.51,-153.38 555.21,-152.28 563.76,-151.2"/>
<polygon fill="#63b8ff" stroke="#63b8ff" points="564.25,-154.67 573.73,-149.94 563.37,-147.72 564.25,-154.67"/>
</a>
</g>
</g>
</g>
</svg>
