<?xml version="1.0" encoding="UTF-8" standalone="no"?>
<!DOCTYPE svg PUBLIC "-//W3C//DTD SVG 1.1//EN"
 "http://www.w3.org/Graphics/SVG/1.1/DTD/svg11.dtd">
<!-- Generated by graphviz version 2.43.0 (0)
 -->
<!-- Title: Ra::Engine::Data::ShaderProgramManager::addShaderProgram Pages: 1 -->
<svg width="557pt" height="170pt"
 viewBox="0.00 0.00 557.00 170.00" xmlns="http://www.w3.org/2000/svg" xmlns:xlink="http://www.w3.org/1999/xlink">
<g id="graph0" class="graph" transform="scale(1 1) rotate(0) translate(4 166)">
<title>Ra::Engine::Data::ShaderProgramManager::addShaderProgram</title>
<!-- Node1 -->
<g id="Node000001" class="node">
<title>Node1</title>
<g id="a_Node000001"><a xlink:title=" ">
<polygon fill="#999999" stroke="#666666" points="200,-83.5 0,-83.5 0,-53.5 200,-53.5 200,-83.5"/>
<text text-anchor="start" x="8" y="-71.5" font-family="Helvetica,sans-Serif" font-size="10.00">Ra::Engine::Data::Shader</text>
<text text-anchor="middle" x="100" y="-60.5" font-family="Helvetica,sans-Serif" font-size="10.00">ProgramManager::addShaderProgram</text>
</a>
</g>
</g>
<!-- Node2 -->
<g id="Node000002" class="node">
<title>Node2</title>
<g id="a_Node000002"><a xlink:href="classRa_1_1Engine_1_1Data_1_1ShaderProgramManager.html#ae775537f28c1b2f538babc04d315d494" target="_top" xlink:title=" ">
<polygon fill="white" stroke="#666666" points="424,-105.5 236,-105.5 236,-75.5 424,-75.5 424,-105.5"/>
<text text-anchor="start" x="244" y="-93.5" font-family="Helvetica,sans-Serif" font-size="10.00">Ra::Engine::Data::Shader</text>
<text text-anchor="middle" x="330" y="-82.5" font-family="Helvetica,sans-Serif" font-size="10.00">ProgramManager::addNamedString</text>
</a>
</g>
</g>
<!-- Node1&#45;&gt;Node2 -->
<g id="edge1_Node000001_Node000002" class="edge">
<title>Node1&#45;&gt;Node2</title>
<g id="a_edge1_Node000001_Node000002"><a xlink:title=" ">
<path fill="none" stroke="#63b8ff" d="M200.01,-78.05C208.56,-78.88 217.23,-79.71 225.81,-80.54"/>
<polygon fill="#63b8ff" stroke="#63b8ff" points="225.55,-84.03 235.84,-81.51 226.22,-77.07 225.55,-84.03"/>
</a>
</g>
</g>
<!-- Node3 -->
<g id="Node000003" class="node">
<title>Node3</title>
<g id="a_Node000003"><a target="_blank" xlink:href="http://en.cppreference.com/w/cpp/container/map/end.html#" xlink:title=" ">
<polygon fill="white" stroke="#666666" points="546,-162 463,-162 463,-143 546,-143 546,-162"/>
<text text-anchor="middle" x="504.5" y="-150" font-family="Helvetica,sans-Serif" font-size="10.00">std::map::end</text>
</a>
</g>
</g>
<!-- Node1&#45;&gt;Node3 -->
<g id="edge7_Node000001_Node000003" class="edge">
<title>Node1&#45;&gt;Node3</title>
<g id="a_edge7_Node000001_Node000003"><a xlink:title=" ">
<path fill="none" stroke="#63b8ff" d="M138.84,-83.53C165.6,-93.62 202.53,-106.49 236,-114.5 310.36,-132.28 398.47,-142.83 452.68,-148.14"/>
<polygon fill="#63b8ff" stroke="#63b8ff" points="452.43,-151.63 462.72,-149.1 453.1,-144.66 452.43,-151.63"/>
</a>
</g>
</g>
<!-- Node4 -->
<g id="Node000004" class="node">
<title>Node4</title>
<g id="a_Node000004"><a target="_blank" xlink:href="http://en.cppreference.com/w/cpp/container/map/find.html#" xlink:title=" ">
<polygon fill="white" stroke="#666666" points="546,-51 463,-51 463,-32 546,-32 546,-51"/>
<text text-anchor="middle" x="504.5" y="-39" font-family="Helvetica,sans-Serif" font-size="10.00">std::map::find</text>
</a>
</g>
</g>
<!-- Node1&#45;&gt;Node4 -->
<g id="edge8_Node000001_Node000004" class="edge">
<title>Node1&#45;&gt;Node4</title>
<g id="a_edge8_Node000001_Node000004"><a xlink:title=" ">
<path fill="none" stroke="#63b8ff" d="M200.24,-61.84C280.28,-56.47 389.59,-49.14 452.76,-44.9"/>
<polygon fill="#63b8ff" stroke="#63b8ff" points="453.12,-48.39 462.87,-44.23 452.66,-41.4 453.12,-48.39"/>
</a>
</g>
</g>
<!-- Node7 -->
<g id="Node000007" class="node">
<title>Node7</title>
<g id="a_Node000007"><a target="_blank" xlink:href="http://en.cppreference.com/w/cpp/string/basic_string/c_str.html#" xlink:title=" ">
<polygon fill="white" stroke="#666666" points="377.5,-19 282.5,-19 282.5,0 377.5,0 377.5,-19"/>
<text text-anchor="middle" x="330" y="-7" font-family="Helvetica,sans-Serif" font-size="10.00">std::string::c_str</text>
</a>
</g>
</g>
<!-- Node1&#45;&gt;Node7 -->
<g id="edge6_Node000001_Node000007" class="edge">
<title>Node1&#45;&gt;Node7</title>
<g id="a_edge6_Node000001_Node000007"><a xlink:title=" ">
<path fill="none" stroke="#63b8ff" d="M158.81,-53.5C182.7,-47.3 210.68,-40.05 236,-33.5 250.95,-29.63 267.26,-25.42 281.98,-21.62"/>
<polygon fill="#63b8ff" stroke="#63b8ff" points="283.08,-24.95 291.89,-19.07 281.33,-18.18 283.08,-24.95"/>
</a>
</g>
</g>
<!-- Node2&#45;&gt;Node3 -->
<g id="edge2_Node000002_Node000003" class="edge">
<title>Node2&#45;&gt;Node3</title>
<g id="a_edge2_Node000002_Node000003"><a xlink:title=" ">
<path fill="none" stroke="#63b8ff" d="M372.76,-105.51C401.62,-115.88 439.63,-129.55 467.23,-139.46"/>
<polygon fill="#63b8ff" stroke="#63b8ff" points="466.29,-142.85 476.89,-142.93 468.66,-136.26 466.29,-142.85"/>
</a>
</g>
</g>
<!-- Node2&#45;&gt;Node4 -->
<g id="edge3_Node000002_Node000004" class="edge">
<title>Node2&#45;&gt;Node4</title>
<g id="a_edge3_Node000002_Node000004"><a xlink:title=" ">
<path fill="none" stroke="#63b8ff" d="M384.16,-75.4C408.57,-68.47 437.14,-60.35 460.2,-53.8"/>
<polygon fill="#63b8ff" stroke="#63b8ff" points="461.39,-57.1 470.05,-51 459.47,-50.37 461.39,-57.1"/>
</a>
</g>
</g>
<!-- Node5 -->
<g id="Node000005" class="node">
<title>Node5</title>
<g id="a_Node000005"><a target="_blank" xlink:href="http://en.cppreference.com/w/cpp/utility/pair/make_pair.html#" xlink:title=" ">
<polygon fill="white" stroke="#666666" points="549,-125 460,-125 460,-106 549,-106 549,-125"/>
<text text-anchor="middle" x="504.5" y="-113" font-family="Helvetica,sans-Serif" font-size="10.00">std::make_pair</text>
</a>
</g>
</g>
<!-- Node2&#45;&gt;Node5 -->
<g id="edge4_Node000002_Node000005" class="edge">
<title>Node2&#45;&gt;Node5</title>
<g id="a_edge4_Node000002_Node000005"><a xlink:title=" ">
<path fill="none" stroke="#63b8ff" d="M424.07,-103.99C432.79,-105.25 441.43,-106.5 449.61,-107.69"/>
<polygon fill="#63b8ff" stroke="#63b8ff" points="449.3,-111.18 459.7,-109.15 450.3,-104.25 449.3,-111.18"/>
</a>
</g>
</g>
<!-- Node6 -->
<g id="Node000006" class="node">
<title>Node6</title>
<g id="a_Node000006"><a target="_blank" xlink:href="http://en.cppreference.com/w/cpp/utility/move.html#" xlink:title=" ">
<polygon fill="white" stroke="#666666" points="537,-88 472,-88 472,-69 537,-69 537,-88"/>
<text text-anchor="middle" x="504.5" y="-76" font-family="Helvetica,sans-Serif" font-size="10.00">std::move</text>
</a>
</g>
</g>
<!-- Node2&#45;&gt;Node6 -->
<g id="edge5_Node000002_Node000006" class="edge">
<title>Node2&#45;&gt;Node6</title>
<g id="a_edge5_Node000002_Node000006"><a xlink:title=" ">
<path fill="none" stroke="#63b8ff" d="M424.07,-84.03C437.22,-83.11 450.17,-82.21 461.67,-81.41"/>
<polygon fill="#63b8ff" stroke="#63b8ff" points="462.05,-84.89 471.78,-80.71 461.56,-77.91 462.05,-84.89"/>
</a>
</g>
</g>
</g>
</svg>
