<?xml version="1.0" encoding="UTF-8" standalone="no"?>
<!DOCTYPE svg PUBLIC "-//W3C//DTD SVG 1.1//EN"
 "http://www.w3.org/Graphics/SVG/1.1/DTD/svg11.dtd">
<!-- Generated by graphviz version 2.43.0 (0)
 -->
<!-- Title: Ra::Headless::CLIViewer::init Pages: 1 -->
<!--zoomable 350 -->

<svg id="main" version="1.1" xmlns="http://www.w3.org/2000/svg" xmlns:xlink="http://www.w3.org/1999/xlink" xml:space="preserve" onload="init(evt)">
<style type="text/css"><![CDATA[
.node, .edge {opacity: 0.7;}
.node.selected, .edge.selected {opacity: 1;}
.edge:hover path { stroke: red; }
.edge:hover polygon { stroke: red; fill: red; }
]]></style>

<defs>
  <circle id="rim" cx="0" cy="0" r="7"/>
  <circle id="rim2" cx="0" cy="0" r="3.5"/>
  <g id="zoomPlus">
    <use xlink:href="#rim" fill="#404040"><set attributeName="fill" to="#808080" begin="zoomplus.mouseover" end="zoomplus.mouseout"/></use>
    <path d="M-4,0h8M0,-4v8" fill="none" stroke="white" stroke-width="1.5" pointer-events="none"/>
  </g>
  <g id="zoomMin">
    <use xlink:href="#rim" fill="#404040"><set attributeName="fill" to="#808080" begin="zoomminus.mouseover" end="zoomminus.mouseout"/></use>
    <path d="M-4,0h8" fill="none" stroke="white" stroke-width="1.5" pointer-events="none"/>
  </g>
  <g id="arrowUp" transform="translate(30 24)">
    <use xlink:href="#rim"/>
    <path pointer-events="none" fill="none" stroke="white" stroke-width="1.5" d="M0,-3.0v7 M-2.5,-0.5L0,-3.0L2.5,-0.5"/>
  </g>
  <g id="arrowRight" transform="rotate(90) translate(36 -43)">
    <use xlink:href="#rim"/>
    <path pointer-events="none" fill="none" stroke="white" stroke-width="1.5" d="M0,-3.0v7 M-2.5,-0.5L0,-3.0L2.5,-0.5"/>
  </g>
  <g id="arrowDown" transform="rotate(180) translate(-30 -48)">
    <use xlink:href="#rim"/>
    <path pointer-events="none" fill="none" stroke="white" stroke-width="1.5" d="M0,-3.0v7 M-2.5,-0.5L0,-3.0L2.5,-0.5"/>
  </g>
  <g id="arrowLeft" transform="rotate(270) translate(-36 17)">
    <use xlink:href="#rim"/>
    <path pointer-events="none" fill="none" stroke="white" stroke-width="1.5" d="M0,-3.0v7 M-2.5,-0.5L0,-3.0L2.5,-0.5"/>
  </g>
  <g id="resetDef">
    <use xlink:href="#rim2" fill="#404040"><set attributeName="fill" to="#808080" begin="reset.mouseover" end="reset.mouseout"/></use>
  </g>
</defs>
<script type="application/ecmascript">
var viewWidth = 747;
var viewHeight = 350;
var sectionId = 'dynsection-7';
</script>
<script type="application/ecmascript" xlink:href="svg.min.js"/>
<svg id="graph" class="graph">
<g id="viewport">
<title>Ra::Headless::CLIViewer::init</title>
<!-- Node1 -->
<g id="Node000001" class="node">
<title>Node1</title>
<g id="a_Node000001"><a xlink:title="Application initialization method.">
<polygon fill="#999999" stroke="#666666" points="135,-233 0,-233 0,-203 135,-203 135,-233"/>
<text text-anchor="start" x="8" y="-221" font-family="Helvetica,sans-Serif" font-size="10.00">Ra::Headless::CLIViewer</text>
<text text-anchor="middle" x="67.5" y="-210" font-family="Helvetica,sans-Serif" font-size="10.00">::init</text>
</a>
</g>
</g>
<!-- Node2 -->
<g id="Node000002" class="node">
<title>Node2</title>
<g id="a_Node000002"><a xlink:href="classRa_1_1Headless_1_1CLIBaseApplication.html#a0e897989bba7eefb0fc399ae5285cb85" target="_top" xlink:title=" ">
<polygon fill="white" stroke="#666666" points="351,-329 171,-329 171,-299 351,-299 351,-329"/>
<text text-anchor="start" x="179" y="-317" font-family="Helvetica,sans-Serif" font-size="10.00">Ra::Headless::CLIBaseApplication</text>
<text text-anchor="middle" x="261" y="-306" font-family="Helvetica,sans-Serif" font-size="10.00">::init</text>
</a>
</g>
</g>
<!-- Node1&#45;&gt;Node2 -->
<g id="edge1_Node000001_Node000002" class="edge">
<title>Node1&#45;&gt;Node2</title>
<g id="a_edge1_Node000001_Node000002"><a xlink:title=" ">
<path fill="none" stroke="#63b8ff" d="M85.83,-233.06C105.32,-249.27 138.5,-274.79 171,-290 175.3,-292.01 179.8,-293.88 184.4,-295.62"/>
<polygon fill="#63b8ff" stroke="#63b8ff" points="183.34,-298.95 193.94,-298.98 185.67,-292.35 183.34,-298.95"/>
</a>
</g>
</g>
<!-- Node3 -->
<g id="Node000003" class="node">
<title>Node3</title>
<g id="a_Node000003"><a xlink:href="classRa_1_1Engine_1_1RadiumEngine.html#a8d2085dbc31206d0bbdfc6014d247471" target="_top" xlink:title=" ">
<polygon fill="white" stroke="#666666" points="333.5,-281 188.5,-281 188.5,-251 333.5,-251 333.5,-281"/>
<text text-anchor="start" x="196.5" y="-269" font-family="Helvetica,sans-Serif" font-size="10.00">Ra::Engine::RadiumEngine</text>
<text text-anchor="middle" x="261" y="-258" font-family="Helvetica,sans-Serif" font-size="10.00">::initialize</text>
</a>
</g>
</g>
<!-- Node1&#45;&gt;Node3 -->
<g id="edge2_Node000001_Node000003" class="edge">
<title>Node1&#45;&gt;Node3</title>
<g id="a_edge2_Node000001_Node000003"><a xlink:title=" ">
<path fill="none" stroke="#63b8ff" d="M128.57,-233.06C148.17,-237.97 170.11,-243.47 190.36,-248.54"/>
<polygon fill="#63b8ff" stroke="#63b8ff" points="189.6,-251.96 200.15,-251 191.3,-245.17 189.6,-251.96"/>
</a>
</g>
</g>
<!-- Node6 -->
<g id="Node000006" class="node">
<title>Node6</title>
<g id="a_Node000006"><a xlink:href="classRa_1_1Engine_1_1RadiumEngine.html#af02fbe3c4fa7e24f878b0b5d32e760ff" target="_top" xlink:title=" ">
<polygon fill="white" stroke="#666666" points="333.5,-233 188.5,-233 188.5,-203 333.5,-203 333.5,-233"/>
<text text-anchor="start" x="196.5" y="-221" font-family="Helvetica,sans-Serif" font-size="10.00">Ra::Engine::RadiumEngine</text>
<text text-anchor="middle" x="261" y="-210" font-family="Helvetica,sans-Serif" font-size="10.00">::initializeGL</text>
</a>
</g>
</g>
<!-- Node1&#45;&gt;Node6 -->
<g id="edge6_Node000001_Node000006" class="edge">
<title>Node1&#45;&gt;Node6</title>
<g id="a_edge6_Node000001_Node000006"><a xlink:title=" ">
<path fill="none" stroke="#63b8ff" d="M135.21,-218C149.02,-218 163.72,-218 178,-218"/>
<polygon fill="#63b8ff" stroke="#63b8ff" points="178.31,-221.5 188.31,-218 178.31,-214.5 178.31,-221.5"/>
</a>
</g>
</g>
<!-- Node9 -->
<g id="Node000009" class="node">
<title>Node9</title>
<g id="a_Node000009"><a xlink:href="classRa_1_1Engine_1_1RadiumEngine.html#af93db44814bf4448267f84b8002c9d4d" target="_top" xlink:title=" ">
<polygon fill="white" stroke="#666666" points="333.5,-171 188.5,-171 188.5,-141 333.5,-141 333.5,-171"/>
<text text-anchor="start" x="196.5" y="-159" font-family="Helvetica,sans-Serif" font-size="10.00">Ra::Engine::RadiumEngine</text>
<text text-anchor="middle" x="261" y="-148" font-family="Helvetica,sans-Serif" font-size="10.00">::registerSystem</text>
</a>
</g>
</g>
<!-- Node1&#45;&gt;Node9 -->
<g id="edge9_Node000001_Node000009" class="edge">
<title>Node1&#45;&gt;Node9</title>
<g id="a_edge9_Node000001_Node000009"><a xlink:title=" ">
<path fill="none" stroke="#63b8ff" d="M114.86,-202.99C141.59,-194.34 175.4,-183.39 203.66,-174.24"/>
<polygon fill="#63b8ff" stroke="#63b8ff" points="204.97,-177.5 213.41,-171.09 202.81,-170.84 204.97,-177.5"/>
</a>
</g>
</g>
<!-- Node13 -->
<g id="Node000013" class="node">
<title>Node13</title>
<g id="a_Node000013"><a xlink:href="classRa_1_1Headless_1_1CLIViewer.html#aab5af7cd39e98fe6f423903abf7c42db" target="_top" xlink:title="Observer of the resize event on the OpenGLContext.">
<polygon fill="white" stroke="#666666" points="328.5,-78 193.5,-78 193.5,-48 328.5,-48 328.5,-78"/>
<text text-anchor="start" x="201.5" y="-66" font-family="Helvetica,sans-Serif" font-size="10.00">Ra::Headless::CLIViewer</text>
<text text-anchor="middle" x="261" y="-55" font-family="Helvetica,sans-Serif" font-size="10.00">::resize</text>
</a>
</g>
</g>
<!-- Node1&#45;&gt;Node13 -->
<g id="edge13_Node000001_Node000013" class="edge">
<title>Node1&#45;&gt;Node13</title>
<g id="a_edge13_Node000001_Node000013"><a xlink:title=" ">
<path fill="none" stroke="#63b8ff" d="M86.1,-202.88C106.39,-185.53 140.81,-156.36 171,-132 191.14,-115.75 214.24,-97.87 231.86,-84.37"/>
<polygon fill="#63b8ff" stroke="#63b8ff" points="234.21,-86.98 240.03,-78.13 229.96,-81.42 234.21,-86.98"/>
</a>
</g>
</g>
<!-- Node4 -->
<g id="Node000004" class="node">
<title>Node4</title>
<g id="a_Node000004"><a xlink:href="namespaceRa_1_1Core_1_1Resources.html#af434c5b44164970395428b4a00e7729c" target="_top" xlink:title="Get the path of Radium internal resources.">
<polygon fill="white" stroke="#666666" points="548.5,-324 401.5,-324 401.5,-294 548.5,-294 548.5,-324"/>
<text text-anchor="start" x="409.5" y="-312" font-family="Helvetica,sans-Serif" font-size="10.00">Ra::Core::Resources</text>
<text text-anchor="middle" x="475" y="-301" font-family="Helvetica,sans-Serif" font-size="10.00">::getRadiumResourcesPath</text>
</a>
</g>
</g>
<!-- Node3&#45;&gt;Node4 -->
<g id="edge3_Node000003_Node000004" class="edge">
<title>Node3&#45;&gt;Node4</title>
<g id="a_edge3_Node000003_Node000004"><a xlink:title=" ">
<path fill="none" stroke="#63b8ff" d="M333.77,-280.56C352.29,-284.31 372.36,-288.39 391.38,-292.24"/>
<polygon fill="#63b8ff" stroke="#63b8ff" points="390.72,-295.68 401.22,-294.24 392.11,-288.82 390.72,-295.68"/>
</a>
</g>
</g>
<!-- Node5 -->
<g id="Node000005" class="node">
<title>Node5</title>
<g id="a_Node000005"><a target="_blank" xlink:href="http://en.cppreference.com/w/cpp/memory/unique_ptr/reset.html#" xlink:title=" ">
<polygon fill="white" stroke="#666666" points="535,-275.5 415,-275.5 415,-256.5 535,-256.5 535,-275.5"/>
<text text-anchor="middle" x="475" y="-263.5" font-family="Helvetica,sans-Serif" font-size="10.00">std::unique_ptr::reset</text>
</a>
</g>
</g>
<!-- Node3&#45;&gt;Node5 -->
<g id="edge5_Node000003_Node000005" class="edge">
<title>Node3&#45;&gt;Node5</title>
<g id="a_edge5_Node000003_Node000005"><a xlink:title=" ">
<path fill="none" stroke="#63b8ff" d="M333.77,-266C356.69,-266 382,-266 404.73,-266"/>
<polygon fill="#63b8ff" stroke="#63b8ff" points="404.98,-269.5 414.98,-266 404.98,-262.5 404.98,-269.5"/>
</a>
</g>
</g>
<!-- Node4&#45;&gt;Node4 -->
<g id="edge4_Node000004_Node000004" class="edge">
<title>Node4&#45;&gt;Node4</title>
<g id="a_edge4_Node000004_Node000004"><a xlink:title=" ">
<path fill="none" stroke="#63b8ff" d="M440.9,-324.28C433.32,-333.41 444.69,-342 475,-342 493,-342 504.32,-338.97 508.96,-334.6"/>
<polygon fill="#63b8ff" stroke="#63b8ff" points="512.46,-334.32 509.1,-324.28 505.46,-334.23 512.46,-334.32"/>
</a>
</g>
</g>
<!-- Node7 -->
<g id="Node000007" class="node">
<title>Node7</title>
<g id="a_Node000007"><a xlink:href="classRa_1_1Engine_1_1Data_1_1ShaderConfiguration.html#a0d02d435bcfec498a22fc2b0beb9494f" target="_top" xlink:title="set the OpenGL version to use in the generated header for shaders.">
<polygon fill="white" stroke="#666666" points="563,-238 387,-238 387,-208 563,-208 563,-238"/>
<text text-anchor="start" x="395" y="-226" font-family="Helvetica,sans-Serif" font-size="10.00">Ra::Engine::Data::Shader</text>
<text text-anchor="middle" x="475" y="-215" font-family="Helvetica,sans-Serif" font-size="10.00">Configuration::setOpenGLVersion</text>
</a>
</g>
</g>
<!-- Node6&#45;&gt;Node7 -->
<g id="edge7_Node000006_Node000007" class="edge">
<title>Node6&#45;&gt;Node7</title>
<g id="a_edge7_Node000006_Node000007"><a xlink:title=" ">
<path fill="none" stroke="#63b8ff" d="M333.77,-219.69C347.5,-220.02 362.08,-220.36 376.46,-220.7"/>
<polygon fill="#63b8ff" stroke="#63b8ff" points="376.79,-224.21 386.87,-220.95 376.96,-217.21 376.79,-224.21"/>
</a>
</g>
</g>
<!-- Node8 -->
<g id="Node000008" class="node">
<title>Node8</title>
<g id="a_Node000008"><a target="_blank" xlink:href="http://en.cppreference.com/w/cpp/container/map/find.html#" xlink:title=" ">
<polygon fill="white" stroke="#666666" points="710.5,-232.5 627.5,-232.5 627.5,-213.5 710.5,-213.5 710.5,-232.5"/>
<text text-anchor="middle" x="669" y="-220.5" font-family="Helvetica,sans-Serif" font-size="10.00">std::map::find</text>
</a>
</g>
</g>
<!-- Node7&#45;&gt;Node8 -->
<g id="edge8_Node000007_Node000008" class="edge">
<title>Node7&#45;&gt;Node8</title>
<g id="a_edge8_Node000007_Node000008"><a xlink:title=" ">
<path fill="none" stroke="#63b8ff" d="M563.01,-223C581.58,-223 600.6,-223 617.27,-223"/>
<polygon fill="#63b8ff" stroke="#63b8ff" points="617.31,-226.5 627.31,-223 617.31,-219.5 617.31,-226.5"/>
</a>
</g>
</g>
<!-- Node10 -->
<g id="Node000010" class="node">
<title>Node10</title>
<g id="a_Node000010"><a target="_blank" xlink:href="http://en.cppreference.com/w/cpp/string/basic_string/c_str.html#" xlink:title=" ">
<polygon fill="white" stroke="#666666" points="522.5,-189.5 427.5,-189.5 427.5,-170.5 522.5,-170.5 522.5,-189.5"/>
<text text-anchor="middle" x="475" y="-177.5" font-family="Helvetica,sans-Serif" font-size="10.00">std::string::c_str</text>
</a>
</g>
</g>
<!-- Node9&#45;&gt;Node10 -->
<g id="edge10_Node000009_Node000010" class="edge">
<title>Node9&#45;&gt;Node10</title>
<g id="a_edge10_Node000009_Node000010"><a xlink:title=" ">
<path fill="none" stroke="#63b8ff" d="M333.77,-164.13C361.03,-167.21 391.66,-170.68 417.33,-173.58"/>
<polygon fill="#63b8ff" stroke="#63b8ff" points="416.94,-177.06 427.27,-174.71 417.73,-170.11 416.94,-177.06"/>
</a>
</g>
</g>
<!-- Node11 -->
<g id="Node000011" class="node">
<title>Node11</title>
<g id="a_Node000011"><a target="_blank" xlink:href="http://en.cppreference.com/w/cpp/container/map/end.html#" xlink:title=" ">
<polygon fill="white" stroke="#666666" points="516.5,-152.5 433.5,-152.5 433.5,-133.5 516.5,-133.5 516.5,-152.5"/>
<text text-anchor="middle" x="475" y="-140.5" font-family="Helvetica,sans-Serif" font-size="10.00">std::map::end</text>
</a>
</g>
</g>
<!-- Node9&#45;&gt;Node11 -->
<g id="edge11_Node000009_Node000011" class="edge">
<title>Node9&#45;&gt;Node11</title>
<g id="a_edge11_Node000009_Node000011"><a xlink:title=" ">
<path fill="none" stroke="#63b8ff" d="M333.77,-151.6C363.04,-149.8 396.21,-147.77 422.94,-146.13"/>
<polygon fill="#63b8ff" stroke="#63b8ff" points="423.45,-149.61 433.22,-145.5 423.02,-142.62 423.45,-149.61"/>
</a>
</g>
</g>
<!-- Node12 -->
<g id="Node000012" class="node">
<title>Node12</title>
<g id="a_Node000012"><a target="_blank" xlink:href="http://en.cppreference.com/w/cpp/utility/pair/make_pair.html#" xlink:title=" ">
<polygon fill="white" stroke="#666666" points="519.5,-115.5 430.5,-115.5 430.5,-96.5 519.5,-96.5 519.5,-115.5"/>
<text text-anchor="middle" x="475" y="-103.5" font-family="Helvetica,sans-Serif" font-size="10.00">std::make_pair</text>
</a>
</g>
</g>
<!-- Node9&#45;&gt;Node12 -->
<g id="edge12_Node000009_Node000012" class="edge">
<title>Node9&#45;&gt;Node12</title>
<g id="a_edge12_Node000009_Node000012"><a xlink:title=" ">
<path fill="none" stroke="#63b8ff" d="M321.05,-140.99C341.86,-135.8 365.44,-130.03 387,-125 397.72,-122.5 409.21,-119.92 420.21,-117.5"/>
<polygon fill="#63b8ff" stroke="#63b8ff" points="421.11,-120.89 430.13,-115.33 419.62,-114.05 421.11,-120.89"/>
</a>
</g>
</g>
<!-- Node14 -->
<g id="Node000014" class="node">
<title>Node14</title>
<g id="a_Node000014"><a xlink:href="classRa_1_1Engine_1_1Rendering_1_1Renderer.html#a314e31247fa616d1cbb02143cd42019f" target="_top" xlink:title="Resize the viewport and all the screen textures, fbos. This function must be overrided as soon as som...">
<polygon fill="white" stroke="#666666" points="537,-78 413,-78 413,-48 537,-48 537,-78"/>
<text text-anchor="start" x="421" y="-66" font-family="Helvetica,sans-Serif" font-size="10.00">Ra::Engine::Rendering</text>
<text text-anchor="middle" x="475" y="-55" font-family="Helvetica,sans-Serif" font-size="10.00">::Renderer::resize</text>
</a>
</g>
</g>
<!-- Node13&#45;&gt;Node14 -->
<g id="edge14_Node000013_Node000014" class="edge">
<title>Node13&#45;&gt;Node14</title>
<g id="a_edge14_Node000013_Node000014"><a xlink:title=" ">
<path fill="none" stroke="#63b8ff" d="M328.79,-63C352.36,-63 378.95,-63 402.87,-63"/>
<polygon fill="#63b8ff" stroke="#63b8ff" points="402.95,-66.5 412.95,-63 402.95,-59.5 402.95,-66.5"/>
</a>
</g>
</g>
<!-- Node16 -->
<g id="Node000016" class="node">
<title>Node16</title>
<g id="a_Node000016"><a xlink:href="classRa_1_1Core_1_1Asset_1_1Camera.html#a05d8b61c4135de535eb61a6608fd33d6" target="_top" xlink:title="Change the viewport size. Also compute aspectRatio.">
<polygon fill="white" stroke="#666666" points="542.5,-30 407.5,-30 407.5,0 542.5,0 542.5,-30"/>
<text text-anchor="start" x="415.5" y="-18" font-family="Helvetica,sans-Serif" font-size="10.00">Ra::Core::Asset::Camera</text>
<text text-anchor="middle" x="475" y="-7" font-family="Helvetica,sans-Serif" font-size="10.00">::setViewport</text>
</a>
</g>
</g>
<!-- Node13&#45;&gt;Node16 -->
<g id="edge16_Node000013_Node000016" class="edge">
<title>Node13&#45;&gt;Node16</title>
<g id="a_edge16_Node000013_Node000016"><a xlink:title=" ">
<path fill="none" stroke="#63b8ff" d="M328.5,-47.94C350.5,-42.96 375.15,-37.38 397.82,-32.25"/>
<polygon fill="#63b8ff" stroke="#63b8ff" points="398.76,-35.62 407.74,-30 397.21,-28.8 398.76,-35.62"/>
</a>
</g>
</g>
<!-- Node15 -->
<g id="Node000015" class="node">
<title>Node15</title>
<g id="a_Node000015"><a xlink:href="classRa_1_1Engine_1_1Rendering_1_1Renderer.html#ac804ffc9a0b4f71c02610ce930fd5c65" target="_top" xlink:title=" ">
<polygon fill="white" stroke="#666666" points="739,-78 599,-78 599,-48 739,-48 739,-78"/>
<text text-anchor="start" x="607" y="-66" font-family="Helvetica,sans-Serif" font-size="10.00">Ra::Engine::Rendering</text>
<text text-anchor="middle" x="669" y="-55" font-family="Helvetica,sans-Serif" font-size="10.00">::Renderer::resizeInternal</text>
</a>
</g>
</g>
<!-- Node14&#45;&gt;Node15 -->
<g id="edge15_Node000014_Node000015" class="edge">
<title>Node14&#45;&gt;Node15</title>
<g id="a_edge15_Node000014_Node000015"><a xlink:title=" ">
<path fill="none" stroke="#63b8ff" d="M537.01,-63C553.44,-63 571.46,-63 588.73,-63"/>
<polygon fill="#63b8ff" stroke="#63b8ff" points="588.79,-66.5 598.79,-63 588.79,-59.5 588.79,-66.5"/>
</a>
</g>
</g>
</g>
</svg>

<g id="navigator" transform="translate(0 0)" fill="#404254">
  <rect fill="#f2f5e9" fill-opacity="0.5" stroke="#606060" stroke-width=".5" x="0" y="0" width="60" height="60"/>
  <use id="zoomplus" xlink:href="#zoomPlus" x="17" y="9" onmousedown="handleZoom(evt,'in')"/>
  <use id="zoomminus" xlink:href="#zoomMin" x="42" y="9" onmousedown="handleZoom(evt,'out')"/>
  <use id="reset" xlink:href="#resetDef" x="30" y="36" onmousedown="handleReset()"/>
   <use id="arrowup" xlink:href="#arrowUp" x="0" y="0" onmousedown="handlePan(0,-1)"/>
  <use id="arrowright" xlink:href="#arrowRight" x="0" y="0" onmousedown="handlePan(1,0)"/>
  <use id="arrowdown" xlink:href="#arrowDown" x="0" y="0" onmousedown="handlePan(0,1)"/>
  <use id="arrowleft" xlink:href="#arrowLeft" x="0" y="0" onmousedown="handlePan(-1,0)"/>
</g>
<svg viewBox="0 0 15 15" width="100%" height="30px" preserveAspectRatio="xMaxYMin meet">
 <g id="arrow_out" transform="scale(0.3 0.3)">
  <a xlink:href="classRa_1_1Headless_1_1CLIViewer_a199bd6c52650d5ae6a9b00754a445b73_cgraph_org.svg" target="_base">
   <rect id="button" ry="5" rx="5" y="6" x="6" height="38" width="38"
        fill="#f2f5e9" fill-opacity="0.5" stroke="#606060" stroke-width="1.0"/>
   <path id="arrow"
     d="M 11.500037,31.436501 C 11.940474,20.09759 22.043105,11.32322 32.158766,21.979434 L 37.068811,17.246167 C 37.068811,17.246167 37.088388,32 37.088388,32 L 22.160133,31.978069 C 22.160133,31.978069 26.997745,27.140456 26.997745,27.140456 C 18.528582,18.264221 13.291696,25.230495 11.500037,31.436501 z"
     style="fill:#404040;"/>
  </a>
 </g>
</svg>

<style type='text/css'>
<![CDATA[
[data-mouse-over-selected='false'] { opacity: 0.7; }
[data-mouse-over-selected='true']  { opacity: 1.0; }
]]>
</style>
<script type="application/ecmascript"><![CDATA[
document.addEventListener('DOMContentLoaded', (event) => {
  highlightEdges();
  highlightAdjacentNodes();
});
]]></script>
</svg>
