<?xml version="1.0" encoding="UTF-8" standalone="no"?>
<!DOCTYPE svg PUBLIC "-//W3C//DTD SVG 1.1//EN"
 "http://www.w3.org/Graphics/SVG/1.1/DTD/svg11.dtd">
<!-- Generated by graphviz version 2.43.0 (0)
 -->
<!-- Title: Ra::IO::OFFFileManager::importData Pages: 1 -->
<svg width="735pt" height="320pt"
 viewBox="0.00 0.00 735.00 320.00" xmlns="http://www.w3.org/2000/svg" xmlns:xlink="http://www.w3.org/1999/xlink">
<g id="graph0" class="graph" transform="scale(1 1) rotate(0) translate(4 316)">
<title>Ra::IO::OFFFileManager::importData</title>
<polygon fill="white" stroke="transparent" points="-4,4 -4,-316 731,-316 731,4 -4,4"/>
<!-- Node1 -->
<g id="node1" class="node">
<title>Node1</title>
<g id="a_node1"><a xlink:title=" ">
<polygon fill="#bfbfbf" stroke="black" points="0,-161 0,-191 131,-191 131,-161 0,-161"/>
<text text-anchor="start" x="8" y="-179" font-family="Helvetica,sans-Serif" font-size="10.00">Ra::IO::OFFFileManager</text>
<text text-anchor="middle" x="65.5" y="-168" font-family="Helvetica,sans-Serif" font-size="10.00">::importData</text>
</a>
</g>
</g>
<!-- Node2 -->
<g id="node2" class="node">
<title>Node2</title>
<g id="a_node2"><a xlink:href="classRa_1_1IO_1_1FileManager.html#a2b788483f09e07553e4cb4ca768063b4" target="_top" xlink:title=" ">
<polygon fill="white" stroke="black" points="174.5,-270.5 174.5,-311.5 323.5,-311.5 323.5,-270.5 174.5,-270.5"/>
<text text-anchor="start" x="182.5" y="-299.5" font-family="Helvetica,sans-Serif" font-size="10.00">Ra::IO::FileManager</text>
<text text-anchor="start" x="182.5" y="-288.5" font-family="Helvetica,sans-Serif" font-size="10.00">&lt; Core::Geometry::Triangle</text>
<text text-anchor="middle" x="249" y="-277.5" font-family="Helvetica,sans-Serif" font-size="10.00">Mesh &gt;::addLogErrorEntry</text>
</a>
</g>
</g>
<!-- Node1&#45;&gt;Node2 -->
<g id="edge1" class="edge">
<title>Node1&#45;&gt;Node2</title>
<path fill="none" stroke="midnightblue" d="M80.9,-191.05C99.36,-209.63 133.06,-241.19 167,-261 170.01,-262.75 173.13,-264.44 176.33,-266.05"/>
<polygon fill="midnightblue" stroke="midnightblue" points="174.97,-269.27 185.51,-270.39 177.96,-262.95 174.97,-269.27"/>
</g>
<!-- Node3 -->
<g id="node3" class="node">
<title>Node3</title>
<g id="a_node3"><a xlink:href="classRa_1_1Core_1_1Geometry_1_1MultiIndexedGeometry.html#a7d3a56c1b5ba3a13fc074beeb8a3734f" target="_top" xlink:title="Erases all data, making the geometry empty.">
<polygon fill="white" stroke="black" points="182,-210.5 182,-251.5 316,-251.5 316,-210.5 182,-210.5"/>
<text text-anchor="start" x="190" y="-239.5" font-family="Helvetica,sans-Serif" font-size="10.00">Ra::Core::Geometry</text>
<text text-anchor="start" x="190" y="-228.5" font-family="Helvetica,sans-Serif" font-size="10.00">::MultiIndexedGeometry</text>
<text text-anchor="middle" x="249" y="-217.5" font-family="Helvetica,sans-Serif" font-size="10.00">::clear</text>
</a>
</g>
</g>
<!-- Node1&#45;&gt;Node3 -->
<g id="edge2" class="edge">
<title>Node1&#45;&gt;Node3</title>
<path fill="none" stroke="midnightblue" d="M116.1,-191.03C133.35,-196.26 153.11,-202.25 172,-207.97"/>
<polygon fill="midnightblue" stroke="midnightblue" points="171.2,-211.38 181.78,-210.93 173.23,-204.68 171.2,-211.38"/>
</g>
<!-- Node8 -->
<g id="node8" class="node">
<title>Node8</title>
<g id="a_node8"><a xlink:href="classRa_1_1IO_1_1OFFFileManager.html#af4009cbdb7ba4fa80adbcb2e5ef6efb3" target="_top" xlink:title="HEADER.">
<polygon fill="white" stroke="black" points="183.5,-161 183.5,-191 314.5,-191 314.5,-161 183.5,-161"/>
<text text-anchor="start" x="191.5" y="-179" font-family="Helvetica,sans-Serif" font-size="10.00">Ra::IO::OFFFileManager</text>
<text text-anchor="middle" x="249" y="-168" font-family="Helvetica,sans-Serif" font-size="10.00">::header</text>
</a>
</g>
</g>
<!-- Node1&#45;&gt;Node8 -->
<g id="edge8" class="edge">
<title>Node1&#45;&gt;Node8</title>
<path fill="none" stroke="midnightblue" d="M131,-176C144.69,-176 159.26,-176 173.29,-176"/>
<polygon fill="midnightblue" stroke="midnightblue" points="173.4,-179.5 183.4,-176 173.4,-172.5 173.4,-179.5"/>
</g>
<!-- Node9 -->
<g id="node9" class="node">
<title>Node9</title>
<g id="a_node9"><a xlink:href="classRa_1_1Core_1_1Geometry_1_1IndexedGeometry.html#ad1fc6b57b469ef12d14f677852b8f2a8" target="_top" xlink:title=" ">
<polygon fill="white" stroke="black" points="167,-112 167,-142 331,-142 331,-112 167,-112"/>
<text text-anchor="start" x="175" y="-130" font-family="Helvetica,sans-Serif" font-size="10.00">Ra::Core::Geometry</text>
<text text-anchor="middle" x="249" y="-119" font-family="Helvetica,sans-Serif" font-size="10.00">::IndexedGeometry::setIndices</text>
</a>
</g>
</g>
<!-- Node1&#45;&gt;Node9 -->
<g id="edge9" class="edge">
<title>Node1&#45;&gt;Node9</title>
<path fill="none" stroke="midnightblue" d="M122.44,-160.9C141.42,-155.77 162.79,-150 182.45,-144.7"/>
<polygon fill="midnightblue" stroke="midnightblue" points="183.51,-148.04 192.25,-142.05 181.68,-141.28 183.51,-148.04"/>
</g>
<!-- Node10 -->
<g id="node10" class="node">
<title>Node10</title>
<g id="a_node10"><a xlink:href="classRa_1_1Core_1_1Geometry_1_1AttribArrayGeometry.html#a887411177386edbcdc35d0c6bf78a83a" target="_top" xlink:title="Set vertices.">
<polygon fill="white" stroke="black" points="186.5,-51.5 186.5,-92.5 311.5,-92.5 311.5,-51.5 186.5,-51.5"/>
<text text-anchor="start" x="194.5" y="-80.5" font-family="Helvetica,sans-Serif" font-size="10.00">Ra::Core::Geometry</text>
<text text-anchor="start" x="194.5" y="-69.5" font-family="Helvetica,sans-Serif" font-size="10.00">::AttribArrayGeometry</text>
<text text-anchor="middle" x="249" y="-58.5" font-family="Helvetica,sans-Serif" font-size="10.00">::setVertices</text>
</a>
</g>
</g>
<!-- Node1&#45;&gt;Node10 -->
<g id="edge10" class="edge">
<title>Node1&#45;&gt;Node10</title>
<path fill="none" stroke="midnightblue" d="M84.42,-160.73C103.8,-144.77 136.1,-119.76 167,-103 170.98,-100.84 175.14,-98.76 179.39,-96.78"/>
<polygon fill="midnightblue" stroke="midnightblue" points="181.08,-99.85 188.78,-92.57 178.22,-93.46 181.08,-99.85"/>
</g>
<!-- Node4 -->
<g id="node4" class="node">
<title>Node4</title>
<g id="a_node4"><a xlink:href="classRa_1_1Core_1_1Geometry_1_1AttribArrayGeometry.html#a75f68d38992c5b5554ce6ebd852fac5f" target="_top" xlink:title="Erases all data, making the AttribArrayGeometry empty.">
<polygon fill="white" stroke="black" points="385.5,-256.5 385.5,-297.5 510.5,-297.5 510.5,-256.5 385.5,-256.5"/>
<text text-anchor="start" x="393.5" y="-285.5" font-family="Helvetica,sans-Serif" font-size="10.00">Ra::Core::Geometry</text>
<text text-anchor="start" x="393.5" y="-274.5" font-family="Helvetica,sans-Serif" font-size="10.00">::AttribArrayGeometry</text>
<text text-anchor="middle" x="448" y="-263.5" font-family="Helvetica,sans-Serif" font-size="10.00">::clear</text>
</a>
</g>
</g>
<!-- Node3&#45;&gt;Node4 -->
<g id="edge3" class="edge">
<title>Node3&#45;&gt;Node4</title>
<path fill="none" stroke="midnightblue" d="M316.15,-246.45C335.18,-250.89 356.03,-255.76 375.39,-260.28"/>
<polygon fill="midnightblue" stroke="midnightblue" points="374.82,-263.74 385.35,-262.61 376.41,-256.92 374.82,-263.74"/>
</g>
<!-- Node6 -->
<g id="node6" class="node">
<title>Node6</title>
<g id="a_node6"><a xlink:href="structRa_1_1Core_1_1Geometry_1_1AbstractGeometry.html#a573def11b92bfa63c15dfddec792b450" target="_top" xlink:title=" ">
<polygon fill="white" stroke="black" points="587.5,-204.5 587.5,-245.5 704.5,-245.5 704.5,-204.5 587.5,-204.5"/>
<text text-anchor="start" x="595.5" y="-233.5" font-family="Helvetica,sans-Serif" font-size="10.00">Ra::Core::Geometry</text>
<text text-anchor="start" x="595.5" y="-222.5" font-family="Helvetica,sans-Serif" font-size="10.00">::AbstractGeometry::</text>
<text text-anchor="middle" x="646" y="-211.5" font-family="Helvetica,sans-Serif" font-size="10.00">invalidateAabb</text>
</a>
</g>
</g>
<!-- Node3&#45;&gt;Node6 -->
<g id="edge6" class="edge">
<title>Node3&#45;&gt;Node6</title>
<path fill="none" stroke="midnightblue" d="M316.11,-230C388.59,-228.89 504.25,-227.14 577.33,-226.03"/>
<polygon fill="midnightblue" stroke="midnightblue" points="577.41,-229.53 587.35,-225.88 577.3,-222.53 577.41,-229.53"/>
</g>
<!-- Node7 -->
<g id="node7" class="node">
<title>Node7</title>
<g id="a_node7"><a xlink:href="classRa_1_1Core_1_1Utils_1_1Observable.html#a7e5fe761726d56a51f95192eb6555f8f" target="_top" xlink:title="Notify (i.e. call) each attached observer with argument p.">
<polygon fill="white" stroke="black" points="374,-169 374,-199 522,-199 522,-169 374,-169"/>
<text text-anchor="start" x="382" y="-187" font-family="Helvetica,sans-Serif" font-size="10.00">Ra::Core::Utils::Observable</text>
<text text-anchor="middle" x="448" y="-176" font-family="Helvetica,sans-Serif" font-size="10.00">&lt;&gt;::notify</text>
</a>
</g>
</g>
<!-- Node3&#45;&gt;Node7 -->
<g id="edge7" class="edge">
<title>Node3&#45;&gt;Node7</title>
<path fill="none" stroke="midnightblue" d="M316.15,-215.22C334.8,-210.77 355.2,-205.9 374.22,-201.36"/>
<polygon fill="midnightblue" stroke="midnightblue" points="375.11,-204.75 384.03,-199.02 373.49,-197.94 375.11,-204.75"/>
</g>
<!-- Node5 -->
<g id="node5" class="node">
<title>Node5</title>
<g id="a_node5"><a xlink:href="classRa_1_1Core_1_1Utils_1_1AttribManager.html#ae99bb77d3d29e9d99b4bcc257919ecda" target="_top" xlink:title="clear all attribs, invalidate handles.">
<polygon fill="white" stroke="black" points="565,-265 565,-295 727,-295 727,-265 565,-265"/>
<text text-anchor="start" x="573" y="-283" font-family="Helvetica,sans-Serif" font-size="10.00">Ra::Core::Utils::AttribManager</text>
<text text-anchor="middle" x="646" y="-272" font-family="Helvetica,sans-Serif" font-size="10.00">::clear</text>
</a>
</g>
</g>
<!-- Node4&#45;&gt;Node5 -->
<g id="edge4" class="edge">
<title>Node4&#45;&gt;Node5</title>
<path fill="none" stroke="midnightblue" d="M510.75,-277.95C524.7,-278.16 539.79,-278.39 554.64,-278.62"/>
<polygon fill="midnightblue" stroke="midnightblue" points="554.82,-282.12 564.87,-278.77 554.92,-275.12 554.82,-282.12"/>
</g>
<!-- Node4&#45;&gt;Node6 -->
<g id="edge5" class="edge">
<title>Node4&#45;&gt;Node6</title>
<path fill="none" stroke="midnightblue" d="M510.75,-260.62C531.96,-254.99 555.81,-248.66 577.46,-242.92"/>
<polygon fill="midnightblue" stroke="midnightblue" points="578.47,-246.27 587.23,-240.33 576.67,-239.51 578.47,-246.27"/>
</g>
<!-- Node10&#45;&gt;Node6 -->
<g id="edge11" class="edge">
<title>Node10&#45;&gt;Node6</title>
<path fill="none" stroke="midnightblue" d="M311.72,-87.55C369.14,-102.92 456.51,-128.65 529,-160 554.7,-171.11 582.09,-186.29 603.79,-199.18"/>
<polygon fill="midnightblue" stroke="midnightblue" points="602.05,-202.21 612.42,-204.36 605.65,-196.21 602.05,-202.21"/>
</g>
<!-- Node11 -->
<g id="node11" class="node">
<title>Node11</title>
<g id="a_node11"><a xlink:href="classRa_1_1Core_1_1Utils_1_1AttribManager.html#a056b7697cfbedd6b20dde6ce7955094e" target="_top" xlink:title=" ">
<polygon fill="white" stroke="black" points="367,-61 367,-91 529,-91 529,-61 367,-61"/>
<text text-anchor="start" x="375" y="-79" font-family="Helvetica,sans-Serif" font-size="10.00">Ra::Core::Utils::AttribManager</text>
<text text-anchor="middle" x="448" y="-68" font-family="Helvetica,sans-Serif" font-size="10.00">::setAttrib</text>
</a>
</g>
</g>
<!-- Node10&#45;&gt;Node11 -->
<g id="edge12" class="edge">
<title>Node10&#45;&gt;Node11</title>
<path fill="none" stroke="midnightblue" d="M311.52,-73.25C325.88,-73.54 341.46,-73.86 356.77,-74.17"/>
<polygon fill="midnightblue" stroke="midnightblue" points="356.71,-77.67 366.78,-74.37 356.85,-70.67 356.71,-77.67"/>
</g>
<!-- Node12 -->
<g id="node12" class="node">
<title>Node12</title>
<g id="a_node12"><a xlink:href="classRa_1_1Core_1_1Geometry_1_1AttribArrayGeometry.html#acabe05880d71a8dc4406964c258fff5a" target="_top" xlink:title="Access the vertices positions.">
<polygon fill="white" stroke="black" points="385.5,-0.5 385.5,-41.5 510.5,-41.5 510.5,-0.5 385.5,-0.5"/>
<text text-anchor="start" x="393.5" y="-29.5" font-family="Helvetica,sans-Serif" font-size="10.00">Ra::Core::Geometry</text>
<text text-anchor="start" x="393.5" y="-18.5" font-family="Helvetica,sans-Serif" font-size="10.00">::AttribArrayGeometry</text>
<text text-anchor="middle" x="448" y="-7.5" font-family="Helvetica,sans-Serif" font-size="10.00">::vertices</text>
</a>
</g>
</g>
<!-- Node10&#45;&gt;Node12 -->
<g id="edge13" class="edge">
<title>Node10&#45;&gt;Node12</title>
<path fill="none" stroke="midnightblue" d="M311.52,-56.07C331.79,-50.83 354.51,-44.94 375.46,-39.52"/>
<polygon fill="midnightblue" stroke="midnightblue" points="376.46,-42.88 385.27,-36.98 374.71,-36.1 376.46,-42.88"/>
</g>
<!-- Node13 -->
<g id="node13" class="node">
<title>Node13</title>
<g id="a_node13"><a xlink:href="classRa_1_1Core_1_1Utils_1_1AttribManager.html#ae0cb7281ec72606a5392602b4ea50d2c" target="_top" xlink:title=" ">
<polygon fill="white" stroke="black" points="565,-6 565,-36 727,-36 727,-6 565,-6"/>
<text text-anchor="start" x="573" y="-24" font-family="Helvetica,sans-Serif" font-size="10.00">Ra::Core::Utils::AttribManager</text>
<text text-anchor="middle" x="646" y="-13" font-family="Helvetica,sans-Serif" font-size="10.00">::getAttrib</text>
</a>
</g>
</g>
<!-- Node12&#45;&gt;Node13 -->
<g id="edge14" class="edge">
<title>Node12&#45;&gt;Node13</title>
<path fill="none" stroke="midnightblue" d="M510.75,-21C524.7,-21 539.79,-21 554.64,-21"/>
<polygon fill="midnightblue" stroke="midnightblue" points="554.87,-24.5 564.87,-21 554.87,-17.5 554.87,-24.5"/>
</g>
</g>
</svg>
