<?xml version="1.0" encoding="UTF-8" standalone="no"?>
<!DOCTYPE svg PUBLIC "-//W3C//DTD SVG 1.1//EN"
 "http://www.w3.org/Graphics/SVG/1.1/DTD/svg11.dtd">
<!-- Generated by graphviz version 2.43.0 (0)
 -->
<!-- Title: Ra::Engine::Scene::SkeletonBasedAnimationSystem::handleAssetLoading Pages: 1 -->
<!--zoomable 294 -->

<svg id="main" version="1.1" xmlns="http://www.w3.org/2000/svg" xmlns:xlink="http://www.w3.org/1999/xlink" xml:space="preserve" onload="init(evt)">
<style type="text/css"><![CDATA[
.node, .edge {opacity: 0.7;}
.node.selected, .edge.selected {opacity: 1;}
.edge:hover path { stroke: red; }
.edge:hover polygon { stroke: red; fill: red; }
]]></style>

<defs>
  <circle id="rim" cx="0" cy="0" r="7"/>
  <circle id="rim2" cx="0" cy="0" r="3.5"/>
  <g id="zoomPlus">
    <use xlink:href="#rim" fill="#404040"><set attributeName="fill" to="#808080" begin="zoomplus.mouseover" end="zoomplus.mouseout"/></use>
    <path d="M-4,0h8M0,-4v8" fill="none" stroke="white" stroke-width="1.5" pointer-events="none"/>
  </g>
  <g id="zoomMin">
    <use xlink:href="#rim" fill="#404040"><set attributeName="fill" to="#808080" begin="zoomminus.mouseover" end="zoomminus.mouseout"/></use>
    <path d="M-4,0h8" fill="none" stroke="white" stroke-width="1.5" pointer-events="none"/>
  </g>
  <g id="arrowUp" transform="translate(30 24)">
    <use xlink:href="#rim"/>
    <path pointer-events="none" fill="none" stroke="white" stroke-width="1.5" d="M0,-3.0v7 M-2.5,-0.5L0,-3.0L2.5,-0.5"/>
  </g>
  <g id="arrowRight" transform="rotate(90) translate(36 -43)">
    <use xlink:href="#rim"/>
    <path pointer-events="none" fill="none" stroke="white" stroke-width="1.5" d="M0,-3.0v7 M-2.5,-0.5L0,-3.0L2.5,-0.5"/>
  </g>
  <g id="arrowDown" transform="rotate(180) translate(-30 -48)">
    <use xlink:href="#rim"/>
    <path pointer-events="none" fill="none" stroke="white" stroke-width="1.5" d="M0,-3.0v7 M-2.5,-0.5L0,-3.0L2.5,-0.5"/>
  </g>
  <g id="arrowLeft" transform="rotate(270) translate(-36 17)">
    <use xlink:href="#rim"/>
    <path pointer-events="none" fill="none" stroke="white" stroke-width="1.5" d="M0,-3.0v7 M-2.5,-0.5L0,-3.0L2.5,-0.5"/>
  </g>
  <g id="resetDef">
    <use xlink:href="#rim2" fill="#404040"><set attributeName="fill" to="#808080" begin="reset.mouseover" end="reset.mouseout"/></use>
  </g>
</defs>
<script type="application/ecmascript">
var viewWidth = 586;
var viewHeight = 294;
var sectionId = 'dynsection-4';
</script>
<script type="application/ecmascript" xlink:href="svg.min.js"/>
<svg id="graph" class="graph">
<g id="viewport">
<title>Ra::Engine::Scene::SkeletonBasedAnimationSystem::handleAssetLoading</title>
<!-- Node1 -->
<g id="Node000001" class="node">
<title>Node1</title>
<g id="a_Node000001"><a xlink:title="Loads Skeletons and Animations from a file data into the givn Entity.">
<polygon fill="#999999" stroke="#666666" points="176,-181.5 0,-181.5 0,-140.5 176,-140.5 176,-181.5"/>
<text text-anchor="start" x="8" y="-169.5" font-family="Helvetica,sans-Serif" font-size="10.00">Ra::Engine::Scene::</text>
<text text-anchor="start" x="8" y="-158.5" font-family="Helvetica,sans-Serif" font-size="10.00">SkeletonBasedAnimationSystem</text>
<text text-anchor="middle" x="88" y="-147.5" font-family="Helvetica,sans-Serif" font-size="10.00">::handleAssetLoading</text>
</a>
</g>
</g>
<!-- Node2 -->
<g id="Node000002" class="node">
<title>Node2</title>
<g id="a_Node000002"><a target="_blank" xlink:href="http://en.cppreference.com/w/cpp/algorithm/find.html#" xlink:title=" ">
<polygon fill="white" stroke="#666666" points="333.5,-285.5 265.5,-285.5 265.5,-266.5 333.5,-266.5 333.5,-285.5"/>
<text text-anchor="middle" x="299.5" y="-273.5" font-family="Helvetica,sans-Serif" font-size="10.00">std::find_if</text>
</a>
</g>
</g>
<!-- Node1&#45;&gt;Node2 -->
<g id="edge1_Node000001_Node000002" class="edge">
<title>Node1&#45;&gt;Node2</title>
<g id="a_edge1_Node000001_Node000002"><a xlink:title=" ">
<path fill="none" stroke="#63b8ff" d="M109.16,-181.87C131.99,-204.22 171.33,-239.03 212,-258 225.42,-264.26 241.03,-268.36 255.26,-271.04"/>
<polygon fill="#63b8ff" stroke="#63b8ff" points="254.88,-274.52 265.32,-272.75 256.05,-267.62 254.88,-274.52"/>
</a>
</g>
</g>
<!-- Node3 -->
<g id="Node000003" class="node">
<title>Node3</title>
<g id="a_Node000003"><a xlink:href="classRa_1_1Engine_1_1Scene_1_1SkinningComponent.html#a200365fa79324fce0170226db7d8c448" target="_top" xlink:title=" ">
<polygon fill="white" stroke="#666666" points="387,-248.5 212,-248.5 212,-207.5 387,-207.5 387,-248.5"/>
<text text-anchor="start" x="220" y="-236.5" font-family="Helvetica,sans-Serif" font-size="10.00">Ra::Engine::Scene::</text>
<text text-anchor="start" x="220" y="-225.5" font-family="Helvetica,sans-Serif" font-size="10.00">SkinningComponent::handleSkin</text>
<text text-anchor="middle" x="299.5" y="-214.5" font-family="Helvetica,sans-Serif" font-size="10.00">DataLoading</text>
</a>
</g>
</g>
<!-- Node1&#45;&gt;Node3 -->
<g id="edge2_Node000001_Node000003" class="edge">
<title>Node1&#45;&gt;Node3</title>
<g id="a_edge2_Node000001_Node000003"><a xlink:title=" ">
<path fill="none" stroke="#63b8ff" d="M153.28,-181.56C175.8,-188.76 201.28,-196.91 224.53,-204.34"/>
<polygon fill="#63b8ff" stroke="#63b8ff" points="223.75,-207.77 234.34,-207.48 225.88,-201.1 223.75,-207.77"/>
</a>
</g>
</g>
<!-- Node7 -->
<g id="Node000007" class="node">
<title>Node7</title>
<g id="a_Node000007"><a target="_blank" xlink:href="http://en.cppreference.com/w/cpp/algorithm/max.html#" xlink:title=" ">
<polygon fill="white" stroke="#666666" points="329,-189.5 270,-189.5 270,-170.5 329,-170.5 329,-189.5"/>
<text text-anchor="middle" x="299.5" y="-177.5" font-family="Helvetica,sans-Serif" font-size="10.00">std::max</text>
</a>
</g>
</g>
<!-- Node1&#45;&gt;Node7 -->
<g id="edge6_Node000001_Node000007" class="edge">
<title>Node1&#45;&gt;Node7</title>
<g id="a_edge6_Node000001_Node000007"><a xlink:title=" ">
<path fill="none" stroke="#63b8ff" d="M176.03,-168.89C205.08,-171.53 236,-174.33 259.51,-176.46"/>
<polygon fill="#63b8ff" stroke="#63b8ff" points="259.48,-179.98 269.76,-177.39 260.11,-173 259.48,-179.98"/>
</a>
</g>
</g>
<!-- Node8 -->
<g id="Node000008" class="node">
<title>Node8</title>
<g id="a_Node000008"><a target="_blank" xlink:href="http://en.cppreference.com/w/cpp/types/numeric_limits/max.html#" xlink:title=" ">
<polygon fill="white" stroke="#666666" points="368.5,-152.5 230.5,-152.5 230.5,-133.5 368.5,-133.5 368.5,-152.5"/>
<text text-anchor="middle" x="299.5" y="-140.5" font-family="Helvetica,sans-Serif" font-size="10.00">std::numeric_limits::max</text>
</a>
</g>
</g>
<!-- Node1&#45;&gt;Node8 -->
<g id="edge7_Node000001_Node000008" class="edge">
<title>Node1&#45;&gt;Node8</title>
<g id="a_edge7_Node000001_Node000008"><a xlink:title=" ">
<path fill="none" stroke="#63b8ff" d="M176.03,-153.52C190.59,-152.27 205.63,-150.98 219.96,-149.75"/>
<polygon fill="#63b8ff" stroke="#63b8ff" points="220.6,-153.21 230.26,-148.86 220,-146.23 220.6,-153.21"/>
</a>
</g>
</g>
<!-- Node9 -->
<g id="Node000009" class="node">
<title>Node9</title>
<g id="a_Node000009"><a target="_blank" xlink:href="http://en.cppreference.com/w/cpp/algorithm/min.html#" xlink:title=" ">
<polygon fill="white" stroke="#666666" points="327.5,-115.5 271.5,-115.5 271.5,-96.5 327.5,-96.5 327.5,-115.5"/>
<text text-anchor="middle" x="299.5" y="-103.5" font-family="Helvetica,sans-Serif" font-size="10.00">std::min</text>
</a>
</g>
</g>
<!-- Node1&#45;&gt;Node9 -->
<g id="edge8_Node000001_Node000009" class="edge">
<title>Node1&#45;&gt;Node9</title>
<g id="a_edge8_Node000001_Node000009"><a xlink:title=" ">
<path fill="none" stroke="#63b8ff" d="M153.5,-140.45C172.27,-134.78 192.87,-128.86 212,-124 228.07,-119.92 245.98,-116.08 261.32,-113"/>
<polygon fill="#63b8ff" stroke="#63b8ff" points="262.34,-116.36 271.48,-111 260.99,-109.5 262.34,-116.36"/>
</a>
</g>
</g>
<!-- Node10 -->
<g id="Node000010" class="node">
<title>Node10</title>
<g id="a_Node000010"><a xlink:href="classRa_1_1Engine_1_1Scene_1_1System.html#a8d1f1cfd2c615e58b4155154206afece" target="_top" xlink:title=" ">
<polygon fill="white" stroke="#666666" points="376,-78 223,-78 223,-48 376,-48 376,-78"/>
<text text-anchor="start" x="231" y="-66" font-family="Helvetica,sans-Serif" font-size="10.00">Ra::Engine::Scene::</text>
<text text-anchor="middle" x="299.5" y="-55" font-family="Helvetica,sans-Serif" font-size="10.00">System::registerComponent</text>
</a>
</g>
</g>
<!-- Node1&#45;&gt;Node10 -->
<g id="edge9_Node000001_Node000010" class="edge">
<title>Node1&#45;&gt;Node10</title>
<g id="a_edge9_Node000001_Node000010"><a xlink:title=" ">
<path fill="none" stroke="#63b8ff" d="M118.11,-140.38C142.3,-124.03 178.12,-101.57 212,-87 216.71,-84.97 221.64,-83.07 226.65,-81.3"/>
<polygon fill="#63b8ff" stroke="#63b8ff" points="228,-84.54 236.36,-78.04 225.77,-77.9 228,-84.54"/>
</a>
</g>
</g>
<!-- Node4 -->
<g id="Node000004" class="node">
<title>Node4</title>
<g id="a_Node000004"><a target="_blank" xlink:href="http://en.cppreference.com/w/cpp/container/map/find.html#" xlink:title=" ">
<polygon fill="white" stroke="#666666" points="542,-280.5 459,-280.5 459,-261.5 542,-261.5 542,-280.5"/>
<text text-anchor="middle" x="500.5" y="-268.5" font-family="Helvetica,sans-Serif" font-size="10.00">std::map::find</text>
</a>
</g>
</g>
<!-- Node3&#45;&gt;Node4 -->
<g id="edge3_Node000003_Node000004" class="edge">
<title>Node3&#45;&gt;Node4</title>
<g id="a_edge3_Node000003_Node000004"><a xlink:title=" ">
<path fill="none" stroke="#63b8ff" d="M387.21,-246.74C408.34,-251.3 430.25,-256.04 449.05,-260.1"/>
<polygon fill="#63b8ff" stroke="#63b8ff" points="448.34,-263.53 458.86,-262.22 449.82,-256.68 448.34,-263.53"/>
</a>
</g>
</g>
<!-- Node5 -->
<g id="Node000005" class="node">
<title>Node5</title>
<g id="a_Node000005"><a xlink:href="classRa_1_1Core_1_1Asset_1_1HandleData.html#a23c594326c793c74bf08614d6a810949" target="_top" xlink:title=" ">
<polygon fill="white" stroke="#666666" points="578,-243 423,-243 423,-213 578,-213 578,-243"/>
<text text-anchor="start" x="431" y="-231" font-family="Helvetica,sans-Serif" font-size="10.00">Ra::Core::Asset::HandleData</text>
<text text-anchor="middle" x="500.5" y="-220" font-family="Helvetica,sans-Serif" font-size="10.00">::getComponentData</text>
</a>
</g>
</g>
<!-- Node3&#45;&gt;Node5 -->
<g id="edge4_Node000003_Node000005" class="edge">
<title>Node3&#45;&gt;Node5</title>
<g id="a_edge4_Node000003_Node000005"><a xlink:title=" ">
<path fill="none" stroke="#63b8ff" d="M387.21,-228C395.62,-228 404.16,-228 412.57,-228"/>
<polygon fill="#63b8ff" stroke="#63b8ff" points="412.76,-231.5 422.76,-228 412.76,-224.5 412.76,-231.5"/>
</a>
</g>
</g>
<!-- Node6 -->
<g id="Node000006" class="node">
<title>Node6</title>
<g id="a_Node000006"><a xlink:href="classRa_1_1Core_1_1Asset_1_1AssetData.html#a07b196379bf8e8bade0a29186bb9c25b" target="_top" xlink:title="Acces to the name of the asset.">
<polygon fill="white" stroke="#666666" points="574,-195 427,-195 427,-165 574,-165 574,-195"/>
<text text-anchor="start" x="435" y="-183" font-family="Helvetica,sans-Serif" font-size="10.00">Ra::Core::Asset::AssetData</text>
<text text-anchor="middle" x="500.5" y="-172" font-family="Helvetica,sans-Serif" font-size="10.00">::getName</text>
</a>
</g>
</g>
<!-- Node3&#45;&gt;Node6 -->
<g id="edge5_Node000003_Node000006" class="edge">
<title>Node3&#45;&gt;Node6</title>
<g id="a_edge5_Node000003_Node000006"><a xlink:title=" ">
<path fill="none" stroke="#63b8ff" d="M385.76,-207.43C399.68,-204.08 413.98,-200.63 427.54,-197.36"/>
<polygon fill="#63b8ff" stroke="#63b8ff" points="428.37,-200.76 437.27,-195.01 426.73,-193.95 428.37,-200.76"/>
</a>
</g>
</g>
<!-- Node11 -->
<g id="Node000011" class="node">
<title>Node11</title>
<g id="a_Node000011"><a xlink:href="classRa_1_1Engine_1_1Scene_1_1Component.html#a28dba9115491fdfd4803f7f32ee53af3" target="_top" xlink:title="Return the entity the component belongs to.">
<polygon fill="white" stroke="#666666" points="562,-126 439,-126 439,-96 562,-96 562,-126"/>
<text text-anchor="start" x="447" y="-114" font-family="Helvetica,sans-Serif" font-size="10.00">Ra::Engine::Scene::</text>
<text text-anchor="middle" x="500.5" y="-103" font-family="Helvetica,sans-Serif" font-size="10.00">Component::getEntity</text>
</a>
</g>
</g>
<!-- Node10&#45;&gt;Node11 -->
<g id="edge10_Node000010_Node000011" class="edge">
<title>Node10&#45;&gt;Node11</title>
<g id="a_edge10_Node000010_Node000011"><a xlink:title=" ">
<path fill="none" stroke="#63b8ff" d="M362.92,-78.06C383.87,-83.11 407.39,-88.78 428.93,-93.98"/>
<polygon fill="#63b8ff" stroke="#63b8ff" points="428.12,-97.38 438.67,-96.33 429.77,-90.58 428.12,-97.38"/>
</a>
</g>
</g>
<!-- Node12 -->
<g id="Node000012" class="node">
<title>Node12</title>
<g id="a_Node000012"><a xlink:href="classRa_1_1Engine_1_1Scene_1_1Component.html#a1d4c8227d4c1c7dacb860e6b44f1f698" target="_top" xlink:title="Return the component&#39;s name.">
<polygon fill="white" stroke="#666666" points="562.5,-78 438.5,-78 438.5,-48 562.5,-48 562.5,-78"/>
<text text-anchor="start" x="446.5" y="-66" font-family="Helvetica,sans-Serif" font-size="10.00">Ra::Engine::Scene::</text>
<text text-anchor="middle" x="500.5" y="-55" font-family="Helvetica,sans-Serif" font-size="10.00">Component::getName</text>
</a>
</g>
</g>
<!-- Node10&#45;&gt;Node12 -->
<g id="edge11_Node000010_Node000012" class="edge">
<title>Node10&#45;&gt;Node12</title>
<g id="a_edge11_Node000010_Node000012"><a xlink:title=" ">
<path fill="none" stroke="#63b8ff" d="M376.02,-63C393.04,-63 411.07,-63 427.93,-63"/>
<polygon fill="#63b8ff" stroke="#63b8ff" points="428.26,-66.5 438.26,-63 428.25,-59.5 428.26,-66.5"/>
</a>
</g>
</g>
<!-- Node13 -->
<g id="Node000013" class="node">
<title>Node13</title>
<g id="a_Node000013"><a xlink:href="classRa_1_1Engine_1_1Scene_1_1Component.html#af211eaa6fd1c608ef143920678da3d52" target="_top" xlink:title="Set the system to which the component belongs.">
<polygon fill="white" stroke="#666666" points="566,-30 435,-30 435,0 566,0 566,-30"/>
<text text-anchor="start" x="443" y="-18" font-family="Helvetica,sans-Serif" font-size="10.00">Ra::Engine::Scene::</text>
<text text-anchor="middle" x="500.5" y="-7" font-family="Helvetica,sans-Serif" font-size="10.00">Component::setSystem</text>
</a>
</g>
</g>
<!-- Node10&#45;&gt;Node13 -->
<g id="edge12_Node000010_Node000013" class="edge">
<title>Node10&#45;&gt;Node13</title>
<g id="a_edge12_Node000010_Node000013"><a xlink:title=" ">
<path fill="none" stroke="#63b8ff" d="M362.92,-47.94C383.39,-43.01 406.3,-37.48 427.42,-32.39"/>
<polygon fill="#63b8ff" stroke="#63b8ff" points="428.4,-35.75 437.3,-30 426.76,-28.94 428.4,-35.75"/>
</a>
</g>
</g>
</g>
</svg>

<g id="navigator" transform="translate(0 0)" fill="#404254">
  <rect fill="#f2f5e9" fill-opacity="0.5" stroke="#606060" stroke-width=".5" x="0" y="0" width="60" height="60"/>
  <use id="zoomplus" xlink:href="#zoomPlus" x="17" y="9" onmousedown="handleZoom(evt,'in')"/>
  <use id="zoomminus" xlink:href="#zoomMin" x="42" y="9" onmousedown="handleZoom(evt,'out')"/>
  <use id="reset" xlink:href="#resetDef" x="30" y="36" onmousedown="handleReset()"/>
   <use id="arrowup" xlink:href="#arrowUp" x="0" y="0" onmousedown="handlePan(0,-1)"/>
  <use id="arrowright" xlink:href="#arrowRight" x="0" y="0" onmousedown="handlePan(1,0)"/>
  <use id="arrowdown" xlink:href="#arrowDown" x="0" y="0" onmousedown="handlePan(0,1)"/>
  <use id="arrowleft" xlink:href="#arrowLeft" x="0" y="0" onmousedown="handlePan(-1,0)"/>
</g>
<svg viewBox="0 0 15 15" width="100%" height="30px" preserveAspectRatio="xMaxYMin meet">
 <g id="arrow_out" transform="scale(0.3 0.3)">
  <a xlink:href="classRa_1_1Engine_1_1Scene_1_1SkeletonBasedAnimationSystem_ade66477b3c62b0f04b020031553633b5_cgraph_org.svg" target="_base">
   <rect id="button" ry="5" rx="5" y="6" x="6" height="38" width="38"
        fill="#f2f5e9" fill-opacity="0.5" stroke="#606060" stroke-width="1.0"/>
   <path id="arrow"
     d="M 11.500037,31.436501 C 11.940474,20.09759 22.043105,11.32322 32.158766,21.979434 L 37.068811,17.246167 C 37.068811,17.246167 37.088388,32 37.088388,32 L 22.160133,31.978069 C 22.160133,31.978069 26.997745,27.140456 26.997745,27.140456 C 18.528582,18.264221 13.291696,25.230495 11.500037,31.436501 z"
     style="fill:#404040;"/>
  </a>
 </g>
</svg>

<style type='text/css'>
<![CDATA[
[data-mouse-over-selected='false'] { opacity: 0.7; }
[data-mouse-over-selected='true']  { opacity: 1.0; }
]]>
</style>
<script type="application/ecmascript"><![CDATA[
document.addEventListener('DOMContentLoaded', (event) => {
  highlightEdges();
  highlightAdjacentNodes();
});
]]></script>
</svg>
