<?xml version="1.0" encoding="UTF-8" standalone="no"?>
<!DOCTYPE svg PUBLIC "-//W3C//DTD SVG 1.1//EN"
 "http://www.w3.org/Graphics/SVG/1.1/DTD/svg11.dtd">
<!-- Generated by graphviz version 2.43.0 (0)
 -->
<!-- Title: Ra::Gui::Viewer::fitCamera Pages: 1 -->
<svg width="345pt" height="137pt"
 viewBox="0.00 0.00 345.00 137.00" xmlns="http://www.w3.org/2000/svg" xmlns:xlink="http://www.w3.org/1999/xlink">
<g id="graph0" class="graph" transform="scale(1 1) rotate(0) translate(4 133)">
<title>Ra::Gui::Viewer::fitCamera</title>
<polygon fill="white" stroke="transparent" points="-4,4 -4,-133 341,-133 341,4 -4,4"/>
<!-- Node1 -->
<g id="node1" class="node">
<title>Node1</title>
<g id="a_node1"><a xlink:title=" ">
<polygon fill="#bfbfbf" stroke="black" points="0,-55 0,-74 146,-74 146,-55 0,-55"/>
<text text-anchor="middle" x="73" y="-62" font-family="Helvetica,sans-Serif" font-size="10.00">Ra::Gui::Viewer::fitCamera</text>
</a>
</g>
</g>
<!-- Node2 -->
<g id="node2" class="node">
<title>Node2</title>
<g id="a_node2"><a xlink:href="classRa_1_1Gui_1_1Viewer.html#abe554bf67788b02cc920d395f1329212" target="_top" xlink:title="Moves the camera so that the whole scene is visible.">
<polygon fill="white" stroke="black" points="186.5,-98.5 186.5,-128.5 332.5,-128.5 332.5,-98.5 186.5,-98.5"/>
<text text-anchor="start" x="194.5" y="-116.5" font-family="Helvetica,sans-Serif" font-size="10.00">Ra::Gui::Viewer::fitCamera</text>
<text text-anchor="middle" x="259.5" y="-105.5" font-family="Helvetica,sans-Serif" font-size="10.00">ToScene</text>
</a>
</g>
</g>
<!-- Node1&#45;&gt;Node2 -->
<g id="edge1" class="edge">
<title>Node1&#45;&gt;Node2</title>
<path fill="none" stroke="midnightblue" d="M110.01,-74.06C133.27,-80.24 164.24,-88.46 191.87,-95.8"/>
<polygon fill="midnightblue" stroke="midnightblue" points="191.32,-99.28 201.88,-98.46 193.11,-92.51 191.32,-99.28"/>
</g>
<!-- Node3 -->
<g id="node3" class="node">
<title>Node3</title>
<g id="a_node3"><a xlink:href="classRa_1_1Gui_1_1Viewer.html#ac8bfa139c95713d812dd52f7e509fa66" target="_top" xlink:title="Access to camera interface.">
<polygon fill="white" stroke="black" points="183.5,-49.5 183.5,-79.5 335.5,-79.5 335.5,-49.5 183.5,-49.5"/>
<text text-anchor="start" x="191.5" y="-67.5" font-family="Helvetica,sans-Serif" font-size="10.00">Ra::Gui::Viewer::getCamera</text>
<text text-anchor="middle" x="259.5" y="-56.5" font-family="Helvetica,sans-Serif" font-size="10.00">Manipulator</text>
</a>
</g>
</g>
<!-- Node1&#45;&gt;Node3 -->
<g id="edge2" class="edge">
<title>Node1&#45;&gt;Node3</title>
<path fill="none" stroke="midnightblue" d="M146.13,-64.5C155.01,-64.5 164.16,-64.5 173.21,-64.5"/>
<polygon fill="midnightblue" stroke="midnightblue" points="173.38,-68 183.38,-64.5 173.38,-61 173.38,-68"/>
</g>
<!-- Node4 -->
<g id="node4" class="node">
<title>Node4</title>
<g id="a_node4"><a xlink:href="classRa_1_1Gui_1_1CameraManipulator.html#a1ad7036f72522d6222431df31e5ceeb5" target="_top" xlink:title="Reset the Camera settings to default values.">
<polygon fill="white" stroke="black" points="182,-0.5 182,-30.5 337,-30.5 337,-0.5 182,-0.5"/>
<text text-anchor="start" x="190" y="-18.5" font-family="Helvetica,sans-Serif" font-size="10.00">Ra::Gui::CameraManipulator</text>
<text text-anchor="middle" x="259.5" y="-7.5" font-family="Helvetica,sans-Serif" font-size="10.00">::resetCamera</text>
</a>
</g>
</g>
<!-- Node1&#45;&gt;Node4 -->
<g id="edge3" class="edge">
<title>Node1&#45;&gt;Node4</title>
<path fill="none" stroke="midnightblue" d="M110.01,-54.94C133.27,-48.76 164.24,-40.54 191.87,-33.2"/>
<polygon fill="midnightblue" stroke="midnightblue" points="193.11,-36.49 201.88,-30.54 191.32,-29.72 193.11,-36.49"/>
</g>
</g>
</svg>
