<?xml version="1.0" encoding="UTF-8" standalone="no"?>
<!DOCTYPE svg PUBLIC "-//W3C//DTD SVG 1.1//EN"
 "http://www.w3.org/Graphics/SVG/1.1/DTD/svg11.dtd">
<!-- Generated by graphviz version 2.43.0 (0)
 -->
<!-- Title: Ra::Headless::CLIViewer::renderLoop Pages: 1 -->
<svg width="342pt" height="39pt"
 viewBox="0.00 0.00 342.00 39.00" xmlns="http://www.w3.org/2000/svg" xmlns:xlink="http://www.w3.org/1999/xlink">
<g id="graph0" class="graph" transform="scale(1 1) rotate(0) translate(4 35)">
<title>Ra::Headless::CLIViewer::renderLoop</title>
<polygon fill="white" stroke="transparent" points="-4,4 -4,-35 338,-35 338,4 -4,4"/>
<!-- Node1 -->
<g id="node1" class="node">
<title>Node1</title>
<g id="a_node1"><a xlink:title=" ">
<polygon fill="#bfbfbf" stroke="black" points="0,-0.5 0,-30.5 135,-30.5 135,-0.5 0,-0.5"/>
<text text-anchor="start" x="8" y="-18.5" font-family="Helvetica,sans-Serif" font-size="10.00">Ra::Headless::CLIViewer</text>
<text text-anchor="middle" x="67.5" y="-7.5" font-family="Helvetica,sans-Serif" font-size="10.00">::renderLoop</text>
</a>
</g>
</g>
<!-- Node2 -->
<g id="node2" class="node">
<title>Node2</title>
<g id="a_node2"><a xlink:href="group__window.html#gacb2445308d3450dc5242ee11274f9b92" target="_top" xlink:title="loop on events and execute the functor render after each event">
<polygon fill="white" stroke="black" points="171,-0.5 171,-30.5 334,-30.5 334,-0.5 171,-0.5"/>
<text text-anchor="start" x="179" y="-18.5" font-family="Helvetica,sans-Serif" font-size="10.00">Ra::Headless::OpenGLContext</text>
<text text-anchor="middle" x="252.5" y="-7.5" font-family="Helvetica,sans-Serif" font-size="10.00">::renderLoop</text>
</a>
</g>
</g>
<!-- Node1&#45;&gt;Node2 -->
<g id="edge1" class="edge">
<title>Node1&#45;&gt;Node2</title>
<path fill="none" stroke="midnightblue" d="M135.08,-15.5C143.46,-15.5 152.13,-15.5 160.8,-15.5"/>
<polygon fill="midnightblue" stroke="midnightblue" points="160.95,-19 170.95,-15.5 160.95,-12 160.95,-19"/>
</g>
</g>
</svg>
