<?xml version="1.0" encoding="UTF-8" standalone="no"?>
<!DOCTYPE svg PUBLIC "-//W3C//DTD SVG 1.1//EN"
 "http://www.w3.org/Graphics/SVG/1.1/DTD/svg11.dtd">
<!-- Generated by graphviz version 2.43.0 (0)
 -->
<!-- Title: Ra::Engine::Data::Displayable Pages: 1 -->
<!--zoomable 1606 -->
<svg id="main" version="1.1" xmlns="http://www.w3.org/2000/svg" xmlns:xlink="http://www.w3.org/1999/xlink" xml:space="preserve" onload="init(evt)">
<style type="text/css"><![CDATA[
.edge:hover path { stroke: red; }
.edge:hover polygon { stroke: red; fill: red; }
]]></style>
<script type="text/javascript"><![CDATA[
var edges = document.getElementsByTagName('g');
if (edges && edges.length) {
  for (var i=0;i<edges.length;i++) {
    if (edges[i].id.substr(0,4)=='edge') {
      edges[i].setAttribute('class','edge');
    }
  }
}
]]></script>
        <defs>
                <circle id="rim" cx="0" cy="0" r="7"/>
                <circle id="rim2" cx="0" cy="0" r="3.5"/>
                <g id="zoomPlus">
                        <use xlink:href="#rim" fill="#404040">
                                <set attributeName="fill" to="#808080" begin="zoomplus.mouseover" end="zoomplus.mouseout"/>
                        </use>
                        <path d="M-4,0h8M0,-4v8" fill="none" stroke="white" stroke-width="1.5" pointer-events="none"/>
                </g>
                <g id="zoomMin">
                        <use xlink:href="#rim" fill="#404040">
                                <set attributeName="fill" to="#808080" begin="zoomminus.mouseover" end="zoomminus.mouseout"/>
                        </use>
                        <path d="M-4,0h8" fill="none" stroke="white" stroke-width="1.5" pointer-events="none"/>
                </g>
                <g id="dirArrow">
                        <path fill="none" stroke="white" stroke-width="1.5" d="M0,-3.0v7 M-2.5,-0.5L0,-3.0L2.5,-0.5"/>
                </g>
               <g id="resetDef">
                       <use xlink:href="#rim2" fill="#404040">
                               <set attributeName="fill" to="#808080" begin="reset.mouseover" end="reset.mouseout"/>
                       </use>
               </g>
        </defs>

<script type="text/javascript">
var viewWidth = 874;
var viewHeight = 1606;
var sectionId = 'dynsection-0';
</script>
<script xlink:href="svgpan.js"/>
<svg id="graph" class="graph">
<g id="viewport">
<title>Ra::Engine::Data::Displayable</title>
<polygon fill="white" stroke="transparent" points="-4,4 -4,-1602 870,-1602 870,4 -4,4"/>
<!-- Node1 -->
<g id="node1" class="node">
<title>Node1</title>
<g id="a_node1"><a xlink:title=" ">
<polygon fill="#bfbfbf" stroke="black" points="381,-1419.5 381,-1597.5 542,-1597.5 542,-1419.5 381,-1419.5"/>
<text text-anchor="middle" x="461.5" y="-1585.5" font-family="Helvetica,sans-Serif" font-size="10.00">Ra::Engine::Data::Displayable</text>
<polyline fill="none" stroke="black" points="381,-1578.5 542,-1578.5 "/>
<text text-anchor="start" x="389" y="-1566.5" font-family="Helvetica,sans-Serif" font-size="10.00"># m_pickingRenderMode</text>
<polyline fill="none" stroke="black" points="381,-1559.5 542,-1559.5 "/>
<text text-anchor="start" x="389" y="-1547.5" font-family="Helvetica,sans-Serif" font-size="10.00">+ Displayable()</text>
<text text-anchor="start" x="389" y="-1536.5" font-family="Helvetica,sans-Serif" font-size="10.00">+ Displayable()</text>
<text text-anchor="start" x="389" y="-1525.5" font-family="Helvetica,sans-Serif" font-size="10.00">+ operator=()</text>
<text text-anchor="start" x="389" y="-1514.5" font-family="Helvetica,sans-Serif" font-size="10.00">+ ~Displayable()</text>
<text text-anchor="start" x="389" y="-1503.5" font-family="Helvetica,sans-Serif" font-size="10.00">+ pickingRenderMode()</text>
<text text-anchor="start" x="389" y="-1492.5" font-family="Helvetica,sans-Serif" font-size="10.00">+ getName()</text>
<text text-anchor="start" x="389" y="-1481.5" font-family="Helvetica,sans-Serif" font-size="10.00">+ getAbstractGeometry()</text>
<text text-anchor="start" x="389" y="-1470.5" font-family="Helvetica,sans-Serif" font-size="10.00">+ getAbstractGeometry()</text>
<text text-anchor="start" x="389" y="-1459.5" font-family="Helvetica,sans-Serif" font-size="10.00">+ updateGL()</text>
<text text-anchor="start" x="389" y="-1448.5" font-family="Helvetica,sans-Serif" font-size="10.00">+ render()</text>
<text text-anchor="start" x="389" y="-1437.5" font-family="Helvetica,sans-Serif" font-size="10.00">+ getNumFaces()</text>
<text text-anchor="start" x="389" y="-1426.5" font-family="Helvetica,sans-Serif" font-size="10.00">+ getNumVertices()</text>
</a>
</g>
</g>
<!-- Node2 -->
<g id="node2" class="node">
<title>Node2</title>
<g id="a_node2"><a xlink:href="classRa_1_1Engine_1_1Data_1_1AttribArrayDisplayable.html" target="_top" xlink:title=" ">
<polygon fill="white" stroke="black" points="293.5,-1038.5 293.5,-1381.5 459.5,-1381.5 459.5,-1038.5 293.5,-1038.5"/>
<text text-anchor="start" x="301.5" y="-1369.5" font-family="Helvetica,sans-Serif" font-size="10.00">Ra::Engine::Data::Attrib</text>
<text text-anchor="middle" x="376.5" y="-1358.5" font-family="Helvetica,sans-Serif" font-size="10.00">ArrayDisplayable</text>
<polyline fill="none" stroke="black" points="293.5,-1351.5 459.5,-1351.5 "/>
<text text-anchor="start" x="301.5" y="-1339.5" font-family="Helvetica,sans-Serif" font-size="10.00"># m_vao</text>
<text text-anchor="start" x="301.5" y="-1328.5" font-family="Helvetica,sans-Serif" font-size="10.00"># m_renderMode</text>
<text text-anchor="start" x="301.5" y="-1317.5" font-family="Helvetica,sans-Serif" font-size="10.00"># m_vbos</text>
<text text-anchor="start" x="301.5" y="-1306.5" font-family="Helvetica,sans-Serif" font-size="10.00"># m_dataDirty</text>
<text text-anchor="start" x="301.5" y="-1295.5" font-family="Helvetica,sans-Serif" font-size="10.00"># m_handleToBuffer</text>
<text text-anchor="start" x="301.5" y="-1284.5" font-family="Helvetica,sans-Serif" font-size="10.00"># m_isDirty</text>
<polyline fill="none" stroke="black" points="293.5,-1277.5 459.5,-1277.5 "/>
<text text-anchor="start" x="301.5" y="-1265.5" font-family="Helvetica,sans-Serif" font-size="10.00">+ AttribArrayDisplayable()</text>
<text text-anchor="start" x="301.5" y="-1254.5" font-family="Helvetica,sans-Serif" font-size="10.00">+ AttribArrayDisplayable()</text>
<text text-anchor="start" x="301.5" y="-1243.5" font-family="Helvetica,sans-Serif" font-size="10.00">+ operator=()</text>
<text text-anchor="start" x="301.5" y="-1232.5" font-family="Helvetica,sans-Serif" font-size="10.00">+ ~AttribArrayDisplayable()</text>
<text text-anchor="start" x="301.5" y="-1221.5" font-family="Helvetica,sans-Serif" font-size="10.00">+ setRenderMode()</text>
<text text-anchor="start" x="301.5" y="-1210.5" font-family="Helvetica,sans-Serif" font-size="10.00">+ getRenderMode()</text>
<text text-anchor="start" x="301.5" y="-1199.5" font-family="Helvetica,sans-Serif" font-size="10.00">+ updateGL()</text>
<text text-anchor="start" x="301.5" y="-1188.5" font-family="Helvetica,sans-Serif" font-size="10.00">+ getVboHandle()</text>
<text text-anchor="start" x="301.5" y="-1177.5" font-family="Helvetica,sans-Serif" font-size="10.00">+ getVaoHandle()</text>
<text text-anchor="start" x="301.5" y="-1166.5" font-family="Helvetica,sans-Serif" font-size="10.00">+ getName()</text>
<text text-anchor="start" x="301.5" y="-1155.5" font-family="Helvetica,sans-Serif" font-size="10.00">+ setDirty()</text>
<text text-anchor="start" x="301.5" y="-1144.5" font-family="Helvetica,sans-Serif" font-size="10.00">+ setDirty()</text>
<text text-anchor="start" x="301.5" y="-1133.5" font-family="Helvetica,sans-Serif" font-size="10.00">+ setDirty()</text>
<text text-anchor="start" x="301.5" y="-1122.5" font-family="Helvetica,sans-Serif" font-size="10.00">+ getAttribArrayGeometry()</text>
<text text-anchor="start" x="301.5" y="-1111.5" font-family="Helvetica,sans-Serif" font-size="10.00">+ getAttribArrayGeometry()</text>
<text text-anchor="start" x="301.5" y="-1100.5" font-family="Helvetica,sans-Serif" font-size="10.00"># updatePickingRenderMode()</text>
<text text-anchor="start" x="301.5" y="-1089.5" font-family="Helvetica,sans-Serif" font-size="10.00">* setDirty()</text>
<text text-anchor="start" x="301.5" y="-1078.5" font-family="Helvetica,sans-Serif" font-size="10.00">* setDirty()</text>
<text text-anchor="start" x="301.5" y="-1067.5" font-family="Helvetica,sans-Serif" font-size="10.00">* setDirty()</text>
<text text-anchor="start" x="301.5" y="-1056.5" font-family="Helvetica,sans-Serif" font-size="10.00">* getAttribArrayGeometry()</text>
<text text-anchor="start" x="301.5" y="-1045.5" font-family="Helvetica,sans-Serif" font-size="10.00">* getAttribArrayGeometry()</text>
</a>
</g>
</g>
<!-- Node1&#45;&gt;Node2 -->
<g id="edge1" class="edge">
<title>Node1&#45;&gt;Node2</title>
<path fill="none" stroke="midnightblue" d="M433.44,-1409.63C430.84,-1400.56 428.16,-1391.21 425.45,-1381.73"/>
<polygon fill="none" stroke="midnightblue" points="430.11,-1410.69 436.23,-1419.34 436.84,-1408.77 430.11,-1410.69"/>
</g>
<!-- Node14 -->
<g id="node14" class="node">
<title>Node14</title>
<g id="a_node14"><a xlink:href="classRa_1_1Engine_1_1Data_1_1VolumeObject.html" target="_top" xlink:title=" ">
<polygon fill="white" stroke="black" points="477.5,-1088 477.5,-1332 617.5,-1332 617.5,-1088 477.5,-1088"/>
<text text-anchor="start" x="485.5" y="-1320" font-family="Helvetica,sans-Serif" font-size="10.00">Ra::Engine::Data::Volume</text>
<text text-anchor="middle" x="547.5" y="-1309" font-family="Helvetica,sans-Serif" font-size="10.00">Object</text>
<polyline fill="none" stroke="black" points="477.5,-1302 617.5,-1302 "/>
<text text-anchor="middle" x="547.5" y="-1290" font-family="Helvetica,sans-Serif" font-size="10.00"> </text>
<polyline fill="none" stroke="black" points="477.5,-1283 617.5,-1283 "/>
<text text-anchor="start" x="485.5" y="-1271" font-family="Helvetica,sans-Serif" font-size="10.00">+ VolumeObject()</text>
<text text-anchor="start" x="485.5" y="-1260" font-family="Helvetica,sans-Serif" font-size="10.00">+ VolumeObject()</text>
<text text-anchor="start" x="485.5" y="-1249" font-family="Helvetica,sans-Serif" font-size="10.00">+ operator=()</text>
<text text-anchor="start" x="485.5" y="-1238" font-family="Helvetica,sans-Serif" font-size="10.00">+ ~VolumeObject()</text>
<text text-anchor="start" x="485.5" y="-1227" font-family="Helvetica,sans-Serif" font-size="10.00">+ getAbstractGeometry()</text>
<text text-anchor="start" x="485.5" y="-1216" font-family="Helvetica,sans-Serif" font-size="10.00">+ getAbstractGeometry()</text>
<text text-anchor="start" x="485.5" y="-1205" font-family="Helvetica,sans-Serif" font-size="10.00">+ getVolume()</text>
<text text-anchor="start" x="485.5" y="-1194" font-family="Helvetica,sans-Serif" font-size="10.00">+ getVolume()</text>
<text text-anchor="start" x="485.5" y="-1183" font-family="Helvetica,sans-Serif" font-size="10.00">+ loadGeometry()</text>
<text text-anchor="start" x="485.5" y="-1172" font-family="Helvetica,sans-Serif" font-size="10.00">+ loadGeometry()</text>
<text text-anchor="start" x="485.5" y="-1161" font-family="Helvetica,sans-Serif" font-size="10.00">+ setDirty()</text>
<text text-anchor="start" x="485.5" y="-1150" font-family="Helvetica,sans-Serif" font-size="10.00">+ getDataTexture()</text>
<text text-anchor="start" x="485.5" y="-1139" font-family="Helvetica,sans-Serif" font-size="10.00">+ updateGL()</text>
<text text-anchor="start" x="485.5" y="-1128" font-family="Helvetica,sans-Serif" font-size="10.00">+ render()</text>
<text text-anchor="start" x="485.5" y="-1117" font-family="Helvetica,sans-Serif" font-size="10.00">+ getNumFaces()</text>
<text text-anchor="start" x="485.5" y="-1106" font-family="Helvetica,sans-Serif" font-size="10.00">+ getNumVertices()</text>
<text text-anchor="start" x="485.5" y="-1095" font-family="Helvetica,sans-Serif" font-size="10.00">+ getName()</text>
</a>
</g>
</g>
<!-- Node1&#45;&gt;Node14 -->
<g id="edge16" class="edge">
<title>Node1&#45;&gt;Node14</title>
<path fill="none" stroke="midnightblue" d="M489.9,-1409.58C497.1,-1384.77 504.91,-1357.83 512.4,-1332.02"/>
<polygon fill="none" stroke="midnightblue" points="486.49,-1408.76 487.07,-1419.34 493.22,-1410.71 486.49,-1408.76"/>
</g>
<!-- Node3 -->
<g id="node3" class="node">
<title>Node3</title>
<g id="a_node3"><a xlink:href="classRa_1_1Engine_1_1Data_1_1CoreGeometryDisplayable.html" target="_top" xlink:title=" ">
<polygon fill="white" stroke="black" points="0,-277.5 0,-620.5 185,-620.5 185,-277.5 0,-277.5"/>
<text text-anchor="start" x="8" y="-608.5" font-family="Helvetica,sans-Serif" font-size="10.00">Ra::Engine::Data::CoreGeometry</text>
<text text-anchor="start" x="8" y="-597.5" font-family="Helvetica,sans-Serif" font-size="10.00">Displayable&lt; Core::Geometry</text>
<text text-anchor="middle" x="92.5" y="-586.5" font-family="Helvetica,sans-Serif" font-size="10.00">::PointCloud &gt;</text>
<polyline fill="none" stroke="black" points="0,-579.5 185,-579.5 "/>
<text text-anchor="start" x="8" y="-567.5" font-family="Helvetica,sans-Serif" font-size="10.00"># m_translationTable</text>
<text text-anchor="start" x="8" y="-556.5" font-family="Helvetica,sans-Serif" font-size="10.00"># m_mesh</text>
<polyline fill="none" stroke="black" points="0,-549.5 185,-549.5 "/>
<text text-anchor="start" x="8" y="-537.5" font-family="Helvetica,sans-Serif" font-size="10.00">+ CoreGeometryDisplayable()</text>
<text text-anchor="start" x="8" y="-526.5" font-family="Helvetica,sans-Serif" font-size="10.00">+ addAttrib()</text>
<text text-anchor="start" x="8" y="-515.5" font-family="Helvetica,sans-Serif" font-size="10.00">+ getNumVertices()</text>
<text text-anchor="start" x="8" y="-504.5" font-family="Helvetica,sans-Serif" font-size="10.00">+ loadGeometry()</text>
<text text-anchor="start" x="8" y="-493.5" font-family="Helvetica,sans-Serif" font-size="10.00">+ updateGL()</text>
<text text-anchor="start" x="8" y="-482.5" font-family="Helvetica,sans-Serif" font-size="10.00">+ setAttribNameCorrespondance()</text>
<text text-anchor="start" x="8" y="-471.5" font-family="Helvetica,sans-Serif" font-size="10.00">+ getAbstractGeometry()</text>
<text text-anchor="start" x="8" y="-460.5" font-family="Helvetica,sans-Serif" font-size="10.00">+ getAbstractGeometry()</text>
<text text-anchor="start" x="8" y="-449.5" font-family="Helvetica,sans-Serif" font-size="10.00">+ getAttribArrayGeometry()</text>
<text text-anchor="start" x="8" y="-438.5" font-family="Helvetica,sans-Serif" font-size="10.00">+ getAttribArrayGeometry()</text>
<text text-anchor="start" x="8" y="-427.5" font-family="Helvetica,sans-Serif" font-size="10.00">+ getCoreGeometry()</text>
<text text-anchor="start" x="8" y="-416.5" font-family="Helvetica,sans-Serif" font-size="10.00">+ getCoreGeometry()</text>
<text text-anchor="start" x="8" y="-405.5" font-family="Helvetica,sans-Serif" font-size="10.00"># updateGL_specific_impl()</text>
<text text-anchor="start" x="8" y="-394.5" font-family="Helvetica,sans-Serif" font-size="10.00"># loadGeometry_common()</text>
<text text-anchor="start" x="8" y="-383.5" font-family="Helvetica,sans-Serif" font-size="10.00"># setupCoreMeshObservers()</text>
<text text-anchor="start" x="8" y="-372.5" font-family="Helvetica,sans-Serif" font-size="10.00"># autoVertexAttribPointer()</text>
<text text-anchor="start" x="8" y="-361.5" font-family="Helvetica,sans-Serif" font-size="10.00"># addAttribObserver()</text>
<text text-anchor="start" x="8" y="-350.5" font-family="Helvetica,sans-Serif" font-size="10.00"># addToTranslationTable()</text>
<text text-anchor="start" x="8" y="-339.5" font-family="Helvetica,sans-Serif" font-size="10.00">* getAbstractGeometry()</text>
<text text-anchor="start" x="8" y="-328.5" font-family="Helvetica,sans-Serif" font-size="10.00">* getAbstractGeometry()</text>
<text text-anchor="start" x="8" y="-317.5" font-family="Helvetica,sans-Serif" font-size="10.00">* getAttribArrayGeometry()</text>
<text text-anchor="start" x="8" y="-306.5" font-family="Helvetica,sans-Serif" font-size="10.00">* getAttribArrayGeometry()</text>
<text text-anchor="start" x="8" y="-295.5" font-family="Helvetica,sans-Serif" font-size="10.00">* getCoreGeometry()</text>
<text text-anchor="start" x="8" y="-284.5" font-family="Helvetica,sans-Serif" font-size="10.00">* getCoreGeometry()</text>
</a>
</g>
</g>
<!-- Node2&#45;&gt;Node3 -->
<g id="edge2" class="edge">
<title>Node2&#45;&gt;Node3</title>
<path fill="none" stroke="midnightblue" d="M288.09,-1071.34C222.99,-961.91 139.31,-802.42 100.5,-650 98.08,-640.49 96.09,-630.64 94.48,-620.64"/>
<polygon fill="none" stroke="midnightblue" points="285.21,-1073.34 293.34,-1080.12 291.21,-1069.74 285.21,-1073.34"/>
</g>
<!-- Node5 -->
<g id="node5" class="node">
<title>Node5</title>
<g id="a_node5"><a xlink:href="classRa_1_1Engine_1_1Data_1_1CoreGeometryDisplayable.html" target="_top" xlink:title="Template class to manage the Displayable aspect of a Core Geomertry, such as TriangleMesh.">
<polygon fill="white" stroke="black" points="284,-668.5 284,-1000.5 469,-1000.5 469,-668.5 284,-668.5"/>
<text text-anchor="start" x="292" y="-988.5" font-family="Helvetica,sans-Serif" font-size="10.00">Ra::Engine::Data::CoreGeometry</text>
<text text-anchor="middle" x="376.5" y="-977.5" font-family="Helvetica,sans-Serif" font-size="10.00">Displayable&lt; T &gt;</text>
<polyline fill="none" stroke="black" points="284,-970.5 469,-970.5 "/>
<text text-anchor="start" x="292" y="-958.5" font-family="Helvetica,sans-Serif" font-size="10.00"># m_translationTable</text>
<text text-anchor="start" x="292" y="-947.5" font-family="Helvetica,sans-Serif" font-size="10.00"># m_mesh</text>
<polyline fill="none" stroke="black" points="284,-940.5 469,-940.5 "/>
<text text-anchor="start" x="292" y="-928.5" font-family="Helvetica,sans-Serif" font-size="10.00">+ CoreGeometryDisplayable()</text>
<text text-anchor="start" x="292" y="-917.5" font-family="Helvetica,sans-Serif" font-size="10.00">+ addAttrib()</text>
<text text-anchor="start" x="292" y="-906.5" font-family="Helvetica,sans-Serif" font-size="10.00">+ getNumVertices()</text>
<text text-anchor="start" x="292" y="-895.5" font-family="Helvetica,sans-Serif" font-size="10.00">+ loadGeometry()</text>
<text text-anchor="start" x="292" y="-884.5" font-family="Helvetica,sans-Serif" font-size="10.00">+ updateGL()</text>
<text text-anchor="start" x="292" y="-873.5" font-family="Helvetica,sans-Serif" font-size="10.00">+ setAttribNameCorrespondance()</text>
<text text-anchor="start" x="292" y="-862.5" font-family="Helvetica,sans-Serif" font-size="10.00">+ getAbstractGeometry()</text>
<text text-anchor="start" x="292" y="-851.5" font-family="Helvetica,sans-Serif" font-size="10.00">+ getAbstractGeometry()</text>
<text text-anchor="start" x="292" y="-840.5" font-family="Helvetica,sans-Serif" font-size="10.00">+ getAttribArrayGeometry()</text>
<text text-anchor="start" x="292" y="-829.5" font-family="Helvetica,sans-Serif" font-size="10.00">+ getAttribArrayGeometry()</text>
<text text-anchor="start" x="292" y="-818.5" font-family="Helvetica,sans-Serif" font-size="10.00">+ getCoreGeometry()</text>
<text text-anchor="start" x="292" y="-807.5" font-family="Helvetica,sans-Serif" font-size="10.00">+ getCoreGeometry()</text>
<text text-anchor="start" x="292" y="-796.5" font-family="Helvetica,sans-Serif" font-size="10.00"># updateGL_specific_impl()</text>
<text text-anchor="start" x="292" y="-785.5" font-family="Helvetica,sans-Serif" font-size="10.00"># loadGeometry_common()</text>
<text text-anchor="start" x="292" y="-774.5" font-family="Helvetica,sans-Serif" font-size="10.00"># setupCoreMeshObservers()</text>
<text text-anchor="start" x="292" y="-763.5" font-family="Helvetica,sans-Serif" font-size="10.00"># autoVertexAttribPointer()</text>
<text text-anchor="start" x="292" y="-752.5" font-family="Helvetica,sans-Serif" font-size="10.00"># addAttribObserver()</text>
<text text-anchor="start" x="292" y="-741.5" font-family="Helvetica,sans-Serif" font-size="10.00"># addToTranslationTable()</text>
<text text-anchor="start" x="292" y="-730.5" font-family="Helvetica,sans-Serif" font-size="10.00">* getAbstractGeometry()</text>
<text text-anchor="start" x="292" y="-719.5" font-family="Helvetica,sans-Serif" font-size="10.00">* getAbstractGeometry()</text>
<text text-anchor="start" x="292" y="-708.5" font-family="Helvetica,sans-Serif" font-size="10.00">* getAttribArrayGeometry()</text>
<text text-anchor="start" x="292" y="-697.5" font-family="Helvetica,sans-Serif" font-size="10.00">* getAttribArrayGeometry()</text>
<text text-anchor="start" x="292" y="-686.5" font-family="Helvetica,sans-Serif" font-size="10.00">* getCoreGeometry()</text>
<text text-anchor="start" x="292" y="-675.5" font-family="Helvetica,sans-Serif" font-size="10.00">* getCoreGeometry()</text>
</a>
</g>
</g>
<!-- Node2&#45;&gt;Node5 -->
<g id="edge4" class="edge">
<title>Node2&#45;&gt;Node5</title>
<path fill="none" stroke="midnightblue" d="M376.5,-1028.32C376.5,-1019.05 376.5,-1009.75 376.5,-1000.53"/>
<polygon fill="none" stroke="midnightblue" points="373,-1028.37 376.5,-1038.37 380,-1028.37 373,-1028.37"/>
</g>
<!-- Node13 -->
<g id="node13" class="node">
<title>Node13</title>
<g id="a_node13"><a xlink:href="classRa_1_1Engine_1_1Data_1_1IndexedAttribArrayDisplayable.html" target="_top" xlink:title=" ">
<polygon fill="white" stroke="black" points="487,-795 487,-874 640,-874 640,-795 487,-795"/>
<text text-anchor="start" x="495" y="-862" font-family="Helvetica,sans-Serif" font-size="10.00">Ra::Engine::Data::Indexed</text>
<text text-anchor="middle" x="563.5" y="-851" font-family="Helvetica,sans-Serif" font-size="10.00">AttribArrayDisplayable&lt; I &gt;</text>
<polyline fill="none" stroke="black" points="487,-844 640,-844 "/>
<text text-anchor="start" x="495" y="-832" font-family="Helvetica,sans-Serif" font-size="10.00"># m_cpu_indices</text>
<text text-anchor="start" x="495" y="-821" font-family="Helvetica,sans-Serif" font-size="10.00"># m_attribManager</text>
<polyline fill="none" stroke="black" points="487,-814 640,-814 "/>
<text text-anchor="start" x="495" y="-802" font-family="Helvetica,sans-Serif" font-size="10.00"># autoVertexAttribPointer()</text>
</a>
</g>
</g>
<!-- Node2&#45;&gt;Node13 -->
<g id="edge15" class="edge">
<title>Node2&#45;&gt;Node13</title>
<path fill="none" stroke="midnightblue" d="M464.22,-1033.79C494.21,-973.89 525,-912.4 544.17,-874.1"/>
<polygon fill="none" stroke="midnightblue" points="460.96,-1032.49 459.61,-1043 467.22,-1035.63 460.96,-1032.49"/>
</g>
<!-- Node4 -->
<g id="node4" class="node">
<title>Node4</title>
<g id="a_node4"><a xlink:href="classRa_1_1Engine_1_1Data_1_1PointCloud.html" target="_top" xlink:title="A PointCloud without indices.">
<polygon fill="white" stroke="black" points="14.5,-112 14.5,-213 170.5,-213 170.5,-112 14.5,-112"/>
<text text-anchor="middle" x="92.5" y="-201" font-family="Helvetica,sans-Serif" font-size="10.00">Ra::Engine::Data::PointCloud</text>
<polyline fill="none" stroke="black" points="14.5,-194 170.5,-194 "/>
<text text-anchor="middle" x="92.5" y="-182" font-family="Helvetica,sans-Serif" font-size="10.00"> </text>
<polyline fill="none" stroke="black" points="14.5,-175 170.5,-175 "/>
<text text-anchor="start" x="22.5" y="-163" font-family="Helvetica,sans-Serif" font-size="10.00">+ PointCloud()</text>
<text text-anchor="start" x="22.5" y="-152" font-family="Helvetica,sans-Serif" font-size="10.00">+ PointCloud()</text>
<text text-anchor="start" x="22.5" y="-141" font-family="Helvetica,sans-Serif" font-size="10.00">+ render()</text>
<text text-anchor="start" x="22.5" y="-130" font-family="Helvetica,sans-Serif" font-size="10.00">+ loadGeometry()</text>
<text text-anchor="start" x="22.5" y="-119" font-family="Helvetica,sans-Serif" font-size="10.00"># updateGL_specific_impl()</text>
</a>
</g>
</g>
<!-- Node3&#45;&gt;Node4 -->
<g id="edge3" class="edge">
<title>Node3&#45;&gt;Node4</title>
<path fill="none" stroke="midnightblue" d="M92.5,-267.16C92.5,-247.58 92.5,-229.06 92.5,-213.23"/>
<polygon fill="none" stroke="midnightblue" points="89,-267.17 92.5,-277.17 96,-267.17 89,-267.17"/>
</g>
<!-- Node5&#45;&gt;Node3 -->
<g id="edge14" class="edge">
<title>Node5&#45;&gt;Node3</title>
<path fill="none" stroke="orange" d="M274.86,-790.88C216.12,-760.61 146.68,-713.94 109.5,-650 104.11,-640.74 99.78,-630.81 96.31,-620.52"/>
<polygon fill="orange" stroke="orange" points="273.31,-794.02 283.81,-795.41 276.47,-787.77 273.31,-794.02"/>
<text text-anchor="middle" x="190" y="-642" font-family="Helvetica,sans-Serif" font-size="10.00"> &lt; Core::Geometry::PointCloud &gt;</text>
</g>
<!-- Node6 -->
<g id="node6" class="node">
<title>Node6</title>
<g id="a_node6"><a xlink:href="classRa_1_1Engine_1_1Data_1_1IndexedGeometry.html" target="_top" xlink:title=" ">
<polygon fill="white" stroke="black" points="214.5,-106.5 214.5,-218.5 368.5,-218.5 368.5,-106.5 214.5,-106.5"/>
<text text-anchor="start" x="222.5" y="-206.5" font-family="Helvetica,sans-Serif" font-size="10.00">Ra::Engine::Data::Indexed</text>
<text text-anchor="start" x="222.5" y="-195.5" font-family="Helvetica,sans-Serif" font-size="10.00">Geometry&lt; Core::Geometry</text>
<text text-anchor="middle" x="291.5" y="-184.5" font-family="Helvetica,sans-Serif" font-size="10.00">::TriangleMesh &gt;</text>
<polyline fill="none" stroke="black" points="214.5,-177.5 368.5,-177.5 "/>
<text text-anchor="middle" x="291.5" y="-165.5" font-family="Helvetica,sans-Serif" font-size="10.00"> </text>
<polyline fill="none" stroke="black" points="214.5,-158.5 368.5,-158.5 "/>
<text text-anchor="start" x="222.5" y="-146.5" font-family="Helvetica,sans-Serif" font-size="10.00">+ IndexedGeometry()</text>
<text text-anchor="start" x="222.5" y="-135.5" font-family="Helvetica,sans-Serif" font-size="10.00">+ render()</text>
<text text-anchor="start" x="222.5" y="-124.5" font-family="Helvetica,sans-Serif" font-size="10.00">+ loadGeometry()</text>
<text text-anchor="start" x="222.5" y="-113.5" font-family="Helvetica,sans-Serif" font-size="10.00"># updateGL_specific_impl()</text>
</a>
</g>
</g>
<!-- Node5&#45;&gt;Node6 -->
<g id="edge5" class="edge">
<title>Node5&#45;&gt;Node6</title>
<path fill="none" stroke="midnightblue" d="M348.7,-658.19C346.88,-645.61 345.13,-633.12 343.5,-621 324.01,-476.02 305.81,-304.53 297.02,-218.52"/>
<polygon fill="none" stroke="midnightblue" points="345.26,-658.89 350.17,-668.28 352.19,-657.88 345.26,-658.89"/>
</g>
<!-- Node8 -->
<g id="node8" class="node">
<title>Node8</title>
<g id="a_node8"><a xlink:href="classRa_1_1Engine_1_1Data_1_1IndexedGeometry.html" target="_top" xlink:title=" ">
<polygon fill="white" stroke="black" points="578.5,-106.5 578.5,-218.5 732.5,-218.5 732.5,-106.5 578.5,-106.5"/>
<text text-anchor="start" x="586.5" y="-206.5" font-family="Helvetica,sans-Serif" font-size="10.00">Ra::Engine::Data::Indexed</text>
<text text-anchor="start" x="586.5" y="-195.5" font-family="Helvetica,sans-Serif" font-size="10.00">Geometry&lt; Core::Geometry</text>
<text text-anchor="middle" x="655.5" y="-184.5" font-family="Helvetica,sans-Serif" font-size="10.00">::LineMesh &gt;</text>
<polyline fill="none" stroke="black" points="578.5,-177.5 732.5,-177.5 "/>
<text text-anchor="middle" x="655.5" y="-165.5" font-family="Helvetica,sans-Serif" font-size="10.00"> </text>
<polyline fill="none" stroke="black" points="578.5,-158.5 732.5,-158.5 "/>
<text text-anchor="start" x="586.5" y="-146.5" font-family="Helvetica,sans-Serif" font-size="10.00">+ IndexedGeometry()</text>
<text text-anchor="start" x="586.5" y="-135.5" font-family="Helvetica,sans-Serif" font-size="10.00">+ render()</text>
<text text-anchor="start" x="586.5" y="-124.5" font-family="Helvetica,sans-Serif" font-size="10.00">+ loadGeometry()</text>
<text text-anchor="start" x="586.5" y="-113.5" font-family="Helvetica,sans-Serif" font-size="10.00"># updateGL_specific_impl()</text>
</a>
</g>
</g>
<!-- Node5&#45;&gt;Node8 -->
<g id="edge7" class="edge">
<title>Node5&#45;&gt;Node8</title>
<path fill="none" stroke="midnightblue" d="M474.94,-671.81C475.79,-670.54 476.65,-669.26 477.5,-668 492.08,-646.42 499.77,-643.72 512.5,-621 597.19,-469.79 624.68,-429.18 657.5,-259 660,-246.05 660.75,-231.94 660.6,-218.63"/>
<polygon fill="none" stroke="midnightblue" points="471.89,-670.07 469.27,-680.33 477.72,-673.94 471.89,-670.07"/>
</g>
<!-- Node10 -->
<g id="node10" class="node">
<title>Node10</title>
<g id="a_node10"><a xlink:href="classRa_1_1Engine_1_1Data_1_1IndexedGeometry.html" target="_top" xlink:title="An engine mesh owning CoreGeometry, with indices.">
<polygon fill="white" stroke="black" points="353,-398.5 353,-499.5 504,-499.5 504,-398.5 353,-398.5"/>
<text text-anchor="start" x="361" y="-487.5" font-family="Helvetica,sans-Serif" font-size="10.00">Ra::Engine::Data::Indexed</text>
<text text-anchor="middle" x="428.5" y="-476.5" font-family="Helvetica,sans-Serif" font-size="10.00">Geometry&lt; T &gt;</text>
<polyline fill="none" stroke="black" points="353,-469.5 504,-469.5 "/>
<text text-anchor="middle" x="428.5" y="-457.5" font-family="Helvetica,sans-Serif" font-size="10.00"> </text>
<polyline fill="none" stroke="black" points="353,-450.5 504,-450.5 "/>
<text text-anchor="start" x="361" y="-438.5" font-family="Helvetica,sans-Serif" font-size="10.00">+ IndexedGeometry()</text>
<text text-anchor="start" x="361" y="-427.5" font-family="Helvetica,sans-Serif" font-size="10.00">+ render()</text>
<text text-anchor="start" x="361" y="-416.5" font-family="Helvetica,sans-Serif" font-size="10.00">+ loadGeometry()</text>
<text text-anchor="start" x="361" y="-405.5" font-family="Helvetica,sans-Serif" font-size="10.00"># updateGL_specific_impl()</text>
</a>
</g>
</g>
<!-- Node5&#45;&gt;Node10 -->
<g id="edge9" class="edge">
<title>Node5&#45;&gt;Node10</title>
<path fill="none" stroke="midnightblue" d="M400.25,-658.31C408.12,-600.28 416.27,-540.21 421.78,-499.58"/>
<polygon fill="none" stroke="midnightblue" points="396.77,-657.98 398.89,-668.36 403.7,-658.92 396.77,-657.98"/>
</g>
<!-- Node12 -->
<g id="node12" class="node">
<title>Node12</title>
<g id="a_node12"><a xlink:href="classRa_1_1Engine_1_1Data_1_1MultiIndexedGeometry.html" target="_top" xlink:title=" ">
<polygon fill="white" stroke="black" points="699,-398.5 699,-499.5 866,-499.5 866,-398.5 699,-398.5"/>
<text text-anchor="start" x="707" y="-487.5" font-family="Helvetica,sans-Serif" font-size="10.00">Ra::Engine::Data::MultiIndexed</text>
<text text-anchor="middle" x="782.5" y="-476.5" font-family="Helvetica,sans-Serif" font-size="10.00">Geometry&lt; T &gt;</text>
<polyline fill="none" stroke="black" points="699,-469.5 866,-469.5 "/>
<text text-anchor="start" x="707" y="-457.5" font-family="Helvetica,sans-Serif" font-size="10.00"># m_indices</text>
<polyline fill="none" stroke="black" points="699,-450.5 866,-450.5 "/>
<text text-anchor="start" x="707" y="-438.5" font-family="Helvetica,sans-Serif" font-size="10.00">+ MultiIndexedGeometry()</text>
<text text-anchor="start" x="707" y="-427.5" font-family="Helvetica,sans-Serif" font-size="10.00">+ render()</text>
<text text-anchor="start" x="707" y="-416.5" font-family="Helvetica,sans-Serif" font-size="10.00">+ loadGeometry()</text>
<text text-anchor="start" x="707" y="-405.5" font-family="Helvetica,sans-Serif" font-size="10.00"># updateGL_specific_impl()</text>
</a>
</g>
</g>
<!-- Node5&#45;&gt;Node12 -->
<g id="edge13" class="edge">
<title>Node5&#45;&gt;Node12</title>
<path fill="none" stroke="midnightblue" d="M477.23,-668.17C477.32,-668.11 477.41,-668.06 477.5,-668 516.94,-643.57 647.28,-676.3 685.5,-650 735.89,-615.32 761.06,-546.92 772.93,-499.84"/>
<polygon fill="none" stroke="midnightblue" points="475.45,-665.15 469.12,-673.65 479.37,-670.95 475.45,-665.15"/>
</g>
<!-- Node7 -->
<g id="node7" class="node">
<title>Node7</title>
<g id="a_node7"><a xlink:href="classRa_1_1Engine_1_1Data_1_1Mesh.html" target="_top" xlink:title="Mesh, own a Core::Geometry::TriangleMesh.">
<polygon fill="white" stroke="black" points="226.5,-0.5 226.5,-68.5 356.5,-68.5 356.5,-0.5 226.5,-0.5"/>
<text text-anchor="middle" x="291.5" y="-56.5" font-family="Helvetica,sans-Serif" font-size="10.00">Ra::Engine::Data::Mesh</text>
<polyline fill="none" stroke="black" points="226.5,-49.5 356.5,-49.5 "/>
<text text-anchor="middle" x="291.5" y="-37.5" font-family="Helvetica,sans-Serif" font-size="10.00"> </text>
<polyline fill="none" stroke="black" points="226.5,-30.5 356.5,-30.5 "/>
<text text-anchor="start" x="234.5" y="-18.5" font-family="Helvetica,sans-Serif" font-size="10.00">+ getNumFaces()</text>
<text text-anchor="start" x="234.5" y="-7.5" font-family="Helvetica,sans-Serif" font-size="10.00">+ loadGeometry()</text>
</a>
</g>
</g>
<!-- Node6&#45;&gt;Node7 -->
<g id="edge6" class="edge">
<title>Node6&#45;&gt;Node7</title>
<path fill="none" stroke="midnightblue" d="M291.5,-95.96C291.5,-86.48 291.5,-77.08 291.5,-68.62"/>
<polygon fill="none" stroke="midnightblue" points="288,-96.23 291.5,-106.23 295,-96.23 288,-96.23"/>
</g>
<!-- Node9 -->
<g id="node9" class="node">
<title>Node9</title>
<g id="a_node9"><a xlink:href="classRa_1_1Engine_1_1Data_1_1LineMesh.html" target="_top" xlink:title="LineMesh, own a Core::Geometry::LineMesh.">
<polygon fill="white" stroke="black" points="580.5,-0.5 580.5,-68.5 730.5,-68.5 730.5,-0.5 580.5,-0.5"/>
<text text-anchor="middle" x="655.5" y="-56.5" font-family="Helvetica,sans-Serif" font-size="10.00">Ra::Engine::Data::LineMesh</text>
<polyline fill="none" stroke="black" points="580.5,-49.5 730.5,-49.5 "/>
<text text-anchor="middle" x="655.5" y="-37.5" font-family="Helvetica,sans-Serif" font-size="10.00"> </text>
<polyline fill="none" stroke="black" points="580.5,-30.5 730.5,-30.5 "/>
<text text-anchor="start" x="588.5" y="-18.5" font-family="Helvetica,sans-Serif" font-size="10.00">+ LineMesh()</text>
<text text-anchor="start" x="588.5" y="-7.5" font-family="Helvetica,sans-Serif" font-size="10.00">+ LineMesh()</text>
</a>
</g>
</g>
<!-- Node8&#45;&gt;Node9 -->
<g id="edge8" class="edge">
<title>Node8&#45;&gt;Node9</title>
<path fill="none" stroke="midnightblue" d="M655.5,-95.96C655.5,-86.48 655.5,-77.08 655.5,-68.62"/>
<polygon fill="none" stroke="midnightblue" points="652,-96.23 655.5,-106.23 659,-96.23 652,-96.23"/>
</g>
<!-- Node10&#45;&gt;Node6 -->
<g id="edge11" class="edge">
<title>Node10&#45;&gt;Node6</title>
<path fill="none" stroke="orange" d="M388.24,-389.8C364.63,-353.52 335.75,-305.11 316.5,-259 311.18,-246.27 306.74,-232.1 303.14,-218.66"/>
<polygon fill="orange" stroke="orange" points="385.39,-391.84 393.81,-398.28 391.24,-388 385.39,-391.84"/>
<text text-anchor="start" x="316.5" y="-251" font-family="Helvetica,sans-Serif" font-size="10.00"> &lt; Core::Geometry::Triangle</text>
<text text-anchor="middle" x="384.5" y="-240" font-family="Helvetica,sans-Serif" font-size="10.00">Mesh &gt;</text>
</g>
<!-- Node10&#45;&gt;Node8 -->
<g id="edge12" class="edge">
<title>Node10&#45;&gt;Node8</title>
<path fill="none" stroke="orange" d="M435.43,-388.04C443.83,-341.25 462.26,-277.57 502.5,-237 519.13,-220.23 530.93,-228.63 552.5,-219 560.94,-215.23 569.63,-211.05 578.22,-206.72"/>
<polygon fill="orange" stroke="orange" points="431.96,-387.61 433.74,-398.06 438.86,-388.78 431.96,-387.61"/>
<text text-anchor="middle" x="580" y="-245.5" font-family="Helvetica,sans-Serif" font-size="10.00"> &lt; Core::Geometry::LineMesh &gt;</text>
</g>
<!-- Node11 -->
<g id="node11" class="node">
<title>Node11</title>
<g id="a_node11"><a xlink:href="classRa_1_1Engine_1_1Data_1_1GeneralMesh.html" target="_top" xlink:title=" ">
<polygon fill="white" stroke="black" points="393,-123 393,-202 544,-202 544,-123 393,-123"/>
<text text-anchor="start" x="401" y="-190" font-family="Helvetica,sans-Serif" font-size="10.00">Ra::Engine::Data::General</text>
<text text-anchor="middle" x="468.5" y="-179" font-family="Helvetica,sans-Serif" font-size="10.00">Mesh&lt; T &gt;</text>
<polyline fill="none" stroke="black" points="393,-172 544,-172 "/>
<text text-anchor="middle" x="468.5" y="-160" font-family="Helvetica,sans-Serif" font-size="10.00"> </text>
<polyline fill="none" stroke="black" points="393,-153 544,-153 "/>
<text text-anchor="start" x="401" y="-141" font-family="Helvetica,sans-Serif" font-size="10.00">+ getNumFaces()</text>
<text text-anchor="start" x="401" y="-130" font-family="Helvetica,sans-Serif" font-size="10.00"># updateGL_specific_impl()</text>
</a>
</g>
</g>
<!-- Node10&#45;&gt;Node11 -->
<g id="edge10" class="edge">
<title>Node10&#45;&gt;Node11</title>
<path fill="none" stroke="midnightblue" d="M436.9,-388.29C444.78,-332.19 456.35,-249.9 463.09,-202.01"/>
<polygon fill="none" stroke="midnightblue" points="433.39,-388.05 435.47,-398.44 440.33,-389.03 433.39,-388.05"/>
</g>
</g>
</svg>
        <g id="navigator" transform="translate(0 0)" fill="#404254">
                <rect fill="#f2f5e9" fill-opacity="0.5" stroke="#606060" stroke-width=".5" x="0" y="0" width="60" height="60"/>
                <use id="zoomplus" xlink:href="#zoomPlus" x="17" y="9" onmousedown="handleZoom(evt,'in')"/>
                <use id="zoomminus" xlink:href="#zoomMin" x="42" y="9" onmousedown="handleZoom(evt,'out')"/>
                <use id="reset" xlink:href="#resetDef" x="30" y="36" onmousedown="handleReset()"/>
                <g id="arrowUp" xlink:href="#dirArrow" transform="translate(30 24)" onmousedown="handlePan(0,-1)">
                  <use xlink:href="#rim" fill="#404040">
                        <set attributeName="fill" to="#808080" begin="arrowUp.mouseover" end="arrowUp.mouseout"/>
                  </use>
                  <path fill="none" stroke="white" stroke-width="1.5" d="M0,-3.0v7 M-2.5,-0.5L0,-3.0L2.5,-0.5"/>
                </g>
                <g id="arrowRight" xlink:href="#dirArrow" transform="rotate(90) translate(36 -43)" onmousedown="handlePan(1,0)">
                  <use xlink:href="#rim" fill="#404040">
                        <set attributeName="fill" to="#808080" begin="arrowRight.mouseover" end="arrowRight.mouseout"/>
                  </use>
                  <path fill="none" stroke="white" stroke-width="1.5" d="M0,-3.0v7 M-2.5,-0.5L0,-3.0L2.5,-0.5"/>
                </g>
                <g id="arrowDown" xlink:href="#dirArrow" transform="rotate(180) translate(-30 -48)" onmousedown="handlePan(0,1)">
                  <use xlink:href="#rim" fill="#404040">
                        <set attributeName="fill" to="#808080" begin="arrowDown.mouseover" end="arrowDown.mouseout"/>
                  </use>
                  <path fill="none" stroke="white" stroke-width="1.5" d="M0,-3.0v7 M-2.5,-0.5L0,-3.0L2.5,-0.5"/>
                </g>
                <g id="arrowLeft" xlink:href="#dirArrow" transform="rotate(270) translate(-36 17)" onmousedown="handlePan(-1,0)">
                  <use xlink:href="#rim" fill="#404040">
                        <set attributeName="fill" to="#808080" begin="arrowLeft.mouseover" end="arrowLeft.mouseout"/>
                  </use>
                  <path fill="none" stroke="white" stroke-width="1.5" d="M0,-3.0v7 M-2.5,-0.5L0,-3.0L2.5,-0.5"/>
                </g>
        </g>
        <svg viewBox="0 0 15 15" width="100%" height="30px" preserveAspectRatio="xMaxYMin meet">
         <g id="arrow_out" transform="scale(0.3 0.3)">
          <a xlink:href="classRa_1_1Engine_1_1Data_1_1Displayable__inherit__graph_org.svg" target="_base">
           <rect id="button" ry="5" rx="5" y="6" x="6" height="38" width="38"
                fill="#f2f5e9" fill-opacity="0.5" stroke="#606060" stroke-width="1.0"/>
           <path id="arrow"
             d="M 11.500037,31.436501 C 11.940474,20.09759 22.043105,11.32322 32.158766,21.979434 L 37.068811,17.246167 C 37.068811,17.246167 37.088388,32 37.088388,32 L 22.160133,31.978069 C 22.160133,31.978069 26.997745,27.140456 26.997745,27.140456 C 18.528582,18.264221 13.291696,25.230495 11.500037,31.436501 z"
             style="fill:#404040;"/>
          </a>
         </g>
        </svg>
</svg>
