<?xml version="1.0" encoding="UTF-8" standalone="no"?>
<!DOCTYPE svg PUBLIC "-//W3C//DTD SVG 1.1//EN"
 "http://www.w3.org/Graphics/SVG/1.1/DTD/svg11.dtd">
<!-- Generated by graphviz version 2.43.0 (0)
 -->
<!-- Title: CLI::App::name Pages: 1 -->
<svg width="585pt" height="129pt"
 viewBox="0.00 0.00 585.00 129.00" xmlns="http://www.w3.org/2000/svg" xmlns:xlink="http://www.w3.org/1999/xlink">
<g id="graph0" class="graph" transform="scale(1 1) rotate(0) translate(4 125)">
<title>CLI::App::name</title>
<polygon fill="white" stroke="transparent" points="-4,4 -4,-125 581,-125 581,4 -4,4"/>
<!-- Node1 -->
<g id="node1" class="node">
<title>Node1</title>
<g id="a_node1"><a xlink:title="Set a name for the app (empty will use parser to set the name)">
<polygon fill="#bfbfbf" stroke="black" points="0,-30 0,-49 90,-49 90,-30 0,-30"/>
<text text-anchor="middle" x="45" y="-37" font-family="Helvetica,sans-Serif" font-size="10.00">CLI::App::name</text>
</a>
</g>
</g>
<!-- Node2 -->
<g id="node2" class="node">
<title>Node2</title>
<g id="a_node2"><a xlink:href="classCLI_1_1App.html#aa3cd2a87739421210d0b2a457d38e5bc" target="_top" xlink:title=" ">
<polygon fill="white" stroke="black" points="134,-49.5 134,-79.5 260,-79.5 260,-49.5 134,-49.5"/>
<text text-anchor="start" x="142" y="-67.5" font-family="Helvetica,sans-Serif" font-size="10.00">CLI::App::_compare</text>
<text text-anchor="middle" x="197" y="-56.5" font-family="Helvetica,sans-Serif" font-size="10.00">_subcommand_names</text>
</a>
</g>
</g>
<!-- Node1&#45;&gt;Node2 -->
<g id="edge1" class="edge">
<title>Node1&#45;&gt;Node2</title>
<path fill="none" stroke="midnightblue" d="M90.19,-46.87C100.75,-48.63 112.3,-50.55 123.76,-52.46"/>
<polygon fill="midnightblue" stroke="midnightblue" points="123.35,-55.94 133.78,-54.13 124.5,-49.03 123.35,-55.94"/>
</g>
<!-- Node7 -->
<g id="node7" class="node">
<title>Node7</title>
<g id="a_node7"><a xlink:href="classCLI_1_1App.html#a2234b83d2e7e62866e73b3d698426406" target="_top" xlink:title=" ">
<polygon fill="white" stroke="black" points="126,-0.5 126,-30.5 268,-30.5 268,-0.5 126,-0.5"/>
<text text-anchor="start" x="134" y="-18.5" font-family="Helvetica,sans-Serif" font-size="10.00">CLI::App::_get_fallthrough</text>
<text text-anchor="middle" x="197" y="-7.5" font-family="Helvetica,sans-Serif" font-size="10.00">_parent</text>
</a>
</g>
</g>
<!-- Node1&#45;&gt;Node7 -->
<g id="edge6" class="edge">
<title>Node1&#45;&gt;Node7</title>
<path fill="none" stroke="midnightblue" d="M90.19,-32.43C98.36,-31.12 107.11,-29.72 115.95,-28.31"/>
<polygon fill="midnightblue" stroke="midnightblue" points="116.63,-31.74 125.95,-26.71 115.53,-24.83 116.63,-31.74"/>
</g>
<!-- Node3 -->
<g id="node3" class="node">
<title>Node3</title>
<g id="a_node3"><a xlink:href="classCLI_1_1App.html#a3ba6eb33f3ee9cd1a126385fa44f2c16" target="_top" xlink:title="Check the name, case insensitive and underscore insensitive if set.">
<polygon fill="white" stroke="black" points="304,-74 304,-93 428,-93 428,-74 304,-74"/>
<text text-anchor="middle" x="366" y="-81" font-family="Helvetica,sans-Serif" font-size="10.00">CLI::App::check_name</text>
</a>
</g>
</g>
<!-- Node2&#45;&gt;Node3 -->
<g id="edge2" class="edge">
<title>Node2&#45;&gt;Node3</title>
<path fill="none" stroke="midnightblue" d="M260.18,-71.57C271.12,-72.82 282.58,-74.12 293.73,-75.39"/>
<polygon fill="midnightblue" stroke="midnightblue" points="293.54,-78.89 303.87,-76.55 294.33,-71.94 293.54,-78.89"/>
</g>
<!-- Node6 -->
<g id="node6" class="node">
<title>Node6</title>
<g id="a_node6"><a xlink:href="classCLI_1_1App.html#ae0ce655e69580d2d8439a0f3c993821c" target="_top" xlink:title="Get the name of the current app.">
<polygon fill="white" stroke="black" points="310.5,-36 310.5,-55 421.5,-55 421.5,-36 310.5,-36"/>
<text text-anchor="middle" x="366" y="-43" font-family="Helvetica,sans-Serif" font-size="10.00">CLI::App::get_name</text>
</a>
</g>
</g>
<!-- Node2&#45;&gt;Node6 -->
<g id="edge5" class="edge">
<title>Node2&#45;&gt;Node6</title>
<path fill="none" stroke="midnightblue" d="M260.18,-57.43C273.34,-55.93 287.25,-54.35 300.49,-52.84"/>
<polygon fill="midnightblue" stroke="midnightblue" points="300.91,-56.31 310.46,-51.71 300.12,-49.36 300.91,-56.31"/>
</g>
<!-- Node4 -->
<g id="node4" class="node">
<title>Node4</title>
<g id="a_node4"><a xlink:href="namespaceCLI_1_1detail.html#a5359a7a0e33366a12e15523b100f591a" target="_top" xlink:title="remove underscores from a string">
<polygon fill="white" stroke="black" points="466,-90.5 466,-120.5 575,-120.5 575,-90.5 466,-90.5"/>
<text text-anchor="start" x="474" y="-108.5" font-family="Helvetica,sans-Serif" font-size="10.00">CLI::detail::remove</text>
<text text-anchor="middle" x="520.5" y="-97.5" font-family="Helvetica,sans-Serif" font-size="10.00">_underscore</text>
</a>
</g>
</g>
<!-- Node3&#45;&gt;Node4 -->
<g id="edge3" class="edge">
<title>Node3&#45;&gt;Node4</title>
<path fill="none" stroke="midnightblue" d="M428.15,-92.32C437.18,-93.62 446.51,-94.97 455.59,-96.28"/>
<polygon fill="midnightblue" stroke="midnightblue" points="455.32,-99.78 465.72,-97.74 456.32,-92.85 455.32,-99.78"/>
</g>
<!-- Node5 -->
<g id="node5" class="node">
<title>Node5</title>
<g id="a_node5"><a xlink:href="namespaceCLI_1_1detail.html#ae83709ec148057ec53df4383645727e9" target="_top" xlink:title="Return a lower case version of a string.">
<polygon fill="white" stroke="black" points="464,-52 464,-71 577,-71 577,-52 464,-52"/>
<text text-anchor="middle" x="520.5" y="-59" font-family="Helvetica,sans-Serif" font-size="10.00">CLI::detail::to_lower</text>
</a>
</g>
</g>
<!-- Node3&#45;&gt;Node5 -->
<g id="edge4" class="edge">
<title>Node3&#45;&gt;Node5</title>
<path fill="none" stroke="midnightblue" d="M428.15,-74.68C436.61,-73.46 445.32,-72.2 453.86,-70.97"/>
<polygon fill="midnightblue" stroke="midnightblue" points="454.37,-74.43 463.77,-69.54 453.37,-67.5 454.37,-74.43"/>
</g>
</g>
</svg>
