<?xml version="1.0" encoding="UTF-8" standalone="no"?>
<!DOCTYPE svg PUBLIC "-//W3C//DTD SVG 1.1//EN"
 "http://www.w3.org/Graphics/SVG/1.1/DTD/svg11.dtd">
<!-- Generated by graphviz version 2.43.0 (0)
 -->
<!-- Title: Ra::Core::Asset::LightData Pages: 1 -->
<!--zoomable 1316 -->
<svg id="main" version="1.1" xmlns="http://www.w3.org/2000/svg" xmlns:xlink="http://www.w3.org/1999/xlink" xml:space="preserve" onload="init(evt)">
<style type="text/css"><![CDATA[
.edge:hover path { stroke: red; }
.edge:hover polygon { stroke: red; fill: red; }
]]></style>
<script type="text/javascript"><![CDATA[
var edges = document.getElementsByTagName('g');
if (edges && edges.length) {
  for (var i=0;i<edges.length;i++) {
    if (edges[i].id.substr(0,4)=='edge') {
      edges[i].setAttribute('class','edge');
    }
  }
}
]]></script>
        <defs>
                <circle id="rim" cx="0" cy="0" r="7"/>
                <circle id="rim2" cx="0" cy="0" r="3.5"/>
                <g id="zoomPlus">
                        <use xlink:href="#rim" fill="#404040">
                                <set attributeName="fill" to="#808080" begin="zoomplus.mouseover" end="zoomplus.mouseout"/>
                        </use>
                        <path d="M-4,0h8M0,-4v8" fill="none" stroke="white" stroke-width="1.5" pointer-events="none"/>
                </g>
                <g id="zoomMin">
                        <use xlink:href="#rim" fill="#404040">
                                <set attributeName="fill" to="#808080" begin="zoomminus.mouseover" end="zoomminus.mouseout"/>
                        </use>
                        <path d="M-4,0h8" fill="none" stroke="white" stroke-width="1.5" pointer-events="none"/>
                </g>
                <g id="dirArrow">
                        <path fill="none" stroke="white" stroke-width="1.5" d="M0,-3.0v7 M-2.5,-0.5L0,-3.0L2.5,-0.5"/>
                </g>
               <g id="resetDef">
                       <use xlink:href="#rim2" fill="#404040">
                               <set attributeName="fill" to="#808080" begin="reset.mouseover" end="reset.mouseout"/>
                       </use>
               </g>
        </defs>

<script type="text/javascript">
var viewWidth = 1417;
var viewHeight = 1316;
var sectionId = 'dynsection-1';
</script>
<script xlink:href="svgpan.js"/>
<svg id="graph" class="graph">
<g id="viewport">
<title>Ra::Core::Asset::LightData</title>
<polygon fill="white" stroke="transparent" points="-4,4 -4,-1312 1412.5,-1312 1412.5,4 -4,4"/>
<!-- Node1 -->
<g id="node1" class="node">
<title>Node1</title>
<g id="a_node1"><a xlink:title=" ">
<polygon fill="#bfbfbf" stroke="black" points="569.5,-0.5 569.5,-222.5 713.5,-222.5 713.5,-0.5 569.5,-0.5"/>
<text text-anchor="middle" x="641.5" y="-210.5" font-family="Helvetica,sans-Serif" font-size="10.00">Ra::Core::Asset::LightData</text>
<polyline fill="none" stroke="black" points="569.5,-203.5 713.5,-203.5 "/>
<text text-anchor="middle" x="641.5" y="-191.5" font-family="Helvetica,sans-Serif" font-size="10.00"> </text>
<polyline fill="none" stroke="black" points="569.5,-184.5 713.5,-184.5 "/>
<text text-anchor="start" x="577.5" y="-172.5" font-family="Helvetica,sans-Serif" font-size="10.00">+ LightData()</text>
<text text-anchor="start" x="577.5" y="-161.5" font-family="Helvetica,sans-Serif" font-size="10.00">+ LightData()</text>
<text text-anchor="start" x="577.5" y="-150.5" font-family="Helvetica,sans-Serif" font-size="10.00">+ ~LightData()</text>
<text text-anchor="start" x="577.5" y="-139.5" font-family="Helvetica,sans-Serif" font-size="10.00">+ setName()</text>
<text text-anchor="start" x="577.5" y="-128.5" font-family="Helvetica,sans-Serif" font-size="10.00">+ getFrame()</text>
<text text-anchor="start" x="577.5" y="-117.5" font-family="Helvetica,sans-Serif" font-size="10.00">+ setFrame()</text>
<text text-anchor="start" x="577.5" y="-106.5" font-family="Helvetica,sans-Serif" font-size="10.00">+ setLight()</text>
<text text-anchor="start" x="577.5" y="-95.5" font-family="Helvetica,sans-Serif" font-size="10.00">+ setLight()</text>
<text text-anchor="start" x="577.5" y="-84.5" font-family="Helvetica,sans-Serif" font-size="10.00">+ setLight()</text>
<text text-anchor="start" x="577.5" y="-73.5" font-family="Helvetica,sans-Serif" font-size="10.00">+ setLight()</text>
<text text-anchor="start" x="577.5" y="-62.5" font-family="Helvetica,sans-Serif" font-size="10.00">+ getType()</text>
<text text-anchor="start" x="577.5" y="-51.5" font-family="Helvetica,sans-Serif" font-size="10.00">+ isPointLight()</text>
<text text-anchor="start" x="577.5" y="-40.5" font-family="Helvetica,sans-Serif" font-size="10.00">+ isSpotLight()</text>
<text text-anchor="start" x="577.5" y="-29.5" font-family="Helvetica,sans-Serif" font-size="10.00">+ isDirectionalLight()</text>
<text text-anchor="start" x="577.5" y="-18.5" font-family="Helvetica,sans-Serif" font-size="10.00">+ isAreaLight()</text>
<text text-anchor="start" x="577.5" y="-7.5" font-family="Helvetica,sans-Serif" font-size="10.00">+ displayInfo()</text>
</a>
</g>
</g>
<!-- Node2 -->
<g id="node2" class="node">
<title>Node2</title>
<g id="a_node2"><a xlink:href="classRa_1_1Core_1_1Asset_1_1AssetData.html" target="_top" xlink:title=" ">
<polygon fill="white" stroke="black" points="0,-435.5 0,-525.5 147,-525.5 147,-435.5 0,-435.5"/>
<text text-anchor="middle" x="73.5" y="-513.5" font-family="Helvetica,sans-Serif" font-size="10.00">Ra::Core::Asset::AssetData</text>
<polyline fill="none" stroke="black" points="0,-506.5 147,-506.5 "/>
<text text-anchor="middle" x="73.5" y="-494.5" font-family="Helvetica,sans-Serif" font-size="10.00"> </text>
<polyline fill="none" stroke="black" points="0,-487.5 147,-487.5 "/>
<text text-anchor="start" x="8" y="-475.5" font-family="Helvetica,sans-Serif" font-size="10.00">+ AssetData()</text>
<text text-anchor="start" x="8" y="-464.5" font-family="Helvetica,sans-Serif" font-size="10.00">+ AssetData()</text>
<text text-anchor="start" x="8" y="-453.5" font-family="Helvetica,sans-Serif" font-size="10.00">+ ~AssetData()</text>
<text text-anchor="start" x="8" y="-442.5" font-family="Helvetica,sans-Serif" font-size="10.00">+ getName()</text>
</a>
</g>
</g>
<!-- Node2&#45;&gt;Node1 -->
<g id="edge1" class="edge">
<title>Node2&#45;&gt;Node1</title>
<path fill="none" stroke="midnightblue" d="M81.75,-425.18C91.67,-378.02 112.79,-311.03 156.5,-270 272.68,-160.94 465.26,-127.38 569.36,-117.06"/>
<polygon fill="none" stroke="midnightblue" points="78.27,-424.73 79.75,-435.22 85.14,-426.1 78.27,-424.73"/>
</g>
<!-- Node3 -->
<g id="node3" class="node">
<title>Node3</title>
<g id="a_node3"><a xlink:title="STL class.">
<polygon fill="white" stroke="#bfbfbf" points="41,-931 41,-988 106,-988 106,-931 41,-931"/>
<text text-anchor="middle" x="73.5" y="-976" font-family="Helvetica,sans-Serif" font-size="10.00">std::string</text>
<polyline fill="none" stroke="#bfbfbf" points="41,-969 106,-969 "/>
<text text-anchor="middle" x="73.5" y="-957" font-family="Helvetica,sans-Serif" font-size="10.00"> </text>
<polyline fill="none" stroke="#bfbfbf" points="41,-950 106,-950 "/>
<text text-anchor="middle" x="73.5" y="-938" font-family="Helvetica,sans-Serif" font-size="10.00"> </text>
</a>
</g>
</g>
<!-- Node3&#45;&gt;Node2 -->
<g id="edge2" class="edge">
<title>Node3&#45;&gt;Node2</title>
<path fill="none" stroke="#404040" d="M73.5,-930.79C73.5,-854.54 73.5,-640.44 73.5,-537.78"/>
<polygon fill="none" stroke="#404040" points="73.5,-537.54 69.5,-531.54 73.5,-525.54 77.5,-531.54 73.5,-537.54"/>
<text text-anchor="middle" x="101" y="-717.5" font-family="Helvetica,sans-Serif" font-size="10.00"> #m_name</text>
</g>
<!-- Node4 -->
<g id="node4" class="node">
<title>Node4</title>
<g id="a_node4"><a xlink:title="STL class.">
<polygon fill="white" stroke="#bfbfbf" points="21.5,-1239.5 21.5,-1307.5 125.5,-1307.5 125.5,-1239.5 21.5,-1239.5"/>
<text text-anchor="start" x="29.5" y="-1295.5" font-family="Helvetica,sans-Serif" font-size="10.00">std::basic_string&lt;</text>
<text text-anchor="middle" x="73.5" y="-1284.5" font-family="Helvetica,sans-Serif" font-size="10.00"> char &gt;</text>
<polyline fill="none" stroke="#bfbfbf" points="21.5,-1277.5 125.5,-1277.5 "/>
<text text-anchor="middle" x="73.5" y="-1265.5" font-family="Helvetica,sans-Serif" font-size="10.00"> </text>
<polyline fill="none" stroke="#bfbfbf" points="21.5,-1258.5 125.5,-1258.5 "/>
<text text-anchor="middle" x="73.5" y="-1246.5" font-family="Helvetica,sans-Serif" font-size="10.00"> </text>
</a>
</g>
</g>
<!-- Node4&#45;&gt;Node3 -->
<g id="edge3" class="edge">
<title>Node4&#45;&gt;Node3</title>
<path fill="none" stroke="midnightblue" d="M73.5,-1229.07C73.5,-1163.92 73.5,-1042.73 73.5,-988.27"/>
<polygon fill="none" stroke="midnightblue" points="70,-1229.41 73.5,-1239.41 77,-1229.41 70,-1229.41"/>
</g>
<!-- Node5 -->
<g id="node5" class="node">
<title>Node5</title>
<g id="a_node5"><a xlink:href="structRa_1_1Core_1_1Asset_1_1LightData_1_1DirLight.html" target="_top" xlink:title=" ">
<polygon fill="white" stroke="black" points="165.5,-446.5 165.5,-514.5 309.5,-514.5 309.5,-446.5 165.5,-446.5"/>
<text text-anchor="start" x="173.5" y="-502.5" font-family="Helvetica,sans-Serif" font-size="10.00">Ra::Core::Asset::LightData</text>
<text text-anchor="middle" x="237.5" y="-491.5" font-family="Helvetica,sans-Serif" font-size="10.00">::DirLight</text>
<polyline fill="none" stroke="black" points="165.5,-484.5 309.5,-484.5 "/>
<text text-anchor="middle" x="237.5" y="-472.5" font-family="Helvetica,sans-Serif" font-size="10.00"> </text>
<polyline fill="none" stroke="black" points="165.5,-465.5 309.5,-465.5 "/>
<text text-anchor="middle" x="237.5" y="-453.5" font-family="Helvetica,sans-Serif" font-size="10.00"> </text>
</a>
</g>
</g>
<!-- Node5&#45;&gt;Node1 -->
<g id="edge4" class="edge">
<title>Node5&#45;&gt;Node1</title>
<path fill="none" stroke="#404040" d="M242.54,-446.48C250.96,-401.52 271.81,-320.83 318.5,-270 382.97,-199.82 485.5,-157.32 557.71,-134.45"/>
<polygon fill="none" stroke="#404040" points="558.02,-134.35 562.57,-128.76 569.48,-130.81 564.93,-136.4 558.02,-134.35"/>
<text text-anchor="middle" x="377" y="-244" font-family="Helvetica,sans-Serif" font-size="10.00"> +m_dirlight</text>
</g>
<!-- Node6 -->
<g id="node6" class="node">
<title>Node6</title>
<g id="a_node6"><a xlink:title=" ">
<polygon fill="white" stroke="#bfbfbf" points="507.5,-931 507.5,-988 623.5,-988 623.5,-931 507.5,-931"/>
<text text-anchor="middle" x="565.5" y="-976" font-family="Helvetica,sans-Serif" font-size="10.00">Matrix&lt; float, 3, 1 &gt;</text>
<polyline fill="none" stroke="#bfbfbf" points="507.5,-969 623.5,-969 "/>
<text text-anchor="middle" x="565.5" y="-957" font-family="Helvetica,sans-Serif" font-size="10.00"> </text>
<polyline fill="none" stroke="#bfbfbf" points="507.5,-950 623.5,-950 "/>
<text text-anchor="middle" x="565.5" y="-938" font-family="Helvetica,sans-Serif" font-size="10.00"> </text>
</a>
</g>
</g>
<!-- Node6&#45;&gt;Node5 -->
<g id="edge5" class="edge">
<title>Node6&#45;&gt;Node5</title>
<path fill="none" stroke="#404040" d="M560.98,-930.72C552.36,-886.36 529.47,-799.39 476.5,-749 422.3,-697.44 371.85,-743.44 318.5,-691 273.19,-646.46 252.74,-573.75 243.87,-526.77"/>
<polygon fill="none" stroke="#404040" points="243.84,-526.64 238.86,-521.43 241.75,-514.83 246.74,-520.04 243.84,-526.64"/>
<text text-anchor="middle" x="479" y="-717.5" font-family="Helvetica,sans-Serif" font-size="10.00"> +direction</text>
</g>
<!-- Node8 -->
<g id="node8" class="node">
<title>Node8</title>
<g id="a_node8"><a xlink:href="structRa_1_1Core_1_1Asset_1_1LightData_1_1SpotLight.html" target="_top" xlink:title=" ">
<polygon fill="white" stroke="black" points="447.5,-446.5 447.5,-514.5 591.5,-514.5 591.5,-446.5 447.5,-446.5"/>
<text text-anchor="start" x="455.5" y="-502.5" font-family="Helvetica,sans-Serif" font-size="10.00">Ra::Core::Asset::LightData</text>
<text text-anchor="middle" x="519.5" y="-491.5" font-family="Helvetica,sans-Serif" font-size="10.00">::SpotLight</text>
<polyline fill="none" stroke="black" points="447.5,-484.5 591.5,-484.5 "/>
<text text-anchor="middle" x="519.5" y="-472.5" font-family="Helvetica,sans-Serif" font-size="10.00"> </text>
<polyline fill="none" stroke="black" points="447.5,-465.5 591.5,-465.5 "/>
<text text-anchor="middle" x="519.5" y="-453.5" font-family="Helvetica,sans-Serif" font-size="10.00"> </text>
</a>
</g>
</g>
<!-- Node6&#45;&gt;Node8 -->
<g id="edge9" class="edge">
<title>Node6&#45;&gt;Node8</title>
<path fill="none" stroke="#404040" d="M558.22,-930.74C547.46,-888.14 527.79,-803.91 520.5,-731 513.39,-659.88 515.03,-576.78 517.09,-526.69"/>
<polygon fill="none" stroke="#404040" points="517.09,-526.69 513.36,-520.52 517.62,-514.7 521.36,-520.87 517.09,-526.69"/>
<text text-anchor="middle" x="548" y="-723" font-family="Helvetica,sans-Serif" font-size="10.00"> +direction</text>
<text text-anchor="middle" x="548" y="-712" font-family="Helvetica,sans-Serif" font-size="10.00">+position</text>
</g>
<!-- Node16 -->
<g id="node16" class="node">
<title>Node16</title>
<g id="a_node16"><a xlink:href="structRa_1_1Core_1_1Asset_1_1LightData_1_1PointLight.html" target="_top" xlink:title=" ">
<polygon fill="white" stroke="black" points="691.5,-446.5 691.5,-514.5 835.5,-514.5 835.5,-446.5 691.5,-446.5"/>
<text text-anchor="start" x="699.5" y="-502.5" font-family="Helvetica,sans-Serif" font-size="10.00">Ra::Core::Asset::LightData</text>
<text text-anchor="middle" x="763.5" y="-491.5" font-family="Helvetica,sans-Serif" font-size="10.00">::PointLight</text>
<polyline fill="none" stroke="black" points="691.5,-484.5 835.5,-484.5 "/>
<text text-anchor="middle" x="763.5" y="-472.5" font-family="Helvetica,sans-Serif" font-size="10.00"> </text>
<polyline fill="none" stroke="black" points="691.5,-465.5 835.5,-465.5 "/>
<text text-anchor="middle" x="763.5" y="-453.5" font-family="Helvetica,sans-Serif" font-size="10.00"> </text>
</a>
</g>
</g>
<!-- Node6&#45;&gt;Node16 -->
<g id="edge18" class="edge">
<title>Node6&#45;&gt;Node16</title>
<path fill="none" stroke="#404040" d="M578.12,-930.98C597.57,-888.34 635.85,-803.67 666.5,-731 673.94,-713.36 675.49,-708.82 682.5,-691 704.87,-634.11 730.22,-568.34 746.51,-525.89"/>
<polygon fill="none" stroke="#404040" points="746.55,-525.77 744.97,-518.74 750.85,-514.57 752.44,-521.6 746.55,-525.77"/>
<text text-anchor="middle" x="700" y="-717.5" font-family="Helvetica,sans-Serif" font-size="10.00"> +position</text>
</g>
<!-- Node18 -->
<g id="node18" class="node">
<title>Node18</title>
<g id="a_node18"><a xlink:href="structRa_1_1Core_1_1Asset_1_1LightData_1_1AreaLight.html" target="_top" xlink:title=" ">
<polygon fill="white" stroke="black" points="853.5,-446.5 853.5,-514.5 997.5,-514.5 997.5,-446.5 853.5,-446.5"/>
<text text-anchor="start" x="861.5" y="-502.5" font-family="Helvetica,sans-Serif" font-size="10.00">Ra::Core::Asset::LightData</text>
<text text-anchor="middle" x="925.5" y="-491.5" font-family="Helvetica,sans-Serif" font-size="10.00">::AreaLight</text>
<polyline fill="none" stroke="black" points="853.5,-484.5 997.5,-484.5 "/>
<text text-anchor="middle" x="925.5" y="-472.5" font-family="Helvetica,sans-Serif" font-size="10.00"> </text>
<polyline fill="none" stroke="black" points="853.5,-465.5 997.5,-465.5 "/>
<text text-anchor="middle" x="925.5" y="-453.5" font-family="Helvetica,sans-Serif" font-size="10.00"> </text>
</a>
</g>
</g>
<!-- Node6&#45;&gt;Node18 -->
<g id="edge23" class="edge">
<title>Node6&#45;&gt;Node18</title>
<path fill="none" stroke="#404040" d="M569.92,-930.94C578.9,-884.83 603.93,-792.81 665.5,-749 724.17,-707.26 768.31,-773.4 826.5,-731 860.65,-706.12 896.09,-591.33 913.86,-526.46"/>
<polygon fill="none" stroke="#404040" points="913.94,-526.17 911.64,-519.33 917.07,-514.58 919.36,-521.42 913.94,-526.17"/>
<text text-anchor="middle" x="869" y="-717.5" font-family="Helvetica,sans-Serif" font-size="10.00"> +position</text>
</g>
<!-- Node7 -->
<g id="node7" class="node">
<title>Node7</title>
<g id="a_node7"><a xlink:title=" ">
<polygon fill="white" stroke="#bfbfbf" points="328,-452 328,-509 429,-509 429,-452 328,-452"/>
<text text-anchor="middle" x="378.5" y="-497" font-family="Helvetica,sans-Serif" font-size="10.00">anonymous:+@1</text>
<polyline fill="none" stroke="#bfbfbf" points="328,-490 429,-490 "/>
<text text-anchor="middle" x="378.5" y="-478" font-family="Helvetica,sans-Serif" font-size="10.00"> </text>
<polyline fill="none" stroke="#bfbfbf" points="328,-471 429,-471 "/>
<text text-anchor="middle" x="378.5" y="-459" font-family="Helvetica,sans-Serif" font-size="10.00"> </text>
</a>
</g>
</g>
<!-- Node7&#45;&gt;Node1 -->
<g id="edge6" class="edge">
<title>Node7&#45;&gt;Node1</title>
<path fill="none" stroke="#404040" d="M380.93,-451.75C385.79,-409.31 399.8,-327.18 438.5,-270 469.33,-224.44 517.57,-186.22 559.29,-158.85"/>
<polygon fill="none" stroke="#404040" points="559.37,-158.79 562.25,-152.18 569.46,-152.3 566.58,-158.91 559.37,-158.79"/>
<text text-anchor="middle" x="474.5" y="-244" font-family="Helvetica,sans-Serif" font-size="10.00"> +@1</text>
</g>
<!-- Node8&#45;&gt;Node1 -->
<g id="edge7" class="edge">
<title>Node8&#45;&gt;Node1</title>
<path fill="none" stroke="#404040" d="M522.77,-446.16C528.13,-399.17 540.98,-311.35 567.5,-241 568.39,-238.65 569.31,-236.29 570.28,-233.92"/>
<polygon fill="none" stroke="#404040" points="570.29,-233.88 568.98,-226.79 575.03,-222.85 576.34,-229.94 570.29,-233.88"/>
<text text-anchor="middle" x="602.5" y="-244" font-family="Helvetica,sans-Serif" font-size="10.00"> +m_spotlight</text>
</g>
<!-- Node9 -->
<g id="node9" class="node">
<title>Node9</title>
<g id="a_node9"><a xlink:href="classfloat.html" target="_top" xlink:title=" ">
<polygon fill="white" stroke="black" points="470.5,-1245 470.5,-1302 508.5,-1302 508.5,-1245 470.5,-1245"/>
<text text-anchor="middle" x="489.5" y="-1290" font-family="Helvetica,sans-Serif" font-size="10.00">float</text>
<polyline fill="none" stroke="black" points="470.5,-1283 508.5,-1283 "/>
<text text-anchor="middle" x="489.5" y="-1271" font-family="Helvetica,sans-Serif" font-size="10.00"> </text>
<polyline fill="none" stroke="black" points="470.5,-1264 508.5,-1264 "/>
<text text-anchor="middle" x="489.5" y="-1252" font-family="Helvetica,sans-Serif" font-size="10.00"> </text>
</a>
</g>
</g>
<!-- Node9&#45;&gt;Node8 -->
<g id="edge8" class="edge">
<title>Node9&#45;&gt;Node8</title>
<path fill="none" stroke="#404040" d="M470.33,-1245.27C457.53,-1225.42 441.77,-1197.32 434.5,-1170 381.83,-971.93 352.73,-901.72 422.5,-709 426.05,-699.21 432.2,-699.96 437.5,-691 469.02,-637.68 492.96,-570.02 506.61,-526.25"/>
<polygon fill="none" stroke="#404040" points="506.67,-526.05 504.6,-519.14 510.19,-514.57 512.25,-521.48 506.67,-526.05"/>
<text text-anchor="middle" x="466.5" y="-962.5" font-family="Helvetica,sans-Serif" font-size="10.00"> +innerAngle</text>
<text text-anchor="middle" x="466.5" y="-951.5" font-family="Helvetica,sans-Serif" font-size="10.00">+outerAngle</text>
</g>
<!-- Node10 -->
<g id="node10" class="node">
<title>Node10</title>
<g id="a_node10"><a xlink:href="structRa_1_1Core_1_1Asset_1_1LightData_1_1LightAttenuation.html" target="_top" xlink:title=" ">
<polygon fill="white" stroke="black" points="674.5,-925.5 674.5,-993.5 818.5,-993.5 818.5,-925.5 674.5,-925.5"/>
<text text-anchor="start" x="682.5" y="-981.5" font-family="Helvetica,sans-Serif" font-size="10.00">Ra::Core::Asset::LightData</text>
<text text-anchor="middle" x="746.5" y="-970.5" font-family="Helvetica,sans-Serif" font-size="10.00">::LightAttenuation</text>
<polyline fill="none" stroke="black" points="674.5,-963.5 818.5,-963.5 "/>
<text text-anchor="middle" x="746.5" y="-951.5" font-family="Helvetica,sans-Serif" font-size="10.00"> </text>
<polyline fill="none" stroke="black" points="674.5,-944.5 818.5,-944.5 "/>
<text text-anchor="start" x="682.5" y="-932.5" font-family="Helvetica,sans-Serif" font-size="10.00">+ LightAttenuation()</text>
</a>
</g>
</g>
<!-- Node9&#45;&gt;Node10 -->
<g id="edge11" class="edge">
<title>Node9&#45;&gt;Node10</title>
<path fill="none" stroke="#404040" d="M508.72,-1262.47C538.32,-1246.27 595.49,-1211.89 632.5,-1170 676.64,-1120.04 710.34,-1050.07 729.29,-1005.01"/>
<polygon fill="none" stroke="#404040" points="729.32,-1004.93 727.91,-997.86 733.89,-993.84 735.3,-1000.91 729.32,-1004.93"/>
<text text-anchor="middle" x="639" y="-1213" font-family="Helvetica,sans-Serif" font-size="10.00"> +linear</text>
<text text-anchor="middle" x="639" y="-1202" font-family="Helvetica,sans-Serif" font-size="10.00">+quadratic</text>
<text text-anchor="middle" x="639" y="-1191" font-family="Helvetica,sans-Serif" font-size="10.00">+constant</text>
</g>
<!-- Node10&#45;&gt;Node8 -->
<g id="edge10" class="edge">
<title>Node10&#45;&gt;Node8</title>
<path fill="none" stroke="#404040" d="M735.85,-925.35C719.87,-880.23 685.75,-799.35 632.5,-749 618.92,-736.16 606.68,-745.17 594.5,-731 544.16,-672.46 527.61,-581.05 522.16,-526.64"/>
<polygon fill="none" stroke="#404040" points="522.16,-526.58 517.64,-520.97 521.08,-514.63 525.61,-520.25 522.16,-526.58"/>
<text text-anchor="middle" x="628.5" y="-717.5" font-family="Helvetica,sans-Serif" font-size="10.00"> +attenuation</text>
</g>
<!-- Node10&#45;&gt;Node16 -->
<g id="edge19" class="edge">
<title>Node10&#45;&gt;Node16</title>
<path fill="none" stroke="#404040" d="M747.68,-925.34C750.66,-841.73 758.48,-622.22 761.88,-526.83"/>
<polygon fill="none" stroke="#404040" points="761.89,-526.75 758.1,-520.61 762.31,-514.76 766.1,-520.9 761.89,-526.75"/>
<text text-anchor="middle" x="788.5" y="-717.5" font-family="Helvetica,sans-Serif" font-size="10.00"> +attenuation</text>
</g>
<!-- Node10&#45;&gt;Node18 -->
<g id="edge24" class="edge">
<title>Node10&#45;&gt;Node18</title>
<path fill="none" stroke="#404040" d="M778.56,-925.19C816.41,-883.56 877.72,-808.32 905.5,-731 929.95,-662.95 931.07,-577.95 928.85,-526.79"/>
<polygon fill="none" stroke="#404040" points="928.84,-526.53 924.54,-520.74 928.23,-514.54 932.53,-520.33 928.84,-526.53"/>
<text text-anchor="middle" x="945.5" y="-717.5" font-family="Helvetica,sans-Serif" font-size="10.00"> +attenuation</text>
</g>
<!-- Node11 -->
<g id="node11" class="node">
<title>Node11</title>
<g id="a_node11"><a xlink:title=" ">
<polygon fill="white" stroke="#bfbfbf" points="610,-452 610,-509 673,-509 673,-452 610,-452"/>
<text text-anchor="middle" x="641.5" y="-497" font-family="Helvetica,sans-Serif" font-size="10.00">LightType</text>
<polyline fill="none" stroke="#bfbfbf" points="610,-490 673,-490 "/>
<text text-anchor="middle" x="641.5" y="-478" font-family="Helvetica,sans-Serif" font-size="10.00"> </text>
<polyline fill="none" stroke="#bfbfbf" points="610,-471 673,-471 "/>
<text text-anchor="middle" x="641.5" y="-459" font-family="Helvetica,sans-Serif" font-size="10.00"> </text>
</a>
</g>
</g>
<!-- Node11&#45;&gt;Node1 -->
<g id="edge12" class="edge">
<title>Node11&#45;&gt;Node1</title>
<path fill="none" stroke="#404040" d="M641.5,-451.92C641.5,-406.26 641.5,-312.35 641.5,-234.86"/>
<polygon fill="none" stroke="#404040" points="641.5,-234.57 637.5,-228.57 641.5,-222.57 645.5,-228.57 641.5,-234.57"/>
<text text-anchor="middle" x="666" y="-244" font-family="Helvetica,sans-Serif" font-size="10.00"> #m_type</text>
</g>
<!-- Node12 -->
<g id="node12" class="node">
<title>Node12</title>
<g id="a_node12"><a xlink:href="classRa_1_1Core_1_1Utils_1_1ColorBase.html" target="_top" xlink:title=" ">
<polygon fill="white" stroke="black" points="1149.5,-270.5 1149.5,-690.5 1291.5,-690.5 1291.5,-270.5 1149.5,-270.5"/>
<text text-anchor="start" x="1157.5" y="-678.5" font-family="Helvetica,sans-Serif" font-size="10.00">Ra::Core::Utils::ColorBase</text>
<text text-anchor="middle" x="1220.5" y="-667.5" font-family="Helvetica,sans-Serif" font-size="10.00">&lt; Scalar &gt;</text>
<polyline fill="none" stroke="black" points="1149.5,-660.5 1291.5,-660.5 "/>
<text text-anchor="middle" x="1220.5" y="-648.5" font-family="Helvetica,sans-Serif" font-size="10.00"> </text>
<polyline fill="none" stroke="black" points="1149.5,-641.5 1291.5,-641.5 "/>
<text text-anchor="start" x="1157.5" y="-629.5" font-family="Helvetica,sans-Serif" font-size="10.00">+ ColorBase()</text>
<text text-anchor="start" x="1157.5" y="-618.5" font-family="Helvetica,sans-Serif" font-size="10.00">+ ColorBase()</text>
<text text-anchor="start" x="1157.5" y="-607.5" font-family="Helvetica,sans-Serif" font-size="10.00">+ ColorBase()</text>
<text text-anchor="start" x="1157.5" y="-596.5" font-family="Helvetica,sans-Serif" font-size="10.00">+ ColorBase()</text>
<text text-anchor="start" x="1157.5" y="-585.5" font-family="Helvetica,sans-Serif" font-size="10.00">+ operator VectorType()</text>
<text text-anchor="start" x="1157.5" y="-574.5" font-family="Helvetica,sans-Serif" font-size="10.00">+ rgb()</text>
<text text-anchor="start" x="1157.5" y="-563.5" font-family="Helvetica,sans-Serif" font-size="10.00">+ rgb()</text>
<text text-anchor="start" x="1157.5" y="-552.5" font-family="Helvetica,sans-Serif" font-size="10.00">+ alpha()</text>
<text text-anchor="start" x="1157.5" y="-541.5" font-family="Helvetica,sans-Serif" font-size="10.00">+ alpha()</text>
<text text-anchor="start" x="1157.5" y="-530.5" font-family="Helvetica,sans-Serif" font-size="10.00">+ hasValidAlpha()</text>
<text text-anchor="start" x="1157.5" y="-519.5" font-family="Helvetica,sans-Serif" font-size="10.00">+ toRGBA32()</text>
<text text-anchor="start" x="1157.5" y="-508.5" font-family="Helvetica,sans-Serif" font-size="10.00">+ toARGB32()</text>
<text text-anchor="start" x="1157.5" y="-497.5" font-family="Helvetica,sans-Serif" font-size="10.00">+ sRGBToLinearRGB()</text>
<text text-anchor="start" x="1157.5" y="-486.5" font-family="Helvetica,sans-Serif" font-size="10.00">+ linearRGBTosRGB()</text>
<text text-anchor="start" x="1157.5" y="-475.5" font-family="Helvetica,sans-Serif" font-size="10.00">+ fromRGB()</text>
<text text-anchor="start" x="1157.5" y="-464.5" font-family="Helvetica,sans-Serif" font-size="10.00">+ Alpha()</text>
<text text-anchor="start" x="1157.5" y="-453.5" font-family="Helvetica,sans-Serif" font-size="10.00">+ Black()</text>
<text text-anchor="start" x="1157.5" y="-442.5" font-family="Helvetica,sans-Serif" font-size="10.00">+ Red()</text>
<text text-anchor="start" x="1157.5" y="-431.5" font-family="Helvetica,sans-Serif" font-size="10.00">+ Green()</text>
<text text-anchor="start" x="1157.5" y="-420.5" font-family="Helvetica,sans-Serif" font-size="10.00">+ Blue()</text>
<text text-anchor="start" x="1157.5" y="-409.5" font-family="Helvetica,sans-Serif" font-size="10.00">+ Yellow()</text>
<text text-anchor="start" x="1157.5" y="-398.5" font-family="Helvetica,sans-Serif" font-size="10.00">+ Magenta()</text>
<text text-anchor="start" x="1157.5" y="-387.5" font-family="Helvetica,sans-Serif" font-size="10.00">+ Cyan()</text>
<text text-anchor="start" x="1157.5" y="-376.5" font-family="Helvetica,sans-Serif" font-size="10.00">+ White()</text>
<text text-anchor="start" x="1157.5" y="-365.5" font-family="Helvetica,sans-Serif" font-size="10.00">+ Grey()</text>
<text text-anchor="start" x="1157.5" y="-354.5" font-family="Helvetica,sans-Serif" font-size="10.00">+ Skin()</text>
<text text-anchor="start" x="1157.5" y="-343.5" font-family="Helvetica,sans-Serif" font-size="10.00">+ getNamedColor()</text>
<text text-anchor="start" x="1157.5" y="-332.5" font-family="Helvetica,sans-Serif" font-size="10.00">+ fromChars()</text>
<text text-anchor="start" x="1157.5" y="-321.5" font-family="Helvetica,sans-Serif" font-size="10.00">+ fromRGB24()</text>
<text text-anchor="start" x="1157.5" y="-310.5" font-family="Helvetica,sans-Serif" font-size="10.00">+ fromRGBA32()</text>
<text text-anchor="start" x="1157.5" y="-299.5" font-family="Helvetica,sans-Serif" font-size="10.00">+ fromARGB32()</text>
<text text-anchor="start" x="1157.5" y="-288.5" font-family="Helvetica,sans-Serif" font-size="10.00">+ fromHSV()</text>
<text text-anchor="start" x="1157.5" y="-277.5" font-family="Helvetica,sans-Serif" font-size="10.00">+ scatter()</text>
</a>
</g>
</g>
<!-- Node12&#45;&gt;Node1 -->
<g id="edge13" class="edge">
<title>Node12&#45;&gt;Node1</title>
<path fill="none" stroke="#404040" d="M1149.49,-279.2C1146.61,-276.01 1143.62,-272.94 1140.5,-270 1025.13,-161.25 835.15,-127.58 725.9,-117.16"/>
<polygon fill="none" stroke="#404040" points="725.59,-117.13 719.26,-120.58 713.64,-116.05 719.98,-112.61 725.59,-117.13"/>
<text text-anchor="middle" x="1144" y="-244" font-family="Helvetica,sans-Serif" font-size="10.00"> +m_color</text>
</g>
<!-- Node13 -->
<g id="node13" class="node">
<title>Node13</title>
<g id="a_node13"><a xlink:title=" ">
<polygon fill="white" stroke="#bfbfbf" points="1126.5,-925.5 1126.5,-993.5 1248.5,-993.5 1248.5,-925.5 1126.5,-925.5"/>
<text text-anchor="start" x="1134.5" y="-981.5" font-family="Helvetica,sans-Serif" font-size="10.00">Eigen::Matrix&lt; Scalar</text>
<text text-anchor="middle" x="1187.5" y="-970.5" font-family="Helvetica,sans-Serif" font-size="10.00"> , 4, 1 &gt;</text>
<polyline fill="none" stroke="#bfbfbf" points="1126.5,-963.5 1248.5,-963.5 "/>
<text text-anchor="middle" x="1187.5" y="-951.5" font-family="Helvetica,sans-Serif" font-size="10.00"> </text>
<polyline fill="none" stroke="#bfbfbf" points="1126.5,-944.5 1248.5,-944.5 "/>
<text text-anchor="middle" x="1187.5" y="-932.5" font-family="Helvetica,sans-Serif" font-size="10.00"> </text>
</a>
</g>
</g>
<!-- Node13&#45;&gt;Node12 -->
<g id="edge14" class="edge">
<title>Node13&#45;&gt;Node12</title>
<path fill="none" stroke="midnightblue" d="M1190.49,-915.29C1194.04,-864.01 1200.21,-774.79 1206.04,-690.56"/>
<polygon fill="none" stroke="midnightblue" points="1186.99,-915.12 1189.79,-925.34 1193.98,-915.6 1186.99,-915.12"/>
</g>
<!-- Node14 -->
<g id="node14" class="node">
<title>Node14</title>
<g id="a_node14"><a xlink:href="classRa_1_1Core_1_1Utils_1_1ColorBase.html" target="_top" xlink:title=" ">
<polygon fill="white" stroke="black" points="1266.5,-749.5 1266.5,-1169.5 1408.5,-1169.5 1408.5,-749.5 1266.5,-749.5"/>
<text text-anchor="start" x="1274.5" y="-1157.5" font-family="Helvetica,sans-Serif" font-size="10.00">Ra::Core::Utils::ColorBase</text>
<text text-anchor="middle" x="1337.5" y="-1146.5" font-family="Helvetica,sans-Serif" font-size="10.00">&lt; _Scalar &gt;</text>
<polyline fill="none" stroke="black" points="1266.5,-1139.5 1408.5,-1139.5 "/>
<text text-anchor="middle" x="1337.5" y="-1127.5" font-family="Helvetica,sans-Serif" font-size="10.00"> </text>
<polyline fill="none" stroke="black" points="1266.5,-1120.5 1408.5,-1120.5 "/>
<text text-anchor="start" x="1274.5" y="-1108.5" font-family="Helvetica,sans-Serif" font-size="10.00">+ ColorBase()</text>
<text text-anchor="start" x="1274.5" y="-1097.5" font-family="Helvetica,sans-Serif" font-size="10.00">+ ColorBase()</text>
<text text-anchor="start" x="1274.5" y="-1086.5" font-family="Helvetica,sans-Serif" font-size="10.00">+ ColorBase()</text>
<text text-anchor="start" x="1274.5" y="-1075.5" font-family="Helvetica,sans-Serif" font-size="10.00">+ ColorBase()</text>
<text text-anchor="start" x="1274.5" y="-1064.5" font-family="Helvetica,sans-Serif" font-size="10.00">+ operator VectorType()</text>
<text text-anchor="start" x="1274.5" y="-1053.5" font-family="Helvetica,sans-Serif" font-size="10.00">+ rgb()</text>
<text text-anchor="start" x="1274.5" y="-1042.5" font-family="Helvetica,sans-Serif" font-size="10.00">+ rgb()</text>
<text text-anchor="start" x="1274.5" y="-1031.5" font-family="Helvetica,sans-Serif" font-size="10.00">+ alpha()</text>
<text text-anchor="start" x="1274.5" y="-1020.5" font-family="Helvetica,sans-Serif" font-size="10.00">+ alpha()</text>
<text text-anchor="start" x="1274.5" y="-1009.5" font-family="Helvetica,sans-Serif" font-size="10.00">+ hasValidAlpha()</text>
<text text-anchor="start" x="1274.5" y="-998.5" font-family="Helvetica,sans-Serif" font-size="10.00">+ toRGBA32()</text>
<text text-anchor="start" x="1274.5" y="-987.5" font-family="Helvetica,sans-Serif" font-size="10.00">+ toARGB32()</text>
<text text-anchor="start" x="1274.5" y="-976.5" font-family="Helvetica,sans-Serif" font-size="10.00">+ sRGBToLinearRGB()</text>
<text text-anchor="start" x="1274.5" y="-965.5" font-family="Helvetica,sans-Serif" font-size="10.00">+ linearRGBTosRGB()</text>
<text text-anchor="start" x="1274.5" y="-954.5" font-family="Helvetica,sans-Serif" font-size="10.00">+ fromRGB()</text>
<text text-anchor="start" x="1274.5" y="-943.5" font-family="Helvetica,sans-Serif" font-size="10.00">+ Alpha()</text>
<text text-anchor="start" x="1274.5" y="-932.5" font-family="Helvetica,sans-Serif" font-size="10.00">+ Black()</text>
<text text-anchor="start" x="1274.5" y="-921.5" font-family="Helvetica,sans-Serif" font-size="10.00">+ Red()</text>
<text text-anchor="start" x="1274.5" y="-910.5" font-family="Helvetica,sans-Serif" font-size="10.00">+ Green()</text>
<text text-anchor="start" x="1274.5" y="-899.5" font-family="Helvetica,sans-Serif" font-size="10.00">+ Blue()</text>
<text text-anchor="start" x="1274.5" y="-888.5" font-family="Helvetica,sans-Serif" font-size="10.00">+ Yellow()</text>
<text text-anchor="start" x="1274.5" y="-877.5" font-family="Helvetica,sans-Serif" font-size="10.00">+ Magenta()</text>
<text text-anchor="start" x="1274.5" y="-866.5" font-family="Helvetica,sans-Serif" font-size="10.00">+ Cyan()</text>
<text text-anchor="start" x="1274.5" y="-855.5" font-family="Helvetica,sans-Serif" font-size="10.00">+ White()</text>
<text text-anchor="start" x="1274.5" y="-844.5" font-family="Helvetica,sans-Serif" font-size="10.00">+ Grey()</text>
<text text-anchor="start" x="1274.5" y="-833.5" font-family="Helvetica,sans-Serif" font-size="10.00">+ Skin()</text>
<text text-anchor="start" x="1274.5" y="-822.5" font-family="Helvetica,sans-Serif" font-size="10.00">+ getNamedColor()</text>
<text text-anchor="start" x="1274.5" y="-811.5" font-family="Helvetica,sans-Serif" font-size="10.00">+ fromChars()</text>
<text text-anchor="start" x="1274.5" y="-800.5" font-family="Helvetica,sans-Serif" font-size="10.00">+ fromRGB24()</text>
<text text-anchor="start" x="1274.5" y="-789.5" font-family="Helvetica,sans-Serif" font-size="10.00">+ fromRGBA32()</text>
<text text-anchor="start" x="1274.5" y="-778.5" font-family="Helvetica,sans-Serif" font-size="10.00">+ fromARGB32()</text>
<text text-anchor="start" x="1274.5" y="-767.5" font-family="Helvetica,sans-Serif" font-size="10.00">+ fromHSV()</text>
<text text-anchor="start" x="1274.5" y="-756.5" font-family="Helvetica,sans-Serif" font-size="10.00">+ scatter()</text>
</a>
</g>
</g>
<!-- Node14&#45;&gt;Node12 -->
<g id="edge15" class="edge">
<title>Node14&#45;&gt;Node12</title>
<path fill="none" stroke="orange" d="M1283.72,-739.26C1279.77,-723.13 1275.78,-706.88 1271.84,-690.82"/>
<polygon fill="orange" stroke="orange" points="1280.4,-740.4 1286.18,-749.28 1287.2,-738.73 1280.4,-740.4"/>
<text text-anchor="middle" x="1306.5" y="-717.5" font-family="Helvetica,sans-Serif" font-size="10.00"> &lt; Scalar &gt;</text>
</g>
<!-- Node15 -->
<g id="node15" class="node">
<title>Node15</title>
<g id="a_node15"><a xlink:title=" ">
<polygon fill="white" stroke="#bfbfbf" points="1272,-1239.5 1272,-1307.5 1403,-1307.5 1403,-1239.5 1272,-1239.5"/>
<text text-anchor="start" x="1280" y="-1295.5" font-family="Helvetica,sans-Serif" font-size="10.00">Eigen::Matrix&lt; _Scalar,</text>
<text text-anchor="middle" x="1337.5" y="-1284.5" font-family="Helvetica,sans-Serif" font-size="10.00"> 4, 1 &gt;</text>
<polyline fill="none" stroke="#bfbfbf" points="1272,-1277.5 1403,-1277.5 "/>
<text text-anchor="middle" x="1337.5" y="-1265.5" font-family="Helvetica,sans-Serif" font-size="10.00"> </text>
<polyline fill="none" stroke="#bfbfbf" points="1272,-1258.5 1403,-1258.5 "/>
<text text-anchor="middle" x="1337.5" y="-1246.5" font-family="Helvetica,sans-Serif" font-size="10.00"> </text>
</a>
</g>
</g>
<!-- Node15&#45;&gt;Node14 -->
<g id="edge16" class="edge">
<title>Node15&#45;&gt;Node14</title>
<path fill="none" stroke="midnightblue" d="M1337.5,-1228.94C1337.5,-1212.16 1337.5,-1191.69 1337.5,-1169.61"/>
<polygon fill="none" stroke="midnightblue" points="1334,-1229.41 1337.5,-1239.41 1341,-1229.41 1334,-1229.41"/>
</g>
<!-- Node16&#45;&gt;Node1 -->
<g id="edge17" class="edge">
<title>Node16&#45;&gt;Node1</title>
<path fill="none" stroke="#404040" d="M755.14,-446.35C743.16,-399.95 719.76,-313.22 694.5,-241 693.68,-238.64 692.83,-236.26 691.97,-233.87"/>
<polygon fill="none" stroke="#404040" points="691.97,-233.86 686.14,-229.61 687.82,-222.6 693.65,-226.85 691.97,-233.86"/>
<text text-anchor="middle" x="733" y="-244" font-family="Helvetica,sans-Serif" font-size="10.00"> +m_pointlight</text>
</g>
<!-- Node17 -->
<g id="node17" class="node">
<title>Node17</title>
<g id="a_node17"><a xlink:title=" ">
<polygon fill="white" stroke="#bfbfbf" points="1015.5,-452 1015.5,-509 1131.5,-509 1131.5,-452 1015.5,-452"/>
<text text-anchor="middle" x="1073.5" y="-497" font-family="Helvetica,sans-Serif" font-size="10.00">Matrix&lt; float, 4, 4 &gt;</text>
<polyline fill="none" stroke="#bfbfbf" points="1015.5,-490 1131.5,-490 "/>
<text text-anchor="middle" x="1073.5" y="-478" font-family="Helvetica,sans-Serif" font-size="10.00"> </text>
<polyline fill="none" stroke="#bfbfbf" points="1015.5,-471 1131.5,-471 "/>
<text text-anchor="middle" x="1073.5" y="-459" font-family="Helvetica,sans-Serif" font-size="10.00"> </text>
</a>
</g>
</g>
<!-- Node17&#45;&gt;Node1 -->
<g id="edge20" class="edge">
<title>Node17&#45;&gt;Node1</title>
<path fill="none" stroke="#404040" d="M1071.81,-451.82C1067.73,-407.97 1053.82,-322.19 1006.5,-270 932.27,-188.13 808.1,-147.06 725.5,-127.78"/>
<polygon fill="none" stroke="#404040" points="725.33,-127.74 718.6,-130.31 713.63,-125.09 720.37,-122.51 725.33,-127.74"/>
<text text-anchor="middle" x="1011.5" y="-244" font-family="Helvetica,sans-Serif" font-size="10.00"> #m_frame</text>
</g>
<!-- Node18&#45;&gt;Node1 -->
<g id="edge21" class="edge">
<title>Node18&#45;&gt;Node1</title>
<path fill="none" stroke="#404040" d="M918.54,-446.29C908.14,-402.54 885.25,-324.74 844.5,-270 812.21,-226.62 764.98,-189.01 724.2,-161.43"/>
<polygon fill="none" stroke="#404040" points="723.98,-161.28 716.77,-161.29 713.98,-154.64 721.2,-154.63 723.98,-161.28"/>
<text text-anchor="middle" x="861.5" y="-244" font-family="Helvetica,sans-Serif" font-size="10.00"> +m_arealight</text>
</g>
<!-- Node19 -->
<g id="node19" class="node">
<title>Node19</title>
<g id="a_node19"><a xlink:title=" ">
<polygon fill="white" stroke="#bfbfbf" points="960.5,-931 960.5,-988 1076.5,-988 1076.5,-931 960.5,-931"/>
<text text-anchor="middle" x="1018.5" y="-976" font-family="Helvetica,sans-Serif" font-size="10.00">Matrix&lt; float, 3, 3 &gt;</text>
<polyline fill="none" stroke="#bfbfbf" points="960.5,-969 1076.5,-969 "/>
<text text-anchor="middle" x="1018.5" y="-957" font-family="Helvetica,sans-Serif" font-size="10.00"> </text>
<polyline fill="none" stroke="#bfbfbf" points="960.5,-950 1076.5,-950 "/>
<text text-anchor="middle" x="1018.5" y="-938" font-family="Helvetica,sans-Serif" font-size="10.00"> </text>
</a>
</g>
</g>
<!-- Node19&#45;&gt;Node18 -->
<g id="edge22" class="edge">
<title>Node19&#45;&gt;Node18</title>
<path fill="none" stroke="#404040" d="M1017.99,-930.91C1016.72,-884.62 1012.23,-788.56 996.5,-709 983.68,-644.17 959.22,-571.67 942.63,-526.32"/>
<polygon fill="none" stroke="#404040" points="942.55,-526.09 936.72,-521.85 938.39,-514.83 944.22,-519.07 942.55,-526.09"/>
<text text-anchor="middle" x="1049.5" y="-723" font-family="Helvetica,sans-Serif" font-size="10.00"> +spatialCovariance</text>
<text text-anchor="middle" x="1049.5" y="-712" font-family="Helvetica,sans-Serif" font-size="10.00">+normalCovariance</text>
</g>
</g>
</svg>
        <g id="navigator" transform="translate(0 0)" fill="#404254">
                <rect fill="#f2f5e9" fill-opacity="0.5" stroke="#606060" stroke-width=".5" x="0" y="0" width="60" height="60"/>
                <use id="zoomplus" xlink:href="#zoomPlus" x="17" y="9" onmousedown="handleZoom(evt,'in')"/>
                <use id="zoomminus" xlink:href="#zoomMin" x="42" y="9" onmousedown="handleZoom(evt,'out')"/>
                <use id="reset" xlink:href="#resetDef" x="30" y="36" onmousedown="handleReset()"/>
                <g id="arrowUp" xlink:href="#dirArrow" transform="translate(30 24)" onmousedown="handlePan(0,-1)">
                  <use xlink:href="#rim" fill="#404040">
                        <set attributeName="fill" to="#808080" begin="arrowUp.mouseover" end="arrowUp.mouseout"/>
                  </use>
                  <path fill="none" stroke="white" stroke-width="1.5" d="M0,-3.0v7 M-2.5,-0.5L0,-3.0L2.5,-0.5"/>
                </g>
                <g id="arrowRight" xlink:href="#dirArrow" transform="rotate(90) translate(36 -43)" onmousedown="handlePan(1,0)">
                  <use xlink:href="#rim" fill="#404040">
                        <set attributeName="fill" to="#808080" begin="arrowRight.mouseover" end="arrowRight.mouseout"/>
                  </use>
                  <path fill="none" stroke="white" stroke-width="1.5" d="M0,-3.0v7 M-2.5,-0.5L0,-3.0L2.5,-0.5"/>
                </g>
                <g id="arrowDown" xlink:href="#dirArrow" transform="rotate(180) translate(-30 -48)" onmousedown="handlePan(0,1)">
                  <use xlink:href="#rim" fill="#404040">
                        <set attributeName="fill" to="#808080" begin="arrowDown.mouseover" end="arrowDown.mouseout"/>
                  </use>
                  <path fill="none" stroke="white" stroke-width="1.5" d="M0,-3.0v7 M-2.5,-0.5L0,-3.0L2.5,-0.5"/>
                </g>
                <g id="arrowLeft" xlink:href="#dirArrow" transform="rotate(270) translate(-36 17)" onmousedown="handlePan(-1,0)">
                  <use xlink:href="#rim" fill="#404040">
                        <set attributeName="fill" to="#808080" begin="arrowLeft.mouseover" end="arrowLeft.mouseout"/>
                  </use>
                  <path fill="none" stroke="white" stroke-width="1.5" d="M0,-3.0v7 M-2.5,-0.5L0,-3.0L2.5,-0.5"/>
                </g>
        </g>
        <svg viewBox="0 0 15 15" width="100%" height="30px" preserveAspectRatio="xMaxYMin meet">
         <g id="arrow_out" transform="scale(0.3 0.3)">
          <a xlink:href="classRa_1_1Core_1_1Asset_1_1LightData__coll__graph_org.svg" target="_base">
           <rect id="button" ry="5" rx="5" y="6" x="6" height="38" width="38"
                fill="#f2f5e9" fill-opacity="0.5" stroke="#606060" stroke-width="1.0"/>
           <path id="arrow"
             d="M 11.500037,31.436501 C 11.940474,20.09759 22.043105,11.32322 32.158766,21.979434 L 37.068811,17.246167 C 37.068811,17.246167 37.088388,32 37.088388,32 L 22.160133,31.978069 C 22.160133,31.978069 26.997745,27.140456 26.997745,27.140456 C 18.528582,18.264221 13.291696,25.230495 11.500037,31.436501 z"
             style="fill:#404040;"/>
          </a>
         </g>
        </svg>
</svg>
