<?xml version="1.0" encoding="UTF-8" standalone="no"?>
<!DOCTYPE svg PUBLIC "-//W3C//DTD SVG 1.1//EN"
 "http://www.w3.org/Graphics/SVG/1.1/DTD/svg11.dtd">
<!-- Generated by graphviz version 2.43.0 (0)
 -->
<!-- Title: Ra::Engine::Data::VolumetricMaterial Pages: 1 -->
<svg width="365pt" height="744pt"
 viewBox="0.00 0.00 364.50 744.00" xmlns="http://www.w3.org/2000/svg" xmlns:xlink="http://www.w3.org/1999/xlink">
<g id="graph0" class="graph" transform="scale(1 1) rotate(0) translate(4 740)">
<title>Ra::Engine::Data::VolumetricMaterial</title>
<!-- Node1 -->
<g id="Node000001" class="node">
<title>Node1</title>
<g id="a_Node000001"><a xlink:title=" ">
<polygon fill="#999999" stroke="transparent" points="248,-270 98,-270 98,0 248,0 248,-270"/>
<text text-anchor="start" x="103" y="-258" font-family="Helvetica,sans-Serif" font-size="10.00">Ra::Engine::Data::Volumetric</text>
<text text-anchor="start" x="152.5" y="-247" font-family="Helvetica,sans-Serif" font-size="10.00">Material</text>
<text text-anchor="start" x="102.5" y="-232" font-family="Helvetica,sans-Serif" font-size="10.00">+</text>
<text text-anchor="start" x="116" y="-232" font-family="Helvetica,sans-Serif" font-size="10.00">m_sigma_a</text>
<text text-anchor="start" x="102.5" y="-217" font-family="Helvetica,sans-Serif" font-size="10.00">+</text>
<text text-anchor="start" x="116" y="-217" font-family="Helvetica,sans-Serif" font-size="10.00">m_sigma_s</text>
<text text-anchor="start" x="102.5" y="-202" font-family="Helvetica,sans-Serif" font-size="10.00">+</text>
<text text-anchor="start" x="116" y="-202" font-family="Helvetica,sans-Serif" font-size="10.00">m_g</text>
<text text-anchor="start" x="102.5" y="-187" font-family="Helvetica,sans-Serif" font-size="10.00">+</text>
<text text-anchor="start" x="116" y="-187" font-family="Helvetica,sans-Serif" font-size="10.00">m_scale</text>
<text text-anchor="start" x="102.5" y="-172" font-family="Helvetica,sans-Serif" font-size="10.00">+</text>
<text text-anchor="start" x="116" y="-172" font-family="Helvetica,sans-Serif" font-size="10.00">m_stepsize</text>
<text text-anchor="start" x="102.5" y="-157" font-family="Helvetica,sans-Serif" font-size="10.00">+</text>
<text text-anchor="start" x="116" y="-157" font-family="Helvetica,sans-Serif" font-size="10.00">m_modelToMedium</text>
<text text-anchor="start" x="102.5" y="-142" font-family="Helvetica,sans-Serif" font-size="10.00">+</text>
<text text-anchor="start" x="116" y="-142" font-family="Helvetica,sans-Serif" font-size="10.00">VolumetricMaterial()</text>
<text text-anchor="start" x="102.5" y="-127" font-family="Helvetica,sans-Serif" font-size="10.00">+</text>
<text text-anchor="start" x="116" y="-127" font-family="Helvetica,sans-Serif" font-size="10.00">~VolumetricMaterial()</text>
<text text-anchor="start" x="102.5" y="-112" font-family="Helvetica,sans-Serif" font-size="10.00">+</text>
<text text-anchor="start" x="116" y="-112" font-family="Helvetica,sans-Serif" font-size="10.00">updateGL()</text>
<text text-anchor="start" x="102.5" y="-97" font-family="Helvetica,sans-Serif" font-size="10.00">+</text>
<text text-anchor="start" x="116" y="-97" font-family="Helvetica,sans-Serif" font-size="10.00">updateFromParameters()</text>
<text text-anchor="start" x="102.5" y="-82" font-family="Helvetica,sans-Serif" font-size="10.00">+</text>
<text text-anchor="start" x="116" y="-82" font-family="Helvetica,sans-Serif" font-size="10.00">isTransparent()</text>
<text text-anchor="start" x="102.5" y="-67" font-family="Helvetica,sans-Serif" font-size="10.00">+</text>
<text text-anchor="start" x="116" y="-67" font-family="Helvetica,sans-Serif" font-size="10.00">setTexture()</text>
<text text-anchor="start" x="102.5" y="-52" font-family="Helvetica,sans-Serif" font-size="10.00">+</text>
<text text-anchor="start" x="116" y="-52" font-family="Helvetica,sans-Serif" font-size="10.00">getTexture()</text>
<text text-anchor="start" x="102.5" y="-37" font-family="Helvetica,sans-Serif" font-size="10.00">+</text>
<text text-anchor="start" x="116" y="-37" font-family="Helvetica,sans-Serif" font-size="10.00">getParametersMetadata()</text>
<text text-anchor="start" x="102.5" y="-22" font-family="Helvetica,sans-Serif" font-size="10.00">+</text>
<text text-anchor="start" x="116" y="-22" font-family="Helvetica,sans-Serif" font-size="10.00">registerMaterial()</text>
<text text-anchor="start" x="102.5" y="-7" font-family="Helvetica,sans-Serif" font-size="10.00">+</text>
<text text-anchor="start" x="116" y="-7" font-family="Helvetica,sans-Serif" font-size="10.00">unregisterMaterial()</text>
<polygon fill="#666666" stroke="#666666" points="98,-242 98,-242 248,-242 248,-242 98,-242"/>
<polygon fill="#666666" stroke="#666666" points="98,-152 98,-152 114,-152 114,-152 98,-152"/>
<polygon fill="#666666" stroke="#666666" points="114,-152 114,-152 248,-152 248,-152 114,-152"/>
<polygon fill="none" stroke="#666666" points="98,0 98,-270 248,-270 248,0 98,0"/>
</a>
</g>
</g>
<!-- Node2 -->
<g id="Node000002" class="node">
<title>Node2</title>
<g id="a_Node000002"><a xlink:href="classRa_1_1Engine_1_1Data_1_1Material.html" target="_top" xlink:title="Base class for materials.">
<polygon fill="white" stroke="transparent" points="157.5,-565 4.5,-565 4.5,-306 157.5,-306 157.5,-565"/>
<text text-anchor="start" x="17.5" y="-552.5" font-family="Helvetica,sans-Serif" font-size="10.00">Ra::Engine::Data::Material</text>
<text text-anchor="start" x="79.5" y="-537.5" font-family="Helvetica,sans-Serif" font-size="10.00"> </text>
<text text-anchor="start" x="9" y="-522.5" font-family="Helvetica,sans-Serif" font-size="10.00">+</text>
<text text-anchor="start" x="22" y="-522.5" font-family="Helvetica,sans-Serif" font-size="10.00">~Material()</text>
<text text-anchor="start" x="9" y="-507.5" font-family="Helvetica,sans-Serif" font-size="10.00">+</text>
<text text-anchor="start" x="22" y="-507.5" font-family="Helvetica,sans-Serif" font-size="10.00">getInstanceName()</text>
<text text-anchor="start" x="9" y="-492.5" font-family="Helvetica,sans-Serif" font-size="10.00">+</text>
<text text-anchor="start" x="22" y="-492.5" font-family="Helvetica,sans-Serif" font-size="10.00">getMaterialName()</text>
<text text-anchor="start" x="9" y="-477.5" font-family="Helvetica,sans-Serif" font-size="10.00">+</text>
<text text-anchor="start" x="22" y="-477.5" font-family="Helvetica,sans-Serif" font-size="10.00">setMaterialAspect()</text>
<text text-anchor="start" x="9" y="-462.5" font-family="Helvetica,sans-Serif" font-size="10.00">+</text>
<text text-anchor="start" x="22" y="-462.5" font-family="Helvetica,sans-Serif" font-size="10.00">getMaterialAspect()</text>
<text text-anchor="start" x="9" y="-447.5" font-family="Helvetica,sans-Serif" font-size="10.00">+</text>
<text text-anchor="start" x="22" y="-447.5" font-family="Helvetica,sans-Serif" font-size="10.00">isTransparent()</text>
<text text-anchor="start" x="9" y="-432.5" font-family="Helvetica,sans-Serif" font-size="10.00">+</text>
<text text-anchor="start" x="22" y="-432.5" font-family="Helvetica,sans-Serif" font-size="10.00">getPropertyList()</text>
<text text-anchor="start" x="9" y="-417.5" font-family="Helvetica,sans-Serif" font-size="10.00">+</text>
<text text-anchor="start" x="22" y="-417.5" font-family="Helvetica,sans-Serif" font-size="10.00">setColoredByVertexAttrib()</text>
<text text-anchor="start" x="9" y="-402.5" font-family="Helvetica,sans-Serif" font-size="10.00">+</text>
<text text-anchor="start" x="22" y="-402.5" font-family="Helvetica,sans-Serif" font-size="10.00">isColoredByVertexAttrib()</text>
<text text-anchor="start" x="9" y="-387.5" font-family="Helvetica,sans-Serif" font-size="10.00">+</text>
<text text-anchor="start" x="22" y="-387.5" font-family="Helvetica,sans-Serif" font-size="10.00">needUpdate()</text>
<text text-anchor="start" x="9" y="-372.5" font-family="Helvetica,sans-Serif" font-size="10.00">#</text>
<text text-anchor="start" x="22" y="-372.5" font-family="Helvetica,sans-Serif" font-size="10.00">Material()</text>
<text text-anchor="start" x="9" y="-357.5" font-family="Helvetica,sans-Serif" font-size="10.00">#</text>
<text text-anchor="start" x="22" y="-357.5" font-family="Helvetica,sans-Serif" font-size="10.00">setMaterialName()</text>
<text text-anchor="start" x="9" y="-342.5" font-family="Helvetica,sans-Serif" font-size="10.00">#</text>
<text text-anchor="start" x="22" y="-342.5" font-family="Helvetica,sans-Serif" font-size="10.00">isDirty()</text>
<text text-anchor="start" x="9" y="-327.5" font-family="Helvetica,sans-Serif" font-size="10.00">#</text>
<text text-anchor="start" x="22" y="-327.5" font-family="Helvetica,sans-Serif" font-size="10.00">setDirty()</text>
<text text-anchor="start" x="9" y="-312.5" font-family="Helvetica,sans-Serif" font-size="10.00">#</text>
<text text-anchor="start" x="22" y="-312.5" font-family="Helvetica,sans-Serif" font-size="10.00">setClean()</text>
<polygon fill="#666666" stroke="#666666" points="5,-547.5 5,-547.5 158,-547.5 158,-547.5 5,-547.5"/>
<polygon fill="#666666" stroke="#666666" points="5,-532.5 5,-532.5 158,-532.5 158,-532.5 5,-532.5"/>
<polygon fill="none" stroke="#666666" points="4.5,-306 4.5,-565 157.5,-565 157.5,-306 4.5,-306"/>
</a>
</g>
</g>
<!-- Node2&#45;&gt;Node1 -->
<g id="edge1_Node000001_Node000002" class="edge">
<title>Node2&#45;&gt;Node1</title>
<g id="a_edge1_Node000001_Node000002"><a xlink:title=" ">
<path fill="none" stroke="#63b8ff" d="M123.69,-296C126.35,-287.35 129.03,-278.65 131.69,-270.02"/>
<polygon fill="none" stroke="#63b8ff" points="120.28,-295.16 120.68,-305.74 126.97,-297.22 120.28,-295.16"/>
</a>
</g>
</g>
<!-- Node3 -->
<g id="Node000003" class="node">
<title>Node3</title>
<g id="a_Node000003"><a xlink:href="classRa_1_1Engine_1_1Data_1_1ShaderParameterProvider.html" target="_top" xlink:title=" ">
<polygon fill="white" stroke="transparent" points="162,-736 0,-736 0,-601 162,-601 162,-736"/>
<text text-anchor="start" x="20.5" y="-723.5" font-family="Helvetica,sans-Serif" font-size="10.00">Ra::Engine::Data::Shader</text>
<text text-anchor="start" x="35.5" y="-712.5" font-family="Helvetica,sans-Serif" font-size="10.00">ParameterProvider</text>
<text text-anchor="start" x="79" y="-697.5" font-family="Helvetica,sans-Serif" font-size="10.00"> </text>
<text text-anchor="start" x="4" y="-682.5" font-family="Helvetica,sans-Serif" font-size="10.00">+</text>
<text text-anchor="start" x="17" y="-682.5" font-family="Helvetica,sans-Serif" font-size="10.00">~ShaderParameterProvider()</text>
<text text-anchor="start" x="4" y="-667.5" font-family="Helvetica,sans-Serif" font-size="10.00">+</text>
<text text-anchor="start" x="17" y="-667.5" font-family="Helvetica,sans-Serif" font-size="10.00">getParameters()</text>
<text text-anchor="start" x="4" y="-652.5" font-family="Helvetica,sans-Serif" font-size="10.00">+</text>
<text text-anchor="start" x="17" y="-652.5" font-family="Helvetica,sans-Serif" font-size="10.00">getParameters()</text>
<text text-anchor="start" x="4" y="-637.5" font-family="Helvetica,sans-Serif" font-size="10.00">+</text>
<text text-anchor="start" x="17" y="-637.5" font-family="Helvetica,sans-Serif" font-size="10.00">updateGL()</text>
<text text-anchor="start" x="4" y="-622.5" font-family="Helvetica,sans-Serif" font-size="10.00">+</text>
<text text-anchor="start" x="17" y="-622.5" font-family="Helvetica,sans-Serif" font-size="10.00">updateFromParameters()</text>
<text text-anchor="start" x="4" y="-607.5" font-family="Helvetica,sans-Serif" font-size="10.00">+</text>
<text text-anchor="start" x="17" y="-607.5" font-family="Helvetica,sans-Serif" font-size="10.00">getPropertyList()</text>
<polygon fill="#666666" stroke="#666666" points="0,-707.5 0,-707.5 162,-707.5 162,-707.5 0,-707.5"/>
<polygon fill="#666666" stroke="#666666" points="0,-692.5 0,-692.5 162,-692.5 162,-692.5 0,-692.5"/>
<polygon fill="none" stroke="#666666" points="0,-601 0,-736 162,-736 162,-601 0,-601"/>
</a>
</g>
</g>
<!-- Node3&#45;&gt;Node2 -->
<g id="edge2_Node000002_Node000003" class="edge">
<title>Node3&#45;&gt;Node2</title>
<g id="a_edge2_Node000002_Node000003"><a xlink:title=" ">
<path fill="none" stroke="#63b8ff" d="M81,-590.99C81,-582.65 81,-574.01 81,-565.26"/>
<polygon fill="none" stroke="#63b8ff" points="77.5,-591 81,-601 84.5,-591 77.5,-591"/>
</a>
</g>
</g>
<!-- Node4 -->
<g id="Node000004" class="node">
<title>Node4</title>
<g id="a_Node000004"><a xlink:href="classRa_1_1Engine_1_1Data_1_1ParameterSetEditingInterface.html" target="_top" xlink:title=" ">
<polygon fill="white" stroke="transparent" points="356.5,-480.5 175.5,-480.5 175.5,-390.5 356.5,-390.5 356.5,-480.5"/>
<text text-anchor="start" x="197.5" y="-468.5" font-family="Helvetica,sans-Serif" font-size="10.00">Ra::Engine::Data::Parameter</text>
<text text-anchor="start" x="219.5" y="-457.5" font-family="Helvetica,sans-Serif" font-size="10.00">SetEditingInterface</text>
<text text-anchor="start" x="264.5" y="-442.5" font-family="Helvetica,sans-Serif" font-size="10.00"> </text>
<text text-anchor="start" x="180" y="-427.5" font-family="Helvetica,sans-Serif" font-size="10.00">+</text>
<text text-anchor="start" x="193" y="-427.5" font-family="Helvetica,sans-Serif" font-size="10.00">~ParameterSetEditingInterface()</text>
<text text-anchor="start" x="180" y="-412.5" font-family="Helvetica,sans-Serif" font-size="10.00">+</text>
<text text-anchor="start" x="193" y="-412.5" font-family="Helvetica,sans-Serif" font-size="10.00">getParametersMetadata()</text>
<text text-anchor="start" x="180" y="-397.5" font-family="Helvetica,sans-Serif" font-size="10.00">+</text>
<text text-anchor="start" x="193" y="-397.5" font-family="Helvetica,sans-Serif" font-size="10.00">loadMetaData()</text>
<polygon fill="#666666" stroke="#666666" points="176,-452.5 176,-452.5 357,-452.5 357,-452.5 176,-452.5"/>
<polygon fill="#666666" stroke="#666666" points="176,-437.5 176,-437.5 357,-437.5 357,-437.5 176,-437.5"/>
<polygon fill="none" stroke="#666666" points="175.5,-390.5 175.5,-480.5 356.5,-480.5 356.5,-390.5 175.5,-390.5"/>
</a>
</g>
</g>
<!-- Node4&#45;&gt;Node1 -->
<g id="edge3_Node000001_Node000004" class="edge">
<title>Node4&#45;&gt;Node1</title>
<g id="a_edge3_Node000001_Node000004"><a xlink:title=" ">
<path fill="none" stroke="#63b8ff" d="M249.25,-380.73C239.59,-349.73 226.98,-309.24 214.8,-270.15"/>
<polygon fill="none" stroke="#63b8ff" points="245.96,-381.95 252.28,-390.46 252.64,-379.87 245.96,-381.95"/>
</a>
</g>
</g>
</g>
</svg>
