<?xml version="1.0" encoding="UTF-8" standalone="no"?>
<!DOCTYPE svg PUBLIC "-//W3C//DTD SVG 1.1//EN"
 "http://www.w3.org/Graphics/SVG/1.1/DTD/svg11.dtd">
<!-- Generated by graphviz version 2.43.0 (0)
 -->
<!-- Title: CLI::Validator Pages: 1 -->
<!--zoomable 541 -->
<svg id="main" version="1.1" xmlns="http://www.w3.org/2000/svg" xmlns:xlink="http://www.w3.org/1999/xlink" xml:space="preserve" onload="init(evt)">
<style type="text/css"><![CDATA[
.edge:hover path { stroke: red; }
.edge:hover polygon { stroke: red; fill: red; }
]]></style>
<script type="text/javascript"><![CDATA[
var edges = document.getElementsByTagName('g');
if (edges && edges.length) {
  for (var i=0;i<edges.length;i++) {
    if (edges[i].id.substr(0,4)=='edge') {
      edges[i].setAttribute('class','edge');
    }
  }
}
]]></script>
        <defs>
                <circle id="rim" cx="0" cy="0" r="7"/>
                <circle id="rim2" cx="0" cy="0" r="3.5"/>
                <g id="zoomPlus">
                        <use xlink:href="#rim" fill="#404040">
                                <set attributeName="fill" to="#808080" begin="zoomplus.mouseover" end="zoomplus.mouseout"/>
                        </use>
                        <path d="M-4,0h8M0,-4v8" fill="none" stroke="white" stroke-width="1.5" pointer-events="none"/>
                </g>
                <g id="zoomMin">
                        <use xlink:href="#rim" fill="#404040">
                                <set attributeName="fill" to="#808080" begin="zoomminus.mouseover" end="zoomminus.mouseout"/>
                        </use>
                        <path d="M-4,0h8" fill="none" stroke="white" stroke-width="1.5" pointer-events="none"/>
                </g>
                <g id="dirArrow">
                        <path fill="none" stroke="white" stroke-width="1.5" d="M0,-3.0v7 M-2.5,-0.5L0,-3.0L2.5,-0.5"/>
                </g>
               <g id="resetDef">
                       <use xlink:href="#rim2" fill="#404040">
                               <set attributeName="fill" to="#808080" begin="reset.mouseover" end="reset.mouseout"/>
                       </use>
               </g>
        </defs>

<script type="text/javascript">
var viewWidth = 555;
var viewHeight = 541;
var sectionId = 'dynsection-1';
</script>
<script xlink:href="svgpan.js"/>
<svg id="graph" class="graph">
<g id="viewport">
<title>CLI::Validator</title>
<polygon fill="white" stroke="transparent" points="-4,4 -4,-537 551,-537 551,4 -4,4"/>
<!-- Node1 -->
<g id="node1" class="node">
<title>Node1</title>
<g id="a_node1"><a xlink:title="Some validators that are provided.">
<polygon fill="#bfbfbf" stroke="black" points="203.5,-0.5 203.5,-299.5 346.5,-299.5 346.5,-0.5 203.5,-0.5"/>
<text text-anchor="middle" x="275" y="-287.5" font-family="Helvetica,sans-Serif" font-size="10.00">CLI::Validator</text>
<polyline fill="none" stroke="black" points="203.5,-280.5 346.5,-280.5 "/>
<text text-anchor="middle" x="275" y="-268.5" font-family="Helvetica,sans-Serif" font-size="10.00"> </text>
<polyline fill="none" stroke="black" points="203.5,-261.5 346.5,-261.5 "/>
<text text-anchor="start" x="211.5" y="-249.5" font-family="Helvetica,sans-Serif" font-size="10.00">+ Validator()</text>
<text text-anchor="start" x="211.5" y="-238.5" font-family="Helvetica,sans-Serif" font-size="10.00">+ Validator()</text>
<text text-anchor="start" x="211.5" y="-227.5" font-family="Helvetica,sans-Serif" font-size="10.00">+ Validator()</text>
<text text-anchor="start" x="211.5" y="-216.5" font-family="Helvetica,sans-Serif" font-size="10.00">+ operation()</text>
<text text-anchor="start" x="211.5" y="-205.5" font-family="Helvetica,sans-Serif" font-size="10.00">+ operator()()</text>
<text text-anchor="start" x="211.5" y="-194.5" font-family="Helvetica,sans-Serif" font-size="10.00">+ operator()()</text>
<text text-anchor="start" x="211.5" y="-183.5" font-family="Helvetica,sans-Serif" font-size="10.00">+ description()</text>
<text text-anchor="start" x="211.5" y="-172.5" font-family="Helvetica,sans-Serif" font-size="10.00">+ description()</text>
<text text-anchor="start" x="211.5" y="-161.5" font-family="Helvetica,sans-Serif" font-size="10.00">+ get_description()</text>
<text text-anchor="start" x="211.5" y="-150.5" font-family="Helvetica,sans-Serif" font-size="10.00">+ name()</text>
<text text-anchor="start" x="211.5" y="-139.5" font-family="Helvetica,sans-Serif" font-size="10.00">+ name()</text>
<text text-anchor="start" x="211.5" y="-128.5" font-family="Helvetica,sans-Serif" font-size="10.00">+ get_name()</text>
<text text-anchor="start" x="211.5" y="-117.5" font-family="Helvetica,sans-Serif" font-size="10.00">+ active()</text>
<text text-anchor="start" x="211.5" y="-106.5" font-family="Helvetica,sans-Serif" font-size="10.00">+ active()</text>
<text text-anchor="start" x="211.5" y="-95.5" font-family="Helvetica,sans-Serif" font-size="10.00">+ non_modifying()</text>
<text text-anchor="start" x="211.5" y="-84.5" font-family="Helvetica,sans-Serif" font-size="10.00">+ application_index()</text>
<text text-anchor="start" x="211.5" y="-73.5" font-family="Helvetica,sans-Serif" font-size="10.00">+ application_index()</text>
<text text-anchor="start" x="211.5" y="-62.5" font-family="Helvetica,sans-Serif" font-size="10.00">+ get_application_index()</text>
<text text-anchor="start" x="211.5" y="-51.5" font-family="Helvetica,sans-Serif" font-size="10.00">+ get_active()</text>
<text text-anchor="start" x="211.5" y="-40.5" font-family="Helvetica,sans-Serif" font-size="10.00">+ get_modifying()</text>
<text text-anchor="start" x="211.5" y="-29.5" font-family="Helvetica,sans-Serif" font-size="10.00">+ operator&amp;()</text>
<text text-anchor="start" x="211.5" y="-18.5" font-family="Helvetica,sans-Serif" font-size="10.00">+ operator|()</text>
<text text-anchor="start" x="211.5" y="-7.5" font-family="Helvetica,sans-Serif" font-size="10.00">+ operator!()</text>
</a>
</g>
</g>
<!-- Node2 -->
<g id="node2" class="node">
<title>Node2</title>
<g id="a_node2"><a xlink:title=" ">
<polygon fill="white" stroke="#bfbfbf" points="0,-358.5 0,-426.5 116,-426.5 116,-358.5 0,-358.5"/>
<text text-anchor="start" x="8" y="-414.5" font-family="Helvetica,sans-Serif" font-size="10.00">function&lt; std::string</text>
<text text-anchor="middle" x="58" y="-403.5" font-family="Helvetica,sans-Serif" font-size="10.00">(std::string &amp;)&gt;</text>
<polyline fill="none" stroke="#bfbfbf" points="0,-396.5 116,-396.5 "/>
<text text-anchor="middle" x="58" y="-384.5" font-family="Helvetica,sans-Serif" font-size="10.00"> </text>
<polyline fill="none" stroke="#bfbfbf" points="0,-377.5 116,-377.5 "/>
<text text-anchor="middle" x="58" y="-365.5" font-family="Helvetica,sans-Serif" font-size="10.00"> </text>
</a>
</g>
</g>
<!-- Node2&#45;&gt;Node1 -->
<g id="edge1" class="edge">
<title>Node2&#45;&gt;Node1</title>
<path fill="none" stroke="#404040" d="M84.4,-358.16C94.69,-345.43 106.71,-330.88 118,-318 142.39,-290.17 169.77,-260.52 194.76,-234.05"/>
<polygon fill="none" stroke="#404040" points="194.89,-233.92 196.11,-226.81 203.14,-225.2 201.92,-232.31 194.89,-233.92"/>
<text text-anchor="middle" x="137" y="-326.5" font-family="Helvetica,sans-Serif" font-size="10.00"> #func_</text>
</g>
<!-- Node3 -->
<g id="node3" class="node">
<title>Node3</title>
<g id="a_node3"><a xlink:href="classint.html" target="_top" xlink:title=" ">
<polygon fill="white" stroke="black" points="134.5,-364 134.5,-421 163.5,-421 163.5,-364 134.5,-364"/>
<text text-anchor="middle" x="149" y="-409" font-family="Helvetica,sans-Serif" font-size="10.00">int</text>
<polyline fill="none" stroke="black" points="134.5,-402 163.5,-402 "/>
<text text-anchor="middle" x="149" y="-390" font-family="Helvetica,sans-Serif" font-size="10.00"> </text>
<polyline fill="none" stroke="black" points="134.5,-383 163.5,-383 "/>
<text text-anchor="middle" x="149" y="-371" font-family="Helvetica,sans-Serif" font-size="10.00"> </text>
</a>
</g>
</g>
<!-- Node3&#45;&gt;Node1 -->
<g id="edge2" class="edge">
<title>Node3&#45;&gt;Node1</title>
<path fill="none" stroke="#404040" d="M153.96,-363.93C157.03,-349.84 161.62,-332.62 168,-318 176.21,-299.18 186.4,-280.07 197.2,-261.82"/>
<polygon fill="none" stroke="#404040" points="197.24,-261.76 196.92,-254.55 203.44,-251.48 203.77,-258.69 197.24,-261.76"/>
<text text-anchor="middle" x="219.5" y="-326.5" font-family="Helvetica,sans-Serif" font-size="10.00"> #application_index_</text>
</g>
<!-- Node4 -->
<g id="node4" class="node">
<title>Node4</title>
<g id="a_node4"><a xlink:href="classbool.html" target="_top" xlink:title=" ">
<polygon fill="white" stroke="black" points="256,-364 256,-421 294,-421 294,-364 256,-364"/>
<text text-anchor="middle" x="275" y="-409" font-family="Helvetica,sans-Serif" font-size="10.00">bool</text>
<polyline fill="none" stroke="black" points="256,-402 294,-402 "/>
<text text-anchor="middle" x="275" y="-390" font-family="Helvetica,sans-Serif" font-size="10.00"> </text>
<polyline fill="none" stroke="black" points="256,-383 294,-383 "/>
<text text-anchor="middle" x="275" y="-371" font-family="Helvetica,sans-Serif" font-size="10.00"> </text>
</a>
</g>
</g>
<!-- Node4&#45;&gt;Node1 -->
<g id="edge3" class="edge">
<title>Node4&#45;&gt;Node1</title>
<path fill="none" stroke="#404040" d="M275,-363.91C275,-349.95 275,-331.76 275,-311.89"/>
<polygon fill="none" stroke="#404040" points="275,-311.68 271,-305.68 275,-299.68 279,-305.68 275,-311.68"/>
<text text-anchor="middle" x="318" y="-332" font-family="Helvetica,sans-Serif" font-size="10.00"> #active_</text>
<text text-anchor="middle" x="318" y="-321" font-family="Helvetica,sans-Serif" font-size="10.00">#non_modifying_</text>
</g>
<!-- Node5 -->
<g id="node5" class="node">
<title>Node5</title>
<g id="a_node5"><a xlink:title="STL class.">
<polygon fill="white" stroke="#bfbfbf" points="331.5,-364 331.5,-421 396.5,-421 396.5,-364 331.5,-364"/>
<text text-anchor="middle" x="364" y="-409" font-family="Helvetica,sans-Serif" font-size="10.00">std::string</text>
<polyline fill="none" stroke="#bfbfbf" points="331.5,-402 396.5,-402 "/>
<text text-anchor="middle" x="364" y="-390" font-family="Helvetica,sans-Serif" font-size="10.00"> </text>
<polyline fill="none" stroke="#bfbfbf" points="331.5,-383 396.5,-383 "/>
<text text-anchor="middle" x="364" y="-371" font-family="Helvetica,sans-Serif" font-size="10.00"> </text>
</a>
</g>
</g>
<!-- Node5&#45;&gt;Node1 -->
<g id="edge4" class="edge">
<title>Node5&#45;&gt;Node1</title>
<path fill="none" stroke="#404040" d="M366.16,-363.86C366.53,-349.9 365.85,-332.83 362,-318 359.14,-306.96 355.44,-295.83 351.19,-284.84"/>
<polygon fill="none" stroke="#404040" points="351.08,-284.56 345.11,-280.5 346.57,-273.44 352.53,-277.5 351.08,-284.56"/>
<text text-anchor="middle" x="387.5" y="-326.5" font-family="Helvetica,sans-Serif" font-size="10.00"> #name_</text>
</g>
<!-- Node6 -->
<g id="node6" class="node">
<title>Node6</title>
<g id="a_node6"><a xlink:title="STL class.">
<polygon fill="white" stroke="#bfbfbf" points="312,-464.5 312,-532.5 416,-532.5 416,-464.5 312,-464.5"/>
<text text-anchor="start" x="320" y="-520.5" font-family="Helvetica,sans-Serif" font-size="10.00">std::basic_string&lt;</text>
<text text-anchor="middle" x="364" y="-509.5" font-family="Helvetica,sans-Serif" font-size="10.00"> char &gt;</text>
<polyline fill="none" stroke="#bfbfbf" points="312,-502.5 416,-502.5 "/>
<text text-anchor="middle" x="364" y="-490.5" font-family="Helvetica,sans-Serif" font-size="10.00"> </text>
<polyline fill="none" stroke="#bfbfbf" points="312,-483.5 416,-483.5 "/>
<text text-anchor="middle" x="364" y="-471.5" font-family="Helvetica,sans-Serif" font-size="10.00"> </text>
</a>
</g>
</g>
<!-- Node6&#45;&gt;Node5 -->
<g id="edge5" class="edge">
<title>Node6&#45;&gt;Node5</title>
<path fill="none" stroke="midnightblue" d="M364,-454.25C364,-443.05 364,-431.3 364,-421.15"/>
<polygon fill="none" stroke="midnightblue" points="360.5,-454.31 364,-464.31 367.5,-454.31 360.5,-454.31"/>
</g>
<!-- Node7 -->
<g id="node7" class="node">
<title>Node7</title>
<g id="a_node7"><a xlink:title=" ">
<polygon fill="white" stroke="#bfbfbf" points="415,-364 415,-421 547,-421 547,-364 415,-364"/>
<text text-anchor="middle" x="481" y="-409" font-family="Helvetica,sans-Serif" font-size="10.00">function&lt; std::string()&gt;</text>
<polyline fill="none" stroke="#bfbfbf" points="415,-402 547,-402 "/>
<text text-anchor="middle" x="481" y="-390" font-family="Helvetica,sans-Serif" font-size="10.00"> </text>
<polyline fill="none" stroke="#bfbfbf" points="415,-383 547,-383 "/>
<text text-anchor="middle" x="481" y="-371" font-family="Helvetica,sans-Serif" font-size="10.00"> </text>
</a>
</g>
</g>
<!-- Node7&#45;&gt;Node1 -->
<g id="edge6" class="edge">
<title>Node7&#45;&gt;Node1</title>
<path fill="none" stroke="#404040" d="M457.37,-363.91C432.31,-334.66 391.35,-286.84 354.59,-243.92"/>
<polygon fill="none" stroke="#404040" points="354.38,-243.68 347.44,-241.72 346.58,-234.56 353.52,-236.52 354.38,-243.68"/>
<text text-anchor="middle" x="478.5" y="-326.5" font-family="Helvetica,sans-Serif" font-size="10.00"> #desc_function_</text>
</g>
</g>
</svg>
        <g id="navigator" transform="translate(0 0)" fill="#404254">
                <rect fill="#f2f5e9" fill-opacity="0.5" stroke="#606060" stroke-width=".5" x="0" y="0" width="60" height="60"/>
                <use id="zoomplus" xlink:href="#zoomPlus" x="17" y="9" onmousedown="handleZoom(evt,'in')"/>
                <use id="zoomminus" xlink:href="#zoomMin" x="42" y="9" onmousedown="handleZoom(evt,'out')"/>
                <use id="reset" xlink:href="#resetDef" x="30" y="36" onmousedown="handleReset()"/>
                <g id="arrowUp" xlink:href="#dirArrow" transform="translate(30 24)" onmousedown="handlePan(0,-1)">
                  <use xlink:href="#rim" fill="#404040">
                        <set attributeName="fill" to="#808080" begin="arrowUp.mouseover" end="arrowUp.mouseout"/>
                  </use>
                  <path fill="none" stroke="white" stroke-width="1.5" d="M0,-3.0v7 M-2.5,-0.5L0,-3.0L2.5,-0.5"/>
                </g>
                <g id="arrowRight" xlink:href="#dirArrow" transform="rotate(90) translate(36 -43)" onmousedown="handlePan(1,0)">
                  <use xlink:href="#rim" fill="#404040">
                        <set attributeName="fill" to="#808080" begin="arrowRight.mouseover" end="arrowRight.mouseout"/>
                  </use>
                  <path fill="none" stroke="white" stroke-width="1.5" d="M0,-3.0v7 M-2.5,-0.5L0,-3.0L2.5,-0.5"/>
                </g>
                <g id="arrowDown" xlink:href="#dirArrow" transform="rotate(180) translate(-30 -48)" onmousedown="handlePan(0,1)">
                  <use xlink:href="#rim" fill="#404040">
                        <set attributeName="fill" to="#808080" begin="arrowDown.mouseover" end="arrowDown.mouseout"/>
                  </use>
                  <path fill="none" stroke="white" stroke-width="1.5" d="M0,-3.0v7 M-2.5,-0.5L0,-3.0L2.5,-0.5"/>
                </g>
                <g id="arrowLeft" xlink:href="#dirArrow" transform="rotate(270) translate(-36 17)" onmousedown="handlePan(-1,0)">
                  <use xlink:href="#rim" fill="#404040">
                        <set attributeName="fill" to="#808080" begin="arrowLeft.mouseover" end="arrowLeft.mouseout"/>
                  </use>
                  <path fill="none" stroke="white" stroke-width="1.5" d="M0,-3.0v7 M-2.5,-0.5L0,-3.0L2.5,-0.5"/>
                </g>
        </g>
        <svg viewBox="0 0 15 15" width="100%" height="30px" preserveAspectRatio="xMaxYMin meet">
         <g id="arrow_out" transform="scale(0.3 0.3)">
          <a xlink:href="classCLI_1_1Validator__coll__graph_org.svg" target="_base">
           <rect id="button" ry="5" rx="5" y="6" x="6" height="38" width="38"
                fill="#f2f5e9" fill-opacity="0.5" stroke="#606060" stroke-width="1.0"/>
           <path id="arrow"
             d="M 11.500037,31.436501 C 11.940474,20.09759 22.043105,11.32322 32.158766,21.979434 L 37.068811,17.246167 C 37.068811,17.246167 37.088388,32 37.088388,32 L 22.160133,31.978069 C 22.160133,31.978069 26.997745,27.140456 26.997745,27.140456 C 18.528582,18.264221 13.291696,25.230495 11.500037,31.436501 z"
             style="fill:#404040;"/>
          </a>
         </g>
        </svg>
</svg>
