<?xml version="1.0" encoding="UTF-8" standalone="no"?>
<!DOCTYPE svg PUBLIC "-//W3C//DTD SVG 1.1//EN"
 "http://www.w3.org/Graphics/SVG/1.1/DTD/svg11.dtd">
<!-- Generated by graphviz version 2.43.0 (0)
 -->
<!-- Title: Ra::Gui::Viewer::processPicking Pages: 1 -->
<svg width="340pt" height="172pt"
 viewBox="0.00 0.00 340.00 171.50" xmlns="http://www.w3.org/2000/svg" xmlns:xlink="http://www.w3.org/1999/xlink">

<svg id="main" version="1.1" xmlns="http://www.w3.org/2000/svg" xmlns:xlink="http://www.w3.org/1999/xlink" xml:space="preserve" onload="init(evt)">
<style type="text/css"><![CDATA[
.node, .edge {opacity: 0.7;}
.node.selected, .edge.selected {opacity: 1;}
.edge:hover path { stroke: red; }
.edge:hover polygon { stroke: red; fill: red; }
]]></style>
<script type="application/ecmascript" xlink:href="svg.min.js"/>
<svg id="graph" class="graph">
<g id="graph0" class="graph" transform="scale(1 1) rotate(0) translate(4 167.5)">
<title>Ra::Gui::Viewer::processPicking</title>
<!-- Node1 -->
<g id="Node000001" class="node">
<title>Node1</title>
<g id="a_Node000001"><a xlink:title="Emits signals corresponding to picking requests.">
<polygon fill="#999999" stroke="#666666" points="135,-91.5 0,-91.5 0,-61.5 135,-61.5 135,-91.5"/>
<text text-anchor="start" x="8" y="-79.5" font-family="Helvetica,sans-Serif" font-size="10.00">Ra::Gui::Viewer::process</text>
<text text-anchor="middle" x="67.5" y="-68.5" font-family="Helvetica,sans-Serif" font-size="10.00">Picking</text>
</a>
</g>
</g>
<!-- Node2 -->
<g id="Node000002" class="node">
<title>Node2</title>
<g id="a_Node000002"><a xlink:href="classRa_1_1Engine_1_1Rendering_1_1Renderer.html#ac42e4205ffd8ebb7aa736b78da26dae1" target="_top" xlink:title=" ">
<polygon fill="white" stroke="#666666" points="332,-163.5 171,-163.5 171,-133.5 332,-133.5 332,-163.5"/>
<text text-anchor="start" x="179" y="-151.5" font-family="Helvetica,sans-Serif" font-size="10.00">Ra::Engine::Rendering</text>
<text text-anchor="middle" x="251.5" y="-140.5" font-family="Helvetica,sans-Serif" font-size="10.00">::Renderer::getPickingQueries</text>
</a>
</g>
</g>
<!-- Node1&#45;&gt;Node2 -->
<g id="edge1_Node000001_Node000002" class="edge">
<title>Node1&#45;&gt;Node2</title>
<g id="a_edge1_Node000001_Node000002"><a xlink:title=" ">
<path fill="none" stroke="#63b8ff" d="M97.61,-91.51C117.87,-101.62 145.68,-114.81 171,-124.5 176.13,-126.46 181.5,-128.38 186.92,-130.21"/>
<polygon fill="#63b8ff" stroke="#63b8ff" points="186.09,-133.62 196.69,-133.41 188.28,-126.97 186.09,-133.62"/>
</a>
</g>
</g>
<!-- Node3 -->
<g id="Node000003" class="node">
<title>Node3</title>
<g id="a_Node000003"><a xlink:href="classRa_1_1Engine_1_1Rendering_1_1Renderer.html#ab8bd7377df698283d3f916cb53d90be5" target="_top" xlink:title=" ">
<polygon fill="white" stroke="#666666" points="331.5,-115.5 171.5,-115.5 171.5,-85.5 331.5,-85.5 331.5,-115.5"/>
<text text-anchor="start" x="179.5" y="-103.5" font-family="Helvetica,sans-Serif" font-size="10.00">Ra::Engine::Rendering</text>
<text text-anchor="middle" x="251.5" y="-92.5" font-family="Helvetica,sans-Serif" font-size="10.00">::Renderer::getPickingResults</text>
</a>
</g>
</g>
<!-- Node1&#45;&gt;Node3 -->
<g id="edge2_Node000001_Node000003" class="edge">
<title>Node1&#45;&gt;Node3</title>
<g id="a_edge2_Node000001_Node000003"><a xlink:title=" ">
<path fill="none" stroke="#63b8ff" d="M135.24,-85.3C143.79,-86.43 152.65,-87.6 161.48,-88.76"/>
<polygon fill="#63b8ff" stroke="#63b8ff" points="161.05,-92.24 171.42,-90.07 161.97,-85.3 161.05,-92.24"/>
</a>
</g>
</g>
<!-- Node4 -->
<g id="Node000004" class="node">
<title>Node4</title>
<g id="a_Node000004"><a xlink:href="classRa_1_1Gui_1_1Viewer.html#abf7a3519a22b398266730b2d8a459005" target="_top" xlink:title="Emitted when the rendered is correctly initialized.">
<polygon fill="white" stroke="#666666" points="323.5,-67.5 179.5,-67.5 179.5,-37.5 323.5,-37.5 323.5,-67.5"/>
<text text-anchor="start" x="187.5" y="-55.5" font-family="Helvetica,sans-Serif" font-size="10.00">Ra::Gui::Viewer::rightClick</text>
<text text-anchor="middle" x="251.5" y="-44.5" font-family="Helvetica,sans-Serif" font-size="10.00">Picking</text>
</a>
</g>
</g>
<!-- Node1&#45;&gt;Node4 -->
<g id="edge3_Node000001_Node000004" class="edge">
<title>Node1&#45;&gt;Node4</title>
<g id="a_edge3_Node000001_Node000004"><a xlink:title=" ">
<path fill="none" stroke="#63b8ff" d="M135.24,-67.7C146.38,-66.23 158.04,-64.69 169.5,-63.18"/>
<polygon fill="#63b8ff" stroke="#63b8ff" points="170.03,-66.64 179.49,-61.86 169.11,-59.7 170.03,-66.64"/>
</a>
</g>
</g>
<!-- Node5 -->
<g id="Node000005" class="node">
<title>Node5</title>
<g id="a_Node000005"><a target="_blank" xlink:href="http://en.cppreference.com/w/cpp/container/vector/size.html#" xlink:title=" ">
<polygon fill="white" stroke="#666666" points="298.5,-19 204.5,-19 204.5,0 298.5,0 298.5,-19"/>
<text text-anchor="middle" x="251.5" y="-7" font-family="Helvetica,sans-Serif" font-size="10.00">std::vector::size</text>
</a>
</g>
</g>
<!-- Node1&#45;&gt;Node5 -->
<g id="edge4_Node000001_Node000005" class="edge">
<title>Node1&#45;&gt;Node5</title>
<g id="a_edge4_Node000001_Node000005"><a xlink:title=" ">
<path fill="none" stroke="#63b8ff" d="M96.57,-61.46C116.81,-51.08 145.03,-37.58 171,-28.5 178.44,-25.9 186.4,-23.53 194.29,-21.42"/>
<polygon fill="#63b8ff" stroke="#63b8ff" points="195.4,-24.75 204.22,-18.88 193.66,-17.97 195.4,-24.75"/>
</a>
</g>
</g>
</g>
</svg>
</svg>

<style type='text/css'>
<![CDATA[
[data-mouse-over-selected='false'] { opacity: 0.7; }
[data-mouse-over-selected='true']  { opacity: 1.0; }
]]>
</style>
<script type="application/ecmascript"><![CDATA[
document.addEventListener('DOMContentLoaded', (event) => {
  highlightEdges();
  highlightAdjacentNodes();
});
]]></script>
</svg>
