<?xml version="1.0" encoding="UTF-8" standalone="no"?>
<!DOCTYPE svg PUBLIC "-//W3C//DTD SVG 1.1//EN"
 "http://www.w3.org/Graphics/SVG/1.1/DTD/svg11.dtd">
<!-- Generated by graphviz version 2.43.0 (0)
 -->
<!-- Title: Ra::Gui::SkeletonBasedAnimationUI::postLoadFile Pages: 1 -->
<svg width="873pt" height="329pt"
 viewBox="0.00 0.00 873.00 328.50" xmlns="http://www.w3.org/2000/svg" xmlns:xlink="http://www.w3.org/1999/xlink">
<g id="graph0" class="graph" transform="scale(1 1) rotate(0) translate(4 324.5)">
<title>Ra::Gui::SkeletonBasedAnimationUI::postLoadFile</title>
<polygon fill="white" stroke="transparent" points="-4,4 -4,-324.5 869,-324.5 869,4 -4,4"/>
<!-- Node1 -->
<g id="node1" class="node">
<title>Node1</title>
<g id="a_node1"><a xlink:title="Registers the animation keyframes int the timeline.">
<polygon fill="#bfbfbf" stroke="black" points="0,-167 0,-197 180,-197 180,-167 0,-167"/>
<text text-anchor="start" x="8" y="-185" font-family="Helvetica,sans-Serif" font-size="10.00">Ra::Gui::SkeletonBasedAnimation</text>
<text text-anchor="middle" x="90" y="-174" font-family="Helvetica,sans-Serif" font-size="10.00">UI::postLoadFile</text>
</a>
</g>
</g>
<!-- Node2 -->
<g id="node2" class="node">
<title>Node2</title>
<g id="a_node2"><a xlink:href="classRa_1_1Engine_1_1Scene_1_1SkeletonComponent.html#a88bfaf8b0c3de753319158bfd54d428a" target="_top" xlink:title="Return the i &#45;th animation.">
<polygon fill="white" stroke="black" points="216,-290 216,-320 403,-320 403,-290 216,-290"/>
<text text-anchor="start" x="224" y="-308" font-family="Helvetica,sans-Serif" font-size="10.00">Ra::Engine::Scene::</text>
<text text-anchor="middle" x="309.5" y="-297" font-family="Helvetica,sans-Serif" font-size="10.00">SkeletonComponent::getAnimation</text>
</a>
</g>
</g>
<!-- Node1&#45;&gt;Node2 -->
<g id="edge1" class="edge">
<title>Node1&#45;&gt;Node2</title>
<path fill="none" stroke="midnightblue" d="M105.71,-197.12C127.72,-218.87 171.39,-258.8 216,-281 219.84,-282.91 223.85,-284.68 227.96,-286.32"/>
<polygon fill="midnightblue" stroke="midnightblue" points="227.09,-289.73 237.68,-289.91 229.51,-283.16 227.09,-289.73"/>
</g>
<!-- Node3 -->
<g id="node3" class="node">
<title>Node3</title>
<g id="a_node3"><a xlink:href="classRa_1_1Engine_1_1Scene_1_1Entity.html#a84c220ea552c63202359423e123758b8" target="_top" xlink:title=" ">
<polygon fill="white" stroke="black" points="245.5,-241 245.5,-271 373.5,-271 373.5,-241 245.5,-241"/>
<text text-anchor="start" x="253.5" y="-259" font-family="Helvetica,sans-Serif" font-size="10.00">Ra::Engine::Scene::</text>
<text text-anchor="middle" x="309.5" y="-248" font-family="Helvetica,sans-Serif" font-size="10.00">Entity::getComponents</text>
</a>
</g>
</g>
<!-- Node1&#45;&gt;Node3 -->
<g id="edge2" class="edge">
<title>Node1&#45;&gt;Node3</title>
<path fill="none" stroke="midnightblue" d="M125.32,-197.09C150.19,-207.7 184.8,-221.76 216,-232 222.46,-234.12 229.22,-236.18 236.03,-238.14"/>
<polygon fill="midnightblue" stroke="midnightblue" points="235.42,-241.6 245.99,-240.93 237.31,-234.86 235.42,-241.6"/>
</g>
<!-- Node4 -->
<g id="node4" class="node">
<title>Node4</title>
<g id="a_node4"><a xlink:href="classRa_1_1Gui_1_1Timeline.html#a5e3d3516b07e5a9c0e4142062bc64949" target="_top" xlink:title="onChangeEnd change end in timeline.">
<polygon fill="white" stroke="black" points="256,-192 256,-222 363,-222 363,-192 256,-192"/>
<text text-anchor="start" x="264" y="-210" font-family="Helvetica,sans-Serif" font-size="10.00">Ra::Gui::Timeline::</text>
<text text-anchor="middle" x="309.5" y="-199" font-family="Helvetica,sans-Serif" font-size="10.00">onChangeEnd</text>
</a>
</g>
</g>
<!-- Node1&#45;&gt;Node4 -->
<g id="edge3" class="edge">
<title>Node1&#45;&gt;Node4</title>
<path fill="none" stroke="midnightblue" d="M180.09,-192.24C202.07,-194.77 225.16,-197.42 245.6,-199.77"/>
<polygon fill="midnightblue" stroke="midnightblue" points="245.38,-203.27 255.72,-200.93 246.18,-196.31 245.38,-203.27"/>
</g>
<!-- Node5 -->
<g id="node5" class="node">
<title>Node5</title>
<g id="a_node5"><a xlink:href="classRa_1_1Gui_1_1Timeline.html#a11e5b2660d6c0dd995d82d2f890fda07" target="_top" xlink:title="onChangeStart change start in timeline.">
<polygon fill="white" stroke="black" points="256,-143 256,-173 363,-173 363,-143 256,-143"/>
<text text-anchor="start" x="264" y="-161" font-family="Helvetica,sans-Serif" font-size="10.00">Ra::Gui::Timeline::</text>
<text text-anchor="middle" x="309.5" y="-150" font-family="Helvetica,sans-Serif" font-size="10.00">onChangeStart</text>
</a>
</g>
</g>
<!-- Node1&#45;&gt;Node5 -->
<g id="edge4" class="edge">
<title>Node1&#45;&gt;Node5</title>
<path fill="none" stroke="midnightblue" d="M180.09,-172.17C202.07,-169.74 225.16,-167.2 245.6,-164.94"/>
<polygon fill="midnightblue" stroke="midnightblue" points="246.16,-168.4 255.72,-163.82 245.39,-161.44 246.16,-168.4"/>
</g>
<!-- Node6 -->
<g id="node6" class="node">
<title>Node6</title>
<g id="a_node6"><a xlink:href="classRa_1_1Gui_1_1Timeline.html#ac6ec7a3145e199e3de1de67ea7bd15a0" target="_top" xlink:title=" ">
<polygon fill="white" stroke="black" points="241.5,-94 241.5,-124 377.5,-124 377.5,-94 241.5,-94"/>
<text text-anchor="start" x="249.5" y="-112" font-family="Helvetica,sans-Serif" font-size="10.00">Ra::Gui::Timeline::</text>
<text text-anchor="middle" x="309.5" y="-101" font-family="Helvetica,sans-Serif" font-size="10.00">registerKeyFramedValue</text>
</a>
</g>
</g>
<!-- Node1&#45;&gt;Node6 -->
<g id="edge5" class="edge">
<title>Node1&#45;&gt;Node6</title>
<path fill="none" stroke="midnightblue" d="M127.29,-166.93C152.05,-156.93 185.72,-143.88 216,-134 223.53,-131.54 231.47,-129.13 239.39,-126.84"/>
<polygon fill="midnightblue" stroke="midnightblue" points="240.35,-130.21 249.02,-124.11 238.44,-123.47 240.35,-130.21"/>
</g>
<!-- Node13 -->
<g id="node13" class="node">
<title>Node13</title>
<g id="a_node13"><a xlink:href="namespaceRa_1_1Core_1_1Geometry.html#aa04e6052d8911b1df1bd881474debb45" target="_top" xlink:title=" ">
<polygon fill="white" stroke="black" points="585,-0.5 585,-19.5 707,-19.5 707,-0.5 585,-0.5"/>
<text text-anchor="middle" x="646" y="-7.5" font-family="Helvetica,sans-Serif" font-size="10.00">Ra::Core::Geometry::t</text>
</a>
</g>
</g>
<!-- Node1&#45;&gt;Node13 -->
<g id="edge14" class="edge">
<title>Node1&#45;&gt;Node13</title>
<path fill="none" stroke="midnightblue" d="M105.55,-166.72C127.35,-144.83 170.78,-105 216,-85 334.72,-32.48 487.17,-16.67 574.7,-11.96"/>
<polygon fill="midnightblue" stroke="midnightblue" points="574.98,-15.45 584.79,-11.45 574.62,-8.46 574.98,-15.45"/>
</g>
<!-- Node7 -->
<g id="node7" class="node">
<title>Node7</title>
<g id="a_node7"><a xlink:href="classRa_1_1Engine_1_1Scene_1_1Entity.html#aca70e4d7a9078c377650ac4ea59748bd" target="_top" xlink:title=" ">
<polygon fill="white" stroke="black" points="591,-198 591,-228 701,-228 701,-198 591,-198"/>
<text text-anchor="start" x="599" y="-216" font-family="Helvetica,sans-Serif" font-size="10.00">Ra::Engine::Scene::</text>
<text text-anchor="middle" x="646" y="-205" font-family="Helvetica,sans-Serif" font-size="10.00">Entity::getName</text>
</a>
</g>
</g>
<!-- Node6&#45;&gt;Node7 -->
<g id="edge6" class="edge">
<title>Node6&#45;&gt;Node7</title>
<path fill="none" stroke="midnightblue" d="M367.87,-124.01C379.53,-127.2 391.68,-130.63 403,-134 468.18,-153.43 542.45,-178.05 591.33,-194.6"/>
<polygon fill="midnightblue" stroke="midnightblue" points="590.46,-198 601.05,-197.9 592.71,-191.37 590.46,-198"/>
</g>
<!-- Node8 -->
<g id="node8" class="node">
<title>Node8</title>
<g id="a_node8"><a xlink:href="classRa_1_1Gui_1_1Timeline.html#a4f36c4d5bbf6005a10f4b19f2879ee60" target="_top" xlink:title=" ">
<polygon fill="white" stroke="black" points="439,-94 439,-124 546,-124 546,-94 439,-94"/>
<text text-anchor="start" x="447" y="-112" font-family="Helvetica,sans-Serif" font-size="10.00">Ra::Gui::Timeline::</text>
<text text-anchor="middle" x="492.5" y="-101" font-family="Helvetica,sans-Serif" font-size="10.00">selectionChanged</text>
</a>
</g>
</g>
<!-- Node6&#45;&gt;Node8 -->
<g id="edge7" class="edge">
<title>Node6&#45;&gt;Node8</title>
<path fill="none" stroke="midnightblue" d="M377.64,-109C394.39,-109 412.28,-109 428.8,-109"/>
<polygon fill="midnightblue" stroke="midnightblue" points="428.89,-112.5 438.89,-109 428.89,-105.5 428.89,-112.5"/>
</g>
<!-- Node8&#45;&gt;Node7 -->
<g id="edge8" class="edge">
<title>Node8&#45;&gt;Node7</title>
<path fill="none" stroke="midnightblue" d="M506.87,-124.1C523.14,-141.71 552.15,-170.72 582,-189 584.61,-190.6 587.35,-192.12 590.15,-193.57"/>
<polygon fill="midnightblue" stroke="midnightblue" points="588.76,-196.78 599.29,-197.92 591.77,-190.46 588.76,-196.78"/>
</g>
<!-- Node9 -->
<g id="node9" class="node">
<title>Node9</title>
<g id="a_node9"><a xlink:href="classRa_1_1Engine_1_1Scene_1_1Component.html#a60e3234670ccfb680405445f06d2854e" target="_top" xlink:title="Return the component&#39;s name.">
<polygon fill="white" stroke="black" points="584,-149 584,-179 708,-179 708,-149 584,-149"/>
<text text-anchor="start" x="592" y="-167" font-family="Helvetica,sans-Serif" font-size="10.00">Ra::Engine::Scene::</text>
<text text-anchor="middle" x="646" y="-156" font-family="Helvetica,sans-Serif" font-size="10.00">Component::getName</text>
</a>
</g>
</g>
<!-- Node8&#45;&gt;Node9 -->
<g id="edge9" class="edge">
<title>Node8&#45;&gt;Node9</title>
<path fill="none" stroke="midnightblue" d="M534.9,-124.03C553.19,-130.67 574.86,-138.54 594.12,-145.53"/>
<polygon fill="midnightblue" stroke="midnightblue" points="593.06,-148.87 603.65,-148.99 595.45,-142.29 593.06,-148.87"/>
</g>
<!-- Node10 -->
<g id="node10" class="node">
<title>Node10</title>
<g id="a_node10"><a xlink:href="classRa_1_1Core_1_1Animation_1_1KeyFramedValueBase.html#a170dcf7c25367d3922bc4335e57aef4b" target="_top" xlink:title=" ">
<polygon fill="white" stroke="black" points="582,-88.5 582,-129.5 710,-129.5 710,-88.5 582,-88.5"/>
<text text-anchor="start" x="590" y="-117.5" font-family="Helvetica,sans-Serif" font-size="10.00">Ra::Core::Animation</text>
<text text-anchor="start" x="590" y="-106.5" font-family="Helvetica,sans-Serif" font-size="10.00">::KeyFramedValueBase</text>
<text text-anchor="middle" x="646" y="-95.5" font-family="Helvetica,sans-Serif" font-size="10.00">::getTimes</text>
</a>
</g>
</g>
<!-- Node8&#45;&gt;Node10 -->
<g id="edge10" class="edge">
<title>Node8&#45;&gt;Node10</title>
<path fill="none" stroke="midnightblue" d="M546.06,-109C554.35,-109 563.06,-109 571.72,-109"/>
<polygon fill="midnightblue" stroke="midnightblue" points="571.84,-112.5 581.84,-109 571.84,-105.5 571.84,-112.5"/>
</g>
<!-- Node11 -->
<g id="node11" class="node">
<title>Node11</title>
<g id="a_node11"><a xlink:href="classRa_1_1Core_1_1Utils_1_1Index.html#a771f93efd49538950e3cb9e57e46fbaf" target="_top" xlink:title=" ">
<polygon fill="white" stroke="black" points="586.5,-39 586.5,-69 705.5,-69 705.5,-39 586.5,-39"/>
<text text-anchor="start" x="594.5" y="-57" font-family="Helvetica,sans-Serif" font-size="10.00">Ra::Core::Utils::Index</text>
<text text-anchor="middle" x="646" y="-46" font-family="Helvetica,sans-Serif" font-size="10.00">::Invalid</text>
</a>
</g>
</g>
<!-- Node8&#45;&gt;Node11 -->
<g id="edge11" class="edge">
<title>Node8&#45;&gt;Node11</title>
<path fill="none" stroke="midnightblue" d="M534.9,-93.97C553.19,-87.33 574.86,-79.46 594.12,-72.47"/>
<polygon fill="midnightblue" stroke="midnightblue" points="595.45,-75.71 603.65,-69.01 593.06,-69.13 595.45,-75.71"/>
</g>
<!-- Node8&#45;&gt;Node13 -->
<g id="edge13" class="edge">
<title>Node8&#45;&gt;Node13</title>
<path fill="none" stroke="midnightblue" d="M506.37,-93.84C522.37,-75.91 551.34,-46.31 582,-29 585.91,-26.79 590.11,-24.81 594.41,-23.05"/>
<polygon fill="midnightblue" stroke="midnightblue" points="595.77,-26.28 603.92,-19.51 593.33,-19.72 595.77,-26.28"/>
</g>
<!-- Node12 -->
<g id="node12" class="node">
<title>Node12</title>
<g id="a_node12"><a xlink:href="classRa_1_1Core_1_1Utils_1_1Index.html#ab3376097b792b1ac2068c6da1cb6c8e4" target="_top" xlink:title="CONSTRUCTOR.">
<polygon fill="white" stroke="black" points="746,-39 746,-69 865,-69 865,-39 746,-39"/>
<text text-anchor="start" x="754" y="-57" font-family="Helvetica,sans-Serif" font-size="10.00">Ra::Core::Utils::Index</text>
<text text-anchor="middle" x="805.5" y="-46" font-family="Helvetica,sans-Serif" font-size="10.00">::Index</text>
</a>
</g>
</g>
<!-- Node11&#45;&gt;Node12 -->
<g id="edge12" class="edge">
<title>Node11&#45;&gt;Node12</title>
<path fill="none" stroke="midnightblue" d="M705.65,-54C715.38,-54 725.56,-54 735.52,-54"/>
<polygon fill="midnightblue" stroke="midnightblue" points="735.8,-57.5 745.8,-54 735.8,-50.5 735.8,-57.5"/>
</g>
</g>
</svg>
