<?xml version="1.0" encoding="UTF-8" standalone="no"?>
<!DOCTYPE svg PUBLIC "-//W3C//DTD SVG 1.1//EN"
 "http://www.w3.org/Graphics/SVG/1.1/DTD/svg11.dtd">
<!-- Generated by graphviz version 2.43.0 (0)
 -->
<!-- Title: CLI::OptionDefaults Pages: 1 -->
<svg width="739pt" height="1071pt"
 viewBox="0.00 0.00 738.50 1071.00" xmlns="http://www.w3.org/2000/svg" xmlns:xlink="http://www.w3.org/1999/xlink">
<g id="graph0" class="graph" transform="scale(1 1) rotate(0) translate(4 1067)">
<title>CLI::OptionDefaults</title>
<polygon fill="white" stroke="transparent" points="-4,4 -4,-1067 734.5,-1067 734.5,4 -4,4"/>
<!-- Node1 -->
<g id="node1" class="node">
<title>Node1</title>
<g id="a_node1"><a xlink:title=" ">
<polygon fill="#bfbfbf" stroke="black" points="285.5,-0.5 285.5,-112.5 425.5,-112.5 425.5,-0.5 285.5,-0.5"/>
<text text-anchor="middle" x="355.5" y="-100.5" font-family="Helvetica,sans-Serif" font-size="10.00">CLI::OptionDefaults</text>
<polyline fill="none" stroke="black" points="285.5,-93.5 425.5,-93.5 "/>
<text text-anchor="middle" x="355.5" y="-81.5" font-family="Helvetica,sans-Serif" font-size="10.00"> </text>
<polyline fill="none" stroke="black" points="285.5,-74.5 425.5,-74.5 "/>
<text text-anchor="start" x="293.5" y="-62.5" font-family="Helvetica,sans-Serif" font-size="10.00">+ OptionDefaults()</text>
<text text-anchor="start" x="293.5" y="-51.5" font-family="Helvetica,sans-Serif" font-size="10.00">+ multi_option_policy()</text>
<text text-anchor="start" x="293.5" y="-40.5" font-family="Helvetica,sans-Serif" font-size="10.00">+ ignore_case()</text>
<text text-anchor="start" x="293.5" y="-29.5" font-family="Helvetica,sans-Serif" font-size="10.00">+ ignore_underscore()</text>
<text text-anchor="start" x="293.5" y="-18.5" font-family="Helvetica,sans-Serif" font-size="10.00">+ disable_flag_override()</text>
<text text-anchor="start" x="293.5" y="-7.5" font-family="Helvetica,sans-Serif" font-size="10.00">+ delimiter()</text>
</a>
</g>
</g>
<!-- Node2 -->
<g id="node2" class="node">
<title>Node2</title>
<g id="a_node2"><a xlink:href="classCLI_1_1OptionBase.html" target="_top" xlink:title=" ">
<polygon fill="white" stroke="black" points="260.5,-150.5 260.5,-438.5 450.5,-438.5 450.5,-150.5 260.5,-150.5"/>
<text text-anchor="middle" x="355.5" y="-426.5" font-family="Helvetica,sans-Serif" font-size="10.00">CLI::OptionBase&lt; OptionDefaults &gt;</text>
<polyline fill="none" stroke="black" points="260.5,-419.5 450.5,-419.5 "/>
<text text-anchor="middle" x="355.5" y="-407.5" font-family="Helvetica,sans-Serif" font-size="10.00"> </text>
<polyline fill="none" stroke="black" points="260.5,-400.5 450.5,-400.5 "/>
<text text-anchor="start" x="268.5" y="-388.5" font-family="Helvetica,sans-Serif" font-size="10.00">+ group()</text>
<text text-anchor="start" x="268.5" y="-377.5" font-family="Helvetica,sans-Serif" font-size="10.00">+ required()</text>
<text text-anchor="start" x="268.5" y="-366.5" font-family="Helvetica,sans-Serif" font-size="10.00">+ mandatory()</text>
<text text-anchor="start" x="268.5" y="-355.5" font-family="Helvetica,sans-Serif" font-size="10.00">+ always_capture_default()</text>
<text text-anchor="start" x="268.5" y="-344.5" font-family="Helvetica,sans-Serif" font-size="10.00">+ get_group()</text>
<text text-anchor="start" x="268.5" y="-333.5" font-family="Helvetica,sans-Serif" font-size="10.00">+ get_required()</text>
<text text-anchor="start" x="268.5" y="-322.5" font-family="Helvetica,sans-Serif" font-size="10.00">+ get_ignore_case()</text>
<text text-anchor="start" x="268.5" y="-311.5" font-family="Helvetica,sans-Serif" font-size="10.00">+ get_ignore_underscore()</text>
<text text-anchor="start" x="268.5" y="-300.5" font-family="Helvetica,sans-Serif" font-size="10.00">+ get_configurable()</text>
<text text-anchor="start" x="268.5" y="-289.5" font-family="Helvetica,sans-Serif" font-size="10.00">+ get_disable_flag_override()</text>
<text text-anchor="start" x="268.5" y="-278.5" font-family="Helvetica,sans-Serif" font-size="10.00">+ get_delimiter()</text>
<text text-anchor="start" x="268.5" y="-267.5" font-family="Helvetica,sans-Serif" font-size="10.00">+ get_always_capture</text>
<text text-anchor="start" x="268.5" y="-256.5" font-family="Helvetica,sans-Serif" font-size="10.00">_default()</text>
<text text-anchor="start" x="268.5" y="-245.5" font-family="Helvetica,sans-Serif" font-size="10.00">+ get_multi_option_policy()</text>
<text text-anchor="start" x="268.5" y="-234.5" font-family="Helvetica,sans-Serif" font-size="10.00">+ take_last()</text>
<text text-anchor="start" x="268.5" y="-223.5" font-family="Helvetica,sans-Serif" font-size="10.00">+ take_first()</text>
<text text-anchor="start" x="268.5" y="-212.5" font-family="Helvetica,sans-Serif" font-size="10.00">+ take_all()</text>
<text text-anchor="start" x="268.5" y="-201.5" font-family="Helvetica,sans-Serif" font-size="10.00">+ join()</text>
<text text-anchor="start" x="268.5" y="-190.5" font-family="Helvetica,sans-Serif" font-size="10.00">+ join()</text>
<text text-anchor="start" x="268.5" y="-179.5" font-family="Helvetica,sans-Serif" font-size="10.00">+ configurable()</text>
<text text-anchor="start" x="268.5" y="-168.5" font-family="Helvetica,sans-Serif" font-size="10.00">+ delimiter()</text>
<text text-anchor="start" x="268.5" y="-157.5" font-family="Helvetica,sans-Serif" font-size="10.00"># copy_to()</text>
</a>
</g>
</g>
<!-- Node2&#45;&gt;Node1 -->
<g id="edge1" class="edge">
<title>Node2&#45;&gt;Node1</title>
<path fill="none" stroke="midnightblue" d="M355.5,-140.28C355.5,-130.64 355.5,-121.35 355.5,-112.69"/>
<polygon fill="none" stroke="midnightblue" points="352,-140.43 355.5,-150.43 359,-140.43 352,-140.43"/>
</g>
<!-- Node3 -->
<g id="node3" class="node">
<title>Node3</title>
<g id="a_node3"><a xlink:href="classchar.html" target="_top" xlink:title=" ">
<polygon fill="white" stroke="black" points="203.5,-899.5 203.5,-956.5 241.5,-956.5 241.5,-899.5 203.5,-899.5"/>
<text text-anchor="middle" x="222.5" y="-944.5" font-family="Helvetica,sans-Serif" font-size="10.00">char</text>
<polyline fill="none" stroke="black" points="203.5,-937.5 241.5,-937.5 "/>
<text text-anchor="middle" x="222.5" y="-925.5" font-family="Helvetica,sans-Serif" font-size="10.00"> </text>
<polyline fill="none" stroke="black" points="203.5,-918.5 241.5,-918.5 "/>
<text text-anchor="middle" x="222.5" y="-906.5" font-family="Helvetica,sans-Serif" font-size="10.00"> </text>
</a>
</g>
</g>
<!-- Node3&#45;&gt;Node2 -->
<g id="edge2" class="edge">
<title>Node3&#45;&gt;Node2</title>
<path fill="none" stroke="#404040" d="M214.56,-899.39C195.56,-828.37 152.77,-634.53 204.5,-486 215.19,-455.3 233.12,-425.82 252.97,-399.61"/>
<polygon fill="none" stroke="#404040" points="252.99,-399.58 253.52,-392.39 260.36,-390.11 259.83,-397.3 252.99,-399.58"/>
<text text-anchor="middle" x="235" y="-628" font-family="Helvetica,sans-Serif" font-size="10.00"> #delimiter_</text>
</g>
<!-- Node8 -->
<g id="node8" class="node">
<title>Node8</title>
<g id="a_node8"><a xlink:href="classCLI_1_1OptionBase.html" target="_top" xlink:title=" ">
<polygon fill="white" stroke="black" points="275,-486.5 275,-774.5 436,-774.5 436,-486.5 275,-486.5"/>
<text text-anchor="middle" x="355.5" y="-762.5" font-family="Helvetica,sans-Serif" font-size="10.00">CLI::OptionBase&lt; CRTP &gt;</text>
<polyline fill="none" stroke="black" points="275,-755.5 436,-755.5 "/>
<text text-anchor="middle" x="355.5" y="-743.5" font-family="Helvetica,sans-Serif" font-size="10.00"> </text>
<polyline fill="none" stroke="black" points="275,-736.5 436,-736.5 "/>
<text text-anchor="start" x="283" y="-724.5" font-family="Helvetica,sans-Serif" font-size="10.00">+ group()</text>
<text text-anchor="start" x="283" y="-713.5" font-family="Helvetica,sans-Serif" font-size="10.00">+ required()</text>
<text text-anchor="start" x="283" y="-702.5" font-family="Helvetica,sans-Serif" font-size="10.00">+ mandatory()</text>
<text text-anchor="start" x="283" y="-691.5" font-family="Helvetica,sans-Serif" font-size="10.00">+ always_capture_default()</text>
<text text-anchor="start" x="283" y="-680.5" font-family="Helvetica,sans-Serif" font-size="10.00">+ get_group()</text>
<text text-anchor="start" x="283" y="-669.5" font-family="Helvetica,sans-Serif" font-size="10.00">+ get_required()</text>
<text text-anchor="start" x="283" y="-658.5" font-family="Helvetica,sans-Serif" font-size="10.00">+ get_ignore_case()</text>
<text text-anchor="start" x="283" y="-647.5" font-family="Helvetica,sans-Serif" font-size="10.00">+ get_ignore_underscore()</text>
<text text-anchor="start" x="283" y="-636.5" font-family="Helvetica,sans-Serif" font-size="10.00">+ get_configurable()</text>
<text text-anchor="start" x="283" y="-625.5" font-family="Helvetica,sans-Serif" font-size="10.00">+ get_disable_flag_override()</text>
<text text-anchor="start" x="283" y="-614.5" font-family="Helvetica,sans-Serif" font-size="10.00">+ get_delimiter()</text>
<text text-anchor="start" x="283" y="-603.5" font-family="Helvetica,sans-Serif" font-size="10.00">+ get_always_capture</text>
<text text-anchor="start" x="283" y="-592.5" font-family="Helvetica,sans-Serif" font-size="10.00">_default()</text>
<text text-anchor="start" x="283" y="-581.5" font-family="Helvetica,sans-Serif" font-size="10.00">+ get_multi_option_policy()</text>
<text text-anchor="start" x="283" y="-570.5" font-family="Helvetica,sans-Serif" font-size="10.00">+ take_last()</text>
<text text-anchor="start" x="283" y="-559.5" font-family="Helvetica,sans-Serif" font-size="10.00">+ take_first()</text>
<text text-anchor="start" x="283" y="-548.5" font-family="Helvetica,sans-Serif" font-size="10.00">+ take_all()</text>
<text text-anchor="start" x="283" y="-537.5" font-family="Helvetica,sans-Serif" font-size="10.00">+ join()</text>
<text text-anchor="start" x="283" y="-526.5" font-family="Helvetica,sans-Serif" font-size="10.00">+ join()</text>
<text text-anchor="start" x="283" y="-515.5" font-family="Helvetica,sans-Serif" font-size="10.00">+ configurable()</text>
<text text-anchor="start" x="283" y="-504.5" font-family="Helvetica,sans-Serif" font-size="10.00">+ delimiter()</text>
<text text-anchor="start" x="283" y="-493.5" font-family="Helvetica,sans-Serif" font-size="10.00"># copy_to()</text>
</a>
</g>
</g>
<!-- Node3&#45;&gt;Node8 -->
<g id="edge8" class="edge">
<title>Node3&#45;&gt;Node8</title>
<path fill="none" stroke="#404040" d="M234.89,-899.47C246.96,-872.65 266.32,-829.64 286.03,-785.85"/>
<polygon fill="none" stroke="#404040" points="286.12,-785.66 284.93,-778.54 291.04,-774.71 292.23,-781.83 286.12,-785.66"/>
<text text-anchor="middle" x="311" y="-834.5" font-family="Helvetica,sans-Serif" font-size="10.00"> #delimiter_</text>
</g>
<!-- Node4 -->
<g id="node4" class="node">
<title>Node4</title>
<g id="a_node4"><a xlink:title=" ">
<polygon fill="white" stroke="#bfbfbf" points="0,-899.5 0,-956.5 103,-956.5 103,-899.5 0,-899.5"/>
<text text-anchor="middle" x="51.5" y="-944.5" font-family="Helvetica,sans-Serif" font-size="10.00">MultiOptionPolicy</text>
<polyline fill="none" stroke="#bfbfbf" points="0,-937.5 103,-937.5 "/>
<text text-anchor="middle" x="51.5" y="-925.5" font-family="Helvetica,sans-Serif" font-size="10.00"> </text>
<polyline fill="none" stroke="#bfbfbf" points="0,-918.5 103,-918.5 "/>
<text text-anchor="middle" x="51.5" y="-906.5" font-family="Helvetica,sans-Serif" font-size="10.00"> </text>
</a>
</g>
</g>
<!-- Node4&#45;&gt;Node2 -->
<g id="edge3" class="edge">
<title>Node4&#45;&gt;Node2</title>
<path fill="none" stroke="#404040" d="M44.01,-899.39C25.83,-826.33 -13.71,-624.04 63.5,-486 103.58,-414.34 183.17,-365.13 249.15,-334.71"/>
<polygon fill="none" stroke="#404040" points="249.51,-334.54 253.34,-328.43 260.45,-329.61 256.63,-335.73 249.51,-334.54"/>
<text text-anchor="middle" x="120" y="-628" font-family="Helvetica,sans-Serif" font-size="10.00"> #multi_option_policy_</text>
</g>
<!-- Node4&#45;&gt;Node8 -->
<g id="edge9" class="edge">
<title>Node4&#45;&gt;Node8</title>
<path fill="none" stroke="#404040" d="M59.28,-899.31C69.63,-868.01 91.1,-818.17 128.5,-793 177.62,-759.94 210.36,-806.49 260.5,-775 262.04,-774.03 263.56,-773.03 265.07,-771.99"/>
<polygon fill="none" stroke="#404040" points="265.14,-771.94 267.5,-765.13 274.7,-764.7 272.33,-771.51 265.14,-771.94"/>
<text text-anchor="middle" x="185" y="-834.5" font-family="Helvetica,sans-Serif" font-size="10.00"> #multi_option_policy_</text>
</g>
<!-- Node5 -->
<g id="node5" class="node">
<title>Node5</title>
<g id="a_node5"><a xlink:href="classbool.html" target="_top" xlink:title=" ">
<polygon fill="white" stroke="black" points="550.5,-899.5 550.5,-956.5 588.5,-956.5 588.5,-899.5 550.5,-899.5"/>
<text text-anchor="middle" x="569.5" y="-944.5" font-family="Helvetica,sans-Serif" font-size="10.00">bool</text>
<polyline fill="none" stroke="black" points="550.5,-937.5 588.5,-937.5 "/>
<text text-anchor="middle" x="569.5" y="-925.5" font-family="Helvetica,sans-Serif" font-size="10.00"> </text>
<polyline fill="none" stroke="black" points="550.5,-918.5 588.5,-918.5 "/>
<text text-anchor="middle" x="569.5" y="-906.5" font-family="Helvetica,sans-Serif" font-size="10.00"> </text>
</a>
</g>
</g>
<!-- Node5&#45;&gt;Node2 -->
<g id="edge4" class="edge">
<title>Node5&#45;&gt;Node2</title>
<path fill="none" stroke="#404040" d="M588.67,-915.3C599.95,-907.22 613.2,-895.37 619.5,-881 635.22,-845.19 623.99,-831.85 619.5,-793 603.39,-653.78 615.9,-608.32 547.5,-486 525.3,-446.29 492.4,-409.35 460.08,-378.77"/>
<polygon fill="none" stroke="#404040" points="459.77,-378.49 452.66,-377.33 450.99,-370.32 458.1,-371.48 459.77,-378.49"/>
<text text-anchor="middle" x="674" y="-666.5" font-family="Helvetica,sans-Serif" font-size="10.00"> #ignore_case_</text>
<text text-anchor="start" x="617.5" y="-655.5" font-family="Helvetica,sans-Serif" font-size="10.00">#disable_flag_override</text>
<text text-anchor="middle" x="674" y="-644.5" font-family="Helvetica,sans-Serif" font-size="10.00">_</text>
<text text-anchor="start" x="617.5" y="-633.5" font-family="Helvetica,sans-Serif" font-size="10.00">#always_capture</text>
<text text-anchor="middle" x="674" y="-622.5" font-family="Helvetica,sans-Serif" font-size="10.00">_default_</text>
<text text-anchor="middle" x="674" y="-611.5" font-family="Helvetica,sans-Serif" font-size="10.00">#configurable_</text>
<text text-anchor="middle" x="674" y="-600.5" font-family="Helvetica,sans-Serif" font-size="10.00">#required_</text>
<text text-anchor="middle" x="674" y="-589.5" font-family="Helvetica,sans-Serif" font-size="10.00">#ignore_underscore_</text>
</g>
<!-- Node5&#45;&gt;Node8 -->
<g id="edge10" class="edge">
<title>Node5&#45;&gt;Node8</title>
<path fill="none" stroke="#404040" d="M550.25,-916.32C536.69,-908.06 518.83,-895.58 506.5,-881 478.27,-847.61 484.45,-830.82 462.5,-793 457.67,-784.68 455.82,-783.01 450.5,-775 448,-771.23 445.46,-767.41 442.89,-763.55"/>
<polygon fill="none" stroke="#404040" points="442.7,-763.26 436.05,-760.47 436.07,-753.26 442.72,-756.04 442.7,-763.26"/>
<text text-anchor="middle" x="563" y="-873" font-family="Helvetica,sans-Serif" font-size="10.00"> #ignore_case_</text>
<text text-anchor="start" x="506.5" y="-862" font-family="Helvetica,sans-Serif" font-size="10.00">#disable_flag_override</text>
<text text-anchor="middle" x="563" y="-851" font-family="Helvetica,sans-Serif" font-size="10.00">_</text>
<text text-anchor="start" x="506.5" y="-840" font-family="Helvetica,sans-Serif" font-size="10.00">#always_capture</text>
<text text-anchor="middle" x="563" y="-829" font-family="Helvetica,sans-Serif" font-size="10.00">_default_</text>
<text text-anchor="middle" x="563" y="-818" font-family="Helvetica,sans-Serif" font-size="10.00">#configurable_</text>
<text text-anchor="middle" x="563" y="-807" font-family="Helvetica,sans-Serif" font-size="10.00">#required_</text>
<text text-anchor="middle" x="563" y="-796" font-family="Helvetica,sans-Serif" font-size="10.00">#ignore_underscore_</text>
</g>
<!-- Node6 -->
<g id="node6" class="node">
<title>Node6</title>
<g id="a_node6"><a xlink:title="STL class.">
<polygon fill="white" stroke="#bfbfbf" points="395,-899.5 395,-956.5 460,-956.5 460,-899.5 395,-899.5"/>
<text text-anchor="middle" x="427.5" y="-944.5" font-family="Helvetica,sans-Serif" font-size="10.00">std::string</text>
<polyline fill="none" stroke="#bfbfbf" points="395,-937.5 460,-937.5 "/>
<text text-anchor="middle" x="427.5" y="-925.5" font-family="Helvetica,sans-Serif" font-size="10.00"> </text>
<polyline fill="none" stroke="#bfbfbf" points="395,-918.5 460,-918.5 "/>
<text text-anchor="middle" x="427.5" y="-906.5" font-family="Helvetica,sans-Serif" font-size="10.00"> </text>
</a>
</g>
</g>
<!-- Node6&#45;&gt;Node2 -->
<g id="edge5" class="edge">
<title>Node6&#45;&gt;Node2</title>
<path fill="none" stroke="#404040" d="M449.85,-899.4C453.41,-893.63 456.56,-887.35 458.5,-881 513.56,-700.78 511.28,-637.9 458.5,-457 457.44,-453.37 456.27,-449.74 455,-446.12"/>
<polygon fill="none" stroke="#404040" points="454.89,-445.82 449.03,-441.63 450.64,-434.6 456.51,-438.8 454.89,-445.82"/>
<text text-anchor="middle" x="521" y="-628" font-family="Helvetica,sans-Serif" font-size="10.00"> #group_</text>
</g>
<!-- Node6&#45;&gt;Node8 -->
<g id="edge11" class="edge">
<title>Node6&#45;&gt;Node8</title>
<path fill="none" stroke="#404040" d="M418.76,-899.36C416.94,-893.33 415.1,-886.97 413.5,-881 405.36,-850.62 397.29,-817.99 389.87,-786.67"/>
<polygon fill="none" stroke="#404040" points="389.81,-786.42 384.54,-781.49 387.06,-774.73 392.33,-779.66 389.81,-786.42"/>
<text text-anchor="middle" x="436" y="-834.5" font-family="Helvetica,sans-Serif" font-size="10.00"> #group_</text>
</g>
<!-- Node7 -->
<g id="node7" class="node">
<title>Node7</title>
<g id="a_node7"><a xlink:title="STL class.">
<polygon fill="white" stroke="#bfbfbf" points="375.5,-994.5 375.5,-1062.5 479.5,-1062.5 479.5,-994.5 375.5,-994.5"/>
<text text-anchor="start" x="383.5" y="-1050.5" font-family="Helvetica,sans-Serif" font-size="10.00">std::basic_string&lt;</text>
<text text-anchor="middle" x="427.5" y="-1039.5" font-family="Helvetica,sans-Serif" font-size="10.00"> char &gt;</text>
<polyline fill="none" stroke="#bfbfbf" points="375.5,-1032.5 479.5,-1032.5 "/>
<text text-anchor="middle" x="427.5" y="-1020.5" font-family="Helvetica,sans-Serif" font-size="10.00"> </text>
<polyline fill="none" stroke="#bfbfbf" points="375.5,-1013.5 479.5,-1013.5 "/>
<text text-anchor="middle" x="427.5" y="-1001.5" font-family="Helvetica,sans-Serif" font-size="10.00"> </text>
</a>
</g>
</g>
<!-- Node7&#45;&gt;Node6 -->
<g id="edge6" class="edge">
<title>Node7&#45;&gt;Node6</title>
<path fill="none" stroke="midnightblue" d="M427.5,-984.38C427.5,-974.94 427.5,-965.2 427.5,-956.57"/>
<polygon fill="none" stroke="midnightblue" points="424,-984.43 427.5,-994.43 431,-984.43 424,-984.43"/>
</g>
<!-- Node8&#45;&gt;Node2 -->
<g id="edge7" class="edge">
<title>Node8&#45;&gt;Node2</title>
<path fill="none" stroke="orange" d="M355.5,-476.34C355.5,-463.76 355.5,-451.07 355.5,-438.57"/>
<polygon fill="orange" stroke="orange" points="352,-476.4 355.5,-486.4 359,-476.4 352,-476.4"/>
<text text-anchor="middle" x="405.5" y="-460" font-family="Helvetica,sans-Serif" font-size="10.00"> &lt; OptionDefaults &gt;</text>
</g>
</g>
</svg>
