<?xml version="1.0" encoding="UTF-8" standalone="no"?>
<!DOCTYPE svg PUBLIC "-//W3C//DTD SVG 1.1//EN"
 "http://www.w3.org/Graphics/SVG/1.1/DTD/svg11.dtd">
<!-- Generated by graphviz version 2.43.0 (0)
 -->
<!-- Title: Ra::Core::Asset::FileLoaderInterface Pages: 1 -->
<svg width="612pt" height="270pt"
 viewBox="0.00 0.00 612.00 270.00" xmlns="http://www.w3.org/2000/svg" xmlns:xlink="http://www.w3.org/1999/xlink">
<g id="graph0" class="graph" transform="scale(1 1) rotate(0) translate(4 266)">
<title>Ra::Core::Asset::FileLoaderInterface</title>
<polygon fill="white" stroke="transparent" points="-4,4 -4,-266 608,-266 608,4 -4,4"/>
<!-- Node1 -->
<g id="node1" class="node">
<title>Node1</title>
<g id="a_node1"><a xlink:title=" ">
<polygon fill="#bfbfbf" stroke="black" points="230.5,-149.5 230.5,-261.5 377.5,-261.5 377.5,-149.5 230.5,-149.5"/>
<text text-anchor="start" x="238.5" y="-249.5" font-family="Helvetica,sans-Serif" font-size="10.00">Ra::Core::Asset::FileLoader</text>
<text text-anchor="middle" x="304" y="-238.5" font-family="Helvetica,sans-Serif" font-size="10.00">Interface</text>
<polyline fill="none" stroke="black" points="230.5,-231.5 377.5,-231.5 "/>
<text text-anchor="middle" x="304" y="-219.5" font-family="Helvetica,sans-Serif" font-size="10.00"> </text>
<polyline fill="none" stroke="black" points="230.5,-212.5 377.5,-212.5 "/>
<text text-anchor="start" x="238.5" y="-200.5" font-family="Helvetica,sans-Serif" font-size="10.00">+ ~FileLoaderInterface()</text>
<text text-anchor="start" x="238.5" y="-189.5" font-family="Helvetica,sans-Serif" font-size="10.00">+ getFileExtensions()</text>
<text text-anchor="start" x="238.5" y="-178.5" font-family="Helvetica,sans-Serif" font-size="10.00">+ handleFileExtension()</text>
<text text-anchor="start" x="238.5" y="-167.5" font-family="Helvetica,sans-Serif" font-size="10.00">+ loadFile()</text>
<text text-anchor="start" x="238.5" y="-156.5" font-family="Helvetica,sans-Serif" font-size="10.00">+ name()</text>
</a>
</g>
</g>
<!-- Node2 -->
<g id="node2" class="node">
<title>Node2</title>
<g id="a_node2"><a xlink:href="classRa_1_1IO_1_1AssimpFileLoader.html" target="_top" xlink:title="This class loads scenes containing MESHES only (not point&#45;clouds)">
<polygon fill="white" stroke="black" points="0,-0.5 0,-112.5 138,-112.5 138,-0.5 0,-0.5"/>
<text text-anchor="middle" x="69" y="-100.5" font-family="Helvetica,sans-Serif" font-size="10.00">Ra::IO::AssimpFileLoader</text>
<polyline fill="none" stroke="black" points="0,-93.5 138,-93.5 "/>
<text text-anchor="middle" x="69" y="-81.5" font-family="Helvetica,sans-Serif" font-size="10.00"> </text>
<polyline fill="none" stroke="black" points="0,-74.5 138,-74.5 "/>
<text text-anchor="start" x="8" y="-62.5" font-family="Helvetica,sans-Serif" font-size="10.00">+ AssimpFileLoader()</text>
<text text-anchor="start" x="8" y="-51.5" font-family="Helvetica,sans-Serif" font-size="10.00">+ ~AssimpFileLoader()</text>
<text text-anchor="start" x="8" y="-40.5" font-family="Helvetica,sans-Serif" font-size="10.00">+ getFileExtensions()</text>
<text text-anchor="start" x="8" y="-29.5" font-family="Helvetica,sans-Serif" font-size="10.00">+ handleFileExtension()</text>
<text text-anchor="start" x="8" y="-18.5" font-family="Helvetica,sans-Serif" font-size="10.00">+ loadFile()</text>
<text text-anchor="start" x="8" y="-7.5" font-family="Helvetica,sans-Serif" font-size="10.00">+ name()</text>
</a>
</g>
</g>
<!-- Node1&#45;&gt;Node2 -->
<g id="edge1" class="edge">
<title>Node1&#45;&gt;Node2</title>
<path fill="none" stroke="midnightblue" d="M221.63,-158.37C197.32,-144.26 170.85,-128.39 147,-113 144.07,-111.11 141.09,-109.15 138.1,-107.16"/>
<polygon fill="none" stroke="midnightblue" points="220.07,-161.51 230.48,-163.49 223.57,-155.45 220.07,-161.51"/>
</g>
<!-- Node3 -->
<g id="node3" class="node">
<title>Node3</title>
<g id="a_node3"><a xlink:href="classRa_1_1IO_1_1CameraFileLoader.html" target="_top" xlink:title=" ">
<polygon fill="white" stroke="black" points="156,-0.5 156,-112.5 296,-112.5 296,-0.5 156,-0.5"/>
<text text-anchor="middle" x="226" y="-100.5" font-family="Helvetica,sans-Serif" font-size="10.00">Ra::IO::CameraFileLoader</text>
<polyline fill="none" stroke="black" points="156,-93.5 296,-93.5 "/>
<text text-anchor="middle" x="226" y="-81.5" font-family="Helvetica,sans-Serif" font-size="10.00"> </text>
<polyline fill="none" stroke="black" points="156,-74.5 296,-74.5 "/>
<text text-anchor="start" x="164" y="-62.5" font-family="Helvetica,sans-Serif" font-size="10.00">+ CameraFileLoader()</text>
<text text-anchor="start" x="164" y="-51.5" font-family="Helvetica,sans-Serif" font-size="10.00">+ ~CameraFileLoader()</text>
<text text-anchor="start" x="164" y="-40.5" font-family="Helvetica,sans-Serif" font-size="10.00">+ getFileExtensions()</text>
<text text-anchor="start" x="164" y="-29.5" font-family="Helvetica,sans-Serif" font-size="10.00">+ handleFileExtension()</text>
<text text-anchor="start" x="164" y="-18.5" font-family="Helvetica,sans-Serif" font-size="10.00">+ loadFile()</text>
<text text-anchor="start" x="164" y="-7.5" font-family="Helvetica,sans-Serif" font-size="10.00">+ name()</text>
</a>
</g>
</g>
<!-- Node1&#45;&gt;Node3 -->
<g id="edge2" class="edge">
<title>Node1&#45;&gt;Node3</title>
<path fill="none" stroke="midnightblue" d="M269.94,-140.32C265.11,-131.2 260.17,-121.89 255.43,-112.96"/>
<polygon fill="none" stroke="midnightblue" points="266.95,-142.15 274.73,-149.34 273.14,-138.87 266.95,-142.15"/>
</g>
<!-- Node4 -->
<g id="node4" class="node">
<title>Node4</title>
<g id="a_node4"><a xlink:href="classRa_1_1IO_1_1TinyPlyFileLoader.html" target="_top" xlink:title=" ">
<polygon fill="white" stroke="black" points="314,-0.5 314,-112.5 452,-112.5 452,-0.5 314,-0.5"/>
<text text-anchor="middle" x="383" y="-100.5" font-family="Helvetica,sans-Serif" font-size="10.00">Ra::IO::TinyPlyFileLoader</text>
<polyline fill="none" stroke="black" points="314,-93.5 452,-93.5 "/>
<text text-anchor="middle" x="383" y="-81.5" font-family="Helvetica,sans-Serif" font-size="10.00"> </text>
<polyline fill="none" stroke="black" points="314,-74.5 452,-74.5 "/>
<text text-anchor="start" x="322" y="-62.5" font-family="Helvetica,sans-Serif" font-size="10.00">+ TinyPlyFileLoader()</text>
<text text-anchor="start" x="322" y="-51.5" font-family="Helvetica,sans-Serif" font-size="10.00">+ ~TinyPlyFileLoader()</text>
<text text-anchor="start" x="322" y="-40.5" font-family="Helvetica,sans-Serif" font-size="10.00">+ getFileExtensions()</text>
<text text-anchor="start" x="322" y="-29.5" font-family="Helvetica,sans-Serif" font-size="10.00">+ handleFileExtension()</text>
<text text-anchor="start" x="322" y="-18.5" font-family="Helvetica,sans-Serif" font-size="10.00">+ loadFile()</text>
<text text-anchor="start" x="322" y="-7.5" font-family="Helvetica,sans-Serif" font-size="10.00">+ name()</text>
</a>
</g>
</g>
<!-- Node1&#45;&gt;Node4 -->
<g id="edge3" class="edge">
<title>Node1&#45;&gt;Node4</title>
<path fill="none" stroke="midnightblue" d="M338.49,-140.32C343.39,-131.2 348.39,-121.89 353.19,-112.96"/>
<polygon fill="none" stroke="midnightblue" points="335.29,-138.88 333.64,-149.34 341.46,-142.19 335.29,-138.88"/>
</g>
<!-- Node5 -->
<g id="node5" class="node">
<title>Node5</title>
<g id="a_node5"><a xlink:href="classRa_1_1IO_1_1VolumeLoader.html" target="_top" xlink:title="Loads density grid for volume data. This loader support 2 file formats for density grid data.">
<polygon fill="white" stroke="black" points="470,-0.5 470,-112.5 604,-112.5 604,-0.5 470,-0.5"/>
<text text-anchor="middle" x="537" y="-100.5" font-family="Helvetica,sans-Serif" font-size="10.00">Ra::IO::VolumeLoader</text>
<polyline fill="none" stroke="black" points="470,-93.5 604,-93.5 "/>
<text text-anchor="middle" x="537" y="-81.5" font-family="Helvetica,sans-Serif" font-size="10.00"> </text>
<polyline fill="none" stroke="black" points="470,-74.5 604,-74.5 "/>
<text text-anchor="start" x="478" y="-62.5" font-family="Helvetica,sans-Serif" font-size="10.00">+ VolumeLoader()</text>
<text text-anchor="start" x="478" y="-51.5" font-family="Helvetica,sans-Serif" font-size="10.00">+ ~VolumeLoader()</text>
<text text-anchor="start" x="478" y="-40.5" font-family="Helvetica,sans-Serif" font-size="10.00">+ getFileExtensions()</text>
<text text-anchor="start" x="478" y="-29.5" font-family="Helvetica,sans-Serif" font-size="10.00">+ handleFileExtension()</text>
<text text-anchor="start" x="478" y="-18.5" font-family="Helvetica,sans-Serif" font-size="10.00">+ loadFile()</text>
<text text-anchor="start" x="478" y="-7.5" font-family="Helvetica,sans-Serif" font-size="10.00">+ name()</text>
</a>
</g>
</g>
<!-- Node1&#45;&gt;Node5 -->
<g id="edge4" class="edge">
<title>Node1&#45;&gt;Node5</title>
<path fill="none" stroke="midnightblue" d="M386.49,-158.56C410.81,-144.45 437.25,-128.53 461,-113 463.87,-111.12 466.78,-109.18 469.71,-107.19"/>
<polygon fill="none" stroke="midnightblue" points="384.55,-155.64 377.64,-163.67 388.05,-161.7 384.55,-155.64"/>
</g>
</g>
</svg>
