<?xml version="1.0" encoding="UTF-8" standalone="no"?>
<!DOCTYPE svg PUBLIC "-//W3C//DTD SVG 1.1//EN"
 "http://www.w3.org/Graphics/SVG/1.1/DTD/svg11.dtd">
<!-- Generated by graphviz version 2.43.0 (0)
 -->
<!-- Title: Ra::Gui::BaseApplication::loadPlugins Pages: 1 -->
<svg width="488pt" height="322pt"
 viewBox="0.00 0.00 488.00 321.50" xmlns="http://www.w3.org/2000/svg" xmlns:xlink="http://www.w3.org/1999/xlink">
<g id="graph0" class="graph" transform="scale(1 1) rotate(0) translate(4 317.5)">
<title>Ra::Gui::BaseApplication::loadPlugins</title>
<!-- Node1 -->
<g id="Node000001" class="node">
<title>Node1</title>
<g id="a_Node000001"><a xlink:title=" ">
<polygon fill="#999999" stroke="#666666" points="137,-177 0,-177 0,-147 137,-147 137,-177"/>
<text text-anchor="start" x="8" y="-165" font-family="Helvetica,sans-Serif" font-size="10.00">Ra::Gui::BaseApplication</text>
<text text-anchor="middle" x="68.5" y="-154" font-family="Helvetica,sans-Serif" font-size="10.00">::loadPlugins</text>
</a>
</g>
</g>
<!-- Node2 -->
<g id="Node000002" class="node">
<title>Node2</title>
<g id="a_Node000002"><a target="_blank" xlink:href="http://en.cppreference.com/w/cpp/string/basic_string/c_str.html#" xlink:title=" ">
<polygon fill="white" stroke="#666666" points="293,-313.5 198,-313.5 198,-294.5 293,-294.5 293,-313.5"/>
<text text-anchor="middle" x="245.5" y="-301.5" font-family="Helvetica,sans-Serif" font-size="10.00">std::string::c_str</text>
</a>
</g>
</g>
<!-- Node1&#45;&gt;Node2 -->
<g id="edge1_Node000001_Node000002" class="edge">
<title>Node1&#45;&gt;Node2</title>
<g id="a_edge1_Node000001_Node000002"><a xlink:title=" ">
<path fill="none" stroke="#63b8ff" d="M77.91,-177.06C93.28,-203.16 128.46,-256.74 173,-285 177.68,-287.97 182.81,-290.48 188.1,-292.59"/>
<polygon fill="#63b8ff" stroke="#63b8ff" points="187.17,-295.97 197.76,-296 189.49,-289.37 187.17,-295.97"/>
</a>
</g>
</g>
<!-- Node3 -->
<g id="Node000003" class="node">
<title>Node3</title>
<g id="a_Node000003"><a xlink:href="classRa_1_1Gui_1_1WindowQt.html#acd31b9e580f049491d13c16ef954d964" target="_top" xlink:title=" ">
<polygon fill="white" stroke="#666666" points="302.5,-276 188.5,-276 188.5,-246 302.5,-246 302.5,-276"/>
<text text-anchor="start" x="196.5" y="-264" font-family="Helvetica,sans-Serif" font-size="10.00">Ra::Gui::WindowQt::</text>
<text text-anchor="middle" x="245.5" y="-253" font-family="Helvetica,sans-Serif" font-size="10.00">doneCurrent</text>
</a>
</g>
</g>
<!-- Node1&#45;&gt;Node3 -->
<g id="edge2_Node000001_Node000003" class="edge">
<title>Node1&#45;&gt;Node3</title>
<g id="a_edge2_Node000001_Node000003"><a xlink:title=" ">
<path fill="none" stroke="#63b8ff" d="M86.74,-177.04C106.45,-193.61 140.25,-220.14 173,-237 176.5,-238.8 180.17,-240.51 183.91,-242.13"/>
<polygon fill="#63b8ff" stroke="#63b8ff" points="182.74,-245.43 193.32,-245.94 185.37,-238.94 182.74,-245.43"/>
</a>
</g>
</g>
<!-- Node4 -->
<g id="Node000004" class="node">
<title>Node4</title>
<g id="a_Node000004"><a target="_blank" xlink:href="http://en.cppreference.com/w/cpp/container/vector/empty.html#" xlink:title=" ">
<polygon fill="white" stroke="#666666" points="298.5,-227.5 192.5,-227.5 192.5,-208.5 298.5,-208.5 298.5,-227.5"/>
<text text-anchor="middle" x="245.5" y="-215.5" font-family="Helvetica,sans-Serif" font-size="10.00">std::vector::empty</text>
</a>
</g>
</g>
<!-- Node1&#45;&gt;Node4 -->
<g id="edge3_Node000001_Node000004" class="edge">
<title>Node1&#45;&gt;Node4</title>
<g id="a_edge3_Node000001_Node000004"><a xlink:title=" ">
<path fill="none" stroke="#63b8ff" d="M107.51,-177.05C126.94,-184.46 151.05,-193.23 173,-200 179.57,-202.03 186.54,-204 193.44,-205.85"/>
<polygon fill="#63b8ff" stroke="#63b8ff" points="192.9,-209.32 203.46,-208.46 194.66,-202.55 192.9,-209.32"/>
</a>
</g>
</g>
<!-- Node5 -->
<g id="Node000005" class="node">
<title>Node5</title>
<g id="a_Node000005"><a target="_blank" xlink:href="http://en.cppreference.com/w/cpp/algorithm/find.html#" xlink:title=" ">
<polygon fill="white" stroke="#666666" points="279.5,-190.5 211.5,-190.5 211.5,-171.5 279.5,-171.5 279.5,-190.5"/>
<text text-anchor="middle" x="245.5" y="-178.5" font-family="Helvetica,sans-Serif" font-size="10.00">std::find_if</text>
</a>
</g>
</g>
<!-- Node1&#45;&gt;Node5 -->
<g id="edge4_Node000001_Node000005" class="edge">
<title>Node1&#45;&gt;Node5</title>
<g id="a_edge4_Node000001_Node000005"><a xlink:title=" ">
<path fill="none" stroke="#63b8ff" d="M137.16,-169.35C158.68,-171.68 181.9,-174.2 201.21,-176.3"/>
<polygon fill="#63b8ff" stroke="#63b8ff" points="200.9,-179.79 211.22,-177.39 201.65,-172.83 200.9,-179.79"/>
</a>
</g>
</g>
<!-- Node6 -->
<g id="Node000006" class="node">
<title>Node6</title>
<g id="a_Node000006"><a target="_blank" xlink:href="http://en.cppreference.com/w/cpp/container/map/insert.html#" xlink:title=" ">
<polygon fill="white" stroke="#666666" points="292,-153.5 199,-153.5 199,-134.5 292,-134.5 292,-153.5"/>
<text text-anchor="middle" x="245.5" y="-141.5" font-family="Helvetica,sans-Serif" font-size="10.00">std::map::insert</text>
</a>
</g>
</g>
<!-- Node1&#45;&gt;Node6 -->
<g id="edge5_Node000001_Node000006" class="edge">
<title>Node1&#45;&gt;Node6</title>
<g id="a_edge5_Node000001_Node000006"><a xlink:title=" ">
<path fill="none" stroke="#63b8ff" d="M137.16,-155.04C154.28,-153.28 172.48,-151.41 188.93,-149.72"/>
<polygon fill="#63b8ff" stroke="#63b8ff" points="189.33,-153.19 198.92,-148.69 188.62,-146.23 189.33,-153.19"/>
</a>
</g>
</g>
<!-- Node7 -->
<g id="Node000007" class="node">
<title>Node7</title>
<g id="a_Node000007"><a xlink:href="classRa_1_1Gui_1_1WindowQt.html#a78476baacd2df24a260f604d02c8ddc4" target="_top" xlink:title=" ">
<polygon fill="white" stroke="#666666" points="302.5,-116 188.5,-116 188.5,-86 302.5,-86 302.5,-116"/>
<text text-anchor="start" x="196.5" y="-104" font-family="Helvetica,sans-Serif" font-size="10.00">Ra::Gui::WindowQt::</text>
<text text-anchor="middle" x="245.5" y="-93" font-family="Helvetica,sans-Serif" font-size="10.00">makeCurrent</text>
</a>
</g>
</g>
<!-- Node1&#45;&gt;Node7 -->
<g id="edge6_Node000001_Node000007" class="edge">
<title>Node1&#45;&gt;Node7</title>
<g id="a_edge6_Node000001_Node000007"><a xlink:title=" ">
<path fill="none" stroke="#63b8ff" d="M112.76,-146.92C136.72,-138.57 166.69,-128.12 191.99,-119.3"/>
<polygon fill="#63b8ff" stroke="#63b8ff" points="193.15,-122.61 201.44,-116.01 190.84,-116 193.15,-122.61"/>
</a>
</g>
</g>
<!-- Node8 -->
<g id="Node000008" class="node">
<title>Node8</title>
<g id="a_Node000008"><a target="_blank" xlink:href="http://en.cppreference.com/w/cpp/container/vector/push_back.html#" xlink:title=" ">
<polygon fill="white" stroke="#666666" points="480,-45.5 354,-45.5 354,-26.5 480,-26.5 480,-45.5"/>
<text text-anchor="middle" x="417" y="-33.5" font-family="Helvetica,sans-Serif" font-size="10.00">std::vector::push_back</text>
</a>
</g>
</g>
<!-- Node1&#45;&gt;Node8 -->
<g id="edge7_Node000001_Node000008" class="edge">
<title>Node1&#45;&gt;Node8</title>
<g id="a_edge7_Node000001_Node000008"><a xlink:title=" ">
<path fill="none" stroke="#63b8ff" d="M82.91,-146.92C101.2,-127.39 135.97,-93.86 173,-77 227,-52.41 293.82,-42.43 343.71,-38.44"/>
<polygon fill="#63b8ff" stroke="#63b8ff" points="344.05,-41.93 353.77,-37.7 343.54,-34.95 344.05,-41.93"/>
</a>
</g>
</g>
<!-- Node9 -->
<g id="Node000009" class="node">
<title>Node9</title>
<g id="a_Node000009"><a xlink:href="classRa_1_1Engine_1_1RadiumEngine.html#a90204861f4fe8ed044208eb05695afe0" target="_top" xlink:title=" ">
<polygon fill="white" stroke="#666666" points="318,-30 173,-30 173,0 318,0 318,-30"/>
<text text-anchor="start" x="181" y="-18" font-family="Helvetica,sans-Serif" font-size="10.00">Ra::Engine::RadiumEngine</text>
<text text-anchor="middle" x="245.5" y="-7" font-family="Helvetica,sans-Serif" font-size="10.00">::registerFileLoader</text>
</a>
</g>
</g>
<!-- Node1&#45;&gt;Node9 -->
<g id="edge8_Node000001_Node000009" class="edge">
<title>Node1&#45;&gt;Node9</title>
<g id="a_edge8_Node000001_Node000009"><a xlink:title=" ">
<path fill="none" stroke="#63b8ff" d="M79.22,-146.94C95.77,-122.35 131.69,-73.37 173,-44 177.9,-40.52 183.27,-37.37 188.81,-34.54"/>
<polygon fill="#63b8ff" stroke="#63b8ff" points="190.68,-37.52 198.22,-30.08 187.68,-31.2 190.68,-37.52"/>
</a>
</g>
</g>
<!-- Node9&#45;&gt;Node8 -->
<g id="edge9_Node000009_Node000008" class="edge">
<title>Node9&#45;&gt;Node8</title>
<g id="a_edge9_Node000009_Node000008"><a xlink:title=" ">
<path fill="none" stroke="#63b8ff" d="M318.38,-23.91C326.79,-24.95 335.36,-26.01 343.77,-27.05"/>
<polygon fill="#63b8ff" stroke="#63b8ff" points="343.57,-30.55 353.92,-28.31 344.43,-23.61 343.57,-30.55"/>
</a>
</g>
</g>
</g>
</svg>
