<?xml version="1.0" encoding="UTF-8" standalone="no"?>
<!DOCTYPE svg PUBLIC "-//W3C//DTD SVG 1.1//EN"
 "http://www.w3.org/Graphics/SVG/1.1/DTD/svg11.dtd">
<!-- Generated by graphviz version 2.43.0 (0)
 -->
<!-- Title: Ra::Gui::EngineTreeItem::getName Pages: 1 -->
<svg width="1001pt" height="431pt"
 viewBox="0.00 0.00 1001.00 431.04" xmlns="http://www.w3.org/2000/svg" xmlns:xlink="http://www.w3.org/1999/xlink">
<g id="graph0" class="graph" transform="scale(1 1) rotate(0) translate(4 427.04)">
<title>Ra::Gui::EngineTreeItem::getName</title>
<polygon fill="white" stroke="transparent" points="-4,4 -4,-427.04 997,-427.04 997,4 -4,4"/>
<!-- Node1 -->
<g id="node1" class="node">
<title>Node1</title>
<g id="a_node1"><a xlink:title=" ">
<polygon fill="#bfbfbf" stroke="black" points="0,-213.5 0,-243.5 134,-243.5 134,-213.5 0,-213.5"/>
<text text-anchor="start" x="8" y="-231.5" font-family="Helvetica,sans-Serif" font-size="10.00">Ra::Gui::EngineTreeItem</text>
<text text-anchor="middle" x="67" y="-220.5" font-family="Helvetica,sans-Serif" font-size="10.00">::getName</text>
</a>
</g>
</g>
<!-- Node2 -->
<g id="node2" class="node">
<title>Node2</title>
<g id="a_node2"><a xlink:href="namespaceRa_1_1Engine_1_1Scene.html#a6e686b60ad6a81dde7a154411273b5f9" target="_top" xlink:title="Returns the name associated to the given item.">
<polygon fill="white" stroke="black" points="170,-213.5 170,-243.5 280,-243.5 280,-213.5 170,-213.5"/>
<text text-anchor="start" x="178" y="-231.5" font-family="Helvetica,sans-Serif" font-size="10.00">Ra::Engine::Scene::</text>
<text text-anchor="middle" x="225" y="-220.5" font-family="Helvetica,sans-Serif" font-size="10.00">getEntryName</text>
</a>
</g>
</g>
<!-- Node1&#45;&gt;Node2 -->
<g id="edge1" class="edge">
<title>Node1&#45;&gt;Node2</title>
<path fill="none" stroke="midnightblue" d="M134.16,-228.5C142.54,-228.5 151.11,-228.5 159.47,-228.5"/>
<polygon fill="midnightblue" stroke="midnightblue" points="159.53,-232 169.53,-228.5 159.53,-225 159.53,-232"/>
</g>
<!-- Node3 -->
<g id="node3" class="node">
<title>Node3</title>
<g id="a_node3"><a xlink:href="classRa_1_1Engine_1_1Scene_1_1Entity.html#aca70e4d7a9078c377650ac4ea59748bd" target="_top" xlink:title=" ">
<polygon fill="white" stroke="black" points="509,-345.5 509,-375.5 619,-375.5 619,-345.5 509,-345.5"/>
<text text-anchor="start" x="517" y="-363.5" font-family="Helvetica,sans-Serif" font-size="10.00">Ra::Engine::Scene::</text>
<text text-anchor="middle" x="564" y="-352.5" font-family="Helvetica,sans-Serif" font-size="10.00">Entity::getName</text>
</a>
</g>
</g>
<!-- Node2&#45;&gt;Node3 -->
<g id="edge2" class="edge">
<title>Node2&#45;&gt;Node3</title>
<path fill="none" stroke="midnightblue" d="M234.13,-243.69C247.64,-267.25 277.14,-312.01 316,-332.5 372.55,-362.31 446.35,-367 498.51,-365.66"/>
<polygon fill="midnightblue" stroke="midnightblue" points="498.77,-369.15 508.64,-365.31 498.53,-362.15 498.77,-369.15"/>
</g>
<!-- Node4 -->
<g id="node4" class="node">
<title>Node4</title>
<g id="a_node4"><a xlink:href="classRa_1_1Engine_1_1Scene_1_1Component.html#a60e3234670ccfb680405445f06d2854e" target="_top" xlink:title="Return the component&#39;s name.">
<polygon fill="white" stroke="black" points="320,-65.5 320,-95.5 444,-95.5 444,-65.5 320,-65.5"/>
<text text-anchor="start" x="328" y="-83.5" font-family="Helvetica,sans-Serif" font-size="10.00">Ra::Engine::Scene::</text>
<text text-anchor="middle" x="382" y="-72.5" font-family="Helvetica,sans-Serif" font-size="10.00">Component::getName</text>
</a>
</g>
</g>
<!-- Node2&#45;&gt;Node4 -->
<g id="edge3" class="edge">
<title>Node2&#45;&gt;Node4</title>
<path fill="none" stroke="midnightblue" d="M234.35,-213.19C248.37,-188.66 278.81,-140.32 316,-110.5 320.66,-106.76 325.86,-103.37 331.23,-100.33"/>
<polygon fill="midnightblue" stroke="midnightblue" points="333.14,-103.28 340.37,-95.54 329.89,-97.08 333.14,-103.28"/>
</g>
<!-- Node5 -->
<g id="node5" class="node">
<title>Node5</title>
<g id="a_node5"><a xlink:href="classRa_1_1Engine_1_1Rendering_1_1RenderObjectManager.html#abe7be820a363366c0a5f2f5f45212f59" target="_top" xlink:title=" ">
<polygon fill="white" stroke="black" points="316.5,-282 316.5,-323 447.5,-323 447.5,-282 316.5,-282"/>
<text text-anchor="start" x="324.5" y="-311" font-family="Helvetica,sans-Serif" font-size="10.00">Ra::Engine::Rendering</text>
<text text-anchor="start" x="324.5" y="-300" font-family="Helvetica,sans-Serif" font-size="10.00">::RenderObjectManager</text>
<text text-anchor="middle" x="382" y="-289" font-family="Helvetica,sans-Serif" font-size="10.00">::getRenderObject</text>
</a>
</g>
</g>
<!-- Node2&#45;&gt;Node5 -->
<g id="edge4" class="edge">
<title>Node2&#45;&gt;Node5</title>
<path fill="none" stroke="midnightblue" d="M257.74,-243.65C278.15,-253.4 305.15,-266.29 328.68,-277.52"/>
<polygon fill="midnightblue" stroke="midnightblue" points="327.31,-280.75 337.84,-281.9 330.33,-274.43 327.31,-280.75"/>
</g>
<!-- Node8 -->
<g id="node8" class="node">
<title>Node8</title>
<g id="a_node8"><a xlink:href="classRa_1_1Engine_1_1RadiumEngine.html#a4b46a72f340513061b9a5219a80d9bd6" target="_top" xlink:title="Manager getters.">
<polygon fill="white" stroke="black" points="490.5,-49.5 490.5,-79.5 637.5,-79.5 637.5,-49.5 490.5,-49.5"/>
<text text-anchor="start" x="498.5" y="-67.5" font-family="Helvetica,sans-Serif" font-size="10.00">Ra::Engine::RadiumEngine</text>
<text text-anchor="middle" x="564" y="-56.5" font-family="Helvetica,sans-Serif" font-size="10.00">::getRenderObjectManager</text>
</a>
</g>
</g>
<!-- Node2&#45;&gt;Node8 -->
<g id="edge7" class="edge">
<title>Node2&#45;&gt;Node8</title>
<path fill="none" stroke="midnightblue" d="M252.22,-213.33C269.88,-203.48 293.9,-190.79 316,-181.5 372.88,-157.58 398.17,-174.89 448,-138.5 470.11,-122.35 461.73,-104.43 484,-88.5 486.09,-87 488.28,-85.6 490.53,-84.28"/>
<polygon fill="midnightblue" stroke="midnightblue" points="492.28,-87.32 499.55,-79.62 489.06,-81.11 492.28,-87.32"/>
</g>
<!-- Node9 -->
<g id="node9" class="node">
<title>Node9</title>
<g id="a_node9"><a xlink:href="structRa_1_1Engine_1_1Scene_1_1ItemEntry.html#a85e1716f224d07767e16ebfbd38c0d00" target="_top" xlink:title="Returns true if the item represents a component.">
<polygon fill="white" stroke="black" points="484,-0.5 484,-30.5 644,-30.5 644,-0.5 484,-0.5"/>
<text text-anchor="start" x="492" y="-18.5" font-family="Helvetica,sans-Serif" font-size="10.00">Ra::Engine::Scene::</text>
<text text-anchor="middle" x="564" y="-7.5" font-family="Helvetica,sans-Serif" font-size="10.00">ItemEntry::isComponentNode</text>
</a>
</g>
</g>
<!-- Node2&#45;&gt;Node9 -->
<g id="edge8" class="edge">
<title>Node2&#45;&gt;Node9</title>
<path fill="none" stroke="midnightblue" d="M236.98,-213.27C252.35,-193.09 282.23,-157.78 316,-138.5 368.61,-108.46 400.09,-141.57 448,-104.5 474.12,-84.29 458.32,-60.26 484,-39.5 485.59,-38.22 487.24,-37 488.96,-35.85"/>
<polygon fill="midnightblue" stroke="midnightblue" points="491.05,-38.68 497.92,-30.62 487.52,-32.64 491.05,-38.68"/>
</g>
<!-- Node12 -->
<g id="node12" class="node">
<title>Node12</title>
<g id="a_node12"><a xlink:href="structRa_1_1Engine_1_1Scene_1_1ItemEntry.html#abb75bfc7efa4859df709265ab8982712" target="_top" xlink:title="Returns true if the item represents an entity.">
<polygon fill="white" stroke="black" points="316,-386.5 316,-416.5 448,-416.5 448,-386.5 316,-386.5"/>
<text text-anchor="start" x="324" y="-404.5" font-family="Helvetica,sans-Serif" font-size="10.00">Ra::Engine::Scene::</text>
<text text-anchor="middle" x="382" y="-393.5" font-family="Helvetica,sans-Serif" font-size="10.00">ItemEntry::isEntityNode</text>
</a>
</g>
</g>
<!-- Node2&#45;&gt;Node12 -->
<g id="edge12" class="edge">
<title>Node2&#45;&gt;Node12</title>
<path fill="none" stroke="midnightblue" d="M232.27,-243.56C244.6,-271.59 274.45,-332.31 316,-369.5 321.04,-374.01 326.83,-378.04 332.83,-381.58"/>
<polygon fill="midnightblue" stroke="midnightblue" points="331.25,-384.71 341.71,-386.44 334.61,-378.57 331.25,-384.71"/>
</g>
<!-- Node13 -->
<g id="node13" class="node">
<title>Node13</title>
<g id="a_node13"><a xlink:href="structRa_1_1Engine_1_1Scene_1_1ItemEntry.html#ad2fd60408dfc75b47ff7bec306d95cc4" target="_top" xlink:title="Returns true if the item represents a render object.">
<polygon fill="white" stroke="black" points="506,-235.5 506,-265.5 622,-265.5 622,-235.5 506,-235.5"/>
<text text-anchor="start" x="514" y="-253.5" font-family="Helvetica,sans-Serif" font-size="10.00">Ra::Engine::Scene::</text>
<text text-anchor="middle" x="564" y="-242.5" font-family="Helvetica,sans-Serif" font-size="10.00">ItemEntry::isRoNode</text>
</a>
</g>
</g>
<!-- Node2&#45;&gt;Node13 -->
<g id="edge14" class="edge">
<title>Node2&#45;&gt;Node13</title>
<path fill="none" stroke="midnightblue" d="M280.14,-232.03C338.75,-235.86 432.29,-241.97 495.61,-246.1"/>
<polygon fill="midnightblue" stroke="midnightblue" points="495.68,-249.61 505.89,-246.77 496.14,-242.63 495.68,-249.61"/>
</g>
<!-- Node14 -->
<g id="node14" class="node">
<title>Node14</title>
<g id="a_node14"><a xlink:href="structRa_1_1Engine_1_1Scene_1_1ItemEntry.html#a4f2df708e8ee83f1bad37287d0a81916" target="_top" xlink:title="Returns true if the item represents any valid object.">
<polygon fill="white" stroke="black" points="327,-191.5 327,-221.5 437,-221.5 437,-191.5 327,-191.5"/>
<text text-anchor="start" x="335" y="-209.5" font-family="Helvetica,sans-Serif" font-size="10.00">Ra::Engine::Scene::</text>
<text text-anchor="middle" x="382" y="-198.5" font-family="Helvetica,sans-Serif" font-size="10.00">ItemEntry::isValid</text>
</a>
</g>
</g>
<!-- Node2&#45;&gt;Node14 -->
<g id="edge17" class="edge">
<title>Node2&#45;&gt;Node14</title>
<path fill="none" stroke="midnightblue" d="M280.21,-220.81C292.01,-219.13 304.6,-217.34 316.75,-215.62"/>
<polygon fill="midnightblue" stroke="midnightblue" points="317.41,-219.06 326.82,-214.19 316.43,-212.13 317.41,-219.06"/>
</g>
<!-- Node6 -->
<g id="node6" class="node">
<title>Node6</title>
<g id="a_node6"><a xlink:href="classRa_1_1Engine_1_1Rendering_1_1RenderObjectManager.html#ae3edd3941dd9eee4cb1988318e47a4ca" target="_top" xlink:title=" ">
<polygon fill="white" stroke="black" points="498.5,-285 498.5,-326 629.5,-326 629.5,-285 498.5,-285"/>
<text text-anchor="start" x="506.5" y="-314" font-family="Helvetica,sans-Serif" font-size="10.00">Ra::Engine::Rendering</text>
<text text-anchor="start" x="506.5" y="-303" font-family="Helvetica,sans-Serif" font-size="10.00">::RenderObjectManager</text>
<text text-anchor="middle" x="564" y="-292" font-family="Helvetica,sans-Serif" font-size="10.00">::exists</text>
</a>
</g>
</g>
<!-- Node5&#45;&gt;Node6 -->
<g id="edge5" class="edge">
<title>Node5&#45;&gt;Node6</title>
<path fill="none" stroke="midnightblue" d="M447.73,-303.58C460.82,-303.8 474.69,-304.03 488.1,-304.25"/>
<polygon fill="midnightblue" stroke="midnightblue" points="488.18,-307.75 498.24,-304.42 488.3,-300.75 488.18,-307.75"/>
</g>
<!-- Node7 -->
<g id="node7" class="node">
<title>Node7</title>
<g id="a_node7"><a xlink:href="classRa_1_1Core_1_1Utils_1_1Index.html#ac1a3e02d77abd15c2a307673f5b67fa1" target="_top" xlink:title="VALID.">
<polygon fill="white" stroke="black" points="699.5,-265.5 699.5,-295.5 818.5,-295.5 818.5,-265.5 699.5,-265.5"/>
<text text-anchor="start" x="707.5" y="-283.5" font-family="Helvetica,sans-Serif" font-size="10.00">Ra::Core::Utils::Index</text>
<text text-anchor="middle" x="759" y="-272.5" font-family="Helvetica,sans-Serif" font-size="10.00">::isValid</text>
</a>
</g>
</g>
<!-- Node6&#45;&gt;Node7 -->
<g id="edge6" class="edge">
<title>Node6&#45;&gt;Node7</title>
<path fill="none" stroke="midnightblue" d="M629.53,-297.14C648.76,-294.65 669.89,-291.91 689.36,-289.39"/>
<polygon fill="midnightblue" stroke="midnightblue" points="689.91,-292.85 699.38,-288.09 689.01,-285.91 689.91,-292.85"/>
</g>
<!-- Node10 -->
<g id="node10" class="node">
<title>Node10</title>
<g id="a_node10"><a xlink:href="structRa_1_1Engine_1_1Scene_1_1ItemEntry.html#a9673507f752d5efee0439afd0e52892b" target="_top" xlink:title="Debug checks.">
<polygon fill="white" stroke="black" points="680,-191.5 680,-221.5 838,-221.5 838,-191.5 680,-191.5"/>
<text text-anchor="start" x="688" y="-209.5" font-family="Helvetica,sans-Serif" font-size="10.00">Ra::Engine::Scene::</text>
<text text-anchor="middle" x="759" y="-198.5" font-family="Helvetica,sans-Serif" font-size="10.00">ItemEntry::checkConsistency</text>
</a>
</g>
</g>
<!-- Node9&#45;&gt;Node10 -->
<g id="edge9" class="edge">
<title>Node9&#45;&gt;Node10</title>
<path fill="none" stroke="midnightblue" d="M630.06,-30.65C635.03,-33.16 639.75,-36.09 644,-39.5 669.44,-59.94 662.11,-76.21 680,-103.5 698.7,-132.02 722.7,-163 739.11,-183.45"/>
<polygon fill="midnightblue" stroke="midnightblue" points="736.42,-185.69 745.43,-191.27 741.87,-181.29 736.42,-185.69"/>
</g>
<!-- Node11 -->
<g id="node11" class="node">
<title>Node11</title>
<g id="a_node11"><a xlink:href="classRa_1_1Core_1_1Utils_1_1Index.html#a752c4d2e38168a3b1977100caa21b1b8" target="_top" xlink:title="INVALID.">
<polygon fill="white" stroke="black" points="874,-96.5 874,-126.5 993,-126.5 993,-96.5 874,-96.5"/>
<text text-anchor="start" x="882" y="-114.5" font-family="Helvetica,sans-Serif" font-size="10.00">Ra::Core::Utils::Index</text>
<text text-anchor="middle" x="933.5" y="-103.5" font-family="Helvetica,sans-Serif" font-size="10.00">::isInvalid</text>
</a>
</g>
</g>
<!-- Node9&#45;&gt;Node11 -->
<g id="edge11" class="edge">
<title>Node9&#45;&gt;Node11</title>
<path fill="none" stroke="midnightblue" d="M622.83,-30.61C688.52,-47.77 795.6,-75.74 865.05,-93.88"/>
<polygon fill="midnightblue" stroke="midnightblue" points="864.45,-97.34 875.01,-96.48 866.22,-90.57 864.45,-97.34"/>
</g>
<!-- Node10&#45;&gt;Node11 -->
<g id="edge10" class="edge">
<title>Node10&#45;&gt;Node11</title>
<path fill="none" stroke="midnightblue" d="M787.33,-191.45C816.64,-175.3 863.35,-149.58 895.83,-131.69"/>
<polygon fill="midnightblue" stroke="midnightblue" points="897.94,-134.53 905.01,-126.64 894.56,-128.4 897.94,-134.53"/>
</g>
<!-- Node12&#45;&gt;Node10 -->
<g id="edge13" class="edge">
<title>Node12&#45;&gt;Node10</title>
<path fill="none" stroke="midnightblue" d="M446.43,-416.51C504.33,-426.24 589.02,-429.96 644,-385.5 690.29,-348.07 644.62,-304.37 680,-256.5 689.01,-244.31 701.96,-234.32 714.72,-226.56"/>
<polygon fill="midnightblue" stroke="midnightblue" points="716.54,-229.55 723.48,-221.54 713.06,-223.47 716.54,-229.55"/>
</g>
<!-- Node13&#45;&gt;Node7 -->
<g id="edge16" class="edge">
<title>Node13&#45;&gt;Node7</title>
<path fill="none" stroke="midnightblue" d="M622.12,-259.38C643.23,-262.66 667.38,-266.41 689.4,-269.84"/>
<polygon fill="midnightblue" stroke="midnightblue" points="688.93,-273.31 699.35,-271.38 690.01,-266.39 688.93,-273.31"/>
</g>
<!-- Node13&#45;&gt;Node10 -->
<g id="edge15" class="edge">
<title>Node13&#45;&gt;Node10</title>
<path fill="none" stroke="midnightblue" d="M622.12,-237.48C640.95,-233.18 662.19,-228.34 682.19,-223.78"/>
<polygon fill="midnightblue" stroke="midnightblue" points="683.23,-227.14 692.2,-221.5 681.67,-220.31 683.23,-227.14"/>
</g>
<!-- Node14&#45;&gt;Node3 -->
<g id="edge22" class="edge">
<title>Node14&#45;&gt;Node3</title>
<path fill="none" stroke="midnightblue" d="M400.27,-221.7C414.15,-234.43 433.62,-253.53 448,-272.5 467.48,-298.2 458.91,-315.25 484,-335.5 488.66,-339.26 493.9,-342.46 499.4,-345.18"/>
<polygon fill="midnightblue" stroke="midnightblue" points="498.28,-348.52 508.84,-349.32 501.09,-342.1 498.28,-348.52"/>
</g>
<!-- Node14&#45;&gt;Node6 -->
<g id="edge20" class="edge">
<title>Node14&#45;&gt;Node6</title>
<path fill="none" stroke="midnightblue" d="M402.25,-221.7C421.96,-236.75 453.88,-259.78 484,-275.5 487.49,-277.32 491.11,-279.09 494.8,-280.79"/>
<polygon fill="midnightblue" stroke="midnightblue" points="493.51,-284.05 504.07,-284.9 496.35,-277.65 493.51,-284.05"/>
</g>
<!-- Node14&#45;&gt;Node8 -->
<g id="edge23" class="edge">
<title>Node14&#45;&gt;Node8</title>
<path fill="none" stroke="midnightblue" d="M427.56,-191.43C435.05,-187.44 442.24,-182.52 448,-176.5 477.21,-145.97 452.76,-116.95 484,-88.5 485.31,-87.31 486.68,-86.17 488.1,-85.09"/>
<polygon fill="midnightblue" stroke="midnightblue" points="490.22,-87.89 496.7,-79.51 486.41,-82.02 490.22,-87.89"/>
</g>
<!-- Node14&#45;&gt;Node10 -->
<g id="edge18" class="edge">
<title>Node14&#45;&gt;Node10</title>
<path fill="none" stroke="midnightblue" d="M437.13,-206.5C497.83,-206.5 597.2,-206.5 669.3,-206.5"/>
<polygon fill="midnightblue" stroke="midnightblue" points="669.73,-210 679.73,-206.5 669.73,-203 669.73,-210"/>
</g>
<!-- Node14&#45;&gt;Node13 -->
<g id="edge24" class="edge">
<title>Node14&#45;&gt;Node13</title>
<path fill="none" stroke="midnightblue" d="M437.01,-219.7C455.61,-224.25 476.67,-229.4 496.17,-234.16"/>
<polygon fill="midnightblue" stroke="midnightblue" points="495.36,-237.57 505.9,-236.54 497.02,-230.77 495.36,-237.57"/>
</g>
<!-- Node15 -->
<g id="node15" class="node">
<title>Node15</title>
<g id="a_node15"><a xlink:href="classRa_1_1Engine_1_1Scene_1_1EntityManager.html#a11639733918487b58dbe9862b4cc9ca4" target="_top" xlink:title="Check wether an entity with a given name exists or not.">
<polygon fill="white" stroke="black" points="488,-147.5 488,-177.5 640,-177.5 640,-147.5 488,-147.5"/>
<text text-anchor="start" x="496" y="-165.5" font-family="Helvetica,sans-Serif" font-size="10.00">Ra::Engine::Scene::</text>
<text text-anchor="middle" x="564" y="-154.5" font-family="Helvetica,sans-Serif" font-size="10.00">EntityManager::entityExists</text>
</a>
</g>
</g>
<!-- Node14&#45;&gt;Node15 -->
<g id="edge19" class="edge">
<title>Node14&#45;&gt;Node15</title>
<path fill="none" stroke="midnightblue" d="M437.01,-193.3C454.13,-189.11 473.34,-184.42 491.5,-179.98"/>
<polygon fill="midnightblue" stroke="midnightblue" points="492.57,-183.32 501.46,-177.54 490.91,-176.52 492.57,-183.32"/>
</g>
<!-- Node16 -->
<g id="node16" class="node">
<title>Node16</title>
<g id="a_node16"><a xlink:href="classRa_1_1Engine_1_1RadiumEngine.html#a2991b0dd7d8c14bfe19e775231036dee" target="_top" xlink:title=" ">
<polygon fill="white" stroke="black" points="491.5,-98.5 491.5,-128.5 636.5,-128.5 636.5,-98.5 491.5,-98.5"/>
<text text-anchor="start" x="499.5" y="-116.5" font-family="Helvetica,sans-Serif" font-size="10.00">Ra::Engine::RadiumEngine</text>
<text text-anchor="middle" x="564" y="-105.5" font-family="Helvetica,sans-Serif" font-size="10.00">::getEntityManager</text>
</a>
</g>
</g>
<!-- Node14&#45;&gt;Node16 -->
<g id="edge21" class="edge">
<title>Node14&#45;&gt;Node16</title>
<path fill="none" stroke="midnightblue" d="M422.2,-191.43C431.06,-187.22 440.16,-182.2 448,-176.5 467.08,-162.62 464.02,-150.03 484,-137.5 486.65,-135.84 489.42,-134.29 492.27,-132.84"/>
<polygon fill="midnightblue" stroke="midnightblue" points="493.98,-135.91 501.6,-128.55 491.05,-129.55 493.98,-135.91"/>
</g>
</g>
</svg>
