<?xml version="1.0" encoding="UTF-8" standalone="no"?>
<!DOCTYPE svg PUBLIC "-//W3C//DTD SVG 1.1//EN"
 "http://www.w3.org/Graphics/SVG/1.1/DTD/svg11.dtd">
<!-- Generated by graphviz version 2.43.0 (0)
 -->
<!-- Title: Ra::Engine::Data::BlinnPhongMaterial::registerMaterial Pages: 1 -->
<svg width="567pt" height="285pt"
 viewBox="0.00 0.00 567.00 285.00" xmlns="http://www.w3.org/2000/svg" xmlns:xlink="http://www.w3.org/1999/xlink">
<g id="graph0" class="graph" transform="scale(1 1) rotate(0) translate(4 281)">
<title>Ra::Engine::Data::BlinnPhongMaterial::registerMaterial</title>
<!-- Node1 -->
<g id="Node000001" class="node">
<title>Node1</title>
<g id="a_Node000001"><a xlink:title=" ">
<polygon fill="#999999" stroke="#666666" points="158,-143.5 0,-143.5 0,-113.5 158,-113.5 158,-143.5"/>
<text text-anchor="start" x="8" y="-131.5" font-family="Helvetica,sans-Serif" font-size="10.00">Ra::Engine::Data::BlinnPhong</text>
<text text-anchor="middle" x="79" y="-120.5" font-family="Helvetica,sans-Serif" font-size="10.00">Material::registerMaterial</text>
</a>
</g>
</g>
<!-- Node2 -->
<g id="Node000002" class="node">
<title>Node2</title>
<g id="a_Node000002"><a xlink:href="namespaceRa_1_1Engine_1_1Data_1_1ShaderConfigurationFactory.html#a00918835250fbd8bbe4deae59ecd6dde" target="_top" xlink:title=" ">
<polygon fill="white" stroke="#666666" points="355,-149 218,-149 218,-108 355,-108 355,-149"/>
<text text-anchor="start" x="226" y="-137" font-family="Helvetica,sans-Serif" font-size="10.00">Ra::Engine::Data::Shader</text>
<text text-anchor="start" x="226" y="-126" font-family="Helvetica,sans-Serif" font-size="10.00">ConfigurationFactory::</text>
<text text-anchor="middle" x="286.5" y="-115" font-family="Helvetica,sans-Serif" font-size="10.00">addConfiguration</text>
</a>
</g>
</g>
<!-- Node1&#45;&gt;Node2 -->
<g id="edge1_Node000001_Node000002" class="edge">
<title>Node1&#45;&gt;Node2</title>
<g id="a_edge1_Node000001_Node000002"><a xlink:title=" ">
<path fill="none" stroke="#63b8ff" d="M158.28,-128.5C174.37,-128.5 191.32,-128.5 207.41,-128.5"/>
<polygon fill="#63b8ff" stroke="#63b8ff" points="207.84,-132 217.84,-128.5 207.84,-125 207.84,-132"/>
</a>
</g>
</g>
<!-- Node5 -->
<g id="Node000005" class="node">
<title>Node5</title>
<g id="a_Node000005"><a xlink:href="namespaceRa_1_1Engine_1_1Data_1_1ShaderConfigurationFactory.html#a0ecc004c00bff945aae8b673a738909f" target="_top" xlink:title=" ">
<polygon fill="white" stroke="#666666" points="355,-257 218,-257 218,-216 355,-216 355,-257"/>
<text text-anchor="start" x="226" y="-245" font-family="Helvetica,sans-Serif" font-size="10.00">Ra::Engine::Data::Shader</text>
<text text-anchor="start" x="226" y="-234" font-family="Helvetica,sans-Serif" font-size="10.00">ConfigurationFactory::</text>
<text text-anchor="middle" x="286.5" y="-223" font-family="Helvetica,sans-Serif" font-size="10.00">getConfiguration</text>
</a>
</g>
</g>
<!-- Node1&#45;&gt;Node5 -->
<g id="edge4_Node000001_Node000005" class="edge">
<title>Node1&#45;&gt;Node5</title>
<g id="a_edge4_Node000001_Node000005"><a xlink:title=" ">
<path fill="none" stroke="#63b8ff" d="M98.73,-143.8C120.52,-160.98 158.09,-188.78 194,-206.5 198.57,-208.75 203.34,-210.9 208.22,-212.92"/>
<polygon fill="#63b8ff" stroke="#63b8ff" points="207.08,-216.24 217.67,-216.67 209.66,-209.73 207.08,-216.24"/>
</a>
</g>
</g>
<!-- Node8 -->
<g id="Node000008" class="node">
<title>Node8</title>
<g id="a_Node000008"><a xlink:href="classRa_1_1Engine_1_1Data_1_1BlinnPhongMaterial.html#a96117e0c746c30ea97cda45c0e82c3a2" target="_top" xlink:title=" ">
<polygon fill="white" stroke="#666666" points="365.5,-197.5 207.5,-197.5 207.5,-167.5 365.5,-167.5 365.5,-197.5"/>
<text text-anchor="start" x="215.5" y="-185.5" font-family="Helvetica,sans-Serif" font-size="10.00">Ra::Engine::Data::BlinnPhong</text>
<text text-anchor="middle" x="286.5" y="-174.5" font-family="Helvetica,sans-Serif" font-size="10.00">Material::isTransparent</text>
</a>
</g>
</g>
<!-- Node1&#45;&gt;Node8 -->
<g id="edge7_Node000001_Node000008" class="edge">
<title>Node1&#45;&gt;Node8</title>
<g id="a_edge7_Node000001_Node000008"><a xlink:title=" ">
<path fill="none" stroke="#63b8ff" d="M137.24,-143.54C162.41,-150.16 192.15,-157.97 218.35,-164.86"/>
<polygon fill="#63b8ff" stroke="#63b8ff" points="217.65,-168.29 228.21,-167.45 219.43,-161.52 217.65,-168.29"/>
</a>
</g>
</g>
<!-- Node10 -->
<g id="Node000010" class="node">
<title>Node10</title>
<g id="a_Node000010"><a xlink:href="classRa_1_1Engine_1_1Data_1_1ParameterSetEditingInterface.html#a9715515de6a9ca229a6c28981d8b6724" target="_top" xlink:title="Load the ParameterSet description.">
<polygon fill="white" stroke="#666666" points="379,-89.5 194,-89.5 194,-59.5 379,-59.5 379,-89.5"/>
<text text-anchor="start" x="202" y="-77.5" font-family="Helvetica,sans-Serif" font-size="10.00">Ra::Engine::Data::Parameter</text>
<text text-anchor="middle" x="286.5" y="-66.5" font-family="Helvetica,sans-Serif" font-size="10.00">SetEditingInterface::loadMetaData</text>
</a>
</g>
</g>
<!-- Node1&#45;&gt;Node10 -->
<g id="edge9_Node000001_Node000010" class="edge">
<title>Node1&#45;&gt;Node10</title>
<g id="a_edge9_Node000001_Node000010"><a xlink:title=" ">
<path fill="none" stroke="#63b8ff" d="M137.12,-113.46C155.3,-108.67 175.49,-103.36 194,-98.5 201.79,-96.45 209.96,-94.31 218.07,-92.18"/>
<polygon fill="#63b8ff" stroke="#63b8ff" points="219.12,-95.52 227.9,-89.6 217.34,-88.75 219.12,-95.52"/>
</a>
</g>
</g>
<!-- Node11 -->
<g id="Node000011" class="node">
<title>Node11</title>
<g id="a_Node000011"><a xlink:href="namespaceRa_1_1Engine_1_1Data_1_1EngineMaterialConverters.html#a5a45ee7e1366b9abd85ae8701e9239b7" target="_top" xlink:title=" ">
<polygon fill="white" stroke="#666666" points="363.5,-41 209.5,-41 209.5,0 363.5,0 363.5,-41"/>
<text text-anchor="start" x="217.5" y="-29" font-family="Helvetica,sans-Serif" font-size="10.00">Ra::Engine::Data::Engine</text>
<text text-anchor="start" x="217.5" y="-18" font-family="Helvetica,sans-Serif" font-size="10.00">MaterialConverters::register</text>
<text text-anchor="middle" x="286.5" y="-7" font-family="Helvetica,sans-Serif" font-size="10.00">MaterialConverter</text>
</a>
</g>
</g>
<!-- Node1&#45;&gt;Node11 -->
<g id="edge10_Node000001_Node000011" class="edge">
<title>Node1&#45;&gt;Node11</title>
<g id="a_edge10_Node000001_Node000011"><a xlink:title=" ">
<path fill="none" stroke="#63b8ff" d="M98.73,-113.2C120.52,-96.02 158.09,-68.22 194,-50.5 197.99,-48.53 202.13,-46.65 206.36,-44.86"/>
<polygon fill="#63b8ff" stroke="#63b8ff" points="207.76,-48.06 215.72,-41.07 205.14,-41.58 207.76,-48.06"/>
</a>
</g>
</g>
<!-- Node3 -->
<g id="Node000003" class="node">
<title>Node3</title>
<g id="a_Node000003"><a target="_blank" xlink:href="http://en.cppreference.com/w/cpp/container/vector/empty.html#" xlink:title=" ">
<polygon fill="white" stroke="#666666" points="540,-138 434,-138 434,-119 540,-119 540,-138"/>
<text text-anchor="middle" x="487" y="-126" font-family="Helvetica,sans-Serif" font-size="10.00">std::vector::empty</text>
</a>
</g>
</g>
<!-- Node2&#45;&gt;Node3 -->
<g id="edge2_Node000002_Node000003" class="edge">
<title>Node2&#45;&gt;Node3</title>
<g id="a_edge2_Node000002_Node000003"><a xlink:title=" ">
<path fill="none" stroke="#63b8ff" d="M355.26,-128.5C377.46,-128.5 402.01,-128.5 423.78,-128.5"/>
<polygon fill="#63b8ff" stroke="#63b8ff" points="423.9,-132 433.9,-128.5 423.9,-125 423.9,-132"/>
</a>
</g>
</g>
<!-- Node4 -->
<g id="Node000004" class="node">
<title>Node4</title>
<g id="a_Node000004"><a target="_blank" xlink:href="http://en.cppreference.com/w/cpp/container/vector/insert.html#" xlink:title=" ">
<polygon fill="white" stroke="#666666" points="538,-66 436,-66 436,-47 538,-47 538,-66"/>
<text text-anchor="middle" x="487" y="-54" font-family="Helvetica,sans-Serif" font-size="10.00">std::vector::insert</text>
</a>
</g>
</g>
<!-- Node2&#45;&gt;Node4 -->
<g id="edge3_Node000002_Node000004" class="edge">
<title>Node2&#45;&gt;Node4</title>
<g id="a_edge3_Node000002_Node000004"><a xlink:title=" ">
<path fill="none" stroke="#63b8ff" d="M351.65,-107.98C360.86,-104.89 370.19,-101.67 379,-98.5 404.13,-89.46 432.22,-78.39 453.31,-69.89"/>
<polygon fill="#63b8ff" stroke="#63b8ff" points="454.81,-73.06 462.77,-66.06 452.19,-66.57 454.81,-73.06"/>
</a>
</g>
</g>
<!-- Node6 -->
<g id="Node000006" class="node">
<title>Node6</title>
<g id="a_Node000006"><a target="_blank" xlink:href="http://en.cppreference.com/w/cpp/string/basic_string/empty.html#" xlink:title=" ">
<polygon fill="white" stroke="#666666" points="538.5,-240 435.5,-240 435.5,-221 538.5,-221 538.5,-240"/>
<text text-anchor="middle" x="487" y="-228" font-family="Helvetica,sans-Serif" font-size="10.00">std::string::empty</text>
</a>
</g>
</g>
<!-- Node5&#45;&gt;Node6 -->
<g id="edge5_Node000005_Node000006" class="edge">
<title>Node5&#45;&gt;Node6</title>
<g id="a_edge5_Node000005_Node000006"><a xlink:title=" ">
<path fill="none" stroke="#63b8ff" d="M355.26,-234.45C377.95,-233.77 403.08,-233.01 425.2,-232.34"/>
<polygon fill="#63b8ff" stroke="#63b8ff" points="425.58,-235.83 435.47,-232.03 425.37,-228.83 425.58,-235.83"/>
</a>
</g>
</g>
<!-- Node7 -->
<g id="Node000007" class="node">
<title>Node7</title>
<g id="a_Node000007"><a target="_blank" xlink:href="http://en.cppreference.com/w/cpp/container/vector/end.html#" xlink:title=" ">
<polygon fill="white" stroke="#666666" points="533,-277 441,-277 441,-258 533,-258 533,-277"/>
<text text-anchor="middle" x="487" y="-265" font-family="Helvetica,sans-Serif" font-size="10.00">std::vector::end</text>
</a>
</g>
</g>
<!-- Node5&#45;&gt;Node7 -->
<g id="edge6_Node000005_Node000007" class="edge">
<title>Node5&#45;&gt;Node7</title>
<g id="a_edge6_Node000005_Node000007"><a xlink:title=" ">
<path fill="none" stroke="#63b8ff" d="M355.26,-247.08C379.91,-250.93 407.46,-255.23 430.89,-258.89"/>
<polygon fill="#63b8ff" stroke="#63b8ff" points="430.57,-262.39 440.99,-260.47 431.65,-255.47 430.57,-262.39"/>
</a>
</g>
</g>
<!-- Node9 -->
<g id="Node000009" class="node">
<title>Node9</title>
<g id="a_Node000009"><a xlink:href="classRa_1_1Engine_1_1Data_1_1Material.html#ad63ca518fc329294c46f2c580eae6555" target="_top" xlink:title=" ">
<polygon fill="white" stroke="#666666" points="559,-197.5 415,-197.5 415,-167.5 559,-167.5 559,-197.5"/>
<text text-anchor="start" x="423" y="-185.5" font-family="Helvetica,sans-Serif" font-size="10.00">Ra::Engine::Data::Material</text>
<text text-anchor="middle" x="487" y="-174.5" font-family="Helvetica,sans-Serif" font-size="10.00">::isTransparent</text>
</a>
</g>
</g>
<!-- Node8&#45;&gt;Node9 -->
<g id="edge8_Node000008_Node000009" class="edge">
<title>Node8&#45;&gt;Node9</title>
<g id="a_edge8_Node000008_Node000009"><a xlink:title=" ">
<path fill="none" stroke="#63b8ff" d="M365.67,-182.5C378.42,-182.5 391.67,-182.5 404.5,-182.5"/>
<polygon fill="#63b8ff" stroke="#63b8ff" points="404.69,-186 414.69,-182.5 404.69,-179 404.69,-186"/>
</a>
</g>
</g>
<!-- Node11&#45;&gt;Node4 -->
<g id="edge11_Node000011_Node000004" class="edge">
<title>Node11&#45;&gt;Node4</title>
<g id="a_edge11_Node000011_Node000004"><a xlink:title=" ">
<path fill="none" stroke="#63b8ff" d="M363.68,-34.32C384.25,-38.05 406.23,-42.03 425.8,-45.58"/>
<polygon fill="#63b8ff" stroke="#63b8ff" points="425.33,-49.05 435.79,-47.39 426.57,-42.17 425.33,-49.05"/>
</a>
</g>
</g>
</g>
</svg>
