<?xml version="1.0" encoding="UTF-8" standalone="no"?>
<!DOCTYPE svg PUBLIC "-//W3C//DTD SVG 1.1//EN"
 "http://www.w3.org/Graphics/SVG/1.1/DTD/svg11.dtd">
<!-- Generated by graphviz version 2.43.0 (0)
 -->
<!-- Title: Ra::Core::FunctionTask Pages: 1 -->
<svg width="340pt" height="321pt"
 viewBox="0.00 0.00 340.00 321.00" xmlns="http://www.w3.org/2000/svg" xmlns:xlink="http://www.w3.org/1999/xlink">
<g id="graph0" class="graph" transform="scale(1 1) rotate(0) translate(4 317)">
<title>Ra::Core::FunctionTask</title>
<polygon fill="white" stroke="transparent" points="-4,4 -4,-317 336,-317 336,4 -4,4"/>
<!-- Node1 -->
<g id="node1" class="node">
<title>Node1</title>
<g id="a_node1"><a xlink:title=" ">
<polygon fill="#bfbfbf" stroke="black" points="103.5,-0.5 103.5,-79.5 230.5,-79.5 230.5,-0.5 103.5,-0.5"/>
<text text-anchor="middle" x="167" y="-67.5" font-family="Helvetica,sans-Serif" font-size="10.00">Ra::Core::FunctionTask</text>
<polyline fill="none" stroke="black" points="103.5,-60.5 230.5,-60.5 "/>
<text text-anchor="middle" x="167" y="-48.5" font-family="Helvetica,sans-Serif" font-size="10.00"> </text>
<polyline fill="none" stroke="black" points="103.5,-41.5 230.5,-41.5 "/>
<text text-anchor="start" x="111.5" y="-29.5" font-family="Helvetica,sans-Serif" font-size="10.00">+ FunctionTask()</text>
<text text-anchor="start" x="111.5" y="-18.5" font-family="Helvetica,sans-Serif" font-size="10.00">+ getName()</text>
<text text-anchor="start" x="111.5" y="-7.5" font-family="Helvetica,sans-Serif" font-size="10.00">+ process()</text>
</a>
</g>
</g>
<!-- Node2 -->
<g id="node2" class="node">
<title>Node2</title>
<g id="a_node2"><a xlink:href="classRa_1_1Core_1_1Task.html" target="_top" xlink:title=" ">
<polygon fill="white" stroke="black" points="0,-127.5 0,-206.5 86,-206.5 86,-127.5 0,-127.5"/>
<text text-anchor="middle" x="43" y="-194.5" font-family="Helvetica,sans-Serif" font-size="10.00">Ra::Core::Task</text>
<polyline fill="none" stroke="black" points="0,-187.5 86,-187.5 "/>
<text text-anchor="middle" x="43" y="-175.5" font-family="Helvetica,sans-Serif" font-size="10.00"> </text>
<polyline fill="none" stroke="black" points="0,-168.5 86,-168.5 "/>
<text text-anchor="start" x="8" y="-156.5" font-family="Helvetica,sans-Serif" font-size="10.00">+ ~Task()</text>
<text text-anchor="start" x="8" y="-145.5" font-family="Helvetica,sans-Serif" font-size="10.00">+ getName()</text>
<text text-anchor="start" x="8" y="-134.5" font-family="Helvetica,sans-Serif" font-size="10.00">+ process()</text>
</a>
</g>
</g>
<!-- Node2&#45;&gt;Node1 -->
<g id="edge1" class="edge">
<title>Node2&#45;&gt;Node1</title>
<path fill="none" stroke="midnightblue" d="M88.43,-120.2C101.65,-106.87 115.96,-92.45 128.7,-79.61"/>
<polygon fill="none" stroke="midnightblue" points="85.77,-117.91 81.22,-127.48 90.74,-122.84 85.77,-117.91"/>
</g>
<!-- Node3 -->
<g id="node3" class="node">
<title>Node3</title>
<g id="a_node3"><a xlink:title=" ">
<polygon fill="white" stroke="#bfbfbf" points="104.5,-138.5 104.5,-195.5 229.5,-195.5 229.5,-138.5 104.5,-138.5"/>
<text text-anchor="middle" x="167" y="-183.5" font-family="Helvetica,sans-Serif" font-size="10.00">function&lt; void(void)&gt;</text>
<polyline fill="none" stroke="#bfbfbf" points="104.5,-176.5 229.5,-176.5 "/>
<text text-anchor="middle" x="167" y="-164.5" font-family="Helvetica,sans-Serif" font-size="10.00"> </text>
<polyline fill="none" stroke="#bfbfbf" points="104.5,-157.5 229.5,-157.5 "/>
<text text-anchor="middle" x="167" y="-145.5" font-family="Helvetica,sans-Serif" font-size="10.00"> </text>
</a>
</g>
</g>
<!-- Node3&#45;&gt;Node1 -->
<g id="edge2" class="edge">
<title>Node3&#45;&gt;Node1</title>
<path fill="none" stroke="#404040" d="M167,-138.26C167,-124.64 167,-107.79 167,-91.96"/>
<polygon fill="none" stroke="#404040" points="167,-91.57 163,-85.57 167,-79.57 171,-85.57 167,-91.57"/>
<text text-anchor="middle" x="182.5" y="-101" font-family="Helvetica,sans-Serif" font-size="10.00"> #m_f</text>
</g>
<!-- Node4 -->
<g id="node4" class="node">
<title>Node4</title>
<g id="a_node4"><a xlink:title="STL class.">
<polygon fill="white" stroke="#bfbfbf" points="247.5,-138.5 247.5,-195.5 312.5,-195.5 312.5,-138.5 247.5,-138.5"/>
<text text-anchor="middle" x="280" y="-183.5" font-family="Helvetica,sans-Serif" font-size="10.00">std::string</text>
<polyline fill="none" stroke="#bfbfbf" points="247.5,-176.5 312.5,-176.5 "/>
<text text-anchor="middle" x="280" y="-164.5" font-family="Helvetica,sans-Serif" font-size="10.00"> </text>
<polyline fill="none" stroke="#bfbfbf" points="247.5,-157.5 312.5,-157.5 "/>
<text text-anchor="middle" x="280" y="-145.5" font-family="Helvetica,sans-Serif" font-size="10.00"> </text>
</a>
</g>
</g>
<!-- Node4&#45;&gt;Node1 -->
<g id="edge3" class="edge">
<title>Node4&#45;&gt;Node1</title>
<path fill="none" stroke="#404040" d="M254.92,-138.26C241.75,-123.69 225.25,-105.44 210.11,-88.68"/>
<polygon fill="none" stroke="#404040" points="209.91,-88.47 202.92,-86.7 201.86,-79.57 208.86,-81.34 209.91,-88.47"/>
<text text-anchor="middle" x="253.5" y="-101" font-family="Helvetica,sans-Serif" font-size="10.00"> #m_name</text>
</g>
<!-- Node5 -->
<g id="node5" class="node">
<title>Node5</title>
<g id="a_node5"><a xlink:title="STL class.">
<polygon fill="white" stroke="#bfbfbf" points="228,-244.5 228,-312.5 332,-312.5 332,-244.5 228,-244.5"/>
<text text-anchor="start" x="236" y="-300.5" font-family="Helvetica,sans-Serif" font-size="10.00">std::basic_string&lt;</text>
<text text-anchor="middle" x="280" y="-289.5" font-family="Helvetica,sans-Serif" font-size="10.00"> char &gt;</text>
<polyline fill="none" stroke="#bfbfbf" points="228,-282.5 332,-282.5 "/>
<text text-anchor="middle" x="280" y="-270.5" font-family="Helvetica,sans-Serif" font-size="10.00"> </text>
<polyline fill="none" stroke="#bfbfbf" points="228,-263.5 332,-263.5 "/>
<text text-anchor="middle" x="280" y="-251.5" font-family="Helvetica,sans-Serif" font-size="10.00"> </text>
</a>
</g>
</g>
<!-- Node5&#45;&gt;Node4 -->
<g id="edge4" class="edge">
<title>Node5&#45;&gt;Node4</title>
<path fill="none" stroke="midnightblue" d="M280,-234.16C280,-221.13 280,-207.21 280,-195.51"/>
<polygon fill="none" stroke="midnightblue" points="276.5,-234.35 280,-244.35 283.5,-234.35 276.5,-234.35"/>
</g>
</g>
</svg>
