<?xml version="1.0" encoding="UTF-8" standalone="no"?>
<!DOCTYPE svg PUBLIC "-//W3C//DTD SVG 1.1//EN"
 "http://www.w3.org/Graphics/SVG/1.1/DTD/svg11.dtd">
<!-- Generated by graphviz version 2.43.0 (0)
 -->
<!-- Title: Ra::IO::OBJFileManager Pages: 1 -->
<svg width="216pt" height="673pt"
 viewBox="0.00 0.00 215.50 673.00" xmlns="http://www.w3.org/2000/svg" xmlns:xlink="http://www.w3.org/1999/xlink">
<g id="graph0" class="graph" transform="scale(1 1) rotate(0) translate(4 669)">
<title>Ra::IO::OBJFileManager</title>
<!-- Node1 -->
<g id="Node000001" class="node">
<title>Node1</title>
<g id="a_Node000001"><a xlink:title=" ">
<polygon fill="#999999" stroke="transparent" points="133,-109 10,-109 10,0 133,0 133,-109"/>
<text text-anchor="start" x="15.5" y="-96.5" font-family="Helvetica,sans-Serif" font-size="10.00">Ra::IO::OBJFileManager</text>
<text text-anchor="start" x="70" y="-81.5" font-family="Helvetica,sans-Serif" font-size="10.00"> </text>
<text text-anchor="start" x="16.5" y="-66.5" font-family="Helvetica,sans-Serif" font-size="10.00">+</text>
<text text-anchor="start" x="31.5" y="-66.5" font-family="Helvetica,sans-Serif" font-size="10.00">OBJFileManager()</text>
<text text-anchor="start" x="16.5" y="-51.5" font-family="Helvetica,sans-Serif" font-size="10.00">+</text>
<text text-anchor="start" x="31.5" y="-51.5" font-family="Helvetica,sans-Serif" font-size="10.00">~OBJFileManager()</text>
<text text-anchor="start" x="16.5" y="-36.5" font-family="Helvetica,sans-Serif" font-size="10.00">+</text>
<text text-anchor="start" x="31.5" y="-36.5" font-family="Helvetica,sans-Serif" font-size="10.00">fileExtension()</text>
<text text-anchor="start" x="16.5" y="-21.5" font-family="Helvetica,sans-Serif" font-size="10.00">+</text>
<text text-anchor="start" x="31.5" y="-21.5" font-family="Helvetica,sans-Serif" font-size="10.00">importData()</text>
<text text-anchor="start" x="16.5" y="-6.5" font-family="Helvetica,sans-Serif" font-size="10.00">+</text>
<text text-anchor="start" x="31.5" y="-6.5" font-family="Helvetica,sans-Serif" font-size="10.00">exportData()</text>
<polygon fill="#666666" stroke="#666666" points="10.5,-91.5 10.5,-91.5 133.5,-91.5 133.5,-91.5 10.5,-91.5"/>
<polygon fill="#666666" stroke="#666666" points="10.5,-76.5 10.5,-76.5 133.5,-76.5 133.5,-76.5 10.5,-76.5"/>
<polygon fill="none" stroke="#666666" points="10,0 10,-109 133,-109 133,0 10,0"/>
</a>
</g>
</g>
<!-- Node2 -->
<g id="Node000002" class="node">
<title>Node2</title>
<g id="a_Node000002"><a xlink:href="classRa_1_1IO_1_1FileManager.html" target="_top" xlink:title=" ">
<polygon fill="white" stroke="transparent" points="143,-382 0,-382 0,-146 143,-146 143,-382"/>
<text text-anchor="start" x="5.5" y="-370" font-family="Helvetica,sans-Serif" font-size="10.00">Ra::IO::FileManager</text>
<text text-anchor="start" x="5.5" y="-359" font-family="Helvetica,sans-Serif" font-size="10.00">&lt; Core::Geometry::Triangle</text>
<text text-anchor="start" x="53" y="-348" font-family="Helvetica,sans-Serif" font-size="10.00">Mesh &gt;</text>
<text text-anchor="start" x="70" y="-333" font-family="Helvetica,sans-Serif" font-size="10.00"> </text>
<text text-anchor="start" x="7.5" y="-318" font-family="Helvetica,sans-Serif" font-size="10.00">+</text>
<text text-anchor="start" x="23.5" y="-318" font-family="Helvetica,sans-Serif" font-size="10.00">FileManager()</text>
<text text-anchor="start" x="7.5" y="-303" font-family="Helvetica,sans-Serif" font-size="10.00">+</text>
<text text-anchor="start" x="23.5" y="-303" font-family="Helvetica,sans-Serif" font-size="10.00">~FileManager()</text>
<text text-anchor="start" x="7.5" y="-288" font-family="Helvetica,sans-Serif" font-size="10.00">+</text>
<text text-anchor="start" x="23.5" y="-288" font-family="Helvetica,sans-Serif" font-size="10.00">load()</text>
<text text-anchor="start" x="7.5" y="-273" font-family="Helvetica,sans-Serif" font-size="10.00">+</text>
<text text-anchor="start" x="23.5" y="-273" font-family="Helvetica,sans-Serif" font-size="10.00">save()</text>
<text text-anchor="start" x="7.5" y="-258" font-family="Helvetica,sans-Serif" font-size="10.00">+</text>
<text text-anchor="start" x="23.5" y="-258" font-family="Helvetica,sans-Serif" font-size="10.00">log()</text>
<text text-anchor="start" x="7.5" y="-243" font-family="Helvetica,sans-Serif" font-size="10.00">#</text>
<text text-anchor="start" x="23.5" y="-243" font-family="Helvetica,sans-Serif" font-size="10.00">addLogEntry()</text>
<text text-anchor="start" x="7.5" y="-228" font-family="Helvetica,sans-Serif" font-size="10.00">#</text>
<text text-anchor="start" x="23.5" y="-228" font-family="Helvetica,sans-Serif" font-size="10.00">addLogEntry()</text>
<text text-anchor="start" x="7.5" y="-213" font-family="Helvetica,sans-Serif" font-size="10.00">#</text>
<text text-anchor="start" x="23.5" y="-213" font-family="Helvetica,sans-Serif" font-size="10.00">addLogWarningEntry()</text>
<text text-anchor="start" x="7.5" y="-198" font-family="Helvetica,sans-Serif" font-size="10.00">#</text>
<text text-anchor="start" x="23.5" y="-198" font-family="Helvetica,sans-Serif" font-size="10.00">addLogErrorEntry()</text>
<text text-anchor="start" x="7.5" y="-183" font-family="Helvetica,sans-Serif" font-size="10.00">#</text>
<text text-anchor="start" x="23.5" y="-183" font-family="Helvetica,sans-Serif" font-size="10.00">fileExtension()</text>
<text text-anchor="start" x="7.5" y="-168" font-family="Helvetica,sans-Serif" font-size="10.00">#</text>
<text text-anchor="start" x="23.5" y="-168" font-family="Helvetica,sans-Serif" font-size="10.00">importData()</text>
<text text-anchor="start" x="7.5" y="-153" font-family="Helvetica,sans-Serif" font-size="10.00">#</text>
<text text-anchor="start" x="23.5" y="-153" font-family="Helvetica,sans-Serif" font-size="10.00">exportData()</text>
<polygon fill="#666666" stroke="#666666" points="0.5,-343 0.5,-343 143.5,-343 143.5,-343 0.5,-343"/>
<polygon fill="#666666" stroke="#666666" points="0.5,-328 0.5,-328 143.5,-328 143.5,-328 0.5,-328"/>
<polygon fill="none" stroke="#666666" points="0,-146 0,-382 143,-382 143,-146 0,-146"/>
</a>
</g>
</g>
<!-- Node2&#45;&gt;Node1 -->
<g id="edge1_Node000001_Node000002" class="edge">
<title>Node2&#45;&gt;Node1</title>
<g id="a_edge1_Node000001_Node000002"><a xlink:title=" ">
<path fill="none" stroke="#63b8ff" d="M71.5,-135.87C71.5,-126.7 71.5,-117.79 71.5,-109.44"/>
<polygon fill="none" stroke="#63b8ff" points="68,-135.91 71.5,-145.91 75,-135.91 68,-135.91"/>
</a>
</g>
</g>
<!-- Node3 -->
<g id="Node000003" class="node">
<title>Node3</title>
<g id="a_Node000003"><a xlink:href="classRa_1_1IO_1_1FileManager.html" target="_top" xlink:title=" ">
<polygon fill="white" stroke="transparent" points="136.5,-665 6.5,-665 6.5,-440 136.5,-440 136.5,-665"/>
<text text-anchor="start" x="23.5" y="-652.5" font-family="Helvetica,sans-Serif" font-size="10.00">Ra::IO::FileManager</text>
<text text-anchor="start" x="28.5" y="-641.5" font-family="Helvetica,sans-Serif" font-size="10.00">&lt; DATA, Binary &gt;</text>
<text text-anchor="start" x="69.5" y="-626.5" font-family="Helvetica,sans-Serif" font-size="10.00"> </text>
<text text-anchor="start" x="10.5" y="-611.5" font-family="Helvetica,sans-Serif" font-size="10.00">+</text>
<text text-anchor="start" x="23.5" y="-611.5" font-family="Helvetica,sans-Serif" font-size="10.00">FileManager()</text>
<text text-anchor="start" x="10.5" y="-596.5" font-family="Helvetica,sans-Serif" font-size="10.00">+</text>
<text text-anchor="start" x="23.5" y="-596.5" font-family="Helvetica,sans-Serif" font-size="10.00">~FileManager()</text>
<text text-anchor="start" x="10.5" y="-581.5" font-family="Helvetica,sans-Serif" font-size="10.00">+</text>
<text text-anchor="start" x="23.5" y="-581.5" font-family="Helvetica,sans-Serif" font-size="10.00">load()</text>
<text text-anchor="start" x="10.5" y="-566.5" font-family="Helvetica,sans-Serif" font-size="10.00">+</text>
<text text-anchor="start" x="23.5" y="-566.5" font-family="Helvetica,sans-Serif" font-size="10.00">save()</text>
<text text-anchor="start" x="10.5" y="-551.5" font-family="Helvetica,sans-Serif" font-size="10.00">+</text>
<text text-anchor="start" x="23.5" y="-551.5" font-family="Helvetica,sans-Serif" font-size="10.00">log()</text>
<text text-anchor="start" x="10.5" y="-536.5" font-family="Helvetica,sans-Serif" font-size="10.00">#</text>
<text text-anchor="start" x="23.5" y="-536.5" font-family="Helvetica,sans-Serif" font-size="10.00">addLogEntry()</text>
<text text-anchor="start" x="10.5" y="-521.5" font-family="Helvetica,sans-Serif" font-size="10.00">#</text>
<text text-anchor="start" x="23.5" y="-521.5" font-family="Helvetica,sans-Serif" font-size="10.00">addLogWarningEntry()</text>
<text text-anchor="start" x="10.5" y="-506.5" font-family="Helvetica,sans-Serif" font-size="10.00">#</text>
<text text-anchor="start" x="23.5" y="-506.5" font-family="Helvetica,sans-Serif" font-size="10.00">addLogErrorEntry()</text>
<text text-anchor="start" x="10.5" y="-491.5" font-family="Helvetica,sans-Serif" font-size="10.00">#</text>
<text text-anchor="start" x="23.5" y="-491.5" font-family="Helvetica,sans-Serif" font-size="10.00">addLogEntry()</text>
<text text-anchor="start" x="10.5" y="-476.5" font-family="Helvetica,sans-Serif" font-size="10.00">#</text>
<text text-anchor="start" x="23.5" y="-476.5" font-family="Helvetica,sans-Serif" font-size="10.00">fileExtension()</text>
<text text-anchor="start" x="10.5" y="-461.5" font-family="Helvetica,sans-Serif" font-size="10.00">#</text>
<text text-anchor="start" x="23.5" y="-461.5" font-family="Helvetica,sans-Serif" font-size="10.00">importData()</text>
<text text-anchor="start" x="10.5" y="-446.5" font-family="Helvetica,sans-Serif" font-size="10.00">#</text>
<text text-anchor="start" x="23.5" y="-446.5" font-family="Helvetica,sans-Serif" font-size="10.00">exportData()</text>
<polygon fill="#666666" stroke="#666666" points="6.5,-636.5 6.5,-636.5 136.5,-636.5 136.5,-636.5 6.5,-636.5"/>
<polygon fill="#666666" stroke="#666666" points="6.5,-621.5 6.5,-621.5 136.5,-621.5 136.5,-621.5 6.5,-621.5"/>
<polygon fill="none" stroke="#666666" points="6.5,-440 6.5,-665 136.5,-665 136.5,-440 6.5,-440"/>
</a>
</g>
</g>
<!-- Node3&#45;&gt;Node2 -->
<g id="edge2_Node000002_Node000003" class="edge">
<title>Node3&#45;&gt;Node2</title>
<g id="a_edge2_Node000002_Node000003"><a xlink:title=" ">
<path fill="none" stroke="orange" d="M71.5,-429.68C71.5,-414.02 71.5,-398.02 71.5,-382.43"/>
<polygon fill="orange" stroke="orange" points="68,-429.91 71.5,-439.91 75,-429.91 68,-429.91"/>
</a>
</g>
<text text-anchor="start" x="71.5" y="-414" font-family="Helvetica,sans-Serif" font-size="10.00" fill="grey"> &lt; Core::Geometry::Triangle</text>
<text text-anchor="middle" x="139.5" y="-403" font-family="Helvetica,sans-Serif" font-size="10.00" fill="grey">Mesh &gt;</text>
</g>
</g>
</svg>
