<?xml version="1.0" encoding="UTF-8" standalone="no"?>
<!DOCTYPE svg PUBLIC "-//W3C//DTD SVG 1.1//EN"
 "http://www.w3.org/Graphics/SVG/1.1/DTD/svg11.dtd">
<!-- Generated by graphviz version 2.43.0 (0)
 -->
<!-- Title: Ra::Engine::Data::RawShaderMaterial::registerDefaultTechnique Pages: 1 -->
<svg width="608pt" height="160pt"
 viewBox="0.00 0.00 608.00 159.50" xmlns="http://www.w3.org/2000/svg" xmlns:xlink="http://www.w3.org/1999/xlink">
<g id="graph0" class="graph" transform="scale(1 1) rotate(0) translate(4 155.5)">
<title>Ra::Engine::Data::RawShaderMaterial::registerDefaultTechnique</title>
<polygon fill="white" stroke="transparent" points="-4,4 -4,-155.5 604,-155.5 604,4 -4,4"/>
<!-- Node1 -->
<g id="node1" class="node">
<title>Node1</title>
<g id="a_node1"><a xlink:title=" ">
<polygon fill="#bfbfbf" stroke="black" points="0,-55.5 0,-85.5 185,-85.5 185,-55.5 0,-55.5"/>
<text text-anchor="start" x="8" y="-73.5" font-family="Helvetica,sans-Serif" font-size="10.00">Ra::Engine::Data::RawShader</text>
<text text-anchor="middle" x="92.5" y="-62.5" font-family="Helvetica,sans-Serif" font-size="10.00">Material::registerDefaultTechnique</text>
</a>
</g>
</g>
<!-- Node2 -->
<g id="node2" class="node">
<title>Node2</title>
<g id="a_node2"><a xlink:href="namespaceRa_1_1Engine_1_1Data_1_1ShaderConfigurationFactory.html#a00918835250fbd8bbe4deae59ecd6dde" target="_top" xlink:title=" ">
<polygon fill="white" stroke="black" points="248.5,-110 248.5,-151 385.5,-151 385.5,-110 248.5,-110"/>
<text text-anchor="start" x="256.5" y="-139" font-family="Helvetica,sans-Serif" font-size="10.00">Ra::Engine::Data::Shader</text>
<text text-anchor="start" x="256.5" y="-128" font-family="Helvetica,sans-Serif" font-size="10.00">ConfigurationFactory::</text>
<text text-anchor="middle" x="317" y="-117" font-family="Helvetica,sans-Serif" font-size="10.00">addConfiguration</text>
</a>
</g>
</g>
<!-- Node1&#45;&gt;Node2 -->
<g id="edge1" class="edge">
<title>Node1&#45;&gt;Node2</title>
<path fill="none" stroke="midnightblue" d="M149.36,-85.56C176.31,-92.83 209.08,-101.67 238.4,-109.57"/>
<polygon fill="midnightblue" stroke="midnightblue" points="237.63,-112.99 248.2,-112.22 239.46,-106.23 237.63,-112.99"/>
</g>
<!-- Node3 -->
<g id="node3" class="node">
<title>Node3</title>
<g id="a_node3"><a xlink:href="namespaceRa_1_1Engine_1_1Data_1_1ShaderConfigurationFactory.html#a0ecc004c00bff945aae8b673a738909f" target="_top" xlink:title=" ">
<polygon fill="white" stroke="black" points="248.5,-50 248.5,-91 385.5,-91 385.5,-50 248.5,-50"/>
<text text-anchor="start" x="256.5" y="-79" font-family="Helvetica,sans-Serif" font-size="10.00">Ra::Engine::Data::Shader</text>
<text text-anchor="start" x="256.5" y="-68" font-family="Helvetica,sans-Serif" font-size="10.00">ConfigurationFactory::</text>
<text text-anchor="middle" x="317" y="-57" font-family="Helvetica,sans-Serif" font-size="10.00">getConfiguration</text>
</a>
</g>
</g>
<!-- Node1&#45;&gt;Node3 -->
<g id="edge2" class="edge">
<title>Node1&#45;&gt;Node3</title>
<path fill="none" stroke="midnightblue" d="M185.28,-70.5C202.73,-70.5 220.84,-70.5 237.81,-70.5"/>
<polygon fill="midnightblue" stroke="midnightblue" points="238.22,-74 248.22,-70.5 238.22,-67 238.22,-74"/>
</g>
<!-- Node4 -->
<g id="node4" class="node">
<title>Node4</title>
<g id="a_node4"><a xlink:href="classRa_1_1Engine_1_1Rendering_1_1RenderTechnique.html#a2b058b0fe2f9c2496b7805e0d5b15452" target="_top" xlink:title=" ">
<polygon fill="white" stroke="black" points="221,-0.5 221,-30.5 413,-30.5 413,-0.5 221,-0.5"/>
<text text-anchor="start" x="229" y="-18.5" font-family="Helvetica,sans-Serif" font-size="10.00">Ra::Engine::Rendering</text>
<text text-anchor="middle" x="317" y="-7.5" font-family="Helvetica,sans-Serif" font-size="10.00">::RenderTechnique::setConfiguration</text>
</a>
</g>
</g>
<!-- Node1&#45;&gt;Node4 -->
<g id="edge3" class="edge">
<title>Node1&#45;&gt;Node4</title>
<path fill="none" stroke="midnightblue" d="M154.3,-55.47C182.51,-48.5 216.2,-40.17 245.52,-32.92"/>
<polygon fill="midnightblue" stroke="midnightblue" points="246.41,-36.31 255.27,-30.51 244.73,-29.51 246.41,-36.31"/>
</g>
<!-- Node5 -->
<g id="node5" class="node">
<title>Node5</title>
<g id="a_node5"><a xlink:href="classRa_1_1Engine_1_1Rendering_1_1RenderTechnique.html#af3b58075507144820fe06f6a129b0107" target="_top" xlink:title=" ">
<polygon fill="white" stroke="black" points="449,-0.5 449,-30.5 600,-30.5 600,-0.5 449,-0.5"/>
<text text-anchor="start" x="457" y="-18.5" font-family="Helvetica,sans-Serif" font-size="10.00">Ra::Engine::Rendering</text>
<text text-anchor="middle" x="524.5" y="-7.5" font-family="Helvetica,sans-Serif" font-size="10.00">::RenderTechnique::setDirty</text>
</a>
</g>
</g>
<!-- Node4&#45;&gt;Node5 -->
<g id="edge4" class="edge">
<title>Node4&#45;&gt;Node5</title>
<path fill="none" stroke="midnightblue" d="M413.23,-15.5C421.74,-15.5 430.32,-15.5 438.73,-15.5"/>
<polygon fill="midnightblue" stroke="midnightblue" points="438.89,-19 448.89,-15.5 438.89,-12 438.89,-19"/>
</g>
</g>
</svg>
