<?xml version="1.0" encoding="UTF-8" standalone="no"?>
<!DOCTYPE svg PUBLIC "-//W3C//DTD SVG 1.1//EN"
 "http://www.w3.org/Graphics/SVG/1.1/DTD/svg11.dtd">
<!-- Generated by graphviz version 2.43.0 (0)
 -->
<!-- Title: Ra::Engine::Scene::ComponentMessenger::unregisterAll Pages: 1 -->
<svg width="314pt" height="172pt"
 viewBox="0.00 0.00 314.00 172.00" xmlns="http://www.w3.org/2000/svg" xmlns:xlink="http://www.w3.org/1999/xlink">
<g id="graph0" class="graph" transform="scale(1 1) rotate(0) translate(4 168)">
<title>Ra::Engine::Scene::ComponentMessenger::unregisterAll</title>
<!-- Node1 -->
<g id="Node000001" class="node">
<title>Node1</title>
<g id="a_Node000001"><a xlink:title="unregister all callbacks attached to entity&#39;s component">
<polygon fill="#999999" stroke="#666666" points="132,-104.5 0,-104.5 0,-63.5 132,-63.5 132,-104.5"/>
<text text-anchor="start" x="8" y="-92.5" font-family="Helvetica,sans-Serif" font-size="10.00">Ra::Engine::Scene::</text>
<text text-anchor="start" x="8" y="-81.5" font-family="Helvetica,sans-Serif" font-size="10.00">ComponentMessenger::</text>
<text text-anchor="middle" x="66" y="-70.5" font-family="Helvetica,sans-Serif" font-size="10.00">unregisterAll</text>
</a>
</g>
</g>
<!-- Node2 -->
<g id="Node000002" class="node">
<title>Node2</title>
<g id="a_Node000002"><a target="_blank" xlink:href="http://en.cppreference.com/w/cpp/container/unordered_map/begin.html#" xlink:title=" ">
<polygon fill="white" stroke="#666666" points="294,-164 180,-164 180,-134 294,-134 294,-164"/>
<text text-anchor="start" x="188" y="-152" font-family="Helvetica,sans-Serif" font-size="10.00">std::unordered_map</text>
<text text-anchor="middle" x="237" y="-141" font-family="Helvetica,sans-Serif" font-size="10.00">::begin</text>
</a>
</g>
</g>
<!-- Node1&#45;&gt;Node2 -->
<g id="edge1_Node000001_Node000002" class="edge">
<title>Node1&#45;&gt;Node2</title>
<g id="a_edge1_Node000001_Node000002"><a xlink:title=" ">
<path fill="none" stroke="#63b8ff" d="M116.39,-104.58C132.76,-111.26 151.1,-118.59 168,-125 172.78,-126.81 177.76,-128.66 182.77,-130.48"/>
<polygon fill="#63b8ff" stroke="#63b8ff" points="181.77,-133.84 192.36,-133.93 184.14,-127.25 181.77,-133.84"/>
</a>
</g>
</g>
<!-- Node3 -->
<g id="Node000003" class="node">
<title>Node3</title>
<g id="a_Node000003"><a target="_blank" xlink:href="http://en.cppreference.com/w/cpp/container/unordered_map/end.html#" xlink:title=" ">
<polygon fill="white" stroke="#666666" points="306,-115.5 168,-115.5 168,-96.5 306,-96.5 306,-115.5"/>
<text text-anchor="middle" x="237" y="-103.5" font-family="Helvetica,sans-Serif" font-size="10.00">std::unordered_map::end</text>
</a>
</g>
</g>
<!-- Node1&#45;&gt;Node3 -->
<g id="edge2_Node000001_Node000003" class="edge">
<title>Node1&#45;&gt;Node3</title>
<g id="a_edge2_Node000001_Node000003"><a xlink:title=" ">
<path fill="none" stroke="#63b8ff" d="M132.34,-92.51C140.68,-93.59 149.29,-94.71 157.82,-95.82"/>
<polygon fill="#63b8ff" stroke="#63b8ff" points="157.39,-99.3 167.76,-97.12 158.29,-92.35 157.39,-99.3"/>
</a>
</g>
</g>
<!-- Node4 -->
<g id="Node000004" class="node">
<title>Node4</title>
<g id="a_Node000004"><a target="_blank" xlink:href="http://en.cppreference.com/w/cpp/container/unordered_map/erase.html#" xlink:title=" ">
<polygon fill="white" stroke="#666666" points="294,-78 180,-78 180,-48 294,-48 294,-78"/>
<text text-anchor="start" x="188" y="-66" font-family="Helvetica,sans-Serif" font-size="10.00">std::unordered_map</text>
<text text-anchor="middle" x="237" y="-55" font-family="Helvetica,sans-Serif" font-size="10.00">::erase</text>
</a>
</g>
</g>
<!-- Node1&#45;&gt;Node4 -->
<g id="edge3_Node000001_Node000004" class="edge">
<title>Node1&#45;&gt;Node4</title>
<g id="a_edge3_Node000001_Node000004"><a xlink:title=" ">
<path fill="none" stroke="#63b8ff" d="M132.34,-75.88C144.6,-74.36 157.44,-72.76 169.73,-71.24"/>
<polygon fill="#63b8ff" stroke="#63b8ff" points="170.41,-74.68 179.9,-69.97 169.55,-67.73 170.41,-74.68"/>
</a>
</g>
</g>
<!-- Node5 -->
<g id="Node000005" class="node">
<title>Node5</title>
<g id="a_Node000005"><a xlink:href="classRa_1_1Engine_1_1Scene_1_1Component.html#a1d4c8227d4c1c7dacb860e6b44f1f698" target="_top" xlink:title="Return the component&#39;s name.">
<polygon fill="white" stroke="#666666" points="299,-30 175,-30 175,0 299,0 299,-30"/>
<text text-anchor="start" x="183" y="-18" font-family="Helvetica,sans-Serif" font-size="10.00">Ra::Engine::Scene::</text>
<text text-anchor="middle" x="237" y="-7" font-family="Helvetica,sans-Serif" font-size="10.00">Component::getName</text>
</a>
</g>
</g>
<!-- Node1&#45;&gt;Node5 -->
<g id="edge4_Node000001_Node000005" class="edge">
<title>Node1&#45;&gt;Node5</title>
<g id="a_edge4_Node000001_Node000005"><a xlink:title=" ">
<path fill="none" stroke="#63b8ff" d="M111.42,-63.29C128.92,-55.37 149.28,-46.46 168,-39 172.49,-37.21 177.17,-35.42 181.88,-33.66"/>
<polygon fill="#63b8ff" stroke="#63b8ff" points="183.37,-36.84 191.55,-30.11 180.96,-30.27 183.37,-36.84"/>
</a>
</g>
</g>
</g>
</svg>
