<?xml version="1.0" encoding="UTF-8" standalone="no"?>
<!DOCTYPE svg PUBLIC "-//W3C//DTD SVG 1.1//EN"
 "http://www.w3.org/Graphics/SVG/1.1/DTD/svg11.dtd">
<!-- Generated by graphviz version 2.43.0 (0)
 -->
<!-- Title: Ra::Core::Geometry::deprecated::TopologicalMesh::copyAllPropsFromFace Pages: 1 -->
<svg width="502pt" height="108pt"
 viewBox="0.00 0.00 502.00 108.00" xmlns="http://www.w3.org/2000/svg" xmlns:xlink="http://www.w3.org/1999/xlink">
<g id="graph0" class="graph" transform="scale(1 1) rotate(0) translate(4 104)">
<title>Ra::Core::Geometry::deprecated::TopologicalMesh::copyAllPropsFromFace</title>
<!-- Node1 -->
<g id="Node000001" class="node">
<title>Node1</title>
<g id="a_Node000001"><a xlink:title=" ">
<polygon fill="#999999" stroke="#666666" points="164,-70 0,-70 0,-29 164,-29 164,-70"/>
<text text-anchor="start" x="8" y="-58" font-family="Helvetica,sans-Serif" font-size="10.00">Ra::Core::Geometry</text>
<text text-anchor="start" x="8" y="-47" font-family="Helvetica,sans-Serif" font-size="10.00">::deprecated::TopologicalMesh</text>
<text text-anchor="middle" x="82" y="-36" font-family="Helvetica,sans-Serif" font-size="10.00">::copyAllPropsFromFace</text>
</a>
</g>
</g>
<!-- Node2 -->
<g id="Node000002" class="node">
<title>Node2</title>
<g id="a_Node000002"><a xlink:href="classRa_1_1Core_1_1Geometry_1_1deprecated_1_1TopologicalMesh.html#a1643834ef6b1bd44a8741225b470b1ba" target="_top" xlink:title=" ">
<polygon fill="white" stroke="#666666" points="364,-100 200,-100 200,-59 364,-59 364,-100"/>
<text text-anchor="start" x="208" y="-88" font-family="Helvetica,sans-Serif" font-size="10.00">Ra::Core::Geometry</text>
<text text-anchor="start" x="208" y="-77" font-family="Helvetica,sans-Serif" font-size="10.00">::deprecated::TopologicalMesh</text>
<text text-anchor="middle" x="282" y="-66" font-family="Helvetica,sans-Serif" font-size="10.00">::copyNormalFromFace</text>
</a>
</g>
</g>
<!-- Node1&#45;&gt;Node2 -->
<g id="edge1_Node000001_Node000002" class="edge">
<title>Node1&#45;&gt;Node2</title>
<g id="a_edge1_Node000001_Node000002"><a xlink:title=" ">
<path fill="none" stroke="#63b8ff" d="M164.11,-61.79C172.55,-63.07 181.17,-64.37 189.72,-65.67"/>
<polygon fill="#63b8ff" stroke="#63b8ff" points="189.29,-69.14 199.7,-67.18 190.34,-62.22 189.29,-69.14"/>
</a>
</g>
</g>
<!-- Node3 -->
<g id="Node000003" class="node">
<title>Node3</title>
<g id="a_Node000003"><a xlink:href="classRa_1_1Core_1_1Geometry_1_1deprecated_1_1TopologicalMesh.html#ad1785219f014d3ce5b8aedf7d40bbc99" target="_top" xlink:title=" ">
<polygon fill="white" stroke="#666666" points="364,-41 200,-41 200,0 364,0 364,-41"/>
<text text-anchor="start" x="208" y="-29" font-family="Helvetica,sans-Serif" font-size="10.00">Ra::Core::Geometry</text>
<text text-anchor="start" x="208" y="-18" font-family="Helvetica,sans-Serif" font-size="10.00">::deprecated::TopologicalMesh</text>
<text text-anchor="middle" x="282" y="-7" font-family="Helvetica,sans-Serif" font-size="10.00">::copyPropsFromFace</text>
</a>
</g>
</g>
<!-- Node1&#45;&gt;Node3 -->
<g id="edge2_Node000001_Node000003" class="edge">
<title>Node1&#45;&gt;Node3</title>
<g id="a_edge2_Node000001_Node000003"><a xlink:title=" ">
<path fill="none" stroke="#63b8ff" d="M164.11,-37.62C172.55,-36.38 181.17,-35.12 189.72,-33.87"/>
<polygon fill="#63b8ff" stroke="#63b8ff" points="190.31,-37.32 199.7,-32.41 189.3,-30.39 190.31,-37.32"/>
</a>
</g>
</g>
<!-- Node4 -->
<g id="Node000004" class="node">
<title>Node4</title>
<g id="a_Node000004"><a target="_blank" xlink:href="http://en.cppreference.com/w/cpp/container/vector/size.html#" xlink:title=" ">
<polygon fill="white" stroke="#666666" points="494,-30 400,-30 400,-11 494,-11 494,-30"/>
<text text-anchor="middle" x="447" y="-18" font-family="Helvetica,sans-Serif" font-size="10.00">std::vector::size</text>
</a>
</g>
</g>
<!-- Node3&#45;&gt;Node4 -->
<g id="edge3_Node000003_Node000004" class="edge">
<title>Node3&#45;&gt;Node4</title>
<g id="a_edge3_Node000003_Node000004"><a xlink:title=" ">
<path fill="none" stroke="#63b8ff" d="M364.02,-20.5C372.67,-20.5 381.33,-20.5 389.61,-20.5"/>
<polygon fill="#63b8ff" stroke="#63b8ff" points="389.86,-24 399.86,-20.5 389.86,-17 389.86,-24"/>
</a>
</g>
</g>
</g>
</svg>
