<?xml version="1.0" encoding="UTF-8" standalone="no"?>
<!DOCTYPE svg PUBLIC "-//W3C//DTD SVG 1.1//EN"
 "http://www.w3.org/Graphics/SVG/1.1/DTD/svg11.dtd">
<!-- Generated by graphviz version 2.43.0 (0)
 -->
<!-- Title: CLI::Formatter::make_group Pages: 1 -->
<!--zoomable 707 -->
<svg id="main" version="1.1" xmlns="http://www.w3.org/2000/svg" xmlns:xlink="http://www.w3.org/1999/xlink" xml:space="preserve" onload="init(evt)">
<style type="text/css"><![CDATA[
.edge:hover path { stroke: red; }
.edge:hover polygon { stroke: red; fill: red; }
]]></style>
<script type="text/javascript"><![CDATA[
var edges = document.getElementsByTagName('g');
if (edges && edges.length) {
  for (var i=0;i<edges.length;i++) {
    if (edges[i].id.substr(0,4)=='edge') {
      edges[i].setAttribute('class','edge');
    }
  }
}
]]></script>
        <defs>
                <circle id="rim" cx="0" cy="0" r="7"/>
                <circle id="rim2" cx="0" cy="0" r="3.5"/>
                <g id="zoomPlus">
                        <use xlink:href="#rim" fill="#404040">
                                <set attributeName="fill" to="#808080" begin="zoomplus.mouseover" end="zoomplus.mouseout"/>
                        </use>
                        <path d="M-4,0h8M0,-4v8" fill="none" stroke="white" stroke-width="1.5" pointer-events="none"/>
                </g>
                <g id="zoomMin">
                        <use xlink:href="#rim" fill="#404040">
                                <set attributeName="fill" to="#808080" begin="zoomminus.mouseover" end="zoomminus.mouseout"/>
                        </use>
                        <path d="M-4,0h8" fill="none" stroke="white" stroke-width="1.5" pointer-events="none"/>
                </g>
                <g id="dirArrow">
                        <path fill="none" stroke="white" stroke-width="1.5" d="M0,-3.0v7 M-2.5,-0.5L0,-3.0L2.5,-0.5"/>
                </g>
               <g id="resetDef">
                       <use xlink:href="#rim2" fill="#404040">
                               <set attributeName="fill" to="#808080" begin="reset.mouseover" end="reset.mouseout"/>
                       </use>
               </g>
        </defs>

<script type="text/javascript">
var viewWidth = 1312;
var viewHeight = 707;
var sectionId = 'dynsection-5';
</script>
<script xlink:href="svgpan.js"/>
<svg id="graph" class="graph">
<g id="viewport">
<title>CLI::Formatter::make_group</title>
<polygon fill="white" stroke="transparent" points="-4,4 -4,-703 1308,-703 1308,4 -4,4"/>
<!-- Node1 -->
<g id="node1" class="node">
<title>Node1</title>
<g id="a_node1"><a xlink:title=" ">
<polygon fill="#bfbfbf" stroke="black" points="0,-546.5 0,-576.5 119,-576.5 119,-546.5 0,-546.5"/>
<text text-anchor="start" x="8" y="-564.5" font-family="Helvetica,sans-Serif" font-size="10.00">CLI::Formatter::make</text>
<text text-anchor="middle" x="59.5" y="-553.5" font-family="Helvetica,sans-Serif" font-size="10.00">_group</text>
</a>
</g>
</g>
<!-- Node2 -->
<g id="node2" class="node">
<title>Node2</title>
<g id="a_node2"><a xlink:href="classCLI_1_1Formatter.html#a1503e498cef1cab66a01d84bac59b5d8" target="_top" xlink:title="This prints out an option help line, either positional or optional form.">
<polygon fill="white" stroke="black" points="155,-546.5 155,-576.5 274,-576.5 274,-546.5 155,-546.5"/>
<text text-anchor="start" x="163" y="-564.5" font-family="Helvetica,sans-Serif" font-size="10.00">CLI::Formatter::make</text>
<text text-anchor="middle" x="214.5" y="-553.5" font-family="Helvetica,sans-Serif" font-size="10.00">_option</text>
</a>
</g>
</g>
<!-- Node1&#45;&gt;Node2 -->
<g id="edge1" class="edge">
<title>Node1&#45;&gt;Node2</title>
<path fill="none" stroke="midnightblue" d="M119.22,-561.5C127.54,-561.5 136.17,-561.5 144.67,-561.5"/>
<polygon fill="midnightblue" stroke="midnightblue" points="144.94,-565 154.94,-561.5 144.94,-558 144.94,-565"/>
</g>
<!-- Node3 -->
<g id="node3" class="node">
<title>Node3</title>
<g id="a_node3"><a xlink:href="namespaceCLI_1_1detail.html#a569874f0c04636b7f0e63f40caf6e170" target="_top" xlink:title="Print a two part &quot;help&quot; string.">
<polygon fill="white" stroke="black" points="310,-621 310,-640 441,-640 441,-621 310,-621"/>
<text text-anchor="middle" x="375.5" y="-628" font-family="Helvetica,sans-Serif" font-size="10.00">CLI::detail::format_help</text>
</a>
</g>
</g>
<!-- Node2&#45;&gt;Node3 -->
<g id="edge2" class="edge">
<title>Node2&#45;&gt;Node3</title>
<path fill="none" stroke="midnightblue" d="M240.51,-576.5C259.18,-587.27 285.59,-601.56 310,-611.5 315.54,-613.76 321.45,-615.87 327.35,-617.81"/>
<polygon fill="midnightblue" stroke="midnightblue" points="326.64,-621.25 337.22,-620.9 328.73,-614.57 326.64,-621.25"/>
</g>
<!-- Node4 -->
<g id="node4" class="node">
<title>Node4</title>
<g id="a_node4"><a xlink:href="classCLI_1_1Formatter.html#acf6c56689b56533dad59f8e1ff71c7ce" target="_top" xlink:title="This is the description. Default: Right column, on new line if left column too large.">
<polygon fill="white" stroke="black" points="316,-571.5 316,-601.5 435,-601.5 435,-571.5 316,-571.5"/>
<text text-anchor="start" x="324" y="-589.5" font-family="Helvetica,sans-Serif" font-size="10.00">CLI::Formatter::make</text>
<text text-anchor="middle" x="375.5" y="-578.5" font-family="Helvetica,sans-Serif" font-size="10.00">_option_desc</text>
</a>
</g>
</g>
<!-- Node2&#45;&gt;Node4 -->
<g id="edge3" class="edge">
<title>Node2&#45;&gt;Node4</title>
<path fill="none" stroke="midnightblue" d="M274.25,-570.74C284.58,-572.36 295.4,-574.06 305.97,-575.72"/>
<polygon fill="midnightblue" stroke="midnightblue" points="305.57,-579.2 315.99,-577.3 306.65,-572.29 305.57,-579.2"/>
</g>
<!-- Node6 -->
<g id="node6" class="node">
<title>Node6</title>
<g id="a_node6"><a xlink:href="classCLI_1_1Formatter.html#ad29eb726bf961560f0c6419fd74332d0" target="_top" xlink:title="This is the name part of an option, Default: left column.">
<polygon fill="white" stroke="black" points="316,-522.5 316,-552.5 435,-552.5 435,-522.5 316,-522.5"/>
<text text-anchor="start" x="324" y="-540.5" font-family="Helvetica,sans-Serif" font-size="10.00">CLI::Formatter::make</text>
<text text-anchor="middle" x="375.5" y="-529.5" font-family="Helvetica,sans-Serif" font-size="10.00">_option_name</text>
</a>
</g>
</g>
<!-- Node2&#45;&gt;Node6 -->
<g id="edge5" class="edge">
<title>Node2&#45;&gt;Node6</title>
<path fill="none" stroke="midnightblue" d="M274.25,-552.63C284.58,-551.07 295.4,-549.44 305.97,-547.84"/>
<polygon fill="midnightblue" stroke="midnightblue" points="306.62,-551.29 315.99,-546.33 305.58,-544.36 306.62,-551.29"/>
</g>
<!-- Node22 -->
<g id="node22" class="node">
<title>Node22</title>
<g id="a_node22"><a xlink:href="classCLI_1_1Formatter.html#a9f11b9ee12c8ccb8bf9670be1b47a3b1" target="_top" xlink:title="This is the options part of the name, Default: combined into left column.">
<polygon fill="white" stroke="black" points="316,-246.5 316,-276.5 435,-276.5 435,-246.5 316,-246.5"/>
<text text-anchor="start" x="324" y="-264.5" font-family="Helvetica,sans-Serif" font-size="10.00">CLI::Formatter::make</text>
<text text-anchor="middle" x="375.5" y="-253.5" font-family="Helvetica,sans-Serif" font-size="10.00">_option_opts</text>
</a>
</g>
</g>
<!-- Node2&#45;&gt;Node22 -->
<g id="edge25" class="edge">
<title>Node2&#45;&gt;Node22</title>
<path fill="none" stroke="midnightblue" d="M223.6,-546.21C249.44,-497.46 330.02,-345.42 361.61,-285.82"/>
<polygon fill="midnightblue" stroke="midnightblue" points="364.82,-287.23 366.41,-276.76 358.64,-283.96 364.82,-287.23"/>
</g>
<!-- Node5 -->
<g id="node5" class="node">
<title>Node5</title>
<g id="a_node5"><a xlink:href="classCLI_1_1Option.html#ad79474a3c1cc8a73b12f80c6e31ee3af" target="_top" xlink:title="Get the description.">
<polygon fill="white" stroke="black" points="486,-577 486,-596 637,-596 637,-577 486,-577"/>
<text text-anchor="middle" x="561.5" y="-584" font-family="Helvetica,sans-Serif" font-size="10.00">CLI::Option::get_description</text>
</a>
</g>
</g>
<!-- Node4&#45;&gt;Node5 -->
<g id="edge4" class="edge">
<title>Node4&#45;&gt;Node5</title>
<path fill="none" stroke="midnightblue" d="M435.22,-586.5C448.05,-586.5 461.87,-586.5 475.48,-586.5"/>
<polygon fill="midnightblue" stroke="midnightblue" points="475.83,-590 485.83,-586.5 475.83,-583 475.83,-590"/>
</g>
<!-- Node7 -->
<g id="node7" class="node">
<title>Node7</title>
<g id="a_node7"><a xlink:href="classCLI_1_1Option.html#ab84751fbf9037efaed5b64fed17fe57f" target="_top" xlink:title="Gets a comma separated list of names. Will include / prefer the positional name if positional is true...">
<polygon fill="white" stroke="black" points="499,-534 499,-553 624,-553 624,-534 499,-534"/>
<text text-anchor="middle" x="561.5" y="-541" font-family="Helvetica,sans-Serif" font-size="10.00">CLI::Option::get_name</text>
</a>
</g>
</g>
<!-- Node6&#45;&gt;Node7 -->
<g id="edge6" class="edge">
<title>Node6&#45;&gt;Node7</title>
<path fill="none" stroke="midnightblue" d="M435.22,-539.41C452.19,-539.97 470.91,-540.58 488.58,-541.15"/>
<polygon fill="midnightblue" stroke="midnightblue" points="488.74,-544.66 498.85,-541.49 488.97,-537.67 488.74,-544.66"/>
</g>
<!-- Node8 -->
<g id="node8" class="node">
<title>Node8</title>
<g id="a_node8"><a xlink:href="classCLI_1_1Option.html#a4d2329268bae134aa58e704fa61f4b57" target="_top" xlink:title="Requires &quot;&#45;&#45;&quot; to be removed from string.">
<polygon fill="white" stroke="black" points="698.5,-616.5 698.5,-646.5 802.5,-646.5 802.5,-616.5 698.5,-616.5"/>
<text text-anchor="start" x="706.5" y="-634.5" font-family="Helvetica,sans-Serif" font-size="10.00">CLI::Option::check</text>
<text text-anchor="middle" x="750.5" y="-623.5" font-family="Helvetica,sans-Serif" font-size="10.00">_fname</text>
</a>
</g>
</g>
<!-- Node7&#45;&gt;Node8 -->
<g id="edge7" class="edge">
<title>Node7&#45;&gt;Node8</title>
<path fill="none" stroke="midnightblue" d="M612.51,-553.08C624.02,-556.57 635.86,-561.25 646,-567.5 666.08,-579.88 662.4,-593.38 682,-606.5 684.89,-608.44 687.95,-610.25 691.11,-611.94"/>
<polygon fill="midnightblue" stroke="midnightblue" points="689.69,-615.14 700.22,-616.38 692.77,-608.85 689.69,-615.14"/>
</g>
<!-- Node14 -->
<g id="node14" class="node">
<title>Node14</title>
<g id="a_node14"><a xlink:href="classCLI_1_1Option.html#af5677ee4a55c2a85784f64198db6b452" target="_top" xlink:title="True if the option was not passed.">
<polygon fill="white" stroke="black" points="697,-578 697,-597 804,-597 804,-578 697,-578"/>
<text text-anchor="middle" x="750.5" y="-585" font-family="Helvetica,sans-Serif" font-size="10.00">CLI::Option::empty</text>
</a>
</g>
</g>
<!-- Node7&#45;&gt;Node14 -->
<g id="edge15" class="edge">
<title>Node7&#45;&gt;Node14</title>
<path fill="none" stroke="midnightblue" d="M603.08,-553.05C631.26,-559.68 669,-568.56 699.11,-575.64"/>
<polygon fill="midnightblue" stroke="midnightblue" points="698.47,-579.09 709,-577.97 700.07,-572.27 698.47,-579.09"/>
</g>
<!-- Node15 -->
<g id="node15" class="node">
<title>Node15</title>
<g id="a_node15"><a xlink:href="classCLI_1_1Option.html#a4eb6212ac30a0b139da52d258a3a1790" target="_top" xlink:title=" ">
<polygon fill="white" stroke="black" points="693,-528.5 693,-558.5 808,-558.5 808,-528.5 693,-528.5"/>
<text text-anchor="start" x="701" y="-546.5" font-family="Helvetica,sans-Serif" font-size="10.00">CLI::Option::get_flag</text>
<text text-anchor="middle" x="750.5" y="-535.5" font-family="Helvetica,sans-Serif" font-size="10.00">_value</text>
</a>
</g>
</g>
<!-- Node7&#45;&gt;Node15 -->
<g id="edge16" class="edge">
<title>Node7&#45;&gt;Node15</title>
<path fill="none" stroke="midnightblue" d="M624.25,-543.5C643.01,-543.5 663.7,-543.5 682.77,-543.5"/>
<polygon fill="midnightblue" stroke="midnightblue" points="682.87,-547 692.87,-543.5 682.87,-540 682.87,-547"/>
</g>
<!-- Node18 -->
<g id="node18" class="node">
<title>Node18</title>
<g id="a_node18"><a xlink:href="classCLI_1_1OptionBase.html#a341e7df4c2693312609186f036dd923c" target="_top" xlink:title="Get the group of this option.">
<polygon fill="white" stroke="black" points="682,-479.5 682,-509.5 819,-509.5 819,-479.5 682,-479.5"/>
<text text-anchor="start" x="690" y="-497.5" font-family="Helvetica,sans-Serif" font-size="10.00">CLI::OptionBase&lt; Option</text>
<text text-anchor="middle" x="750.5" y="-486.5" font-family="Helvetica,sans-Serif" font-size="10.00"> &gt;::get_group</text>
</a>
</g>
</g>
<!-- Node7&#45;&gt;Node18 -->
<g id="edge21" class="edge">
<title>Node7&#45;&gt;Node18</title>
<path fill="none" stroke="midnightblue" d="M599,-533.94C622.67,-527.73 654.23,-519.46 682.34,-512.1"/>
<polygon fill="midnightblue" stroke="midnightblue" points="683.33,-515.46 692.11,-509.54 681.55,-508.69 683.33,-515.46"/>
</g>
<!-- Node19 -->
<g id="node19" class="node">
<title>Node19</title>
<g id="a_node19"><a xlink:href="classCLI_1_1Option.html#afe31a608506cbe75d40d6cced342be11" target="_top" xlink:title="The total min number of expected string values to be used.">
<polygon fill="white" stroke="black" points="688,-430.5 688,-460.5 813,-460.5 813,-430.5 688,-430.5"/>
<text text-anchor="start" x="696" y="-448.5" font-family="Helvetica,sans-Serif" font-size="10.00">CLI::Option::get_items</text>
<text text-anchor="middle" x="750.5" y="-437.5" font-family="Helvetica,sans-Serif" font-size="10.00">_expected</text>
</a>
</g>
</g>
<!-- Node7&#45;&gt;Node19 -->
<g id="edge22" class="edge">
<title>Node7&#45;&gt;Node19</title>
<path fill="none" stroke="midnightblue" d="M576.34,-533.81C598.11,-518.87 641.97,-489.91 682,-470.5 686.34,-468.4 690.9,-466.36 695.53,-464.41"/>
<polygon fill="midnightblue" stroke="midnightblue" points="697.09,-467.56 705.05,-460.56 694.47,-461.07 697.09,-467.56"/>
</g>
<!-- Node21 -->
<g id="node21" class="node">
<title>Node21</title>
<g id="a_node21"><a xlink:href="namespaceCLI_1_1detail.html#ab351f13ec104e2cba19ec6baf4a552f6" target="_top" xlink:title="Simple function to join a string.">
<polygon fill="white" stroke="black" points="706,-666 706,-685 795,-685 795,-666 706,-666"/>
<text text-anchor="middle" x="750.5" y="-673" font-family="Helvetica,sans-Serif" font-size="10.00">CLI::detail::join</text>
</a>
</g>
</g>
<!-- Node7&#45;&gt;Node21 -->
<g id="edge24" class="edge">
<title>Node7&#45;&gt;Node21</title>
<path fill="none" stroke="midnightblue" d="M621.28,-553.01C630.3,-556.46 638.94,-561.14 646,-567.5 677.71,-596.05 650.22,-628.03 682,-656.5 686.19,-660.26 691.08,-663.28 696.26,-665.7"/>
<polygon fill="midnightblue" stroke="midnightblue" points="695.25,-669.06 705.84,-669.46 697.8,-662.55 695.25,-669.06"/>
</g>
<!-- Node9 -->
<g id="node9" class="node">
<title>Node9</title>
<g id="a_node9"><a xlink:href="namespaceCLI_1_1detail.html#a356b9c9cc904af2b0a918fd55e86cd9c" target="_top" xlink:title=" ">
<polygon fill="white" stroke="black" points="855,-620 855,-639 991,-639 991,-620 855,-620"/>
<text text-anchor="middle" x="923" y="-627" font-family="Helvetica,sans-Serif" font-size="10.00">CLI::detail::find_member</text>
</a>
</g>
</g>
<!-- Node8&#45;&gt;Node9 -->
<g id="edge8" class="edge">
<title>Node8&#45;&gt;Node9</title>
<path fill="none" stroke="midnightblue" d="M802.66,-630.9C815.84,-630.75 830.32,-630.58 844.51,-630.41"/>
<polygon fill="midnightblue" stroke="midnightblue" points="844.82,-633.91 854.78,-630.29 844.74,-626.91 844.82,-633.91"/>
</g>
<!-- Node10 -->
<g id="node10" class="node">
<title>Node10</title>
<g id="a_node10"><a xlink:href="namespaceCLI.html#a0c52326d2681814c22aa1a93ce43375e" target="_top" xlink:title="Helper function to allow ignore_case to be passed to IsMember or Transform.">
<polygon fill="white" stroke="black" points="1043,-617 1043,-636 1139,-636 1139,-617 1043,-617"/>
<text text-anchor="middle" x="1091" y="-624" font-family="Helvetica,sans-Serif" font-size="10.00">CLI::ignore_case</text>
</a>
</g>
</g>
<!-- Node9&#45;&gt;Node10 -->
<g id="edge9" class="edge">
<title>Node9&#45;&gt;Node10</title>
<path fill="none" stroke="midnightblue" d="M991.04,-628.29C1004.81,-628.04 1019.18,-627.78 1032.58,-627.54"/>
<polygon fill="midnightblue" stroke="midnightblue" points="1032.66,-631.04 1042.6,-627.36 1032.54,-624.04 1032.66,-631.04"/>
</g>
<!-- Node11 -->
<g id="node11" class="node">
<title>Node11</title>
<g id="a_node11"><a xlink:href="namespaceCLI_1_1detail.html#ae83709ec148057ec53df4383645727e9" target="_top" xlink:title="Return a lower case version of a string.">
<polygon fill="white" stroke="black" points="1191,-579 1191,-598 1304,-598 1304,-579 1191,-579"/>
<text text-anchor="middle" x="1247.5" y="-586" font-family="Helvetica,sans-Serif" font-size="10.00">CLI::detail::to_lower</text>
</a>
</g>
</g>
<!-- Node9&#45;&gt;Node11 -->
<g id="edge14" class="edge">
<title>Node9&#45;&gt;Node11</title>
<path fill="none" stroke="midnightblue" d="M962.92,-619.99C982.11,-615.61 1005.66,-610.69 1027,-607.5 1078.31,-599.83 1136.86,-594.95 1180.58,-592.06"/>
<polygon fill="midnightblue" stroke="midnightblue" points="1181.04,-595.54 1190.8,-591.41 1180.59,-588.56 1181.04,-595.54"/>
</g>
<!-- Node12 -->
<g id="node12" class="node">
<title>Node12</title>
<g id="a_node12"><a xlink:href="namespaceCLI.html#a111b6f05d21b9b84e7ba933ade79884c" target="_top" xlink:title="Helper function to allow ignore_underscore to be passed to IsMember or Transform.">
<polygon fill="white" stroke="black" points="1027,-655 1027,-674 1155,-674 1155,-655 1027,-655"/>
<text text-anchor="middle" x="1091" y="-662" font-family="Helvetica,sans-Serif" font-size="10.00">CLI::ignore_underscore</text>
</a>
</g>
</g>
<!-- Node9&#45;&gt;Node12 -->
<g id="edge11" class="edge">
<title>Node9&#45;&gt;Node12</title>
<path fill="none" stroke="midnightblue" d="M969.36,-639.06C989.58,-643.33 1013.58,-648.39 1034.83,-652.87"/>
<polygon fill="midnightblue" stroke="midnightblue" points="1034.19,-656.31 1044.69,-654.95 1035.63,-649.46 1034.19,-656.31"/>
</g>
<!-- Node13 -->
<g id="node13" class="node">
<title>Node13</title>
<g id="a_node13"><a xlink:href="namespaceCLI_1_1detail.html#a5359a7a0e33366a12e15523b100f591a" target="_top" xlink:title="remove underscores from a string">
<polygon fill="white" stroke="black" points="1193,-668.5 1193,-698.5 1302,-698.5 1302,-668.5 1193,-668.5"/>
<text text-anchor="start" x="1201" y="-686.5" font-family="Helvetica,sans-Serif" font-size="10.00">CLI::detail::remove</text>
<text text-anchor="middle" x="1247.5" y="-675.5" font-family="Helvetica,sans-Serif" font-size="10.00">_underscore</text>
</a>
</g>
</g>
<!-- Node9&#45;&gt;Node13 -->
<g id="edge13" class="edge">
<title>Node9&#45;&gt;Node13</title>
<path fill="none" stroke="midnightblue" d="M937.14,-639.09C955.94,-652.16 992.1,-674.91 1027,-683.5 1078.32,-696.14 1138.46,-695.08 1182.8,-691.46"/>
<polygon fill="midnightblue" stroke="midnightblue" points="1183.21,-694.94 1192.86,-690.57 1182.59,-687.96 1183.21,-694.94"/>
</g>
<!-- Node10&#45;&gt;Node11 -->
<g id="edge10" class="edge">
<title>Node10&#45;&gt;Node11</title>
<path fill="none" stroke="midnightblue" d="M1130.99,-616.91C1151.28,-611.92 1176.29,-605.77 1197.85,-600.47"/>
<polygon fill="midnightblue" stroke="midnightblue" points="1198.92,-603.81 1207.79,-598.02 1197.25,-597.01 1198.92,-603.81"/>
</g>
<!-- Node12&#45;&gt;Node13 -->
<g id="edge12" class="edge">
<title>Node12&#45;&gt;Node13</title>
<path fill="none" stroke="midnightblue" d="M1155.29,-672.28C1164.37,-673.4 1173.72,-674.55 1182.81,-675.67"/>
<polygon fill="midnightblue" stroke="midnightblue" points="1182.58,-679.17 1192.93,-676.91 1183.43,-672.22 1182.58,-679.17"/>
</g>
<!-- Node15&#45;&gt;Node9 -->
<g id="edge17" class="edge">
<title>Node15&#45;&gt;Node9</title>
<path fill="none" stroke="midnightblue" d="M795.55,-558.51C803.46,-561.57 811.55,-564.95 819,-568.5 847.63,-582.15 878.74,-601.2 899.19,-614.37"/>
<polygon fill="midnightblue" stroke="midnightblue" points="897.49,-617.44 907.78,-619.96 901.31,-611.57 897.49,-617.44"/>
</g>
<!-- Node16 -->
<g id="node16" class="node">
<title>Node16</title>
<g id="a_node16"><a xlink:href="namespaceCLI_1_1detail.html#af45abf683b881127298aa28b3c4e6cf5" target="_top" xlink:title="Convert a flag into an integer value typically binary flags.">
<polygon fill="white" stroke="black" points="1039,-529.5 1039,-559.5 1143,-559.5 1143,-529.5 1039,-529.5"/>
<text text-anchor="start" x="1047" y="-547.5" font-family="Helvetica,sans-Serif" font-size="10.00">CLI::detail::to_flag</text>
<text text-anchor="middle" x="1091" y="-536.5" font-family="Helvetica,sans-Serif" font-size="10.00">_value</text>
</a>
</g>
</g>
<!-- Node15&#45;&gt;Node16 -->
<g id="edge18" class="edge">
<title>Node15&#45;&gt;Node16</title>
<path fill="none" stroke="midnightblue" d="M808.16,-543.67C869.22,-543.85 966.07,-544.13 1028.83,-544.32"/>
<polygon fill="midnightblue" stroke="midnightblue" points="1028.97,-547.82 1038.98,-544.35 1028.99,-540.82 1028.97,-547.82"/>
</g>
<!-- Node17 -->
<g id="node17" class="node">
<title>Node17</title>
<g id="a_node17"><a xlink:href="namespaceCLI_1_1detail.html#a0e94052d485636fc9f18c21009026577" target="_top" xlink:title="Convert an object to a string (directly forward if this can become a string)">
<polygon fill="white" stroke="black" points="866,-497 866,-516 980,-516 980,-497 866,-497"/>
<text text-anchor="middle" x="923" y="-504" font-family="Helvetica,sans-Serif" font-size="10.00">CLI::detail::to_string</text>
</a>
</g>
</g>
<!-- Node15&#45;&gt;Node17 -->
<g id="edge20" class="edge">
<title>Node15&#45;&gt;Node17</title>
<path fill="none" stroke="midnightblue" d="M808.27,-531.18C827.57,-526.99 849.07,-522.33 868.13,-518.19"/>
<polygon fill="midnightblue" stroke="midnightblue" points="869.12,-521.56 878.15,-516.02 867.63,-514.72 869.12,-521.56"/>
</g>
<!-- Node16&#45;&gt;Node11 -->
<g id="edge19" class="edge">
<title>Node16&#45;&gt;Node11</title>
<path fill="none" stroke="midnightblue" d="M1143.02,-559.03C1162.54,-564.59 1184.59,-570.87 1203.31,-576.2"/>
<polygon fill="midnightblue" stroke="midnightblue" points="1202.47,-579.6 1213.05,-578.97 1204.39,-572.87 1202.47,-579.6"/>
</g>
<!-- Node20 -->
<g id="node20" class="node">
<title>Node20</title>
<g id="a_node20"><a xlink:href="classCLI_1_1Option.html#af87dffed2cb245673312c993e563710e" target="_top" xlink:title="The total min number of expected string values to be used.">
<polygon fill="white" stroke="black" points="860.5,-430.5 860.5,-460.5 985.5,-460.5 985.5,-430.5 860.5,-430.5"/>
<text text-anchor="start" x="868.5" y="-448.5" font-family="Helvetica,sans-Serif" font-size="10.00">CLI::Option::get_items</text>
<text text-anchor="middle" x="923" y="-437.5" font-family="Helvetica,sans-Serif" font-size="10.00">_expected_min</text>
</a>
</g>
</g>
<!-- Node19&#45;&gt;Node20 -->
<g id="edge23" class="edge">
<title>Node19&#45;&gt;Node20</title>
<path fill="none" stroke="midnightblue" d="M813.05,-445.5C825.05,-445.5 837.73,-445.5 850.03,-445.5"/>
<polygon fill="midnightblue" stroke="midnightblue" points="850.25,-449 860.25,-445.5 850.25,-442 850.25,-449"/>
</g>
<!-- Node23 -->
<g id="node23" class="node">
<title>Node23</title>
<g id="a_node23"><a xlink:href="classCLI_1_1Option.html#a3b8410c5366dbbb6781b37d963677101" target="_top" xlink:title="The default value (for help printing)">
<polygon fill="white" stroke="black" points="487,-366 487,-385 636,-385 636,-366 487,-366"/>
<text text-anchor="middle" x="561.5" y="-373" font-family="Helvetica,sans-Serif" font-size="10.00">CLI::Option::get_default_str</text>
</a>
</g>
</g>
<!-- Node22&#45;&gt;Node23 -->
<g id="edge26" class="edge">
<title>Node22&#45;&gt;Node23</title>
<path fill="none" stroke="midnightblue" d="M388.02,-276.62C405.06,-297.88 439.09,-336.25 477,-356.5 481.28,-358.79 485.83,-360.8 490.51,-362.57"/>
<polygon fill="midnightblue" stroke="midnightblue" points="489.65,-365.98 500.25,-365.88 491.9,-359.35 489.65,-365.98"/>
</g>
<!-- Node24 -->
<g id="node24" class="node">
<title>Node24</title>
<g id="a_node24"><a xlink:href="classCLI_1_1Option.html#a9657b97545e51cdcda8efd61d13b5ab3" target="_top" xlink:title="The environment variable associated to this value.">
<polygon fill="white" stroke="black" points="490,-328 490,-347 633,-347 633,-328 490,-328"/>
<text text-anchor="middle" x="561.5" y="-335" font-family="Helvetica,sans-Serif" font-size="10.00">CLI::Option::get_envname</text>
</a>
</g>
</g>
<!-- Node22&#45;&gt;Node24 -->
<g id="edge27" class="edge">
<title>Node22&#45;&gt;Node24</title>
<path fill="none" stroke="midnightblue" d="M398.71,-276.62C418.47,-289.45 448.57,-307.48 477,-318.5 483.67,-321.09 490.78,-323.37 497.94,-325.38"/>
<polygon fill="midnightblue" stroke="midnightblue" points="497.12,-328.78 507.68,-327.94 498.9,-322.01 497.12,-328.78"/>
</g>
<!-- Node25 -->
<g id="node25" class="node">
<title>Node25</title>
<g id="a_node25"><a xlink:href="classCLI_1_1Option.html#a55c138802ceafe3a9f2a28bf3317029f" target="_top" xlink:title="The set of options excluded.">
<polygon fill="white" stroke="black" points="491.5,-290 491.5,-309 631.5,-309 631.5,-290 491.5,-290"/>
<text text-anchor="middle" x="561.5" y="-297" font-family="Helvetica,sans-Serif" font-size="10.00">CLI::Option::get_excludes</text>
</a>
</g>
</g>
<!-- Node22&#45;&gt;Node25 -->
<g id="edge28" class="edge">
<title>Node22&#45;&gt;Node25</title>
<path fill="none" stroke="midnightblue" d="M435.22,-273.63C457.39,-278.21 482.53,-283.4 504.44,-287.92"/>
<polygon fill="midnightblue" stroke="midnightblue" points="503.76,-291.36 514.26,-289.95 505.17,-284.5 503.76,-291.36"/>
</g>
<!-- Node26 -->
<g id="node26" class="node">
<title>Node26</title>
<g id="a_node26"><a xlink:href="classCLI_1_1Option.html#a307543e6e4ddeb6e4ea00438b5b10be3" target="_top" xlink:title="The number of times the option expects to be included.">
<polygon fill="white" stroke="black" points="490.5,-252 490.5,-271 632.5,-271 632.5,-252 490.5,-252"/>
<text text-anchor="middle" x="561.5" y="-259" font-family="Helvetica,sans-Serif" font-size="10.00">CLI::Option::get_expected</text>
</a>
</g>
</g>
<!-- Node22&#45;&gt;Node26 -->
<g id="edge29" class="edge">
<title>Node22&#45;&gt;Node26</title>
<path fill="none" stroke="midnightblue" d="M435.22,-261.5C449.5,-261.5 465,-261.5 480.08,-261.5"/>
<polygon fill="midnightblue" stroke="midnightblue" points="480.44,-265 490.44,-261.5 480.44,-258 480.44,-265"/>
</g>
<!-- Node27 -->
<g id="node27" class="node">
<title>Node27</title>
<g id="a_node27"><a xlink:href="classCLI_1_1Option.html#a21133f27201fa12203567cf0ee40c9c5" target="_top" xlink:title="The max number of times the option expects to be included.">
<polygon fill="white" stroke="black" points="477,-214 477,-233 646,-233 646,-214 477,-214"/>
<text text-anchor="middle" x="561.5" y="-221" font-family="Helvetica,sans-Serif" font-size="10.00">CLI::Option::get_expected_max</text>
</a>
</g>
</g>
<!-- Node22&#45;&gt;Node27 -->
<g id="edge30" class="edge">
<title>Node22&#45;&gt;Node27</title>
<path fill="none" stroke="midnightblue" d="M435.22,-249.37C457.39,-244.79 482.53,-239.6 504.44,-235.08"/>
<polygon fill="midnightblue" stroke="midnightblue" points="505.17,-238.5 514.26,-233.05 503.76,-231.64 505.17,-238.5"/>
</g>
<!-- Node28 -->
<g id="node28" class="node">
<title>Node28</title>
<g id="a_node28"><a xlink:href="classCLI_1_1Option.html#a19c64a02c22d968e834c2aaf13f98f62" target="_top" xlink:title="The number of times the option expects to be included.">
<polygon fill="white" stroke="black" points="478.5,-176 478.5,-195 644.5,-195 644.5,-176 478.5,-176"/>
<text text-anchor="middle" x="561.5" y="-183" font-family="Helvetica,sans-Serif" font-size="10.00">CLI::Option::get_expected_min</text>
</a>
</g>
</g>
<!-- Node22&#45;&gt;Node28 -->
<g id="edge31" class="edge">
<title>Node22&#45;&gt;Node28</title>
<path fill="none" stroke="midnightblue" d="M398.71,-246.38C418.47,-233.55 448.57,-215.52 477,-204.5 483.67,-201.91 490.78,-199.63 497.94,-197.62"/>
<polygon fill="midnightblue" stroke="midnightblue" points="498.9,-200.99 507.68,-195.06 497.12,-194.22 498.9,-200.99"/>
</g>
<!-- Node29 -->
<g id="node29" class="node">
<title>Node29</title>
<g id="a_node29"><a xlink:href="classCLI_1_1FormatterBase.html#a7e8f9d7896c599f7befd84a9947d4cab" target="_top" xlink:title="Get the current value of a name (REQUIRED, etc.)">
<polygon fill="white" stroke="black" points="506.5,-126.5 506.5,-156.5 616.5,-156.5 616.5,-126.5 506.5,-126.5"/>
<text text-anchor="start" x="514.5" y="-144.5" font-family="Helvetica,sans-Serif" font-size="10.00">CLI::FormatterBase</text>
<text text-anchor="middle" x="561.5" y="-133.5" font-family="Helvetica,sans-Serif" font-size="10.00">::get_label</text>
</a>
</g>
</g>
<!-- Node22&#45;&gt;Node29 -->
<g id="edge32" class="edge">
<title>Node22&#45;&gt;Node29</title>
<path fill="none" stroke="midnightblue" d="M388.5,-246.37C405.87,-225.46 440,-187.89 477,-166.5 483.21,-162.91 489.99,-159.79 496.91,-157.09"/>
<polygon fill="midnightblue" stroke="midnightblue" points="498.18,-160.35 506.4,-153.67 495.8,-153.77 498.18,-160.35"/>
</g>
<!-- Node30 -->
<g id="node30" class="node">
<title>Node30</title>
<g id="a_node30"><a xlink:href="classCLI_1_1Option.html#a3e5422f3f77257408337fdd3d13d2472" target="_top" xlink:title="The set of options needed.">
<polygon fill="white" stroke="black" points="498.5,-88 498.5,-107 624.5,-107 624.5,-88 498.5,-88"/>
<text text-anchor="middle" x="561.5" y="-95" font-family="Helvetica,sans-Serif" font-size="10.00">CLI::Option::get_needs</text>
</a>
</g>
</g>
<!-- Node22&#45;&gt;Node30 -->
<g id="edge33" class="edge">
<title>Node22&#45;&gt;Node30</title>
<path fill="none" stroke="midnightblue" d="M382.47,-246.42C395.1,-216.57 427.51,-149.94 477,-116.5 480.7,-114 484.69,-111.82 488.84,-109.93"/>
<polygon fill="midnightblue" stroke="midnightblue" points="490.15,-113.17 498.14,-106.22 487.55,-106.67 490.15,-113.17"/>
</g>
<!-- Node31 -->
<g id="node31" class="node">
<title>Node31</title>
<g id="a_node31"><a xlink:href="classCLI_1_1Option.html#acdba5c0a8eb5d6b7af629f6e810709c5" target="_top" xlink:title=" ">
<polygon fill="white" stroke="black" points="485.5,-50 485.5,-69 637.5,-69 637.5,-50 485.5,-50"/>
<text text-anchor="middle" x="561.5" y="-57" font-family="Helvetica,sans-Serif" font-size="10.00">CLI::Option::get_option_text</text>
</a>
</g>
</g>
<!-- Node22&#45;&gt;Node31 -->
<g id="edge34" class="edge">
<title>Node22&#45;&gt;Node31</title>
<path fill="none" stroke="midnightblue" d="M380.23,-246.39C389.76,-211.04 418.54,-122.59 477,-78.5 479.47,-76.64 482.09,-74.95 484.83,-73.42"/>
<polygon fill="midnightblue" stroke="midnightblue" points="486.38,-76.56 493.88,-69.08 483.35,-70.25 486.38,-76.56"/>
</g>
<!-- Node32 -->
<g id="node32" class="node">
<title>Node32</title>
<g id="a_node32"><a xlink:href="classCLI_1_1OptionBase.html#aa902dee6da6d7f5b083b1c7d5f9c1308" target="_top" xlink:title="True if this is a required option.">
<polygon fill="white" stroke="black" points="503.5,-0.5 503.5,-30.5 619.5,-30.5 619.5,-0.5 503.5,-0.5"/>
<text text-anchor="start" x="511.5" y="-18.5" font-family="Helvetica,sans-Serif" font-size="10.00">CLI::OptionBase::get</text>
<text text-anchor="middle" x="561.5" y="-7.5" font-family="Helvetica,sans-Serif" font-size="10.00">_required</text>
</a>
</g>
</g>
<!-- Node22&#45;&gt;Node32 -->
<g id="edge35" class="edge">
<title>Node22&#45;&gt;Node32</title>
<path fill="none" stroke="midnightblue" d="M378.96,-246.33C386.25,-206.43 411.42,-97.72 477,-40.5 482.06,-36.09 487.87,-32.45 494.02,-29.46"/>
<polygon fill="midnightblue" stroke="midnightblue" points="495.41,-32.67 503.22,-25.52 492.65,-26.24 495.41,-32.67"/>
</g>
<!-- Node33 -->
<g id="node33" class="node">
<title>Node33</title>
<g id="a_node33"><a xlink:href="classCLI_1_1Option.html#a8b8425827ceb852c3cc3f44b9b1c26a4" target="_top" xlink:title="Get the full typename for this option.">
<polygon fill="white" stroke="black" points="485.5,-442 485.5,-461 637.5,-461 637.5,-442 485.5,-442"/>
<text text-anchor="middle" x="561.5" y="-449" font-family="Helvetica,sans-Serif" font-size="10.00">CLI::Option::get_type_name</text>
</a>
</g>
</g>
<!-- Node22&#45;&gt;Node33 -->
<g id="edge36" class="edge">
<title>Node22&#45;&gt;Node33</title>
<path fill="none" stroke="midnightblue" d="M380.84,-276.63C391.34,-310.34 421.42,-391.84 477,-432.5 479.56,-434.37 482.27,-436.06 485.09,-437.59"/>
<polygon fill="midnightblue" stroke="midnightblue" points="483.87,-440.88 494.41,-441.94 486.83,-434.54 483.87,-440.88"/>
</g>
<!-- Node35 -->
<g id="node35" class="node">
<title>Node35</title>
<g id="a_node35"><a xlink:href="classCLI_1_1Option.html#a88f36e42c1afcf1d4887230cc133f1fa" target="_top" xlink:title="The number of arguments the option expects.">
<polygon fill="white" stroke="black" points="490,-404 490,-423 633,-423 633,-404 490,-404"/>
<text text-anchor="middle" x="561.5" y="-411" font-family="Helvetica,sans-Serif" font-size="10.00">CLI::Option::get_type_size</text>
</a>
</g>
</g>
<!-- Node22&#45;&gt;Node35 -->
<g id="edge38" class="edge">
<title>Node22&#45;&gt;Node35</title>
<path fill="none" stroke="midnightblue" d="M383.45,-276.63C397.13,-304.61 430.33,-364.34 477,-394.5 480.18,-396.56 483.56,-398.39 487.06,-400.03"/>
<polygon fill="midnightblue" stroke="midnightblue" points="486,-403.38 496.58,-403.92 488.65,-396.9 486,-403.38"/>
</g>
<!-- Node34 -->
<g id="node34" class="node">
<title>Node34</title>
<g id="a_node34"><a xlink:href="classCLI_1_1Validator.html#a77c9d0a1f496ccaa4a8ef293a41bca78" target="_top" xlink:title="Generate type description information for the Validator.">
<polygon fill="white" stroke="black" points="699,-381.5 699,-411.5 802,-411.5 802,-381.5 699,-381.5"/>
<text text-anchor="start" x="707" y="-399.5" font-family="Helvetica,sans-Serif" font-size="10.00">CLI::Validator::get</text>
<text text-anchor="middle" x="750.5" y="-388.5" font-family="Helvetica,sans-Serif" font-size="10.00">_description</text>
</a>
</g>
</g>
<!-- Node33&#45;&gt;Node34 -->
<g id="edge37" class="edge">
<title>Node33&#45;&gt;Node34</title>
<path fill="none" stroke="midnightblue" d="M608.67,-441.96C620.88,-439.17 634,-435.94 646,-432.5 663.73,-427.42 682.88,-421.02 699.83,-415.03"/>
<polygon fill="midnightblue" stroke="midnightblue" points="701.29,-418.23 709.53,-411.57 698.93,-411.63 701.29,-418.23"/>
</g>
</g>
</svg>
        <g id="navigator" transform="translate(0 0)" fill="#404254">
                <rect fill="#f2f5e9" fill-opacity="0.5" stroke="#606060" stroke-width=".5" x="0" y="0" width="60" height="60"/>
                <use id="zoomplus" xlink:href="#zoomPlus" x="17" y="9" onmousedown="handleZoom(evt,'in')"/>
                <use id="zoomminus" xlink:href="#zoomMin" x="42" y="9" onmousedown="handleZoom(evt,'out')"/>
                <use id="reset" xlink:href="#resetDef" x="30" y="36" onmousedown="handleReset()"/>
                <g id="arrowUp" xlink:href="#dirArrow" transform="translate(30 24)" onmousedown="handlePan(0,-1)">
                  <use xlink:href="#rim" fill="#404040">
                        <set attributeName="fill" to="#808080" begin="arrowUp.mouseover" end="arrowUp.mouseout"/>
                  </use>
                  <path fill="none" stroke="white" stroke-width="1.5" d="M0,-3.0v7 M-2.5,-0.5L0,-3.0L2.5,-0.5"/>
                </g>
                <g id="arrowRight" xlink:href="#dirArrow" transform="rotate(90) translate(36 -43)" onmousedown="handlePan(1,0)">
                  <use xlink:href="#rim" fill="#404040">
                        <set attributeName="fill" to="#808080" begin="arrowRight.mouseover" end="arrowRight.mouseout"/>
                  </use>
                  <path fill="none" stroke="white" stroke-width="1.5" d="M0,-3.0v7 M-2.5,-0.5L0,-3.0L2.5,-0.5"/>
                </g>
                <g id="arrowDown" xlink:href="#dirArrow" transform="rotate(180) translate(-30 -48)" onmousedown="handlePan(0,1)">
                  <use xlink:href="#rim" fill="#404040">
                        <set attributeName="fill" to="#808080" begin="arrowDown.mouseover" end="arrowDown.mouseout"/>
                  </use>
                  <path fill="none" stroke="white" stroke-width="1.5" d="M0,-3.0v7 M-2.5,-0.5L0,-3.0L2.5,-0.5"/>
                </g>
                <g id="arrowLeft" xlink:href="#dirArrow" transform="rotate(270) translate(-36 17)" onmousedown="handlePan(-1,0)">
                  <use xlink:href="#rim" fill="#404040">
                        <set attributeName="fill" to="#808080" begin="arrowLeft.mouseover" end="arrowLeft.mouseout"/>
                  </use>
                  <path fill="none" stroke="white" stroke-width="1.5" d="M0,-3.0v7 M-2.5,-0.5L0,-3.0L2.5,-0.5"/>
                </g>
        </g>
        <svg viewBox="0 0 15 15" width="100%" height="30px" preserveAspectRatio="xMaxYMin meet">
         <g id="arrow_out" transform="scale(0.3 0.3)">
          <a xlink:href="classCLI_1_1Formatter_aebbdf79e2615ea7d16fe8f30fb6551fc_cgraph_org.svg" target="_base">
           <rect id="button" ry="5" rx="5" y="6" x="6" height="38" width="38"
                fill="#f2f5e9" fill-opacity="0.5" stroke="#606060" stroke-width="1.0"/>
           <path id="arrow"
             d="M 11.500037,31.436501 C 11.940474,20.09759 22.043105,11.32322 32.158766,21.979434 L 37.068811,17.246167 C 37.068811,17.246167 37.088388,32 37.088388,32 L 22.160133,31.978069 C 22.160133,31.978069 26.997745,27.140456 26.997745,27.140456 C 18.528582,18.264221 13.291696,25.230495 11.500037,31.436501 z"
             style="fill:#404040;"/>
          </a>
         </g>
        </svg>
</svg>
