<?xml version="1.0" encoding="UTF-8" standalone="no"?>
<!DOCTYPE svg PUBLIC "-//W3C//DTD SVG 1.1//EN"
 "http://www.w3.org/Graphics/SVG/1.1/DTD/svg11.dtd">
<!-- Generated by graphviz version 2.43.0 (0)
 -->
<!-- Title: Ra::Gui::Viewer::initializeGL Pages: 1 -->
<svg width="1226pt" height="457pt"
 viewBox="0.00 0.00 1226.00 456.77" xmlns="http://www.w3.org/2000/svg" xmlns:xlink="http://www.w3.org/1999/xlink">
<g id="graph0" class="graph" transform="scale(1 1) rotate(0) translate(4 452.77)">
<title>Ra::Gui::Viewer::initializeGL</title>
<polygon fill="white" stroke="transparent" points="-4,4 -4,-452.77 1222,-452.77 1222,4 -4,4"/>
<!-- Node1 -->
<g id="node1" class="node">
<title>Node1</title>
<g id="a_node1"><a xlink:title=" ">
<polygon fill="#bfbfbf" stroke="black" points="0,-233.77 0,-252.77 152,-252.77 152,-233.77 0,-233.77"/>
<text text-anchor="middle" x="76" y="-240.77" font-family="Helvetica,sans-Serif" font-size="10.00">Ra::Gui::Viewer::initializeGL</text>
</a>
</g>
</g>
<!-- Node2 -->
<g id="node2" class="node">
<title>Node2</title>
<g id="a_node2"><a xlink:href="classRa_1_1Engine_1_1Scene_1_1CameraManager.html#ab6a209302a0b0ab56956d113e0eff19e" target="_top" xlink:title="get a ref to active camera observers to add/remove an observer">
<polygon fill="white" stroke="black" points="190.5,-328.77 190.5,-369.77 362.5,-369.77 362.5,-328.77 190.5,-328.77"/>
<text text-anchor="start" x="198.5" y="-357.77" font-family="Helvetica,sans-Serif" font-size="10.00">Ra::Engine::Scene::</text>
<text text-anchor="start" x="198.5" y="-346.77" font-family="Helvetica,sans-Serif" font-size="10.00">CameraManager::activeCamera</text>
<text text-anchor="middle" x="276.5" y="-335.77" font-family="Helvetica,sans-Serif" font-size="10.00">Observers</text>
</a>
</g>
</g>
<!-- Node1&#45;&gt;Node2 -->
<g id="edge1" class="edge">
<title>Node1&#45;&gt;Node2</title>
<path fill="none" stroke="midnightblue" d="M90.18,-252.87C110.49,-267.38 150.97,-295.24 188,-314.27 194.96,-317.84 202.37,-321.31 209.82,-324.57"/>
<polygon fill="midnightblue" stroke="midnightblue" points="208.68,-327.89 219.25,-328.59 211.43,-321.45 208.68,-327.89"/>
</g>
<!-- Node3 -->
<g id="node3" class="node">
<title>Node3</title>
<g id="a_node3"><a xlink:href="classRa_1_1Gui_1_1Viewer.html#a5a23e360fb4500aeea04e83e2a5c8f36" target="_top" xlink:title=" ">
<polygon fill="white" stroke="black" points="196.5,-252.77 196.5,-271.77 356.5,-271.77 356.5,-252.77 196.5,-252.77"/>
<text text-anchor="middle" x="276.5" y="-259.77" font-family="Helvetica,sans-Serif" font-size="10.00">Ra::Gui::Viewer::addRenderer</text>
</a>
</g>
</g>
<!-- Node1&#45;&gt;Node3 -->
<g id="edge2" class="edge">
<title>Node1&#45;&gt;Node3</title>
<path fill="none" stroke="midnightblue" d="M152.04,-250.45C163.25,-251.52 174.9,-252.64 186.37,-253.74"/>
<polygon fill="midnightblue" stroke="midnightblue" points="186.09,-257.23 196.38,-254.7 186.76,-250.26 186.09,-257.23"/>
</g>
<!-- Node5 -->
<g id="node5" class="node">
<title>Node5</title>
<g id="a_node5"><a xlink:href="classRa_1_1Gui_1_1Viewer.html#a14a1ad5406cca6655fd9ed6e296bf8e3" target="_top" xlink:title="Initialize renderer internal state + configure lights.">
<polygon fill="white" stroke="black" points="430,-345.27 430,-375.27 570,-375.27 570,-345.27 430,-345.27"/>
<text text-anchor="start" x="438" y="-363.27" font-family="Helvetica,sans-Serif" font-size="10.00">Ra::Gui::Viewer::initialize</text>
<text text-anchor="middle" x="500" y="-352.27" font-family="Helvetica,sans-Serif" font-size="10.00">Renderer</text>
</a>
</g>
</g>
<!-- Node1&#45;&gt;Node5 -->
<g id="edge25" class="edge">
<title>Node1&#45;&gt;Node5</title>
<path fill="none" stroke="midnightblue" d="M102.3,-252.89C124.63,-261.15 158.17,-272.99 188,-281.27 265.53,-302.78 288.79,-293.48 365,-319.27 381.76,-324.94 384.32,-330.36 401,-336.27 407.21,-338.47 413.71,-340.54 420.29,-342.48"/>
<polygon fill="midnightblue" stroke="midnightblue" points="419.37,-345.86 429.95,-345.21 421.28,-339.12 419.37,-345.86"/>
</g>
<!-- Node16 -->
<g id="node16" class="node">
<title>Node16</title>
<g id="a_node16"><a xlink:href="classRa_1_1Core_1_1Utils_1_1Observable.html#a4851931d5bedb5e17121a0ff806a9f6d" target="_top" xlink:title=" ">
<polygon fill="white" stroke="black" points="202.5,-162.27 202.5,-192.27 350.5,-192.27 350.5,-162.27 202.5,-162.27"/>
<text text-anchor="start" x="210.5" y="-180.27" font-family="Helvetica,sans-Serif" font-size="10.00">Ra::Core::Utils::Observable</text>
<text text-anchor="middle" x="276.5" y="-169.27" font-family="Helvetica,sans-Serif" font-size="10.00">::attach</text>
</a>
</g>
</g>
<!-- Node1&#45;&gt;Node16 -->
<g id="edge15" class="edge">
<title>Node1&#45;&gt;Node16</title>
<path fill="none" stroke="midnightblue" d="M101.5,-233.61C123.87,-224.94 157.93,-212.1 188,-202.27 195.29,-199.89 202.95,-197.51 210.59,-195.22"/>
<polygon fill="midnightblue" stroke="midnightblue" points="211.63,-198.56 220.23,-192.38 209.65,-191.85 211.63,-198.56"/>
</g>
<!-- Node17 -->
<g id="node17" class="node">
<title>Node17</title>
<g id="a_node17"><a xlink:href="classRa_1_1Gui_1_1Viewer.html#a94ca6b2d9205f3affdc98703e5d22a13" target="_top" xlink:title="Set the renderer.">
<polygon fill="white" stroke="black" points="188,-211.77 188,-230.77 365,-230.77 365,-211.77 188,-211.77"/>
<text text-anchor="middle" x="276.5" y="-218.77" font-family="Helvetica,sans-Serif" font-size="10.00">Ra::Gui::Viewer::changeRenderer</text>
</a>
</g>
</g>
<!-- Node1&#45;&gt;Node17 -->
<g id="edge16" class="edge">
<title>Node1&#45;&gt;Node17</title>
<path fill="none" stroke="midnightblue" d="M152.04,-234.95C161.07,-233.95 170.39,-232.92 179.66,-231.89"/>
<polygon fill="midnightblue" stroke="midnightblue" points="180.14,-235.36 189.7,-230.78 179.37,-228.4 180.14,-235.36"/>
</g>
<!-- Node21 -->
<g id="node21" class="node">
<title>Node21</title>
<g id="a_node21"><a xlink:href="classRa_1_1Gui_1_1Viewer.html#abcb7e8020ac7d36903b98cf4cbcaa350" target="_top" xlink:title="create gizmos">
<polygon fill="white" stroke="black" points="196.5,-113.27 196.5,-143.27 356.5,-143.27 356.5,-113.27 196.5,-113.27"/>
<text text-anchor="start" x="204.5" y="-131.27" font-family="Helvetica,sans-Serif" font-size="10.00">Ra::Gui::Viewer::createGizmo</text>
<text text-anchor="middle" x="276.5" y="-120.27" font-family="Helvetica,sans-Serif" font-size="10.00">Manager</text>
</a>
</g>
</g>
<!-- Node1&#45;&gt;Node21 -->
<g id="edge24" class="edge">
<title>Node1&#45;&gt;Node21</title>
<path fill="none" stroke="midnightblue" d="M85.82,-233.75C103.45,-215.28 145.06,-174.47 188,-152.27 191.7,-150.36 195.57,-148.58 199.53,-146.94"/>
<polygon fill="midnightblue" stroke="midnightblue" points="200.83,-150.19 208.91,-143.34 198.32,-143.65 200.83,-150.19"/>
</g>
<!-- Node4 -->
<g id="node4" class="node">
<title>Node4</title>
<g id="a_node4"><a xlink:href="classRa_1_1Gui_1_1WindowQt.html#acd31b9e580f049491d13c16ef954d964" target="_top" xlink:title=" ">
<polygon fill="white" stroke="black" points="443,-296.27 443,-326.27 557,-326.27 557,-296.27 443,-296.27"/>
<text text-anchor="start" x="451" y="-314.27" font-family="Helvetica,sans-Serif" font-size="10.00">Ra::Gui::WindowQt::</text>
<text text-anchor="middle" x="500" y="-303.27" font-family="Helvetica,sans-Serif" font-size="10.00">doneCurrent</text>
</a>
</g>
</g>
<!-- Node3&#45;&gt;Node4 -->
<g id="edge3" class="edge">
<title>Node3&#45;&gt;Node4</title>
<path fill="none" stroke="midnightblue" d="M320.47,-271.77C352.32,-278.82 396.33,-288.56 432.68,-296.6"/>
<polygon fill="midnightblue" stroke="midnightblue" points="432.2,-300.08 442.72,-298.82 433.71,-293.24 432.2,-300.08"/>
</g>
<!-- Node3&#45;&gt;Node5 -->
<g id="edge4" class="edge">
<title>Node3&#45;&gt;Node5</title>
<path fill="none" stroke="midnightblue" d="M334.61,-271.9C345.3,-275.33 355.94,-279.98 365,-286.27 387.49,-301.89 378.3,-320.96 401,-336.27 406.99,-340.31 413.59,-343.67 420.46,-346.47"/>
<polygon fill="midnightblue" stroke="midnightblue" points="419.35,-349.79 429.95,-349.94 421.76,-343.22 419.35,-349.79"/>
</g>
<!-- Node15 -->
<g id="node15" class="node">
<title>Node15</title>
<g id="a_node15"><a xlink:href="classRa_1_1Gui_1_1WindowQt.html#a78476baacd2df24a260f604d02c8ddc4" target="_top" xlink:title=" ">
<polygon fill="white" stroke="black" points="443,-247.27 443,-277.27 557,-277.27 557,-247.27 443,-247.27"/>
<text text-anchor="start" x="451" y="-265.27" font-family="Helvetica,sans-Serif" font-size="10.00">Ra::Gui::WindowQt::</text>
<text text-anchor="middle" x="500" y="-254.27" font-family="Helvetica,sans-Serif" font-size="10.00">makeCurrent</text>
</a>
</g>
</g>
<!-- Node3&#45;&gt;Node15 -->
<g id="edge14" class="edge">
<title>Node3&#45;&gt;Node15</title>
<path fill="none" stroke="midnightblue" d="M356.53,-262.27C381.53,-262.27 408.89,-262.27 432.89,-262.27"/>
<polygon fill="midnightblue" stroke="midnightblue" points="432.96,-265.77 442.96,-262.27 432.96,-258.77 432.96,-265.77"/>
</g>
<!-- Node6 -->
<g id="node6" class="node">
<title>Node6</title>
<g id="a_node6"><a xlink:href="classRa_1_1Engine_1_1Rendering_1_1Renderer.html#a1937407357a05fef64bd1f0bafa50492" target="_top" xlink:title="Initialize renderer.">
<polygon fill="white" stroke="black" points="658.5,-345.27 658.5,-375.27 782.5,-375.27 782.5,-345.27 658.5,-345.27"/>
<text text-anchor="start" x="666.5" y="-363.27" font-family="Helvetica,sans-Serif" font-size="10.00">Ra::Engine::Rendering</text>
<text text-anchor="middle" x="720.5" y="-352.27" font-family="Helvetica,sans-Serif" font-size="10.00">::Renderer::initialize</text>
</a>
</g>
</g>
<!-- Node5&#45;&gt;Node6 -->
<g id="edge5" class="edge">
<title>Node5&#45;&gt;Node6</title>
<path fill="none" stroke="midnightblue" d="M570.13,-360.27C594.97,-360.27 623.02,-360.27 648.04,-360.27"/>
<polygon fill="midnightblue" stroke="midnightblue" points="648.2,-363.77 658.2,-360.27 648.2,-356.77 648.2,-363.77"/>
</g>
<!-- Node13 -->
<g id="node13" class="node">
<title>Node13</title>
<g id="a_node13"><a xlink:href="classRa_1_1Engine_1_1Rendering_1_1Renderer.html#abbb35a6ba5e765ce56848af6d235cf8f" target="_top" xlink:title=" ">
<polygon fill="white" stroke="black" points="649,-225.27 649,-255.27 792,-255.27 792,-225.27 649,-225.27"/>
<text text-anchor="start" x="657" y="-243.27" font-family="Helvetica,sans-Serif" font-size="10.00">Ra::Engine::Rendering</text>
<text text-anchor="middle" x="720.5" y="-232.27" font-family="Helvetica,sans-Serif" font-size="10.00">::Renderer::lockRendering</text>
</a>
</g>
</g>
<!-- Node5&#45;&gt;Node13 -->
<g id="edge12" class="edge">
<title>Node5&#45;&gt;Node13</title>
<path fill="none" stroke="midnightblue" d="M570,-349.87C580.23,-346.52 590.26,-342.1 599,-336.27 621.47,-321.26 614.73,-305.14 635,-287.27 647.09,-276.62 661.99,-267.35 675.89,-259.92"/>
<polygon fill="midnightblue" stroke="midnightblue" points="677.56,-263 684.85,-255.31 674.36,-256.77 677.56,-263"/>
</g>
<!-- Node14 -->
<g id="node14" class="node">
<title>Node14</title>
<g id="a_node14"><a xlink:href="classRa_1_1Engine_1_1Rendering_1_1Renderer.html#a80b7cdbb5e045a77c90a27bd20db3b77" target="_top" xlink:title="Update the background color (does not trigger a redraw)">
<polygon fill="white" stroke="black" points="635,-296.27 635,-326.27 806,-326.27 806,-296.27 635,-296.27"/>
<text text-anchor="start" x="643" y="-314.27" font-family="Helvetica,sans-Serif" font-size="10.00">Ra::Engine::Rendering</text>
<text text-anchor="middle" x="720.5" y="-303.27" font-family="Helvetica,sans-Serif" font-size="10.00">::Renderer::setBackgroundColor</text>
</a>
</g>
</g>
<!-- Node5&#45;&gt;Node14 -->
<g id="edge13" class="edge">
<title>Node5&#45;&gt;Node14</title>
<path fill="none" stroke="midnightblue" d="M568.04,-345.23C591.64,-339.94 618.34,-333.96 642.67,-328.5"/>
<polygon fill="midnightblue" stroke="midnightblue" points="643.59,-331.88 652.58,-326.28 642.06,-325.05 643.59,-331.88"/>
</g>
<!-- Node7 -->
<g id="node7" class="node">
<title>Node7</title>
<g id="a_node7"><a xlink:href="namespaceRa_1_1Engine_1_1Data_1_1ShaderConfigurationFactory.html#a00918835250fbd8bbe4deae59ecd6dde" target="_top" xlink:title=" ">
<polygon fill="white" stroke="black" points="873.5,-259.77 873.5,-300.77 1010.5,-300.77 1010.5,-259.77 873.5,-259.77"/>
<text text-anchor="start" x="881.5" y="-288.77" font-family="Helvetica,sans-Serif" font-size="10.00">Ra::Engine::Data::Shader</text>
<text text-anchor="start" x="881.5" y="-277.77" font-family="Helvetica,sans-Serif" font-size="10.00">ConfigurationFactory::</text>
<text text-anchor="middle" x="942" y="-266.77" font-family="Helvetica,sans-Serif" font-size="10.00">addConfiguration</text>
</a>
</g>
</g>
<!-- Node6&#45;&gt;Node7 -->
<g id="edge6" class="edge">
<title>Node6&#45;&gt;Node7</title>
<path fill="none" stroke="midnightblue" d="M782.85,-345.45C790.79,-342.78 798.69,-339.73 806,-336.27 823.61,-327.94 824.5,-319.83 842,-311.27 848.94,-307.87 856.33,-304.74 863.83,-301.89"/>
<polygon fill="midnightblue" stroke="midnightblue" points="865.16,-305.13 873.36,-298.42 862.77,-298.55 865.16,-305.13"/>
</g>
<!-- Node8 -->
<g id="node8" class="node">
<title>Node8</title>
<g id="a_node8"><a xlink:href="classRa_1_1Engine_1_1Data_1_1ShaderConfiguration.html#a42ec93f4772c0455149a81e9d8502d43" target="_top" xlink:title=" ">
<polygon fill="white" stroke="black" points="872,-418.27 872,-448.27 1012,-448.27 1012,-418.27 872,-418.27"/>
<text text-anchor="start" x="880" y="-436.27" font-family="Helvetica,sans-Serif" font-size="10.00">Ra::Engine::Data::Shader</text>
<text text-anchor="middle" x="942" y="-425.27" font-family="Helvetica,sans-Serif" font-size="10.00">Configuration::addShader</text>
</a>
</g>
</g>
<!-- Node6&#45;&gt;Node8 -->
<g id="edge7" class="edge">
<title>Node6&#45;&gt;Node8</title>
<path fill="none" stroke="midnightblue" d="M754.77,-375.36C778.69,-385.82 811.91,-399.56 842,-409.27 848.89,-411.49 856.1,-413.61 863.36,-415.61"/>
<polygon fill="midnightblue" stroke="midnightblue" points="862.69,-419.06 873.26,-418.27 864.5,-412.3 862.69,-419.06"/>
</g>
<!-- Node9 -->
<g id="node9" class="node">
<title>Node9</title>
<g id="a_node9"><a xlink:href="classRa_1_1Engine_1_1Data_1_1ShaderProgramManager.html#a4b346bfdb26bd4c0dcb3372f6e6b1dad" target="_top" xlink:title=" ">
<polygon fill="white" stroke="black" points="842,-369.27 842,-399.27 1042,-399.27 1042,-369.27 842,-369.27"/>
<text text-anchor="start" x="850" y="-387.27" font-family="Helvetica,sans-Serif" font-size="10.00">Ra::Engine::Data::Shader</text>
<text text-anchor="middle" x="942" y="-376.27" font-family="Helvetica,sans-Serif" font-size="10.00">ProgramManager::addShaderProgram</text>
</a>
</g>
</g>
<!-- Node6&#45;&gt;Node9 -->
<g id="edge8" class="edge">
<title>Node6&#45;&gt;Node9</title>
<path fill="none" stroke="midnightblue" d="M782.64,-366.95C798.02,-368.64 814.99,-370.49 831.94,-372.34"/>
<polygon fill="midnightblue" stroke="midnightblue" points="831.58,-375.83 841.9,-373.43 832.34,-368.87 831.58,-375.83"/>
</g>
<!-- Node10 -->
<g id="node10" class="node">
<title>Node10</title>
<g id="a_node10"><a xlink:href="classRa_1_1Engine_1_1Rendering_1_1Renderer.html#ab14ff49e794cd718b77db013c9fae556" target="_top" xlink:title="initializeInternal Initialize the renderer dependant resources.">
<polygon fill="white" stroke="black" points="866,-320.27 866,-350.27 1018,-350.27 1018,-320.27 866,-320.27"/>
<text text-anchor="start" x="874" y="-338.27" font-family="Helvetica,sans-Serif" font-size="10.00">Ra::Engine::Rendering</text>
<text text-anchor="middle" x="942" y="-327.27" font-family="Helvetica,sans-Serif" font-size="10.00">::Renderer::initializeInternal</text>
</a>
</g>
</g>
<!-- Node6&#45;&gt;Node10 -->
<g id="edge9" class="edge">
<title>Node6&#45;&gt;Node10</title>
<path fill="none" stroke="midnightblue" d="M782.64,-353.3C805.28,-350.73 831.36,-347.76 855.75,-344.98"/>
<polygon fill="midnightblue" stroke="midnightblue" points="856.18,-348.45 865.72,-343.84 855.39,-341.5 856.18,-348.45"/>
</g>
<!-- Node11 -->
<g id="node11" class="node">
<title>Node11</title>
<g id="a_node11"><a xlink:href="classRa_1_1Engine_1_1Rendering_1_1Renderer.html#a314e31247fa616d1cbb02143cd42019f" target="_top" xlink:title="Resize the viewport and all the screen textures, fbos. This function must be overrided as soon as som...">
<polygon fill="white" stroke="black" points="880,-114.27 880,-144.27 1004,-144.27 1004,-114.27 880,-114.27"/>
<text text-anchor="start" x="888" y="-132.27" font-family="Helvetica,sans-Serif" font-size="10.00">Ra::Engine::Rendering</text>
<text text-anchor="middle" x="942" y="-121.27" font-family="Helvetica,sans-Serif" font-size="10.00">::Renderer::resize</text>
</a>
</g>
</g>
<!-- Node6&#45;&gt;Node11 -->
<g id="edge10" class="edge">
<title>Node6&#45;&gt;Node11</title>
<path fill="none" stroke="midnightblue" d="M782.65,-350.11C791.15,-346.73 799.27,-342.24 806,-336.27 837,-308.77 820.66,-285.79 842,-250.27 864.36,-213.06 897.42,-175.12 919.08,-151.88"/>
<polygon fill="midnightblue" stroke="midnightblue" points="921.65,-154.27 925.96,-144.59 916.55,-149.46 921.65,-154.27"/>
</g>
<!-- Node12 -->
<g id="node12" class="node">
<title>Node12</title>
<g id="a_node12"><a xlink:href="classRa_1_1Engine_1_1Rendering_1_1Renderer.html#ac804ffc9a0b4f71c02610ce930fd5c65" target="_top" xlink:title=" ">
<polygon fill="white" stroke="black" points="1078,-114.27 1078,-144.27 1218,-144.27 1218,-114.27 1078,-114.27"/>
<text text-anchor="start" x="1086" y="-132.27" font-family="Helvetica,sans-Serif" font-size="10.00">Ra::Engine::Rendering</text>
<text text-anchor="middle" x="1148" y="-121.27" font-family="Helvetica,sans-Serif" font-size="10.00">::Renderer::resizeInternal</text>
</a>
</g>
</g>
<!-- Node11&#45;&gt;Node12 -->
<g id="edge11" class="edge">
<title>Node11&#45;&gt;Node12</title>
<path fill="none" stroke="midnightblue" d="M1004.21,-129.27C1024.18,-129.27 1046.64,-129.27 1067.74,-129.27"/>
<polygon fill="midnightblue" stroke="midnightblue" points="1067.97,-132.77 1077.97,-129.27 1067.97,-125.77 1067.97,-132.77"/>
</g>
<!-- Node17&#45;&gt;Node4 -->
<g id="edge18" class="edge">
<title>Node17&#45;&gt;Node4</title>
<path fill="none" stroke="midnightblue" d="M337.51,-230.91C347.14,-233.96 356.67,-237.98 365,-243.27 386.33,-256.81 379.63,-273.79 401,-287.27 410.68,-293.38 421.81,-297.93 433.01,-301.32"/>
<polygon fill="midnightblue" stroke="midnightblue" points="432.27,-304.75 442.84,-304.02 434.12,-298 432.27,-304.75"/>
</g>
<!-- Node17&#45;&gt;Node11 -->
<g id="edge22" class="edge">
<title>Node17&#45;&gt;Node11</title>
<path fill="none" stroke="midnightblue" d="M350.21,-211.73C355.64,-208.98 360.68,-205.54 365,-201.27 413.74,-153.05 347.16,-93.72 401,-51.27 555.62,70.63 815.16,-56.85 907.3,-109.1"/>
<polygon fill="midnightblue" stroke="midnightblue" points="905.78,-112.26 916.19,-114.21 909.26,-106.19 905.78,-112.26"/>
</g>
<!-- Node17&#45;&gt;Node13 -->
<g id="edge20" class="edge">
<title>Node17&#45;&gt;Node13</title>
<path fill="none" stroke="midnightblue" d="M365.09,-225.03C444.69,-228.46 561.2,-233.46 638.64,-236.79"/>
<polygon fill="midnightblue" stroke="midnightblue" points="638.68,-240.3 648.82,-237.23 638.98,-233.3 638.68,-240.3"/>
</g>
<!-- Node17&#45;&gt;Node15 -->
<g id="edge21" class="edge">
<title>Node17&#45;&gt;Node15</title>
<path fill="none" stroke="midnightblue" d="M328.87,-230.78C359.8,-236.5 399.49,-243.85 432.75,-250.01"/>
<polygon fill="midnightblue" stroke="midnightblue" points="432.39,-253.5 442.86,-251.88 433.66,-246.61 432.39,-253.5"/>
</g>
<!-- Node18 -->
<g id="node18" class="node">
<title>Node18</title>
<g id="a_node18"><a xlink:href="classRa_1_1Engine_1_1Rendering_1_1Renderer.html#a7042ea2839f794059ca7a97f75118afe" target="_top" xlink:title=" ">
<polygon fill="white" stroke="black" points="401,-159.27 401,-189.27 599,-189.27 599,-159.27 401,-159.27"/>
<text text-anchor="start" x="409" y="-177.27" font-family="Helvetica,sans-Serif" font-size="10.00">Ra::Engine::Rendering</text>
<text text-anchor="middle" x="500" y="-166.27" font-family="Helvetica,sans-Serif" font-size="10.00">::Renderer::buildAllRenderTechniques</text>
</a>
</g>
</g>
<!-- Node17&#45;&gt;Node18 -->
<g id="edge17" class="edge">
<title>Node17&#45;&gt;Node18</title>
<path fill="none" stroke="midnightblue" d="M322.32,-211.76C349.82,-205.92 385.84,-198.28 418.17,-191.42"/>
<polygon fill="midnightblue" stroke="midnightblue" points="419.02,-194.82 428.08,-189.32 417.57,-187.97 419.02,-194.82"/>
</g>
<!-- Node19 -->
<g id="node19" class="node">
<title>Node19</title>
<g id="a_node19"><a xlink:href="classRa_1_1Engine_1_1Rendering_1_1Renderer.html#a305a4ebf52a2d2642245155eab3099dc" target="_top" xlink:title="Get the name of the renderer, e.g to be displayed in the UI.">
<polygon fill="white" stroke="black" points="419,-110.27 419,-140.27 581,-140.27 581,-110.27 419,-110.27"/>
<text text-anchor="start" x="427" y="-128.27" font-family="Helvetica,sans-Serif" font-size="10.00">Ra::Engine::Rendering</text>
<text text-anchor="middle" x="500" y="-117.27" font-family="Helvetica,sans-Serif" font-size="10.00">::Renderer::getRendererName</text>
</a>
</g>
</g>
<!-- Node17&#45;&gt;Node19 -->
<g id="edge19" class="edge">
<title>Node17&#45;&gt;Node19</title>
<path fill="none" stroke="midnightblue" d="M343.76,-211.74C351.28,-209.06 358.55,-205.64 365,-201.27 388.28,-185.51 377.84,-165.2 401,-149.27 403.74,-147.38 406.62,-145.64 409.59,-144.04"/>
<polygon fill="midnightblue" stroke="midnightblue" points="411.27,-147.12 418.77,-139.63 408.24,-140.81 411.27,-147.12"/>
</g>
<!-- Node20 -->
<g id="node20" class="node">
<title>Node20</title>
<g id="a_node20"><a xlink:href="classRa_1_1Engine_1_1Rendering_1_1Renderer.html#a176af03a142928fb672ec7063efab174" target="_top" xlink:title=" ">
<polygon fill="white" stroke="black" points="422.5,-61.27 422.5,-91.27 577.5,-91.27 577.5,-61.27 422.5,-61.27"/>
<text text-anchor="start" x="430.5" y="-79.27" font-family="Helvetica,sans-Serif" font-size="10.00">Ra::Engine::Rendering</text>
<text text-anchor="middle" x="500" y="-68.27" font-family="Helvetica,sans-Serif" font-size="10.00">::Renderer::unlockRendering</text>
</a>
</g>
</g>
<!-- Node17&#45;&gt;Node20 -->
<g id="edge23" class="edge">
<title>Node17&#45;&gt;Node20</title>
<path fill="none" stroke="midnightblue" d="M348.88,-211.62C354.73,-208.91 360.22,-205.51 365,-201.27 400.62,-169.61 365.63,-132.2 401,-100.27 404.71,-96.92 408.8,-94.03 413.15,-91.52"/>
<polygon fill="midnightblue" stroke="midnightblue" points="415.02,-94.5 422.4,-86.9 411.89,-88.23 415.02,-94.5"/>
</g>
</g>
</svg>
