<?xml version="1.0" encoding="UTF-8" standalone="no"?>
<!DOCTYPE svg PUBLIC "-//W3C//DTD SVG 1.1//EN"
 "http://www.w3.org/Graphics/SVG/1.1/DTD/svg11.dtd">
<!-- Generated by graphviz version 2.43.0 (0)
 -->
<!-- Title: Ra::Gui::BaseApplication::initialize Pages: 1 -->
<!--zoomable 566 -->
<svg id="main" version="1.1" xmlns="http://www.w3.org/2000/svg" xmlns:xlink="http://www.w3.org/1999/xlink" xml:space="preserve" onload="init(evt)">
<style type="text/css"><![CDATA[
.edge:hover path { stroke: red; }
.edge:hover polygon { stroke: red; fill: red; }
]]></style>
<script type="text/javascript"><![CDATA[
var edges = document.getElementsByTagName('g');
if (edges && edges.length) {
  for (var i=0;i<edges.length;i++) {
    if (edges[i].id.substr(0,4)=='edge') {
      edges[i].setAttribute('class','edge');
    }
  }
}
]]></script>
        <defs>
                <circle id="rim" cx="0" cy="0" r="7"/>
                <circle id="rim2" cx="0" cy="0" r="3.5"/>
                <g id="zoomPlus">
                        <use xlink:href="#rim" fill="#404040">
                                <set attributeName="fill" to="#808080" begin="zoomplus.mouseover" end="zoomplus.mouseout"/>
                        </use>
                        <path d="M-4,0h8M0,-4v8" fill="none" stroke="white" stroke-width="1.5" pointer-events="none"/>
                </g>
                <g id="zoomMin">
                        <use xlink:href="#rim" fill="#404040">
                                <set attributeName="fill" to="#808080" begin="zoomminus.mouseover" end="zoomminus.mouseout"/>
                        </use>
                        <path d="M-4,0h8" fill="none" stroke="white" stroke-width="1.5" pointer-events="none"/>
                </g>
                <g id="dirArrow">
                        <path fill="none" stroke="white" stroke-width="1.5" d="M0,-3.0v7 M-2.5,-0.5L0,-3.0L2.5,-0.5"/>
                </g>
               <g id="resetDef">
                       <use xlink:href="#rim2" fill="#404040">
                               <set attributeName="fill" to="#808080" begin="reset.mouseover" end="reset.mouseout"/>
                       </use>
               </g>
        </defs>

<script type="text/javascript">
var viewWidth = 986;
var viewHeight = 566;
var sectionId = 'dynsection-3';
</script>
<script xlink:href="svgpan.js"/>
<svg id="graph" class="graph">
<g id="viewport">
<title>Ra::Gui::BaseApplication::initialize</title>
<polygon fill="white" stroke="transparent" points="-4,4 -4,-562 982,-562 982,4 -4,4"/>
<!-- Node1 -->
<g id="node1" class="node">
<title>Node1</title>
<g id="a_node1"><a xlink:title=" ">
<polygon fill="#bfbfbf" stroke="black" points="0,-267.5 0,-297.5 137,-297.5 137,-267.5 0,-267.5"/>
<text text-anchor="start" x="8" y="-285.5" font-family="Helvetica,sans-Serif" font-size="10.00">Ra::Gui::BaseApplication</text>
<text text-anchor="middle" x="68.5" y="-274.5" font-family="Helvetica,sans-Serif" font-size="10.00">::initialize</text>
</a>
</g>
</g>
<!-- Node2 -->
<g id="node2" class="node">
<title>Node2</title>
<g id="a_node2"><a xlink:href="classRa_1_1Gui_1_1BaseApplication.html#a2af7ea85d1a58e2e3581a8a97f81e7b0" target="_top" xlink:title=" ">
<polygon fill="white" stroke="black" points="177.5,-478.5 177.5,-508.5 320.5,-508.5 320.5,-478.5 177.5,-478.5"/>
<text text-anchor="start" x="185.5" y="-496.5" font-family="Helvetica,sans-Serif" font-size="10.00">Ra::Gui::BaseApplication</text>
<text text-anchor="middle" x="249" y="-485.5" font-family="Helvetica,sans-Serif" font-size="10.00">::addApplicationExtension</text>
</a>
</g>
</g>
<!-- Node1&#45;&gt;Node2 -->
<g id="edge1" class="edge">
<title>Node1&#45;&gt;Node2</title>
<path fill="none" stroke="midnightblue" d="M73.64,-297.6C84.12,-333 115.07,-421.93 173,-469.5 174.58,-470.8 176.24,-472.03 177.96,-473.2"/>
<polygon fill="midnightblue" stroke="midnightblue" points="176.55,-476.43 186.95,-478.49 180.1,-470.4 176.55,-476.43"/>
</g>
<!-- Node3 -->
<g id="node3" class="node">
<title>Node3</title>
<g id="a_node3"><a xlink:href="classRa_1_1Gui_1_1BaseApplication.html#a7fe9e4ee3c0e41954143a2266c3549da" target="_top" xlink:title="Create signal / slots connections.">
<polygon fill="white" stroke="black" points="180.5,-429.5 180.5,-459.5 317.5,-459.5 317.5,-429.5 180.5,-429.5"/>
<text text-anchor="start" x="188.5" y="-447.5" font-family="Helvetica,sans-Serif" font-size="10.00">Ra::Gui::BaseApplication</text>
<text text-anchor="middle" x="249" y="-436.5" font-family="Helvetica,sans-Serif" font-size="10.00">::createConnections</text>
</a>
</g>
</g>
<!-- Node1&#45;&gt;Node3 -->
<g id="edge2" class="edge">
<title>Node1&#45;&gt;Node3</title>
<path fill="none" stroke="midnightblue" d="M76.89,-297.81C91.36,-326.21 126.15,-387.16 173,-420.5 175.1,-421.99 177.29,-423.39 179.55,-424.71"/>
<polygon fill="midnightblue" stroke="midnightblue" points="178.09,-427.9 188.58,-429.38 181.31,-421.68 178.09,-427.9"/>
</g>
<!-- Node9 -->
<g id="node9" class="node">
<title>Node9</title>
<g id="a_node9"><a xlink:href="classRa_1_1Gui_1_1BaseApplication.html#ace35b8a957082a5c72c54c5088a6f437" target="_top" xlink:title=" ">
<polygon fill="white" stroke="black" points="179,-380.5 179,-410.5 319,-410.5 319,-380.5 179,-380.5"/>
<text text-anchor="start" x="187" y="-398.5" font-family="Helvetica,sans-Serif" font-size="10.00">Ra::Gui::BaseApplication</text>
<text text-anchor="middle" x="249" y="-387.5" font-family="Helvetica,sans-Serif" font-size="10.00">::engineBaseInitialization</text>
</a>
</g>
</g>
<!-- Node1&#45;&gt;Node9 -->
<g id="edge8" class="edge">
<title>Node1&#45;&gt;Node9</title>
<path fill="none" stroke="midnightblue" d="M83.55,-297.6C102.28,-316.94 137.25,-350.35 173,-370.5 176.87,-372.68 180.96,-374.71 185.16,-376.59"/>
<polygon fill="midnightblue" stroke="midnightblue" points="183.88,-379.85 194.46,-380.48 186.58,-373.39 183.88,-379.85"/>
</g>
<!-- Node12 -->
<g id="node12" class="node">
<title>Node12</title>
<g id="a_node12"><a xlink:href="classRa_1_1Gui_1_1Viewer.html#a12da0e6456afc0e7a13a85636ec852d8" target="_top" xlink:title="Access to the OpenGL context of the Viewer.">
<polygon fill="white" stroke="black" points="173,-342 173,-361 325,-361 325,-342 173,-342"/>
<text text-anchor="middle" x="249" y="-349" font-family="Helvetica,sans-Serif" font-size="10.00">Ra::Gui::Viewer::getContext</text>
</a>
</g>
</g>
<!-- Node1&#45;&gt;Node12 -->
<g id="edge11" class="edge">
<title>Node1&#45;&gt;Node12</title>
<path fill="none" stroke="midnightblue" d="M96.95,-297.65C117.44,-308.48 146.37,-322.81 173,-332.5 179.77,-334.96 186.99,-337.23 194.18,-339.27"/>
<polygon fill="midnightblue" stroke="midnightblue" points="193.36,-342.67 203.92,-341.91 195.19,-335.92 193.36,-342.67"/>
</g>
<!-- Node13 -->
<g id="node13" class="node">
<title>Node13</title>
<g id="a_node13"><a xlink:href="classRa_1_1Gui_1_1Viewer.html#a6066c952ba53278ad3d4d35dac78d6ab" target="_top" xlink:title="Access to the feature picking manager.">
<polygon fill="white" stroke="black" points="174.5,-292.5 174.5,-322.5 323.5,-322.5 323.5,-292.5 174.5,-292.5"/>
<text text-anchor="start" x="182.5" y="-310.5" font-family="Helvetica,sans-Serif" font-size="10.00">Ra::Gui::Viewer::getPicking</text>
<text text-anchor="middle" x="249" y="-299.5" font-family="Helvetica,sans-Serif" font-size="10.00">Manager</text>
</a>
</g>
</g>
<!-- Node1&#45;&gt;Node13 -->
<g id="edge12" class="edge">
<title>Node1&#45;&gt;Node13</title>
<path fill="none" stroke="midnightblue" d="M137.24,-291.99C146.05,-293.22 155.16,-294.5 164.2,-295.76"/>
<polygon fill="midnightblue" stroke="midnightblue" points="163.96,-299.26 174.35,-297.19 164.93,-292.33 163.96,-299.26"/>
</g>
<!-- Node14 -->
<g id="node14" class="node">
<title>Node14</title>
<g id="a_node14"><a xlink:href="namespaceRa_1_1Core_1_1Resources.html#a3cb536c70ed3e05e6ed8c0da51670cb2" target="_top" xlink:title="Get the path of Radium embedded plugins.">
<polygon fill="white" stroke="black" points="183,-243.5 183,-273.5 315,-273.5 315,-243.5 183,-243.5"/>
<text text-anchor="start" x="191" y="-261.5" font-family="Helvetica,sans-Serif" font-size="10.00">Ra::Core::Resources</text>
<text text-anchor="middle" x="249" y="-250.5" font-family="Helvetica,sans-Serif" font-size="10.00">::getRadiumPluginsPath</text>
</a>
</g>
</g>
<!-- Node1&#45;&gt;Node14 -->
<g id="edge13" class="edge">
<title>Node1&#45;&gt;Node14</title>
<path fill="none" stroke="midnightblue" d="M137.24,-273.39C148.83,-271.83 160.94,-270.21 172.72,-268.62"/>
<polygon fill="midnightblue" stroke="midnightblue" points="173.52,-272.05 182.96,-267.24 172.58,-265.11 173.52,-272.05"/>
</g>
<!-- Node15 -->
<g id="node15" class="node">
<title>Node15</title>
<g id="a_node15"><a xlink:href="classRa_1_1Engine_1_1RadiumEngine.html#a8d2085dbc31206d0bbdfc6014d247471" target="_top" xlink:title=" ">
<polygon fill="white" stroke="black" points="176.5,-194.5 176.5,-224.5 321.5,-224.5 321.5,-194.5 176.5,-194.5"/>
<text text-anchor="start" x="184.5" y="-212.5" font-family="Helvetica,sans-Serif" font-size="10.00">Ra::Engine::RadiumEngine</text>
<text text-anchor="middle" x="249" y="-201.5" font-family="Helvetica,sans-Serif" font-size="10.00">::initialize</text>
</a>
</g>
</g>
<!-- Node1&#45;&gt;Node15 -->
<g id="edge14" class="edge">
<title>Node1&#45;&gt;Node15</title>
<path fill="none" stroke="midnightblue" d="M99.9,-267.3C120.32,-257.37 147.96,-244.44 173,-234.5 178.56,-232.29 184.39,-230.11 190.26,-228.02"/>
<polygon fill="midnightblue" stroke="midnightblue" points="191.82,-231.18 200.1,-224.57 189.5,-224.57 191.82,-231.18"/>
</g>
<!-- Node17 -->
<g id="node17" class="node">
<title>Node17</title>
<g id="a_node17"><a xlink:href="classRa_1_1Gui_1_1BaseApplication.html#ade2850bde46ffa889f9ca3a4c542d2e2" target="_top" xlink:title=" ">
<polygon fill="white" stroke="black" points="180.5,-145.5 180.5,-175.5 317.5,-175.5 317.5,-145.5 180.5,-145.5"/>
<text text-anchor="start" x="188.5" y="-163.5" font-family="Helvetica,sans-Serif" font-size="10.00">Ra::Gui::BaseApplication</text>
<text text-anchor="middle" x="249" y="-152.5" font-family="Helvetica,sans-Serif" font-size="10.00">::loadPlugins</text>
</a>
</g>
</g>
<!-- Node1&#45;&gt;Node17 -->
<g id="edge16" class="edge">
<title>Node1&#45;&gt;Node17</title>
<path fill="none" stroke="midnightblue" d="M81.98,-267.22C100.01,-246.07 135.34,-207.94 173,-185.5 176.58,-183.37 180.37,-181.39 184.26,-179.55"/>
<polygon fill="midnightblue" stroke="midnightblue" points="185.72,-182.74 193.5,-175.55 182.93,-176.32 185.72,-182.74"/>
</g>
<!-- Node20 -->
<g id="node20" class="node">
<title>Node20</title>
<g id="a_node20"><a xlink:href="classRa_1_1Engine_1_1RadiumEngine.html#a90204861f4fe8ed044208eb05695afe0" target="_top" xlink:title=" ">
<polygon fill="white" stroke="black" points="400.5,-98.5 400.5,-128.5 545.5,-128.5 545.5,-98.5 400.5,-98.5"/>
<text text-anchor="start" x="408.5" y="-116.5" font-family="Helvetica,sans-Serif" font-size="10.00">Ra::Engine::RadiumEngine</text>
<text text-anchor="middle" x="473" y="-105.5" font-family="Helvetica,sans-Serif" font-size="10.00">::registerFileLoader</text>
</a>
</g>
</g>
<!-- Node1&#45;&gt;Node20 -->
<g id="edge20" class="edge">
<title>Node1&#45;&gt;Node20</title>
<path fill="none" stroke="midnightblue" d="M75.16,-267.15C87.49,-236.15 120.01,-166.52 173,-136.5 238.97,-99.12 326.66,-96.83 389.99,-101.8"/>
<polygon fill="midnightblue" stroke="midnightblue" points="390.07,-105.32 400.34,-102.69 390.67,-98.35 390.07,-105.32"/>
</g>
<!-- Node21 -->
<g id="node21" class="node">
<title>Node21</title>
<g id="a_node21"><a xlink:href="classRa_1_1Gui_1_1Viewer.html#aaae0a0c0c419bd1dc8f0296214120a7d" target="_top" xlink:title="add observers to keyMappingManager for gizmo, camera and viewer.">
<polygon fill="white" stroke="black" points="177.5,-25.5 177.5,-55.5 320.5,-55.5 320.5,-25.5 177.5,-25.5"/>
<text text-anchor="start" x="185.5" y="-43.5" font-family="Helvetica,sans-Serif" font-size="10.00">Ra::Gui::Viewer::setupKey</text>
<text text-anchor="middle" x="249" y="-32.5" font-family="Helvetica,sans-Serif" font-size="10.00">MappingCallbacks</text>
</a>
</g>
</g>
<!-- Node1&#45;&gt;Node21 -->
<g id="edge21" class="edge">
<title>Node1&#45;&gt;Node21</title>
<path fill="none" stroke="midnightblue" d="M75.84,-267.14C89.91,-234.18 126.27,-155.24 173,-100.5 185.58,-85.76 202.19,-72.04 216.58,-61.45"/>
<polygon fill="midnightblue" stroke="midnightblue" points="218.66,-64.27 224.75,-55.6 214.59,-58.58 218.66,-64.27"/>
</g>
<!-- Node4 -->
<g id="node4" class="node">
<title>Node4</title>
<g id="a_node4"><a xlink:href="classRa_1_1Gui_1_1WindowQt.html#a190a81dd418c60026d3579333c2cc94d" target="_top" xlink:title="call deinitializeGL if needed, with context activated">
<polygon fill="white" stroke="black" points="416,-527.5 416,-557.5 530,-557.5 530,-527.5 416,-527.5"/>
<text text-anchor="start" x="424" y="-545.5" font-family="Helvetica,sans-Serif" font-size="10.00">Ra::Gui::WindowQt::</text>
<text text-anchor="middle" x="473" y="-534.5" font-family="Helvetica,sans-Serif" font-size="10.00">cleanupGL</text>
</a>
</g>
</g>
<!-- Node3&#45;&gt;Node4 -->
<g id="edge3" class="edge">
<title>Node3&#45;&gt;Node4</title>
<path fill="none" stroke="midnightblue" d="M307.53,-459.51C313.71,-462.32 319.67,-465.62 325,-469.5 346.84,-485.41 338.32,-503.8 361,-518.5 374.3,-527.12 390.19,-532.69 405.74,-536.28"/>
<polygon fill="midnightblue" stroke="midnightblue" points="405.37,-539.78 415.87,-538.37 406.78,-532.92 405.37,-539.78"/>
</g>
<!-- Node5 -->
<g id="node5" class="node">
<title>Node5</title>
<g id="a_node5"><a xlink:href="classRa_1_1Gui_1_1BaseApplication.html#afb15f30d1be4f32933204782cc797d43" target="_top" xlink:title="slot called when the OpenGL need to be initialized">
<polygon fill="white" stroke="black" points="404.5,-478.5 404.5,-508.5 541.5,-508.5 541.5,-478.5 404.5,-478.5"/>
<text text-anchor="start" x="412.5" y="-496.5" font-family="Helvetica,sans-Serif" font-size="10.00">Ra::Gui::BaseApplication</text>
<text text-anchor="middle" x="473" y="-485.5" font-family="Helvetica,sans-Serif" font-size="10.00">::engineOpenGLInitialize</text>
</a>
</g>
</g>
<!-- Node3&#45;&gt;Node5 -->
<g id="edge4" class="edge">
<title>Node3&#45;&gt;Node5</title>
<path fill="none" stroke="midnightblue" d="M316.3,-459.53C331.02,-462.84 346.53,-466.31 361,-469.5 371.87,-471.9 383.35,-474.41 394.63,-476.86"/>
<polygon fill="midnightblue" stroke="midnightblue" points="393.96,-480.3 404.48,-479 395.45,-473.46 393.96,-480.3"/>
</g>
<!-- Node8 -->
<g id="node8" class="node">
<title>Node8</title>
<g id="a_node8"><a xlink:href="classRa_1_1Gui_1_1BaseApplication.html#a6c00e85efcad67823ec51dad9d3a0d98" target="_top" xlink:title=" ">
<polygon fill="white" stroke="black" points="404.5,-429.5 404.5,-459.5 541.5,-459.5 541.5,-429.5 404.5,-429.5"/>
<text text-anchor="start" x="412.5" y="-447.5" font-family="Helvetica,sans-Serif" font-size="10.00">Ra::Gui::BaseApplication</text>
<text text-anchor="middle" x="473" y="-436.5" font-family="Helvetica,sans-Serif" font-size="10.00">::initializeGl</text>
</a>
</g>
</g>
<!-- Node3&#45;&gt;Node8 -->
<g id="edge7" class="edge">
<title>Node3&#45;&gt;Node8</title>
<path fill="none" stroke="midnightblue" d="M317.51,-444.5C341.73,-444.5 369.23,-444.5 394.24,-444.5"/>
<polygon fill="midnightblue" stroke="midnightblue" points="394.43,-448 404.43,-444.5 394.43,-441 394.43,-448"/>
</g>
<!-- Node6 -->
<g id="node6" class="node">
<title>Node6</title>
<g id="a_node6"><a xlink:href="classRa_1_1Engine_1_1RadiumEngine.html#af02fbe3c4fa7e24f878b0b5d32e760ff" target="_top" xlink:title=" ">
<polygon fill="white" stroke="black" points="621,-478.5 621,-508.5 766,-508.5 766,-478.5 621,-478.5"/>
<text text-anchor="start" x="629" y="-496.5" font-family="Helvetica,sans-Serif" font-size="10.00">Ra::Engine::RadiumEngine</text>
<text text-anchor="middle" x="693.5" y="-485.5" font-family="Helvetica,sans-Serif" font-size="10.00">::initializeGL</text>
</a>
</g>
</g>
<!-- Node5&#45;&gt;Node6 -->
<g id="edge5" class="edge">
<title>Node5&#45;&gt;Node6</title>
<path fill="none" stroke="midnightblue" d="M541.64,-493.5C563.38,-493.5 587.7,-493.5 610.36,-493.5"/>
<polygon fill="midnightblue" stroke="midnightblue" points="610.64,-497 620.64,-493.5 610.64,-490 610.64,-497"/>
</g>
<!-- Node7 -->
<g id="node7" class="node">
<title>Node7</title>
<g id="a_node7"><a xlink:href="classRa_1_1Engine_1_1Data_1_1ShaderConfiguration.html#a0d02d435bcfec498a22fc2b0beb9494f" target="_top" xlink:title="set the OpenGL version to use in the generated header for shaders.">
<polygon fill="white" stroke="black" points="802,-478.5 802,-508.5 978,-508.5 978,-478.5 802,-478.5"/>
<text text-anchor="start" x="810" y="-496.5" font-family="Helvetica,sans-Serif" font-size="10.00">Ra::Engine::Data::Shader</text>
<text text-anchor="middle" x="890" y="-485.5" font-family="Helvetica,sans-Serif" font-size="10.00">Configuration::setOpenGLVersion</text>
</a>
</g>
</g>
<!-- Node6&#45;&gt;Node7 -->
<g id="edge6" class="edge">
<title>Node6&#45;&gt;Node7</title>
<path fill="none" stroke="midnightblue" d="M766.1,-493.5C774.43,-493.5 783.03,-493.5 791.63,-493.5"/>
<polygon fill="midnightblue" stroke="midnightblue" points="791.71,-497 801.71,-493.5 791.71,-490 791.71,-497"/>
</g>
<!-- Node10 -->
<g id="node10" class="node">
<title>Node10</title>
<g id="a_node10"><a xlink:href="classRa_1_1Engine_1_1RadiumEngine.html#af93db44814bf4448267f84b8002c9d4d" target="_top" xlink:title=" ">
<polygon fill="white" stroke="black" points="400.5,-380.5 400.5,-410.5 545.5,-410.5 545.5,-380.5 400.5,-380.5"/>
<text text-anchor="start" x="408.5" y="-398.5" font-family="Helvetica,sans-Serif" font-size="10.00">Ra::Engine::RadiumEngine</text>
<text text-anchor="middle" x="473" y="-387.5" font-family="Helvetica,sans-Serif" font-size="10.00">::registerSystem</text>
</a>
</g>
</g>
<!-- Node9&#45;&gt;Node10 -->
<g id="edge9" class="edge">
<title>Node9&#45;&gt;Node10</title>
<path fill="none" stroke="midnightblue" d="M319.03,-395.5C341.53,-395.5 366.74,-395.5 390.1,-395.5"/>
<polygon fill="midnightblue" stroke="midnightblue" points="390.33,-399 400.33,-395.5 390.33,-392 390.33,-399"/>
</g>
<!-- Node11 -->
<g id="node11" class="node">
<title>Node11</title>
<g id="a_node11"><a xlink:href="classRa_1_1Engine_1_1RadiumEngine.html#ad52558a6a92db22bb4e24eedd00705e0" target="_top" xlink:title="Sets the time delta between two frames for Constant&#45;time time flow.">
<polygon fill="white" stroke="black" points="400.5,-331.5 400.5,-361.5 545.5,-361.5 545.5,-331.5 400.5,-331.5"/>
<text text-anchor="start" x="408.5" y="-349.5" font-family="Helvetica,sans-Serif" font-size="10.00">Ra::Engine::RadiumEngine</text>
<text text-anchor="middle" x="473" y="-338.5" font-family="Helvetica,sans-Serif" font-size="10.00">::setConstantTimeStep</text>
</a>
</g>
</g>
<!-- Node9&#45;&gt;Node11 -->
<g id="edge10" class="edge">
<title>Node9&#45;&gt;Node11</title>
<path fill="none" stroke="midnightblue" d="M318.12,-380.47C342.09,-375.17 369.22,-369.19 393.94,-363.73"/>
<polygon fill="midnightblue" stroke="midnightblue" points="395,-367.08 404.01,-361.51 393.49,-360.24 395,-367.08"/>
</g>
<!-- Node16 -->
<g id="node16" class="node">
<title>Node16</title>
<g id="a_node16"><a xlink:href="namespaceRa_1_1Core_1_1Resources.html#af434c5b44164970395428b4a00e7729c" target="_top" xlink:title="Get the path of Radium internal resources.">
<polygon fill="white" stroke="black" points="399.5,-245.5 399.5,-275.5 546.5,-275.5 546.5,-245.5 399.5,-245.5"/>
<text text-anchor="start" x="407.5" y="-263.5" font-family="Helvetica,sans-Serif" font-size="10.00">Ra::Core::Resources</text>
<text text-anchor="middle" x="473" y="-252.5" font-family="Helvetica,sans-Serif" font-size="10.00">::getRadiumResourcesPath</text>
</a>
</g>
</g>
<!-- Node15&#45;&gt;Node16 -->
<g id="edge15" class="edge">
<title>Node15&#45;&gt;Node16</title>
<path fill="none" stroke="midnightblue" d="M310.71,-224.57C327.02,-228.53 344.67,-232.75 361,-236.5 370.83,-238.76 381.16,-241.07 391.41,-243.33"/>
<polygon fill="midnightblue" stroke="midnightblue" points="390.66,-246.75 401.18,-245.47 392.16,-239.91 390.66,-246.75"/>
</g>
<!-- Node18 -->
<g id="node18" class="node">
<title>Node18</title>
<g id="a_node18"><a xlink:href="classRa_1_1Gui_1_1WindowQt.html#acd31b9e580f049491d13c16ef954d964" target="_top" xlink:title=" ">
<polygon fill="white" stroke="black" points="416,-196.5 416,-226.5 530,-226.5 530,-196.5 416,-196.5"/>
<text text-anchor="start" x="424" y="-214.5" font-family="Helvetica,sans-Serif" font-size="10.00">Ra::Gui::WindowQt::</text>
<text text-anchor="middle" x="473" y="-203.5" font-family="Helvetica,sans-Serif" font-size="10.00">doneCurrent</text>
</a>
</g>
</g>
<!-- Node17&#45;&gt;Node18 -->
<g id="edge17" class="edge">
<title>Node17&#45;&gt;Node18</title>
<path fill="none" stroke="midnightblue" d="M310.71,-175.57C327.02,-179.53 344.67,-183.75 361,-187.5 375.44,-190.82 390.97,-194.26 405.7,-197.46"/>
<polygon fill="midnightblue" stroke="midnightblue" points="405.24,-200.94 415.75,-199.63 406.72,-194.1 405.24,-200.94"/>
</g>
<!-- Node19 -->
<g id="node19" class="node">
<title>Node19</title>
<g id="a_node19"><a xlink:href="classRa_1_1Gui_1_1WindowQt.html#a78476baacd2df24a260f604d02c8ddc4" target="_top" xlink:title=" ">
<polygon fill="white" stroke="black" points="416,-147.5 416,-177.5 530,-177.5 530,-147.5 416,-147.5"/>
<text text-anchor="start" x="424" y="-165.5" font-family="Helvetica,sans-Serif" font-size="10.00">Ra::Gui::WindowQt::</text>
<text text-anchor="middle" x="473" y="-154.5" font-family="Helvetica,sans-Serif" font-size="10.00">makeCurrent</text>
</a>
</g>
</g>
<!-- Node17&#45;&gt;Node19 -->
<g id="edge18" class="edge">
<title>Node17&#45;&gt;Node19</title>
<path fill="none" stroke="midnightblue" d="M317.51,-161.11C345.46,-161.36 377.78,-161.65 405.61,-161.9"/>
<polygon fill="midnightblue" stroke="midnightblue" points="405.61,-165.4 415.64,-161.99 405.67,-158.4 405.61,-165.4"/>
</g>
<!-- Node17&#45;&gt;Node20 -->
<g id="edge19" class="edge">
<title>Node17&#45;&gt;Node20</title>
<path fill="none" stroke="midnightblue" d="M317.51,-146.21C340.72,-141.29 366.94,-135.74 391.1,-130.63"/>
<polygon fill="midnightblue" stroke="midnightblue" points="391.9,-134.04 400.96,-128.54 390.45,-127.19 391.9,-134.04"/>
</g>
<!-- Node22 -->
<g id="node22" class="node">
<title>Node22</title>
<g id="a_node22"><a xlink:href="classRa_1_1Gui_1_1KeyMappingCallbackManager.html#a918fd8a78af7d6b2d184e573779a5e1f" target="_top" xlink:title=" ">
<polygon fill="white" stroke="black" points="393,-49.5 393,-79.5 553,-79.5 553,-49.5 393,-49.5"/>
<text text-anchor="start" x="401" y="-67.5" font-family="Helvetica,sans-Serif" font-size="10.00">Ra::Gui::KeyMappingCallback</text>
<text text-anchor="middle" x="473" y="-56.5" font-family="Helvetica,sans-Serif" font-size="10.00">Manager::addEventCallback</text>
</a>
</g>
</g>
<!-- Node21&#45;&gt;Node22 -->
<g id="edge22" class="edge">
<title>Node21&#45;&gt;Node22</title>
<path fill="none" stroke="midnightblue" d="M320.55,-48.13C340.3,-50.26 362.02,-52.61 382.71,-54.85"/>
<polygon fill="midnightblue" stroke="midnightblue" points="382.44,-58.34 392.76,-55.93 383.19,-51.38 382.44,-58.34"/>
</g>
<!-- Node23 -->
<g id="node23" class="node">
<title>Node23</title>
<g id="a_node23"><a xlink:href="classRa_1_1Gui_1_1KeyMappingManageable.html#a32756ab3dce798b29ccad350f7c815ec" target="_top" xlink:title=" ">
<polygon fill="white" stroke="black" points="361,-0.5 361,-30.5 585,-30.5 585,-0.5 361,-0.5"/>
<text text-anchor="start" x="369" y="-18.5" font-family="Helvetica,sans-Serif" font-size="10.00">Ra::Gui::KeyMappingManageable</text>
<text text-anchor="middle" x="473" y="-7.5" font-family="Helvetica,sans-Serif" font-size="10.00">&lt; GizmoManager &gt;::configureKeyMapping</text>
</a>
</g>
</g>
<!-- Node21&#45;&gt;Node23 -->
<g id="edge23" class="edge">
<title>Node21&#45;&gt;Node23</title>
<path fill="none" stroke="midnightblue" d="M320.55,-26.22C330.16,-24.93 340.25,-23.67 350.46,-22.46"/>
<polygon fill="midnightblue" stroke="midnightblue" points="351.16,-25.91 360.69,-21.28 350.36,-18.95 351.16,-25.91"/>
</g>
<!-- Node21&#45;&gt;Node23 -->
<g id="edge24" class="edge">
<title>Node21&#45;&gt;Node23</title>
<path fill="none" stroke="midnightblue" d="M320.55,-38.89C341.26,-37 364.16,-34.51 385.73,-31.81"/>
<polygon fill="midnightblue" stroke="midnightblue" points="386.4,-35.26 395.87,-30.52 385.51,-28.31 386.4,-35.26"/>
</g>
</g>
</svg>
        <g id="navigator" transform="translate(0 0)" fill="#404254">
                <rect fill="#f2f5e9" fill-opacity="0.5" stroke="#606060" stroke-width=".5" x="0" y="0" width="60" height="60"/>
                <use id="zoomplus" xlink:href="#zoomPlus" x="17" y="9" onmousedown="handleZoom(evt,'in')"/>
                <use id="zoomminus" xlink:href="#zoomMin" x="42" y="9" onmousedown="handleZoom(evt,'out')"/>
                <use id="reset" xlink:href="#resetDef" x="30" y="36" onmousedown="handleReset()"/>
                <g id="arrowUp" xlink:href="#dirArrow" transform="translate(30 24)" onmousedown="handlePan(0,-1)">
                  <use xlink:href="#rim" fill="#404040">
                        <set attributeName="fill" to="#808080" begin="arrowUp.mouseover" end="arrowUp.mouseout"/>
                  </use>
                  <path fill="none" stroke="white" stroke-width="1.5" d="M0,-3.0v7 M-2.5,-0.5L0,-3.0L2.5,-0.5"/>
                </g>
                <g id="arrowRight" xlink:href="#dirArrow" transform="rotate(90) translate(36 -43)" onmousedown="handlePan(1,0)">
                  <use xlink:href="#rim" fill="#404040">
                        <set attributeName="fill" to="#808080" begin="arrowRight.mouseover" end="arrowRight.mouseout"/>
                  </use>
                  <path fill="none" stroke="white" stroke-width="1.5" d="M0,-3.0v7 M-2.5,-0.5L0,-3.0L2.5,-0.5"/>
                </g>
                <g id="arrowDown" xlink:href="#dirArrow" transform="rotate(180) translate(-30 -48)" onmousedown="handlePan(0,1)">
                  <use xlink:href="#rim" fill="#404040">
                        <set attributeName="fill" to="#808080" begin="arrowDown.mouseover" end="arrowDown.mouseout"/>
                  </use>
                  <path fill="none" stroke="white" stroke-width="1.5" d="M0,-3.0v7 M-2.5,-0.5L0,-3.0L2.5,-0.5"/>
                </g>
                <g id="arrowLeft" xlink:href="#dirArrow" transform="rotate(270) translate(-36 17)" onmousedown="handlePan(-1,0)">
                  <use xlink:href="#rim" fill="#404040">
                        <set attributeName="fill" to="#808080" begin="arrowLeft.mouseover" end="arrowLeft.mouseout"/>
                  </use>
                  <path fill="none" stroke="white" stroke-width="1.5" d="M0,-3.0v7 M-2.5,-0.5L0,-3.0L2.5,-0.5"/>
                </g>
        </g>
        <svg viewBox="0 0 15 15" width="100%" height="30px" preserveAspectRatio="xMaxYMin meet">
         <g id="arrow_out" transform="scale(0.3 0.3)">
          <a xlink:href="classRa_1_1Gui_1_1BaseApplication_a8bcb4912dc4edb9e7c3a05f9697dfc5e_cgraph_org.svg" target="_base">
           <rect id="button" ry="5" rx="5" y="6" x="6" height="38" width="38"
                fill="#f2f5e9" fill-opacity="0.5" stroke="#606060" stroke-width="1.0"/>
           <path id="arrow"
             d="M 11.500037,31.436501 C 11.940474,20.09759 22.043105,11.32322 32.158766,21.979434 L 37.068811,17.246167 C 37.068811,17.246167 37.088388,32 37.088388,32 L 22.160133,31.978069 C 22.160133,31.978069 26.997745,27.140456 26.997745,27.140456 C 18.528582,18.264221 13.291696,25.230495 11.500037,31.436501 z"
             style="fill:#404040;"/>
          </a>
         </g>
        </svg>
</svg>
