<?xml version="1.0" encoding="UTF-8" standalone="no"?>
<!DOCTYPE svg PUBLIC "-//W3C//DTD SVG 1.1//EN"
 "http://www.w3.org/Graphics/SVG/1.1/DTD/svg11.dtd">
<!-- Generated by graphviz version 2.43.0 (0)
 -->
<!-- Title: Ra::Engine::Scene::SkinningComponent::showWeightsType Pages: 1 -->
<svg width="599pt" height="38pt"
 viewBox="0.00 0.00 599.00 38.00" xmlns="http://www.w3.org/2000/svg" xmlns:xlink="http://www.w3.org/1999/xlink">
<g id="graph0" class="graph" transform="scale(1 1) rotate(0) translate(4 34)">
<title>Ra::Engine::Scene::SkinningComponent::showWeightsType</title>
<!-- Node1 -->
<g id="Node000001" class="node">
<title>Node1</title>
<g id="a_Node000001"><a xlink:title="Set the type of skinning weight to display.">
<polygon fill="#999999" stroke="#666666" points="208,-30 0,-30 0,0 208,0 208,-30"/>
<text text-anchor="start" x="8" y="-18" font-family="Helvetica,sans-Serif" font-size="10.00">Ra::Engine::Scene::</text>
<text text-anchor="middle" x="104" y="-7" font-family="Helvetica,sans-Serif" font-size="10.00">SkinningComponent::showWeightsType</text>
</a>
</g>
</g>
<!-- Node2 -->
<g id="Node000002" class="node">
<title>Node2</title>
<g id="a_Node000002"><a xlink:href="classRa_1_1Engine_1_1Scene_1_1SkinningComponent.html#acb0c9f8ee61577b0f8ff4266a2d0033a" target="_top" xlink:title="Toggles display of skinning weights.">
<polygon fill="white" stroke="#666666" points="429,-30 244,-30 244,0 429,0 429,-30"/>
<text text-anchor="start" x="252" y="-18" font-family="Helvetica,sans-Serif" font-size="10.00">Ra::Engine::Scene::</text>
<text text-anchor="middle" x="336.5" y="-7" font-family="Helvetica,sans-Serif" font-size="10.00">SkinningComponent::showWeights</text>
</a>
</g>
</g>
<!-- Node1&#45;&gt;Node2 -->
<g id="edge1_Node000001_Node000002" class="edge">
<title>Node1&#45;&gt;Node2</title>
<g id="a_edge1_Node000001_Node000002"><a xlink:title=" ">
<path fill="none" stroke="#63b8ff" d="M208.11,-15C216.55,-15 225.08,-15 233.5,-15"/>
<polygon fill="#63b8ff" stroke="#63b8ff" points="233.73,-18.5 243.73,-15 233.73,-11.5 233.73,-18.5"/>
</a>
</g>
</g>
<!-- Node3 -->
<g id="Node000003" class="node">
<title>Node3</title>
<g id="a_Node000003"><a xlink:href="classRa_1_1Engine_1_1Scene_1_1Component.html#a32a4bfb4e9b24644d680db3852099ff3" target="_top" xlink:title="Shortcut to access the render object manager.">
<polygon fill="white" stroke="#666666" points="591,-30 465,-30 465,0 591,0 591,-30"/>
<text text-anchor="start" x="473" y="-18" font-family="Helvetica,sans-Serif" font-size="10.00">Ra::Engine::Scene::</text>
<text text-anchor="middle" x="528" y="-7" font-family="Helvetica,sans-Serif" font-size="10.00">Component::getRoMgr</text>
</a>
</g>
</g>
<!-- Node2&#45;&gt;Node3 -->
<g id="edge2_Node000002_Node000003" class="edge">
<title>Node2&#45;&gt;Node3</title>
<g id="a_edge2_Node000002_Node000003"><a xlink:title=" ">
<path fill="none" stroke="#63b8ff" d="M429.2,-15C437.79,-15 446.42,-15 454.81,-15"/>
<polygon fill="#63b8ff" stroke="#63b8ff" points="454.89,-18.5 464.89,-15 454.88,-11.5 454.89,-18.5"/>
</a>
</g>
</g>
</g>
</svg>
