<?xml version="1.0" encoding="UTF-8" standalone="no"?>
<!DOCTYPE svg PUBLIC "-//W3C//DTD SVG 1.1//EN"
 "http://www.w3.org/Graphics/SVG/1.1/DTD/svg11.dtd">
<!-- Generated by graphviz version 2.43.0 (0)
 -->
<!-- Title: CLI::ConfigINI Pages: 1 -->
<!--zoomable 967 -->
<svg id="main" version="1.1" xmlns="http://www.w3.org/2000/svg" xmlns:xlink="http://www.w3.org/1999/xlink" xml:space="preserve" onload="init(evt)">
<style type="text/css"><![CDATA[
.edge:hover path { stroke: red; }
.edge:hover polygon { stroke: red; fill: red; }
]]></style>
<script type="text/javascript"><![CDATA[
var edges = document.getElementsByTagName('g');
if (edges && edges.length) {
  for (var i=0;i<edges.length;i++) {
    if (edges[i].id.substr(0,4)=='edge') {
      edges[i].setAttribute('class','edge');
    }
  }
}
]]></script>
        <defs>
                <circle id="rim" cx="0" cy="0" r="7"/>
                <circle id="rim2" cx="0" cy="0" r="3.5"/>
                <g id="zoomPlus">
                        <use xlink:href="#rim" fill="#404040">
                                <set attributeName="fill" to="#808080" begin="zoomplus.mouseover" end="zoomplus.mouseout"/>
                        </use>
                        <path d="M-4,0h8M0,-4v8" fill="none" stroke="white" stroke-width="1.5" pointer-events="none"/>
                </g>
                <g id="zoomMin">
                        <use xlink:href="#rim" fill="#404040">
                                <set attributeName="fill" to="#808080" begin="zoomminus.mouseover" end="zoomminus.mouseout"/>
                        </use>
                        <path d="M-4,0h8" fill="none" stroke="white" stroke-width="1.5" pointer-events="none"/>
                </g>
                <g id="dirArrow">
                        <path fill="none" stroke="white" stroke-width="1.5" d="M0,-3.0v7 M-2.5,-0.5L0,-3.0L2.5,-0.5"/>
                </g>
               <g id="resetDef">
                       <use xlink:href="#rim2" fill="#404040">
                               <set attributeName="fill" to="#808080" begin="reset.mouseover" end="reset.mouseout"/>
                       </use>
               </g>
        </defs>

<script type="text/javascript">
var viewWidth = 286;
var viewHeight = 967;
var sectionId = 'dynsection-1';
</script>
<script xlink:href="svgpan.js"/>
<svg id="graph" class="graph">
<g id="viewport">
<title>CLI::ConfigINI</title>
<polygon fill="white" stroke="transparent" points="-4,4 -4,-963 281.5,-963 281.5,4 -4,4"/>
<!-- Node1 -->
<g id="node1" class="node">
<title>Node1</title>
<g id="a_node1"><a xlink:title="ConfigINI generates a &quot;standard&quot; INI compliant output.">
<polygon fill="#bfbfbf" stroke="black" points="66.5,-0.5 66.5,-57.5 148.5,-57.5 148.5,-0.5 66.5,-0.5"/>
<text text-anchor="middle" x="107.5" y="-45.5" font-family="Helvetica,sans-Serif" font-size="10.00">CLI::ConfigINI</text>
<polyline fill="none" stroke="black" points="66.5,-38.5 148.5,-38.5 "/>
<text text-anchor="middle" x="107.5" y="-26.5" font-family="Helvetica,sans-Serif" font-size="10.00"> </text>
<polyline fill="none" stroke="black" points="66.5,-19.5 148.5,-19.5 "/>
<text text-anchor="start" x="74.5" y="-7.5" font-family="Helvetica,sans-Serif" font-size="10.00">+ ConfigINI()</text>
</a>
</g>
</g>
<!-- Node2 -->
<g id="node2" class="node">
<title>Node2</title>
<g id="a_node2"><a xlink:href="classCLI_1_1ConfigBase.html" target="_top" xlink:title="This converter works with INI/TOML files; to write INI files use ConfigINI.">
<polygon fill="white" stroke="black" points="52.5,-95.5 52.5,-207.5 162.5,-207.5 162.5,-95.5 52.5,-95.5"/>
<text text-anchor="middle" x="107.5" y="-195.5" font-family="Helvetica,sans-Serif" font-size="10.00">ConfigTOML</text>
<polyline fill="none" stroke="black" points="52.5,-188.5 162.5,-188.5 "/>
<text text-anchor="middle" x="107.5" y="-176.5" font-family="Helvetica,sans-Serif" font-size="10.00"> </text>
<polyline fill="none" stroke="black" points="52.5,-169.5 162.5,-169.5 "/>
<text text-anchor="start" x="60.5" y="-157.5" font-family="Helvetica,sans-Serif" font-size="10.00">+ to_config()</text>
<text text-anchor="start" x="60.5" y="-146.5" font-family="Helvetica,sans-Serif" font-size="10.00">+ from_config()</text>
<text text-anchor="start" x="60.5" y="-135.5" font-family="Helvetica,sans-Serif" font-size="10.00">+ comment()</text>
<text text-anchor="start" x="60.5" y="-124.5" font-family="Helvetica,sans-Serif" font-size="10.00">+ arrayBounds()</text>
<text text-anchor="start" x="60.5" y="-113.5" font-family="Helvetica,sans-Serif" font-size="10.00">+ arrayDelimiter()</text>
<text text-anchor="start" x="60.5" y="-102.5" font-family="Helvetica,sans-Serif" font-size="10.00">+ valueSeparator()</text>
</a>
</g>
</g>
<!-- Node2&#45;&gt;Node1 -->
<g id="edge1" class="edge">
<title>Node2&#45;&gt;Node1</title>
<path fill="none" stroke="midnightblue" d="M107.5,-85.12C107.5,-75.48 107.5,-66.01 107.5,-57.72"/>
<polygon fill="none" stroke="midnightblue" points="104,-85.19 107.5,-95.19 111,-85.19 104,-85.19"/>
</g>
<!-- Node3 -->
<g id="node3" class="node">
<title>Node3</title>
<g id="a_node3"><a xlink:href="classCLI_1_1Config.html" target="_top" xlink:title="This class provides a converter for configuration files.">
<polygon fill="white" stroke="black" points="19,-299.5 19,-400.5 112,-400.5 112,-299.5 19,-299.5"/>
<text text-anchor="middle" x="65.5" y="-388.5" font-family="Helvetica,sans-Serif" font-size="10.00">CLI::Config</text>
<polyline fill="none" stroke="black" points="19,-381.5 112,-381.5 "/>
<text text-anchor="middle" x="65.5" y="-369.5" font-family="Helvetica,sans-Serif" font-size="10.00"> </text>
<polyline fill="none" stroke="black" points="19,-362.5 112,-362.5 "/>
<text text-anchor="start" x="27" y="-350.5" font-family="Helvetica,sans-Serif" font-size="10.00">+ to_config()</text>
<text text-anchor="start" x="27" y="-339.5" font-family="Helvetica,sans-Serif" font-size="10.00">+ from_config()</text>
<text text-anchor="start" x="27" y="-328.5" font-family="Helvetica,sans-Serif" font-size="10.00">+ to_flag()</text>
<text text-anchor="start" x="27" y="-317.5" font-family="Helvetica,sans-Serif" font-size="10.00">+ from_file()</text>
<text text-anchor="start" x="27" y="-306.5" font-family="Helvetica,sans-Serif" font-size="10.00">+ ~Config()</text>
</a>
</g>
</g>
<!-- Node3&#45;&gt;Node2 -->
<g id="edge2" class="edge">
<title>Node3&#45;&gt;Node2</title>
<path fill="none" stroke="midnightblue" d="M78.26,-289.31C83.81,-263.33 90.28,-233.06 95.72,-207.61"/>
<polygon fill="none" stroke="midnightblue" points="74.77,-288.9 76.1,-299.41 81.61,-290.37 74.77,-288.9"/>
</g>
<!-- Node4 -->
<g id="node4" class="node">
<title>Node4</title>
<g id="a_node4"><a xlink:title=" ">
<polygon fill="white" stroke="#bfbfbf" points="0,-448.5 0,-516.5 131,-516.5 131,-448.5 0,-448.5"/>
<text text-anchor="start" x="8" y="-504.5" font-family="Helvetica,sans-Serif" font-size="10.00">std::vector&lt; CLI::Config</text>
<text text-anchor="middle" x="65.5" y="-493.5" font-family="Helvetica,sans-Serif" font-size="10.00">Item &gt;</text>
<polyline fill="none" stroke="#bfbfbf" points="0,-486.5 131,-486.5 "/>
<text text-anchor="middle" x="65.5" y="-474.5" font-family="Helvetica,sans-Serif" font-size="10.00"> </text>
<polyline fill="none" stroke="#bfbfbf" points="0,-467.5 131,-467.5 "/>
<text text-anchor="middle" x="65.5" y="-455.5" font-family="Helvetica,sans-Serif" font-size="10.00"> </text>
</a>
</g>
</g>
<!-- Node4&#45;&gt;Node3 -->
<g id="edge3" class="edge">
<title>Node4&#45;&gt;Node3</title>
<path fill="none" stroke="#404040" d="M65.5,-448.23C65.5,-437.47 65.5,-425.17 65.5,-413.02"/>
<polygon fill="none" stroke="#404040" points="65.5,-412.98 61.5,-406.98 65.5,-400.98 69.5,-406.98 65.5,-412.98"/>
<text text-anchor="middle" x="85.5" y="-422" font-family="Helvetica,sans-Serif" font-size="10.00"> #items</text>
</g>
<!-- Node5 -->
<g id="node5" class="node">
<title>Node5</title>
<g id="a_node5"><a xlink:href="structCLI_1_1ConfigItem.html" target="_top" xlink:title="Holds values to load into Options.">
<polygon fill="white" stroke="black" points="127,-564.5 127,-621.5 218,-621.5 218,-564.5 127,-564.5"/>
<text text-anchor="middle" x="172.5" y="-609.5" font-family="Helvetica,sans-Serif" font-size="10.00">CLI::ConfigItem</text>
<polyline fill="none" stroke="black" points="127,-602.5 218,-602.5 "/>
<text text-anchor="middle" x="172.5" y="-590.5" font-family="Helvetica,sans-Serif" font-size="10.00"> </text>
<polyline fill="none" stroke="black" points="127,-583.5 218,-583.5 "/>
<text text-anchor="start" x="135" y="-571.5" font-family="Helvetica,sans-Serif" font-size="10.00">+ fullname()</text>
</a>
</g>
</g>
<!-- Node5&#45;&gt;Node4 -->
<g id="edge4" class="edge">
<title>Node5&#45;&gt;Node4</title>
<path fill="none" stroke="#404040" d="M145.22,-564.34C133.55,-552.51 119.67,-538.43 106.78,-525.36"/>
<polygon fill="none" stroke="#404040" points="106.49,-525.06 99.43,-523.6 98.06,-516.52 105.12,-517.98 106.49,-525.06"/>
<text text-anchor="middle" x="153.5" y="-538" font-family="Helvetica,sans-Serif" font-size="10.00"> +elements</text>
</g>
<!-- Node6 -->
<g id="node6" class="node">
<title>Node6</title>
<g id="a_node6"><a xlink:title="STL class.">
<polygon fill="white" stroke="#bfbfbf" points="156,-785.5 156,-842.5 221,-842.5 221,-785.5 156,-785.5"/>
<text text-anchor="middle" x="188.5" y="-830.5" font-family="Helvetica,sans-Serif" font-size="10.00">std::string</text>
<polyline fill="none" stroke="#bfbfbf" points="156,-823.5 221,-823.5 "/>
<text text-anchor="middle" x="188.5" y="-811.5" font-family="Helvetica,sans-Serif" font-size="10.00"> </text>
<polyline fill="none" stroke="#bfbfbf" points="156,-804.5 221,-804.5 "/>
<text text-anchor="middle" x="188.5" y="-792.5" font-family="Helvetica,sans-Serif" font-size="10.00"> </text>
</a>
</g>
</g>
<!-- Node6&#45;&gt;Node5 -->
<g id="edge5" class="edge">
<title>Node6&#45;&gt;Node5</title>
<path fill="none" stroke="#404040" d="M219.51,-785.33C224,-779.74 227.96,-773.55 230.5,-767 235.52,-754.05 255.65,-819.71 226.5,-680 222.62,-661.41 221.11,-656.37 211.5,-640 209.76,-637.04 207.83,-634.08 205.78,-631.17"/>
<polygon fill="none" stroke="#404040" points="205.73,-631.11 198.91,-628.75 198.47,-621.55 205.28,-623.91 205.73,-631.11"/>
<text text-anchor="middle" x="257.5" y="-706.5" font-family="Helvetica,sans-Serif" font-size="10.00"> +name</text>
</g>
<!-- Node8 -->
<g id="node8" class="node">
<title>Node8</title>
<g id="a_node8"><a xlink:title=" ">
<polygon fill="white" stroke="#bfbfbf" points="77.5,-680.5 77.5,-737.5 217.5,-737.5 217.5,-680.5 77.5,-680.5"/>
<text text-anchor="middle" x="147.5" y="-725.5" font-family="Helvetica,sans-Serif" font-size="10.00">std::vector&lt; std::string &gt;</text>
<polyline fill="none" stroke="#bfbfbf" points="77.5,-718.5 217.5,-718.5 "/>
<text text-anchor="middle" x="147.5" y="-706.5" font-family="Helvetica,sans-Serif" font-size="10.00"> </text>
<polyline fill="none" stroke="#bfbfbf" points="77.5,-699.5 217.5,-699.5 "/>
<text text-anchor="middle" x="147.5" y="-687.5" font-family="Helvetica,sans-Serif" font-size="10.00"> </text>
</a>
</g>
</g>
<!-- Node6&#45;&gt;Node8 -->
<g id="edge8" class="edge">
<title>Node6&#45;&gt;Node8</title>
<path fill="none" stroke="#404040" d="M177.51,-785.4C173.05,-774.2 167.83,-761.06 162.99,-748.92"/>
<polygon fill="none" stroke="#404040" points="162.96,-748.83 157.02,-744.73 158.52,-737.68 164.45,-741.77 162.96,-748.83"/>
<text text-anchor="middle" x="197.5" y="-759" font-family="Helvetica,sans-Serif" font-size="10.00"> +elements</text>
</g>
<!-- Node7 -->
<g id="node7" class="node">
<title>Node7</title>
<g id="a_node7"><a xlink:title="STL class.">
<polygon fill="white" stroke="#bfbfbf" points="136.5,-890.5 136.5,-958.5 240.5,-958.5 240.5,-890.5 136.5,-890.5"/>
<text text-anchor="start" x="144.5" y="-946.5" font-family="Helvetica,sans-Serif" font-size="10.00">std::basic_string&lt;</text>
<text text-anchor="middle" x="188.5" y="-935.5" font-family="Helvetica,sans-Serif" font-size="10.00"> char &gt;</text>
<polyline fill="none" stroke="#bfbfbf" points="136.5,-928.5 240.5,-928.5 "/>
<text text-anchor="middle" x="188.5" y="-916.5" font-family="Helvetica,sans-Serif" font-size="10.00"> </text>
<polyline fill="none" stroke="#bfbfbf" points="136.5,-909.5 240.5,-909.5 "/>
<text text-anchor="middle" x="188.5" y="-897.5" font-family="Helvetica,sans-Serif" font-size="10.00"> </text>
</a>
</g>
</g>
<!-- Node7&#45;&gt;Node6 -->
<g id="edge6" class="edge">
<title>Node7&#45;&gt;Node6</title>
<path fill="none" stroke="midnightblue" d="M188.5,-880.06C188.5,-867.51 188.5,-854.15 188.5,-842.83"/>
<polygon fill="none" stroke="midnightblue" points="185,-880.36 188.5,-890.36 192,-880.36 185,-880.36"/>
</g>
<!-- Node8&#45;&gt;Node5 -->
<g id="edge7" class="edge">
<title>Node8&#45;&gt;Node5</title>
<path fill="none" stroke="#404040" d="M153.55,-680.4C156.63,-666.36 160.43,-649.05 163.81,-633.61"/>
<polygon fill="none" stroke="#404040" points="163.85,-633.46 161.22,-626.74 166.42,-621.74 169.04,-628.45 163.85,-633.46"/>
<text text-anchor="middle" x="184.5" y="-654" font-family="Helvetica,sans-Serif" font-size="10.00"> +inputs</text>
<text text-anchor="middle" x="184.5" y="-643" font-family="Helvetica,sans-Serif" font-size="10.00">+parents</text>
</g>
<!-- Node9 -->
<g id="node9" class="node">
<title>Node9</title>
<g id="a_node9"><a xlink:title="STL class.">
<polygon fill="white" stroke="#bfbfbf" points="25,-785.5 25,-842.5 122,-842.5 122,-785.5 25,-785.5"/>
<text text-anchor="middle" x="73.5" y="-830.5" font-family="Helvetica,sans-Serif" font-size="10.00">std::vector&lt; T &gt;</text>
<polyline fill="none" stroke="#bfbfbf" points="25,-823.5 122,-823.5 "/>
<text text-anchor="middle" x="73.5" y="-811.5" font-family="Helvetica,sans-Serif" font-size="10.00"> </text>
<polyline fill="none" stroke="#bfbfbf" points="25,-804.5 122,-804.5 "/>
<text text-anchor="middle" x="73.5" y="-792.5" font-family="Helvetica,sans-Serif" font-size="10.00"> </text>
</a>
</g>
</g>
<!-- Node9&#45;&gt;Node4 -->
<g id="edge11" class="edge">
<title>Node9&#45;&gt;Node4</title>
<path fill="none" stroke="orange" d="M67.07,-775.1C62.25,-744.64 56.05,-700.71 53.5,-662 50.16,-611.33 55.98,-552.57 60.62,-516.73"/>
<polygon fill="orange" stroke="orange" points="63.67,-775.96 68.71,-785.28 70.58,-774.85 63.67,-775.96"/>
<text text-anchor="middle" x="103.5" y="-648.5" font-family="Helvetica,sans-Serif" font-size="10.00"> &lt; CLI::ConfigItem &gt;</text>
</g>
<!-- Node9&#45;&gt;Node8 -->
<g id="edge9" class="edge">
<title>Node9&#45;&gt;Node8</title>
<path fill="none" stroke="orange" d="M78.88,-775.47C80.9,-768.65 83.68,-761.85 87.5,-756 91.88,-749.3 97.58,-743.18 103.72,-737.74"/>
<polygon fill="orange" stroke="orange" points="75.43,-774.83 76.43,-785.38 82.23,-776.51 75.43,-774.83"/>
<text text-anchor="middle" x="125" y="-759" font-family="Helvetica,sans-Serif" font-size="10.00"> &lt; std::string &gt;</text>
</g>
<!-- Node10 -->
<g id="node10" class="node">
<title>Node10</title>
<g id="a_node10"><a xlink:title=" ">
<polygon fill="white" stroke="#bfbfbf" points="59,-896 59,-953 88,-953 88,-896 59,-896"/>
<text text-anchor="middle" x="73.5" y="-941" font-family="Helvetica,sans-Serif" font-size="10.00">T</text>
<polyline fill="none" stroke="#bfbfbf" points="59,-934 88,-934 "/>
<text text-anchor="middle" x="73.5" y="-922" font-family="Helvetica,sans-Serif" font-size="10.00"> </text>
<polyline fill="none" stroke="#bfbfbf" points="59,-915 88,-915 "/>
<text text-anchor="middle" x="73.5" y="-903" font-family="Helvetica,sans-Serif" font-size="10.00"> </text>
</a>
</g>
</g>
<!-- Node10&#45;&gt;Node9 -->
<g id="edge10" class="edge">
<title>Node10&#45;&gt;Node9</title>
<path fill="none" stroke="#404040" d="M73.5,-895.84C73.5,-883.34 73.5,-868.34 73.5,-854.68"/>
<polygon fill="none" stroke="#404040" points="73.5,-854.61 69.5,-848.61 73.5,-842.61 77.5,-848.61 73.5,-854.61"/>
<text text-anchor="middle" x="102.5" y="-864" font-family="Helvetica,sans-Serif" font-size="10.00"> +elements</text>
</g>
<!-- Node11 -->
<g id="node11" class="node">
<title>Node11</title>
<g id="a_node11"><a xlink:href="classchar.html" target="_top" xlink:title=" ">
<polygon fill="white" stroke="black" points="130.5,-321.5 130.5,-378.5 168.5,-378.5 168.5,-321.5 130.5,-321.5"/>
<text text-anchor="middle" x="149.5" y="-366.5" font-family="Helvetica,sans-Serif" font-size="10.00">char</text>
<polyline fill="none" stroke="black" points="130.5,-359.5 168.5,-359.5 "/>
<text text-anchor="middle" x="149.5" y="-347.5" font-family="Helvetica,sans-Serif" font-size="10.00"> </text>
<polyline fill="none" stroke="black" points="130.5,-340.5 168.5,-340.5 "/>
<text text-anchor="middle" x="149.5" y="-328.5" font-family="Helvetica,sans-Serif" font-size="10.00"> </text>
</a>
</g>
</g>
<!-- Node11&#45;&gt;Node2 -->
<g id="edge12" class="edge">
<title>Node11&#45;&gt;Node2</title>
<path fill="none" stroke="#404040" d="M143.57,-321.26C137.95,-294.95 129.28,-254.39 121.85,-219.62"/>
<polygon fill="none" stroke="#404040" points="121.79,-219.34 116.62,-214.31 119.28,-207.6 124.44,-212.63 121.79,-219.34"/>
<text text-anchor="middle" x="175.5" y="-273" font-family="Helvetica,sans-Serif" font-size="10.00"> #arrayStart</text>
<text text-anchor="middle" x="175.5" y="-262" font-family="Helvetica,sans-Serif" font-size="10.00">#valueDelimiter</text>
<text text-anchor="middle" x="175.5" y="-251" font-family="Helvetica,sans-Serif" font-size="10.00">#commentChar</text>
<text text-anchor="middle" x="175.5" y="-240" font-family="Helvetica,sans-Serif" font-size="10.00">#arraySeparator</text>
<text text-anchor="middle" x="175.5" y="-229" font-family="Helvetica,sans-Serif" font-size="10.00">#arrayEnd</text>
</g>
</g>
</svg>
        <g id="navigator" transform="translate(0 0)" fill="#404254">
                <rect fill="#f2f5e9" fill-opacity="0.5" stroke="#606060" stroke-width=".5" x="0" y="0" width="60" height="60"/>
                <use id="zoomplus" xlink:href="#zoomPlus" x="17" y="9" onmousedown="handleZoom(evt,'in')"/>
                <use id="zoomminus" xlink:href="#zoomMin" x="42" y="9" onmousedown="handleZoom(evt,'out')"/>
                <use id="reset" xlink:href="#resetDef" x="30" y="36" onmousedown="handleReset()"/>
                <g id="arrowUp" xlink:href="#dirArrow" transform="translate(30 24)" onmousedown="handlePan(0,-1)">
                  <use xlink:href="#rim" fill="#404040">
                        <set attributeName="fill" to="#808080" begin="arrowUp.mouseover" end="arrowUp.mouseout"/>
                  </use>
                  <path fill="none" stroke="white" stroke-width="1.5" d="M0,-3.0v7 M-2.5,-0.5L0,-3.0L2.5,-0.5"/>
                </g>
                <g id="arrowRight" xlink:href="#dirArrow" transform="rotate(90) translate(36 -43)" onmousedown="handlePan(1,0)">
                  <use xlink:href="#rim" fill="#404040">
                        <set attributeName="fill" to="#808080" begin="arrowRight.mouseover" end="arrowRight.mouseout"/>
                  </use>
                  <path fill="none" stroke="white" stroke-width="1.5" d="M0,-3.0v7 M-2.5,-0.5L0,-3.0L2.5,-0.5"/>
                </g>
                <g id="arrowDown" xlink:href="#dirArrow" transform="rotate(180) translate(-30 -48)" onmousedown="handlePan(0,1)">
                  <use xlink:href="#rim" fill="#404040">
                        <set attributeName="fill" to="#808080" begin="arrowDown.mouseover" end="arrowDown.mouseout"/>
                  </use>
                  <path fill="none" stroke="white" stroke-width="1.5" d="M0,-3.0v7 M-2.5,-0.5L0,-3.0L2.5,-0.5"/>
                </g>
                <g id="arrowLeft" xlink:href="#dirArrow" transform="rotate(270) translate(-36 17)" onmousedown="handlePan(-1,0)">
                  <use xlink:href="#rim" fill="#404040">
                        <set attributeName="fill" to="#808080" begin="arrowLeft.mouseover" end="arrowLeft.mouseout"/>
                  </use>
                  <path fill="none" stroke="white" stroke-width="1.5" d="M0,-3.0v7 M-2.5,-0.5L0,-3.0L2.5,-0.5"/>
                </g>
        </g>
        <svg viewBox="0 0 15 15" width="100%" height="30px" preserveAspectRatio="xMaxYMin meet">
         <g id="arrow_out" transform="scale(0.3 0.3)">
          <a xlink:href="classCLI_1_1ConfigINI__coll__graph_org.svg" target="_base">
           <rect id="button" ry="5" rx="5" y="6" x="6" height="38" width="38"
                fill="#f2f5e9" fill-opacity="0.5" stroke="#606060" stroke-width="1.0"/>
           <path id="arrow"
             d="M 11.500037,31.436501 C 11.940474,20.09759 22.043105,11.32322 32.158766,21.979434 L 37.068811,17.246167 C 37.068811,17.246167 37.088388,32 37.088388,32 L 22.160133,31.978069 C 22.160133,31.978069 26.997745,27.140456 26.997745,27.140456 C 18.528582,18.264221 13.291696,25.230495 11.500037,31.436501 z"
             style="fill:#404040;"/>
          </a>
         </g>
        </svg>
</svg>
