<?xml version="1.0" encoding="UTF-8" standalone="no"?>
<!DOCTYPE svg PUBLIC "-//W3C//DTD SVG 1.1//EN"
 "http://www.w3.org/Graphics/SVG/1.1/DTD/svg11.dtd">
<!-- Generated by graphviz version 2.43.0 (0)
 -->
<!-- Title: Ra::Engine::Rendering::Renderer::initialize Pages: 1 -->
<!--zoomable 323 -->

<svg id="main" version="1.1" xmlns="http://www.w3.org/2000/svg" xmlns:xlink="http://www.w3.org/1999/xlink" xml:space="preserve" onload="init(evt)">
<style type="text/css"><![CDATA[
.node, .edge {opacity: 0.7;}
.node.selected, .edge.selected {opacity: 1;}
.edge:hover path { stroke: red; }
.edge:hover polygon { stroke: red; fill: red; }
]]></style>

<defs>
  <circle id="rim" cx="0" cy="0" r="7"/>
  <circle id="rim2" cx="0" cy="0" r="3.5"/>
  <g id="zoomPlus">
    <use xlink:href="#rim" fill="#404040"><set attributeName="fill" to="#808080" begin="zoomplus.mouseover" end="zoomplus.mouseout"/></use>
    <path d="M-4,0h8M0,-4v8" fill="none" stroke="white" stroke-width="1.5" pointer-events="none"/>
  </g>
  <g id="zoomMin">
    <use xlink:href="#rim" fill="#404040"><set attributeName="fill" to="#808080" begin="zoomminus.mouseover" end="zoomminus.mouseout"/></use>
    <path d="M-4,0h8" fill="none" stroke="white" stroke-width="1.5" pointer-events="none"/>
  </g>
  <g id="arrowUp" transform="translate(30 24)">
    <use xlink:href="#rim"/>
    <path pointer-events="none" fill="none" stroke="white" stroke-width="1.5" d="M0,-3.0v7 M-2.5,-0.5L0,-3.0L2.5,-0.5"/>
  </g>
  <g id="arrowRight" transform="rotate(90) translate(36 -43)">
    <use xlink:href="#rim"/>
    <path pointer-events="none" fill="none" stroke="white" stroke-width="1.5" d="M0,-3.0v7 M-2.5,-0.5L0,-3.0L2.5,-0.5"/>
  </g>
  <g id="arrowDown" transform="rotate(180) translate(-30 -48)">
    <use xlink:href="#rim"/>
    <path pointer-events="none" fill="none" stroke="white" stroke-width="1.5" d="M0,-3.0v7 M-2.5,-0.5L0,-3.0L2.5,-0.5"/>
  </g>
  <g id="arrowLeft" transform="rotate(270) translate(-36 17)">
    <use xlink:href="#rim"/>
    <path pointer-events="none" fill="none" stroke="white" stroke-width="1.5" d="M0,-3.0v7 M-2.5,-0.5L0,-3.0L2.5,-0.5"/>
  </g>
  <g id="resetDef">
    <use xlink:href="#rim2" fill="#404040"><set attributeName="fill" to="#808080" begin="reset.mouseover" end="reset.mouseout"/></use>
  </g>
</defs>
<script type="application/ecmascript">
var viewWidth = 717;
var viewHeight = 323;
var sectionId = 'dynsection-6';
</script>
<script type="application/ecmascript" xlink:href="svg.min.js"/>
<svg id="graph" class="graph">
<g id="viewport">
<title>Ra::Engine::Rendering::Renderer::initialize</title>
<!-- Node1 -->
<g id="Node000001" class="node">
<title>Node1</title>
<g id="a_Node000001"><a xlink:title="Initialize renderer.">
<polygon fill="#999999" stroke="#666666" points="124,-161 0,-161 0,-131 124,-131 124,-161"/>
<text text-anchor="start" x="8" y="-149" font-family="Helvetica,sans-Serif" font-size="10.00">Ra::Engine::Rendering</text>
<text text-anchor="middle" x="62" y="-138" font-family="Helvetica,sans-Serif" font-size="10.00">::Renderer::initialize</text>
</a>
</g>
</g>
<!-- Node2 -->
<g id="Node000002" class="node">
<title>Node2</title>
<g id="a_Node000002"><a xlink:href="namespaceRa_1_1Engine_1_1Data_1_1ShaderConfigurationFactory.html#a00918835250fbd8bbe4deae59ecd6dde" target="_top" xlink:title=" ">
<polygon fill="white" stroke="#666666" points="328.5,-298.5 191.5,-298.5 191.5,-257.5 328.5,-257.5 328.5,-298.5"/>
<text text-anchor="start" x="199.5" y="-286.5" font-family="Helvetica,sans-Serif" font-size="10.00">Ra::Engine::Data::Shader</text>
<text text-anchor="start" x="199.5" y="-275.5" font-family="Helvetica,sans-Serif" font-size="10.00">ConfigurationFactory::</text>
<text text-anchor="middle" x="260" y="-264.5" font-family="Helvetica,sans-Serif" font-size="10.00">addConfiguration</text>
</a>
</g>
</g>
<!-- Node1&#45;&gt;Node2 -->
<g id="edge1_Node000001_Node000002" class="edge">
<title>Node1&#45;&gt;Node2</title>
<g id="a_edge1_Node000001_Node000002"><a xlink:title=" ">
<path fill="none" stroke="#63b8ff" d="M75.31,-161.3C92.41,-181.69 125.21,-217.79 160,-240 167.69,-244.91 176.12,-249.34 184.7,-253.3"/>
<polygon fill="#63b8ff" stroke="#63b8ff" points="183.49,-256.59 194.06,-257.41 186.31,-250.18 183.49,-256.59"/>
</a>
</g>
</g>
<!-- Node4 -->
<g id="Node000004" class="node">
<title>Node4</title>
<g id="a_Node000004"><a xlink:href="classRa_1_1Engine_1_1Data_1_1ShaderConfiguration.html#a42ec93f4772c0455149a81e9d8502d43" target="_top" xlink:title=" ">
<polygon fill="white" stroke="#666666" points="330,-231 190,-231 190,-201 330,-201 330,-231"/>
<text text-anchor="start" x="198" y="-219" font-family="Helvetica,sans-Serif" font-size="10.00">Ra::Engine::Data::Shader</text>
<text text-anchor="middle" x="260" y="-208" font-family="Helvetica,sans-Serif" font-size="10.00">Configuration::addShader</text>
</a>
</g>
</g>
<!-- Node1&#45;&gt;Node4 -->
<g id="edge3_Node000001_Node000004" class="edge">
<title>Node1&#45;&gt;Node4</title>
<g id="a_edge3_Node000001_Node000004"><a xlink:title=" ">
<path fill="none" stroke="#63b8ff" d="M90.79,-161.05C109.84,-170.9 135.93,-183.48 160,-192 166.38,-194.26 173.07,-196.38 179.84,-198.36"/>
<polygon fill="#63b8ff" stroke="#63b8ff" points="179.19,-201.81 189.76,-201.14 181.08,-195.07 179.19,-201.81"/>
</a>
</g>
</g>
<!-- Node5 -->
<g id="Node000005" class="node">
<title>Node5</title>
<g id="a_Node000005"><a xlink:href="classRa_1_1Engine_1_1Data_1_1ShaderProgramManager.html#a4b346bfdb26bd4c0dcb3372f6e6b1dad" target="_top" xlink:title=" ">
<polygon fill="white" stroke="#666666" points="360,-183 160,-183 160,-153 360,-153 360,-183"/>
<text text-anchor="start" x="168" y="-171" font-family="Helvetica,sans-Serif" font-size="10.00">Ra::Engine::Data::Shader</text>
<text text-anchor="middle" x="260" y="-160" font-family="Helvetica,sans-Serif" font-size="10.00">ProgramManager::addShaderProgram</text>
</a>
</g>
</g>
<!-- Node1&#45;&gt;Node5 -->
<g id="edge4_Node000001_Node000005" class="edge">
<title>Node1&#45;&gt;Node5</title>
<g id="a_edge4_Node000001_Node000005"><a xlink:title=" ">
<path fill="none" stroke="#63b8ff" d="M124.21,-152.87C132.36,-153.79 140.91,-154.75 149.59,-155.72"/>
<polygon fill="#63b8ff" stroke="#63b8ff" points="149.48,-159.23 159.81,-156.87 150.26,-152.27 149.48,-159.23"/>
</a>
</g>
</g>
<!-- Node10 -->
<g id="Node000010" class="node">
<title>Node10</title>
<g id="a_Node000010"><a target="_blank" xlink:href="http://en.cppreference.com/w/cpp/utility/move.html#" xlink:title=" ">
<polygon fill="white" stroke="#666666" points="697,-119.5 632,-119.5 632,-100.5 697,-100.5 697,-119.5"/>
<text text-anchor="middle" x="664.5" y="-107.5" font-family="Helvetica,sans-Serif" font-size="10.00">std::move</text>
</a>
</g>
</g>
<!-- Node1&#45;&gt;Node10 -->
<g id="edge14_Node000001_Node000010" class="edge">
<title>Node1&#45;&gt;Node10</title>
<g id="a_edge14_Node000001_Node000010"><a xlink:title=" ">
<path fill="none" stroke="#63b8ff" d="M124.16,-142.33C246.26,-135.01 517.4,-118.76 621.59,-112.51"/>
<polygon fill="#63b8ff" stroke="#63b8ff" points="621.95,-116 631.72,-111.91 621.53,-109.01 621.95,-116"/>
</a>
</g>
</g>
<!-- Node12 -->
<g id="Node000012" class="node">
<title>Node12</title>
<g id="a_Node000012"><a xlink:href="classRa_1_1Engine_1_1Rendering_1_1Renderer.html#ab14ff49e794cd718b77db013c9fae556" target="_top" xlink:title="initializeInternal Initialize the renderer dependant resources.">
<polygon fill="white" stroke="#666666" points="336,-78 184,-78 184,-48 336,-48 336,-78"/>
<text text-anchor="start" x="192" y="-66" font-family="Helvetica,sans-Serif" font-size="10.00">Ra::Engine::Rendering</text>
<text text-anchor="middle" x="260" y="-55" font-family="Helvetica,sans-Serif" font-size="10.00">::Renderer::initializeInternal</text>
</a>
</g>
</g>
<!-- Node1&#45;&gt;Node12 -->
<g id="edge13_Node000001_Node000012" class="edge">
<title>Node1&#45;&gt;Node12</title>
<g id="a_edge13_Node000001_Node000012"><a xlink:title=" ">
<path fill="none" stroke="#63b8ff" d="M86.57,-130.92C105.76,-119.12 133.86,-102.94 160,-92 169.51,-88.02 179.76,-84.36 189.92,-81.08"/>
<polygon fill="#63b8ff" stroke="#63b8ff" points="191.11,-84.37 199.62,-78.05 189.03,-77.69 191.11,-84.37"/>
</a>
</g>
</g>
<!-- Node13 -->
<g id="Node000013" class="node">
<title>Node13</title>
<g id="a_Node000013"><a xlink:href="classRa_1_1Engine_1_1Rendering_1_1Renderer.html#a314e31247fa616d1cbb02143cd42019f" target="_top" xlink:title="Resize the viewport and all the screen textures, fbos. This function must be overrided as soon as som...">
<polygon fill="white" stroke="#666666" points="322,-30 198,-30 198,0 322,0 322,-30"/>
<text text-anchor="start" x="206" y="-18" font-family="Helvetica,sans-Serif" font-size="10.00">Ra::Engine::Rendering</text>
<text text-anchor="middle" x="260" y="-7" font-family="Helvetica,sans-Serif" font-size="10.00">::Renderer::resize</text>
</a>
</g>
</g>
<!-- Node1&#45;&gt;Node13 -->
<g id="edge15_Node000001_Node000013" class="edge">
<title>Node1&#45;&gt;Node13</title>
<g id="a_edge15_Node000001_Node000013"><a xlink:title=" ">
<path fill="none" stroke="#63b8ff" d="M72.29,-130.96C87.58,-107.53 120.34,-62.57 160,-39 168.61,-33.88 178.25,-29.86 188.05,-26.69"/>
<polygon fill="#63b8ff" stroke="#63b8ff" points="189.27,-29.98 197.87,-23.8 187.29,-23.26 189.27,-29.98"/>
</a>
</g>
</g>
<!-- Node3 -->
<g id="Node000003" class="node">
<title>Node3</title>
<g id="a_Node000003"><a target="_blank" xlink:href="http://en.cppreference.com/w/cpp/string/basic_string/empty.html#" xlink:title=" ">
<polygon fill="white" stroke="#666666" points="541.5,-314.5 438.5,-314.5 438.5,-295.5 541.5,-295.5 541.5,-314.5"/>
<text text-anchor="middle" x="490" y="-302.5" font-family="Helvetica,sans-Serif" font-size="10.00">std::string::empty</text>
</a>
</g>
</g>
<!-- Node2&#45;&gt;Node3 -->
<g id="edge2_Node000002_Node000003" class="edge">
<title>Node2&#45;&gt;Node3</title>
<g id="a_edge2_Node000002_Node000003"><a xlink:title=" ">
<path fill="none" stroke="#63b8ff" d="M328.79,-286.03C360.4,-289.77 397.71,-294.19 428.37,-297.82"/>
<polygon fill="#63b8ff" stroke="#63b8ff" points="428.15,-301.32 438.49,-299.02 428.97,-294.37 428.15,-301.32"/>
</a>
</g>
</g>
<!-- Node6 -->
<g id="Node000006" class="node">
<title>Node6</title>
<g id="a_Node000006"><a xlink:href="classRa_1_1Engine_1_1Data_1_1ShaderProgramManager.html#ae775537f28c1b2f538babc04d315d494" target="_top" xlink:title=" ">
<polygon fill="white" stroke="#666666" points="584,-202 396,-202 396,-172 584,-172 584,-202"/>
<text text-anchor="start" x="404" y="-190" font-family="Helvetica,sans-Serif" font-size="10.00">Ra::Engine::Data::Shader</text>
<text text-anchor="middle" x="490" y="-179" font-family="Helvetica,sans-Serif" font-size="10.00">ProgramManager::addNamedString</text>
</a>
</g>
</g>
<!-- Node5&#45;&gt;Node6 -->
<g id="edge5_Node000005_Node000006" class="edge">
<title>Node5&#45;&gt;Node6</title>
<g id="a_edge5_Node000005_Node000006"><a xlink:title=" ">
<path fill="none" stroke="#63b8ff" d="M360.01,-176.25C368.56,-176.96 377.23,-177.69 385.81,-178.4"/>
<polygon fill="#63b8ff" stroke="#63b8ff" points="385.58,-181.89 395.84,-179.24 386.16,-174.92 385.58,-181.89"/>
</a>
</g>
</g>
<!-- Node7 -->
<g id="Node000007" class="node">
<title>Node7</title>
<g id="a_Node000007"><a target="_blank" xlink:href="http://en.cppreference.com/w/cpp/container/map/end.html#" xlink:title=" ">
<polygon fill="white" stroke="#666666" points="706,-156.5 623,-156.5 623,-137.5 706,-137.5 706,-156.5"/>
<text text-anchor="middle" x="664.5" y="-144.5" font-family="Helvetica,sans-Serif" font-size="10.00">std::map::end</text>
</a>
</g>
</g>
<!-- Node5&#45;&gt;Node7 -->
<g id="edge11_Node000005_Node000007" class="edge">
<title>Node5&#45;&gt;Node7</title>
<g id="a_edge11_Node000005_Node000007"><a xlink:title=" ">
<path fill="none" stroke="#63b8ff" d="M360.24,-162.82C440.28,-158.65 549.59,-152.94 612.76,-149.65"/>
<polygon fill="#63b8ff" stroke="#63b8ff" points="613.06,-153.14 622.87,-149.12 612.7,-146.15 613.06,-153.14"/>
</a>
</g>
</g>
<!-- Node8 -->
<g id="Node000008" class="node">
<title>Node8</title>
<g id="a_Node000008"><a target="_blank" xlink:href="http://en.cppreference.com/w/cpp/container/map/find.html#" xlink:title=" ">
<polygon fill="white" stroke="#666666" points="706,-236.5 623,-236.5 623,-217.5 706,-217.5 706,-236.5"/>
<text text-anchor="middle" x="664.5" y="-224.5" font-family="Helvetica,sans-Serif" font-size="10.00">std::map::find</text>
</a>
</g>
</g>
<!-- Node5&#45;&gt;Node8 -->
<g id="edge12_Node000005_Node000008" class="edge">
<title>Node5&#45;&gt;Node8</title>
<g id="a_edge12_Node000005_Node000008"><a xlink:title=" ">
<path fill="none" stroke="#63b8ff" d="M332.22,-183.01C341.68,-185.65 351.15,-188.65 360,-192 376.92,-198.4 378.58,-206.13 396,-211 469.24,-231.48 558.01,-232.33 612.62,-230.27"/>
<polygon fill="#63b8ff" stroke="#63b8ff" points="612.9,-233.76 622.74,-229.84 612.6,-226.77 612.9,-233.76"/>
</a>
</g>
</g>
<!-- Node11 -->
<g id="Node000011" class="node">
<title>Node11</title>
<g id="a_Node000011"><a target="_blank" xlink:href="http://en.cppreference.com/w/cpp/string/basic_string/c_str.html#" xlink:title=" ">
<polygon fill="white" stroke="#666666" points="537.5,-277.5 442.5,-277.5 442.5,-258.5 537.5,-258.5 537.5,-277.5"/>
<text text-anchor="middle" x="490" y="-265.5" font-family="Helvetica,sans-Serif" font-size="10.00">std::string::c_str</text>
</a>
</g>
</g>
<!-- Node5&#45;&gt;Node11 -->
<g id="edge10_Node000005_Node000011" class="edge">
<title>Node5&#45;&gt;Node11</title>
<g id="a_edge10_Node000005_Node000011"><a xlink:title=" ">
<path fill="none" stroke="#63b8ff" d="M344.04,-183.17C349.66,-185.67 355.04,-188.6 360,-192 383.17,-207.91 372.94,-227.92 396,-244 406.68,-251.45 419.51,-256.59 432.17,-260.13"/>
<polygon fill="#63b8ff" stroke="#63b8ff" points="431.7,-263.62 442.25,-262.65 433.39,-256.83 431.7,-263.62"/>
</a>
</g>
</g>
<!-- Node6&#45;&gt;Node7 -->
<g id="edge6_Node000006_Node000007" class="edge">
<title>Node6&#45;&gt;Node7</title>
<g id="a_edge6_Node000006_Node000007"><a xlink:title=" ">
<path fill="none" stroke="#63b8ff" d="M555.72,-171.99C574.67,-167.6 595.1,-162.86 613.02,-158.7"/>
<polygon fill="#63b8ff" stroke="#63b8ff" points="614.03,-162.06 622.98,-156.4 612.45,-155.25 614.03,-162.06"/>
</a>
</g>
</g>
<!-- Node6&#45;&gt;Node8 -->
<g id="edge7_Node000006_Node000008" class="edge">
<title>Node6&#45;&gt;Node8</title>
<g id="a_edge7_Node000006_Node000008"><a xlink:title=" ">
<path fill="none" stroke="#63b8ff" d="M555.72,-202.01C574.67,-206.4 595.1,-211.14 613.02,-215.3"/>
<polygon fill="#63b8ff" stroke="#63b8ff" points="612.45,-218.75 622.98,-217.6 614.03,-211.94 612.45,-218.75"/>
</a>
</g>
</g>
<!-- Node9 -->
<g id="Node000009" class="node">
<title>Node9</title>
<g id="a_Node000009"><a target="_blank" xlink:href="http://en.cppreference.com/w/cpp/utility/pair/make_pair.html#" xlink:title=" ">
<polygon fill="white" stroke="#666666" points="709,-196.5 620,-196.5 620,-177.5 709,-177.5 709,-196.5"/>
<text text-anchor="middle" x="664.5" y="-184.5" font-family="Helvetica,sans-Serif" font-size="10.00">std::make_pair</text>
</a>
</g>
</g>
<!-- Node6&#45;&gt;Node9 -->
<g id="edge8_Node000006_Node000009" class="edge">
<title>Node6&#45;&gt;Node9</title>
<g id="a_edge8_Node000006_Node000009"><a xlink:title=" ">
<path fill="none" stroke="#63b8ff" d="M584.07,-187C592.79,-187 601.43,-187 609.61,-187"/>
<polygon fill="#63b8ff" stroke="#63b8ff" points="609.7,-190.5 619.7,-187 609.7,-183.5 609.7,-190.5"/>
</a>
</g>
</g>
<!-- Node6&#45;&gt;Node10 -->
<g id="edge9_Node000006_Node000010" class="edge">
<title>Node6&#45;&gt;Node10</title>
<g id="a_edge9_Node000006_Node000010"><a xlink:title=" ">
<path fill="none" stroke="#63b8ff" d="M524.37,-171.88C550.39,-160.12 587.45,-143.43 620,-129 623.9,-127.27 628,-125.47 632.06,-123.68"/>
<polygon fill="#63b8ff" stroke="#63b8ff" points="633.59,-126.83 641.35,-119.62 630.79,-120.42 633.59,-126.83"/>
</a>
</g>
</g>
<!-- Node14 -->
<g id="Node000014" class="node">
<title>Node14</title>
<g id="a_Node000014"><a xlink:href="classRa_1_1Engine_1_1Rendering_1_1Renderer.html#ac804ffc9a0b4f71c02610ce930fd5c65" target="_top" xlink:title=" ">
<polygon fill="white" stroke="#666666" points="560,-30 420,-30 420,0 560,0 560,-30"/>
<text text-anchor="start" x="428" y="-18" font-family="Helvetica,sans-Serif" font-size="10.00">Ra::Engine::Rendering</text>
<text text-anchor="middle" x="490" y="-7" font-family="Helvetica,sans-Serif" font-size="10.00">::Renderer::resizeInternal</text>
</a>
</g>
</g>
<!-- Node13&#45;&gt;Node14 -->
<g id="edge16_Node000013_Node000014" class="edge">
<title>Node13&#45;&gt;Node14</title>
<g id="a_edge16_Node000013_Node000014"><a xlink:title=" ">
<path fill="none" stroke="#63b8ff" d="M322.1,-15C349,-15 380.96,-15 409.67,-15"/>
<polygon fill="#63b8ff" stroke="#63b8ff" points="409.67,-18.5 419.67,-15 409.67,-11.5 409.67,-18.5"/>
</a>
</g>
</g>
</g>
</svg>

<g id="navigator" transform="translate(0 0)" fill="#404254">
  <rect fill="#f2f5e9" fill-opacity="0.5" stroke="#606060" stroke-width=".5" x="0" y="0" width="60" height="60"/>
  <use id="zoomplus" xlink:href="#zoomPlus" x="17" y="9" onmousedown="handleZoom(evt,'in')"/>
  <use id="zoomminus" xlink:href="#zoomMin" x="42" y="9" onmousedown="handleZoom(evt,'out')"/>
  <use id="reset" xlink:href="#resetDef" x="30" y="36" onmousedown="handleReset()"/>
   <use id="arrowup" xlink:href="#arrowUp" x="0" y="0" onmousedown="handlePan(0,-1)"/>
  <use id="arrowright" xlink:href="#arrowRight" x="0" y="0" onmousedown="handlePan(1,0)"/>
  <use id="arrowdown" xlink:href="#arrowDown" x="0" y="0" onmousedown="handlePan(0,1)"/>
  <use id="arrowleft" xlink:href="#arrowLeft" x="0" y="0" onmousedown="handlePan(-1,0)"/>
</g>
<svg viewBox="0 0 15 15" width="100%" height="30px" preserveAspectRatio="xMaxYMin meet">
 <g id="arrow_out" transform="scale(0.3 0.3)">
  <a xlink:href="classRa_1_1Engine_1_1Rendering_1_1Renderer_a1937407357a05fef64bd1f0bafa50492_cgraph_org.svg" target="_base">
   <rect id="button" ry="5" rx="5" y="6" x="6" height="38" width="38"
        fill="#f2f5e9" fill-opacity="0.5" stroke="#606060" stroke-width="1.0"/>
   <path id="arrow"
     d="M 11.500037,31.436501 C 11.940474,20.09759 22.043105,11.32322 32.158766,21.979434 L 37.068811,17.246167 C 37.068811,17.246167 37.088388,32 37.088388,32 L 22.160133,31.978069 C 22.160133,31.978069 26.997745,27.140456 26.997745,27.140456 C 18.528582,18.264221 13.291696,25.230495 11.500037,31.436501 z"
     style="fill:#404040;"/>
  </a>
 </g>
</svg>

<style type='text/css'>
<![CDATA[
[data-mouse-over-selected='false'] { opacity: 0.7; }
[data-mouse-over-selected='true']  { opacity: 1.0; }
]]>
</style>
<script type="application/ecmascript"><![CDATA[
document.addEventListener('DOMContentLoaded', (event) => {
  highlightEdges();
  highlightAdjacentNodes();
});
]]></script>
</svg>
