<?xml version="1.0" encoding="UTF-8" standalone="no"?>
<!DOCTYPE svg PUBLIC "-//W3C//DTD SVG 1.1//EN"
 "http://www.w3.org/Graphics/SVG/1.1/DTD/svg11.dtd">
<!-- Generated by graphviz version 2.43.0 (0)
 -->
<!-- Title: Ra::Core::Utils::FILELog Pages: 1 -->
<svg width="240pt" height="894pt"
 viewBox="0.00 0.00 239.50 894.00" xmlns="http://www.w3.org/2000/svg" xmlns:xlink="http://www.w3.org/1999/xlink">
<g id="graph0" class="graph" transform="scale(1 1) rotate(0) translate(4 890)">
<title>Ra::Core::Utils::FILELog</title>
<polygon fill="white" stroke="transparent" points="-4,4 -4,-890 235.5,-890 235.5,4 -4,4"/>
<!-- Node1 -->
<g id="node1" class="node">
<title>Node1</title>
<g id="a_node1"><a xlink:title=" ">
<polygon fill="#bfbfbf" stroke="black" points="3.5,-0.5 3.5,-57.5 133.5,-57.5 133.5,-0.5 3.5,-0.5"/>
<text text-anchor="middle" x="68.5" y="-45.5" font-family="Helvetica,sans-Serif" font-size="10.00">Ra::Core::Utils::FILELog</text>
<polyline fill="none" stroke="black" points="3.5,-38.5 133.5,-38.5 "/>
<text text-anchor="middle" x="68.5" y="-26.5" font-family="Helvetica,sans-Serif" font-size="10.00"> </text>
<polyline fill="none" stroke="black" points="3.5,-19.5 133.5,-19.5 "/>
<text text-anchor="middle" x="68.5" y="-7.5" font-family="Helvetica,sans-Serif" font-size="10.00"> </text>
</a>
</g>
</g>
<!-- Node2 -->
<g id="node2" class="node">
<title>Node2</title>
<g id="a_node2"><a xlink:href="classRa_1_1Core_1_1Utils_1_1Log.html" target="_top" xlink:title=" ">
<polygon fill="white" stroke="black" points="13.5,-95.5 13.5,-218.5 123.5,-218.5 123.5,-95.5 13.5,-95.5"/>
<text text-anchor="start" x="21.5" y="-206.5" font-family="Helvetica,sans-Serif" font-size="10.00">Ra::Core::Utils::Log</text>
<text text-anchor="middle" x="68.5" y="-195.5" font-family="Helvetica,sans-Serif" font-size="10.00">&lt; Output2FILE &gt;</text>
<polyline fill="none" stroke="black" points="13.5,-188.5 123.5,-188.5 "/>
<text text-anchor="middle" x="68.5" y="-176.5" font-family="Helvetica,sans-Serif" font-size="10.00"> </text>
<polyline fill="none" stroke="black" points="13.5,-169.5 123.5,-169.5 "/>
<text text-anchor="start" x="21.5" y="-157.5" font-family="Helvetica,sans-Serif" font-size="10.00">+ Log()</text>
<text text-anchor="start" x="21.5" y="-146.5" font-family="Helvetica,sans-Serif" font-size="10.00">+ ~Log()</text>
<text text-anchor="start" x="21.5" y="-135.5" font-family="Helvetica,sans-Serif" font-size="10.00">+ Get()</text>
<text text-anchor="start" x="21.5" y="-124.5" font-family="Helvetica,sans-Serif" font-size="10.00">+ ReportingLevel()</text>
<text text-anchor="start" x="21.5" y="-113.5" font-family="Helvetica,sans-Serif" font-size="10.00">+ ToString()</text>
<text text-anchor="start" x="21.5" y="-102.5" font-family="Helvetica,sans-Serif" font-size="10.00">+ FromString()</text>
</a>
</g>
</g>
<!-- Node2&#45;&gt;Node1 -->
<g id="edge1" class="edge">
<title>Node2&#45;&gt;Node1</title>
<path fill="none" stroke="midnightblue" d="M68.5,-85.01C68.5,-75.26 68.5,-65.78 68.5,-57.51"/>
<polygon fill="none" stroke="midnightblue" points="65,-85.21 68.5,-95.21 72,-85.21 65,-85.21"/>
</g>
<!-- Node3 -->
<g id="node3" class="node">
<title>Node3</title>
<g id="a_node3"><a xlink:title="STL class.">
<polygon fill="white" stroke="#bfbfbf" points="15.5,-426.5 15.5,-483.5 121.5,-483.5 121.5,-426.5 15.5,-426.5"/>
<text text-anchor="middle" x="68.5" y="-471.5" font-family="Helvetica,sans-Serif" font-size="10.00">std::ostringstream</text>
<polyline fill="none" stroke="#bfbfbf" points="15.5,-464.5 121.5,-464.5 "/>
<text text-anchor="middle" x="68.5" y="-452.5" font-family="Helvetica,sans-Serif" font-size="10.00"> </text>
<polyline fill="none" stroke="#bfbfbf" points="15.5,-445.5 121.5,-445.5 "/>
<text text-anchor="middle" x="68.5" y="-433.5" font-family="Helvetica,sans-Serif" font-size="10.00"> </text>
</a>
</g>
</g>
<!-- Node3&#45;&gt;Node2 -->
<g id="edge2" class="edge">
<title>Node3&#45;&gt;Node2</title>
<path fill="none" stroke="#404040" d="M65.29,-426.26C63.81,-412.14 62.23,-394.68 61.5,-379 59.16,-328.83 59.87,-316.2 61.5,-266 61.87,-254.57 62.46,-242.47 63.14,-230.67"/>
<polygon fill="none" stroke="#404040" points="63.15,-230.49 59.53,-224.26 63.89,-218.51 67.51,-224.75 63.15,-230.49"/>
<text text-anchor="middle" x="73" y="-320" font-family="Helvetica,sans-Serif" font-size="10.00"> #os</text>
</g>
<!-- Node8 -->
<g id="node8" class="node">
<title>Node8</title>
<g id="a_node8"><a xlink:href="classRa_1_1Core_1_1Utils_1_1Log.html" target="_top" xlink:title=" ">
<polygon fill="white" stroke="black" points="93.5,-266.5 93.5,-378.5 231.5,-378.5 231.5,-266.5 93.5,-266.5"/>
<text text-anchor="middle" x="162.5" y="-366.5" font-family="Helvetica,sans-Serif" font-size="10.00">Ra::Core::Utils::Log&lt; T &gt;</text>
<polyline fill="none" stroke="black" points="93.5,-359.5 231.5,-359.5 "/>
<text text-anchor="middle" x="162.5" y="-347.5" font-family="Helvetica,sans-Serif" font-size="10.00"> </text>
<polyline fill="none" stroke="black" points="93.5,-340.5 231.5,-340.5 "/>
<text text-anchor="start" x="101.5" y="-328.5" font-family="Helvetica,sans-Serif" font-size="10.00">+ Log()</text>
<text text-anchor="start" x="101.5" y="-317.5" font-family="Helvetica,sans-Serif" font-size="10.00">+ ~Log()</text>
<text text-anchor="start" x="101.5" y="-306.5" font-family="Helvetica,sans-Serif" font-size="10.00">+ Get()</text>
<text text-anchor="start" x="101.5" y="-295.5" font-family="Helvetica,sans-Serif" font-size="10.00">+ ReportingLevel()</text>
<text text-anchor="start" x="101.5" y="-284.5" font-family="Helvetica,sans-Serif" font-size="10.00">+ ToString()</text>
<text text-anchor="start" x="101.5" y="-273.5" font-family="Helvetica,sans-Serif" font-size="10.00">+ FromString()</text>
</a>
</g>
</g>
<!-- Node3&#45;&gt;Node8 -->
<g id="edge8" class="edge">
<title>Node3&#45;&gt;Node8</title>
<path fill="none" stroke="#404040" d="M88.43,-426.32C96.42,-415.23 105.99,-401.95 115.56,-388.67"/>
<polygon fill="none" stroke="#404040" points="115.83,-388.29 116.1,-381.08 122.85,-378.55 122.59,-385.75 115.83,-388.29"/>
<text text-anchor="middle" x="118" y="-400" font-family="Helvetica,sans-Serif" font-size="10.00"> #os</text>
</g>
<!-- Node4 -->
<g id="node4" class="node">
<title>Node4</title>
<g id="a_node4"><a xlink:title="STL class.">
<polygon fill="white" stroke="#bfbfbf" points="0,-521.5 0,-589.5 137,-589.5 137,-521.5 0,-521.5"/>
<text text-anchor="start" x="8" y="-577.5" font-family="Helvetica,sans-Serif" font-size="10.00">std::basic_ostringstream</text>
<text text-anchor="middle" x="68.5" y="-566.5" font-family="Helvetica,sans-Serif" font-size="10.00">&lt; char &gt;</text>
<polyline fill="none" stroke="#bfbfbf" points="0,-559.5 137,-559.5 "/>
<text text-anchor="middle" x="68.5" y="-547.5" font-family="Helvetica,sans-Serif" font-size="10.00"> </text>
<polyline fill="none" stroke="#bfbfbf" points="0,-540.5 137,-540.5 "/>
<text text-anchor="middle" x="68.5" y="-528.5" font-family="Helvetica,sans-Serif" font-size="10.00"> </text>
</a>
</g>
</g>
<!-- Node4&#45;&gt;Node3 -->
<g id="edge3" class="edge">
<title>Node4&#45;&gt;Node3</title>
<path fill="none" stroke="midnightblue" d="M68.5,-511.38C68.5,-501.94 68.5,-492.2 68.5,-483.57"/>
<polygon fill="none" stroke="midnightblue" points="65,-511.43 68.5,-521.43 72,-511.43 65,-511.43"/>
</g>
<!-- Node5 -->
<g id="node5" class="node">
<title>Node5</title>
<g id="a_node5"><a xlink:title="STL class.">
<polygon fill="white" stroke="#bfbfbf" points="14,-627.5 14,-695.5 123,-695.5 123,-627.5 14,-627.5"/>
<text text-anchor="start" x="22" y="-683.5" font-family="Helvetica,sans-Serif" font-size="10.00">std::basic_ostream</text>
<text text-anchor="middle" x="68.5" y="-672.5" font-family="Helvetica,sans-Serif" font-size="10.00">&lt; Char &gt;</text>
<polyline fill="none" stroke="#bfbfbf" points="14,-665.5 123,-665.5 "/>
<text text-anchor="middle" x="68.5" y="-653.5" font-family="Helvetica,sans-Serif" font-size="10.00"> </text>
<polyline fill="none" stroke="#bfbfbf" points="14,-646.5 123,-646.5 "/>
<text text-anchor="middle" x="68.5" y="-634.5" font-family="Helvetica,sans-Serif" font-size="10.00"> </text>
</a>
</g>
</g>
<!-- Node5&#45;&gt;Node4 -->
<g id="edge4" class="edge">
<title>Node5&#45;&gt;Node4</title>
<path fill="none" stroke="midnightblue" d="M68.5,-617.17C68.5,-608 68.5,-598.46 68.5,-589.73"/>
<polygon fill="none" stroke="midnightblue" points="65,-617.31 68.5,-627.31 72,-617.31 65,-617.31"/>
</g>
<!-- Node6 -->
<g id="node6" class="node">
<title>Node6</title>
<g id="a_node6"><a xlink:title="STL class.">
<polygon fill="white" stroke="#bfbfbf" points="4.5,-733.5 4.5,-790.5 132.5,-790.5 132.5,-733.5 4.5,-733.5"/>
<text text-anchor="middle" x="68.5" y="-778.5" font-family="Helvetica,sans-Serif" font-size="10.00">std::basic_ios&lt; Char &gt;</text>
<polyline fill="none" stroke="#bfbfbf" points="4.5,-771.5 132.5,-771.5 "/>
<text text-anchor="middle" x="68.5" y="-759.5" font-family="Helvetica,sans-Serif" font-size="10.00"> </text>
<polyline fill="none" stroke="#bfbfbf" points="4.5,-752.5 132.5,-752.5 "/>
<text text-anchor="middle" x="68.5" y="-740.5" font-family="Helvetica,sans-Serif" font-size="10.00"> </text>
</a>
</g>
</g>
<!-- Node6&#45;&gt;Node5 -->
<g id="edge5" class="edge">
<title>Node6&#45;&gt;Node5</title>
<path fill="none" stroke="midnightblue" d="M68.5,-723.01C68.5,-713.96 68.5,-704.38 68.5,-695.58"/>
<polygon fill="none" stroke="midnightblue" points="65,-723.3 68.5,-733.3 72,-723.3 65,-723.3"/>
</g>
<!-- Node7 -->
<g id="node7" class="node">
<title>Node7</title>
<g id="a_node7"><a xlink:title="STL class.">
<polygon fill="white" stroke="#bfbfbf" points="28.5,-828.5 28.5,-885.5 108.5,-885.5 108.5,-828.5 28.5,-828.5"/>
<text text-anchor="middle" x="68.5" y="-873.5" font-family="Helvetica,sans-Serif" font-size="10.00">std::ios_base</text>
<polyline fill="none" stroke="#bfbfbf" points="28.5,-866.5 108.5,-866.5 "/>
<text text-anchor="middle" x="68.5" y="-854.5" font-family="Helvetica,sans-Serif" font-size="10.00"> </text>
<polyline fill="none" stroke="#bfbfbf" points="28.5,-847.5 108.5,-847.5 "/>
<text text-anchor="middle" x="68.5" y="-835.5" font-family="Helvetica,sans-Serif" font-size="10.00"> </text>
</a>
</g>
</g>
<!-- Node7&#45;&gt;Node6 -->
<g id="edge6" class="edge">
<title>Node7&#45;&gt;Node6</title>
<path fill="none" stroke="midnightblue" d="M68.5,-818.24C68.5,-809.03 68.5,-799.35 68.5,-790.71"/>
<polygon fill="none" stroke="midnightblue" points="65,-818.35 68.5,-828.35 72,-818.35 65,-818.35"/>
</g>
<!-- Node8&#45;&gt;Node2 -->
<g id="edge7" class="edge">
<title>Node8&#45;&gt;Node2</title>
<path fill="none" stroke="orange" d="M125.66,-257.42C118.32,-244.65 110.63,-231.28 103.36,-218.63"/>
<polygon fill="orange" stroke="orange" points="122.66,-259.22 130.68,-266.15 128.73,-255.73 122.66,-259.22"/>
<text text-anchor="middle" x="160" y="-240" font-family="Helvetica,sans-Serif" font-size="10.00"> &lt; Output2FILE &gt;</text>
</g>
</g>
</svg>
