<?xml version="1.0" encoding="UTF-8" standalone="no"?>
<!DOCTYPE svg PUBLIC "-//W3C//DTD SVG 1.1//EN"
 "http://www.w3.org/Graphics/SVG/1.1/DTD/svg11.dtd">
<!-- Generated by graphviz version 2.43.0 (0)
 -->
<!-- Title: Ra::IO::AssimpCameraDataLoader::loadData Pages: 1 -->
<svg width="869pt" height="382pt"
 viewBox="0.00 0.00 869.00 382.00" xmlns="http://www.w3.org/2000/svg" xmlns:xlink="http://www.w3.org/1999/xlink">
<g id="graph0" class="graph" transform="scale(1 1) rotate(0) translate(4 378)">
<title>Ra::IO::AssimpCameraDataLoader::loadData</title>
<polygon fill="white" stroke="transparent" points="-4,4 -4,-378 865,-378 865,4 -4,4"/>
<!-- Node1 -->
<g id="node1" class="node">
<title>Node1</title>
<g id="a_node1"><a xlink:title="Convert all the camera data from scene into data.">
<polygon fill="#bfbfbf" stroke="black" points="0,-122.5 0,-152.5 149,-152.5 149,-122.5 0,-122.5"/>
<text text-anchor="start" x="8" y="-140.5" font-family="Helvetica,sans-Serif" font-size="10.00">Ra::IO::AssimpCameraData</text>
<text text-anchor="middle" x="74.5" y="-129.5" font-family="Helvetica,sans-Serif" font-size="10.00">Loader::loadData</text>
</a>
</g>
</g>
<!-- Node2 -->
<g id="node2" class="node">
<title>Node2</title>
<g id="a_node2"><a xlink:href="classRa_1_1IO_1_1AssimpCameraDataLoader.html#a162728fbf071166be8abacfc2b83dde0" target="_top" xlink:title="Fill data with the CameraData from camera.">
<polygon fill="white" stroke="black" points="185,-171.5 185,-201.5 334,-201.5 334,-171.5 185,-171.5"/>
<text text-anchor="start" x="193" y="-189.5" font-family="Helvetica,sans-Serif" font-size="10.00">Ra::IO::AssimpCameraData</text>
<text text-anchor="middle" x="259.5" y="-178.5" font-family="Helvetica,sans-Serif" font-size="10.00">Loader::loadCameraData</text>
</a>
</g>
</g>
<!-- Node1&#45;&gt;Node2 -->
<g id="edge1" class="edge">
<title>Node1&#45;&gt;Node2</title>
<path fill="none" stroke="midnightblue" d="M131.9,-152.6C151.04,-157.73 172.59,-163.5 192.41,-168.8"/>
<polygon fill="midnightblue" stroke="midnightblue" points="191.72,-172.24 202.29,-171.45 193.53,-165.48 191.72,-172.24"/>
</g>
<!-- Node14 -->
<g id="node14" class="node">
<title>Node14</title>
<g id="a_node14"><a xlink:href="classRa_1_1IO_1_1AssimpCameraDataLoader.html#ada1fc4a0bf919ee2035a35bac1076f36" target="_top" xlink:title="Return the number of cameras in the given scene.">
<polygon fill="white" stroke="black" points="185,-122.5 185,-152.5 334,-152.5 334,-122.5 185,-122.5"/>
<text text-anchor="start" x="193" y="-140.5" font-family="Helvetica,sans-Serif" font-size="10.00">Ra::IO::AssimpCameraData</text>
<text text-anchor="middle" x="259.5" y="-129.5" font-family="Helvetica,sans-Serif" font-size="10.00">Loader::sceneCameraSize</text>
</a>
</g>
</g>
<!-- Node1&#45;&gt;Node14 -->
<g id="edge17" class="edge">
<title>Node1&#45;&gt;Node14</title>
<path fill="none" stroke="midnightblue" d="M149.14,-137.5C157.47,-137.5 166.01,-137.5 174.46,-137.5"/>
<polygon fill="midnightblue" stroke="midnightblue" points="174.71,-141 184.71,-137.5 174.71,-134 174.71,-141"/>
</g>
<!-- Node15 -->
<g id="node15" class="node">
<title>Node15</title>
<g id="a_node15"><a xlink:href="classRa_1_1IO_1_1AssimpCameraDataLoader.html#aa7331bf02b443ab48bfcb2c0f606710c" target="_top" xlink:title="Return true if the given scene has camera data.">
<polygon fill="white" stroke="black" points="185,-73.5 185,-103.5 334,-103.5 334,-73.5 185,-73.5"/>
<text text-anchor="start" x="193" y="-91.5" font-family="Helvetica,sans-Serif" font-size="10.00">Ra::IO::AssimpCameraData</text>
<text text-anchor="middle" x="259.5" y="-80.5" font-family="Helvetica,sans-Serif" font-size="10.00">Loader::sceneHasCamera</text>
</a>
</g>
</g>
<!-- Node1&#45;&gt;Node15 -->
<g id="edge18" class="edge">
<title>Node1&#45;&gt;Node15</title>
<path fill="none" stroke="midnightblue" d="M131.9,-122.4C151.04,-117.27 172.59,-111.5 192.41,-106.2"/>
<polygon fill="midnightblue" stroke="midnightblue" points="193.53,-109.52 202.29,-103.55 191.72,-102.76 193.53,-109.52"/>
</g>
<!-- Node3 -->
<g id="node3" class="node">
<title>Node3</title>
<g id="a_node3"><a xlink:href="classRa_1_1IO_1_1AssimpCameraDataLoader.html#a908bd4ea76affdbd03f003998ddcbaf9" target="_top" xlink:title="Return the Camera transformation, in world space, for data from the scene.">
<polygon fill="white" stroke="black" points="370,-343.5 370,-373.5 519,-373.5 519,-343.5 370,-343.5"/>
<text text-anchor="start" x="378" y="-361.5" font-family="Helvetica,sans-Serif" font-size="10.00">Ra::IO::AssimpCameraData</text>
<text text-anchor="middle" x="444.5" y="-350.5" font-family="Helvetica,sans-Serif" font-size="10.00">Loader::loadCameraFrame</text>
</a>
</g>
</g>
<!-- Node2&#45;&gt;Node3 -->
<g id="edge2" class="edge">
<title>Node2&#45;&gt;Node3</title>
<path fill="none" stroke="midnightblue" d="M267.81,-201.96C282.75,-231.94 319.7,-298.23 370,-334.5 372.1,-336.01 374.29,-337.43 376.56,-338.76"/>
<polygon fill="midnightblue" stroke="midnightblue" points="375.14,-341.97 385.62,-343.49 378.38,-335.76 375.14,-341.97"/>
</g>
<!-- Node4 -->
<g id="node4" class="node">
<title>Node4</title>
<g id="a_node4"><a xlink:href="classRa_1_1Core_1_1Asset_1_1Camera.html#ae2ee8411aa3a9d8ba5380b9c9ee3dfda" target="_top" xlink:title=" ">
<polygon fill="white" stroke="black" points="377,-294.5 377,-324.5 512,-324.5 512,-294.5 377,-294.5"/>
<text text-anchor="start" x="385" y="-312.5" font-family="Helvetica,sans-Serif" font-size="10.00">Ra::Core::Asset::Camera</text>
<text text-anchor="middle" x="444.5" y="-301.5" font-family="Helvetica,sans-Serif" font-size="10.00">::setFOV</text>
</a>
</g>
</g>
<!-- Node2&#45;&gt;Node4 -->
<g id="edge3" class="edge">
<title>Node2&#45;&gt;Node4</title>
<path fill="none" stroke="midnightblue" d="M273.49,-201.74C292.59,-223.26 330.31,-262.49 370,-285.5 372.99,-287.24 376.13,-288.87 379.35,-290.39"/>
<polygon fill="midnightblue" stroke="midnightblue" points="378.03,-293.64 388.6,-294.43 380.83,-287.22 378.03,-293.64"/>
</g>
<!-- Node8 -->
<g id="node8" class="node">
<title>Node8</title>
<g id="a_node8"><a xlink:href="classRa_1_1Core_1_1Asset_1_1Camera.html#ac5e49d14a044ec5c39666cab662f3ba3" target="_top" xlink:title="Set the frame of the camera to frame.">
<polygon fill="white" stroke="black" points="377,-245.5 377,-275.5 512,-275.5 512,-245.5 377,-245.5"/>
<text text-anchor="start" x="385" y="-263.5" font-family="Helvetica,sans-Serif" font-size="10.00">Ra::Core::Asset::Camera</text>
<text text-anchor="middle" x="444.5" y="-252.5" font-family="Helvetica,sans-Serif" font-size="10.00">::setFrame</text>
</a>
</g>
</g>
<!-- Node2&#45;&gt;Node8 -->
<g id="edge7" class="edge">
<title>Node2&#45;&gt;Node8</title>
<path fill="none" stroke="midnightblue" d="M291.25,-201.67C312.98,-212.11 342.94,-225.94 370,-236.5 374.8,-238.37 379.81,-240.22 384.87,-242.02"/>
<polygon fill="midnightblue" stroke="midnightblue" points="384,-245.42 394.6,-245.39 386.29,-238.81 384,-245.42"/>
</g>
<!-- Node9 -->
<g id="node9" class="node">
<title>Node9</title>
<g id="a_node9"><a xlink:href="classRa_1_1Core_1_1Asset_1_1Camera.html#ab3aba6e1ced1cc6e560c00bf9402a72c" target="_top" xlink:title="Set the projection type to projectionType.">
<polygon fill="white" stroke="black" points="377,-196.5 377,-226.5 512,-226.5 512,-196.5 377,-196.5"/>
<text text-anchor="start" x="385" y="-214.5" font-family="Helvetica,sans-Serif" font-size="10.00">Ra::Core::Asset::Camera</text>
<text text-anchor="middle" x="444.5" y="-203.5" font-family="Helvetica,sans-Serif" font-size="10.00">::setType</text>
</a>
</g>
</g>
<!-- Node2&#45;&gt;Node9 -->
<g id="edge8" class="edge">
<title>Node2&#45;&gt;Node9</title>
<path fill="none" stroke="midnightblue" d="M334.14,-196.56C344.83,-198.02 355.86,-199.53 366.61,-201"/>
<polygon fill="midnightblue" stroke="midnightblue" points="366.43,-204.5 376.81,-202.39 367.37,-197.57 366.43,-204.5"/>
</g>
<!-- Node10 -->
<g id="node10" class="node">
<title>Node10</title>
<g id="a_node10"><a xlink:href="classRa_1_1Core_1_1Asset_1_1Camera.html#a05d8b61c4135de535eb61a6608fd33d6" target="_top" xlink:title="Change the viewport size. Also compute aspectRatio.">
<polygon fill="white" stroke="black" points="377,-147.5 377,-177.5 512,-177.5 512,-147.5 377,-147.5"/>
<text text-anchor="start" x="385" y="-165.5" font-family="Helvetica,sans-Serif" font-size="10.00">Ra::Core::Asset::Camera</text>
<text text-anchor="middle" x="444.5" y="-154.5" font-family="Helvetica,sans-Serif" font-size="10.00">::setViewport</text>
</a>
</g>
</g>
<!-- Node2&#45;&gt;Node10 -->
<g id="edge9" class="edge">
<title>Node2&#45;&gt;Node10</title>
<path fill="none" stroke="midnightblue" d="M334.14,-176.84C344.83,-175.44 355.86,-173.99 366.61,-172.58"/>
<polygon fill="midnightblue" stroke="midnightblue" points="367.35,-176.02 376.81,-171.25 366.44,-169.08 367.35,-176.02"/>
</g>
<!-- Node11 -->
<g id="node11" class="node">
<title>Node11</title>
<g id="a_node11"><a xlink:href="classRa_1_1Core_1_1Asset_1_1Camera.html#a74ae04c9a3018609a6468eaa59928ee5" target="_top" xlink:title="Set the Z Far plane distance to zFar.">
<polygon fill="white" stroke="black" points="377,-98.5 377,-128.5 512,-128.5 512,-98.5 377,-98.5"/>
<text text-anchor="start" x="385" y="-116.5" font-family="Helvetica,sans-Serif" font-size="10.00">Ra::Core::Asset::Camera</text>
<text text-anchor="middle" x="444.5" y="-105.5" font-family="Helvetica,sans-Serif" font-size="10.00">::setZFar</text>
</a>
</g>
</g>
<!-- Node2&#45;&gt;Node11 -->
<g id="edge11" class="edge">
<title>Node2&#45;&gt;Node11</title>
<path fill="none" stroke="midnightblue" d="M312.6,-171.45C319.92,-168.78 327.24,-165.78 334,-162.5 351.3,-154.1 352.75,-147 370,-138.5 374.38,-136.34 378.99,-134.29 383.68,-132.37"/>
<polygon fill="midnightblue" stroke="midnightblue" points="385.32,-135.48 393.37,-128.59 382.78,-128.96 385.32,-135.48"/>
</g>
<!-- Node12 -->
<g id="node12" class="node">
<title>Node12</title>
<g id="a_node12"><a xlink:href="classRa_1_1Core_1_1Asset_1_1Camera.html#a717cfcf775ed10b6f323a02434336a85" target="_top" xlink:title="Set the Z Near plane distance to zNear.">
<polygon fill="white" stroke="black" points="377,-49.5 377,-79.5 512,-79.5 512,-49.5 377,-49.5"/>
<text text-anchor="start" x="385" y="-67.5" font-family="Helvetica,sans-Serif" font-size="10.00">Ra::Core::Asset::Camera</text>
<text text-anchor="middle" x="444.5" y="-56.5" font-family="Helvetica,sans-Serif" font-size="10.00">::setZNear</text>
</a>
</g>
</g>
<!-- Node2&#45;&gt;Node12 -->
<g id="edge13" class="edge">
<title>Node2&#45;&gt;Node12</title>
<path fill="none" stroke="midnightblue" d="M320.87,-171.39C325.59,-168.87 330.04,-165.93 334,-162.5 361.34,-138.81 342.81,-113.36 370,-89.5 371.77,-87.95 373.64,-86.49 375.59,-85.12"/>
<polygon fill="midnightblue" stroke="midnightblue" points="377.83,-87.86 384.57,-79.68 374.2,-81.87 377.83,-87.86"/>
</g>
<!-- Node13 -->
<g id="node13" class="node">
<title>Node13</title>
<g id="a_node13"><a xlink:href="classRa_1_1Core_1_1Asset_1_1Camera.html#a7ceb08c02e98b235ca29ac671f263364" target="_top" xlink:title="Set the zoom factor to zoomFactor.">
<polygon fill="white" stroke="black" points="377,-0.5 377,-30.5 512,-30.5 512,-0.5 377,-0.5"/>
<text text-anchor="start" x="385" y="-18.5" font-family="Helvetica,sans-Serif" font-size="10.00">Ra::Core::Asset::Camera</text>
<text text-anchor="middle" x="444.5" y="-7.5" font-family="Helvetica,sans-Serif" font-size="10.00">::setZoomFactor</text>
</a>
</g>
</g>
<!-- Node2&#45;&gt;Node13 -->
<g id="edge15" class="edge">
<title>Node2&#45;&gt;Node13</title>
<path fill="none" stroke="midnightblue" d="M322.59,-171.47C326.76,-168.93 330.63,-165.97 334,-162.5 373.4,-121.96 330.85,-81.28 370,-40.5 371.4,-39.04 372.89,-37.67 374.45,-36.37"/>
<polygon fill="midnightblue" stroke="midnightblue" points="376.6,-39.14 382.8,-30.55 372.59,-33.4 376.6,-39.14"/>
</g>
<!-- Node5 -->
<g id="node5" class="node">
<title>Node5</title>
<g id="a_node5"><a xlink:href="classRa_1_1Core_1_1Asset_1_1Camera.html#a1e1809a93475162a71da46c2816f90e7" target="_top" xlink:title="Update the projection matrix according to the current parameters.">
<polygon fill="white" stroke="black" points="555,-98.5 555,-128.5 690,-128.5 690,-98.5 555,-98.5"/>
<text text-anchor="start" x="563" y="-116.5" font-family="Helvetica,sans-Serif" font-size="10.00">Ra::Core::Asset::Camera</text>
<text text-anchor="middle" x="622.5" y="-105.5" font-family="Helvetica,sans-Serif" font-size="10.00">::updateProjMatrix</text>
</a>
</g>
</g>
<!-- Node4&#45;&gt;Node5 -->
<g id="edge4" class="edge">
<title>Node4&#45;&gt;Node5</title>
<path fill="none" stroke="midnightblue" d="M504.85,-294.42C509.89,-291.89 514.7,-288.94 519,-285.5 568.51,-245.91 599.49,-175.45 613.22,-138.18"/>
<polygon fill="midnightblue" stroke="midnightblue" points="616.58,-139.2 616.64,-128.61 609.98,-136.85 616.58,-139.2"/>
</g>
<!-- Node6 -->
<g id="node6" class="node">
<title>Node6</title>
<g id="a_node6"><a xlink:href="classRa_1_1Core_1_1Asset_1_1Camera.html#a6aa7e3443a1c42f869f4330ee6b58c5e" target="_top" xlink:title="Build a projection matrix from the parameters of the view volume Implements the algorithms described ...">
<polygon fill="white" stroke="black" points="726,-123.5 726,-153.5 861,-153.5 861,-123.5 726,-123.5"/>
<text text-anchor="start" x="734" y="-141.5" font-family="Helvetica,sans-Serif" font-size="10.00">Ra::Core::Asset::Camera</text>
<text text-anchor="middle" x="793.5" y="-130.5" font-family="Helvetica,sans-Serif" font-size="10.00">::ortho</text>
</a>
</g>
</g>
<!-- Node5&#45;&gt;Node6 -->
<g id="edge5" class="edge">
<title>Node5&#45;&gt;Node6</title>
<path fill="none" stroke="midnightblue" d="M690.29,-123.38C698.72,-124.63 707.38,-125.91 715.94,-127.17"/>
<polygon fill="midnightblue" stroke="midnightblue" points="715.51,-130.65 725.92,-128.65 716.54,-123.72 715.51,-130.65"/>
</g>
<!-- Node7 -->
<g id="node7" class="node">
<title>Node7</title>
<g id="a_node7"><a xlink:href="classRa_1_1Core_1_1Asset_1_1Camera.html#a3dc967879911ed9414b04c8cacea7263" target="_top" xlink:title=" ">
<polygon fill="white" stroke="black" points="726,-74.5 726,-104.5 861,-104.5 861,-74.5 726,-74.5"/>
<text text-anchor="start" x="734" y="-92.5" font-family="Helvetica,sans-Serif" font-size="10.00">Ra::Core::Asset::Camera</text>
<text text-anchor="middle" x="793.5" y="-81.5" font-family="Helvetica,sans-Serif" font-size="10.00">::perspective</text>
</a>
</g>
</g>
<!-- Node5&#45;&gt;Node7 -->
<g id="edge6" class="edge">
<title>Node5&#45;&gt;Node7</title>
<path fill="none" stroke="midnightblue" d="M690.29,-104.01C698.72,-102.82 707.38,-101.59 715.94,-100.37"/>
<polygon fill="midnightblue" stroke="midnightblue" points="716.51,-103.83 725.92,-98.96 715.52,-96.9 716.51,-103.83"/>
</g>
<!-- Node10&#45;&gt;Node5 -->
<g id="edge10" class="edge">
<title>Node10&#45;&gt;Node5</title>
<path fill="none" stroke="midnightblue" d="M499.74,-147.4C518.06,-142.3 538.68,-136.56 557.67,-131.27"/>
<polygon fill="midnightblue" stroke="midnightblue" points="558.74,-134.61 567.44,-128.55 556.86,-127.86 558.74,-134.61"/>
</g>
<!-- Node11&#45;&gt;Node5 -->
<g id="edge12" class="edge">
<title>Node11&#45;&gt;Node5</title>
<path fill="none" stroke="midnightblue" d="M512.04,-113.5C522.66,-113.5 533.73,-113.5 544.57,-113.5"/>
<polygon fill="midnightblue" stroke="midnightblue" points="544.87,-117 554.87,-113.5 544.87,-110 544.87,-117"/>
</g>
<!-- Node12&#45;&gt;Node5 -->
<g id="edge14" class="edge">
<title>Node12&#45;&gt;Node5</title>
<path fill="none" stroke="midnightblue" d="M499.74,-79.6C518.06,-84.7 538.68,-90.44 557.67,-95.73"/>
<polygon fill="midnightblue" stroke="midnightblue" points="556.86,-99.14 567.44,-98.45 558.74,-92.39 556.86,-99.14"/>
</g>
<!-- Node13&#45;&gt;Node5 -->
<g id="edge16" class="edge">
<title>Node13&#45;&gt;Node5</title>
<path fill="none" stroke="midnightblue" d="M496.12,-30.54C503.94,-33.48 511.8,-36.81 519,-40.5 546.9,-54.79 575.73,-76 595.68,-91.88"/>
<polygon fill="midnightblue" stroke="midnightblue" points="593.68,-94.76 603.66,-98.32 598.08,-89.31 593.68,-94.76"/>
</g>
</g>
</svg>
