<?xml version="1.0" encoding="UTF-8" standalone="no"?>
<!DOCTYPE svg PUBLIC "-//W3C//DTD SVG 1.1//EN"
 "http://www.w3.org/Graphics/SVG/1.1/DTD/svg11.dtd">
<!-- Generated by graphviz version 2.43.0 (0)
 -->
<!-- Title: /home/runner/work/Radium&#45;Engine/Radium&#45;Engine/src/Radium&#45;Engine/src/Headless/OpenGLContext Pages: 1 -->
<svg width="132pt" height="151pt"
 viewBox="0.00 0.00 132.00 151.00" xmlns="http://www.w3.org/2000/svg" xmlns:xlink="http://www.w3.org/1999/xlink">
<g id="graph0" class="graph" transform="scale(1 1) rotate(0) translate(4 147)">
<title>/home/runner/work/Radium&#45;Engine/Radium&#45;Engine/src/Radium&#45;Engine/src/Headless/OpenGLContext</title>
<polygon fill="white" stroke="transparent" points="-4,4 -4,-147 128,-147 128,4 -4,4"/>
<g id="clust1" class="cluster">
<title>clusterdir_1577ba8040ea4e3d21120572b53f4a28</title>
<g id="a_clust1"><a xlink:href="dir_1577ba8040ea4e3d21120572b53f4a28.html" target="_top" xlink:title="Headless">
<polygon fill="#ddddee" stroke="black" points="8,-64 8,-135 116,-135 116,-64 8,-64"/>
<text text-anchor="middle" x="62" y="-123" font-family="Helvetica,sans-Serif" font-size="10.00">Headless</text>
</a>
</g>
</g>
<!-- dir_8dc3d61c4bbcef1d8a23d6a496c6b21e -->
<g id="node1" class="node">
<title>dir_8dc3d61c4bbcef1d8a23d6a496c6b21e</title>
<g id="a_node1"><a xlink:href="dir_8dc3d61c4bbcef1d8a23d6a496c6b21e.html" target="_top" xlink:title="OpenGLContext">
<polygon fill="#eeeeff" stroke="black" points="108.5,-108 15.5,-108 15.5,-72 108.5,-72 108.5,-108"/>
<text text-anchor="middle" x="62" y="-87.5" font-family="Helvetica,sans-Serif" font-size="10.00">OpenGLContext</text>
</a>
</g>
</g>
<!-- dir_a2f0e5642e47e7ed59fe0f0829eafb5f -->
<g id="node2" class="node">
<title>dir_a2f0e5642e47e7ed59fe0f0829eafb5f</title>
<g id="a_node2"><a xlink:href="dir_a2f0e5642e47e7ed59fe0f0829eafb5f.html" target="_top" xlink:title="Core">
<polygon fill="white" stroke="red" points="89,-36 35,-36 35,0 89,0 89,-36"/>
<text text-anchor="middle" x="62" y="-15.5" font-family="Helvetica,sans-Serif" font-size="10.00">Core</text>
</a>
</g>
</g>
<!-- dir_8dc3d61c4bbcef1d8a23d6a496c6b21e&#45;&gt;dir_a2f0e5642e47e7ed59fe0f0829eafb5f -->
<g id="edge1" class="edge">
<title>dir_8dc3d61c4bbcef1d8a23d6a496c6b21e&#45;&gt;dir_a2f0e5642e47e7ed59fe0f0829eafb5f</title>
<path fill="none" stroke="black" d="M62,-71.7C62,-63.98 62,-54.71 62,-46.11"/>
<polygon fill="black" stroke="black" points="65.5,-46.1 62,-36.1 58.5,-46.1 65.5,-46.1"/>
<g id="a_edge1&#45;headlabel"><a xlink:href="dir_000032_000004.html" target="_top" xlink:title="1">
<text text-anchor="middle" x="68.34" y="-47.2" font-family="Helvetica,sans-Serif" font-size="10.00">1</text>
</a>
</g>
</g>
</g>
</svg>
