<?xml version="1.0" encoding="UTF-8" standalone="no"?>
<!DOCTYPE svg PUBLIC "-//W3C//DTD SVG 1.1//EN"
 "http://www.w3.org/Graphics/SVG/1.1/DTD/svg11.dtd">
<!-- Generated by graphviz version 2.43.0 (0)
 -->
<!-- Title: /home/runner/work/Radium&#45;Engine/Radium&#45;Engine/src/Radium&#45;Engine/src/Core/Animation Pages: 1 -->
<svg width="173pt" height="367pt"
 viewBox="0.00 0.00 172.73 367.00" xmlns="http://www.w3.org/2000/svg" xmlns:xlink="http://www.w3.org/1999/xlink">
<g id="graph0" class="graph" transform="scale(1 1) rotate(0) translate(4 363)">
<title>/home/runner/work/Radium&#45;Engine/Radium&#45;Engine/src/Radium&#45;Engine/src/Core/Animation</title>
<polygon fill="white" stroke="transparent" points="-4,4 -4,-363 168.73,-363 168.73,4 -4,4"/>
<g id="clust1" class="cluster">
<title>clusterdir_a2f0e5642e47e7ed59fe0f0829eafb5f</title>
<g id="a_clust1"><a xlink:href="dir_a2f0e5642e47e7ed59fe0f0829eafb5f.html" target="_top" xlink:title="Core">
<polygon fill="#ddddee" stroke="black" points="38.3,-280 38.3,-351 122.3,-351 122.3,-280 38.3,-280"/>
<text text-anchor="middle" x="80.3" y="-339" font-family="Helvetica,sans-Serif" font-size="10.00">Core</text>
</a>
</g>
</g>
<!-- dir_721a74ea40d2768c46a3c9514389a16b -->
<g id="node1" class="node">
<title>dir_721a74ea40d2768c46a3c9514389a16b</title>
<g id="a_node1"><a xlink:href="dir_721a74ea40d2768c46a3c9514389a16b.html" target="_top" xlink:title="Animation">
<polygon fill="#eeeeff" stroke="black" points="113.8,-324 46.8,-324 46.8,-288 113.8,-288 113.8,-324"/>
<text text-anchor="middle" x="80.3" y="-303.5" font-family="Helvetica,sans-Serif" font-size="10.00">Animation</text>
</a>
</g>
</g>
<!-- dir_1456dd235032e023892318efbecb420b -->
<g id="node2" class="node">
<title>dir_1456dd235032e023892318efbecb420b</title>
<g id="a_node2"><a xlink:href="dir_1456dd235032e023892318efbecb420b.html" target="_top" xlink:title="Containers">
<polygon fill="none" stroke="black" points="146.8,-252 77.8,-252 77.8,-216 146.8,-216 146.8,-252"/>
<text text-anchor="middle" x="112.3" y="-231.5" font-family="Helvetica,sans-Serif" font-size="10.00">Containers</text>
</a>
</g>
</g>
<!-- dir_721a74ea40d2768c46a3c9514389a16b&#45;&gt;dir_1456dd235032e023892318efbecb420b -->
<g id="edge7" class="edge">
<title>dir_721a74ea40d2768c46a3c9514389a16b&#45;&gt;dir_1456dd235032e023892318efbecb420b</title>
<path fill="none" stroke="black" d="M88.21,-287.7C91.86,-279.73 96.26,-270.1 100.3,-261.26"/>
<polygon fill="black" stroke="black" points="103.51,-262.65 104.48,-252.1 97.14,-259.74 103.51,-262.65"/>
<g id="a_edge7&#45;headlabel"><a xlink:href="dir_000005_000007.html" target="_top" xlink:title="13">
<text text-anchor="middle" x="104.6" y="-264.6" font-family="Helvetica,sans-Serif" font-size="10.00">13</text>
</a>
</g>
</g>
<!-- dir_a1f42069ba95676f6b9abbd5065ccf6d -->
<g id="node3" class="node">
<title>dir_a1f42069ba95676f6b9abbd5065ccf6d</title>
<g id="a_node3"><a xlink:href="dir_a1f42069ba95676f6b9abbd5065ccf6d.html" target="_top" xlink:title="Math">
<polygon fill="none" stroke="black" points="106.3,-36 52.3,-36 52.3,0 106.3,0 106.3,-36"/>
<text text-anchor="middle" x="79.3" y="-15.5" font-family="Helvetica,sans-Serif" font-size="10.00">Math</text>
</a>
</g>
</g>
<!-- dir_721a74ea40d2768c46a3c9514389a16b&#45;&gt;dir_a1f42069ba95676f6b9abbd5065ccf6d -->
<g id="edge8" class="edge">
<title>dir_721a74ea40d2768c46a3c9514389a16b&#45;&gt;dir_a1f42069ba95676f6b9abbd5065ccf6d</title>
<path fill="none" stroke="black" d="M65.38,-287.88C46.62,-265.08 15.39,-222.67 3.3,-180 -11.08,-129.22 27.53,-74.56 54.84,-43.78"/>
<polygon fill="black" stroke="black" points="57.68,-45.86 61.85,-36.12 52.52,-41.14 57.68,-45.86"/>
<g id="a_edge8&#45;headlabel"><a xlink:href="dir_000005_000010.html" target="_top" xlink:title="7">
<text text-anchor="middle" x="57.35" y="-47.93" font-family="Helvetica,sans-Serif" font-size="10.00">7</text>
</a>
</g>
</g>
<!-- dir_cb2b5dfd43482fb277f6333d539f1f06 -->
<g id="node4" class="node">
<title>dir_cb2b5dfd43482fb277f6333d539f1f06</title>
<g id="a_node4"><a xlink:href="dir_cb2b5dfd43482fb277f6333d539f1f06.html" target="_top" xlink:title="Geometry">
<polygon fill="white" stroke="red" points="77.8,-180 12.8,-180 12.8,-144 77.8,-144 77.8,-180"/>
<text text-anchor="middle" x="45.3" y="-159.5" font-family="Helvetica,sans-Serif" font-size="10.00">Geometry</text>
</a>
</g>
</g>
<!-- dir_721a74ea40d2768c46a3c9514389a16b&#45;&gt;dir_cb2b5dfd43482fb277f6333d539f1f06 -->
<g id="edge9" class="edge">
<title>dir_721a74ea40d2768c46a3c9514389a16b&#45;&gt;dir_cb2b5dfd43482fb277f6333d539f1f06</title>
<path fill="none" stroke="black" d="M76.08,-287.87C70.09,-263.56 59.06,-218.82 51.96,-190.01"/>
<polygon fill="black" stroke="black" points="55.33,-189.06 49.54,-180.19 48.53,-190.74 55.33,-189.06"/>
<g id="a_edge9&#45;headlabel"><a xlink:href="dir_000005_000008.html" target="_top" xlink:title="5">
<text text-anchor="middle" x="58.95" y="-189.37" font-family="Helvetica,sans-Serif" font-size="10.00">5</text>
</a>
</g>
</g>
<!-- dir_ff87cf903db18af0fdb6c342683ece25 -->
<g id="node5" class="node">
<title>dir_ff87cf903db18af0fdb6c342683ece25</title>
<g id="a_node5"><a xlink:href="dir_ff87cf903db18af0fdb6c342683ece25.html" target="_top" xlink:title="Utils">
<polygon fill="none" stroke="black" points="134.3,-108 80.3,-108 80.3,-72 134.3,-72 134.3,-108"/>
<text text-anchor="middle" x="107.3" y="-87.5" font-family="Helvetica,sans-Serif" font-size="10.00">Utils</text>
</a>
</g>
</g>
<!-- dir_721a74ea40d2768c46a3c9514389a16b&#45;&gt;dir_ff87cf903db18af0fdb6c342683ece25 -->
<g id="edge10" class="edge">
<title>dir_721a74ea40d2768c46a3c9514389a16b&#45;&gt;dir_ff87cf903db18af0fdb6c342683ece25</title>
<path fill="none" stroke="black" d="M113.91,-290.72C129.83,-282.04 147.3,-269.26 156.3,-252 179.65,-207.25 149.17,-149.58 126.88,-116.8"/>
<polygon fill="black" stroke="black" points="129.48,-114.42 120.86,-108.25 123.76,-118.44 129.48,-114.42"/>
<g id="a_edge10&#45;headlabel"><a xlink:href="dir_000005_000013.html" target="_top" xlink:title="3">
<text text-anchor="middle" x="133.87" y="-113.22" font-family="Helvetica,sans-Serif" font-size="10.00">3</text>
</a>
</g>
</g>
<!-- dir_1456dd235032e023892318efbecb420b&#45;&gt;dir_a1f42069ba95676f6b9abbd5065ccf6d -->
<g id="edge1" class="edge">
<title>dir_1456dd235032e023892318efbecb420b&#45;&gt;dir_a1f42069ba95676f6b9abbd5065ccf6d</title>
<path fill="none" stroke="black" d="M122.27,-215.69C138.39,-185.24 166.2,-120.68 143.3,-72 137.13,-58.87 125.92,-47.87 114.6,-39.36"/>
<polygon fill="black" stroke="black" points="116.6,-36.49 106.4,-33.61 112.58,-42.22 116.6,-36.49"/>
<g id="a_edge1&#45;headlabel"><a xlink:href="dir_000007_000010.html" target="_top" xlink:title="1">
<text text-anchor="middle" x="121.17" y="-33.73" font-family="Helvetica,sans-Serif" font-size="10.00">1</text>
</a>
</g>
</g>
<!-- dir_1456dd235032e023892318efbecb420b&#45;&gt;dir_cb2b5dfd43482fb277f6333d539f1f06 -->
<g id="edge2" class="edge">
<title>dir_1456dd235032e023892318efbecb420b&#45;&gt;dir_cb2b5dfd43482fb277f6333d539f1f06</title>
<path fill="none" stroke="black" d="M89.83,-215.7C80.93,-207.3 70.94,-197.07 62.61,-187.86"/>
<polygon fill="black" stroke="black" points="65.01,-185.3 55.78,-180.1 59.76,-189.92 65.01,-185.3"/>
<g id="a_edge2&#45;headlabel"><a xlink:href="dir_000007_000008.html" target="_top" xlink:title="1">
<text text-anchor="middle" x="69.52" y="-183.62" font-family="Helvetica,sans-Serif" font-size="10.00">1</text>
</a>
</g>
</g>
<!-- dir_1456dd235032e023892318efbecb420b&#45;&gt;dir_ff87cf903db18af0fdb6c342683ece25 -->
<g id="edge3" class="edge">
<title>dir_1456dd235032e023892318efbecb420b&#45;&gt;dir_ff87cf903db18af0fdb6c342683ece25</title>
<path fill="none" stroke="black" d="M107.12,-215.87C103.7,-191.67 101.85,-147.21 102.81,-118.39"/>
<polygon fill="black" stroke="black" points="106.31,-118.35 103.32,-108.19 99.32,-118 106.31,-118.35"/>
<g id="a_edge3&#45;headlabel"><a xlink:href="dir_000007_000013.html" target="_top" xlink:title="1">
<text text-anchor="middle" x="108.97" y="-119.58" font-family="Helvetica,sans-Serif" font-size="10.00">1</text>
</a>
</g>
</g>
<!-- dir_cb2b5dfd43482fb277f6333d539f1f06&#45;&gt;dir_1456dd235032e023892318efbecb420b -->
<g id="edge4" class="edge">
<title>dir_cb2b5dfd43482fb277f6333d539f1f06&#45;&gt;dir_1456dd235032e023892318efbecb420b</title>
<path fill="none" stroke="black" d="M67.57,-180.1C76.45,-188.47 86.44,-198.69 94.8,-207.92"/>
<polygon fill="black" stroke="black" points="92.42,-210.51 101.66,-215.7 97.67,-205.88 92.42,-210.51"/>
<g id="a_edge4&#45;headlabel"><a xlink:href="dir_000008_000007.html" target="_top" xlink:title="15">
<text text-anchor="middle" x="87.91" y="-207.19" font-family="Helvetica,sans-Serif" font-size="10.00">15</text>
</a>
</g>
</g>
<!-- dir_cb2b5dfd43482fb277f6333d539f1f06&#45;&gt;dir_a1f42069ba95676f6b9abbd5065ccf6d -->
<g id="edge5" class="edge">
<title>dir_cb2b5dfd43482fb277f6333d539f1f06&#45;&gt;dir_a1f42069ba95676f6b9abbd5065ccf6d</title>
<path fill="none" stroke="black" d="M49.4,-143.87C55.22,-119.56 65.94,-74.82 72.84,-46.01"/>
<polygon fill="black" stroke="black" points="76.26,-46.73 75.19,-36.19 69.45,-45.1 76.26,-46.73"/>
<g id="a_edge5&#45;headlabel"><a xlink:href="dir_000008_000010.html" target="_top" xlink:title="11">
<text text-anchor="middle" x="78.19" y="-48.39" font-family="Helvetica,sans-Serif" font-size="10.00">11</text>
</a>
</g>
</g>
<!-- dir_cb2b5dfd43482fb277f6333d539f1f06&#45;&gt;dir_ff87cf903db18af0fdb6c342683ece25 -->
<g id="edge6" class="edge">
<title>dir_cb2b5dfd43482fb277f6333d539f1f06&#45;&gt;dir_ff87cf903db18af0fdb6c342683ece25</title>
<path fill="none" stroke="black" d="M60.63,-143.7C68.06,-135.3 77.13,-125.07 85.28,-115.86"/>
<polygon fill="black" stroke="black" points="88.14,-117.91 92.15,-108.1 82.9,-113.27 88.14,-117.91"/>
<g id="a_edge6&#45;headlabel"><a xlink:href="dir_000008_000013.html" target="_top" xlink:title="21">
<text text-anchor="middle" x="87.89" y="-119.98" font-family="Helvetica,sans-Serif" font-size="10.00">21</text>
</a>
</g>
</g>
<!-- dir_ff87cf903db18af0fdb6c342683ece25&#45;&gt;dir_1456dd235032e023892318efbecb420b -->
<g id="edge11" class="edge">
<title>dir_ff87cf903db18af0fdb6c342683ece25&#45;&gt;dir_1456dd235032e023892318efbecb420b</title>
<path fill="none" stroke="black" d="M112.5,-108.19C115.91,-132.42 117.76,-176.89 116.8,-205.68"/>
<polygon fill="black" stroke="black" points="113.29,-205.71 116.28,-215.87 120.28,-206.06 113.29,-205.71"/>
<g id="a_edge11&#45;headlabel"><a xlink:href="dir_000013_000007.html" target="_top" xlink:title="1">
<text text-anchor="middle" x="110.63" y="-199.48" font-family="Helvetica,sans-Serif" font-size="10.00">1</text>
</a>
</g>
</g>
<!-- dir_ff87cf903db18af0fdb6c342683ece25&#45;&gt;dir_a1f42069ba95676f6b9abbd5065ccf6d -->
<g id="edge12" class="edge">
<title>dir_ff87cf903db18af0fdb6c342683ece25&#45;&gt;dir_a1f42069ba95676f6b9abbd5065ccf6d</title>
<path fill="none" stroke="black" d="M100.38,-71.7C97.23,-63.81 93.42,-54.3 89.92,-45.55"/>
<polygon fill="black" stroke="black" points="93.11,-44.09 86.14,-36.1 86.61,-46.69 93.11,-44.09"/>
<g id="a_edge12&#45;headlabel"><a xlink:href="dir_000013_000010.html" target="_top" xlink:title="1">
<text text-anchor="middle" x="97.08" y="-43.87" font-family="Helvetica,sans-Serif" font-size="10.00">1</text>
</a>
</g>
</g>
</g>
</svg>
