<?xml version="1.0" encoding="UTF-8" standalone="no"?>
<!DOCTYPE svg PUBLIC "-//W3C//DTD SVG 1.1//EN"
 "http://www.w3.org/Graphics/SVG/1.1/DTD/svg11.dtd">
<!-- Generated by graphviz version 2.43.0 (0)
 -->
<!-- Title: /home/runner/work/Radium&#45;Engine/Radium&#45;Engine/src/Radium&#45;Engine/src/Core Pages: 1 -->
<svg width="669pt" height="183pt"
 viewBox="0.00 0.00 669.00 183.00" xmlns="http://www.w3.org/2000/svg" xmlns:xlink="http://www.w3.org/1999/xlink">
<g id="graph0" class="graph" transform="scale(1 1) rotate(0) translate(4 179)">
<title>/home/runner/work/Radium&#45;Engine/Radium&#45;Engine/src/Radium&#45;Engine/src/Core</title>
<polygon fill="white" stroke="transparent" points="-4,4 -4,-179 665,-179 665,4 -4,4"/>
<g id="clust1" class="cluster">
<title>clusterdir_68267d1309a1af8e8297ef4c3efbcdba</title>
<g id="a_clust1"><a xlink:href="dir_68267d1309a1af8e8297ef4c3efbcdba.html" target="_top" xlink:title="src">
<polygon fill="#ddddee" stroke="black" points="8,-8 8,-167 653,-167 653,-8 8,-8"/>
<text text-anchor="middle" x="330.5" y="-155" font-family="Helvetica,sans-Serif" font-size="10.00">src</text>
</a>
</g>
</g>
<g id="clust2" class="cluster">
<title>clusterdir_a2f0e5642e47e7ed59fe0f0829eafb5f</title>
<g id="a_clust2"><a xlink:href="dir_a2f0e5642e47e7ed59fe0f0829eafb5f.html" target="_top">
<polygon fill="#eeeeff" stroke="black" points="16,-16 16,-140 645,-140 645,-16 16,-16"/>
</a>
</g>
</g>
<!-- dir_a2f0e5642e47e7ed59fe0f0829eafb5f -->
<g id="node1" class="node">
<title>dir_a2f0e5642e47e7ed59fe0f0829eafb5f</title>
<text text-anchor="middle" x="610" y="-111.5" font-family="Helvetica,sans-Serif" font-size="10.00">Core</text>
</g>
<!-- dir_721a74ea40d2768c46a3c9514389a16b -->
<g id="node2" class="node">
<title>dir_721a74ea40d2768c46a3c9514389a16b</title>
<g id="a_node2"><a xlink:href="dir_721a74ea40d2768c46a3c9514389a16b.html" target="_top" xlink:title="Animation">
<polygon fill="white" stroke="black" points="564.5,-132 497.5,-132 497.5,-96 564.5,-96 564.5,-132"/>
<text text-anchor="middle" x="531" y="-111.5" font-family="Helvetica,sans-Serif" font-size="10.00">Animation</text>
</a>
</g>
</g>
<!-- dir_486288e78e9dc8c89d3d526bcb77146e -->
<g id="node3" class="node">
<title>dir_486288e78e9dc8c89d3d526bcb77146e</title>
<g id="a_node3"><a xlink:href="dir_486288e78e9dc8c89d3d526bcb77146e.html" target="_top" xlink:title="Asset">
<polygon fill="white" stroke="black" points="479,-132 425,-132 425,-96 479,-96 479,-132"/>
<text text-anchor="middle" x="452" y="-111.5" font-family="Helvetica,sans-Serif" font-size="10.00">Asset</text>
</a>
</g>
</g>
<!-- dir_1456dd235032e023892318efbecb420b -->
<g id="node4" class="node">
<title>dir_1456dd235032e023892318efbecb420b</title>
<g id="a_node4"><a xlink:href="dir_1456dd235032e023892318efbecb420b.html" target="_top" xlink:title="Containers">
<polygon fill="white" stroke="black" points="406.5,-132 337.5,-132 337.5,-96 406.5,-96 406.5,-132"/>
<text text-anchor="middle" x="372" y="-111.5" font-family="Helvetica,sans-Serif" font-size="10.00">Containers</text>
</a>
</g>
</g>
<!-- dir_cb2b5dfd43482fb277f6333d539f1f06 -->
<g id="node5" class="node">
<title>dir_cb2b5dfd43482fb277f6333d539f1f06</title>
<g id="a_node5"><a xlink:href="dir_cb2b5dfd43482fb277f6333d539f1f06.html" target="_top" xlink:title="Geometry">
<polygon fill="white" stroke="red" points="319.5,-132 254.5,-132 254.5,-96 319.5,-96 319.5,-132"/>
<text text-anchor="middle" x="287" y="-111.5" font-family="Helvetica,sans-Serif" font-size="10.00">Geometry</text>
</a>
</g>
</g>
<!-- dir_ff87cf903db18af0fdb6c342683ece25 -->
<g id="node9" class="node">
<title>dir_ff87cf903db18af0fdb6c342683ece25</title>
<g id="a_node9"><a xlink:href="dir_ff87cf903db18af0fdb6c342683ece25.html" target="_top" xlink:title="Utils">
<polygon fill="white" stroke="black" points="314,-60 260,-60 260,-24 314,-24 314,-60"/>
<text text-anchor="middle" x="287" y="-39.5" font-family="Helvetica,sans-Serif" font-size="10.00">Utils</text>
</a>
</g>
</g>
<!-- dir_cb2b5dfd43482fb277f6333d539f1f06&#45;&gt;dir_ff87cf903db18af0fdb6c342683ece25 -->
<g id="edge1" class="edge">
<title>dir_cb2b5dfd43482fb277f6333d539f1f06&#45;&gt;dir_ff87cf903db18af0fdb6c342683ece25</title>
<path fill="none" stroke="black" d="M287,-95.7C287,-87.98 287,-78.71 287,-70.11"/>
<polygon fill="black" stroke="black" points="290.5,-70.1 287,-60.1 283.5,-70.1 290.5,-70.1"/>
<g id="a_edge1&#45;headlabel"><a xlink:href="dir_000008_000013.html" target="_top" xlink:title="1">
<text text-anchor="middle" x="293.34" y="-71.2" font-family="Helvetica,sans-Serif" font-size="10.00">1</text>
</a>
</g>
</g>
<!-- dir_a1f42069ba95676f6b9abbd5065ccf6d -->
<g id="node6" class="node">
<title>dir_a1f42069ba95676f6b9abbd5065ccf6d</title>
<g id="a_node6"><a xlink:href="dir_a1f42069ba95676f6b9abbd5065ccf6d.html" target="_top" xlink:title="Math">
<polygon fill="white" stroke="black" points="236,-132 182,-132 182,-96 236,-96 236,-132"/>
<text text-anchor="middle" x="209" y="-111.5" font-family="Helvetica,sans-Serif" font-size="10.00">Math</text>
</a>
</g>
</g>
<!-- dir_05ad645af30ba5694f9d87fa8078b2c2 -->
<g id="node7" class="node">
<title>dir_05ad645af30ba5694f9d87fa8078b2c2</title>
<g id="a_node7"><a xlink:href="dir_05ad645af30ba5694f9d87fa8078b2c2.html" target="_top" xlink:title="Resources">
<polygon fill="white" stroke="black" points="163.5,-132 96.5,-132 96.5,-96 163.5,-96 163.5,-132"/>
<text text-anchor="middle" x="130" y="-111.5" font-family="Helvetica,sans-Serif" font-size="10.00">Resources</text>
</a>
</g>
</g>
<!-- dir_6e64eaae7c83dd6a6b1a1e366964c0d6 -->
<g id="node8" class="node">
<title>dir_6e64eaae7c83dd6a6b1a1e366964c0d6</title>
<g id="a_node8"><a xlink:href="dir_6e64eaae7c83dd6a6b1a1e366964c0d6.html" target="_top" xlink:title="Tasks">
<polygon fill="white" stroke="black" points="78,-132 24,-132 24,-96 78,-96 78,-132"/>
<text text-anchor="middle" x="51" y="-111.5" font-family="Helvetica,sans-Serif" font-size="10.00">Tasks</text>
</a>
</g>
</g>
</g>
</svg>
