<?xml version="1.0" encoding="UTF-8" standalone="no"?>
<!DOCTYPE svg PUBLIC "-//W3C//DTD SVG 1.1//EN"
 "http://www.w3.org/Graphics/SVG/1.1/DTD/svg11.dtd">
<!-- Generated by graphviz version 2.43.0 (0)
 -->
<!-- Title: Graphical Class Hierarchy Pages: 1 -->
<svg width="694pt" height="340pt"
 viewBox="0.00 0.00 694.00 339.50" xmlns="http://www.w3.org/2000/svg" xmlns:xlink="http://www.w3.org/1999/xlink">
<g id="graph0" class="graph" transform="scale(1 1) rotate(0) translate(4 335.5)">
<title>Graphical Class Hierarchy</title>
<polygon fill="white" stroke="transparent" points="-4,4 -4,-335.5 690,-335.5 690,4 -4,4"/>
<!-- Node203 -->
<g id="node1" class="node">
<title>Node203</title>
<g id="a_node1"><a xlink:href="classRa_1_1Core_1_1Utils_1_1ContainerIntrospectionInterface.html" target="_top" xlink:title="This class defines the introspection interface a container need to implement.">
<polygon fill="white" stroke="black" points="3,-99.5 3,-129.5 143,-129.5 143,-99.5 3,-99.5"/>
<text text-anchor="start" x="11" y="-117.5" font-family="Helvetica,sans-Serif" font-size="10.00">Ra::Core::Utils::Container</text>
<text text-anchor="middle" x="73" y="-106.5" font-family="Helvetica,sans-Serif" font-size="10.00">IntrospectionInterface</text>
</a>
</g>
</g>
<!-- Node1 -->
<g id="node2" class="node">
<title>Node1</title>
<g id="a_node2"><a xlink:href="classRa_1_1Core_1_1Geometry_1_1GeometryIndexLayerBase.html" target="_top" xlink:title="Base class for index collections stored in MultiIndexedGeometry.">
<polygon fill="white" stroke="black" points="182,-145.5 182,-175.5 331,-175.5 331,-145.5 182,-145.5"/>
<text text-anchor="start" x="190" y="-163.5" font-family="Helvetica,sans-Serif" font-size="10.00">Ra::Core::Geometry</text>
<text text-anchor="middle" x="256.5" y="-152.5" font-family="Helvetica,sans-Serif" font-size="10.00">::GeometryIndexLayerBase</text>
</a>
</g>
</g>
<!-- Node203&#45;&gt;Node1 -->
<g id="edge1" class="edge">
<title>Node203&#45;&gt;Node1</title>
<path fill="none" stroke="midnightblue" d="M143.52,-132.12C160.91,-136.53 179.41,-141.21 196.25,-145.48"/>
<polygon fill="midnightblue" stroke="midnightblue" points="143.98,-128.63 133.43,-129.56 142.26,-135.41 143.98,-128.63"/>
</g>
<!-- Node204 -->
<g id="node14" class="node">
<title>Node204</title>
<g id="a_node14"><a xlink:href="classRa_1_1Core_1_1Utils_1_1AttribBase.html" target="_top" xlink:title=" ">
<polygon fill="white" stroke="black" points="185,-105 185,-124 328,-124 328,-105 185,-105"/>
<text text-anchor="middle" x="256.5" y="-112" font-family="Helvetica,sans-Serif" font-size="10.00">Ra::Core::Utils::AttribBase</text>
</a>
</g>
</g>
<!-- Node203&#45;&gt;Node204 -->
<g id="edge13" class="edge">
<title>Node203&#45;&gt;Node204</title>
<path fill="none" stroke="midnightblue" d="M153.14,-114.5C163.66,-114.5 174.39,-114.5 184.75,-114.5"/>
<polygon fill="midnightblue" stroke="midnightblue" points="153.14,-111 143.14,-114.5 153.14,-118 153.14,-111"/>
</g>
<!-- Node2 -->
<g id="node3" class="node">
<title>Node2</title>
<g id="a_node3"><a xlink:href="structRa_1_1Core_1_1Geometry_1_1GeometryIndexLayer.html" target="_top" xlink:title=" ">
<polygon fill="white" stroke="black" points="381.5,-290 381.5,-331 506.5,-331 506.5,-290 381.5,-290"/>
<text text-anchor="start" x="389.5" y="-319" font-family="Helvetica,sans-Serif" font-size="10.00">Ra::Core::Geometry</text>
<text text-anchor="start" x="389.5" y="-308" font-family="Helvetica,sans-Serif" font-size="10.00">::GeometryIndexLayer</text>
<text text-anchor="middle" x="444" y="-297" font-family="Helvetica,sans-Serif" font-size="10.00">&lt; Vector1ui &gt;</text>
</a>
</g>
</g>
<!-- Node1&#45;&gt;Node2 -->
<g id="edge2" class="edge">
<title>Node1&#45;&gt;Node2</title>
<path fill="none" stroke="midnightblue" d="M273.9,-184.18C293.39,-210.79 328.2,-253.75 367,-280.5 372.02,-283.96 377.5,-287.11 383.14,-289.94"/>
<polygon fill="midnightblue" stroke="midnightblue" points="276.58,-181.91 267.9,-175.83 270.89,-185.99 276.58,-181.91"/>
</g>
<!-- Node4 -->
<g id="node5" class="node">
<title>Node4</title>
<g id="a_node5"><a xlink:href="structRa_1_1Core_1_1Geometry_1_1GeometryIndexLayer.html" target="_top" xlink:title=" ">
<polygon fill="white" stroke="black" points="381.5,-230 381.5,-271 506.5,-271 506.5,-230 381.5,-230"/>
<text text-anchor="start" x="389.5" y="-259" font-family="Helvetica,sans-Serif" font-size="10.00">Ra::Core::Geometry</text>
<text text-anchor="start" x="389.5" y="-248" font-family="Helvetica,sans-Serif" font-size="10.00">::GeometryIndexLayer</text>
<text text-anchor="middle" x="444" y="-237" font-family="Helvetica,sans-Serif" font-size="10.00">&lt; Vector2ui &gt;</text>
</a>
</g>
</g>
<!-- Node1&#45;&gt;Node4 -->
<g id="edge4" class="edge">
<title>Node1&#45;&gt;Node4</title>
<path fill="none" stroke="midnightblue" d="M291.82,-180.75C313.11,-192.95 341.24,-208.42 367,-220.5 373.81,-223.69 381.05,-226.85 388.26,-229.85"/>
<polygon fill="midnightblue" stroke="midnightblue" points="293.54,-177.71 283.13,-175.74 290.04,-183.77 293.54,-177.71"/>
</g>
<!-- Node6 -->
<g id="node7" class="node">
<title>Node6</title>
<g id="a_node7"><a xlink:href="structRa_1_1Core_1_1Geometry_1_1GeometryIndexLayer.html" target="_top" xlink:title=" ">
<polygon fill="white" stroke="black" points="381.5,-170 381.5,-211 506.5,-211 506.5,-170 381.5,-170"/>
<text text-anchor="start" x="389.5" y="-199" font-family="Helvetica,sans-Serif" font-size="10.00">Ra::Core::Geometry</text>
<text text-anchor="start" x="389.5" y="-188" font-family="Helvetica,sans-Serif" font-size="10.00">::GeometryIndexLayer</text>
<text text-anchor="middle" x="444" y="-177" font-family="Helvetica,sans-Serif" font-size="10.00">&lt; Vector3ui &gt;</text>
</a>
</g>
</g>
<!-- Node1&#45;&gt;Node6 -->
<g id="edge6" class="edge">
<title>Node1&#45;&gt;Node6</title>
<path fill="none" stroke="midnightblue" d="M341.34,-174.06C354.84,-176.24 368.6,-178.47 381.46,-180.55"/>
<polygon fill="midnightblue" stroke="midnightblue" points="341.51,-170.54 331.08,-172.4 340.39,-177.45 341.51,-170.54"/>
</g>
<!-- Node8 -->
<g id="node9" class="node">
<title>Node8</title>
<g id="a_node9"><a xlink:href="structRa_1_1Core_1_1Geometry_1_1GeometryIndexLayer.html" target="_top" xlink:title=" ">
<polygon fill="white" stroke="black" points="381.5,-110 381.5,-151 506.5,-151 506.5,-110 381.5,-110"/>
<text text-anchor="start" x="389.5" y="-139" font-family="Helvetica,sans-Serif" font-size="10.00">Ra::Core::Geometry</text>
<text text-anchor="start" x="389.5" y="-128" font-family="Helvetica,sans-Serif" font-size="10.00">::GeometryIndexLayer</text>
<text text-anchor="middle" x="444" y="-117" font-family="Helvetica,sans-Serif" font-size="10.00">&lt; Vector4ui &gt;</text>
</a>
</g>
</g>
<!-- Node1&#45;&gt;Node8 -->
<g id="edge8" class="edge">
<title>Node1&#45;&gt;Node8</title>
<path fill="none" stroke="midnightblue" d="M341.34,-146.94C354.84,-144.76 368.6,-142.53 381.46,-140.45"/>
<polygon fill="midnightblue" stroke="midnightblue" points="340.39,-143.55 331.08,-148.6 341.51,-150.46 340.39,-143.55"/>
</g>
<!-- Node10 -->
<g id="node11" class="node">
<title>Node10</title>
<g id="a_node11"><a xlink:href="structRa_1_1Core_1_1Geometry_1_1GeometryIndexLayer.html" target="_top" xlink:title=" ">
<polygon fill="white" stroke="black" points="381.5,-50 381.5,-91 506.5,-91 506.5,-50 381.5,-50"/>
<text text-anchor="start" x="389.5" y="-79" font-family="Helvetica,sans-Serif" font-size="10.00">Ra::Core::Geometry</text>
<text text-anchor="start" x="389.5" y="-68" font-family="Helvetica,sans-Serif" font-size="10.00">::GeometryIndexLayer</text>
<text text-anchor="middle" x="444" y="-57" font-family="Helvetica,sans-Serif" font-size="10.00">&lt; VectorNui &gt;</text>
</a>
</g>
</g>
<!-- Node1&#45;&gt;Node10 -->
<g id="edge10" class="edge">
<title>Node1&#45;&gt;Node10</title>
<path fill="none" stroke="midnightblue" d="M316.26,-141.31C321.37,-138.93 326.36,-136.33 331,-133.5 349.54,-122.21 348.6,-112.01 367,-100.5 372.41,-97.11 378.27,-93.99 384.25,-91.15"/>
<polygon fill="midnightblue" stroke="midnightblue" points="314.75,-138.15 306.98,-145.36 317.54,-144.57 314.75,-138.15"/>
</g>
<!-- Node12 -->
<g id="node13" class="node">
<title>Node12</title>
<g id="a_node13"><a xlink:href="structRa_1_1Core_1_1Geometry_1_1GeometryIndexLayer.html" target="_top" xlink:title="Typed index collection.">
<polygon fill="white" stroke="black" points="367,-0.5 367,-30.5 521,-30.5 521,-0.5 367,-0.5"/>
<text text-anchor="start" x="375" y="-18.5" font-family="Helvetica,sans-Serif" font-size="10.00">Ra::Core::Geometry</text>
<text text-anchor="middle" x="444" y="-7.5" font-family="Helvetica,sans-Serif" font-size="10.00">::GeometryIndexLayer&lt; T &gt;</text>
</a>
</g>
</g>
<!-- Node1&#45;&gt;Node12 -->
<g id="edge12" class="edge">
<title>Node1&#45;&gt;Node12</title>
<path fill="none" stroke="midnightblue" d="M322.85,-140.23C325.76,-138.19 328.5,-135.96 331,-133.5 362.61,-102.43 334.86,-71.02 367,-40.5 371.03,-36.67 375.65,-33.43 380.59,-30.69"/>
<polygon fill="midnightblue" stroke="midnightblue" points="320.99,-137.26 314.27,-145.44 324.63,-143.24 320.99,-137.26"/>
</g>
<!-- Node3 -->
<g id="node4" class="node">
<title>Node3</title>
<g id="a_node4"><a xlink:href="structRa_1_1Core_1_1Geometry_1_1PointCloudIndexLayer.html" target="_top" xlink:title="Index layer for a point cloud.">
<polygon fill="white" stroke="black" points="557,-295.5 557,-325.5 686,-325.5 686,-295.5 557,-295.5"/>
<text text-anchor="start" x="565" y="-313.5" font-family="Helvetica,sans-Serif" font-size="10.00">Ra::Core::Geometry</text>
<text text-anchor="middle" x="621.5" y="-302.5" font-family="Helvetica,sans-Serif" font-size="10.00">::PointCloudIndexLayer</text>
</a>
</g>
</g>
<!-- Node2&#45;&gt;Node3 -->
<g id="edge3" class="edge">
<title>Node2&#45;&gt;Node3</title>
<path fill="none" stroke="midnightblue" d="M516.88,-310.5C530.11,-310.5 543.84,-310.5 556.81,-310.5"/>
<polygon fill="midnightblue" stroke="midnightblue" points="516.87,-307 506.87,-310.5 516.87,-314 516.87,-307"/>
</g>
<!-- Node5 -->
<g id="node6" class="node">
<title>Node5</title>
<g id="a_node6"><a xlink:href="structRa_1_1Core_1_1Geometry_1_1LineIndexLayer.html" target="_top" xlink:title="Index layer for line mesh.">
<polygon fill="white" stroke="black" points="565,-235.5 565,-265.5 678,-265.5 678,-235.5 565,-235.5"/>
<text text-anchor="start" x="573" y="-253.5" font-family="Helvetica,sans-Serif" font-size="10.00">Ra::Core::Geometry</text>
<text text-anchor="middle" x="621.5" y="-242.5" font-family="Helvetica,sans-Serif" font-size="10.00">::LineIndexLayer</text>
</a>
</g>
</g>
<!-- Node4&#45;&gt;Node5 -->
<g id="edge5" class="edge">
<title>Node4&#45;&gt;Node5</title>
<path fill="none" stroke="midnightblue" d="M517.18,-250.5C533.06,-250.5 549.63,-250.5 564.74,-250.5"/>
<polygon fill="midnightblue" stroke="midnightblue" points="516.87,-247 506.87,-250.5 516.87,-254 516.87,-247"/>
</g>
<!-- Node7 -->
<g id="node8" class="node">
<title>Node7</title>
<g id="a_node8"><a xlink:href="structRa_1_1Core_1_1Geometry_1_1TriangleIndexLayer.html" target="_top" xlink:title="Index layer for triangle mesh.">
<polygon fill="white" stroke="black" points="564,-175.5 564,-205.5 679,-205.5 679,-175.5 564,-175.5"/>
<text text-anchor="start" x="572" y="-193.5" font-family="Helvetica,sans-Serif" font-size="10.00">Ra::Core::Geometry</text>
<text text-anchor="middle" x="621.5" y="-182.5" font-family="Helvetica,sans-Serif" font-size="10.00">::TriangleIndexLayer</text>
</a>
</g>
</g>
<!-- Node6&#45;&gt;Node7 -->
<g id="edge7" class="edge">
<title>Node6&#45;&gt;Node7</title>
<path fill="none" stroke="midnightblue" d="M517.02,-190.5C532.64,-190.5 548.95,-190.5 563.87,-190.5"/>
<polygon fill="midnightblue" stroke="midnightblue" points="516.87,-187 506.87,-190.5 516.87,-194 516.87,-187"/>
</g>
<!-- Node9 -->
<g id="node10" class="node">
<title>Node9</title>
<g id="a_node10"><a xlink:href="structRa_1_1Core_1_1Geometry_1_1QuadIndexLayer.html" target="_top" xlink:title="Index layer for quadrilateral mesh.">
<polygon fill="white" stroke="black" points="565,-115.5 565,-145.5 678,-145.5 678,-115.5 565,-115.5"/>
<text text-anchor="start" x="573" y="-133.5" font-family="Helvetica,sans-Serif" font-size="10.00">Ra::Core::Geometry</text>
<text text-anchor="middle" x="621.5" y="-122.5" font-family="Helvetica,sans-Serif" font-size="10.00">::QuadIndexLayer</text>
</a>
</g>
</g>
<!-- Node8&#45;&gt;Node9 -->
<g id="edge9" class="edge">
<title>Node8&#45;&gt;Node9</title>
<path fill="none" stroke="midnightblue" d="M517.18,-130.5C533.06,-130.5 549.63,-130.5 564.74,-130.5"/>
<polygon fill="midnightblue" stroke="midnightblue" points="516.87,-127 506.87,-130.5 516.87,-134 516.87,-127"/>
</g>
<!-- Node11 -->
<g id="node12" class="node">
<title>Node11</title>
<g id="a_node12"><a xlink:href="structRa_1_1Core_1_1Geometry_1_1PolyIndexLayer.html" target="_top" xlink:title="Index layer for polygonal mesh.">
<polygon fill="white" stroke="black" points="565,-55.5 565,-85.5 678,-85.5 678,-55.5 565,-55.5"/>
<text text-anchor="start" x="573" y="-73.5" font-family="Helvetica,sans-Serif" font-size="10.00">Ra::Core::Geometry</text>
<text text-anchor="middle" x="621.5" y="-62.5" font-family="Helvetica,sans-Serif" font-size="10.00">::PolyIndexLayer</text>
</a>
</g>
</g>
<!-- Node10&#45;&gt;Node11 -->
<g id="edge11" class="edge">
<title>Node10&#45;&gt;Node11</title>
<path fill="none" stroke="midnightblue" d="M517.18,-70.5C533.06,-70.5 549.63,-70.5 564.74,-70.5"/>
<polygon fill="midnightblue" stroke="midnightblue" points="516.87,-67 506.87,-70.5 516.87,-74 516.87,-67"/>
</g>
<!-- Node0 -->
<g id="node15" class="node">
<title>Node0</title>
<g id="a_node15"><a xlink:href="classRa_1_1Core_1_1Utils_1_1ObjectWithSemantic.html" target="_top" xlink:title="Object associated with one or multiple semantic names.">
<polygon fill="white" stroke="black" points="0,-148.5 0,-178.5 146,-178.5 146,-148.5 0,-148.5"/>
<text text-anchor="start" x="8" y="-166.5" font-family="Helvetica,sans-Serif" font-size="10.00">Ra::Core::Utils::ObjectWith</text>
<text text-anchor="middle" x="73" y="-155.5" font-family="Helvetica,sans-Serif" font-size="10.00">Semantic</text>
</a>
</g>
</g>
<!-- Node0&#45;&gt;Node1 -->
<g id="edge14" class="edge">
<title>Node0&#45;&gt;Node1</title>
<path fill="none" stroke="midnightblue" d="M156.46,-162.14C164.88,-162 173.39,-161.86 181.71,-161.72"/>
<polygon fill="midnightblue" stroke="midnightblue" points="156.2,-158.64 146.26,-162.31 156.31,-165.64 156.2,-158.64"/>
</g>
</g>
</svg>
