<?xml version="1.0" encoding="UTF-8" standalone="no"?>
<!DOCTYPE svg PUBLIC "-//W3C//DTD SVG 1.1//EN"
 "http://www.w3.org/Graphics/SVG/1.1/DTD/svg11.dtd">
<!-- Generated by graphviz version 2.43.0 (0)
 -->
<!-- Title: Graphical Class Hierarchy Pages: 1 -->
<svg width="500pt" height="134pt"
 viewBox="0.00 0.00 500.00 134.00" xmlns="http://www.w3.org/2000/svg" xmlns:xlink="http://www.w3.org/1999/xlink">
<g id="graph0" class="graph" transform="scale(1 1) rotate(0) translate(4 130)">
<title>Graphical Class Hierarchy</title>
<!-- Node0 -->
<g id="Node000000" class="node">
<title>Node0</title>
<g id="a_Node000000"><a xlink:href="classRa_1_1Engine_1_1Scene_1_1System.html" target="_top" xlink:title=" ">
<polygon fill="white" stroke="#666666" points="110,-78 0,-78 0,-48 110,-48 110,-78"/>
<text text-anchor="start" x="8" y="-66" font-family="Helvetica,sans-Serif" font-size="10.00">Ra::Engine::Scene::</text>
<text text-anchor="middle" x="55" y="-55" font-family="Helvetica,sans-Serif" font-size="10.00">System</text>
</a>
</g>
</g>
<!-- Node1 -->
<g id="Node000001" class="node">
<title>Node1</title>
<g id="a_Node000001"><a xlink:href="classRa_1_1Engine_1_1Scene_1_1CameraManager.html" target="_top" xlink:title=" ">
<polygon fill="white" stroke="#666666" points="289,-126 179,-126 179,-96 289,-96 289,-126"/>
<text text-anchor="start" x="187" y="-114" font-family="Helvetica,sans-Serif" font-size="10.00">Ra::Engine::Scene::</text>
<text text-anchor="middle" x="234" y="-103" font-family="Helvetica,sans-Serif" font-size="10.00">CameraManager</text>
</a>
</g>
</g>
<!-- Node0&#45;&gt;Node1 -->
<g id="edge110_Node000000_Node000001" class="edge">
<title>Node0&#45;&gt;Node1</title>
<g id="a_edge110_Node000000_Node000001"><a xlink:title=" ">
<path fill="none" stroke="#63b8ff" d="M119.73,-80.28C139.13,-85.54 160.26,-91.27 178.96,-96.34"/>
<polygon fill="#63b8ff" stroke="#63b8ff" points="120.64,-76.9 110.07,-77.66 118.8,-83.66 120.64,-76.9"/>
</a>
</g>
</g>
<!-- Node3 -->
<g id="Node000003" class="node">
<title>Node3</title>
<g id="a_Node000003"><a xlink:href="classRa_1_1Engine_1_1Scene_1_1LightManager.html" target="_top" xlink:title=" ">
<polygon fill="white" stroke="#666666" points="289,-78 179,-78 179,-48 289,-48 289,-78"/>
<text text-anchor="start" x="187" y="-66" font-family="Helvetica,sans-Serif" font-size="10.00">Ra::Engine::Scene::</text>
<text text-anchor="middle" x="234" y="-55" font-family="Helvetica,sans-Serif" font-size="10.00">LightManager</text>
</a>
</g>
</g>
<!-- Node0&#45;&gt;Node3 -->
<g id="edge112_Node000000_Node000003" class="edge">
<title>Node0&#45;&gt;Node3</title>
<g id="a_edge112_Node000000_Node000003"><a xlink:title=" ">
<path fill="none" stroke="#63b8ff" d="M120.27,-63C139.52,-63 160.43,-63 178.96,-63"/>
<polygon fill="#63b8ff" stroke="#63b8ff" points="120.07,-59.5 110.07,-63 120.07,-66.5 120.07,-59.5"/>
</a>
</g>
</g>
<!-- Node5 -->
<g id="Node000005" class="node">
<title>Node5</title>
<g id="a_Node000005"><a xlink:href="classRa_1_1Engine_1_1Scene_1_1SkeletonBasedAnimationSystem.html" target="_top" xlink:title=" ">
<polygon fill="white" stroke="#666666" points="322,-30 146,-30 146,0 322,0 322,-30"/>
<text text-anchor="start" x="154" y="-18" font-family="Helvetica,sans-Serif" font-size="10.00">Ra::Engine::Scene::</text>
<text text-anchor="middle" x="234" y="-7" font-family="Helvetica,sans-Serif" font-size="10.00">SkeletonBasedAnimationSystem</text>
</a>
</g>
</g>
<!-- Node0&#45;&gt;Node5 -->
<g id="edge114_Node000000_Node000005" class="edge">
<title>Node0&#45;&gt;Node5</title>
<g id="a_edge114_Node000000_Node000005"><a xlink:title=" ">
<path fill="none" stroke="#63b8ff" d="M119.76,-45.71C138.63,-40.59 159.12,-35.03 177.43,-30.07"/>
<polygon fill="#63b8ff" stroke="#63b8ff" points="118.8,-42.34 110.07,-48.34 120.64,-49.1 118.8,-42.34"/>
</a>
</g>
</g>
<!-- Node2 -->
<g id="Node000002" class="node">
<title>Node2</title>
<g id="a_Node000002"><a xlink:href="classRa_1_1Engine_1_1Scene_1_1DefaultCameraManager.html" target="_top" xlink:title="DefaultCameraManager. A simple Camera Manager with a list of Cameras.">
<polygon fill="white" stroke="#666666" points="492,-126 358,-126 358,-96 492,-96 492,-126"/>
<text text-anchor="start" x="366" y="-114" font-family="Helvetica,sans-Serif" font-size="10.00">Ra::Engine::Scene::</text>
<text text-anchor="middle" x="425" y="-103" font-family="Helvetica,sans-Serif" font-size="10.00">DefaultCameraManager</text>
</a>
</g>
</g>
<!-- Node1&#45;&gt;Node2 -->
<g id="edge111_Node000001_Node000002" class="edge">
<title>Node1&#45;&gt;Node2</title>
<g id="a_edge111_Node000001_Node000002"><a xlink:title=" ">
<path fill="none" stroke="#63b8ff" d="M299.41,-111C318.22,-111 338.82,-111 357.74,-111"/>
<polygon fill="#63b8ff" stroke="#63b8ff" points="299.16,-107.5 289.16,-111 299.16,-114.5 299.16,-107.5"/>
</a>
</g>
</g>
<!-- Node4 -->
<g id="Node000004" class="node">
<title>Node4</title>
<g id="a_Node000004"><a xlink:href="classRa_1_1Engine_1_1Scene_1_1DefaultLightManager.html" target="_top" xlink:title="DefaultLightManager. A simple Light Manager with a list of lights.">
<polygon fill="white" stroke="#666666" points="484.5,-78 365.5,-78 365.5,-48 484.5,-48 484.5,-78"/>
<text text-anchor="start" x="373.5" y="-66" font-family="Helvetica,sans-Serif" font-size="10.00">Ra::Engine::Scene::</text>
<text text-anchor="middle" x="425" y="-55" font-family="Helvetica,sans-Serif" font-size="10.00">DefaultLightManager</text>
</a>
</g>
</g>
<!-- Node3&#45;&gt;Node4 -->
<g id="edge113_Node000003_Node000004" class="edge">
<title>Node3&#45;&gt;Node4</title>
<g id="a_edge113_Node000003_Node000004"><a xlink:title=" ">
<path fill="none" stroke="#63b8ff" d="M299.42,-63C320.73,-63 344.33,-63 365.2,-63"/>
<polygon fill="#63b8ff" stroke="#63b8ff" points="299.16,-59.5 289.16,-63 299.16,-66.5 299.16,-59.5"/>
</a>
</g>
</g>
</g>
</svg>
