<?xml version="1.0" encoding="UTF-8" standalone="no"?>
<!DOCTYPE svg PUBLIC "-//W3C//DTD SVG 1.1//EN"
 "http://www.w3.org/Graphics/SVG/1.1/DTD/svg11.dtd">
<!-- Generated by graphviz version 2.43.0 (0)
 -->
<!-- Title: /home/runner/work/Radium&#45;Engine/Radium&#45;Engine/src/Radium&#45;Engine/src/Engine/Data/Mesh.hpp Pages: 1 -->
<!--zoomable 239 -->
<svg id="main" version="1.1" xmlns="http://www.w3.org/2000/svg" xmlns:xlink="http://www.w3.org/1999/xlink" xml:space="preserve" onload="init(evt)">
<style type="text/css"><![CDATA[
.edge:hover path { stroke: red; }
.edge:hover polygon { stroke: red; fill: red; }
]]></style>
<script type="text/javascript"><![CDATA[
var edges = document.getElementsByTagName('g');
if (edges && edges.length) {
  for (var i=0;i<edges.length;i++) {
    if (edges[i].id.substr(0,4)=='edge') {
      edges[i].setAttribute('class','edge');
    }
  }
}
]]></script>
        <defs>
                <circle id="rim" cx="0" cy="0" r="7"/>
                <circle id="rim2" cx="0" cy="0" r="3.5"/>
                <g id="zoomPlus">
                        <use xlink:href="#rim" fill="#404040">
                                <set attributeName="fill" to="#808080" begin="zoomplus.mouseover" end="zoomplus.mouseout"/>
                        </use>
                        <path d="M-4,0h8M0,-4v8" fill="none" stroke="white" stroke-width="1.5" pointer-events="none"/>
                </g>
                <g id="zoomMin">
                        <use xlink:href="#rim" fill="#404040">
                                <set attributeName="fill" to="#808080" begin="zoomminus.mouseover" end="zoomminus.mouseout"/>
                        </use>
                        <path d="M-4,0h8" fill="none" stroke="white" stroke-width="1.5" pointer-events="none"/>
                </g>
                <g id="dirArrow">
                        <path fill="none" stroke="white" stroke-width="1.5" d="M0,-3.0v7 M-2.5,-0.5L0,-3.0L2.5,-0.5"/>
                </g>
               <g id="resetDef">
                       <use xlink:href="#rim2" fill="#404040">
                               <set attributeName="fill" to="#808080" begin="reset.mouseover" end="reset.mouseout"/>
                       </use>
               </g>
        </defs>

<script type="text/javascript">
var viewWidth = 3014;
var viewHeight = 239;
var sectionId = 'dynsection-1';
</script>
<script xlink:href="svgpan.js"/>
<svg id="graph" class="graph">
<g id="viewport">
<title>/home/runner/work/Radium&#45;Engine/Radium&#45;Engine/src/Radium&#45;Engine/src/Engine/Data/Mesh.hpp</title>
<polygon fill="white" stroke="transparent" points="-4,4 -4,-235 3010,-235 3010,4 -4,4"/>
<!-- Node1 -->
<g id="node1" class="node">
<title>Node1</title>
<g id="a_node1"><a xlink:title=" ">
<polygon fill="#bfbfbf" stroke="black" points="1175,-178.5 1175,-230.5 1324,-230.5 1324,-178.5 1175,-178.5"/>
<text text-anchor="start" x="1183" y="-218.5" font-family="Helvetica,sans-Serif" font-size="10.00">/home/runner/work/Radium</text>
<text text-anchor="start" x="1183" y="-207.5" font-family="Helvetica,sans-Serif" font-size="10.00">&#45;Engine/Radium&#45;Engine/src</text>
<text text-anchor="start" x="1183" y="-196.5" font-family="Helvetica,sans-Serif" font-size="10.00">/Radium&#45;Engine/src/Engine</text>
<text text-anchor="middle" x="1249.5" y="-185.5" font-family="Helvetica,sans-Serif" font-size="10.00">/Data/Mesh.hpp</text>
</a>
</g>
</g>
<!-- Node2 -->
<g id="node2" class="node">
<title>Node2</title>
<g id="a_node2"><a xlink:href="DrawPrimitives_8cpp.html" target="_top" xlink:title=" ">
<polygon fill="white" stroke="black" points="0,-89.5 0,-141.5 149,-141.5 149,-89.5 0,-89.5"/>
<text text-anchor="start" x="8" y="-129.5" font-family="Helvetica,sans-Serif" font-size="10.00">/home/runner/work/Radium</text>
<text text-anchor="start" x="8" y="-118.5" font-family="Helvetica,sans-Serif" font-size="10.00">&#45;Engine/Radium&#45;Engine/src</text>
<text text-anchor="start" x="8" y="-107.5" font-family="Helvetica,sans-Serif" font-size="10.00">/Radium&#45;Engine/src/Engine</text>
<text text-anchor="middle" x="74.5" y="-96.5" font-family="Helvetica,sans-Serif" font-size="10.00">/Data/DrawPrimitives.cpp</text>
</a>
</g>
</g>
<!-- Node1&#45;&gt;Node2 -->
<g id="edge1" class="edge">
<title>Node1&#45;&gt;Node2</title>
<path fill="none" stroke="midnightblue" d="M1164.36,-201.36C942.51,-195.37 350.46,-176.55 157.5,-142 154.83,-141.52 152.12,-140.98 149.4,-140.4"/>
<polygon fill="midnightblue" stroke="midnightblue" points="1164.56,-204.87 1174.65,-201.64 1164.74,-197.87 1164.56,-204.87"/>
</g>
<!-- Node3 -->
<g id="node3" class="node">
<title>Node3</title>
<g id="a_node3"><a xlink:href="Mesh_8inl.html" target="_top" xlink:title=" ">
<polygon fill="white" stroke="black" points="167,-89.5 167,-141.5 316,-141.5 316,-89.5 167,-89.5"/>
<text text-anchor="start" x="175" y="-129.5" font-family="Helvetica,sans-Serif" font-size="10.00">/home/runner/work/Radium</text>
<text text-anchor="start" x="175" y="-118.5" font-family="Helvetica,sans-Serif" font-size="10.00">&#45;Engine/Radium&#45;Engine/src</text>
<text text-anchor="start" x="175" y="-107.5" font-family="Helvetica,sans-Serif" font-size="10.00">/Radium&#45;Engine/src/Engine</text>
<text text-anchor="middle" x="241.5" y="-96.5" font-family="Helvetica,sans-Serif" font-size="10.00">/Data/Mesh.inl</text>
</a>
</g>
</g>
<!-- Node1&#45;&gt;Node3 -->
<g id="edge2" class="edge">
<title>Node1&#45;&gt;Node3</title>
<path fill="none" stroke="midnightblue" d="M1164.82,-203.91C1000.49,-203.49 627.79,-196.14 320.5,-142 319.09,-141.75 317.67,-141.49 316.24,-141.21"/>
<polygon fill="midnightblue" stroke="midnightblue" points="1164.86,-207.41 1174.87,-203.93 1164.87,-200.41 1164.86,-207.41"/>
</g>
<!-- Node4 -->
<g id="node4" class="node">
<title>Node4</title>
<g id="a_node4"><a xlink:href="EnvironmentTexture_8hpp.html" target="_top" xlink:title=" ">
<polygon fill="white" stroke="black" points="372,-89.5 372,-141.5 537,-141.5 537,-89.5 372,-89.5"/>
<text text-anchor="start" x="380" y="-129.5" font-family="Helvetica,sans-Serif" font-size="10.00">/home/runner/work/Radium</text>
<text text-anchor="start" x="380" y="-118.5" font-family="Helvetica,sans-Serif" font-size="10.00">&#45;Engine/Radium&#45;Engine/src</text>
<text text-anchor="start" x="380" y="-107.5" font-family="Helvetica,sans-Serif" font-size="10.00">/Radium&#45;Engine/src/Engine</text>
<text text-anchor="middle" x="454.5" y="-96.5" font-family="Helvetica,sans-Serif" font-size="10.00">/Data/EnvironmentTexture.hpp</text>
</a>
</g>
</g>
<!-- Node1&#45;&gt;Node4 -->
<g id="edge4" class="edge">
<title>Node1&#45;&gt;Node4</title>
<path fill="none" stroke="midnightblue" d="M1164.79,-201.18C1031.87,-196.41 766.66,-182.28 545.5,-142 542.76,-141.5 539.98,-140.95 537.17,-140.37"/>
<polygon fill="midnightblue" stroke="midnightblue" points="1164.79,-204.68 1174.9,-201.54 1165.03,-197.69 1164.79,-204.68"/>
</g>
<!-- Node5 -->
<g id="node5" class="node">
<title>Node5</title>
<g id="a_node5"><a xlink:href="EnvironmentTexture_8cpp.html" target="_top" xlink:title=" ">
<polygon fill="white" stroke="black" points="192.5,-0.5 192.5,-52.5 356.5,-52.5 356.5,-0.5 192.5,-0.5"/>
<text text-anchor="start" x="200.5" y="-40.5" font-family="Helvetica,sans-Serif" font-size="10.00">/home/runner/work/Radium</text>
<text text-anchor="start" x="200.5" y="-29.5" font-family="Helvetica,sans-Serif" font-size="10.00">&#45;Engine/Radium&#45;Engine/src</text>
<text text-anchor="start" x="200.5" y="-18.5" font-family="Helvetica,sans-Serif" font-size="10.00">/Radium&#45;Engine/src/Engine</text>
<text text-anchor="middle" x="274.5" y="-7.5" font-family="Helvetica,sans-Serif" font-size="10.00">/Data/EnvironmentTexture.cpp</text>
</a>
</g>
</g>
<!-- Node1&#45;&gt;Node5 -->
<g id="edge8" class="edge">
<title>Node1&#45;&gt;Node5</title>
<path fill="none" stroke="midnightblue" d="M1164.39,-201.7C955.85,-196.71 431.39,-180.44 362.5,-142 337.19,-127.88 342.09,-112.03 324.5,-89 315.23,-76.86 304.6,-63.69 295.53,-52.66"/>
<polygon fill="midnightblue" stroke="midnightblue" points="1164.59,-205.2 1174.67,-201.94 1164.76,-198.21 1164.59,-205.2"/>
</g>
<!-- Node7 -->
<g id="node7" class="node">
<title>Node7</title>
<g id="a_node7"><a xlink:href="Mesh_8cpp.html" target="_top" xlink:title=" ">
<polygon fill="white" stroke="black" points="555,-89.5 555,-141.5 704,-141.5 704,-89.5 555,-89.5"/>
<text text-anchor="start" x="563" y="-129.5" font-family="Helvetica,sans-Serif" font-size="10.00">/home/runner/work/Radium</text>
<text text-anchor="start" x="563" y="-118.5" font-family="Helvetica,sans-Serif" font-size="10.00">&#45;Engine/Radium&#45;Engine/src</text>
<text text-anchor="start" x="563" y="-107.5" font-family="Helvetica,sans-Serif" font-size="10.00">/Radium&#45;Engine/src/Engine</text>
<text text-anchor="middle" x="629.5" y="-96.5" font-family="Helvetica,sans-Serif" font-size="10.00">/Data/Mesh.cpp</text>
</a>
</g>
</g>
<!-- Node1&#45;&gt;Node7 -->
<g id="edge9" class="edge">
<title>Node1&#45;&gt;Node7</title>
<path fill="none" stroke="midnightblue" d="M1164.94,-198.64C1058.49,-191.42 870.45,-175.01 712.5,-142 709.84,-141.44 707.15,-140.84 704.44,-140.2"/>
<polygon fill="midnightblue" stroke="midnightblue" points="1164.77,-202.14 1174.98,-199.31 1165.23,-195.15 1164.77,-202.14"/>
</g>
<!-- Node8 -->
<g id="node8" class="node">
<title>Node8</title>
<g id="a_node8"><a xlink:href="VolumeObject_8hpp.html" target="_top" xlink:title=" ">
<polygon fill="white" stroke="black" points="722,-89.5 722,-141.5 871,-141.5 871,-89.5 722,-89.5"/>
<text text-anchor="start" x="730" y="-129.5" font-family="Helvetica,sans-Serif" font-size="10.00">/home/runner/work/Radium</text>
<text text-anchor="start" x="730" y="-118.5" font-family="Helvetica,sans-Serif" font-size="10.00">&#45;Engine/Radium&#45;Engine/src</text>
<text text-anchor="start" x="730" y="-107.5" font-family="Helvetica,sans-Serif" font-size="10.00">/Radium&#45;Engine/src/Engine</text>
<text text-anchor="middle" x="796.5" y="-96.5" font-family="Helvetica,sans-Serif" font-size="10.00">/Data/VolumeObject.hpp</text>
</a>
</g>
</g>
<!-- Node1&#45;&gt;Node8 -->
<g id="edge10" class="edge">
<title>Node1&#45;&gt;Node8</title>
<path fill="none" stroke="midnightblue" d="M1164.67,-192.03C1090.34,-181.31 979.64,-163.72 884.5,-142 880.16,-141.01 875.71,-139.93 871.24,-138.79"/>
<polygon fill="midnightblue" stroke="midnightblue" points="1164.51,-195.55 1174.91,-193.5 1165.5,-188.62 1164.51,-195.55"/>
</g>
<!-- Node11 -->
<g id="node11" class="node">
<title>Node11</title>
<g id="a_node11"><a xlink:href="GeometryComponent_8cpp.html" target="_top" xlink:title=" ">
<polygon fill="white" stroke="black" points="886,-0.5 886,-52.5 1063,-52.5 1063,-0.5 886,-0.5"/>
<text text-anchor="start" x="894" y="-40.5" font-family="Helvetica,sans-Serif" font-size="10.00">/home/runner/work/Radium</text>
<text text-anchor="start" x="894" y="-29.5" font-family="Helvetica,sans-Serif" font-size="10.00">&#45;Engine/Radium&#45;Engine/src</text>
<text text-anchor="start" x="894" y="-18.5" font-family="Helvetica,sans-Serif" font-size="10.00">/Radium&#45;Engine/src/Engine</text>
<text text-anchor="middle" x="974.5" y="-7.5" font-family="Helvetica,sans-Serif" font-size="10.00">/Scene/GeometryComponent.cpp</text>
</a>
</g>
</g>
<!-- Node1&#45;&gt;Node11 -->
<g id="edge27" class="edge">
<title>Node1&#45;&gt;Node11</title>
<path fill="none" stroke="midnightblue" d="M1164.76,-199.78C1076.98,-193.93 948.37,-179.12 917.5,-142 902.44,-123.89 908.9,-110.93 917.5,-89 922.87,-75.31 932.87,-62.85 943.02,-52.78"/>
<polygon fill="midnightblue" stroke="midnightblue" points="1164.78,-203.29 1174.99,-200.43 1165.23,-196.3 1164.78,-203.29"/>
</g>
<!-- Node12 -->
<g id="node12" class="node">
<title>Node12</title>
<g id="a_node12"><a xlink:href="DebugRender_8cpp.html" target="_top" xlink:title=" ">
<polygon fill="white" stroke="black" points="926.5,-89.5 926.5,-141.5 1084.5,-141.5 1084.5,-89.5 926.5,-89.5"/>
<text text-anchor="start" x="934.5" y="-129.5" font-family="Helvetica,sans-Serif" font-size="10.00">/home/runner/work/Radium</text>
<text text-anchor="start" x="934.5" y="-118.5" font-family="Helvetica,sans-Serif" font-size="10.00">&#45;Engine/Radium&#45;Engine/src</text>
<text text-anchor="start" x="934.5" y="-107.5" font-family="Helvetica,sans-Serif" font-size="10.00">/Radium&#45;Engine/src/Engine</text>
<text text-anchor="middle" x="1005.5" y="-96.5" font-family="Helvetica,sans-Serif" font-size="10.00">/Rendering/DebugRender.cpp</text>
</a>
</g>
</g>
<!-- Node1&#45;&gt;Node12 -->
<g id="edge15" class="edge">
<title>Node1&#45;&gt;Node12</title>
<path fill="none" stroke="midnightblue" d="M1169.56,-175C1139.26,-164.19 1105.01,-151.98 1075.67,-141.52"/>
<polygon fill="midnightblue" stroke="midnightblue" points="1168.66,-178.39 1179.25,-178.45 1171.01,-171.8 1168.66,-178.39"/>
</g>
<!-- Node13 -->
<g id="node13" class="node">
<title>Node13</title>
<g id="a_node13"><a xlink:href="GeometryComponent_8hpp.html" target="_top" xlink:title=" ">
<polygon fill="white" stroke="black" points="1102.5,-89.5 1102.5,-141.5 1280.5,-141.5 1280.5,-89.5 1102.5,-89.5"/>
<text text-anchor="start" x="1110.5" y="-129.5" font-family="Helvetica,sans-Serif" font-size="10.00">/home/runner/work/Radium</text>
<text text-anchor="start" x="1110.5" y="-118.5" font-family="Helvetica,sans-Serif" font-size="10.00">&#45;Engine/Radium&#45;Engine/src</text>
<text text-anchor="start" x="1110.5" y="-107.5" font-family="Helvetica,sans-Serif" font-size="10.00">/Radium&#45;Engine/src/Engine</text>
<text text-anchor="middle" x="1191.5" y="-96.5" font-family="Helvetica,sans-Serif" font-size="10.00">/Scene/GeometryComponent.hpp</text>
</a>
</g>
</g>
<!-- Node1&#45;&gt;Node13 -->
<g id="edge16" class="edge">
<title>Node1&#45;&gt;Node13</title>
<path fill="none" stroke="midnightblue" d="M1227.12,-169.93C1220.84,-160.51 1214.13,-150.44 1208.24,-141.61"/>
<polygon fill="midnightblue" stroke="midnightblue" points="1224.26,-171.96 1232.72,-178.34 1230.09,-168.07 1224.26,-171.96"/>
</g>
<!-- Node16 -->
<g id="node16" class="node">
<title>Node16</title>
<g id="a_node16"><a xlink:href="Renderer_8cpp.html" target="_top" xlink:title=" ">
<polygon fill="white" stroke="black" points="1640,-0.5 1640,-52.5 1789,-52.5 1789,-0.5 1640,-0.5"/>
<text text-anchor="start" x="1648" y="-40.5" font-family="Helvetica,sans-Serif" font-size="10.00">/home/runner/work/Radium</text>
<text text-anchor="start" x="1648" y="-29.5" font-family="Helvetica,sans-Serif" font-size="10.00">&#45;Engine/Radium&#45;Engine/src</text>
<text text-anchor="start" x="1648" y="-18.5" font-family="Helvetica,sans-Serif" font-size="10.00">/Radium&#45;Engine/src/Engine</text>
<text text-anchor="middle" x="1714.5" y="-7.5" font-family="Helvetica,sans-Serif" font-size="10.00">/Rendering/Renderer.cpp</text>
</a>
</g>
</g>
<!-- Node1&#45;&gt;Node16 -->
<g id="edge23" class="edge">
<title>Node1&#45;&gt;Node16</title>
<path fill="none" stroke="midnightblue" d="M1271.45,-169.84C1293.03,-136.98 1323.32,-91.53 1327.5,-89 1443.82,-18.43 1498.38,-81.09 1631.5,-53 1634.15,-52.44 1636.85,-51.83 1639.56,-51.19"/>
<polygon fill="midnightblue" stroke="midnightblue" points="1268.45,-168.02 1265.9,-178.31 1274.31,-171.86 1268.45,-168.02"/>
</g>
<!-- Node18 -->
<g id="node18" class="node">
<title>Node18</title>
<g id="a_node18"><a xlink:href="RenderObjectManager_8cpp.html" target="_top" xlink:title=" ">
<polygon fill="white" stroke="black" points="1336.5,-89.5 1336.5,-141.5 1536.5,-141.5 1536.5,-89.5 1336.5,-89.5"/>
<text text-anchor="start" x="1344.5" y="-129.5" font-family="Helvetica,sans-Serif" font-size="10.00">/home/runner/work/Radium</text>
<text text-anchor="start" x="1344.5" y="-118.5" font-family="Helvetica,sans-Serif" font-size="10.00">&#45;Engine/Radium&#45;Engine/src</text>
<text text-anchor="start" x="1344.5" y="-107.5" font-family="Helvetica,sans-Serif" font-size="10.00">/Radium&#45;Engine/src/Engine</text>
<text text-anchor="middle" x="1436.5" y="-96.5" font-family="Helvetica,sans-Serif" font-size="10.00">/Rendering/RenderObjectManager.cpp</text>
</a>
</g>
</g>
<!-- Node1&#45;&gt;Node18 -->
<g id="edge24" class="edge">
<title>Node1&#45;&gt;Node18</title>
<path fill="none" stroke="midnightblue" d="M1312.58,-174.15C1335.35,-163.56 1360.82,-151.71 1382.72,-141.52"/>
<polygon fill="midnightblue" stroke="midnightblue" points="1310.93,-171.06 1303.34,-178.45 1313.88,-177.41 1310.93,-171.06"/>
</g>
<!-- Node19 -->
<g id="node19" class="node">
<title>Node19</title>
<g id="a_node19"><a xlink:href="CameraComponent_8cpp.html" target="_top" xlink:title=" ">
<polygon fill="white" stroke="black" points="1555,-89.5 1555,-141.5 1722,-141.5 1722,-89.5 1555,-89.5"/>
<text text-anchor="start" x="1563" y="-129.5" font-family="Helvetica,sans-Serif" font-size="10.00">/home/runner/work/Radium</text>
<text text-anchor="start" x="1563" y="-118.5" font-family="Helvetica,sans-Serif" font-size="10.00">&#45;Engine/Radium&#45;Engine/src</text>
<text text-anchor="start" x="1563" y="-107.5" font-family="Helvetica,sans-Serif" font-size="10.00">/Radium&#45;Engine/src/Engine</text>
<text text-anchor="middle" x="1638.5" y="-96.5" font-family="Helvetica,sans-Serif" font-size="10.00">/Scene/CameraComponent.cpp</text>
</a>
</g>
</g>
<!-- Node1&#45;&gt;Node19 -->
<g id="edge25" class="edge">
<title>Node1&#45;&gt;Node19</title>
<path fill="none" stroke="midnightblue" d="M1334.38,-187.33C1393.72,-175.67 1474.71,-159.04 1545.5,-142 1548.59,-141.26 1551.74,-140.48 1554.91,-139.69"/>
<polygon fill="midnightblue" stroke="midnightblue" points="1333.44,-183.95 1324.3,-189.31 1334.78,-190.82 1333.44,-183.95"/>
</g>
<!-- Node20 -->
<g id="node20" class="node">
<title>Node20</title>
<g id="a_node20"><a xlink:href="Component_8cpp.html" target="_top" xlink:title=" ">
<polygon fill="white" stroke="black" points="1740,-89.5 1740,-141.5 1889,-141.5 1889,-89.5 1740,-89.5"/>
<text text-anchor="start" x="1748" y="-129.5" font-family="Helvetica,sans-Serif" font-size="10.00">/home/runner/work/Radium</text>
<text text-anchor="start" x="1748" y="-118.5" font-family="Helvetica,sans-Serif" font-size="10.00">&#45;Engine/Radium&#45;Engine/src</text>
<text text-anchor="start" x="1748" y="-107.5" font-family="Helvetica,sans-Serif" font-size="10.00">/Radium&#45;Engine/src/Engine</text>
<text text-anchor="middle" x="1814.5" y="-96.5" font-family="Helvetica,sans-Serif" font-size="10.00">/Scene/Component.cpp</text>
</a>
</g>
</g>
<!-- Node1&#45;&gt;Node20 -->
<g id="edge26" class="edge">
<title>Node1&#45;&gt;Node20</title>
<path fill="none" stroke="midnightblue" d="M1334.1,-197.12C1430.93,-188.8 1593.92,-171.68 1731.5,-142 1734.15,-141.43 1736.84,-140.81 1739.55,-140.16"/>
<polygon fill="midnightblue" stroke="midnightblue" points="1333.74,-193.64 1324.07,-197.97 1334.33,-200.61 1333.74,-193.64"/>
</g>
<!-- Node21 -->
<g id="node21" class="node">
<title>Node21</title>
<g id="a_node21"><a xlink:href="SkeletonComponent_8cpp.html" target="_top" xlink:title=" ">
<polygon fill="white" stroke="black" points="1907.5,-89.5 1907.5,-141.5 2077.5,-141.5 2077.5,-89.5 1907.5,-89.5"/>
<text text-anchor="start" x="1915.5" y="-129.5" font-family="Helvetica,sans-Serif" font-size="10.00">/home/runner/work/Radium</text>
<text text-anchor="start" x="1915.5" y="-118.5" font-family="Helvetica,sans-Serif" font-size="10.00">&#45;Engine/Radium&#45;Engine/src</text>
<text text-anchor="start" x="1915.5" y="-107.5" font-family="Helvetica,sans-Serif" font-size="10.00">/Radium&#45;Engine/src/Engine</text>
<text text-anchor="middle" x="1992.5" y="-96.5" font-family="Helvetica,sans-Serif" font-size="10.00">/Scene/SkeletonComponent.cpp</text>
</a>
</g>
</g>
<!-- Node1&#45;&gt;Node21 -->
<g id="edge28" class="edge">
<title>Node1&#45;&gt;Node21</title>
<path fill="none" stroke="midnightblue" d="M1334.26,-200.08C1458.79,-194.01 1698.12,-178.4 1898.5,-142 1901.41,-141.47 1904.36,-140.9 1907.34,-140.28"/>
<polygon fill="midnightblue" stroke="midnightblue" points="1333.85,-196.59 1324.03,-200.57 1334.19,-203.59 1333.85,-196.59"/>
</g>
<!-- Node22 -->
<g id="node22" class="node">
<title>Node22</title>
<g id="a_node22"><a xlink:href="SkinningComponent_8cpp.html" target="_top" xlink:title=" ">
<polygon fill="white" stroke="black" points="2095.5,-89.5 2095.5,-141.5 2265.5,-141.5 2265.5,-89.5 2095.5,-89.5"/>
<text text-anchor="start" x="2103.5" y="-129.5" font-family="Helvetica,sans-Serif" font-size="10.00">/home/runner/work/Radium</text>
<text text-anchor="start" x="2103.5" y="-118.5" font-family="Helvetica,sans-Serif" font-size="10.00">&#45;Engine/Radium&#45;Engine/src</text>
<text text-anchor="start" x="2103.5" y="-107.5" font-family="Helvetica,sans-Serif" font-size="10.00">/Radium&#45;Engine/src/Engine</text>
<text text-anchor="middle" x="2180.5" y="-96.5" font-family="Helvetica,sans-Serif" font-size="10.00">/Scene/SkinningComponent.cpp</text>
</a>
</g>
</g>
<!-- Node1&#45;&gt;Node22 -->
<g id="edge29" class="edge">
<title>Node1&#45;&gt;Node22</title>
<path fill="none" stroke="midnightblue" d="M1334.45,-202.62C1486.4,-199.85 1814.3,-188.48 2086.5,-142 2089.42,-141.5 2092.37,-140.95 2095.35,-140.36"/>
<polygon fill="midnightblue" stroke="midnightblue" points="1334.19,-199.12 1324.26,-202.79 1334.32,-206.12 1334.19,-199.12"/>
</g>
<!-- Node23 -->
<g id="node23" class="node">
<title>Node23</title>
<g id="a_node23"><a xlink:href="Gizmo_8cpp.html" target="_top" xlink:title=" ">
<polygon fill="white" stroke="black" points="2284,-89.5 2284,-141.5 2451,-141.5 2451,-89.5 2284,-89.5"/>
<text text-anchor="start" x="2292" y="-129.5" font-family="Helvetica,sans-Serif" font-size="10.00">/home/runner/work/Radium</text>
<text text-anchor="start" x="2292" y="-118.5" font-family="Helvetica,sans-Serif" font-size="10.00">&#45;Engine/Radium&#45;Engine/src</text>
<text text-anchor="start" x="2292" y="-107.5" font-family="Helvetica,sans-Serif" font-size="10.00">/Radium&#45;Engine/src/Gui/Viewer</text>
<text text-anchor="middle" x="2367.5" y="-96.5" font-family="Helvetica,sans-Serif" font-size="10.00">/Gizmo/Gizmo.cpp</text>
</a>
</g>
</g>
<!-- Node1&#45;&gt;Node23 -->
<g id="edge30" class="edge">
<title>Node1&#45;&gt;Node23</title>
<path fill="none" stroke="midnightblue" d="M1334.3,-204.33C1510.62,-204.77 1929.17,-199.07 2274.5,-142 2277.56,-141.5 2280.66,-140.93 2283.78,-140.32"/>
<polygon fill="midnightblue" stroke="midnightblue" points="1334.06,-200.83 1324.05,-204.3 1334.04,-207.83 1334.06,-200.83"/>
</g>
<!-- Node24 -->
<g id="node24" class="node">
<title>Node24</title>
<g id="a_node24"><a xlink:href="RotateGizmo_8cpp.html" target="_top" xlink:title=" ">
<polygon fill="white" stroke="black" points="2469,-89.5 2469,-141.5 2636,-141.5 2636,-89.5 2469,-89.5"/>
<text text-anchor="start" x="2477" y="-129.5" font-family="Helvetica,sans-Serif" font-size="10.00">/home/runner/work/Radium</text>
<text text-anchor="start" x="2477" y="-118.5" font-family="Helvetica,sans-Serif" font-size="10.00">&#45;Engine/Radium&#45;Engine/src</text>
<text text-anchor="start" x="2477" y="-107.5" font-family="Helvetica,sans-Serif" font-size="10.00">/Radium&#45;Engine/src/Gui/Viewer</text>
<text text-anchor="middle" x="2552.5" y="-96.5" font-family="Helvetica,sans-Serif" font-size="10.00">/Gizmo/RotateGizmo.cpp</text>
</a>
</g>
</g>
<!-- Node1&#45;&gt;Node24 -->
<g id="edge31" class="edge">
<title>Node1&#45;&gt;Node24</title>
<path fill="none" stroke="midnightblue" d="M1334.53,-201.61C1572.7,-195.93 2243.2,-177.19 2460.5,-142 2463.28,-141.55 2466.1,-141.05 2468.94,-140.5"/>
<polygon fill="midnightblue" stroke="midnightblue" points="1334.11,-198.12 1324.19,-201.85 1334.27,-205.12 1334.11,-198.12"/>
</g>
<!-- Node25 -->
<g id="node25" class="node">
<title>Node25</title>
<g id="a_node25"><a xlink:href="ScaleGizmo_8cpp.html" target="_top" xlink:title=" ">
<polygon fill="white" stroke="black" points="2654,-89.5 2654,-141.5 2821,-141.5 2821,-89.5 2654,-89.5"/>
<text text-anchor="start" x="2662" y="-129.5" font-family="Helvetica,sans-Serif" font-size="10.00">/home/runner/work/Radium</text>
<text text-anchor="start" x="2662" y="-118.5" font-family="Helvetica,sans-Serif" font-size="10.00">&#45;Engine/Radium&#45;Engine/src</text>
<text text-anchor="start" x="2662" y="-107.5" font-family="Helvetica,sans-Serif" font-size="10.00">/Radium&#45;Engine/src/Gui/Viewer</text>
<text text-anchor="middle" x="2737.5" y="-96.5" font-family="Helvetica,sans-Serif" font-size="10.00">/Gizmo/ScaleGizmo.cpp</text>
</a>
</g>
</g>
<!-- Node1&#45;&gt;Node25 -->
<g id="edge32" class="edge">
<title>Node1&#45;&gt;Node25</title>
<path fill="none" stroke="midnightblue" d="M1334.54,-202.27C1596.83,-198.09 2390.88,-182.36 2645.5,-142 2648.28,-141.56 2651.1,-141.06 2653.94,-140.52"/>
<polygon fill="midnightblue" stroke="midnightblue" points="1334.26,-198.78 1324.32,-202.44 1334.37,-205.78 1334.26,-198.78"/>
</g>
<!-- Node26 -->
<g id="node26" class="node">
<title>Node26</title>
<g id="a_node26"><a xlink:href="TranslateGizmo_8cpp.html" target="_top" xlink:title=" ">
<polygon fill="white" stroke="black" points="2839,-89.5 2839,-141.5 3006,-141.5 3006,-89.5 2839,-89.5"/>
<text text-anchor="start" x="2847" y="-129.5" font-family="Helvetica,sans-Serif" font-size="10.00">/home/runner/work/Radium</text>
<text text-anchor="start" x="2847" y="-118.5" font-family="Helvetica,sans-Serif" font-size="10.00">&#45;Engine/Radium&#45;Engine/src</text>
<text text-anchor="start" x="2847" y="-107.5" font-family="Helvetica,sans-Serif" font-size="10.00">/Radium&#45;Engine/src/Gui/Viewer</text>
<text text-anchor="middle" x="2922.5" y="-96.5" font-family="Helvetica,sans-Serif" font-size="10.00">/Gizmo/TranslateGizmo.cpp</text>
</a>
</g>
</g>
<!-- Node1&#45;&gt;Node26 -->
<g id="edge33" class="edge">
<title>Node1&#45;&gt;Node26</title>
<path fill="none" stroke="midnightblue" d="M1334.37,-202.79C1619.01,-199.99 2538.28,-187.55 2830.5,-142 2833.28,-141.57 2836.1,-141.08 2838.94,-140.54"/>
<polygon fill="midnightblue" stroke="midnightblue" points="1334.07,-199.29 1324.11,-202.89 1334.14,-206.29 1334.07,-199.29"/>
</g>
<!-- Node3&#45;&gt;Node1 -->
<g id="edge3" class="edge">
<title>Node3&#45;&gt;Node1</title>
<path fill="none" stroke="midnightblue" d="M326.15,-139.54C330.31,-140.46 334.45,-141.29 338.5,-142 645.72,-196.13 1018.32,-203.49 1174.77,-203.91"/>
<polygon fill="midnightblue" stroke="midnightblue" points="326.93,-136.13 316.4,-137.26 325.34,-142.95 326.93,-136.13"/>
</g>
<!-- Node4&#45;&gt;Node5 -->
<g id="edge5" class="edge">
<title>Node4&#45;&gt;Node5</title>
<path fill="none" stroke="midnightblue" d="M393.29,-84.92C371.56,-74.41 347.33,-62.7 326.45,-52.61"/>
<polygon fill="midnightblue" stroke="midnightblue" points="391.91,-88.14 402.44,-89.34 394.96,-81.83 391.91,-88.14"/>
</g>
<!-- Node6 -->
<g id="node6" class="node">
<title>Node6</title>
<g id="a_node6"><a xlink:href="EnvironmentTexture_8inl.html" target="_top" xlink:title=" ">
<polygon fill="white" stroke="black" points="375,-0.5 375,-52.5 534,-52.5 534,-0.5 375,-0.5"/>
<text text-anchor="start" x="383" y="-40.5" font-family="Helvetica,sans-Serif" font-size="10.00">/home/runner/work/Radium</text>
<text text-anchor="start" x="383" y="-29.5" font-family="Helvetica,sans-Serif" font-size="10.00">&#45;Engine/Radium&#45;Engine/src</text>
<text text-anchor="start" x="383" y="-18.5" font-family="Helvetica,sans-Serif" font-size="10.00">/Radium&#45;Engine/src/Engine</text>
<text text-anchor="middle" x="454.5" y="-7.5" font-family="Helvetica,sans-Serif" font-size="10.00">/Data/EnvironmentTexture.inl</text>
</a>
</g>
</g>
<!-- Node4&#45;&gt;Node6 -->
<g id="edge6" class="edge">
<title>Node4&#45;&gt;Node6</title>
<path fill="none" stroke="midnightblue" d="M447.86,-79.19C447.62,-70.28 447.77,-60.9 448.32,-52.61"/>
<polygon fill="midnightblue" stroke="midnightblue" points="444.37,-79.5 448.31,-89.34 451.36,-79.19 444.37,-79.5"/>
</g>
<!-- Node6&#45;&gt;Node4 -->
<g id="edge7" class="edge">
<title>Node6&#45;&gt;Node4</title>
<path fill="none" stroke="midnightblue" d="M461.14,-62.75C461.38,-71.65 461.23,-81.04 460.69,-89.34"/>
<polygon fill="midnightblue" stroke="midnightblue" points="464.63,-62.44 460.68,-52.61 457.64,-62.76 464.63,-62.44"/>
</g>
<!-- Node9 -->
<g id="node9" class="node">
<title>Node9</title>
<g id="a_node9"><a xlink:href="VolumeObject_8cpp.html" target="_top" xlink:title=" ">
<polygon fill="white" stroke="black" points="552,-0.5 552,-52.5 701,-52.5 701,-0.5 552,-0.5"/>
<text text-anchor="start" x="560" y="-40.5" font-family="Helvetica,sans-Serif" font-size="10.00">/home/runner/work/Radium</text>
<text text-anchor="start" x="560" y="-29.5" font-family="Helvetica,sans-Serif" font-size="10.00">&#45;Engine/Radium&#45;Engine/src</text>
<text text-anchor="start" x="560" y="-18.5" font-family="Helvetica,sans-Serif" font-size="10.00">/Radium&#45;Engine/src/Engine</text>
<text text-anchor="middle" x="626.5" y="-7.5" font-family="Helvetica,sans-Serif" font-size="10.00">/Data/VolumeObject.cpp</text>
</a>
</g>
</g>
<!-- Node8&#45;&gt;Node9 -->
<g id="edge11" class="edge">
<title>Node8&#45;&gt;Node9</title>
<path fill="none" stroke="midnightblue" d="M738.42,-84.78C717.97,-74.31 695.2,-62.66 675.56,-52.61"/>
<polygon fill="midnightblue" stroke="midnightblue" points="736.83,-87.9 747.33,-89.34 740.02,-81.66 736.83,-87.9"/>
</g>
<!-- Node10 -->
<g id="node10" class="node">
<title>Node10</title>
<g id="a_node10"><a xlink:href="VolumeObject_8inl.html" target="_top" xlink:title=" ">
<polygon fill="white" stroke="black" points="719,-0.5 719,-52.5 868,-52.5 868,-0.5 719,-0.5"/>
<text text-anchor="start" x="727" y="-40.5" font-family="Helvetica,sans-Serif" font-size="10.00">/home/runner/work/Radium</text>
<text text-anchor="start" x="727" y="-29.5" font-family="Helvetica,sans-Serif" font-size="10.00">&#45;Engine/Radium&#45;Engine/src</text>
<text text-anchor="start" x="727" y="-18.5" font-family="Helvetica,sans-Serif" font-size="10.00">/Radium&#45;Engine/src/Engine</text>
<text text-anchor="middle" x="793.5" y="-7.5" font-family="Helvetica,sans-Serif" font-size="10.00">/Data/VolumeObject.inl</text>
</a>
</g>
</g>
<!-- Node8&#45;&gt;Node10 -->
<g id="edge12" class="edge">
<title>Node8&#45;&gt;Node10</title>
<path fill="none" stroke="midnightblue" d="M788.64,-79.19C788.1,-70.28 787.93,-60.9 788.18,-52.61"/>
<polygon fill="midnightblue" stroke="midnightblue" points="785.16,-79.64 789.45,-89.34 792.14,-79.09 785.16,-79.64"/>
</g>
<!-- Node8&#45;&gt;Node11 -->
<g id="edge14" class="edge">
<title>Node8&#45;&gt;Node11</title>
<path fill="none" stroke="midnightblue" d="M857.03,-84.92C878.52,-74.41 902.48,-62.7 923.13,-52.61"/>
<polygon fill="midnightblue" stroke="midnightblue" points="855.43,-81.8 847.98,-89.34 858.51,-88.09 855.43,-81.8"/>
</g>
<!-- Node10&#45;&gt;Node8 -->
<g id="edge13" class="edge">
<title>Node10&#45;&gt;Node8</title>
<path fill="none" stroke="midnightblue" d="M801.36,-62.75C801.9,-71.65 802.07,-81.04 801.82,-89.34"/>
<polygon fill="midnightblue" stroke="midnightblue" points="804.83,-62.3 800.55,-52.61 797.85,-62.85 804.83,-62.3"/>
</g>
<!-- Node13&#45;&gt;Node11 -->
<g id="edge21" class="edge">
<title>Node13&#45;&gt;Node11</title>
<path fill="none" stroke="midnightblue" d="M1119.71,-85.72C1092.93,-74.98 1062.77,-62.89 1036.91,-52.52"/>
<polygon fill="midnightblue" stroke="midnightblue" points="1118.44,-88.98 1129.03,-89.45 1121.05,-82.48 1118.44,-88.98"/>
</g>
<!-- Node14 -->
<g id="node14" class="node">
<title>Node14</title>
<g id="a_node14"><a xlink:href="ForwardRenderer_8cpp.html" target="_top" xlink:title=" ">
<polygon fill="white" stroke="black" points="1081,-0.5 1081,-52.5 1256,-52.5 1256,-0.5 1081,-0.5"/>
<text text-anchor="start" x="1089" y="-40.5" font-family="Helvetica,sans-Serif" font-size="10.00">/home/runner/work/Radium</text>
<text text-anchor="start" x="1089" y="-29.5" font-family="Helvetica,sans-Serif" font-size="10.00">&#45;Engine/Radium&#45;Engine/src</text>
<text text-anchor="start" x="1089" y="-18.5" font-family="Helvetica,sans-Serif" font-size="10.00">/Radium&#45;Engine/src/Engine</text>
<text text-anchor="middle" x="1168.5" y="-7.5" font-family="Helvetica,sans-Serif" font-size="10.00">/Rendering/ForwardRenderer.cpp</text>
</a>
</g>
</g>
<!-- Node13&#45;&gt;Node14 -->
<g id="edge17" class="edge">
<title>Node13&#45;&gt;Node14</title>
<path fill="none" stroke="midnightblue" d="M1182.24,-79.48C1179.86,-70.49 1177.35,-60.99 1175.14,-52.61"/>
<polygon fill="midnightblue" stroke="midnightblue" points="1178.91,-80.56 1184.85,-89.34 1185.68,-78.77 1178.91,-80.56"/>
</g>
<!-- Node15 -->
<g id="node15" class="node">
<title>Node15</title>
<g id="a_node15"><a xlink:href="GeometryComponent_8inl.html" target="_top" xlink:title=" ">
<polygon fill="white" stroke="black" points="1274.5,-0.5 1274.5,-52.5 1446.5,-52.5 1446.5,-0.5 1274.5,-0.5"/>
<text text-anchor="start" x="1282.5" y="-40.5" font-family="Helvetica,sans-Serif" font-size="10.00">/home/runner/work/Radium</text>
<text text-anchor="start" x="1282.5" y="-29.5" font-family="Helvetica,sans-Serif" font-size="10.00">&#45;Engine/Radium&#45;Engine/src</text>
<text text-anchor="start" x="1282.5" y="-18.5" font-family="Helvetica,sans-Serif" font-size="10.00">/Radium&#45;Engine/src/Engine</text>
<text text-anchor="middle" x="1360.5" y="-7.5" font-family="Helvetica,sans-Serif" font-size="10.00">/Scene/GeometryComponent.inl</text>
</a>
</g>
</g>
<!-- Node13&#45;&gt;Node15 -->
<g id="edge18" class="edge">
<title>Node13&#45;&gt;Node15</title>
<path fill="none" stroke="midnightblue" d="M1243.07,-84.64C1262.85,-74.2 1285.46,-62.61 1305.55,-52.61"/>
<polygon fill="midnightblue" stroke="midnightblue" points="1241.39,-81.56 1234.2,-89.34 1244.67,-87.75 1241.39,-81.56"/>
</g>
<!-- Node13&#45;&gt;Node16 -->
<g id="edge20" class="edge">
<title>Node13&#45;&gt;Node16</title>
<path fill="none" stroke="midnightblue" d="M1290.65,-89.69C1291.94,-89.46 1293.22,-89.22 1294.5,-89 1442.84,-62.84 1483.94,-83.26 1631.5,-53 1634.16,-52.45 1636.85,-51.86 1639.57,-51.23"/>
<polygon fill="midnightblue" stroke="midnightblue" points="1289.81,-86.29 1280.67,-91.64 1291.15,-93.16 1289.81,-86.29"/>
</g>
<!-- Node17 -->
<g id="node17" class="node">
<title>Node17</title>
<g id="a_node17"><a xlink:href="GeometrySystem_8cpp.html" target="_top" xlink:title=" ">
<polygon fill="white" stroke="black" points="1464.5,-0.5 1464.5,-52.5 1622.5,-52.5 1622.5,-0.5 1464.5,-0.5"/>
<text text-anchor="start" x="1472.5" y="-40.5" font-family="Helvetica,sans-Serif" font-size="10.00">/home/runner/work/Radium</text>
<text text-anchor="start" x="1472.5" y="-29.5" font-family="Helvetica,sans-Serif" font-size="10.00">&#45;Engine/Radium&#45;Engine/src</text>
<text text-anchor="start" x="1472.5" y="-18.5" font-family="Helvetica,sans-Serif" font-size="10.00">/Radium&#45;Engine/src/Engine</text>
<text text-anchor="middle" x="1543.5" y="-7.5" font-family="Helvetica,sans-Serif" font-size="10.00">/Scene/GeometrySystem.cpp</text>
</a>
</g>
</g>
<!-- Node13&#45;&gt;Node17 -->
<g id="edge22" class="edge">
<title>Node13&#45;&gt;Node17</title>
<path fill="none" stroke="midnightblue" d="M1290.62,-89.92C1291.92,-89.61 1293.21,-89.3 1294.5,-89 1365.87,-72.19 1384.48,-71.21 1455.5,-53 1458.43,-52.25 1461.41,-51.47 1464.41,-50.67"/>
<polygon fill="midnightblue" stroke="midnightblue" points="1289.43,-86.6 1280.52,-92.33 1291.06,-93.41 1289.43,-86.6"/>
</g>
<!-- Node15&#45;&gt;Node13 -->
<g id="edge19" class="edge">
<title>Node15&#45;&gt;Node13</title>
<path fill="none" stroke="midnightblue" d="M1309.05,-57.31C1289.27,-67.73 1266.66,-79.33 1246.57,-89.34"/>
<polygon fill="midnightblue" stroke="midnightblue" points="1310.71,-60.38 1317.91,-52.61 1307.44,-54.2 1310.71,-60.38"/>
</g>
</g>
</svg>
        <g id="navigator" transform="translate(0 0)" fill="#404254">
                <rect fill="#f2f5e9" fill-opacity="0.5" stroke="#606060" stroke-width=".5" x="0" y="0" width="60" height="60"/>
                <use id="zoomplus" xlink:href="#zoomPlus" x="17" y="9" onmousedown="handleZoom(evt,'in')"/>
                <use id="zoomminus" xlink:href="#zoomMin" x="42" y="9" onmousedown="handleZoom(evt,'out')"/>
                <use id="reset" xlink:href="#resetDef" x="30" y="36" onmousedown="handleReset()"/>
                <g id="arrowUp" xlink:href="#dirArrow" transform="translate(30 24)" onmousedown="handlePan(0,-1)">
                  <use xlink:href="#rim" fill="#404040">
                        <set attributeName="fill" to="#808080" begin="arrowUp.mouseover" end="arrowUp.mouseout"/>
                  </use>
                  <path fill="none" stroke="white" stroke-width="1.5" d="M0,-3.0v7 M-2.5,-0.5L0,-3.0L2.5,-0.5"/>
                </g>
                <g id="arrowRight" xlink:href="#dirArrow" transform="rotate(90) translate(36 -43)" onmousedown="handlePan(1,0)">
                  <use xlink:href="#rim" fill="#404040">
                        <set attributeName="fill" to="#808080" begin="arrowRight.mouseover" end="arrowRight.mouseout"/>
                  </use>
                  <path fill="none" stroke="white" stroke-width="1.5" d="M0,-3.0v7 M-2.5,-0.5L0,-3.0L2.5,-0.5"/>
                </g>
                <g id="arrowDown" xlink:href="#dirArrow" transform="rotate(180) translate(-30 -48)" onmousedown="handlePan(0,1)">
                  <use xlink:href="#rim" fill="#404040">
                        <set attributeName="fill" to="#808080" begin="arrowDown.mouseover" end="arrowDown.mouseout"/>
                  </use>
                  <path fill="none" stroke="white" stroke-width="1.5" d="M0,-3.0v7 M-2.5,-0.5L0,-3.0L2.5,-0.5"/>
                </g>
                <g id="arrowLeft" xlink:href="#dirArrow" transform="rotate(270) translate(-36 17)" onmousedown="handlePan(-1,0)">
                  <use xlink:href="#rim" fill="#404040">
                        <set attributeName="fill" to="#808080" begin="arrowLeft.mouseover" end="arrowLeft.mouseout"/>
                  </use>
                  <path fill="none" stroke="white" stroke-width="1.5" d="M0,-3.0v7 M-2.5,-0.5L0,-3.0L2.5,-0.5"/>
                </g>
        </g>
        <svg viewBox="0 0 15 15" width="100%" height="30px" preserveAspectRatio="xMaxYMin meet">
         <g id="arrow_out" transform="scale(0.3 0.3)">
          <a xlink:href="Mesh_8hpp__dep__incl_org.svg" target="_base">
           <rect id="button" ry="5" rx="5" y="6" x="6" height="38" width="38"
                fill="#f2f5e9" fill-opacity="0.5" stroke="#606060" stroke-width="1.0"/>
           <path id="arrow"
             d="M 11.500037,31.436501 C 11.940474,20.09759 22.043105,11.32322 32.158766,21.979434 L 37.068811,17.246167 C 37.068811,17.246167 37.088388,32 37.088388,32 L 22.160133,31.978069 C 22.160133,31.978069 26.997745,27.140456 26.997745,27.140456 C 18.528582,18.264221 13.291696,25.230495 11.500037,31.436501 z"
             style="fill:#404040;"/>
          </a>
         </g>
        </svg>
</svg>
