<?xml version="1.0" encoding="UTF-8" standalone="no"?>
<!DOCTYPE svg PUBLIC "-//W3C//DTD SVG 1.1//EN"
 "http://www.w3.org/Graphics/SVG/1.1/DTD/svg11.dtd">
<!-- Generated by graphviz version 2.43.0 (0)
 -->
<!-- Title: Ra::Core::operator&lt;&lt; Pages: 1 -->
<svg width="297pt" height="137pt"
 viewBox="0.00 0.00 297.00 137.00" xmlns="http://www.w3.org/2000/svg" xmlns:xlink="http://www.w3.org/1999/xlink">
<g id="graph0" class="graph" transform="scale(1 1) rotate(0) translate(4 133)">
<title>Ra::Core::operator&lt;&lt;</title>
<polygon fill="white" stroke="transparent" points="-4,4 -4,-133 293,-133 293,4 -4,4"/>
<!-- Node1 -->
<g id="node1" class="node">
<title>Node1</title>
<g id="a_node1"><a xlink:title=" ">
<polygon fill="#bfbfbf" stroke="black" points="0,-55 0,-74 122,-74 122,-55 0,-55"/>
<text text-anchor="middle" x="61" y="-62" font-family="Helvetica,sans-Serif" font-size="10.00">Ra::Core::operator&lt;&lt;</text>
</a>
</g>
</g>
<!-- Node2 -->
<g id="node2" class="node">
<title>Node2</title>
<g id="a_node2"><a xlink:href="classRa_1_1Core_1_1AdjacencyList.html#afb228941d27a01e44071d404e8b58aa4" target="_top" xlink:title=" ">
<polygon fill="white" stroke="black" points="158,-98.5 158,-128.5 289,-128.5 289,-98.5 158,-98.5"/>
<text text-anchor="start" x="166" y="-116.5" font-family="Helvetica,sans-Serif" font-size="10.00">Ra::Core::AdjacencyList</text>
<text text-anchor="middle" x="223.5" y="-105.5" font-family="Helvetica,sans-Serif" font-size="10.00">::children</text>
</a>
</g>
</g>
<!-- Node1&#45;&gt;Node2 -->
<g id="edge1" class="edge">
<title>Node1&#45;&gt;Node2</title>
<path fill="none" stroke="midnightblue" d="M93.33,-74.06C113.29,-80.16 139.79,-88.25 163.59,-95.51"/>
<polygon fill="midnightblue" stroke="midnightblue" points="162.66,-98.89 173.25,-98.46 164.7,-92.2 162.66,-98.89"/>
</g>
<!-- Node3 -->
<g id="node3" class="node">
<title>Node3</title>
<g id="a_node3"><a xlink:href="classRa_1_1Core_1_1AdjacencyList.html#a45d58d25c05abf04f4f6526ef3ae5a26" target="_top" xlink:title=" ">
<polygon fill="white" stroke="black" points="158,-49.5 158,-79.5 289,-79.5 289,-49.5 158,-49.5"/>
<text text-anchor="start" x="166" y="-67.5" font-family="Helvetica,sans-Serif" font-size="10.00">Ra::Core::AdjacencyList</text>
<text text-anchor="middle" x="223.5" y="-56.5" font-family="Helvetica,sans-Serif" font-size="10.00">::parents</text>
</a>
</g>
</g>
<!-- Node1&#45;&gt;Node3 -->
<g id="edge2" class="edge">
<title>Node1&#45;&gt;Node3</title>
<path fill="none" stroke="midnightblue" d="M122.22,-64.5C130.6,-64.5 139.28,-64.5 147.88,-64.5"/>
<polygon fill="midnightblue" stroke="midnightblue" points="147.91,-68 157.91,-64.5 147.91,-61 147.91,-68"/>
</g>
<!-- Node4 -->
<g id="node4" class="node">
<title>Node4</title>
<g id="a_node4"><a xlink:href="classRa_1_1Core_1_1AdjacencyList.html#a48b78362d882a41b32f0df6aa1d42855" target="_top" xlink:title="Return the number of nodes in the graph.">
<polygon fill="white" stroke="black" points="158,-0.5 158,-30.5 289,-30.5 289,-0.5 158,-0.5"/>
<text text-anchor="start" x="166" y="-18.5" font-family="Helvetica,sans-Serif" font-size="10.00">Ra::Core::AdjacencyList</text>
<text text-anchor="middle" x="223.5" y="-7.5" font-family="Helvetica,sans-Serif" font-size="10.00">::size</text>
</a>
</g>
</g>
<!-- Node1&#45;&gt;Node4 -->
<g id="edge3" class="edge">
<title>Node1&#45;&gt;Node4</title>
<path fill="none" stroke="midnightblue" d="M93.33,-54.94C113.29,-48.84 139.79,-40.75 163.59,-33.49"/>
<polygon fill="midnightblue" stroke="midnightblue" points="164.7,-36.8 173.25,-30.54 162.66,-30.11 164.7,-36.8"/>
</g>
</g>
</svg>
