<?xml version="1.0" encoding="UTF-8" standalone="no"?>
<!DOCTYPE svg PUBLIC "-//W3C//DTD SVG 1.1//EN"
 "http://www.w3.org/Graphics/SVG/1.1/DTD/svg11.dtd">
<!-- Generated by graphviz version 2.43.0 (0)
 -->
<!-- Title: Ra::Core::Geometry::makePlaneGrid Pages: 1 -->
<svg width="1062pt" height="535pt"
 viewBox="0.00 0.00 1062.00 534.50" xmlns="http://www.w3.org/2000/svg" xmlns:xlink="http://www.w3.org/1999/xlink">
<g id="graph0" class="graph" transform="scale(1 1) rotate(0) translate(4 530.5)">
<title>Ra::Core::Geometry::makePlaneGrid</title>
<polygon fill="white" stroke="transparent" points="-4,4 -4,-530.5 1058,-530.5 1058,4 -4,4"/>
<!-- Node1 -->
<g id="node1" class="node">
<title>Node1</title>
<g id="a_node1"><a xlink:title="Create a 2D grid mesh with given number of row and columns.">
<polygon fill="#bfbfbf" stroke="black" points="0,-166.5 0,-196.5 113,-196.5 113,-166.5 0,-166.5"/>
<text text-anchor="start" x="8" y="-184.5" font-family="Helvetica,sans-Serif" font-size="10.00">Ra::Core::Geometry</text>
<text text-anchor="middle" x="56.5" y="-173.5" font-family="Helvetica,sans-Serif" font-size="10.00">::makePlaneGrid</text>
</a>
</g>
</g>
<!-- Node2 -->
<g id="node2" class="node">
<title>Node2</title>
<g id="a_node2"><a xlink:href="classRa_1_1Core_1_1Geometry_1_1AttribArrayGeometry.html#ae1956b0396dadd84f55a12f2160e5671" target="_top" xlink:title=" ">
<polygon fill="white" stroke="black" points="168.5,-403 168.5,-444 293.5,-444 293.5,-403 168.5,-403"/>
<text text-anchor="start" x="176.5" y="-432" font-family="Helvetica,sans-Serif" font-size="10.00">Ra::Core::Geometry</text>
<text text-anchor="start" x="176.5" y="-421" font-family="Helvetica,sans-Serif" font-size="10.00">::AttribArrayGeometry</text>
<text text-anchor="middle" x="231" y="-410" font-family="Helvetica,sans-Serif" font-size="10.00">::addAttrib</text>
</a>
</g>
</g>
<!-- Node1&#45;&gt;Node2 -->
<g id="edge1" class="edge">
<title>Node1&#45;&gt;Node2</title>
<path fill="none" stroke="midnightblue" d="M60.83,-196.72C69.47,-232.95 95.69,-325.49 149,-381.5 154.81,-387.6 161.7,-392.98 168.97,-397.68"/>
<polygon fill="midnightblue" stroke="midnightblue" points="167.27,-400.73 177.65,-402.87 170.87,-394.73 167.27,-400.73"/>
</g>
<!-- Node10 -->
<g id="node10" class="node">
<title>Node10</title>
<g id="a_node10"><a xlink:href="classRa_1_1Core_1_1Grid.html#ac78b9eee5519a5287b1bc7a898b4ea01" target="_top" xlink:title="Access an element with a D&#45;dimensional index.">
<polygon fill="white" stroke="black" points="181,-110 181,-129 281,-129 281,-110 181,-110"/>
<text text-anchor="middle" x="231" y="-117" font-family="Helvetica,sans-Serif" font-size="10.00">Ra::Core::Grid::at</text>
</a>
</g>
</g>
<!-- Node1&#45;&gt;Node10 -->
<g id="edge9" class="edge">
<title>Node1&#45;&gt;Node10</title>
<path fill="none" stroke="midnightblue" d="M91.49,-166.38C108.58,-159.03 129.71,-150.34 149,-143.5 160.56,-139.4 173.2,-135.42 184.99,-131.92"/>
<polygon fill="midnightblue" stroke="midnightblue" points="186.04,-135.26 194.65,-129.1 184.07,-128.54 186.04,-135.26"/>
</g>
<!-- Node11 -->
<g id="node11" class="node">
<title>Node11</title>
<g id="a_node11"><a xlink:href="classRa_1_1Core_1_1Geometry_1_1MultiIndexedGeometry.html#a252d9466c6cb8dba0c76f322cbe99f8b" target="_top" xlink:title="Check that the MultiIndexedGeometry is well built, asserting when it is not.">
<polygon fill="white" stroke="black" points="164,-50 164,-91 298,-91 298,-50 164,-50"/>
<text text-anchor="start" x="172" y="-79" font-family="Helvetica,sans-Serif" font-size="10.00">Ra::Core::Geometry</text>
<text text-anchor="start" x="172" y="-68" font-family="Helvetica,sans-Serif" font-size="10.00">::MultiIndexedGeometry</text>
<text text-anchor="middle" x="231" y="-57" font-family="Helvetica,sans-Serif" font-size="10.00">::checkConsistency</text>
</a>
</g>
</g>
<!-- Node1&#45;&gt;Node11 -->
<g id="edge10" class="edge">
<title>Node1&#45;&gt;Node11</title>
<path fill="none" stroke="midnightblue" d="M71.07,-166.49C87.86,-148.67 118.06,-119.03 149,-100.5 151.83,-98.8 154.77,-97.18 157.79,-95.62"/>
<polygon fill="midnightblue" stroke="midnightblue" points="159.52,-98.67 167,-91.17 156.48,-92.37 159.52,-98.67"/>
</g>
<!-- Node12 -->
<g id="node12" class="node">
<title>Node12</title>
<g id="a_node12"><a xlink:href="classRa_1_1Core_1_1Geometry_1_1AttribArrayGeometry.html#a3a3a1458f93f23c7c8663bc3d52f7841" target="_top" xlink:title=" ">
<polygon fill="white" stroke="black" points="168.5,-186 168.5,-227 293.5,-227 293.5,-186 168.5,-186"/>
<text text-anchor="start" x="176.5" y="-215" font-family="Helvetica,sans-Serif" font-size="10.00">Ra::Core::Geometry</text>
<text text-anchor="start" x="176.5" y="-204" font-family="Helvetica,sans-Serif" font-size="10.00">::AttribArrayGeometry</text>
<text text-anchor="middle" x="231" y="-193" font-family="Helvetica,sans-Serif" font-size="10.00">::colorize</text>
</a>
</g>
</g>
<!-- Node1&#45;&gt;Node12 -->
<g id="edge11" class="edge">
<title>Node1&#45;&gt;Node12</title>
<path fill="none" stroke="midnightblue" d="M113.03,-189.55C127.35,-191.62 142.98,-193.89 158.01,-196.07"/>
<polygon fill="midnightblue" stroke="midnightblue" points="157.9,-199.59 168.3,-197.56 158.9,-192.66 157.9,-199.59"/>
</g>
<!-- Node15 -->
<g id="node15" class="node">
<title>Node15</title>
<g id="a_node15"><a xlink:href="namespaceRa_1_1Core_1_1Geometry.html#a9bf7b8f0db1eacfcae5bd58d00c1c906" target="_top" xlink:title="Get the name expected for a given attrib.">
<polygon fill="white" stroke="black" points="373.5,-123.5 373.5,-153.5 486.5,-153.5 486.5,-123.5 373.5,-123.5"/>
<text text-anchor="start" x="381.5" y="-141.5" font-family="Helvetica,sans-Serif" font-size="10.00">Ra::Core::Geometry</text>
<text text-anchor="middle" x="430" y="-130.5" font-family="Helvetica,sans-Serif" font-size="10.00">::getAttribName</text>
</a>
</g>
</g>
<!-- Node1&#45;&gt;Node15 -->
<g id="edge17" class="edge">
<title>Node1&#45;&gt;Node15</title>
<path fill="none" stroke="midnightblue" d="M113.12,-175.06C179.97,-167.32 292,-154.36 363.12,-146.13"/>
<polygon fill="midnightblue" stroke="midnightblue" points="363.78,-149.57 373.31,-144.95 362.97,-142.62 363.78,-149.57"/>
</g>
<!-- Node17 -->
<g id="node17" class="node">
<title>Node17</title>
<g id="a_node17"><a xlink:href="classRa_1_1Core_1_1Geometry_1_1IndexedGeometry.html#ad1fc6b57b469ef12d14f677852b8f2a8" target="_top" xlink:title=" ">
<polygon fill="white" stroke="black" points="149,-0.5 149,-30.5 313,-30.5 313,-0.5 149,-0.5"/>
<text text-anchor="start" x="157" y="-18.5" font-family="Helvetica,sans-Serif" font-size="10.00">Ra::Core::Geometry</text>
<text text-anchor="middle" x="231" y="-7.5" font-family="Helvetica,sans-Serif" font-size="10.00">::IndexedGeometry::setIndices</text>
</a>
</g>
</g>
<!-- Node1&#45;&gt;Node17 -->
<g id="edge18" class="edge">
<title>Node1&#45;&gt;Node17</title>
<path fill="none" stroke="midnightblue" d="M63.23,-166.26C74.88,-137.36 104.07,-74.46 149,-40.5 151.5,-38.61 154.15,-36.86 156.9,-35.24"/>
<polygon fill="midnightblue" stroke="midnightblue" points="158.73,-38.23 165.98,-30.5 155.5,-32.02 158.73,-38.23"/>
</g>
<!-- Node18 -->
<g id="node18" class="node">
<title>Node18</title>
<g id="a_node18"><a xlink:href="classRa_1_1Core_1_1Geometry_1_1AttribArrayGeometry.html#a646faabae9b936589fe03d8a9d2002e9" target="_top" xlink:title="Set normals.">
<polygon fill="white" stroke="black" points="168.5,-246 168.5,-287 293.5,-287 293.5,-246 168.5,-246"/>
<text text-anchor="start" x="176.5" y="-275" font-family="Helvetica,sans-Serif" font-size="10.00">Ra::Core::Geometry</text>
<text text-anchor="start" x="176.5" y="-264" font-family="Helvetica,sans-Serif" font-size="10.00">::AttribArrayGeometry</text>
<text text-anchor="middle" x="231" y="-253" font-family="Helvetica,sans-Serif" font-size="10.00">::setNormals</text>
</a>
</g>
</g>
<!-- Node1&#45;&gt;Node18 -->
<g id="edge19" class="edge">
<title>Node1&#45;&gt;Node18</title>
<path fill="none" stroke="midnightblue" d="M79.78,-196.5C97.92,-208.32 124.44,-224.7 149,-236.5 152.99,-238.42 157.13,-240.29 161.34,-242.1"/>
<polygon fill="midnightblue" stroke="midnightblue" points="160.05,-245.35 170.62,-245.97 162.74,-238.89 160.05,-245.35"/>
</g>
<!-- Node21 -->
<g id="node21" class="node">
<title>Node21</title>
<g id="a_node21"><a xlink:href="classRa_1_1Core_1_1Geometry_1_1AttribArrayGeometry.html#a887411177386edbcdc35d0c6bf78a83a" target="_top" xlink:title="Set vertices.">
<polygon fill="white" stroke="black" points="168.5,-331 168.5,-372 293.5,-372 293.5,-331 168.5,-331"/>
<text text-anchor="start" x="176.5" y="-360" font-family="Helvetica,sans-Serif" font-size="10.00">Ra::Core::Geometry</text>
<text text-anchor="start" x="176.5" y="-349" font-family="Helvetica,sans-Serif" font-size="10.00">::AttribArrayGeometry</text>
<text text-anchor="middle" x="231" y="-338" font-family="Helvetica,sans-Serif" font-size="10.00">::setVertices</text>
</a>
</g>
</g>
<!-- Node1&#45;&gt;Node21 -->
<g id="edge23" class="edge">
<title>Node1&#45;&gt;Node21</title>
<path fill="none" stroke="midnightblue" d="M67.48,-196.86C83.07,-220.12 114.95,-264.93 149,-296.5 160.24,-306.92 173.62,-316.83 186.22,-325.29"/>
<polygon fill="midnightblue" stroke="midnightblue" points="184.51,-328.35 194.8,-330.9 188.35,-322.49 184.51,-328.35"/>
</g>
<!-- Node3 -->
<g id="node3" class="node">
<title>Node3</title>
<g id="a_node3"><a xlink:href="classRa_1_1Core_1_1Utils_1_1AttribManager.html#ac2d3cdc360ffe1904a15ff8504de95b8" target="_top" xlink:title=" ">
<polygon fill="white" stroke="black" points="349,-463.5 349,-493.5 511,-493.5 511,-463.5 349,-463.5"/>
<text text-anchor="start" x="357" y="-481.5" font-family="Helvetica,sans-Serif" font-size="10.00">Ra::Core::Utils::AttribManager</text>
<text text-anchor="middle" x="430" y="-470.5" font-family="Helvetica,sans-Serif" font-size="10.00">::addAttrib</text>
</a>
</g>
</g>
<!-- Node2&#45;&gt;Node3 -->
<g id="edge2" class="edge">
<title>Node2&#45;&gt;Node3</title>
<path fill="none" stroke="midnightblue" d="M293.52,-440.68C316.44,-447.07 342.48,-454.34 365.57,-460.79"/>
<polygon fill="midnightblue" stroke="midnightblue" points="364.69,-464.18 375.26,-463.5 366.57,-457.44 364.69,-464.18"/>
</g>
<!-- Node9 -->
<g id="node9" class="node">
<title>Node9</title>
<g id="a_node9"><a xlink:href="structRa_1_1Core_1_1Geometry_1_1AbstractGeometry.html#a573def11b92bfa63c15dfddec792b450" target="_top" xlink:title=" ">
<polygon fill="white" stroke="black" points="371.5,-403 371.5,-444 488.5,-444 488.5,-403 371.5,-403"/>
<text text-anchor="start" x="379.5" y="-432" font-family="Helvetica,sans-Serif" font-size="10.00">Ra::Core::Geometry</text>
<text text-anchor="start" x="379.5" y="-421" font-family="Helvetica,sans-Serif" font-size="10.00">::AbstractGeometry::</text>
<text text-anchor="middle" x="430" y="-410" font-family="Helvetica,sans-Serif" font-size="10.00">invalidateAabb</text>
</a>
</g>
</g>
<!-- Node2&#45;&gt;Node9 -->
<g id="edge8" class="edge">
<title>Node2&#45;&gt;Node9</title>
<path fill="none" stroke="midnightblue" d="M293.52,-423.5C314.96,-423.5 339.14,-423.5 361.07,-423.5"/>
<polygon fill="midnightblue" stroke="midnightblue" points="361.3,-427 371.3,-423.5 361.3,-420 361.3,-427"/>
</g>
<!-- Node4 -->
<g id="node4" class="node">
<title>Node4</title>
<g id="a_node4"><a xlink:href="classRa_1_1Core_1_1Utils_1_1AttribManager.html#ae61e2c70f407d49d854ee4b98a39121f" target="_top" xlink:title="Return true if h correspond to an existing attribute in *this.">
<polygon fill="white" stroke="black" points="547,-435.5 547,-465.5 709,-465.5 709,-435.5 547,-435.5"/>
<text text-anchor="start" x="555" y="-453.5" font-family="Helvetica,sans-Serif" font-size="10.00">Ra::Core::Utils::AttribManager</text>
<text text-anchor="middle" x="628" y="-442.5" font-family="Helvetica,sans-Serif" font-size="10.00">::isValid</text>
</a>
</g>
</g>
<!-- Node3&#45;&gt;Node4 -->
<g id="edge3" class="edge">
<title>Node3&#45;&gt;Node4</title>
<path fill="none" stroke="midnightblue" d="M511,-467.07C519.52,-465.85 528.23,-464.61 536.86,-463.38"/>
<polygon fill="midnightblue" stroke="midnightblue" points="537.53,-466.82 546.93,-461.94 536.54,-459.89 537.53,-466.82"/>
</g>
<!-- Node8 -->
<g id="node8" class="node">
<title>Node8</title>
<g id="a_node8"><a xlink:href="classRa_1_1Core_1_1Utils_1_1Observable.html#a7e5fe761726d56a51f95192eb6555f8f" target="_top" xlink:title="Notify (i.e. call) each attached observer with argument p.">
<polygon fill="white" stroke="black" points="554,-485 554,-526 702,-526 702,-485 554,-485"/>
<text text-anchor="start" x="562" y="-514" font-family="Helvetica,sans-Serif" font-size="10.00">Ra::Core::Utils::Observable</text>
<text text-anchor="start" x="562" y="-503" font-family="Helvetica,sans-Serif" font-size="10.00">&lt; const std::string &amp; &gt;</text>
<text text-anchor="middle" x="628" y="-492" font-family="Helvetica,sans-Serif" font-size="10.00">::notify</text>
</a>
</g>
</g>
<!-- Node3&#45;&gt;Node8 -->
<g id="edge7" class="edge">
<title>Node3&#45;&gt;Node8</title>
<path fill="none" stroke="midnightblue" d="M511,-489.52C521.86,-491.02 533.03,-492.55 543.94,-494.06"/>
<polygon fill="midnightblue" stroke="midnightblue" points="543.49,-497.53 553.87,-495.43 544.45,-490.59 543.49,-497.53"/>
</g>
<!-- Node5 -->
<g id="node5" class="node">
<title>Node5</title>
<g id="a_node5"><a xlink:href="classRa_1_1Core_1_1Utils_1_1AttribHandle.html#a17afbd6718234d480c05258369bdfde9" target="_top" xlink:title=" ">
<polygon fill="white" stroke="black" points="745,-459.5 745,-489.5 899,-489.5 899,-459.5 745,-459.5"/>
<text text-anchor="start" x="753" y="-477.5" font-family="Helvetica,sans-Serif" font-size="10.00">Ra::Core::Utils::AttribHandle</text>
<text text-anchor="middle" x="822" y="-466.5" font-family="Helvetica,sans-Serif" font-size="10.00">::attribName</text>
</a>
</g>
</g>
<!-- Node4&#45;&gt;Node5 -->
<g id="edge4" class="edge">
<title>Node4&#45;&gt;Node5</title>
<path fill="none" stroke="midnightblue" d="M709.03,-460.5C717.54,-461.57 726.22,-462.65 734.79,-463.72"/>
<polygon fill="midnightblue" stroke="midnightblue" points="734.43,-467.21 744.79,-464.97 735.3,-460.26 734.43,-467.21"/>
</g>
<!-- Node6 -->
<g id="node6" class="node">
<title>Node6</title>
<g id="a_node6"><a xlink:href="classRa_1_1Core_1_1Utils_1_1Index.html#a771f93efd49538950e3cb9e57e46fbaf" target="_top" xlink:title=" ">
<polygon fill="white" stroke="black" points="762.5,-410.5 762.5,-440.5 881.5,-440.5 881.5,-410.5 762.5,-410.5"/>
<text text-anchor="start" x="770.5" y="-428.5" font-family="Helvetica,sans-Serif" font-size="10.00">Ra::Core::Utils::Index</text>
<text text-anchor="middle" x="822" y="-417.5" font-family="Helvetica,sans-Serif" font-size="10.00">::Invalid</text>
</a>
</g>
</g>
<!-- Node4&#45;&gt;Node6 -->
<g id="edge5" class="edge">
<title>Node4&#45;&gt;Node6</title>
<path fill="none" stroke="midnightblue" d="M709.03,-440.08C723.44,-438.2 738.34,-436.26 752.39,-434.43"/>
<polygon fill="midnightblue" stroke="midnightblue" points="752.98,-437.89 762.45,-433.12 752.08,-430.94 752.98,-437.89"/>
</g>
<!-- Node7 -->
<g id="node7" class="node">
<title>Node7</title>
<g id="a_node7"><a xlink:href="classRa_1_1Core_1_1Utils_1_1Index.html#ab3376097b792b1ac2068c6da1cb6c8e4" target="_top" xlink:title="CONSTRUCTOR.">
<polygon fill="white" stroke="black" points="935,-410.5 935,-440.5 1054,-440.5 1054,-410.5 935,-410.5"/>
<text text-anchor="start" x="943" y="-428.5" font-family="Helvetica,sans-Serif" font-size="10.00">Ra::Core::Utils::Index</text>
<text text-anchor="middle" x="994.5" y="-417.5" font-family="Helvetica,sans-Serif" font-size="10.00">::Index</text>
</a>
</g>
</g>
<!-- Node6&#45;&gt;Node7 -->
<g id="edge6" class="edge">
<title>Node6&#45;&gt;Node7</title>
<path fill="none" stroke="midnightblue" d="M881.68,-425.5C895.47,-425.5 910.3,-425.5 924.51,-425.5"/>
<polygon fill="midnightblue" stroke="midnightblue" points="924.72,-429 934.72,-425.5 924.72,-422 924.72,-429"/>
</g>
<!-- Node13 -->
<g id="node13" class="node">
<title>Node13</title>
<g id="a_node13"><a xlink:href="classRa_1_1Core_1_1Geometry_1_1AttribArrayGeometry.html#aeb68d9cd8cf8c1e05886a23f0ad33c59" target="_top" xlink:title=" ">
<polygon fill="white" stroke="black" points="367.5,-173 367.5,-214 492.5,-214 492.5,-173 367.5,-173"/>
<text text-anchor="start" x="375.5" y="-202" font-family="Helvetica,sans-Serif" font-size="10.00">Ra::Core::Geometry</text>
<text text-anchor="start" x="375.5" y="-191" font-family="Helvetica,sans-Serif" font-size="10.00">::AttribArrayGeometry</text>
<text text-anchor="middle" x="430" y="-180" font-family="Helvetica,sans-Serif" font-size="10.00">::getAttrib</text>
</a>
</g>
</g>
<!-- Node12&#45;&gt;Node13 -->
<g id="edge12" class="edge">
<title>Node12&#45;&gt;Node13</title>
<path fill="none" stroke="midnightblue" d="M293.52,-202.44C313.7,-201.11 336.3,-199.62 357.18,-198.24"/>
<polygon fill="midnightblue" stroke="midnightblue" points="357.52,-201.72 367.27,-197.57 357.06,-194.74 357.52,-201.72"/>
</g>
<!-- Node12&#45;&gt;Node15 -->
<g id="edge14" class="edge">
<title>Node12&#45;&gt;Node15</title>
<path fill="none" stroke="midnightblue" d="M286.27,-185.92C305.95,-178.63 328.41,-170.5 349,-163.5 355.73,-161.21 362.79,-158.89 369.83,-156.63"/>
<polygon fill="midnightblue" stroke="midnightblue" points="370.91,-159.96 379.37,-153.59 368.78,-153.29 370.91,-159.96"/>
</g>
<!-- Node16 -->
<g id="node16" class="node">
<title>Node16</title>
<g id="a_node16"><a xlink:href="classRa_1_1Core_1_1Geometry_1_1AttribArrayGeometry.html#acabe05880d71a8dc4406964c258fff5a" target="_top" xlink:title="Access the vertices positions.">
<polygon fill="white" stroke="black" points="367.5,-293 367.5,-334 492.5,-334 492.5,-293 367.5,-293"/>
<text text-anchor="start" x="375.5" y="-322" font-family="Helvetica,sans-Serif" font-size="10.00">Ra::Core::Geometry</text>
<text text-anchor="start" x="375.5" y="-311" font-family="Helvetica,sans-Serif" font-size="10.00">::AttribArrayGeometry</text>
<text text-anchor="middle" x="430" y="-300" font-family="Helvetica,sans-Serif" font-size="10.00">::vertices</text>
</a>
</g>
</g>
<!-- Node12&#45;&gt;Node16 -->
<g id="edge15" class="edge">
<title>Node12&#45;&gt;Node16</title>
<path fill="none" stroke="midnightblue" d="M293.64,-225.06C300.47,-228.34 307.09,-232.14 313,-236.5 334.17,-252.13 327.86,-267.83 349,-283.5 351.98,-285.71 355.13,-287.77 358.4,-289.69"/>
<polygon fill="midnightblue" stroke="midnightblue" points="356.83,-292.82 367.3,-294.46 360.14,-286.65 356.83,-292.82"/>
</g>
<!-- Node14 -->
<g id="node14" class="node">
<title>Node14</title>
<g id="a_node14"><a xlink:href="classRa_1_1Core_1_1Utils_1_1AttribManager.html#ae0cb7281ec72606a5392602b4ea50d2c" target="_top" xlink:title=" ">
<polygon fill="white" stroke="black" points="547,-238.5 547,-268.5 709,-268.5 709,-238.5 547,-238.5"/>
<text text-anchor="start" x="555" y="-256.5" font-family="Helvetica,sans-Serif" font-size="10.00">Ra::Core::Utils::AttribManager</text>
<text text-anchor="middle" x="628" y="-245.5" font-family="Helvetica,sans-Serif" font-size="10.00">::getAttrib</text>
</a>
</g>
</g>
<!-- Node13&#45;&gt;Node14 -->
<g id="edge13" class="edge">
<title>Node13&#45;&gt;Node14</title>
<path fill="none" stroke="midnightblue" d="M492.75,-212.4C516.91,-219.8 544.49,-228.24 568.35,-235.55"/>
<polygon fill="midnightblue" stroke="midnightblue" points="567.39,-238.91 577.98,-238.49 569.44,-232.22 567.39,-238.91"/>
</g>
<!-- Node16&#45;&gt;Node14 -->
<g id="edge16" class="edge">
<title>Node16&#45;&gt;Node14</title>
<path fill="none" stroke="midnightblue" d="M492.75,-294.6C516.91,-287.2 544.49,-278.76 568.35,-271.45"/>
<polygon fill="midnightblue" stroke="midnightblue" points="569.44,-274.78 577.98,-268.51 567.39,-268.09 569.44,-274.78"/>
</g>
<!-- Node19 -->
<g id="node19" class="node">
<title>Node19</title>
<g id="a_node19"><a xlink:href="classRa_1_1Core_1_1Geometry_1_1AttribArrayGeometry.html#abfd2320cb73c0cb14805c234af594b5e" target="_top" xlink:title="Access the vertices normals.">
<polygon fill="white" stroke="black" points="367.5,-233 367.5,-274 492.5,-274 492.5,-233 367.5,-233"/>
<text text-anchor="start" x="375.5" y="-262" font-family="Helvetica,sans-Serif" font-size="10.00">Ra::Core::Geometry</text>
<text text-anchor="start" x="375.5" y="-251" font-family="Helvetica,sans-Serif" font-size="10.00">::AttribArrayGeometry</text>
<text text-anchor="middle" x="430" y="-240" font-family="Helvetica,sans-Serif" font-size="10.00">::normals</text>
</a>
</g>
</g>
<!-- Node18&#45;&gt;Node19 -->
<g id="edge20" class="edge">
<title>Node18&#45;&gt;Node19</title>
<path fill="none" stroke="midnightblue" d="M293.52,-262.44C313.7,-261.11 336.3,-259.62 357.18,-258.24"/>
<polygon fill="midnightblue" stroke="midnightblue" points="357.52,-261.72 367.27,-257.57 357.06,-254.74 357.52,-261.72"/>
</g>
<!-- Node20 -->
<g id="node20" class="node">
<title>Node20</title>
<g id="a_node20"><a xlink:href="classRa_1_1Core_1_1Utils_1_1AttribManager.html#a056b7697cfbedd6b20dde6ce7955094e" target="_top" xlink:title=" ">
<polygon fill="white" stroke="black" points="349,-353.5 349,-383.5 511,-383.5 511,-353.5 349,-353.5"/>
<text text-anchor="start" x="357" y="-371.5" font-family="Helvetica,sans-Serif" font-size="10.00">Ra::Core::Utils::AttribManager</text>
<text text-anchor="middle" x="430" y="-360.5" font-family="Helvetica,sans-Serif" font-size="10.00">::setAttrib</text>
</a>
</g>
</g>
<!-- Node18&#45;&gt;Node20 -->
<g id="edge22" class="edge">
<title>Node18&#45;&gt;Node20</title>
<path fill="none" stroke="midnightblue" d="M262.41,-287.14C293.95,-308.46 339.94,-339.21 349,-343.5 353.85,-345.8 358.96,-347.95 364.16,-349.96"/>
<polygon fill="midnightblue" stroke="midnightblue" points="362.98,-353.25 373.57,-353.4 365.38,-346.68 362.98,-353.25"/>
</g>
<!-- Node19&#45;&gt;Node14 -->
<g id="edge21" class="edge">
<title>Node19&#45;&gt;Node14</title>
<path fill="none" stroke="midnightblue" d="M492.75,-253.5C506.7,-253.5 521.79,-253.5 536.64,-253.5"/>
<polygon fill="midnightblue" stroke="midnightblue" points="536.87,-257 546.87,-253.5 536.87,-250 536.87,-257"/>
</g>
<!-- Node21&#45;&gt;Node9 -->
<g id="edge24" class="edge">
<title>Node21&#45;&gt;Node9</title>
<path fill="none" stroke="midnightblue" d="M288.19,-372.04C311.58,-380.59 338.91,-390.57 363.23,-399.46"/>
<polygon fill="midnightblue" stroke="midnightblue" points="362.14,-402.79 372.74,-402.94 364.55,-396.22 362.14,-402.79"/>
</g>
<!-- Node21&#45;&gt;Node16 -->
<g id="edge26" class="edge">
<title>Node21&#45;&gt;Node16</title>
<path fill="none" stroke="midnightblue" d="M293.52,-339.63C313.7,-335.74 336.3,-331.38 357.18,-327.35"/>
<polygon fill="midnightblue" stroke="midnightblue" points="358.11,-330.74 367.27,-325.41 356.79,-323.87 358.11,-330.74"/>
</g>
<!-- Node21&#45;&gt;Node20 -->
<g id="edge25" class="edge">
<title>Node21&#45;&gt;Node20</title>
<path fill="none" stroke="midnightblue" d="M293.52,-356.81C307.88,-358.05 323.46,-359.39 338.77,-360.71"/>
<polygon fill="midnightblue" stroke="midnightblue" points="338.51,-364.2 348.78,-361.58 339.11,-357.23 338.51,-364.2"/>
</g>
</g>
</svg>
