<?xml version="1.0" encoding="UTF-8" standalone="no"?>
<!DOCTYPE svg PUBLIC "-//W3C//DTD SVG 1.1//EN"
 "http://www.w3.org/Graphics/SVG/1.1/DTD/svg11.dtd">
<!-- Generated by graphviz version 2.43.0 (0)
 -->
<!-- Title: CLI::retire_option Pages: 1 -->
<!--zoomable 569 -->
<svg id="main" version="1.1" xmlns="http://www.w3.org/2000/svg" xmlns:xlink="http://www.w3.org/1999/xlink" xml:space="preserve" onload="init(evt)">
<style type="text/css"><![CDATA[
.edge:hover path { stroke: red; }
.edge:hover polygon { stroke: red; fill: red; }
]]></style>
<script type="text/javascript"><![CDATA[
var edges = document.getElementsByTagName('g');
if (edges && edges.length) {
  for (var i=0;i<edges.length;i++) {
    if (edges[i].id.substr(0,4)=='edge') {
      edges[i].setAttribute('class','edge');
    }
  }
}
]]></script>
        <defs>
                <circle id="rim" cx="0" cy="0" r="7"/>
                <circle id="rim2" cx="0" cy="0" r="3.5"/>
                <g id="zoomPlus">
                        <use xlink:href="#rim" fill="#404040">
                                <set attributeName="fill" to="#808080" begin="zoomplus.mouseover" end="zoomplus.mouseout"/>
                        </use>
                        <path d="M-4,0h8M0,-4v8" fill="none" stroke="white" stroke-width="1.5" pointer-events="none"/>
                </g>
                <g id="zoomMin">
                        <use xlink:href="#rim" fill="#404040">
                                <set attributeName="fill" to="#808080" begin="zoomminus.mouseover" end="zoomminus.mouseout"/>
                        </use>
                        <path d="M-4,0h8" fill="none" stroke="white" stroke-width="1.5" pointer-events="none"/>
                </g>
                <g id="dirArrow">
                        <path fill="none" stroke="white" stroke-width="1.5" d="M0,-3.0v7 M-2.5,-0.5L0,-3.0L2.5,-0.5"/>
                </g>
               <g id="resetDef">
                       <use xlink:href="#rim2" fill="#404040">
                               <set attributeName="fill" to="#808080" begin="reset.mouseover" end="reset.mouseout"/>
                       </use>
               </g>
        </defs>

<script type="text/javascript">
var viewWidth = 980;
var viewHeight = 569;
var sectionId = 'dynsection-7';
</script>
<script xlink:href="svgpan.js"/>
<svg id="graph" class="graph">
<g id="viewport">
<title>CLI::retire_option</title>
<polygon fill="white" stroke="transparent" points="-4,4 -4,-565 976,-565 976,4 -4,4"/>
<!-- Node1 -->
<g id="node1" class="node">
<title>Node1</title>
<g id="a_node1"><a xlink:title="Helper function to mark an option as retired.">
<polygon fill="#bfbfbf" stroke="black" points="0,-270.5 0,-289.5 100,-289.5 100,-270.5 0,-270.5"/>
<text text-anchor="middle" x="50" y="-277.5" font-family="Helvetica,sans-Serif" font-size="10.00">CLI::retire_option</text>
</a>
</g>
</g>
<!-- Node2 -->
<g id="node2" class="node">
<title>Node2</title>
<g id="a_node2"><a xlink:href="classCLI_1_1App.html#a1f9503a8cdceb4e5b42c9fd4ae6b7b10" target="_top" xlink:title=" ">
<polygon fill="white" stroke="black" points="162.5,-541.5 162.5,-560.5 278.5,-560.5 278.5,-541.5 162.5,-541.5"/>
<text text-anchor="middle" x="220.5" y="-548.5" font-family="Helvetica,sans-Serif" font-size="10.00">CLI::App::add_option</text>
</a>
</g>
</g>
<!-- Node1&#45;&gt;Node2 -->
<g id="edge1" class="edge">
<title>Node1&#45;&gt;Node2</title>
<path fill="none" stroke="midnightblue" d="M51.1,-289.51C52.02,-326.74 60.62,-463.91 136,-532 140.85,-536.38 146.5,-539.82 152.53,-542.51"/>
<polygon fill="midnightblue" stroke="midnightblue" points="151.66,-545.92 162.25,-546.14 154.11,-539.36 151.66,-545.92"/>
</g>
<!-- Node3 -->
<g id="node3" class="node">
<title>Node3</title>
<g id="a_node3"><a xlink:href="classCLI_1_1Option.html#aa49c5dadba733571b8b92e713347329f" target="_top" xlink:title=" ">
<polygon fill="white" stroke="black" points="169.5,-492 169.5,-522 271.5,-522 271.5,-492 169.5,-492"/>
<text text-anchor="start" x="177.5" y="-510" font-family="Helvetica,sans-Serif" font-size="10.00">CLI::Option::allow</text>
<text text-anchor="middle" x="220.5" y="-499" font-family="Helvetica,sans-Serif" font-size="10.00">_extra_args</text>
</a>
</g>
</g>
<!-- Node1&#45;&gt;Node3 -->
<g id="edge2" class="edge">
<title>Node1&#45;&gt;Node3</title>
<path fill="none" stroke="midnightblue" d="M52.16,-289.68C56.55,-322.02 75.14,-427.34 136,-482 142.86,-488.16 151.19,-492.81 159.9,-496.31"/>
<polygon fill="midnightblue" stroke="midnightblue" points="158.85,-499.65 169.44,-499.68 161.18,-493.05 158.85,-499.65"/>
</g>
<!-- Node4 -->
<g id="node4" class="node">
<title>Node4</title>
<g id="a_node4"><a xlink:href="classCLI_1_1Option.html#a446f47a5d6ddf6831defd707394d7c07" target="_top" xlink:title="Set the default value string representation (does not change the contained value)">
<polygon fill="white" stroke="black" points="156.5,-453.5 156.5,-472.5 284.5,-472.5 284.5,-453.5 156.5,-453.5"/>
<text text-anchor="middle" x="220.5" y="-460.5" font-family="Helvetica,sans-Serif" font-size="10.00">CLI::Option::default_str</text>
</a>
</g>
</g>
<!-- Node1&#45;&gt;Node4 -->
<g id="edge3" class="edge">
<title>Node1&#45;&gt;Node4</title>
<path fill="none" stroke="midnightblue" d="M52.99,-289.58C59.44,-318.04 82.47,-402.61 136,-444 139.37,-446.61 143.04,-448.87 146.89,-450.83"/>
<polygon fill="midnightblue" stroke="midnightblue" points="145.6,-454.09 156.16,-454.88 148.4,-447.67 145.6,-454.09"/>
</g>
<!-- Node5 -->
<g id="node5" class="node">
<title>Node5</title>
<g id="a_node5"><a xlink:href="classCLI_1_1Option.html#af75c26433baa09c7c762bfb9eb466215" target="_top" xlink:title="Set the number of expected arguments.">
<polygon fill="white" stroke="black" points="160,-415.5 160,-434.5 281,-434.5 281,-415.5 160,-415.5"/>
<text text-anchor="middle" x="220.5" y="-422.5" font-family="Helvetica,sans-Serif" font-size="10.00">CLI::Option::expected</text>
</a>
</g>
</g>
<!-- Node1&#45;&gt;Node5 -->
<g id="edge4" class="edge">
<title>Node1&#45;&gt;Node5</title>
<path fill="none" stroke="midnightblue" d="M54.6,-289.72C63.98,-313.63 91.59,-375.58 136,-406 140.34,-408.97 145.06,-411.48 150,-413.6"/>
<polygon fill="midnightblue" stroke="midnightblue" points="149.09,-417 159.68,-417.23 151.54,-410.45 149.09,-417"/>
</g>
<!-- Node6 -->
<g id="node6" class="node">
<title>Node6</title>
<g id="a_node6"><a xlink:href="classCLI_1_1Option.html#a784f66cb9371753ddeb8df59c85cb490" target="_top" xlink:title="Get the current value of allow extra args.">
<polygon fill="white" stroke="black" points="159,-366 159,-396 282,-396 282,-366 159,-366"/>
<text text-anchor="start" x="167" y="-384" font-family="Helvetica,sans-Serif" font-size="10.00">CLI::Option::get_allow</text>
<text text-anchor="middle" x="220.5" y="-373" font-family="Helvetica,sans-Serif" font-size="10.00">_extra_args</text>
</a>
</g>
</g>
<!-- Node1&#45;&gt;Node6 -->
<g id="edge5" class="edge">
<title>Node1&#45;&gt;Node6</title>
<path fill="none" stroke="midnightblue" d="M59.16,-289.65C73.23,-305.7 103.7,-337.92 136,-356 140.23,-358.37 144.72,-360.54 149.32,-362.52"/>
<polygon fill="midnightblue" stroke="midnightblue" points="148.31,-365.88 158.9,-366.32 150.9,-359.38 148.31,-365.88"/>
</g>
<!-- Node7 -->
<g id="node7" class="node">
<title>Node7</title>
<g id="a_node7"><a xlink:href="classCLI_1_1Option.html#a21133f27201fa12203567cf0ee40c9c5" target="_top" xlink:title="The max number of times the option expects to be included.">
<polygon fill="white" stroke="black" points="136,-327.5 136,-346.5 305,-346.5 305,-327.5 136,-327.5"/>
<text text-anchor="middle" x="220.5" y="-334.5" font-family="Helvetica,sans-Serif" font-size="10.00">CLI::Option::get_expected_max</text>
</a>
</g>
</g>
<!-- Node1&#45;&gt;Node7 -->
<g id="edge6" class="edge">
<title>Node1&#45;&gt;Node7</title>
<path fill="none" stroke="midnightblue" d="M69.48,-289.54C86.42,-297.97 112.39,-310.12 136,-318 143.72,-320.58 151.96,-322.92 160.14,-325.01"/>
<polygon fill="midnightblue" stroke="midnightblue" points="159.5,-328.46 170.05,-327.44 161.16,-321.66 159.5,-328.46"/>
</g>
<!-- Node8 -->
<g id="node8" class="node">
<title>Node8</title>
<g id="a_node8"><a xlink:href="classCLI_1_1Option.html#a19c64a02c22d968e834c2aaf13f98f62" target="_top" xlink:title="The number of times the option expects to be included.">
<polygon fill="white" stroke="black" points="137.5,-289.5 137.5,-308.5 303.5,-308.5 303.5,-289.5 137.5,-289.5"/>
<text text-anchor="middle" x="220.5" y="-296.5" font-family="Helvetica,sans-Serif" font-size="10.00">CLI::Option::get_expected_min</text>
</a>
</g>
</g>
<!-- Node1&#45;&gt;Node8 -->
<g id="edge7" class="edge">
<title>Node1&#45;&gt;Node8</title>
<path fill="none" stroke="midnightblue" d="M100.19,-285.55C108.75,-286.51 117.9,-287.54 127.18,-288.59"/>
<polygon fill="midnightblue" stroke="midnightblue" points="126.95,-292.09 137.28,-289.73 127.73,-285.13 126.95,-292.09"/>
</g>
<!-- Node9 -->
<g id="node9" class="node">
<title>Node9</title>
<g id="a_node9"><a xlink:href="classCLI_1_1Validator.html#aba763211f1b7c9e9866da767ba731999" target="_top" xlink:title="Get the name of the Validator.">
<polygon fill="white" stroke="black" points="152.5,-251.5 152.5,-270.5 288.5,-270.5 288.5,-251.5 152.5,-251.5"/>
<text text-anchor="middle" x="220.5" y="-258.5" font-family="Helvetica,sans-Serif" font-size="10.00">CLI::Validator::get_name</text>
</a>
</g>
</g>
<!-- Node1&#45;&gt;Node9 -->
<g id="edge8" class="edge">
<title>Node1&#45;&gt;Node9</title>
<path fill="none" stroke="midnightblue" d="M100.19,-274.45C113.32,-272.97 127.84,-271.34 142.09,-269.73"/>
<polygon fill="midnightblue" stroke="midnightblue" points="142.85,-273.16 152.4,-268.57 142.07,-266.21 142.85,-273.16"/>
</g>
<!-- Node10 -->
<g id="node10" class="node">
<title>Node10</title>
<g id="a_node10"><a xlink:href="classCLI_1_1Option.html#ab84751fbf9037efaed5b64fed17fe57f" target="_top" xlink:title="Gets a comma separated list of names. Will include / prefer the positional name if positional is true...">
<polygon fill="white" stroke="black" points="158,-213.5 158,-232.5 283,-232.5 283,-213.5 158,-213.5"/>
<text text-anchor="middle" x="220.5" y="-220.5" font-family="Helvetica,sans-Serif" font-size="10.00">CLI::Option::get_name</text>
</a>
</g>
</g>
<!-- Node1&#45;&gt;Node10 -->
<g id="edge9" class="edge">
<title>Node1&#45;&gt;Node10</title>
<path fill="none" stroke="midnightblue" d="M69.48,-270.46C86.42,-262.03 112.39,-249.88 136,-242 143.72,-239.42 151.96,-237.08 160.14,-234.99"/>
<polygon fill="midnightblue" stroke="midnightblue" points="161.16,-238.34 170.05,-232.56 159.5,-231.54 161.16,-238.34"/>
</g>
<!-- Node25 -->
<g id="node25" class="node">
<title>Node25</title>
<g id="a_node25"><a xlink:href="classCLI_1_1Option.html#a0c7e5712134a2227301fb50bcc9488c8" target="_top" xlink:title="The maximum number of arguments the option expects.">
<polygon fill="white" stroke="black" points="161,-164 161,-194 280,-194 280,-164 161,-164"/>
<text text-anchor="start" x="169" y="-182" font-family="Helvetica,sans-Serif" font-size="10.00">CLI::Option::get_type</text>
<text text-anchor="middle" x="220.5" y="-171" font-family="Helvetica,sans-Serif" font-size="10.00">_size_max</text>
</a>
</g>
</g>
<!-- Node1&#45;&gt;Node25 -->
<g id="edge28" class="edge">
<title>Node1&#45;&gt;Node25</title>
<path fill="none" stroke="midnightblue" d="M59.16,-270.35C73.23,-254.3 103.7,-222.08 136,-204 140.79,-201.32 145.89,-198.9 151.13,-196.72"/>
<polygon fill="midnightblue" stroke="midnightblue" points="152.59,-199.9 160.66,-193.04 150.07,-193.37 152.59,-199.9"/>
</g>
<!-- Node26 -->
<g id="node26" class="node">
<title>Node26</title>
<g id="a_node26"><a xlink:href="classCLI_1_1Option.html#a38a511ab2001c283c06fb31a7ea12501" target="_top" xlink:title="The minimum number of arguments the option expects.">
<polygon fill="white" stroke="black" points="161,-115 161,-145 280,-145 280,-115 161,-115"/>
<text text-anchor="start" x="169" y="-133" font-family="Helvetica,sans-Serif" font-size="10.00">CLI::Option::get_type</text>
<text text-anchor="middle" x="220.5" y="-122" font-family="Helvetica,sans-Serif" font-size="10.00">_size_min</text>
</a>
</g>
</g>
<!-- Node1&#45;&gt;Node26 -->
<g id="edge29" class="edge">
<title>Node1&#45;&gt;Node26</title>
<path fill="none" stroke="midnightblue" d="M54.9,-270.19C64.76,-246.64 93.02,-186.48 136,-155 140.77,-151.51 146.03,-148.5 151.52,-145.9"/>
<polygon fill="midnightblue" stroke="midnightblue" points="153.08,-149.04 160.92,-141.92 150.35,-142.6 153.08,-149.04"/>
</g>
<!-- Node27 -->
<g id="node27" class="node">
<title>Node27</title>
<g id="a_node27"><a xlink:href="classCLI_1_1App.html#a3058b128735eec0813589b56c5453115" target="_top" xlink:title="Removes an option from the App. Takes an option pointer. Returns true if found and removed.">
<polygon fill="white" stroke="black" points="152.5,-76.5 152.5,-95.5 288.5,-95.5 288.5,-76.5 152.5,-76.5"/>
<text text-anchor="middle" x="220.5" y="-83.5" font-family="Helvetica,sans-Serif" font-size="10.00">CLI::App::remove_option</text>
</a>
</g>
</g>
<!-- Node1&#45;&gt;Node27 -->
<g id="edge30" class="edge">
<title>Node1&#45;&gt;Node27</title>
<path fill="none" stroke="midnightblue" d="M52.74,-270.3C58.59,-240.65 80.39,-150.58 136,-106 138.76,-103.79 141.72,-101.82 144.83,-100.05"/>
<polygon fill="midnightblue" stroke="midnightblue" points="146.46,-103.16 153.92,-95.64 143.4,-96.86 146.46,-103.16"/>
</g>
<!-- Node28 -->
<g id="node28" class="node">
<title>Node28</title>
<g id="a_node28"><a xlink:href="classCLI_1_1Option.html#addaddebd60f66aaedc13e5fb473db902" target="_top" xlink:title="Set a custom option typestring.">
<polygon fill="white" stroke="black" points="155,-38.5 155,-57.5 286,-57.5 286,-38.5 155,-38.5"/>
<text text-anchor="middle" x="220.5" y="-45.5" font-family="Helvetica,sans-Serif" font-size="10.00">CLI::Option::type_name</text>
</a>
</g>
</g>
<!-- Node1&#45;&gt;Node28 -->
<g id="edge31" class="edge">
<title>Node1&#45;&gt;Node28</title>
<path fill="none" stroke="midnightblue" d="M51.79,-270.12C55.06,-236.1 70.64,-122.89 136,-67 139.03,-64.41 142.34,-62.16 145.83,-60.19"/>
<polygon fill="midnightblue" stroke="midnightblue" points="147.34,-63.35 154.87,-55.89 144.33,-57.03 147.34,-63.35"/>
</g>
<!-- Node30 -->
<g id="node30" class="node">
<title>Node30</title>
<g id="a_node30"><a xlink:href="classCLI_1_1Option.html#a490eba9b24865845a0715e4566dcb6cc" target="_top" xlink:title="Set a custom option size.">
<polygon fill="white" stroke="black" points="159.5,-0.5 159.5,-19.5 281.5,-19.5 281.5,-0.5 159.5,-0.5"/>
<text text-anchor="middle" x="220.5" y="-7.5" font-family="Helvetica,sans-Serif" font-size="10.00">CLI::Option::type_size</text>
</a>
</g>
</g>
<!-- Node1&#45;&gt;Node30 -->
<g id="edge33" class="edge">
<title>Node1&#45;&gt;Node30</title>
<path fill="none" stroke="midnightblue" d="M51.12,-270.27C52.13,-232.82 61.02,-96.65 136,-29 140.14,-25.27 144.86,-22.22 149.9,-19.73"/>
<polygon fill="midnightblue" stroke="midnightblue" points="151.36,-22.92 159.26,-15.85 148.68,-16.45 151.36,-22.92"/>
</g>
<!-- Node11 -->
<g id="node11" class="node">
<title>Node11</title>
<g id="a_node11"><a xlink:href="classCLI_1_1Option.html#a4d2329268bae134aa58e704fa61f4b57" target="_top" xlink:title="Requires &quot;&#45;&#45;&quot; to be removed from string.">
<polygon fill="white" stroke="black" points="362,-279 362,-309 466,-309 466,-279 362,-279"/>
<text text-anchor="start" x="370" y="-297" font-family="Helvetica,sans-Serif" font-size="10.00">CLI::Option::check</text>
<text text-anchor="middle" x="414" y="-286" font-family="Helvetica,sans-Serif" font-size="10.00">_fname</text>
</a>
</g>
</g>
<!-- Node10&#45;&gt;Node11 -->
<g id="edge10" class="edge">
<title>Node10&#45;&gt;Node11</title>
<path fill="none" stroke="midnightblue" d="M278.27,-232.52C287.42,-235.02 296.64,-238.13 305,-242 323.15,-250.4 323.34,-259.61 341,-269 344.98,-271.12 349.19,-273.12 353.47,-274.99"/>
<polygon fill="midnightblue" stroke="midnightblue" points="352.38,-278.32 362.96,-278.88 355.04,-271.85 352.38,-278.32"/>
</g>
<!-- Node17 -->
<g id="node17" class="node">
<title>Node17</title>
<g id="a_node17"><a xlink:href="classCLI_1_1Option.html#af5677ee4a55c2a85784f64198db6b452" target="_top" xlink:title="True if the option was not passed.">
<polygon fill="white" stroke="black" points="360.5,-240.5 360.5,-259.5 467.5,-259.5 467.5,-240.5 360.5,-240.5"/>
<text text-anchor="middle" x="414" y="-247.5" font-family="Helvetica,sans-Serif" font-size="10.00">CLI::Option::empty</text>
</a>
</g>
</g>
<!-- Node10&#45;&gt;Node17 -->
<g id="edge18" class="edge">
<title>Node10&#45;&gt;Node17</title>
<path fill="none" stroke="midnightblue" d="M283.15,-231.69C304.67,-234.73 328.83,-238.13 350.43,-241.18"/>
<polygon fill="midnightblue" stroke="midnightblue" points="350.08,-244.66 360.47,-242.59 351.06,-237.73 350.08,-244.66"/>
</g>
<!-- Node18 -->
<g id="node18" class="node">
<title>Node18</title>
<g id="a_node18"><a xlink:href="classCLI_1_1Option.html#a4eb6212ac30a0b139da52d258a3a1790" target="_top" xlink:title=" ">
<polygon fill="white" stroke="black" points="356.5,-191 356.5,-221 471.5,-221 471.5,-191 356.5,-191"/>
<text text-anchor="start" x="364.5" y="-209" font-family="Helvetica,sans-Serif" font-size="10.00">CLI::Option::get_flag</text>
<text text-anchor="middle" x="414" y="-198" font-family="Helvetica,sans-Serif" font-size="10.00">_value</text>
</a>
</g>
</g>
<!-- Node10&#45;&gt;Node18 -->
<g id="edge19" class="edge">
<title>Node10&#45;&gt;Node18</title>
<path fill="none" stroke="midnightblue" d="M283.15,-217.53C303.26,-215.74 325.68,-213.75 346.15,-211.93"/>
<polygon fill="midnightblue" stroke="midnightblue" points="346.69,-215.4 356.34,-211.03 346.07,-208.43 346.69,-215.4"/>
</g>
<!-- Node21 -->
<g id="node21" class="node">
<title>Node21</title>
<g id="a_node21"><a xlink:href="classCLI_1_1OptionBase.html#a341e7df4c2693312609186f036dd923c" target="_top" xlink:title="Get the group of this option.">
<polygon fill="white" stroke="black" points="345.5,-142 345.5,-172 482.5,-172 482.5,-142 345.5,-142"/>
<text text-anchor="start" x="353.5" y="-160" font-family="Helvetica,sans-Serif" font-size="10.00">CLI::OptionBase&lt; Option</text>
<text text-anchor="middle" x="414" y="-149" font-family="Helvetica,sans-Serif" font-size="10.00"> &gt;::get_group</text>
</a>
</g>
</g>
<!-- Node10&#45;&gt;Node21 -->
<g id="edge24" class="edge">
<title>Node10&#45;&gt;Node21</title>
<path fill="none" stroke="midnightblue" d="M275.3,-213.47C285.35,-210.93 295.63,-207.81 305,-204 322.37,-196.94 324.05,-190.01 341,-182 345.59,-179.83 350.43,-177.75 355.33,-175.78"/>
<polygon fill="midnightblue" stroke="midnightblue" points="356.72,-178.99 364.79,-172.13 354.2,-172.46 356.72,-178.99"/>
</g>
<!-- Node22 -->
<g id="node22" class="node">
<title>Node22</title>
<g id="a_node22"><a xlink:href="classCLI_1_1Option.html#afe31a608506cbe75d40d6cced342be11" target="_top" xlink:title="The total min number of expected string values to be used.">
<polygon fill="white" stroke="black" points="351.5,-93 351.5,-123 476.5,-123 476.5,-93 351.5,-93"/>
<text text-anchor="start" x="359.5" y="-111" font-family="Helvetica,sans-Serif" font-size="10.00">CLI::Option::get_items</text>
<text text-anchor="middle" x="414" y="-100" font-family="Helvetica,sans-Serif" font-size="10.00">_expected</text>
</a>
</g>
</g>
<!-- Node10&#45;&gt;Node22 -->
<g id="edge25" class="edge">
<title>Node10&#45;&gt;Node22</title>
<path fill="none" stroke="midnightblue" d="M283.17,-215.56C291.02,-212.78 298.55,-209.03 305,-204 332.89,-182.23 314.35,-156.27 341,-133 342.92,-131.32 344.96,-129.76 347.08,-128.3"/>
<polygon fill="midnightblue" stroke="midnightblue" points="348.89,-131.3 355.67,-123.16 345.29,-125.29 348.89,-131.3"/>
</g>
<!-- Node24 -->
<g id="node24" class="node">
<title>Node24</title>
<g id="a_node24"><a xlink:href="namespaceCLI_1_1detail.html#ab351f13ec104e2cba19ec6baf4a552f6" target="_top" xlink:title="Simple function to join a string.">
<polygon fill="white" stroke="black" points="369.5,-328.5 369.5,-347.5 458.5,-347.5 458.5,-328.5 369.5,-328.5"/>
<text text-anchor="middle" x="414" y="-335.5" font-family="Helvetica,sans-Serif" font-size="10.00">CLI::detail::join</text>
</a>
</g>
</g>
<!-- Node10&#45;&gt;Node24 -->
<g id="edge27" class="edge">
<title>Node10&#45;&gt;Node24</title>
<path fill="none" stroke="midnightblue" d="M283.32,-230.25C291.15,-233.06 298.63,-236.87 305,-242 334.41,-265.71 312,-294.79 341,-319 346.4,-323.51 352.76,-326.96 359.42,-329.6"/>
<polygon fill="midnightblue" stroke="midnightblue" points="358.74,-333.06 369.33,-332.91 360.96,-326.42 358.74,-333.06"/>
</g>
<!-- Node12 -->
<g id="node12" class="node">
<title>Node12</title>
<g id="a_node12"><a xlink:href="namespaceCLI_1_1detail.html#a356b9c9cc904af2b0a918fd55e86cd9c" target="_top" xlink:title=" ">
<polygon fill="white" stroke="black" points="523,-281.5 523,-300.5 659,-300.5 659,-281.5 523,-281.5"/>
<text text-anchor="middle" x="591" y="-288.5" font-family="Helvetica,sans-Serif" font-size="10.00">CLI::detail::find_member</text>
</a>
</g>
</g>
<!-- Node11&#45;&gt;Node12 -->
<g id="edge11" class="edge">
<title>Node11&#45;&gt;Node12</title>
<path fill="none" stroke="midnightblue" d="M466.09,-293.12C480.65,-292.87 496.86,-292.6 512.62,-292.33"/>
<polygon fill="midnightblue" stroke="midnightblue" points="512.95,-295.82 522.89,-292.15 512.83,-288.82 512.95,-295.82"/>
</g>
<!-- Node13 -->
<g id="node13" class="node">
<title>Node13</title>
<g id="a_node13"><a xlink:href="namespaceCLI.html#a0c52326d2681814c22aa1a93ce43375e" target="_top" xlink:title="Helper function to allow ignore_case to be passed to IsMember or Transform.">
<polygon fill="white" stroke="black" points="711,-279.5 711,-298.5 807,-298.5 807,-279.5 711,-279.5"/>
<text text-anchor="middle" x="759" y="-286.5" font-family="Helvetica,sans-Serif" font-size="10.00">CLI::ignore_case</text>
</a>
</g>
</g>
<!-- Node12&#45;&gt;Node13 -->
<g id="edge12" class="edge">
<title>Node12&#45;&gt;Node13</title>
<path fill="none" stroke="midnightblue" d="M659.04,-290.19C672.81,-290.03 687.18,-289.85 700.58,-289.69"/>
<polygon fill="midnightblue" stroke="midnightblue" points="700.64,-293.19 710.6,-289.57 700.56,-286.19 700.64,-293.19"/>
</g>
<!-- Node14 -->
<g id="node14" class="node">
<title>Node14</title>
<g id="a_node14"><a xlink:href="namespaceCLI_1_1detail.html#ae83709ec148057ec53df4383645727e9" target="_top" xlink:title="Return a lower case version of a string.">
<polygon fill="white" stroke="black" points="859,-241.5 859,-260.5 972,-260.5 972,-241.5 859,-241.5"/>
<text text-anchor="middle" x="915.5" y="-248.5" font-family="Helvetica,sans-Serif" font-size="10.00">CLI::detail::to_lower</text>
</a>
</g>
</g>
<!-- Node12&#45;&gt;Node14 -->
<g id="edge17" class="edge">
<title>Node12&#45;&gt;Node14</title>
<path fill="none" stroke="midnightblue" d="M633.41,-281.43C652.13,-277.39 674.59,-272.95 695,-270 746.34,-262.57 804.89,-257.68 848.6,-254.72"/>
<polygon fill="midnightblue" stroke="midnightblue" points="849.07,-258.2 858.82,-254.05 848.61,-251.22 849.07,-258.2"/>
</g>
<!-- Node15 -->
<g id="node15" class="node">
<title>Node15</title>
<g id="a_node15"><a xlink:href="namespaceCLI.html#a111b6f05d21b9b84e7ba933ade79884c" target="_top" xlink:title="Helper function to allow ignore_underscore to be passed to IsMember or Transform.">
<polygon fill="white" stroke="black" points="695,-317.5 695,-336.5 823,-336.5 823,-317.5 695,-317.5"/>
<text text-anchor="middle" x="759" y="-324.5" font-family="Helvetica,sans-Serif" font-size="10.00">CLI::ignore_underscore</text>
</a>
</g>
</g>
<!-- Node12&#45;&gt;Node15 -->
<g id="edge14" class="edge">
<title>Node12&#45;&gt;Node15</title>
<path fill="none" stroke="midnightblue" d="M636.05,-300.55C656.96,-305.09 682.13,-310.55 704.16,-315.32"/>
<polygon fill="midnightblue" stroke="midnightblue" points="703.52,-318.77 714.03,-317.47 705,-311.93 703.52,-318.77"/>
</g>
<!-- Node16 -->
<g id="node16" class="node">
<title>Node16</title>
<g id="a_node16"><a xlink:href="namespaceCLI_1_1detail.html#a5359a7a0e33366a12e15523b100f591a" target="_top" xlink:title="remove underscores from a string">
<polygon fill="white" stroke="black" points="861,-331 861,-361 970,-361 970,-331 861,-331"/>
<text text-anchor="start" x="869" y="-349" font-family="Helvetica,sans-Serif" font-size="10.00">CLI::detail::remove</text>
<text text-anchor="middle" x="915.5" y="-338" font-family="Helvetica,sans-Serif" font-size="10.00">_underscore</text>
</a>
</g>
</g>
<!-- Node12&#45;&gt;Node16 -->
<g id="edge16" class="edge">
<title>Node12&#45;&gt;Node16</title>
<path fill="none" stroke="midnightblue" d="M604.8,-300.54C623.47,-313.81 659.8,-337.19 695,-346 746.27,-358.83 806.42,-357.76 850.77,-354.08"/>
<polygon fill="midnightblue" stroke="midnightblue" points="851.19,-357.56 860.84,-353.18 850.56,-350.59 851.19,-357.56"/>
</g>
<!-- Node13&#45;&gt;Node14 -->
<g id="edge13" class="edge">
<title>Node13&#45;&gt;Node14</title>
<path fill="none" stroke="midnightblue" d="M798.99,-279.41C819.28,-274.42 844.29,-268.27 865.85,-262.97"/>
<polygon fill="midnightblue" stroke="midnightblue" points="866.92,-266.31 875.79,-260.52 865.25,-259.51 866.92,-266.31"/>
</g>
<!-- Node15&#45;&gt;Node16 -->
<g id="edge15" class="edge">
<title>Node15&#45;&gt;Node16</title>
<path fill="none" stroke="midnightblue" d="M823.29,-334.78C832.37,-335.9 841.72,-337.05 850.81,-338.17"/>
<polygon fill="midnightblue" stroke="midnightblue" points="850.58,-341.67 860.93,-339.41 851.43,-334.72 850.58,-341.67"/>
</g>
<!-- Node18&#45;&gt;Node12 -->
<g id="edge20" class="edge">
<title>Node18&#45;&gt;Node12</title>
<path fill="none" stroke="midnightblue" d="M462.77,-221.13C470.96,-224.13 479.31,-227.46 487,-231 515.54,-244.12 546.44,-262.77 566.87,-275.78"/>
<polygon fill="midnightblue" stroke="midnightblue" points="565.17,-278.85 575.47,-281.32 568.96,-272.97 565.17,-278.85"/>
</g>
<!-- Node19 -->
<g id="node19" class="node">
<title>Node19</title>
<g id="a_node19"><a xlink:href="namespaceCLI_1_1detail.html#af45abf683b881127298aa28b3c4e6cf5" target="_top" xlink:title="Convert a flag into an integer value typically binary flags.">
<polygon fill="white" stroke="black" points="707,-192 707,-222 811,-222 811,-192 707,-192"/>
<text text-anchor="start" x="715" y="-210" font-family="Helvetica,sans-Serif" font-size="10.00">CLI::detail::to_flag</text>
<text text-anchor="middle" x="759" y="-199" font-family="Helvetica,sans-Serif" font-size="10.00">_value</text>
</a>
</g>
</g>
<!-- Node18&#45;&gt;Node19 -->
<g id="edge21" class="edge">
<title>Node18&#45;&gt;Node19</title>
<path fill="none" stroke="midnightblue" d="M471.64,-206.17C533.64,-206.35 632.72,-206.63 696.56,-206.82"/>
<polygon fill="midnightblue" stroke="midnightblue" points="696.87,-210.32 706.88,-206.85 696.89,-203.32 696.87,-210.32"/>
</g>
<!-- Node20 -->
<g id="node20" class="node">
<title>Node20</title>
<g id="a_node20"><a xlink:href="namespaceCLI_1_1detail.html#a0e94052d485636fc9f18c21009026577" target="_top" xlink:title="Convert an object to a string (directly forward if this can become a string)">
<polygon fill="white" stroke="black" points="534,-159.5 534,-178.5 648,-178.5 648,-159.5 534,-159.5"/>
<text text-anchor="middle" x="591" y="-166.5" font-family="Helvetica,sans-Serif" font-size="10.00">CLI::detail::to_string</text>
</a>
</g>
</g>
<!-- Node18&#45;&gt;Node20 -->
<g id="edge23" class="edge">
<title>Node18&#45;&gt;Node20</title>
<path fill="none" stroke="midnightblue" d="M471.82,-193.99C492.05,-189.71 514.79,-184.9 534.88,-180.65"/>
<polygon fill="midnightblue" stroke="midnightblue" points="535.75,-184.05 544.81,-178.55 534.31,-177.2 535.75,-184.05"/>
</g>
<!-- Node19&#45;&gt;Node14 -->
<g id="edge22" class="edge">
<title>Node19&#45;&gt;Node14</title>
<path fill="none" stroke="midnightblue" d="M811.02,-221.53C830.54,-227.09 852.59,-233.37 871.31,-238.7"/>
<polygon fill="midnightblue" stroke="midnightblue" points="870.47,-242.1 881.05,-241.47 872.39,-235.37 870.47,-242.1"/>
</g>
<!-- Node23 -->
<g id="node23" class="node">
<title>Node23</title>
<g id="a_node23"><a xlink:href="classCLI_1_1Option.html#af87dffed2cb245673312c993e563710e" target="_top" xlink:title="The total min number of expected string values to be used.">
<polygon fill="white" stroke="black" points="528.5,-93 528.5,-123 653.5,-123 653.5,-93 528.5,-93"/>
<text text-anchor="start" x="536.5" y="-111" font-family="Helvetica,sans-Serif" font-size="10.00">CLI::Option::get_items</text>
<text text-anchor="middle" x="591" y="-100" font-family="Helvetica,sans-Serif" font-size="10.00">_expected_min</text>
</a>
</g>
</g>
<!-- Node22&#45;&gt;Node23 -->
<g id="edge26" class="edge">
<title>Node22&#45;&gt;Node23</title>
<path fill="none" stroke="midnightblue" d="M476.7,-108C490.03,-108 504.24,-108 517.93,-108"/>
<polygon fill="midnightblue" stroke="midnightblue" points="518.27,-111.5 528.27,-108 518.27,-104.5 518.27,-111.5"/>
</g>
<!-- Node29 -->
<g id="node29" class="node">
<title>Node29</title>
<g id="a_node29"><a xlink:href="classCLI_1_1Option.html#a08c4fc3c4d254ac57a48d5756626a03c" target="_top" xlink:title="Set the type function to run when displayed on this option.">
<polygon fill="white" stroke="black" points="341,-38.5 341,-57.5 487,-57.5 487,-38.5 341,-38.5"/>
<text text-anchor="middle" x="414" y="-45.5" font-family="Helvetica,sans-Serif" font-size="10.00">CLI::Option::type_name_fn</text>
</a>
</g>
</g>
<!-- Node28&#45;&gt;Node29 -->
<g id="edge32" class="edge">
<title>Node28&#45;&gt;Node29</title>
<path fill="none" stroke="midnightblue" d="M286.07,-48C300.36,-48 315.69,-48 330.59,-48"/>
<polygon fill="midnightblue" stroke="midnightblue" points="330.81,-51.5 340.81,-48 330.81,-44.5 330.81,-51.5"/>
</g>
</g>
</svg>
        <g id="navigator" transform="translate(0 0)" fill="#404254">
                <rect fill="#f2f5e9" fill-opacity="0.5" stroke="#606060" stroke-width=".5" x="0" y="0" width="60" height="60"/>
                <use id="zoomplus" xlink:href="#zoomPlus" x="17" y="9" onmousedown="handleZoom(evt,'in')"/>
                <use id="zoomminus" xlink:href="#zoomMin" x="42" y="9" onmousedown="handleZoom(evt,'out')"/>
                <use id="reset" xlink:href="#resetDef" x="30" y="36" onmousedown="handleReset()"/>
                <g id="arrowUp" xlink:href="#dirArrow" transform="translate(30 24)" onmousedown="handlePan(0,-1)">
                  <use xlink:href="#rim" fill="#404040">
                        <set attributeName="fill" to="#808080" begin="arrowUp.mouseover" end="arrowUp.mouseout"/>
                  </use>
                  <path fill="none" stroke="white" stroke-width="1.5" d="M0,-3.0v7 M-2.5,-0.5L0,-3.0L2.5,-0.5"/>
                </g>
                <g id="arrowRight" xlink:href="#dirArrow" transform="rotate(90) translate(36 -43)" onmousedown="handlePan(1,0)">
                  <use xlink:href="#rim" fill="#404040">
                        <set attributeName="fill" to="#808080" begin="arrowRight.mouseover" end="arrowRight.mouseout"/>
                  </use>
                  <path fill="none" stroke="white" stroke-width="1.5" d="M0,-3.0v7 M-2.5,-0.5L0,-3.0L2.5,-0.5"/>
                </g>
                <g id="arrowDown" xlink:href="#dirArrow" transform="rotate(180) translate(-30 -48)" onmousedown="handlePan(0,1)">
                  <use xlink:href="#rim" fill="#404040">
                        <set attributeName="fill" to="#808080" begin="arrowDown.mouseover" end="arrowDown.mouseout"/>
                  </use>
                  <path fill="none" stroke="white" stroke-width="1.5" d="M0,-3.0v7 M-2.5,-0.5L0,-3.0L2.5,-0.5"/>
                </g>
                <g id="arrowLeft" xlink:href="#dirArrow" transform="rotate(270) translate(-36 17)" onmousedown="handlePan(-1,0)">
                  <use xlink:href="#rim" fill="#404040">
                        <set attributeName="fill" to="#808080" begin="arrowLeft.mouseover" end="arrowLeft.mouseout"/>
                  </use>
                  <path fill="none" stroke="white" stroke-width="1.5" d="M0,-3.0v7 M-2.5,-0.5L0,-3.0L2.5,-0.5"/>
                </g>
        </g>
        <svg viewBox="0 0 15 15" width="100%" height="30px" preserveAspectRatio="xMaxYMin meet">
         <g id="arrow_out" transform="scale(0.3 0.3)">
          <a xlink:href="namespaceCLI_a36cfe4a6a80bf143735c0b80960bc252_cgraph_org.svg" target="_base">
           <rect id="button" ry="5" rx="5" y="6" x="6" height="38" width="38"
                fill="#f2f5e9" fill-opacity="0.5" stroke="#606060" stroke-width="1.0"/>
           <path id="arrow"
             d="M 11.500037,31.436501 C 11.940474,20.09759 22.043105,11.32322 32.158766,21.979434 L 37.068811,17.246167 C 37.068811,17.246167 37.088388,32 37.088388,32 L 22.160133,31.978069 C 22.160133,31.978069 26.997745,27.140456 26.997745,27.140456 C 18.528582,18.264221 13.291696,25.230495 11.500037,31.436501 z"
             style="fill:#404040;"/>
          </a>
         </g>
        </svg>
</svg>
