<?xml version="1.0" encoding="UTF-8" standalone="no"?>
<!DOCTYPE svg PUBLIC "-//W3C//DTD SVG 1.1//EN"
 "http://www.w3.org/Graphics/SVG/1.1/DTD/svg11.dtd">
<!-- Generated by graphviz version 2.43.0 (0)
 -->
<!-- Title: Ra::Engine::Data::DrawPrimitives::Primitive Pages: 1 -->
<svg width="872pt" height="186pt"
 viewBox="0.00 0.00 872.00 186.00" xmlns="http://www.w3.org/2000/svg" xmlns:xlink="http://www.w3.org/1999/xlink">
<g id="graph0" class="graph" transform="scale(1 1) rotate(0) translate(4 182)">
<title>Ra::Engine::Data::DrawPrimitives::Primitive</title>
<polygon fill="white" stroke="transparent" points="-4,4 -4,-182 868,-182 868,4 -4,4"/>
<!-- Node1 -->
<g id="node1" class="node">
<title>Node1</title>
<g id="a_node1"><a xlink:title=" ">
<polygon fill="#bfbfbf" stroke="black" points="0,-91.5 0,-121.5 179,-121.5 179,-91.5 0,-91.5"/>
<text text-anchor="start" x="8" y="-109.5" font-family="Helvetica,sans-Serif" font-size="10.00">Ra::Engine::Data::DrawPrimitives</text>
<text text-anchor="middle" x="89.5" y="-98.5" font-family="Helvetica,sans-Serif" font-size="10.00">::Primitive</text>
</a>
</g>
</g>
<!-- Node2 -->
<g id="node2" class="node">
<title>Node2</title>
<g id="a_node2"><a xlink:href="namespaceRa_1_1Engine_1_1Rendering_1_1EngineRenderTechniques.html#ab597fd85376bd86d7e78dc4194e409c2" target="_top" xlink:title=" ">
<polygon fill="white" stroke="black" points="234,-121 234,-162 378,-162 378,-121 234,-121"/>
<text text-anchor="start" x="242" y="-150" font-family="Helvetica,sans-Serif" font-size="10.00">Ra::Engine::Rendering</text>
<text text-anchor="start" x="242" y="-139" font-family="Helvetica,sans-Serif" font-size="10.00">::EngineRenderTechniques</text>
<text text-anchor="middle" x="306" y="-128" font-family="Helvetica,sans-Serif" font-size="10.00">::getDefaultTechnique</text>
</a>
</g>
</g>
<!-- Node1&#45;&gt;Node2 -->
<g id="edge1" class="edge">
<title>Node1&#45;&gt;Node2</title>
<path fill="none" stroke="midnightblue" d="M179.29,-120.99C194.09,-123.4 209.37,-125.9 223.96,-128.28"/>
<polygon fill="midnightblue" stroke="midnightblue" points="223.5,-131.75 233.93,-129.9 224.63,-124.84 223.5,-131.75"/>
</g>
<!-- Node5 -->
<g id="node5" class="node">
<title>Node5</title>
<g id="a_node5"><a xlink:href="classRa_1_1Engine_1_1Rendering_1_1RenderTechnique.html#a13f5f243daad1b13a6bec5efe3831c25" target="_top" xlink:title=" ">
<polygon fill="white" stroke="black" points="215,-56 215,-97 397,-97 397,-56 215,-56"/>
<text text-anchor="start" x="223" y="-85" font-family="Helvetica,sans-Serif" font-size="10.00">Ra::Engine::Rendering</text>
<text text-anchor="start" x="223" y="-74" font-family="Helvetica,sans-Serif" font-size="10.00">::RenderTechnique::setParameters</text>
<text text-anchor="middle" x="306" y="-63" font-family="Helvetica,sans-Serif" font-size="10.00">Provider</text>
</a>
</g>
</g>
<!-- Node1&#45;&gt;Node5 -->
<g id="edge4" class="edge">
<title>Node1&#45;&gt;Node5</title>
<path fill="none" stroke="midnightblue" d="M179.29,-94.08C187.74,-92.9 196.35,-91.7 204.9,-90.5"/>
<polygon fill="midnightblue" stroke="midnightblue" points="205.47,-93.95 214.89,-89.1 204.5,-87.02 205.47,-93.95"/>
</g>
<!-- Node3 -->
<g id="node3" class="node">
<title>Node3</title>
<g id="a_node3"><a xlink:href="namespaceCLI_1_1detail.html#aa4b4a0a97c9b07110595765887647385" target="_top" xlink:title="A search function.">
<polygon fill="white" stroke="black" points="481.5,-147 481.5,-166 585.5,-166 585.5,-147 481.5,-147"/>
<text text-anchor="middle" x="533.5" y="-154" font-family="Helvetica,sans-Serif" font-size="10.00">CLI::detail::search</text>
</a>
</g>
</g>
<!-- Node2&#45;&gt;Node3 -->
<g id="edge2" class="edge">
<title>Node2&#45;&gt;Node3</title>
<path fill="none" stroke="midnightblue" d="M378.04,-146.23C407.93,-148.21 442.38,-150.51 471.15,-152.42"/>
<polygon fill="midnightblue" stroke="midnightblue" points="471.26,-155.93 481.47,-153.11 471.73,-148.95 471.26,-155.93"/>
</g>
<!-- Node4 -->
<g id="node4" class="node">
<title>Node4</title>
<g id="a_node4"><a xlink:href="namespaceCLI_1_1detail.html#a0c6cf48feae9d909d52e7b4c346cba29" target="_top" xlink:title=" ">
<polygon fill="white" stroke="black" points="717,-147.5 717,-177.5 817,-177.5 817,-147.5 717,-147.5"/>
<text text-anchor="start" x="725" y="-165.5" font-family="Helvetica,sans-Serif" font-size="10.00">CLI::detail::smart</text>
<text text-anchor="middle" x="767" y="-154.5" font-family="Helvetica,sans-Serif" font-size="10.00">_deref</text>
</a>
</g>
</g>
<!-- Node3&#45;&gt;Node4 -->
<g id="edge3" class="edge">
<title>Node3&#45;&gt;Node4</title>
<path fill="none" stroke="midnightblue" d="M585.59,-157.82C621.25,-158.75 668.97,-159.99 706.37,-160.95"/>
<polygon fill="midnightblue" stroke="midnightblue" points="706.54,-164.46 716.63,-161.22 706.72,-157.46 706.54,-164.46"/>
</g>
<!-- Node6 -->
<g id="node6" class="node">
<title>Node6</title>
<g id="a_node6"><a xlink:href="classRa_1_1Engine_1_1Rendering_1_1RenderTechnique.html#a57252b7d28229ba476980f30cbac19e4" target="_top" xlink:title=" ">
<polygon fill="white" stroke="black" points="433,-50.5 433,-80.5 634,-80.5 634,-50.5 433,-50.5"/>
<text text-anchor="start" x="441" y="-68.5" font-family="Helvetica,sans-Serif" font-size="10.00">Ra::Engine::Rendering</text>
<text text-anchor="middle" x="533.5" y="-57.5" font-family="Helvetica,sans-Serif" font-size="10.00">::RenderTechnique::addPassProperties</text>
</a>
</g>
</g>
<!-- Node5&#45;&gt;Node6 -->
<g id="edge5" class="edge">
<title>Node5&#45;&gt;Node6</title>
<path fill="none" stroke="midnightblue" d="M397.1,-72.11C405.56,-71.69 414.2,-71.27 422.82,-70.85"/>
<polygon fill="midnightblue" stroke="midnightblue" points="423.1,-74.34 432.92,-70.36 422.76,-67.35 423.1,-74.34"/>
</g>
<!-- Node7 -->
<g id="node7" class="node">
<title>Node7</title>
<g id="a_node7"><a xlink:href="classRa_1_1Engine_1_1Rendering_1_1RenderTechnique.html#a80ed342917f6314ebe193cd311cfc8cd" target="_top" xlink:title=" ">
<polygon fill="white" stroke="black" points="670,-98.5 670,-128.5 864,-128.5 864,-98.5 670,-98.5"/>
<text text-anchor="start" x="678" y="-116.5" font-family="Helvetica,sans-Serif" font-size="10.00">Ra::Engine::Rendering</text>
<text text-anchor="middle" x="767" y="-105.5" font-family="Helvetica,sans-Serif" font-size="10.00">::RenderTechnique::hasConfiguration</text>
</a>
</g>
</g>
<!-- Node5&#45;&gt;Node7 -->
<g id="edge9" class="edge">
<title>Node5&#45;&gt;Node7</title>
<path fill="none" stroke="midnightblue" d="M397.13,-86.14C409.19,-87.33 421.39,-88.48 433,-89.5 508.64,-96.13 594.06,-102.25 659.44,-106.66"/>
<polygon fill="midnightblue" stroke="midnightblue" points="659.55,-110.18 669.76,-107.35 660.02,-103.19 659.55,-110.18"/>
</g>
<!-- Node8 -->
<g id="node8" class="node">
<title>Node8</title>
<g id="a_node8"><a xlink:href="classRa_1_1Core_1_1Utils_1_1Index.html#ac1a3e02d77abd15c2a307673f5b67fa1" target="_top" xlink:title="VALID.">
<polygon fill="white" stroke="black" points="707.5,-0.5 707.5,-30.5 826.5,-30.5 826.5,-0.5 707.5,-0.5"/>
<text text-anchor="start" x="715.5" y="-18.5" font-family="Helvetica,sans-Serif" font-size="10.00">Ra::Core::Utils::Index</text>
<text text-anchor="middle" x="767" y="-7.5" font-family="Helvetica,sans-Serif" font-size="10.00">::isValid</text>
</a>
</g>
</g>
<!-- Node5&#45;&gt;Node8 -->
<g id="edge10" class="edge">
<title>Node5&#45;&gt;Node8</title>
<path fill="none" stroke="midnightblue" d="M369.54,-55.92C389.61,-50.05 412.06,-44.24 433,-40.5 523.39,-24.37 629.38,-18.63 697.08,-16.6"/>
<polygon fill="midnightblue" stroke="midnightblue" points="697.3,-20.09 707.2,-16.31 697.1,-13.09 697.3,-20.09"/>
</g>
<!-- Node6&#45;&gt;Node7 -->
<g id="edge6" class="edge">
<title>Node6&#45;&gt;Node7</title>
<path fill="none" stroke="midnightblue" d="M607.11,-80.56C631.46,-85.6 658.78,-91.27 683.81,-96.46"/>
<polygon fill="midnightblue" stroke="midnightblue" points="683.14,-99.89 693.64,-98.5 684.56,-93.04 683.14,-99.89"/>
</g>
<!-- Node6&#45;&gt;Node8 -->
<g id="edge7" class="edge">
<title>Node6&#45;&gt;Node8</title>
<path fill="none" stroke="midnightblue" d="M603.96,-50.5C633.51,-44.11 667.89,-36.69 697.35,-30.33"/>
<polygon fill="midnightblue" stroke="midnightblue" points="698.11,-33.74 707.15,-28.21 696.63,-26.9 698.11,-33.74"/>
</g>
<!-- Node9 -->
<g id="node9" class="node">
<title>Node9</title>
<g id="a_node9"><a xlink:href="classRa_1_1Engine_1_1Rendering_1_1RenderTechnique.html#af3b58075507144820fe06f6a129b0107" target="_top" xlink:title=" ">
<polygon fill="white" stroke="black" points="691.5,-49.5 691.5,-79.5 842.5,-79.5 842.5,-49.5 691.5,-49.5"/>
<text text-anchor="start" x="699.5" y="-67.5" font-family="Helvetica,sans-Serif" font-size="10.00">Ra::Engine::Rendering</text>
<text text-anchor="middle" x="767" y="-56.5" font-family="Helvetica,sans-Serif" font-size="10.00">::RenderTechnique::setDirty</text>
</a>
</g>
</g>
<!-- Node6&#45;&gt;Node9 -->
<g id="edge8" class="edge">
<title>Node6&#45;&gt;Node9</title>
<path fill="none" stroke="midnightblue" d="M634.02,-65.07C649.65,-65 665.69,-64.93 680.96,-64.87"/>
<polygon fill="midnightblue" stroke="midnightblue" points="681.4,-68.37 691.39,-64.82 681.37,-61.37 681.4,-68.37"/>
</g>
</g>
</svg>
