<?xml version="1.0" encoding="UTF-8" standalone="no"?>
<!DOCTYPE svg PUBLIC "-//W3C//DTD SVG 1.1//EN"
 "http://www.w3.org/Graphics/SVG/1.1/DTD/svg11.dtd">
<!-- Generated by graphviz version 2.43.0 (0)
 -->
<!-- Title: Ra::Engine::Scene::getItemROs Pages: 1 -->
<svg width="670pt" height="318pt"
 viewBox="0.00 0.00 670.00 317.50" xmlns="http://www.w3.org/2000/svg" xmlns:xlink="http://www.w3.org/1999/xlink">
<g id="graph0" class="graph" transform="scale(1 1) rotate(0) translate(4 313.5)">
<title>Ra::Engine::Scene::getItemROs</title>
<!-- Node1 -->
<g id="Node000001" class="node">
<title>Node1</title>
<g id="a_Node000001"><a xlink:title=" ">
<polygon fill="#999999" stroke="#666666" points="110,-202 0,-202 0,-172 110,-172 110,-202"/>
<text text-anchor="start" x="8" y="-190" font-family="Helvetica,sans-Serif" font-size="10.00">Ra::Engine::Scene::</text>
<text text-anchor="middle" x="55" y="-179" font-family="Helvetica,sans-Serif" font-size="10.00">getItemROs</text>
</a>
</g>
</g>
<!-- Node2 -->
<g id="Node000002" class="node">
<title>Node2</title>
<g id="a_Node000002"><a target="_blank" xlink:href="http://en.cppreference.com/w/cpp/container/vector/end.html#" xlink:title=" ">
<polygon fill="white" stroke="#666666" points="255,-309.5 163,-309.5 163,-290.5 255,-290.5 255,-309.5"/>
<text text-anchor="middle" x="209" y="-297.5" font-family="Helvetica,sans-Serif" font-size="10.00">std::vector::end</text>
</a>
</g>
</g>
<!-- Node1&#45;&gt;Node2 -->
<g id="edge1_Node000001_Node000002" class="edge">
<title>Node1&#45;&gt;Node2</title>
<g id="a_edge1_Node000001_Node000002"><a xlink:title=" ">
<path fill="none" stroke="#63b8ff" d="M66.36,-202.22C81.45,-223.24 111.47,-260.95 146,-282 148.78,-283.69 151.72,-285.23 154.75,-286.63"/>
<polygon fill="#63b8ff" stroke="#63b8ff" points="153.49,-289.89 164.07,-290.43 156.13,-283.41 153.49,-289.89"/>
</a>
</g>
</g>
<!-- Node3 -->
<g id="Node000003" class="node">
<title>Node3</title>
<g id="a_Node000003"><a target="_blank" xlink:href="http://en.cppreference.com/w/cpp/container/vector/insert.html#" xlink:title=" ">
<polygon fill="white" stroke="#666666" points="260,-272.5 158,-272.5 158,-253.5 260,-253.5 260,-272.5"/>
<text text-anchor="middle" x="209" y="-260.5" font-family="Helvetica,sans-Serif" font-size="10.00">std::vector::insert</text>
</a>
</g>
</g>
<!-- Node1&#45;&gt;Node3 -->
<g id="edge2_Node000001_Node000003" class="edge">
<title>Node1&#45;&gt;Node3</title>
<g id="a_edge2_Node000001_Node000003"><a xlink:title=" ">
<path fill="none" stroke="#63b8ff" d="M79.9,-202.17C97.73,-213.14 122.89,-227.93 146,-239 154.01,-242.83 162.8,-246.53 171.18,-249.83"/>
<polygon fill="#63b8ff" stroke="#63b8ff" points="170.17,-253.19 180.76,-253.49 172.67,-246.65 170.17,-253.19"/>
</a>
</g>
</g>
<!-- Node4 -->
<g id="Node000004" class="node">
<title>Node4</title>
<g id="a_Node000004"><a xlink:href="structRa_1_1Engine_1_1Scene_1_1ItemEntry.html#a85e1716f224d07767e16ebfbd38c0d00" target="_top" xlink:title="Returns true if the item represents a component.">
<polygon fill="white" stroke="#666666" points="468,-260 308,-260 308,-230 468,-230 468,-260"/>
<text text-anchor="start" x="316" y="-248" font-family="Helvetica,sans-Serif" font-size="10.00">Ra::Engine::Scene::</text>
<text text-anchor="middle" x="388" y="-237" font-family="Helvetica,sans-Serif" font-size="10.00">ItemEntry::isComponentNode</text>
</a>
</g>
</g>
<!-- Node1&#45;&gt;Node4 -->
<g id="edge3_Node000001_Node000004" class="edge">
<title>Node1&#45;&gt;Node4</title>
<g id="a_edge3_Node000001_Node000004"><a xlink:title=" ">
<path fill="none" stroke="#63b8ff" d="M110.2,-198.14C121.99,-200.48 134.4,-202.88 146,-205 196.13,-214.17 252.3,-223.55 297.79,-230.91"/>
<polygon fill="#63b8ff" stroke="#63b8ff" points="297.49,-234.41 307.92,-232.55 298.61,-227.5 297.49,-234.41"/>
</a>
</g>
</g>
<!-- Node6 -->
<g id="Node000006" class="node">
<title>Node6</title>
<g id="a_Node000006"><a xlink:href="structRa_1_1Engine_1_1Scene_1_1ItemEntry.html#abb75bfc7efa4859df709265ab8982712" target="_top" xlink:title="Returns true if the item represents an entity.">
<polygon fill="white" stroke="#666666" points="454,-212 322,-212 322,-182 454,-182 454,-212"/>
<text text-anchor="start" x="330" y="-200" font-family="Helvetica,sans-Serif" font-size="10.00">Ra::Engine::Scene::</text>
<text text-anchor="middle" x="388" y="-189" font-family="Helvetica,sans-Serif" font-size="10.00">ItemEntry::isEntityNode</text>
</a>
</g>
</g>
<!-- Node1&#45;&gt;Node6 -->
<g id="edge5_Node000001_Node000006" class="edge">
<title>Node1&#45;&gt;Node6</title>
<g id="a_edge5_Node000001_Node000006"><a xlink:title=" ">
<path fill="none" stroke="#63b8ff" d="M110.29,-188.64C165.19,-190.3 250.48,-192.88 311.85,-194.73"/>
<polygon fill="#63b8ff" stroke="#63b8ff" points="311.77,-198.23 321.87,-195.03 311.98,-191.23 311.77,-198.23"/>
</a>
</g>
</g>
<!-- Node7 -->
<g id="Node000007" class="node">
<title>Node7</title>
<g id="a_Node000007"><a xlink:href="structRa_1_1Engine_1_1Scene_1_1ItemEntry.html#ad2fd60408dfc75b47ff7bec306d95cc4" target="_top" xlink:title="Returns true if the item represents a render object.">
<polygon fill="white" stroke="#666666" points="446,-164 330,-164 330,-134 446,-134 446,-164"/>
<text text-anchor="start" x="338" y="-152" font-family="Helvetica,sans-Serif" font-size="10.00">Ra::Engine::Scene::</text>
<text text-anchor="middle" x="388" y="-141" font-family="Helvetica,sans-Serif" font-size="10.00">ItemEntry::isRoNode</text>
</a>
</g>
</g>
<!-- Node1&#45;&gt;Node7 -->
<g id="edge7_Node000001_Node000007" class="edge">
<title>Node1&#45;&gt;Node7</title>
<g id="a_edge7_Node000001_Node000007"><a xlink:title=" ">
<path fill="none" stroke="#63b8ff" d="M110.29,-180.77C167.62,-174.19 258.09,-163.8 319.87,-156.71"/>
<polygon fill="#63b8ff" stroke="#63b8ff" points="320.37,-160.17 329.91,-155.55 319.57,-153.22 320.37,-160.17"/>
</a>
</g>
</g>
<!-- Node8 -->
<g id="Node000008" class="node">
<title>Node8</title>
<g id="a_Node000008"><a xlink:href="structRa_1_1Engine_1_1Scene_1_1ItemEntry.html#a4f2df708e8ee83f1bad37287d0a81916" target="_top" xlink:title="Returns true if the item represents any valid object.">
<polygon fill="white" stroke="#666666" points="264,-121 154,-121 154,-91 264,-91 264,-121"/>
<text text-anchor="start" x="162" y="-109" font-family="Helvetica,sans-Serif" font-size="10.00">Ra::Engine::Scene::</text>
<text text-anchor="middle" x="209" y="-98" font-family="Helvetica,sans-Serif" font-size="10.00">ItemEntry::isValid</text>
</a>
</g>
</g>
<!-- Node1&#45;&gt;Node8 -->
<g id="edge9_Node000001_Node000008" class="edge">
<title>Node1&#45;&gt;Node8</title>
<g id="a_edge9_Node000001_Node000008"><a xlink:title=" ">
<path fill="none" stroke="#63b8ff" d="M80.89,-171.84C98.78,-161.14 123.6,-146.68 146,-135 152.09,-131.82 158.59,-128.61 165,-125.52"/>
<polygon fill="#63b8ff" stroke="#63b8ff" points="166.74,-128.57 174.28,-121.13 163.74,-122.25 166.74,-128.57"/>
</a>
</g>
</g>
<!-- Node12 -->
<g id="Node000012" class="node">
<title>Node12</title>
<g id="a_Node000012"><a target="_blank" xlink:href="http://en.cppreference.com/w/cpp/container/vector/push_back.html#" xlink:title=" ">
<polygon fill="white" stroke="#666666" points="272,-72.5 146,-72.5 146,-53.5 272,-53.5 272,-72.5"/>
<text text-anchor="middle" x="209" y="-60.5" font-family="Helvetica,sans-Serif" font-size="10.00">std::vector::push_back</text>
</a>
</g>
</g>
<!-- Node1&#45;&gt;Node12 -->
<g id="edge16_Node000001_Node000012" class="edge">
<title>Node1&#45;&gt;Node12</title>
<g id="a_edge16_Node000001_Node000012"><a xlink:title=" ">
<path fill="none" stroke="#63b8ff" d="M65.05,-171.75C79.38,-148.91 109.44,-105.94 146,-82 149.1,-79.97 152.43,-78.15 155.88,-76.51"/>
<polygon fill="#63b8ff" stroke="#63b8ff" points="157.33,-79.7 165.21,-72.61 154.63,-73.24 157.33,-79.7"/>
</a>
</g>
</g>
<!-- Node5 -->
<g id="Node000005" class="node">
<title>Node5</title>
<g id="a_Node000005"><a xlink:href="structRa_1_1Engine_1_1Scene_1_1ItemEntry.html#a9673507f752d5efee0439afd0e52892b" target="_top" xlink:title="Debug checks.">
<polygon fill="white" stroke="#666666" points="662,-188 504,-188 504,-158 662,-158 662,-188"/>
<text text-anchor="start" x="512" y="-176" font-family="Helvetica,sans-Serif" font-size="10.00">Ra::Engine::Scene::</text>
<text text-anchor="middle" x="583" y="-165" font-family="Helvetica,sans-Serif" font-size="10.00">ItemEntry::checkConsistency</text>
</a>
</g>
</g>
<!-- Node4&#45;&gt;Node5 -->
<g id="edge4_Node000004_Node000005" class="edge">
<title>Node4&#45;&gt;Node5</title>
<g id="a_edge4_Node000004_Node000005"><a xlink:title=" ">
<path fill="none" stroke="#63b8ff" d="M441.52,-229.88C450.41,-227.08 459.51,-224.07 468,-221 491.82,-212.39 517.89,-201.53 539.08,-192.31"/>
<polygon fill="#63b8ff" stroke="#63b8ff" points="540.69,-195.43 548.44,-188.21 537.88,-189.02 540.69,-195.43"/>
</a>
</g>
</g>
<!-- Node6&#45;&gt;Node5 -->
<g id="edge6_Node000006_Node000005" class="edge">
<title>Node6&#45;&gt;Node5</title>
<g id="a_edge6_Node000006_Node000005"><a xlink:title=" ">
<path fill="none" stroke="#63b8ff" d="M454.07,-188.91C466.8,-187.32 480.36,-185.64 493.7,-183.98"/>
<polygon fill="#63b8ff" stroke="#63b8ff" points="494.35,-187.43 503.84,-182.72 493.48,-180.48 494.35,-187.43"/>
</a>
</g>
</g>
<!-- Node7&#45;&gt;Node5 -->
<g id="edge8_Node000007_Node000005" class="edge">
<title>Node7&#45;&gt;Node5</title>
<g id="a_edge8_Node000007_Node000005"><a xlink:title=" ">
<path fill="none" stroke="#63b8ff" d="M446.12,-156.1C461.13,-157.97 477.66,-160.03 493.88,-162.04"/>
<polygon fill="#63b8ff" stroke="#63b8ff" points="493.57,-165.53 503.92,-163.29 494.43,-158.58 493.57,-165.53"/>
</a>
</g>
</g>
<!-- Node8&#45;&gt;Node5 -->
<g id="edge10_Node000008_Node000005" class="edge">
<title>Node8&#45;&gt;Node5</title>
<g id="a_edge10_Node000008_Node000005"><a xlink:title=" ">
<path fill="none" stroke="#63b8ff" d="M264.15,-104.93C316.9,-105.06 399,-108.41 468,-125 494.37,-131.34 522.47,-143.11 544.18,-153.41"/>
<polygon fill="#63b8ff" stroke="#63b8ff" points="542.84,-156.65 553.36,-157.86 545.89,-150.35 542.84,-156.65"/>
</a>
</g>
</g>
<!-- Node8&#45;&gt;Node7 -->
<g id="edge15_Node000008_Node000007" class="edge">
<title>Node8&#45;&gt;Node7</title>
<g id="a_edge15_Node000008_Node000007"><a xlink:title=" ">
<path fill="none" stroke="#63b8ff" d="M264.07,-119.14C281.73,-123.43 301.57,-128.25 320.07,-132.74"/>
<polygon fill="#63b8ff" stroke="#63b8ff" points="319.34,-136.17 329.89,-135.13 321,-129.36 319.34,-136.17"/>
</a>
</g>
</g>
<!-- Node9 -->
<g id="Node000009" class="node">
<title>Node9</title>
<g id="a_Node000009"><a xlink:href="classRa_1_1Engine_1_1RadiumEngine.html#a2991b0dd7d8c14bfe19e775231036dee" target="_top" xlink:title=" ">
<polygon fill="white" stroke="#666666" points="460.5,-78 315.5,-78 315.5,-48 460.5,-48 460.5,-78"/>
<text text-anchor="start" x="323.5" y="-66" font-family="Helvetica,sans-Serif" font-size="10.00">Ra::Engine::RadiumEngine</text>
<text text-anchor="middle" x="388" y="-55" font-family="Helvetica,sans-Serif" font-size="10.00">::getEntityManager</text>
</a>
</g>
</g>
<!-- Node8&#45;&gt;Node9 -->
<g id="edge11_Node000008_Node000009" class="edge">
<title>Node8&#45;&gt;Node9</title>
<g id="a_edge11_Node000008_Node000009"><a xlink:title=" ">
<path fill="none" stroke="#63b8ff" d="M264.07,-92.86C280.21,-88.94 298.17,-84.58 315.27,-80.43"/>
<polygon fill="#63b8ff" stroke="#63b8ff" points="316.32,-83.77 325.21,-78.01 314.67,-76.97 316.32,-83.77"/>
</a>
</g>
</g>
<!-- Node11 -->
<g id="Node000011" class="node">
<title>Node11</title>
<g id="a_Node000011"><a xlink:href="classRa_1_1Engine_1_1RadiumEngine.html#a4b46a72f340513061b9a5219a80d9bd6" target="_top" xlink:title="Manager getters.">
<polygon fill="white" stroke="#666666" points="461.5,-30 314.5,-30 314.5,0 461.5,0 461.5,-30"/>
<text text-anchor="start" x="322.5" y="-18" font-family="Helvetica,sans-Serif" font-size="10.00">Ra::Engine::RadiumEngine</text>
<text text-anchor="middle" x="388" y="-7" font-family="Helvetica,sans-Serif" font-size="10.00">::getRenderObjectManager</text>
</a>
</g>
</g>
<!-- Node8&#45;&gt;Node11 -->
<g id="edge13_Node000008_Node000011" class="edge">
<title>Node8&#45;&gt;Node11</title>
<g id="a_edge13_Node000008_Node000011"><a xlink:title=" ">
<path fill="none" stroke="#63b8ff" d="M256.71,-90.92C262.08,-88.32 267.31,-85.36 272,-82 292.26,-67.49 287.21,-52.75 308,-39 310.41,-37.41 312.93,-35.91 315.53,-34.52"/>
<polygon fill="#63b8ff" stroke="#63b8ff" points="317.13,-37.63 324.61,-30.13 314.09,-31.33 317.13,-37.63"/>
</a>
</g>
</g>
<!-- Node10 -->
<g id="Node000010" class="node">
<title>Node10</title>
<g id="a_Node000010"><a target="_blank" xlink:href="http://en.cppreference.com/w/cpp/memory/unique_ptr/get.html#" xlink:title=" ">
<polygon fill="white" stroke="#666666" points="638.5,-48.5 527.5,-48.5 527.5,-29.5 638.5,-29.5 638.5,-48.5"/>
<text text-anchor="middle" x="583" y="-36.5" font-family="Helvetica,sans-Serif" font-size="10.00">std::unique_ptr::get</text>
</a>
</g>
</g>
<!-- Node9&#45;&gt;Node10 -->
<g id="edge12_Node000009_Node000010" class="edge">
<title>Node9&#45;&gt;Node10</title>
<g id="a_edge12_Node000009_Node000010"><a xlink:title=" ">
<path fill="none" stroke="#63b8ff" d="M460.59,-54.1C479.24,-51.78 499.22,-49.29 517.47,-47.02"/>
<polygon fill="#63b8ff" stroke="#63b8ff" points="517.93,-50.49 527.42,-45.79 517.06,-43.55 517.93,-50.49"/>
</a>
</g>
</g>
<!-- Node11&#45;&gt;Node10 -->
<g id="edge14_Node000011_Node000010" class="edge">
<title>Node11&#45;&gt;Node10</title>
<g id="a_edge14_Node000011_Node000010"><a xlink:title=" ">
<path fill="none" stroke="#63b8ff" d="M461.69,-24.04C479.91,-26.31 499.34,-28.72 517.15,-30.94"/>
<polygon fill="#63b8ff" stroke="#63b8ff" points="517.08,-34.45 527.43,-32.21 517.94,-27.51 517.08,-34.45"/>
</a>
</g>
</g>
</g>
</svg>
