<?xml version="1.0" encoding="UTF-8" standalone="no"?>
<!DOCTYPE svg PUBLIC "-//W3C//DTD SVG 1.1//EN"
 "http://www.w3.org/Graphics/SVG/1.1/DTD/svg11.dtd">
<!-- Generated by graphviz version 2.43.0 (0)
 -->
<!-- Title: /home/runner/work/Radium&#45;Engine/Radium&#45;Engine/src/Radium&#45;Engine/src/Engine/Data/RenderParameters.cpp Pages: 1 -->
<svg width="1684pt" height="464pt"
 viewBox="0.00 0.00 1684.33 464.00" xmlns="http://www.w3.org/2000/svg" xmlns:xlink="http://www.w3.org/1999/xlink">
<g id="graph0" class="graph" transform="scale(1 1) rotate(0) translate(4 460)">
<title>/home/runner/work/Radium&#45;Engine/Radium&#45;Engine/src/Radium&#45;Engine/src/Engine/Data/RenderParameters.cpp</title>
<polygon fill="white" stroke="transparent" points="-4,4 -4,-460 1680.33,-460 1680.33,4 -4,4"/>
<!-- Node1 -->
<g id="node1" class="node">
<title>Node1</title>
<g id="a_node1"><a xlink:title=" ">
<polygon fill="#bfbfbf" stroke="black" points="827.83,-403.5 827.83,-455.5 983.83,-455.5 983.83,-403.5 827.83,-403.5"/>
<text text-anchor="start" x="835.83" y="-443.5" font-family="Helvetica,sans-Serif" font-size="10.00">/home/runner/work/Radium</text>
<text text-anchor="start" x="835.83" y="-432.5" font-family="Helvetica,sans-Serif" font-size="10.00">&#45;Engine/Radium&#45;Engine/src</text>
<text text-anchor="start" x="835.83" y="-421.5" font-family="Helvetica,sans-Serif" font-size="10.00">/Radium&#45;Engine/src/Engine</text>
<text text-anchor="middle" x="905.83" y="-410.5" font-family="Helvetica,sans-Serif" font-size="10.00">/Data/RenderParameters.cpp</text>
</a>
</g>
</g>
<!-- Node2 -->
<g id="node2" class="node">
<title>Node2</title>
<g id="a_node2"><a xlink:href="Log_8hpp.html" target="_top" xlink:title=" ">
<polygon fill="white" stroke="black" points="144.83,-179.5 144.83,-198.5 250.83,-198.5 250.83,-179.5 144.83,-179.5"/>
<text text-anchor="middle" x="197.83" y="-186.5" font-family="Helvetica,sans-Serif" font-size="10.00">Core/Utils/Log.hpp</text>
</a>
</g>
</g>
<!-- Node1&#45;&gt;Node2 -->
<g id="edge1" class="edge">
<title>Node1&#45;&gt;Node2</title>
<path fill="none" stroke="midnightblue" d="M827.5,-415.82C708.85,-394.5 478.66,-344.72 301.83,-255 271.56,-239.64 238.66,-218.21 218.15,-204.22"/>
<polygon fill="midnightblue" stroke="midnightblue" points="220.12,-201.33 209.9,-198.54 216.15,-207.09 220.12,-201.33"/>
</g>
<!-- Node13 -->
<g id="node13" class="node">
<title>Node13</title>
<g id="a_node13"><a xlink:href="RenderParameters_8hpp.html" target="_top" xlink:title=" ">
<polygon fill="white" stroke="black" points="810.83,-347.5 810.83,-366.5 1000.83,-366.5 1000.83,-347.5 810.83,-347.5"/>
<text text-anchor="middle" x="905.83" y="-354.5" font-family="Helvetica,sans-Serif" font-size="10.00">Engine/Data/RenderParameters.hpp</text>
</a>
</g>
</g>
<!-- Node1&#45;&gt;Node13 -->
<g id="edge13" class="edge">
<title>Node1&#45;&gt;Node13</title>
<path fill="none" stroke="midnightblue" d="M905.83,-403.45C905.83,-394.73 905.83,-385.1 905.83,-376.96"/>
<polygon fill="midnightblue" stroke="midnightblue" points="909.33,-376.7 905.83,-366.7 902.33,-376.7 909.33,-376.7"/>
</g>
<!-- Node37 -->
<g id="node37" class="node">
<title>Node37</title>
<g id="a_node37"><a xlink:href="ShaderProgram_8hpp.html" target="_top" xlink:title=" ">
<polygon fill="white" stroke="black" points="1104.33,-235.5 1104.33,-254.5 1279.33,-254.5 1279.33,-235.5 1104.33,-235.5"/>
<text text-anchor="middle" x="1191.83" y="-242.5" font-family="Helvetica,sans-Serif" font-size="10.00">Engine/Data/ShaderProgram.hpp</text>
</a>
</g>
</g>
<!-- Node1&#45;&gt;Node37 -->
<g id="edge65" class="edge">
<title>Node1&#45;&gt;Node37</title>
<path fill="none" stroke="midnightblue" d="M983.96,-409.68C1040.65,-392.44 1115.71,-361.72 1164.83,-311 1177.17,-298.25 1184.2,-279.06 1187.97,-264.83"/>
<polygon fill="midnightblue" stroke="midnightblue" points="1191.47,-265.23 1190.33,-254.7 1184.65,-263.64 1191.47,-265.23"/>
</g>
<!-- Node3 -->
<g id="node3" class="node">
<title>Node3</title>
<g id="a_node3"><a xlink:href="RaCore_8hpp.html" target="_top" xlink:title=" ">
<polygon fill="white" stroke="black" points="148.83,-123.5 148.83,-142.5 246.83,-142.5 246.83,-123.5 148.83,-123.5"/>
<text text-anchor="middle" x="197.83" y="-130.5" font-family="Helvetica,sans-Serif" font-size="10.00">Core/RaCore.hpp</text>
</a>
</g>
</g>
<!-- Node2&#45;&gt;Node3 -->
<g id="edge2" class="edge">
<title>Node2&#45;&gt;Node3</title>
<path fill="none" stroke="midnightblue" d="M197.83,-179.08C197.83,-172.01 197.83,-161.86 197.83,-152.99"/>
<polygon fill="midnightblue" stroke="midnightblue" points="201.33,-152.75 197.83,-142.75 194.33,-152.75 201.33,-152.75"/>
</g>
<!-- Node8 -->
<g id="node8" class="node">
<title>Node8</title>
<g id="a_node8"><a xlink:title=" ">
<polygon fill="white" stroke="#bfbfbf" points="138.83,-6 138.83,-25 194.83,-25 194.83,-6 138.83,-6"/>
<text text-anchor="middle" x="166.83" y="-13" font-family="Helvetica,sans-Serif" font-size="10.00">sstream</text>
</a>
</g>
</g>
<!-- Node2&#45;&gt;Node8 -->
<g id="edge10" class="edge">
<title>Node2&#45;&gt;Node8</title>
<path fill="none" stroke="midnightblue" d="M144.43,-182.54C94.87,-176.23 26.35,-163.95 9.83,-143 -30.44,-91.95 70.39,-48.38 128.76,-28.32"/>
<polygon fill="midnightblue" stroke="midnightblue" points="130.06,-31.57 138.42,-25.07 127.83,-24.94 130.06,-31.57"/>
</g>
<!-- Node10 -->
<g id="node10" class="node">
<title>Node10</title>
<g id="a_node10"><a xlink:title=" ">
<polygon fill="white" stroke="#bfbfbf" points="18.83,-123.5 18.83,-142.5 62.83,-142.5 62.83,-123.5 18.83,-123.5"/>
<text text-anchor="middle" x="40.83" y="-130.5" font-family="Helvetica,sans-Serif" font-size="10.00">ctime</text>
</a>
</g>
</g>
<!-- Node2&#45;&gt;Node10 -->
<g id="edge9" class="edge">
<title>Node2&#45;&gt;Node10</title>
<path fill="none" stroke="midnightblue" d="M172.95,-179.44C145.76,-170.09 102.13,-155.09 72.52,-144.9"/>
<polygon fill="midnightblue" stroke="midnightblue" points="73.65,-141.59 63.05,-141.64 71.37,-148.21 73.65,-141.59"/>
</g>
<!-- Node11 -->
<g id="node11" class="node">
<title>Node11</title>
<g id="a_node11"><a xlink:title=" ">
<polygon fill="white" stroke="#bfbfbf" points="80.83,-123.5 80.83,-142.5 130.83,-142.5 130.83,-123.5 80.83,-123.5"/>
<text text-anchor="middle" x="105.83" y="-130.5" font-family="Helvetica,sans-Serif" font-size="10.00">stdio.h</text>
</a>
</g>
</g>
<!-- Node2&#45;&gt;Node11 -->
<g id="edge11" class="edge">
<title>Node2&#45;&gt;Node11</title>
<path fill="none" stroke="midnightblue" d="M183.05,-179.32C168.56,-170.82 146.26,-157.73 129.34,-147.8"/>
<polygon fill="midnightblue" stroke="midnightblue" points="130.97,-144.7 120.57,-142.65 127.43,-150.74 130.97,-144.7"/>
</g>
<!-- Node12 -->
<g id="node12" class="node">
<title>Node12</title>
<g id="a_node12"><a xlink:title=" ">
<polygon fill="white" stroke="#bfbfbf" points="877.83,-123.5 877.83,-142.5 921.83,-142.5 921.83,-123.5 877.83,-123.5"/>
<text text-anchor="middle" x="899.83" y="-130.5" font-family="Helvetica,sans-Serif" font-size="10.00">string</text>
</a>
</g>
</g>
<!-- Node2&#45;&gt;Node12 -->
<g id="edge12" class="edge">
<title>Node2&#45;&gt;Node12</title>
<path fill="none" stroke="midnightblue" d="M251.04,-185.09C392.98,-177.25 775.55,-155.5 867.46,-142.67"/>
<polygon fill="midnightblue" stroke="midnightblue" points="868.28,-146.08 877.61,-141.07 867.19,-139.17 868.28,-146.08"/>
</g>
<!-- Node4 -->
<g id="node4" class="node">
<title>Node4</title>
<g id="a_node4"><a xlink:href="CoreMacros_8hpp.html" target="_top" xlink:title=" ">
<polygon fill="white" stroke="black" points="490.33,-67.5 490.33,-86.5 611.33,-86.5 611.33,-67.5 490.33,-67.5"/>
<text text-anchor="middle" x="550.83" y="-74.5" font-family="Helvetica,sans-Serif" font-size="10.00">Core/CoreMacros.hpp</text>
</a>
</g>
</g>
<!-- Node3&#45;&gt;Node4 -->
<g id="edge3" class="edge">
<title>Node3&#45;&gt;Node4</title>
<path fill="none" stroke="midnightblue" d="M246.88,-124.38C249.91,-123.91 252.91,-123.45 255.83,-123 334.49,-110.9 424.97,-97.12 484.76,-88.03"/>
<polygon fill="midnightblue" stroke="midnightblue" points="485.46,-91.46 494.82,-86.5 484.41,-84.54 485.46,-91.46"/>
</g>
<!-- Node5 -->
<g id="node5" class="node">
<title>Node5</title>
<g id="a_node5"><a xlink:title=" ">
<polygon fill="white" stroke="#bfbfbf" points="422.83,-6 422.83,-25 474.83,-25 474.83,-6 422.83,-6"/>
<text text-anchor="middle" x="448.83" y="-13" font-family="Helvetica,sans-Serif" font-size="10.00">cassert</text>
</a>
</g>
</g>
<!-- Node4&#45;&gt;Node5 -->
<g id="edge4" class="edge">
<title>Node4&#45;&gt;Node5</title>
<path fill="none" stroke="midnightblue" d="M536.22,-67.48C519.48,-57.71 491.82,-41.58 472.11,-30.08"/>
<polygon fill="midnightblue" stroke="midnightblue" points="473.82,-27.02 463.42,-25.01 470.29,-33.07 473.82,-27.02"/>
</g>
<!-- Node6 -->
<g id="node6" class="node">
<title>Node6</title>
<g id="a_node6"><a xlink:title=" ">
<polygon fill="white" stroke="#bfbfbf" points="492.83,-6 492.83,-25 538.83,-25 538.83,-6 492.83,-6"/>
<text text-anchor="middle" x="515.83" y="-13" font-family="Helvetica,sans-Serif" font-size="10.00">cstdio</text>
</a>
</g>
</g>
<!-- Node4&#45;&gt;Node6 -->
<g id="edge5" class="edge">
<title>Node4&#45;&gt;Node6</title>
<path fill="none" stroke="midnightblue" d="M545.81,-67.48C540.67,-58.73 532.52,-44.87 526.01,-33.81"/>
<polygon fill="midnightblue" stroke="midnightblue" points="528.92,-31.85 520.83,-25.01 522.89,-35.4 528.92,-31.85"/>
</g>
<!-- Node7 -->
<g id="node7" class="node">
<title>Node7</title>
<g id="a_node7"><a xlink:title=" ">
<polygon fill="white" stroke="#bfbfbf" points="556.83,-6 556.83,-25 616.83,-25 616.83,-6 556.83,-6"/>
<text text-anchor="middle" x="586.83" y="-13" font-family="Helvetica,sans-Serif" font-size="10.00">iostream</text>
</a>
</g>
</g>
<!-- Node4&#45;&gt;Node7 -->
<g id="edge6" class="edge">
<title>Node4&#45;&gt;Node7</title>
<path fill="none" stroke="midnightblue" d="M555.99,-67.48C561.28,-58.73 569.66,-44.87 576.36,-33.81"/>
<polygon fill="midnightblue" stroke="midnightblue" points="579.5,-35.38 581.68,-25.01 573.51,-31.75 579.5,-35.38"/>
</g>
<!-- Node4&#45;&gt;Node8 -->
<g id="edge7" class="edge">
<title>Node4&#45;&gt;Node8</title>
<path fill="none" stroke="midnightblue" d="M495.81,-67.48C416.91,-55.25 273.61,-33.05 205.19,-22.44"/>
<polygon fill="midnightblue" stroke="midnightblue" points="205.68,-18.98 195.26,-20.91 204.61,-25.9 205.68,-18.98"/>
</g>
<!-- Node9 -->
<g id="node9" class="node">
<title>Node9</title>
<g id="a_node9"><a xlink:title=" ">
<polygon fill="white" stroke="#bfbfbf" points="634.83,-6 634.83,-25 682.83,-25 682.83,-6 634.83,-6"/>
<text text-anchor="middle" x="658.83" y="-13" font-family="Helvetica,sans-Serif" font-size="10.00">thread</text>
</a>
</g>
</g>
<!-- Node4&#45;&gt;Node9 -->
<g id="edge8" class="edge">
<title>Node4&#45;&gt;Node9</title>
<path fill="none" stroke="midnightblue" d="M566.3,-67.48C584.11,-57.67 613.57,-41.43 634.46,-29.92"/>
<polygon fill="midnightblue" stroke="midnightblue" points="636.31,-32.9 643.38,-25.01 632.94,-26.77 636.31,-32.9"/>
</g>
<!-- Node13&#45;&gt;Node2 -->
<g id="edge44" class="edge">
<title>Node13&#45;&gt;Node2</title>
<path fill="none" stroke="midnightblue" d="M810.69,-351.26C730.44,-345.8 612.98,-334.38 512.83,-311 441.09,-294.25 425.61,-281.39 356.83,-255 311.61,-237.65 259.76,-216.15 227.91,-202.75"/>
<polygon fill="midnightblue" stroke="midnightblue" points="228.87,-199.36 218.3,-198.7 226.15,-205.81 228.87,-199.36"/>
</g>
<!-- Node14 -->
<g id="node14" class="node">
<title>Node14</title>
<g id="a_node14"><a xlink:href="RaEngine_8hpp.html" target="_top" xlink:title=" ">
<polygon fill="white" stroke="black" points="1424.33,-123.5 1424.33,-142.5 1543.33,-142.5 1543.33,-123.5 1424.33,-123.5"/>
<text text-anchor="middle" x="1483.83" y="-130.5" font-family="Helvetica,sans-Serif" font-size="10.00">Engine/RaEngine.hpp</text>
</a>
</g>
</g>
<!-- Node13&#45;&gt;Node14 -->
<g id="edge14" class="edge">
<title>Node13&#45;&gt;Node14</title>
<path fill="none" stroke="midnightblue" d="M976.44,-347.46C1028.97,-340.21 1102.12,-328.22 1164.83,-311 1299.66,-273.97 1359.8,-297.71 1458.83,-199 1471.26,-186.61 1477.63,-167.36 1480.82,-153.03"/>
<polygon fill="midnightblue" stroke="midnightblue" points="1484.33,-153.28 1482.75,-142.81 1477.46,-151.98 1484.33,-153.28"/>
</g>
<!-- Node19 -->
<g id="node19" class="node">
<title>Node19</title>
<g id="a_node19"><a xlink:title=" ">
<polygon fill="white" stroke="#bfbfbf" points="939.83,-123.5 939.83,-142.5 971.83,-142.5 971.83,-123.5 939.83,-123.5"/>
<text text-anchor="middle" x="955.83" y="-130.5" font-family="Helvetica,sans-Serif" font-size="10.00">set</text>
</a>
</g>
</g>
<!-- Node13&#45;&gt;Node19 -->
<g id="edge20" class="edge">
<title>Node13&#45;&gt;Node19</title>
<path fill="none" stroke="midnightblue" d="M905.83,-347.25C906.09,-321.01 908.67,-240.92 929.83,-179 933.14,-169.3 938.63,-159.36 943.72,-151.29"/>
<polygon fill="midnightblue" stroke="midnightblue" points="946.73,-153.07 949.34,-142.8 940.9,-149.2 946.73,-153.07"/>
</g>
<!-- Node20 -->
<g id="node20" class="node">
<title>Node20</title>
<g id="a_node20"><a xlink:title=" ">
<polygon fill="white" stroke="#bfbfbf" points="990.33,-123.5 990.33,-142.5 1037.33,-142.5 1037.33,-123.5 990.33,-123.5"/>
<text text-anchor="middle" x="1013.83" y="-130.5" font-family="Helvetica,sans-Serif" font-size="10.00">vector</text>
</a>
</g>
</g>
<!-- Node13&#45;&gt;Node20 -->
<g id="edge21" class="edge">
<title>Node13&#45;&gt;Node20</title>
<path fill="none" stroke="midnightblue" d="M908.72,-347.38C911.76,-338.33 916.65,-323.67 920.83,-311 940.14,-252.4 930.2,-230.73 963.83,-179 971.49,-167.22 982.99,-156.57 993.03,-148.6"/>
<polygon fill="midnightblue" stroke="midnightblue" points="995.15,-151.38 1001.01,-142.56 990.92,-145.8 995.15,-151.38"/>
</g>
<!-- Node21 -->
<g id="node21" class="node">
<title>Node21</title>
<g id="a_node21"><a xlink:href="AlignedAllocator_8hpp.html" target="_top" xlink:title=" ">
<polygon fill="white" stroke="black" points="626.83,-291.5 626.83,-310.5 824.83,-310.5 824.83,-291.5 626.83,-291.5"/>
<text text-anchor="middle" x="725.83" y="-298.5" font-family="Helvetica,sans-Serif" font-size="10.00">Core/Containers/AlignedAllocator.hpp</text>
</a>
</g>
</g>
<!-- Node13&#45;&gt;Node21 -->
<g id="edge22" class="edge">
<title>Node13&#45;&gt;Node21</title>
<path fill="none" stroke="midnightblue" d="M877.31,-347.44C846.76,-338.28 798.12,-323.69 764.23,-313.52"/>
<polygon fill="midnightblue" stroke="midnightblue" points="764.8,-310.04 754.22,-310.52 762.79,-316.74 764.8,-310.04"/>
</g>
<!-- Node26 -->
<g id="node26" class="node">
<title>Node26</title>
<g id="a_node26"><a xlink:href="Types_8hpp.html" target="_top" xlink:title=" ">
<polygon fill="white" stroke="black" points="704.33,-179.5 704.33,-198.5 795.33,-198.5 795.33,-179.5 704.33,-179.5"/>
<text text-anchor="middle" x="749.83" y="-186.5" font-family="Helvetica,sans-Serif" font-size="10.00">Core/Types.hpp</text>
</a>
</g>
</g>
<!-- Node13&#45;&gt;Node26 -->
<g id="edge28" class="edge">
<title>Node13&#45;&gt;Node26</title>
<path fill="none" stroke="midnightblue" d="M810.81,-349.2C739.65,-342.63 649.37,-330.72 617.83,-311 592.11,-294.92 587.91,-283.94 578.83,-255 576.17,-246.52 573.4,-242.04 578.83,-235 586.22,-225.41 649.46,-210.55 696.89,-200.55"/>
<polygon fill="midnightblue" stroke="midnightblue" points="697.67,-203.97 706.75,-198.5 696.24,-197.11 697.67,-203.97"/>
</g>
<!-- Node30 -->
<g id="node30" class="node">
<title>Node30</title>
<g id="a_node30"><a xlink:href="Color_8hpp.html" target="_top" xlink:title=" ">
<polygon fill="white" stroke="black" points="418.33,-235.5 418.33,-254.5 531.33,-254.5 531.33,-235.5 418.33,-235.5"/>
<text text-anchor="middle" x="474.83" y="-242.5" font-family="Helvetica,sans-Serif" font-size="10.00">Core/Utils/Color.hpp</text>
</a>
</g>
</g>
<!-- Node13&#45;&gt;Node30 -->
<g id="edge33" class="edge">
<title>Node13&#45;&gt;Node30</title>
<path fill="none" stroke="midnightblue" d="M810.8,-350.65C720.36,-344.39 591.5,-332.1 545.83,-311 521.99,-299.98 500.66,-278 487.75,-262.66"/>
<polygon fill="midnightblue" stroke="midnightblue" points="490.17,-260.1 481.16,-254.53 484.74,-264.51 490.17,-260.1"/>
</g>
<!-- Node36 -->
<g id="node36" class="node">
<title>Node36</title>
<g id="a_node36"><a xlink:href="RenderParameters_8inl.html" target="_top" xlink:title=" ">
<polygon fill="white" stroke="black" points="971.83,-291.5 971.83,-310.5 1155.83,-310.5 1155.83,-291.5 971.83,-291.5"/>
<text text-anchor="middle" x="1063.83" y="-298.5" font-family="Helvetica,sans-Serif" font-size="10.00">Engine/Data/RenderParameters.inl</text>
</a>
</g>
</g>
<!-- Node13&#45;&gt;Node36 -->
<g id="edge45" class="edge">
<title>Node13&#45;&gt;Node36</title>
<path fill="none" stroke="midnightblue" d="M925.78,-347.44C950.47,-338.32 992.72,-323.81 1024.07,-313.65"/>
<polygon fill="midnightblue" stroke="midnightblue" points="1025.38,-316.91 1033.83,-310.52 1023.24,-310.24 1025.38,-316.91"/>
</g>
<!-- Node14&#45;&gt;Node4 -->
<g id="edge15" class="edge">
<title>Node14&#45;&gt;Node4</title>
<path fill="none" stroke="midnightblue" d="M1424.02,-123.91C1420.92,-123.58 1417.84,-123.27 1414.83,-123 1121.03,-96.23 769.47,-84.05 621.72,-79.83"/>
<polygon fill="midnightblue" stroke="midnightblue" points="621.53,-76.32 611.44,-79.54 621.33,-83.32 621.53,-76.32"/>
</g>
<!-- Node15 -->
<g id="node15" class="node">
<title>Node15</title>
<g id="a_node15"><a xlink:href="OpenGL_8hpp.html" target="_top" xlink:title=" ">
<polygon fill="white" stroke="black" points="1427.83,-67.5 1427.83,-86.5 1539.83,-86.5 1539.83,-67.5 1427.83,-67.5"/>
<text text-anchor="middle" x="1483.83" y="-74.5" font-family="Helvetica,sans-Serif" font-size="10.00">Engine/OpenGL.hpp</text>
</a>
</g>
</g>
<!-- Node14&#45;&gt;Node15 -->
<g id="edge16" class="edge">
<title>Node14&#45;&gt;Node15</title>
<path fill="none" stroke="midnightblue" d="M1483.83,-123.08C1483.83,-116.01 1483.83,-105.86 1483.83,-96.99"/>
<polygon fill="midnightblue" stroke="midnightblue" points="1487.33,-96.75 1483.83,-86.75 1480.33,-96.75 1487.33,-96.75"/>
</g>
<!-- Node16 -->
<g id="node16" class="node">
<title>Node16</title>
<g id="a_node16"><a xlink:title=" ">
<polygon fill="white" stroke="#bfbfbf" points="1276.83,-6 1276.83,-25 1404.83,-25 1404.83,-6 1276.83,-6"/>
<text text-anchor="middle" x="1340.83" y="-13" font-family="Helvetica,sans-Serif" font-size="10.00">glbinding/gl45core/gl.h</text>
</a>
</g>
</g>
<!-- Node15&#45;&gt;Node16 -->
<g id="edge17" class="edge">
<title>Node15&#45;&gt;Node16</title>
<path fill="none" stroke="midnightblue" d="M1463.34,-67.48C1439.02,-57.36 1398.28,-40.4 1370.51,-28.85"/>
<polygon fill="midnightblue" stroke="midnightblue" points="1371.86,-25.62 1361.28,-25.01 1369.17,-32.08 1371.86,-25.62"/>
</g>
<!-- Node17 -->
<g id="node17" class="node">
<title>Node17</title>
<g id="a_node17"><a xlink:title=" ">
<polygon fill="white" stroke="#bfbfbf" points="1422.83,-6 1422.83,-25 1544.83,-25 1544.83,-6 1422.83,-6"/>
<text text-anchor="middle" x="1483.83" y="-13" font-family="Helvetica,sans-Serif" font-size="10.00">glbinding/gl45ext/gl.h</text>
</a>
</g>
</g>
<!-- Node15&#45;&gt;Node17 -->
<g id="edge18" class="edge">
<title>Node15&#45;&gt;Node17</title>
<path fill="none" stroke="midnightblue" d="M1483.83,-67.48C1483.83,-59.08 1483.83,-45.98 1483.83,-35.16"/>
<polygon fill="midnightblue" stroke="midnightblue" points="1487.33,-35.01 1483.83,-25.01 1480.33,-35.01 1487.33,-35.01"/>
</g>
<!-- Node18 -->
<g id="node18" class="node">
<title>Node18</title>
<g id="a_node18"><a xlink:title=" ">
<polygon fill="white" stroke="#bfbfbf" points="1563.33,-0.5 1563.33,-30.5 1676.33,-30.5 1676.33,-0.5 1563.33,-0.5"/>
<text text-anchor="start" x="1571.33" y="-18.5" font-family="Helvetica,sans-Serif" font-size="10.00">glbinding&#45;aux/types</text>
<text text-anchor="middle" x="1619.83" y="-7.5" font-family="Helvetica,sans-Serif" font-size="10.00">_to_string.h</text>
</a>
</g>
</g>
<!-- Node15&#45;&gt;Node18 -->
<g id="edge19" class="edge">
<title>Node15&#45;&gt;Node18</title>
<path fill="none" stroke="midnightblue" d="M1503.31,-67.48C1522.85,-58.93 1553.54,-45.5 1578.52,-34.57"/>
<polygon fill="midnightblue" stroke="midnightblue" points="1580.02,-37.74 1587.78,-30.52 1577.21,-31.32 1580.02,-37.74"/>
</g>
<!-- Node21&#45;&gt;Node3 -->
<g id="edge23" class="edge">
<title>Node21&#45;&gt;Node3</title>
<path fill="none" stroke="midnightblue" d="M626.79,-295.48C563.36,-290.27 480.08,-279.07 409.83,-255 333.69,-228.92 253.85,-174.95 217.7,-148.82"/>
<polygon fill="midnightblue" stroke="midnightblue" points="219.62,-145.88 209.48,-142.81 215.49,-151.53 219.62,-145.88"/>
</g>
<!-- Node22 -->
<g id="node22" class="node">
<title>Node22</title>
<g id="a_node22"><a xlink:title=" ">
<polygon fill="white" stroke="#bfbfbf" points="723.33,-235.5 723.33,-254.5 806.33,-254.5 806.33,-235.5 723.33,-235.5"/>
<text text-anchor="middle" x="764.83" y="-242.5" font-family="Helvetica,sans-Serif" font-size="10.00">mm_malloc.h</text>
</a>
</g>
</g>
<!-- Node21&#45;&gt;Node22 -->
<g id="edge24" class="edge">
<title>Node21&#45;&gt;Node22</title>
<path fill="none" stroke="midnightblue" d="M732.27,-291.08C737.78,-283.46 745.86,-272.26 752.59,-262.94"/>
<polygon fill="midnightblue" stroke="midnightblue" points="755.49,-264.91 758.51,-254.75 749.82,-260.81 755.49,-264.91"/>
</g>
<!-- Node23 -->
<g id="node23" class="node">
<title>Node23</title>
<g id="a_node23"><a xlink:title=" ">
<polygon fill="white" stroke="#bfbfbf" points="824.33,-235.5 824.33,-254.5 877.33,-254.5 877.33,-235.5 824.33,-235.5"/>
<text text-anchor="middle" x="850.83" y="-242.5" font-family="Helvetica,sans-Serif" font-size="10.00">cstddef</text>
</a>
</g>
</g>
<!-- Node21&#45;&gt;Node23 -->
<g id="edge25" class="edge">
<title>Node21&#45;&gt;Node23</title>
<path fill="none" stroke="midnightblue" d="M745.64,-291.44C766.12,-282.6 798.31,-268.69 821.69,-258.59"/>
<polygon fill="midnightblue" stroke="midnightblue" points="823.32,-261.7 831.12,-254.52 820.55,-255.27 823.32,-261.7"/>
</g>
<!-- Node24 -->
<g id="node24" class="node">
<title>Node24</title>
<g id="a_node24"><a xlink:title=" ">
<polygon fill="white" stroke="#bfbfbf" points="587.83,-235.5 587.83,-254.5 637.83,-254.5 637.83,-235.5 587.83,-235.5"/>
<text text-anchor="middle" x="612.83" y="-242.5" font-family="Helvetica,sans-Serif" font-size="10.00">cstdint</text>
</a>
</g>
</g>
<!-- Node21&#45;&gt;Node24 -->
<g id="edge26" class="edge">
<title>Node21&#45;&gt;Node24</title>
<path fill="none" stroke="midnightblue" d="M707.92,-291.44C689.58,-282.68 660.82,-268.94 639.74,-258.86"/>
<polygon fill="midnightblue" stroke="midnightblue" points="641.18,-255.67 630.65,-254.52 638.16,-261.99 641.18,-255.67"/>
</g>
<!-- Node25 -->
<g id="node25" class="node">
<title>Node25</title>
<g id="a_node25"><a xlink:title=" ">
<polygon fill="white" stroke="#bfbfbf" points="656.33,-235.5 656.33,-254.5 705.33,-254.5 705.33,-235.5 656.33,-235.5"/>
<text text-anchor="middle" x="680.83" y="-242.5" font-family="Helvetica,sans-Serif" font-size="10.00">cstdlib</text>
</a>
</g>
</g>
<!-- Node21&#45;&gt;Node25 -->
<g id="edge27" class="edge">
<title>Node21&#45;&gt;Node25</title>
<path fill="none" stroke="midnightblue" d="M718.4,-291.08C711.98,-283.38 702.52,-272.03 694.71,-262.65"/>
<polygon fill="midnightblue" stroke="midnightblue" points="697.21,-260.19 688.12,-254.75 691.83,-264.67 697.21,-260.19"/>
</g>
<!-- Node26&#45;&gt;Node3 -->
<g id="edge29" class="edge">
<title>Node26&#45;&gt;Node3</title>
<path fill="none" stroke="midnightblue" d="M703.95,-183.5C688.94,-182.04 672.17,-180.43 656.83,-179 481.88,-162.68 435.12,-164.65 256.82,-143.05"/>
<polygon fill="midnightblue" stroke="midnightblue" points="257.2,-139.57 246.85,-141.83 256.35,-146.52 257.2,-139.57"/>
</g>
<!-- Node27 -->
<g id="node27" class="node">
<title>Node27</title>
<g id="a_node27"><a xlink:title=" ">
<polygon fill="white" stroke="#bfbfbf" points="692.33,-123.5 692.33,-142.5 761.33,-142.5 761.33,-123.5 692.33,-123.5"/>
<text text-anchor="middle" x="726.83" y="-130.5" font-family="Helvetica,sans-Serif" font-size="10.00">Eigen/Core</text>
</a>
</g>
</g>
<!-- Node26&#45;&gt;Node27 -->
<g id="edge30" class="edge">
<title>Node26&#45;&gt;Node27</title>
<path fill="none" stroke="midnightblue" d="M746.03,-179.08C742.92,-171.77 738.41,-161.18 734.54,-152.1"/>
<polygon fill="midnightblue" stroke="midnightblue" points="737.7,-150.58 730.56,-142.75 731.26,-153.32 737.7,-150.58"/>
</g>
<!-- Node28 -->
<g id="node28" class="node">
<title>Node28</title>
<g id="a_node28"><a xlink:title=" ">
<polygon fill="white" stroke="#bfbfbf" points="579.33,-123.5 579.33,-142.5 674.33,-142.5 674.33,-123.5 579.33,-123.5"/>
<text text-anchor="middle" x="626.83" y="-130.5" font-family="Helvetica,sans-Serif" font-size="10.00">Eigen/Geometry</text>
</a>
</g>
</g>
<!-- Node26&#45;&gt;Node28 -->
<g id="edge31" class="edge">
<title>Node26&#45;&gt;Node28</title>
<path fill="none" stroke="midnightblue" d="M730.34,-179.44C710.19,-170.6 678.51,-156.69 655.5,-146.59"/>
<polygon fill="midnightblue" stroke="midnightblue" points="656.79,-143.33 646.23,-142.52 653.98,-149.74 656.79,-143.33"/>
</g>
<!-- Node29 -->
<g id="node29" class="node">
<title>Node29</title>
<g id="a_node29"><a xlink:title=" ">
<polygon fill="white" stroke="#bfbfbf" points="779.83,-123.5 779.83,-142.5 859.83,-142.5 859.83,-123.5 779.83,-123.5"/>
<text text-anchor="middle" x="819.83" y="-130.5" font-family="Helvetica,sans-Serif" font-size="10.00">Eigen/Sparse</text>
</a>
</g>
</g>
<!-- Node26&#45;&gt;Node29 -->
<g id="edge32" class="edge">
<title>Node26&#45;&gt;Node29</title>
<path fill="none" stroke="midnightblue" d="M761.08,-179.32C771.63,-171.18 787.63,-158.84 800.27,-149.09"/>
<polygon fill="midnightblue" stroke="midnightblue" points="802.6,-151.71 808.38,-142.83 798.32,-146.17 802.6,-151.71"/>
</g>
<!-- Node30&#45;&gt;Node4 -->
<g id="edge34" class="edge">
<title>Node30&#45;&gt;Node4</title>
<path fill="none" stroke="midnightblue" d="M481.18,-235.27C487.53,-226.36 497.38,-212.05 504.83,-199 518.53,-175 521.92,-168.79 531.83,-143 537.76,-127.57 542.91,-109.48 546.34,-96.3"/>
<polygon fill="midnightblue" stroke="midnightblue" points="549.75,-97.11 548.81,-86.56 542.96,-95.4 549.75,-97.11"/>
</g>
<!-- Node30&#45;&gt;Node27 -->
<g id="edge41" class="edge">
<title>Node30&#45;&gt;Node27</title>
<path fill="none" stroke="midnightblue" d="M520.2,-235.49C566.09,-226.41 633.49,-211.61 656.83,-199 679.52,-186.74 700.47,-165.4 713.42,-150.52"/>
<polygon fill="midnightblue" stroke="midnightblue" points="716.3,-152.53 720.08,-142.63 710.95,-148.02 716.3,-152.53"/>
</g>
<!-- Node30&#45;&gt;Node28 -->
<g id="edge42" class="edge">
<title>Node30&#45;&gt;Node28</title>
<path fill="none" stroke="midnightblue" d="M488.09,-235.44C501.72,-226.56 523.5,-212.15 541.83,-199 564.97,-182.41 590.87,-162.38 607.93,-148.98"/>
<polygon fill="midnightblue" stroke="midnightblue" points="610.3,-151.57 615.99,-142.63 605.97,-146.07 610.3,-151.57"/>
</g>
<!-- Node31 -->
<g id="node31" class="node">
<title>Node31</title>
<g id="a_node31"><a xlink:href="Math_8hpp.html" target="_top" xlink:title=" ">
<polygon fill="white" stroke="black" points="379.83,-179.5 379.83,-198.5 495.83,-198.5 495.83,-179.5 379.83,-179.5"/>
<text text-anchor="middle" x="437.83" y="-186.5" font-family="Helvetica,sans-Serif" font-size="10.00">Core/Math/Math.hpp</text>
</a>
</g>
</g>
<!-- Node30&#45;&gt;Node31 -->
<g id="edge35" class="edge">
<title>Node30&#45;&gt;Node31</title>
<path fill="none" stroke="midnightblue" d="M468.72,-235.08C463.55,-227.53 455.98,-216.49 449.63,-207.23"/>
<polygon fill="midnightblue" stroke="midnightblue" points="452.36,-205.02 443.83,-198.75 446.59,-208.98 452.36,-205.02"/>
</g>
<!-- Node35 -->
<g id="node35" class="node">
<title>Node35</title>
<g id="a_node35"><a xlink:title=" ">
<polygon fill="white" stroke="#bfbfbf" points="593.83,-179.5 593.83,-198.5 647.83,-198.5 647.83,-179.5 593.83,-179.5"/>
<text text-anchor="middle" x="620.83" y="-186.5" font-family="Helvetica,sans-Serif" font-size="10.00">random</text>
</a>
</g>
</g>
<!-- Node30&#45;&gt;Node35 -->
<g id="edge43" class="edge">
<title>Node30&#45;&gt;Node35</title>
<path fill="none" stroke="midnightblue" d="M497.96,-235.44C522.31,-226.44 560.84,-212.19 588.25,-202.05"/>
<polygon fill="midnightblue" stroke="midnightblue" points="589.64,-205.27 597.8,-198.52 587.21,-198.7 589.64,-205.27"/>
</g>
<!-- Node31&#45;&gt;Node3 -->
<g id="edge36" class="edge">
<title>Node31&#45;&gt;Node3</title>
<path fill="none" stroke="midnightblue" d="M399.8,-179.44C358.02,-170.04 290.85,-154.93 245.56,-144.74"/>
<polygon fill="midnightblue" stroke="midnightblue" points="246.2,-141.3 235.68,-142.52 244.67,-148.13 246.2,-141.3"/>
</g>
<!-- Node32 -->
<g id="node32" class="node">
<title>Node32</title>
<g id="a_node32"><a xlink:title=" ">
<polygon fill="white" stroke="#bfbfbf" points="264.83,-123.5 264.83,-142.5 328.83,-142.5 328.83,-123.5 264.83,-123.5"/>
<text text-anchor="middle" x="296.83" y="-130.5" font-family="Helvetica,sans-Serif" font-size="10.00">algorithm</text>
</a>
</g>
</g>
<!-- Node31&#45;&gt;Node32 -->
<g id="edge37" class="edge">
<title>Node31&#45;&gt;Node32</title>
<path fill="none" stroke="midnightblue" d="M415.49,-179.44C392.08,-170.48 355.09,-156.31 328.64,-146.18"/>
<polygon fill="midnightblue" stroke="midnightblue" points="329.66,-142.82 319.07,-142.52 327.15,-149.36 329.66,-142.82"/>
</g>
<!-- Node33 -->
<g id="node33" class="node">
<title>Node33</title>
<g id="a_node33"><a xlink:title=" ">
<polygon fill="white" stroke="#bfbfbf" points="347.33,-123.5 347.33,-142.5 394.33,-142.5 394.33,-123.5 347.33,-123.5"/>
<text text-anchor="middle" x="370.83" y="-130.5" font-family="Helvetica,sans-Serif" font-size="10.00">cmath</text>
</a>
</g>
</g>
<!-- Node31&#45;&gt;Node33 -->
<g id="edge38" class="edge">
<title>Node31&#45;&gt;Node33</title>
<path fill="none" stroke="midnightblue" d="M427.06,-179.32C417.06,-171.26 401.94,-159.08 389.9,-149.37"/>
<polygon fill="midnightblue" stroke="midnightblue" points="391.77,-146.38 381.79,-142.83 387.38,-151.83 391.77,-146.38"/>
</g>
<!-- Node34 -->
<g id="node34" class="node">
<title>Node34</title>
<g id="a_node34"><a xlink:href="Math_8inl.html" target="_top" xlink:title=" ">
<polygon fill="white" stroke="black" points="412.83,-123.5 412.83,-142.5 522.83,-142.5 522.83,-123.5 412.83,-123.5"/>
<text text-anchor="middle" x="467.83" y="-130.5" font-family="Helvetica,sans-Serif" font-size="10.00">Core/Math/Math.inl</text>
</a>
</g>
</g>
<!-- Node31&#45;&gt;Node34 -->
<g id="edge39" class="edge">
<title>Node31&#45;&gt;Node34</title>
<path fill="none" stroke="midnightblue" d="M437.62,-179.08C440.22,-171.53 445.96,-160.49 451.92,-151.23"/>
<polygon fill="midnightblue" stroke="midnightblue" points="454.98,-152.95 457.84,-142.75 449.24,-148.95 454.98,-152.95"/>
</g>
<!-- Node34&#45;&gt;Node31 -->
<g id="edge40" class="edge">
<title>Node34&#45;&gt;Node31</title>
<path fill="none" stroke="midnightblue" d="M468.1,-142.75C465.52,-150.33 459.71,-161.5 453.69,-170.86"/>
<polygon fill="midnightblue" stroke="midnightblue" points="450.8,-168.88 447.95,-179.08 456.54,-172.88 450.8,-168.88"/>
</g>
<!-- Node36&#45;&gt;Node13 -->
<g id="edge46" class="edge">
<title>Node36&#45;&gt;Node13</title>
<path fill="none" stroke="midnightblue" d="M1043.99,-310.52C1019.35,-319.62 977.11,-334.13 945.72,-344.3"/>
<polygon fill="midnightblue" stroke="midnightblue" points="944.4,-341.05 935.95,-347.44 946.54,-347.72 944.4,-341.05"/>
</g>
<!-- Node36&#45;&gt;Node37 -->
<g id="edge47" class="edge">
<title>Node36&#45;&gt;Node37</title>
<path fill="none" stroke="midnightblue" d="M1084.11,-291.44C1105.18,-282.56 1138.35,-268.56 1162.31,-258.45"/>
<polygon fill="midnightblue" stroke="midnightblue" points="1163.79,-261.63 1171.64,-254.52 1161.07,-255.18 1163.79,-261.63"/>
</g>
<!-- Node37&#45;&gt;Node12 -->
<g id="edge59" class="edge">
<title>Node37&#45;&gt;Node12</title>
<path fill="none" stroke="midnightblue" d="M1104.07,-238.93C1059.88,-233.42 1006.72,-222.1 963.83,-199 942.35,-187.43 923.55,-166.25 911.98,-151.22"/>
<polygon fill="midnightblue" stroke="midnightblue" points="914.51,-148.75 905.75,-142.79 908.88,-152.91 914.51,-148.75"/>
</g>
<!-- Node37&#45;&gt;Node14 -->
<g id="edge48" class="edge">
<title>Node37&#45;&gt;Node14</title>
<path fill="none" stroke="midnightblue" d="M1228.38,-235.43C1259.82,-227.54 1306.09,-214.71 1344.83,-199 1362.52,-191.83 1365.66,-187.33 1382.83,-179 1406.58,-167.48 1433.95,-155.35 1454.21,-146.59"/>
<polygon fill="midnightblue" stroke="midnightblue" points="1455.73,-149.75 1463.53,-142.58 1452.96,-143.32 1455.73,-149.75"/>
</g>
<!-- Node37&#45;&gt;Node26 -->
<g id="edge49" class="edge">
<title>Node37&#45;&gt;Node26</title>
<path fill="none" stroke="midnightblue" d="M1121.79,-235.44C1034.32,-224.76 886.39,-206.68 805.97,-196.86"/>
<polygon fill="midnightblue" stroke="midnightblue" points="805.91,-193.33 795.56,-195.59 805.06,-200.27 805.91,-193.33"/>
</g>
<!-- Node38 -->
<g id="node38" class="node">
<title>Node38</title>
<g id="a_node38"><a xlink:href="ShaderConfiguration_8hpp.html" target="_top" xlink:title=" ">
<polygon fill="white" stroke="black" points="972.33,-179.5 972.33,-198.5 1171.33,-198.5 1171.33,-179.5 972.33,-179.5"/>
<text text-anchor="middle" x="1071.83" y="-186.5" font-family="Helvetica,sans-Serif" font-size="10.00">Engine/Data/ShaderConfiguration.hpp</text>
</a>
</g>
</g>
<!-- Node37&#45;&gt;Node38 -->
<g id="edge50" class="edge">
<title>Node37&#45;&gt;Node38</title>
<path fill="none" stroke="midnightblue" d="M1172.81,-235.44C1153.24,-226.64 1122.52,-212.81 1100.1,-202.72"/>
<polygon fill="midnightblue" stroke="midnightblue" points="1101.31,-199.43 1090.75,-198.52 1098.44,-205.81 1101.31,-199.43"/>
</g>
<!-- Node39 -->
<g id="node39" class="node">
<title>Node39</title>
<g id="a_node39"><a xlink:title=" ">
<polygon fill="white" stroke="#bfbfbf" points="1105.83,-123.5 1105.83,-142.5 1147.83,-142.5 1147.83,-123.5 1105.83,-123.5"/>
<text text-anchor="middle" x="1126.83" y="-130.5" font-family="Helvetica,sans-Serif" font-size="10.00">array</text>
</a>
</g>
</g>
<!-- Node37&#45;&gt;Node39 -->
<g id="edge57" class="edge">
<title>Node37&#45;&gt;Node39</title>
<path fill="none" stroke="midnightblue" d="M1192.21,-235.37C1192.39,-222.29 1191.21,-197.06 1180.83,-179 1173.63,-166.48 1161.54,-155.92 1150.63,-148.18"/>
<polygon fill="midnightblue" stroke="midnightblue" points="1152.51,-145.22 1142.24,-142.59 1148.63,-151.05 1152.51,-145.22"/>
</g>
<!-- Node41 -->
<g id="node41" class="node">
<title>Node41</title>
<g id="a_node41"><a xlink:title=" ">
<polygon fill="white" stroke="#bfbfbf" points="1391.83,-179.5 1391.83,-198.5 1449.83,-198.5 1449.83,-179.5 1391.83,-179.5"/>
<text text-anchor="middle" x="1420.83" y="-186.5" font-family="Helvetica,sans-Serif" font-size="10.00">memory</text>
</a>
</g>
</g>
<!-- Node37&#45;&gt;Node41 -->
<g id="edge58" class="edge">
<title>Node37&#45;&gt;Node41</title>
<path fill="none" stroke="midnightblue" d="M1228.11,-235.44C1270.03,-225.56 1338.73,-209.36 1381.78,-199.21"/>
<polygon fill="midnightblue" stroke="midnightblue" points="1382.69,-202.59 1391.62,-196.89 1381.08,-195.78 1382.69,-202.59"/>
</g>
<!-- Node42 -->
<g id="node42" class="node">
<title>Node42</title>
<g id="a_node42"><a xlink:href="ShaderProgram_8inl.html" target="_top" xlink:title=" ">
<polygon fill="white" stroke="black" points="1228.33,-179.5 1228.33,-198.5 1335.33,-198.5 1335.33,-179.5 1228.33,-179.5"/>
<text text-anchor="middle" x="1281.83" y="-186.5" font-family="Helvetica,sans-Serif" font-size="10.00">ShaderProgram.inl</text>
</a>
</g>
</g>
<!-- Node37&#45;&gt;Node42 -->
<g id="edge60" class="edge">
<title>Node37&#45;&gt;Node42</title>
<path fill="none" stroke="midnightblue" d="M1201.17,-235.32C1213.62,-226.74 1235.44,-213.49 1253.35,-203.52"/>
<polygon fill="midnightblue" stroke="midnightblue" points="1255.19,-206.51 1262.29,-198.65 1251.84,-200.36 1255.19,-206.51"/>
</g>
<!-- Node38&#45;&gt;Node12 -->
<g id="edge55" class="edge">
<title>Node38&#45;&gt;Node12</title>
<path fill="none" stroke="midnightblue" d="M1044.58,-179.44C1013.98,-169.84 964.37,-154.26 931.92,-144.07"/>
<polygon fill="midnightblue" stroke="midnightblue" points="932.62,-140.63 922.03,-140.97 930.53,-147.31 932.62,-140.63"/>
</g>
<!-- Node38&#45;&gt;Node14 -->
<g id="edge51" class="edge">
<title>Node38&#45;&gt;Node14</title>
<path fill="none" stroke="midnightblue" d="M1137.11,-179.44C1212.68,-169.54 1336.64,-153.29 1414.06,-143.14"/>
<polygon fill="midnightblue" stroke="midnightblue" points="1414.74,-146.59 1424.2,-141.82 1413.83,-139.64 1414.74,-146.59"/>
</g>
<!-- Node38&#45;&gt;Node19 -->
<g id="edge54" class="edge">
<title>Node38&#45;&gt;Node19</title>
<path fill="none" stroke="midnightblue" d="M1053.45,-179.44C1033.95,-170.37 1003,-155.96 981.19,-145.8"/>
<polygon fill="midnightblue" stroke="midnightblue" points="982.43,-142.52 971.88,-141.47 979.47,-148.87 982.43,-142.52"/>
</g>
<!-- Node38&#45;&gt;Node20 -->
<g id="edge56" class="edge">
<title>Node38&#45;&gt;Node20</title>
<path fill="none" stroke="midnightblue" d="M1062.51,-179.32C1053.94,-171.34 1041.02,-159.31 1030.64,-149.65"/>
<polygon fill="midnightblue" stroke="midnightblue" points="1033.02,-147.09 1023.32,-142.83 1028.25,-152.21 1033.02,-147.09"/>
</g>
<!-- Node38&#45;&gt;Node39 -->
<g id="edge52" class="edge">
<title>Node38&#45;&gt;Node39</title>
<path fill="none" stroke="midnightblue" d="M1080.91,-179.08C1089,-171.14 1101.02,-159.34 1110.74,-149.8"/>
<polygon fill="midnightblue" stroke="midnightblue" points="1113.23,-152.25 1117.92,-142.75 1108.33,-147.26 1113.23,-152.25"/>
</g>
<!-- Node40 -->
<g id="node40" class="node">
<title>Node40</title>
<g id="a_node40"><a xlink:title=" ">
<polygon fill="white" stroke="#bfbfbf" points="1055.83,-123.5 1055.83,-142.5 1087.83,-142.5 1087.83,-123.5 1055.83,-123.5"/>
<text text-anchor="middle" x="1071.83" y="-130.5" font-family="Helvetica,sans-Serif" font-size="10.00">list</text>
</a>
</g>
</g>
<!-- Node38&#45;&gt;Node40 -->
<g id="edge53" class="edge">
<title>Node38&#45;&gt;Node40</title>
<path fill="none" stroke="midnightblue" d="M1071.83,-179.08C1071.83,-172.01 1071.83,-161.86 1071.83,-152.99"/>
<polygon fill="midnightblue" stroke="midnightblue" points="1075.33,-152.75 1071.83,-142.75 1068.33,-152.75 1075.33,-152.75"/>
</g>
<!-- Node42&#45;&gt;Node4 -->
<g id="edge61" class="edge">
<title>Node42&#45;&gt;Node4</title>
<path fill="none" stroke="midnightblue" d="M1265.46,-179.43C1231.89,-161.88 1158.28,-123.41 1156.83,-123 1058.07,-94.94 759.2,-83.54 621.58,-79.68"/>
<polygon fill="midnightblue" stroke="midnightblue" points="621.65,-76.18 611.56,-79.41 621.46,-83.18 621.65,-76.18"/>
</g>
<!-- Node42&#45;&gt;Node37 -->
<g id="edge62" class="edge">
<title>Node42&#45;&gt;Node37</title>
<path fill="none" stroke="midnightblue" d="M1272.52,-198.65C1260.09,-207.23 1238.27,-220.48 1220.35,-230.45"/>
<polygon fill="midnightblue" stroke="midnightblue" points="1218.51,-227.47 1211.4,-235.32 1221.86,-233.62 1218.51,-227.47"/>
</g>
<!-- Node43 -->
<g id="node43" class="node">
<title>Node43</title>
<g id="a_node43"><a xlink:title=" ">
<polygon fill="white" stroke="#bfbfbf" points="1291.83,-123.5 1291.83,-142.5 1405.83,-142.5 1405.83,-123.5 1291.83,-123.5"/>
<text text-anchor="middle" x="1348.83" y="-130.5" font-family="Helvetica,sans-Serif" font-size="10.00">globjects/Program.h</text>
</a>
</g>
</g>
<!-- Node42&#45;&gt;Node43 -->
<g id="edge63" class="edge">
<title>Node42&#45;&gt;Node43</title>
<path fill="none" stroke="midnightblue" d="M1292.59,-179.32C1302.6,-171.26 1317.72,-159.08 1329.76,-149.37"/>
<polygon fill="midnightblue" stroke="midnightblue" points="1332.28,-151.83 1337.87,-142.83 1327.89,-146.38 1332.28,-151.83"/>
</g>
<!-- Node44 -->
<g id="node44" class="node">
<title>Node44</title>
<g id="a_node44"><a xlink:title=" ">
<polygon fill="white" stroke="#bfbfbf" points="1204.33,-123.5 1204.33,-142.5 1273.33,-142.5 1273.33,-123.5 1204.33,-123.5"/>
<text text-anchor="middle" x="1238.83" y="-130.5" font-family="Helvetica,sans-Serif" font-size="10.00">type_traits</text>
</a>
</g>
</g>
<!-- Node42&#45;&gt;Node44 -->
<g id="edge64" class="edge">
<title>Node42&#45;&gt;Node44</title>
<path fill="none" stroke="midnightblue" d="M1274.73,-179.08C1268.59,-171.38 1259.56,-160.03 1252.09,-150.65"/>
<polygon fill="midnightblue" stroke="midnightblue" points="1254.76,-148.39 1245.8,-142.75 1249.29,-152.75 1254.76,-148.39"/>
</g>
</g>
</svg>
