<?xml version="1.0" encoding="UTF-8" standalone="no"?>
<!DOCTYPE svg PUBLIC "-//W3C//DTD SVG 1.1//EN"
 "http://www.w3.org/Graphics/SVG/1.1/DTD/svg11.dtd">
<!-- Generated by graphviz version 2.43.0 (0)
 -->
<!-- Title: Ra::Core::VectorArrayTypeHelper&lt; V &gt; Pages: 1 -->
<svg width="259pt" height="371pt"
 viewBox="0.00 0.00 259.00 371.00" xmlns="http://www.w3.org/2000/svg" xmlns:xlink="http://www.w3.org/1999/xlink">

<svg id="main" version="1.1" xmlns="http://www.w3.org/2000/svg" xmlns:xlink="http://www.w3.org/1999/xlink" xml:space="preserve" onload="init(evt)">
<style type="text/css"><![CDATA[
.node, .edge {opacity: 0.7;}
.node.selected, .edge.selected {opacity: 1;}
.edge:hover path { stroke: red; }
.edge:hover polygon { stroke: red; fill: red; }
]]></style>
<script type="application/ecmascript" xlink:href="svg.min.js"/>
<svg id="graph" class="graph">
<g id="graph0" class="graph" transform="scale(1 1) rotate(0) translate(4 367)">
<title>Ra::Core::VectorArrayTypeHelper&lt; V &gt;</title>
<!-- Node1 -->
<g id="Node000001" class="node">
<title>Node1</title>
<g id="a_Node000001"><a xlink:title=" ">
<polygon fill="#999999" stroke="transparent" points="161.5,-60 24.5,-60 24.5,0 161.5,0 161.5,-60"/>
<text text-anchor="start" x="30" y="-48" font-family="Helvetica,sans-Serif" font-size="10.00">Ra::Core::VectorArrayType</text>
<text text-anchor="start" x="62.5" y="-37" font-family="Helvetica,sans-Serif" font-size="10.00">Helper&lt; V &gt;</text>
<text text-anchor="start" x="91.5" y="-22" font-family="Helvetica,sans-Serif" font-size="10.00"> </text>
<text text-anchor="start" x="91.5" y="-7" font-family="Helvetica,sans-Serif" font-size="10.00"> </text>
<polygon fill="#666666" stroke="#666666" points="25,-32 25,-32 162,-32 162,-32 25,-32"/>
<polygon fill="#666666" stroke="#666666" points="25,-17 25,-17 162,-17 162,-17 25,-17"/>
<polygon fill="none" stroke="#666666" points="24.5,0 24.5,-60 161.5,-60 161.5,0 24.5,0"/>
</a>
</g>
</g>
<!-- Node2 -->
<g id="Node000002" class="node">
<title>Node2</title>
<g id="a_Node000002"><a xlink:href="structRa_1_1Core_1_1VectorArrayTypeHelperInternal.html" target="_top" xlink:title=" ">
<polygon fill="white" stroke="transparent" points="186,-201 0,-201 0,-97 186,-97 186,-201"/>
<text text-anchor="start" x="5" y="-189" font-family="Helvetica,sans-Serif" font-size="10.00">Ra::Core::VectorArrayType</text>
<text text-anchor="start" x="5" y="-178" font-family="Helvetica,sans-Serif" font-size="10.00">HelperInternal&lt; V, std</text>
<text text-anchor="start" x="5" y="-167" font-family="Helvetica,sans-Serif" font-size="10.00">::is_arithmetic&lt; V &gt;::value|</text>
<text text-anchor="start" x="5" y="-156" font-family="Helvetica,sans-Serif" font-size="10.00">|std::is_enum&lt; V &gt;::value,</text>
<text text-anchor="start" x="5" y="-145" font-family="Helvetica,sans-Serif" font-size="10.00"> std::is_base_of&lt; Eigen::MatrixBase</text>
<text text-anchor="start" x="44" y="-134" font-family="Helvetica,sans-Serif" font-size="10.00">&lt; V &gt;, V &gt;::value &gt;</text>
<text text-anchor="start" x="91" y="-119" font-family="Helvetica,sans-Serif" font-size="10.00"> </text>
<text text-anchor="start" x="91" y="-104" font-family="Helvetica,sans-Serif" font-size="10.00"> </text>
<polygon fill="#666666" stroke="#666666" points="0,-129 0,-129 186,-129 186,-129 0,-129"/>
<polygon fill="#666666" stroke="#666666" points="0,-114 0,-114 186,-114 186,-114 0,-114"/>
<polygon fill="none" stroke="#666666" points="0,-97 0,-201 186,-201 186,-97 0,-97"/>
</a>
</g>
</g>
<!-- Node2&#45;&gt;Node1 -->
<g id="edge1_Node000001_Node000002" class="edge">
<title>Node2&#45;&gt;Node1</title>
<g id="a_edge1_Node000001_Node000002"><a xlink:title=" ">
<path fill="none" stroke="#63b8ff" d="M93,-86.65C93,-77.4 93,-68.24 93,-60.11"/>
<polygon fill="none" stroke="#63b8ff" points="89.5,-86.68 93,-96.68 96.5,-86.68 89.5,-86.68"/>
</a>
</g>
</g>
<!-- Node3 -->
<g id="Node000003" class="node">
<title>Node3</title>
<g id="a_Node000003"><a xlink:href="structRa_1_1Core_1_1VectorArrayTypeHelperInternal.html" target="_top" xlink:title=" ">
<polygon fill="white" stroke="transparent" points="176.5,-363 9.5,-363 9.5,-292 176.5,-292 176.5,-363"/>
<text text-anchor="start" x="15" y="-350.5" font-family="Helvetica,sans-Serif" font-size="10.00">Ra::Core::VectorArrayType</text>
<text text-anchor="start" x="15" y="-339.5" font-family="Helvetica,sans-Serif" font-size="10.00">HelperInternal&lt; V, isArithmetic,</text>
<text text-anchor="start" x="68.5" y="-328.5" font-family="Helvetica,sans-Serif" font-size="10.00"> isEigen &gt;</text>
<text text-anchor="start" x="91.5" y="-313.5" font-family="Helvetica,sans-Serif" font-size="10.00"> </text>
<text text-anchor="start" x="91.5" y="-298.5" font-family="Helvetica,sans-Serif" font-size="10.00"> </text>
<polygon fill="#666666" stroke="#666666" points="10,-323.5 10,-323.5 177,-323.5 177,-323.5 10,-323.5"/>
<polygon fill="#666666" stroke="#666666" points="10,-308.5 10,-308.5 177,-308.5 177,-308.5 10,-308.5"/>
<polygon fill="none" stroke="#666666" points="9.5,-292 9.5,-363 176.5,-363 176.5,-292 9.5,-292"/>
</a>
</g>
</g>
<!-- Node3&#45;&gt;Node2 -->
<g id="edge2_Node000002_Node000003" class="edge">
<title>Node3&#45;&gt;Node2</title>
<g id="a_edge2_Node000002_Node000003"><a xlink:title=" ">
<path fill="none" stroke="orange" d="M93,-281.52C93,-257.02 93,-226.6 93,-201.19"/>
<polygon fill="orange" stroke="orange" points="89.5,-281.63 93,-291.63 96.5,-281.63 89.5,-281.63"/>
</a>
</g>
<text text-anchor="start" x="93" y="-266" font-family="Helvetica,sans-Serif" font-size="10.00" fill="grey"> &lt; V, std::is_arithmetic</text>
<text text-anchor="start" x="93" y="-255" font-family="Helvetica,sans-Serif" font-size="10.00" fill="grey">&lt; V &gt;::value||std::is</text>
<text text-anchor="start" x="93" y="-244" font-family="Helvetica,sans-Serif" font-size="10.00" fill="grey">_enum&lt; V &gt;::value, std</text>
<text text-anchor="start" x="93" y="-233" font-family="Helvetica,sans-Serif" font-size="10.00" fill="grey">::is_base_of&lt; Eigen::MatrixBase</text>
<text text-anchor="middle" x="172" y="-222" font-family="Helvetica,sans-Serif" font-size="10.00" fill="grey">&lt; V &gt;, V &gt;::value &gt;</text>
</g>
</g>
</svg>
</svg>

<style type='text/css'>
<![CDATA[
[data-mouse-over-selected='false'] { opacity: 0.7; }
[data-mouse-over-selected='true']  { opacity: 1.0; }
]]>
</style>
<script type="application/ecmascript"><![CDATA[
document.addEventListener('DOMContentLoaded', (event) => {
  highlightEdges();
  highlightAdjacentNodes();
});
]]></script>
</svg>
