<?xml version="1.0" encoding="UTF-8" standalone="no"?>
<!DOCTYPE svg PUBLIC "-//W3C//DTD SVG 1.1//EN"
 "http://www.w3.org/Graphics/SVG/1.1/DTD/svg11.dtd">
<!-- Generated by graphviz version 2.43.0 (0)
 -->
<!-- Title: CLI::detail::is_readable_container&lt; T, conditional_t&lt; false, void_t&lt; decltype(std::declval&lt; T &gt;().end()), decltype(std::declval&lt; T &gt;().begin())&gt;, void &gt; &gt; Pages: 1 -->
<svg width="166pt" height="215pt"
 viewBox="0.00 0.00 166.00 215.00" xmlns="http://www.w3.org/2000/svg" xmlns:xlink="http://www.w3.org/1999/xlink">
<g id="graph0" class="graph" transform="scale(1 1) rotate(0) translate(4 211)">
<title>CLI::detail::is_readable_container&lt; T, conditional_t&lt; false, void_t&lt; decltype(std::declval&lt; T &gt;().end()), decltype(std::declval&lt; T &gt;().begin())&gt;, void &gt; &gt;</title>
<polygon fill="white" stroke="transparent" points="-4,4 -4,-211 162,-211 162,4 -4,4"/>
<!-- Node1 -->
<g id="node1" class="node">
<title>Node1</title>
<g id="a_node1"><a xlink:title=" ">
<polygon fill="#bfbfbf" stroke="black" points="0,-0.5 0,-112.5 158,-112.5 158,-0.5 0,-0.5"/>
<text text-anchor="start" x="8" y="-100.5" font-family="Helvetica,sans-Serif" font-size="10.00">CLI::detail::is_readable</text>
<text text-anchor="start" x="8" y="-89.5" font-family="Helvetica,sans-Serif" font-size="10.00">_container&lt; T, conditional</text>
<text text-anchor="start" x="8" y="-78.5" font-family="Helvetica,sans-Serif" font-size="10.00">_t&lt; false, void_t&lt; decltype</text>
<text text-anchor="start" x="8" y="-67.5" font-family="Helvetica,sans-Serif" font-size="10.00">(std::declval&lt; T &gt;().end()),</text>
<text text-anchor="start" x="8" y="-56.5" font-family="Helvetica,sans-Serif" font-size="10.00"> decltype(std::declval&lt; T &gt;()</text>
<text text-anchor="middle" x="79" y="-45.5" font-family="Helvetica,sans-Serif" font-size="10.00">.begin())&gt;, void &gt; &gt;</text>
<polyline fill="none" stroke="black" points="0,-38.5 158,-38.5 "/>
<text text-anchor="middle" x="79" y="-26.5" font-family="Helvetica,sans-Serif" font-size="10.00"> </text>
<polyline fill="none" stroke="black" points="0,-19.5 158,-19.5 "/>
<text text-anchor="middle" x="79" y="-7.5" font-family="Helvetica,sans-Serif" font-size="10.00"> </text>
</a>
</g>
</g>
<!-- Node2 -->
<g id="node2" class="node">
<title>Node2</title>
<g id="a_node2"><a xlink:title=" ">
<polygon fill="white" stroke="#bfbfbf" points="37,-149.5 37,-206.5 121,-206.5 121,-149.5 37,-149.5"/>
<text text-anchor="middle" x="79" y="-194.5" font-family="Helvetica,sans-Serif" font-size="10.00">std::true_type</text>
<polyline fill="none" stroke="#bfbfbf" points="37,-187.5 121,-187.5 "/>
<text text-anchor="middle" x="79" y="-175.5" font-family="Helvetica,sans-Serif" font-size="10.00"> </text>
<polyline fill="none" stroke="#bfbfbf" points="37,-168.5 121,-168.5 "/>
<text text-anchor="middle" x="79" y="-156.5" font-family="Helvetica,sans-Serif" font-size="10.00"> </text>
</a>
</g>
</g>
<!-- Node2&#45;&gt;Node1 -->
<g id="edge1" class="edge">
<title>Node2&#45;&gt;Node1</title>
<path fill="none" stroke="midnightblue" d="M79,-139.11C79,-130.75 79,-121.73 79,-112.83"/>
<polygon fill="none" stroke="midnightblue" points="75.5,-139.28 79,-149.28 82.5,-139.28 75.5,-139.28"/>
</g>
</g>
</svg>
