<?xml version="1.0" encoding="UTF-8" standalone="no"?>
<!DOCTYPE svg PUBLIC "-//W3C//DTD SVG 1.1//EN"
 "http://www.w3.org/Graphics/SVG/1.1/DTD/svg11.dtd">
<!-- Generated by graphviz version 2.43.0 (0)
 -->
<!-- Title: Ra::Core::Geometry::GeometryIndexLayer::append Pages: 1 -->
<svg width="271pt" height="101pt"
 viewBox="0.00 0.00 271.00 101.00" xmlns="http://www.w3.org/2000/svg" xmlns:xlink="http://www.w3.org/1999/xlink">
<g id="graph0" class="graph" transform="scale(1 1) rotate(0) translate(4 97)">
<title>Ra::Core::Geometry::GeometryIndexLayer::append</title>
<!-- Node1 -->
<g id="Node000001" class="node">
<title>Node1</title>
<g id="a_Node000001"><a xlink:title="Append content from another layer.">
<polygon fill="#999999" stroke="#666666" points="125,-67 0,-67 0,-26 125,-26 125,-67"/>
<text text-anchor="start" x="8" y="-55" font-family="Helvetica,sans-Serif" font-size="10.00">Ra::Core::Geometry</text>
<text text-anchor="start" x="8" y="-44" font-family="Helvetica,sans-Serif" font-size="10.00">::GeometryIndexLayer</text>
<text text-anchor="middle" x="62.5" y="-33" font-family="Helvetica,sans-Serif" font-size="10.00">::append</text>
</a>
</g>
</g>
<!-- Node2 -->
<g id="Node000002" class="node">
<title>Node2</title>
<g id="a_Node000002"><a target="_blank" xlink:href="http://en.cppreference.com/w/cpp/container/vector/begin.html#" xlink:title=" ">
<polygon fill="white" stroke="#666666" points="262.5,-93 161.5,-93 161.5,-74 262.5,-74 262.5,-93"/>
<text text-anchor="middle" x="212" y="-81" font-family="Helvetica,sans-Serif" font-size="10.00">std::vector::begin</text>
</a>
</g>
</g>
<!-- Node1&#45;&gt;Node2 -->
<g id="edge1_Node000001_Node000002" class="edge">
<title>Node1&#45;&gt;Node2</title>
<g id="a_edge1_Node000001_Node000002"><a xlink:title=" ">
<path fill="none" stroke="#63b8ff" d="M125.2,-61.98C137.9,-65.16 151.1,-68.47 163.22,-71.51"/>
<polygon fill="#63b8ff" stroke="#63b8ff" points="162.57,-74.96 173.12,-74 164.27,-68.17 162.57,-74.96"/>
</a>
</g>
</g>
<!-- Node3 -->
<g id="Node000003" class="node">
<title>Node3</title>
<g id="a_Node000003"><a target="_blank" xlink:href="http://en.cppreference.com/w/cpp/container/vector/end.html#" xlink:title=" ">
<polygon fill="white" stroke="#666666" points="258,-56 166,-56 166,-37 258,-37 258,-56"/>
<text text-anchor="middle" x="212" y="-44" font-family="Helvetica,sans-Serif" font-size="10.00">std::vector::end</text>
</a>
</g>
</g>
<!-- Node1&#45;&gt;Node3 -->
<g id="edge2_Node000001_Node000003" class="edge">
<title>Node1&#45;&gt;Node3</title>
<g id="a_edge2_Node000001_Node000003"><a xlink:title=" ">
<path fill="none" stroke="#63b8ff" d="M125.2,-46.5C135.28,-46.5 145.66,-46.5 155.58,-46.5"/>
<polygon fill="#63b8ff" stroke="#63b8ff" points="155.71,-50 165.71,-46.5 155.71,-43 155.71,-50"/>
</a>
</g>
</g>
<!-- Node4 -->
<g id="Node000004" class="node">
<title>Node4</title>
<g id="a_Node000004"><a target="_blank" xlink:href="http://en.cppreference.com/w/cpp/container/vector/insert.html#" xlink:title=" ">
<polygon fill="white" stroke="#666666" points="263,-19 161,-19 161,0 263,0 263,-19"/>
<text text-anchor="middle" x="212" y="-7" font-family="Helvetica,sans-Serif" font-size="10.00">std::vector::insert</text>
</a>
</g>
</g>
<!-- Node1&#45;&gt;Node4 -->
<g id="edge3_Node000001_Node000004" class="edge">
<title>Node1&#45;&gt;Node4</title>
<g id="a_edge3_Node000001_Node000004"><a xlink:title=" ">
<path fill="none" stroke="#63b8ff" d="M125.2,-31.02C137.9,-27.84 151.1,-24.53 163.22,-21.49"/>
<polygon fill="#63b8ff" stroke="#63b8ff" points="164.27,-24.83 173.12,-19 162.57,-18.04 164.27,-24.83"/>
</a>
</g>
</g>
</g>
</svg>
