<?xml version="1.0" encoding="UTF-8" standalone="no"?>
<!DOCTYPE svg PUBLIC "-//W3C//DTD SVG 1.1//EN"
 "http://www.w3.org/Graphics/SVG/1.1/DTD/svg11.dtd">
<!-- Generated by graphviz version 2.43.0 (0)
 -->
<!-- Title: /home/runner/work/Radium&#45;Engine/Radium&#45;Engine/src/Radium&#45;Engine/src/Gui/Timeline/Timeline.hpp Pages: 1 -->
<svg width="1591pt" height="430pt"
 viewBox="0.00 0.00 1590.50 430.00" xmlns="http://www.w3.org/2000/svg" xmlns:xlink="http://www.w3.org/1999/xlink">
<g id="graph0" class="graph" transform="scale(1 1) rotate(0) translate(4 426)">
<title>/home/runner/work/Radium&#45;Engine/Radium&#45;Engine/src/Radium&#45;Engine/src/Gui/Timeline/Timeline.hpp</title>
<polygon fill="white" stroke="transparent" points="-4,4 -4,-426 1586.5,-426 1586.5,4 -4,4"/>
<!-- Node1 -->
<g id="node1" class="node">
<title>Node1</title>
<g id="a_node1"><a xlink:title=" ">
<polygon fill="#bfbfbf" stroke="black" points="933.5,-369.5 933.5,-421.5 1109.5,-421.5 1109.5,-369.5 933.5,-369.5"/>
<text text-anchor="start" x="941.5" y="-409.5" font-family="Helvetica,sans-Serif" font-size="10.00">/home/runner/work/Radium</text>
<text text-anchor="start" x="941.5" y="-398.5" font-family="Helvetica,sans-Serif" font-size="10.00">&#45;Engine/Radium&#45;Engine/src</text>
<text text-anchor="start" x="941.5" y="-387.5" font-family="Helvetica,sans-Serif" font-size="10.00">/Radium&#45;Engine/src/Gui/Timeline</text>
<text text-anchor="middle" x="1021.5" y="-376.5" font-family="Helvetica,sans-Serif" font-size="10.00">/Timeline.hpp</text>
</a>
</g>
</g>
<!-- Node2 -->
<g id="node2" class="node">
<title>Node2</title>
<g id="a_node2"><a xlink:href="RaGui_8hpp.html" target="_top" xlink:title=" ">
<polygon fill="white" stroke="black" points="966.5,-241 966.5,-260 1052.5,-260 1052.5,-241 966.5,-241"/>
<text text-anchor="middle" x="1009.5" y="-248" font-family="Helvetica,sans-Serif" font-size="10.00">Gui/RaGui.hpp</text>
</a>
</g>
</g>
<!-- Node1&#45;&gt;Node2 -->
<g id="edge1" class="edge">
<title>Node1&#45;&gt;Node2</title>
<path fill="none" stroke="midnightblue" d="M1019.38,-369.26C1017,-340.89 1013.19,-295.5 1011.07,-270.15"/>
<polygon fill="midnightblue" stroke="midnightblue" points="1014.54,-269.73 1010.22,-260.05 1007.57,-270.31 1014.54,-269.73"/>
</g>
<!-- Node14 -->
<g id="node14" class="node">
<title>Node14</title>
<g id="a_node14"><a xlink:href="KeyFramedValue_8hpp.html" target="_top" xlink:title=" ">
<polygon fill="white" stroke="black" points="679.5,-235.5 679.5,-265.5 829.5,-265.5 829.5,-235.5 679.5,-235.5"/>
<text text-anchor="start" x="687.5" y="-253.5" font-family="Helvetica,sans-Serif" font-size="10.00">Core/Animation/KeyFramed</text>
<text text-anchor="middle" x="754.5" y="-242.5" font-family="Helvetica,sans-Serif" font-size="10.00">Value.hpp</text>
</a>
</g>
</g>
<!-- Node1&#45;&gt;Node14 -->
<g id="edge14" class="edge">
<title>Node1&#45;&gt;Node14</title>
<path fill="none" stroke="midnightblue" d="M933.35,-390.19C885.23,-383.59 827.47,-368.17 787.5,-333 770.73,-318.25 762.35,-293.74 758.25,-275.45"/>
<polygon fill="midnightblue" stroke="midnightblue" points="761.66,-274.65 756.3,-265.51 754.79,-276 761.66,-274.65"/>
</g>
<!-- Node31 -->
<g id="node31" class="node">
<title>Node31</title>
<g id="a_node31"><a xlink:href="KeyFramedValueController_8hpp.html" target="_top" xlink:title=" ">
<polygon fill="white" stroke="black" points="796.5,-302.5 796.5,-332.5 946.5,-332.5 946.5,-302.5 796.5,-302.5"/>
<text text-anchor="start" x="804.5" y="-320.5" font-family="Helvetica,sans-Serif" font-size="10.00">Core/Animation/KeyFramed</text>
<text text-anchor="middle" x="871.5" y="-309.5" font-family="Helvetica,sans-Serif" font-size="10.00">ValueController.hpp</text>
</a>
</g>
</g>
<!-- Node1&#45;&gt;Node31 -->
<g id="edge35" class="edge">
<title>Node1&#45;&gt;Node31</title>
<path fill="none" stroke="midnightblue" d="M971.97,-369.4C951.29,-358.93 927.68,-346.96 908.54,-337.27"/>
<polygon fill="midnightblue" stroke="midnightblue" points="910.04,-334.1 899.54,-332.71 906.88,-340.35 910.04,-334.1"/>
</g>
<!-- Node32 -->
<g id="node32" class="node">
<title>Node32</title>
<g id="a_node32"><a xlink:href="ItemEntry_8hpp.html" target="_top" xlink:title=" ">
<polygon fill="white" stroke="black" points="1237.5,-241 1237.5,-260 1389.5,-260 1389.5,-241 1237.5,-241"/>
<text text-anchor="middle" x="1313.5" y="-248" font-family="Helvetica,sans-Serif" font-size="10.00">Engine/Scene/ItemEntry.hpp</text>
</a>
</g>
</g>
<!-- Node1&#45;&gt;Node32 -->
<g id="edge39" class="edge">
<title>Node1&#45;&gt;Node32</title>
<path fill="none" stroke="midnightblue" d="M1025.13,-369.41C1029.55,-348.24 1039.12,-318.77 1059.5,-302 1084.87,-281.12 1164.09,-267.62 1227.38,-259.88"/>
<polygon fill="midnightblue" stroke="midnightblue" points="1227.88,-263.34 1237.39,-258.68 1227.05,-256.39 1227.88,-263.34"/>
</g>
<!-- Node39 -->
<g id="node39" class="node">
<title>Node39</title>
<g id="a_node39"><a xlink:title=" ">
<polygon fill="white" stroke="#bfbfbf" points="1068.5,-308 1068.5,-327 1124.5,-327 1124.5,-308 1068.5,-308"/>
<text text-anchor="middle" x="1096.5" y="-315" font-family="Helvetica,sans-Serif" font-size="10.00">QDialog</text>
</a>
</g>
</g>
<!-- Node1&#45;&gt;Node39 -->
<g id="edge50" class="edge">
<title>Node1&#45;&gt;Node39</title>
<path fill="none" stroke="midnightblue" d="M1046.47,-369.19C1057.77,-357.74 1070.78,-344.56 1080.7,-334.51"/>
<polygon fill="midnightblue" stroke="midnightblue" points="1083.37,-336.79 1087.91,-327.21 1078.39,-331.87 1083.37,-336.79"/>
</g>
<!-- Node40 -->
<g id="node40" class="node">
<title>Node40</title>
<g id="a_node40"><a xlink:title=" ">
<polygon fill="white" stroke="#bfbfbf" points="1142.5,-308 1142.5,-327 1198.5,-327 1198.5,-308 1142.5,-308"/>
<text text-anchor="middle" x="1170.5" y="-315" font-family="Helvetica,sans-Serif" font-size="10.00">QObject</text>
</a>
</g>
</g>
<!-- Node1&#45;&gt;Node40 -->
<g id="edge51" class="edge">
<title>Node1&#45;&gt;Node40</title>
<path fill="none" stroke="midnightblue" d="M1070.7,-369.4C1095.44,-356.79 1124.39,-342.02 1144.72,-331.65"/>
<polygon fill="midnightblue" stroke="midnightblue" points="1146.36,-334.74 1153.68,-327.08 1143.18,-328.5 1146.36,-334.74"/>
</g>
<!-- Node3 -->
<g id="node3" class="node">
<title>Node3</title>
<g id="a_node3"><a xlink:href="CoreMacros_8hpp.html" target="_top" xlink:title=" ">
<polygon fill="white" stroke="black" points="908,-62 908,-81 1029,-81 1029,-62 908,-62"/>
<text text-anchor="middle" x="968.5" y="-69" font-family="Helvetica,sans-Serif" font-size="10.00">Core/CoreMacros.hpp</text>
</a>
</g>
</g>
<!-- Node2&#45;&gt;Node3 -->
<g id="edge2" class="edge">
<title>Node2&#45;&gt;Node3</title>
<path fill="none" stroke="midnightblue" d="M1008.98,-240.74C1007.56,-219.95 1002.9,-166.11 990.5,-123 987.28,-111.8 982.14,-99.81 977.63,-90.33"/>
<polygon fill="midnightblue" stroke="midnightblue" points="980.68,-88.6 973.12,-81.18 974.4,-91.7 980.68,-88.6"/>
</g>
<!-- Node9 -->
<g id="node9" class="node">
<title>Node9</title>
<g id="a_node9"><a xlink:href="RaEngine_8hpp.html" target="_top" xlink:title=" ">
<polygon fill="white" stroke="black" points="1038,-179.5 1038,-198.5 1157,-198.5 1157,-179.5 1038,-179.5"/>
<text text-anchor="middle" x="1097.5" y="-186.5" font-family="Helvetica,sans-Serif" font-size="10.00">Engine/RaEngine.hpp</text>
</a>
</g>
</g>
<!-- Node2&#45;&gt;Node9 -->
<g id="edge8" class="edge">
<title>Node2&#45;&gt;Node9</title>
<path fill="none" stroke="midnightblue" d="M1022.11,-240.98C1036.22,-231.43 1059.33,-215.81 1076.25,-204.37"/>
<polygon fill="midnightblue" stroke="midnightblue" points="1078.59,-207.01 1084.92,-198.51 1074.67,-201.21 1078.59,-207.01"/>
</g>
<!-- Node4 -->
<g id="node4" class="node">
<title>Node4</title>
<g id="a_node4"><a xlink:title=" ">
<polygon fill="white" stroke="#bfbfbf" points="804.5,-0.5 804.5,-19.5 856.5,-19.5 856.5,-0.5 804.5,-0.5"/>
<text text-anchor="middle" x="830.5" y="-7.5" font-family="Helvetica,sans-Serif" font-size="10.00">cassert</text>
</a>
</g>
</g>
<!-- Node3&#45;&gt;Node4 -->
<g id="edge3" class="edge">
<title>Node3&#45;&gt;Node4</title>
<path fill="none" stroke="midnightblue" d="M948.73,-61.98C925.36,-51.9 886.29,-35.05 859.5,-23.5"/>
<polygon fill="midnightblue" stroke="midnightblue" points="860.8,-20.25 850.24,-19.51 858.03,-26.68 860.8,-20.25"/>
</g>
<!-- Node5 -->
<g id="node5" class="node">
<title>Node5</title>
<g id="a_node5"><a xlink:title=" ">
<polygon fill="white" stroke="#bfbfbf" points="874.5,-0.5 874.5,-19.5 920.5,-19.5 920.5,-0.5 874.5,-0.5"/>
<text text-anchor="middle" x="897.5" y="-7.5" font-family="Helvetica,sans-Serif" font-size="10.00">cstdio</text>
</a>
</g>
</g>
<!-- Node3&#45;&gt;Node5 -->
<g id="edge4" class="edge">
<title>Node3&#45;&gt;Node5</title>
<path fill="none" stroke="midnightblue" d="M958.33,-61.98C947.15,-52.61 928.98,-37.38 915.41,-26.01"/>
<polygon fill="midnightblue" stroke="midnightblue" points="917.57,-23.25 907.65,-19.51 913.07,-28.61 917.57,-23.25"/>
</g>
<!-- Node6 -->
<g id="node6" class="node">
<title>Node6</title>
<g id="a_node6"><a xlink:title=" ">
<polygon fill="white" stroke="#bfbfbf" points="938.5,-0.5 938.5,-19.5 998.5,-19.5 998.5,-0.5 938.5,-0.5"/>
<text text-anchor="middle" x="968.5" y="-7.5" font-family="Helvetica,sans-Serif" font-size="10.00">iostream</text>
</a>
</g>
</g>
<!-- Node3&#45;&gt;Node6 -->
<g id="edge5" class="edge">
<title>Node3&#45;&gt;Node6</title>
<path fill="none" stroke="midnightblue" d="M968.5,-61.98C968.5,-53.58 968.5,-40.48 968.5,-29.66"/>
<polygon fill="midnightblue" stroke="midnightblue" points="972,-29.51 968.5,-19.51 965,-29.51 972,-29.51"/>
</g>
<!-- Node7 -->
<g id="node7" class="node">
<title>Node7</title>
<g id="a_node7"><a xlink:title=" ">
<polygon fill="white" stroke="#bfbfbf" points="1016.5,-0.5 1016.5,-19.5 1072.5,-19.5 1072.5,-0.5 1016.5,-0.5"/>
<text text-anchor="middle" x="1044.5" y="-7.5" font-family="Helvetica,sans-Serif" font-size="10.00">sstream</text>
</a>
</g>
</g>
<!-- Node3&#45;&gt;Node7 -->
<g id="edge6" class="edge">
<title>Node3&#45;&gt;Node7</title>
<path fill="none" stroke="midnightblue" d="M979.39,-61.98C991.47,-52.52 1011.17,-37.1 1025.74,-25.69"/>
<polygon fill="midnightblue" stroke="midnightblue" points="1027.91,-28.43 1033.63,-19.51 1023.6,-22.92 1027.91,-28.43"/>
</g>
<!-- Node8 -->
<g id="node8" class="node">
<title>Node8</title>
<g id="a_node8"><a xlink:title=" ">
<polygon fill="white" stroke="#bfbfbf" points="1090.5,-0.5 1090.5,-19.5 1138.5,-19.5 1138.5,-0.5 1090.5,-0.5"/>
<text text-anchor="middle" x="1114.5" y="-7.5" font-family="Helvetica,sans-Serif" font-size="10.00">thread</text>
</a>
</g>
</g>
<!-- Node3&#45;&gt;Node8 -->
<g id="edge7" class="edge">
<title>Node3&#45;&gt;Node8</title>
<path fill="none" stroke="midnightblue" d="M989.42,-61.98C1014.25,-51.86 1055.84,-34.9 1084.19,-23.35"/>
<polygon fill="midnightblue" stroke="midnightblue" points="1085.68,-26.52 1093.62,-19.51 1083.04,-20.04 1085.68,-26.52"/>
</g>
<!-- Node9&#45;&gt;Node3 -->
<g id="edge9" class="edge">
<title>Node9&#45;&gt;Node3</title>
<path fill="none" stroke="midnightblue" d="M1087.8,-179.32C1066.14,-159.92 1013.55,-112.83 985.99,-88.16"/>
<polygon fill="midnightblue" stroke="midnightblue" points="988.09,-85.34 978.31,-81.28 983.42,-90.56 988.09,-85.34"/>
</g>
<!-- Node10 -->
<g id="node10" class="node">
<title>Node10</title>
<g id="a_node10"><a xlink:href="OpenGL_8hpp.html" target="_top" xlink:title=" ">
<polygon fill="white" stroke="black" points="1145.5,-123.5 1145.5,-142.5 1257.5,-142.5 1257.5,-123.5 1145.5,-123.5"/>
<text text-anchor="middle" x="1201.5" y="-130.5" font-family="Helvetica,sans-Serif" font-size="10.00">Engine/OpenGL.hpp</text>
</a>
</g>
</g>
<!-- Node9&#45;&gt;Node10 -->
<g id="edge10" class="edge">
<title>Node9&#45;&gt;Node10</title>
<path fill="none" stroke="midnightblue" d="M1114.21,-179.32C1130.81,-170.7 1156.5,-157.36 1175.72,-147.39"/>
<polygon fill="midnightblue" stroke="midnightblue" points="1177.57,-150.37 1184.83,-142.65 1174.34,-144.16 1177.57,-150.37"/>
</g>
<!-- Node11 -->
<g id="node11" class="node">
<title>Node11</title>
<g id="a_node11"><a xlink:title=" ">
<polygon fill="white" stroke="#bfbfbf" points="1178.5,-62 1178.5,-81 1306.5,-81 1306.5,-62 1178.5,-62"/>
<text text-anchor="middle" x="1242.5" y="-69" font-family="Helvetica,sans-Serif" font-size="10.00">glbinding/gl45core/gl.h</text>
</a>
</g>
</g>
<!-- Node10&#45;&gt;Node11 -->
<g id="edge11" class="edge">
<title>Node10&#45;&gt;Node11</title>
<path fill="none" stroke="midnightblue" d="M1207.37,-123.48C1213.46,-114.64 1223.14,-100.59 1230.8,-89.48"/>
<polygon fill="midnightblue" stroke="midnightblue" points="1233.84,-91.23 1236.64,-81.01 1228.08,-87.26 1233.84,-91.23"/>
</g>
<!-- Node12 -->
<g id="node12" class="node">
<title>Node12</title>
<g id="a_node12"><a xlink:title=" ">
<polygon fill="white" stroke="#bfbfbf" points="1324.5,-62 1324.5,-81 1446.5,-81 1446.5,-62 1324.5,-62"/>
<text text-anchor="middle" x="1385.5" y="-69" font-family="Helvetica,sans-Serif" font-size="10.00">glbinding/gl45ext/gl.h</text>
</a>
</g>
</g>
<!-- Node10&#45;&gt;Node12 -->
<g id="edge12" class="edge">
<title>Node10&#45;&gt;Node12</title>
<path fill="none" stroke="midnightblue" d="M1227.86,-123.48C1259.84,-113.14 1313.88,-95.66 1349.62,-84.1"/>
<polygon fill="midnightblue" stroke="midnightblue" points="1350.75,-87.42 1359.19,-81.01 1348.59,-80.76 1350.75,-87.42"/>
</g>
<!-- Node13 -->
<g id="node13" class="node">
<title>Node13</title>
<g id="a_node13"><a xlink:title=" ">
<polygon fill="white" stroke="#bfbfbf" points="1047,-56.5 1047,-86.5 1160,-86.5 1160,-56.5 1047,-56.5"/>
<text text-anchor="start" x="1055" y="-74.5" font-family="Helvetica,sans-Serif" font-size="10.00">glbinding&#45;aux/types</text>
<text text-anchor="middle" x="1103.5" y="-63.5" font-family="Helvetica,sans-Serif" font-size="10.00">_to_string.h</text>
</a>
</g>
</g>
<!-- Node10&#45;&gt;Node13 -->
<g id="edge13" class="edge">
<title>Node10&#45;&gt;Node13</title>
<path fill="none" stroke="midnightblue" d="M1187.46,-123.48C1173.94,-115.27 1153.01,-102.56 1135.43,-91.88"/>
<polygon fill="midnightblue" stroke="midnightblue" points="1136.96,-88.72 1126.6,-86.52 1133.33,-94.7 1136.96,-88.72"/>
</g>
<!-- Node15 -->
<g id="node15" class="node">
<title>Node15</title>
<g id="a_node15"><a xlink:title=" ">
<polygon fill="white" stroke="#bfbfbf" points="820.5,-179.5 820.5,-198.5 858.5,-198.5 858.5,-179.5 820.5,-179.5"/>
<text text-anchor="middle" x="839.5" y="-186.5" font-family="Helvetica,sans-Serif" font-size="10.00">map</text>
</a>
</g>
</g>
<!-- Node14&#45;&gt;Node15 -->
<g id="edge15" class="edge">
<title>Node14&#45;&gt;Node15</title>
<path fill="none" stroke="midnightblue" d="M774.64,-235.4C787.89,-226.13 805.18,-214.03 818.58,-204.65"/>
<polygon fill="midnightblue" stroke="midnightblue" points="820.95,-207.26 827.13,-198.66 816.93,-201.53 820.95,-207.26"/>
</g>
<!-- Node16 -->
<g id="node16" class="node">
<title>Node16</title>
<g id="a_node16"><a xlink:title=" ">
<polygon fill="white" stroke="#bfbfbf" points="878.5,-179.5 878.5,-198.5 910.5,-198.5 910.5,-179.5 878.5,-179.5"/>
<text text-anchor="middle" x="894.5" y="-186.5" font-family="Helvetica,sans-Serif" font-size="10.00">set</text>
</a>
</g>
</g>
<!-- Node14&#45;&gt;Node16 -->
<g id="edge16" class="edge">
<title>Node14&#45;&gt;Node16</title>
<path fill="none" stroke="midnightblue" d="M787.68,-235.4C812.61,-224.8 846.26,-210.5 869.08,-200.8"/>
<polygon fill="midnightblue" stroke="midnightblue" points="870.6,-203.96 878.44,-196.83 867.87,-197.52 870.6,-203.96"/>
</g>
<!-- Node17 -->
<g id="node17" class="node">
<title>Node17</title>
<g id="a_node17"><a xlink:href="AlignedAllocator_8hpp.html" target="_top" xlink:title=" ">
<polygon fill="white" stroke="black" points="130.5,-179.5 130.5,-198.5 328.5,-198.5 328.5,-179.5 130.5,-179.5"/>
<text text-anchor="middle" x="229.5" y="-186.5" font-family="Helvetica,sans-Serif" font-size="10.00">Core/Containers/AlignedAllocator.hpp</text>
</a>
</g>
</g>
<!-- Node14&#45;&gt;Node17 -->
<g id="edge17" class="edge">
<title>Node14&#45;&gt;Node17</title>
<path fill="none" stroke="midnightblue" d="M679.28,-240.98C582.79,-230.04 415.86,-211.12 314.76,-199.66"/>
<polygon fill="midnightblue" stroke="midnightblue" points="314.91,-196.16 304.58,-198.51 314.12,-203.11 314.91,-196.16"/>
</g>
<!-- Node23 -->
<g id="node23" class="node">
<title>Node23</title>
<g id="a_node23"><a xlink:href="Math_8hpp.html" target="_top" xlink:title=" ">
<polygon fill="white" stroke="black" points="446.5,-179.5 446.5,-198.5 562.5,-198.5 562.5,-179.5 446.5,-179.5"/>
<text text-anchor="middle" x="504.5" y="-186.5" font-family="Helvetica,sans-Serif" font-size="10.00">Core/Math/Math.hpp</text>
</a>
</g>
</g>
<!-- Node14&#45;&gt;Node23 -->
<g id="edge24" class="edge">
<title>Node14&#45;&gt;Node23</title>
<path fill="none" stroke="midnightblue" d="M695.57,-235.47C651.12,-224.9 591.03,-210.59 550.19,-200.87"/>
<polygon fill="midnightblue" stroke="midnightblue" points="550.78,-197.42 540.24,-198.51 549.16,-204.23 550.78,-197.42"/>
</g>
<!-- Node27 -->
<g id="node27" class="node">
<title>Node27</title>
<g id="a_node27"><a xlink:href="Types_8hpp.html" target="_top" xlink:title=" ">
<polygon fill="white" stroke="black" points="709,-179.5 709,-198.5 800,-198.5 800,-179.5 709,-179.5"/>
<text text-anchor="middle" x="754.5" y="-186.5" font-family="Helvetica,sans-Serif" font-size="10.00">Core/Types.hpp</text>
</a>
</g>
</g>
<!-- Node14&#45;&gt;Node27 -->
<g id="edge30" class="edge">
<title>Node14&#45;&gt;Node27</title>
<path fill="none" stroke="midnightblue" d="M754.5,-235.4C754.5,-227.47 754.5,-217.46 754.5,-208.86"/>
<polygon fill="midnightblue" stroke="midnightblue" points="758,-208.66 754.5,-198.66 751,-208.66 758,-208.66"/>
</g>
<!-- Node18 -->
<g id="node18" class="node">
<title>Node18</title>
<g id="a_node18"><a xlink:href="RaCore_8hpp.html" target="_top" xlink:title=" ">
<polygon fill="white" stroke="black" points="583.5,-123.5 583.5,-142.5 681.5,-142.5 681.5,-123.5 583.5,-123.5"/>
<text text-anchor="middle" x="632.5" y="-130.5" font-family="Helvetica,sans-Serif" font-size="10.00">Core/RaCore.hpp</text>
</a>
</g>
</g>
<!-- Node17&#45;&gt;Node18 -->
<g id="edge18" class="edge">
<title>Node17&#45;&gt;Node18</title>
<path fill="none" stroke="midnightblue" d="M298.09,-179.46C365.32,-171 471,-157.43 573.07,-143.03"/>
<polygon fill="midnightblue" stroke="midnightblue" points="573.84,-146.46 583.26,-141.59 572.86,-139.53 573.84,-146.46"/>
</g>
<!-- Node19 -->
<g id="node19" class="node">
<title>Node19</title>
<g id="a_node19"><a xlink:title=" ">
<polygon fill="white" stroke="#bfbfbf" points="67,-123.5 67,-142.5 150,-142.5 150,-123.5 67,-123.5"/>
<text text-anchor="middle" x="108.5" y="-130.5" font-family="Helvetica,sans-Serif" font-size="10.00">mm_malloc.h</text>
</a>
</g>
</g>
<!-- Node17&#45;&gt;Node19 -->
<g id="edge20" class="edge">
<title>Node17&#45;&gt;Node19</title>
<path fill="none" stroke="midnightblue" d="M210.33,-179.44C190.59,-170.64 159.61,-156.81 137.01,-146.72"/>
<polygon fill="midnightblue" stroke="midnightblue" points="138.14,-143.4 127.58,-142.52 135.29,-149.79 138.14,-143.4"/>
</g>
<!-- Node20 -->
<g id="node20" class="node">
<title>Node20</title>
<g id="a_node20"><a xlink:title=" ">
<polygon fill="white" stroke="#bfbfbf" points="168,-123.5 168,-142.5 221,-142.5 221,-123.5 168,-123.5"/>
<text text-anchor="middle" x="194.5" y="-130.5" font-family="Helvetica,sans-Serif" font-size="10.00">cstddef</text>
</a>
</g>
</g>
<!-- Node17&#45;&gt;Node20 -->
<g id="edge21" class="edge">
<title>Node17&#45;&gt;Node20</title>
<path fill="none" stroke="midnightblue" d="M223.72,-179.08C218.83,-171.53 211.67,-160.49 205.67,-151.23"/>
<polygon fill="midnightblue" stroke="midnightblue" points="208.55,-149.24 200.17,-142.75 202.67,-153.05 208.55,-149.24"/>
</g>
<!-- Node21 -->
<g id="node21" class="node">
<title>Node21</title>
<g id="a_node21"><a xlink:title=" ">
<polygon fill="white" stroke="#bfbfbf" points="239.5,-123.5 239.5,-142.5 289.5,-142.5 289.5,-123.5 239.5,-123.5"/>
<text text-anchor="middle" x="264.5" y="-130.5" font-family="Helvetica,sans-Serif" font-size="10.00">cstdint</text>
</a>
</g>
</g>
<!-- Node17&#45;&gt;Node21 -->
<g id="edge22" class="edge">
<title>Node17&#45;&gt;Node21</title>
<path fill="none" stroke="midnightblue" d="M235.28,-179.08C240.17,-171.53 247.33,-160.49 253.33,-151.23"/>
<polygon fill="midnightblue" stroke="midnightblue" points="256.33,-153.05 258.83,-142.75 250.45,-149.24 256.33,-153.05"/>
</g>
<!-- Node22 -->
<g id="node22" class="node">
<title>Node22</title>
<g id="a_node22"><a xlink:title=" ">
<polygon fill="white" stroke="#bfbfbf" points="0,-123.5 0,-142.5 49,-142.5 49,-123.5 0,-123.5"/>
<text text-anchor="middle" x="24.5" y="-130.5" font-family="Helvetica,sans-Serif" font-size="10.00">cstdlib</text>
</a>
</g>
</g>
<!-- Node17&#45;&gt;Node22 -->
<g id="edge23" class="edge">
<title>Node17&#45;&gt;Node22</title>
<path fill="none" stroke="midnightblue" d="M196.5,-179.47C163.88,-171.02 112.3,-157.6 58.97,-143.38"/>
<polygon fill="midnightblue" stroke="midnightblue" points="59.57,-139.91 49,-140.71 57.76,-146.67 59.57,-139.91"/>
</g>
<!-- Node18&#45;&gt;Node3 -->
<g id="edge19" class="edge">
<title>Node18&#45;&gt;Node3</title>
<path fill="none" stroke="midnightblue" d="M680.64,-123.48C741.27,-112.74 845.36,-94.31 910.36,-82.79"/>
<polygon fill="midnightblue" stroke="midnightblue" points="911.21,-86.2 920.45,-81.01 909.99,-79.31 911.21,-86.2"/>
</g>
<!-- Node23&#45;&gt;Node18 -->
<g id="edge25" class="edge">
<title>Node23&#45;&gt;Node18</title>
<path fill="none" stroke="midnightblue" d="M524.78,-179.44C545.85,-170.56 579.02,-156.56 602.99,-146.45"/>
<polygon fill="midnightblue" stroke="midnightblue" points="604.46,-149.63 612.31,-142.52 601.74,-143.18 604.46,-149.63"/>
</g>
<!-- Node24 -->
<g id="node24" class="node">
<title>Node24</title>
<g id="a_node24"><a xlink:title=" ">
<polygon fill="white" stroke="#bfbfbf" points="435.5,-123.5 435.5,-142.5 499.5,-142.5 499.5,-123.5 435.5,-123.5"/>
<text text-anchor="middle" x="467.5" y="-130.5" font-family="Helvetica,sans-Serif" font-size="10.00">algorithm</text>
</a>
</g>
</g>
<!-- Node23&#45;&gt;Node24 -->
<g id="edge26" class="edge">
<title>Node23&#45;&gt;Node24</title>
<path fill="none" stroke="midnightblue" d="M498.39,-179.08C493.22,-171.53 485.65,-160.49 479.31,-151.23"/>
<polygon fill="midnightblue" stroke="midnightblue" points="482.04,-149.02 473.5,-142.75 476.26,-152.98 482.04,-149.02"/>
</g>
<!-- Node25 -->
<g id="node25" class="node">
<title>Node25</title>
<g id="a_node25"><a xlink:title=" ">
<polygon fill="white" stroke="#bfbfbf" points="518,-123.5 518,-142.5 565,-142.5 565,-123.5 518,-123.5"/>
<text text-anchor="middle" x="541.5" y="-130.5" font-family="Helvetica,sans-Serif" font-size="10.00">cmath</text>
</a>
</g>
</g>
<!-- Node23&#45;&gt;Node25 -->
<g id="edge27" class="edge">
<title>Node23&#45;&gt;Node25</title>
<path fill="none" stroke="midnightblue" d="M510.61,-179.08C515.78,-171.53 523.35,-160.49 529.69,-151.23"/>
<polygon fill="midnightblue" stroke="midnightblue" points="532.74,-152.98 535.5,-142.75 526.96,-149.02 532.74,-152.98"/>
</g>
<!-- Node26 -->
<g id="node26" class="node">
<title>Node26</title>
<g id="a_node26"><a xlink:href="Math_8inl.html" target="_top" xlink:title=" ">
<polygon fill="white" stroke="black" points="307.5,-123.5 307.5,-142.5 417.5,-142.5 417.5,-123.5 307.5,-123.5"/>
<text text-anchor="middle" x="362.5" y="-130.5" font-family="Helvetica,sans-Serif" font-size="10.00">Core/Math/Math.inl</text>
</a>
</g>
</g>
<!-- Node23&#45;&gt;Node26 -->
<g id="edge28" class="edge">
<title>Node23&#45;&gt;Node26</title>
<path fill="none" stroke="midnightblue" d="M476.91,-179.44C451.48,-170.52 414.23,-156.44 389.12,-146.32"/>
<polygon fill="midnightblue" stroke="midnightblue" points="390.4,-143.06 379.82,-142.52 387.75,-149.54 390.4,-143.06"/>
</g>
<!-- Node26&#45;&gt;Node23 -->
<g id="edge29" class="edge">
<title>Node26&#45;&gt;Node23</title>
<path fill="none" stroke="midnightblue" d="M389.98,-142.52C415.37,-151.43 452.62,-165.5 477.77,-175.64"/>
<polygon fill="midnightblue" stroke="midnightblue" points="476.51,-178.9 487.09,-179.44 479.15,-172.42 476.51,-178.9"/>
</g>
<!-- Node27&#45;&gt;Node18 -->
<g id="edge31" class="edge">
<title>Node27&#45;&gt;Node18</title>
<path fill="none" stroke="midnightblue" d="M735.17,-179.44C715.18,-170.6 683.76,-156.69 660.94,-146.59"/>
<polygon fill="midnightblue" stroke="midnightblue" points="662.3,-143.36 651.74,-142.52 659.47,-149.76 662.3,-143.36"/>
</g>
<!-- Node28 -->
<g id="node28" class="node">
<title>Node28</title>
<g id="a_node28"><a xlink:title=" ">
<polygon fill="white" stroke="#bfbfbf" points="912,-123.5 912,-142.5 981,-142.5 981,-123.5 912,-123.5"/>
<text text-anchor="middle" x="946.5" y="-130.5" font-family="Helvetica,sans-Serif" font-size="10.00">Eigen/Core</text>
</a>
</g>
</g>
<!-- Node27&#45;&gt;Node28 -->
<g id="edge32" class="edge">
<title>Node27&#45;&gt;Node28</title>
<path fill="none" stroke="midnightblue" d="M784.92,-179.44C817.78,-170.2 870.28,-155.44 906.47,-145.26"/>
<polygon fill="midnightblue" stroke="midnightblue" points="907.54,-148.59 916.22,-142.52 905.65,-141.85 907.54,-148.59"/>
</g>
<!-- Node29 -->
<g id="node29" class="node">
<title>Node29</title>
<g id="a_node29"><a xlink:title=" ">
<polygon fill="white" stroke="#bfbfbf" points="700,-123.5 700,-142.5 795,-142.5 795,-123.5 700,-123.5"/>
<text text-anchor="middle" x="747.5" y="-130.5" font-family="Helvetica,sans-Serif" font-size="10.00">Eigen/Geometry</text>
</a>
</g>
</g>
<!-- Node27&#45;&gt;Node29 -->
<g id="edge33" class="edge">
<title>Node27&#45;&gt;Node29</title>
<path fill="none" stroke="midnightblue" d="M753.34,-179.08C752.42,-171.93 751.08,-161.64 749.92,-152.69"/>
<polygon fill="midnightblue" stroke="midnightblue" points="753.39,-152.22 748.63,-142.75 746.45,-153.12 753.39,-152.22"/>
</g>
<!-- Node30 -->
<g id="node30" class="node">
<title>Node30</title>
<g id="a_node30"><a xlink:title=" ">
<polygon fill="white" stroke="#bfbfbf" points="813.5,-123.5 813.5,-142.5 893.5,-142.5 893.5,-123.5 813.5,-123.5"/>
<text text-anchor="middle" x="853.5" y="-130.5" font-family="Helvetica,sans-Serif" font-size="10.00">Eigen/Sparse</text>
</a>
</g>
</g>
<!-- Node27&#45;&gt;Node30 -->
<g id="edge34" class="edge">
<title>Node27&#45;&gt;Node30</title>
<path fill="none" stroke="midnightblue" d="M770.41,-179.32C786.14,-170.74 810.44,-157.49 828.71,-147.52"/>
<polygon fill="midnightblue" stroke="midnightblue" points="830.53,-150.52 837.63,-142.65 827.18,-144.37 830.53,-150.52"/>
</g>
<!-- Node31&#45;&gt;Node14 -->
<g id="edge38" class="edge">
<title>Node31&#45;&gt;Node14</title>
<path fill="none" stroke="midnightblue" d="M846.11,-302.4C829.32,-293.07 807.11,-280.73 788.76,-270.53"/>
<polygon fill="midnightblue" stroke="midnightblue" points="790.28,-267.37 779.84,-265.58 786.88,-273.49 790.28,-267.37"/>
</g>
<!-- Node31&#45;&gt;Node15 -->
<g id="edge36" class="edge">
<title>Node31&#45;&gt;Node15</title>
<path fill="none" stroke="midnightblue" d="M867.95,-302.48C862.17,-279.62 850.71,-234.3 844.23,-208.71"/>
<polygon fill="midnightblue" stroke="midnightblue" points="847.57,-207.62 841.72,-198.79 840.78,-209.34 847.57,-207.62"/>
</g>
<!-- Node31&#45;&gt;Node16 -->
<g id="edge37" class="edge">
<title>Node31&#45;&gt;Node16</title>
<path fill="none" stroke="midnightblue" d="M874.05,-302.48C878.21,-279.62 886.45,-234.3 891.1,-208.71"/>
<polygon fill="midnightblue" stroke="midnightblue" points="894.56,-209.25 892.9,-198.79 887.67,-208 894.56,-209.25"/>
</g>
<!-- Node32&#45;&gt;Node9 -->
<g id="edge40" class="edge">
<title>Node32&#45;&gt;Node9</title>
<path fill="none" stroke="midnightblue" d="M1282.55,-240.98C1244.62,-230.53 1180.22,-212.79 1138.28,-201.23"/>
<polygon fill="midnightblue" stroke="midnightblue" points="1138.96,-197.79 1128.39,-198.51 1137.1,-204.54 1138.96,-197.79"/>
</g>
<!-- Node33 -->
<g id="node33" class="node">
<title>Node33</title>
<g id="a_node33"><a xlink:href="Index_8hpp.html" target="_top" xlink:title=" ">
<polygon fill="white" stroke="black" points="1404.5,-179.5 1404.5,-198.5 1520.5,-198.5 1520.5,-179.5 1404.5,-179.5"/>
<text text-anchor="middle" x="1462.5" y="-186.5" font-family="Helvetica,sans-Serif" font-size="10.00">Core/Utils/Index.hpp</text>
</a>
</g>
</g>
<!-- Node32&#45;&gt;Node33 -->
<g id="edge41" class="edge">
<title>Node32&#45;&gt;Node33</title>
<path fill="none" stroke="midnightblue" d="M1334.85,-240.98C1360.19,-230.86 1402.64,-213.9 1431.57,-202.35"/>
<polygon fill="midnightblue" stroke="midnightblue" points="1433.2,-205.47 1441.19,-198.51 1430.61,-198.97 1433.2,-205.47"/>
</g>
<!-- Node36 -->
<g id="node36" class="node">
<title>Node36</title>
<g id="a_node36"><a xlink:title=" ">
<polygon fill="white" stroke="#bfbfbf" points="1538.5,-179.5 1538.5,-198.5 1582.5,-198.5 1582.5,-179.5 1538.5,-179.5"/>
<text text-anchor="middle" x="1560.5" y="-186.5" font-family="Helvetica,sans-Serif" font-size="10.00">string</text>
</a>
</g>
</g>
<!-- Node32&#45;&gt;Node36 -->
<g id="edge46" class="edge">
<title>Node32&#45;&gt;Node36</title>
<path fill="none" stroke="midnightblue" d="M1352.67,-241C1394.03,-231.87 1461.35,-216.61 1528.31,-199.21"/>
<polygon fill="midnightblue" stroke="midnightblue" points="1529.4,-202.55 1538.19,-196.63 1527.63,-195.77 1529.4,-202.55"/>
</g>
<!-- Node37 -->
<g id="node37" class="node">
<title>Node37</title>
<g id="a_node37"><a xlink:title=" ">
<polygon fill="white" stroke="#bfbfbf" points="1175,-179.5 1175,-198.5 1222,-198.5 1222,-179.5 1175,-179.5"/>
<text text-anchor="middle" x="1198.5" y="-186.5" font-family="Helvetica,sans-Serif" font-size="10.00">vector</text>
</a>
</g>
</g>
<!-- Node32&#45;&gt;Node37 -->
<g id="edge47" class="edge">
<title>Node32&#45;&gt;Node37</title>
<path fill="none" stroke="midnightblue" d="M1297.02,-240.98C1277.89,-231.08 1246.13,-214.64 1223.85,-203.12"/>
<polygon fill="midnightblue" stroke="midnightblue" points="1225.44,-200 1214.95,-198.51 1222.22,-206.21 1225.44,-200"/>
</g>
<!-- Node38 -->
<g id="node38" class="node">
<title>Node38</title>
<g id="a_node38"><a xlink:href="ItemEntry_8inl.html" target="_top" xlink:title=" ">
<polygon fill="white" stroke="black" points="1240.5,-179.5 1240.5,-198.5 1386.5,-198.5 1386.5,-179.5 1240.5,-179.5"/>
<text text-anchor="middle" x="1313.5" y="-186.5" font-family="Helvetica,sans-Serif" font-size="10.00">Engine/Scene/ItemEntry.inl</text>
</a>
</g>
</g>
<!-- Node32&#45;&gt;Node38 -->
<g id="edge48" class="edge">
<title>Node32&#45;&gt;Node38</title>
<path fill="none" stroke="midnightblue" d="M1308.6,-240.98C1306.77,-232.58 1306.3,-219.48 1307.19,-208.66"/>
<polygon fill="midnightblue" stroke="midnightblue" points="1310.69,-208.9 1308.6,-198.51 1303.75,-207.93 1310.69,-208.9"/>
</g>
<!-- Node33&#45;&gt;Node18 -->
<g id="edge42" class="edge">
<title>Node33&#45;&gt;Node18</title>
<path fill="none" stroke="midnightblue" d="M1404.43,-179.9C1401.41,-179.57 1398.42,-179.27 1395.5,-179 1086.45,-150.4 1004.35,-174.57 691.77,-143.01"/>
<polygon fill="midnightblue" stroke="midnightblue" points="691.81,-139.5 681.5,-141.97 691.09,-146.46 691.81,-139.5"/>
</g>
<!-- Node34 -->
<g id="node34" class="node">
<title>Node34</title>
<g id="a_node34"><a xlink:title=" ">
<polygon fill="white" stroke="#bfbfbf" points="1345.5,-123.5 1345.5,-142.5 1389.5,-142.5 1389.5,-123.5 1345.5,-123.5"/>
<text text-anchor="middle" x="1367.5" y="-130.5" font-family="Helvetica,sans-Serif" font-size="10.00">limits</text>
</a>
</g>
</g>
<!-- Node33&#45;&gt;Node34 -->
<g id="edge43" class="edge">
<title>Node33&#45;&gt;Node34</title>
<path fill="none" stroke="midnightblue" d="M1447.24,-179.32C1432.28,-170.82 1409.25,-157.73 1391.77,-147.8"/>
<polygon fill="midnightblue" stroke="midnightblue" points="1393.15,-144.55 1382.73,-142.65 1389.69,-150.64 1393.15,-144.55"/>
</g>
<!-- Node35 -->
<g id="node35" class="node">
<title>Node35</title>
<g id="a_node35"><a xlink:href="Index_8inl.html" target="_top" xlink:title=" ">
<polygon fill="white" stroke="black" points="1407.5,-123.5 1407.5,-142.5 1517.5,-142.5 1517.5,-123.5 1407.5,-123.5"/>
<text text-anchor="middle" x="1462.5" y="-130.5" font-family="Helvetica,sans-Serif" font-size="10.00">Core/Utils/Index.inl</text>
</a>
</g>
</g>
<!-- Node33&#45;&gt;Node35 -->
<g id="edge44" class="edge">
<title>Node33&#45;&gt;Node35</title>
<path fill="none" stroke="midnightblue" d="M1457.33,-179.08C1455.82,-171.93 1455.39,-161.64 1456.04,-152.69"/>
<polygon fill="midnightblue" stroke="midnightblue" points="1459.52,-153.13 1457.37,-142.75 1452.58,-152.2 1459.52,-153.13"/>
</g>
<!-- Node35&#45;&gt;Node33 -->
<g id="edge45" class="edge">
<title>Node35&#45;&gt;Node33</title>
<path fill="none" stroke="midnightblue" d="M1467.63,-142.75C1469.16,-149.86 1469.6,-160.14 1468.97,-169.1"/>
<polygon fill="midnightblue" stroke="midnightblue" points="1465.49,-168.71 1467.67,-179.08 1472.43,-169.62 1465.49,-168.71"/>
</g>
<!-- Node38&#45;&gt;Node32 -->
<g id="edge49" class="edge">
<title>Node38&#45;&gt;Node32</title>
<path fill="none" stroke="midnightblue" d="M1318.4,-198.51C1320.23,-206.9 1320.7,-220 1319.82,-230.82"/>
<polygon fill="midnightblue" stroke="midnightblue" points="1316.31,-230.59 1318.4,-240.98 1323.25,-231.55 1316.31,-230.59"/>
</g>
</g>
</svg>
