<?xml version="1.0" encoding="UTF-8" standalone="no"?>
<!DOCTYPE svg PUBLIC "-//W3C//DTD SVG 1.1//EN"
 "http://www.w3.org/Graphics/SVG/1.1/DTD/svg11.dtd">
<!-- Generated by graphviz version 2.43.0 (0)
 -->
<!-- Title: Ra::Gui::Timeline::selectionChanged Pages: 1 -->
<svg width="434pt" height="237pt"
 viewBox="0.00 0.00 434.00 236.50" xmlns="http://www.w3.org/2000/svg" xmlns:xlink="http://www.w3.org/1999/xlink">
<g id="graph0" class="graph" transform="scale(1 1) rotate(0) translate(4 232.5)">
<title>Ra::Gui::Timeline::selectionChanged</title>
<polygon fill="white" stroke="transparent" points="-4,4 -4,-232.5 430,-232.5 430,4 -4,4"/>
<!-- Node1 -->
<g id="node1" class="node">
<title>Node1</title>
<g id="a_node1"><a xlink:title=" ">
<polygon fill="#bfbfbf" stroke="black" points="0,-94 0,-124 107,-124 107,-94 0,-94"/>
<text text-anchor="start" x="8" y="-112" font-family="Helvetica,sans-Serif" font-size="10.00">Ra::Gui::Timeline::</text>
<text text-anchor="middle" x="53.5" y="-101" font-family="Helvetica,sans-Serif" font-size="10.00">selectionChanged</text>
</a>
</g>
</g>
<!-- Node2 -->
<g id="node2" class="node">
<title>Node2</title>
<g id="a_node2"><a xlink:href="classRa_1_1Engine_1_1Scene_1_1Entity.html#aca70e4d7a9078c377650ac4ea59748bd" target="_top" xlink:title=" ">
<polygon fill="white" stroke="black" points="152,-198 152,-228 262,-228 262,-198 152,-198"/>
<text text-anchor="start" x="160" y="-216" font-family="Helvetica,sans-Serif" font-size="10.00">Ra::Engine::Scene::</text>
<text text-anchor="middle" x="207" y="-205" font-family="Helvetica,sans-Serif" font-size="10.00">Entity::getName</text>
</a>
</g>
</g>
<!-- Node1&#45;&gt;Node2 -->
<g id="edge1" class="edge">
<title>Node1&#45;&gt;Node2</title>
<path fill="none" stroke="midnightblue" d="M67.87,-124.1C84.14,-141.71 113.15,-170.72 143,-189 145.61,-190.6 148.35,-192.12 151.15,-193.57"/>
<polygon fill="midnightblue" stroke="midnightblue" points="149.76,-196.78 160.29,-197.92 152.77,-190.46 149.76,-196.78"/>
</g>
<!-- Node3 -->
<g id="node3" class="node">
<title>Node3</title>
<g id="a_node3"><a xlink:href="classRa_1_1Engine_1_1Scene_1_1Component.html#a60e3234670ccfb680405445f06d2854e" target="_top" xlink:title="Return the component&#39;s name.">
<polygon fill="white" stroke="black" points="145,-149 145,-179 269,-179 269,-149 145,-149"/>
<text text-anchor="start" x="153" y="-167" font-family="Helvetica,sans-Serif" font-size="10.00">Ra::Engine::Scene::</text>
<text text-anchor="middle" x="207" y="-156" font-family="Helvetica,sans-Serif" font-size="10.00">Component::getName</text>
</a>
</g>
</g>
<!-- Node1&#45;&gt;Node3 -->
<g id="edge2" class="edge">
<title>Node1&#45;&gt;Node3</title>
<path fill="none" stroke="midnightblue" d="M95.9,-124.03C114.19,-130.67 135.86,-138.54 155.12,-145.53"/>
<polygon fill="midnightblue" stroke="midnightblue" points="154.06,-148.87 164.65,-148.99 156.45,-142.29 154.06,-148.87"/>
</g>
<!-- Node4 -->
<g id="node4" class="node">
<title>Node4</title>
<g id="a_node4"><a xlink:href="classRa_1_1Core_1_1Animation_1_1KeyFramedValueBase.html#a170dcf7c25367d3922bc4335e57aef4b" target="_top" xlink:title=" ">
<polygon fill="white" stroke="black" points="143,-88.5 143,-129.5 271,-129.5 271,-88.5 143,-88.5"/>
<text text-anchor="start" x="151" y="-117.5" font-family="Helvetica,sans-Serif" font-size="10.00">Ra::Core::Animation</text>
<text text-anchor="start" x="151" y="-106.5" font-family="Helvetica,sans-Serif" font-size="10.00">::KeyFramedValueBase</text>
<text text-anchor="middle" x="207" y="-95.5" font-family="Helvetica,sans-Serif" font-size="10.00">::getTimes</text>
</a>
</g>
</g>
<!-- Node1&#45;&gt;Node4 -->
<g id="edge3" class="edge">
<title>Node1&#45;&gt;Node4</title>
<path fill="none" stroke="midnightblue" d="M107.06,-109C115.35,-109 124.06,-109 132.72,-109"/>
<polygon fill="midnightblue" stroke="midnightblue" points="132.84,-112.5 142.84,-109 132.84,-105.5 132.84,-112.5"/>
</g>
<!-- Node5 -->
<g id="node5" class="node">
<title>Node5</title>
<g id="a_node5"><a xlink:href="classRa_1_1Core_1_1Utils_1_1Index.html#a771f93efd49538950e3cb9e57e46fbaf" target="_top" xlink:title=" ">
<polygon fill="white" stroke="black" points="147.5,-39 147.5,-69 266.5,-69 266.5,-39 147.5,-39"/>
<text text-anchor="start" x="155.5" y="-57" font-family="Helvetica,sans-Serif" font-size="10.00">Ra::Core::Utils::Index</text>
<text text-anchor="middle" x="207" y="-46" font-family="Helvetica,sans-Serif" font-size="10.00">::Invalid</text>
</a>
</g>
</g>
<!-- Node1&#45;&gt;Node5 -->
<g id="edge4" class="edge">
<title>Node1&#45;&gt;Node5</title>
<path fill="none" stroke="midnightblue" d="M95.9,-93.97C114.19,-87.33 135.86,-79.46 155.12,-72.47"/>
<polygon fill="midnightblue" stroke="midnightblue" points="156.45,-75.71 164.65,-69.01 154.06,-69.13 156.45,-75.71"/>
</g>
<!-- Node7 -->
<g id="node7" class="node">
<title>Node7</title>
<g id="a_node7"><a xlink:href="namespaceRa_1_1Core_1_1Geometry.html#aa04e6052d8911b1df1bd881474debb45" target="_top" xlink:title=" ">
<polygon fill="white" stroke="black" points="146,-0.5 146,-19.5 268,-19.5 268,-0.5 146,-0.5"/>
<text text-anchor="middle" x="207" y="-7.5" font-family="Helvetica,sans-Serif" font-size="10.00">Ra::Core::Geometry::t</text>
</a>
</g>
</g>
<!-- Node1&#45;&gt;Node7 -->
<g id="edge6" class="edge">
<title>Node1&#45;&gt;Node7</title>
<path fill="none" stroke="midnightblue" d="M67.74,-93.8C83.88,-76.14 112.76,-47.24 143,-30 147.5,-27.44 152.36,-25.16 157.33,-23.14"/>
<polygon fill="midnightblue" stroke="midnightblue" points="158.78,-26.34 166.94,-19.58 156.34,-19.77 158.78,-26.34"/>
</g>
<!-- Node6 -->
<g id="node6" class="node">
<title>Node6</title>
<g id="a_node6"><a xlink:href="classRa_1_1Core_1_1Utils_1_1Index.html#ab3376097b792b1ac2068c6da1cb6c8e4" target="_top" xlink:title="CONSTRUCTOR.">
<polygon fill="white" stroke="black" points="307,-39 307,-69 426,-69 426,-39 307,-39"/>
<text text-anchor="start" x="315" y="-57" font-family="Helvetica,sans-Serif" font-size="10.00">Ra::Core::Utils::Index</text>
<text text-anchor="middle" x="366.5" y="-46" font-family="Helvetica,sans-Serif" font-size="10.00">::Index</text>
</a>
</g>
</g>
<!-- Node5&#45;&gt;Node6 -->
<g id="edge5" class="edge">
<title>Node5&#45;&gt;Node6</title>
<path fill="none" stroke="midnightblue" d="M266.65,-54C276.38,-54 286.56,-54 296.52,-54"/>
<polygon fill="midnightblue" stroke="midnightblue" points="296.8,-57.5 306.8,-54 296.8,-50.5 296.8,-57.5"/>
</g>
</g>
</svg>
