<?xml version="1.0" encoding="UTF-8" standalone="no"?>
<!DOCTYPE svg PUBLIC "-//W3C//DTD SVG 1.1//EN"
 "http://www.w3.org/Graphics/SVG/1.1/DTD/svg11.dtd">
<!-- Generated by graphviz version 2.43.0 (0)
 -->
<!-- Title: Ra::Engine::Data::RenderParameters::addParameter Pages: 1 -->
<svg width="324pt" height="88pt"
 viewBox="0.00 0.00 324.00 88.00" xmlns="http://www.w3.org/2000/svg" xmlns:xlink="http://www.w3.org/1999/xlink">
<g id="graph0" class="graph" transform="scale(1 1) rotate(0) translate(4 84)">
<title>Ra::Engine::Data::RenderParameters::addParameter</title>
<polygon fill="white" stroke="transparent" points="-4,4 -4,-84 320,-84 320,4 -4,4"/>
<!-- Node1 -->
<g id="node1" class="node">
<title>Node1</title>
<g id="a_node1"><a xlink:title="set the value of the given parameter, according to a string representation of an enum.">
<polygon fill="#bfbfbf" stroke="black" points="0,-24.5 0,-54.5 146,-54.5 146,-24.5 0,-24.5"/>
<text text-anchor="start" x="8" y="-42.5" font-family="Helvetica,sans-Serif" font-size="10.00">Ra::Engine::Data::Render</text>
<text text-anchor="middle" x="73" y="-31.5" font-family="Helvetica,sans-Serif" font-size="10.00">Parameters::addParameter</text>
</a>
</g>
</g>
<!-- Node2 -->
<g id="node2" class="node">
<title>Node2</title>
<g id="a_node2"><a xlink:href="classRa_1_1Core_1_1VariableSet.html#a48baeacd56022a902deb045d865c4605" target="_top" xlink:title="test the existence of the given variable">
<polygon fill="white" stroke="black" points="189.5,-49.5 189.5,-79.5 308.5,-79.5 308.5,-49.5 189.5,-49.5"/>
<text text-anchor="start" x="197.5" y="-67.5" font-family="Helvetica,sans-Serif" font-size="10.00">Ra::Core::VariableSet</text>
<text text-anchor="middle" x="249" y="-56.5" font-family="Helvetica,sans-Serif" font-size="10.00">::existsVariable</text>
</a>
</g>
</g>
<!-- Node1&#45;&gt;Node2 -->
<g id="edge1" class="edge">
<title>Node1&#45;&gt;Node2</title>
<path fill="none" stroke="midnightblue" d="M146.03,-49.85C157.05,-51.43 168.41,-53.06 179.35,-54.64"/>
<polygon fill="midnightblue" stroke="midnightblue" points="178.88,-58.1 189.27,-56.06 179.87,-51.18 178.88,-58.1"/>
</g>
<!-- Node3 -->
<g id="node3" class="node">
<title>Node3</title>
<g id="a_node3"><a xlink:href="classRa_1_1Core_1_1VariableSet.html#a2ae4889235c18238c677b007701f8db6" target="_top" xlink:title="reset (or set if the variable does not exist yet) the value of the variable.">
<polygon fill="white" stroke="black" points="182,-0.5 182,-30.5 316,-30.5 316,-0.5 182,-0.5"/>
<text text-anchor="start" x="190" y="-18.5" font-family="Helvetica,sans-Serif" font-size="10.00">Ra::Core::VariableSet</text>
<text text-anchor="middle" x="249" y="-7.5" font-family="Helvetica,sans-Serif" font-size="10.00">::insertOrAssignVariable</text>
</a>
</g>
</g>
<!-- Node1&#45;&gt;Node3 -->
<g id="edge2" class="edge">
<title>Node1&#45;&gt;Node3</title>
<path fill="none" stroke="midnightblue" d="M146.03,-29.57C154.56,-28.39 163.29,-27.18 171.88,-26"/>
<polygon fill="midnightblue" stroke="midnightblue" points="172.45,-29.45 181.88,-24.62 171.49,-22.52 172.45,-29.45"/>
</g>
</g>
</svg>
