<?xml version="1.0" encoding="UTF-8" standalone="no"?>
<!DOCTYPE svg PUBLIC "-//W3C//DTD SVG 1.1//EN"
 "http://www.w3.org/Graphics/SVG/1.1/DTD/svg11.dtd">
<!-- Generated by graphviz version 2.43.0 (0)
 -->
<!-- Title: Ra::Engine::Data::VolumeObject Pages: 1 -->
<svg width="213pt" height="574pt"
 viewBox="0.00 0.00 212.50 574.00" xmlns="http://www.w3.org/2000/svg" xmlns:xlink="http://www.w3.org/1999/xlink">
<g id="graph0" class="graph" transform="scale(1 1) rotate(0) translate(4 570)">
<title>Ra::Engine::Data::VolumeObject</title>
<polygon fill="white" stroke="transparent" points="-4,4 -4,-570 208.5,-570 208.5,4 -4,4"/>
<!-- Node1 -->
<g id="node1" class="node">
<title>Node1</title>
<g id="a_node1"><a xlink:title=" ">
<polygon fill="#bfbfbf" stroke="black" points="10.5,-0.5 10.5,-244.5 150.5,-244.5 150.5,-0.5 10.5,-0.5"/>
<text text-anchor="start" x="18.5" y="-232.5" font-family="Helvetica,sans-Serif" font-size="10.00">Ra::Engine::Data::Volume</text>
<text text-anchor="middle" x="80.5" y="-221.5" font-family="Helvetica,sans-Serif" font-size="10.00">Object</text>
<polyline fill="none" stroke="black" points="10.5,-214.5 150.5,-214.5 "/>
<text text-anchor="middle" x="80.5" y="-202.5" font-family="Helvetica,sans-Serif" font-size="10.00"> </text>
<polyline fill="none" stroke="black" points="10.5,-195.5 150.5,-195.5 "/>
<text text-anchor="start" x="18.5" y="-183.5" font-family="Helvetica,sans-Serif" font-size="10.00">+ VolumeObject()</text>
<text text-anchor="start" x="18.5" y="-172.5" font-family="Helvetica,sans-Serif" font-size="10.00">+ VolumeObject()</text>
<text text-anchor="start" x="18.5" y="-161.5" font-family="Helvetica,sans-Serif" font-size="10.00">+ operator=()</text>
<text text-anchor="start" x="18.5" y="-150.5" font-family="Helvetica,sans-Serif" font-size="10.00">+ ~VolumeObject()</text>
<text text-anchor="start" x="18.5" y="-139.5" font-family="Helvetica,sans-Serif" font-size="10.00">+ getAbstractGeometry()</text>
<text text-anchor="start" x="18.5" y="-128.5" font-family="Helvetica,sans-Serif" font-size="10.00">+ getAbstractGeometry()</text>
<text text-anchor="start" x="18.5" y="-117.5" font-family="Helvetica,sans-Serif" font-size="10.00">+ getVolume()</text>
<text text-anchor="start" x="18.5" y="-106.5" font-family="Helvetica,sans-Serif" font-size="10.00">+ getVolume()</text>
<text text-anchor="start" x="18.5" y="-95.5" font-family="Helvetica,sans-Serif" font-size="10.00">+ loadGeometry()</text>
<text text-anchor="start" x="18.5" y="-84.5" font-family="Helvetica,sans-Serif" font-size="10.00">+ loadGeometry()</text>
<text text-anchor="start" x="18.5" y="-73.5" font-family="Helvetica,sans-Serif" font-size="10.00">+ setDirty()</text>
<text text-anchor="start" x="18.5" y="-62.5" font-family="Helvetica,sans-Serif" font-size="10.00">+ getDataTexture()</text>
<text text-anchor="start" x="18.5" y="-51.5" font-family="Helvetica,sans-Serif" font-size="10.00">+ updateGL()</text>
<text text-anchor="start" x="18.5" y="-40.5" font-family="Helvetica,sans-Serif" font-size="10.00">+ render()</text>
<text text-anchor="start" x="18.5" y="-29.5" font-family="Helvetica,sans-Serif" font-size="10.00">+ getNumFaces()</text>
<text text-anchor="start" x="18.5" y="-18.5" font-family="Helvetica,sans-Serif" font-size="10.00">+ getNumVertices()</text>
<text text-anchor="start" x="18.5" y="-7.5" font-family="Helvetica,sans-Serif" font-size="10.00">+ getName()</text>
</a>
</g>
</g>
<!-- Node2 -->
<g id="node2" class="node">
<title>Node2</title>
<g id="a_node2"><a xlink:href="classRa_1_1Engine_1_1Data_1_1Displayable.html" target="_top" xlink:title=" ">
<polygon fill="white" stroke="black" points="0,-282.5 0,-460.5 161,-460.5 161,-282.5 0,-282.5"/>
<text text-anchor="middle" x="80.5" y="-448.5" font-family="Helvetica,sans-Serif" font-size="10.00">Ra::Engine::Data::Displayable</text>
<polyline fill="none" stroke="black" points="0,-441.5 161,-441.5 "/>
<text text-anchor="middle" x="80.5" y="-429.5" font-family="Helvetica,sans-Serif" font-size="10.00"> </text>
<polyline fill="none" stroke="black" points="0,-422.5 161,-422.5 "/>
<text text-anchor="start" x="8" y="-410.5" font-family="Helvetica,sans-Serif" font-size="10.00">+ Displayable()</text>
<text text-anchor="start" x="8" y="-399.5" font-family="Helvetica,sans-Serif" font-size="10.00">+ Displayable()</text>
<text text-anchor="start" x="8" y="-388.5" font-family="Helvetica,sans-Serif" font-size="10.00">+ operator=()</text>
<text text-anchor="start" x="8" y="-377.5" font-family="Helvetica,sans-Serif" font-size="10.00">+ ~Displayable()</text>
<text text-anchor="start" x="8" y="-366.5" font-family="Helvetica,sans-Serif" font-size="10.00">+ pickingRenderMode()</text>
<text text-anchor="start" x="8" y="-355.5" font-family="Helvetica,sans-Serif" font-size="10.00">+ getName()</text>
<text text-anchor="start" x="8" y="-344.5" font-family="Helvetica,sans-Serif" font-size="10.00">+ getAbstractGeometry()</text>
<text text-anchor="start" x="8" y="-333.5" font-family="Helvetica,sans-Serif" font-size="10.00">+ getAbstractGeometry()</text>
<text text-anchor="start" x="8" y="-322.5" font-family="Helvetica,sans-Serif" font-size="10.00">+ updateGL()</text>
<text text-anchor="start" x="8" y="-311.5" font-family="Helvetica,sans-Serif" font-size="10.00">+ render()</text>
<text text-anchor="start" x="8" y="-300.5" font-family="Helvetica,sans-Serif" font-size="10.00">+ getNumFaces()</text>
<text text-anchor="start" x="8" y="-289.5" font-family="Helvetica,sans-Serif" font-size="10.00">+ getNumVertices()</text>
</a>
</g>
</g>
<!-- Node2&#45;&gt;Node1 -->
<g id="edge1" class="edge">
<title>Node2&#45;&gt;Node1</title>
<path fill="none" stroke="midnightblue" d="M80.5,-272.27C80.5,-263.24 80.5,-254.02 80.5,-244.82"/>
<polygon fill="none" stroke="midnightblue" points="77,-272.37 80.5,-282.37 84,-272.37 77,-272.37"/>
</g>
<!-- Node3 -->
<g id="node3" class="node">
<title>Node3</title>
<g id="a_node3"><a xlink:title=" ">
<polygon fill="white" stroke="#bfbfbf" points="24,-508.5 24,-565.5 137,-565.5 137,-508.5 24,-508.5"/>
<text text-anchor="middle" x="80.5" y="-553.5" font-family="Helvetica,sans-Serif" font-size="10.00">PickingRenderMode</text>
<polyline fill="none" stroke="#bfbfbf" points="24,-546.5 137,-546.5 "/>
<text text-anchor="middle" x="80.5" y="-534.5" font-family="Helvetica,sans-Serif" font-size="10.00"> </text>
<polyline fill="none" stroke="#bfbfbf" points="24,-527.5 137,-527.5 "/>
<text text-anchor="middle" x="80.5" y="-515.5" font-family="Helvetica,sans-Serif" font-size="10.00"> </text>
</a>
</g>
</g>
<!-- Node3&#45;&gt;Node2 -->
<g id="edge2" class="edge">
<title>Node3&#45;&gt;Node2</title>
<path fill="none" stroke="#404040" d="M80.5,-508.26C80.5,-498.01 80.5,-485.7 80.5,-472.74"/>
<polygon fill="none" stroke="#404040" points="80.5,-472.7 76.5,-466.7 80.5,-460.7 84.5,-466.7 80.5,-472.7"/>
<text text-anchor="middle" x="142.5" y="-482" font-family="Helvetica,sans-Serif" font-size="10.00"> #m_pickingRenderMode</text>
</g>
</g>
</svg>
