<?xml version="1.0" encoding="UTF-8" standalone="no"?>
<!DOCTYPE svg PUBLIC "-//W3C//DTD SVG 1.1//EN"
 "http://www.w3.org/Graphics/SVG/1.1/DTD/svg11.dtd">
<!-- Generated by graphviz version 2.43.0 (0)
 -->
<!-- Title: Ra::Core::Geometry::CatmullClarkSubdivider::prepare Pages: 1 -->
<svg width="546pt" height="350pt"
 viewBox="0.00 0.00 546.00 350.00" xmlns="http://www.w3.org/2000/svg" xmlns:xlink="http://www.w3.org/1999/xlink">
<g id="graph0" class="graph" transform="scale(1 1) rotate(0) translate(4 346)">
<title>Ra::Core::Geometry::CatmullClarkSubdivider::prepare</title>
<polygon fill="white" stroke="transparent" points="-4,4 -4,-346 542,-346 542,4 -4,4"/>
<!-- Node1 -->
<g id="node1" class="node">
<title>Node1</title>
<g id="a_node1"><a xlink:title=" ">
<polygon fill="#bfbfbf" stroke="black" points="0,-120.5 0,-161.5 138,-161.5 138,-120.5 0,-120.5"/>
<text text-anchor="start" x="8" y="-149.5" font-family="Helvetica,sans-Serif" font-size="10.00">Ra::Core::Geometry</text>
<text text-anchor="start" x="8" y="-138.5" font-family="Helvetica,sans-Serif" font-size="10.00">::CatmullClarkSubdivider</text>
<text text-anchor="middle" x="69" y="-127.5" font-family="Helvetica,sans-Serif" font-size="10.00">::prepare</text>
</a>
</g>
</g>
<!-- Node2 -->
<g id="node2" class="node">
<title>Node2</title>
<g id="a_node2"><a xlink:href="classRa_1_1Core_1_1Geometry_1_1deprecated_1_1TopologicalMesh.html#a7a0c534ac15da7dc3e4c07627b143d79" target="_top" xlink:title=" ">
<polygon fill="white" stroke="black" points="174,-150.5 174,-191.5 338,-191.5 338,-150.5 174,-150.5"/>
<text text-anchor="start" x="182" y="-179.5" font-family="Helvetica,sans-Serif" font-size="10.00">Ra::Core::Geometry</text>
<text text-anchor="start" x="182" y="-168.5" font-family="Helvetica,sans-Serif" font-size="10.00">::deprecated::TopologicalMesh</text>
<text text-anchor="middle" x="256" y="-157.5" font-family="Helvetica,sans-Serif" font-size="10.00">::createAllPropsOnFaces</text>
</a>
</g>
</g>
<!-- Node1&#45;&gt;Node2 -->
<g id="edge1" class="edge">
<title>Node1&#45;&gt;Node2</title>
<path fill="none" stroke="midnightblue" d="M138.1,-152.04C146.47,-153.4 155.12,-154.8 163.76,-156.2"/>
<polygon fill="midnightblue" stroke="midnightblue" points="163.45,-159.7 173.88,-157.85 164.57,-152.79 163.45,-159.7"/>
</g>
<!-- Node9 -->
<g id="node9" class="node">
<title>Node9</title>
<g id="a_node9"><a xlink:href="classRa_1_1Core_1_1Geometry_1_1deprecated_1_1TopologicalMesh.html#aaba0897eaabd141a25000b5f8efeb14c" target="_top" xlink:title=" ">
<polygon fill="white" stroke="black" points="174,-90.5 174,-131.5 338,-131.5 338,-90.5 174,-90.5"/>
<text text-anchor="start" x="182" y="-119.5" font-family="Helvetica,sans-Serif" font-size="10.00">Ra::Core::Geometry</text>
<text text-anchor="start" x="182" y="-108.5" font-family="Helvetica,sans-Serif" font-size="10.00">::deprecated::TopologicalMesh</text>
<text text-anchor="middle" x="256" y="-97.5" font-family="Helvetica,sans-Serif" font-size="10.00">::halfedge_handle</text>
</a>
</g>
</g>
<!-- Node1&#45;&gt;Node9 -->
<g id="edge8" class="edge">
<title>Node1&#45;&gt;Node9</title>
<path fill="none" stroke="midnightblue" d="M138.1,-129.96C146.47,-128.6 155.12,-127.2 163.76,-125.8"/>
<polygon fill="midnightblue" stroke="midnightblue" points="164.57,-129.21 173.88,-124.15 163.45,-122.3 164.57,-129.21"/>
</g>
<!-- Node3 -->
<g id="node3" class="node">
<title>Node3</title>
<g id="a_node3"><a xlink:href="classRa_1_1Core_1_1Geometry_1_1deprecated_1_1TopologicalMesh.html#a33aacc50dc2de71748ef7992115a5ed8" target="_top" xlink:title=" ">
<polygon fill="white" stroke="black" points="374,-300.5 374,-341.5 538,-341.5 538,-300.5 374,-300.5"/>
<text text-anchor="start" x="382" y="-329.5" font-family="Helvetica,sans-Serif" font-size="10.00">Ra::Core::Geometry</text>
<text text-anchor="start" x="382" y="-318.5" font-family="Helvetica,sans-Serif" font-size="10.00">::deprecated::TopologicalMesh</text>
<text text-anchor="middle" x="456" y="-307.5" font-family="Helvetica,sans-Serif" font-size="10.00">::createNormalPropOnFaces</text>
</a>
</g>
</g>
<!-- Node2&#45;&gt;Node3 -->
<g id="edge2" class="edge">
<title>Node2&#45;&gt;Node3</title>
<path fill="none" stroke="midnightblue" d="M272.26,-191.56C292.76,-217.89 331.55,-263.41 374,-291 376.56,-292.66 379.22,-294.25 381.96,-295.76"/>
<polygon fill="midnightblue" stroke="midnightblue" points="380.4,-298.9 390.9,-300.35 383.6,-292.67 380.4,-298.9"/>
</g>
<!-- Node4 -->
<g id="node4" class="node">
<title>Node4</title>
<g id="a_node4"><a xlink:href="classRa_1_1Core_1_1Geometry_1_1deprecated_1_1TopologicalMesh.html#ad17e4abf0f5c9a7f1ff25badaca3cf88" target="_top" xlink:title=" ">
<polygon fill="white" stroke="black" points="374,-240.5 374,-281.5 538,-281.5 538,-240.5 374,-240.5"/>
<text text-anchor="start" x="382" y="-269.5" font-family="Helvetica,sans-Serif" font-size="10.00">Ra::Core::Geometry</text>
<text text-anchor="start" x="382" y="-258.5" font-family="Helvetica,sans-Serif" font-size="10.00">::deprecated::TopologicalMesh</text>
<text text-anchor="middle" x="456" y="-247.5" font-family="Helvetica,sans-Serif" font-size="10.00">::createPropsOnFaces</text>
</a>
</g>
</g>
<!-- Node2&#45;&gt;Node4 -->
<g id="edge3" class="edge">
<title>Node2&#45;&gt;Node4</title>
<path fill="none" stroke="midnightblue" d="M294.39,-191.62C317.09,-203.77 346.83,-219.05 374,-231 378.32,-232.9 382.8,-234.79 387.34,-236.63"/>
<polygon fill="midnightblue" stroke="midnightblue" points="386.12,-239.91 396.7,-240.36 388.71,-233.41 386.12,-239.91"/>
</g>
<!-- Node5 -->
<g id="node5" class="node">
<title>Node5</title>
<g id="a_node5"><a xlink:href="classRa_1_1Core_1_1Geometry_1_1deprecated_1_1TopologicalMesh.html#a3055f5b695c770af0b6ca3c3c566503d" target="_top" xlink:title=" ">
<polygon fill="white" stroke="black" points="374,-180.5 374,-221.5 538,-221.5 538,-180.5 374,-180.5"/>
<text text-anchor="start" x="382" y="-209.5" font-family="Helvetica,sans-Serif" font-size="10.00">Ra::Core::Geometry</text>
<text text-anchor="start" x="382" y="-198.5" font-family="Helvetica,sans-Serif" font-size="10.00">::deprecated::TopologicalMesh</text>
<text text-anchor="middle" x="456" y="-187.5" font-family="Helvetica,sans-Serif" font-size="10.00">::getFloatPropsHandles</text>
</a>
</g>
</g>
<!-- Node2&#45;&gt;Node5 -->
<g id="edge4" class="edge">
<title>Node2&#45;&gt;Node5</title>
<path fill="none" stroke="midnightblue" d="M338.11,-183.29C346.55,-184.57 355.17,-185.87 363.72,-187.17"/>
<polygon fill="midnightblue" stroke="midnightblue" points="363.29,-190.64 373.7,-188.68 364.34,-183.72 363.29,-190.64"/>
</g>
<!-- Node6 -->
<g id="node6" class="node">
<title>Node6</title>
<g id="a_node6"><a xlink:href="classRa_1_1Core_1_1Geometry_1_1deprecated_1_1TopologicalMesh.html#a8883fedd70a8b0cde2ffe1ee5eb975bc" target="_top" xlink:title=" ">
<polygon fill="white" stroke="black" points="374,-120.5 374,-161.5 538,-161.5 538,-120.5 374,-120.5"/>
<text text-anchor="start" x="382" y="-149.5" font-family="Helvetica,sans-Serif" font-size="10.00">Ra::Core::Geometry</text>
<text text-anchor="start" x="382" y="-138.5" font-family="Helvetica,sans-Serif" font-size="10.00">::deprecated::TopologicalMesh</text>
<text text-anchor="middle" x="456" y="-127.5" font-family="Helvetica,sans-Serif" font-size="10.00">::getVector2PropsHandles</text>
</a>
</g>
</g>
<!-- Node2&#45;&gt;Node6 -->
<g id="edge5" class="edge">
<title>Node2&#45;&gt;Node6</title>
<path fill="none" stroke="midnightblue" d="M338.11,-158.71C346.55,-157.43 355.17,-156.13 363.72,-154.83"/>
<polygon fill="midnightblue" stroke="midnightblue" points="364.34,-158.28 373.7,-153.32 363.29,-151.36 364.34,-158.28"/>
</g>
<!-- Node7 -->
<g id="node7" class="node">
<title>Node7</title>
<g id="a_node7"><a xlink:href="classRa_1_1Core_1_1Geometry_1_1deprecated_1_1TopologicalMesh.html#a93dd725e26a93ba606cbffe113c3e671" target="_top" xlink:title=" ">
<polygon fill="white" stroke="black" points="374,-60.5 374,-101.5 538,-101.5 538,-60.5 374,-60.5"/>
<text text-anchor="start" x="382" y="-89.5" font-family="Helvetica,sans-Serif" font-size="10.00">Ra::Core::Geometry</text>
<text text-anchor="start" x="382" y="-78.5" font-family="Helvetica,sans-Serif" font-size="10.00">::deprecated::TopologicalMesh</text>
<text text-anchor="middle" x="456" y="-67.5" font-family="Helvetica,sans-Serif" font-size="10.00">::getVector3PropsHandles</text>
</a>
</g>
</g>
<!-- Node2&#45;&gt;Node7 -->
<g id="edge6" class="edge">
<title>Node2&#45;&gt;Node7</title>
<path fill="none" stroke="midnightblue" d="M319.47,-150.34C325.87,-147.5 332.16,-144.38 338,-141 356.03,-130.57 355.97,-121.43 374,-111 377.01,-109.26 380.14,-107.58 383.35,-105.98"/>
<polygon fill="midnightblue" stroke="midnightblue" points="384.98,-109.08 392.53,-101.66 381.99,-102.75 384.98,-109.08"/>
</g>
<!-- Node8 -->
<g id="node8" class="node">
<title>Node8</title>
<g id="a_node8"><a xlink:href="classRa_1_1Core_1_1Geometry_1_1deprecated_1_1TopologicalMesh.html#a8de03afcea2e0b23e9f368b0bc3f4611" target="_top" xlink:title=" ">
<polygon fill="white" stroke="black" points="374,-0.5 374,-41.5 538,-41.5 538,-0.5 374,-0.5"/>
<text text-anchor="start" x="382" y="-29.5" font-family="Helvetica,sans-Serif" font-size="10.00">Ra::Core::Geometry</text>
<text text-anchor="start" x="382" y="-18.5" font-family="Helvetica,sans-Serif" font-size="10.00">::deprecated::TopologicalMesh</text>
<text text-anchor="middle" x="456" y="-7.5" font-family="Helvetica,sans-Serif" font-size="10.00">::getVector4PropsHandles</text>
</a>
</g>
</g>
<!-- Node2&#45;&gt;Node8 -->
<g id="edge7" class="edge">
<title>Node2&#45;&gt;Node8</title>
<path fill="none" stroke="midnightblue" d="M325.86,-150.48C330.24,-147.7 334.35,-144.56 338,-141 368.85,-110.93 343.15,-81.07 374,-51 375.26,-49.78 376.56,-48.6 377.92,-47.48"/>
<polygon fill="midnightblue" stroke="midnightblue" points="380.1,-50.22 386.14,-41.52 375.99,-44.55 380.1,-50.22"/>
</g>
</g>
</svg>
