<?xml version="1.0" encoding="UTF-8" standalone="no"?>
<!DOCTYPE svg PUBLIC "-//W3C//DTD SVG 1.1//EN"
 "http://www.w3.org/Graphics/SVG/1.1/DTD/svg11.dtd">
<!-- Generated by graphviz version 2.43.0 (0)
 -->
<!-- Title: Ra::Engine::Rendering::RenderObject::render Pages: 1 -->
<svg width="913pt" height="198pt"
 viewBox="0.00 0.00 913.00 198.00" xmlns="http://www.w3.org/2000/svg" xmlns:xlink="http://www.w3.org/1999/xlink">
<g id="graph0" class="graph" transform="scale(1 1) rotate(0) translate(4 194)">
<title>Ra::Engine::Rendering::RenderObject::render</title>
<polygon fill="white" stroke="transparent" points="-4,4 -4,-194 909,-194 909,4 -4,4"/>
<!-- Node1 -->
<g id="node1" class="node">
<title>Node1</title>
<g id="a_node1"><a xlink:title=" ">
<polygon fill="#bfbfbf" stroke="black" points="0,-106.5 0,-136.5 126,-136.5 126,-106.5 0,-106.5"/>
<text text-anchor="start" x="8" y="-124.5" font-family="Helvetica,sans-Serif" font-size="10.00">Ra::Engine::Rendering</text>
<text text-anchor="middle" x="63" y="-113.5" font-family="Helvetica,sans-Serif" font-size="10.00">::RenderObject::render</text>
</a>
</g>
</g>
<!-- Node2 -->
<g id="node2" class="node">
<title>Node2</title>
<g id="a_node2"><a xlink:href="classRa_1_1Engine_1_1Rendering_1_1RenderObject.html#a227614044bc14f4ee03de697bba67643" target="_top" xlink:title=" ">
<polygon fill="white" stroke="black" points="162,-131.5 162,-161.5 356,-161.5 356,-131.5 162,-131.5"/>
<text text-anchor="start" x="170" y="-149.5" font-family="Helvetica,sans-Serif" font-size="10.00">Ra::Engine::Rendering</text>
<text text-anchor="middle" x="259" y="-138.5" font-family="Helvetica,sans-Serif" font-size="10.00">::RenderObject::getRenderTechnique</text>
</a>
</g>
</g>
<!-- Node1&#45;&gt;Node2 -->
<g id="edge1" class="edge">
<title>Node1&#45;&gt;Node2</title>
<path fill="none" stroke="midnightblue" d="M126.18,-129.51C134.48,-130.58 143.16,-131.7 151.95,-132.83"/>
<polygon fill="midnightblue" stroke="midnightblue" points="151.53,-136.31 161.89,-134.12 152.42,-129.37 151.53,-136.31"/>
</g>
<!-- Node3 -->
<g id="node3" class="node">
<title>Node3</title>
<g id="a_node3"><a xlink:href="classRa_1_1Engine_1_1Rendering_1_1RenderObject.html#a676f4e9e17938dca3b6740c43cd3a964" target="_top" xlink:title=" ">
<polygon fill="white" stroke="black" points="196,-82.5 196,-112.5 322,-112.5 322,-82.5 196,-82.5"/>
<text text-anchor="start" x="204" y="-100.5" font-family="Helvetica,sans-Serif" font-size="10.00">Ra::Engine::Rendering</text>
<text text-anchor="middle" x="259" y="-89.5" font-family="Helvetica,sans-Serif" font-size="10.00">::RenderObject::render</text>
</a>
</g>
</g>
<!-- Node1&#45;&gt;Node3 -->
<g id="edge2" class="edge">
<title>Node1&#45;&gt;Node3</title>
<path fill="none" stroke="midnightblue" d="M126.18,-113.81C145.15,-111.46 166.17,-108.86 185.75,-106.44"/>
<polygon fill="midnightblue" stroke="midnightblue" points="186.34,-109.89 195.84,-105.19 185.48,-102.94 186.34,-109.89"/>
</g>
<!-- Node4 -->
<g id="node4" class="node">
<title>Node4</title>
<g id="a_node4"><a xlink:href="classRa_1_1Engine_1_1Data_1_1ShaderProgram.html#a9dfb84794bbcd246d93413cfe64dcec0" target="_top" xlink:title=" ">
<polygon fill="white" stroke="black" points="403,-159.5 403,-189.5 540,-189.5 540,-159.5 403,-159.5"/>
<text text-anchor="start" x="411" y="-177.5" font-family="Helvetica,sans-Serif" font-size="10.00">Ra::Engine::Data::Shader</text>
<text text-anchor="middle" x="471.5" y="-166.5" font-family="Helvetica,sans-Serif" font-size="10.00">Program::bind</text>
</a>
</g>
</g>
<!-- Node3&#45;&gt;Node4 -->
<g id="edge3" class="edge">
<title>Node3&#45;&gt;Node4</title>
<path fill="none" stroke="midnightblue" d="M322.03,-109.7C333.63,-113.07 345.42,-117.28 356,-122.5 374.18,-131.46 374.01,-141.16 392,-150.5 395.53,-152.33 399.22,-154.05 402.99,-155.66"/>
<polygon fill="midnightblue" stroke="midnightblue" points="401.93,-159 412.51,-159.42 404.5,-152.49 401.93,-159"/>
</g>
<!-- Node5 -->
<g id="node5" class="node">
<title>Node5</title>
<g id="a_node5"><a xlink:href="classRa_1_1Engine_1_1Data_1_1RenderParameters.html#a6a3e5cfdb4ee0618fcdfd72eaac72c98" target="_top" xlink:title=" ">
<polygon fill="white" stroke="black" points="402.5,-110.5 402.5,-140.5 540.5,-140.5 540.5,-110.5 402.5,-110.5"/>
<text text-anchor="start" x="410.5" y="-128.5" font-family="Helvetica,sans-Serif" font-size="10.00">Ra::Engine::Data::Render</text>
<text text-anchor="middle" x="471.5" y="-117.5" font-family="Helvetica,sans-Serif" font-size="10.00">Parameters::bind</text>
</a>
</g>
</g>
<!-- Node3&#45;&gt;Node5 -->
<g id="edge4" class="edge">
<title>Node3&#45;&gt;Node5</title>
<path fill="none" stroke="midnightblue" d="M322.02,-105.75C343.99,-108.67 369.01,-112 392.16,-115.08"/>
<polygon fill="midnightblue" stroke="midnightblue" points="391.93,-118.58 402.3,-116.43 392.85,-111.64 391.93,-118.58"/>
</g>
<!-- Node6 -->
<g id="node6" class="node">
<title>Node6</title>
<g id="a_node6"><a xlink:href="classRa_1_1Engine_1_1Rendering_1_1RenderObject.html#a79c5b60ed70f48e05e73c6caf40c5dce" target="_top" xlink:title=" ">
<polygon fill="white" stroke="black" points="392,-50 392,-91 551,-91 551,-50 392,-50"/>
<text text-anchor="start" x="400" y="-79" font-family="Helvetica,sans-Serif" font-size="10.00">Ra::Engine::Rendering</text>
<text text-anchor="start" x="400" y="-68" font-family="Helvetica,sans-Serif" font-size="10.00">::RenderObject::getTransform</text>
<text text-anchor="middle" x="471.5" y="-57" font-family="Helvetica,sans-Serif" font-size="10.00">AsMatrix</text>
</a>
</g>
</g>
<!-- Node3&#45;&gt;Node6 -->
<g id="edge5" class="edge">
<title>Node3&#45;&gt;Node6</title>
<path fill="none" stroke="midnightblue" d="M322.02,-89.55C340.69,-87.15 361.56,-84.47 381.62,-81.9"/>
<polygon fill="midnightblue" stroke="midnightblue" points="382.23,-85.35 391.71,-80.61 381.34,-78.41 382.23,-85.35"/>
</g>
<!-- Node10 -->
<g id="node10" class="node">
<title>Node10</title>
<g id="a_node10"><a xlink:href="classRa_1_1Engine_1_1Data_1_1ShaderProgram.html#a02b209f3800adee9a6b039dc8c8d5f62" target="_top" xlink:title="Uniform setters.">
<polygon fill="white" stroke="black" points="403,-0.5 403,-30.5 540,-30.5 540,-0.5 403,-0.5"/>
<text text-anchor="start" x="411" y="-18.5" font-family="Helvetica,sans-Serif" font-size="10.00">Ra::Engine::Data::Shader</text>
<text text-anchor="middle" x="471.5" y="-7.5" font-family="Helvetica,sans-Serif" font-size="10.00">Program::setUniform</text>
</a>
</g>
</g>
<!-- Node3&#45;&gt;Node10 -->
<g id="edge9" class="edge">
<title>Node3&#45;&gt;Node10</title>
<path fill="none" stroke="midnightblue" d="M292.45,-82.41C318.95,-70.36 357.52,-53.4 392,-40.5 397.98,-38.26 404.26,-36.05 410.55,-33.91"/>
<polygon fill="midnightblue" stroke="midnightblue" points="412.03,-37.11 420.41,-30.63 409.82,-30.47 412.03,-37.11"/>
</g>
<!-- Node7 -->
<g id="node7" class="node">
<title>Node7</title>
<g id="a_node7"><a xlink:href="classRa_1_1Engine_1_1Rendering_1_1RenderObject.html#a035f4dc2b719ab18b7417ff33b986f18" target="_top" xlink:title=" ">
<polygon fill="white" stroke="black" points="587,-55.5 587,-85.5 746,-85.5 746,-55.5 587,-55.5"/>
<text text-anchor="start" x="595" y="-73.5" font-family="Helvetica,sans-Serif" font-size="10.00">Ra::Engine::Rendering</text>
<text text-anchor="middle" x="666.5" y="-62.5" font-family="Helvetica,sans-Serif" font-size="10.00">::RenderObject::getTransform</text>
</a>
</g>
</g>
<!-- Node6&#45;&gt;Node7 -->
<g id="edge6" class="edge">
<title>Node6&#45;&gt;Node7</title>
<path fill="none" stroke="midnightblue" d="M551,-70.5C559.48,-70.5 568.14,-70.5 576.73,-70.5"/>
<polygon fill="midnightblue" stroke="midnightblue" points="576.76,-74 586.76,-70.5 576.76,-67 576.76,-74"/>
</g>
<!-- Node8 -->
<g id="node8" class="node">
<title>Node8</title>
<g id="a_node8"><a xlink:href="classRa_1_1Engine_1_1Scene_1_1Component.html#aaaac457b6b1c62d618f626c9c6771ad2" target="_top" xlink:title="Return the entity the component belongs to.">
<polygon fill="white" stroke="black" points="782,-80.5 782,-110.5 905,-110.5 905,-80.5 782,-80.5"/>
<text text-anchor="start" x="790" y="-98.5" font-family="Helvetica,sans-Serif" font-size="10.00">Ra::Engine::Scene::</text>
<text text-anchor="middle" x="843.5" y="-87.5" font-family="Helvetica,sans-Serif" font-size="10.00">Component::getEntity</text>
</a>
</g>
</g>
<!-- Node7&#45;&gt;Node8 -->
<g id="edge7" class="edge">
<title>Node7&#45;&gt;Node8</title>
<path fill="none" stroke="midnightblue" d="M746.04,-81.72C754.57,-82.94 763.21,-84.17 771.64,-85.38"/>
<polygon fill="midnightblue" stroke="midnightblue" points="771.4,-88.88 781.79,-86.83 772.39,-81.95 771.4,-88.88"/>
</g>
<!-- Node9 -->
<g id="node9" class="node">
<title>Node9</title>
<g id="a_node9"><a xlink:href="classRa_1_1Engine_1_1Scene_1_1Entity.html#ae5cd18623e1aca8045a05e32ecdff6e6" target="_top" xlink:title=" ">
<polygon fill="white" stroke="black" points="786,-31.5 786,-61.5 901,-61.5 901,-31.5 786,-31.5"/>
<text text-anchor="start" x="794" y="-49.5" font-family="Helvetica,sans-Serif" font-size="10.00">Ra::Engine::Scene::</text>
<text text-anchor="middle" x="843.5" y="-38.5" font-family="Helvetica,sans-Serif" font-size="10.00">Entity::getTransform</text>
</a>
</g>
</g>
<!-- Node7&#45;&gt;Node9 -->
<g id="edge8" class="edge">
<title>Node7&#45;&gt;Node9</title>
<path fill="none" stroke="midnightblue" d="M746.04,-59.73C756.02,-58.36 766.16,-56.97 775.93,-55.63"/>
<polygon fill="midnightblue" stroke="midnightblue" points="776.52,-59.08 785.95,-54.26 775.57,-52.15 776.52,-59.08"/>
</g>
</g>
</svg>
