<?xml version="1.0" encoding="UTF-8" standalone="no"?>
<!DOCTYPE svg PUBLIC "-//W3C//DTD SVG 1.1//EN"
 "http://www.w3.org/Graphics/SVG/1.1/DTD/svg11.dtd">
<!-- Generated by graphviz version 2.43.0 (0)
 -->
<!-- Title: Ra::Gui::Gizmo Pages: 1 -->
<!--zoomable 472 -->

<svg id="main" version="1.1" xmlns="http://www.w3.org/2000/svg" xmlns:xlink="http://www.w3.org/1999/xlink" xml:space="preserve" onload="init(evt)">

<style type="text/css"><![CDATA[
.node, .edge {opacity: 0.7;}
.node.selected, .edge.selected {opacity: 1;}
.edge:hover path { stroke: red; }
.edge:hover polygon { stroke: red; fill: red; }
]]></style>

<defs>
  <circle id="rim" cx="0" cy="0" r="7"/>
  <circle id="rim2" cx="0" cy="0" r="3.5"/>
  <g id="zoomPlus">
    <use xlink:href="#rim" fill="#404040"><set attributeName="fill" to="#808080" begin="zoomplus.mouseover" end="zoomplus.mouseout"/></use>
    <path d="M-4,0h8M0,-4v8" fill="none" stroke="white" stroke-width="1.5" pointer-events="none"/>
  </g>
  <g id="zoomMin">
    <use xlink:href="#rim" fill="#404040"><set attributeName="fill" to="#808080" begin="zoomminus.mouseover" end="zoomminus.mouseout"/></use>
    <path d="M-4,0h8" fill="none" stroke="white" stroke-width="1.5" pointer-events="none"/>
  </g>
  <g id="arrowUp" transform="translate(30 24)">
    <use xlink:href="#rim"/>
    <path pointer-events="none" fill="none" stroke="white" stroke-width="1.5" d="M0,-3.0v7 M-2.5,-0.5L0,-3.0L2.5,-0.5"/>
  </g>
  <g id="arrowRight" transform="rotate(90) translate(36 -43)">
    <use xlink:href="#rim"/>
    <path pointer-events="none" fill="none" stroke="white" stroke-width="1.5" d="M0,-3.0v7 M-2.5,-0.5L0,-3.0L2.5,-0.5"/>
  </g>
  <g id="arrowDown" transform="rotate(180) translate(-30 -48)">
    <use xlink:href="#rim"/>
    <path pointer-events="none" fill="none" stroke="white" stroke-width="1.5" d="M0,-3.0v7 M-2.5,-0.5L0,-3.0L2.5,-0.5"/>
  </g>
  <g id="arrowLeft" transform="rotate(270) translate(-36 17)">
    <use xlink:href="#rim"/>
    <path pointer-events="none" fill="none" stroke="white" stroke-width="1.5" d="M0,-3.0v7 M-2.5,-0.5L0,-3.0L2.5,-0.5"/>
  </g>
  <g id="resetDef">
    <use xlink:href="#rim2" fill="#404040"><set attributeName="fill" to="#808080" begin="reset.mouseover" end="reset.mouseout"/></use>
  </g>
</defs>
<script type="application/ecmascript">
var viewWidth = 400;
var viewHeight = 472;
var sectionId = 'dynsection-0';
</script>
<script type="application/ecmascript" xlink:href="svg.min.js"/>
<svg id="graph" class="graph">
<g id="viewport">
<title>Ra::Gui::Gizmo</title>
<!-- Node1 -->
<g id="Node000001" class="node">
<title>Node1</title>
<g id="a_Node000001"><a xlink:title=" ">
<polygon fill="#999999" stroke="transparent" points="259.5,-464 120.5,-464 120.5,-160 259.5,-160 259.5,-464"/>
<text text-anchor="start" x="154" y="-452" font-family="Helvetica,sans-Serif" font-size="10.00">Ra::Gui::Gizmo</text>
<text text-anchor="start" x="125" y="-437" font-family="Helvetica,sans-Serif" font-size="10.00">#</text>
<text text-anchor="start" x="138" y="-437" font-family="Helvetica,sans-Serif" font-size="10.00">m_worldTo</text>
<text text-anchor="start" x="125" y="-422" font-family="Helvetica,sans-Serif" font-size="10.00">#</text>
<text text-anchor="start" x="138" y="-422" font-family="Helvetica,sans-Serif" font-size="10.00">m_transform</text>
<text text-anchor="start" x="125" y="-407" font-family="Helvetica,sans-Serif" font-size="10.00">#</text>
<text text-anchor="start" x="138" y="-407" font-family="Helvetica,sans-Serif" font-size="10.00">m_comp</text>
<text text-anchor="start" x="125" y="-392" font-family="Helvetica,sans-Serif" font-size="10.00">#</text>
<text text-anchor="start" x="138" y="-392" font-family="Helvetica,sans-Serif" font-size="10.00">m_mode</text>
<text text-anchor="start" x="125" y="-377" font-family="Helvetica,sans-Serif" font-size="10.00">#</text>
<text text-anchor="start" x="138" y="-377" font-family="Helvetica,sans-Serif" font-size="10.00">s_material</text>
<text text-anchor="start" x="125" y="-362" font-family="Helvetica,sans-Serif" font-size="10.00">+</text>
<text text-anchor="start" x="138" y="-362" font-family="Helvetica,sans-Serif" font-size="10.00">Gizmo()</text>
<text text-anchor="start" x="125" y="-347" font-family="Helvetica,sans-Serif" font-size="10.00">+</text>
<text text-anchor="start" x="138" y="-347" font-family="Helvetica,sans-Serif" font-size="10.00">~Gizmo()</text>
<text text-anchor="start" x="125" y="-332" font-family="Helvetica,sans-Serif" font-size="10.00">+</text>
<text text-anchor="start" x="138" y="-332" font-family="Helvetica,sans-Serif" font-size="10.00">show()</text>
<text text-anchor="start" x="125" y="-317" font-family="Helvetica,sans-Serif" font-size="10.00">+</text>
<text text-anchor="start" x="138" y="-317" font-family="Helvetica,sans-Serif" font-size="10.00">updateTransform()</text>
<text text-anchor="start" x="125" y="-302" font-family="Helvetica,sans-Serif" font-size="10.00">+</text>
<text text-anchor="start" x="138" y="-302" font-family="Helvetica,sans-Serif" font-size="10.00">selectConstraint()</text>
<text text-anchor="start" x="125" y="-287" font-family="Helvetica,sans-Serif" font-size="10.00">+</text>
<text text-anchor="start" x="138" y="-287" font-family="Helvetica,sans-Serif" font-size="10.00">isSelected()</text>
<text text-anchor="start" x="125" y="-272" font-family="Helvetica,sans-Serif" font-size="10.00">+</text>
<text text-anchor="start" x="138" y="-272" font-family="Helvetica,sans-Serif" font-size="10.00">setInitialState()</text>
<text text-anchor="start" x="125" y="-257" font-family="Helvetica,sans-Serif" font-size="10.00">+</text>
<text text-anchor="start" x="138" y="-257" font-family="Helvetica,sans-Serif" font-size="10.00">mouseMove()</text>
<text text-anchor="start" x="125" y="-242" font-family="Helvetica,sans-Serif" font-size="10.00">#</text>
<text text-anchor="start" x="138" y="-242" font-family="Helvetica,sans-Serif" font-size="10.00">ros()</text>
<text text-anchor="start" x="125" y="-227" font-family="Helvetica,sans-Serif" font-size="10.00">#</text>
<text text-anchor="start" x="138" y="-227" font-family="Helvetica,sans-Serif" font-size="10.00">addRenderObject()</text>
<text text-anchor="start" x="125" y="-212" font-family="Helvetica,sans-Serif" font-size="10.00">#</text>
<text text-anchor="start" x="138" y="-212" font-family="Helvetica,sans-Serif" font-size="10.00">getControler()</text>
<text text-anchor="start" x="125" y="-197" font-family="Helvetica,sans-Serif" font-size="10.00">#</text>
<text text-anchor="start" x="138" y="-197" font-family="Helvetica,sans-Serif" font-size="10.00">findPointOnAxis()</text>
<text text-anchor="start" x="125" y="-182" font-family="Helvetica,sans-Serif" font-size="10.00">#</text>
<text text-anchor="start" x="138" y="-182" font-family="Helvetica,sans-Serif" font-size="10.00">findPointOnPlane()</text>
<text text-anchor="start" x="125" y="-167" font-family="Helvetica,sans-Serif" font-size="10.00">#</text>
<text text-anchor="start" x="138" y="-167" font-family="Helvetica,sans-Serif" font-size="10.00">makeRenderTechnique()</text>
<polygon fill="#666666" stroke="#666666" points="121,-447 121,-447 260,-447 260,-447 121,-447"/>
<polygon fill="#666666" stroke="#666666" points="121,-372 121,-372 136,-372 136,-372 121,-372"/>
<polygon fill="#666666" stroke="#666666" points="136,-372 136,-372 260,-372 260,-372 136,-372"/>
<polygon fill="none" stroke="#666666" points="120.5,-160 120.5,-464 259.5,-464 259.5,-160 120.5,-160"/>
</a>
</g>
</g>
<!-- Node2 -->
<g id="Node000002" class="node">
<title>Node2</title>
<g id="a_Node000002"><a xlink:href="classRa_1_1Gui_1_1RotateGizmo.html" target="_top" xlink:title="A RotateGizmo manipulates the rotational part of a transformation.">
<polygon fill="white" stroke="transparent" points="116,-124 0,-124 0,0 116,0 116,-124"/>
<text text-anchor="start" x="5" y="-112" font-family="Helvetica,sans-Serif" font-size="10.00">Ra::Gui::RotateGizmo</text>
<text text-anchor="start" x="56" y="-97" font-family="Helvetica,sans-Serif" font-size="10.00"> </text>
<text text-anchor="start" x="5" y="-82" font-family="Helvetica,sans-Serif" font-size="10.00">+</text>
<text text-anchor="start" x="19" y="-82" font-family="Helvetica,sans-Serif" font-size="10.00">RotateGizmo()</text>
<text text-anchor="start" x="5" y="-67" font-family="Helvetica,sans-Serif" font-size="10.00">+</text>
<text text-anchor="start" x="19" y="-67" font-family="Helvetica,sans-Serif" font-size="10.00">updateTransform()</text>
<text text-anchor="start" x="5" y="-52" font-family="Helvetica,sans-Serif" font-size="10.00">+</text>
<text text-anchor="start" x="19" y="-52" font-family="Helvetica,sans-Serif" font-size="10.00">selectConstraint()</text>
<text text-anchor="start" x="5" y="-37" font-family="Helvetica,sans-Serif" font-size="10.00">+</text>
<text text-anchor="start" x="19" y="-37" font-family="Helvetica,sans-Serif" font-size="10.00">isSelected()</text>
<text text-anchor="start" x="5" y="-22" font-family="Helvetica,sans-Serif" font-size="10.00">+</text>
<text text-anchor="start" x="19" y="-22" font-family="Helvetica,sans-Serif" font-size="10.00">setInitialState()</text>
<text text-anchor="start" x="5" y="-7" font-family="Helvetica,sans-Serif" font-size="10.00">+</text>
<text text-anchor="start" x="19" y="-7" font-family="Helvetica,sans-Serif" font-size="10.00">mouseMove()</text>
<polygon fill="#666666" stroke="#666666" points="0,-107 0,-107 116,-107 116,-107 0,-107"/>
<polygon fill="#666666" stroke="#666666" points="0,-92 0,-92 116,-92 116,-92 0,-92"/>
<polygon fill="none" stroke="#666666" points="0,0 0,-124 116,-124 116,0 0,0"/>
</a>
</g>
</g>
<!-- Node1&#45;&gt;Node2 -->
<g id="edge1_Node000001_Node000002" class="edge">
<title>Node1&#45;&gt;Node2</title>
<g id="a_edge1_Node000001_Node000002"><a xlink:title=" ">
<path fill="none" stroke="#63b8ff" d="M115.46,-170.96C106.73,-154.55 98.2,-138.53 90.5,-124.06"/>
<polygon fill="none" stroke="#63b8ff" points="112.54,-172.92 120.33,-180.1 118.72,-169.63 112.54,-172.92"/>
</a>
</g>
</g>
<!-- Node3 -->
<g id="Node000003" class="node">
<title>Node3</title>
<g id="a_Node000003"><a xlink:href="classRa_1_1Gui_1_1ScaleGizmo.html" target="_top" xlink:title=" ">
<polygon fill="white" stroke="transparent" points="246,-124 134,-124 134,0 246,0 246,-124"/>
<text text-anchor="start" x="140" y="-112" font-family="Helvetica,sans-Serif" font-size="10.00">Ra::Gui::ScaleGizmo</text>
<text text-anchor="start" x="188" y="-97" font-family="Helvetica,sans-Serif" font-size="10.00"> </text>
<text text-anchor="start" x="138" y="-82" font-family="Helvetica,sans-Serif" font-size="10.00">+</text>
<text text-anchor="start" x="151" y="-82" font-family="Helvetica,sans-Serif" font-size="10.00">ScaleGizmo()</text>
<text text-anchor="start" x="138" y="-67" font-family="Helvetica,sans-Serif" font-size="10.00">+</text>
<text text-anchor="start" x="151" y="-67" font-family="Helvetica,sans-Serif" font-size="10.00">updateTransform()</text>
<text text-anchor="start" x="138" y="-52" font-family="Helvetica,sans-Serif" font-size="10.00">+</text>
<text text-anchor="start" x="151" y="-52" font-family="Helvetica,sans-Serif" font-size="10.00">selectConstraint()</text>
<text text-anchor="start" x="138" y="-37" font-family="Helvetica,sans-Serif" font-size="10.00">+</text>
<text text-anchor="start" x="151" y="-37" font-family="Helvetica,sans-Serif" font-size="10.00">isSelected()</text>
<text text-anchor="start" x="138" y="-22" font-family="Helvetica,sans-Serif" font-size="10.00">+</text>
<text text-anchor="start" x="151" y="-22" font-family="Helvetica,sans-Serif" font-size="10.00">setInitialState()</text>
<text text-anchor="start" x="138" y="-7" font-family="Helvetica,sans-Serif" font-size="10.00">+</text>
<text text-anchor="start" x="151" y="-7" font-family="Helvetica,sans-Serif" font-size="10.00">mouseMove()</text>
<polygon fill="#666666" stroke="#666666" points="134,-107 134,-107 246,-107 246,-107 134,-107"/>
<polygon fill="#666666" stroke="#666666" points="134,-92 134,-92 246,-92 246,-92 134,-92"/>
<polygon fill="none" stroke="#666666" points="134,0 134,-124 246,-124 246,0 134,0"/>
</a>
</g>
</g>
<!-- Node1&#45;&gt;Node3 -->
<g id="edge2_Node000001_Node000003" class="edge">
<title>Node1&#45;&gt;Node3</title>
<g id="a_edge2_Node000001_Node000003"><a xlink:title=" ">
<path fill="none" stroke="#63b8ff" d="M190,-149.76C190,-140.83 190,-132.19 190,-124.04"/>
<polygon fill="none" stroke="#63b8ff" points="186.5,-149.95 190,-159.95 193.5,-149.95 186.5,-149.95"/>
</a>
</g>
</g>
<!-- Node4 -->
<g id="Node000004" class="node">
<title>Node4</title>
<g id="a_Node000004"><a xlink:href="classRa_1_1Gui_1_1TranslateGizmo.html" target="_top" xlink:title="A TranslateGizmo manipulates the translational part of a transformation.">
<polygon fill="white" stroke="transparent" points="392,-124 264,-124 264,0 392,0 392,-124"/>
<text text-anchor="start" x="269" y="-112" font-family="Helvetica,sans-Serif" font-size="10.00">Ra::Gui::TranslateGizmo</text>
<text text-anchor="start" x="326" y="-97" font-family="Helvetica,sans-Serif" font-size="10.00"> </text>
<text text-anchor="start" x="272" y="-82" font-family="Helvetica,sans-Serif" font-size="10.00">+</text>
<text text-anchor="start" x="289" y="-82" font-family="Helvetica,sans-Serif" font-size="10.00">TranslateGizmo()</text>
<text text-anchor="start" x="272" y="-67" font-family="Helvetica,sans-Serif" font-size="10.00">+</text>
<text text-anchor="start" x="289" y="-67" font-family="Helvetica,sans-Serif" font-size="10.00">updateTransform()</text>
<text text-anchor="start" x="272" y="-52" font-family="Helvetica,sans-Serif" font-size="10.00">+</text>
<text text-anchor="start" x="289" y="-52" font-family="Helvetica,sans-Serif" font-size="10.00">selectConstraint()</text>
<text text-anchor="start" x="272" y="-37" font-family="Helvetica,sans-Serif" font-size="10.00">+</text>
<text text-anchor="start" x="289" y="-37" font-family="Helvetica,sans-Serif" font-size="10.00">isSelected()</text>
<text text-anchor="start" x="272" y="-22" font-family="Helvetica,sans-Serif" font-size="10.00">+</text>
<text text-anchor="start" x="289" y="-22" font-family="Helvetica,sans-Serif" font-size="10.00">setInitialState()</text>
<text text-anchor="start" x="272" y="-7" font-family="Helvetica,sans-Serif" font-size="10.00">+</text>
<text text-anchor="start" x="289" y="-7" font-family="Helvetica,sans-Serif" font-size="10.00">mouseMove()</text>
<polygon fill="#666666" stroke="#666666" points="264,-107 264,-107 392,-107 392,-107 264,-107"/>
<polygon fill="#666666" stroke="#666666" points="264,-92 264,-92 392,-92 392,-92 264,-92"/>
<polygon fill="none" stroke="#666666" points="264,0 264,-124 392,-124 392,0 264,0"/>
</a>
</g>
</g>
<!-- Node1&#45;&gt;Node4 -->
<g id="edge3_Node000001_Node000004" class="edge">
<title>Node1&#45;&gt;Node4</title>
<g id="a_edge3_Node000001_Node000004"><a xlink:title=" ">
<path fill="none" stroke="#63b8ff" d="M264.52,-177.08C274.84,-158.53 285,-140.28 294.06,-124"/>
<polygon fill="none" stroke="#63b8ff" points="261.41,-175.47 259.61,-185.91 267.53,-178.87 261.41,-175.47"/>
</a>
</g>
</g>
</g>
</svg>

<g id="navigator" transform="translate(0 0)" fill="#404254">
  <rect fill="#f2f5e9" fill-opacity="0.5" stroke="#606060" stroke-width=".5" x="0" y="0" width="60" height="60"/>
  <use id="zoomplus" xlink:href="#zoomPlus" x="17" y="9" onmousedown="handleZoom(evt,'in')"/>
  <use id="zoomminus" xlink:href="#zoomMin" x="42" y="9" onmousedown="handleZoom(evt,'out')"/>
  <use id="reset" xlink:href="#resetDef" x="30" y="36" onmousedown="handleReset()"/>
   <use id="arrowup" xlink:href="#arrowUp" x="0" y="0" onmousedown="handlePan(0,-1)"/>
  <use id="arrowright" xlink:href="#arrowRight" x="0" y="0" onmousedown="handlePan(1,0)"/>
  <use id="arrowdown" xlink:href="#arrowDown" x="0" y="0" onmousedown="handlePan(0,1)"/>
  <use id="arrowleft" xlink:href="#arrowLeft" x="0" y="0" onmousedown="handlePan(-1,0)"/>
</g>
<svg viewBox="0 0 15 15" width="100%" height="30px" preserveAspectRatio="xMaxYMin meet">
 <g id="arrow_out" transform="scale(0.3 0.3)">
  <a xlink:href="classRa_1_1Gui_1_1Gizmo__inherit__graph_org.svg" target="_base">
   <rect id="button" ry="5" rx="5" y="6" x="6" height="38" width="38"
        fill="#f2f5e9" fill-opacity="0.5" stroke="#606060" stroke-width="1.0"/>
   <path id="arrow"
     d="M 11.500037,31.436501 C 11.940474,20.09759 22.043105,11.32322 32.158766,21.979434 L 37.068811,17.246167 C 37.068811,17.246167 37.088388,32 37.088388,32 L 22.160133,31.978069 C 22.160133,31.978069 26.997745,27.140456 26.997745,27.140456 C 18.528582,18.264221 13.291696,25.230495 11.500037,31.436501 z"
     style="fill:#404040;"/>
  </a>
 </g>
</svg>

<style type='text/css'>
<![CDATA[
[data-mouse-over-selected='false'] { opacity: 0.7; }
[data-mouse-over-selected='true']  { opacity: 1.0; }
]]>
</style>
<script type="application/ecmascript"><![CDATA[
document.addEventListener('DOMContentLoaded', (event) => {
  highlightEdges();
  highlightAdjacentNodes();
});
]]></script>
</svg>
