<?xml version="1.0" encoding="UTF-8" standalone="no"?>
<!DOCTYPE svg PUBLIC "-//W3C//DTD SVG 1.1//EN"
 "http://www.w3.org/Graphics/SVG/1.1/DTD/svg11.dtd">
<!-- Generated by graphviz version 2.43.0 (0)
 -->
<!-- Title: Ra::Engine::Scene::SurfaceMeshComponent&lt; CoreMeshType &gt; Pages: 1 -->
<svg width="168pt" height="766pt"
 viewBox="0.00 0.00 168.00 766.00" xmlns="http://www.w3.org/2000/svg" xmlns:xlink="http://www.w3.org/1999/xlink">
<g id="graph0" class="graph" transform="scale(1 1) rotate(0) translate(4 762)">
<title>Ra::Engine::Scene::SurfaceMeshComponent&lt; CoreMeshType &gt;</title>
<!-- Node1 -->
<g id="Node000001" class="node">
<title>Node1</title>
<g id="a_Node000001"><a xlink:title="Main class to convert Ra::Core::Asset::GeometryData to Ra::Engine::Mesh.">
<polygon fill="#999999" stroke="transparent" points="158.5,-191 1.5,-191 1.5,0 158.5,0 158.5,-191"/>
<text text-anchor="start" x="20.5" y="-178.5" font-family="Helvetica,sans-Serif" font-size="10.00">Ra::Engine::Scene::</text>
<text text-anchor="start" x="20.5" y="-167.5" font-family="Helvetica,sans-Serif" font-size="10.00">SurfaceMeshComponent</text>
<text text-anchor="start" x="33.5" y="-156.5" font-family="Helvetica,sans-Serif" font-size="10.00">&lt; CoreMeshType &gt;</text>
<text text-anchor="start" x="78.5" y="-141.5" font-family="Helvetica,sans-Serif" font-size="10.00"> </text>
<text text-anchor="start" x="6" y="-126.5" font-family="Helvetica,sans-Serif" font-size="10.00">+</text>
<text text-anchor="start" x="19" y="-126.5" font-family="Helvetica,sans-Serif" font-size="10.00">SurfaceMeshComponent()</text>
<text text-anchor="start" x="6" y="-111.5" font-family="Helvetica,sans-Serif" font-size="10.00">+</text>
<text text-anchor="start" x="19" y="-111.5" font-family="Helvetica,sans-Serif" font-size="10.00">SurfaceMeshComponent()</text>
<text text-anchor="start" x="6" y="-96.5" font-family="Helvetica,sans-Serif" font-size="10.00">+</text>
<text text-anchor="start" x="19" y="-96.5" font-family="Helvetica,sans-Serif" font-size="10.00">SurfaceMeshComponent()</text>
<text text-anchor="start" x="6" y="-81.5" font-family="Helvetica,sans-Serif" font-size="10.00">+</text>
<text text-anchor="start" x="19" y="-81.5" font-family="Helvetica,sans-Serif" font-size="10.00">SurfaceMeshComponent()</text>
<text text-anchor="start" x="6" y="-66.5" font-family="Helvetica,sans-Serif" font-size="10.00">+</text>
<text text-anchor="start" x="19" y="-66.5" font-family="Helvetica,sans-Serif" font-size="10.00">~SurfaceMeshComponent()</text>
<text text-anchor="start" x="6" y="-51.5" font-family="Helvetica,sans-Serif" font-size="10.00">+</text>
<text text-anchor="start" x="19" y="-51.5" font-family="Helvetica,sans-Serif" font-size="10.00">getCoreGeometry()</text>
<text text-anchor="start" x="6" y="-36.5" font-family="Helvetica,sans-Serif" font-size="10.00">+</text>
<text text-anchor="start" x="19" y="-36.5" font-family="Helvetica,sans-Serif" font-size="10.00">getDisplayable()</text>
<text text-anchor="start" x="6" y="-21.5" font-family="Helvetica,sans-Serif" font-size="10.00">+</text>
<text text-anchor="start" x="19" y="-21.5" font-family="Helvetica,sans-Serif" font-size="10.00">setupIO()</text>
<text text-anchor="start" x="6" y="-6.5" font-family="Helvetica,sans-Serif" font-size="10.00">+</text>
<text text-anchor="start" x="19" y="-6.5" font-family="Helvetica,sans-Serif" font-size="10.00">setDeformable()</text>
<polygon fill="#666666" stroke="#666666" points="2,-151.5 2,-151.5 159,-151.5 159,-151.5 2,-151.5"/>
<polygon fill="#666666" stroke="#666666" points="2,-136.5 2,-136.5 159,-136.5 159,-136.5 2,-136.5"/>
<polygon fill="none" stroke="#666666" points="1.5,0 1.5,-191 158.5,-191 158.5,0 1.5,0"/>
</a>
</g>
</g>
<!-- Node2 -->
<g id="Node000002" class="node">
<title>Node2</title>
<g id="a_Node000002"><a xlink:href="classRa_1_1Engine_1_1Scene_1_1GeometryComponent.html" target="_top" xlink:title="Abstract interface of a geometric compoennet in the Engine.">
<polygon fill="white" stroke="transparent" points="151,-362 9,-362 9,-227 151,-227 151,-362"/>
<text text-anchor="start" x="27" y="-349.5" font-family="Helvetica,sans-Serif" font-size="10.00">Ra::Engine::Scene::</text>
<text text-anchor="start" x="27" y="-338.5" font-family="Helvetica,sans-Serif" font-size="10.00">GeometryComponent</text>
<text text-anchor="start" x="13" y="-323.5" font-family="Helvetica,sans-Serif" font-size="10.00">#</text>
<text text-anchor="start" x="26" y="-323.5" font-family="Helvetica,sans-Serif" font-size="10.00">m_roIndex</text>
<text text-anchor="start" x="13" y="-308.5" font-family="Helvetica,sans-Serif" font-size="10.00">#</text>
<text text-anchor="start" x="26" y="-308.5" font-family="Helvetica,sans-Serif" font-size="10.00">m_contentName</text>
<text text-anchor="start" x="13" y="-293.5" font-family="Helvetica,sans-Serif" font-size="10.00">+</text>
<text text-anchor="start" x="26" y="-293.5" font-family="Helvetica,sans-Serif" font-size="10.00">GeometryComponent()</text>
<text text-anchor="start" x="13" y="-278.5" font-family="Helvetica,sans-Serif" font-size="10.00">+</text>
<text text-anchor="start" x="26" y="-278.5" font-family="Helvetica,sans-Serif" font-size="10.00">~GeometryComponent()</text>
<text text-anchor="start" x="13" y="-263.5" font-family="Helvetica,sans-Serif" font-size="10.00">+</text>
<text text-anchor="start" x="26" y="-263.5" font-family="Helvetica,sans-Serif" font-size="10.00">initialize()</text>
<text text-anchor="start" x="13" y="-248.5" font-family="Helvetica,sans-Serif" font-size="10.00">+</text>
<text text-anchor="start" x="26" y="-248.5" font-family="Helvetica,sans-Serif" font-size="10.00">setupIO()</text>
<text text-anchor="start" x="13" y="-233.5" font-family="Helvetica,sans-Serif" font-size="10.00">+</text>
<text text-anchor="start" x="26" y="-233.5" font-family="Helvetica,sans-Serif" font-size="10.00">setContentName()</text>
<polygon fill="#666666" stroke="#666666" points="9,-333.5 9,-333.5 151,-333.5 151,-333.5 9,-333.5"/>
<polygon fill="#666666" stroke="#666666" points="9,-303.5 9,-303.5 24,-303.5 24,-303.5 9,-303.5"/>
<polygon fill="#666666" stroke="#666666" points="24,-303.5 24,-303.5 151,-303.5 151,-303.5 24,-303.5"/>
<polygon fill="none" stroke="#666666" points="9,-227 9,-362 151,-362 151,-227 9,-227"/>
</a>
</g>
</g>
<!-- Node2&#45;&gt;Node1 -->
<g id="edge1_Node000001_Node000002" class="edge">
<title>Node2&#45;&gt;Node1</title>
<g id="a_edge1_Node000001_Node000002"><a xlink:title=" ">
<path fill="none" stroke="#63b8ff" d="M80,-216.69C80,-208.29 80,-199.67 80,-191.1"/>
<polygon fill="none" stroke="#63b8ff" points="76.5,-216.8 80,-226.8 83.5,-216.8 76.5,-216.8"/>
</a>
</g>
</g>
<!-- Node3 -->
<g id="Node000003" class="node">
<title>Node3</title>
<g id="a_Node000003"><a xlink:href="classRa_1_1Engine_1_1Scene_1_1Component.html" target="_top" xlink:title="A component is an element that can be updated by a system. It is also linked to some other components...">
<polygon fill="white" stroke="transparent" points="160,-758 0,-758 0,-398 160,-398 160,-758"/>
<text text-anchor="start" x="33" y="-746" font-family="Helvetica,sans-Serif" font-size="10.00">Ra::Engine::Scene::</text>
<text text-anchor="start" x="51.5" y="-735" font-family="Helvetica,sans-Serif" font-size="10.00">Component</text>
<text text-anchor="start" x="4" y="-720" font-family="Helvetica,sans-Serif" font-size="10.00">+</text>
<text text-anchor="start" x="17" y="-720" font-family="Helvetica,sans-Serif" font-size="10.00">m_renderObjects</text>
<text text-anchor="start" x="4" y="-705" font-family="Helvetica,sans-Serif" font-size="10.00">#</text>
<text text-anchor="start" x="17" y="-705" font-family="Helvetica,sans-Serif" font-size="10.00">m_name</text>
<text text-anchor="start" x="4" y="-690" font-family="Helvetica,sans-Serif" font-size="10.00">#</text>
<text text-anchor="start" x="17" y="-690" font-family="Helvetica,sans-Serif" font-size="10.00">m_entity</text>
<text text-anchor="start" x="4" y="-675" font-family="Helvetica,sans-Serif" font-size="10.00">#</text>
<text text-anchor="start" x="17" y="-675" font-family="Helvetica,sans-Serif" font-size="10.00">m_system</text>
<text text-anchor="start" x="4" y="-660" font-family="Helvetica,sans-Serif" font-size="10.00">+</text>
<text text-anchor="start" x="17" y="-660" font-family="Helvetica,sans-Serif" font-size="10.00">Component()</text>
<text text-anchor="start" x="4" y="-645" font-family="Helvetica,sans-Serif" font-size="10.00">+</text>
<text text-anchor="start" x="17" y="-645" font-family="Helvetica,sans-Serif" font-size="10.00">~Component()</text>
<text text-anchor="start" x="4" y="-630" font-family="Helvetica,sans-Serif" font-size="10.00">+</text>
<text text-anchor="start" x="17" y="-630" font-family="Helvetica,sans-Serif" font-size="10.00">initialize()</text>
<text text-anchor="start" x="4" y="-615" font-family="Helvetica,sans-Serif" font-size="10.00">+</text>
<text text-anchor="start" x="17" y="-615" font-family="Helvetica,sans-Serif" font-size="10.00">setEntity()</text>
<text text-anchor="start" x="4" y="-600" font-family="Helvetica,sans-Serif" font-size="10.00">+</text>
<text text-anchor="start" x="17" y="-600" font-family="Helvetica,sans-Serif" font-size="10.00">getEntity()</text>
<text text-anchor="start" x="4" y="-585" font-family="Helvetica,sans-Serif" font-size="10.00">+</text>
<text text-anchor="start" x="17" y="-585" font-family="Helvetica,sans-Serif" font-size="10.00">getName()</text>
<text text-anchor="start" x="4" y="-570" font-family="Helvetica,sans-Serif" font-size="10.00">+</text>
<text text-anchor="start" x="17" y="-570" font-family="Helvetica,sans-Serif" font-size="10.00">setSystem()</text>
<text text-anchor="start" x="4" y="-555" font-family="Helvetica,sans-Serif" font-size="10.00">+</text>
<text text-anchor="start" x="17" y="-555" font-family="Helvetica,sans-Serif" font-size="10.00">getSystem()</text>
<text text-anchor="start" x="4" y="-540" font-family="Helvetica,sans-Serif" font-size="10.00">+</text>
<text text-anchor="start" x="17" y="-540" font-family="Helvetica,sans-Serif" font-size="10.00">addRenderObject()</text>
<text text-anchor="start" x="4" y="-525" font-family="Helvetica,sans-Serif" font-size="10.00">+</text>
<text text-anchor="start" x="17" y="-525" font-family="Helvetica,sans-Serif" font-size="10.00">removeRenderObject()</text>
<text text-anchor="start" x="4" y="-510" font-family="Helvetica,sans-Serif" font-size="10.00">+</text>
<text text-anchor="start" x="17" y="-510" font-family="Helvetica,sans-Serif" font-size="10.00">canEdit()</text>
<text text-anchor="start" x="4" y="-495" font-family="Helvetica,sans-Serif" font-size="10.00">+</text>
<text text-anchor="start" x="17" y="-495" font-family="Helvetica,sans-Serif" font-size="10.00">getTransform()</text>
<text text-anchor="start" x="4" y="-480" font-family="Helvetica,sans-Serif" font-size="10.00">+</text>
<text text-anchor="start" x="17" y="-480" font-family="Helvetica,sans-Serif" font-size="10.00">setTransform()</text>
<text text-anchor="start" x="4" y="-465" font-family="Helvetica,sans-Serif" font-size="10.00">+</text>
<text text-anchor="start" x="17" y="-465" font-family="Helvetica,sans-Serif" font-size="10.00">notifyRenderObjectExpired()</text>
<text text-anchor="start" x="4" y="-450" font-family="Helvetica,sans-Serif" font-size="10.00">+</text>
<text text-anchor="start" x="17" y="-450" font-family="Helvetica,sans-Serif" font-size="10.00">computeAabb()</text>
<text text-anchor="start" x="4" y="-435" font-family="Helvetica,sans-Serif" font-size="10.00">+</text>
<text text-anchor="start" x="17" y="-435" font-family="Helvetica,sans-Serif" font-size="10.00">invalidateAabb()</text>
<text text-anchor="start" x="4" y="-420" font-family="Helvetica,sans-Serif" font-size="10.00">+</text>
<text text-anchor="start" x="17" y="-420" font-family="Helvetica,sans-Serif" font-size="10.00">getRenderObjects()</text>
<text text-anchor="start" x="4" y="-405" font-family="Helvetica,sans-Serif" font-size="10.00">#</text>
<text text-anchor="start" x="17" y="-405" font-family="Helvetica,sans-Serif" font-size="10.00">getRoMgr()</text>
<polygon fill="#666666" stroke="#666666" points="0,-730 0,-730 160,-730 160,-730 0,-730"/>
<polygon fill="#666666" stroke="#666666" points="0,-670 0,-670 15,-670 15,-670 0,-670"/>
<polygon fill="#666666" stroke="#666666" points="15,-670 15,-670 160,-670 160,-670 15,-670"/>
<polygon fill="none" stroke="#666666" points="0,-398 0,-758 160,-758 160,-398 0,-398"/>
</a>
</g>
</g>
<!-- Node3&#45;&gt;Node2 -->
<g id="edge2_Node000002_Node000003" class="edge">
<title>Node3&#45;&gt;Node2</title>
<g id="a_edge2_Node000002_Node000003"><a xlink:title=" ">
<path fill="none" stroke="#63b8ff" d="M80,-387.8C80,-378.94 80,-370.37 80,-362.25"/>
<polygon fill="none" stroke="#63b8ff" points="76.5,-387.92 80,-397.92 83.5,-387.92 76.5,-387.92"/>
</a>
</g>
</g>
</g>
</svg>
