<?xml version="1.0" encoding="UTF-8" standalone="no"?>
<!DOCTYPE svg PUBLIC "-//W3C//DTD SVG 1.1//EN"
 "http://www.w3.org/Graphics/SVG/1.1/DTD/svg11.dtd">
<!-- Generated by graphviz version 2.43.0 (0)
 -->
<!-- Title: Ra::Engine::Data::ShaderProgram::setUniform Pages: 1 -->
<svg width="321pt" height="39pt"
 viewBox="0.00 0.00 321.00 39.00" xmlns="http://www.w3.org/2000/svg" xmlns:xlink="http://www.w3.org/1999/xlink">
<g id="graph0" class="graph" transform="scale(1 1) rotate(0) translate(4 35)">
<title>Ra::Engine::Data::ShaderProgram::setUniform</title>
<polygon fill="white" stroke="transparent" points="-4,4 -4,-35 317,-35 317,4 -4,4"/>
<!-- Node1 -->
<g id="node1" class="node">
<title>Node1</title>
<g id="a_node1"><a xlink:title=" ">
<polygon fill="#bfbfbf" stroke="black" points="0,-0.5 0,-30.5 137,-30.5 137,-0.5 0,-0.5"/>
<text text-anchor="start" x="8" y="-18.5" font-family="Helvetica,sans-Serif" font-size="10.00">Ra::Engine::Data::Shader</text>
<text text-anchor="middle" x="68.5" y="-7.5" font-family="Helvetica,sans-Serif" font-size="10.00">Program::setUniform</text>
</a>
</g>
</g>
<!-- Node2 -->
<g id="node2" class="node">
<title>Node2</title>
<g id="a_node2"><a xlink:href="classRa_1_1Engine_1_1Data_1_1Texture.html#a04f41cf6b664f77b4077b78b2f566422" target="_top" xlink:title="Bind the texture to enable its use in a shader.">
<polygon fill="white" stroke="black" points="173,-0.5 173,-30.5 313,-30.5 313,-0.5 173,-0.5"/>
<text text-anchor="start" x="181" y="-18.5" font-family="Helvetica,sans-Serif" font-size="10.00">Ra::Engine::Data::Texture</text>
<text text-anchor="middle" x="243" y="-7.5" font-family="Helvetica,sans-Serif" font-size="10.00">::bind</text>
</a>
</g>
</g>
<!-- Node1&#45;&gt;Node2 -->
<g id="edge1" class="edge">
<title>Node1&#45;&gt;Node2</title>
<path fill="none" stroke="midnightblue" d="M137.18,-15.5C145.5,-15.5 154.07,-15.5 162.54,-15.5"/>
<polygon fill="midnightblue" stroke="midnightblue" points="162.81,-19 172.81,-15.5 162.81,-12 162.81,-19"/>
</g>
</g>
</svg>
