<?xml version="1.0" encoding="UTF-8" standalone="no"?>
<!DOCTYPE svg PUBLIC "-//W3C//DTD SVG 1.1//EN"
 "http://www.w3.org/Graphics/SVG/1.1/DTD/svg11.dtd">
<!-- Generated by graphviz version 2.43.0 (0)
 -->
<!-- Title: Ra::Gui::Viewer::update Pages: 1 -->
<!--zoomable 510 -->
<svg id="main" version="1.1" xmlns="http://www.w3.org/2000/svg" xmlns:xlink="http://www.w3.org/1999/xlink" xml:space="preserve" onload="init(evt)">
<style type="text/css"><![CDATA[
.edge:hover path { stroke: red; }
.edge:hover polygon { stroke: red; fill: red; }
]]></style>
<script type="text/javascript"><![CDATA[
var edges = document.getElementsByTagName('g');
if (edges && edges.length) {
  for (var i=0;i<edges.length;i++) {
    if (edges[i].id.substr(0,4)=='edge') {
      edges[i].setAttribute('class','edge');
    }
  }
}
]]></script>
        <defs>
                <circle id="rim" cx="0" cy="0" r="7"/>
                <circle id="rim2" cx="0" cy="0" r="3.5"/>
                <g id="zoomPlus">
                        <use xlink:href="#rim" fill="#404040">
                                <set attributeName="fill" to="#808080" begin="zoomplus.mouseover" end="zoomplus.mouseout"/>
                        </use>
                        <path d="M-4,0h8M0,-4v8" fill="none" stroke="white" stroke-width="1.5" pointer-events="none"/>
                </g>
                <g id="zoomMin">
                        <use xlink:href="#rim" fill="#404040">
                                <set attributeName="fill" to="#808080" begin="zoomminus.mouseover" end="zoomminus.mouseout"/>
                        </use>
                        <path d="M-4,0h8" fill="none" stroke="white" stroke-width="1.5" pointer-events="none"/>
                </g>
                <g id="dirArrow">
                        <path fill="none" stroke="white" stroke-width="1.5" d="M0,-3.0v7 M-2.5,-0.5L0,-3.0L2.5,-0.5"/>
                </g>
               <g id="resetDef">
                       <use xlink:href="#rim2" fill="#404040">
                               <set attributeName="fill" to="#808080" begin="reset.mouseover" end="reset.mouseout"/>
                       </use>
               </g>
        </defs>

<script type="text/javascript">
var viewWidth = 1413;
var viewHeight = 510;
var sectionId = 'dynsection-32';
</script>
<script xlink:href="svgpan.js"/>
<svg id="graph" class="graph">
<g id="viewport">
<title>Ra::Gui::Viewer::update</title>
<polygon fill="white" stroke="transparent" points="-4,4 -4,-506 1409,-506 1409,4 -4,4"/>
<!-- Node1 -->
<g id="node1" class="node">
<title>Node1</title>
<g id="a_node1"><a xlink:title="Update the internal viewer state to the (application) time dt.">
<polygon fill="#bfbfbf" stroke="black" points="0,-168 0,-187 131,-187 131,-168 0,-168"/>
<text text-anchor="middle" x="65.5" y="-175" font-family="Helvetica,sans-Serif" font-size="10.00">Ra::Gui::Viewer::update</text>
</a>
</g>
</g>
<!-- Node2 -->
<g id="node2" class="node">
<title>Node2</title>
<g id="a_node2"><a xlink:href="classRa_1_1Gui_1_1GizmoManager.html#a2733d1f2a992c50e41b93790b5323fe1" target="_top" xlink:title="Retrieve the transform from the editable and update the gizmos.">
<polygon fill="white" stroke="black" points="167,-162.5 167,-192.5 299,-192.5 299,-162.5 167,-162.5"/>
<text text-anchor="start" x="175" y="-180.5" font-family="Helvetica,sans-Serif" font-size="10.00">Ra::Gui::GizmoManager</text>
<text text-anchor="middle" x="233" y="-169.5" font-family="Helvetica,sans-Serif" font-size="10.00">::updateValues</text>
</a>
</g>
</g>
<!-- Node1&#45;&gt;Node2 -->
<g id="edge1" class="edge">
<title>Node1&#45;&gt;Node2</title>
<path fill="none" stroke="midnightblue" d="M131.43,-177.5C139.74,-177.5 148.3,-177.5 156.75,-177.5"/>
<polygon fill="midnightblue" stroke="midnightblue" points="156.98,-181 166.98,-177.5 156.98,-174 156.98,-181"/>
</g>
<!-- Node3 -->
<g id="node3" class="node">
<title>Node3</title>
<g id="a_node3"><a xlink:href="classRa_1_1Gui_1_1TransformEditor.html#abca1bd4569475198f0007c475bc54cad" target="_top" xlink:title=" ">
<polygon fill="white" stroke="black" points="553,-324.5 553,-354.5 688,-354.5 688,-324.5 553,-324.5"/>
<text text-anchor="start" x="561" y="-342.5" font-family="Helvetica,sans-Serif" font-size="10.00">Ra::Gui::TransformEditor</text>
<text text-anchor="middle" x="620.5" y="-331.5" font-family="Helvetica,sans-Serif" font-size="10.00">::canEdit</text>
</a>
</g>
</g>
<!-- Node2&#45;&gt;Node3 -->
<g id="edge2" class="edge">
<title>Node2&#45;&gt;Node3</title>
<path fill="none" stroke="midnightblue" d="M262.86,-192.6C282.9,-202.88 310.32,-216.56 335,-227.5 415.5,-263.2 511.15,-299.66 568.5,-320.91"/>
<polygon fill="midnightblue" stroke="midnightblue" points="567.47,-324.26 578.06,-324.44 569.89,-317.69 567.47,-324.26"/>
</g>
<!-- Node19 -->
<g id="node19" class="node">
<title>Node19</title>
<g id="a_node19"><a xlink:href="classRa_1_1Gui_1_1TransformEditor.html#a3610d0e52d8281ed3586a9176c94b761" target="_top" xlink:title=" ">
<polygon fill="white" stroke="black" points="356.5,-187.5 356.5,-217.5 491.5,-217.5 491.5,-187.5 356.5,-187.5"/>
<text text-anchor="start" x="364.5" y="-205.5" font-family="Helvetica,sans-Serif" font-size="10.00">Ra::Gui::TransformEditor</text>
<text text-anchor="middle" x="424" y="-194.5" font-family="Helvetica,sans-Serif" font-size="10.00">::getTransform</text>
</a>
</g>
</g>
<!-- Node2&#45;&gt;Node19 -->
<g id="edge24" class="edge">
<title>Node2&#45;&gt;Node19</title>
<path fill="none" stroke="midnightblue" d="M299.04,-186.1C314.2,-188.11 330.47,-190.26 346.09,-192.33"/>
<polygon fill="midnightblue" stroke="midnightblue" points="345.86,-195.83 356.23,-193.67 346.78,-188.89 345.86,-195.83"/>
</g>
<!-- Node23 -->
<g id="node23" class="node">
<title>Node23</title>
<g id="a_node23"><a xlink:href="classRa_1_1Gui_1_1TransformEditor.html#afad8054cc89e19c8b5dd7af9647a5bb9" target="_top" xlink:title=" ">
<polygon fill="white" stroke="black" points="356.5,-118.5 356.5,-148.5 491.5,-148.5 491.5,-118.5 356.5,-118.5"/>
<text text-anchor="start" x="364.5" y="-136.5" font-family="Helvetica,sans-Serif" font-size="10.00">Ra::Gui::TransformEditor</text>
<text text-anchor="middle" x="424" y="-125.5" font-family="Helvetica,sans-Serif" font-size="10.00">::getWorldTransform</text>
</a>
</g>
</g>
<!-- Node2&#45;&gt;Node23 -->
<g id="edge33" class="edge">
<title>Node2&#45;&gt;Node23</title>
<path fill="none" stroke="midnightblue" d="M298.51,-162.48C314.54,-158.75 331.86,-154.72 348.33,-150.88"/>
<polygon fill="midnightblue" stroke="midnightblue" points="349.51,-154.2 358.46,-148.53 347.92,-147.38 349.51,-154.2"/>
</g>
<!-- Node24 -->
<g id="node24" class="node">
<title>Node24</title>
<g id="a_node24"><a xlink:href="classRa_1_1Gui_1_1Gizmo.html#a2fc380738268508ca2d46ac856c2f98a" target="_top" xlink:title="Called every time the underlying transform may have changed.">
<polygon fill="white" stroke="black" points="335,-80 335,-99 513,-99 513,-80 335,-80"/>
<text text-anchor="middle" x="424" y="-87" font-family="Helvetica,sans-Serif" font-size="10.00">Ra::Gui::Gizmo::updateTransform</text>
</a>
</g>
</g>
<!-- Node2&#45;&gt;Node24 -->
<g id="edge36" class="edge">
<title>Node2&#45;&gt;Node24</title>
<path fill="none" stroke="midnightblue" d="M252.14,-162.22C271.47,-146.71 303.57,-123.09 335,-109.5 341.9,-106.52 349.3,-103.95 356.78,-101.75"/>
<polygon fill="midnightblue" stroke="midnightblue" points="357.89,-105.07 366.62,-99.06 356.05,-98.32 357.89,-105.07"/>
</g>
<!-- Node4 -->
<g id="node4" class="node">
<title>Node4</title>
<g id="a_node4"><a xlink:href="classRa_1_1Engine_1_1Scene_1_1Component.html#a744beba29b7ba520aefbc93394436fbf" target="_top" xlink:title="Returns true if a transform can be edited with the render object index given as a key.">
<polygon fill="white" stroke="black" points="736.5,-385.5 736.5,-415.5 851.5,-415.5 851.5,-385.5 736.5,-385.5"/>
<text text-anchor="start" x="744.5" y="-403.5" font-family="Helvetica,sans-Serif" font-size="10.00">Ra::Engine::Scene::</text>
<text text-anchor="middle" x="794" y="-392.5" font-family="Helvetica,sans-Serif" font-size="10.00">Component::canEdit</text>
</a>
</g>
</g>
<!-- Node3&#45;&gt;Node4 -->
<g id="edge3" class="edge">
<title>Node3&#45;&gt;Node4</title>
<path fill="none" stroke="midnightblue" d="M663.89,-354.58C687.27,-362.89 716.49,-373.29 741.21,-382.08"/>
<polygon fill="midnightblue" stroke="midnightblue" points="740.2,-385.44 750.8,-385.49 742.55,-378.84 740.2,-385.44"/>
</g>
<!-- Node5 -->
<g id="node5" class="node">
<title>Node5</title>
<g id="a_node5"><a xlink:href="structRa_1_1Engine_1_1Scene_1_1ItemEntry.html#abb75bfc7efa4859df709265ab8982712" target="_top" xlink:title="Returns true if the item represents an entity.">
<polygon fill="white" stroke="black" points="728,-187.5 728,-217.5 860,-217.5 860,-187.5 728,-187.5"/>
<text text-anchor="start" x="736" y="-205.5" font-family="Helvetica,sans-Serif" font-size="10.00">Ra::Engine::Scene::</text>
<text text-anchor="middle" x="794" y="-194.5" font-family="Helvetica,sans-Serif" font-size="10.00">ItemEntry::isEntityNode</text>
</a>
</g>
</g>
<!-- Node3&#45;&gt;Node5 -->
<g id="edge4" class="edge">
<title>Node3&#45;&gt;Node5</title>
<path fill="none" stroke="midnightblue" d="M634.49,-324.26C657.9,-297.07 706.69,-241.73 728,-227.5 730.9,-225.56 733.98,-223.74 737.15,-222.04"/>
<polygon fill="midnightblue" stroke="midnightblue" points="738.85,-225.1 746.28,-217.55 735.76,-218.82 738.85,-225.1"/>
</g>
<!-- Node8 -->
<g id="node8" class="node">
<title>Node8</title>
<g id="a_node8"><a xlink:href="structRa_1_1Engine_1_1Scene_1_1ItemEntry.html#a71fb1e1af35480f50c21edb264149929" target="_top" xlink:title="Returns true if the item can be selected.">
<polygon fill="white" stroke="black" points="729.5,-336.5 729.5,-366.5 858.5,-366.5 858.5,-336.5 729.5,-336.5"/>
<text text-anchor="start" x="737.5" y="-354.5" font-family="Helvetica,sans-Serif" font-size="10.00">Ra::Engine::Scene::</text>
<text text-anchor="middle" x="794" y="-343.5" font-family="Helvetica,sans-Serif" font-size="10.00">ItemEntry::isSelectable</text>
</a>
</g>
</g>
<!-- Node3&#45;&gt;Node8 -->
<g id="edge7" class="edge">
<title>Node3&#45;&gt;Node8</title>
<path fill="none" stroke="midnightblue" d="M688.3,-344.17C698.46,-344.88 708.99,-345.62 719.28,-346.34"/>
<polygon fill="midnightblue" stroke="midnightblue" points="719.25,-349.85 729.47,-347.06 719.74,-342.87 719.25,-349.85"/>
</g>
<!-- Node15 -->
<g id="node15" class="node">
<title>Node15</title>
<g id="a_node15"><a xlink:href="structRa_1_1Engine_1_1Scene_1_1ItemEntry.html#a4f2df708e8ee83f1bad37287d0a81916" target="_top" xlink:title="Returns true if the item represents any valid object.">
<polygon fill="white" stroke="black" points="739,-236.5 739,-266.5 849,-266.5 849,-236.5 739,-236.5"/>
<text text-anchor="start" x="747" y="-254.5" font-family="Helvetica,sans-Serif" font-size="10.00">Ra::Engine::Scene::</text>
<text text-anchor="middle" x="794" y="-243.5" font-family="Helvetica,sans-Serif" font-size="10.00">ItemEntry::isValid</text>
</a>
</g>
</g>
<!-- Node3&#45;&gt;Node15 -->
<g id="edge16" class="edge">
<title>Node3&#45;&gt;Node15</title>
<path fill="none" stroke="midnightblue" d="M650.98,-324.37C679.54,-309.72 722.99,-287.42 754.32,-271.35"/>
<polygon fill="midnightblue" stroke="midnightblue" points="756.32,-274.26 763.62,-266.58 753.12,-268.03 756.32,-274.26"/>
</g>
<!-- Node6 -->
<g id="node6" class="node">
<title>Node6</title>
<g id="a_node6"><a xlink:href="structRa_1_1Engine_1_1Scene_1_1ItemEntry.html#a9673507f752d5efee0439afd0e52892b" target="_top" xlink:title="Debug checks.">
<polygon fill="white" stroke="black" points="1092,-44.5 1092,-74.5 1250,-74.5 1250,-44.5 1092,-44.5"/>
<text text-anchor="start" x="1100" y="-62.5" font-family="Helvetica,sans-Serif" font-size="10.00">Ra::Engine::Scene::</text>
<text text-anchor="middle" x="1171" y="-51.5" font-family="Helvetica,sans-Serif" font-size="10.00">ItemEntry::checkConsistency</text>
</a>
</g>
</g>
<!-- Node5&#45;&gt;Node6 -->
<g id="edge5" class="edge">
<title>Node5&#45;&gt;Node6</title>
<path fill="none" stroke="midnightblue" d="M839.58,-187.45C847.06,-183.46 854.25,-178.53 860,-172.5 889.44,-141.61 861.7,-108.88 896,-83.5 948.6,-44.59 1023.39,-40.46 1081.55,-45.02"/>
<polygon fill="midnightblue" stroke="midnightblue" points="1081.57,-48.53 1091.83,-45.93 1082.18,-41.56 1081.57,-48.53"/>
</g>
<!-- Node7 -->
<g id="node7" class="node">
<title>Node7</title>
<g id="a_node7"><a xlink:href="classRa_1_1Core_1_1Utils_1_1Index.html#a752c4d2e38168a3b1977100caa21b1b8" target="_top" xlink:title="INVALID.">
<polygon fill="white" stroke="black" points="1286,-22.5 1286,-52.5 1405,-52.5 1405,-22.5 1286,-22.5"/>
<text text-anchor="start" x="1294" y="-40.5" font-family="Helvetica,sans-Serif" font-size="10.00">Ra::Core::Utils::Index</text>
<text text-anchor="middle" x="1345.5" y="-29.5" font-family="Helvetica,sans-Serif" font-size="10.00">::isInvalid</text>
</a>
</g>
</g>
<!-- Node6&#45;&gt;Node7 -->
<g id="edge6" class="edge">
<title>Node6&#45;&gt;Node7</title>
<path fill="none" stroke="midnightblue" d="M1250.17,-49.53C1258.73,-48.44 1267.39,-47.33 1275.82,-46.26"/>
<polygon fill="midnightblue" stroke="midnightblue" points="1276.49,-49.7 1285.96,-44.97 1275.6,-42.76 1276.49,-49.7"/>
</g>
<!-- Node9 -->
<g id="node9" class="node">
<title>Node9</title>
<g id="a_node9"><a xlink:href="classRa_1_1Core_1_1Utils_1_1IndexedObject.html#a4c1e2cbb7ba93d4ef2edf23b693cc643" target="_top" xlink:title=" ">
<polygon fill="white" stroke="black" points="910.5,-471.5 910.5,-501.5 1041.5,-501.5 1041.5,-471.5 910.5,-471.5"/>
<text text-anchor="start" x="918.5" y="-489.5" font-family="Helvetica,sans-Serif" font-size="10.00">Ra::Core::Utils::Indexed</text>
<text text-anchor="middle" x="976" y="-478.5" font-family="Helvetica,sans-Serif" font-size="10.00">Object::getIndex</text>
</a>
</g>
</g>
<!-- Node8&#45;&gt;Node9 -->
<g id="edge8" class="edge">
<title>Node8&#45;&gt;Node9</title>
<path fill="none" stroke="midnightblue" d="M846.39,-366.56C851.34,-369.35 856,-372.63 860,-376.5 889.49,-405.02 865.66,-433.89 896,-461.5 897.73,-463.07 899.56,-464.55 901.46,-465.93"/>
<polygon fill="midnightblue" stroke="midnightblue" points="899.93,-469.1 910.27,-471.41 903.63,-463.16 899.93,-469.1"/>
</g>
<!-- Node10 -->
<g id="node10" class="node">
<title>Node10</title>
<g id="a_node10"><a xlink:href="classRa_1_1Engine_1_1Rendering_1_1RenderObjectManager.html#abe7be820a363366c0a5f2f5f45212f59" target="_top" xlink:title=" ">
<polygon fill="white" stroke="black" points="910.5,-411 910.5,-452 1041.5,-452 1041.5,-411 910.5,-411"/>
<text text-anchor="start" x="918.5" y="-440" font-family="Helvetica,sans-Serif" font-size="10.00">Ra::Engine::Rendering</text>
<text text-anchor="start" x="918.5" y="-429" font-family="Helvetica,sans-Serif" font-size="10.00">::RenderObjectManager</text>
<text text-anchor="middle" x="976" y="-418" font-family="Helvetica,sans-Serif" font-size="10.00">::getRenderObject</text>
</a>
</g>
</g>
<!-- Node8&#45;&gt;Node10 -->
<g id="edge9" class="edge">
<title>Node8&#45;&gt;Node10</title>
<path fill="none" stroke="midnightblue" d="M838.65,-366.62C845.91,-369.61 853.27,-372.93 860,-376.5 877.21,-385.62 878.77,-392.42 896,-401.5 899.48,-403.33 903.09,-405.11 906.78,-406.82"/>
<polygon fill="midnightblue" stroke="midnightblue" points="905.49,-410.08 916.05,-410.95 908.34,-403.69 905.49,-410.08"/>
</g>
<!-- Node13 -->
<g id="node13" class="node">
<title>Node13</title>
<g id="a_node13"><a xlink:href="classRa_1_1Engine_1_1RadiumEngine.html#a4b46a72f340513061b9a5219a80d9bd6" target="_top" xlink:title="Manager getters.">
<polygon fill="white" stroke="black" points="902.5,-312.5 902.5,-342.5 1049.5,-342.5 1049.5,-312.5 902.5,-312.5"/>
<text text-anchor="start" x="910.5" y="-330.5" font-family="Helvetica,sans-Serif" font-size="10.00">Ra::Engine::RadiumEngine</text>
<text text-anchor="middle" x="976" y="-319.5" font-family="Helvetica,sans-Serif" font-size="10.00">::getRenderObjectManager</text>
</a>
</g>
</g>
<!-- Node8&#45;&gt;Node13 -->
<g id="edge12" class="edge">
<title>Node8&#45;&gt;Node13</title>
<path fill="none" stroke="midnightblue" d="M858.71,-343C869.67,-341.54 881.19,-340.01 892.54,-338.49"/>
<polygon fill="midnightblue" stroke="midnightblue" points="893.02,-341.96 902.47,-337.17 892.09,-335.02 893.02,-341.96"/>
</g>
<!-- Node14 -->
<g id="node14" class="node">
<title>Node14</title>
<g id="a_node14"><a xlink:href="structRa_1_1Engine_1_1Scene_1_1ItemEntry.html#ad2fd60408dfc75b47ff7bec306d95cc4" target="_top" xlink:title="Returns true if the item represents a render object.">
<polygon fill="white" stroke="black" points="918,-361.5 918,-391.5 1034,-391.5 1034,-361.5 918,-361.5"/>
<text text-anchor="start" x="926" y="-379.5" font-family="Helvetica,sans-Serif" font-size="10.00">Ra::Engine::Scene::</text>
<text text-anchor="middle" x="976" y="-368.5" font-family="Helvetica,sans-Serif" font-size="10.00">ItemEntry::isRoNode</text>
</a>
</g>
</g>
<!-- Node8&#45;&gt;Node14 -->
<g id="edge13" class="edge">
<title>Node8&#45;&gt;Node14</title>
<path fill="none" stroke="midnightblue" d="M858.71,-360.35C874.56,-362.55 891.6,-364.92 907.61,-367.14"/>
<polygon fill="midnightblue" stroke="midnightblue" points="907.58,-370.67 917.97,-368.58 908.54,-363.74 907.58,-370.67"/>
</g>
<!-- Node11 -->
<g id="node11" class="node">
<title>Node11</title>
<g id="a_node11"><a xlink:href="classRa_1_1Engine_1_1Rendering_1_1RenderObjectManager.html#ae3edd3941dd9eee4cb1988318e47a4ca" target="_top" xlink:title=" ">
<polygon fill="white" stroke="black" points="1105.5,-307 1105.5,-348 1236.5,-348 1236.5,-307 1105.5,-307"/>
<text text-anchor="start" x="1113.5" y="-336" font-family="Helvetica,sans-Serif" font-size="10.00">Ra::Engine::Rendering</text>
<text text-anchor="start" x="1113.5" y="-325" font-family="Helvetica,sans-Serif" font-size="10.00">::RenderObjectManager</text>
<text text-anchor="middle" x="1171" y="-314" font-family="Helvetica,sans-Serif" font-size="10.00">::exists</text>
</a>
</g>
</g>
<!-- Node10&#45;&gt;Node11 -->
<g id="edge10" class="edge">
<title>Node10&#45;&gt;Node11</title>
<path fill="none" stroke="midnightblue" d="M1035.43,-410.93C1042.46,-407.98 1049.46,-404.82 1056,-401.5 1083.12,-387.74 1111.83,-369.08 1133.66,-353.94"/>
<polygon fill="midnightblue" stroke="midnightblue" points="1135.78,-356.72 1141.96,-348.12 1131.77,-350.99 1135.78,-356.72"/>
</g>
<!-- Node12 -->
<g id="node12" class="node">
<title>Node12</title>
<g id="a_node12"><a xlink:href="classRa_1_1Core_1_1Utils_1_1Index.html#ac1a3e02d77abd15c2a307673f5b67fa1" target="_top" xlink:title="VALID.">
<polygon fill="white" stroke="black" points="1286,-336.5 1286,-366.5 1405,-366.5 1405,-336.5 1286,-336.5"/>
<text text-anchor="start" x="1294" y="-354.5" font-family="Helvetica,sans-Serif" font-size="10.00">Ra::Core::Utils::Index</text>
<text text-anchor="middle" x="1345.5" y="-343.5" font-family="Helvetica,sans-Serif" font-size="10.00">::isValid</text>
</a>
</g>
</g>
<!-- Node11&#45;&gt;Node12 -->
<g id="edge11" class="edge">
<title>Node11&#45;&gt;Node12</title>
<path fill="none" stroke="midnightblue" d="M1236.72,-336.5C1249.47,-338.28 1262.89,-340.15 1275.77,-341.94"/>
<polygon fill="midnightblue" stroke="midnightblue" points="1275.56,-345.44 1285.95,-343.35 1276.53,-338.51 1275.56,-345.44"/>
</g>
<!-- Node14&#45;&gt;Node6 -->
<g id="edge14" class="edge">
<title>Node14&#45;&gt;Node6</title>
<path fill="none" stroke="midnightblue" d="M1034.33,-365.95C1042.26,-362.62 1049.8,-358.25 1056,-352.5 1097.16,-314.36 1145.74,-148.49 1163.27,-84.66"/>
<polygon fill="midnightblue" stroke="midnightblue" points="1166.75,-85.22 1165.99,-74.65 1159.99,-83.38 1166.75,-85.22"/>
</g>
<!-- Node14&#45;&gt;Node12 -->
<g id="edge15" class="edge">
<title>Node14&#45;&gt;Node12</title>
<path fill="none" stroke="midnightblue" d="M1034.02,-372.62C1099.26,-368.18 1206.05,-360.92 1275.81,-356.17"/>
<polygon fill="midnightblue" stroke="midnightblue" points="1276.09,-359.66 1285.83,-355.49 1275.61,-352.68 1276.09,-359.66"/>
</g>
<!-- Node15&#45;&gt;Node6 -->
<g id="edge17" class="edge">
<title>Node15&#45;&gt;Node6</title>
<path fill="none" stroke="midnightblue" d="M848.61,-236.48C852.78,-233.93 856.66,-230.97 860,-227.5 895.69,-190.45 857.72,-151.86 896,-117.5 903.09,-111.14 1004.18,-90.83 1081.52,-76.03"/>
<polygon fill="midnightblue" stroke="midnightblue" points="1082.62,-79.39 1091.79,-74.08 1081.31,-72.51 1082.62,-79.39"/>
</g>
<!-- Node15&#45;&gt;Node11 -->
<g id="edge19" class="edge">
<title>Node15&#45;&gt;Node11</title>
<path fill="none" stroke="midnightblue" d="M849.02,-262.09C901.83,-272.47 984.48,-288.85 1056,-303.5 1068.71,-306.1 1082.21,-308.91 1095.3,-311.65"/>
<polygon fill="midnightblue" stroke="midnightblue" points="1094.71,-315.11 1105.22,-313.73 1096.15,-308.25 1094.71,-315.11"/>
</g>
<!-- Node15&#45;&gt;Node13 -->
<g id="edge22" class="edge">
<title>Node15&#45;&gt;Node13</title>
<path fill="none" stroke="midnightblue" d="M827.73,-266.68C851.99,-277.89 883.02,-292.09 896,-297.5 905.14,-301.31 914.95,-305.2 924.45,-308.86"/>
<polygon fill="midnightblue" stroke="midnightblue" points="923.21,-312.13 933.8,-312.43 925.7,-305.59 923.21,-312.13"/>
</g>
<!-- Node15&#45;&gt;Node14 -->
<g id="edge23" class="edge">
<title>Node15&#45;&gt;Node14</title>
<path fill="none" stroke="midnightblue" d="M838.5,-266.61C846.26,-270.63 853.83,-275.55 860,-281.5 885.47,-306.05 868.9,-329.76 896,-352.5 899.78,-355.67 903.97,-358.43 908.4,-360.82"/>
<polygon fill="midnightblue" stroke="midnightblue" points="907.22,-364.13 917.76,-365.23 910.2,-357.8 907.22,-364.13"/>
</g>
<!-- Node16 -->
<g id="node16" class="node">
<title>Node16</title>
<g id="a_node16"><a xlink:href="classRa_1_1Engine_1_1Scene_1_1EntityManager.html#a11639733918487b58dbe9862b4cc9ca4" target="_top" xlink:title="Check wether an entity with a given name exists or not.">
<polygon fill="white" stroke="black" points="900,-175.5 900,-205.5 1052,-205.5 1052,-175.5 900,-175.5"/>
<text text-anchor="start" x="908" y="-193.5" font-family="Helvetica,sans-Serif" font-size="10.00">Ra::Engine::Scene::</text>
<text text-anchor="middle" x="976" y="-182.5" font-family="Helvetica,sans-Serif" font-size="10.00">EntityManager::entityExists</text>
</a>
</g>
</g>
<!-- Node15&#45;&gt;Node16 -->
<g id="edge18" class="edge">
<title>Node15&#45;&gt;Node16</title>
<path fill="none" stroke="midnightblue" d="M836.16,-236.45C854.44,-229.87 876.24,-222.15 896,-215.5 902.75,-213.23 909.84,-210.9 916.89,-208.63"/>
<polygon fill="midnightblue" stroke="midnightblue" points="917.99,-211.95 926.45,-205.56 915.86,-205.28 917.99,-211.95"/>
</g>
<!-- Node17 -->
<g id="node17" class="node">
<title>Node17</title>
<g id="a_node17"><a xlink:href="classRa_1_1Engine_1_1RadiumEngine.html#a2991b0dd7d8c14bfe19e775231036dee" target="_top" xlink:title=" ">
<polygon fill="white" stroke="black" points="903.5,-126.5 903.5,-156.5 1048.5,-156.5 1048.5,-126.5 903.5,-126.5"/>
<text text-anchor="start" x="911.5" y="-144.5" font-family="Helvetica,sans-Serif" font-size="10.00">Ra::Engine::RadiumEngine</text>
<text text-anchor="middle" x="976" y="-133.5" font-family="Helvetica,sans-Serif" font-size="10.00">::getEntityManager</text>
</a>
</g>
</g>
<!-- Node15&#45;&gt;Node17 -->
<g id="edge20" class="edge">
<title>Node15&#45;&gt;Node17</title>
<path fill="none" stroke="midnightblue" d="M846.54,-236.36C851.35,-233.83 855.94,-230.89 860,-227.5 884.17,-207.32 871.37,-186.1 896,-166.5 898.27,-164.69 900.67,-163.02 903.17,-161.46"/>
<polygon fill="midnightblue" stroke="midnightblue" points="904.91,-164.5 911.99,-156.62 901.54,-158.36 904.91,-164.5"/>
</g>
<!-- Node18 -->
<g id="node18" class="node">
<title>Node18</title>
<g id="a_node18"><a xlink:href="classRa_1_1Engine_1_1Scene_1_1Entity.html#aca70e4d7a9078c377650ac4ea59748bd" target="_top" xlink:title=" ">
<polygon fill="white" stroke="black" points="921,-224.5 921,-254.5 1031,-254.5 1031,-224.5 921,-224.5"/>
<text text-anchor="start" x="929" y="-242.5" font-family="Helvetica,sans-Serif" font-size="10.00">Ra::Engine::Scene::</text>
<text text-anchor="middle" x="976" y="-231.5" font-family="Helvetica,sans-Serif" font-size="10.00">Entity::getName</text>
</a>
</g>
</g>
<!-- Node15&#45;&gt;Node18 -->
<g id="edge21" class="edge">
<title>Node15&#45;&gt;Node18</title>
<path fill="none" stroke="midnightblue" d="M849.01,-247.9C868.41,-246.61 890.48,-245.13 910.67,-243.79"/>
<polygon fill="midnightblue" stroke="midnightblue" points="910.98,-247.28 920.72,-243.12 910.51,-240.29 910.98,-247.28"/>
</g>
<!-- Node19&#45;&gt;Node3 -->
<g id="edge25" class="edge">
<title>Node19&#45;&gt;Node3</title>
<path fill="none" stroke="midnightblue" d="M442.44,-217.57C476.51,-246.99 548.63,-309.27 549,-309.5 555.21,-313.37 562.01,-316.96 568.85,-320.21"/>
<polygon fill="midnightblue" stroke="midnightblue" points="567.61,-323.49 578.16,-324.44 570.5,-317.12 567.61,-323.49"/>
</g>
<!-- Node19&#45;&gt;Node5 -->
<g id="edge31" class="edge">
<title>Node19&#45;&gt;Node5</title>
<path fill="none" stroke="midnightblue" d="M487.08,-217.53C506.76,-221.62 528.68,-225.47 549,-227.5 612.24,-233.81 628.91,-235.19 692,-227.5 705.29,-225.88 719.35,-223.1 732.62,-219.97"/>
<polygon fill="midnightblue" stroke="midnightblue" points="733.71,-223.31 742.59,-217.53 732.04,-216.51 733.71,-223.31"/>
</g>
<!-- Node19&#45;&gt;Node14 -->
<g id="edge32" class="edge">
<title>Node19&#45;&gt;Node14</title>
<path fill="none" stroke="midnightblue" d="M491.9,-216.43C499.11,-218.53 506.27,-220.88 513,-223.5 530.06,-230.13 532.04,-236.62 549,-243.5 681.67,-297.33 730.18,-267.11 860,-327.5 877.66,-335.72 878.47,-344.01 896,-352.5 899.85,-354.36 903.87,-356.12 907.97,-357.76"/>
<polygon fill="midnightblue" stroke="midnightblue" points="907.06,-361.16 917.65,-361.41 909.53,-354.61 907.06,-361.16"/>
</g>
<!-- Node20 -->
<g id="node20" class="node">
<title>Node20</title>
<g id="a_node20"><a xlink:href="classRa_1_1Engine_1_1Scene_1_1Entity.html#ae5cd18623e1aca8045a05e32ecdff6e6" target="_top" xlink:title=" ">
<polygon fill="white" stroke="black" points="563,-99.5 563,-129.5 678,-129.5 678,-99.5 563,-99.5"/>
<text text-anchor="start" x="571" y="-117.5" font-family="Helvetica,sans-Serif" font-size="10.00">Ra::Engine::Scene::</text>
<text text-anchor="middle" x="620.5" y="-106.5" font-family="Helvetica,sans-Serif" font-size="10.00">Entity::getTransform</text>
</a>
</g>
</g>
<!-- Node19&#45;&gt;Node20 -->
<g id="edge26" class="edge">
<title>Node19&#45;&gt;Node20</title>
<path fill="none" stroke="midnightblue" d="M456.46,-187.41C481.44,-175.52 517.32,-158.65 549,-144.5 557.12,-140.88 565.8,-137.1 574.21,-133.5"/>
<polygon fill="midnightblue" stroke="midnightblue" points="575.7,-136.66 583.53,-129.52 572.96,-130.22 575.7,-136.66"/>
</g>
<!-- Node21 -->
<g id="node21" class="node">
<title>Node21</title>
<g id="a_node21"><a xlink:href="classRa_1_1Engine_1_1Scene_1_1Component.html#a4c99b9fb6527bbd2001f6dad083b6874" target="_top" xlink:title="Get the transform associated with the given RO index key.">
<polygon fill="white" stroke="black" points="549,-187.5 549,-217.5 692,-217.5 692,-187.5 549,-187.5"/>
<text text-anchor="start" x="557" y="-205.5" font-family="Helvetica,sans-Serif" font-size="10.00">Ra::Engine::Scene::</text>
<text text-anchor="middle" x="620.5" y="-194.5" font-family="Helvetica,sans-Serif" font-size="10.00">Component::getTransform</text>
</a>
</g>
</g>
<!-- Node19&#45;&gt;Node21 -->
<g id="edge27" class="edge">
<title>Node19&#45;&gt;Node21</title>
<path fill="none" stroke="midnightblue" d="M491.66,-202.5C506.82,-202.5 523.08,-202.5 538.75,-202.5"/>
<polygon fill="midnightblue" stroke="midnightblue" points="538.94,-206 548.94,-202.5 538.94,-199 538.94,-206"/>
</g>
<!-- Node22 -->
<g id="node22" class="node">
<title>Node22</title>
<g id="a_node22"><a xlink:href="structRa_1_1Engine_1_1Scene_1_1ItemEntry.html#a85e1716f224d07767e16ebfbd38c0d00" target="_top" xlink:title="Returns true if the item represents a component.">
<polygon fill="white" stroke="black" points="896,-0.5 896,-30.5 1056,-30.5 1056,-0.5 896,-0.5"/>
<text text-anchor="start" x="904" y="-18.5" font-family="Helvetica,sans-Serif" font-size="10.00">Ra::Engine::Scene::</text>
<text text-anchor="middle" x="976" y="-7.5" font-family="Helvetica,sans-Serif" font-size="10.00">ItemEntry::isComponentNode</text>
</a>
</g>
</g>
<!-- Node19&#45;&gt;Node22 -->
<g id="edge28" class="edge">
<title>Node19&#45;&gt;Node22</title>
<path fill="none" stroke="midnightblue" d="M491.55,-188.55C558.09,-174.29 655.6,-152.45 692,-139.5 786.95,-105.72 802.38,-77.8 896,-40.5 901.79,-38.19 907.88,-35.95 914,-33.82"/>
<polygon fill="midnightblue" stroke="midnightblue" points="915.27,-37.09 923.62,-30.56 913.03,-30.46 915.27,-37.09"/>
</g>
<!-- Node22&#45;&gt;Node6 -->
<g id="edge29" class="edge">
<title>Node22&#45;&gt;Node6</title>
<path fill="none" stroke="midnightblue" d="M1042.88,-30.52C1059.4,-34.29 1077.26,-38.36 1094.22,-42.22"/>
<polygon fill="midnightblue" stroke="midnightblue" points="1093.56,-45.66 1104.09,-44.47 1095.12,-38.84 1093.56,-45.66"/>
</g>
<!-- Node22&#45;&gt;Node7 -->
<g id="edge30" class="edge">
<title>Node22&#45;&gt;Node7</title>
<path fill="none" stroke="midnightblue" d="M1056.29,-20.25C1121.65,-24.16 1213.41,-29.65 1275.71,-33.38"/>
<polygon fill="midnightblue" stroke="midnightblue" points="1275.64,-36.88 1285.83,-33.99 1276.06,-29.9 1275.64,-36.88"/>
</g>
<!-- Node23&#45;&gt;Node5 -->
<g id="edge35" class="edge">
<title>Node23&#45;&gt;Node5</title>
<path fill="none" stroke="midnightblue" d="M484.74,-118.36C494.3,-115.41 504.01,-112.1 513,-108.5 529.79,-101.77 531.44,-93.85 549,-89.5 610.69,-74.22 633.99,-63.54 692,-89.5 732.39,-107.57 763.3,-150.66 779.76,-178.11"/>
<polygon fill="midnightblue" stroke="midnightblue" points="776.92,-180.2 784.96,-187.09 782.98,-176.69 776.92,-180.2"/>
</g>
<!-- Node23&#45;&gt;Node20 -->
<g id="edge34" class="edge">
<title>Node23&#45;&gt;Node20</title>
<path fill="none" stroke="midnightblue" d="M491.66,-126.99C511.42,-125.06 533.06,-122.94 552.82,-121.01"/>
<polygon fill="midnightblue" stroke="midnightblue" points="553.35,-124.48 562.96,-120.02 552.67,-117.51 553.35,-124.48"/>
</g>
</g>
</svg>
        <g id="navigator" transform="translate(0 0)" fill="#404254">
                <rect fill="#f2f5e9" fill-opacity="0.5" stroke="#606060" stroke-width=".5" x="0" y="0" width="60" height="60"/>
                <use id="zoomplus" xlink:href="#zoomPlus" x="17" y="9" onmousedown="handleZoom(evt,'in')"/>
                <use id="zoomminus" xlink:href="#zoomMin" x="42" y="9" onmousedown="handleZoom(evt,'out')"/>
                <use id="reset" xlink:href="#resetDef" x="30" y="36" onmousedown="handleReset()"/>
                <g id="arrowUp" xlink:href="#dirArrow" transform="translate(30 24)" onmousedown="handlePan(0,-1)">
                  <use xlink:href="#rim" fill="#404040">
                        <set attributeName="fill" to="#808080" begin="arrowUp.mouseover" end="arrowUp.mouseout"/>
                  </use>
                  <path fill="none" stroke="white" stroke-width="1.5" d="M0,-3.0v7 M-2.5,-0.5L0,-3.0L2.5,-0.5"/>
                </g>
                <g id="arrowRight" xlink:href="#dirArrow" transform="rotate(90) translate(36 -43)" onmousedown="handlePan(1,0)">
                  <use xlink:href="#rim" fill="#404040">
                        <set attributeName="fill" to="#808080" begin="arrowRight.mouseover" end="arrowRight.mouseout"/>
                  </use>
                  <path fill="none" stroke="white" stroke-width="1.5" d="M0,-3.0v7 M-2.5,-0.5L0,-3.0L2.5,-0.5"/>
                </g>
                <g id="arrowDown" xlink:href="#dirArrow" transform="rotate(180) translate(-30 -48)" onmousedown="handlePan(0,1)">
                  <use xlink:href="#rim" fill="#404040">
                        <set attributeName="fill" to="#808080" begin="arrowDown.mouseover" end="arrowDown.mouseout"/>
                  </use>
                  <path fill="none" stroke="white" stroke-width="1.5" d="M0,-3.0v7 M-2.5,-0.5L0,-3.0L2.5,-0.5"/>
                </g>
                <g id="arrowLeft" xlink:href="#dirArrow" transform="rotate(270) translate(-36 17)" onmousedown="handlePan(-1,0)">
                  <use xlink:href="#rim" fill="#404040">
                        <set attributeName="fill" to="#808080" begin="arrowLeft.mouseover" end="arrowLeft.mouseout"/>
                  </use>
                  <path fill="none" stroke="white" stroke-width="1.5" d="M0,-3.0v7 M-2.5,-0.5L0,-3.0L2.5,-0.5"/>
                </g>
        </g>
        <svg viewBox="0 0 15 15" width="100%" height="30px" preserveAspectRatio="xMaxYMin meet">
         <g id="arrow_out" transform="scale(0.3 0.3)">
          <a xlink:href="classRa_1_1Gui_1_1Viewer_a48210627a598068db2492fc0aad99520_cgraph_org.svg" target="_base">
           <rect id="button" ry="5" rx="5" y="6" x="6" height="38" width="38"
                fill="#f2f5e9" fill-opacity="0.5" stroke="#606060" stroke-width="1.0"/>
           <path id="arrow"
             d="M 11.500037,31.436501 C 11.940474,20.09759 22.043105,11.32322 32.158766,21.979434 L 37.068811,17.246167 C 37.068811,17.246167 37.088388,32 37.088388,32 L 22.160133,31.978069 C 22.160133,31.978069 26.997745,27.140456 26.997745,27.140456 C 18.528582,18.264221 13.291696,25.230495 11.500037,31.436501 z"
             style="fill:#404040;"/>
          </a>
         </g>
        </svg>
</svg>
