<?xml version="1.0" encoding="UTF-8" standalone="no"?>
<!DOCTYPE svg PUBLIC "-//W3C//DTD SVG 1.1//EN"
 "http://www.w3.org/Graphics/SVG/1.1/DTD/svg11.dtd">
<!-- Generated by graphviz version 2.43.0 (0)
 -->
<!-- Title: Ra::Gui::TrackballCameraManipulator::TrackballCameraManipulator Pages: 1 -->
<!--zoomable 178 -->
<svg id="main" version="1.1" xmlns="http://www.w3.org/2000/svg" xmlns:xlink="http://www.w3.org/1999/xlink" xml:space="preserve" onload="init(evt)">
<style type="text/css"><![CDATA[
.edge:hover path { stroke: red; }
.edge:hover polygon { stroke: red; fill: red; }
]]></style>
<script type="text/javascript"><![CDATA[
var edges = document.getElementsByTagName('g');
if (edges && edges.length) {
  for (var i=0;i<edges.length;i++) {
    if (edges[i].id.substr(0,4)=='edge') {
      edges[i].setAttribute('class','edge');
    }
  }
}
]]></script>
        <defs>
                <circle id="rim" cx="0" cy="0" r="7"/>
                <circle id="rim2" cx="0" cy="0" r="3.5"/>
                <g id="zoomPlus">
                        <use xlink:href="#rim" fill="#404040">
                                <set attributeName="fill" to="#808080" begin="zoomplus.mouseover" end="zoomplus.mouseout"/>
                        </use>
                        <path d="M-4,0h8M0,-4v8" fill="none" stroke="white" stroke-width="1.5" pointer-events="none"/>
                </g>
                <g id="zoomMin">
                        <use xlink:href="#rim" fill="#404040">
                                <set attributeName="fill" to="#808080" begin="zoomminus.mouseover" end="zoomminus.mouseout"/>
                        </use>
                        <path d="M-4,0h8" fill="none" stroke="white" stroke-width="1.5" pointer-events="none"/>
                </g>
                <g id="dirArrow">
                        <path fill="none" stroke="white" stroke-width="1.5" d="M0,-3.0v7 M-2.5,-0.5L0,-3.0L2.5,-0.5"/>
                </g>
               <g id="resetDef">
                       <use xlink:href="#rim2" fill="#404040">
                               <set attributeName="fill" to="#808080" begin="reset.mouseover" end="reset.mouseout"/>
                       </use>
               </g>
        </defs>

<script type="text/javascript">
var viewWidth = 546;
var viewHeight = 178;
var sectionId = 'dynsection-2';
</script>
<script xlink:href="svgpan.js"/>
<svg id="graph" class="graph">
<g id="viewport">
<title>Ra::Gui::TrackballCameraManipulator::TrackballCameraManipulator</title>
<polygon fill="white" stroke="transparent" points="-4,4 -4,-174.44 542,-174.44 542,4 -4,4"/>
<!-- Node1 -->
<g id="node1" class="node">
<title>Node1</title>
<g id="a_node1"><a xlink:title=" ">
<polygon fill="#bfbfbf" stroke="black" points="0,-92 0,-133 163,-133 163,-92 0,-92"/>
<text text-anchor="start" x="8" y="-121" font-family="Helvetica,sans-Serif" font-size="10.00">Ra::Gui::TrackballCamera</text>
<text text-anchor="start" x="8" y="-110" font-family="Helvetica,sans-Serif" font-size="10.00">Manipulator::TrackballCamera</text>
<text text-anchor="middle" x="81.5" y="-99" font-family="Helvetica,sans-Serif" font-size="10.00">Manipulator</text>
</a>
</g>
</g>
<!-- Node2 -->
<g id="node2" class="node">
<title>Node2</title>
<g id="a_node2"><a xlink:href="classRa_1_1Core_1_1Asset_1_1Camera.html#aec6212574317a5395be2b49c19a90466" target="_top" xlink:title="Return the direction the camera is looking at.">
<polygon fill="white" stroke="black" points="398,-132.5 398,-162.5 533,-162.5 533,-132.5 398,-132.5"/>
<text text-anchor="start" x="406" y="-150.5" font-family="Helvetica,sans-Serif" font-size="10.00">Ra::Core::Asset::Camera</text>
<text text-anchor="middle" x="465.5" y="-139.5" font-family="Helvetica,sans-Serif" font-size="10.00">::getDirection</text>
</a>
</g>
</g>
<!-- Node1&#45;&gt;Node2 -->
<g id="edge1" class="edge">
<title>Node1&#45;&gt;Node2</title>
<path fill="none" stroke="midnightblue" d="M119.79,-133.12C142.05,-144.23 171.3,-156.81 199,-162.5 261.66,-175.38 334.28,-169.92 387.71,-162.2"/>
<polygon fill="midnightblue" stroke="midnightblue" points="388.43,-165.63 397.8,-160.69 387.39,-158.71 388.43,-165.63"/>
</g>
<!-- Node3 -->
<g id="node3" class="node">
<title>Node3</title>
<g id="a_node3"><a xlink:href="classRa_1_1Core_1_1Asset_1_1Camera.html#ae879404ea174280161cec397fb1710b7" target="_top" xlink:title=" ">
<polygon fill="white" stroke="black" points="210.5,-122.5 210.5,-152.5 345.5,-152.5 345.5,-122.5 210.5,-122.5"/>
<text text-anchor="start" x="218.5" y="-140.5" font-family="Helvetica,sans-Serif" font-size="10.00">Ra::Core::Asset::Camera</text>
<text text-anchor="middle" x="278" y="-129.5" font-family="Helvetica,sans-Serif" font-size="10.00">::getFrame</text>
</a>
</g>
</g>
<!-- Node1&#45;&gt;Node3 -->
<g id="edge2" class="edge">
<title>Node1&#45;&gt;Node3</title>
<path fill="none" stroke="midnightblue" d="M163.01,-122.85C175.34,-124.43 188.04,-126.07 200.29,-127.64"/>
<polygon fill="midnightblue" stroke="midnightblue" points="200.08,-131.14 210.45,-128.95 200.97,-124.2 200.08,-131.14"/>
</g>
<!-- Node4 -->
<g id="node4" class="node">
<title>Node4</title>
<g id="a_node4"><a xlink:href="classRa_1_1Core_1_1Asset_1_1Camera.html#a773a6d2a393cf8ec195afffe2030ed22" target="_top" xlink:title="Return the position.">
<polygon fill="white" stroke="black" points="210.5,-73.5 210.5,-103.5 345.5,-103.5 345.5,-73.5 210.5,-73.5"/>
<text text-anchor="start" x="218.5" y="-91.5" font-family="Helvetica,sans-Serif" font-size="10.00">Ra::Core::Asset::Camera</text>
<text text-anchor="middle" x="278" y="-80.5" font-family="Helvetica,sans-Serif" font-size="10.00">::getPosition</text>
</a>
</g>
</g>
<!-- Node1&#45;&gt;Node4 -->
<g id="edge3" class="edge">
<title>Node1&#45;&gt;Node4</title>
<path fill="none" stroke="midnightblue" d="M163.01,-102.57C175.34,-101.04 188.04,-99.48 200.29,-97.97"/>
<polygon fill="midnightblue" stroke="midnightblue" points="200.95,-101.41 210.45,-96.71 200.09,-94.46 200.95,-101.41"/>
</g>
<!-- Node5 -->
<g id="node5" class="node">
<title>Node5</title>
<g id="a_node5"><a xlink:href="classRa_1_1Gui_1_1TrackballCameraManipulator.html#ad7880fb45a56841fd743fb3ad80c2592" target="_top" xlink:title="Update the polar coordinates of the Camera w.r.t. the trackball center.">
<polygon fill="white" stroke="black" points="199,-24.5 199,-54.5 357,-54.5 357,-24.5 199,-24.5"/>
<text text-anchor="start" x="207" y="-42.5" font-family="Helvetica,sans-Serif" font-size="10.00">Ra::Gui::TrackballCamera</text>
<text text-anchor="middle" x="278" y="-31.5" font-family="Helvetica,sans-Serif" font-size="10.00">Manipulator::updatePhiTheta</text>
</a>
</g>
</g>
<!-- Node1&#45;&gt;Node5 -->
<g id="edge4" class="edge">
<title>Node1&#45;&gt;Node5</title>
<path fill="none" stroke="midnightblue" d="M128.29,-92C149.59,-82.78 175.39,-72.08 199,-63.5 204.46,-61.52 210.17,-59.55 215.91,-57.65"/>
<polygon fill="midnightblue" stroke="midnightblue" points="217.14,-60.94 225.57,-54.53 214.98,-54.28 217.14,-60.94"/>
</g>
<!-- Node5&#45;&gt;Node2 -->
<g id="edge6" class="edge">
<title>Node5&#45;&gt;Node2</title>
<path fill="none" stroke="midnightblue" d="M336.62,-54.59C343.64,-57.19 350.59,-60.16 357,-63.5 374.05,-72.4 412.74,-103.82 438.75,-125.6"/>
<polygon fill="midnightblue" stroke="midnightblue" points="436.79,-128.53 446.7,-132.29 441.3,-123.18 436.79,-128.53"/>
</g>
<!-- Node6 -->
<g id="node6" class="node">
<title>Node6</title>
<g id="a_node6"><a xlink:href="namespaceRa_1_1Core_1_1Math.html#a5d4492c5ddee7e4fa37dfdad0c4f8ba1" target="_top" xlink:title="Compare two numbers such that |x&#45;y| &lt; espilon*epsilonBoostFactor.">
<polygon fill="white" stroke="black" points="393,-49.5 393,-79.5 538,-79.5 538,-49.5 393,-49.5"/>
<text text-anchor="start" x="401" y="-67.5" font-family="Helvetica,sans-Serif" font-size="10.00">Ra::Core::Math::areApprox</text>
<text text-anchor="middle" x="465.5" y="-56.5" font-family="Helvetica,sans-Serif" font-size="10.00">Equal</text>
</a>
</g>
</g>
<!-- Node5&#45;&gt;Node6 -->
<g id="edge5" class="edge">
<title>Node5&#45;&gt;Node6</title>
<path fill="none" stroke="midnightblue" d="M357.13,-50.03C365.67,-51.18 374.38,-52.35 382.96,-53.51"/>
<polygon fill="midnightblue" stroke="midnightblue" points="382.58,-56.99 392.96,-54.86 383.51,-50.05 382.58,-56.99"/>
</g>
<!-- Node7 -->
<g id="node7" class="node">
<title>Node7</title>
<g id="a_node7"><a xlink:href="classRa_1_1Core_1_1Asset_1_1Camera.html#a857b2f451204f40344a4f0eb8a44c496" target="_top" xlink:title="Return the up vector.">
<polygon fill="white" stroke="black" points="398,-0.5 398,-30.5 533,-30.5 533,-0.5 398,-0.5"/>
<text text-anchor="start" x="406" y="-18.5" font-family="Helvetica,sans-Serif" font-size="10.00">Ra::Core::Asset::Camera</text>
<text text-anchor="middle" x="465.5" y="-7.5" font-family="Helvetica,sans-Serif" font-size="10.00">::getUpVector</text>
</a>
</g>
</g>
<!-- Node5&#45;&gt;Node7 -->
<g id="edge7" class="edge">
<title>Node5&#45;&gt;Node7</title>
<path fill="none" stroke="midnightblue" d="M357.13,-29.39C367.3,-28.08 377.72,-26.73 387.87,-25.41"/>
<polygon fill="midnightblue" stroke="midnightblue" points="388.44,-28.87 397.91,-24.12 387.54,-21.93 388.44,-28.87"/>
</g>
</g>
</svg>
        <g id="navigator" transform="translate(0 0)" fill="#404254">
                <rect fill="#f2f5e9" fill-opacity="0.5" stroke="#606060" stroke-width=".5" x="0" y="0" width="60" height="60"/>
                <use id="zoomplus" xlink:href="#zoomPlus" x="17" y="9" onmousedown="handleZoom(evt,'in')"/>
                <use id="zoomminus" xlink:href="#zoomMin" x="42" y="9" onmousedown="handleZoom(evt,'out')"/>
                <use id="reset" xlink:href="#resetDef" x="30" y="36" onmousedown="handleReset()"/>
                <g id="arrowUp" xlink:href="#dirArrow" transform="translate(30 24)" onmousedown="handlePan(0,-1)">
                  <use xlink:href="#rim" fill="#404040">
                        <set attributeName="fill" to="#808080" begin="arrowUp.mouseover" end="arrowUp.mouseout"/>
                  </use>
                  <path fill="none" stroke="white" stroke-width="1.5" d="M0,-3.0v7 M-2.5,-0.5L0,-3.0L2.5,-0.5"/>
                </g>
                <g id="arrowRight" xlink:href="#dirArrow" transform="rotate(90) translate(36 -43)" onmousedown="handlePan(1,0)">
                  <use xlink:href="#rim" fill="#404040">
                        <set attributeName="fill" to="#808080" begin="arrowRight.mouseover" end="arrowRight.mouseout"/>
                  </use>
                  <path fill="none" stroke="white" stroke-width="1.5" d="M0,-3.0v7 M-2.5,-0.5L0,-3.0L2.5,-0.5"/>
                </g>
                <g id="arrowDown" xlink:href="#dirArrow" transform="rotate(180) translate(-30 -48)" onmousedown="handlePan(0,1)">
                  <use xlink:href="#rim" fill="#404040">
                        <set attributeName="fill" to="#808080" begin="arrowDown.mouseover" end="arrowDown.mouseout"/>
                  </use>
                  <path fill="none" stroke="white" stroke-width="1.5" d="M0,-3.0v7 M-2.5,-0.5L0,-3.0L2.5,-0.5"/>
                </g>
                <g id="arrowLeft" xlink:href="#dirArrow" transform="rotate(270) translate(-36 17)" onmousedown="handlePan(-1,0)">
                  <use xlink:href="#rim" fill="#404040">
                        <set attributeName="fill" to="#808080" begin="arrowLeft.mouseover" end="arrowLeft.mouseout"/>
                  </use>
                  <path fill="none" stroke="white" stroke-width="1.5" d="M0,-3.0v7 M-2.5,-0.5L0,-3.0L2.5,-0.5"/>
                </g>
        </g>
        <svg viewBox="0 0 15 15" width="100%" height="30px" preserveAspectRatio="xMaxYMin meet">
         <g id="arrow_out" transform="scale(0.3 0.3)">
          <a xlink:href="classRa_1_1Gui_1_1TrackballCameraManipulator_aef3ab30dad6685b802e733df269b42bb_cgraph_org.svg" target="_base">
           <rect id="button" ry="5" rx="5" y="6" x="6" height="38" width="38"
                fill="#f2f5e9" fill-opacity="0.5" stroke="#606060" stroke-width="1.0"/>
           <path id="arrow"
             d="M 11.500037,31.436501 C 11.940474,20.09759 22.043105,11.32322 32.158766,21.979434 L 37.068811,17.246167 C 37.068811,17.246167 37.088388,32 37.088388,32 L 22.160133,31.978069 C 22.160133,31.978069 26.997745,27.140456 26.997745,27.140456 C 18.528582,18.264221 13.291696,25.230495 11.500037,31.436501 z"
             style="fill:#404040;"/>
          </a>
         </g>
        </svg>
</svg>
