<?xml version="1.0" encoding="UTF-8" standalone="no"?>
<!DOCTYPE svg PUBLIC "-//W3C//DTD SVG 1.1//EN"
 "http://www.w3.org/Graphics/SVG/1.1/DTD/svg11.dtd">
<!-- Generated by graphviz version 2.43.0 (0)
 -->
<!-- Title: Ra::Dataflow::Core::DataflowGraph::init Pages: 1 -->
<svg width="268pt" height="76pt"
 viewBox="0.00 0.00 268.00 75.50" xmlns="http://www.w3.org/2000/svg" xmlns:xlink="http://www.w3.org/1999/xlink">
<g id="graph0" class="graph" transform="scale(1 1) rotate(0) translate(4 71.5)">
<title>Ra::Dataflow::Core::DataflowGraph::init</title>
<!-- Node1 -->
<g id="Node000001" class="node">
<title>Node1</title>
<g id="a_Node000001"><a xlink:title="Initializes the node content.">
<polygon fill="#999999" stroke="#666666" points="117,-51 0,-51 0,-21 117,-21 117,-51"/>
<text text-anchor="start" x="8" y="-39" font-family="Helvetica,sans-Serif" font-size="10.00">Ra::Dataflow::Core</text>
<text text-anchor="middle" x="58.5" y="-28" font-family="Helvetica,sans-Serif" font-size="10.00">::DataflowGraph::init</text>
</a>
</g>
</g>
<!-- Node2 -->
<g id="Node000002" class="node">
<title>Node2</title>
<g id="a_Node000002"><a target="_blank" xlink:href="http://en.cppreference.com/w/cpp/algorithm/for_each.html#" xlink:title=" ">
<polygon fill="white" stroke="#666666" points="246.5,-67.5 166.5,-67.5 166.5,-48.5 246.5,-48.5 246.5,-67.5"/>
<text text-anchor="middle" x="206.5" y="-55.5" font-family="Helvetica,sans-Serif" font-size="10.00">std::for_each</text>
</a>
</g>
</g>
<!-- Node1&#45;&gt;Node2 -->
<g id="edge1_Node000001_Node000002" class="edge">
<title>Node1&#45;&gt;Node2</title>
<g id="a_edge1_Node000001_Node000002"><a xlink:title=" ">
<path fill="none" stroke="#63b8ff" d="M117.2,-44.69C130.03,-46.63 143.52,-48.66 155.98,-50.54"/>
<polygon fill="#63b8ff" stroke="#63b8ff" points="155.77,-54.05 166.18,-52.07 156.81,-47.12 155.77,-54.05"/>
</a>
</g>
</g>
<!-- Node3 -->
<g id="Node000003" class="node">
<title>Node3</title>
<g id="a_Node000003"><a xlink:href="classRa_1_1Dataflow_1_1Core_1_1Node.html#a3858bd67b03e908becebedf1bcb3ca1b" target="_top" xlink:title="Initializes the node content.">
<polygon fill="white" stroke="#666666" points="260,-30 153,-30 153,0 260,0 260,-30"/>
<text text-anchor="start" x="161" y="-18" font-family="Helvetica,sans-Serif" font-size="10.00">Ra::Dataflow::Core</text>
<text text-anchor="middle" x="206.5" y="-7" font-family="Helvetica,sans-Serif" font-size="10.00">::Node::init</text>
</a>
</g>
</g>
<!-- Node1&#45;&gt;Node3 -->
<g id="edge2_Node000001_Node000003" class="edge">
<title>Node1&#45;&gt;Node3</title>
<g id="a_edge2_Node000001_Node000003"><a xlink:title=" ">
<path fill="none" stroke="#63b8ff" d="M117.2,-27.7C125.68,-26.48 134.45,-25.22 143.02,-23.99"/>
<polygon fill="#63b8ff" stroke="#63b8ff" points="143.56,-27.45 152.96,-22.56 142.56,-20.52 143.56,-27.45"/>
</a>
</g>
</g>
</g>
</svg>
