<?xml version="1.0" encoding="UTF-8" standalone="no"?>
<!DOCTYPE svg PUBLIC "-//W3C//DTD SVG 1.1//EN"
 "http://www.w3.org/Graphics/SVG/1.1/DTD/svg11.dtd">
<!-- Generated by graphviz version 2.43.0 (0)
 -->
<!-- Title: Ra::Headless::CLIViewer::oneFrame Pages: 1 -->
<svg width="355pt" height="443pt"
 viewBox="0.00 0.00 355.00 443.00" xmlns="http://www.w3.org/2000/svg" xmlns:xlink="http://www.w3.org/1999/xlink">
<g id="graph0" class="graph" transform="scale(1 1) rotate(0) translate(4 439)">
<title>Ra::Headless::CLIViewer::oneFrame</title>
<polygon fill="white" stroke="transparent" points="-4,4 -4,-439 351,-439 351,4 -4,4"/>
<!-- Node1 -->
<g id="node1" class="node">
<title>Node1</title>
<g id="a_node1"><a xlink:title=" ">
<polygon fill="#bfbfbf" stroke="black" points="0,-208.5 0,-238.5 135,-238.5 135,-208.5 0,-208.5"/>
<text text-anchor="start" x="8" y="-226.5" font-family="Helvetica,sans-Serif" font-size="10.00">Ra::Headless::CLIViewer</text>
<text text-anchor="middle" x="67.5" y="-215.5" font-family="Helvetica,sans-Serif" font-size="10.00">::oneFrame</text>
</a>
</g>
</g>
<!-- Node2 -->
<g id="node2" class="node">
<title>Node2</title>
<g id="a_node2"><a xlink:href="classRa_1_1Core_1_1TaskQueue.html#a133a9b42dbb00afd3873b83a044c447f" target="_top" xlink:title="Erases all tasks. Will assert if tasks are unprocessed.">
<polygon fill="white" stroke="black" points="200.5,-404.5 200.5,-434.5 317.5,-434.5 317.5,-404.5 200.5,-404.5"/>
<text text-anchor="start" x="208.5" y="-422.5" font-family="Helvetica,sans-Serif" font-size="10.00">Ra::Core::TaskQueue</text>
<text text-anchor="middle" x="259" y="-411.5" font-family="Helvetica,sans-Serif" font-size="10.00">::flushTaskQueue</text>
</a>
</g>
</g>
<!-- Node1&#45;&gt;Node2 -->
<g id="edge1" class="edge">
<title>Node1&#45;&gt;Node2</title>
<path fill="none" stroke="midnightblue" d="M73.13,-238.54C84.25,-272.08 115.71,-353.36 171,-395.5 176.91,-400.01 183.62,-403.67 190.63,-406.64"/>
<polygon fill="midnightblue" stroke="midnightblue" points="189.73,-410.04 200.32,-410.28 192.19,-403.49 189.73,-410.04"/>
</g>
<!-- Node3 -->
<g id="node3" class="node">
<title>Node3</title>
<g id="a_node3"><a xlink:href="classRa_1_1Core_1_1Asset_1_1Camera.html#aa461c56f0e95754cfb18d0616247d848" target="_top" xlink:title="Return the projection matrix.">
<polygon fill="white" stroke="black" points="191.5,-355.5 191.5,-385.5 326.5,-385.5 326.5,-355.5 191.5,-355.5"/>
<text text-anchor="start" x="199.5" y="-373.5" font-family="Helvetica,sans-Serif" font-size="10.00">Ra::Core::Asset::Camera</text>
<text text-anchor="middle" x="259" y="-362.5" font-family="Helvetica,sans-Serif" font-size="10.00">::getProjMatrix</text>
</a>
</g>
</g>
<!-- Node1&#45;&gt;Node3 -->
<g id="edge2" class="edge">
<title>Node1&#45;&gt;Node3</title>
<path fill="none" stroke="midnightblue" d="M76.81,-238.52C92.02,-264.56 126.84,-318.03 171,-346.5 174.38,-348.68 177.97,-350.67 181.67,-352.47"/>
<polygon fill="midnightblue" stroke="midnightblue" points="180.53,-355.8 191.1,-356.61 183.34,-349.39 180.53,-355.8"/>
</g>
<!-- Node4 -->
<g id="node4" class="node">
<title>Node4</title>
<g id="a_node4"><a xlink:href="classRa_1_1Engine_1_1RadiumEngine.html#a0d17139d200315d89d81d54a31c0b69f" target="_top" xlink:title=" ">
<polygon fill="white" stroke="black" points="186.5,-306.5 186.5,-336.5 331.5,-336.5 331.5,-306.5 186.5,-306.5"/>
<text text-anchor="start" x="194.5" y="-324.5" font-family="Helvetica,sans-Serif" font-size="10.00">Ra::Engine::RadiumEngine</text>
<text text-anchor="middle" x="259" y="-313.5" font-family="Helvetica,sans-Serif" font-size="10.00">::getSystem</text>
</a>
</g>
</g>
<!-- Node1&#45;&gt;Node4 -->
<g id="edge3" class="edge">
<title>Node1&#45;&gt;Node4</title>
<path fill="none" stroke="midnightblue" d="M85.42,-238.67C104.8,-255.31 138.15,-281.74 171,-297.5 175.08,-299.46 179.35,-301.28 183.72,-302.97"/>
<polygon fill="midnightblue" stroke="midnightblue" points="182.79,-306.36 193.38,-306.47 185.17,-299.78 182.79,-306.36"/>
</g>
<!-- Node5 -->
<g id="node5" class="node">
<title>Node5</title>
<g id="a_node5"><a xlink:href="classRa_1_1Engine_1_1RadiumEngine.html#a35e421132933b7c8d1a977ec3ea0b744" target="_top" xlink:title=" ">
<polygon fill="white" stroke="black" points="186.5,-257.5 186.5,-287.5 331.5,-287.5 331.5,-257.5 186.5,-257.5"/>
<text text-anchor="start" x="194.5" y="-275.5" font-family="Helvetica,sans-Serif" font-size="10.00">Ra::Engine::RadiumEngine</text>
<text text-anchor="middle" x="259" y="-264.5" font-family="Helvetica,sans-Serif" font-size="10.00">::getTasks</text>
</a>
</g>
</g>
<!-- Node1&#45;&gt;Node5 -->
<g id="edge4" class="edge">
<title>Node1&#45;&gt;Node5</title>
<path fill="none" stroke="midnightblue" d="M126.64,-238.53C146.74,-243.73 169.44,-249.6 190.24,-254.98"/>
<polygon fill="midnightblue" stroke="midnightblue" points="189.41,-258.38 199.97,-257.49 191.16,-251.6 189.41,-258.38"/>
</g>
<!-- Node6 -->
<g id="node6" class="node">
<title>Node6</title>
<g id="a_node6"><a xlink:href="classRa_1_1Engine_1_1RadiumEngine.html#ad52558a6a92db22bb4e24eedd00705e0" target="_top" xlink:title="Sets the time delta between two frames for Constant&#45;time time flow.">
<polygon fill="white" stroke="black" points="186.5,-208.5 186.5,-238.5 331.5,-238.5 331.5,-208.5 186.5,-208.5"/>
<text text-anchor="start" x="194.5" y="-226.5" font-family="Helvetica,sans-Serif" font-size="10.00">Ra::Engine::RadiumEngine</text>
<text text-anchor="middle" x="259" y="-215.5" font-family="Helvetica,sans-Serif" font-size="10.00">::setConstantTimeStep</text>
</a>
</g>
</g>
<!-- Node1&#45;&gt;Node6 -->
<g id="edge5" class="edge">
<title>Node1&#45;&gt;Node6</title>
<path fill="none" stroke="midnightblue" d="M135.04,-223.5C148.3,-223.5 162.37,-223.5 176.07,-223.5"/>
<polygon fill="midnightblue" stroke="midnightblue" points="176.46,-227 186.46,-223.5 176.46,-220 176.46,-227"/>
</g>
<!-- Node7 -->
<g id="node7" class="node">
<title>Node7</title>
<g id="a_node7"><a xlink:href="classRa_1_1Core_1_1TaskQueue.html#a462ea1280f62fb46db3fa74b805857b0" target="_top" xlink:title=" ">
<polygon fill="white" stroke="black" points="200.5,-159.5 200.5,-189.5 317.5,-189.5 317.5,-159.5 200.5,-159.5"/>
<text text-anchor="start" x="208.5" y="-177.5" font-family="Helvetica,sans-Serif" font-size="10.00">Ra::Core::TaskQueue</text>
<text text-anchor="middle" x="259" y="-166.5" font-family="Helvetica,sans-Serif" font-size="10.00">::startTasks</text>
</a>
</g>
</g>
<!-- Node1&#45;&gt;Node7 -->
<g id="edge6" class="edge">
<title>Node1&#45;&gt;Node7</title>
<path fill="none" stroke="midnightblue" d="M126.64,-208.47C146.84,-203.24 169.65,-197.34 190.53,-191.94"/>
<polygon fill="midnightblue" stroke="midnightblue" points="191.49,-195.31 200.29,-189.42 189.73,-188.54 191.49,-195.31"/>
</g>
<!-- Node8 -->
<g id="node8" class="node">
<title>Node8</title>
<g id="a_node8"><a xlink:href="classRa_1_1Engine_1_1RadiumEngine.html#a24b6f3a111091bc4ba4b6f2b6a41498b" target="_top" xlink:title=" ">
<polygon fill="white" stroke="black" points="186.5,-110.5 186.5,-140.5 331.5,-140.5 331.5,-110.5 186.5,-110.5"/>
<text text-anchor="start" x="194.5" y="-128.5" font-family="Helvetica,sans-Serif" font-size="10.00">Ra::Engine::RadiumEngine</text>
<text text-anchor="middle" x="259" y="-117.5" font-family="Helvetica,sans-Serif" font-size="10.00">::step</text>
</a>
</g>
</g>
<!-- Node1&#45;&gt;Node8 -->
<g id="edge7" class="edge">
<title>Node1&#45;&gt;Node8</title>
<path fill="none" stroke="midnightblue" d="M85.84,-208.32C105.34,-191.96 138.53,-166.16 171,-150.5 175.87,-148.15 180.99,-145.99 186.23,-143.99"/>
<polygon fill="midnightblue" stroke="midnightblue" points="187.49,-147.26 195.72,-140.59 185.13,-140.67 187.49,-147.26"/>
</g>
<!-- Node9 -->
<g id="node9" class="node">
<title>Node9</title>
<g id="a_node9"><a xlink:href="classRa_1_1Engine_1_1Scene_1_1SkeletonBasedAnimationSystem.html#afbc168860dd06437a423bb160a6038c1" target="_top" xlink:title="Toggles skeleton display for all AnimationComponents.">
<polygon fill="white" stroke="black" points="171,-50 171,-91 347,-91 347,-50 171,-50"/>
<text text-anchor="start" x="179" y="-79" font-family="Helvetica,sans-Serif" font-size="10.00">Ra::Engine::Scene::</text>
<text text-anchor="start" x="179" y="-68" font-family="Helvetica,sans-Serif" font-size="10.00">SkeletonBasedAnimationSystem</text>
<text text-anchor="middle" x="259" y="-57" font-family="Helvetica,sans-Serif" font-size="10.00">::toggleSkeleton</text>
</a>
</g>
</g>
<!-- Node1&#45;&gt;Node9 -->
<g id="edge8" class="edge">
<title>Node1&#45;&gt;Node9</title>
<path fill="none" stroke="midnightblue" d="M77.57,-208.12C93.41,-182.51 128.51,-131.01 171,-101.5 173.92,-99.47 176.99,-97.56 180.15,-95.77"/>
<polygon fill="midnightblue" stroke="midnightblue" points="182.05,-98.72 189.3,-91 178.81,-92.52 182.05,-98.72"/>
</g>
<!-- Node10 -->
<g id="node10" class="node">
<title>Node10</title>
<g id="a_node10"><a xlink:href="classRa_1_1Core_1_1TaskQueue.html#ae4263fcdad580ffb7b5f28d29d5b7805" target="_top" xlink:title="Blocks until all tasks and dependencies are finished.">
<polygon fill="white" stroke="black" points="200.5,-0.5 200.5,-30.5 317.5,-30.5 317.5,-0.5 200.5,-0.5"/>
<text text-anchor="start" x="208.5" y="-18.5" font-family="Helvetica,sans-Serif" font-size="10.00">Ra::Core::TaskQueue</text>
<text text-anchor="middle" x="259" y="-7.5" font-family="Helvetica,sans-Serif" font-size="10.00">::waitForTasks</text>
</a>
</g>
</g>
<!-- Node1&#45;&gt;Node10 -->
<g id="edge9" class="edge">
<title>Node1&#45;&gt;Node10</title>
<path fill="none" stroke="midnightblue" d="M72.64,-208.35C83.01,-173.28 113.49,-86.07 171,-40.5 176.84,-35.87 183.51,-32.1 190.49,-29.02"/>
<polygon fill="midnightblue" stroke="midnightblue" points="192.12,-32.15 200.16,-25.25 189.57,-25.63 192.12,-32.15"/>
</g>
</g>
</svg>
