<?xml version="1.0" encoding="UTF-8" standalone="no"?>
<!DOCTYPE svg PUBLIC "-//W3C//DTD SVG 1.1//EN"
 "http://www.w3.org/Graphics/SVG/1.1/DTD/svg11.dtd">
<!-- Generated by graphviz version 2.43.0 (0)
 -->
<!-- Title: Ra::Core::Animation::KeyFramedValue::removeKeyFrame Pages: 1 -->
<svg width="340pt" height="50pt"
 viewBox="0.00 0.00 340.00 50.00" xmlns="http://www.w3.org/2000/svg" xmlns:xlink="http://www.w3.org/1999/xlink">
<g id="graph0" class="graph" transform="scale(1 1) rotate(0) translate(4 46)">
<title>Ra::Core::Animation::KeyFramedValue::removeKeyFrame</title>
<polygon fill="white" stroke="transparent" points="-4,4 -4,-46 336,-46 336,4 -4,4"/>
<!-- Node1 -->
<g id="node1" class="node">
<title>Node1</title>
<g id="a_node1"><a xlink:title=" ">
<polygon fill="#bfbfbf" stroke="black" points="0,-0.5 0,-41.5 166,-41.5 166,-0.5 0,-0.5"/>
<text text-anchor="start" x="8" y="-29.5" font-family="Helvetica,sans-Serif" font-size="10.00">Ra::Core::Animation</text>
<text text-anchor="start" x="8" y="-18.5" font-family="Helvetica,sans-Serif" font-size="10.00">::KeyFramedValue::removeKey</text>
<text text-anchor="middle" x="83" y="-7.5" font-family="Helvetica,sans-Serif" font-size="10.00">Frame</text>
</a>
</g>
</g>
<!-- Node2 -->
<g id="node2" class="node">
<title>Node2</title>
<g id="a_node2"><a xlink:href="classRa_1_1Core_1_1Animation_1_1KeyFramedValue.html#a6798916c08b04274db027330815c9aa2" target="_top" xlink:title=" ">
<polygon fill="white" stroke="black" points="202,-6 202,-36 332,-36 332,-6 202,-6"/>
<text text-anchor="start" x="210" y="-24" font-family="Helvetica,sans-Serif" font-size="10.00">Ra::Core::Animation</text>
<text text-anchor="middle" x="267" y="-13" font-family="Helvetica,sans-Serif" font-size="10.00">::KeyFramedValue::size</text>
</a>
</g>
</g>
<!-- Node1&#45;&gt;Node2 -->
<g id="edge1" class="edge">
<title>Node1&#45;&gt;Node2</title>
<path fill="none" stroke="midnightblue" d="M166.21,-21C174.72,-21 183.33,-21 191.74,-21"/>
<polygon fill="midnightblue" stroke="midnightblue" points="191.88,-24.5 201.88,-21 191.88,-17.5 191.88,-24.5"/>
</g>
</g>
</svg>
