<?xml version="1.0" encoding="UTF-8" standalone="no"?>
<!DOCTYPE svg PUBLIC "-//W3C//DTD SVG 1.1//EN"
 "http://www.w3.org/Graphics/SVG/1.1/DTD/svg11.dtd">
<!-- Generated by graphviz version 2.43.0 (0)
 -->
<!-- Title: Ra::Core::Utils::AttribManager::isValid Pages: 1 -->
<svg width="515pt" height="88pt"
 viewBox="0.00 0.00 515.00 88.00" xmlns="http://www.w3.org/2000/svg" xmlns:xlink="http://www.w3.org/1999/xlink">
<g id="graph0" class="graph" transform="scale(1 1) rotate(0) translate(4 84)">
<title>Ra::Core::Utils::AttribManager::isValid</title>
<polygon fill="white" stroke="transparent" points="-4,4 -4,-84 511,-84 511,4 -4,4"/>
<!-- Node1 -->
<g id="node1" class="node">
<title>Node1</title>
<g id="a_node1"><a xlink:title="Return true if h correspond to an existing attribute in *this.">
<polygon fill="#bfbfbf" stroke="black" points="0,-24.5 0,-54.5 162,-54.5 162,-24.5 0,-24.5"/>
<text text-anchor="start" x="8" y="-42.5" font-family="Helvetica,sans-Serif" font-size="10.00">Ra::Core::Utils::AttribManager</text>
<text text-anchor="middle" x="81" y="-31.5" font-family="Helvetica,sans-Serif" font-size="10.00">::isValid</text>
</a>
</g>
</g>
<!-- Node2 -->
<g id="node2" class="node">
<title>Node2</title>
<g id="a_node2"><a xlink:href="classRa_1_1Core_1_1Utils_1_1AttribHandle.html#a17afbd6718234d480c05258369bdfde9" target="_top" xlink:title=" ">
<polygon fill="white" stroke="black" points="198,-49.5 198,-79.5 352,-79.5 352,-49.5 198,-49.5"/>
<text text-anchor="start" x="206" y="-67.5" font-family="Helvetica,sans-Serif" font-size="10.00">Ra::Core::Utils::AttribHandle</text>
<text text-anchor="middle" x="275" y="-56.5" font-family="Helvetica,sans-Serif" font-size="10.00">::attribName</text>
</a>
</g>
</g>
<!-- Node1&#45;&gt;Node2 -->
<g id="edge1" class="edge">
<title>Node1&#45;&gt;Node2</title>
<path fill="none" stroke="midnightblue" d="M162.03,-49.92C170.54,-51.03 179.22,-52.16 187.79,-53.27"/>
<polygon fill="midnightblue" stroke="midnightblue" points="187.42,-56.76 197.79,-54.58 188.32,-49.81 187.42,-56.76"/>
</g>
<!-- Node3 -->
<g id="node3" class="node">
<title>Node3</title>
<g id="a_node3"><a xlink:href="classRa_1_1Core_1_1Utils_1_1Index.html#a771f93efd49538950e3cb9e57e46fbaf" target="_top" xlink:title=" ">
<polygon fill="white" stroke="black" points="215.5,-0.5 215.5,-30.5 334.5,-30.5 334.5,-0.5 215.5,-0.5"/>
<text text-anchor="start" x="223.5" y="-18.5" font-family="Helvetica,sans-Serif" font-size="10.00">Ra::Core::Utils::Index</text>
<text text-anchor="middle" x="275" y="-7.5" font-family="Helvetica,sans-Serif" font-size="10.00">::Invalid</text>
</a>
</g>
</g>
<!-- Node1&#45;&gt;Node3 -->
<g id="edge2" class="edge">
<title>Node1&#45;&gt;Node3</title>
<path fill="none" stroke="midnightblue" d="M162.03,-29.5C176.44,-27.69 191.34,-25.83 205.39,-24.08"/>
<polygon fill="midnightblue" stroke="midnightblue" points="205.96,-27.53 215.45,-22.82 205.09,-20.59 205.96,-27.53"/>
</g>
<!-- Node4 -->
<g id="node4" class="node">
<title>Node4</title>
<g id="a_node4"><a xlink:href="classRa_1_1Core_1_1Utils_1_1Index.html#ab3376097b792b1ac2068c6da1cb6c8e4" target="_top" xlink:title="CONSTRUCTOR.">
<polygon fill="white" stroke="black" points="388,-0.5 388,-30.5 507,-30.5 507,-0.5 388,-0.5"/>
<text text-anchor="start" x="396" y="-18.5" font-family="Helvetica,sans-Serif" font-size="10.00">Ra::Core::Utils::Index</text>
<text text-anchor="middle" x="447.5" y="-7.5" font-family="Helvetica,sans-Serif" font-size="10.00">::Index</text>
</a>
</g>
</g>
<!-- Node3&#45;&gt;Node4 -->
<g id="edge3" class="edge">
<title>Node3&#45;&gt;Node4</title>
<path fill="none" stroke="midnightblue" d="M334.68,-15.5C348.47,-15.5 363.3,-15.5 377.51,-15.5"/>
<polygon fill="midnightblue" stroke="midnightblue" points="377.72,-19 387.72,-15.5 377.72,-12 377.72,-19"/>
</g>
</g>
</svg>
