<?xml version="1.0" encoding="UTF-8" standalone="no"?>
<!DOCTYPE svg PUBLIC "-//W3C//DTD SVG 1.1//EN"
 "http://www.w3.org/Graphics/SVG/1.1/DTD/svg11.dtd">
<!-- Generated by graphviz version 2.43.0 (0)
 -->
<!-- Title: Ra::Core::Geometry::AttribArrayGeometry Pages: 1 -->
<!--zoomable 1688 -->
<svg id="main" version="1.1" xmlns="http://www.w3.org/2000/svg" xmlns:xlink="http://www.w3.org/1999/xlink" xml:space="preserve" onload="init(evt)">
<style type="text/css"><![CDATA[
.edge:hover path { stroke: red; }
.edge:hover polygon { stroke: red; fill: red; }
]]></style>
<script type="text/javascript"><![CDATA[
var edges = document.getElementsByTagName('g');
if (edges && edges.length) {
  for (var i=0;i<edges.length;i++) {
    if (edges[i].id.substr(0,4)=='edge') {
      edges[i].setAttribute('class','edge');
    }
  }
}
]]></script>
        <defs>
                <circle id="rim" cx="0" cy="0" r="7"/>
                <circle id="rim2" cx="0" cy="0" r="3.5"/>
                <g id="zoomPlus">
                        <use xlink:href="#rim" fill="#404040">
                                <set attributeName="fill" to="#808080" begin="zoomplus.mouseover" end="zoomplus.mouseout"/>
                        </use>
                        <path d="M-4,0h8M0,-4v8" fill="none" stroke="white" stroke-width="1.5" pointer-events="none"/>
                </g>
                <g id="zoomMin">
                        <use xlink:href="#rim" fill="#404040">
                                <set attributeName="fill" to="#808080" begin="zoomminus.mouseover" end="zoomminus.mouseout"/>
                        </use>
                        <path d="M-4,0h8" fill="none" stroke="white" stroke-width="1.5" pointer-events="none"/>
                </g>
                <g id="dirArrow">
                        <path fill="none" stroke="white" stroke-width="1.5" d="M0,-3.0v7 M-2.5,-0.5L0,-3.0L2.5,-0.5"/>
                </g>
               <g id="resetDef">
                       <use xlink:href="#rim2" fill="#404040">
                               <set attributeName="fill" to="#808080" begin="reset.mouseover" end="reset.mouseout"/>
                       </use>
               </g>
        </defs>

<script type="text/javascript">
var viewWidth = 972;
var viewHeight = 1688;
var sectionId = 'dynsection-0';
</script>
<script xlink:href="svgpan.js"/>
<svg id="graph" class="graph">
<g id="viewport">
<title>Ra::Core::Geometry::AttribArrayGeometry</title>
<polygon fill="white" stroke="transparent" points="-4,4 -4,-1684 968,-1684 968,4 -4,4"/>
<!-- Node1 -->
<g id="node1" class="node">
<title>Node1</title>
<g id="a_node1"><a xlink:title="This class represents vertex + attributes per vertex. Toplogy is handled in MultiIndexedGeometry subc...">
<polygon fill="#bfbfbf" stroke="black" points="505,-834.5 505,-1463.5 651,-1463.5 651,-834.5 505,-834.5"/>
<text text-anchor="start" x="513" y="-1451.5" font-family="Helvetica,sans-Serif" font-size="10.00">Ra::Core::Geometry</text>
<text text-anchor="middle" x="578" y="-1440.5" font-family="Helvetica,sans-Serif" font-size="10.00">::AttribArrayGeometry</text>
<polyline fill="none" stroke="black" points="505,-1433.5 651,-1433.5 "/>
<text text-anchor="middle" x="578" y="-1421.5" font-family="Helvetica,sans-Serif" font-size="10.00"> </text>
<polyline fill="none" stroke="black" points="505,-1414.5 651,-1414.5 "/>
<text text-anchor="start" x="513" y="-1402.5" font-family="Helvetica,sans-Serif" font-size="10.00">+ AttribArrayGeometry()</text>
<text text-anchor="start" x="513" y="-1391.5" font-family="Helvetica,sans-Serif" font-size="10.00">+ AttribArrayGeometry()</text>
<text text-anchor="start" x="513" y="-1380.5" font-family="Helvetica,sans-Serif" font-size="10.00">+ AttribArrayGeometry()</text>
<text text-anchor="start" x="513" y="-1369.5" font-family="Helvetica,sans-Serif" font-size="10.00">+ operator=()</text>
<text text-anchor="start" x="513" y="-1358.5" font-family="Helvetica,sans-Serif" font-size="10.00">+ operator=()</text>
<text text-anchor="start" x="513" y="-1347.5" font-family="Helvetica,sans-Serif" font-size="10.00">+ ~AttribArrayGeometry()</text>
<text text-anchor="start" x="513" y="-1336.5" font-family="Helvetica,sans-Serif" font-size="10.00">+ append()</text>
<text text-anchor="start" x="513" y="-1325.5" font-family="Helvetica,sans-Serif" font-size="10.00">+ clear()</text>
<text text-anchor="start" x="513" y="-1314.5" font-family="Helvetica,sans-Serif" font-size="10.00">+ setVertices()</text>
<text text-anchor="start" x="513" y="-1303.5" font-family="Helvetica,sans-Serif" font-size="10.00">+ setVertices()</text>
<text text-anchor="start" x="513" y="-1292.5" font-family="Helvetica,sans-Serif" font-size="10.00">+ vertices()</text>
<text text-anchor="start" x="513" y="-1281.5" font-family="Helvetica,sans-Serif" font-size="10.00">+ setNormals()</text>
<text text-anchor="start" x="513" y="-1270.5" font-family="Helvetica,sans-Serif" font-size="10.00">+ setNormals()</text>
<text text-anchor="start" x="513" y="-1259.5" font-family="Helvetica,sans-Serif" font-size="10.00">+ normals()</text>
<text text-anchor="start" x="513" y="-1248.5" font-family="Helvetica,sans-Serif" font-size="10.00">+ getAttribHandle()</text>
<text text-anchor="start" x="513" y="-1237.5" font-family="Helvetica,sans-Serif" font-size="10.00">+ isValid()</text>
<text text-anchor="start" x="513" y="-1226.5" font-family="Helvetica,sans-Serif" font-size="10.00">+ hasAttrib()</text>
<text text-anchor="start" x="513" y="-1215.5" font-family="Helvetica,sans-Serif" font-size="10.00">+ removeAttrib()</text>
<text text-anchor="start" x="513" y="-1204.5" font-family="Helvetica,sans-Serif" font-size="10.00">+ clearAttributes()</text>
<text text-anchor="start" x="513" y="-1193.5" font-family="Helvetica,sans-Serif" font-size="10.00">+ copyBaseGeometry()</text>
<text text-anchor="start" x="513" y="-1182.5" font-family="Helvetica,sans-Serif" font-size="10.00">+ copyAttributes()</text>
<text text-anchor="start" x="513" y="-1171.5" font-family="Helvetica,sans-Serif" font-size="10.00">+ copyAllAttributes()</text>
<text text-anchor="start" x="513" y="-1160.5" font-family="Helvetica,sans-Serif" font-size="10.00">+ computeAabb()</text>
<text text-anchor="start" x="513" y="-1149.5" font-family="Helvetica,sans-Serif" font-size="10.00">+ colorize()</text>
<text text-anchor="start" x="513" y="-1138.5" font-family="Helvetica,sans-Serif" font-size="10.00">+ vertexAttribs()</text>
<text text-anchor="start" x="513" y="-1127.5" font-family="Helvetica,sans-Serif" font-size="10.00">+ vertexAttribs()</text>
<text text-anchor="start" x="513" y="-1116.5" font-family="Helvetica,sans-Serif" font-size="10.00">+ verticesWithLock()</text>
<text text-anchor="start" x="513" y="-1105.5" font-family="Helvetica,sans-Serif" font-size="10.00">+ verticesUnlock()</text>
<text text-anchor="start" x="513" y="-1094.5" font-family="Helvetica,sans-Serif" font-size="10.00">+ normalsWithLock()</text>
<text text-anchor="start" x="513" y="-1083.5" font-family="Helvetica,sans-Serif" font-size="10.00">+ normalsUnlock()</text>
<text text-anchor="start" x="513" y="-1072.5" font-family="Helvetica,sans-Serif" font-size="10.00">+ getAttrib()</text>
<text text-anchor="start" x="513" y="-1061.5" font-family="Helvetica,sans-Serif" font-size="10.00">+ getAttrib()</text>
<text text-anchor="start" x="513" y="-1050.5" font-family="Helvetica,sans-Serif" font-size="10.00">+ getAttrib()</text>
<text text-anchor="start" x="513" y="-1039.5" font-family="Helvetica,sans-Serif" font-size="10.00">+ getAttrib()</text>
<text text-anchor="start" x="513" y="-1028.5" font-family="Helvetica,sans-Serif" font-size="10.00">+ getAttribPtr()</text>
<text text-anchor="start" x="513" y="-1017.5" font-family="Helvetica,sans-Serif" font-size="10.00">+ getAttribPtr()</text>
<text text-anchor="start" x="513" y="-1006.5" font-family="Helvetica,sans-Serif" font-size="10.00">+ getAttribBase()</text>
<text text-anchor="start" x="513" y="-995.5" font-family="Helvetica,sans-Serif" font-size="10.00">+ getAttribBase()</text>
<text text-anchor="start" x="513" y="-984.5" font-family="Helvetica,sans-Serif" font-size="10.00">+ addAttrib()</text>
<text text-anchor="start" x="513" y="-973.5" font-family="Helvetica,sans-Serif" font-size="10.00">+ addAttrib()</text>
<text text-anchor="start" x="513" y="-962.5" font-family="Helvetica,sans-Serif" font-size="10.00">+ addAttrib()</text>
<text text-anchor="start" x="513" y="-951.5" font-family="Helvetica,sans-Serif" font-size="10.00">* getAttrib()</text>
<text text-anchor="start" x="513" y="-940.5" font-family="Helvetica,sans-Serif" font-size="10.00">* getAttrib()</text>
<text text-anchor="start" x="513" y="-929.5" font-family="Helvetica,sans-Serif" font-size="10.00">* getAttrib()</text>
<text text-anchor="start" x="513" y="-918.5" font-family="Helvetica,sans-Serif" font-size="10.00">* getAttrib()</text>
<text text-anchor="start" x="513" y="-907.5" font-family="Helvetica,sans-Serif" font-size="10.00">* getAttribPtr()</text>
<text text-anchor="start" x="513" y="-896.5" font-family="Helvetica,sans-Serif" font-size="10.00">* getAttribPtr()</text>
<text text-anchor="start" x="513" y="-885.5" font-family="Helvetica,sans-Serif" font-size="10.00">* getAttribBase()</text>
<text text-anchor="start" x="513" y="-874.5" font-family="Helvetica,sans-Serif" font-size="10.00">* getAttribBase()</text>
<text text-anchor="start" x="513" y="-863.5" font-family="Helvetica,sans-Serif" font-size="10.00">* addAttrib()</text>
<text text-anchor="start" x="513" y="-852.5" font-family="Helvetica,sans-Serif" font-size="10.00">* addAttrib()</text>
<text text-anchor="start" x="513" y="-841.5" font-family="Helvetica,sans-Serif" font-size="10.00">* addAttrib()</text>
</a>
</g>
</g>
<!-- Node3 -->
<g id="node3" class="node">
<title>Node3</title>
<g id="a_node3"><a xlink:href="classRa_1_1Core_1_1Geometry_1_1MultiIndexedGeometry.html" target="_top" xlink:title="AbstractGeometry with per&#45;vertex attributes and layers of indices. Each layer represents a different ...">
<polygon fill="white" stroke="black" points="478.5,-354.5 478.5,-796.5 677.5,-796.5 677.5,-354.5 478.5,-354.5"/>
<text text-anchor="start" x="486.5" y="-784.5" font-family="Helvetica,sans-Serif" font-size="10.00">Ra::Core::Geometry</text>
<text text-anchor="middle" x="578" y="-773.5" font-family="Helvetica,sans-Serif" font-size="10.00">::MultiIndexedGeometry</text>
<polyline fill="none" stroke="black" points="478.5,-766.5 677.5,-766.5 "/>
<text text-anchor="middle" x="578" y="-754.5" font-family="Helvetica,sans-Serif" font-size="10.00"> </text>
<polyline fill="none" stroke="black" points="478.5,-747.5 677.5,-747.5 "/>
<text text-anchor="start" x="486.5" y="-735.5" font-family="Helvetica,sans-Serif" font-size="10.00">+ MultiIndexedGeometry()</text>
<text text-anchor="start" x="486.5" y="-724.5" font-family="Helvetica,sans-Serif" font-size="10.00">+ MultiIndexedGeometry()</text>
<text text-anchor="start" x="486.5" y="-713.5" font-family="Helvetica,sans-Serif" font-size="10.00">+ MultiIndexedGeometry()</text>
<text text-anchor="start" x="486.5" y="-702.5" font-family="Helvetica,sans-Serif" font-size="10.00">+ MultiIndexedGeometry()</text>
<text text-anchor="start" x="486.5" y="-691.5" font-family="Helvetica,sans-Serif" font-size="10.00">+ MultiIndexedGeometry()</text>
<text text-anchor="start" x="486.5" y="-680.5" font-family="Helvetica,sans-Serif" font-size="10.00">+ operator=()</text>
<text text-anchor="start" x="486.5" y="-669.5" font-family="Helvetica,sans-Serif" font-size="10.00">+ operator=()</text>
<text text-anchor="start" x="486.5" y="-658.5" font-family="Helvetica,sans-Serif" font-size="10.00">+ ~MultiIndexedGeometry()</text>
<text text-anchor="start" x="486.5" y="-647.5" font-family="Helvetica,sans-Serif" font-size="10.00">+ clear()</text>
<text text-anchor="start" x="486.5" y="-636.5" font-family="Helvetica,sans-Serif" font-size="10.00">+ copy()</text>
<text text-anchor="start" x="486.5" y="-625.5" font-family="Helvetica,sans-Serif" font-size="10.00">+ checkConsistency()</text>
<text text-anchor="start" x="486.5" y="-614.5" font-family="Helvetica,sans-Serif" font-size="10.00">+ append()</text>
<text text-anchor="start" x="486.5" y="-603.5" font-family="Helvetica,sans-Serif" font-size="10.00">+ containsLayer()</text>
<text text-anchor="start" x="486.5" y="-592.5" font-family="Helvetica,sans-Serif" font-size="10.00">+ containsLayer()</text>
<text text-anchor="start" x="486.5" y="-581.5" font-family="Helvetica,sans-Serif" font-size="10.00">+ containsLayer()</text>
<text text-anchor="start" x="486.5" y="-570.5" font-family="Helvetica,sans-Serif" font-size="10.00">+ containsLayer()</text>
<text text-anchor="start" x="486.5" y="-559.5" font-family="Helvetica,sans-Serif" font-size="10.00">+ countLayers()</text>
<text text-anchor="start" x="486.5" y="-548.5" font-family="Helvetica,sans-Serif" font-size="10.00">+ countLayers()</text>
<text text-anchor="start" x="486.5" y="-537.5" font-family="Helvetica,sans-Serif" font-size="10.00">+ countLayers()</text>
<text text-anchor="start" x="486.5" y="-526.5" font-family="Helvetica,sans-Serif" font-size="10.00">+ countLayers()</text>
<text text-anchor="start" x="486.5" y="-515.5" font-family="Helvetica,sans-Serif" font-size="10.00">+ getLayer()</text>
<text text-anchor="start" x="486.5" y="-504.5" font-family="Helvetica,sans-Serif" font-size="10.00">+ getLayer()</text>
<text text-anchor="start" x="486.5" y="-493.5" font-family="Helvetica,sans-Serif" font-size="10.00">+ getFirstLayerOccurrence()</text>
<text text-anchor="start" x="486.5" y="-482.5" font-family="Helvetica,sans-Serif" font-size="10.00">+ getFirstLayerOccurrence()</text>
<text text-anchor="start" x="486.5" y="-471.5" font-family="Helvetica,sans-Serif" font-size="10.00">+ getLayerWithLock()</text>
<text text-anchor="start" x="486.5" y="-460.5" font-family="Helvetica,sans-Serif" font-size="10.00">+ getLayerWithLock()</text>
<text text-anchor="start" x="486.5" y="-449.5" font-family="Helvetica,sans-Serif" font-size="10.00">+ getFirstLayerOccurrenceWithLock()</text>
<text text-anchor="start" x="486.5" y="-438.5" font-family="Helvetica,sans-Serif" font-size="10.00">+ getFirstLayerOccurrenceWithLock()</text>
<text text-anchor="start" x="486.5" y="-427.5" font-family="Helvetica,sans-Serif" font-size="10.00">+ unlockLayer()</text>
<text text-anchor="start" x="486.5" y="-416.5" font-family="Helvetica,sans-Serif" font-size="10.00">+ unlockLayer2()</text>
<text text-anchor="start" x="486.5" y="-405.5" font-family="Helvetica,sans-Serif" font-size="10.00">+ unlockLayer()</text>
<text text-anchor="start" x="486.5" y="-394.5" font-family="Helvetica,sans-Serif" font-size="10.00">+ addLayer()</text>
<text text-anchor="start" x="486.5" y="-383.5" font-family="Helvetica,sans-Serif" font-size="10.00">+ layerKeys()</text>
<text text-anchor="start" x="486.5" y="-372.5" font-family="Helvetica,sans-Serif" font-size="10.00"># unlockFirstLayerOccurrence()</text>
<text text-anchor="start" x="486.5" y="-361.5" font-family="Helvetica,sans-Serif" font-size="10.00"># unlockFirstLayerOccurrence()</text>
</a>
</g>
</g>
<!-- Node1&#45;&gt;Node3 -->
<g id="edge2" class="edge">
<title>Node1&#45;&gt;Node3</title>
<path fill="none" stroke="midnightblue" d="M578,-824.23C578,-815.01 578,-805.85 578,-796.78"/>
<polygon fill="none" stroke="midnightblue" points="574.5,-824.25 578,-834.25 581.5,-824.25 574.5,-824.25"/>
</g>
<!-- Node2 -->
<g id="node2" class="node">
<title>Node2</title>
<g id="a_node2"><a xlink:href="structRa_1_1Core_1_1Geometry_1_1AbstractGeometry.html" target="_top" xlink:title=" ">
<polygon fill="white" stroke="black" points="511.5,-1501.5 511.5,-1679.5 644.5,-1679.5 644.5,-1501.5 511.5,-1501.5"/>
<text text-anchor="start" x="519.5" y="-1667.5" font-family="Helvetica,sans-Serif" font-size="10.00">Ra::Core::Geometry</text>
<text text-anchor="middle" x="578" y="-1656.5" font-family="Helvetica,sans-Serif" font-size="10.00">::AbstractGeometry</text>
<polyline fill="none" stroke="black" points="511.5,-1649.5 644.5,-1649.5 "/>
<text text-anchor="middle" x="578" y="-1637.5" font-family="Helvetica,sans-Serif" font-size="10.00"> </text>
<polyline fill="none" stroke="black" points="511.5,-1630.5 644.5,-1630.5 "/>
<text text-anchor="start" x="519.5" y="-1618.5" font-family="Helvetica,sans-Serif" font-size="10.00">+ ~AbstractGeometry()</text>
<text text-anchor="start" x="519.5" y="-1607.5" font-family="Helvetica,sans-Serif" font-size="10.00">+ AbstractGeometry()</text>
<text text-anchor="start" x="519.5" y="-1596.5" font-family="Helvetica,sans-Serif" font-size="10.00">+ AbstractGeometry()</text>
<text text-anchor="start" x="519.5" y="-1585.5" font-family="Helvetica,sans-Serif" font-size="10.00">+ operator=()</text>
<text text-anchor="start" x="519.5" y="-1574.5" font-family="Helvetica,sans-Serif" font-size="10.00">+ clear()</text>
<text text-anchor="start" x="519.5" y="-1563.5" font-family="Helvetica,sans-Serif" font-size="10.00">+ computeAabb()</text>
<text text-anchor="start" x="519.5" y="-1552.5" font-family="Helvetica,sans-Serif" font-size="10.00">+ getAabbObservable()</text>
<text text-anchor="start" x="519.5" y="-1541.5" font-family="Helvetica,sans-Serif" font-size="10.00"># isAabbValid()</text>
<text text-anchor="start" x="519.5" y="-1530.5" font-family="Helvetica,sans-Serif" font-size="10.00"># getAabb()</text>
<text text-anchor="start" x="519.5" y="-1519.5" font-family="Helvetica,sans-Serif" font-size="10.00"># invalidateAabb()</text>
<text text-anchor="start" x="519.5" y="-1508.5" font-family="Helvetica,sans-Serif" font-size="10.00"># setAabb()</text>
</a>
</g>
</g>
<!-- Node2&#45;&gt;Node1 -->
<g id="edge1" class="edge">
<title>Node2&#45;&gt;Node1</title>
<path fill="none" stroke="midnightblue" d="M578,-1491.23C578,-1482.46 578,-1473.31 578,-1463.87"/>
<polygon fill="none" stroke="midnightblue" points="574.5,-1491.35 578,-1501.35 581.5,-1491.35 574.5,-1491.35"/>
</g>
<!-- Node4 -->
<g id="node4" class="node">
<title>Node4</title>
<g id="a_node4"><a xlink:href="classRa_1_1Core_1_1Geometry_1_1IndexedGeometry.html" target="_top" xlink:title=" ">
<polygon fill="white" stroke="black" points="196,-0.5 196,-134.5 374,-134.5 374,-0.5 196,-0.5"/>
<text text-anchor="start" x="204" y="-122.5" font-family="Helvetica,sans-Serif" font-size="10.00">Ra::Core::Geometry</text>
<text text-anchor="middle" x="285" y="-111.5" font-family="Helvetica,sans-Serif" font-size="10.00">::IndexedGeometry&lt; Vector1ui &gt;</text>
<polyline fill="none" stroke="black" points="196,-104.5 374,-104.5 "/>
<text text-anchor="middle" x="285" y="-92.5" font-family="Helvetica,sans-Serif" font-size="10.00"> </text>
<polyline fill="none" stroke="black" points="196,-85.5 374,-85.5 "/>
<text text-anchor="start" x="204" y="-73.5" font-family="Helvetica,sans-Serif" font-size="10.00">+ IndexedGeometry()</text>
<text text-anchor="start" x="204" y="-62.5" font-family="Helvetica,sans-Serif" font-size="10.00">+ getIndices()</text>
<text text-anchor="start" x="204" y="-51.5" font-family="Helvetica,sans-Serif" font-size="10.00">+ getIndicesWithLock()</text>
<text text-anchor="start" x="204" y="-40.5" font-family="Helvetica,sans-Serif" font-size="10.00">+ indicesUnlock()</text>
<text text-anchor="start" x="204" y="-29.5" font-family="Helvetica,sans-Serif" font-size="10.00">+ setIndices()</text>
<text text-anchor="start" x="204" y="-18.5" font-family="Helvetica,sans-Serif" font-size="10.00">+ setIndices()</text>
<text text-anchor="start" x="204" y="-7.5" font-family="Helvetica,sans-Serif" font-size="10.00">+ getLayerKey()</text>
</a>
</g>
</g>
<!-- Node3&#45;&gt;Node4 -->
<g id="edge3" class="edge">
<title>Node3&#45;&gt;Node4</title>
<path fill="none" stroke="midnightblue" d="M470.6,-488.93C385.49,-413.7 273.01,-295.87 224,-164 220.33,-154.13 220.86,-144.22 224,-134.71"/>
<polygon fill="none" stroke="midnightblue" points="468.41,-491.66 478.23,-495.63 473.02,-486.4 468.41,-491.66"/>
</g>
<!-- Node5 -->
<g id="node5" class="node">
<title>Node5</title>
<g id="a_node5"><a xlink:href="classRa_1_1Core_1_1Geometry_1_1IndexedGeometry.html" target="_top" xlink:title=" ">
<polygon fill="white" stroke="black" points="0,-0.5 0,-134.5 178,-134.5 178,-0.5 0,-0.5"/>
<text text-anchor="start" x="8" y="-122.5" font-family="Helvetica,sans-Serif" font-size="10.00">Ra::Core::Geometry</text>
<text text-anchor="middle" x="89" y="-111.5" font-family="Helvetica,sans-Serif" font-size="10.00">::IndexedGeometry&lt; Vector2ui &gt;</text>
<polyline fill="none" stroke="black" points="0,-104.5 178,-104.5 "/>
<text text-anchor="middle" x="89" y="-92.5" font-family="Helvetica,sans-Serif" font-size="10.00"> </text>
<polyline fill="none" stroke="black" points="0,-85.5 178,-85.5 "/>
<text text-anchor="start" x="8" y="-73.5" font-family="Helvetica,sans-Serif" font-size="10.00">+ IndexedGeometry()</text>
<text text-anchor="start" x="8" y="-62.5" font-family="Helvetica,sans-Serif" font-size="10.00">+ getIndices()</text>
<text text-anchor="start" x="8" y="-51.5" font-family="Helvetica,sans-Serif" font-size="10.00">+ getIndicesWithLock()</text>
<text text-anchor="start" x="8" y="-40.5" font-family="Helvetica,sans-Serif" font-size="10.00">+ indicesUnlock()</text>
<text text-anchor="start" x="8" y="-29.5" font-family="Helvetica,sans-Serif" font-size="10.00">+ setIndices()</text>
<text text-anchor="start" x="8" y="-18.5" font-family="Helvetica,sans-Serif" font-size="10.00">+ setIndices()</text>
<text text-anchor="start" x="8" y="-7.5" font-family="Helvetica,sans-Serif" font-size="10.00">+ getLayerKey()</text>
</a>
</g>
</g>
<!-- Node3&#45;&gt;Node5 -->
<g id="edge4" class="edge">
<title>Node3&#45;&gt;Node5</title>
<path fill="none" stroke="midnightblue" d="M469.98,-512.19C395.49,-465.38 297.71,-395.96 228,-317 179.58,-262.15 140.69,-187.67 116.49,-134.58"/>
<polygon fill="none" stroke="midnightblue" points="468.15,-515.17 478.49,-517.5 471.86,-509.23 468.15,-515.17"/>
</g>
<!-- Node6 -->
<g id="node6" class="node">
<title>Node6</title>
<g id="a_node6"><a xlink:href="classRa_1_1Core_1_1Geometry_1_1IndexedGeometry.html" target="_top" xlink:title=" ">
<polygon fill="white" stroke="black" points="392,-0.5 392,-134.5 570,-134.5 570,-0.5 392,-0.5"/>
<text text-anchor="start" x="400" y="-122.5" font-family="Helvetica,sans-Serif" font-size="10.00">Ra::Core::Geometry</text>
<text text-anchor="middle" x="481" y="-111.5" font-family="Helvetica,sans-Serif" font-size="10.00">::IndexedGeometry&lt; Vector3ui &gt;</text>
<polyline fill="none" stroke="black" points="392,-104.5 570,-104.5 "/>
<text text-anchor="middle" x="481" y="-92.5" font-family="Helvetica,sans-Serif" font-size="10.00"> </text>
<polyline fill="none" stroke="black" points="392,-85.5 570,-85.5 "/>
<text text-anchor="start" x="400" y="-73.5" font-family="Helvetica,sans-Serif" font-size="10.00">+ IndexedGeometry()</text>
<text text-anchor="start" x="400" y="-62.5" font-family="Helvetica,sans-Serif" font-size="10.00">+ getIndices()</text>
<text text-anchor="start" x="400" y="-51.5" font-family="Helvetica,sans-Serif" font-size="10.00">+ getIndicesWithLock()</text>
<text text-anchor="start" x="400" y="-40.5" font-family="Helvetica,sans-Serif" font-size="10.00">+ indicesUnlock()</text>
<text text-anchor="start" x="400" y="-29.5" font-family="Helvetica,sans-Serif" font-size="10.00">+ setIndices()</text>
<text text-anchor="start" x="400" y="-18.5" font-family="Helvetica,sans-Serif" font-size="10.00">+ setIndices()</text>
<text text-anchor="start" x="400" y="-7.5" font-family="Helvetica,sans-Serif" font-size="10.00">+ getLayerKey()</text>
</a>
</g>
</g>
<!-- Node3&#45;&gt;Node6 -->
<g id="edge5" class="edge">
<title>Node3&#45;&gt;Node6</title>
<path fill="none" stroke="midnightblue" d="M620.63,-344.02C622.69,-279.58 615.08,-211.29 587,-153 582.66,-143.99 576.84,-135.64 570.15,-127.98"/>
<polygon fill="none" stroke="midnightblue" points="617.12,-344.19 620.21,-354.32 624.11,-344.47 617.12,-344.19"/>
</g>
<!-- Node7 -->
<g id="node7" class="node">
<title>Node7</title>
<g id="a_node7"><a xlink:href="classRa_1_1Core_1_1Geometry_1_1IndexedGeometry.html" target="_top" xlink:title=" ">
<polygon fill="white" stroke="black" points="786,-0.5 786,-134.5 964,-134.5 964,-0.5 786,-0.5"/>
<text text-anchor="start" x="794" y="-122.5" font-family="Helvetica,sans-Serif" font-size="10.00">Ra::Core::Geometry</text>
<text text-anchor="middle" x="875" y="-111.5" font-family="Helvetica,sans-Serif" font-size="10.00">::IndexedGeometry&lt; Vector4ui &gt;</text>
<polyline fill="none" stroke="black" points="786,-104.5 964,-104.5 "/>
<text text-anchor="middle" x="875" y="-92.5" font-family="Helvetica,sans-Serif" font-size="10.00"> </text>
<polyline fill="none" stroke="black" points="786,-85.5 964,-85.5 "/>
<text text-anchor="start" x="794" y="-73.5" font-family="Helvetica,sans-Serif" font-size="10.00">+ IndexedGeometry()</text>
<text text-anchor="start" x="794" y="-62.5" font-family="Helvetica,sans-Serif" font-size="10.00">+ getIndices()</text>
<text text-anchor="start" x="794" y="-51.5" font-family="Helvetica,sans-Serif" font-size="10.00">+ getIndicesWithLock()</text>
<text text-anchor="start" x="794" y="-40.5" font-family="Helvetica,sans-Serif" font-size="10.00">+ indicesUnlock()</text>
<text text-anchor="start" x="794" y="-29.5" font-family="Helvetica,sans-Serif" font-size="10.00">+ setIndices()</text>
<text text-anchor="start" x="794" y="-18.5" font-family="Helvetica,sans-Serif" font-size="10.00">+ setIndices()</text>
<text text-anchor="start" x="794" y="-7.5" font-family="Helvetica,sans-Serif" font-size="10.00">+ getLayerKey()</text>
</a>
</g>
</g>
<!-- Node3&#45;&gt;Node7 -->
<g id="edge6" class="edge">
<title>Node3&#45;&gt;Node7</title>
<path fill="none" stroke="midnightblue" d="M682.64,-396.22C735.87,-305.53 797.36,-200.77 836.21,-134.59"/>
<polygon fill="none" stroke="midnightblue" points="679.56,-394.56 677.52,-404.95 685.6,-398.1 679.56,-394.56"/>
</g>
<!-- Node8 -->
<g id="node8" class="node">
<title>Node8</title>
<g id="a_node8"><a xlink:href="classRa_1_1Core_1_1Geometry_1_1IndexedGeometry.html" target="_top" xlink:title=" ">
<polygon fill="white" stroke="black" points="588.5,-0.5 588.5,-134.5 767.5,-134.5 767.5,-0.5 588.5,-0.5"/>
<text text-anchor="start" x="596.5" y="-122.5" font-family="Helvetica,sans-Serif" font-size="10.00">Ra::Core::Geometry</text>
<text text-anchor="middle" x="678" y="-111.5" font-family="Helvetica,sans-Serif" font-size="10.00">::IndexedGeometry&lt; VectorNui &gt;</text>
<polyline fill="none" stroke="black" points="588.5,-104.5 767.5,-104.5 "/>
<text text-anchor="middle" x="678" y="-92.5" font-family="Helvetica,sans-Serif" font-size="10.00"> </text>
<polyline fill="none" stroke="black" points="588.5,-85.5 767.5,-85.5 "/>
<text text-anchor="start" x="596.5" y="-73.5" font-family="Helvetica,sans-Serif" font-size="10.00">+ IndexedGeometry()</text>
<text text-anchor="start" x="596.5" y="-62.5" font-family="Helvetica,sans-Serif" font-size="10.00">+ getIndices()</text>
<text text-anchor="start" x="596.5" y="-51.5" font-family="Helvetica,sans-Serif" font-size="10.00">+ getIndicesWithLock()</text>
<text text-anchor="start" x="596.5" y="-40.5" font-family="Helvetica,sans-Serif" font-size="10.00">+ indicesUnlock()</text>
<text text-anchor="start" x="596.5" y="-29.5" font-family="Helvetica,sans-Serif" font-size="10.00">+ setIndices()</text>
<text text-anchor="start" x="596.5" y="-18.5" font-family="Helvetica,sans-Serif" font-size="10.00">+ setIndices()</text>
<text text-anchor="start" x="596.5" y="-7.5" font-family="Helvetica,sans-Serif" font-size="10.00">+ getLayerKey()</text>
</a>
</g>
</g>
<!-- Node3&#45;&gt;Node8 -->
<g id="edge7" class="edge">
<title>Node3&#45;&gt;Node8</title>
<path fill="none" stroke="midnightblue" d="M663.73,-344.6C681.64,-286.49 697.85,-223.63 707,-164 708.47,-154.41 707.91,-144.44 706.14,-134.73"/>
<polygon fill="none" stroke="midnightblue" points="660.35,-343.67 660.72,-354.26 667.03,-345.75 660.35,-343.67"/>
</g>
<!-- Node9 -->
<g id="node9" class="node">
<title>Node9</title>
<g id="a_node9"><a xlink:href="classRa_1_1Core_1_1Geometry_1_1IndexedGeometry.html" target="_top" xlink:title="A single layer MultiIndexedGeometry.">
<polygon fill="white" stroke="black" points="372,-182.5 372,-316.5 510,-316.5 510,-182.5 372,-182.5"/>
<text text-anchor="start" x="380" y="-304.5" font-family="Helvetica,sans-Serif" font-size="10.00">Ra::Core::Geometry</text>
<text text-anchor="middle" x="441" y="-293.5" font-family="Helvetica,sans-Serif" font-size="10.00">::IndexedGeometry&lt; T &gt;</text>
<polyline fill="none" stroke="black" points="372,-286.5 510,-286.5 "/>
<text text-anchor="middle" x="441" y="-274.5" font-family="Helvetica,sans-Serif" font-size="10.00"> </text>
<polyline fill="none" stroke="black" points="372,-267.5 510,-267.5 "/>
<text text-anchor="start" x="380" y="-255.5" font-family="Helvetica,sans-Serif" font-size="10.00">+ IndexedGeometry()</text>
<text text-anchor="start" x="380" y="-244.5" font-family="Helvetica,sans-Serif" font-size="10.00">+ getIndices()</text>
<text text-anchor="start" x="380" y="-233.5" font-family="Helvetica,sans-Serif" font-size="10.00">+ getIndicesWithLock()</text>
<text text-anchor="start" x="380" y="-222.5" font-family="Helvetica,sans-Serif" font-size="10.00">+ indicesUnlock()</text>
<text text-anchor="start" x="380" y="-211.5" font-family="Helvetica,sans-Serif" font-size="10.00">+ setIndices()</text>
<text text-anchor="start" x="380" y="-200.5" font-family="Helvetica,sans-Serif" font-size="10.00">+ setIndices()</text>
<text text-anchor="start" x="380" y="-189.5" font-family="Helvetica,sans-Serif" font-size="10.00">+ getLayerKey()</text>
</a>
</g>
</g>
<!-- Node3&#45;&gt;Node9 -->
<g id="edge8" class="edge">
<title>Node3&#45;&gt;Node9</title>
<path fill="none" stroke="midnightblue" d="M481.01,-345.13C476.81,-335.2 472.79,-325.69 469.02,-316.77"/>
<polygon fill="none" stroke="midnightblue" points="477.79,-346.51 484.91,-354.35 484.24,-343.78 477.79,-346.51"/>
</g>
<!-- Node9&#45;&gt;Node4 -->
<g id="edge9" class="edge">
<title>Node9&#45;&gt;Node4</title>
<path fill="none" stroke="orange" d="M364.52,-188.68C356.17,-180.78 348.13,-172.47 341,-164 333.45,-155.03 326.32,-144.91 319.83,-134.71"/>
<polygon fill="orange" stroke="orange" points="362.19,-191.3 371.91,-195.51 366.94,-186.16 362.19,-191.3"/>
<text text-anchor="middle" x="377" y="-156" font-family="Helvetica,sans-Serif" font-size="10.00"> &lt; Vector1ui &gt;</text>
</g>
<!-- Node9&#45;&gt;Node5 -->
<g id="edge11" class="edge">
<title>Node9&#45;&gt;Node5</title>
<path fill="none" stroke="orange" d="M362.42,-217.6C311.34,-196.49 243.9,-166.7 187,-135 184.04,-133.35 181.05,-131.63 178.05,-129.87"/>
<polygon fill="orange" stroke="orange" points="361.18,-220.87 371.76,-221.44 363.84,-214.4 361.18,-220.87"/>
<text text-anchor="middle" x="278" y="-156" font-family="Helvetica,sans-Serif" font-size="10.00"> &lt; Vector2ui &gt;</text>
</g>
<!-- Node9&#45;&gt;Node6 -->
<g id="edge12" class="edge">
<title>Node9&#45;&gt;Node6</title>
<path fill="none" stroke="orange" d="M415.93,-172.09C416.05,-165.59 416.98,-159.15 419,-153 421.04,-146.77 423.73,-140.63 426.85,-134.66"/>
<polygon fill="orange" stroke="orange" points="412.45,-172.47 416.36,-182.31 419.44,-172.18 412.45,-172.47"/>
<text text-anchor="middle" x="455" y="-156" font-family="Helvetica,sans-Serif" font-size="10.00"> &lt; Vector3ui &gt;</text>
</g>
<!-- Node9&#45;&gt;Node7 -->
<g id="edge13" class="edge">
<title>Node9&#45;&gt;Node7</title>
<path fill="none" stroke="orange" d="M520.12,-228.33C589.77,-209.05 692.9,-176.77 777,-135 779.95,-133.54 782.91,-132 785.87,-130.39"/>
<polygon fill="orange" stroke="orange" points="518.81,-225.06 510.09,-231.08 520.66,-231.81 518.81,-225.06"/>
<text text-anchor="middle" x="769" y="-156" font-family="Helvetica,sans-Serif" font-size="10.00"> &lt; Vector4ui &gt;</text>
</g>
<!-- Node9&#45;&gt;Node8 -->
<g id="edge10" class="edge">
<title>Node9&#45;&gt;Node8</title>
<path fill="none" stroke="orange" d="M510.17,-175.49C519.46,-167.4 529.18,-159.68 539,-153 555.12,-142.03 561.96,-144.47 579,-135 582.08,-133.29 585.18,-131.51 588.3,-129.69"/>
<polygon fill="orange" stroke="orange" points="507.61,-173.09 502.48,-182.36 512.27,-178.31 507.61,-173.09"/>
<text text-anchor="middle" x="575.5" y="-156" font-family="Helvetica,sans-Serif" font-size="10.00"> &lt; VectorNui &gt;</text>
</g>
</g>
</svg>
        <g id="navigator" transform="translate(0 0)" fill="#404254">
                <rect fill="#f2f5e9" fill-opacity="0.5" stroke="#606060" stroke-width=".5" x="0" y="0" width="60" height="60"/>
                <use id="zoomplus" xlink:href="#zoomPlus" x="17" y="9" onmousedown="handleZoom(evt,'in')"/>
                <use id="zoomminus" xlink:href="#zoomMin" x="42" y="9" onmousedown="handleZoom(evt,'out')"/>
                <use id="reset" xlink:href="#resetDef" x="30" y="36" onmousedown="handleReset()"/>
                <g id="arrowUp" xlink:href="#dirArrow" transform="translate(30 24)" onmousedown="handlePan(0,-1)">
                  <use xlink:href="#rim" fill="#404040">
                        <set attributeName="fill" to="#808080" begin="arrowUp.mouseover" end="arrowUp.mouseout"/>
                  </use>
                  <path fill="none" stroke="white" stroke-width="1.5" d="M0,-3.0v7 M-2.5,-0.5L0,-3.0L2.5,-0.5"/>
                </g>
                <g id="arrowRight" xlink:href="#dirArrow" transform="rotate(90) translate(36 -43)" onmousedown="handlePan(1,0)">
                  <use xlink:href="#rim" fill="#404040">
                        <set attributeName="fill" to="#808080" begin="arrowRight.mouseover" end="arrowRight.mouseout"/>
                  </use>
                  <path fill="none" stroke="white" stroke-width="1.5" d="M0,-3.0v7 M-2.5,-0.5L0,-3.0L2.5,-0.5"/>
                </g>
                <g id="arrowDown" xlink:href="#dirArrow" transform="rotate(180) translate(-30 -48)" onmousedown="handlePan(0,1)">
                  <use xlink:href="#rim" fill="#404040">
                        <set attributeName="fill" to="#808080" begin="arrowDown.mouseover" end="arrowDown.mouseout"/>
                  </use>
                  <path fill="none" stroke="white" stroke-width="1.5" d="M0,-3.0v7 M-2.5,-0.5L0,-3.0L2.5,-0.5"/>
                </g>
                <g id="arrowLeft" xlink:href="#dirArrow" transform="rotate(270) translate(-36 17)" onmousedown="handlePan(-1,0)">
                  <use xlink:href="#rim" fill="#404040">
                        <set attributeName="fill" to="#808080" begin="arrowLeft.mouseover" end="arrowLeft.mouseout"/>
                  </use>
                  <path fill="none" stroke="white" stroke-width="1.5" d="M0,-3.0v7 M-2.5,-0.5L0,-3.0L2.5,-0.5"/>
                </g>
        </g>
        <svg viewBox="0 0 15 15" width="100%" height="30px" preserveAspectRatio="xMaxYMin meet">
         <g id="arrow_out" transform="scale(0.3 0.3)">
          <a xlink:href="classRa_1_1Core_1_1Geometry_1_1AttribArrayGeometry__inherit__graph_org.svg" target="_base">
           <rect id="button" ry="5" rx="5" y="6" x="6" height="38" width="38"
                fill="#f2f5e9" fill-opacity="0.5" stroke="#606060" stroke-width="1.0"/>
           <path id="arrow"
             d="M 11.500037,31.436501 C 11.940474,20.09759 22.043105,11.32322 32.158766,21.979434 L 37.068811,17.246167 C 37.068811,17.246167 37.088388,32 37.088388,32 L 22.160133,31.978069 C 22.160133,31.978069 26.997745,27.140456 26.997745,27.140456 C 18.528582,18.264221 13.291696,25.230495 11.500037,31.436501 z"
             style="fill:#404040;"/>
          </a>
         </g>
        </svg>
</svg>
