<?xml version="1.0" encoding="UTF-8" standalone="no"?>
<!DOCTYPE svg PUBLIC "-//W3C//DTD SVG 1.1//EN"
 "http://www.w3.org/Graphics/SVG/1.1/DTD/svg11.dtd">
<!-- Generated by graphviz version 2.43.0 (0)
 -->
<!-- Title: /home/runner/work/Radium&#45;Engine/Radium&#45;Engine/src/Radium&#45;Engine/src/Core/Containers Pages: 1 -->
<svg width="177pt" height="223pt"
 viewBox="0.00 0.00 176.50 223.00" xmlns="http://www.w3.org/2000/svg" xmlns:xlink="http://www.w3.org/1999/xlink">
<g id="graph0" class="graph" transform="scale(1 1) rotate(0) translate(4 219)">
<title>/home/runner/work/Radium&#45;Engine/Radium&#45;Engine/src/Radium&#45;Engine/src/Core/Containers</title>
<polygon fill="white" stroke="transparent" points="-4,4 -4,-219 172.5,-219 172.5,4 -4,4"/>
<g id="clust1" class="cluster">
<title>clusterdir_a2f0e5642e47e7ed59fe0f0829eafb5f</title>
<g id="a_clust1"><a xlink:href="dir_a2f0e5642e47e7ed59fe0f0829eafb5f.html" target="_top" xlink:title="Core">
<polygon fill="#ddddee" stroke="black" points="8,-136 8,-207 94,-207 94,-136 8,-136"/>
<text text-anchor="middle" x="51" y="-195" font-family="Helvetica,sans-Serif" font-size="10.00">Core</text>
</a>
</g>
</g>
<!-- dir_1456dd235032e023892318efbecb420b -->
<g id="node1" class="node">
<title>dir_1456dd235032e023892318efbecb420b</title>
<g id="a_node1"><a xlink:href="dir_1456dd235032e023892318efbecb420b.html" target="_top" xlink:title="Containers">
<polygon fill="#eeeeff" stroke="black" points="85.5,-180 16.5,-180 16.5,-144 85.5,-144 85.5,-180"/>
<text text-anchor="middle" x="51" y="-159.5" font-family="Helvetica,sans-Serif" font-size="10.00">Containers</text>
</a>
</g>
</g>
<!-- dir_a1f42069ba95676f6b9abbd5065ccf6d -->
<g id="node2" class="node">
<title>dir_a1f42069ba95676f6b9abbd5065ccf6d</title>
<g id="a_node2"><a xlink:href="dir_a1f42069ba95676f6b9abbd5065ccf6d.html" target="_top" xlink:title="Math">
<polygon fill="none" stroke="black" points="120,-36 66,-36 66,0 120,0 120,-36"/>
<text text-anchor="middle" x="93" y="-15.5" font-family="Helvetica,sans-Serif" font-size="10.00">Math</text>
</a>
</g>
</g>
<!-- dir_1456dd235032e023892318efbecb420b&#45;&gt;dir_a1f42069ba95676f6b9abbd5065ccf6d -->
<g id="edge1" class="edge">
<title>dir_1456dd235032e023892318efbecb420b&#45;&gt;dir_a1f42069ba95676f6b9abbd5065ccf6d</title>
<path fill="none" stroke="black" d="M49.54,-143.75C48.59,-125.42 48.77,-95.86 57,-72 60.34,-62.32 65.93,-52.75 71.72,-44.47"/>
<polygon fill="black" stroke="black" points="74.6,-46.46 77.74,-36.34 68.97,-42.29 74.6,-46.46"/>
<g id="a_edge1&#45;headlabel"><a xlink:href="dir_000007_000010.html" target="_top" xlink:title="1">
<text text-anchor="middle" x="74.74" y="-48.54" font-family="Helvetica,sans-Serif" font-size="10.00">1</text>
</a>
</g>
</g>
<!-- dir_cb2b5dfd43482fb277f6333d539f1f06 -->
<g id="node3" class="node">
<title>dir_cb2b5dfd43482fb277f6333d539f1f06</title>
<g id="a_node3"><a xlink:href="dir_cb2b5dfd43482fb277f6333d539f1f06.html" target="_top" xlink:title="Geometry">
<polygon fill="white" stroke="red" points="168.5,-180 103.5,-180 103.5,-144 168.5,-144 168.5,-180"/>
<text text-anchor="middle" x="136" y="-159.5" font-family="Helvetica,sans-Serif" font-size="10.00">Geometry</text>
</a>
</g>
</g>
<!-- dir_1456dd235032e023892318efbecb420b&#45;&gt;dir_cb2b5dfd43482fb277f6333d539f1f06 -->
<g id="edge2" class="edge">
<title>dir_1456dd235032e023892318efbecb420b&#45;&gt;dir_cb2b5dfd43482fb277f6333d539f1f06</title>
<path fill="none" stroke="black" d="M85.53,-162C88.03,-162 90.52,-162 93.02,-162"/>
<polygon fill="black" stroke="black" points="93.27,-165.5 103.27,-162 93.27,-158.5 93.27,-165.5"/>
<g id="a_edge2&#45;headlabel"><a xlink:href="dir_000007_000008.html" target="_top" xlink:title="1">
<text text-anchor="middle" x="89.68" y="-165.84" font-family="Helvetica,sans-Serif" font-size="10.00">1</text>
</a>
</g>
</g>
<!-- dir_ff87cf903db18af0fdb6c342683ece25 -->
<g id="node4" class="node">
<title>dir_ff87cf903db18af0fdb6c342683ece25</title>
<g id="a_node4"><a xlink:href="dir_ff87cf903db18af0fdb6c342683ece25.html" target="_top" xlink:title="Utils">
<polygon fill="none" stroke="black" points="120,-108 66,-108 66,-72 120,-72 120,-108"/>
<text text-anchor="middle" x="93" y="-87.5" font-family="Helvetica,sans-Serif" font-size="10.00">Utils</text>
</a>
</g>
</g>
<!-- dir_1456dd235032e023892318efbecb420b&#45;&gt;dir_ff87cf903db18af0fdb6c342683ece25 -->
<g id="edge3" class="edge">
<title>dir_1456dd235032e023892318efbecb420b&#45;&gt;dir_ff87cf903db18af0fdb6c342683ece25</title>
<path fill="none" stroke="black" d="M55.47,-143.7C59.55,-135.47 65.34,-125.48 71.23,-116.42"/>
<polygon fill="black" stroke="black" points="74.15,-118.35 76.84,-108.1 68.35,-114.43 74.15,-118.35"/>
<g id="a_edge3&#45;headlabel"><a xlink:href="dir_000007_000013.html" target="_top" xlink:title="1">
<text text-anchor="middle" x="74.49" y="-120.42" font-family="Helvetica,sans-Serif" font-size="10.00">1</text>
</a>
</g>
</g>
<!-- dir_cb2b5dfd43482fb277f6333d539f1f06&#45;&gt;dir_a1f42069ba95676f6b9abbd5065ccf6d -->
<g id="edge4" class="edge">
<title>dir_cb2b5dfd43482fb277f6333d539f1f06&#45;&gt;dir_a1f42069ba95676f6b9abbd5065ccf6d</title>
<path fill="none" stroke="black" d="M137.21,-143.73C137.92,-125.4 137.37,-95.84 129,-72 125.61,-62.34 120,-52.78 114.21,-44.49"/>
<polygon fill="black" stroke="black" points="116.96,-42.32 108.2,-36.36 111.34,-46.48 116.96,-42.32"/>
<g id="a_edge4&#45;headlabel"><a xlink:href="dir_000008_000010.html" target="_top" xlink:title="11">
<text text-anchor="middle" x="121.38" y="-41.02" font-family="Helvetica,sans-Serif" font-size="10.00">11</text>
</a>
</g>
</g>
<!-- dir_cb2b5dfd43482fb277f6333d539f1f06&#45;&gt;dir_ff87cf903db18af0fdb6c342683ece25 -->
<g id="edge5" class="edge">
<title>dir_cb2b5dfd43482fb277f6333d539f1f06&#45;&gt;dir_ff87cf903db18af0fdb6c342683ece25</title>
<path fill="none" stroke="black" d="M125.37,-143.7C120.37,-135.56 114.31,-125.69 108.79,-116.7"/>
<polygon fill="black" stroke="black" points="111.72,-114.79 103.51,-108.1 105.76,-118.46 111.72,-114.79"/>
<g id="a_edge5&#45;headlabel"><a xlink:href="dir_000008_000013.html" target="_top" xlink:title="21">
<text text-anchor="middle" x="116.02" y="-113.87" font-family="Helvetica,sans-Serif" font-size="10.00">21</text>
</a>
</g>
</g>
<!-- dir_ff87cf903db18af0fdb6c342683ece25&#45;&gt;dir_1456dd235032e023892318efbecb420b -->
<g id="edge6" class="edge">
<title>dir_ff87cf903db18af0fdb6c342683ece25&#45;&gt;dir_1456dd235032e023892318efbecb420b</title>
<path fill="none" stroke="black" d="M88.63,-108.1C84.57,-116.3 78.8,-126.28 72.92,-135.36"/>
<polygon fill="black" stroke="black" points="69.98,-133.45 67.3,-143.7 75.79,-137.36 69.98,-133.45"/>
<g id="a_edge6&#45;headlabel"><a xlink:href="dir_000013_000007.html" target="_top" xlink:title="1">
<text text-anchor="middle" x="69.64" y="-126.38" font-family="Helvetica,sans-Serif" font-size="10.00">1</text>
</a>
</g>
</g>
<!-- dir_ff87cf903db18af0fdb6c342683ece25&#45;&gt;dir_a1f42069ba95676f6b9abbd5065ccf6d -->
<g id="edge7" class="edge">
<title>dir_ff87cf903db18af0fdb6c342683ece25&#45;&gt;dir_a1f42069ba95676f6b9abbd5065ccf6d</title>
<path fill="none" stroke="black" d="M93,-71.7C93,-63.98 93,-54.71 93,-46.11"/>
<polygon fill="black" stroke="black" points="96.5,-46.1 93,-36.1 89.5,-46.1 96.5,-46.1"/>
<g id="a_edge7&#45;headlabel"><a xlink:href="dir_000013_000010.html" target="_top" xlink:title="1">
<text text-anchor="middle" x="99.34" y="-47.2" font-family="Helvetica,sans-Serif" font-size="10.00">1</text>
</a>
</g>
</g>
</g>
</svg>
