<?xml version="1.0" encoding="UTF-8" standalone="no"?>
<!DOCTYPE svg PUBLIC "-//W3C//DTD SVG 1.1//EN"
 "http://www.w3.org/Graphics/SVG/1.1/DTD/svg11.dtd">
<!-- Generated by graphviz version 2.43.0 (0)
 -->
<!-- Title: /home/runner/work/Radium&#45;Engine/Radium&#45;Engine/src/Radium&#45;Engine/src/Engine/Scene/DirLight.cpp Pages: 1 -->
<svg width="1867pt" height="464pt"
 viewBox="0.00 0.00 1867.43 464.00" xmlns="http://www.w3.org/2000/svg" xmlns:xlink="http://www.w3.org/1999/xlink">
<g id="graph0" class="graph" transform="scale(1 1) rotate(0) translate(4 460)">
<title>/home/runner/work/Radium&#45;Engine/Radium&#45;Engine/src/Radium&#45;Engine/src/Engine/Scene/DirLight.cpp</title>
<polygon fill="white" stroke="transparent" points="-4,4 -4,-460 1863.43,-460 1863.43,4 -4,4"/>
<!-- Node1 -->
<g id="node1" class="node">
<title>Node1</title>
<g id="a_node1"><a xlink:title=" ">
<polygon fill="#bfbfbf" stroke="black" points="894.5,-403.5 894.5,-455.5 1043.5,-455.5 1043.5,-403.5 894.5,-403.5"/>
<text text-anchor="start" x="902.5" y="-443.5" font-family="Helvetica,sans-Serif" font-size="10.00">/home/runner/work/Radium</text>
<text text-anchor="start" x="902.5" y="-432.5" font-family="Helvetica,sans-Serif" font-size="10.00">&#45;Engine/Radium&#45;Engine/src</text>
<text text-anchor="start" x="902.5" y="-421.5" font-family="Helvetica,sans-Serif" font-size="10.00">/Radium&#45;Engine/src/Engine</text>
<text text-anchor="middle" x="969" y="-410.5" font-family="Helvetica,sans-Serif" font-size="10.00">/Scene/DirLight.cpp</text>
</a>
</g>
</g>
<!-- Node2 -->
<g id="node2" class="node">
<title>Node2</title>
<g id="a_node2"><a xlink:href="DirLight_8hpp.html" target="_top" xlink:title=" ">
<polygon fill="white" stroke="black" points="623,-347.5 623,-366.5 767,-366.5 767,-347.5 623,-347.5"/>
<text text-anchor="middle" x="695" y="-354.5" font-family="Helvetica,sans-Serif" font-size="10.00">Engine/Scene/DirLight.hpp</text>
</a>
</g>
</g>
<!-- Node1&#45;&gt;Node2 -->
<g id="edge1" class="edge">
<title>Node1&#45;&gt;Node2</title>
<path fill="none" stroke="midnightblue" d="M894.49,-409.33C844.28,-396.41 779.81,-379.82 737.96,-369.05"/>
<polygon fill="midnightblue" stroke="midnightblue" points="738.65,-365.62 728.09,-366.51 736.9,-372.4 738.65,-365.62"/>
</g>
<!-- Node34 -->
<g id="node34" class="node">
<title>Node34</title>
<g id="a_node34"><a xlink:href="RenderParameters_8hpp.html" target="_top" xlink:title=" ">
<polygon fill="white" stroke="black" points="1168,-347.5 1168,-366.5 1358,-366.5 1358,-347.5 1168,-347.5"/>
<text text-anchor="middle" x="1263" y="-354.5" font-family="Helvetica,sans-Serif" font-size="10.00">Engine/Data/RenderParameters.hpp</text>
</a>
</g>
</g>
<!-- Node1&#45;&gt;Node34 -->
<g id="edge48" class="edge">
<title>Node1&#45;&gt;Node34</title>
<path fill="none" stroke="midnightblue" d="M1043.57,-410.62C1098.41,-397.47 1171.17,-380.02 1217.55,-368.9"/>
<polygon fill="midnightblue" stroke="midnightblue" points="1218.41,-372.29 1227.32,-366.56 1216.78,-365.48 1218.41,-372.29"/>
</g>
<!-- Node3 -->
<g id="node3" class="node">
<title>Node3</title>
<g id="a_node3"><a xlink:href="RaEngine_8hpp.html" target="_top" xlink:title=" ">
<polygon fill="white" stroke="black" points="988.5,-123.5 988.5,-142.5 1107.5,-142.5 1107.5,-123.5 988.5,-123.5"/>
<text text-anchor="middle" x="1048" y="-130.5" font-family="Helvetica,sans-Serif" font-size="10.00">Engine/RaEngine.hpp</text>
</a>
</g>
</g>
<!-- Node2&#45;&gt;Node3 -->
<g id="edge2" class="edge">
<title>Node2&#45;&gt;Node3</title>
<path fill="none" stroke="midnightblue" d="M709.24,-347.45C724.17,-338.46 748.31,-323.85 769,-311 865.39,-251.13 979.4,-178.1 1026.25,-148"/>
<polygon fill="midnightblue" stroke="midnightblue" points="1028.18,-150.92 1034.7,-142.56 1024.39,-145.03 1028.18,-150.92"/>
</g>
<!-- Node14 -->
<g id="node14" class="node">
<title>Node14</title>
<g id="a_node14"><a xlink:href="Light_8hpp.html" target="_top" xlink:title=" ">
<polygon fill="white" stroke="black" points="630,-291.5 630,-310.5 760,-310.5 760,-291.5 630,-291.5"/>
<text text-anchor="middle" x="695" y="-298.5" font-family="Helvetica,sans-Serif" font-size="10.00">Engine/Scene/Light.hpp</text>
</a>
</g>
</g>
<!-- Node2&#45;&gt;Node14 -->
<g id="edge13" class="edge">
<title>Node2&#45;&gt;Node14</title>
<path fill="none" stroke="midnightblue" d="M695,-347.08C695,-340.01 695,-329.86 695,-320.99"/>
<polygon fill="midnightblue" stroke="midnightblue" points="698.5,-320.75 695,-310.75 691.5,-320.75 698.5,-320.75"/>
</g>
<!-- Node33 -->
<g id="node33" class="node">
<title>Node33</title>
<g id="a_node33"><a xlink:href="DirLight_8inl.html" target="_top" xlink:title=" ">
<polygon fill="white" stroke="black" points="542,-291.5 542,-310.5 612,-310.5 612,-291.5 542,-291.5"/>
<text text-anchor="middle" x="577" y="-298.5" font-family="Helvetica,sans-Serif" font-size="10.00">DirLight.inl</text>
</a>
</g>
</g>
<!-- Node2&#45;&gt;Node33 -->
<g id="edge46" class="edge">
<title>Node2&#45;&gt;Node33</title>
<path fill="none" stroke="midnightblue" d="M671.21,-347.44C650.22,-338.71 620.13,-325.06 599.53,-314.99"/>
<polygon fill="midnightblue" stroke="midnightblue" points="601.04,-311.84 590.53,-310.52 597.92,-318.11 601.04,-311.84"/>
</g>
<!-- Node4 -->
<g id="node4" class="node">
<title>Node4</title>
<g id="a_node4"><a xlink:href="CoreMacros_8hpp.html" target="_top" xlink:title=" ">
<polygon fill="white" stroke="black" points="864.5,-67.5 864.5,-86.5 985.5,-86.5 985.5,-67.5 864.5,-67.5"/>
<text text-anchor="middle" x="925" y="-74.5" font-family="Helvetica,sans-Serif" font-size="10.00">Core/CoreMacros.hpp</text>
</a>
</g>
</g>
<!-- Node3&#45;&gt;Node4 -->
<g id="edge3" class="edge">
<title>Node3&#45;&gt;Node4</title>
<path fill="none" stroke="midnightblue" d="M1028.51,-123.44C1008.36,-114.6 976.68,-100.69 953.67,-90.59"/>
<polygon fill="midnightblue" stroke="midnightblue" points="954.96,-87.33 944.4,-86.52 952.15,-93.74 954.96,-87.33"/>
</g>
<!-- Node10 -->
<g id="node10" class="node">
<title>Node10</title>
<g id="a_node10"><a xlink:href="OpenGL_8hpp.html" target="_top" xlink:title=" ">
<polygon fill="white" stroke="black" points="1294,-67.5 1294,-86.5 1406,-86.5 1406,-67.5 1294,-67.5"/>
<text text-anchor="middle" x="1350" y="-74.5" font-family="Helvetica,sans-Serif" font-size="10.00">Engine/OpenGL.hpp</text>
</a>
</g>
</g>
<!-- Node3&#45;&gt;Node10 -->
<g id="edge9" class="edge">
<title>Node3&#45;&gt;Node10</title>
<path fill="none" stroke="midnightblue" d="M1095.85,-123.44C1149.2,-113.9 1235.44,-98.48 1292.44,-88.29"/>
<polygon fill="midnightblue" stroke="midnightblue" points="1293.14,-91.72 1302.37,-86.52 1291.91,-84.83 1293.14,-91.72"/>
</g>
<!-- Node5 -->
<g id="node5" class="node">
<title>Node5</title>
<g id="a_node5"><a xlink:title=" ">
<polygon fill="white" stroke="#bfbfbf" points="766,-6 766,-25 818,-25 818,-6 766,-6"/>
<text text-anchor="middle" x="792" y="-13" font-family="Helvetica,sans-Serif" font-size="10.00">cassert</text>
</a>
</g>
</g>
<!-- Node4&#45;&gt;Node5 -->
<g id="edge4" class="edge">
<title>Node4&#45;&gt;Node5</title>
<path fill="none" stroke="midnightblue" d="M905.94,-67.48C883.53,-57.45 846.09,-40.7 820.29,-29.15"/>
<polygon fill="midnightblue" stroke="midnightblue" points="821.58,-25.9 811.02,-25.01 818.72,-32.29 821.58,-25.9"/>
</g>
<!-- Node6 -->
<g id="node6" class="node">
<title>Node6</title>
<g id="a_node6"><a xlink:title=" ">
<polygon fill="white" stroke="#bfbfbf" points="836,-6 836,-25 882,-25 882,-6 836,-6"/>
<text text-anchor="middle" x="859" y="-13" font-family="Helvetica,sans-Serif" font-size="10.00">cstdio</text>
</a>
</g>
</g>
<!-- Node4&#45;&gt;Node6 -->
<g id="edge5" class="edge">
<title>Node4&#45;&gt;Node6</title>
<path fill="none" stroke="midnightblue" d="M915.54,-67.48C905.25,-58.2 888.58,-43.17 876.01,-31.83"/>
<polygon fill="midnightblue" stroke="midnightblue" points="878.21,-29.11 868.44,-25.01 873.52,-34.3 878.21,-29.11"/>
</g>
<!-- Node7 -->
<g id="node7" class="node">
<title>Node7</title>
<g id="a_node7"><a xlink:title=" ">
<polygon fill="white" stroke="#bfbfbf" points="900,-6 900,-25 960,-25 960,-6 900,-6"/>
<text text-anchor="middle" x="930" y="-13" font-family="Helvetica,sans-Serif" font-size="10.00">iostream</text>
</a>
</g>
</g>
<!-- Node4&#45;&gt;Node7 -->
<g id="edge6" class="edge">
<title>Node4&#45;&gt;Node7</title>
<path fill="none" stroke="midnightblue" d="M925.72,-67.48C926.42,-59.08 927.52,-45.98 928.43,-35.16"/>
<polygon fill="midnightblue" stroke="midnightblue" points="931.94,-35.27 929.28,-25.01 924.96,-34.68 931.94,-35.27"/>
</g>
<!-- Node8 -->
<g id="node8" class="node">
<title>Node8</title>
<g id="a_node8"><a xlink:title=" ">
<polygon fill="white" stroke="#bfbfbf" points="1061,-6 1061,-25 1117,-25 1117,-6 1061,-6"/>
<text text-anchor="middle" x="1089" y="-13" font-family="Helvetica,sans-Serif" font-size="10.00">sstream</text>
</a>
</g>
</g>
<!-- Node4&#45;&gt;Node8 -->
<g id="edge7" class="edge">
<title>Node4&#45;&gt;Node8</title>
<path fill="none" stroke="midnightblue" d="M948.5,-67.48C976.63,-57.27 1023.93,-40.11 1055.79,-28.55"/>
<polygon fill="midnightblue" stroke="midnightblue" points="1057.34,-31.71 1065.55,-25.01 1054.95,-25.13 1057.34,-31.71"/>
</g>
<!-- Node9 -->
<g id="node9" class="node">
<title>Node9</title>
<g id="a_node9"><a xlink:title=" ">
<polygon fill="white" stroke="#bfbfbf" points="978,-6 978,-25 1026,-25 1026,-6 978,-6"/>
<text text-anchor="middle" x="1002" y="-13" font-family="Helvetica,sans-Serif" font-size="10.00">thread</text>
</a>
</g>
</g>
<!-- Node4&#45;&gt;Node9 -->
<g id="edge8" class="edge">
<title>Node4&#45;&gt;Node9</title>
<path fill="none" stroke="midnightblue" d="M936.03,-67.48C948.27,-58.02 968.23,-42.6 982.99,-31.19"/>
<polygon fill="midnightblue" stroke="midnightblue" points="985.22,-33.89 990.99,-25.01 980.94,-28.35 985.22,-33.89"/>
</g>
<!-- Node11 -->
<g id="node11" class="node">
<title>Node11</title>
<g id="a_node11"><a xlink:title=" ">
<polygon fill="white" stroke="#bfbfbf" points="1143,-6 1143,-25 1271,-25 1271,-6 1143,-6"/>
<text text-anchor="middle" x="1207" y="-13" font-family="Helvetica,sans-Serif" font-size="10.00">glbinding/gl45core/gl.h</text>
</a>
</g>
</g>
<!-- Node10&#45;&gt;Node11 -->
<g id="edge10" class="edge">
<title>Node10&#45;&gt;Node11</title>
<path fill="none" stroke="midnightblue" d="M1329.51,-67.48C1305.19,-57.36 1264.45,-40.4 1236.68,-28.85"/>
<polygon fill="midnightblue" stroke="midnightblue" points="1238.03,-25.62 1227.45,-25.01 1235.34,-32.08 1238.03,-25.62"/>
</g>
<!-- Node12 -->
<g id="node12" class="node">
<title>Node12</title>
<g id="a_node12"><a xlink:title=" ">
<polygon fill="white" stroke="#bfbfbf" points="1289,-6 1289,-25 1411,-25 1411,-6 1289,-6"/>
<text text-anchor="middle" x="1350" y="-13" font-family="Helvetica,sans-Serif" font-size="10.00">glbinding/gl45ext/gl.h</text>
</a>
</g>
</g>
<!-- Node10&#45;&gt;Node12 -->
<g id="edge11" class="edge">
<title>Node10&#45;&gt;Node12</title>
<path fill="none" stroke="midnightblue" d="M1350,-67.48C1350,-59.08 1350,-45.98 1350,-35.16"/>
<polygon fill="midnightblue" stroke="midnightblue" points="1353.5,-35.01 1350,-25.01 1346.5,-35.01 1353.5,-35.01"/>
</g>
<!-- Node13 -->
<g id="node13" class="node">
<title>Node13</title>
<g id="a_node13"><a xlink:title=" ">
<polygon fill="white" stroke="#bfbfbf" points="1429.5,-0.5 1429.5,-30.5 1542.5,-30.5 1542.5,-0.5 1429.5,-0.5"/>
<text text-anchor="start" x="1437.5" y="-18.5" font-family="Helvetica,sans-Serif" font-size="10.00">glbinding&#45;aux/types</text>
<text text-anchor="middle" x="1486" y="-7.5" font-family="Helvetica,sans-Serif" font-size="10.00">_to_string.h</text>
</a>
</g>
</g>
<!-- Node10&#45;&gt;Node13 -->
<g id="edge12" class="edge">
<title>Node10&#45;&gt;Node13</title>
<path fill="none" stroke="midnightblue" d="M1369.49,-67.48C1389.02,-58.93 1419.71,-45.5 1444.69,-34.57"/>
<polygon fill="midnightblue" stroke="midnightblue" points="1446.19,-37.74 1453.95,-30.52 1443.38,-31.32 1446.19,-37.74"/>
</g>
<!-- Node14&#45;&gt;Node3 -->
<g id="edge26" class="edge">
<title>Node14&#45;&gt;Node3</title>
<path fill="none" stroke="midnightblue" d="M709.39,-291.5C744.98,-270.66 840.34,-216.07 924,-179 952.71,-166.28 986.23,-154.28 1011.18,-145.87"/>
<polygon fill="midnightblue" stroke="midnightblue" points="1012.59,-149.09 1020.97,-142.61 1010.38,-142.45 1012.59,-149.09"/>
</g>
<!-- Node15 -->
<g id="node15" class="node">
<title>Node15</title>
<g id="a_node15"><a xlink:href="Color_8hpp.html" target="_top" xlink:title=" ">
<polygon fill="white" stroke="black" points="638.5,-235.5 638.5,-254.5 751.5,-254.5 751.5,-235.5 638.5,-235.5"/>
<text text-anchor="middle" x="695" y="-242.5" font-family="Helvetica,sans-Serif" font-size="10.00">Core/Utils/Color.hpp</text>
</a>
</g>
</g>
<!-- Node14&#45;&gt;Node15 -->
<g id="edge14" class="edge">
<title>Node14&#45;&gt;Node15</title>
<path fill="none" stroke="midnightblue" d="M695,-291.08C695,-284.01 695,-273.86 695,-264.99"/>
<polygon fill="midnightblue" stroke="midnightblue" points="698.5,-264.75 695,-254.75 691.5,-264.75 698.5,-264.75"/>
</g>
<!-- Node24 -->
<g id="node24" class="node">
<title>Node24</title>
<g id="a_node24"><a xlink:href="Component_8hpp.html" target="_top" xlink:title=" ">
<polygon fill="white" stroke="black" points="313,-235.5 313,-254.5 475,-254.5 475,-235.5 313,-235.5"/>
<text text-anchor="middle" x="394" y="-242.5" font-family="Helvetica,sans-Serif" font-size="10.00">Engine/Scene/Component.hpp</text>
</a>
</g>
</g>
<!-- Node14&#45;&gt;Node24 -->
<g id="edge27" class="edge">
<title>Node14&#45;&gt;Node24</title>
<path fill="none" stroke="midnightblue" d="M647.31,-291.44C594.14,-281.9 508.18,-266.48 451.37,-256.29"/>
<polygon fill="midnightblue" stroke="midnightblue" points="451.93,-252.84 441.47,-254.52 450.7,-259.73 451.93,-252.84"/>
</g>
<!-- Node32 -->
<g id="node32" class="node">
<title>Node32</title>
<g id="a_node32"><a xlink:href="Light_8inl.html" target="_top" xlink:title=" ">
<polygon fill="white" stroke="black" points="564,-235.5 564,-254.5 620,-254.5 620,-235.5 564,-235.5"/>
<text text-anchor="middle" x="592" y="-242.5" font-family="Helvetica,sans-Serif" font-size="10.00">Light.inl</text>
</a>
</g>
</g>
<!-- Node14&#45;&gt;Node32 -->
<g id="edge44" class="edge">
<title>Node14&#45;&gt;Node32</title>
<path fill="none" stroke="midnightblue" d="M673.59,-291.44C655.45,-282.91 629.91,-269.67 612.14,-259.68"/>
<polygon fill="midnightblue" stroke="midnightblue" points="613.58,-256.47 603.16,-254.52 610.08,-262.54 613.58,-256.47"/>
</g>
<!-- Node15&#45;&gt;Node4 -->
<g id="edge15" class="edge">
<title>Node15&#45;&gt;Node4</title>
<path fill="none" stroke="midnightblue" d="M639.27,-235.49C581.56,-226.1 498.48,-210.78 489,-199 467.82,-172.69 466.37,-148.08 489,-123 512.94,-96.47 736.46,-84.64 853.81,-80.23"/>
<polygon fill="midnightblue" stroke="midnightblue" points="854.27,-83.71 864.14,-79.85 854.01,-76.72 854.27,-83.71"/>
</g>
<!-- Node16 -->
<g id="node16" class="node">
<title>Node16</title>
<g id="a_node16"><a xlink:href="Math_8hpp.html" target="_top" xlink:title=" ">
<polygon fill="white" stroke="black" points="608,-179.5 608,-198.5 724,-198.5 724,-179.5 608,-179.5"/>
<text text-anchor="middle" x="666" y="-186.5" font-family="Helvetica,sans-Serif" font-size="10.00">Core/Math/Math.hpp</text>
</a>
</g>
</g>
<!-- Node15&#45;&gt;Node16 -->
<g id="edge16" class="edge">
<title>Node15&#45;&gt;Node16</title>
<path fill="none" stroke="midnightblue" d="M690.21,-235.08C686.24,-227.69 680.47,-216.95 675.57,-207.81"/>
<polygon fill="midnightblue" stroke="midnightblue" points="678.51,-205.91 670.7,-198.75 672.35,-209.22 678.51,-205.91"/>
</g>
<!-- Node21 -->
<g id="node21" class="node">
<title>Node21</title>
<g id="a_node21"><a xlink:title=" ">
<polygon fill="white" stroke="#bfbfbf" points="372.5,-123.5 372.5,-142.5 441.5,-142.5 441.5,-123.5 372.5,-123.5"/>
<text text-anchor="middle" x="407" y="-130.5" font-family="Helvetica,sans-Serif" font-size="10.00">Eigen/Core</text>
</a>
</g>
</g>
<!-- Node15&#45;&gt;Node21 -->
<g id="edge23" class="edge">
<title>Node15&#45;&gt;Node21</title>
<path fill="none" stroke="midnightblue" d="M638.24,-235.51C572.53,-225.35 471.31,-208.5 456,-199 437.85,-187.74 424.06,-167.12 415.8,-152.12"/>
<polygon fill="midnightblue" stroke="midnightblue" points="418.68,-150.08 410.98,-142.81 412.47,-153.3 418.68,-150.08"/>
</g>
<!-- Node22 -->
<g id="node22" class="node">
<title>Node22</title>
<g id="a_node22"><a xlink:title=" ">
<polygon fill="white" stroke="#bfbfbf" points="259.5,-123.5 259.5,-142.5 354.5,-142.5 354.5,-123.5 259.5,-123.5"/>
<text text-anchor="middle" x="307" y="-130.5" font-family="Helvetica,sans-Serif" font-size="10.00">Eigen/Geometry</text>
</a>
</g>
</g>
<!-- Node15&#45;&gt;Node22 -->
<g id="edge24" class="edge">
<title>Node15&#45;&gt;Node22</title>
<path fill="none" stroke="midnightblue" d="M639.45,-235.48C567.89,-224.36 450.38,-205.55 431,-199 393.19,-186.22 352.87,-163.1 328.81,-148.15"/>
<polygon fill="midnightblue" stroke="midnightblue" points="330.46,-145.05 320.14,-142.68 326.73,-150.97 330.46,-145.05"/>
</g>
<!-- Node23 -->
<g id="node23" class="node">
<title>Node23</title>
<g id="a_node23"><a xlink:title=" ">
<polygon fill="white" stroke="#bfbfbf" points="780,-179.5 780,-198.5 834,-198.5 834,-179.5 780,-179.5"/>
<text text-anchor="middle" x="807" y="-186.5" font-family="Helvetica,sans-Serif" font-size="10.00">random</text>
</a>
</g>
</g>
<!-- Node15&#45;&gt;Node23 -->
<g id="edge25" class="edge">
<title>Node15&#45;&gt;Node23</title>
<path fill="none" stroke="midnightblue" d="M712.99,-235.32C731.04,-226.62 759.05,-213.12 779.8,-203.11"/>
<polygon fill="midnightblue" stroke="midnightblue" points="781.56,-206.15 789.05,-198.65 778.52,-199.84 781.56,-206.15"/>
</g>
<!-- Node17 -->
<g id="node17" class="node">
<title>Node17</title>
<g id="a_node17"><a xlink:href="RaCore_8hpp.html" target="_top" xlink:title=" ">
<polygon fill="white" stroke="black" points="872,-123.5 872,-142.5 970,-142.5 970,-123.5 872,-123.5"/>
<text text-anchor="middle" x="921" y="-130.5" font-family="Helvetica,sans-Serif" font-size="10.00">Core/RaCore.hpp</text>
</a>
</g>
</g>
<!-- Node16&#45;&gt;Node17 -->
<g id="edge17" class="edge">
<title>Node16&#45;&gt;Node17</title>
<path fill="none" stroke="midnightblue" d="M706.41,-179.44C750.98,-170 822.77,-154.8 870.89,-144.61"/>
<polygon fill="midnightblue" stroke="midnightblue" points="871.73,-148.01 880.78,-142.52 870.28,-141.16 871.73,-148.01"/>
</g>
<!-- Node18 -->
<g id="node18" class="node">
<title>Node18</title>
<g id="a_node18"><a xlink:title=" ">
<polygon fill="white" stroke="#bfbfbf" points="790,-123.5 790,-142.5 854,-142.5 854,-123.5 790,-123.5"/>
<text text-anchor="middle" x="822" y="-130.5" font-family="Helvetica,sans-Serif" font-size="10.00">algorithm</text>
</a>
</g>
</g>
<!-- Node16&#45;&gt;Node18 -->
<g id="edge19" class="edge">
<title>Node16&#45;&gt;Node18</title>
<path fill="none" stroke="midnightblue" d="M690.72,-179.44C716.85,-170.4 758.26,-156.06 787.58,-145.92"/>
<polygon fill="midnightblue" stroke="midnightblue" points="789.09,-149.1 797.4,-142.52 786.8,-142.48 789.09,-149.1"/>
</g>
<!-- Node19 -->
<g id="node19" class="node">
<title>Node19</title>
<g id="a_node19"><a xlink:title=" ">
<polygon fill="white" stroke="#bfbfbf" points="596.5,-123.5 596.5,-142.5 643.5,-142.5 643.5,-123.5 596.5,-123.5"/>
<text text-anchor="middle" x="620" y="-130.5" font-family="Helvetica,sans-Serif" font-size="10.00">cmath</text>
</a>
</g>
</g>
<!-- Node16&#45;&gt;Node19 -->
<g id="edge20" class="edge">
<title>Node16&#45;&gt;Node19</title>
<path fill="none" stroke="midnightblue" d="M658.4,-179.08C651.77,-171.3 641.98,-159.8 633.94,-150.37"/>
<polygon fill="midnightblue" stroke="midnightblue" points="636.6,-148.09 627.45,-142.75 631.27,-152.63 636.6,-148.09"/>
</g>
<!-- Node20 -->
<g id="node20" class="node">
<title>Node20</title>
<g id="a_node20"><a xlink:href="Math_8inl.html" target="_top" xlink:title=" ">
<polygon fill="white" stroke="black" points="662,-123.5 662,-142.5 772,-142.5 772,-123.5 662,-123.5"/>
<text text-anchor="middle" x="717" y="-130.5" font-family="Helvetica,sans-Serif" font-size="10.00">Core/Math/Math.inl</text>
</a>
</g>
</g>
<!-- Node16&#45;&gt;Node20 -->
<g id="edge21" class="edge">
<title>Node16&#45;&gt;Node20</title>
<path fill="none" stroke="midnightblue" d="M669.26,-179.08C675.14,-171.06 686.1,-159.1 696.17,-149.51"/>
<polygon fill="midnightblue" stroke="midnightblue" points="698.56,-152.07 703.6,-142.75 693.85,-146.89 698.56,-152.07"/>
</g>
<!-- Node17&#45;&gt;Node4 -->
<g id="edge18" class="edge">
<title>Node17&#45;&gt;Node4</title>
<path fill="none" stroke="midnightblue" d="M921.66,-123.08C922.18,-116.01 922.94,-105.86 923.59,-96.99"/>
<polygon fill="midnightblue" stroke="midnightblue" points="927.1,-96.98 924.35,-86.75 920.12,-96.47 927.1,-96.98"/>
</g>
<!-- Node20&#45;&gt;Node16 -->
<g id="edge22" class="edge">
<title>Node20&#45;&gt;Node16</title>
<path fill="none" stroke="midnightblue" d="M713.81,-142.83C707.93,-150.87 696.9,-162.91 686.77,-172.54"/>
<polygon fill="midnightblue" stroke="midnightblue" points="684.35,-170.01 679.31,-179.32 689.06,-175.19 684.35,-170.01"/>
</g>
<!-- Node24&#45;&gt;Node3 -->
<g id="edge35" class="edge">
<title>Node24&#45;&gt;Node3</title>
<path fill="none" stroke="midnightblue" d="M475.19,-241.22C544.98,-236.97 647.58,-226.2 733,-199 751.19,-193.21 752.9,-185.05 771,-179 790.4,-172.51 903.58,-155.17 979.13,-144"/>
<polygon fill="midnightblue" stroke="midnightblue" points="979.69,-147.46 989.07,-142.54 978.67,-140.53 979.69,-147.46"/>
</g>
<!-- Node24&#45;&gt;Node21 -->
<g id="edge33" class="edge">
<title>Node24&#45;&gt;Node21</title>
<path fill="none" stroke="midnightblue" d="M395.02,-235.37C397.12,-217.62 401.96,-176.67 404.8,-152.6"/>
<polygon fill="midnightblue" stroke="midnightblue" points="408.29,-152.93 405.98,-142.59 401.34,-152.11 408.29,-152.93"/>
</g>
<!-- Node24&#45;&gt;Node22 -->
<g id="edge34" class="edge">
<title>Node24&#45;&gt;Node22</title>
<path fill="none" stroke="midnightblue" d="M312.91,-238.94C254.19,-233.38 181.93,-221.98 163,-199 135.2,-165.26 197.83,-148.34 249.06,-140.37"/>
<polygon fill="midnightblue" stroke="midnightblue" points="249.74,-143.81 259.13,-138.89 248.72,-136.88 249.74,-143.81"/>
</g>
<!-- Node25 -->
<g id="node25" class="node">
<title>Node25</title>
<g id="a_node25"><a xlink:href="Index_8hpp.html" target="_top" xlink:title=" ">
<polygon fill="white" stroke="black" points="0,-179.5 0,-198.5 116,-198.5 116,-179.5 0,-179.5"/>
<text text-anchor="middle" x="58" y="-186.5" font-family="Helvetica,sans-Serif" font-size="10.00">Core/Utils/Index.hpp</text>
</a>
</g>
</g>
<!-- Node24&#45;&gt;Node25 -->
<g id="edge28" class="edge">
<title>Node24&#45;&gt;Node25</title>
<path fill="none" stroke="midnightblue" d="M340.76,-235.44C281.04,-225.85 184.26,-210.29 120.87,-200.1"/>
<polygon fill="midnightblue" stroke="midnightblue" points="121.42,-196.65 110.99,-198.52 120.31,-203.56 121.42,-196.65"/>
</g>
<!-- Node28 -->
<g id="node28" class="node">
<title>Node28</title>
<g id="a_node28"><a xlink:title=" ">
<polygon fill="white" stroke="#bfbfbf" points="1587.5,-123.5 1587.5,-142.5 1634.5,-142.5 1634.5,-123.5 1587.5,-123.5"/>
<text text-anchor="middle" x="1611" y="-130.5" font-family="Helvetica,sans-Serif" font-size="10.00">vector</text>
</a>
</g>
</g>
<!-- Node24&#45;&gt;Node28 -->
<g id="edge36" class="edge">
<title>Node24&#45;&gt;Node28</title>
<path fill="none" stroke="midnightblue" d="M475.07,-239.35C500.64,-237.91 529,-236.35 555,-235 886.49,-217.74 972.84,-248.99 1301,-199 1335.95,-193.68 1343.46,-186.58 1378,-179 1463.12,-160.31 1488.16,-162.7 1577.27,-142.99"/>
<polygon fill="midnightblue" stroke="midnightblue" points="1578.28,-146.35 1587.27,-140.74 1576.75,-139.52 1578.28,-146.35"/>
</g>
<!-- Node29 -->
<g id="node29" class="node">
<title>Node29</title>
<g id="a_node29"><a xlink:href="Types_8hpp.html" target="_top" xlink:title=" ">
<polygon fill="white" stroke="black" points="498.5,-179.5 498.5,-198.5 589.5,-198.5 589.5,-179.5 498.5,-179.5"/>
<text text-anchor="middle" x="544" y="-186.5" font-family="Helvetica,sans-Serif" font-size="10.00">Core/Types.hpp</text>
</a>
</g>
</g>
<!-- Node24&#45;&gt;Node29 -->
<g id="edge37" class="edge">
<title>Node24&#45;&gt;Node29</title>
<path fill="none" stroke="midnightblue" d="M417.77,-235.44C442.89,-226.4 482.71,-212.06 510.9,-201.92"/>
<polygon fill="midnightblue" stroke="midnightblue" points="512.12,-205.2 520.34,-198.52 509.75,-198.61 512.12,-205.2"/>
</g>
<!-- Node31 -->
<g id="node31" class="node">
<title>Node31</title>
<g id="a_node31"><a xlink:href="Component_8inl.html" target="_top" xlink:title=" ">
<polygon fill="white" stroke="black" points="172,-179.5 172,-198.5 328,-198.5 328,-179.5 172,-179.5"/>
<text text-anchor="middle" x="250" y="-186.5" font-family="Helvetica,sans-Serif" font-size="10.00">Engine/Scene/Component.inl</text>
</a>
</g>
</g>
<!-- Node24&#45;&gt;Node31 -->
<g id="edge42" class="edge">
<title>Node24&#45;&gt;Node31</title>
<path fill="none" stroke="midnightblue" d="M366.09,-235.44C340.33,-226.52 302.56,-212.44 277.07,-202.32"/>
<polygon fill="midnightblue" stroke="midnightblue" points="278.21,-199 267.63,-198.52 275.6,-205.5 278.21,-199"/>
</g>
<!-- Node25&#45;&gt;Node17 -->
<g id="edge29" class="edge">
<title>Node25&#45;&gt;Node17</title>
<path fill="none" stroke="midnightblue" d="M116.01,-182.67C131.29,-181.37 147.76,-180.04 163,-179 470.45,-157.92 551.39,-174.56 861.8,-143.01"/>
<polygon fill="midnightblue" stroke="midnightblue" points="862.41,-146.47 872,-141.97 861.69,-139.5 862.41,-146.47"/>
</g>
<!-- Node26 -->
<g id="node26" class="node">
<title>Node26</title>
<g id="a_node26"><a xlink:title=" ">
<polygon fill="white" stroke="#bfbfbf" points="131,-123.5 131,-142.5 175,-142.5 175,-123.5 131,-123.5"/>
<text text-anchor="middle" x="153" y="-130.5" font-family="Helvetica,sans-Serif" font-size="10.00">limits</text>
</a>
</g>
</g>
<!-- Node25&#45;&gt;Node26 -->
<g id="edge30" class="edge">
<title>Node25&#45;&gt;Node26</title>
<path fill="none" stroke="midnightblue" d="M73.26,-179.32C88.22,-170.82 111.25,-157.73 128.73,-147.8"/>
<polygon fill="midnightblue" stroke="midnightblue" points="130.81,-150.64 137.77,-142.65 127.35,-144.55 130.81,-150.64"/>
</g>
<!-- Node27 -->
<g id="node27" class="node">
<title>Node27</title>
<g id="a_node27"><a xlink:href="Index_8inl.html" target="_top" xlink:title=" ">
<polygon fill="white" stroke="black" points="3,-123.5 3,-142.5 113,-142.5 113,-123.5 3,-123.5"/>
<text text-anchor="middle" x="58" y="-130.5" font-family="Helvetica,sans-Serif" font-size="10.00">Core/Utils/Index.inl</text>
</a>
</g>
</g>
<!-- Node25&#45;&gt;Node27 -->
<g id="edge31" class="edge">
<title>Node25&#45;&gt;Node27</title>
<path fill="none" stroke="midnightblue" d="M52.83,-179.08C51.32,-171.93 50.89,-161.64 51.54,-152.69"/>
<polygon fill="midnightblue" stroke="midnightblue" points="55.02,-153.13 52.87,-142.75 48.08,-152.2 55.02,-153.13"/>
</g>
<!-- Node27&#45;&gt;Node25 -->
<g id="edge32" class="edge">
<title>Node27&#45;&gt;Node25</title>
<path fill="none" stroke="midnightblue" d="M63.13,-142.75C64.66,-149.86 65.1,-160.14 64.47,-169.1"/>
<polygon fill="midnightblue" stroke="midnightblue" points="60.99,-168.71 63.17,-179.08 67.93,-169.62 60.99,-168.71"/>
</g>
<!-- Node29&#45;&gt;Node17 -->
<g id="edge38" class="edge">
<title>Node29&#45;&gt;Node17</title>
<path fill="none" stroke="midnightblue" d="M589.6,-180.44C592.78,-179.94 595.94,-179.46 599,-179 712.91,-161.92 744.13,-160.17 861.83,-143.15"/>
<polygon fill="midnightblue" stroke="midnightblue" points="862.57,-146.58 871.96,-141.67 861.56,-139.65 862.57,-146.58"/>
</g>
<!-- Node29&#45;&gt;Node21 -->
<g id="edge39" class="edge">
<title>Node29&#45;&gt;Node21</title>
<path fill="none" stroke="midnightblue" d="M522.29,-179.44C499.65,-170.52 463.93,-156.44 438.25,-146.32"/>
<polygon fill="midnightblue" stroke="midnightblue" points="439.19,-142.93 428.61,-142.52 436.63,-149.44 439.19,-142.93"/>
</g>
<!-- Node29&#45;&gt;Node22 -->
<g id="edge40" class="edge">
<title>Node29&#45;&gt;Node22</title>
<path fill="none" stroke="midnightblue" d="M506.45,-179.44C465.19,-170.04 398.86,-154.93 354.13,-144.74"/>
<polygon fill="midnightblue" stroke="midnightblue" points="354.91,-141.33 344.38,-142.52 353.35,-148.15 354.91,-141.33"/>
</g>
<!-- Node30 -->
<g id="node30" class="node">
<title>Node30</title>
<g id="a_node30"><a xlink:title=" ">
<polygon fill="white" stroke="#bfbfbf" points="498,-123.5 498,-142.5 578,-142.5 578,-123.5 498,-123.5"/>
<text text-anchor="middle" x="538" y="-130.5" font-family="Helvetica,sans-Serif" font-size="10.00">Eigen/Sparse</text>
</a>
</g>
</g>
<!-- Node29&#45;&gt;Node30 -->
<g id="edge41" class="edge">
<title>Node29&#45;&gt;Node30</title>
<path fill="none" stroke="midnightblue" d="M543.01,-179.08C542.21,-171.93 541.07,-161.64 540.08,-152.69"/>
<polygon fill="midnightblue" stroke="midnightblue" points="543.56,-152.3 538.97,-142.75 536.6,-153.08 543.56,-152.3"/>
</g>
<!-- Node31&#45;&gt;Node24 -->
<g id="edge43" class="edge">
<title>Node31&#45;&gt;Node24</title>
<path fill="none" stroke="midnightblue" d="M277.79,-198.52C303.52,-207.43 341.29,-221.5 366.81,-231.64"/>
<polygon fill="midnightblue" stroke="midnightblue" points="365.69,-234.96 376.27,-235.44 368.3,-228.46 365.69,-234.96"/>
</g>
<!-- Node32&#45;&gt;Node14 -->
<g id="edge45" class="edge">
<title>Node32&#45;&gt;Node14</title>
<path fill="none" stroke="midnightblue" d="M613.62,-254.65C631.66,-263.15 656.92,-276.24 674.61,-286.18"/>
<polygon fill="midnightblue" stroke="midnightblue" points="673.15,-289.38 683.57,-291.32 676.64,-283.31 673.15,-289.38"/>
</g>
<!-- Node33&#45;&gt;Node2 -->
<g id="edge47" class="edge">
<title>Node33&#45;&gt;Node2</title>
<path fill="none" stroke="midnightblue" d="M601.02,-310.65C621.9,-319.35 651.67,-332.85 672.18,-342.86"/>
<polygon fill="midnightblue" stroke="midnightblue" points="670.64,-346.01 681.16,-347.32 673.76,-339.74 670.64,-346.01"/>
</g>
<!-- Node34&#45;&gt;Node3 -->
<g id="edge49" class="edge">
<title>Node34&#45;&gt;Node3</title>
<path fill="none" stroke="midnightblue" d="M1262.65,-347.44C1261.31,-325.77 1254.88,-268.07 1224,-235 1194.6,-203.51 1171.52,-220.18 1134,-199 1108.46,-184.59 1081.97,-163.47 1065.26,-149.25"/>
<polygon fill="midnightblue" stroke="midnightblue" points="1067.32,-146.41 1057.47,-142.52 1062.74,-151.7 1067.32,-146.41"/>
</g>
<!-- Node34&#45;&gt;Node15 -->
<g id="edge59" class="edge">
<title>Node34&#45;&gt;Node15</title>
<path fill="none" stroke="midnightblue" d="M1167.76,-349.25C1093.4,-342.8 987.81,-331.01 897,-311 835.27,-297.4 765.56,-272.84 726.28,-258.11"/>
<polygon fill="midnightblue" stroke="midnightblue" points="727.34,-254.77 716.74,-254.5 724.86,-261.31 727.34,-254.77"/>
</g>
<!-- Node34&#45;&gt;Node28 -->
<g id="edge51" class="edge">
<title>Node34&#45;&gt;Node28</title>
<path fill="none" stroke="midnightblue" d="M1347.43,-347.48C1403.11,-340.61 1477.26,-329.07 1541,-311 1666.39,-275.46 1739.55,-307.33 1812,-199 1871.01,-110.76 1923.03,-208.84 1644.79,-143.06"/>
<polygon fill="midnightblue" stroke="midnightblue" points="1645.29,-139.58 1634.75,-140.65 1643.66,-146.38 1645.29,-139.58"/>
</g>
<!-- Node34&#45;&gt;Node29 -->
<g id="edge58" class="edge">
<title>Node34&#45;&gt;Node29</title>
<path fill="none" stroke="midnightblue" d="M1184.24,-347.5C1126.36,-340.31 1046.1,-328.38 977,-311 877.9,-286.07 858.46,-262.37 760,-235 706.07,-220.01 643.34,-207.47 599.42,-199.47"/>
<polygon fill="midnightblue" stroke="midnightblue" points="599.97,-196.01 589.51,-197.68 598.73,-202.9 599.97,-196.01"/>
</g>
<!-- Node35 -->
<g id="node35" class="node">
<title>Node35</title>
<g id="a_node35"><a xlink:title=" ">
<polygon fill="white" stroke="#bfbfbf" points="1327,-123.5 1327,-142.5 1359,-142.5 1359,-123.5 1327,-123.5"/>
<text text-anchor="middle" x="1343" y="-130.5" font-family="Helvetica,sans-Serif" font-size="10.00">set</text>
</a>
</g>
</g>
<!-- Node34&#45;&gt;Node35 -->
<g id="edge50" class="edge">
<title>Node34&#45;&gt;Node35</title>
<path fill="none" stroke="midnightblue" d="M1266.14,-347.3C1277.96,-314.49 1319.98,-197.88 1336.38,-152.38"/>
<polygon fill="midnightblue" stroke="midnightblue" points="1339.7,-153.48 1339.8,-142.88 1333.12,-151.1 1339.7,-153.48"/>
</g>
<!-- Node36 -->
<g id="node36" class="node">
<title>Node36</title>
<g id="a_node36"><a xlink:href="AlignedAllocator_8hpp.html" target="_top" xlink:title=" ">
<polygon fill="white" stroke="black" points="986,-291.5 986,-310.5 1184,-310.5 1184,-291.5 986,-291.5"/>
<text text-anchor="middle" x="1085" y="-298.5" font-family="Helvetica,sans-Serif" font-size="10.00">Core/Containers/AlignedAllocator.hpp</text>
</a>
</g>
</g>
<!-- Node34&#45;&gt;Node36 -->
<g id="edge52" class="edge">
<title>Node34&#45;&gt;Node36</title>
<path fill="none" stroke="midnightblue" d="M1234.8,-347.44C1204.59,-338.28 1156.49,-323.69 1122.97,-313.52"/>
<polygon fill="midnightblue" stroke="midnightblue" points="1123.66,-310.07 1113.07,-310.52 1121.63,-316.77 1123.66,-310.07"/>
</g>
<!-- Node41 -->
<g id="node41" class="node">
<title>Node41</title>
<g id="a_node41"><a xlink:href="Log_8hpp.html" target="_top" xlink:title=" ">
<polygon fill="white" stroke="black" points="1186,-179.5 1186,-198.5 1292,-198.5 1292,-179.5 1186,-179.5"/>
<text text-anchor="middle" x="1239" y="-186.5" font-family="Helvetica,sans-Serif" font-size="10.00">Core/Utils/Log.hpp</text>
</a>
</g>
</g>
<!-- Node34&#45;&gt;Node41 -->
<g id="edge60" class="edge">
<title>Node34&#45;&gt;Node41</title>
<path fill="none" stroke="midnightblue" d="M1263.69,-347.35C1265.05,-327.31 1267.24,-276.24 1258,-235 1255.91,-225.69 1251.99,-215.87 1248.25,-207.79"/>
<polygon fill="midnightblue" stroke="midnightblue" points="1251.31,-206.08 1243.76,-198.65 1245.03,-209.17 1251.31,-206.08"/>
</g>
<!-- Node45 -->
<g id="node45" class="node">
<title>Node45</title>
<g id="a_node45"><a xlink:href="RenderParameters_8inl.html" target="_top" xlink:title=" ">
<polygon fill="white" stroke="black" points="1348,-291.5 1348,-310.5 1532,-310.5 1532,-291.5 1348,-291.5"/>
<text text-anchor="middle" x="1440" y="-298.5" font-family="Helvetica,sans-Serif" font-size="10.00">Engine/Data/RenderParameters.inl</text>
</a>
</g>
</g>
<!-- Node34&#45;&gt;Node45 -->
<g id="edge66" class="edge">
<title>Node34&#45;&gt;Node45</title>
<path fill="none" stroke="midnightblue" d="M1285.96,-347.44C1314.1,-338.24 1362.04,-323.56 1397.05,-313.39"/>
<polygon fill="midnightblue" stroke="midnightblue" points="1398.37,-316.65 1407.01,-310.52 1396.43,-309.92 1398.37,-316.65"/>
</g>
<!-- Node36&#45;&gt;Node17 -->
<g id="edge53" class="edge">
<title>Node36&#45;&gt;Node17</title>
<path fill="none" stroke="midnightblue" d="M1023.02,-291.5C980.41,-284.24 929.23,-272.21 916,-255 893.13,-225.24 904.58,-178.16 913.61,-152.37"/>
<polygon fill="midnightblue" stroke="midnightblue" points="916.99,-153.33 917.23,-142.74 910.44,-150.87 916.99,-153.33"/>
</g>
<!-- Node37 -->
<g id="node37" class="node">
<title>Node37</title>
<g id="a_node37"><a xlink:title=" ">
<polygon fill="white" stroke="#bfbfbf" points="925.5,-235.5 925.5,-254.5 1008.5,-254.5 1008.5,-235.5 925.5,-235.5"/>
<text text-anchor="middle" x="967" y="-242.5" font-family="Helvetica,sans-Serif" font-size="10.00">mm_malloc.h</text>
</a>
</g>
</g>
<!-- Node36&#45;&gt;Node37 -->
<g id="edge54" class="edge">
<title>Node36&#45;&gt;Node37</title>
<path fill="none" stroke="midnightblue" d="M1066.3,-291.44C1047.06,-282.64 1016.85,-268.81 994.8,-258.72"/>
<polygon fill="midnightblue" stroke="midnightblue" points="996.16,-255.5 985.61,-254.52 993.25,-261.86 996.16,-255.5"/>
</g>
<!-- Node38 -->
<g id="node38" class="node">
<title>Node38</title>
<g id="a_node38"><a xlink:title=" ">
<polygon fill="white" stroke="#bfbfbf" points="1026.5,-235.5 1026.5,-254.5 1079.5,-254.5 1079.5,-235.5 1026.5,-235.5"/>
<text text-anchor="middle" x="1053" y="-242.5" font-family="Helvetica,sans-Serif" font-size="10.00">cstddef</text>
</a>
</g>
</g>
<!-- Node36&#45;&gt;Node38 -->
<g id="edge55" class="edge">
<title>Node36&#45;&gt;Node38</title>
<path fill="none" stroke="midnightblue" d="M1079.72,-291.08C1075.29,-283.61 1068.84,-272.72 1063.38,-263.52"/>
<polygon fill="midnightblue" stroke="midnightblue" points="1066.29,-261.57 1058.19,-254.75 1060.27,-265.14 1066.29,-261.57"/>
</g>
<!-- Node39 -->
<g id="node39" class="node">
<title>Node39</title>
<g id="a_node39"><a xlink:title=" ">
<polygon fill="white" stroke="#bfbfbf" points="1098,-235.5 1098,-254.5 1148,-254.5 1148,-235.5 1098,-235.5"/>
<text text-anchor="middle" x="1123" y="-242.5" font-family="Helvetica,sans-Serif" font-size="10.00">cstdint</text>
</a>
</g>
</g>
<!-- Node36&#45;&gt;Node39 -->
<g id="edge56" class="edge">
<title>Node36&#45;&gt;Node39</title>
<path fill="none" stroke="midnightblue" d="M1091.27,-291.08C1096.64,-283.46 1104.52,-272.26 1111.08,-262.94"/>
<polygon fill="midnightblue" stroke="midnightblue" points="1113.95,-264.94 1116.84,-254.75 1108.22,-260.91 1113.95,-264.94"/>
</g>
<!-- Node40 -->
<g id="node40" class="node">
<title>Node40</title>
<g id="a_node40"><a xlink:title=" ">
<polygon fill="white" stroke="#bfbfbf" points="1166.5,-235.5 1166.5,-254.5 1215.5,-254.5 1215.5,-235.5 1166.5,-235.5"/>
<text text-anchor="middle" x="1191" y="-242.5" font-family="Helvetica,sans-Serif" font-size="10.00">cstdlib</text>
</a>
</g>
</g>
<!-- Node36&#45;&gt;Node40 -->
<g id="edge57" class="edge">
<title>Node36&#45;&gt;Node40</title>
<path fill="none" stroke="midnightblue" d="M1102.03,-291.32C1119.03,-282.66 1145.38,-269.24 1164.99,-259.25"/>
<polygon fill="midnightblue" stroke="midnightblue" points="1166.69,-262.31 1174.01,-254.65 1163.51,-256.08 1166.69,-262.31"/>
</g>
<!-- Node41&#45;&gt;Node8 -->
<g id="edge63" class="edge">
<title>Node41&#45;&gt;Node8</title>
<path fill="none" stroke="midnightblue" d="M1243.05,-179.43C1248.57,-166.42 1256.72,-141.27 1247,-123 1221.26,-74.61 1162.65,-44.24 1124.5,-28.84"/>
<polygon fill="midnightblue" stroke="midnightblue" points="1125.39,-25.43 1114.81,-25.07 1122.86,-31.96 1125.39,-25.43"/>
</g>
<!-- Node41&#45;&gt;Node17 -->
<g id="edge61" class="edge">
<title>Node41&#45;&gt;Node17</title>
<path fill="none" stroke="midnightblue" d="M1188.61,-179.44C1131.99,-169.83 1040.18,-154.24 980.19,-144.05"/>
<polygon fill="midnightblue" stroke="midnightblue" points="980.55,-140.56 970.11,-142.34 979.38,-147.46 980.55,-140.56"/>
</g>
<!-- Node42 -->
<g id="node42" class="node">
<title>Node42</title>
<g id="a_node42"><a xlink:title=" ">
<polygon fill="white" stroke="#bfbfbf" points="1126,-123.5 1126,-142.5 1170,-142.5 1170,-123.5 1126,-123.5"/>
<text text-anchor="middle" x="1148" y="-130.5" font-family="Helvetica,sans-Serif" font-size="10.00">ctime</text>
</a>
</g>
</g>
<!-- Node41&#45;&gt;Node42 -->
<g id="edge62" class="edge">
<title>Node41&#45;&gt;Node42</title>
<path fill="none" stroke="midnightblue" d="M1224.38,-179.32C1210.05,-170.82 1187.99,-157.73 1171.25,-147.8"/>
<polygon fill="midnightblue" stroke="midnightblue" points="1172.97,-144.75 1162.58,-142.65 1169.4,-150.77 1172.97,-144.75"/>
</g>
<!-- Node43 -->
<g id="node43" class="node">
<title>Node43</title>
<g id="a_node43"><a xlink:title=" ">
<polygon fill="white" stroke="#bfbfbf" points="1188,-123.5 1188,-142.5 1238,-142.5 1238,-123.5 1188,-123.5"/>
<text text-anchor="middle" x="1213" y="-130.5" font-family="Helvetica,sans-Serif" font-size="10.00">stdio.h</text>
</a>
</g>
</g>
<!-- Node41&#45;&gt;Node43 -->
<g id="edge64" class="edge">
<title>Node41&#45;&gt;Node43</title>
<path fill="none" stroke="midnightblue" d="M1234.71,-179.08C1231.15,-171.69 1225.98,-160.95 1221.58,-151.81"/>
<polygon fill="midnightblue" stroke="midnightblue" points="1224.71,-150.24 1217.21,-142.75 1218.4,-153.28 1224.71,-150.24"/>
</g>
<!-- Node44 -->
<g id="node44" class="node">
<title>Node44</title>
<g id="a_node44"><a xlink:title=" ">
<polygon fill="white" stroke="#bfbfbf" points="1525,-123.5 1525,-142.5 1569,-142.5 1569,-123.5 1525,-123.5"/>
<text text-anchor="middle" x="1547" y="-130.5" font-family="Helvetica,sans-Serif" font-size="10.00">string</text>
</a>
</g>
</g>
<!-- Node41&#45;&gt;Node44 -->
<g id="edge65" class="edge">
<title>Node41&#45;&gt;Node44</title>
<path fill="none" stroke="midnightblue" d="M1292.08,-179.84C1346.06,-171.36 1432.05,-157.34 1506,-143 1508.88,-142.44 1511.88,-141.83 1514.87,-141.21"/>
<polygon fill="midnightblue" stroke="midnightblue" points="1515.87,-144.58 1524.91,-139.06 1514.4,-137.73 1515.87,-144.58"/>
</g>
<!-- Node45&#45;&gt;Node34 -->
<g id="edge67" class="edge">
<title>Node45&#45;&gt;Node34</title>
<path fill="none" stroke="midnightblue" d="M1417.17,-310.52C1389.08,-319.7 1341.15,-334.38 1306.11,-344.57"/>
<polygon fill="midnightblue" stroke="midnightblue" points="1304.77,-341.31 1296.13,-347.44 1306.71,-348.03 1304.77,-341.31"/>
</g>
<!-- Node46 -->
<g id="node46" class="node">
<title>Node46</title>
<g id="a_node46"><a xlink:href="ShaderProgram_8hpp.html" target="_top" xlink:title=" ">
<polygon fill="white" stroke="black" points="1352.5,-235.5 1352.5,-254.5 1527.5,-254.5 1527.5,-235.5 1352.5,-235.5"/>
<text text-anchor="middle" x="1440" y="-242.5" font-family="Helvetica,sans-Serif" font-size="10.00">Engine/Data/ShaderProgram.hpp</text>
</a>
</g>
</g>
<!-- Node45&#45;&gt;Node46 -->
<g id="edge68" class="edge">
<title>Node45&#45;&gt;Node46</title>
<path fill="none" stroke="midnightblue" d="M1440,-291.08C1440,-284.01 1440,-273.86 1440,-264.99"/>
<polygon fill="midnightblue" stroke="midnightblue" points="1443.5,-264.75 1440,-254.75 1436.5,-264.75 1443.5,-264.75"/>
</g>
<!-- Node46&#45;&gt;Node3 -->
<g id="edge69" class="edge">
<title>Node46&#45;&gt;Node3</title>
<path fill="none" stroke="midnightblue" d="M1352.25,-235.6C1300.35,-229.01 1233.87,-217.73 1177,-199 1166.39,-195.5 1108.02,-165.37 1073.54,-147.38"/>
<polygon fill="midnightblue" stroke="midnightblue" points="1074.99,-144.19 1064.5,-142.66 1071.75,-150.39 1074.99,-144.19"/>
</g>
<!-- Node46&#45;&gt;Node29 -->
<g id="edge70" class="edge">
<title>Node46&#45;&gt;Node29</title>
<path fill="none" stroke="midnightblue" d="M1352.21,-239.85C1158.85,-230.62 705.65,-208.56 599.73,-198.86"/>
<polygon fill="midnightblue" stroke="midnightblue" points="599.86,-195.35 589.57,-197.85 599.17,-202.32 599.86,-195.35"/>
</g>
<!-- Node46&#45;&gt;Node44 -->
<g id="edge80" class="edge">
<title>Node46&#45;&gt;Node44</title>
<path fill="none" stroke="midnightblue" d="M1527.61,-238.9C1627.25,-232.19 1778.49,-218.86 1796,-199 1801.88,-192.33 1801.75,-185.78 1796,-179 1766.12,-143.75 1641.45,-152.48 1579.41,-142.53"/>
<polygon fill="midnightblue" stroke="midnightblue" points="1579.78,-139.04 1569.3,-140.61 1578.47,-145.92 1579.78,-139.04"/>
</g>
<!-- Node47 -->
<g id="node47" class="node">
<title>Node47</title>
<g id="a_node47"><a xlink:href="ShaderConfiguration_8hpp.html" target="_top" xlink:title=" ">
<polygon fill="white" stroke="black" points="1511.5,-179.5 1511.5,-198.5 1710.5,-198.5 1710.5,-179.5 1511.5,-179.5"/>
<text text-anchor="middle" x="1611" y="-186.5" font-family="Helvetica,sans-Serif" font-size="10.00">Engine/Data/ShaderConfiguration.hpp</text>
</a>
</g>
</g>
<!-- Node46&#45;&gt;Node47 -->
<g id="edge71" class="edge">
<title>Node46&#45;&gt;Node47</title>
<path fill="none" stroke="midnightblue" d="M1467.1,-235.44C1495.99,-226.32 1541.92,-211.81 1574.11,-201.65"/>
<polygon fill="midnightblue" stroke="midnightblue" points="1575.55,-204.87 1584.03,-198.52 1573.44,-198.19 1575.55,-204.87"/>
</g>
<!-- Node48 -->
<g id="node48" class="node">
<title>Node48</title>
<g id="a_node48"><a xlink:title=" ">
<polygon fill="white" stroke="#bfbfbf" points="1786,-123.5 1786,-142.5 1828,-142.5 1828,-123.5 1786,-123.5"/>
<text text-anchor="middle" x="1807" y="-130.5" font-family="Helvetica,sans-Serif" font-size="10.00">array</text>
</a>
</g>
</g>
<!-- Node46&#45;&gt;Node48 -->
<g id="edge78" class="edge">
<title>Node46&#45;&gt;Node48</title>
<path fill="none" stroke="midnightblue" d="M1527.88,-239.41C1631.9,-233.05 1793.45,-219.93 1812,-199 1823.12,-186.46 1819.7,-166.68 1814.85,-152.23"/>
<polygon fill="midnightblue" stroke="midnightblue" points="1818.09,-150.92 1811.24,-142.83 1811.55,-153.42 1818.09,-150.92"/>
</g>
<!-- Node50 -->
<g id="node50" class="node">
<title>Node50</title>
<g id="a_node50"><a xlink:title=" ">
<polygon fill="white" stroke="#bfbfbf" points="1729,-179.5 1729,-198.5 1787,-198.5 1787,-179.5 1729,-179.5"/>
<text text-anchor="middle" x="1758" y="-186.5" font-family="Helvetica,sans-Serif" font-size="10.00">memory</text>
</a>
</g>
</g>
<!-- Node46&#45;&gt;Node50 -->
<g id="edge79" class="edge">
<title>Node46&#45;&gt;Node50</title>
<path fill="none" stroke="midnightblue" d="M1501.13,-235.49C1555.68,-227.6 1637.94,-214.97 1718.29,-199.23"/>
<polygon fill="midnightblue" stroke="midnightblue" points="1719.46,-202.56 1728.59,-197.19 1718.1,-195.7 1719.46,-202.56"/>
</g>
<!-- Node51 -->
<g id="node51" class="node">
<title>Node51</title>
<g id="a_node51"><a xlink:href="ShaderProgram_8inl.html" target="_top" xlink:title=" ">
<polygon fill="white" stroke="black" points="1386.5,-179.5 1386.5,-198.5 1493.5,-198.5 1493.5,-179.5 1386.5,-179.5"/>
<text text-anchor="middle" x="1440" y="-186.5" font-family="Helvetica,sans-Serif" font-size="10.00">ShaderProgram.inl</text>
</a>
</g>
</g>
<!-- Node46&#45;&gt;Node51 -->
<g id="edge81" class="edge">
<title>Node46&#45;&gt;Node51</title>
<path fill="none" stroke="midnightblue" d="M1434.83,-235.08C1433.32,-227.93 1432.89,-217.64 1433.54,-208.69"/>
<polygon fill="midnightblue" stroke="midnightblue" points="1437.02,-209.13 1434.87,-198.75 1430.08,-208.2 1437.02,-209.13"/>
</g>
<!-- Node47&#45;&gt;Node3 -->
<g id="edge72" class="edge">
<title>Node47&#45;&gt;Node3</title>
<path fill="none" stroke="midnightblue" d="M1512.5,-179.48C1395.53,-169.3 1206.2,-152.54 1117.83,-143.04"/>
<polygon fill="midnightblue" stroke="midnightblue" points="1118.14,-139.55 1107.82,-141.95 1117.38,-146.51 1118.14,-139.55"/>
</g>
<!-- Node47&#45;&gt;Node28 -->
<g id="edge77" class="edge">
<title>Node47&#45;&gt;Node28</title>
<path fill="none" stroke="midnightblue" d="M1611,-179.08C1611,-172.01 1611,-161.86 1611,-152.99"/>
<polygon fill="midnightblue" stroke="midnightblue" points="1614.5,-152.75 1611,-142.75 1607.5,-152.75 1614.5,-152.75"/>
</g>
<!-- Node47&#45;&gt;Node35 -->
<g id="edge75" class="edge">
<title>Node47&#45;&gt;Node35</title>
<path fill="none" stroke="midnightblue" d="M1558.45,-179.5C1510.22,-171.34 1436.93,-158.07 1374,-143 1372.31,-142.6 1370.58,-142.16 1368.84,-141.7"/>
<polygon fill="midnightblue" stroke="midnightblue" points="1369.58,-138.27 1359.01,-138.96 1367.71,-145.02 1369.58,-138.27"/>
</g>
<!-- Node47&#45;&gt;Node44 -->
<g id="edge76" class="edge">
<title>Node47&#45;&gt;Node44</title>
<path fill="none" stroke="midnightblue" d="M1600.72,-179.32C1591.16,-171.26 1576.72,-159.08 1565.22,-149.37"/>
<polygon fill="midnightblue" stroke="midnightblue" points="1567.37,-146.61 1557.47,-142.83 1562.86,-151.96 1567.37,-146.61"/>
</g>
<!-- Node47&#45;&gt;Node48 -->
<g id="edge73" class="edge">
<title>Node47&#45;&gt;Node48</title>
<path fill="none" stroke="midnightblue" d="M1642.06,-179.44C1678.76,-169.33 1739.46,-152.61 1776.1,-142.51"/>
<polygon fill="midnightblue" stroke="midnightblue" points="1777.04,-145.88 1785.75,-139.85 1775.18,-139.14 1777.04,-145.88"/>
</g>
<!-- Node49 -->
<g id="node49" class="node">
<title>Node49</title>
<g id="a_node49"><a xlink:title=" ">
<polygon fill="white" stroke="#bfbfbf" points="1653,-123.5 1653,-142.5 1685,-142.5 1685,-123.5 1653,-123.5"/>
<text text-anchor="middle" x="1669" y="-130.5" font-family="Helvetica,sans-Serif" font-size="10.00">list</text>
</a>
</g>
</g>
<!-- Node47&#45;&gt;Node49 -->
<g id="edge74" class="edge">
<title>Node47&#45;&gt;Node49</title>
<path fill="none" stroke="midnightblue" d="M1620.32,-179.32C1628.89,-171.34 1641.81,-159.31 1652.19,-149.65"/>
<polygon fill="midnightblue" stroke="midnightblue" points="1654.58,-152.21 1659.51,-142.83 1649.81,-147.09 1654.58,-152.21"/>
</g>
<!-- Node51&#45;&gt;Node46 -->
<g id="edge82" class="edge">
<title>Node51&#45;&gt;Node46</title>
<path fill="none" stroke="midnightblue" d="M1445.13,-198.75C1446.66,-205.86 1447.1,-216.14 1446.47,-225.1"/>
<polygon fill="midnightblue" stroke="midnightblue" points="1442.99,-224.71 1445.17,-235.08 1449.93,-225.62 1442.99,-224.71"/>
</g>
<!-- Node52 -->
<g id="node52" class="node">
<title>Node52</title>
<g id="a_node52"><a xlink:title=" ">
<polygon fill="white" stroke="#bfbfbf" points="1383,-123.5 1383,-142.5 1497,-142.5 1497,-123.5 1383,-123.5"/>
<text text-anchor="middle" x="1440" y="-130.5" font-family="Helvetica,sans-Serif" font-size="10.00">globjects/Program.h</text>
</a>
</g>
</g>
<!-- Node51&#45;&gt;Node52 -->
<g id="edge83" class="edge">
<title>Node51&#45;&gt;Node52</title>
<path fill="none" stroke="midnightblue" d="M1440,-179.08C1440,-172.01 1440,-161.86 1440,-152.99"/>
<polygon fill="midnightblue" stroke="midnightblue" points="1443.5,-152.75 1440,-142.75 1436.5,-152.75 1443.5,-152.75"/>
</g>
</g>
</svg>
