<?xml version="1.0" encoding="UTF-8" standalone="no"?>
<!DOCTYPE svg PUBLIC "-//W3C//DTD SVG 1.1//EN"
 "http://www.w3.org/Graphics/SVG/1.1/DTD/svg11.dtd">
<!-- Generated by graphviz version 2.43.0 (0)
 -->
<!-- Title: /home/runner/work/Radium&#45;Engine/Radium&#45;Engine/src/Radium&#45;Engine/src/Core/Math/DualQuaternion.inl Pages: 1 -->
<svg width="936pt" height="352pt"
 viewBox="0.00 0.00 935.50 352.00" xmlns="http://www.w3.org/2000/svg" xmlns:xlink="http://www.w3.org/1999/xlink">
<g id="graph0" class="graph" transform="scale(1 1) rotate(0) translate(4 348)">
<title>/home/runner/work/Radium&#45;Engine/Radium&#45;Engine/src/Radium&#45;Engine/src/Core/Math/DualQuaternion.inl</title>
<polygon fill="white" stroke="transparent" points="-4,4 -4,-348 931.5,-348 931.5,4 -4,4"/>
<!-- Node1 -->
<g id="node1" class="node">
<title>Node1</title>
<g id="a_node1"><a xlink:title=" ">
<polygon fill="#bfbfbf" stroke="black" points="451.5,-291.5 451.5,-343.5 615.5,-343.5 615.5,-291.5 451.5,-291.5"/>
<text text-anchor="start" x="459.5" y="-331.5" font-family="Helvetica,sans-Serif" font-size="10.00">/home/runner/work/Radium</text>
<text text-anchor="start" x="459.5" y="-320.5" font-family="Helvetica,sans-Serif" font-size="10.00">&#45;Engine/Radium&#45;Engine/src</text>
<text text-anchor="start" x="459.5" y="-309.5" font-family="Helvetica,sans-Serif" font-size="10.00">/Radium&#45;Engine/src/Core/Math</text>
<text text-anchor="middle" x="533.5" y="-298.5" font-family="Helvetica,sans-Serif" font-size="10.00">/DualQuaternion.inl</text>
</a>
</g>
</g>
<!-- Node2 -->
<g id="node2" class="node">
<title>Node2</title>
<g id="a_node2"><a xlink:href="DualQuaternion_8hpp.html" target="_top" xlink:title=" ">
<polygon fill="white" stroke="black" points="450,-235.5 450,-254.5 617,-254.5 617,-235.5 450,-235.5"/>
<text text-anchor="middle" x="533.5" y="-242.5" font-family="Helvetica,sans-Serif" font-size="10.00">Core/Math/DualQuaternion.hpp</text>
</a>
</g>
</g>
<!-- Node1&#45;&gt;Node2 -->
<g id="edge1" class="edge">
<title>Node1&#45;&gt;Node2</title>
<path fill="none" stroke="midnightblue" d="M527.01,-291.45C526.55,-282.63 526.7,-272.88 527.46,-264.68"/>
<polygon fill="midnightblue" stroke="midnightblue" points="530.94,-265.09 528.88,-254.7 524.01,-264.11 530.94,-265.09"/>
</g>
<!-- Node14 -->
<g id="node14" class="node">
<title>Node14</title>
<g id="a_node14"><a xlink:href="LinearAlgebra_8hpp.html" target="_top" xlink:title=" ">
<polygon fill="white" stroke="black" points="274.5,-235.5 274.5,-254.5 432.5,-254.5 432.5,-235.5 274.5,-235.5"/>
<text text-anchor="middle" x="353.5" y="-242.5" font-family="Helvetica,sans-Serif" font-size="10.00">Core/Math/LinearAlgebra.hpp</text>
</a>
</g>
</g>
<!-- Node1&#45;&gt;Node14 -->
<g id="edge15" class="edge">
<title>Node1&#45;&gt;Node14</title>
<path fill="none" stroke="midnightblue" d="M469.53,-291.45C440.71,-280.16 407.99,-267.34 384.66,-258.2"/>
<polygon fill="midnightblue" stroke="midnightblue" points="385.86,-254.92 375.27,-254.53 383.31,-261.43 385.86,-254.92"/>
</g>
<!-- Node2&#45;&gt;Node1 -->
<g id="edge14" class="edge">
<title>Node2&#45;&gt;Node1</title>
<path fill="none" stroke="midnightblue" d="M538.12,-254.7C539.54,-261.47 540.25,-271.37 540.25,-281.27"/>
<polygon fill="midnightblue" stroke="midnightblue" points="536.75,-281.36 539.99,-291.45 543.74,-281.54 536.75,-281.36"/>
</g>
<!-- Node3 -->
<g id="node3" class="node">
<title>Node3</title>
<g id="a_node3"><a xlink:href="RaCore_8hpp.html" target="_top" xlink:title=" ">
<polygon fill="white" stroke="black" points="553.5,-112.5 553.5,-131.5 651.5,-131.5 651.5,-112.5 553.5,-112.5"/>
<text text-anchor="middle" x="602.5" y="-119.5" font-family="Helvetica,sans-Serif" font-size="10.00">Core/RaCore.hpp</text>
</a>
</g>
</g>
<!-- Node2&#45;&gt;Node3 -->
<g id="edge2" class="edge">
<title>Node2&#45;&gt;Node3</title>
<path fill="none" stroke="midnightblue" d="M567.68,-235.49C586.49,-228.88 608.24,-217.6 619.5,-199 630.4,-180.99 621.76,-156.78 613.31,-140.57"/>
<polygon fill="midnightblue" stroke="midnightblue" points="616.22,-138.61 608.25,-131.64 610.13,-142.06 616.22,-138.61"/>
</g>
<!-- Node10 -->
<g id="node10" class="node">
<title>Node10</title>
<g id="a_node10"><a xlink:href="Types_8hpp.html" target="_top" xlink:title=" ">
<polygon fill="white" stroke="black" points="448,-174 448,-193 539,-193 539,-174 448,-174"/>
<text text-anchor="middle" x="493.5" y="-181" font-family="Helvetica,sans-Serif" font-size="10.00">Core/Types.hpp</text>
</a>
</g>
</g>
<!-- Node2&#45;&gt;Node10 -->
<g id="edge9" class="edge">
<title>Node2&#45;&gt;Node10</title>
<path fill="none" stroke="midnightblue" d="M527.77,-235.48C521.83,-226.64 512.38,-212.59 504.91,-201.48"/>
<polygon fill="midnightblue" stroke="midnightblue" points="507.7,-199.36 499.22,-193.01 501.89,-203.26 507.7,-199.36"/>
</g>
<!-- Node4 -->
<g id="node4" class="node">
<title>Node4</title>
<g id="a_node4"><a xlink:href="CoreMacros_8hpp.html" target="_top" xlink:title=" ">
<polygon fill="white" stroke="black" points="542,-56.5 542,-75.5 663,-75.5 663,-56.5 542,-56.5"/>
<text text-anchor="middle" x="602.5" y="-63.5" font-family="Helvetica,sans-Serif" font-size="10.00">Core/CoreMacros.hpp</text>
</a>
</g>
</g>
<!-- Node3&#45;&gt;Node4 -->
<g id="edge3" class="edge">
<title>Node3&#45;&gt;Node4</title>
<path fill="none" stroke="midnightblue" d="M602.5,-112.08C602.5,-105.01 602.5,-94.86 602.5,-85.99"/>
<polygon fill="midnightblue" stroke="midnightblue" points="606,-85.75 602.5,-75.75 599,-85.75 606,-85.75"/>
</g>
<!-- Node5 -->
<g id="node5" class="node">
<title>Node5</title>
<g id="a_node5"><a xlink:title=" ">
<polygon fill="white" stroke="#bfbfbf" points="438.5,-0.5 438.5,-19.5 490.5,-19.5 490.5,-0.5 438.5,-0.5"/>
<text text-anchor="middle" x="464.5" y="-7.5" font-family="Helvetica,sans-Serif" font-size="10.00">cassert</text>
</a>
</g>
</g>
<!-- Node4&#45;&gt;Node5 -->
<g id="edge4" class="edge">
<title>Node4&#45;&gt;Node5</title>
<path fill="none" stroke="midnightblue" d="M580.63,-56.44C557.72,-47.48 521.52,-33.31 495.63,-23.18"/>
<polygon fill="midnightblue" stroke="midnightblue" points="496.85,-19.9 486.26,-19.52 494.3,-26.42 496.85,-19.9"/>
</g>
<!-- Node6 -->
<g id="node6" class="node">
<title>Node6</title>
<g id="a_node6"><a xlink:title=" ">
<polygon fill="white" stroke="#bfbfbf" points="508.5,-0.5 508.5,-19.5 554.5,-19.5 554.5,-0.5 508.5,-0.5"/>
<text text-anchor="middle" x="531.5" y="-7.5" font-family="Helvetica,sans-Serif" font-size="10.00">cstdio</text>
</a>
</g>
</g>
<!-- Node4&#45;&gt;Node6 -->
<g id="edge5" class="edge">
<title>Node4&#45;&gt;Node6</title>
<path fill="none" stroke="midnightblue" d="M591.09,-56.32C580.39,-48.18 564.16,-35.84 551.34,-26.09"/>
<polygon fill="midnightblue" stroke="midnightblue" points="553.19,-23.1 543.11,-19.83 548.96,-28.67 553.19,-23.1"/>
</g>
<!-- Node7 -->
<g id="node7" class="node">
<title>Node7</title>
<g id="a_node7"><a xlink:title=" ">
<polygon fill="white" stroke="#bfbfbf" points="572.5,-0.5 572.5,-19.5 632.5,-19.5 632.5,-0.5 572.5,-0.5"/>
<text text-anchor="middle" x="602.5" y="-7.5" font-family="Helvetica,sans-Serif" font-size="10.00">iostream</text>
</a>
</g>
</g>
<!-- Node4&#45;&gt;Node7 -->
<g id="edge6" class="edge">
<title>Node4&#45;&gt;Node7</title>
<path fill="none" stroke="midnightblue" d="M602.5,-56.08C602.5,-49.01 602.5,-38.86 602.5,-29.99"/>
<polygon fill="midnightblue" stroke="midnightblue" points="606,-29.75 602.5,-19.75 599,-29.75 606,-29.75"/>
</g>
<!-- Node8 -->
<g id="node8" class="node">
<title>Node8</title>
<g id="a_node8"><a xlink:title=" ">
<polygon fill="white" stroke="#bfbfbf" points="650.5,-0.5 650.5,-19.5 706.5,-19.5 706.5,-0.5 650.5,-0.5"/>
<text text-anchor="middle" x="678.5" y="-7.5" font-family="Helvetica,sans-Serif" font-size="10.00">sstream</text>
</a>
</g>
</g>
<!-- Node4&#45;&gt;Node8 -->
<g id="edge7" class="edge">
<title>Node4&#45;&gt;Node8</title>
<path fill="none" stroke="midnightblue" d="M614.71,-56.32C626.28,-48.11 643.88,-35.6 657.66,-25.81"/>
<polygon fill="midnightblue" stroke="midnightblue" points="659.94,-28.48 666.07,-19.83 655.89,-22.77 659.94,-28.48"/>
</g>
<!-- Node9 -->
<g id="node9" class="node">
<title>Node9</title>
<g id="a_node9"><a xlink:title=" ">
<polygon fill="white" stroke="#bfbfbf" points="724.5,-0.5 724.5,-19.5 772.5,-19.5 772.5,-0.5 724.5,-0.5"/>
<text text-anchor="middle" x="748.5" y="-7.5" font-family="Helvetica,sans-Serif" font-size="10.00">thread</text>
</a>
</g>
</g>
<!-- Node4&#45;&gt;Node9 -->
<g id="edge8" class="edge">
<title>Node4&#45;&gt;Node9</title>
<path fill="none" stroke="midnightblue" d="M625.63,-56.44C649.98,-47.44 688.51,-33.19 715.92,-23.05"/>
<polygon fill="midnightblue" stroke="midnightblue" points="717.31,-26.27 725.47,-19.52 714.88,-19.7 717.31,-26.27"/>
</g>
<!-- Node10&#45;&gt;Node3 -->
<g id="edge10" class="edge">
<title>Node10&#45;&gt;Node3</title>
<path fill="none" stroke="midnightblue" d="M509.12,-173.98C527.09,-164.17 556.82,-147.93 577.91,-136.42"/>
<polygon fill="midnightblue" stroke="midnightblue" points="579.81,-139.37 586.91,-131.51 576.46,-133.23 579.81,-139.37"/>
</g>
<!-- Node11 -->
<g id="node11" class="node">
<title>Node11</title>
<g id="a_node11"><a xlink:title=" ">
<polygon fill="white" stroke="#bfbfbf" points="461,-112.5 461,-131.5 530,-131.5 530,-112.5 461,-112.5"/>
<text text-anchor="middle" x="495.5" y="-119.5" font-family="Helvetica,sans-Serif" font-size="10.00">Eigen/Core</text>
</a>
</g>
</g>
<!-- Node10&#45;&gt;Node11 -->
<g id="edge11" class="edge">
<title>Node10&#45;&gt;Node11</title>
<path fill="none" stroke="midnightblue" d="M493.79,-173.98C494.07,-165.58 494.51,-152.48 494.87,-141.66"/>
<polygon fill="midnightblue" stroke="midnightblue" points="498.38,-141.62 495.21,-131.51 491.38,-141.39 498.38,-141.62"/>
</g>
<!-- Node12 -->
<g id="node12" class="node">
<title>Node12</title>
<g id="a_node12"><a xlink:title=" ">
<polygon fill="white" stroke="#bfbfbf" points="0,-112.5 0,-131.5 95,-131.5 95,-112.5 0,-112.5"/>
<text text-anchor="middle" x="47.5" y="-119.5" font-family="Helvetica,sans-Serif" font-size="10.00">Eigen/Geometry</text>
</a>
</g>
</g>
<!-- Node10&#45;&gt;Node12 -->
<g id="edge12" class="edge">
<title>Node10&#45;&gt;Node12</title>
<path fill="none" stroke="midnightblue" d="M464.28,-173.96C456,-171.77 446.94,-169.59 438.5,-168 321.3,-145.92 182.16,-133.03 105.47,-127.06"/>
<polygon fill="midnightblue" stroke="midnightblue" points="105.31,-123.54 95.08,-126.27 104.78,-130.52 105.31,-123.54"/>
</g>
<!-- Node13 -->
<g id="node13" class="node">
<title>Node13</title>
<g id="a_node13"><a xlink:title=" ">
<polygon fill="white" stroke="#bfbfbf" points="279.5,-112.5 279.5,-131.5 359.5,-131.5 359.5,-112.5 279.5,-112.5"/>
<text text-anchor="middle" x="319.5" y="-119.5" font-family="Helvetica,sans-Serif" font-size="10.00">Eigen/Sparse</text>
</a>
</g>
</g>
<!-- Node10&#45;&gt;Node13 -->
<g id="edge13" class="edge">
<title>Node10&#45;&gt;Node13</title>
<path fill="none" stroke="midnightblue" d="M468.57,-173.98C438.46,-163.68 387.67,-146.31 353.86,-134.75"/>
<polygon fill="midnightblue" stroke="midnightblue" points="354.98,-131.43 344.38,-131.51 352.71,-138.06 354.98,-131.43"/>
</g>
<!-- Node14&#45;&gt;Node3 -->
<g id="edge16" class="edge">
<title>Node14&#45;&gt;Node3</title>
<path fill="none" stroke="midnightblue" d="M424.92,-235.48C477.29,-228.02 542.88,-215.73 564.5,-199 582.87,-184.78 593.02,-159.29 598.11,-141.78"/>
<polygon fill="midnightblue" stroke="midnightblue" points="601.62,-142.18 600.76,-131.62 594.85,-140.42 601.62,-142.18"/>
</g>
<!-- Node14&#45;&gt;Node10 -->
<g id="edge28" class="edge">
<title>Node14&#45;&gt;Node10</title>
<path fill="none" stroke="midnightblue" d="M373.56,-235.48C397.26,-225.4 436.91,-208.55 464.08,-197"/>
<polygon fill="midnightblue" stroke="midnightblue" points="465.64,-200.14 473.48,-193.01 462.91,-193.7 465.64,-200.14"/>
</g>
<!-- Node14&#45;&gt;Node11 -->
<g id="edge17" class="edge">
<title>Node14&#45;&gt;Node11</title>
<path fill="none" stroke="midnightblue" d="M432.56,-235.63C479.63,-228.83 532.95,-217.31 547.5,-199 556.07,-188.21 553.23,-180.53 547.5,-168 541.72,-155.36 530.45,-144.91 519.87,-137.27"/>
<polygon fill="midnightblue" stroke="midnightblue" points="521.54,-134.18 511.28,-131.53 517.65,-140 521.54,-134.18"/>
</g>
<!-- Node14&#45;&gt;Node12 -->
<g id="edge18" class="edge">
<title>Node14&#45;&gt;Node12</title>
<path fill="none" stroke="midnightblue" d="M274.3,-239.08C178.18,-232.29 26.71,-218.61 9.5,-199 -6.31,-180.99 13.24,-155.24 29.64,-138.82"/>
<polygon fill="midnightblue" stroke="midnightblue" points="32.43,-141.01 37.27,-131.59 27.61,-135.93 32.43,-141.01"/>
</g>
<!-- Node14&#45;&gt;Node13 -->
<g id="edge19" class="edge">
<title>Node14&#45;&gt;Node13</title>
<path fill="none" stroke="midnightblue" d="M274.49,-244.83C186.38,-243.86 51.95,-236.11 19.5,-199 10.43,-188.63 10.51,-178.44 19.5,-168 51.09,-131.31 192.04,-124.11 268.98,-122.97"/>
<polygon fill="midnightblue" stroke="midnightblue" points="269.43,-126.46 279.39,-122.84 269.35,-119.46 269.43,-126.46"/>
</g>
<!-- Node15 -->
<g id="node15" class="node">
<title>Node15</title>
<g id="a_node15"><a xlink:title=" ">
<polygon fill="white" stroke="#bfbfbf" points="29,-174 29,-193 94,-193 94,-174 29,-174"/>
<text text-anchor="middle" x="61.5" y="-181" font-family="Helvetica,sans-Serif" font-size="10.00">functional</text>
</a>
</g>
</g>
<!-- Node14&#45;&gt;Node15 -->
<g id="edge20" class="edge">
<title>Node14&#45;&gt;Node15</title>
<path fill="none" stroke="midnightblue" d="M289.69,-235.49C238.59,-227.97 165.31,-215.62 102.5,-199 99.53,-198.21 96.47,-197.31 93.42,-196.35"/>
<polygon fill="midnightblue" stroke="midnightblue" points="94.44,-193 83.85,-193.14 92.22,-199.64 94.44,-193"/>
</g>
<!-- Node16 -->
<g id="node16" class="node">
<title>Node16</title>
<g id="a_node16"><a xlink:title=" ">
<polygon fill="white" stroke="#bfbfbf" points="112,-168.5 112,-198.5 259,-198.5 259,-168.5 112,-168.5"/>
<text text-anchor="start" x="120" y="-186.5" font-family="Helvetica,sans-Serif" font-size="10.00">unsupported/Eigen/Aligned</text>
<text text-anchor="middle" x="185.5" y="-175.5" font-family="Helvetica,sans-Serif" font-size="10.00">Vector3</text>
</a>
</g>
</g>
<!-- Node14&#45;&gt;Node16 -->
<g id="edge21" class="edge">
<title>Node14&#45;&gt;Node16</title>
<path fill="none" stroke="midnightblue" d="M329.43,-235.48C304.87,-226.78 266.05,-213.03 234.91,-202"/>
<polygon fill="midnightblue" stroke="midnightblue" points="235.69,-198.56 225.09,-198.52 233.35,-205.16 235.69,-198.56"/>
</g>
<!-- Node17 -->
<g id="node17" class="node">
<title>Node17</title>
<g id="a_node17"><a xlink:href="Math_8hpp.html" target="_top" xlink:title=" ">
<polygon fill="white" stroke="black" points="694.5,-174 694.5,-193 810.5,-193 810.5,-174 694.5,-174"/>
<text text-anchor="middle" x="752.5" y="-181" font-family="Helvetica,sans-Serif" font-size="10.00">Core/Math/Math.hpp</text>
</a>
</g>
</g>
<!-- Node14&#45;&gt;Node17 -->
<g id="edge22" class="edge">
<title>Node14&#45;&gt;Node17</title>
<path fill="none" stroke="midnightblue" d="M410.67,-235.48C483.26,-224.65 608.31,-206 685.36,-194.51"/>
<polygon fill="midnightblue" stroke="midnightblue" points="686.06,-197.95 695.44,-193.01 685.03,-191.02 686.06,-197.95"/>
</g>
<!-- Node21 -->
<g id="node21" class="node">
<title>Node21</title>
<g id="a_node21"><a xlink:href="LinearAlgebra_8inl.html" target="_top" xlink:title=" ">
<polygon fill="white" stroke="black" points="277.5,-174 277.5,-193 429.5,-193 429.5,-174 277.5,-174"/>
<text text-anchor="middle" x="353.5" y="-181" font-family="Helvetica,sans-Serif" font-size="10.00">Core/Math/LinearAlgebra.inl</text>
</a>
</g>
</g>
<!-- Node14&#45;&gt;Node21 -->
<g id="edge29" class="edge">
<title>Node14&#45;&gt;Node21</title>
<path fill="none" stroke="midnightblue" d="M348.6,-235.48C346.77,-227.08 346.3,-213.98 347.19,-203.16"/>
<polygon fill="midnightblue" stroke="midnightblue" points="350.69,-203.4 348.6,-193.01 343.75,-202.43 350.69,-203.4"/>
</g>
<!-- Node17&#45;&gt;Node3 -->
<g id="edge23" class="edge">
<title>Node17&#45;&gt;Node3</title>
<path fill="none" stroke="midnightblue" d="M731.01,-173.98C705.39,-163.81 662.39,-146.76 633.26,-135.2"/>
<polygon fill="midnightblue" stroke="midnightblue" points="634.54,-131.94 623.95,-131.51 631.96,-138.45 634.54,-131.94"/>
</g>
<!-- Node18 -->
<g id="node18" class="node">
<title>Node18</title>
<g id="a_node18"><a xlink:title=" ">
<polygon fill="white" stroke="#bfbfbf" points="669.5,-112.5 669.5,-131.5 733.5,-131.5 733.5,-112.5 669.5,-112.5"/>
<text text-anchor="middle" x="701.5" y="-119.5" font-family="Helvetica,sans-Serif" font-size="10.00">algorithm</text>
</a>
</g>
</g>
<!-- Node17&#45;&gt;Node18 -->
<g id="edge24" class="edge">
<title>Node17&#45;&gt;Node18</title>
<path fill="none" stroke="midnightblue" d="M745.19,-173.98C737.47,-164.96 725.09,-150.52 715.48,-139.31"/>
<polygon fill="midnightblue" stroke="midnightblue" points="717.96,-136.82 708.79,-131.51 712.64,-141.38 717.96,-136.82"/>
</g>
<!-- Node19 -->
<g id="node19" class="node">
<title>Node19</title>
<g id="a_node19"><a xlink:title=" ">
<polygon fill="white" stroke="#bfbfbf" points="752,-112.5 752,-131.5 799,-131.5 799,-112.5 752,-112.5"/>
<text text-anchor="middle" x="775.5" y="-119.5" font-family="Helvetica,sans-Serif" font-size="10.00">cmath</text>
</a>
</g>
</g>
<!-- Node17&#45;&gt;Node19 -->
<g id="edge25" class="edge">
<title>Node17&#45;&gt;Node19</title>
<path fill="none" stroke="midnightblue" d="M755.8,-173.98C759.11,-165.4 764.32,-151.93 768.55,-140.98"/>
<polygon fill="midnightblue" stroke="midnightblue" points="771.87,-142.1 772.21,-131.51 765.34,-139.57 771.87,-142.1"/>
</g>
<!-- Node20 -->
<g id="node20" class="node">
<title>Node20</title>
<g id="a_node20"><a xlink:href="Math_8inl.html" target="_top" xlink:title=" ">
<polygon fill="white" stroke="black" points="817.5,-112.5 817.5,-131.5 927.5,-131.5 927.5,-112.5 817.5,-112.5"/>
<text text-anchor="middle" x="872.5" y="-119.5" font-family="Helvetica,sans-Serif" font-size="10.00">Core/Math/Math.inl</text>
</a>
</g>
</g>
<!-- Node17&#45;&gt;Node20 -->
<g id="edge26" class="edge">
<title>Node17&#45;&gt;Node20</title>
<path fill="none" stroke="midnightblue" d="M764.79,-173.98C782.83,-163.95 816.36,-147.2 841.34,-135.65"/>
<polygon fill="midnightblue" stroke="midnightblue" points="842.79,-138.84 850.44,-131.51 839.89,-132.47 842.79,-138.84"/>
</g>
<!-- Node20&#45;&gt;Node17 -->
<g id="edge27" class="edge">
<title>Node20&#45;&gt;Node17</title>
<path fill="none" stroke="midnightblue" d="M860.24,-131.51C842.21,-141.53 808.69,-158.28 783.7,-169.83"/>
<polygon fill="midnightblue" stroke="midnightblue" points="782.24,-166.65 774.59,-173.98 785.15,-173.02 782.24,-166.65"/>
</g>
<!-- Node21&#45;&gt;Node14 -->
<g id="edge30" class="edge">
<title>Node21&#45;&gt;Node14</title>
<path fill="none" stroke="midnightblue" d="M358.4,-193.01C360.23,-201.4 360.7,-214.5 359.82,-225.32"/>
<polygon fill="midnightblue" stroke="midnightblue" points="356.31,-225.09 358.4,-235.48 363.25,-226.05 356.31,-225.09"/>
</g>
</g>
</svg>
