<?xml version="1.0" encoding="UTF-8" standalone="no"?>
<!DOCTYPE svg PUBLIC "-//W3C//DTD SVG 1.1//EN"
 "http://www.w3.org/Graphics/SVG/1.1/DTD/svg11.dtd">
<!-- Generated by graphviz version 2.43.0 (0)
 -->
<!-- Title: Ra::Engine::Data::DrawPrimitives::Normal Pages: 1 -->
<!--zoomable 672 -->

<svg id="main" version="1.1" xmlns="http://www.w3.org/2000/svg" xmlns:xlink="http://www.w3.org/1999/xlink" xml:space="preserve" onload="init(evt)">

<style type="text/css"><![CDATA[
.node, .edge {opacity: 0.7;}
.node.selected, .edge.selected {opacity: 1;}
.edge:hover path { stroke: red; }
.edge:hover polygon { stroke: red; fill: red; }
]]></style>

<defs>
  <circle id="rim" cx="0" cy="0" r="7"/>
  <circle id="rim2" cx="0" cy="0" r="3.5"/>
  <g id="zoomPlus">
    <use xlink:href="#rim" fill="#404040"><set attributeName="fill" to="#808080" begin="zoomplus.mouseover" end="zoomplus.mouseout"/></use>
    <path d="M-4,0h8M0,-4v8" fill="none" stroke="white" stroke-width="1.5" pointer-events="none"/>
  </g>
  <g id="zoomMin">
    <use xlink:href="#rim" fill="#404040"><set attributeName="fill" to="#808080" begin="zoomminus.mouseover" end="zoomminus.mouseout"/></use>
    <path d="M-4,0h8" fill="none" stroke="white" stroke-width="1.5" pointer-events="none"/>
  </g>
  <g id="arrowUp" transform="translate(30 24)">
    <use xlink:href="#rim"/>
    <path pointer-events="none" fill="none" stroke="white" stroke-width="1.5" d="M0,-3.0v7 M-2.5,-0.5L0,-3.0L2.5,-0.5"/>
  </g>
  <g id="arrowRight" transform="rotate(90) translate(36 -43)">
    <use xlink:href="#rim"/>
    <path pointer-events="none" fill="none" stroke="white" stroke-width="1.5" d="M0,-3.0v7 M-2.5,-0.5L0,-3.0L2.5,-0.5"/>
  </g>
  <g id="arrowDown" transform="rotate(180) translate(-30 -48)">
    <use xlink:href="#rim"/>
    <path pointer-events="none" fill="none" stroke="white" stroke-width="1.5" d="M0,-3.0v7 M-2.5,-0.5L0,-3.0L2.5,-0.5"/>
  </g>
  <g id="arrowLeft" transform="rotate(270) translate(-36 17)">
    <use xlink:href="#rim"/>
    <path pointer-events="none" fill="none" stroke="white" stroke-width="1.5" d="M0,-3.0v7 M-2.5,-0.5L0,-3.0L2.5,-0.5"/>
  </g>
  <g id="resetDef">
    <use xlink:href="#rim2" fill="#404040"><set attributeName="fill" to="#808080" begin="reset.mouseover" end="reset.mouseout"/></use>
  </g>
</defs>
<script type="application/ecmascript">
var viewWidth = 973;
var viewHeight = 672;
var sectionId = 'dynsection-7';
</script>
<script type="application/ecmascript" xlink:href="svg.min.js"/>
<svg id="graph" class="graph">
<g id="viewport">
<title>Ra::Engine::Data::DrawPrimitives::Normal</title>
<!-- Node1 -->
<g id="Node000001" class="node">
<title>Node1</title>
<g id="a_Node000001"><a xlink:title=" ">
<polygon fill="#999999" stroke="#666666" points="179,-232.5 0,-232.5 0,-202.5 179,-202.5 179,-232.5"/>
<text text-anchor="start" x="8" y="-220.5" font-family="Helvetica,sans-Serif" font-size="10.00">Ra::Engine::Data::DrawPrimitives</text>
<text text-anchor="middle" x="89.5" y="-209.5" font-family="Helvetica,sans-Serif" font-size="10.00">::Normal</text>
</a>
</g>
</g>
<!-- Node2 -->
<g id="Node000002" class="node">
<title>Node2</title>
<g id="a_Node000002"><a xlink:href="classRa_1_1Core_1_1Geometry_1_1AttribArrayGeometry.html#ae1956b0396dadd84f55a12f2160e5671" target="_top" xlink:title=" ">
<polygon fill="white" stroke="#666666" points="359.5,-428 234.5,-428 234.5,-387 359.5,-387 359.5,-428"/>
<text text-anchor="start" x="242.5" y="-416" font-family="Helvetica,sans-Serif" font-size="10.00">Ra::Core::Geometry</text>
<text text-anchor="start" x="242.5" y="-405" font-family="Helvetica,sans-Serif" font-size="10.00">::AttribArrayGeometry</text>
<text text-anchor="middle" x="297" y="-394" font-family="Helvetica,sans-Serif" font-size="10.00">::addAttrib</text>
</a>
</g>
</g>
<!-- Node1&#45;&gt;Node2 -->
<g id="edge1_Node000001_Node000002" class="edge">
<title>Node1&#45;&gt;Node2</title>
<g id="a_edge1_Node000001_Node000002"><a xlink:title=" ">
<path fill="none" stroke="#63b8ff" d="M104.02,-232.79C126.2,-257.53 172.12,-307.41 215,-345.5 228.84,-357.79 244.87,-370.38 259.01,-380.97"/>
<polygon fill="#63b8ff" stroke="#63b8ff" points="256.96,-383.81 267.08,-386.96 261.13,-378.19 256.96,-383.81"/>
</a>
</g>
</g>
<!-- Node13 -->
<g id="Node000013" class="node">
<title>Node13</title>
<g id="a_Node000013"><a target="_blank" xlink:href="http://en.cppreference.com/w/cpp/utility/move.html#" xlink:title=" ">
<polygon fill="white" stroke="#666666" points="726.5,-286 661.5,-286 661.5,-267 726.5,-267 726.5,-286"/>
<text text-anchor="middle" x="694" y="-274" font-family="Helvetica,sans-Serif" font-size="10.00">std::move</text>
</a>
</g>
</g>
<!-- Node1&#45;&gt;Node13 -->
<g id="edge24_Node000001_Node000013" class="edge">
<title>Node1&#45;&gt;Node13</title>
<g id="a_edge24_Node000001_Node000013"><a xlink:title=" ">
<path fill="none" stroke="#63b8ff" d="M105.3,-232.53C127.05,-253.44 169.98,-290.33 215,-304.5 295.7,-329.9 550.26,-297.21 651.18,-282.74"/>
<polygon fill="#63b8ff" stroke="#63b8ff" points="651.91,-286.18 661.31,-281.28 650.91,-279.25 651.91,-286.18"/>
</a>
</g>
</g>
<!-- Node17 -->
<g id="Node000017" class="node">
<title>Node17</title>
<g id="a_Node000017"><a xlink:href="namespaceRa_1_1Core_1_1Math.html#a5f25a31a29b0688e349dc35a353b9766" target="_top" xlink:title=" ">
<polygon fill="white" stroke="#666666" points="379,-135.5 215,-135.5 215,-105.5 379,-105.5 379,-135.5"/>
<text text-anchor="start" x="223" y="-123.5" font-family="Helvetica,sans-Serif" font-size="10.00">Ra::Core::Math::getOrthogonal</text>
<text text-anchor="middle" x="297" y="-112.5" font-family="Helvetica,sans-Serif" font-size="10.00">Vectors</text>
</a>
</g>
</g>
<!-- Node1&#45;&gt;Node17 -->
<g id="edge18_Node000001_Node000017" class="edge">
<title>Node1&#45;&gt;Node17</title>
<g id="a_edge18_Node000001_Node000017"><a xlink:title=" ">
<path fill="none" stroke="#63b8ff" d="M118.9,-202.4C143.95,-189.26 181.58,-169.95 215,-154.5 226.03,-149.4 238.04,-144.18 249.36,-139.41"/>
<polygon fill="#63b8ff" stroke="#63b8ff" points="250.78,-142.61 258.66,-135.52 248.08,-136.15 250.78,-142.61"/>
</a>
</g>
</g>
<!-- Node20 -->
<g id="Node000020" class="node">
<title>Node20</title>
<g id="a_Node000020"><a xlink:href="namespaceRa_1_1Core.html#a51ed2a237e20a947e07bd800839876ca" target="_top" xlink:title=" ">
<polygon fill="white" stroke="#666666" points="361.5,-56 232.5,-56 232.5,-37 361.5,-37 361.5,-56"/>
<text text-anchor="middle" x="297" y="-44" font-family="Helvetica,sans-Serif" font-size="10.00">Ra::Core::make_shared</text>
</a>
</g>
</g>
<!-- Node1&#45;&gt;Node20 -->
<g id="edge21_Node000001_Node000020" class="edge">
<title>Node1&#45;&gt;Node20</title>
<g id="a_edge21_Node000001_Node000020"><a xlink:title=" ">
<path fill="none" stroke="#63b8ff" d="M104.12,-202.26C126.08,-178.19 171.26,-130.59 215,-96.5 232,-83.25 252.7,-70.53 268.92,-61.23"/>
<polygon fill="#63b8ff" stroke="#63b8ff" points="270.89,-64.13 277.88,-56.17 267.45,-58.03 270.89,-64.13"/>
</a>
</g>
</g>
<!-- Node23 -->
<g id="Node000023" class="node">
<title>Node23</title>
<g id="a_Node000023"><a xlink:href="classRa_1_1Core_1_1Geometry_1_1IndexedGeometry.html#ad1fc6b57b469ef12d14f677852b8f2a8" target="_top" xlink:title=" ">
<polygon fill="white" stroke="#666666" points="379,-295.5 215,-295.5 215,-265.5 379,-265.5 379,-295.5"/>
<text text-anchor="start" x="223" y="-283.5" font-family="Helvetica,sans-Serif" font-size="10.00">Ra::Core::Geometry</text>
<text text-anchor="middle" x="297" y="-272.5" font-family="Helvetica,sans-Serif" font-size="10.00">::IndexedGeometry::setIndices</text>
</a>
</g>
</g>
<!-- Node1&#45;&gt;Node23 -->
<g id="edge25_Node000001_Node000023" class="edge">
<title>Node1&#45;&gt;Node23</title>
<g id="a_edge25_Node000001_Node000023"><a xlink:title=" ">
<path fill="none" stroke="#63b8ff" d="M139.46,-232.51C168.81,-241.51 206.32,-253.01 237.26,-262.49"/>
<polygon fill="#63b8ff" stroke="#63b8ff" points="236.47,-265.91 247.06,-265.5 238.52,-259.22 236.47,-265.91"/>
</a>
</g>
</g>
<!-- Node24 -->
<g id="Node000024" class="node">
<title>Node24</title>
<g id="a_Node000024"><a xlink:href="classRa_1_1Core_1_1Geometry_1_1AttribArrayGeometry.html#a887411177386edbcdc35d0c6bf78a83a" target="_top" xlink:title="Set vertices.">
<polygon fill="white" stroke="#666666" points="359.5,-238 234.5,-238 234.5,-197 359.5,-197 359.5,-238"/>
<text text-anchor="start" x="242.5" y="-226" font-family="Helvetica,sans-Serif" font-size="10.00">Ra::Core::Geometry</text>
<text text-anchor="start" x="242.5" y="-215" font-family="Helvetica,sans-Serif" font-size="10.00">::AttribArrayGeometry</text>
<text text-anchor="middle" x="297" y="-204" font-family="Helvetica,sans-Serif" font-size="10.00">::setVertices</text>
</a>
</g>
</g>
<!-- Node1&#45;&gt;Node24 -->
<g id="edge27_Node000001_Node000024" class="edge">
<title>Node1&#45;&gt;Node24</title>
<g id="a_edge27_Node000001_Node000024"><a xlink:title=" ">
<path fill="none" stroke="#63b8ff" d="M179.14,-217.5C194.09,-217.5 209.44,-217.5 223.9,-217.5"/>
<polygon fill="#63b8ff" stroke="#63b8ff" points="224.26,-221 234.26,-217.5 224.26,-214 224.26,-221"/>
</a>
</g>
</g>
<!-- Node29 -->
<g id="Node000029" class="node">
<title>Node29</title>
<g id="a_Node000029"><a xlink:href="classRa_1_1Core_1_1Geometry_1_1AttribArrayGeometry.html#acabe05880d71a8dc4406964c258fff5a" target="_top" xlink:title="Access the vertices positions.">
<polygon fill="white" stroke="#666666" points="558.5,-189 433.5,-189 433.5,-148 558.5,-148 558.5,-189"/>
<text text-anchor="start" x="441.5" y="-177" font-family="Helvetica,sans-Serif" font-size="10.00">Ra::Core::Geometry</text>
<text text-anchor="start" x="441.5" y="-166" font-family="Helvetica,sans-Serif" font-size="10.00">::AttribArrayGeometry</text>
<text text-anchor="middle" x="496" y="-155" font-family="Helvetica,sans-Serif" font-size="10.00">::vertices</text>
</a>
</g>
</g>
<!-- Node1&#45;&gt;Node29 -->
<g id="edge37_Node000001_Node000029" class="edge">
<title>Node1&#45;&gt;Node29</title>
<g id="a_edge37_Node000001_Node000029"><a xlink:title=" ">
<path fill="none" stroke="#63b8ff" d="M146.54,-202.47C167.83,-197.28 192.4,-191.92 215,-188.5 285.2,-177.88 366.18,-172.87 422.93,-170.53"/>
<polygon fill="#63b8ff" stroke="#63b8ff" points="423.39,-174.01 433.24,-170.12 423.11,-167.02 423.39,-174.01"/>
</a>
</g>
</g>
<!-- Node3 -->
<g id="Node000003" class="node">
<title>Node3</title>
<g id="a_Node000003"><a xlink:href="classRa_1_1Core_1_1Utils_1_1AttribManager.html#ac2d3cdc360ffe1904a15ff8504de95b8" target="_top" xlink:title=" ">
<polygon fill="white" stroke="#666666" points="577,-467.5 415,-467.5 415,-437.5 577,-437.5 577,-467.5"/>
<text text-anchor="start" x="423" y="-455.5" font-family="Helvetica,sans-Serif" font-size="10.00">Ra::Core::Utils::AttribManager</text>
<text text-anchor="middle" x="496" y="-444.5" font-family="Helvetica,sans-Serif" font-size="10.00">::addAttrib</text>
</a>
</g>
</g>
<!-- Node2&#45;&gt;Node3 -->
<g id="edge2_Node000002_Node000003" class="edge">
<title>Node2&#45;&gt;Node3</title>
<g id="a_edge2_Node000002_Node000003"><a xlink:title=" ">
<path fill="none" stroke="#63b8ff" d="M359.52,-421.55C378.45,-425.88 399.51,-430.69 419.28,-435.2"/>
<polygon fill="#63b8ff" stroke="#63b8ff" points="418.64,-438.65 429.17,-437.46 420.2,-431.82 418.64,-438.65"/>
</a>
</g>
</g>
<!-- Node4 -->
<g id="Node000004" class="node">
<title>Node4</title>
<g id="a_Node000004"><a target="_blank" xlink:href="http://en.cppreference.com/w/cpp/container/vector/begin.html#" xlink:title=" ">
<polygon fill="white" stroke="#666666" points="744.5,-664 643.5,-664 643.5,-645 744.5,-645 744.5,-664"/>
<text text-anchor="middle" x="694" y="-652" font-family="Helvetica,sans-Serif" font-size="10.00">std::vector::begin</text>
</a>
</g>
</g>
<!-- Node3&#45;&gt;Node4 -->
<g id="edge3_Node000003_Node000004" class="edge">
<title>Node3&#45;&gt;Node4</title>
<g id="a_edge3_Node000003_Node000004"><a xlink:title=" ">
<path fill="none" stroke="#63b8ff" d="M501.99,-467.73C514.49,-503.38 550.69,-592.5 613,-636.5 619.16,-640.85 626.19,-644.17 633.47,-646.7"/>
<polygon fill="#63b8ff" stroke="#63b8ff" points="632.91,-650.18 643.49,-649.68 634.91,-643.47 632.91,-650.18"/>
</a>
</g>
</g>
<!-- Node5 -->
<g id="Node000005" class="node">
<title>Node5</title>
<g id="a_Node000005"><a target="_blank" xlink:href="http://en.cppreference.com/w/cpp/iterator/distance.html#" xlink:title=" ">
<polygon fill="white" stroke="#666666" points="733.5,-627 654.5,-627 654.5,-608 733.5,-608 733.5,-627"/>
<text text-anchor="middle" x="694" y="-615" font-family="Helvetica,sans-Serif" font-size="10.00">std::distance</text>
</a>
</g>
</g>
<!-- Node3&#45;&gt;Node5 -->
<g id="edge4_Node000003_Node000005" class="edge">
<title>Node3&#45;&gt;Node5</title>
<g id="a_edge4_Node000003_Node000005"><a xlink:title=" ">
<path fill="none" stroke="#63b8ff" d="M504.48,-467.81C520.13,-498.11 559.36,-565.72 613,-599.5 622.41,-605.42 633.52,-609.41 644.42,-612.09"/>
<polygon fill="#63b8ff" stroke="#63b8ff" points="643.81,-615.53 654.32,-614.2 645.27,-608.69 643.81,-615.53"/>
</a>
</g>
</g>
<!-- Node6 -->
<g id="Node000006" class="node">
<title>Node6</title>
<g id="a_Node000006"><a target="_blank" xlink:href="http://en.cppreference.com/w/cpp/container/vector/end.html#" xlink:title=" ">
<polygon fill="white" stroke="#666666" points="740,-590 648,-590 648,-571 740,-571 740,-590"/>
<text text-anchor="middle" x="694" y="-578" font-family="Helvetica,sans-Serif" font-size="10.00">std::vector::end</text>
</a>
</g>
</g>
<!-- Node3&#45;&gt;Node6 -->
<g id="edge5_Node000003_Node000006" class="edge">
<title>Node3&#45;&gt;Node6</title>
<g id="a_edge5_Node000003_Node000006"><a xlink:title=" ">
<path fill="none" stroke="#63b8ff" d="M508.37,-467.61C527.29,-491.65 567.7,-538.33 613,-562.5 620.76,-566.64 629.43,-569.83 638.12,-572.28"/>
<polygon fill="#63b8ff" stroke="#63b8ff" points="637.34,-575.7 647.89,-574.76 639.06,-568.91 637.34,-575.7"/>
</a>
</g>
</g>
<!-- Node7 -->
<g id="Node000007" class="node">
<title>Node7</title>
<g id="a_Node000007"><a target="_blank" xlink:href="http://en.cppreference.com/w/cpp/algorithm/find.html#" xlink:title=" ">
<polygon fill="white" stroke="#666666" points="728,-553 660,-553 660,-534 728,-534 728,-553"/>
<text text-anchor="middle" x="694" y="-541" font-family="Helvetica,sans-Serif" font-size="10.00">std::find_if</text>
</a>
</g>
</g>
<!-- Node3&#45;&gt;Node7 -->
<g id="edge6_Node000003_Node000007" class="edge">
<title>Node3&#45;&gt;Node7</title>
<g id="a_edge6_Node000003_Node000007"><a xlink:title=" ">
<path fill="none" stroke="#63b8ff" d="M516.86,-467.63C539.14,-483.91 576.89,-509.47 613,-524.5 624.64,-529.34 637.76,-533.1 649.96,-535.95"/>
<polygon fill="#63b8ff" stroke="#63b8ff" points="649.42,-539.42 659.94,-538.14 650.92,-532.58 649.42,-539.42"/>
</a>
</g>
</g>
<!-- Node8 -->
<g id="Node000008" class="node">
<title>Node8</title>
<g id="a_Node000008"><a xlink:href="classRa_1_1Core_1_1Utils_1_1AttribManager.html#af89047a2747bc4e08144bbb3477e1d8e" target="_top" xlink:title="findAttrib Grab an attribute handler by name.">
<polygon fill="white" stroke="#666666" points="775,-515.5 613,-515.5 613,-485.5 775,-485.5 775,-515.5"/>
<text text-anchor="start" x="621" y="-503.5" font-family="Helvetica,sans-Serif" font-size="10.00">Ra::Core::Utils::AttribManager</text>
<text text-anchor="middle" x="694" y="-492.5" font-family="Helvetica,sans-Serif" font-size="10.00">::findAttrib</text>
</a>
</g>
</g>
<!-- Node3&#45;&gt;Node8 -->
<g id="edge7_Node000003_Node000008" class="edge">
<title>Node3&#45;&gt;Node8</title>
<g id="a_edge7_Node000003_Node000008"><a xlink:title=" ">
<path fill="none" stroke="#63b8ff" d="M558.48,-467.56C578.64,-472.49 601.2,-478.02 622.01,-483.11"/>
<polygon fill="#63b8ff" stroke="#63b8ff" points="621.19,-486.52 631.74,-485.5 622.86,-479.72 621.19,-486.52"/>
</a>
</g>
</g>
<!-- Node11 -->
<g id="Node000011" class="node">
<title>Node11</title>
<g id="a_Node000011"><a xlink:href="classRa_1_1Core_1_1Utils_1_1AttribManager.html#ae61e2c70f407d49d854ee4b98a39121f" target="_top" xlink:title="Return true if h correspond to an existing attribute in *this.">
<polygon fill="white" stroke="#666666" points="775,-467.5 613,-467.5 613,-437.5 775,-437.5 775,-467.5"/>
<text text-anchor="start" x="621" y="-455.5" font-family="Helvetica,sans-Serif" font-size="10.00">Ra::Core::Utils::AttribManager</text>
<text text-anchor="middle" x="694" y="-444.5" font-family="Helvetica,sans-Serif" font-size="10.00">::isValid</text>
</a>
</g>
</g>
<!-- Node3&#45;&gt;Node11 -->
<g id="edge10_Node000003_Node000011" class="edge">
<title>Node3&#45;&gt;Node11</title>
<g id="a_edge10_Node000003_Node000011"><a xlink:title=" ">
<path fill="none" stroke="#63b8ff" d="M577,-452.5C585.52,-452.5 594.23,-452.5 602.86,-452.5"/>
<polygon fill="#63b8ff" stroke="#63b8ff" points="602.93,-456 612.93,-452.5 602.93,-449 602.93,-456"/>
</a>
</g>
</g>
<!-- Node3&#45;&gt;Node13 -->
<g id="edge14_Node000003_Node000013" class="edge">
<title>Node3&#45;&gt;Node13</title>
<g id="a_edge14_Node000003_Node000013"><a xlink:title=" ">
<path fill="none" stroke="#63b8ff" d="M508.48,-437.33C524.09,-416.64 552.85,-378.41 577,-345.5 593.2,-323.42 590.25,-310.73 613,-295.5 624.23,-287.98 638.1,-283.42 651.12,-280.67"/>
<polygon fill="#63b8ff" stroke="#63b8ff" points="652.09,-284.05 661.31,-278.82 650.84,-277.16 652.09,-284.05"/>
</a>
</g>
</g>
<!-- Node14 -->
<g id="Node000014" class="node">
<title>Node14</title>
<g id="a_Node000014"><a xlink:href="classRa_1_1Core_1_1Utils_1_1Observable.html#a7e5fe761726d56a51f95192eb6555f8f" target="_top" xlink:title=" ">
<polygon fill="white" stroke="#666666" points="768,-419 620,-419 620,-378 768,-378 768,-419"/>
<text text-anchor="start" x="628" y="-407" font-family="Helvetica,sans-Serif" font-size="10.00">Ra::Core::Utils::Observable</text>
<text text-anchor="start" x="628" y="-396" font-family="Helvetica,sans-Serif" font-size="10.00">&lt; const std::string &amp; &gt;</text>
<text text-anchor="middle" x="694" y="-385" font-family="Helvetica,sans-Serif" font-size="10.00">::notify</text>
</a>
</g>
</g>
<!-- Node3&#45;&gt;Node14 -->
<g id="edge15_Node000003_Node000014" class="edge">
<title>Node3&#45;&gt;Node14</title>
<g id="a_edge15_Node000003_Node000014"><a xlink:title=" ">
<path fill="none" stroke="#63b8ff" d="M551.6,-437.46C569.62,-432.49 590.1,-426.85 609.76,-421.43"/>
<polygon fill="#63b8ff" stroke="#63b8ff" points="610.94,-424.74 619.65,-418.71 609.08,-417.99 610.94,-424.74"/>
</a>
</g>
</g>
<!-- Node15 -->
<g id="Node000015" class="node">
<title>Node15</title>
<g id="a_Node000015"><a target="_blank" xlink:href="http://en.cppreference.com/w/cpp/container/vector/push_back.html#" xlink:title=" ">
<polygon fill="white" stroke="#666666" points="757,-360 631,-360 631,-341 757,-341 757,-360"/>
<text text-anchor="middle" x="694" y="-348" font-family="Helvetica,sans-Serif" font-size="10.00">std::vector::push_back</text>
</a>
</g>
</g>
<!-- Node3&#45;&gt;Node15 -->
<g id="edge16_Node000003_Node000015" class="edge">
<title>Node3&#45;&gt;Node15</title>
<g id="a_edge16_Node000003_Node000015"><a xlink:title=" ">
<path fill="none" stroke="#63b8ff" d="M513.75,-437.25C535.2,-418.55 574.23,-387.14 613,-369.5 618.41,-367.04 624.18,-364.87 630.04,-362.98"/>
<polygon fill="#63b8ff" stroke="#63b8ff" points="631.37,-366.23 639.96,-360.03 629.37,-359.52 631.37,-366.23"/>
</a>
</g>
</g>
<!-- Node16 -->
<g id="Node000016" class="node">
<title>Node16</title>
<g id="a_Node000016"><a target="_blank" xlink:href="http://en.cppreference.com/w/cpp/container/vector/size.html#" xlink:title=" ">
<polygon fill="white" stroke="#666666" points="741,-323 647,-323 647,-304 741,-304 741,-323"/>
<text text-anchor="middle" x="694" y="-311" font-family="Helvetica,sans-Serif" font-size="10.00">std::vector::size</text>
</a>
</g>
</g>
<!-- Node3&#45;&gt;Node16 -->
<g id="edge17_Node000003_Node000016" class="edge">
<title>Node3&#45;&gt;Node16</title>
<g id="a_edge17_Node000003_Node000016"><a xlink:title=" ">
<path fill="none" stroke="#63b8ff" d="M507.19,-437.3C525.29,-411.54 565.67,-359.46 613,-332.5 620.4,-328.29 628.7,-325 637.07,-322.45"/>
<polygon fill="#63b8ff" stroke="#63b8ff" points="638.15,-325.78 646.88,-319.77 636.31,-319.03 638.15,-325.78"/>
</a>
</g>
</g>
<!-- Node9 -->
<g id="Node000009" class="node">
<title>Node9</title>
<g id="a_Node000009"><a target="_blank" xlink:href="http://en.cppreference.com/w/cpp/container/map/end.html#" xlink:title=" ">
<polygon fill="white" stroke="#666666" points="929.5,-510 846.5,-510 846.5,-491 929.5,-491 929.5,-510"/>
<text text-anchor="middle" x="888" y="-498" font-family="Helvetica,sans-Serif" font-size="10.00">std::map::end</text>
</a>
</g>
</g>
<!-- Node8&#45;&gt;Node9 -->
<g id="edge8_Node000008_Node000009" class="edge">
<title>Node8&#45;&gt;Node9</title>
<g id="a_edge8_Node000008_Node000009"><a xlink:title=" ">
<path fill="none" stroke="#63b8ff" d="M775.03,-500.5C795.78,-500.5 817.56,-500.5 836.33,-500.5"/>
<polygon fill="#63b8ff" stroke="#63b8ff" points="836.42,-504 846.42,-500.5 836.42,-497 836.42,-504"/>
</a>
</g>
</g>
<!-- Node10 -->
<g id="Node000010" class="node">
<title>Node10</title>
<g id="a_Node000010"><a target="_blank" xlink:href="http://en.cppreference.com/w/cpp/container/map/find.html#" xlink:title=" ">
<polygon fill="white" stroke="#666666" points="929.5,-473 846.5,-473 846.5,-454 929.5,-454 929.5,-473"/>
<text text-anchor="middle" x="888" y="-461" font-family="Helvetica,sans-Serif" font-size="10.00">std::map::find</text>
</a>
</g>
</g>
<!-- Node8&#45;&gt;Node10 -->
<g id="edge9_Node000008_Node000010" class="edge">
<title>Node8&#45;&gt;Node10</title>
<g id="a_edge9_Node000008_Node000010"><a xlink:title=" ">
<path fill="none" stroke="#63b8ff" d="M773.09,-485.45C794.49,-481.33 817.11,-476.97 836.51,-473.23"/>
<polygon fill="#63b8ff" stroke="#63b8ff" points="837.18,-476.66 846.34,-471.34 835.86,-469.79 837.18,-476.66"/>
</a>
</g>
</g>
<!-- Node11&#45;&gt;Node9 -->
<g id="edge12_Node000011_Node000009" class="edge">
<title>Node11&#45;&gt;Node9</title>
<g id="a_edge12_Node000011_Node000009"><a xlink:title=" ">
<path fill="none" stroke="#63b8ff" d="M752.17,-467.53C770.9,-472.39 791.82,-477.75 811,-482.5 819.23,-484.54 827.97,-486.66 836.49,-488.69"/>
<polygon fill="#63b8ff" stroke="#63b8ff" points="835.8,-492.12 846.34,-491.03 837.42,-485.31 835.8,-492.12"/>
</a>
</g>
</g>
<!-- Node11&#45;&gt;Node10 -->
<g id="edge13_Node000011_Node000010" class="edge">
<title>Node11&#45;&gt;Node10</title>
<g id="a_edge13_Node000011_Node000010"><a xlink:title=" ">
<path fill="none" stroke="#63b8ff" d="M775.03,-457.09C795.78,-458.27 817.56,-459.52 836.33,-460.6"/>
<polygon fill="#63b8ff" stroke="#63b8ff" points="836.24,-464.1 846.42,-461.18 836.64,-457.11 836.24,-464.1"/>
</a>
</g>
</g>
<!-- Node12 -->
<g id="Node000012" class="node">
<title>Node12</title>
<g id="a_Node000012"><a xlink:href="classRa_1_1Core_1_1Utils_1_1AttribHandle.html#a17afbd6718234d480c05258369bdfde9" target="_top" xlink:title=" ">
<polygon fill="white" stroke="#666666" points="965,-435.5 811,-435.5 811,-405.5 965,-405.5 965,-435.5"/>
<text text-anchor="start" x="819" y="-423.5" font-family="Helvetica,sans-Serif" font-size="10.00">Ra::Core::Utils::AttribHandle</text>
<text text-anchor="middle" x="888" y="-412.5" font-family="Helvetica,sans-Serif" font-size="10.00">::attribName</text>
</a>
</g>
</g>
<!-- Node11&#45;&gt;Node12 -->
<g id="edge11_Node000011_Node000012" class="edge">
<title>Node11&#45;&gt;Node12</title>
<g id="a_edge11_Node000011_Node000012"><a xlink:title=" ">
<path fill="none" stroke="#63b8ff" d="M775.03,-439.16C783.54,-437.74 792.22,-436.3 800.79,-434.87"/>
<polygon fill="#63b8ff" stroke="#63b8ff" points="801.5,-438.3 810.79,-433.2 800.35,-431.39 801.5,-438.3"/>
</a>
</g>
</g>
<!-- Node18 -->
<g id="Node000018" class="node">
<title>Node18</title>
<g id="a_Node000018"><a target="_blank" xlink:href="http://en.cppreference.com/w/cpp/numeric/math/copysign.html#" xlink:title=" ">
<polygon fill="white" stroke="#666666" points="536.5,-130 455.5,-130 455.5,-111 536.5,-111 536.5,-130"/>
<text text-anchor="middle" x="496" y="-118" font-family="Helvetica,sans-Serif" font-size="10.00">std::copysign</text>
</a>
</g>
</g>
<!-- Node17&#45;&gt;Node18 -->
<g id="edge19_Node000017_Node000018" class="edge">
<title>Node17&#45;&gt;Node18</title>
<g id="a_edge19_Node000017_Node000018"><a xlink:title=" ">
<path fill="none" stroke="#63b8ff" d="M379.26,-120.5C401.65,-120.5 425.26,-120.5 445.27,-120.5"/>
<polygon fill="#63b8ff" stroke="#63b8ff" points="445.39,-124 455.39,-120.5 445.39,-117 445.39,-124"/>
</a>
</g>
</g>
<!-- Node19 -->
<g id="Node000019" class="node">
<title>Node19</title>
<g id="a_Node000019"><a xlink:href="namespaceRa_1_1Core_1_1Math.html#a90f0fe9079f5bb86c721ea4b61738470" target="_top" xlink:title="Returns the sign of any numeric type as { &#45;1, 0, 1}.">
<polygon fill="white" stroke="#666666" points="553.5,-93 438.5,-93 438.5,-74 553.5,-74 553.5,-93"/>
<text text-anchor="middle" x="496" y="-81" font-family="Helvetica,sans-Serif" font-size="10.00">Ra::Core::Math::sign</text>
</a>
</g>
</g>
<!-- Node17&#45;&gt;Node19 -->
<g id="edge20_Node000017_Node000019" class="edge">
<title>Node17&#45;&gt;Node19</title>
<g id="a_edge20_Node000017_Node000019"><a xlink:title=" ">
<path fill="none" stroke="#63b8ff" d="M378.13,-105.45C396.83,-101.94 416.44,-98.25 434.15,-94.93"/>
<polygon fill="#63b8ff" stroke="#63b8ff" points="435.15,-98.3 444.33,-93.02 433.86,-91.42 435.15,-98.3"/>
</a>
</g>
</g>
<!-- Node21 -->
<g id="Node000021" class="node">
<title>Node21</title>
<g id="a_Node000021"><a target="_blank" xlink:href="http://en.cppreference.com/w/cpp/utility/forward.html#" xlink:title=" ">
<polygon fill="white" stroke="#666666" points="533.5,-56 458.5,-56 458.5,-37 533.5,-37 533.5,-56"/>
<text text-anchor="middle" x="496" y="-44" font-family="Helvetica,sans-Serif" font-size="10.00">std::forward</text>
</a>
</g>
</g>
<!-- Node20&#45;&gt;Node21 -->
<g id="edge22_Node000020_Node000021" class="edge">
<title>Node20&#45;&gt;Node21</title>
<g id="a_edge22_Node000020_Node000021"><a xlink:title=" ">
<path fill="none" stroke="#63b8ff" d="M361.69,-46.5C389.75,-46.5 422.13,-46.5 447.96,-46.5"/>
<polygon fill="#63b8ff" stroke="#63b8ff" points="448.23,-50 458.23,-46.5 448.23,-43 448.23,-50"/>
</a>
</g>
</g>
<!-- Node22 -->
<g id="Node000022" class="node">
<title>Node22</title>
<g id="a_Node000022"><a target="_blank" xlink:href="http://en.cppreference.com/w/cpp/memory/shared_ptr/make_shared.html#" xlink:title=" ">
<polygon fill="white" stroke="#666666" points="547.5,-19 444.5,-19 444.5,0 547.5,0 547.5,-19"/>
<text text-anchor="middle" x="496" y="-7" font-family="Helvetica,sans-Serif" font-size="10.00">std::make_shared</text>
</a>
</g>
</g>
<!-- Node20&#45;&gt;Node22 -->
<g id="edge23_Node000020_Node000022" class="edge">
<title>Node20&#45;&gt;Node22</title>
<g id="a_edge23_Node000020_Node000022"><a xlink:title=" ">
<path fill="none" stroke="#63b8ff" d="M348.73,-36.97C374.93,-32.05 407.07,-26.01 434.55,-20.85"/>
<polygon fill="#63b8ff" stroke="#63b8ff" points="435.26,-24.28 444.44,-19 433.97,-17.4 435.26,-24.28"/>
</a>
</g>
</g>
<!-- Node23&#45;&gt;Node13 -->
<g id="edge26_Node000023_Node000013" class="edge">
<title>Node23&#45;&gt;Node13</title>
<g id="a_edge26_Node000023_Node000013"><a xlink:title=" ">
<path fill="none" stroke="#63b8ff" d="M379.37,-279.68C461.94,-278.84 586.53,-277.58 651.01,-276.93"/>
<polygon fill="#63b8ff" stroke="#63b8ff" points="651.24,-280.42 661.2,-276.82 651.17,-273.42 651.24,-280.42"/>
</a>
</g>
</g>
<!-- Node24&#45;&gt;Node13 -->
<g id="edge28_Node000024_Node000013" class="edge">
<title>Node24&#45;&gt;Node13</title>
<g id="a_edge28_Node000024_Node000013"><a xlink:title=" ">
<path fill="none" stroke="#63b8ff" d="M359.72,-226.72C440.83,-238.83 581.16,-259.79 651,-270.23"/>
<polygon fill="#63b8ff" stroke="#63b8ff" points="650.77,-273.73 661.18,-271.75 651.8,-266.81 650.77,-273.73"/>
</a>
</g>
</g>
<!-- Node25 -->
<g id="Node000025" class="node">
<title>Node25</title>
<g id="a_Node000025"><a xlink:href="classRa_1_1Core_1_1Utils_1_1AttribManager.html#a056b7697cfbedd6b20dde6ce7955094e" target="_top" xlink:title=" ">
<polygon fill="white" stroke="#666666" points="775,-231.5 613,-231.5 613,-201.5 775,-201.5 775,-231.5"/>
<text text-anchor="start" x="621" y="-219.5" font-family="Helvetica,sans-Serif" font-size="10.00">Ra::Core::Utils::AttribManager</text>
<text text-anchor="middle" x="694" y="-208.5" font-family="Helvetica,sans-Serif" font-size="10.00">::setAttrib</text>
</a>
</g>
</g>
<!-- Node24&#45;&gt;Node25 -->
<g id="edge29_Node000024_Node000025" class="edge">
<title>Node24&#45;&gt;Node25</title>
<g id="a_edge29_Node000024_Node000025"><a xlink:title=" ">
<path fill="none" stroke="#63b8ff" d="M359.72,-217.34C424.89,-217.18 528.3,-216.92 602.66,-216.73"/>
<polygon fill="#63b8ff" stroke="#63b8ff" points="602.96,-220.23 612.95,-216.7 602.94,-213.23 602.96,-220.23"/>
</a>
</g>
</g>
<!-- Node24&#45;&gt;Node29 -->
<g id="edge33_Node000024_Node000029" class="edge">
<title>Node24&#45;&gt;Node29</title>
<g id="a_edge33_Node000024_Node000029"><a xlink:title=" ">
<path fill="none" stroke="#63b8ff" d="M359.52,-202.2C379.79,-197.16 402.51,-191.51 423.46,-186.29"/>
<polygon fill="#63b8ff" stroke="#63b8ff" points="424.41,-189.67 433.27,-183.85 422.72,-182.87 424.41,-189.67"/>
</a>
</g>
</g>
<!-- Node26 -->
<g id="Node000026" class="node">
<title>Node26</title>
<g id="a_Node000026"><a target="_blank" xlink:href="http://en.cppreference.com/w/cpp/container/vector/at.html#" xlink:title=" ">
<polygon fill="white" stroke="#666666" points="930,-215 846,-215 846,-196 930,-196 930,-215"/>
<text text-anchor="middle" x="888" y="-203" font-family="Helvetica,sans-Serif" font-size="10.00">std::vector::at</text>
</a>
</g>
</g>
<!-- Node25&#45;&gt;Node26 -->
<g id="edge30_Node000025_Node000026" class="edge">
<title>Node25&#45;&gt;Node26</title>
<g id="a_edge30_Node000025_Node000026"><a xlink:title=" ">
<path fill="none" stroke="#63b8ff" d="M775.03,-211.91C795.61,-210.74 817.19,-209.5 835.86,-208.43"/>
<polygon fill="#63b8ff" stroke="#63b8ff" points="836.12,-211.92 845.9,-207.85 835.72,-204.93 836.12,-211.92"/>
</a>
</g>
</g>
<!-- Node27 -->
<g id="Node000027" class="node">
<title>Node27</title>
<g id="a_Node000027"><a target="_blank" xlink:href="http://en.cppreference.com/w/cpp/memory/unique_ptr/get.html#" xlink:title=" ">
<polygon fill="white" stroke="#666666" points="943.5,-178 832.5,-178 832.5,-159 943.5,-159 943.5,-178"/>
<text text-anchor="middle" x="888" y="-166" font-family="Helvetica,sans-Serif" font-size="10.00">std::unique_ptr::get</text>
</a>
</g>
</g>
<!-- Node25&#45;&gt;Node27 -->
<g id="edge31_Node000025_Node000027" class="edge">
<title>Node25&#45;&gt;Node27</title>
<g id="a_edge31_Node000025_Node000027"><a xlink:title=" ">
<path fill="none" stroke="#63b8ff" d="M755.22,-201.44C782.21,-194.7 813.61,-186.85 838.98,-180.5"/>
<polygon fill="#63b8ff" stroke="#63b8ff" points="839.89,-183.89 848.74,-178.06 838.19,-177.09 839.89,-183.89"/>
</a>
</g>
</g>
<!-- Node28 -->
<g id="Node000028" class="node">
<title>Node28</title>
<g id="a_Node000028"><a xlink:href="classRa_1_1Core_1_1Utils_1_1Attrib.html#a1aecf7dfdda7433ca789f8880b2fdb43" target="_top" xlink:title=" ">
<polygon fill="white" stroke="#666666" points="947.5,-263.5 828.5,-263.5 828.5,-233.5 947.5,-233.5 947.5,-263.5"/>
<text text-anchor="start" x="836.5" y="-251.5" font-family="Helvetica,sans-Serif" font-size="10.00">Ra::Core::Utils::Attrib</text>
<text text-anchor="middle" x="888" y="-240.5" font-family="Helvetica,sans-Serif" font-size="10.00">::setData</text>
</a>
</g>
</g>
<!-- Node25&#45;&gt;Node28 -->
<g id="edge32_Node000025_Node000028" class="edge">
<title>Node25&#45;&gt;Node28</title>
<g id="a_edge32_Node000025_Node000028"><a xlink:title=" ">
<path fill="none" stroke="#63b8ff" d="M775.03,-229.84C789.44,-232.24 804.34,-234.72 818.39,-237.06"/>
<polygon fill="#63b8ff" stroke="#63b8ff" points="818.01,-240.55 828.45,-238.74 819.16,-233.64 818.01,-240.55"/>
</a>
</g>
</g>
<!-- Node30 -->
<g id="Node000030" class="node">
<title>Node30</title>
<g id="a_Node000030"><a xlink:href="classRa_1_1Core_1_1Utils_1_1AttribManager.html#ae0cb7281ec72606a5392602b4ea50d2c" target="_top" xlink:title=" ">
<polygon fill="white" stroke="#666666" points="775,-183.5 613,-183.5 613,-153.5 775,-153.5 775,-183.5"/>
<text text-anchor="start" x="621" y="-171.5" font-family="Helvetica,sans-Serif" font-size="10.00">Ra::Core::Utils::AttribManager</text>
<text text-anchor="middle" x="694" y="-160.5" font-family="Helvetica,sans-Serif" font-size="10.00">::getAttrib</text>
</a>
</g>
</g>
<!-- Node29&#45;&gt;Node30 -->
<g id="edge34_Node000029_Node000030" class="edge">
<title>Node29&#45;&gt;Node30</title>
<g id="a_edge34_Node000029_Node000030"><a xlink:title=" ">
<path fill="none" stroke="#63b8ff" d="M558.75,-168.5C572.7,-168.5 587.79,-168.5 602.64,-168.5"/>
<polygon fill="#63b8ff" stroke="#63b8ff" points="602.87,-172 612.87,-168.5 602.87,-165 602.87,-172"/>
</a>
</g>
</g>
<!-- Node30&#45;&gt;Node26 -->
<g id="edge35_Node000030_Node000026" class="edge">
<title>Node30&#45;&gt;Node26</title>
<g id="a_edge35_Node000030_Node000026"><a xlink:title=" ">
<path fill="none" stroke="#63b8ff" d="M773.09,-183.55C794.21,-187.62 816.53,-191.92 835.77,-195.63"/>
<polygon fill="#63b8ff" stroke="#63b8ff" points="835.33,-199.11 845.81,-197.56 836.65,-192.23 835.33,-199.11"/>
</a>
</g>
</g>
<!-- Node30&#45;&gt;Node27 -->
<g id="edge36_Node000030_Node000027" class="edge">
<title>Node30&#45;&gt;Node27</title>
<g id="a_edge36_Node000030_Node000027"><a xlink:title=" ">
<path fill="none" stroke="#63b8ff" d="M775.03,-168.5C790.75,-168.5 807.06,-168.5 822.2,-168.5"/>
<polygon fill="#63b8ff" stroke="#63b8ff" points="822.48,-172 832.48,-168.5 822.48,-165 822.48,-172"/>
</a>
</g>
</g>
</g>
</svg>

<g id="navigator" transform="translate(0 0)" fill="#404254">
  <rect fill="#f2f5e9" fill-opacity="0.5" stroke="#606060" stroke-width=".5" x="0" y="0" width="60" height="60"/>
  <use id="zoomplus" xlink:href="#zoomPlus" x="17" y="9" onmousedown="handleZoom(evt,'in')"/>
  <use id="zoomminus" xlink:href="#zoomMin" x="42" y="9" onmousedown="handleZoom(evt,'out')"/>
  <use id="reset" xlink:href="#resetDef" x="30" y="36" onmousedown="handleReset()"/>
   <use id="arrowup" xlink:href="#arrowUp" x="0" y="0" onmousedown="handlePan(0,-1)"/>
  <use id="arrowright" xlink:href="#arrowRight" x="0" y="0" onmousedown="handlePan(1,0)"/>
  <use id="arrowdown" xlink:href="#arrowDown" x="0" y="0" onmousedown="handlePan(0,1)"/>
  <use id="arrowleft" xlink:href="#arrowLeft" x="0" y="0" onmousedown="handlePan(-1,0)"/>
</g>
<svg viewBox="0 0 15 15" width="100%" height="30px" preserveAspectRatio="xMaxYMin meet">
 <g id="arrow_out" transform="scale(0.3 0.3)">
  <a xlink:href="namespaceRa_1_1Engine_1_1Data_1_1DrawPrimitives_aa9438814ccaa8de9aaed2dbf5e0bd6aa_cgraph_org.svg" target="_base">
   <rect id="button" ry="5" rx="5" y="6" x="6" height="38" width="38"
        fill="#f2f5e9" fill-opacity="0.5" stroke="#606060" stroke-width="1.0"/>
   <path id="arrow"
     d="M 11.500037,31.436501 C 11.940474,20.09759 22.043105,11.32322 32.158766,21.979434 L 37.068811,17.246167 C 37.068811,17.246167 37.088388,32 37.088388,32 L 22.160133,31.978069 C 22.160133,31.978069 26.997745,27.140456 26.997745,27.140456 C 18.528582,18.264221 13.291696,25.230495 11.500037,31.436501 z"
     style="fill:#404040;"/>
  </a>
 </g>
</svg>

<style type='text/css'>
<![CDATA[
[data-mouse-over-selected='false'] { opacity: 0.7; }
[data-mouse-over-selected='true']  { opacity: 1.0; }
]]>
</style>
<script type="application/ecmascript"><![CDATA[
document.addEventListener('DOMContentLoaded', (event) => {
  highlightEdges();
  highlightAdjacentNodes();
});
]]></script>
</svg>
