<?xml version="1.0" encoding="UTF-8" standalone="no"?>
<!DOCTYPE svg PUBLIC "-//W3C//DTD SVG 1.1//EN"
 "http://www.w3.org/Graphics/SVG/1.1/DTD/svg11.dtd">
<!-- Generated by graphviz version 2.43.0 (0)
 -->
<!-- Title: /home/runner/work/Radium&#45;Engine/Radium&#45;Engine/src/Radium&#45;Engine/src/Gui/SelectionManager/SelectionManager.cpp Pages: 1 -->
<!--zoomable 486 -->
<svg id="main" version="1.1" xmlns="http://www.w3.org/2000/svg" xmlns:xlink="http://www.w3.org/1999/xlink" xml:space="preserve" onload="init(evt)">
<style type="text/css"><![CDATA[
.edge:hover path { stroke: red; }
.edge:hover polygon { stroke: red; fill: red; }
]]></style>
<script type="text/javascript"><![CDATA[
var edges = document.getElementsByTagName('g');
if (edges && edges.length) {
  for (var i=0;i<edges.length;i++) {
    if (edges[i].id.substr(0,4)=='edge') {
      edges[i].setAttribute('class','edge');
    }
  }
}
]]></script>
        <defs>
                <circle id="rim" cx="0" cy="0" r="7"/>
                <circle id="rim2" cx="0" cy="0" r="3.5"/>
                <g id="zoomPlus">
                        <use xlink:href="#rim" fill="#404040">
                                <set attributeName="fill" to="#808080" begin="zoomplus.mouseover" end="zoomplus.mouseout"/>
                        </use>
                        <path d="M-4,0h8M0,-4v8" fill="none" stroke="white" stroke-width="1.5" pointer-events="none"/>
                </g>
                <g id="zoomMin">
                        <use xlink:href="#rim" fill="#404040">
                                <set attributeName="fill" to="#808080" begin="zoomminus.mouseover" end="zoomminus.mouseout"/>
                        </use>
                        <path d="M-4,0h8" fill="none" stroke="white" stroke-width="1.5" pointer-events="none"/>
                </g>
                <g id="dirArrow">
                        <path fill="none" stroke="white" stroke-width="1.5" d="M0,-3.0v7 M-2.5,-0.5L0,-3.0L2.5,-0.5"/>
                </g>
               <g id="resetDef">
                       <use xlink:href="#rim2" fill="#404040">
                               <set attributeName="fill" to="#808080" begin="reset.mouseover" end="reset.mouseout"/>
                       </use>
               </g>
        </defs>

<script type="text/javascript">
var viewWidth = 1586;
var viewHeight = 486;
var sectionId = 'dynsection-0';
</script>
<script xlink:href="svgpan.js"/>
<svg id="graph" class="graph">
<g id="viewport">
<title>/home/runner/work/Radium&#45;Engine/Radium&#45;Engine/src/Radium&#45;Engine/src/Gui/SelectionManager/SelectionManager.cpp</title>
<polygon fill="white" stroke="transparent" points="-4,4 -4,-482 1582,-482 1582,4 -4,4"/>
<!-- Node1 -->
<g id="node1" class="node">
<title>Node1</title>
<g id="a_node1"><a xlink:title=" ">
<polygon fill="#bfbfbf" stroke="black" points="793.5,-425.5 793.5,-477.5 972.5,-477.5 972.5,-425.5 793.5,-425.5"/>
<text text-anchor="start" x="801.5" y="-465.5" font-family="Helvetica,sans-Serif" font-size="10.00">/home/runner/work/Radium</text>
<text text-anchor="start" x="801.5" y="-454.5" font-family="Helvetica,sans-Serif" font-size="10.00">&#45;Engine/Radium&#45;Engine/src</text>
<text text-anchor="start" x="801.5" y="-443.5" font-family="Helvetica,sans-Serif" font-size="10.00">/Radium&#45;Engine/src/Gui/Selection</text>
<text text-anchor="middle" x="883" y="-432.5" font-family="Helvetica,sans-Serif" font-size="10.00">Manager/SelectionManager.cpp</text>
</a>
</g>
</g>
<!-- Node2 -->
<g id="node2" class="node">
<title>Node2</title>
<g id="a_node2"><a xlink:href="SelectionManager_8hpp.html" target="_top" xlink:title=" ">
<polygon fill="white" stroke="black" points="534,-358.5 534,-388.5 662,-388.5 662,-358.5 534,-358.5"/>
<text text-anchor="start" x="542" y="-376.5" font-family="Helvetica,sans-Serif" font-size="10.00">Gui/SelectionManager</text>
<text text-anchor="middle" x="598" y="-365.5" font-family="Helvetica,sans-Serif" font-size="10.00">/SelectionManager.hpp</text>
</a>
</g>
</g>
<!-- Node1&#45;&gt;Node2 -->
<g id="edge1" class="edge">
<title>Node1&#45;&gt;Node2</title>
<path fill="none" stroke="midnightblue" d="M793.22,-426.56C750.23,-415.09 699.79,-401.64 660.96,-391.29"/>
<polygon fill="midnightblue" stroke="midnightblue" points="661.4,-387.78 650.83,-388.59 659.6,-394.55 661.4,-387.78"/>
</g>
<!-- Node24 -->
<g id="node24" class="node">
<title>Node24</title>
<g id="a_node24"><a xlink:href="RadiumEngine_8hpp.html" target="_top" xlink:title=" ">
<polygon fill="white" stroke="black" points="811,-235.5 811,-254.5 955,-254.5 955,-235.5 811,-235.5"/>
<text text-anchor="middle" x="883" y="-242.5" font-family="Helvetica,sans-Serif" font-size="10.00">Engine/RadiumEngine.hpp</text>
</a>
</g>
</g>
<!-- Node1&#45;&gt;Node24 -->
<g id="edge58" class="edge">
<title>Node1&#45;&gt;Node24</title>
<path fill="none" stroke="midnightblue" d="M883,-425.42C883,-384.04 883,-302.34 883,-265.19"/>
<polygon fill="midnightblue" stroke="midnightblue" points="886.5,-264.8 883,-254.8 879.5,-264.8 886.5,-264.8"/>
</g>
<!-- Node38 -->
<g id="node38" class="node">
<title>Node38</title>
<g id="a_node38"><a xlink:href="Log_8hpp.html" target="_top" xlink:title=" ">
<polygon fill="white" stroke="black" points="1318,-235.5 1318,-254.5 1424,-254.5 1424,-235.5 1318,-235.5"/>
<text text-anchor="middle" x="1371" y="-242.5" font-family="Helvetica,sans-Serif" font-size="10.00">Core/Utils/Log.hpp</text>
</a>
</g>
</g>
<!-- Node1&#45;&gt;Node38 -->
<g id="edge52" class="edge">
<title>Node1&#45;&gt;Node38</title>
<path fill="none" stroke="midnightblue" d="M942.84,-425.42C1048.03,-381.34 1262.41,-291.5 1341.14,-258.51"/>
<polygon fill="midnightblue" stroke="midnightblue" points="1342.61,-261.69 1350.48,-254.6 1339.9,-255.24 1342.61,-261.69"/>
</g>
<!-- Node3 -->
<g id="node3" class="node">
<title>Node3</title>
<g id="a_node3"><a xlink:href="RaGui_8hpp.html" target="_top" xlink:title=" ">
<polygon fill="white" stroke="black" points="614,-179.5 614,-198.5 700,-198.5 700,-179.5 614,-179.5"/>
<text text-anchor="middle" x="657" y="-186.5" font-family="Helvetica,sans-Serif" font-size="10.00">Gui/RaGui.hpp</text>
</a>
</g>
</g>
<!-- Node2&#45;&gt;Node3 -->
<g id="edge2" class="edge">
<title>Node2&#45;&gt;Node3</title>
<path fill="none" stroke="midnightblue" d="M634.45,-358.46C650.21,-350.35 667.06,-338.44 676,-322 696.02,-285.19 678.24,-234.46 666.1,-207.88"/>
<polygon fill="midnightblue" stroke="midnightblue" points="669.15,-206.16 661.66,-198.66 662.84,-209.19 669.15,-206.16"/>
</g>
<!-- Node15 -->
<g id="node15" class="node">
<title>Node15</title>
<g id="a_node15"><a xlink:href="ItemEntry_8hpp.html" target="_top" xlink:title=" ">
<polygon fill="white" stroke="black" points="245,-235.5 245,-254.5 397,-254.5 397,-235.5 245,-235.5"/>
<text text-anchor="middle" x="321" y="-242.5" font-family="Helvetica,sans-Serif" font-size="10.00">Engine/Scene/ItemEntry.hpp</text>
</a>
</g>
</g>
<!-- Node2&#45;&gt;Node15 -->
<g id="edge15" class="edge">
<title>Node2&#45;&gt;Node15</title>
<path fill="none" stroke="midnightblue" d="M533.97,-369.01C488.02,-363.93 426.31,-351.63 380,-322 357.42,-307.55 339.96,-281.35 330.08,-263.81"/>
<polygon fill="midnightblue" stroke="midnightblue" points="332.97,-261.79 325.15,-254.63 326.8,-265.1 332.97,-261.79"/>
</g>
<!-- Node23 -->
<g id="node23" class="node">
<title>Node23</title>
<g id="a_node23"><a xlink:href="EntityTreeModel_8hpp.html" target="_top" xlink:title=" ">
<polygon fill="white" stroke="black" points="529,-291.5 529,-321.5 667,-321.5 667,-291.5 529,-291.5"/>
<text text-anchor="start" x="537" y="-309.5" font-family="Helvetica,sans-Serif" font-size="10.00">Gui/TreeModel/EntityTree</text>
<text text-anchor="middle" x="598" y="-298.5" font-family="Helvetica,sans-Serif" font-size="10.00">Model.hpp</text>
</a>
</g>
</g>
<!-- Node2&#45;&gt;Node23 -->
<g id="edge27" class="edge">
<title>Node2&#45;&gt;Node23</title>
<path fill="none" stroke="midnightblue" d="M598,-358.4C598,-350.64 598,-340.81 598,-331.86"/>
<polygon fill="midnightblue" stroke="midnightblue" points="601.5,-331.58 598,-321.58 594.5,-331.58 601.5,-331.58"/>
</g>
<!-- Node37 -->
<g id="node37" class="node">
<title>Node37</title>
<g id="a_node37"><a xlink:title=" ">
<polygon fill="white" stroke="#bfbfbf" points="389,-297 389,-316 511,-316 511,-297 389,-297"/>
<text text-anchor="middle" x="450" y="-304" font-family="Helvetica,sans-Serif" font-size="10.00">QItemSelectionModel</text>
</a>
</g>
</g>
<!-- Node2&#45;&gt;Node37 -->
<g id="edge51" class="edge">
<title>Node2&#45;&gt;Node37</title>
<path fill="none" stroke="midnightblue" d="M565.89,-358.4C539.92,-346.99 503.69,-331.08 478.68,-320.1"/>
<polygon fill="midnightblue" stroke="midnightblue" points="479.93,-316.82 469.37,-316.01 477.12,-323.23 479.93,-316.82"/>
</g>
<!-- Node4 -->
<g id="node4" class="node">
<title>Node4</title>
<g id="a_node4"><a xlink:href="CoreMacros_8hpp.html" target="_top" xlink:title=" ">
<polygon fill="white" stroke="black" points="1031.5,-67.5 1031.5,-86.5 1152.5,-86.5 1152.5,-67.5 1031.5,-67.5"/>
<text text-anchor="middle" x="1092" y="-74.5" font-family="Helvetica,sans-Serif" font-size="10.00">Core/CoreMacros.hpp</text>
</a>
</g>
</g>
<!-- Node3&#45;&gt;Node4 -->
<g id="edge3" class="edge">
<title>Node3&#45;&gt;Node4</title>
<path fill="none" stroke="midnightblue" d="M690.77,-179.46C768.83,-159.72 961.68,-110.96 1048.45,-89.01"/>
<polygon fill="midnightblue" stroke="midnightblue" points="1049.41,-92.38 1058.25,-86.53 1047.7,-85.59 1049.41,-92.38"/>
</g>
<!-- Node10 -->
<g id="node10" class="node">
<title>Node10</title>
<g id="a_node10"><a xlink:href="RaEngine_8hpp.html" target="_top" xlink:title=" ">
<polygon fill="white" stroke="black" points="662.5,-123.5 662.5,-142.5 781.5,-142.5 781.5,-123.5 662.5,-123.5"/>
<text text-anchor="middle" x="722" y="-130.5" font-family="Helvetica,sans-Serif" font-size="10.00">Engine/RaEngine.hpp</text>
</a>
</g>
</g>
<!-- Node3&#45;&gt;Node10 -->
<g id="edge9" class="edge">
<title>Node3&#45;&gt;Node10</title>
<path fill="none" stroke="midnightblue" d="M667.44,-179.32C677.15,-171.26 691.82,-159.08 703.5,-149.37"/>
<polygon fill="midnightblue" stroke="midnightblue" points="705.91,-151.92 711.37,-142.83 701.44,-146.53 705.91,-151.92"/>
</g>
<!-- Node5 -->
<g id="node5" class="node">
<title>Node5</title>
<g id="a_node5"><a xlink:title=" ">
<polygon fill="white" stroke="#bfbfbf" points="966,-6 966,-25 1018,-25 1018,-6 966,-6"/>
<text text-anchor="middle" x="992" y="-13" font-family="Helvetica,sans-Serif" font-size="10.00">cassert</text>
</a>
</g>
</g>
<!-- Node4&#45;&gt;Node5 -->
<g id="edge4" class="edge">
<title>Node4&#45;&gt;Node5</title>
<path fill="none" stroke="midnightblue" d="M1077.67,-67.48C1061.34,-57.75 1034.4,-41.73 1015.09,-30.24"/>
<polygon fill="midnightblue" stroke="midnightblue" points="1016.68,-27.11 1006.3,-25.01 1013.11,-33.13 1016.68,-27.11"/>
</g>
<!-- Node6 -->
<g id="node6" class="node">
<title>Node6</title>
<g id="a_node6"><a xlink:title=" ">
<polygon fill="white" stroke="#bfbfbf" points="1036,-6 1036,-25 1082,-25 1082,-6 1036,-6"/>
<text text-anchor="middle" x="1059" y="-13" font-family="Helvetica,sans-Serif" font-size="10.00">cstdio</text>
</a>
</g>
</g>
<!-- Node4&#45;&gt;Node6 -->
<g id="edge5" class="edge">
<title>Node4&#45;&gt;Node6</title>
<path fill="none" stroke="midnightblue" d="M1087.27,-67.48C1082.42,-58.73 1074.73,-44.87 1068.6,-33.81"/>
<polygon fill="midnightblue" stroke="midnightblue" points="1071.63,-32.06 1063.72,-25.01 1065.51,-35.45 1071.63,-32.06"/>
</g>
<!-- Node7 -->
<g id="node7" class="node">
<title>Node7</title>
<g id="a_node7"><a xlink:title=" ">
<polygon fill="white" stroke="#bfbfbf" points="1100,-6 1100,-25 1160,-25 1160,-6 1100,-6"/>
<text text-anchor="middle" x="1130" y="-13" font-family="Helvetica,sans-Serif" font-size="10.00">iostream</text>
</a>
</g>
</g>
<!-- Node4&#45;&gt;Node7 -->
<g id="edge6" class="edge">
<title>Node4&#45;&gt;Node7</title>
<path fill="none" stroke="midnightblue" d="M1097.44,-67.48C1103.09,-58.64 1112.06,-44.59 1119.16,-33.48"/>
<polygon fill="midnightblue" stroke="midnightblue" points="1122.13,-35.32 1124.57,-25.01 1116.23,-31.55 1122.13,-35.32"/>
</g>
<!-- Node8 -->
<g id="node8" class="node">
<title>Node8</title>
<g id="a_node8"><a xlink:title=" ">
<polygon fill="white" stroke="#bfbfbf" points="1361,-6 1361,-25 1417,-25 1417,-6 1361,-6"/>
<text text-anchor="middle" x="1389" y="-13" font-family="Helvetica,sans-Serif" font-size="10.00">sstream</text>
</a>
</g>
</g>
<!-- Node4&#45;&gt;Node8 -->
<g id="edge7" class="edge">
<title>Node4&#45;&gt;Node8</title>
<path fill="none" stroke="midnightblue" d="M1134.55,-67.48C1192.42,-55.88 1295.06,-35.32 1350.65,-24.18"/>
<polygon fill="midnightblue" stroke="midnightblue" points="1351.67,-27.55 1360.79,-22.15 1350.3,-20.68 1351.67,-27.55"/>
</g>
<!-- Node9 -->
<g id="node9" class="node">
<title>Node9</title>
<g id="a_node9"><a xlink:title=" ">
<polygon fill="white" stroke="#bfbfbf" points="1178,-6 1178,-25 1226,-25 1226,-6 1178,-6"/>
<text text-anchor="middle" x="1202" y="-13" font-family="Helvetica,sans-Serif" font-size="10.00">thread</text>
</a>
</g>
</g>
<!-- Node4&#45;&gt;Node9 -->
<g id="edge8" class="edge">
<title>Node4&#45;&gt;Node9</title>
<path fill="none" stroke="midnightblue" d="M1107.76,-67.48C1125.98,-57.62 1156.17,-41.29 1177.47,-29.77"/>
<polygon fill="midnightblue" stroke="midnightblue" points="1179.14,-32.85 1186.27,-25.01 1175.81,-26.69 1179.14,-32.85"/>
</g>
<!-- Node10&#45;&gt;Node4 -->
<g id="edge10" class="edge">
<title>Node10&#45;&gt;Node4</title>
<path fill="none" stroke="midnightblue" d="M780.63,-123.44C846.66,-113.81 953.84,-98.16 1023.63,-87.98"/>
<polygon fill="midnightblue" stroke="midnightblue" points="1024.26,-91.42 1033.65,-86.52 1023.25,-84.5 1024.26,-91.42"/>
</g>
<!-- Node11 -->
<g id="node11" class="node">
<title>Node11</title>
<g id="a_node11"><a xlink:href="OpenGL_8hpp.html" target="_top" xlink:title=" ">
<polygon fill="white" stroke="black" points="666,-67.5 666,-86.5 778,-86.5 778,-67.5 666,-67.5"/>
<text text-anchor="middle" x="722" y="-74.5" font-family="Helvetica,sans-Serif" font-size="10.00">Engine/OpenGL.hpp</text>
</a>
</g>
</g>
<!-- Node10&#45;&gt;Node11 -->
<g id="edge11" class="edge">
<title>Node10&#45;&gt;Node11</title>
<path fill="none" stroke="midnightblue" d="M722,-123.08C722,-116.01 722,-105.86 722,-96.99"/>
<polygon fill="midnightblue" stroke="midnightblue" points="725.5,-96.75 722,-86.75 718.5,-96.75 725.5,-96.75"/>
</g>
<!-- Node12 -->
<g id="node12" class="node">
<title>Node12</title>
<g id="a_node12"><a xlink:title=" ">
<polygon fill="white" stroke="#bfbfbf" points="515,-6 515,-25 643,-25 643,-6 515,-6"/>
<text text-anchor="middle" x="579" y="-13" font-family="Helvetica,sans-Serif" font-size="10.00">glbinding/gl45core/gl.h</text>
</a>
</g>
</g>
<!-- Node11&#45;&gt;Node12 -->
<g id="edge12" class="edge">
<title>Node11&#45;&gt;Node12</title>
<path fill="none" stroke="midnightblue" d="M701.51,-67.48C677.19,-57.36 636.45,-40.4 608.68,-28.85"/>
<polygon fill="midnightblue" stroke="midnightblue" points="610.03,-25.62 599.45,-25.01 607.34,-32.08 610.03,-25.62"/>
</g>
<!-- Node13 -->
<g id="node13" class="node">
<title>Node13</title>
<g id="a_node13"><a xlink:title=" ">
<polygon fill="white" stroke="#bfbfbf" points="661,-6 661,-25 783,-25 783,-6 661,-6"/>
<text text-anchor="middle" x="722" y="-13" font-family="Helvetica,sans-Serif" font-size="10.00">glbinding/gl45ext/gl.h</text>
</a>
</g>
</g>
<!-- Node11&#45;&gt;Node13 -->
<g id="edge13" class="edge">
<title>Node11&#45;&gt;Node13</title>
<path fill="none" stroke="midnightblue" d="M722,-67.48C722,-59.08 722,-45.98 722,-35.16"/>
<polygon fill="midnightblue" stroke="midnightblue" points="725.5,-35.01 722,-25.01 718.5,-35.01 725.5,-35.01"/>
</g>
<!-- Node14 -->
<g id="node14" class="node">
<title>Node14</title>
<g id="a_node14"><a xlink:title=" ">
<polygon fill="white" stroke="#bfbfbf" points="801.5,-0.5 801.5,-30.5 914.5,-30.5 914.5,-0.5 801.5,-0.5"/>
<text text-anchor="start" x="809.5" y="-18.5" font-family="Helvetica,sans-Serif" font-size="10.00">glbinding&#45;aux/types</text>
<text text-anchor="middle" x="858" y="-7.5" font-family="Helvetica,sans-Serif" font-size="10.00">_to_string.h</text>
</a>
</g>
</g>
<!-- Node11&#45;&gt;Node14 -->
<g id="edge14" class="edge">
<title>Node11&#45;&gt;Node14</title>
<path fill="none" stroke="midnightblue" d="M741.49,-67.48C761.02,-58.93 791.71,-45.5 816.69,-34.57"/>
<polygon fill="midnightblue" stroke="midnightblue" points="818.19,-37.74 825.95,-30.52 815.38,-31.32 818.19,-37.74"/>
</g>
<!-- Node15&#45;&gt;Node10 -->
<g id="edge16" class="edge">
<title>Node15&#45;&gt;Node10</title>
<path fill="none" stroke="midnightblue" d="M318.79,-235.46C315.77,-221.55 312.26,-194.06 327,-179 349.27,-156.24 544.71,-142.91 652.07,-137.24"/>
<polygon fill="midnightblue" stroke="midnightblue" points="652.37,-140.73 662.17,-136.72 652,-133.74 652.37,-140.73"/>
</g>
<!-- Node16 -->
<g id="node16" class="node">
<title>Node16</title>
<g id="a_node16"><a xlink:href="Index_8hpp.html" target="_top" xlink:title=" ">
<polygon fill="white" stroke="black" points="164,-179.5 164,-198.5 280,-198.5 280,-179.5 164,-179.5"/>
<text text-anchor="middle" x="222" y="-186.5" font-family="Helvetica,sans-Serif" font-size="10.00">Core/Utils/Index.hpp</text>
</a>
</g>
</g>
<!-- Node15&#45;&gt;Node16 -->
<g id="edge17" class="edge">
<title>Node15&#45;&gt;Node16</title>
<path fill="none" stroke="midnightblue" d="M305.09,-235.32C289.36,-226.74 265.06,-213.49 246.79,-203.52"/>
<polygon fill="midnightblue" stroke="midnightblue" points="248.32,-200.37 237.87,-198.65 244.97,-206.52 248.32,-200.37"/>
</g>
<!-- Node20 -->
<g id="node20" class="node">
<title>Node20</title>
<g id="a_node20"><a xlink:title=" ">
<polygon fill="white" stroke="#bfbfbf" points="832,-179.5 832,-198.5 876,-198.5 876,-179.5 832,-179.5"/>
<text text-anchor="middle" x="854" y="-186.5" font-family="Helvetica,sans-Serif" font-size="10.00">string</text>
</a>
</g>
</g>
<!-- Node15&#45;&gt;Node20 -->
<g id="edge23" class="edge">
<title>Node15&#45;&gt;Node20</title>
<path fill="none" stroke="midnightblue" d="M397.03,-237.4C489.01,-229.24 648.49,-214.52 785,-199 797.04,-197.63 810.24,-195.95 821.84,-194.42"/>
<polygon fill="midnightblue" stroke="midnightblue" points="822.51,-197.86 831.96,-193.06 821.58,-190.92 822.51,-197.86"/>
</g>
<!-- Node21 -->
<g id="node21" class="node">
<title>Node21</title>
<g id="a_node21"><a xlink:title=" ">
<polygon fill="white" stroke="#bfbfbf" points="471.5,-179.5 471.5,-198.5 518.5,-198.5 518.5,-179.5 471.5,-179.5"/>
<text text-anchor="middle" x="495" y="-186.5" font-family="Helvetica,sans-Serif" font-size="10.00">vector</text>
</a>
</g>
</g>
<!-- Node15&#45;&gt;Node21 -->
<g id="edge24" class="edge">
<title>Node15&#45;&gt;Node21</title>
<path fill="none" stroke="midnightblue" d="M348.57,-235.44C379.31,-225.9 429.02,-210.48 461.86,-200.29"/>
<polygon fill="midnightblue" stroke="midnightblue" points="462.95,-203.61 471.46,-197.3 460.88,-196.93 462.95,-203.61"/>
</g>
<!-- Node22 -->
<g id="node22" class="node">
<title>Node22</title>
<g id="a_node22"><a xlink:href="ItemEntry_8inl.html" target="_top" xlink:title=" ">
<polygon fill="white" stroke="black" points="0,-179.5 0,-198.5 146,-198.5 146,-179.5 0,-179.5"/>
<text text-anchor="middle" x="73" y="-186.5" font-family="Helvetica,sans-Serif" font-size="10.00">Engine/Scene/ItemEntry.inl</text>
</a>
</g>
</g>
<!-- Node15&#45;&gt;Node22 -->
<g id="edge25" class="edge">
<title>Node15&#45;&gt;Node22</title>
<path fill="none" stroke="midnightblue" d="M276.61,-235.44C231.38,-226.04 161.83,-210.93 116.81,-200.74"/>
<polygon fill="midnightblue" stroke="midnightblue" points="117.56,-197.32 107.03,-198.52 116.01,-204.15 117.56,-197.32"/>
</g>
<!-- Node17 -->
<g id="node17" class="node">
<title>Node17</title>
<g id="a_node17"><a xlink:href="RaCore_8hpp.html" target="_top" xlink:title=" ">
<polygon fill="white" stroke="black" points="1081,-123.5 1081,-142.5 1179,-142.5 1179,-123.5 1081,-123.5"/>
<text text-anchor="middle" x="1130" y="-130.5" font-family="Helvetica,sans-Serif" font-size="10.00">Core/RaCore.hpp</text>
</a>
</g>
</g>
<!-- Node16&#45;&gt;Node17 -->
<g id="edge18" class="edge">
<title>Node16&#45;&gt;Node17</title>
<path fill="none" stroke="midnightblue" d="M280.02,-182.72C295.29,-181.41 311.76,-180.08 327,-179 604.93,-159.31 937.49,-142.97 1070.63,-136.73"/>
<polygon fill="midnightblue" stroke="midnightblue" points="1070.8,-140.22 1080.63,-136.26 1070.47,-133.23 1070.8,-140.22"/>
</g>
<!-- Node18 -->
<g id="node18" class="node">
<title>Node18</title>
<g id="a_node18"><a xlink:title=" ">
<polygon fill="white" stroke="#bfbfbf" points="105,-123.5 105,-142.5 149,-142.5 149,-123.5 105,-123.5"/>
<text text-anchor="middle" x="127" y="-130.5" font-family="Helvetica,sans-Serif" font-size="10.00">limits</text>
</a>
</g>
</g>
<!-- Node16&#45;&gt;Node18 -->
<g id="edge20" class="edge">
<title>Node16&#45;&gt;Node18</title>
<path fill="none" stroke="midnightblue" d="M206.74,-179.32C191.78,-170.82 168.75,-157.73 151.27,-147.8"/>
<polygon fill="midnightblue" stroke="midnightblue" points="152.65,-144.55 142.23,-142.65 149.19,-150.64 152.65,-144.55"/>
</g>
<!-- Node19 -->
<g id="node19" class="node">
<title>Node19</title>
<g id="a_node19"><a xlink:href="Index_8inl.html" target="_top" xlink:title=" ">
<polygon fill="white" stroke="black" points="167,-123.5 167,-142.5 277,-142.5 277,-123.5 167,-123.5"/>
<text text-anchor="middle" x="222" y="-130.5" font-family="Helvetica,sans-Serif" font-size="10.00">Core/Utils/Index.inl</text>
</a>
</g>
</g>
<!-- Node16&#45;&gt;Node19 -->
<g id="edge21" class="edge">
<title>Node16&#45;&gt;Node19</title>
<path fill="none" stroke="midnightblue" d="M216.83,-179.08C215.32,-171.93 214.89,-161.64 215.54,-152.69"/>
<polygon fill="midnightblue" stroke="midnightblue" points="219.02,-153.13 216.87,-142.75 212.08,-152.2 219.02,-153.13"/>
</g>
<!-- Node17&#45;&gt;Node4 -->
<g id="edge19" class="edge">
<title>Node17&#45;&gt;Node4</title>
<path fill="none" stroke="midnightblue" d="M1123.73,-123.08C1118.36,-115.46 1110.48,-104.26 1103.92,-94.94"/>
<polygon fill="midnightblue" stroke="midnightblue" points="1106.78,-92.91 1098.16,-86.75 1101.05,-96.94 1106.78,-92.91"/>
</g>
<!-- Node19&#45;&gt;Node16 -->
<g id="edge22" class="edge">
<title>Node19&#45;&gt;Node16</title>
<path fill="none" stroke="midnightblue" d="M227.13,-142.75C228.66,-149.86 229.1,-160.14 228.47,-169.1"/>
<polygon fill="midnightblue" stroke="midnightblue" points="224.99,-168.71 227.17,-179.08 231.93,-169.62 224.99,-168.71"/>
</g>
<!-- Node22&#45;&gt;Node15 -->
<g id="edge26" class="edge">
<title>Node22&#45;&gt;Node15</title>
<path fill="none" stroke="midnightblue" d="M117.19,-198.52C162.36,-207.9 231.91,-223.01 277,-233.22"/>
<polygon fill="midnightblue" stroke="midnightblue" points="276.27,-236.64 286.79,-235.44 277.82,-229.81 276.27,-236.64"/>
</g>
<!-- Node23&#45;&gt;Node3 -->
<g id="edge28" class="edge">
<title>Node23&#45;&gt;Node3</title>
<path fill="none" stroke="midnightblue" d="M611.11,-291.43C619.5,-281.79 630.07,-268.38 637,-255 644.64,-240.26 649.92,-222.1 653.13,-208.72"/>
<polygon fill="midnightblue" stroke="midnightblue" points="656.58,-209.32 655.34,-198.8 649.75,-207.79 656.58,-209.32"/>
</g>
<!-- Node23&#45;&gt;Node15 -->
<g id="edge44" class="edge">
<title>Node23&#45;&gt;Node15</title>
<path fill="none" stroke="midnightblue" d="M532.71,-291.47C483.04,-280.81 415.75,-266.35 370.48,-256.63"/>
<polygon fill="midnightblue" stroke="midnightblue" points="371.11,-253.18 360.6,-254.51 369.64,-260.03 371.11,-253.18"/>
</g>
<!-- Node23&#45;&gt;Node24 -->
<g id="edge29" class="edge">
<title>Node23&#45;&gt;Node24</title>
<path fill="none" stroke="midnightblue" d="M665.18,-291.47C716.39,-280.78 785.81,-266.29 832.39,-256.57"/>
<polygon fill="midnightblue" stroke="midnightblue" points="833.18,-259.98 842.26,-254.51 831.75,-253.12 833.18,-259.98"/>
</g>
<!-- Node34 -->
<g id="node34" class="node">
<title>Node34</title>
<g id="a_node34"><a xlink:href="TreeModel_8hpp.html" target="_top" xlink:title=" ">
<polygon fill="white" stroke="black" points="467.5,-235.5 467.5,-254.5 628.5,-254.5 628.5,-235.5 467.5,-235.5"/>
<text text-anchor="middle" x="548" y="-242.5" font-family="Helvetica,sans-Serif" font-size="10.00">Gui/TreeModel/TreeModel.hpp</text>
</a>
</g>
</g>
<!-- Node23&#45;&gt;Node34 -->
<g id="edge45" class="edge">
<title>Node23&#45;&gt;Node34</title>
<path fill="none" stroke="midnightblue" d="M586.15,-291.4C578.89,-282.75 569.55,-271.64 561.93,-262.58"/>
<polygon fill="midnightblue" stroke="midnightblue" points="564.39,-260.06 555.28,-254.66 559.03,-264.57 564.39,-260.06"/>
</g>
<!-- Node24&#45;&gt;Node10 -->
<g id="edge30" class="edge">
<title>Node24&#45;&gt;Node10</title>
<path fill="none" stroke="midnightblue" d="M870.37,-235.37C842.74,-216.49 776.72,-171.38 742.84,-148.24"/>
<polygon fill="midnightblue" stroke="midnightblue" points="744.81,-145.34 734.57,-142.59 740.86,-151.12 744.81,-145.34"/>
</g>
<!-- Node24&#45;&gt;Node20 -->
<g id="edge41" class="edge">
<title>Node24&#45;&gt;Node20</title>
<path fill="none" stroke="midnightblue" d="M878.21,-235.08C874.24,-227.69 868.47,-216.95 863.57,-207.81"/>
<polygon fill="midnightblue" stroke="midnightblue" points="866.51,-205.91 858.7,-198.75 860.35,-209.22 866.51,-205.91"/>
</g>
<!-- Node24&#45;&gt;Node21 -->
<g id="edge42" class="edge">
<title>Node24&#45;&gt;Node21</title>
<path fill="none" stroke="midnightblue" d="M810.89,-238.05C740.87,-231.56 631.48,-219.52 528.6,-199.08"/>
<polygon fill="midnightblue" stroke="midnightblue" points="529.16,-195.63 518.67,-197.08 527.78,-202.49 529.16,-195.63"/>
</g>
<!-- Node25 -->
<g id="node25" class="node">
<title>Node25</title>
<g id="a_node25"><a xlink:href="Types_8hpp.html" target="_top" xlink:title=" ">
<polygon fill="white" stroke="black" points="1318.5,-179.5 1318.5,-198.5 1409.5,-198.5 1409.5,-179.5 1318.5,-179.5"/>
<text text-anchor="middle" x="1364" y="-186.5" font-family="Helvetica,sans-Serif" font-size="10.00">Core/Types.hpp</text>
</a>
</g>
</g>
<!-- Node24&#45;&gt;Node25 -->
<g id="edge31" class="edge">
<title>Node24&#45;&gt;Node25</title>
<path fill="none" stroke="midnightblue" d="M955.01,-235.92C1051.56,-225.08 1220.92,-206.06 1308.32,-196.25"/>
<polygon fill="midnightblue" stroke="midnightblue" points="1308.76,-199.72 1318.31,-195.13 1307.98,-192.77 1308.76,-199.72"/>
</g>
<!-- Node29 -->
<g id="node29" class="node">
<title>Node29</title>
<g id="a_node29"><a xlink:href="Singleton_8hpp.html" target="_top" xlink:title=" ">
<polygon fill="white" stroke="black" points="1128,-179.5 1128,-198.5 1262,-198.5 1262,-179.5 1128,-179.5"/>
<text text-anchor="middle" x="1195" y="-186.5" font-family="Helvetica,sans-Serif" font-size="10.00">Core/Utils/Singleton.hpp</text>
</a>
</g>
</g>
<!-- Node24&#45;&gt;Node29 -->
<g id="edge36" class="edge">
<title>Node24&#45;&gt;Node29</title>
<path fill="none" stroke="midnightblue" d="M932.44,-235.44C987.66,-225.89 1077.02,-210.42 1135.89,-200.23"/>
<polygon fill="midnightblue" stroke="midnightblue" points="1136.54,-203.67 1145.79,-198.52 1135.34,-196.77 1136.54,-203.67"/>
</g>
<!-- Node30 -->
<g id="node30" class="node">
<title>Node30</title>
<g id="a_node30"><a xlink:title=" ">
<polygon fill="white" stroke="#bfbfbf" points="894,-179.5 894,-198.5 932,-198.5 932,-179.5 894,-179.5"/>
<text text-anchor="middle" x="913" y="-186.5" font-family="Helvetica,sans-Serif" font-size="10.00">map</text>
</a>
</g>
</g>
<!-- Node24&#45;&gt;Node30 -->
<g id="edge38" class="edge">
<title>Node24&#45;&gt;Node30</title>
<path fill="none" stroke="midnightblue" d="M887.95,-235.08C892.1,-227.61 898.15,-216.72 903.27,-207.52"/>
<polygon fill="midnightblue" stroke="midnightblue" points="906.34,-209.19 908.14,-198.75 900.22,-205.79 906.34,-209.19"/>
</g>
<!-- Node31 -->
<g id="node31" class="node">
<title>Node31</title>
<g id="a_node31"><a xlink:title=" ">
<polygon fill="white" stroke="#bfbfbf" points="718,-179.5 718,-198.5 776,-198.5 776,-179.5 718,-179.5"/>
<text text-anchor="middle" x="747" y="-186.5" font-family="Helvetica,sans-Serif" font-size="10.00">memory</text>
</a>
</g>
</g>
<!-- Node24&#45;&gt;Node31 -->
<g id="edge39" class="edge">
<title>Node24&#45;&gt;Node31</title>
<path fill="none" stroke="midnightblue" d="M861.45,-235.44C838.97,-226.52 803.51,-212.44 778.02,-202.32"/>
<polygon fill="midnightblue" stroke="midnightblue" points="779.03,-198.95 768.45,-198.52 776.45,-205.46 779.03,-198.95"/>
</g>
<!-- Node32 -->
<g id="node32" class="node">
<title>Node32</title>
<g id="a_node32"><a xlink:title=" ">
<polygon fill="white" stroke="#bfbfbf" points="950.5,-179.5 950.5,-198.5 993.5,-198.5 993.5,-179.5 950.5,-179.5"/>
<text text-anchor="middle" x="972" y="-186.5" font-family="Helvetica,sans-Serif" font-size="10.00">stack</text>
</a>
</g>
</g>
<!-- Node24&#45;&gt;Node32 -->
<g id="edge40" class="edge">
<title>Node24&#45;&gt;Node32</title>
<path fill="none" stroke="midnightblue" d="M897.3,-235.32C911.18,-226.9 932.49,-213.97 948.8,-204.07"/>
<polygon fill="midnightblue" stroke="midnightblue" points="951,-206.83 957.74,-198.65 947.37,-200.85 951,-206.83"/>
</g>
<!-- Node33 -->
<g id="node33" class="node">
<title>Node33</title>
<g id="a_node33"><a xlink:title=" ">
<polygon fill="white" stroke="#bfbfbf" points="1012,-179.5 1012,-198.5 1110,-198.5 1110,-179.5 1012,-179.5"/>
<text text-anchor="middle" x="1061" y="-186.5" font-family="Helvetica,sans-Serif" font-size="10.00">globjects/State.h</text>
</a>
</g>
</g>
<!-- Node24&#45;&gt;Node33 -->
<g id="edge43" class="edge">
<title>Node24&#45;&gt;Node33</title>
<path fill="none" stroke="midnightblue" d="M911.2,-235.44C941.41,-226.28 989.51,-211.69 1023.03,-201.52"/>
<polygon fill="midnightblue" stroke="midnightblue" points="1024.37,-204.77 1032.93,-198.52 1022.34,-198.07 1024.37,-204.77"/>
</g>
<!-- Node25&#45;&gt;Node17 -->
<g id="edge32" class="edge">
<title>Node25&#45;&gt;Node17</title>
<path fill="none" stroke="midnightblue" d="M1326.92,-179.44C1286.27,-170.06 1220.97,-154.99 1176.82,-144.8"/>
<polygon fill="midnightblue" stroke="midnightblue" points="1177.44,-141.35 1166.9,-142.52 1175.86,-148.18 1177.44,-141.35"/>
</g>
<!-- Node26 -->
<g id="node26" class="node">
<title>Node26</title>
<g id="a_node26"><a xlink:title=" ">
<polygon fill="white" stroke="#bfbfbf" points="1295.5,-123.5 1295.5,-142.5 1364.5,-142.5 1364.5,-123.5 1295.5,-123.5"/>
<text text-anchor="middle" x="1330" y="-130.5" font-family="Helvetica,sans-Serif" font-size="10.00">Eigen/Core</text>
</a>
</g>
</g>
<!-- Node25&#45;&gt;Node26 -->
<g id="edge33" class="edge">
<title>Node25&#45;&gt;Node26</title>
<path fill="none" stroke="midnightblue" d="M1358.39,-179.08C1353.63,-171.53 1346.68,-160.49 1340.85,-151.23"/>
<polygon fill="midnightblue" stroke="midnightblue" points="1343.8,-149.35 1335.51,-142.75 1337.88,-153.08 1343.8,-149.35"/>
</g>
<!-- Node27 -->
<g id="node27" class="node">
<title>Node27</title>
<g id="a_node27"><a xlink:title=" ">
<polygon fill="white" stroke="#bfbfbf" points="1382.5,-123.5 1382.5,-142.5 1477.5,-142.5 1477.5,-123.5 1382.5,-123.5"/>
<text text-anchor="middle" x="1430" y="-130.5" font-family="Helvetica,sans-Serif" font-size="10.00">Eigen/Geometry</text>
</a>
</g>
</g>
<!-- Node25&#45;&gt;Node27 -->
<g id="edge34" class="edge">
<title>Node25&#45;&gt;Node27</title>
<path fill="none" stroke="midnightblue" d="M1374.6,-179.32C1384.46,-171.26 1399.35,-159.08 1411.22,-149.37"/>
<polygon fill="midnightblue" stroke="midnightblue" points="1413.68,-151.88 1419.2,-142.83 1409.25,-146.46 1413.68,-151.88"/>
</g>
<!-- Node28 -->
<g id="node28" class="node">
<title>Node28</title>
<g id="a_node28"><a xlink:title=" ">
<polygon fill="white" stroke="#bfbfbf" points="1197,-123.5 1197,-142.5 1277,-142.5 1277,-123.5 1197,-123.5"/>
<text text-anchor="middle" x="1237" y="-130.5" font-family="Helvetica,sans-Serif" font-size="10.00">Eigen/Sparse</text>
</a>
</g>
</g>
<!-- Node25&#45;&gt;Node28 -->
<g id="edge35" class="edge">
<title>Node25&#45;&gt;Node28</title>
<path fill="none" stroke="midnightblue" d="M1343.88,-179.44C1322.98,-170.56 1290.07,-156.56 1266.28,-146.45"/>
<polygon fill="midnightblue" stroke="midnightblue" points="1267.6,-143.21 1257.03,-142.52 1264.86,-149.65 1267.6,-143.21"/>
</g>
<!-- Node29&#45;&gt;Node17 -->
<g id="edge37" class="edge">
<title>Node29&#45;&gt;Node17</title>
<path fill="none" stroke="midnightblue" d="M1184.56,-179.32C1174.85,-171.26 1160.18,-159.08 1148.5,-149.37"/>
<polygon fill="midnightblue" stroke="midnightblue" points="1150.56,-146.53 1140.63,-142.83 1146.09,-151.92 1150.56,-146.53"/>
</g>
<!-- Node34&#45;&gt;Node3 -->
<g id="edge46" class="edge">
<title>Node34&#45;&gt;Node3</title>
<path fill="none" stroke="midnightblue" d="M565.51,-235.32C583.07,-226.62 610.33,-213.12 630.53,-203.11"/>
<polygon fill="midnightblue" stroke="midnightblue" points="632.12,-206.23 639.53,-198.65 629.02,-199.96 632.12,-206.23"/>
</g>
<!-- Node34&#45;&gt;Node21 -->
<g id="edge48" class="edge">
<title>Node34&#45;&gt;Node21</title>
<path fill="none" stroke="midnightblue" d="M539.25,-235.08C531.53,-227.22 520.1,-215.57 510.78,-206.08"/>
<polygon fill="midnightblue" stroke="midnightblue" points="513.09,-203.44 503.59,-198.75 508.1,-208.34 513.09,-203.44"/>
</g>
<!-- Node34&#45;&gt;Node31 -->
<g id="edge47" class="edge">
<title>Node34&#45;&gt;Node31</title>
<path fill="none" stroke="midnightblue" d="M579.53,-235.44C614.29,-226.01 670.26,-210.83 707.81,-200.63"/>
<polygon fill="midnightblue" stroke="midnightblue" points="709.15,-203.9 717.88,-197.9 707.31,-197.14 709.15,-203.9"/>
</g>
<!-- Node35 -->
<g id="node35" class="node">
<title>Node35</title>
<g id="a_node35"><a xlink:title=" ">
<polygon fill="white" stroke="#bfbfbf" points="336.5,-179.5 336.5,-198.5 453.5,-198.5 453.5,-179.5 336.5,-179.5"/>
<text text-anchor="middle" x="395" y="-186.5" font-family="Helvetica,sans-Serif" font-size="10.00">QAbstractItemModel</text>
</a>
</g>
</g>
<!-- Node34&#45;&gt;Node35 -->
<g id="edge49" class="edge">
<title>Node34&#45;&gt;Node35</title>
<path fill="none" stroke="midnightblue" d="M523.76,-235.44C498.13,-226.4 457.51,-212.06 428.76,-201.92"/>
<polygon fill="midnightblue" stroke="midnightblue" points="429.72,-198.54 419.13,-198.52 427.39,-205.15 429.72,-198.54"/>
</g>
<!-- Node36 -->
<g id="node36" class="node">
<title>Node36</title>
<g id="a_node36"><a xlink:title=" ">
<polygon fill="white" stroke="#bfbfbf" points="536.5,-179.5 536.5,-198.5 595.5,-198.5 595.5,-179.5 536.5,-179.5"/>
<text text-anchor="middle" x="566" y="-186.5" font-family="Helvetica,sans-Serif" font-size="10.00">QVariant</text>
</a>
</g>
</g>
<!-- Node34&#45;&gt;Node36 -->
<g id="edge50" class="edge">
<title>Node34&#45;&gt;Node36</title>
<path fill="none" stroke="midnightblue" d="M550.97,-235.08C553.38,-227.85 556.86,-217.41 559.87,-208.4"/>
<polygon fill="midnightblue" stroke="midnightblue" points="563.24,-209.34 563.08,-198.75 556.6,-207.13 563.24,-209.34"/>
</g>
<!-- Node38&#45;&gt;Node8 -->
<g id="edge55" class="edge">
<title>Node38&#45;&gt;Node8</title>
<path fill="none" stroke="midnightblue" d="M1424.13,-236.97C1447.48,-230.95 1472.78,-219.76 1487,-199 1527.04,-140.51 1447.34,-63.91 1408.54,-31.75"/>
<polygon fill="midnightblue" stroke="midnightblue" points="1410.48,-28.82 1400.51,-25.25 1406.07,-34.26 1410.48,-28.82"/>
</g>
<!-- Node38&#45;&gt;Node17 -->
<g id="edge53" class="edge">
<title>Node38&#45;&gt;Node17</title>
<path fill="none" stroke="midnightblue" d="M1359.89,-235.34C1342.03,-221.76 1305.43,-195.32 1271,-179 1240.39,-164.49 1203.92,-152.99 1175.74,-145.25"/>
<polygon fill="midnightblue" stroke="midnightblue" points="1176.33,-141.79 1165.76,-142.57 1174.51,-148.55 1176.33,-141.79"/>
</g>
<!-- Node38&#45;&gt;Node20 -->
<g id="edge57" class="edge">
<title>Node38&#45;&gt;Node20</title>
<path fill="none" stroke="midnightblue" d="M1317.68,-242.38C1229.59,-238.97 1048.11,-228.91 886.36,-198.91"/>
<polygon fill="midnightblue" stroke="midnightblue" points="886.7,-195.42 876.23,-197 885.41,-202.29 886.7,-195.42"/>
</g>
<!-- Node39 -->
<g id="node39" class="node">
<title>Node39</title>
<g id="a_node39"><a xlink:title=" ">
<polygon fill="white" stroke="#bfbfbf" points="1534,-179.5 1534,-198.5 1578,-198.5 1578,-179.5 1534,-179.5"/>
<text text-anchor="middle" x="1556" y="-186.5" font-family="Helvetica,sans-Serif" font-size="10.00">ctime</text>
</a>
</g>
</g>
<!-- Node38&#45;&gt;Node39 -->
<g id="edge54" class="edge">
<title>Node38&#45;&gt;Node39</title>
<path fill="none" stroke="midnightblue" d="M1400.31,-235.44C1434.07,-225.59 1489.32,-209.46 1524.12,-199.3"/>
<polygon fill="midnightblue" stroke="midnightblue" points="1525.17,-202.64 1533.79,-196.48 1523.21,-195.92 1525.17,-202.64"/>
</g>
<!-- Node40 -->
<g id="node40" class="node">
<title>Node40</title>
<g id="a_node40"><a xlink:title=" ">
<polygon fill="white" stroke="#bfbfbf" points="1428,-179.5 1428,-198.5 1478,-198.5 1478,-179.5 1428,-179.5"/>
<text text-anchor="middle" x="1453" y="-186.5" font-family="Helvetica,sans-Serif" font-size="10.00">stdio.h</text>
</a>
</g>
</g>
<!-- Node38&#45;&gt;Node40 -->
<g id="edge56" class="edge">
<title>Node38&#45;&gt;Node40</title>
<path fill="none" stroke="midnightblue" d="M1384.17,-235.32C1396.85,-226.98 1416.23,-214.21 1431.21,-204.35"/>
<polygon fill="midnightblue" stroke="midnightblue" points="1433.43,-207.08 1439.86,-198.65 1429.58,-201.23 1433.43,-207.08"/>
</g>
</g>
</svg>
        <g id="navigator" transform="translate(0 0)" fill="#404254">
                <rect fill="#f2f5e9" fill-opacity="0.5" stroke="#606060" stroke-width=".5" x="0" y="0" width="60" height="60"/>
                <use id="zoomplus" xlink:href="#zoomPlus" x="17" y="9" onmousedown="handleZoom(evt,'in')"/>
                <use id="zoomminus" xlink:href="#zoomMin" x="42" y="9" onmousedown="handleZoom(evt,'out')"/>
                <use id="reset" xlink:href="#resetDef" x="30" y="36" onmousedown="handleReset()"/>
                <g id="arrowUp" xlink:href="#dirArrow" transform="translate(30 24)" onmousedown="handlePan(0,-1)">
                  <use xlink:href="#rim" fill="#404040">
                        <set attributeName="fill" to="#808080" begin="arrowUp.mouseover" end="arrowUp.mouseout"/>
                  </use>
                  <path fill="none" stroke="white" stroke-width="1.5" d="M0,-3.0v7 M-2.5,-0.5L0,-3.0L2.5,-0.5"/>
                </g>
                <g id="arrowRight" xlink:href="#dirArrow" transform="rotate(90) translate(36 -43)" onmousedown="handlePan(1,0)">
                  <use xlink:href="#rim" fill="#404040">
                        <set attributeName="fill" to="#808080" begin="arrowRight.mouseover" end="arrowRight.mouseout"/>
                  </use>
                  <path fill="none" stroke="white" stroke-width="1.5" d="M0,-3.0v7 M-2.5,-0.5L0,-3.0L2.5,-0.5"/>
                </g>
                <g id="arrowDown" xlink:href="#dirArrow" transform="rotate(180) translate(-30 -48)" onmousedown="handlePan(0,1)">
                  <use xlink:href="#rim" fill="#404040">
                        <set attributeName="fill" to="#808080" begin="arrowDown.mouseover" end="arrowDown.mouseout"/>
                  </use>
                  <path fill="none" stroke="white" stroke-width="1.5" d="M0,-3.0v7 M-2.5,-0.5L0,-3.0L2.5,-0.5"/>
                </g>
                <g id="arrowLeft" xlink:href="#dirArrow" transform="rotate(270) translate(-36 17)" onmousedown="handlePan(-1,0)">
                  <use xlink:href="#rim" fill="#404040">
                        <set attributeName="fill" to="#808080" begin="arrowLeft.mouseover" end="arrowLeft.mouseout"/>
                  </use>
                  <path fill="none" stroke="white" stroke-width="1.5" d="M0,-3.0v7 M-2.5,-0.5L0,-3.0L2.5,-0.5"/>
                </g>
        </g>
        <svg viewBox="0 0 15 15" width="100%" height="30px" preserveAspectRatio="xMaxYMin meet">
         <g id="arrow_out" transform="scale(0.3 0.3)">
          <a xlink:href="SelectionManager_8cpp__incl_org.svg" target="_base">
           <rect id="button" ry="5" rx="5" y="6" x="6" height="38" width="38"
                fill="#f2f5e9" fill-opacity="0.5" stroke="#606060" stroke-width="1.0"/>
           <path id="arrow"
             d="M 11.500037,31.436501 C 11.940474,20.09759 22.043105,11.32322 32.158766,21.979434 L 37.068811,17.246167 C 37.068811,17.246167 37.088388,32 37.088388,32 L 22.160133,31.978069 C 22.160133,31.978069 26.997745,27.140456 26.997745,27.140456 C 18.528582,18.264221 13.291696,25.230495 11.500037,31.436501 z"
             style="fill:#404040;"/>
          </a>
         </g>
        </svg>
</svg>
